<svg width="1300" height="810" viewBox="0 0 1300 810" fill="none" xmlns="http://www.w3.org/2000/svg">
<path d="M242.431 76.5763L241.312 79.3595C251.652 83.7092 273.925 103.543 276.525 147.805C279.797 203.507 268.655 251.547 225.254 282.689C222.26 284.838 214.151 288.761 203.055 292.393C192.005 296.01 178.139 299.291 163.694 300.231C134.78 302.113 103.927 294.635 88.2169 262.201C62.7835 209.694 83.2551 160.6 96.6072 142.695C103.084 134.046 115.242 121.311 130.58 111.341C145.926 101.366 164.291 94.2626 183.249 96.572L184.594 96.7358L184.894 95.4143C189.642 74.4435 211.654 27.5556 261.484 8.31997C311.281 -10.9029 340.67 14.2573 344.201 36.7599C345.386 44.312 345.759 55.6581 343.105 65.1719C341.781 69.9195 339.73 74.1112 336.746 77.1625C334.006 79.9654 330.422 81.8661 325.706 82.3206L319.512 64.33L318.76 62.1453L317.07 63.7215C306.612 73.4795 276.938 89.8073 242.431 76.5763Z" stroke="#D1D4D8" stroke-width="3"/>
<path d="M348.105 129C348.105 136.643 346.283 143.44 343.469 148.242C340.619 153.103 337.047 155.5 333.605 155.5C330.162 155.5 326.59 153.103 323.741 148.242C320.926 143.44 319.105 136.643 319.105 129C319.105 121.357 320.926 114.56 323.741 109.758C326.59 104.897 330.162 102.5 333.605 102.5C337.047 102.5 340.619 104.897 343.469 109.758C346.283 114.56 348.105 121.357 348.105 129Z" stroke="#D1D4D8" stroke-width="3"/>
<path d="M335.062 137C337.272 137 339.062 133.642 339.062 129.5C339.062 125.358 337.272 122 335.062 122C332.853 122 331.062 125.358 331.062 129.5C331.062 133.642 332.853 137 335.062 137Z" fill="#D1D4D8"/>
<path d="M277.605 144L319.605 134" stroke="#D1D4D8" stroke-width="3" stroke-linecap="round"/>
<path d="M320.969 289.45C320.097 281.34 323.453 262.098 343.853 250" stroke="#D1D4D8" stroke-width="3" stroke-linecap="round"/>
<path d="M248.848 299V265.468" stroke="#D1D4D8" stroke-width="3" stroke-linecap="round"/>
<path d="M329.268 84C333.845 90.5749 346.544 104.543 358.69 111.615C371.113 118.847 373.728 130.024 367.844 139.229L358.69 153.694C365.228 163.776 376.831 186.486 365.847 207" stroke="#D1D4D8" stroke-width="3" stroke-linecap="round"/>
<path d="M301.105 184C302.486 184 303.605 182.881 303.605 181.5C303.605 180.119 302.486 179 301.105 179C299.724 179 298.605 180.119 298.605 181.5C298.605 182.881 299.724 184 301.105 184Z" fill="#D1D4D8"/>
<path d="M295.605 208C297.262 208 298.605 206.881 298.605 205.5C298.605 204.119 297.262 203 295.605 203C293.948 203 292.605 204.119 292.605 205.5C292.605 206.881 293.948 208 295.605 208Z" fill="#D1D4D8"/>
<path d="M325.605 217C327.127 220.683 332.257 228.44 340.605 230" stroke="#D1D4D8" stroke-width="3" stroke-linecap="round"/>
<path d="M316.605 201C318.262 201 319.605 199.881 319.605 198.5C319.605 197.119 318.262 196 316.605 196C314.948 196 313.605 197.119 313.605 198.5C313.605 199.881 314.948 201 316.605 201Z" fill="#D1D4D8"/>
<path d="M379.707 229.813C369.871 229.156 349.279 225.476 345.606 216.014C341.934 206.552 353.695 205.501 360.034 206.158C368.122 207.472 387.97 213.649 402.66 227.842C421.022 245.583 462.337 291.58 482.01 332.976C497.749 366.094 524.418 409.856 535.785 427.597C558.3 462.642 594.15 535.36 499.717 537.989C475.453 538.664 440.04 509.339 403.316 486.735" stroke="#D1D4D8" stroke-width="3" stroke-linecap="round"/>
<path d="M349.458 255.44C343.583 252.154 338.261 242.035 363.967 227.842" stroke="#D1D4D8" stroke-width="3" stroke-linecap="round"/>
<path d="M368.557 281.723L377.738 279.095C381.455 277.562 388.493 276.992 386.919 286.98C385.346 296.968 357.584 298.15 356.097 286.98C355.553 282.89 355.664 276.966 357.442 271.21C359.949 263.095 365.769 255.313 377.738 253.468" stroke="#D1D4D8" stroke-width="3" stroke-linecap="round"/>
<path d="M357.441 271.21C352.129 268.932 345.718 263.368 349.456 255.44C351.109 251.933 354.747 247.964 361.342 243.612" stroke="#D1D4D8" stroke-width="3" stroke-linecap="round"/>
<path d="M148.587 651.233C149.024 668.232 141.903 703.423 109.925 708.191C77.9465 712.96 38.0611 713.269 22.1156 712.828C11.8494 713.711 -5.93083 711.635 5.07806 696.27C16.087 680.904 33.6923 678.388 41.1188 679.05C60.996 680.375 100.62 673.619 100.095 636" stroke="#D1D4D8" stroke-width="3" stroke-linecap="round"/>
<path d="M784.605 659C791.412 657.903 808.848 650.309 816.227 633.981C825.45 613.57 844.555 605.011 851.143 612.911C856.413 619.232 854.217 623.446 853.778 624.763" stroke="#D1D4D8" stroke-width="3" stroke-linecap="round"/>
<path d="M581.796 645.183C503.861 639.953 472.529 615.549 466.605 604C479.111 722.319 795.723 694.863 788.482 681.136C782.69 670.154 774.221 662.615 770.71 660.218C716.735 626.226 679.215 651.72 581.796 645.183Z" fill="#D1D4D8"/>
<path d="M311.369 793.788C218.461 779.155 189.387 721.921 193.346 695.5C211.846 764.5 359.967 770.814 425.846 725.5C467.846 688 470.705 623.566 467.846 598.5C479.723 635.083 503.556 643.453 540.34 660.327C571.353 674.554 693.867 672.07 753.475 667.102C783.168 664.627 810.702 686.165 793.066 745.01C766.672 833.081 427.504 812.08 311.369 793.788Z" fill="#D1D4D8"/>
<path d="M387.25 281C393.381 294.138 405.775 329.347 406.3 365.081" stroke="#D1D4D8" stroke-width="3" stroke-linecap="round"/>
<path d="M406.301 365.081L360.319 309.246C352.217 300.05 330.233 284.416 307.11 295.451L244.705 302.02C195.657 374.715 96.2467 529.959 90.9915 569.372C85.7364 608.785 96.6846 630.462 102.816 636.374C114.421 647.541 144.332 663.175 171.133 636.374C176.461 631.047 180.856 625.994 184.465 621.266C199.01 602.211 196.095 591.706 198.723 579.882" stroke="#D1D4D8" stroke-width="3" stroke-linecap="round"/>
<path d="M184.465 621.266C178.707 659.803 188.212 739.374 272.295 749.358C356.378 759.343 407.615 738.629 422.724 727.024C440.022 712.354 473.305 666.985 468.05 602.873L439.803 512.223" stroke="#D1D4D8" stroke-width="3" stroke-linecap="round"/>
<path d="M813.86 692.997C818.66 691.033 825.249 684.091 828.915 664.182C832.58 644.273 847.897 629.691 855.097 624.889C861.861 620.086 875.782 615.851 877.353 637.331C878.924 658.812 872.771 700.419 869.498 718.538C867.971 725.96 860.858 743.031 844.624 751.938C828.391 760.844 802.514 765.69 791.605 767" stroke="#D1D4D8" stroke-width="3"/>
<path d="M1173.59 732C1164.39 716 1193.76 713.666 1209.59 714.5V726L1261.09 732C1235.76 738.666 1182.79 748 1173.59 732Z" fill="#D1D4D8"/>
<path d="M1286.59 710.5L1267.09 730.5" stroke="#D1D4D8" stroke-width="3" stroke-linecap="round"/>
<path d="M1262.59 669.5L1212.09 666" stroke="#D1D4D8" stroke-width="3" stroke-linecap="round"/>
<path d="M1232.59 653L1286.59 655.5" stroke="#D1D4D8" stroke-width="3" stroke-linecap="round"/>
<path d="M1211.09 666L1208.59 724" stroke="#D1D4D8" stroke-width="3" stroke-linecap="round"/>
<path d="M1286.59 656.5V709.5" stroke="#D1D4D8" stroke-width="3" stroke-linecap="round"/>
<path d="M1267.09 688V730.5" stroke="#D1D4D8" stroke-width="3" stroke-linecap="round"/>
<path d="M1211.09 666L1232.59 653" stroke="#D1D4D8" stroke-width="3" stroke-linecap="round"/>
<path d="M1267.09 730.5L1208.09 724.5" stroke="#D1D4D8" stroke-width="3" stroke-linecap="round"/>
<path d="M1032.85 640.5C1033.35 626.5 1089.35 631 1092.85 631.5V640.5L1109.85 652.5C1084.01 653.167 1032.45 651.7 1032.85 640.5Z" fill="#D1D4D8"/>
<path d="M1171.85 639V588" stroke="#D1D4D8" stroke-width="3" stroke-linecap="round"/>
<path d="M1128.35 652V596" stroke="#D1D4D8" stroke-width="3" stroke-linecap="round"/>
<path d="M1092.35 639V583" stroke="#D1D4D8" stroke-width="3" stroke-linecap="round"/>
<path d="M1092.35 583L1131.85 573" stroke="#D1D4D8" stroke-width="3" stroke-linecap="round"/>
<path d="M1171.85 587.5L1128.35 595.5" stroke="#D1D4D8" stroke-width="3" stroke-linecap="round"/>
<path d="M1128.35 652.5L1171.85 639.5" stroke="#D1D4D8" stroke-width="3" stroke-linecap="round"/>
<path d="M1171.85 587.5L1131.85 573" stroke="#D1D4D8" stroke-width="3" stroke-linecap="round"/>
<path d="M1092.35 583.5L1128.85 595.5" stroke="#D1D4D8" stroke-width="3" stroke-linecap="round"/>
<path d="M1137.85 544.5C1138.35 530.5 1194.35 535 1197.85 535.5V544.5L1214.85 556.5C1189.01 557.167 1137.45 555.7 1137.85 544.5Z" fill="#D1D4D8"/>
<path d="M1276.85 543V492" stroke="#D1D4D8" stroke-width="3" stroke-linecap="round"/>
<path d="M1233.35 556V500" stroke="#D1D4D8" stroke-width="3" stroke-linecap="round"/>
<path d="M1197.35 543V487" stroke="#D1D4D8" stroke-width="3" stroke-linecap="round"/>
<path d="M1233.35 556.5L1276.85 543.5" stroke="#D1D4D8" stroke-width="3" stroke-linecap="round"/>
<path d="M1276.85 491.5L1233.35 499.5" stroke="#D1D4D8" stroke-width="3" stroke-linecap="round"/>
<path d="M1197.35 487L1236.85 477" stroke="#D1D4D8" stroke-width="3" stroke-linecap="round"/>
<path d="M1276.85 491.5L1236.85 477" stroke="#D1D4D8" stroke-width="3" stroke-linecap="round"/>
<path d="M1197.35 487.5L1233.85 499.5" stroke="#D1D4D8" stroke-width="3" stroke-linecap="round"/>
<path d="M1261.28 440.356L1240.17 473.431C1239.48 474.499 1239.96 475.924 1241.14 476.375L1275.26 489.397C1276.18 489.745 1277.21 489.383 1277.7 488.54L1297.64 454.563C1298.27 453.488 1297.77 452.104 1296.6 451.674L1263.66 439.556C1262.78 439.231 1261.79 439.564 1261.28 440.356Z" stroke="#D1D4D8" stroke-width="3"/>
<path d="M1203.39 434L1211.39 452" stroke="#D1D4D8" stroke-width="3" stroke-linecap="round"/>
<path d="M1175.39 444L1201.39 466" stroke="#D1D4D8" stroke-width="3" stroke-linecap="round"/>
<path d="M1174.39 473L1190.39 482" stroke="#D1D4D8" stroke-width="3" stroke-linecap="round"/>
</svg>
