<svg width="1460" height="1202" viewBox="0 0 1460 1202" fill="none" xmlns="http://www.w3.org/2000/svg">
<g clip-path="url(#clip0_418_2802)">
<path d="M618.9 790.896L712.9 794.896" stroke="#D1D4D8" stroke-width="3" stroke-linecap="round"/>
<path d="M617.9 790.896L493.9 801.896" stroke="#D1D4D8" stroke-width="3" stroke-linecap="round"/>
<path d="M492.9 801.896L517.9 917.896" stroke="#D1D4D8" stroke-width="3" stroke-linecap="round"/>
<path d="M517.9 917.896L620.9 935.896" stroke="#D1D4D8" stroke-width="3" stroke-linecap="round"/>
<path d="M620.9 934.896V811.896" stroke="#D1D4D8" stroke-width="3" stroke-linecap="round"/>
<path d="M620.9 812.896L493.9 802.896" stroke="#D1D4D8" stroke-width="3" stroke-linecap="round"/>
<path d="M620.9 812.896L712.9 794.896" stroke="#D1D4D8" stroke-width="3" stroke-linecap="round"/>
<path d="M714.9 794.896L708.9 886.896" stroke="#D1D4D8" stroke-width="3" stroke-linecap="round"/>
<path d="M708.9 886.896L620.9 935.896" stroke="#D1D4D8" stroke-width="3" stroke-linecap="round"/>
<path d="M619.9 790.896V810.896" stroke="#D1D4D8" stroke-width="3" stroke-linecap="round"/>
<path d="M545.999 839.002L566.204 840.252C570.889 840.542 574.453 844.575 574.163 849.261L573.978 852.251C573.688 856.936 569.655 860.5 564.969 860.21L544.765 858.96C540.079 858.671 536.516 854.637 536.806 849.952L536.991 846.962C537.28 842.276 541.314 838.713 545.999 839.002Z" stroke="#D1D4D8" stroke-width="3"/>
<path d="M621.619 961.896L711.4 888.396L621.4 938.396L515.4 919.896L505.4 921.396L621.619 961.896Z" fill="#D1D4D8"/>
<path d="M293.9 723.396C354.9 717.396 477.3 704.296 500.9 871.896C530.4 1081.4 514.4 1039.4 486.4 1078.9C464 1110.5 427.733 973.73 412.4 901.396" stroke="#D1D4D8" stroke-width="3" stroke-linecap="round"/>
<path d="M303.899 853.396C318.899 878.896 297.232 964.063 280.899 1027.4C275.399 1068.4 325.231 1082.4 334.899 1061.9C357.066 1014.9 399.899 938.696 423.899 871.896C447.899 805.096 361.399 748.896 293.899 748.896C276.899 748.73 248.898 750.896 228.398 753.396" stroke="#D1D4D8" stroke-width="3" stroke-linecap="round"/>
<path d="M408.9 514.896L414.161 497.202C414.314 496.686 414.669 496.254 415.145 496.003L492.674 455.124C494.243 454.296 496.033 455.771 495.521 457.471L445.207 624.378C445.015 625.014 444.52 625.514 443.886 625.711L366.693 649.716C365.124 650.204 363.669 648.697 364.211 647.146L384.4 589.396" stroke="#D1D4D8" stroke-width="3" stroke-linecap="round"/>
<path d="M228.242 251.604L226.727 254.193C236.815 260.313 256.887 284.346 252.778 330.694C247.609 389.007 225.275 443.9 175.423 469.558C171.977 471.332 163.82 473.899 152.911 475.532C142.041 477.159 128.566 477.84 114.518 475.926C86.458 472.104 56.1784 457.96 39.6029 420.303C27.3112 392.379 29.906 365.913 37.6845 344.302C45.4737 322.661 58.4445 305.947 66.7585 297.674C74.8138 289.69 89.3929 278.342 106.847 270.351C124.312 262.356 144.477 257.802 163.817 263.119L165.123 263.478L165.613 262.215C173.77 241.172 203.832 195.881 258.524 183.575C313.182 171.278 339.864 201.921 340.068 225.871C340.137 233.895 338.779 245.737 334.557 255.213C332.45 259.943 329.672 263.988 326.093 266.706C322.792 269.213 318.746 270.641 313.739 270.373L310.067 250.697L309.643 248.425L307.741 249.737C295.375 258.264 262.045 270.655 228.242 251.604Z" stroke="#D1D4D8" stroke-width="3"/>
<path d="M329.987 322.198C328.81 330.146 325.868 336.941 322.193 341.51C318.476 346.132 314.362 348.107 310.729 347.569C307.097 347.031 303.732 343.948 301.515 338.446C299.323 333.008 298.477 325.653 299.655 317.705C300.832 309.757 303.774 302.962 307.449 298.393C311.166 293.771 315.28 291.796 318.913 292.334C322.545 292.872 325.91 295.955 328.127 301.457C330.319 306.895 331.165 314.25 329.987 322.198Z" stroke="#D1D4D8" stroke-width="3"/>
<path d="M314.844 330.528C317.859 330.975 320.955 326.938 321.759 321.511C322.564 316.084 320.771 311.322 317.756 310.875C314.741 310.429 311.645 314.466 310.841 319.893C310.037 325.32 311.829 330.082 314.844 330.528Z" fill="#D1D4D8"/>
<path d="M254.41 326.906L298.661 321.98" stroke="#D1D4D8" stroke-width="3" stroke-linecap="round"/>
<path d="M317.237 272.596C320.975 280.122 332.004 296.567 343.52 305.772C355.298 315.186 356.293 327.186 348.773 335.832L337.051 349.434C343.52 398.899 333.989 435.527 273.363 452.578" stroke="#D1D4D8" stroke-width="3" stroke-linecap="round"/>
<path d="M272.644 372.022C274.076 372.235 275.41 371.245 275.622 369.813C275.834 368.38 274.845 367.047 273.412 366.835C271.98 366.622 270.646 367.612 270.434 369.044C270.222 370.477 271.211 371.81 272.644 372.022Z" fill="#D1D4D8"/>
<path d="M263.248 396.079C264.968 396.334 266.533 395.379 266.746 393.946C266.958 392.513 265.736 391.146 264.017 390.891C262.298 390.636 260.732 391.591 260.52 393.024C260.308 394.456 261.529 395.824 263.248 396.079Z" fill="#D1D4D8"/>
<path d="M286.114 392.045C287.833 392.299 289.399 391.344 289.611 389.912C289.823 388.479 288.601 387.111 286.882 386.857C285.163 386.602 283.597 387.557 283.385 388.99C283.173 390.422 284.395 391.79 286.114 392.045Z" fill="#D1D4D8"/>
<path d="M176.316 480.896C102.854 534.483 111.644 601.309 111.644 683.896" stroke="#D1D4D8" stroke-width="3" stroke-linecap="round"/>
<path d="M178.316 481.805L213.584 512.667C214.729 513.669 216.529 513.076 216.855 511.589L226.049 469.541C226.39 467.982 228.33 467.431 229.44 468.578L253.316 493.26" stroke="#D1D4D8" stroke-width="3" stroke-linecap="round"/>
<path d="M253.316 456.896C255.273 460.562 258.077 466.518 260.704 473.441C264.311 482.943 267.584 494.267 267.877 503.986" stroke="#D1D4D8" stroke-width="3" stroke-linecap="round"/>
<path d="M209.316 542.406C221.361 558.721 289.191 603.901 338.004 554.328L351.316 539.896" stroke="#D1D4D8" stroke-width="3" stroke-linecap="round"/>
<path d="M242.316 701.896C257.987 697.844 332.316 657.141 353.965 619.32" stroke="#D1D4D8" stroke-width="3" stroke-linecap="round"/>
<path d="M348.16 570.152C353.529 589.425 355.04 605.695 353.964 619.32C365.907 611.126 377.315 604.821 377.315 578.977C377.315 560.697 364.005 544.939 351.963 539.896" stroke="#D1D4D8" stroke-width="3" stroke-linecap="round"/>
<path d="M248.316 526.896C251.078 526.896 253.316 524.209 253.316 520.896C253.316 517.582 251.078 514.896 248.316 514.896C245.555 514.896 243.316 517.582 243.316 520.896C243.316 524.209 245.555 526.896 248.316 526.896Z" fill="#D1D4D8"/>
<path d="M255.316 555.896C258.078 555.896 260.316 553.209 260.316 549.896C260.316 546.582 258.078 543.896 255.316 543.896C252.555 543.896 250.316 546.582 250.316 549.896C250.316 553.209 252.555 555.896 255.316 555.896Z" fill="#D1D4D8"/>
<path d="M308.435 389.896C307.791 393.796 309.466 401.856 321.317 402.896" stroke="#D1D4D8" stroke-width="3" stroke-linecap="round"/>
<path d="M258.9 1144.4C233.7 1125.2 280.733 1131.73 307.4 1137.4L330.9 1144.4C310.1 1159.2 274.233 1150.57 258.9 1144.4Z" fill="#D1D4D8"/>
<path d="M468.4 1113.4C463.21 1106.38 486.4 1102.9 506.4 1110.63L529.9 1117.9C515.067 1125.23 476.9 1124.9 468.4 1113.4Z" fill="#D1D4D8"/>
<path d="M5.39965 648.396C-13.8003 740.396 33.3997 829.396 59.3997 862.396C93.01 881.167 126.336 890.113 157.4 892.726C224.306 898.353 280.721 874.608 306.9 856.396C307.9 844.73 289.3 824.297 206.9 835.896C138.9 679.096 44.233 645.563 5.39965 648.396Z" fill="#D1D4D8"/>
<path d="M520.9 1067.4C521.9 1077.23 532 1096.9 564.4 1096.9C604.9 1096.9 570.9 1119.9 534.4 1117.4C505.2 1115.4 495.9 1102.9 494.9 1096.9" stroke="#D1D4D8" stroke-width="3" stroke-linecap="round"/>
<path d="M320.362 1096.12C316.823 1108.11 320.582 1117.98 355.623 1132.08C399.425 1149.7 341.186 1149.19 308.327 1136.88C275.468 1124.57 270.878 1115.4 283.772 1062.9" stroke="#D1D4D8" stroke-width="3" stroke-linecap="round"/>
<path d="M167.9 1200.9C109.358 1200.9 61.9004 1191.72 61.9004 1180.4C61.9004 1169.08 109.358 1159.9 167.9 1159.9C226.443 1159.9 273.9 1169.08 273.9 1180.4C273.9 1191.72 226.443 1200.9 167.9 1200.9Z" fill="#D1D4D8"/>
<path d="M316.4 659.396C320.4 668.063 327.2 690.096 322.4 708.896" stroke="#D1D4D8" stroke-width="3" stroke-linecap="round"/>
<path d="M265.4 485.896C274.733 494.23 295 519.496 301.4 553.896" stroke="#D1D4D8" stroke-width="3" stroke-linecap="round"/>
<path d="M298.4 542.396C304.733 547.063 323.6 553.596 348.4 542.396" stroke="#D1D4D8" stroke-width="3" stroke-linecap="round"/>
<path d="M179.9 1160.4V886.396H156.4V1160.4H179.9Z" fill="#D1D4D8"/>
<path d="M1429.92 1048.17C1419.48 1072.26 1373.55 1118.08 1359.45 1096.09C1353 1086.02 1359.45 1078.81 1372.24 1063.88C1385.57 1048.33 1385.81 1039.01 1379.29 1034.04C1375.63 1030.89 1366.76 1023.04 1363.63 1019.9" stroke="#D1D4D8" stroke-width="3" stroke-linecap="round"/>
<path d="M1248.77 1031.53C1256.76 1061.35 1231.32 1079.97 1206.15 1081.47C1174.69 1083.34 1155.77 1076.94 1161.92 1066.27C1166.85 1057.74 1181.78 1058.3 1189.45 1058.9C1203.68 1060 1210.55 1045.87 1201.19 1026.25" stroke="#D1D4D8" stroke-width="3" stroke-linecap="round"/>
<path d="M1292.06 1075.56C1292.73 1060.86 1256 1066.36 1237.1 1070C1232.56 1078.9 1217.43 1080.87 1215.78 1083.09C1237.65 1085.77 1291.38 1090.26 1292.06 1075.56Z" fill="#D1D4D8"/>
<path d="M1458.08 1107.67C1470.07 1096.32 1420.47 1092.42 1394.17 1091.9C1390.38 1097.58 1375.76 1101.63 1368.92 1102.94C1393.64 1109.25 1446.09 1119.03 1458.08 1107.67Z" fill="#D1D4D8"/>
<path d="M972.924 269.896C966.059 259.643 952.488 236.296 953.121 224.939C952.593 221.258 952.805 213.896 957.874 213.896C962.944 213.896 964.739 221.258 965.003 224.939" stroke="#D1D4D8" stroke-width="3" stroke-linecap="round"/>
<path d="M1221.26 582.944C1236.33 623.932 1280.28 688.772 1335.49 620.23C1390.71 551.687 1308.78 411.323 1260.92 349.709" stroke="#D1D4D8" stroke-width="3" stroke-linecap="round"/>
<path d="M1111.78 408.415C1117.6 391.227 1136.22 358.436 1164.14 364.783C1192.06 371.129 1209.09 343.099 1214.12 328.29" stroke="#D1D4D8" stroke-width="3" stroke-linecap="round"/>
<path d="M1080.84 478.227C1059.16 520.273 1053.87 600.398 1080.84 659.896" stroke="#D1D4D8" stroke-width="3" stroke-linecap="round"/>
<path d="M1080.84 523.446C1020.55 484.573 1002.31 410.795 988.03 360.023C981.391 333.05 965.183 297.351 991.204 262.445C1017.22 227.539 1041.18 252.661 1049.9 269.585L1126.06 396.515" stroke="#D1D4D8" stroke-width="3" stroke-linecap="round"/>
<path d="M1219.92 581.628C1241.54 585.809 1289.2 587.116 1306.92 558.896" stroke="#D1D4D8" stroke-width="3" stroke-linecap="round"/>
<path d="M1213.92 328.437C1221.85 324.764 1239.62 326.233 1259.92 348.896" stroke="#D1D4D8" stroke-width="3" stroke-linecap="round"/>
<path d="M1123.51 659.896L1091.78 511.374C1087.81 493.901 1095.59 458.637 1158.42 457.366C1174.82 456.837 1206.03 446.247 1221.1 435.128C1235.92 424.197 1259.98 427.979 1262.36 443.864L1290.92 568.559" stroke="#D1D4D8" stroke-width="3" stroke-linecap="round"/>
<path d="M1182.06 645.642C1175.01 645.074 1169.28 644.242 1164.64 643.229C1165.96 651.16 1177.31 664.013 1212.16 651.977C1247 639.941 1253.08 635.349 1251.76 634.557" stroke="#D1D4D8" stroke-width="3" stroke-linecap="round"/>
<path d="M1216.91 580.712C1198.43 576.225 1165.59 572.002 1182.06 591.006C1198.54 610.01 1171.5 603.675 1155.93 598.133C1149.59 595.757 1136.92 593.223 1136.92 602.092C1136.92 605.144 1140.11 607.908 1144.84 610.307C1153.86 614.88 1168.48 618.127 1177.31 619.512" stroke="#D1D4D8" stroke-width="3" stroke-linecap="round"/>
<path d="M1164.64 643.229C1165.96 651.16 1177.31 664.013 1212.16 651.977C1247 639.941 1253.08 635.349 1251.76 634.557" stroke="#D1D4D8" stroke-width="3" stroke-linecap="round"/>
<path d="M1149.86 625.847C1145.24 630.178 1143.44 638.597 1164.64 643.229C1169.28 644.242 1175.01 645.074 1182.06 645.642" stroke="#D1D4D8" stroke-width="3" stroke-linecap="round"/>
<path d="M1144.84 610.307C1139.13 613.185 1135.29 619.228 1149.86 625.847C1156.17 628.712 1165.93 631.686 1180.48 634.557" stroke="#D1D4D8" stroke-width="3" stroke-linecap="round"/>
<path d="M1174.3 1011.44C1097.03 996.87 1077.18 767.286 1076.92 654.316C1116.82 665.719 1151.08 651.149 1163.22 642.438C1172.09 671.578 1226.03 650.886 1251.9 636.896C1283.92 661.617 1306.83 650.231 1317.92 638.617L1407.08 875.242C1415.26 901.109 1418.95 962.345 1368.28 1000.35C1317.61 1038.36 1292.8 992.963 1286.73 965.513C1281.45 986.893 1251.58 1026.01 1174.3 1011.44Z" fill="#D1D4D8"/>
<path d="M1282.93 163.478L1282.94 163.486C1309.4 192.359 1312.28 230.141 1304.94 265.91C1297.81 300.666 1281.07 333.266 1267.38 353.318C1245.09 323.728 1222.81 321.479 1212.71 324.822L1202.02 304.933C1209.45 298.373 1215.71 288.305 1220.54 278.394C1225.14 268.938 1228.51 259.485 1230.38 253.042C1234.33 254.803 1239.69 255.867 1244.4 253.676C1249.97 251.083 1253.87 244.326 1253.87 231.158C1253.87 224.602 1253.05 220.02 1251.55 217.013C1250.01 213.901 1247.7 212.405 1244.98 212.349C1242.45 212.296 1239.87 213.511 1237.61 215.068C1235.45 216.556 1233.42 218.479 1231.76 220.347L1209.68 226.03C1210.62 207.634 1203.26 193.94 1193.57 184.304C1183.55 174.346 1171.03 168.705 1162.5 166.546L1160.77 166.107L1160.64 167.888C1160.13 174.733 1156.93 187.423 1146.7 198.179C1136.52 208.884 1119.21 217.844 1090.13 217.027C1076.32 216.639 1065.66 213.152 1057.45 207.808C1049.23 202.461 1043.38 195.202 1039.27 187.153C1031.04 171.011 1029.84 151.779 1030.63 138.88L1030.63 138.88C1031.71 121.035 1036.7 108.739 1043.74 100.58C1050.76 92.4297 1059.94 88.2699 1069.68 86.9092C1079.43 85.5458 1089.73 87.0003 1098.85 90.0744C1107.98 93.1526 1115.81 97.8127 1120.69 102.738L1121.74 103.797L1122.8 102.755C1132.67 93.1087 1143.25 88.4812 1153.73 87.3475C1164.24 86.2114 1174.75 88.5743 1184.46 93.0767C1203.93 102.108 1219.87 119.602 1225.65 133.827L1226.07 134.849L1227.17 134.758C1238.11 133.849 1249.65 138.335 1259.75 144.491C1269.83 150.63 1278.27 158.309 1282.93 163.478Z" stroke="#D1D4D8" stroke-width="3"/>
<path d="M1082.36 318.434C1078.45 310.614 1078.91 303.811 1081.02 298.463C1082.82 293.879 1085.84 290.33 1088.44 288.159C1109.05 325.933 1143.09 333.57 1159.42 332.592V363.253C1149.81 362.242 1141.27 365.803 1134.5 370.666C1128.35 375.08 1123.57 380.629 1120.61 385.043C1110.36 368.095 1090.23 334.144 1082.36 318.434Z" stroke="#D1D4D8" stroke-width="3"/>
<path d="M1072.01 209.896C1070.42 253.241 1088.54 338.028 1173.72 330.416C1188.82 328.038 1195.97 322.486 1203.92 307.421" stroke="#D1D4D8" stroke-width="3" stroke-linecap="round"/>
<path d="M1141.92 305.562C1145.36 309.174 1155.58 313.898 1168.92 303.896Z" fill="#D1D4D8"/>
<path d="M1143.83 255.896C1139.05 268.314 1134.77 291.722 1155.92 286.015" stroke="#D1D4D8" stroke-width="3" stroke-linecap="round"/>
<path d="M1237.92 226.896C1240.94 228.936 1245.16 234.39 1237.92 239.896" stroke="#D1D4D8" stroke-width="3" stroke-linecap="round"/>
<path d="M1166.92 233.301C1171.23 231.174 1181.46 228.516 1187.92 234.896" stroke="#D1D4D8" stroke-width="3" stroke-linecap="round"/>
<path d="M1095.92 240.05C1099.35 237.916 1107.95 235.497 1114.92 242.896" stroke="#D1D4D8" stroke-width="3" stroke-linecap="round"/>
<path d="M1130.42 243.396C1130.42 259.654 1118.55 272.396 1104.42 272.396C1090.29 272.396 1078.42 259.654 1078.42 243.396C1078.42 227.139 1090.29 214.396 1104.42 214.396C1118.55 214.396 1130.42 227.139 1130.42 243.396Z" stroke="#D1D4D8" stroke-width="3"/>
<path d="M1205.42 236.896C1205.42 255.35 1193.32 269.396 1179.42 269.396C1165.52 269.396 1153.42 255.35 1153.42 236.896C1153.42 218.443 1165.52 204.396 1179.42 204.396C1193.32 204.396 1205.42 218.443 1205.42 236.896Z" stroke="#D1D4D8" stroke-width="3"/>
<path d="M1105.42 269.896C1110.12 269.896 1113.92 266.985 1113.92 263.396C1113.92 259.806 1110.12 256.896 1105.42 256.896C1100.73 256.896 1096.92 259.806 1096.92 263.396C1096.92 266.985 1100.73 269.896 1105.42 269.896Z" fill="#D1D4D8"/>
<path d="M1178.42 264.896C1183.12 264.896 1186.92 262.209 1186.92 258.896C1186.92 255.582 1183.12 252.896 1178.42 252.896C1173.73 252.896 1169.92 255.582 1169.92 258.896C1169.92 262.209 1173.73 264.896 1178.42 264.896Z" fill="#D1D4D8"/>
<path d="M1128.92 238.896C1134.25 237.527 1146.52 235.494 1152.92 238.31" stroke="#D1D4D8" stroke-width="3" stroke-linecap="round"/>
<path d="M1039.68 185.067C1039.68 185.744 1036.21 193.95 1036.69 200.277C1036.8 201.722 1035.67 203.186 1034.23 203.095L1024.66 202.496" stroke="#D1D4D8" stroke-width="3" stroke-linecap="round"/>
<path d="M1065.76 86.832L1102.2 15.3602C1102.62 14.5329 1102.46 13.5387 1101.69 13.0138C1078.7 -2.73842 972.142 5.39471 919.779 11.6723C919.107 11.7529 918.561 12.1401 918.264 12.7486C895.673 59.1081 856.923 159.727 877.999 201.144C878.259 201.655 878.713 202.004 879.273 202.126C899.348 206.498 944.852 204.739 965.37 203.288" stroke="#D1D4D8" stroke-width="3" stroke-linecap="round"/>
<path d="M943.648 59.7405C961.732 56.8394 1004.5 52.7778 1030.92 59.7405" stroke="#D1D4D8" stroke-width="3" stroke-linecap="round"/>
<path d="M932.643 94.5544L1022.27 89.8071" stroke="#D1D4D8" stroke-width="3" stroke-linecap="round"/>
<path d="M927.924 124.621L1001.83 118.291" stroke="#D1D4D8" stroke-width="3" stroke-linecap="round"/>
<path d="M927.924 153.896H974.313" stroke="#D1D4D8" stroke-width="3" stroke-linecap="round"/>
<path d="M963.405 214.896C965.2 206.459 967.712 186.577 963.405 174.553C959.099 162.53 965.2 158.469 968.789 157.942C972.635 157.414 980.018 161.264 978.787 180.882" stroke="#D1D4D8" stroke-width="3" stroke-linecap="round"/>
<path d="M975.423 161.117C973.581 151.361 972.433 132.529 984.434 131.896C998.329 135.06 999.698 168.548 998.645 184.896" stroke="#D1D4D8" stroke-width="3" stroke-linecap="round"/>
<path d="M995.924 146.257C1002.11 144.761 1011.08 147.327 1012.95 165.348C1013.41 169.698 1013.35 174.947 1012.61 181.258" stroke="#D1D4D8" stroke-width="3" stroke-linecap="round"/>
<path d="M1012.95 165.348C1017.87 161.106 1027.24 158.348 1025.33 181.258C1022.95 209.895 1020.56 206.713 1026.92 244.896" stroke="#D1D4D8" stroke-width="3" stroke-linecap="round"/>
<path d="M609.532 657.234C635.887 684.209 684.851 696.096 710.66 699.342C712.484 699.571 713.126 701.944 711.646 703.035L643.74 753.123C643.519 753.285 643.264 753.402 642.996 753.462C592.718 764.683 545.843 714.632 527.243 686.199C526.534 685.115 527.062 683.677 528.29 683.265L607.438 656.722C608.176 656.474 608.987 656.677 609.532 657.234Z" stroke="#D1D4D8" stroke-width="3" stroke-linecap="round"/>
<path d="M570.648 698.316C578.648 696.654 596.048 691.48 601.648 684.074" stroke="#D1D4D8" stroke-width="3" stroke-linecap="round"/>
<path d="M593.148 716.316C598.148 716.483 609.648 714.016 615.648 702.816" stroke="#D1D4D8" stroke-width="3" stroke-linecap="round"/>
<path d="M617.648 728.316C625.148 727.316 641.248 721.616 645.648 706.816" stroke="#D1D4D8" stroke-width="3" stroke-linecap="round"/>
<path d="M433.724 528.231C436.026 525.018 437.182 522.093 436.133 520.073C433.082 514.201 425.579 520.228 422.209 523.976C413.822 532.993 397.68 548.666 402.031 530.428C406.381 512.189 397.128 513.312 375.461 535.575" stroke="#D1D4D8" stroke-width="3" stroke-linecap="round"/>
<path d="M431.964 556.827C433.819 562.531 430.843 575.733 403.569 578.932C393.25 580.142 391.699 579.972 382.014 579.155" stroke="#D1D4D8" stroke-width="3" stroke-linecap="round"/>
<path d="M415.424 545.415C420.783 541.466 429.33 534.297 433.717 528.173C438.481 528.118 443.094 530.803 435.742 540.187C432.559 544.25 427.133 549.568 418.505 556.464" stroke="#D1D4D8" stroke-width="3" stroke-linecap="round"/>
<path d="M418.512 556.522C427.14 549.626 432.566 544.308 435.749 540.245C440.294 541.526 444.383 546.481 431.963 556.827C429.247 559.089 425.741 561.61 421.278 564.406" stroke="#D1D4D8" stroke-width="3" stroke-linecap="round"/>
</g>
<defs>
<clipPath id="clip0_418_2802">
<rect width="1459" height="1201" fill="white" transform="translate(0.923828 0.617676)"/>
</clipPath>
</defs>
</svg>
