<svg width="891" height="751" viewBox="0 0 891 751" fill="none" xmlns="http://www.w3.org/2000/svg">
<path d="M497.523 526.059C500.516 529.83 511.929 535.67 533.644 528.864C555.359 522.058 564.065 511.424 565.704 506.958" stroke="#D1D4D8" stroke-width="3" stroke-linecap="round"/>
<path d="M478.076 517.329C476.01 520.891 476.024 527.716 492.609 526.525L497.525 526.06L506.075 525.249" stroke="#D1D4D8" stroke-width="3" stroke-linecap="round"/>
<path d="M479.574 504.193C475.583 504.69 468.371 507.299 471.449 513.764C472.378 515.715 474.834 516.811 478.075 517.329C485.574 518.526 497.27 516.624 503.936 515.04" stroke="#D1D4D8" stroke-width="3" stroke-linecap="round"/>
<path d="M559.098 482.312C552.807 476.375 539.671 464.422 527.873 463.571C524.881 463.429 518.469 462.253 516.759 458.68C514.622 454.213 504.79 459.105 511.416 468.038C518.042 476.97 526.163 473.993 521.461 481.649C517.7 487.774 494.958 490.582 484.058 491.22C480.211 491.291 473.072 493.219 475.295 500.365C475.845 502.135 477.403 503.367 479.573 504.193C486.165 506.706 498.41 505.474 505.218 504.193" stroke="#D1D4D8" stroke-width="3" stroke-linecap="round"/>
<path d="M530.707 283C522.705 234.499 531.779 207.211 554.205 190.5C551.556 256.303 597.846 287.5 615.346 298.5L600.346 312.5L578.705 328.499C566.205 335.5 538.308 333 530.707 283Z" stroke="#D1D4D8" stroke-width="3" stroke-linecap="round"/>
<path d="M563.782 516C553.522 554.014 544.084 607.461 563.782 749.5" stroke="#D1D4D8" stroke-width="3" stroke-linecap="round"/>
<path d="M593.705 387.745C601.934 368.101 619.625 333.335 638.277 356.908C656.928 380.481 658.162 430.918 669.134 408.303L689.705 354.167" stroke="#D1D4D8" stroke-width="3" stroke-linecap="round"/>
<path d="M832.185 301.511C801.269 330.884 769.912 335.14 757.84 336.5C733.205 339.275 692.34 314 692.34 286.5C714.663 270.374 730.883 240.065 736.063 227.749C741.881 232.669 749.449 230.796 752.506 229.245C756.436 226.687 763.975 217.059 762.69 199.014C761.405 180.968 748.302 185.813 741.912 190.491L709.983 193.931C711.326 164.096 692.936 154.14 683.573 152.892C690.931 136.364 677.769 129.133 670.843 126.292C660.908 138.469 647.887 143.375 642.382 145.656C586.347 160.315 552.144 140.245 536.358 115.197C519.221 89.9117 521.994 30.535 570.476 16.0804C586.328 9.98027 623.91 4.97862 647.418 33.7734C716.623 8.34136 749.376 81.1271 758.361 107.558L768.746 131.657C858.931 150.841 866.869 236.14 851.027 273.496C843.845 290.434 842.9 291.331 832.66 301.059L832.185 301.511Z" stroke="#D1D4D8" stroke-width="3" stroke-linecap="round"/>
<path d="M627.888 320.911C612.388 321.911 552.206 349 562.707 478.502" stroke="#D1D4D8" stroke-width="3" stroke-linecap="round"/>
<path d="M666.888 320.908C736.388 309.408 756.024 365.251 763.705 390.999C777.744 435.426 763.705 531 568.936 502.329C557.706 500.676 552.207 485.585 574.205 471.124C597.211 456 621.707 446.5 651.211 440.5" stroke="#D1D4D8" stroke-width="3" stroke-linecap="round"/>
<path d="M564.722 514.177C583.59 532.476 647.693 559.65 753.169 521.951C755.405 517.169 756.568 486.482 753.169 476.591" stroke="#D1D4D8" stroke-width="3" stroke-linecap="round"/>
<path d="M710.922 194.59C707.238 215.56 689.095 229.606 670.666 226.368C652.237 223.131 639.966 203.742 643.65 182.772C647.334 161.802 665.477 147.756 683.906 150.993C702.336 154.231 714.606 173.619 710.922 194.59Z" stroke="#D1D4D8" stroke-width="3"/>
<path d="M623.703 191.798C620.019 212.768 601.876 226.814 583.447 223.576C565.018 220.339 552.748 200.95 556.431 179.98C560.115 159.01 578.259 144.964 596.688 148.201C615.117 151.439 627.387 170.827 623.703 191.798Z" stroke="#D1D4D8" stroke-width="3"/>
<path d="M623.333 183.913L644.972 185.252" stroke="#D1D4D8" stroke-width="3" stroke-linecap="round"/>
<path d="M635.437 204.997C629.095 221.285 616.127 234.878 630.464 245.193" stroke="#D1D4D8" stroke-width="3" stroke-linecap="round"/>
<path d="M615.433 266.697C619.775 271.496 631.887 278.215 645.599 266.697" stroke="#D1D4D8" stroke-width="3" stroke-linecap="round"/>
<circle cx="584.127" cy="200.421" r="9" transform="rotate(9.96339 584.127 200.421)" fill="#D1D4D8"/>
<circle cx="668.127" cy="198.421" r="9" transform="rotate(9.96339 668.127 198.421)" fill="#D1D4D8"/>
<path d="M749.975 202.842C751.076 205.82 752.143 212.69 747.602 216.347" stroke="#D1D4D8" stroke-width="3" stroke-linecap="round"/>
<path d="M566.171 143.609C553.256 168.255 541.64 228.474 593.215 280.414C644.79 332.353 700.079 283.64 721.276 252.791L736.268 226.885C742.495 232.388 756.15 237.339 760.961 213.124C765.771 188.91 756.279 185.618 750.932 186.999C748.033 187.65 741.681 190.525 739.462 196.818" stroke="#D1D4D8" stroke-width="3" stroke-linecap="round"/>
<path d="M709.935 193.024L745.358 189.501" stroke="#D1D4D8" stroke-width="3" stroke-linecap="round"/>
<path d="M678.077 176.009C683.669 176.806 694.806 181.285 694.613 192.826" stroke="#D1D4D8" stroke-width="3" stroke-linecap="round"/>
<path d="M571.521 180.521C575.789 178.646 586.223 176.41 593.821 182.47" stroke="#D1D4D8" stroke-width="3" stroke-linecap="round"/>
<path d="M673.705 319.803V296" stroke="#D1D4D8" stroke-width="3" stroke-linecap="round"/>
<path d="M621.705 300.868V322" stroke="#D1D4D8" stroke-width="3" stroke-linecap="round"/>
<path d="M577.711 678.054C608.207 685.27 683.265 695.373 739.525 678.054" stroke="#D1D4D8" stroke-width="3" stroke-linecap="round"/>
<path d="M577.711 612.486C601.607 618.672 662.919 627.332 716.994 612.486" stroke="#D1D4D8" stroke-width="3" stroke-linecap="round"/>
<path d="M670.566 593.93L692.706 734" stroke="#D1D4D8" stroke-width="3" stroke-linecap="round"/>
<path d="M599.559 551.868L616.705 730.5" stroke="#D1D4D8" stroke-width="3" stroke-linecap="round"/>
<path d="M304.705 268.383C271.505 292.383 273.538 393.383 278.705 440.883H267.705C251.705 340.883 271.038 288.55 282.705 274.883L304.705 268.383Z" fill="#D1D4D8"/>
<path d="M187.705 302.383C154.566 322.975 156.596 409.63 161.753 450.383H150.773C134.802 364.586 154.1 319.686 165.745 307.96L187.705 302.383Z" fill="#D1D4D8"/>
<path d="M124.705 444.383C119.038 399.55 120.705 318.883 166.705 306.883" stroke="#D1D4D8" stroke-width="3" stroke-linecap="round"/>
<path d="M166.705 306.883L353.205 254.883" stroke="#D1D4D8" stroke-width="3" stroke-linecap="round"/>
<path d="M122.642 451.824L285.642 441.451C286.218 441.414 286.705 441.872 286.705 442.449V458.939C286.705 459.469 286.292 459.907 285.763 459.938L122.763 469.322C122.189 469.355 121.705 468.899 121.705 468.324V452.822C121.705 452.294 122.115 451.857 122.642 451.824Z" stroke="#D1D4D8" stroke-width="3" stroke-linecap="round"/>
<path d="M238.705 463.383V532.383" stroke="#D1D4D8" stroke-width="3" stroke-linecap="round"/>
<path d="M271.705 461.883V509.383" stroke="#D1D4D8" stroke-width="3" stroke-linecap="round"/>
<path d="M521.198 487.812C499.228 503.305 355.025 463.148 287.705 441.883L425.205 447.383C471.258 453.079 543.169 472.319 521.198 487.812Z" fill="#D1D4D8" stroke="#D1D4D8" stroke-width="3" stroke-linecap="round"/>
<path d="M286.705 458.383C318.946 475.266 392.759 506.48 469.705 511.5" stroke="#D1D4D8" stroke-width="3" stroke-linecap="round"/>
<path d="M306.205 437.883C298.538 371.55 300.705 242.083 370.705 254.883C385.372 257.383 416.705 273.783 424.705 319.383" stroke="#D1D4D8" stroke-width="3" stroke-linecap="round"/>
<path d="M424.078 316.096C415.185 272.991 385.014 257.322 370.705 254.883C333.66 248.109 315.613 281.18 307.967 323.65C307.625 325.554 309.173 327.257 311.103 327.126L421.378 319.61C423.156 319.489 424.438 317.841 424.078 316.096Z" fill="#D1D4D8"/>
<path d="M424.533 446L367.204 385.112" stroke="#D1D4D8" stroke-width="3" stroke-linecap="round"/>
<path d="M446.533 320.5L367.204 385.112L340.668 406.779C339.534 407.705 337.898 407.677 336.796 406.714L304.533 378.5" stroke="#D1D4D8" stroke-width="3" stroke-linecap="round"/>
<path d="M444.839 319.57L311.974 328.267C310.883 328.338 309.915 328.98 309.502 329.993C300.365 352.429 302.83 408.091 305.46 435.989C305.597 437.443 306.77 438.575 308.227 438.677L423.145 446.738C424.385 446.825 425.55 446.147 426.057 445.011C435.859 423.036 452.496 371.171 447.992 322.24C447.845 320.64 446.442 319.466 444.839 319.57Z" stroke="#D1D4D8" stroke-width="3" stroke-linecap="round"/>
<path d="M442.705 393.383C461.707 393.383 463.116 392.006 482.11 388.813C483.589 388.564 485.021 389.444 485.56 390.844C492.038 407.681 514.856 435.68 528.205 411.883C532.039 405.05 535.905 385.383 520.705 361.383C505.843 337.917 491.045 348.549 485.097 357.29C484.833 357.679 484.679 358.126 484.638 358.595C484.004 366 484.848 378.361 490.307 388.383C493.417 394.091 498.023 399.04 504.705 401.883C523.505 409.883 523.705 388.383 517.705 376.883C514.705 370.383 509.205 364.383 501.205 370.383C494.705 376.383 500.205 382.883 503.705 387.383" stroke="#D1D4D8" stroke-width="3" stroke-linecap="round"/>
<path d="M514.205 421.002L433.205 428.883" stroke="#D1D4D8" stroke-width="3" stroke-linecap="round"/>
<path d="M448.205 357.883C466.705 357.883 466.205 357.883 496.705 347.883" stroke="#D1D4D8" stroke-width="3" stroke-linecap="round"/>
<path d="M503.705 387.383L490.307 388.383" stroke="#D1D4D8" stroke-width="3" stroke-linecap="round"/>
<path d="M1.70508 672.973C28.2267 678.413 15.7905 714.92 35.2288 724.635C58.4297 736.231 66.4187 670.942 63.3998 643.23C62.5346 631.08 48.3844 625.675 46.4755 643.23C44.4479 661.878 67.5898 734.188 94.1116 706.285L111.82 685.799C116.74 679.737 126.44 671.316 134.638 685.799C142.835 700.283 155.896 695.497 161.402 691.293L178.705 678.709" stroke="#D1D4D8" stroke-width="3" stroke-linecap="round"/>
<path d="M166.099 623.025L304.533 599.575C305.52 599.408 306.113 600.634 305.369 601.304L240.833 659.425C240.759 659.491 240.682 659.545 240.59 659.583C234.978 661.892 212.876 653.131 201.465 647.997C200.904 647.744 200.249 648.05 200.081 648.642C197.348 658.285 193.998 667.235 192.361 671.258C192.184 671.693 191.701 671.947 191.345 671.641C188.031 668.794 187.616 650.617 187.859 640.56C187.872 640.046 187.496 639.61 186.99 639.52C178.515 638.005 166.851 630.439 161.928 626.722" stroke="#D1D4D8" stroke-width="3" stroke-linecap="round"/>
<path d="M200.928 648C215.444 641.119 252.166 623.886 282.928 610" stroke="#D1D4D8" stroke-width="3" stroke-linecap="round"/>
<path d="M191.928 672L218.928 656" stroke="#D1D4D8" stroke-width="3" stroke-linecap="round"/>
<path d="M197.928 634L234.928 622" stroke="#D1D4D8" stroke-width="3" stroke-linecap="round"/>
<path d="M586.205 350C570.372 353 544.705 361.5 528.205 374.5" stroke="#D1D4D8" stroke-width="3" stroke-linecap="round"/>
<path d="M562.705 422C554.372 422.167 535.405 421 526.205 415" stroke="#D1D4D8" stroke-width="3" stroke-linecap="round"/>
</svg>
