<svg width="1421" height="1294" viewBox="0 0 1421 1294" fill="none" xmlns="http://www.w3.org/2000/svg">
<path d="M776.819 915.282C722.682 907.131 710.21 854.435 711.884 821.32C735.65 829.712 793.858 838.97 825.959 809.778C826.648 809.151 827.556 808.843 828.475 808.999C869.763 815.996 947.471 854.523 980.591 940.752C997.811 985.582 975.331 1004.47 956.551 980.202C940.051 959.162 902.239 918.082 883.01 922.102C885.043 949.722 881.233 1006.15 858.974 1023.96C846.417 1034 832.187 1022.16 833.861 1011.76C837.568 977.572 829.196 923.172 776.819 915.282Z" fill="#D1D4D8"/>
<path d="M817.193 633.069C827.802 643.327 840.454 670.059 818.211 710.622C812.741 707.579 804.991 703.561 798.02 700.57C794.252 698.953 790.654 697.611 787.742 696.897C786.291 696.541 784.939 696.322 783.785 696.329C783.472 696.331 783.148 696.35 782.824 696.396L781.347 687.422C794.021 682.243 816.62 665.092 817.193 633.069Z" stroke="#D1D4D8" stroke-width="3"/>
<path d="M712.152 650.453L712.219 650.498L712.291 650.535C713.269 651.045 714.873 651.573 716.685 651.621C718.005 651.656 719.477 651.436 720.896 650.735C724.096 657.835 731.794 671.202 742.477 679.356L743.381 691.495C736.98 687.916 724.136 687.274 706.227 701.158C705.799 701.11 705.349 701.065 704.878 701.016C701.792 700.702 697.771 700.292 692.927 698.691C687.115 696.77 680.115 693.12 672.456 685.794C672.211 681.88 671.469 676.596 669.922 672.956C669.136 671.108 667.965 669.252 666.148 668.58C664.833 668.093 663.518 668.324 662.254 669.064C660.203 659.009 659.87 644.576 664.997 631.356C670.492 617.186 682.292 604.3 705.36 599.655L706.12 599.502L706.435 598.793L711.991 586.275L712.015 586.22L712.035 586.164C714.427 579.371 719.922 566.736 729.164 557.512C733.77 552.916 739.262 549.21 745.723 547.459C752.165 545.712 759.68 545.878 768.404 549.192L769.404 549.572L770.089 548.751C775.999 541.67 783.605 538.788 790.786 538.072C798 537.352 804.715 538.829 808.638 540.388L808.692 540.41L808.748 540.427C820.739 544.144 827.01 553.343 829.213 563.298C831.434 573.334 829.464 583.915 825.202 590.059L825.187 590.08L825.174 590.101C817.197 602.457 799.968 612.554 771.424 604.787C771.31 604.739 771.191 604.688 771.067 604.636C768.003 603.338 761.971 600.783 757.36 595.005L756.666 594.136L755.633 594.546C753.761 595.29 750.811 596.696 748.843 599.211C747.839 600.494 747.086 602.071 746.873 603.971C746.714 605.395 746.864 606.945 747.38 608.629C744.84 609.327 741.796 610.911 739.234 613.764C736.223 617.117 733.954 622.138 733.859 629.326L719.299 627.597C718.443 626.992 717.41 626.397 716.301 625.955C715.056 625.458 713.62 625.115 712.191 625.254C710.711 625.399 709.289 626.062 708.215 627.462C707.177 628.814 706.554 630.734 706.347 633.247C705.538 643.098 709.582 648.739 712.152 650.453Z" stroke="#D1D4D8" stroke-width="3"/>
<path d="M825.314 810.214C823.04 805.074 817.08 795.128 822.438 779.31C822.88 777.038 823.735 774.813 824.301 772.444C835.478 725.779 797.096 707.165 790.353 701.322" stroke="#D1D4D8" stroke-width="3" stroke-linecap="round"/>
<path d="M822.856 778.898C835.588 783.491 857.43 786.615 882.457 774.088C907.484 761.562 904.388 683.423 896.708 674.324C890.563 667.044 886.435 665.012 882.665 668.835C863.795 690.075 861.252 703.776 855.753 726.337C853.821 734.263 851.495 738.469 847.709 735.387C838.312 724.561 812.758 701.782 785.717 697.281" stroke="#D1D4D8" stroke-width="3" stroke-linecap="round"/>
<path d="M790.252 700.697C788.728 699.425 787.254 698.658 785.885 698.246C782.452 697.212 779.687 698.41 778.474 699.441C773.273 703.084 759.349 707.362 745.254 695.331C735.543 688.799 712.162 685.28 696.323 723.454" stroke="#D1D4D8" stroke-width="3" stroke-linecap="round"/>
<path d="M700.324 752.289C695.672 738.245 682.648 708.865 667.774 703.696C652.9 698.527 646.817 710.713 645.635 717.452C642.899 732.323 642.992 768.153 665.257 792.502C693.089 822.939 726.405 805.198 734.075 766.128" stroke="#D1D4D8" stroke-width="3" stroke-linecap="round"/>
<path d="M633.099 669.098C630.781 668.751 626.876 670.39 629.81 679.722C633.477 691.386 641.679 700.157 648.731 706.23" stroke="#D1D4D8" stroke-width="3" stroke-linecap="round"/>
<path d="M638.946 664.075C636.913 662.974 632.86 662.484 632.916 669.333C633.03 671.394 633.778 675.897 635.859 677.432" stroke="#D1D4D8" stroke-width="3" stroke-linecap="round"/>
<path d="M648.441 678.391L646.432 661.093C646.251 659.973 645.106 657.706 641.971 657.599C638.051 657.465 639.274 662.631 639.135 664.185C639.024 665.429 640.052 670.678 640.58 673.146" stroke="#D1D4D8" stroke-width="3" stroke-linecap="round"/>
<path d="M656.778 682.026L653.731 668.274C653.415 666.313 651.597 662.658 646.856 663.724" stroke="#D1D4D8" stroke-width="3" stroke-linecap="round"/>
<path d="M667.322 702.236C668.512 696.542 669.69 684.248 667.853 677.208C666.811 673.215 666.585 669.343 663.389 669.124C658.772 668.809 660.023 675.162 658.268 678.753C657.798 679.435 657.303 680.512 657.106 681.788C656.786 683.862 657.25 686.464 659.882 688.764" stroke="#D1D4D8" stroke-width="3" stroke-linecap="round"/>
<path d="M882.7 668.507L881.135 658.8L877.398 651.578C876.041 648.477 874.558 639.942 879.259 639.185C883.397 638.517 884.516 642.961 885.186 647.121L885.087 651.405" stroke="#D1D4D8" stroke-width="3" stroke-linecap="round"/>
<path d="M885.646 647.118C887.573 643.979 885.972 637.904 883.327 632.735C880.012 626.26 886.096 622.697 890.5 624.2C894.024 625.403 893.514 633.429 893.457 637.374" stroke="#D1D4D8" stroke-width="3" stroke-linecap="round"/>
<path d="M893.35 637.909C893.264 633.836 893.413 625.559 890.455 624.197C891.337 621.493 893.974 618.205 896.739 618.585C898.524 618.831 900.468 620.02 901.674 625.837C901.002 630.161 901.91 631.547 899.356 636.941" stroke="#D1D4D8" stroke-width="3" stroke-linecap="round"/>
<path d="M899.372 636.28C901.876 631.117 900.996 629.795 901.664 625.66C904.641 624.814 910.053 625.552 907.884 635.274L904.943 645.998" stroke="#D1D4D8" stroke-width="3" stroke-linecap="round"/>
<path d="M908.56 636.452C911.887 636.854 917.412 641 912.901 654.382C908.389 667.763 900.108 673.199 896.531 674.244" stroke="#D1D4D8" stroke-width="3" stroke-linecap="round"/>
<path d="M712.285 822.462C710.981 820.138 707.847 813.71 705.742 806.586" stroke="#D1D4D8" stroke-width="3" stroke-linecap="round"/>
<path d="M736.577 631.076C738.255 641.283 746.901 647.876 755.432 646.473C763.963 645.07 770.041 636.055 768.362 625.848C766.683 615.64 758.038 609.047 749.507 610.45C740.976 611.853 734.898 620.868 736.577 631.076Z" stroke="#D1D4D8" stroke-width="3"/>
<path d="M782.108 630.114C783.787 640.321 792.432 646.914 800.963 645.511C809.494 644.108 815.572 635.094 813.894 624.886C812.215 614.678 803.569 608.086 795.038 609.489C786.507 610.892 780.429 619.906 782.108 630.114Z" stroke="#D1D4D8" stroke-width="3"/>
<path d="M780.655 626.281L769.354 626.857" stroke="#D1D4D8" stroke-width="3" stroke-linecap="round"/>
<path d="M774.215 637.214C777.432 645.75 784.123 652.918 776.582 658.219" stroke="#D1D4D8" stroke-width="3" stroke-linecap="round"/>
<path d="M804.864 644.971C801.939 645.452 799.178 643.471 798.697 640.546C798.216 637.621 800.197 634.86 803.122 634.379C806.047 633.898 808.808 635.879 809.289 638.804C809.77 641.729 807.789 644.49 804.864 644.971Z" fill="#D1D4D8"/>
<path d="M760.038 645.817C757.113 646.299 754.352 644.317 753.871 641.392C753.39 638.467 755.371 635.706 758.296 635.225C761.221 634.744 763.982 636.725 764.463 639.65C764.944 642.575 762.963 645.336 760.038 645.817Z" fill="#D1D4D8"/>
<path d="M714.454 635.44C713.863 636.988 713.267 640.567 715.616 642.501" stroke="#D1D4D8" stroke-width="3" stroke-linecap="round"/>
<path d="M810.712 605.572C817.312 618.507 823.032 650 795.822 676.813C768.611 703.626 740.034 677.89 729.147 661.67L721.47 648.065C718.189 650.902 711.035 653.408 708.662 640.744C706.289 628.08 711.261 626.416 714.044 627.167C715.553 627.523 718.852 629.059 719.974 632.356" stroke="#D1D4D8" stroke-width="3" stroke-linecap="round"/>
<path d="M735.404 630.543L716.938 628.503" stroke="#D1D4D8" stroke-width="3" stroke-linecap="round"/>
<path d="M755.254 627.752C752.331 628.136 746.493 630.411 746.529 636.435" stroke="#D1D4D8" stroke-width="3" stroke-linecap="round"/>
<path d="M807.711 624.804C805.495 623.801 800.062 622.575 796.062 625.695" stroke="#D1D4D8" stroke-width="3" stroke-linecap="round"/>
<path d="M768.738 668.767C771.627 670.276 778.272 672.389 781.738 668.767" stroke="#D1D4D8" stroke-width="3" stroke-linecap="round"/>
<path d="M853.177 1036.95C849.579 1041.25 847.319 1050.4 852.525 1056.66C858.242 1063.54 862.632 1070.84 864.106 1075.98C864.58 1079.64 862.074 1085.42 848.259 1079.19C834.443 1072.95 824.472 1062.73 821.213 1058.39C819.568 1056.04 817.662 1049.53 823.207 1042.32C828.752 1035.1 831.786 1030.51 832.609 1029.11" stroke="#D1D4D8" stroke-width="3" stroke-linecap="round"/>
<path d="M987.649 988.372C987.899 993.962 992.439 1002.23 1000.51 1003.31C1009.37 1004.51 1017.55 1006.91 1022.11 1009.69C1024.94 1012.07 1027.01 1018.02 1012.62 1022.78C998.229 1027.54 983.969 1026.77 978.639 1025.79C975.829 1025.17 970.019 1021.67 969.219 1012.6C968.419 1003.54 967.539 998.102 967.199 996.522" stroke="#D1D4D8" stroke-width="3" stroke-linecap="round"/>
<path d="M656.289 864.523C658.811 876.196 671.109 903.177 700.124 917.712" stroke="#D1D4D8" stroke-width="3" stroke-linecap="round"/>
<path d="M674.299 917.532C675.772 921.982 681.539 932.422 692.824 938.602" stroke="#D1D4D8" stroke-width="3" stroke-linecap="round"/>
<path d="M1065.74 678.767C1073.6 672.859 1086.74 655.318 1077.53 646.575C1071.81 641.15 1063.36 647.114 1067.17 653.086C1074.32 664.299 1088.49 642.678 1093.25 632.469C1094.92 627.767 1096.47 616.916 1088.25 616.916C1077.89 616.916 1080.03 633.916 1091.47 631.384C1099.87 629.522 1106.48 613.299 1104.33 593.767" stroke="#D1D4D8" stroke-width="3" stroke-linecap="round"/>
<path d="M1011.74 1279.86C1035.53 1268.73 1093.43 1247.18 1134.74 1250.02C1140.59 1250.26 1149.44 1252.72 1137.96 1260.68C1126.49 1268.63 1120.75 1272.75 1119.32 1273.82C1113.34 1278.79 1107.48 1289.3 1131.87 1291.58C1162.35 1294.42 1248.41 1263.52 1418.74 1286.25" stroke="#D1D4D8" stroke-width="3" stroke-linecap="round"/>
<path d="M185.693 1098.18C196.622 1092.88 223.224 1082.62 242.204 1083.97C244.896 1084.08 248.96 1085.26 243.687 1089.05C238.415 1092.83 235.779 1094.8 235.12 1095.3C232.374 1097.67 229.683 1102.68 240.886 1103.76C254.891 1105.11 294.433 1090.4 372.693 1101.22" stroke="#D1D4D8" stroke-width="3" stroke-linecap="round"/>
<path d="M644.738 777.767C557.256 777.767 284.053 706.894 184.738 394.767" stroke="#D1D4D8" stroke-width="3" stroke-linecap="round"/>
<path d="M826.738 635.767C846.606 593.951 861.507 531.406 856.895 437.767" stroke="#D1D4D8" stroke-width="3" stroke-linecap="round"/>
<path d="M693.738 591.767C667.101 571.048 466.901 424.233 397.738 242.767" stroke="#D1D4D8" stroke-width="3" stroke-linecap="round"/>
<path d="M659.983 293.1C436.16 150.853 249.433 303.108 184.047 397.016C172.962 150.364 321.992 78.1502 483.226 23.9302C501.015 8.73834 471.436 5.21604 428.3 7.81834C558.474 -22.2407 703.754 42.1392 737.871 69.7992C925.58 206.892 903.909 381.181 887.694 413.829C868.809 451.85 809.715 475.48 770.296 416.541C730.876 357.603 680.329 309.69 659.983 293.1Z" fill="#D1D4D8"/>
<path d="M248.474 638.29C278.071 713.054 239.498 737.352 216.512 740.155C143.754 753.252 42.7591 705.831 8.65709 511.112C-38.9637 239.2 178.671 81.8262 354.746 28.4392C495.606 -14.2698 511.724 19.0002 460.751 33.0902C40.5171 149.253 211.477 544.835 248.474 638.29Z" stroke="#D1D4D8" stroke-width="3" stroke-linecap="round"/>
<path d="M239.738 730.767C321.432 786.263 523.761 865.527 672.738 814.19" stroke="#D1D4D8" stroke-width="3" stroke-linecap="round"/>
<path d="M1012.69 72.8523C1018.83 84.6563 1042.34 108.881 1087.28 111.345C1143.45 114.424 1150.82 124.278 1148.67 166.774C1146.52 209.27 1152.97 229.286 1211.9 218.2C1270.84 207.115 1355.25 149.837 1341.13 209.27C1339.18 217.995 1331.92 240.927 1318.41 262.852" stroke="#D1D4D8" stroke-width="3" stroke-linecap="round"/>
<path d="M529.77 1152V1131" stroke="#D1D4D8" stroke-width="3" stroke-linecap="round"/>
<path d="M511 1142.67L522.45 1152" stroke="#D1D4D8" stroke-width="3" stroke-linecap="round"/>
<path d="M537.41 1152L546 1138.33" stroke="#D1D4D8" stroke-width="3" stroke-linecap="round"/>
<path d="M1238.77 1019V998" stroke="#D1D4D8" stroke-width="3" stroke-linecap="round"/>
<path d="M1220 1009.67L1231.45 1019" stroke="#D1D4D8" stroke-width="3" stroke-linecap="round"/>
<path d="M1246.41 1019L1255 1005.33" stroke="#D1D4D8" stroke-width="3" stroke-linecap="round"/>
</svg>
