<svg width="959" height="772" viewBox="0 0 959 772" fill="none" xmlns="http://www.w3.org/2000/svg">
<path d="M652.254 364.376C668.305 380.814 698.125 388.058 713.844 390.036C714.955 390.176 715.346 391.622 714.444 392.287L673.088 422.811C672.953 422.91 672.798 422.981 672.634 423.018C642.014 429.856 613.465 399.355 602.137 382.027C601.706 381.367 602.027 380.49 602.775 380.239L650.979 364.064C651.428 363.913 651.922 364.036 652.254 364.376Z" stroke="#D1D4D8" stroke-width="3" stroke-linecap="round"/>
<path d="M628.943 389C633.847 388.067 644.511 385.16 647.943 381" stroke="#D1D4D8" stroke-width="3" stroke-linecap="round"/>
<path d="M641.943 399.995C645.054 400.094 652.21 398.633 655.943 392" stroke="#D1D4D8" stroke-width="3" stroke-linecap="round"/>
<path d="M656.943 408C661.497 407.395 671.272 403.949 673.943 395" stroke="#D1D4D8" stroke-width="3" stroke-linecap="round"/>
<path d="M458.848 361.81C461.015 361.143 466.748 360.51 472.348 363.31" stroke="#D1D4D8" stroke-width="3" stroke-linecap="round"/>
<path d="M438.848 387.81C442.714 387.81 445.848 384.452 445.848 380.31C445.848 376.168 442.714 372.81 438.848 372.81C434.982 372.81 431.848 376.168 431.848 380.31C431.848 384.452 434.982 387.81 438.848 387.81Z" fill="#D1D4D8"/>
<path d="M495.848 397.81C499.714 397.81 502.848 394.452 502.848 390.31C502.848 386.168 499.714 382.81 495.848 382.81C491.982 382.81 488.848 386.168 488.848 390.31C488.848 394.452 491.982 397.81 495.848 397.81Z" fill="#D1D4D8"/>
<path d="M421.848 368.31C422.348 365.143 425.448 359.11 433.848 360.31" stroke="#D1D4D8" stroke-width="3" stroke-linecap="round"/>
<path d="M485.848 367.31C489.848 363.81 499.848 358.91 507.848 367.31" stroke="#D1D4D8" stroke-width="3" stroke-linecap="round"/>
<path d="M464.348 375.81C469.015 383.477 475.548 399.91 464.348 404.31L458.848 406.31" stroke="#D1D4D8" stroke-width="3" stroke-linecap="round"/>
<path d="M445.348 421.81C446.515 424.977 450.948 430.21 459.348 425.81" stroke="#D1D4D8" stroke-width="3" stroke-linecap="round"/>
<path d="M381.559 382.143C382.338 388.152 383.999 396.84 387.316 405.77C390.603 414.619 395.552 423.8 402.968 430.824C388.094 433.316 359.304 440.081 338.296 452.59C326.101 446.136 309.156 433.445 297.121 415.899C284.868 398.034 277.745 375.211 285.782 348.746C293.861 322.145 309.121 307.434 324.841 299.784C340.618 292.105 356.942 291.502 367.087 293.287L368.055 293.458L368.597 292.639C378.84 277.192 397.599 256.293 420.515 243.789C443.372 231.318 470.21 227.253 497.017 245.059L497.782 245.568L498.583 245.117C506.374 240.735 519.129 236.71 532.005 238.815C544.759 240.901 557.851 249.033 566.466 269.394C575.019 289.612 569.934 305.696 560.099 317.71C550.233 329.762 535.564 337.715 525 341.343L514.938 342.716C512.452 340.047 508.149 337.138 502.56 336.241C496.634 335.29 489.421 336.626 481.593 342.606C475.716 340.309 467.15 335.952 459.682 330C451.84 323.748 445.461 315.94 444.335 307.12L443.62 301.519L441.461 306.736C440.484 309.098 438.715 312.857 436.607 316.407C434.552 319.868 432.307 322.898 430.285 324.373C426.081 324.997 420.099 327.319 415.098 332.325C410.252 337.175 406.391 344.482 405.9 355.016L383.934 345.154C382.986 343.393 381.713 341.517 380.184 339.918C378.529 338.188 376.479 336.684 374.125 336.114C371.696 335.527 369.111 335.976 366.586 337.855C364.119 339.691 361.741 342.862 359.489 347.674C356.626 353.789 355.992 359.236 356.906 363.932C357.819 368.622 360.251 372.439 363.317 375.337C366.374 378.229 370.082 380.23 373.627 381.315C376.405 382.165 379.197 382.486 381.559 382.143Z" stroke="#D1D4D8" stroke-width="3"/>
<path d="M406.848 357.81L382.848 345.31" stroke="#D1D4D8" stroke-width="3" stroke-linecap="round"/>
<path d="M458.348 356.81C458.348 374.055 446.562 387.31 432.848 387.31C419.134 387.31 407.348 374.055 407.348 356.81C407.348 339.564 419.134 326.31 432.848 326.31C446.562 326.31 458.348 339.564 458.348 356.81Z" stroke="#D1D4D8" stroke-width="3"/>
<path d="M524.348 367.81C524.348 385.055 512.562 398.31 498.848 398.31C485.134 398.31 473.348 385.055 473.348 367.81C473.348 350.564 485.134 337.31 498.848 337.31C512.562 337.31 524.348 350.564 524.348 367.81Z" stroke="#D1D4D8" stroke-width="3"/>
<path d="M502.775 444.516L502.672 444.435L502.556 444.373L491.032 438.2C500.939 432.243 518.28 414.381 526.681 377.879C534.072 386.496 542.115 399.864 544.517 414.574C547.068 430.195 543.287 447.405 525.331 462.273L502.775 444.516Z" stroke="#D1D4D8" stroke-width="3"/>
<path d="M385.848 356.81C385.015 347.643 374.348 325.81 362.848 346.31C357.848 355.643 354.248 375.61 379.848 380.81" stroke="#D1D4D8" stroke-width="3" stroke-linecap="round"/>
<path d="M377.347 353.31C375.014 355.31 371.547 360.51 376.347 365.31" stroke="#D1D4D8" stroke-width="3" stroke-linecap="round"/>
<path d="M522.349 379.31C519.549 395.31 513.348 409.803 506.848 418.81C502.784 424.442 496.199 431.551 487.803 437.748" stroke="#D1D4D8" stroke-width="3" stroke-linecap="round"/>
<path d="M382.348 380.81C382.015 401.143 389.949 431.31 426.349 447.31C431.948 449.771 437.453 451.183 442.803 451.752" stroke="#D1D4D8" stroke-width="3" stroke-linecap="round"/>
<path d="M454.348 695.31L443.348 611.81C485.348 569.01 552.848 575.31 581.348 583.81L602.848 626.31C611.682 641.643 636.048 678.21 662.848 701.81C662.848 706.31 645.648 711.31 576.848 695.31C508.048 679.31 464.848 718.976 451.848 740.81" stroke="#D1D4D8" stroke-width="3" stroke-linecap="round"/>
<path d="M651.348 707.81L644.348 729.31L475.848 751.81C469.348 757.31 453.648 765.01 442.848 751.81C432.048 738.61 274.348 746.31 196.848 751.81" stroke="#D1D4D8" stroke-width="3" stroke-linecap="round"/>
<path d="M465.848 740.81C436.182 711.81 347.848 666.31 231.848 716.31" stroke="#D1D4D8" stroke-width="3" stroke-linecap="round"/>
<path d="M253.348 634.81L231.848 715.81" stroke="#D1D4D8" stroke-width="3" stroke-linecap="round"/>
<path d="M231.848 616.81L196.848 751.81" stroke="#D1D4D8" stroke-width="3" stroke-linecap="round"/>
<path d="M196.848 751.695L231.848 715.695" stroke="#D1D4D8" stroke-width="3" stroke-linecap="round"/>
<path d="M442.848 609.81C428.729 589.33 379.363 554.98 294.848 581.414" stroke="#D1D4D8" stroke-width="3" stroke-linecap="round"/>
<path d="M485.848 735.81C491.682 727.643 510.448 712.11 538.848 715.31" stroke="#D1D4D8" stroke-width="3" stroke-linecap="round"/>
<path d="M484.348 471.81C476.348 469.81 468.682 476.31 465.848 479.81C464.348 482.977 463.648 489.21 472.848 488.81C484.348 488.31 487.848 471.81 501.348 498.31C512.148 519.51 512.848 561.143 511.848 579.31" stroke="#D1D4D8" stroke-width="3" stroke-linecap="round" stroke-linejoin="round"/>
<path d="M458.173 466.31C455.564 471.977 453.446 482.61 465.846 479.81" stroke="#D1D4D8" stroke-width="3" stroke-linecap="round" stroke-linejoin="round"/>
<path d="M463 446.81C456 449.81 445.848 460.61 449.848 467.81C450.348 468.643 451.848 470.21 453.848 469.81C454.724 469.635 456.152 468.11 458.175 466.31C461.927 462.971 467.727 458.686 475.848 460.31" stroke="#D1D4D8" stroke-width="3" stroke-linecap="round" stroke-linejoin="round"/>
<path d="M603.347 623.81C608.347 599.31 603.047 536.51 541.847 481.31L501.347 445.81L475.847 432.31L470.848 431.31L451.848 435.81L449.847 437.81L443.347 449.81C442.347 452.31 446.648 455.21 453.848 452.81" stroke="#D1D4D8" stroke-width="3" stroke-linecap="round" stroke-linejoin="round"/>
<path d="M404.848 433.81C372.348 438.143 287.978 456.773 236.848 532.31C188.66 603.5 243.16 633.5 283.66 635" stroke="#D1D4D8" stroke-width="3" stroke-linecap="round" stroke-linejoin="round"/>
<path d="M1.84766 634.81L227.347 623.81" stroke="#D1D4D8" stroke-width="3" stroke-linecap="round" stroke-linejoin="round"/>
<path d="M601.848 622.695L763.069 613.195" stroke="#D1D4D8" stroke-width="3" stroke-linecap="round"/>
<path d="M439.847 42.8099C439.347 38.8099 443.883 27.6091 456.847 30.3099C468.347 32.7058 470.847 45.3099 462.847 52.8099C458.347 57.4965 452.247 65.4099 453.847 73.8099" stroke="#D1D4D8" stroke-width="3" stroke-linecap="round"/>
<path d="M502.848 43.8099C506.448 14.2099 485.348 12.1433 474.348 14.8099C455.148 -8.39007 438.348 5.14326 432.348 14.8099C402.748 11.2099 400.014 32.6433 402.348 43.8099C381.548 60.6099 393.681 78.4766 402.348 85.3099C397.948 114.11 420.848 117.643 432.848 115.81C450.048 138.21 467.681 124.477 474.348 114.81C502.748 118.41 505.181 96.6432 502.848 85.3099C526.448 67.7099 512.681 50.3099 502.848 43.8099Z" stroke="#D1D4D8" stroke-width="3"/>
<path d="M450.512 90.0648C451.7 92.2477 454.433 93.0542 456.615 91.8662C458.798 90.6781 459.605 87.9454 458.417 85.7625C457.229 83.5795 454.496 82.7731 452.313 83.9611C450.13 85.1492 449.324 87.8819 450.512 90.0648Z" fill="#D1D4D8"/>
<path opacity="0.4" d="M644.876 142.515C644.497 139.509 647.937 131.093 657.767 133.122C666.487 134.922 668.382 144.394 662.316 150.03C658.904 153.551 654.279 159.498 655.492 165.81" stroke="#D1D4D8" stroke-width="3" stroke-linecap="round"/>
<path opacity="0.4" d="M692.945 143.354C695.681 121.022 679.647 119.463 671.288 121.474C656.698 103.971 643.931 114.181 639.372 121.474C616.878 118.758 614.801 134.929 616.575 143.354C600.769 156.028 609.989 169.508 616.575 174.663C613.231 196.392 630.633 199.057 639.752 197.674C652.822 214.574 666.222 204.213 671.288 196.92C692.869 199.636 694.718 183.214 692.945 174.663C710.879 161.385 700.418 148.258 692.945 143.354Z" stroke="#D1D4D8" stroke-width="3"/>
<path opacity="0.4" d="M653.352 178.143C654.252 179.796 656.321 180.406 657.974 179.507C659.627 178.607 660.237 176.538 659.338 174.885C658.438 173.232 656.369 172.622 654.716 173.521C653.063 174.421 652.453 176.49 653.352 178.143Z" fill="#D1D4D8"/>
<path opacity="0.3" d="M211.868 171.753C211.597 169.567 214.054 163.446 221.076 164.922C227.304 166.231 228.658 173.12 224.325 177.218C221.888 179.78 218.584 184.104 219.451 188.695" stroke="#D1D4D8" stroke-width="3" stroke-linecap="round"/>
<path opacity="0.3" d="M246.655 172.606C248.642 156.386 236.996 155.253 230.925 156.715C220.328 144.002 211.056 151.417 207.744 156.715C191.407 154.742 189.898 166.487 191.186 172.606C179.706 181.812 186.403 191.602 191.186 195.347C188.758 211.128 201.397 213.064 208.02 212.06C217.513 224.334 227.246 216.809 230.925 211.512C246.6 213.484 247.943 201.557 246.655 195.347C259.681 185.702 252.083 176.168 246.655 172.606Z" stroke="#D1D4D8" stroke-width="3"/>
<path opacity="0.3" d="M217.719 198.152C218.373 199.355 219.879 199.799 221.081 199.144C222.284 198.49 222.728 196.985 222.074 195.782C221.419 194.579 219.914 194.135 218.711 194.79C217.509 195.444 217.065 196.95 217.719 198.152Z" fill="#D1D4D8"/>
<path d="M165.348 771.195L227.848 623.695L196.848 751.695L296.348 748.195L346.348 746.695H395.848L421.348 747.695L443.348 752.695L165.348 771.195Z" fill="#D1D4D8"/>
<path d="M472.848 641.151C481.682 626.151 511.748 599.651 561.348 613.651" stroke="#D1D4D8" stroke-width="3" stroke-linecap="round"/>
<path d="M482.848 675.332C495.682 656.166 536.548 624.832 597.348 652.832" stroke="#D1D4D8" stroke-width="3" stroke-linecap="round"/>
<path d="M433.848 681.575C407.682 667.575 340.848 645.475 282.848 669.075" stroke="#D1D4D8" stroke-width="3" stroke-linecap="round"/>
<path d="M422.848 634.695C414.182 629.695 392.548 621.195 375.348 627.195" stroke="#D1D4D8" stroke-width="3" stroke-linecap="round"/>
<path d="M672.068 447.195L624.068 449.195" stroke="#D1D4D8" stroke-width="3" stroke-linecap="round"/>
<path d="M672.568 447.195L735.568 452.695" stroke="#D1D4D8" stroke-width="3" stroke-linecap="round"/>
<path d="M736.068 452.695L723.568 512.195" stroke="#D1D4D8" stroke-width="3" stroke-linecap="round"/>
<path d="M723.568 512.195L671.068 521.195" stroke="#D1D4D8" stroke-width="3" stroke-linecap="round"/>
<path d="M671.068 520.695V458.195" stroke="#D1D4D8" stroke-width="3" stroke-linecap="round"/>
<path d="M671.068 458.695L735.568 453.195" stroke="#D1D4D8" stroke-width="3" stroke-linecap="round"/>
<path d="M671.068 458.695L624.068 449.195" stroke="#D1D4D8" stroke-width="3" stroke-linecap="round"/>
<path d="M623.068 449.195L626.068 496.195" stroke="#D1D4D8" stroke-width="3" stroke-linecap="round"/>
<path d="M626.068 496.195L671.068 521.195" stroke="#D1D4D8" stroke-width="3" stroke-linecap="round"/>
<path d="M671.568 447.195V457.695" stroke="#D1D4D8" stroke-width="3" stroke-linecap="round"/>
<path d="M708.285 472.554L699.511 473.097C697.107 473.245 695.279 475.315 695.427 477.719C695.576 480.122 697.645 481.951 700.049 481.802L708.824 481.259C711.227 481.11 713.056 479.041 712.907 476.637C712.758 474.234 710.689 472.405 708.285 472.554Z" stroke="#D1D4D8" stroke-width="3"/>
<path d="M671.568 534.195L624.068 495.195L671.568 521.695L726.834 512.195H734.568L671.568 534.195Z" fill="#D1D4D8"/>
<path d="M820.131 567.195L795.631 548.195C790.831 544.473 797.965 542.644 802.131 542.195L893.632 530.695C905.132 532.195 930.531 535.995 940.132 539.195C949.732 542.395 946.799 545.528 944.132 546.695C914.132 552.195 851.231 564.095 839.631 567.695C828.031 571.295 821.798 568.862 820.131 567.195Z" stroke="#D1D4D8" stroke-width="3" stroke-linecap="round"/>
<path d="M943.133 540.195C946.633 541.362 957.833 551.895 952.633 576.695C950.633 583.195 945.133 587.195 927.133 587.195H833.633C829.3 587.528 819.333 586.895 814.133 581.695C808.933 576.495 798.3 565.528 793.633 560.695C792.633 559.528 791.633 557.195 795.633 557.195" stroke="#D1D4D8" stroke-width="3" stroke-linecap="round"/>
<path d="M795.633 557.195V548.695" stroke="#D1D4D8" stroke-width="3" stroke-linecap="round"/>
<path d="M795.633 560.195L816.133 576.195C818.633 578.195 823.133 581.695 834.633 581.195C845.936 580.704 906.967 579.528 936.133 580.195C940.473 580.294 946.133 578.195 947.133 568.195C948.428 555.25 946.133 547.195 941.133 547.195" stroke="#D1D4D8" stroke-width="3" stroke-linecap="round"/>
<path d="M796.632 565.695L777.632 567.195C774.965 567.195 769.732 568.495 770.132 573.695C770.532 578.895 770.299 581.862 770.132 582.695C769.632 585.195 772.132 587.195 775.132 589.695L799.132 610.695" stroke="#D1D4D8" stroke-width="3" stroke-linecap="round"/>
<path d="M801.633 586.695L799.133 610.695" stroke="#D1D4D8" stroke-width="3" stroke-linecap="round"/>
<path d="M801.633 586.695L774.633 569.195" stroke="#D1D4D8" stroke-width="3" stroke-linecap="round"/>
<path d="M801.133 587.195L818.133 585.195" stroke="#D1D4D8" stroke-width="3" stroke-linecap="round"/>
<path d="M799.133 610.695L940.133 613.695" stroke="#D1D4D8" stroke-width="3" stroke-linecap="round"/>
<path d="M941.133 586.195L940.133 613.195" stroke="#D1D4D8" stroke-width="3" stroke-linecap="round"/>
<path d="M818.133 603.195C819.79 603.195 821.133 601.852 821.133 600.195C821.133 598.538 819.79 597.195 818.133 597.195C816.476 597.195 815.133 598.538 815.133 600.195C815.133 601.852 816.476 603.195 818.133 603.195Z" fill="#D1D4D8"/>
<path d="M834.133 629.195C835.79 629.195 837.133 627.852 837.133 626.195C837.133 624.538 835.79 623.195 834.133 623.195C832.476 623.195 831.133 624.538 831.133 626.195C831.133 627.852 832.476 629.195 834.133 629.195Z" fill="#D1D4D8"/>
<path d="M925.133 602.195C926.79 602.195 928.133 600.852 928.133 599.195C928.133 597.538 926.79 596.195 925.133 596.195C923.476 596.195 922.133 597.538 922.133 599.195C922.133 600.852 923.476 602.195 925.133 602.195Z" fill="#D1D4D8"/>
<path d="M943.133 630.195C944.79 630.195 946.133 628.852 946.133 627.195C946.133 625.538 944.79 624.195 943.133 624.195C941.476 624.195 940.133 625.538 940.133 627.195C940.133 628.852 941.476 630.195 943.133 630.195Z" fill="#D1D4D8"/>
<path d="M785.133 612.695L809.633 636.195C813.133 639.695 822.133 640.695 842.133 640.695C860.642 640.695 925.8 638.862 956.133 639.195" stroke="#D1D4D8" stroke-width="3" stroke-linecap="round"/>
<path d="M956.633 613.695L956.133 639.195" stroke="#D1D4D8" stroke-width="3" stroke-linecap="round"/>
<path d="M956.633 613.695L941.133 606.695" stroke="#D1D4D8" stroke-width="3" stroke-linecap="round"/>
<path d="M788.133 601.195C788.3 604.195 787.833 610.595 784.633 612.195" stroke="#D1D4D8" stroke-width="3" stroke-linecap="round"/>
<path d="M815.133 612.195C816.467 613.695 818.133 618.195 816.633 625.195C815.462 630.661 813.633 635.695 809.633 635.195" stroke="#D1D4D8" stroke-width="3" stroke-linecap="round"/>
<path d="M956.633 614.195L938.133 613.695" stroke="#D1D4D8" stroke-width="3" stroke-linecap="round"/>
<path d="M798.133 625.195L776.133 637.695" stroke="#D1D4D8" stroke-width="3" stroke-linecap="round"/>
<path d="M776.133 637.695C772.967 643.862 768.033 661.095 773.633 682.695" stroke="#D1D4D8" stroke-width="3" stroke-linecap="round"/>
<path d="M774.133 682.695L888.633 690.195C895.467 690.362 910.733 689.195 917.133 683.195C923.533 677.195 935.633 664.028 941.133 658.195" stroke="#D1D4D8" stroke-width="3" stroke-linecap="round"/>
<path d="M941.133 658.195V643.195" stroke="#D1D4D8" stroke-width="3" stroke-linecap="round"/>
<path d="M940.632 642.695L911.632 669.195C910.466 670.528 906.032 672.795 897.632 671.195C889.232 669.595 825.466 653.862 794.632 646.195C788.799 644.862 779.132 645.195 778.632 657.695C777.966 663.362 778.932 674.895 788.132 675.695C797.332 676.495 860.632 679.362 891.132 680.695C899.466 681.195 915.632 682.695 932.632 667.195" stroke="#D1D4D8" stroke-width="3" stroke-linecap="round"/>
<path d="M305.465 635.768C306.083 637.685 305.628 639.063 303.22 639.27C296.093 639.881 287.629 628.833 284.289 623.233" stroke="#D1D4D8" stroke-width="3" stroke-linecap="round"/>
<path d="M305.447 614.069C309.004 619.752 315.207 628.509 320.645 633.477C320.149 637.295 316.418 643.099 305.465 635.768C303.797 630.594 294.311 621.499 294.311 620.942" stroke="#D1D4D8" stroke-width="3" stroke-linecap="round"/>
<path d="M315.096 608.724C321.901 616.233 334.25 632.321 329.202 636.597C328.307 637.355 327.166 637.428 325.861 636.984C324.307 636.455 322.521 635.192 320.643 633.477C315.205 628.509 309.002 619.752 305.445 614.069" stroke="#D1D4D8" stroke-width="3" stroke-linecap="round"/>
<path d="M259.16 628.294C270.543 614.039 306.931 583.141 327.718 601.851C336.008 610.124 346.34 625.077 340.401 631.186C337.431 633.477 331.003 630.422 326.857 624.313" stroke="#D1D4D8" stroke-width="3" stroke-linecap="round"/>
<path d="M299.712 547C292.545 552.667 281.312 567.4 293.712 581" stroke="#D1D4D8" stroke-width="3" stroke-linecap="round"/>
</svg>
