<svg width="1241" height="951" viewBox="0 0 1241 951" fill="none" xmlns="http://www.w3.org/2000/svg">
<path d="M177.273 656.279C201.136 680.663 245.471 691.408 268.84 694.342C270.491 694.55 271.073 696.695 269.733 697.681L208.246 742.958C208.046 743.105 207.815 743.211 207.573 743.265C162.048 753.408 119.605 708.164 102.763 682.462C102.121 681.482 102.599 680.182 103.711 679.81L175.377 655.816C176.045 655.592 176.779 655.775 177.273 656.279Z" stroke="#D1D4D8" stroke-width="3" stroke-linecap="round"/>
<path d="M142.475 692.722C149.7 691.322 165.417 686.962 170.475 680.722" stroke="#D1D4D8" stroke-width="3" stroke-linecap="round"/>
<path d="M161.475 708.715C166.141 708.851 176.875 706.842 182.475 697.722" stroke="#D1D4D8" stroke-width="3" stroke-linecap="round"/>
<path d="M184.475 720.722C191.171 719.838 205.546 714.801 209.475 701.722" stroke="#D1D4D8" stroke-width="3" stroke-linecap="round"/>
<path d="M592 153L590 197" stroke="#D1D4D8" stroke-width="3" stroke-linecap="round"/>
<path d="M651.303 151.012L653.767 192.902" stroke="#D1D4D8" stroke-width="3" stroke-linecap="round"/>
<path d="M621.586 394.737C644.728 365.506 692.979 297.779 700.843 260.726C701.457 258.049 700.597 253.068 692.241 254.55C683.886 256.032 677.701 255.991 675.653 255.785C674.219 254.962 672.458 252.821 676.881 250.845C681.305 248.868 689.784 244.257 693.47 242.199C695.928 240.346 699.368 235.282 693.47 229.847C687.572 224.413 665.208 203.513 654.763 193.743" stroke="#D1D4D8" stroke-width="3" stroke-linecap="round"/>
<path d="M590.252 186C588.059 187.724 583.717 191.57 581.036 193.743C564.184 207.404 541.1 224.907 539.257 234.17C537.618 242.407 542.943 245.904 549.087 247.139C554.002 248.127 554.003 251.462 551.545 252.08L536.799 254.55C533.932 255.167 529.918 259.86 536.799 273.693C545.401 290.985 592.71 377.445 624.658 404" stroke="#D1D4D8" stroke-width="3" stroke-linecap="round"/>
<path d="M588.324 188C572.784 233.052 586.211 343.767 625 404" stroke="#D1D4D8" stroke-width="3" stroke-linecap="round"/>
<path d="M655.061 194C663.224 208.154 655.061 286.923 622 394" stroke="#D1D4D8" stroke-width="3" stroke-linecap="round"/>
<path d="M579 195C550.514 206.698 516.33 221.473 496.018 275.65C479.63 319.361 470.009 340.293 444 376" stroke="#D1D4D8" stroke-width="3" stroke-linecap="round"/>
<path d="M422 384.744C436.374 377.53 469.681 369.955 487.916 397.369C491.115 402.179 491.612 407.59 490.38 413" stroke="#D1D4D8" stroke-width="3" stroke-linecap="round"/>
<path d="M491 413C506.756 401.219 544.16 377.9 553 335" stroke="#D1D4D8" stroke-width="3" stroke-linecap="round"/>
<path d="M552.951 325C553.567 351.891 548.639 411.338 524 434" stroke="#D1D4D8" stroke-width="3" stroke-linecap="round"/>
<path d="M664 202C715.719 211.83 729.634 237.02 755.74 300.915C781.845 364.811 804.38 387.338 813 390" stroke="#D1D4D8" stroke-width="3" stroke-linecap="round"/>
<path d="M811 389.408C800.382 385.33 777.186 379.499 757.094 396.136C737.002 412.773 748.722 426.311 757.094 431" stroke="#D1D4D8" stroke-width="3" stroke-linecap="round"/>
<path d="M757 432C743.544 428.921 711.126 399.976 694 331" stroke="#D1D4D8" stroke-width="3" stroke-linecap="round"/>
<path d="M697.583 312C690.223 325.494 682.862 368.921 712.305 434.674C713.94 437.945 720.769 443.874 735 441.421" stroke="#D1D4D8" stroke-width="3" stroke-linecap="round"/>
<path d="M624.578 404C629.209 419.775 630.377 453.659 598 463" stroke="#D1D4D8" stroke-width="3" stroke-linecap="round"/>
<path d="M622 445.172C623.231 451.727 631.6 464.202 655.231 461.665C678.861 459.127 712.256 447.498 726 442" stroke="#D1D4D8" stroke-width="3" stroke-linecap="round"/>
<path d="M543.573 550C527.233 552.03 488.981 559.516 480.602 574.74C478.088 579.308 475.172 590.422 483.618 598.338C492.065 606.255 507.5 604.174 514.161 602.144L553 586.539" stroke="#D1D4D8" stroke-width="3" stroke-linecap="round"/>
<path d="M767.04 434C736.477 434.984 601.49 500.371 537.817 532.942C532.395 568.832 555.276 594.602 567.394 603C630.862 584.564 761.124 547.2 774.434 545.233C787.744 543.267 800.93 533.762 805.859 529.255C840.366 488.941 814.897 454.69 797.849 442.604C774.68 444.079 767.656 437.483 767.04 434Z" fill="#D1D4D8"/>
<path d="M480.978 425.019C502.611 424.036 596.84 463.232 641.5 482.5L539.364 533.863C493.655 547.353 465.575 542.909 457 540.001C407.5 516.001 426.894 456.791 446.561 434.858C470.653 436.334 479.544 428.914 480.978 425.019Z" fill="#D1D4D8"/>
<path d="M599 463L524 434" stroke="#D1D4D8" stroke-width="3" stroke-linecap="round"/>
<path d="M612.5 427C616.09 427 619 423.866 619 420C619 416.134 616.09 413 612.5 413C608.91 413 606 416.134 606 420C606 423.866 608.91 427 612.5 427Z" fill="#D1D4D8"/>
<path d="M620 234C622.209 234 624 231.985 624 229.5C624 227.014 622.209 225 620 225C617.791 225 616 227.014 616 229.5C616 231.985 617.791 234 620 234Z" fill="#D1D4D8"/>
<path d="M620 259C622.209 259 624 257.209 624 255C624 252.79 622.209 251 620 251C617.791 251 616 252.79 616 255C616 257.209 617.791 259 620 259Z" fill="#D1D4D8"/>
<path d="M620 285C622.209 285 624 283.209 624 281C624 278.791 622.209 277 620 277C617.791 277 616 278.791 616 281C616 283.209 617.791 285 620 285Z" fill="#D1D4D8"/>
<path d="M620 311C622.209 311 624 309.209 624 307C624 304.791 622.209 303 620 303C617.791 303 616 304.791 616 307C616 309.209 617.791 311 620 311Z" fill="#D1D4D8"/>
<path d="M620 337C622.209 337 624 334.985 624 332.5C624 330.015 622.209 328 620 328C617.791 328 616 330.015 616 332.5C616 334.985 617.791 337 620 337Z" fill="#D1D4D8"/>
<path d="M721.5 557C735 563.5 742.299 572.016 746 579C753.931 597.187 739.69 608.119 723.431 602.979C714.446 600.139 712.328 598.235 707.569 594.281C705.154 592.274 693.876 581.774 681 569.373" stroke="#D1D4D8" stroke-width="3" stroke-linecap="round"/>
<path d="M460.489 417.491C456.181 412.492 443.627 417.741 452.489 431.239C457.412 436.238 463.565 436.238 474.027 429.364C482.5 423.796 487.537 415.244 489.999 411.495" stroke="#D1D4D8" stroke-width="3" stroke-linecap="round"/>
<path d="M445.105 414.992C442.644 408.118 428.367 410.868 432.798 421.865C437.228 432.863 444.9 435.196 448.182 434.988" stroke="#D1D4D8" stroke-width="3" stroke-linecap="round"/>
<path d="M440.182 433.738C436.736 434.238 433.003 434.988 429.721 432.488C413.967 420.491 419.259 410.618 426.029 409.993C426.644 409.993 428.244 410.243 429.721 411.242" stroke="#D1D4D8" stroke-width="3" stroke-linecap="round"/>
<path d="M421.975 384.722C417.668 387.847 408.363 387.615 403.875 386.247C397.721 384.372 394.029 389.996 394.029 393.746C394.028 394.996 392.77 400.247 406.925 404.621C409.364 405.172 411.445 405.359 413.694 405.075C416.551 404.715 419.679 403.595 424.155 401.497" stroke="#D1D4D8" stroke-width="3" stroke-linecap="round"/>
<path d="M418.645 414.367C417.55 412.977 414.836 411.969 412.464 412.064C411.282 412.112 410.185 412.433 409.414 413.117C404.491 417.491 411.466 425.198 415.568 428.114C417.209 428.947 419.876 431.614 424.799 430.614" stroke="#D1D4D8" stroke-width="3" stroke-linecap="round"/>
<path d="M811.436 389C814.098 390.659 822.369 394.1 834.162 394.598C845.955 395.096 846.446 400.818 845.832 403.927C845.832 405.793 839.69 416.989 826.791 413.879" stroke="#D1D4D8" stroke-width="3" stroke-linecap="round"/>
<path d="M824.334 429.428C826.791 425.696 827.568 416.108 834.776 419.477C842.761 423.208 833.752 432.33 828.634 436.892C825.842 439.379 820.526 439.877 812.664 439.379" stroke="#D1D4D8" stroke-width="3" stroke-linecap="round"/>
<path d="M800.379 440.623C806.521 440.831 819.911 438.882 824.333 429.428C829.861 417.611 812.945 419.477 809.874 425.696" stroke="#D1D4D8" stroke-width="3" stroke-linecap="round"/>
<path d="M785.025 441.867C790.962 442.489 803.943 441.245 808.365 431.294C813.893 418.855 802.837 417.611 799.152 420.72C796.277 423.146 796.081 427.147 795.467 428.184" stroke="#D1D4D8" stroke-width="3" stroke-linecap="round"/>
<path d="M758 431.916C766.394 437.721 783.674 444.853 790.553 436.892C799.152 426.94 792.396 421.342 787.482 422.586C785.025 423.208 782.568 425.074 780.726 428.184" stroke="#D1D4D8" stroke-width="3" stroke-linecap="round"/>
<path d="M585 195C597.802 203.301 628.734 214.922 655 195" stroke="#D1D4D8" stroke-width="3" stroke-linecap="round"/>
<path d="M579 102.613C581.265 128.159 592.855 173.213 621 174.959C650.647 176.798 663 117.328 663 102" stroke="#D1D4D8" stroke-width="3" stroke-linecap="round"/>
<path d="M585 102L576 99.9995" stroke="#D1D4D8" stroke-width="3" stroke-linecap="round"/>
<path d="M666.428 99.9995C675.274 102.274 682.23 112.152 661 131" stroke="#D1D4D8" stroke-width="3" stroke-linecap="round"/>
<path d="M574.961 99.9995C567.129 101.034 558.884 113.02 583 131" stroke="#D1D4D8" stroke-width="3" stroke-linecap="round"/>
<path d="M601 109C604.314 109 607 107.656 607 106C607 104.343 604.314 103 601 103C597.686 103 595 104.343 595 106C595 107.656 597.686 109 601 109Z" fill="#D1D4D8"/>
<path d="M641.5 109C645.09 109 648 107.656 648 106C648 104.343 645.09 103 641.5 103C637.91 103 635 104.343 635 106C635 107.656 637.91 109 641.5 109Z" fill="#D1D4D8"/>
<path d="M600.5 120.5C609.337 120.5 616.5 113.336 616.5 104.5C616.5 95.663 609.337 88.4995 600.5 88.4995C591.663 88.4995 584.5 95.663 584.5 104.5C584.5 113.336 591.663 120.5 600.5 120.5Z" stroke="#D1D4D8" stroke-width="3"/>
<path d="M640.5 120.5C649.337 120.5 656.5 113.336 656.5 104.5C656.5 95.663 649.337 88.4995 640.5 88.4995C631.663 88.4995 624.5 95.663 624.5 104.5C624.5 113.336 631.663 120.5 640.5 120.5Z" stroke="#D1D4D8" stroke-width="3"/>
<path d="M617 103H624" stroke="#D1D4D8" stroke-width="3" stroke-linecap="round"/>
<path d="M613.77 113C612.12 122 611.667 137.941 628 129.713" stroke="#D1D4D8" stroke-width="3" stroke-linecap="round"/>
<path d="M610 145C613.333 147.264 622 150.434 630 145" stroke="#D1D4D8" stroke-width="3" stroke-linecap="round"/>
<path d="M656 99.9995H664" stroke="#D1D4D8" stroke-width="3" stroke-linecap="round"/>
<path d="M574.615 51.4724L575.796 50.9162L575.409 49.6698C573.938 44.9426 572.331 34.2802 577.757 24.1884C583.128 14.2002 595.633 4.33511 623.274 1.58035C651.008 0.381869 666.461 12.8898 671.994 19.5706C672.14 19.7467 672.288 19.9252 672.438 20.1062C675.299 23.5555 678.887 27.8813 681.342 32.8269C683.91 38.0027 685.153 43.6933 683.081 49.6204L682.921 50.0794L683.06 50.5452C684.736 56.1473 686.208 65.4553 685.135 75.0258C684.088 84.3667 680.642 93.7896 672.788 100.358C672.405 100.185 672.044 99.8574 671.658 99.2429C671.035 98.2524 670.446 96.6608 669.773 94.172C669.144 91.8432 668.476 88.8714 667.628 85.0981C667.58 84.883 667.531 84.6653 667.481 84.4449C666.566 80.373 665.449 75.4389 663.976 69.5186C661.342 58.9352 652.33 52.0172 641.085 48.3047C629.821 44.5856 616.04 43.9701 603.238 46.1659L603.166 46.1782L603.095 46.1976C598.359 47.4949 590.665 50.8932 584.863 59.1344C579.211 67.163 575.494 79.5898 577.809 98.6808C576.503 98.7298 574.952 98.8362 573.447 99.0297C572.328 99.1735 571.203 99.3694 570.21 99.6362C569.704 99.7719 569.192 99.9363 568.714 100.142C563.405 94.647 557.701 86.0881 556.666 77.2724C556.128 72.6936 556.849 68.0609 559.524 63.6967C562.208 59.3182 566.934 55.0894 574.615 51.4724Z" stroke="#D1D4D8" stroke-width="3"/>
<path d="M590 80C592.5 79.2454 600 78.1889 610 80" stroke="#D1D4D8" stroke-width="3" stroke-linecap="round"/>
<path d="M632 81C634.375 80.2454 641.5 79.1889 651 81" stroke="#D1D4D8" stroke-width="3" stroke-linecap="round"/>
<path d="M2 856L82.7007 776H1139.21L1239 856" stroke="#D1D4D8" stroke-width="3" stroke-linecap="round"/>
<path d="M446 773.999C447.441 753.803 461.441 712.421 505.912 708.465C561.5 703.519 591.147 696.718 617.706 725.157C622.647 730.722 633.023 748.28 635 773.999" stroke="#D1D4D8" stroke-width="3" stroke-linecap="round"/>
<path d="M186 782L109 786" stroke="#D1D4D8" stroke-width="3" stroke-linecap="round"/>
<path d="M186 782L285 790" stroke="#D1D4D8" stroke-width="3" stroke-linecap="round"/>
<path d="M287 790L267 884" stroke="#D1D4D8" stroke-width="3" stroke-linecap="round"/>
<path d="M267 884L183 899" stroke="#D1D4D8" stroke-width="3" stroke-linecap="round"/>
<path d="M183 898V799" stroke="#D1D4D8" stroke-width="3" stroke-linecap="round"/>
<path d="M183 800L285 792" stroke="#D1D4D8" stroke-width="3" stroke-linecap="round"/>
<path d="M183 800L109 786" stroke="#D1D4D8" stroke-width="3" stroke-linecap="round"/>
<path d="M108 786L113 859" stroke="#D1D4D8" stroke-width="3" stroke-linecap="round"/>
<path d="M113 859L183 899" stroke="#D1D4D8" stroke-width="3" stroke-linecap="round"/>
<path d="M184 782V798" stroke="#D1D4D8" stroke-width="3" stroke-linecap="round"/>
<path d="M242.657 821.212L228.793 822.07C224.515 822.334 221.261 826.017 221.526 830.295C221.791 834.572 225.473 837.826 229.751 837.561L243.615 836.704C247.893 836.439 251.146 832.757 250.882 828.479C250.617 824.201 246.935 820.948 242.657 821.212Z" stroke="#D1D4D8" stroke-width="3"/>
<path d="M182.783 920L110 861L182.961 901.136L268.893 886.286L277 887.49L182.783 920Z" fill="#D1D4D8"/>
<path d="M1033.04 941.721C1023.84 925.721 1053.21 923.387 1069.04 924.221V935.721L1120.54 941.721C1095.21 948.387 1042.24 957.721 1033.04 941.721Z" fill="#D1D4D8"/>
<path d="M1146.04 920.222L1126.54 940.222M1122.04 879.222L1071.54 875.722L1122.04 879.222ZM1092.04 862.722L1146.04 865.222L1092.04 862.722Z" stroke="#D1D4D8" stroke-width="3" stroke-linecap="round"/>
<path d="M1070.54 875.722L1068.04 933.722M1126.54 897.722V940.222V897.722ZM1146.04 866.222V919.222V866.222Z" stroke="#D1D4D8" stroke-width="3" stroke-linecap="round"/>
<path d="M1070.54 875.722L1092.04 862.722M1126.54 940.222L1067.54 934.222L1126.54 940.222Z" stroke="#D1D4D8" stroke-width="3" stroke-linecap="round"/>
<path d="M892.289 850.222C892.789 836.222 948.789 840.722 952.289 841.222V850.222L969.289 862.222C943.455 862.889 891.889 861.422 892.289 850.222Z" fill="#D1D4D8"/>
<path d="M1031.29 848.722V797.722M951.789 848.722V792.722V848.722ZM987.789 861.722V805.722V861.722Z" stroke="#D1D4D8" stroke-width="3" stroke-linecap="round"/>
<path d="M951.789 792.722L991.289 782.722M987.789 862.222L1031.29 849.222L987.789 862.222ZM1031.29 797.222L987.789 805.222L1031.29 797.222Z" stroke="#D1D4D8" stroke-width="3" stroke-linecap="round"/>
<path d="M1031.29 797.222L991.289 782.722M951.789 793.222L988.289 805.222L951.789 793.222Z" stroke="#D1D4D8" stroke-width="3" stroke-linecap="round"/>
<path d="M720.317 797.331C712.745 795.915 697.956 798.448 706.81 816.739C713.563 830.689 724 837.968 727.07 841" stroke="#D1D4D8" stroke-width="3" stroke-linecap="round"/>
<path d="M738.722 859.172C721.986 844.953 721.825 808.791 724.107 789.743C724.259 788.471 725.567 787.71 726.787 788.102C743.106 793.347 762.6 790.556 772.364 787.945C773.572 787.622 774.809 788.444 774.947 789.687C779.884 834.184 767.367 854.078 760.343 859.191C760.259 859.252 760.178 859.3 760.085 859.345C756.156 861.254 746.696 863.816 738.99 859.362C738.895 859.307 738.805 859.243 738.722 859.172Z" stroke="#D1D4D8" stroke-width="3" stroke-linecap="round"/>
<ellipse cx="749.57" cy="787" rx="26.5" ry="5" fill="#D1D4D8"/>
<path d="M755.561 770C759.801 766.058 765.738 753.751 755.561 736.052C745.384 718.353 756.518 701.976 763.358 696" stroke="#D1D4D8" stroke-width="3" stroke-linecap="round"/>
<path d="M742.841 752.835C736.959 744.443 727.739 723.998 737.916 709.351" stroke="#D1D4D8" stroke-width="3" stroke-linecap="round"/>
<path d="M787.57 860.001C799.17 853.601 778.404 854.833 767.07 855L761.07 861.001C773.57 863.501 783.07 862.001 787.57 860.001Z" fill="#D1D4D8"/>
</svg>
