<svg width="688" height="547" viewBox="0 0 688 547" fill="none" xmlns="http://www.w3.org/2000/svg">
<path d="M198.627 94.9494L197.112 97.5387C207.2 103.657 227.272 127.691 223.162 174.04C217.993 232.352 195.66 287.245 145.807 312.902C142.361 314.676 134.205 317.243 123.295 318.877C112.426 320.504 98.9508 321.185 84.9024 319.271C56.8428 315.449 26.5632 301.305 9.98769 263.648L8.6148 264.252L9.98768 263.648C-2.30403 235.723 0.290768 209.258 8.06931 187.646C15.8585 166.005 28.8293 149.291 37.1433 141.018C45.1986 133.035 59.7777 121.686 77.2317 113.696C94.697 105.701 114.862 101.147 134.202 106.464L135.508 106.824L135.998 105.56C144.155 84.5166 174.216 39.2258 228.909 26.92C283.567 14.6221 310.249 45.266 310.453 69.2159C310.522 77.2402 309.164 89.0816 304.942 98.5581C302.835 103.288 300.056 107.333 296.478 110.051C293.177 112.558 289.131 113.985 284.124 113.717L280.452 94.041L280.028 91.7696L278.126 93.0813C265.759 101.609 232.43 114.001 198.627 94.9494Z" stroke="#D1D4D8" stroke-width="3"/>
<path d="M300.374 165.543C299.196 173.491 296.255 180.286 292.58 184.854C288.863 189.477 284.749 191.452 281.116 190.914C277.484 190.376 274.119 187.293 271.902 181.791C269.71 176.353 268.864 168.998 270.042 161.05C271.219 153.102 274.161 146.308 277.836 141.739C281.553 137.116 285.667 135.141 289.3 135.679C292.932 136.218 296.297 139.3 298.514 144.802C300.706 150.24 301.552 157.595 300.374 165.543Z" stroke="#D1D4D8" stroke-width="3"/>
<path d="M285.451 172.38C288.008 172.758 290.634 169.334 291.316 164.731C291.998 160.128 290.478 156.089 287.921 155.71C285.364 155.331 282.738 158.756 282.056 163.359C281.374 167.962 282.894 172.001 285.451 172.38Z" fill="#D1D4D8"/>
<path d="M224.795 170.251L268.074 166.326" stroke="#D1D4D8" stroke-width="3" stroke-linecap="round"/>
<path d="M287.624 115.941C291.362 123.466 302.391 139.912 313.907 149.116C325.685 158.53 326.68 170.53 319.16 179.176L307.438 192.778C313.907 242.243 304.376 278.872 243.75 295.923" stroke="#D1D4D8" stroke-width="3" stroke-linecap="round"/>
<path d="M243.03 215.368C244.462 215.58 245.796 214.591 246.008 213.158C246.22 211.726 245.231 210.392 243.798 210.18C242.366 209.968 241.032 210.957 240.82 212.39C240.608 213.822 241.597 215.156 243.03 215.368Z" fill="#D1D4D8"/>
<path d="M233.634 239.423C235.353 239.678 236.919 238.723 237.131 237.29C237.343 235.857 236.121 234.49 234.402 234.235C232.683 233.98 231.117 234.935 230.905 236.368C230.693 237.8 231.915 239.168 233.634 239.423Z" fill="#D1D4D8"/>
<path d="M256.499 235.39C258.218 235.645 259.783 234.69 259.996 233.257C260.208 231.825 258.986 230.457 257.267 230.202C255.548 229.947 253.982 230.902 253.77 232.335C253.558 233.767 254.779 235.135 256.499 235.39Z" fill="#D1D4D8"/>
<path d="M304 344.001L323.409 323.384C326.921 319.484 336.053 315.248 344.481 329.513C352.911 343.777 349.842 358.859 347.254 364.618" stroke="#D1D4D8" stroke-width="3" stroke-linecap="round"/>
<path d="M406.498 309.618C408.423 307.019 409.446 304.733 409.808 303.149C411.655 299.915 412.759 292.452 402.049 289.675C385.423 285.362 388.195 295.604 391.52 296.142C402.603 297.436 407.232 306.743 406.498 309.618Z" stroke="#D1D4D8" stroke-width="3" stroke-linecap="round"/>
<path d="M350 353.618C351.663 347.903 360.088 334.647 380.487 327.332C394.226 322.406 402.03 315.302 406 309.618" stroke="#D1D4D8" stroke-width="3" stroke-linecap="round"/>
<path d="M380 311.396C374.96 308.712 362.304 305.598 352 314.618" stroke="#D1D4D8" stroke-width="3" stroke-linecap="round"/>
<path d="M396 311.618C391.072 302.886 378.372 287.927 367 297.95" stroke="#D1D4D8" stroke-width="3" stroke-linecap="round"/>
<path d="M339 314.618C343.543 301.273 353.197 283.864 385 281.618" stroke="#D1D4D8" stroke-width="3" stroke-linecap="round"/>
<path d="M423.362 365.385C425.664 362.172 426.82 359.247 425.771 357.227C422.72 351.355 415.217 357.382 411.847 361.13C403.46 370.147 387.318 385.82 391.669 367.582C396.019 349.343 386.766 350.466 365.099 372.729L343.561 385.826" stroke="#D1D4D8" stroke-width="3" stroke-linecap="round"/>
<path d="M421.601 393.981C423.456 399.685 420.48 412.887 393.206 416.086C382.887 417.296 381.336 417.126 371.651 416.309H355.061" stroke="#D1D4D8" stroke-width="3" stroke-linecap="round"/>
<path d="M405.061 382.569C410.42 378.62 418.967 371.451 423.354 365.327C428.118 365.272 432.731 367.957 425.379 377.341C422.196 381.404 416.77 386.722 408.142 393.618" stroke="#D1D4D8" stroke-width="3" stroke-linecap="round"/>
<path d="M408.148 393.676C416.776 386.78 422.202 381.462 425.385 377.399C429.93 378.68 434.019 383.635 421.599 393.981C418.883 396.243 415.377 398.764 410.914 401.56" stroke="#D1D4D8" stroke-width="3" stroke-linecap="round"/>
<path d="M146.702 324.241C73.2386 377.828 82.029 444.654 82.029 527.241" stroke="#D1D4D8" stroke-width="3" stroke-linecap="round"/>
<path d="M148.703 325.15L183.97 356.011C185.115 357.014 186.916 356.42 187.241 354.933L196.435 312.886C196.776 311.327 198.716 310.775 199.826 311.923L223.703 336.604" stroke="#D1D4D8" stroke-width="3" stroke-linecap="round"/>
<path d="M223.703 300.241C225.659 303.906 228.463 309.863 231.091 316.786C234.697 326.289 237.971 337.613 238.264 347.332" stroke="#D1D4D8" stroke-width="3" stroke-linecap="round"/>
<path d="M231.09 316.786L297 352.118" stroke="#D1D4D8" stroke-width="3" stroke-linecap="round"/>
<path d="M179.703 385.75C191.747 402.066 259.578 447.247 308.39 397.674L321.703 383.241" stroke="#D1D4D8" stroke-width="3" stroke-linecap="round"/>
<path d="M212.703 545.241C228.374 541.189 302.703 500.486 324.351 462.665" stroke="#D1D4D8" stroke-width="3" stroke-linecap="round"/>
<path d="M318.547 413.498C323.915 432.771 325.426 449.04 324.35 462.665C336.293 454.47 347.702 448.167 347.702 422.323C347.702 404.042 334.392 388.284 322.349 383.241" stroke="#D1D4D8" stroke-width="3" stroke-linecap="round"/>
<path d="M218.703 370.241C221.464 370.241 223.703 367.555 223.703 364.241C223.703 360.927 221.464 358.241 218.703 358.241C215.942 358.241 213.703 360.927 213.703 364.241C213.703 367.555 215.942 370.241 218.703 370.241Z" fill="#D1D4D8"/>
<path d="M225.703 399.241C228.464 399.241 230.703 396.555 230.703 393.241C230.703 389.927 228.464 387.241 225.703 387.241C222.942 387.241 220.703 389.927 220.703 393.241C220.703 396.555 222.942 399.241 225.703 399.241Z" fill="#D1D4D8"/>
<path d="M278.821 233.241C278.177 237.141 279.851 245.201 291.703 246.241" stroke="#D1D4D8" stroke-width="3" stroke-linecap="round"/>
<path d="M381.659 264.893C375.259 272.093 389.163 281.896 393.095 287.614C398.695 286.014 413.663 288.896 410.663 298.396C416.163 292.229 435.66 276.896 439.16 272.396C446.549 262.896 436.526 255.397 429.658 247.896C425.079 242.896 418.66 232.897 406.659 242.896C397.659 250.396 388.059 257.693 381.659 264.893Z" stroke="#D1D4D8" stroke-width="3"/>
<path d="M401.509 368.117L392.135 351.937C391.901 351.533 391.977 351.021 392.32 350.704C398.568 344.928 411.888 332.896 420.755 325.836C421.201 325.48 421.848 325.569 422.172 326.038C427.166 333.288 437.207 350.811 442.002 369.869C442.061 370.106 442.034 370.353 441.917 370.568C438.977 375.934 436.5 379.118 430.5 382.618" stroke="#D1D4D8" stroke-width="3" stroke-linecap="round"/>
<path d="M526.801 340.659C527.307 330.573 536.258 308.988 541.294 298.112C541.545 297.57 541.271 296.932 540.706 296.74L504.932 284.629C504.518 284.489 504.062 284.628 503.822 284.993C498.851 292.542 491.649 315.903 488.361 327.744C488.22 328.251 488.5 328.773 488.996 328.946L525.397 341.639C526.065 341.872 526.766 341.365 526.801 340.659Z" stroke="#D1D4D8" stroke-width="3" stroke-linecap="round"/>
<path d="M526.256 138.094C523.461 129.211 519.23 107.899 523.855 91.6483C524.065 90.9101 523.431 90.1852 522.674 90.3125C515.431 91.5317 499.321 93.0277 480.53 91.1727C480.028 91.1232 479.564 91.4479 479.458 91.9405C477.697 100.14 475.52 119.262 479.499 137.419C479.588 137.825 479.915 138.131 480.328 138.186C491.074 139.617 512.903 141.479 519.482 138.094" stroke="#D1D4D8" stroke-width="3" stroke-linecap="round"/>
<path d="M550.141 59.9391L575.256 37.8779" stroke="#D1D4D8" stroke-width="3" stroke-linecap="round"/>
<path d="M539.877 54.1046L563.905 18.5635" stroke="#D1D4D8" stroke-width="3" stroke-linecap="round"/>
<path d="M526.424 46.382C531.529 39.4454 542.251 20.7813 544.305 1.61768" stroke="#D1D4D8" stroke-width="3" stroke-linecap="round"/>
<path d="M430 161.725C440.346 179.533 478.036 205.604 546.893 170.317C548.405 169.542 550.209 170.832 549.897 172.502C542.838 210.324 542.768 271.894 630.623 295.107C668.817 305.198 703.937 285.454 675.841 261.762C637.607 229.52 569.602 336.35 609.112 401.725" stroke="#D1D4D8" stroke-width="3" stroke-linecap="round"/>
</svg>
