<svg width="756" height="849" viewBox="0 0 756 849" fill="none" xmlns="http://www.w3.org/2000/svg">
<circle cx="95.4961" cy="265.5" r="43" stroke="#D1D4D8" stroke-width="3"/>
<circle cx="95.9961" cy="233" r="3" fill="#D1D4D8"/>
<circle cx="95.9961" cy="298" r="3" fill="#D1D4D8"/>
<circle cx="127.996" cy="266" r="3" fill="#D1D4D8"/>
<circle cx="62.9961" cy="266" r="3" fill="#D1D4D8"/>
<circle cx="95.4961" cy="265.5" r="6.5" fill="#D1D4D8"/>
<path d="M78.9961 266H92.9961" stroke="#D1D4D8" stroke-width="3" stroke-linecap="round"/>
<path d="M95.9961 266V244" stroke="#D1D4D8" stroke-width="3" stroke-linecap="round"/>
<path d="M334.621 104.613C336.886 130.159 348.477 175.212 376.621 176.958C406.268 178.798 418.621 119.327 418.621 104" stroke="#D1D4D8" stroke-width="3" stroke-linecap="round"/>
<path d="M340.121 103.5L331.621 102" stroke="#D1D4D8" stroke-width="3" stroke-linecap="round"/>
<path d="M422.049 102C430.895 104.273 437.852 114.152 416.621 133" stroke="#D1D4D8" stroke-width="3" stroke-linecap="round"/>
<path d="M330.583 102C322.75 103.033 314.505 115.02 338.621 133" stroke="#D1D4D8" stroke-width="3" stroke-linecap="round"/>
<circle cx="355.621" cy="107" r="5" fill="#D1D4D8"/>
<circle cx="396.621" cy="107" r="5" fill="#D1D4D8"/>
<circle cx="356.121" cy="106.5" r="17" stroke="#D1D4D8" stroke-width="3"/>
<circle cx="396.121" cy="106.5" r="17" stroke="#D1D4D8" stroke-width="3"/>
<path d="M372.621 105H379.621" stroke="#D1D4D8" stroke-width="3" stroke-linecap="round"/>
<path d="M369.122 116C367.472 124.999 367.289 139.941 383.622 131.713" stroke="#D1D4D8" stroke-width="3" stroke-linecap="round"/>
<path d="M365.621 147C368.954 149.264 377.621 152.433 385.621 147" stroke="#D1D4D8" stroke-width="3" stroke-linecap="round"/>
<path d="M411.621 102H421.621" stroke="#D1D4D8" stroke-width="3" stroke-linecap="round"/>
<path d="M329.598 52.1153C298.115 66.9395 312.791 92.8818 324.064 104C326.031 102.518 332.262 102.147 335.131 102.147C329.72 62.6157 350.093 52.1149 359.112 49.6442C384.322 45.3205 413.222 52.1153 418.141 71.8809C424.017 95.4928 424.202 103.382 428.77 104C446.127 90.1641 443.568 63.6452 440.118 52.1153C444.619 39.2363 434.567 27.6142 428.77 20.6138C422.972 13.6135 407.073 0.847891 378.788 2.08358C322.834 7.64265 326.523 42.2325 329.598 52.1153Z" stroke="#D1D4D8" stroke-width="3" stroke-linecap="round"/>
<path d="M345.621 82C348.121 81.2454 355.621 80.1889 365.621 82" stroke="#D1D4D8" stroke-width="3" stroke-linecap="round"/>
<path d="M387.621 83C389.996 82.2454 397.121 81.1889 406.621 83" stroke="#D1D4D8" stroke-width="3" stroke-linecap="round"/>
<path d="M292.267 780C245.176 756.455 264.178 526.074 292.072 406.831C292.186 406.344 292.639 406.037 293.137 406.085L449.506 421.425C449.955 421.469 450.315 421.786 450.391 422.231C464.601 506.038 493.223 683.802 486.267 733C479.621 780 469.767 776.927 438.267 780C370.688 786.593 367.244 625.151 368.637 532.713C368.655 531.541 367.199 531.345 366.966 532.493C357.067 581.123 368.767 673.412 368.767 718C368.767 765 351.267 809.5 292.267 780Z" fill="#D1D4D8"/>
<path d="M313.967 798.5V810C295.467 818 263.067 836.1 281.467 844.5C299.867 852.9 331.8 835 345.467 825V794" stroke="#D1D4D8" stroke-width="3" stroke-linecap="round"/>
<path d="M430.996 789V818.5C439.996 826.333 466.496 841.3 500.496 838.5C542.996 835 473.996 827 454.996 791.5" stroke="#D1D4D8" stroke-width="3" stroke-linecap="round"/>
<path d="M447.996 416.868V256.912C447.996 255.102 449.589 253.707 451.389 253.897C519.86 261.123 590.885 219.709 603.496 208C610.496 201.502 666.496 138.502 589.496 165.998C512.876 193.359 435.586 196.515 402.989 191.882C401.537 191.676 400.496 190.423 400.496 188.957V163.368" stroke="#D1D4D8" stroke-width="3" stroke-linecap="round"/>
<path d="M354.496 165.368V187.535C354.496 188.968 353.516 190.197 352.106 190.45C312.737 197.505 222.651 197.035 157.996 141.001C147.829 133.334 120.004 137.341 148.996 190.001C172.872 233.367 256.107 253.308 301.979 250.747C303.83 250.644 305.36 252.183 305.211 254.031L293.5 399.368" stroke="#D1D4D8" stroke-width="3" stroke-linecap="round"/>
<path d="M657.997 164.5C652.997 173.5 664.66 174.823 670.497 176.214C673.164 177.06 676.797 180.926 669.997 189.626" stroke="#D1D4D8" stroke-width="3" stroke-linecap="round"/>
<path d="M666.996 167C663.496 166.5 659.59 165.231 657.996 164.5C655.947 163.561 654.652 160.463 655.496 158.214C657.719 152.284 667.496 157.096 674.996 159.714" stroke="#D1D4D8" stroke-width="3" stroke-linecap="round"/>
<path d="M680.996 153.214C672.996 149.881 653.996 142.714 657.996 155.479" stroke="#D1D4D8" stroke-width="3" stroke-linecap="round"/>
<path d="M662.496 147.5C661.496 144.5 660.796 137.114 681.996 142.714C693.496 145.751 692.996 155.087 692.996 159.714C692.996 176.285 677.663 186.559 669.996 189.626C656.887 194.788 638.114 200.26 629.996 195.714" stroke="#D1D4D8" stroke-width="3" stroke-linecap="round"/>
<path d="M633.496 158.214C637.163 153.381 646.396 142.914 653.996 139.714C666.663 132.714 689.996 123.513 681.996 142.714" stroke="#D1D4D8" stroke-width="3" stroke-linecap="round"/>
<path d="M104.999 141.243C109.999 150.243 98.3358 151.567 92.499 152.957C89.8324 153.803 86.199 157.669 92.999 166.369" stroke="#D1D4D8" stroke-width="3" stroke-linecap="round"/>
<path d="M95.9986 143.743C99.4986 143.243 103.404 141.975 104.999 141.243C107.047 140.304 108.342 137.206 107.499 134.957C105.275 129.027 95.4986 133.839 87.9986 136.457" stroke="#D1D4D8" stroke-width="3" stroke-linecap="round"/>
<path d="M81.9983 129.957C89.9983 126.624 108.998 119.457 104.998 132.222" stroke="#D1D4D8" stroke-width="3" stroke-linecap="round"/>
<path d="M100.5 124.243C101.5 121.243 102.2 113.857 81 119.457C69.5 122.494 70 131.83 70 136.457C70 153.028 85.3333 163.303 93 166.369C106.109 171.532 124.882 177.003 133 172.457" stroke="#D1D4D8" stroke-width="3" stroke-linecap="round"/>
<path d="M129.5 134.957C125.833 130.124 116.6 119.657 109 116.457C96.3333 109.457 73 100.257 81 119.457" stroke="#D1D4D8" stroke-width="3" stroke-linecap="round"/>
<path d="M751.996 359C735.329 318.167 698.196 229.668 674.996 186.868M674.996 139.5C676.829 134.667 681.896 123.2 687.496 116M662.001 174.868L572.996 359.5" stroke="#D1D4D8" stroke-width="3" stroke-linecap="round"/>
<path d="M3.49609 309L93.9961 155M98.501 151.868L185.996 310M84.501 116.368C82.1676 110.701 74.2961 100.1 55.4961 94.5" stroke="#D1D4D8" stroke-width="3" stroke-linecap="round"/>
<path d="M32.6495 331C6.71553 326.061 -0.18055 315.667 1.15278 308.5C93.9532 321.7 166.487 315 188.153 309.5C190.553 325.1 184.153 329 171.649 331C136.759 336.581 53.6543 335 32.6495 331Z" fill="#D1D4D8"/>
<path d="M68.9961 299C30.412 300.222 3.99609 304.378 3.99609 309.318C3.99609 315.218 44.5143 320 94.4961 320C144.478 320 184.996 315.218 184.996 309.318C184.996 304.469 158.994 300.305 121.496 299" stroke="#D1D4D8" stroke-width="3" stroke-linecap="round"/>
<ellipse cx="98.9961" cy="778.5" rx="93" ry="10.5" fill="#D1D4D8"/>
<ellipse cx="662.996" cy="803.5" rx="93" ry="10.5" fill="#D1D4D8"/>
<path d="M602.491 380.5C570.626 377.536 567.663 367 570.496 359C628.496 376.2 717.491 366.167 754.491 360C756.491 375.5 744.991 376.5 742.991 376.5C740.991 376.5 645.496 384.5 602.491 380.5Z" fill="#D1D4D8"/>
<path d="M697.031 351C729.315 352.414 751.996 355.749 751.996 359.639C751.996 364.809 711.926 369 662.496 369C613.067 369 572.996 364.809 572.996 359.639C572.996 355.749 593.212 352.414 625.496 351" stroke="#D1D4D8" stroke-width="3" stroke-linecap="round"/>
<path d="M624.496 343.09C620.914 305.934 637.415 287.483 647.632 281.899C648.82 281.25 650.169 281 651.523 281H671.444C672.899 281 674.35 281.296 675.622 282.002C695.255 292.902 700.548 323.818 698.628 343.09C697.835 358.214 687.132 361 677.617 361H645.506C626.081 360.204 624.76 347.998 624.496 343.09Z" stroke="#D1D4D8" stroke-width="3" stroke-linecap="round"/>
<path d="M667.996 313.299C666.286 312.458 663.69 311.672 661.262 311.681C658.336 311.692 655.655 312.858 655.066 316.478C654.289 321.253 660.178 322.967 663.686 324.692C668.535 327.077 668.491 331.547 665.572 333.701C664.259 334.669 662.768 335.201 661.262 335.402C659.06 335.695 656.825 335.282 655.066 334.496" stroke="#D1D4D8" stroke-width="3" stroke-linecap="round"/>
<path d="M661.262 311.681V308" stroke="#D1D4D8" stroke-width="3" stroke-linecap="round"/>
<path d="M661.262 335.402V339" stroke="#D1D4D8" stroke-width="3" stroke-linecap="round"/>
<rect x="642.496" y="270.5" width="37" height="10" rx="5" stroke="#D1D4D8" stroke-width="3"/>
<path d="M648.996 268L639.996 252" stroke="#D1D4D8" stroke-width="3" stroke-linecap="round"/>
<path d="M672.996 268L680.996 251" stroke="#D1D4D8" stroke-width="3" stroke-linecap="round"/>
<path d="M639.996 251.681C642.688 252.256 648.638 252.456 650.9 248.667C653.161 244.879 656.15 245.941 657.361 246.945L660.996 250.39" stroke="#D1D4D8" stroke-width="3" stroke-linecap="round"/>
<path d="M680.996 250.735C678.432 251.213 672.765 251.38 670.611 248.223C668.458 245.065 665.611 245.95 664.458 246.788L660.996 249.947" stroke="#D1D4D8" stroke-width="3" stroke-linecap="round"/>
<path d="M346.996 204C346.996 213.462 350.577 229.191 359.491 237.633C360.317 238.415 361.622 238.234 362.292 237.316L376.792 217.431C377.634 216.276 379.38 216.351 380.119 217.575L391.856 237.001C392.491 238.051 393.909 238.289 394.801 237.445C400.282 232.254 408.846 221.632 409.564 210.5" stroke="#D1D4D8" stroke-width="3" stroke-linecap="round"/>
<circle cx="377.496" cy="279.5" r="3.5" fill="#D1D4D8"/>
<circle cx="377.496" cy="308.5" r="3.5" fill="#D1D4D8"/>
<circle cx="377.496" cy="337.5" r="3.5" fill="#D1D4D8"/>
<circle cx="377.496" cy="366.5" r="3.5" fill="#D1D4D8"/>
</svg>
