<svg width="843" height="983" viewBox="0 0 843 983" fill="none" xmlns="http://www.w3.org/2000/svg">
<path d="M124.21 444.368L92.4961 362.768" stroke="#D1D4D8" stroke-width="3" stroke-linecap="round"/>
<path d="M55.7109 370.868L88.7109 451.368L124.211 444.368L208.711 399.868L182.711 327.868" stroke="#D1D4D8" stroke-width="3" stroke-linecap="round"/>
<path d="M55.7109 370.868L92.4966 362.768L182.711 327.868L166.711 331.868L55.7109 370.868Z" stroke="#D1D4D8" stroke-width="3" stroke-linecap="round"/>
<path d="M143.168 348L169.018 418" stroke="#D1D4D8" stroke-width="3" stroke-linecap="round"/>
<path d="M75.7051 412.036L110.382 405.444L196.21 367.868" stroke="#D1D4D8" stroke-width="3" stroke-linecap="round"/>
<path d="M161.705 386.57C165.259 391.703 173.099 400.987 176.023 397.055C178.948 393.123 171.758 384.713 167.798 381" stroke="#D1D4D8" stroke-width="3" stroke-linecap="round"/>
<path d="M159.264 384C157.408 376.152 155.689 359.64 163.66 356.375C171.632 353.11 166.005 371.966 162.195 381.803" stroke="#D1D4D8" stroke-width="3" stroke-linecap="round"/>
<path d="M104.705 347.992C109.792 345.372 121.618 343.401 128.231 351.452" stroke="#D1D4D8" stroke-width="3" stroke-linecap="round"/>
<path d="M104.705 347.993C108.626 347.468 117.485 349.251 121.555 355.541" stroke="#D1D4D8" stroke-width="3" stroke-linecap="round"/>
<path d="M104.705 347.993C105.023 349.251 112.335 353.025 110.746 359" stroke="#D1D4D8" stroke-width="3" stroke-linecap="round"/>
<path d="M135.543 336.671C138.298 336.566 143.046 339.061 146.352 347.363" stroke="#D1D4D8" stroke-width="3" stroke-linecap="round"/>
<path d="M135.543 336.671C141.16 335.203 151.757 335.161 155.572 344.218" stroke="#D1D4D8" stroke-width="3" stroke-linecap="round"/>
<path d="M135.543 336.671C142.219 334.365 155.127 331.764 159.705 337.299" stroke="#D1D4D8" stroke-width="3" stroke-linecap="round"/>
<path d="M138.705 333C145.164 325.376 154.206 306.18 138.705 290.389C140.929 284.332 149.442 273.407 165.705 278.17" stroke="#D1D4D8" stroke-width="3" stroke-linecap="round"/>
<path d="M165.553 278C164.117 273.296 163.584 264.079 171.705 261" stroke="#D1D4D8" stroke-width="3" stroke-linecap="round"/>
<path d="M171.705 260.713C166.928 248.145 147.84 232.008 109.705 268" stroke="#D1D4D8" stroke-width="3" stroke-linecap="round"/>
<path d="M171.705 260L179.705 274" stroke="#D1D4D8" stroke-width="3" stroke-linecap="round"/>
<path d="M165.705 278L179.705 274" stroke="#D1D4D8" stroke-width="3" stroke-linecap="round"/>
<ellipse cx="160.205" cy="260.5" rx="1.5" ry="3.5" fill="#D1D4D8"/>
<path d="M109.705 266C96.316 242.6 62.5712 199.421 34.7051 213.906" stroke="#D1D4D8" stroke-width="3" stroke-linecap="round"/>
<path d="M34.7051 214L37.7051 220" stroke="#D1D4D8" stroke-width="3" stroke-linecap="round"/>
<path d="M106.705 272C95.8269 252.979 62.3975 216.737 15.7051 223.932" stroke="#D1D4D8" stroke-width="3" stroke-linecap="round"/>
<path d="M30.6363 238.184C30.389 237.543 30.0536 236.793 29.6327 235.977M15.7729 224C22.6028 225.276 27.362 231.578 29.6327 235.977M29.6327 235.977C25.2236 232.72 13.4959 227.404 1.85823 232.195C0.893952 235.719 4.58431 240.196 10.0806 244.627M35.3799 259.932C28.3912 256.601 17.5626 250.657 10.0806 244.627M36.9611 280.419C32.4557 277.165 26.0195 271.839 20.5537 265.921M10.0806 244.627C8.83889 250.874 13.9983 258.823 20.5537 265.921M52.457 303.429C40.8862 297.23 18.3064 281.05 20.5537 265.921M78.7051 329.905C77.1207 329.741 75.3065 329.441 73.329 328.983M30.6363 288.93C37.693 314.865 59.5026 325.782 73.329 328.983M65.1067 363C62.3659 357.133 60.1733 342.115 73.329 328.983" stroke="#D1D4D8" stroke-width="3" stroke-linecap="round"/>
<path d="M65.1064 363C62.3657 357.133 60.1731 342.115 73.3287 328.983" stroke="#D1D4D8" stroke-width="3" stroke-linecap="round"/>
<path d="M78.7055 329.905C77.1212 329.741 75.3069 329.441 73.3294 328.983C59.5031 325.782 37.6935 314.865 30.6367 288.93" stroke="#D1D4D8" stroke-width="3" stroke-linecap="round"/>
<path d="M52.4578 303.428C40.887 297.23 18.3073 281.05 20.5545 265.92" stroke="#D1D4D8" stroke-width="3" stroke-linecap="round"/>
<path d="M36.9606 280.419C32.4552 277.165 26.0189 271.839 20.5531 265.921C13.9978 258.823 8.83836 250.874 10.08 244.626" stroke="#D1D4D8" stroke-width="3" stroke-linecap="round"/>
<path d="M30.6363 238.184C30.389 237.543 30.0536 236.793 29.6327 235.977C25.2236 232.72 13.4959 227.404 1.85823 232.195C0.893952 235.719 4.58431 240.196 10.0806 244.626C17.5626 250.657 28.3912 256.6 35.3799 259.932" stroke="#D1D4D8" stroke-width="3" stroke-linecap="round"/>
<path d="M30.6368 238.184C30.6368 238.184 30.0542 236.793 29.6333 235.977C27.3625 231.578 22.6033 225.276 15.7734 224" stroke="#D1D4D8" stroke-width="3" stroke-linecap="round"/>
<path d="M596.765 900.634C591.118 878.064 571.405 838.749 568.663 815L642.687 819.796C652.511 846.742 666.264 910.363 642.687 949.275C619.109 988.187 559.07 986.954 552.902 977.363C549.475 969.827 543.441 952.563 568.663 949.275C600.191 945.164 602.935 925.297 596.765 900.634Z" fill="#D1D4D8"/>
<path d="M813.345 974.951C750.512 966.742 711.905 865.301 701.205 814L755.705 801.5C763.354 856.768 789.213 899.709 798.319 912.022C822.223 941.434 876.177 983.159 813.345 974.951Z" fill="#D1D4D8"/>
<path d="M514.783 516C504.523 554.014 491.111 653.941 510.809 795.98C537.857 812.597 628.103 835.86 772.705 795.98C764.124 730.651 746.236 616.247 720.718 555.607" stroke="#D1D4D8" stroke-width="3" stroke-linecap="round"/>
<path d="M531.205 740.5C556.467 754.108 618.936 772.577 716.707 751.794" stroke="#D1D4D8" stroke-width="3" stroke-linecap="round"/>
<path d="M548.749 552L571.28 792M526.9 678.186C557.397 685.402 632.455 695.505 688.714 678.186" stroke="#D1D4D8" stroke-width="3" stroke-linecap="round"/>
<path d="M526.9 612.619C550.797 618.804 612.109 627.464 666.183 612.619" stroke="#D1D4D8" stroke-width="3" stroke-linecap="round"/>
<path d="M698.273 706.639L716.708 792" stroke="#D1D4D8" stroke-width="3" stroke-linecap="round"/>
<path d="M619.756 594.062L653.894 792" stroke="#D1D4D8" stroke-width="3" stroke-linecap="round"/>
<path d="M544.705 387.745C552.934 368.101 570.625 333.335 589.277 356.908C607.928 380.481 609.162 430.918 620.134 408.303L640.705 354.167" stroke="#D1D4D8" stroke-width="3" stroke-linecap="round"/>
<path d="M783.185 301.511C752.269 330.884 720.912 335.14 708.84 336.5C684.205 339.275 643.34 314 643.34 286.5C665.663 270.374 681.883 240.065 687.063 227.749C692.881 232.669 700.449 230.796 703.506 229.245C707.436 226.687 714.975 217.059 713.69 199.014C712.405 180.968 699.302 185.813 692.912 190.491L660.983 193.931C662.326 164.096 643.936 154.14 634.573 152.892C641.931 136.364 628.769 129.133 621.843 126.292C611.908 138.469 598.887 143.375 593.382 145.656C537.347 160.315 503.144 140.245 487.358 115.197C470.221 89.9117 472.994 30.535 521.476 16.0804C537.328 9.98027 574.91 4.97862 598.418 33.7734C667.623 8.34136 700.376 81.1271 709.361 107.558L719.746 131.657C809.931 150.841 817.869 236.14 802.027 273.496C794.845 290.434 793.9 291.331 783.66 301.059L783.185 301.511Z" stroke="#D1D4D8" stroke-width="3" stroke-linecap="round"/>
<path d="M515.718 514.176C534.586 532.475 598.69 559.649 704.165 521.951C706.401 517.168 707.564 486.481 704.165 476.59" stroke="#D1D4D8" stroke-width="3" stroke-linecap="round"/>
<path d="M616.387 319.5C684.887 319.5 707.017 365.252 714.698 391C728.738 435.426 714.698 531 519.929 502.329C508.7 500.676 503.2 485.585 525.198 471.124C548.204 456 572.7 446.5 602.204 440.5" stroke="#D1D4D8" stroke-width="3" stroke-linecap="round"/>
<path d="M581.888 319.5C538.888 329.908 507.203 374.32 519.89 471.124" stroke="#D1D4D8" stroke-width="3" stroke-linecap="round"/>
<path d="M534.71 354.001C466.876 361.694 434.211 366.5 425.434 388.015C422.582 395 426.028 399.922 437.705 406C459.145 417.158 493.705 424.5 509.206 427.5" stroke="#D1D4D8" stroke-width="3" stroke-linecap="round"/>
<path d="M450.266 519.534C453.006 523.003 463.458 528.377 483.345 522.115C503.231 515.854 511.204 506.07 512.705 501.961" stroke="#D1D4D8" stroke-width="3" stroke-linecap="round"/>
<path d="M432.454 511.502C430.562 514.779 430.575 521.059 445.764 519.963L450.266 519.534L458.095 518.789" stroke="#D1D4D8" stroke-width="3" stroke-linecap="round"/>
<path d="M433.827 499.418C430.172 499.875 423.568 502.275 426.386 508.223C427.237 510.018 429.487 511.026 432.454 511.502C439.322 512.604 450.033 510.854 456.138 509.397" stroke="#D1D4D8" stroke-width="3" stroke-linecap="round"/>
<path d="M506.656 479.288C500.894 473.825 488.865 462.828 478.061 462.046C475.32 461.915 469.448 460.832 467.882 457.545C465.925 453.436 456.921 457.937 462.989 466.155C469.057 474.373 476.495 471.633 472.189 478.677C468.744 484.312 447.918 486.895 437.935 487.482C434.412 487.547 427.874 489.321 429.91 495.896C430.414 497.524 431.841 498.657 433.827 499.418C439.865 501.729 451.078 500.596 457.313 499.418" stroke="#D1D4D8" stroke-width="3" stroke-linecap="round"/>
<path d="M383.211 407.772C383.211 415.954 396.096 415.781 416.215 410.394C428.838 407.015 424.626 407.274 431.712 406.606" stroke="#D1D4D8" stroke-width="3" stroke-linecap="round"/>
<path d="M365.438 399.611C363.55 402.941 363.563 409.321 378.718 408.207L383.21 407.772L391.021 407.015" stroke="#D1D4D8" stroke-width="3" stroke-linecap="round"/>
<path d="M366.809 387.333C363.162 387.797 356.573 390.236 359.385 396.28C360.233 398.103 362.478 399.128 365.439 399.612C372.291 400.731 382.978 398.953 389.069 397.472" stroke="#D1D4D8" stroke-width="3" stroke-linecap="round"/>
<path d="M439.472 366.881C433.723 361.331 425.245 352.194 414.465 351.399C411.731 351.266 404.726 347.1 400.786 344.79C396.846 342.48 389.85 345.188 395.904 353.537C401.958 361.887 409.379 359.104 405.082 366.261C401.645 371.986 380.866 374.61 370.906 375.207C367.391 375.273 360.868 377.075 362.899 383.755C363.402 385.409 364.825 386.561 366.808 387.333C372.832 389.682 384.02 388.53 390.24 387.333" stroke="#D1D4D8" stroke-width="3" stroke-linecap="round"/>
<path d="M495.13 328.4C447.468 241.508 484.736 206.592 507.162 189.881C504.513 255.684 548.84 287.5 566.34 298.5L551.34 312.5C532.205 327 511.705 350 495.13 328.4Z" stroke="#D1D4D8" stroke-width="3" stroke-linecap="round"/>
<path d="M661.922 194.59C658.238 215.56 640.095 229.606 621.666 226.368C603.237 223.131 590.966 203.742 594.65 182.772C598.334 161.802 616.477 147.756 634.906 150.993C653.336 154.231 665.606 173.619 661.922 194.59Z" stroke="#D1D4D8" stroke-width="3"/>
<path d="M574.703 191.798C571.019 212.768 552.876 226.814 534.447 223.576C516.018 220.339 503.748 200.95 507.431 179.98C511.115 159.01 529.259 144.964 547.688 148.201C566.117 151.439 578.387 170.827 574.703 191.798Z" stroke="#D1D4D8" stroke-width="3"/>
<path d="M574.333 183.913L595.972 185.252" stroke="#D1D4D8" stroke-width="3" stroke-linecap="round"/>
<path d="M586.439 204.997C580.097 221.285 567.129 234.878 581.466 245.193" stroke="#D1D4D8" stroke-width="3" stroke-linecap="round"/>
<path d="M566.431 266.697C570.773 271.496 582.885 278.215 596.597 266.697" stroke="#D1D4D8" stroke-width="3" stroke-linecap="round"/>
<circle cx="535.127" cy="200.421" r="9" transform="rotate(9.96339 535.127 200.421)" fill="#D1D4D8"/>
<circle cx="619.127" cy="198.421" r="9" transform="rotate(9.96339 619.127 198.421)" fill="#D1D4D8"/>
<path d="M700.975 202.842C702.076 205.82 703.143 212.69 698.602 216.347" stroke="#D1D4D8" stroke-width="3" stroke-linecap="round"/>
<path d="M517.171 143.609C504.256 168.256 492.64 228.475 544.215 280.414C595.79 332.354 651.079 283.641 672.276 252.792L687.268 226.886C693.495 232.388 707.15 237.339 711.961 213.125C716.771 188.911 707.279 185.619 701.932 187C699.033 187.651 692.681 190.526 690.462 196.819" stroke="#D1D4D8" stroke-width="3" stroke-linecap="round"/>
<path d="M660.935 193.024L696.358 189.501" stroke="#D1D4D8" stroke-width="3" stroke-linecap="round"/>
<path d="M629.077 176.009C634.669 176.806 645.806 181.285 645.613 192.826" stroke="#D1D4D8" stroke-width="3" stroke-linecap="round"/>
<path d="M522.521 180.521C526.789 178.646 537.223 176.41 544.821 182.47" stroke="#D1D4D8" stroke-width="3" stroke-linecap="round"/>
<path d="M624.705 319.803V296" stroke="#D1D4D8" stroke-width="3" stroke-linecap="round"/>
<path d="M572.711 300.868L572.706 322" stroke="#D1D4D8" stroke-width="3" stroke-linecap="round"/>
<path d="M154.949 517.722C166.759 538.061 209.852 567.859 288.613 527.241C290.123 526.462 291.93 527.755 291.614 529.424C283.469 572.473 282.937 643.149 383.449 669.722C426.949 681.222 466.949 658.722 434.949 631.722C391.403 594.98 313.949 716.722 358.949 791.222" stroke="#D1D4D8" stroke-width="3" stroke-linecap="round"/>
</svg>
