<svg width="469" height="583" viewBox="0 0 469 583" fill="none" xmlns="http://www.w3.org/2000/svg">
<path d="M174.477 432.915L182.507 420.589C190.333 408.577 205.565 403.781 218.862 409.143L237.999 416.859C249.938 421.673 263.617 418.334 271.995 408.56L293.977 382.915" stroke="#D1D4D8" stroke-width="3" stroke-linecap="round"/>
<path d="M60.4766 521.915C60.4766 507.915 68.2623 504.241 72.7623 503.241C78.5949 502.067 87.6763 498.805 78.4766 489.414" stroke="#D1D4D8" stroke-width="3" stroke-linecap="round"/>
<path d="M36.2617 488.741C38.2617 483.574 43.2309 474.579 61.476 473.415C84.9742 471.915 83.976 483.914 82.2599 486.241C81.503 487.268 79.8786 489.106 78.476 489.414C70.5472 491.151 57.499 486.044 51.976 500.914" stroke="#D1D4D8" stroke-width="3" stroke-linecap="round"/>
<path d="M61.4758 473.415C66.9758 460.415 48.9758 459.414 41.9759 460.415C37.4758 461.415 26.3068 463.741 17.7596 477.741C14.5849 482.941 11.4141 490.366 9.18202 499.241C4.61753 517.39 5.75967 554.415 21.4758 579.415" stroke="#D1D4D8" stroke-width="3" stroke-linecap="round"/>
<path d="M17.7603 477.741C16.7603 473.241 12.9604 465.442 5.76041 470.241C-3.23959 476.241 9.10512 492.24 9.18276 499.241" stroke="#D1D4D8" stroke-width="3" stroke-linecap="round"/>
<path d="M405.477 560.923C404.643 565.587 409.376 574.415 434.977 572.415" stroke="#D1D4D8" stroke-width="3" stroke-linecap="round"/>
<path d="M398.978 550.915C396.172 553.713 398.459 559.752 405.476 560.923C409.924 561.666 417.332 561.667 428.976 560.415" stroke="#D1D4D8" stroke-width="3" stroke-linecap="round"/>
<path d="M453.713 516.415C427.904 522.815 402.801 532.415 393.476 536.415C388.476 538.56 384.963 545.378 389.977 548.915C391.31 549.796 394.978 551.43 398.977 550.915C415.977 548.915 422.477 546.415 428.975 543.415" stroke="#D1D4D8" stroke-width="3" stroke-linecap="round"/>
<path d="M431.977 498.415C437.978 501.377 446.528 507.456 453.715 516.415C462.296 527.111 468.936 541.912 466.977 560.415" stroke="#D1D4D8" stroke-width="3" stroke-linecap="round"/>
<path d="M256.977 553.029L276.477 551.301M285.977 580.415L281.977 550.915L246.977 553.915C247.477 559.415 249.977 578.615 249.977 579.415" stroke="#D1D4D8" stroke-width="3" stroke-linecap="round"/>
<path d="M246.977 553.915L46.9766 528.415L58.4766 579.415" stroke="#D1D4D8" stroke-width="3" stroke-linecap="round"/>
<path d="M429.977 514.415L431.477 446.915L276.477 551.301" stroke="#D1D4D8" stroke-width="3" stroke-linecap="round"/>
<path d="M284.477 530.415C298.643 516.248 334.977 484.615 366.977 471.415" stroke="#D1D4D8" stroke-width="3" stroke-linecap="round"/>
<path d="M256.977 553.029C285.614 471.947 362.564 447.575 410.877 446.044" stroke="#D1D4D8" stroke-width="3" stroke-linecap="round"/>
<path d="M256.977 553.029C261.443 525.353 287.877 450 385.877 426.5L389.377 439" stroke="#D1D4D8" stroke-width="3" stroke-linecap="round"/>
<path d="M256.977 553.029C209.377 493.029 130.977 494.915 90.9766 499.915" stroke="#D1D4D8" stroke-width="3" stroke-linecap="round"/>
<path d="M177.977 488.415C169.81 480.915 144.877 466.215 110.477 467.415" stroke="#D1D4D8" stroke-width="3" stroke-linecap="round"/>
<path d="M256.977 553.029C247.143 513.529 197.577 430.415 63.9766 436.415L69.4766 459.915" stroke="#D1D4D8" stroke-width="3" stroke-linecap="round"/>
<path d="M22.4766 579.915L467.477 580.915" stroke="#D1D4D8" stroke-width="3" stroke-linecap="round"/>
<path d="M285.877 321.007C317.276 320.509 386.384 346.886 413.877 430" stroke="#D1D4D8" stroke-width="3" stroke-linecap="round"/>
<path d="M209.877 320C136.575 335.5 101.538 369.5 73.877 435" stroke="#D1D4D8" stroke-width="3" stroke-linecap="round"/>
<path d="M286.377 323.415C290.877 310.415 286.777 301.667 282.777 300C258.777 322 222.377 313.833 208.877 300.5C204.077 304.9 206.877 317.915 208.877 321.915C234.877 350.715 271.877 334.581 286.377 323.415Z" fill="#D1D4D8"/>
<path d="M355.32 119.021C344.32 158.521 338.82 162.021 322.82 179.521C322.82 162.226 319.849 133.196 319.849 121.108C267.46 121.108 223.246 99.7218 207.688 89.0287C208.245 125.292 174.249 149.003 174.249 149.003C174.249 149.003 179.125 163.648 181.912 196.425C184.141 222.646 177.732 217.579 174.249 211.767C164.217 179.409 147.775 188.056 140.808 196.425C55.3211 57.5205 186.788 30.6813 211.867 33.2383C230.816 17.0591 257.243 4.38022 275.82 2.52055C342.82 -4.18637 373.156 54.9727 355.32 119.021Z" stroke="#D1D4D8" stroke-width="3" stroke-linecap="round"/>
<path d="M175.42 236.49C184.42 291.435 244.828 330.944 288.42 286.435C332.012 241.926 323.289 160.454 318.631 122.435" stroke="#D1D4D8" stroke-width="3" stroke-linecap="round"/>
<path d="M139.82 193.021C134.32 206.521 139.48 236.435 175.42 236.435" stroke="#D1D4D8" stroke-width="3" stroke-linecap="round"/>
<path d="M155.671 200.435C154.876 203.324 155.512 210.169 164.42 214.435" stroke="#D1D4D8" stroke-width="3" stroke-linecap="round"/>
<path d="M317.42 229.435C329.15 224.545 337.42 206.435 334.238 177.435" stroke="#D1D4D8" stroke-width="3" stroke-linecap="round"/>
<path d="M251.42 262.435C262.92 265.435 262.193 257.18 270.92 249.935" stroke="#D1D4D8" stroke-width="3" stroke-linecap="round"/>
<circle cx="286.92" cy="191.935" r="7.5" fill="#D1D4D8"/>
<circle cx="220.92" cy="192.935" r="7.5" fill="#D1D4D8"/>
<path d="M203.42 176.435C204.998 171.788 211.808 163.192 226.42 165.98" stroke="#D1D4D8" stroke-width="3" stroke-linecap="round"/>
<path d="M273.42 167.435C276.905 164.417 286.384 160.191 296.42 167.435" stroke="#D1D4D8" stroke-width="3" stroke-linecap="round"/>
<path d="M249.227 188.435C248.062 198.309 247.27 218.333 253.42 219.435" stroke="#D1D4D8" stroke-width="3" stroke-linecap="round"/>
</svg>
