<svg width="1974" height="854" viewBox="0 0 1974 854" fill="none" xmlns="http://www.w3.org/2000/svg">
<path d="M1769.98 650.204C1769.98 650.933 1757.2 662.843 1754.96 669.618C1754.12 672.128 1754.74 673.933 1757.98 674.204C1767.58 675.004 1778.98 660.537 1783.48 653.204" stroke="#D1D4D8" stroke-width="3" stroke-linecap="round"/>
<path d="M1754.98 641.204C1750.19 648.645 1741.83 660.113 1734.51 666.618C1735.18 671.618 1740.2 679.218 1754.96 669.618C1757.2 662.843 1769.98 650.933 1769.98 650.204" stroke="#D1D4D8" stroke-width="3" stroke-linecap="round"/>
<path d="M1741.98 634.204C1732.82 644.037 1716.18 665.104 1722.98 670.704C1724.19 671.696 1725.72 671.792 1727.48 671.211C1729.58 670.518 1731.98 668.864 1734.51 666.618C1741.83 660.113 1750.19 648.645 1754.98 641.204" stroke="#D1D4D8" stroke-width="3" stroke-linecap="round"/>
<path d="M1815.98 653.204C1800.65 634.537 1752.98 600.704 1724.98 625.204C1713.82 636.037 1699.9 655.618 1707.9 663.618C1711.9 666.618 1720.56 662.618 1726.14 654.618" stroke="#D1D4D8" stroke-width="3" stroke-linecap="round"/>
<path d="M1639.33 439.27C1651.26 445.926 1677.89 455.245 1688.9 439.27C1702.67 419.301 1715.07 442.985 1709.56 458.31C1704.05 473.635 1657.3 499.143 1625.9 443.193" stroke="#D1D4D8" stroke-width="3" stroke-linecap="round"/>
<path d="M1632.67 528.949C1639.16 529.379 1655.8 525.382 1670.41 505.949" stroke="#D1D4D8" stroke-width="3" stroke-linecap="round"/>
<path d="M1666.67 479.449C1665.59 485.5 1665.82 495.772 1670.41 505.949C1674.28 514.551 1681.26 523.086 1693.17 528.949" stroke="#D1D4D8" stroke-width="3" stroke-linecap="round"/>
<path d="M1684.17 476.949C1692.67 484.115 1706.67 503.349 1700.67 528.949" stroke="#D1D4D8" stroke-width="3" stroke-linecap="round"/>
<path d="M1660.17 475.449C1650.5 480.282 1632.07 495.649 1635.67 518.449" stroke="#D1D4D8" stroke-width="3" stroke-linecap="round"/>
<path d="M1797.9 445.118C1902.4 445.118 1902.7 574.118 1955.9 626.118" stroke="#D1D4D8" stroke-width="3" stroke-linecap="round"/>
<path d="M1629 190C1581.96 196.794 1589.42 251.906 1586.8 279.778C1573.37 324.004 1574.56 360.727 1584.03 388.218C1585.61 395.186 1581.84 407.423 1554.13 400.629C1526.43 393.836 1538.24 346.41 1547.6 323.546C1552.83 311.526 1554.13 289.359 1554.13 279.778C1544.2 150.696 1601.77 135.854 1642.5 145C1629.96 153.362 1627.26 179.548 1629 190Z" stroke="#D1D4D8" stroke-width="3" stroke-linecap="round"/>
<path d="M1818.04 217.761C1797.75 113.152 1676 117.727 1639.35 149.764C1598.11 202.069 1703.49 331.524 1732.29 319.101C1752.71 303.41 1768.04 311.909 1772.22 319.101C1791.07 351.53 1764.37 369.662 1748.66 374.675C1752.85 397.166 1698.91 421.749 1706.77 438.748C1748.66 491.707 1876.95 405.404 1846.18 379.252C1821.57 358.33 1822.91 331.525 1823.27 319.101C1825.24 253.067 1823.27 247.837 1818.04 217.761Z" stroke="#D1D4D8" stroke-width="3" stroke-linecap="round"/>
<path d="M1636.9 359.618C1613.13 354.475 1625.67 344.189 1630.96 323.618" stroke="#D1D4D8" stroke-width="3" stroke-linecap="round"/>
<ellipse rx="5.98134" ry="8.97201" transform="matrix(-0.981591 0.190995 0.190995 0.981591 1601.9 303.026)" fill="#D1D4D8"/>
<ellipse rx="5.90198" ry="8.85297" transform="matrix(-0.988875 0.148746 0.148746 0.988875 1668.62 319.879)" fill="#D1D4D8"/>
<path d="M1757.9 329.618C1760.16 333.618 1763.33 343.218 1757.9 349.618" stroke="#D1D4D8" stroke-width="3" stroke-linecap="round"/>
<path d="M1712.9 431.512C1658.66 431.512 1628.6 467.258 1580.9 388.618" stroke="#D1D4D8" stroke-width="3" stroke-linecap="round"/>
<path d="M1642.9 396.095C1630.22 400.008 1620.07 396.095 1616.9 387.618" stroke="#D1D4D8" stroke-width="3" stroke-linecap="round"/>
<path d="M1643.4 320.618C1643.4 337.084 1655.2 350.118 1669.4 350.118C1683.59 350.118 1695.4 337.084 1695.4 320.618C1695.4 304.151 1683.59 291.118 1669.4 291.118C1655.2 291.118 1643.4 304.151 1643.4 320.618Z" stroke="#D1D4D8" stroke-width="3"/>
<path d="M1576.4 303.618C1576.4 320.084 1588.2 333.118 1602.4 333.118C1616.59 333.118 1628.4 320.084 1628.4 303.618C1628.4 287.151 1616.59 274.118 1602.4 274.118C1588.2 274.118 1576.4 287.151 1576.4 303.618Z" stroke="#D1D4D8" stroke-width="3"/>
<path d="M1627.9 307.096C1631.97 306.234 1641.27 305.933 1645.9 311.618" stroke="#D1D4D8" stroke-width="3" stroke-linecap="round"/>
<path d="M1693.48 310.859L1713.73 311.512" stroke="#D1D4D8" stroke-width="3" stroke-linecap="round"/>
<path d="M959.398 455.533V540.533" stroke="#D1D4D8" stroke-width="3" stroke-linecap="round"/>
<path d="M1023.4 465.533V546.533" stroke="#D1D4D8" stroke-width="3" stroke-linecap="round"/>
<path d="M767.971 441.941L781.378 685.582C781.67 690.884 786.054 695.033 791.363 695.033H1165.4C1170.92 695.033 1175.4 690.556 1175.4 685.033V436.168C1175.4 430.593 1170.84 426.094 1165.26 426.169L777.821 431.392C772.136 431.469 767.659 436.264 767.971 441.941Z" fill="#D1D4D8"/>
<rect x="779.398" y="698.533" width="396" height="19" rx="9.5" fill="#D1D4D8"/>
<path d="M1024.4 320.533C1059.23 320.033 1135.9 346.532 1166.4 430.032" stroke="#D1D4D8" stroke-width="3" stroke-linecap="round"/>
<path d="M947.898 320.033C868.398 335.533 830.398 369.533 800.398 435.033" stroke="#D1D4D8" stroke-width="3" stroke-linecap="round"/>
<path d="M1233.4 408.118L1259.9 386.118" stroke="#D1D4D8" stroke-width="3" stroke-linecap="round"/>
<path d="M1213.9 399.118L1233.4 366.618" stroke="#D1D4D8" stroke-width="3" stroke-linecap="round"/>
<path d="M1237.4 423.118C1242.57 425.118 1254.3 427.018 1259.9 418.618" stroke="#D1D4D8" stroke-width="3" stroke-linecap="round"/>
<path d="M756.398 388.033L738.398 341.533" stroke="#D1D4D8" stroke-width="3" stroke-linecap="round"/>
<path d="M725.898 393.033L695.898 362.033" stroke="#D1D4D8" stroke-width="3" stroke-linecap="round"/>
<path d="M718.398 410.533L695.898 402.033" stroke="#D1D4D8" stroke-width="3" stroke-linecap="round"/>
<path d="M704.398 671.308C709.448 671.136 715.083 670.9 721.359 670.587C759.876 668.661 759.14 641.853 753.526 627.22C753.107 626.127 752.429 625.13 751.611 624.294C715.308 587.176 683.344 598.899 670.573 610.433C669.75 611.177 669.095 612.123 668.615 613.123C648.242 655.585 655.56 668.628 663.271 670.376C664.624 670.683 666.033 670.83 667.408 671.013C671.72 671.587 682.601 672.048 704.398 671.308ZM704.398 671.308C702.065 662.216 700.298 639.732 711.898 622.532" stroke="#D1D4D8" stroke-width="3" stroke-linecap="round"/>
<path d="M1825.4 650.533H1972.4" stroke="#D1D4D8" stroke-width="3" stroke-linecap="round"/>
<path d="M1686.9 650.533H1544.9" stroke="#D1D4D8" stroke-width="3" stroke-linecap="round"/>
<path d="M1313.9 650.533H1428.4" stroke="#D1D4D8" stroke-width="3" stroke-linecap="round"/>
<path d="M629.898 650.533H521.898" stroke="#D1D4D8" stroke-width="3" stroke-linecap="round"/>
<path d="M342.898 765.618L290.898 841.118" stroke="#D1D4D8" stroke-width="3" stroke-linecap="round"/>
<path d="M1186.4 486.118C1204.9 515.118 1225.9 549.618 1186.4 614.532" stroke="#D1D4D8" stroke-width="3" stroke-linecap="round"/>
<path d="M1246.31 676.406C1237.09 674.669 1219.09 677.777 1229.87 700.225C1238.09 717.346 1250.79 726.279 1254.53 730" stroke="#D1D4D8" stroke-width="3" stroke-linecap="round"/>
<path d="M1268.46 751.813C1248.07 734.536 1248.02 690.332 1250.84 667.468C1251 666.197 1252.31 665.431 1253.53 665.834C1273.6 672.471 1297.81 668.89 1309.53 665.676C1310.74 665.346 1311.98 666.17 1312.12 667.412C1318.24 721.53 1303.02 745.67 1294.51 751.832C1294.43 751.892 1294.35 751.94 1294.26 751.986C1289.53 754.294 1278.05 757.414 1268.73 752.002C1268.63 751.947 1268.54 751.884 1268.46 751.813Z" stroke="#D1D4D8" stroke-width="3" stroke-linecap="round"/>
<ellipse cx="1281.53" cy="665" rx="32" ry="6" fill="#D1D4D8"/>
<path d="M1288.7 644C1294.05 639.259 1301.53 624.457 1288.7 603.17C1275.87 581.884 1289.91 562.187 1298.53 555" stroke="#D1D4D8" stroke-width="3" stroke-linecap="round"/>
<path d="M1273.53 623C1266.09 612.965 1254.42 588.516 1267.3 571" stroke="#D1D4D8" stroke-width="3" stroke-linecap="round"/>
<path d="M1327.42 752.234C1341.38 744.568 1316.39 746.044 1302.75 746.243L1295.53 753.431C1310.57 756.426 1322.01 754.629 1327.42 752.234Z" fill="#D1D4D8"/>
<path d="M1024.9 323.032C1029.4 310.032 1025.3 301.284 1021.3 299.618C997.299 321.618 960.898 313.451 947.398 300.118C942.598 304.518 945.398 317.532 947.398 321.532C973.398 350.332 1010.4 334.199 1024.9 323.032Z" fill="#D1D4D8"/>
<path d="M918.398 403.033L926.429 390.707C934.255 378.695 949.487 373.899 962.784 379.261L981.92 386.977C993.86 391.791 1007.54 388.452 1015.92 378.678L1037.9 353.033" stroke="#D1D4D8" stroke-width="3" stroke-linecap="round"/>
<path d="M761.898 504.533C754.398 522.199 745.498 565.033 769.898 595.033" stroke="#D1D4D8" stroke-width="3" stroke-linecap="round"/>
<path d="M1093.84 118.638C1082.84 158.138 1077.34 161.638 1061.34 179.138C1061.34 161.843 1058.37 132.814 1058.37 120.726C1005.98 120.726 961.768 99.3395 946.21 88.6463C946.767 124.91 912.77 148.621 912.77 148.621C912.77 148.621 917.647 163.266 920.433 196.043C922.663 222.264 916.253 217.196 912.77 211.385C902.738 179.027 886.297 187.674 879.33 196.043C793.843 57.1382 925.309 30.299 950.389 32.856C969.338 16.6768 995.764 3.9979 1014.34 2.13823C1081.34 -4.56869 1111.68 54.5903 1093.84 118.638Z" stroke="#D1D4D8" stroke-width="3" stroke-linecap="round"/>
<path d="M913.941 236.108C922.941 291.053 983.349 330.562 1026.94 286.053C1070.53 241.544 1061.81 160.071 1057.15 122.053" stroke="#D1D4D8" stroke-width="3" stroke-linecap="round"/>
<path d="M878.342 192.638C872.842 206.138 878.002 236.053 913.942 236.053" stroke="#D1D4D8" stroke-width="3" stroke-linecap="round"/>
<path d="M894.193 200.053C893.397 202.942 894.034 209.787 902.941 214.053" stroke="#D1D4D8" stroke-width="3" stroke-linecap="round"/>
<path d="M1055.94 229.053C1067.67 224.163 1075.94 206.053 1072.76 177.053" stroke="#D1D4D8" stroke-width="3" stroke-linecap="round"/>
<path d="M989.941 262.053C1001.44 265.053 1000.71 256.798 1009.44 249.553" stroke="#D1D4D8" stroke-width="3" stroke-linecap="round"/>
<circle cx="1024.27" cy="192.203" r="7.5" fill="#D1D4D8"/>
<circle cx="958.271" cy="193.203" r="7.5" fill="#D1D4D8"/>
<path d="M941.941 176.053C943.52 171.406 950.33 162.81 964.941 165.598" stroke="#D1D4D8" stroke-width="3" stroke-linecap="round"/>
<path d="M1011.94 167.053C1015.43 164.035 1024.91 159.809 1034.94 167.053" stroke="#D1D4D8" stroke-width="3" stroke-linecap="round"/>
<path d="M987.748 188.053C986.584 197.927 985.792 217.951 991.941 219.053" stroke="#D1D4D8" stroke-width="3" stroke-linecap="round"/>
<path d="M1449.4 651.119C1446.9 629.618 1436.13 623.872 1483.39 533.217C1503.87 493.918 1544.17 484.557 1571.06 493.841C1592.18 501.136 1605.63 525.084 1549.02 634.123" stroke="#D1D4D8" stroke-width="3" stroke-linecap="round"/>
<path d="M1586.9 490.618C1594.73 481.951 1610.2 459.618 1609.4 439.618" stroke="#D1D4D8" stroke-width="3" stroke-linecap="round"/>
<path d="M1538.4 479.618C1538.4 478.118 1557.9 463.118 1551.9 439.618C1550.02 432.246 1542.2 403.718 1545.4 394.118" stroke="#D1D4D8" stroke-width="3" stroke-linecap="round"/>
<path d="M238.907 275.656L237.392 278.245C249.6 285.654 273.705 314.607 268.769 370.308C262.567 440.31 235.766 506.293 175.858 537.144C171.685 539.293 161.869 542.38 148.774 544.341C135.72 546.297 119.534 547.115 102.657 544.815C68.9395 540.219 32.5274 523.204 12.6007 477.907C-2.17498 444.319 0.946548 412.486 10.2928 386.504C19.6493 360.493 35.2278 340.404 45.2219 330.454C54.9017 320.854 72.4115 307.216 93.3759 297.613C114.351 288.006 138.604 282.516 161.886 288.921L163.193 289.281L163.683 288.017C173.486 262.712 209.591 208.279 275.296 193.487C340.966 178.703 373.185 215.547 373.433 244.52C373.515 254.172 371.884 268.425 366.799 279.847C364.26 285.549 360.901 290.451 356.558 293.751C352.492 296.841 347.496 298.58 341.315 298.197L336.869 274.361L336.445 272.088L334.543 273.401C319.654 283.673 279.568 298.586 238.907 275.656Z" stroke="#D1D4D8" stroke-width="3"/>
<path d="M361.05 360.089C359.637 369.624 356.111 377.775 351.704 383.257C347.248 388.802 342.315 391.171 337.959 390.526C333.604 389.88 329.57 386.181 326.911 379.581C324.283 373.057 323.269 364.233 324.681 354.697C326.092 345.162 329.62 337.011 334.026 331.529C338.483 325.983 343.416 323.614 347.772 324.259C352.127 324.906 356.161 328.603 358.819 335.204C361.448 341.728 362.462 350.553 361.05 360.089Z" stroke="#D1D4D8" stroke-width="3"/>
<path d="M343.157 368.291C346.223 368.744 349.371 364.637 350.189 359.114C351.007 353.592 349.184 348.746 346.118 348.292C343.052 347.837 339.904 351.946 339.086 357.468C338.268 362.991 340.091 367.836 343.157 368.291Z" fill="#D1D4D8"/>
<path d="M270.43 365.737L322.322 361.028" stroke="#D1D4D8" stroke-width="3" stroke-linecap="round"/>
<path d="M345.762 300.58C350.243 309.607 363.467 329.338 377.275 340.38C391.397 351.674 392.59 366.071 383.573 376.444L369.519 392.762C377.275 452.106 365.847 496.051 293.156 516.507" stroke="#D1D4D8" stroke-width="3" stroke-linecap="round"/>
<path d="M292.293 419.864C294.01 420.119 295.61 418.932 295.864 417.213C296.118 415.495 294.933 413.895 293.214 413.64C291.497 413.386 289.898 414.572 289.644 416.292C289.389 418.01 290.575 419.61 292.293 419.864Z" fill="#D1D4D8"/>
<path d="M281.027 448.723C283.088 449.029 284.966 447.883 285.22 446.164C285.474 444.445 284.009 442.805 281.948 442.499C279.887 442.193 278.009 443.339 277.755 445.058C277.501 446.776 278.966 448.417 281.027 448.723Z" fill="#D1D4D8"/>
<path d="M308.443 443.884C310.504 444.19 312.381 443.045 312.636 441.325C312.89 439.607 311.425 437.966 309.364 437.66C307.303 437.354 305.425 438.5 305.171 440.219C304.917 441.937 306.381 443.578 308.443 443.884Z" fill="#D1D4D8"/>
<path d="M365.396 574.187L388.668 549.452C392.878 544.773 403.828 539.692 413.934 556.806C424.041 573.919 420.361 592.013 417.259 598.921" stroke="#D1D4D8" stroke-width="3" stroke-linecap="round"/>
<path d="M488.293 532.937C490.6 529.819 491.827 527.077 492.261 525.177C494.476 521.297 495.8 512.343 482.959 509.011C463.024 503.837 466.347 516.124 470.334 516.77C483.623 518.322 489.173 529.488 488.293 532.937Z" stroke="#D1D4D8" stroke-width="3" stroke-linecap="round"/>
<path d="M420.551 585.725C422.544 578.869 432.646 562.965 457.105 554.19C473.578 548.279 482.935 539.757 487.695 532.937" stroke="#D1D4D8" stroke-width="3" stroke-linecap="round"/>
<path d="M456.521 535.07C450.478 531.85 435.304 528.114 422.949 538.935" stroke="#D1D4D8" stroke-width="3" stroke-linecap="round"/>
<path d="M475.705 535.336C469.796 524.86 454.569 506.914 440.934 518.939" stroke="#D1D4D8" stroke-width="3" stroke-linecap="round"/>
<path d="M407.363 538.935C412.81 522.925 424.386 502.039 462.518 499.344" stroke="#D1D4D8" stroke-width="3" stroke-linecap="round"/>
<path d="M508.512 599.841C511.272 595.987 512.658 592.477 511.4 590.054C507.742 583.009 498.746 590.24 494.706 594.737C484.649 605.554 465.295 624.358 470.512 602.477C475.728 580.596 464.633 581.943 438.654 608.652L412.83 624.365" stroke="#D1D4D8" stroke-width="3" stroke-linecap="round"/>
<path d="M506.401 634.149C508.625 640.992 505.057 656.831 472.355 660.669C459.983 662.12 458.123 661.916 446.511 660.936H426.619" stroke="#D1D4D8" stroke-width="3" stroke-linecap="round"/>
<path d="M486.568 620.458C492.994 615.721 503.242 607.12 508.502 599.773C514.214 599.707 519.745 602.928 510.93 614.186C507.113 619.061 500.608 625.441 490.262 633.714" stroke="#D1D4D8" stroke-width="3" stroke-linecap="round"/>
<path d="M490.273 633.783C500.618 625.51 507.124 619.13 510.941 614.255C516.39 615.792 521.293 621.737 506.401 634.149C503.145 636.863 498.941 639.887 493.59 643.242" stroke="#D1D4D8" stroke-width="3" stroke-linecap="round"/>
<path d="M176.795 550.48C88.7126 614.769 99.2524 694.942 99.2524 794.023" stroke="#D1D4D8" stroke-width="3" stroke-linecap="round"/>
<path d="M179.193 551.571L221.479 588.596C222.852 589.799 225.011 589.086 225.401 587.302L236.424 536.858C236.833 534.988 239.159 534.325 240.49 535.703L269.119 565.313" stroke="#D1D4D8" stroke-width="3" stroke-linecap="round"/>
<path d="M269.119 521.687C271.464 526.084 274.826 533.231 277.977 541.536C282.301 552.937 286.227 566.523 286.578 578.183" stroke="#D1D4D8" stroke-width="3" stroke-linecap="round"/>
<path d="M277.977 541.537L357.003 583.925" stroke="#D1D4D8" stroke-width="3" stroke-linecap="round"/>
<path d="M216.363 624.273C230.804 643.848 312.134 698.052 370.66 638.579L386.622 621.263" stroke="#D1D4D8" stroke-width="3" stroke-linecap="round"/>
<path d="M255.93 815.618C274.719 810.757 363.84 761.925 389.797 716.55" stroke="#D1D4D8" stroke-width="3" stroke-linecap="round"/>
<path d="M382.84 657.563C389.276 680.685 391.088 700.203 389.798 716.55C404.117 706.718 417.797 699.156 417.797 668.151C417.797 646.219 401.838 627.313 387.398 621.263" stroke="#D1D4D8" stroke-width="3" stroke-linecap="round"/>
<path d="M263.124 605.668C266.434 605.668 269.119 602.445 269.119 598.469C269.119 594.493 266.434 591.271 263.124 591.271C259.813 591.271 257.129 594.493 257.129 598.469C257.129 602.445 259.813 605.668 263.124 605.668Z" fill="#D1D4D8"/>
<path d="M271.518 640.459C274.829 640.459 277.514 637.236 277.514 633.26C277.514 629.284 274.829 626.062 271.518 626.062C268.208 626.062 265.523 629.284 265.523 633.26C265.523 637.236 268.208 640.459 271.518 640.459Z" fill="#D1D4D8"/>
<path d="M335.206 441.306C334.434 445.985 336.441 455.655 350.652 456.902" stroke="#D1D4D8" stroke-width="3" stroke-linecap="round"/>
<path d="M458.511 479.279C450.837 487.917 467.508 499.678 472.223 506.538C478.937 504.619 496.884 508.076 493.287 519.473C499.882 512.075 523.259 493.68 527.455 488.281C536.315 476.883 524.297 467.887 516.062 458.888C510.572 452.889 502.875 440.893 488.486 452.889C477.695 461.887 466.185 470.641 458.511 479.279Z" stroke="#D1D4D8" stroke-width="3"/>
<path d="M482.311 603.119L471.072 583.708C470.791 583.223 470.882 582.609 471.294 582.228C478.785 575.299 494.756 560.864 505.388 552.394C505.922 551.967 506.698 552.073 507.086 552.636C513.074 561.334 525.114 582.357 530.863 605.221C530.934 605.505 530.901 605.802 530.761 606.06C527.236 612.497 524.266 616.317 517.072 620.516" stroke="#D1D4D8" stroke-width="3" stroke-linecap="round"/>
<path d="M1648.65 844.617C1639.45 828.617 1668.81 826.284 1684.65 827.117V838.618L1736.15 844.617C1710.81 851.284 1657.85 860.617 1648.65 844.617Z" fill="#D1D4D8"/>
<path d="M1761.64 823.118L1742.14 843.118" stroke="#D1D4D8" stroke-width="3" stroke-linecap="round"/>
<path d="M1737.64 782.118L1687.14 778.618" stroke="#D1D4D8" stroke-width="3" stroke-linecap="round"/>
<path d="M1707.64 765.618L1761.64 768.118" stroke="#D1D4D8" stroke-width="3" stroke-linecap="round"/>
<path d="M1686.14 778.618L1683.64 836.618" stroke="#D1D4D8" stroke-width="3" stroke-linecap="round"/>
<path d="M1761.64 769.118V822.118" stroke="#D1D4D8" stroke-width="3" stroke-linecap="round"/>
<path d="M1742.14 800.618V843.118" stroke="#D1D4D8" stroke-width="3" stroke-linecap="round"/>
<path d="M1686.14 778.618L1707.64 765.618" stroke="#D1D4D8" stroke-width="3" stroke-linecap="round"/>
<path d="M1742.14 843.118L1683.14 837.118" stroke="#D1D4D8" stroke-width="3" stroke-linecap="round"/>
<path d="M1453.9 792.118C1454.4 778.118 1510.4 782.618 1513.9 783.118V792.118L1530.9 804.118C1505.07 804.784 1453.5 803.318 1453.9 792.118Z" fill="#D1D4D8"/>
<path d="M1592.9 790.618V739.618" stroke="#D1D4D8" stroke-width="3" stroke-linecap="round"/>
<path d="M1549.4 803.618V747.618" stroke="#D1D4D8" stroke-width="3" stroke-linecap="round"/>
<path d="M1513.4 790.618V734.618" stroke="#D1D4D8" stroke-width="3" stroke-linecap="round"/>
<path d="M1513.4 734.618L1552.9 724.618" stroke="#D1D4D8" stroke-width="3" stroke-linecap="round"/>
<path d="M1592.9 739.118L1549.4 747.118" stroke="#D1D4D8" stroke-width="3" stroke-linecap="round"/>
<path d="M1549.4 804.118L1592.9 791.118" stroke="#D1D4D8" stroke-width="3" stroke-linecap="round"/>
<path d="M1592.9 739.118L1552.9 724.618" stroke="#D1D4D8" stroke-width="3" stroke-linecap="round"/>
<path d="M1513.4 735.118L1549.9 747.118" stroke="#D1D4D8" stroke-width="3" stroke-linecap="round"/>
<path d="M494.901 809.118C495.401 795.118 551.401 799.618 554.901 800.118V809.118L571.901 821.118C546.067 821.784 494.501 820.318 494.901 809.118Z" fill="#D1D4D8"/>
<path d="M633.9 807.618V756.618" stroke="#D1D4D8" stroke-width="3" stroke-linecap="round"/>
<path d="M590.4 820.618V764.618" stroke="#D1D4D8" stroke-width="3" stroke-linecap="round"/>
<path d="M554.4 807.618V751.618" stroke="#D1D4D8" stroke-width="3" stroke-linecap="round"/>
<path d="M590.4 821.118L633.9 808.118" stroke="#D1D4D8" stroke-width="3" stroke-linecap="round"/>
<path d="M633.9 756.118L590.4 764.118" stroke="#D1D4D8" stroke-width="3" stroke-linecap="round"/>
<path d="M554.4 751.618L593.9 741.618" stroke="#D1D4D8" stroke-width="3" stroke-linecap="round"/>
<path d="M633.9 756.118L593.9 741.618" stroke="#D1D4D8" stroke-width="3" stroke-linecap="round"/>
<path d="M554.4 752.118L590.9 764.118" stroke="#D1D4D8" stroke-width="3" stroke-linecap="round"/>
<path d="M618.334 704.974L597.22 738.048C596.538 739.116 597.008 740.541 598.192 740.993L632.317 754.014C633.23 754.363 634.261 754 634.755 753.158L654.688 719.181C655.319 718.106 654.823 716.722 653.653 716.292L620.71 704.173C619.828 703.849 618.839 704.182 618.334 704.974Z" stroke="#D1D4D8" stroke-width="3"/>
<path d="M560.441 698.618L568.441 716.618" stroke="#D1D4D8" stroke-width="3" stroke-linecap="round"/>
<path d="M532.441 708.618L558.441 730.618" stroke="#D1D4D8" stroke-width="3" stroke-linecap="round"/>
<path d="M531.441 737.618L547.441 746.618" stroke="#D1D4D8" stroke-width="3" stroke-linecap="round"/>
</svg>
