<svg width="759" height="849" viewBox="0 0 759 849" fill="none" xmlns="http://www.w3.org/2000/svg">
<path d="M255.954 353C256.298 338.546 252.541 304.554 234.757 284.219C212.526 258.8 210.975 243.349 210.975 196" stroke="#D1D4D8" stroke-width="3" stroke-linecap="round"/>
<path d="M264.975 210C256.61 208.557 242.389 198.937 252.427 172" stroke="#D1D4D8" stroke-width="3" stroke-linecap="round"/>
<path d="M384.707 168.171C384.391 173.092 381.203 183.131 370.974 183.919" stroke="#D1D4D8" stroke-width="3" stroke-linecap="round"/>
<path d="M370.975 210C389.916 199.01 420.317 172.01 390.39 151.932C386.286 148.979 376.657 147.208 370.975 163.742" stroke="#D1D4D8" stroke-width="3" stroke-linecap="round"/>
<path d="M325.975 138C322.214 136.491 312.549 134.378 303.975 138" stroke="#D1D4D8" stroke-width="3" stroke-linecap="round"/>
<path d="M236.975 143C232.53 141.491 221.108 139.378 210.975 143" stroke="#D1D4D8" stroke-width="3" stroke-linecap="round"/>
<path d="M354.889 26.2904C466.864 37.9505 432.649 122.955 401.545 164C395.192 149.927 382.684 149.425 377.224 150.933C372.063 71.7245 322.792 82.4129 298.803 97.6581C248.771 95.6478 236.264 115.584 236.264 125.803C214.577 112.105 196.213 128.188 194.724 131.706C139.134 -32.3396 278.784 -6.37792 354.889 26.2904Z" stroke="#D1D4D8" stroke-width="3" stroke-linecap="round"/>
<circle r="36.5" transform="matrix(-1 0 0 1 310.975 157)" stroke="#D1D4D8" stroke-width="3"/>
<ellipse rx="8.5" ry="10.5" transform="matrix(-1 0 0 1 312.475 163.5)" fill="#D1D4D8"/>
<path d="M183.475 157C183.475 177.14 200.022 193.5 220.475 193.5C240.928 193.5 257.475 177.14 257.475 157C257.475 136.86 240.928 120.5 220.475 120.5C200.022 120.5 183.475 136.86 183.475 157Z" stroke="#D1D4D8" stroke-width="3"/>
<circle r="10.5" transform="matrix(-1 0 0 1 219.475 163.5)" fill="#D1D4D8"/>
<path d="M346.975 152L372.975 158" stroke="#D1D4D8" stroke-width="3" stroke-linecap="round"/>
<path d="M221.475 270.029C214.308 269.696 177.475 272.5 162.475 288" stroke="#D1D4D8" stroke-width="3" stroke-linecap="round"/>
<path d="M69.9746 156C73.9344 160.299 78.0141 162.51 81.9649 163.304C83.6691 163.647 84.6171 165.74 83.2396 166.8C74.0672 173.858 62.8795 167.887 57.9746 163.5" stroke="#D1D4D8" stroke-width="3" stroke-linecap="round"/>
<path d="M105.475 152.947C101.828 157.415 94.6709 163.195 86.4746 163.628C81.1862 163.908 75.4651 161.961 69.9746 156" stroke="#D1D4D8" stroke-width="3" stroke-linecap="round"/>
<path d="M120.475 138.796C117.438 144.488 111.925 151.365 105.475 152.947C99.5358 154.404 92.8022 151.373 86.4746 138.796" stroke="#D1D4D8" stroke-width="3" stroke-linecap="round"/>
<path d="M129.848 138.796C139.222 158.092 129.848 161.5 116.975 171.5C110.777 176.315 105.705 173.272 104.592 167.642C104.388 166.611 102.625 166.001 101.935 166.794C93.616 176.347 81.1436 180.405 74.9344 180.18C73.4907 180.128 71.7568 181.108 71.593 182.543C71.3816 184.396 71.2129 186.215 71.084 188" stroke="#D1D4D8" stroke-width="3" stroke-linecap="round"/>
<path d="M102.974 122.5C107.392 128 114.433 135.421 120.474 138.796C124.313 140.941 127.748 141.452 129.847 138.796C130.551 137.906 131.105 136.66 131.474 135C134.674 120.6 119.474 90.7622 108.474 96.0002C94.474 102.667 60.674 121.3 37.474 142.5C25.9543 153.027 17.7383 175.988 12.1406 200.5" stroke="#D1D4D8" stroke-width="3" stroke-linecap="round"/>
<path d="M148.975 378C33.3746 359.2 3.14128 297.167 2.47461 268.5C3.47952 251.836 6.45361 225.46 12.1072 200.649C12.1299 200.55 12.1587 200.456 12.1967 200.361C17.5704 186.987 36.5089 166.095 70.0739 187.351C70.688 187.74 71.0493 188.458 71.0036 189.184C68.9583 221.667 80.0885 242.658 86.4746 249.5C98.4746 262 137.275 288.7 196.475 295.5" stroke="#D1D4D8" stroke-width="3" stroke-linecap="round"/>
<path d="M317.975 763C234.475 711 192.808 540.333 184.975 491C276.475 567 357.641 503.667 380.475 483.5C392.475 511.9 477.609 627.5 475.475 666.5C471.075 746.9 425.808 724.167 400.975 703.5C385.475 692 346.141 635.333 330.475 610C321.975 639.167 358.975 698 361.975 727.5C361.975 771.9 332.641 769.667 317.975 763Z" fill="#D1D4D8"/>
<path d="M153.656 358.085C158.148 400.507 160.647 430.973 182.851 485.199C182.931 485.396 183.039 485.576 183.178 485.737C211.635 518.831 287.503 561.699 379.128 481.304C379.351 481.109 379.534 480.862 379.65 480.589C399.124 434.831 394.076 366.081 371.588 310.221C371.06 308.911 369.382 308.56 368.35 309.524C349.081 327.531 309.385 355.335 280.974 338C261.238 325.957 257.141 319 249.474 311" stroke="#D1D4D8" stroke-width="3" stroke-linecap="round"/>
<path d="M579.475 616C553.141 614.333 496.375 606.2 463.975 563" stroke="#D1D4D8" stroke-width="3" stroke-linecap="round"/>
<path d="M480.475 686C495.308 682 535.875 662.4 579.475 616" stroke="#D1D4D8" stroke-width="3" stroke-linecap="round"/>
<path d="M579.475 616C538.475 620.667 462.075 619.7 430.475 556.5" stroke="#D1D4D8" stroke-width="3" stroke-linecap="round"/>
<path d="M84.4748 676C59.3081 611.167 29.8748 463.3 131.475 376.5" stroke="#D1D4D8" stroke-width="3" stroke-linecap="round"/>
<path d="M93.9751 364.5C51.3084 401.667 -8.72485 514.8 84.4751 676" stroke="#D1D4D8" stroke-width="3" stroke-linecap="round"/>
<path d="M84.4746 676C101.641 648.833 155.975 619 222.475 665.5" stroke="#D1D4D8" stroke-width="3" stroke-linecap="round"/>
<path d="M321.54 772.931C324.678 788.305 335.066 824.345 362.464 824.83C379.843 824.269 373.94 805.997 363.061 775.384" stroke="#D1D4D8" stroke-width="3" stroke-linecap="round"/>
<path d="M483.474 527.001C480.141 523.167 475.974 513.301 485.974 504.501C488.277 503.856 492.312 503.832 496.474 506.102C499.841 507.939 503.291 511.276 505.974 517.001" stroke="#D1D4D8" stroke-width="3" stroke-linecap="round"/>
<path d="M496.475 506.102C498.369 501.026 503.419 494.227 510.975 497.665C513.392 498.765 516.066 500.913 518.975 504.501" stroke="#D1D4D8" stroke-width="3" stroke-linecap="round"/>
<path d="M485.974 504.501C483.474 502 476.374 497.186 489.974 489.186C506.974 479.186 515.474 474.5 521.474 489.186" stroke="#D1D4D8" stroke-width="3" stroke-linecap="round"/>
<path d="M510.975 497.665C512.909 494.103 516.708 489.752 521.475 489.186C525.332 488.728 529.823 490.747 534.475 497.665C544.875 513.134 535.475 525.334 529.475 529.501L505.975 549.001C485.475 561.5 427.375 554.601 400.975 541.001" stroke="#D1D4D8" stroke-width="3" stroke-linecap="round"/>
<path d="M275.475 255.5C284.641 259.833 303.975 259 314.475 242" stroke="#D1D4D8" stroke-width="3" stroke-linecap="round"/>
<path d="M367.475 293.5C437.171 332.055 411.252 422.084 404.21 448.608C404.049 449.216 404.092 449.811 404.327 450.395C415.928 479.13 453.659 507.527 473.259 515.531C474.707 516.122 475.534 517.662 475.19 519.188C472.765 529.95 470.223 548.626 475.833 554.5" stroke="#D1D4D8" stroke-width="3" stroke-linecap="round"/>
<path d="M353.475 266C350.809 272.667 347.075 290.3 353.475 307.5" stroke="#D1D4D8" stroke-width="3" stroke-linecap="round"/>
<path d="M423.975 729C427.808 750.333 449.475 786 462.475 778C468.612 774.223 473.775 760.1 466.975 732.5" stroke="#D1D4D8" stroke-width="3" stroke-linecap="round"/>
<path d="M495.117 839.43C510.429 832.275 547.702 818.423 574.294 820.25C578.065 820.402 583.759 821.985 576.372 827.1C568.985 832.215 565.292 834.863 564.368 835.548C560.521 838.745 556.751 845.504 572.448 846.965C592.069 848.792 647.47 828.926 757.117 843.54" stroke="#D1D4D8" stroke-width="3" stroke-linecap="round"/>
<path d="M484.066 383.005C490.672 367.68 498.583 327.009 477.376 286.924" stroke="#D1D4D8" stroke-width="3" stroke-linecap="round"/>
<path d="M506.606 308.088C508.541 301.832 510.457 285.272 502.636 269.085" stroke="#D1D4D8" stroke-width="3" stroke-linecap="round"/>
<path d="M119.236 824V796" stroke="#D1D4D8" stroke-width="3" stroke-linecap="round"/>
<path d="M94.0312 811.556L109.407 824" stroke="#D1D4D8" stroke-width="3" stroke-linecap="round"/>
<path d="M129.496 824L141.031 805.778" stroke="#D1D4D8" stroke-width="3" stroke-linecap="round"/>
<path d="M677.527 697V664" stroke="#D1D4D8" stroke-width="3" stroke-linecap="round"/>
<path d="M648.031 682.334L666.024 697" stroke="#D1D4D8" stroke-width="3" stroke-linecap="round"/>
<path d="M689.533 697L703.032 675.524" stroke="#D1D4D8" stroke-width="3" stroke-linecap="round"/>
</svg>
