<svg width="410" height="815" viewBox="0 0 410 815" fill="none" xmlns="http://www.w3.org/2000/svg">
<path d="M148.6 248C122.202 248 69.3151 269.629 53.0996 281.5" stroke="#D1D4D8" stroke-width="3" stroke-linecap="round"/>
<path d="M43.5996 322C52.5996 320.999 113.545 315.477 135.1 320.499C148.1 323.529 157.1 326.5 162.6 336.499" stroke="#D1D4D8" stroke-width="3" stroke-linecap="round"/>
<path d="M40.3717 295.237C38.6919 288.95 38.0535 276.9 48.939 279.001C54.2382 280.434 54.1298 294.521 41.6316 313.623" stroke="#D1D4D8" stroke-width="3" stroke-linecap="round"/>
<path d="M29.0333 274.225C30.3383 267.476 31.3264 255.977 28.8535 247.722C33.785 246.05 43.2449 248.438 41.6323 271.36C41.4643 273.27 40.9771 277.759 40.3724 280.433" stroke="#D1D4D8" stroke-width="3" stroke-linecap="round"/>
<path d="M21.2214 267.301C16.6017 256.159 10.1343 234.78 21.2214 238.41C25.1313 239.69 27.5057 243.224 28.8529 247.722C31.3258 255.977 30.3376 267.476 29.0327 274.225" stroke="#D1D4D8" stroke-width="3" stroke-linecap="round"/>
<path d="M13.297 263.579C13.297 262.146 -0.875147 236.421 15.2714 241.79" stroke="#D1D4D8" stroke-width="3" stroke-linecap="round"/>
<path d="M42.892 321.98C25.7575 322.696 8.62292 304.072 7.36302 285.209C6.10313 266.346 6.0534 264.211 4.33928 260.377C2.06833 255.297 -0.245385 246.526 6.99822 248.421" stroke="#D1D4D8" stroke-width="3" stroke-linecap="round"/>
<path d="M190.199 634.64C148.599 517.443 152.033 415.81 165.2 384.143C217.2 421.143 300.033 391.477 326.2 378.143C365.4 421.343 331.533 652.48 309.7 762.64C301.3 777.04 283.2 769.64 275.2 764.14L265.2 687.64L253.7 754.64C247.3 765.84 228.366 763.64 219.7 761.14L190.199 634.64Z" fill="#D1D4D8"/>
<path d="M191.699 226.643C193.522 224.478 195.389 223.046 197.188 222.143C201.703 219.879 205.792 220.952 207.699 222.143C215.699 226.143 235.899 229.043 252.699 208.643C264.666 197.095 296.2 186.7 326.6 237.5" stroke="#D1D4D8" stroke-width="3" stroke-linecap="round"/>
<path d="M325.699 276.143C329.032 255.81 340.599 212.543 360.199 202.143C379.799 191.743 391.032 207.143 394.199 216.143C401.365 235.977 409.299 285.243 383.699 323.643C351.699 371.643 301.199 354.643 281.699 302.643" stroke="#D1D4D8" stroke-width="3" stroke-linecap="round"/>
<path d="M400.199 148.643C403.365 147.643 409.199 149.043 407.199 162.643C404.699 179.643 395.199 193.643 386.699 203.643" stroke="#D1D4D8" stroke-width="3" stroke-linecap="round"/>
<path d="M389.699 143.143C392.532 141.31 398.599 139.843 400.199 148.643C400.532 151.31 400.499 157.243 397.699 159.643" stroke="#D1D4D8" stroke-width="3" stroke-linecap="round"/>
<path d="M380.699 163.643L379.699 140.643C379.699 139.143 380.699 135.943 384.699 135.143C389.699 134.143 389.199 141.143 389.699 143.143C390.099 144.743 389.865 151.81 389.699 155.143" stroke="#D1D4D8" stroke-width="3" stroke-linecap="round"/>
<path d="M370.049 171.525L371.198 152.643C371.198 149.977 372.898 144.743 379.698 145.143" stroke="#D1D4D8" stroke-width="3" stroke-linecap="round"/>
<path d="M360.199 201.643C357.199 194.143 352.699 177.643 353.699 167.643C354.266 161.971 353.699 156.643 358.199 155.643C364.699 154.199 364.376 163.134 367.699 167.643C368.524 168.469 369.476 169.828 370.05 171.525C370.981 174.281 370.917 177.93 367.699 181.643" stroke="#D1D4D8" stroke-width="3" stroke-linecap="round"/>
<path d="M202.348 205.511V219.438C201.608 219.472 200.86 219.66 200.173 219.899C198.608 220.445 196.798 221.451 194.862 222.748C190.974 225.352 186.297 229.319 181.589 233.809C172.912 242.084 163.901 252.352 159.338 259.537C137.174 235.686 129.523 208.472 129.099 185.305C128.883 173.484 130.549 162.73 133.123 154.037C135.168 147.127 137.762 141.601 140.377 137.879C148.02 182.829 183.818 201.45 202.348 205.511Z" stroke="#D1D4D8" stroke-width="3"/>
<path d="M167.699 383.643C169.693 376.095 175.699 361.143 164.795 340.643C163.68 337.627 162.007 334.765 160.699 331.643C134.913 270.143 183.699 236.143 191.699 226.643" stroke="#D1D4D8" stroke-width="3" stroke-linecap="round"/>
<path d="M142.699 99.7892C136.532 119.123 135.787 163.843 179.387 194.643C222.987 225.443 256.553 183.477 267.887 158.643L275.387 138.143C280.553 141.31 290.987 143.143 291.387 125.143C291.787 107.143 284.553 105.977 280.887 107.643C278.887 108.477 274.687 111.343 273.887 116.143" stroke="#D1D4D8" stroke-width="3" stroke-linecap="round"/>
<path d="M252.902 185.836C266.057 171.999 273.709 151.245 276.37 140.925C278.578 141.737 280.775 141.74 282.68 141.375C285.072 140.916 287.08 139.864 288.247 138.989L288.311 138.941L288.37 138.886C291.339 136.115 295.609 127.654 292.302 114.425C291.463 111.068 290.21 108.684 288.585 107.162C286.917 105.599 284.974 105.053 283.048 105.18C281.176 105.303 279.366 106.055 277.81 106.994C276.378 107.858 275.085 108.925 274.052 109.957L253.582 115.871C251.917 105.734 247.636 99.265 242.742 95.3395C238.415 91.8681 233.68 90.4445 230.035 90.1787C230.472 87.5544 230.351 85.2625 229.789 83.2663C229.099 80.8144 227.769 78.9035 226.164 77.4267C223 74.517 218.745 73.2743 216.019 72.6778L214.932 72.4401L214.389 73.4102C209.264 82.5626 201.409 87.524 197.475 90.0092C197.302 90.1182 197.137 90.2224 196.98 90.322C159.154 107.623 132.809 97.5847 118.81 82.1358L118.793 82.1173L118.775 82.0994C111.368 74.4532 106.214 60.1388 107.008 45.6631C107.798 31.27 114.448 16.9455 130.369 8.98472L130.421 8.95869L130.471 8.92871C135.599 5.8463 144.614 2.25309 154.83 1.60332C165.013 0.955655 176.319 3.2317 186.218 11.7785L187.027 12.477L187.951 11.9403C199.328 5.33444 209.777 3.36716 219.193 4.32817C228.627 5.2911 237.137 9.20627 244.591 14.5436C259.534 25.2431 270.028 41.5112 274.883 50.3643L274.911 50.4164L274.944 50.4661L285.444 66.4661L285.869 67.1145L286.644 67.1421C319.716 68.3233 339.091 83.5312 349.981 101.993C360.325 119.527 363.059 140.088 362.359 154.558C360.284 153.551 358.334 153.423 356.616 154.401C354.494 155.609 353.349 158.212 352.69 160.914C351.387 166.26 351.578 173.77 352.144 179.219C343.144 191.245 334.2 197.973 326.502 202.002C320.12 205.342 314.596 206.838 310.411 207.972C309.692 208.166 309.013 208.35 308.376 208.531C279.438 192.786 261.862 197.593 254.533 204.195L252.902 185.836Z" stroke="#D1D4D8" stroke-width="3"/>
<path d="M251.699 118.143C251.699 133.043 240.928 144.643 228.199 144.643C215.47 144.643 204.699 133.043 204.699 118.143C204.699 103.244 215.47 91.6432 228.199 91.6432C240.928 91.6432 251.699 103.244 251.699 118.143Z" stroke="#D1D4D8" stroke-width="3"/>
<path d="M188.699 127.143C188.699 142.043 177.928 153.643 165.199 153.643C152.47 153.643 141.699 142.043 141.699 127.143C141.699 112.244 152.47 100.643 165.199 100.643C177.928 100.643 188.699 112.244 188.699 127.143Z" stroke="#D1D4D8" stroke-width="3"/>
<path d="M188.842 121.528L204.554 119.759" stroke="#D1D4D8" stroke-width="3" stroke-linecap="round"/>
<path d="M202.697 185.643C202.697 181.477 205.097 174.243 214.697 178.643" stroke="#D1D4D8" stroke-width="3" stroke-linecap="round"/>
<path d="M200.198 135.143C197.698 147.643 190.098 159.043 201.698 164.643" stroke="#D1D4D8" stroke-width="3" stroke-linecap="round"/>
<path d="M159.699 152.789C163.842 152.789 167.199 149.431 167.199 145.289C167.199 141.147 163.842 137.789 159.699 137.789C155.557 137.789 152.199 141.147 152.199 145.289C152.199 149.431 155.557 152.789 159.699 152.789Z" fill="#D1D4D8"/>
<path d="M221.699 143.789C225.842 143.789 229.199 140.431 229.199 136.289C229.199 132.147 225.842 128.789 221.699 128.789C217.557 128.789 214.199 132.147 214.199 136.289C214.199 140.431 217.557 143.789 221.699 143.789Z" fill="#D1D4D8"/>
<path d="M282.199 119.143C283.365 121.143 284.999 125.943 282.199 129.143" stroke="#D1D4D8" stroke-width="3" stroke-linecap="round"/>
<path d="M252.199 117.143L277.199 110.143" stroke="#D1D4D8" stroke-width="3" stroke-linecap="round"/>
<path d="M224.199 117.796C228.316 117.663 236.881 119.475 238.199 127.789" stroke="#D1D4D8" stroke-width="3" stroke-linecap="round"/>
<path d="M151.199 125.628C154.027 123.743 161.24 120.82 167.462 124.214" stroke="#D1D4D8" stroke-width="3" stroke-linecap="round"/>
<path d="M333.818 793.29C336.618 784.89 317.151 789.79 308.318 793.29C308.318 800.89 289.651 806.79 280.318 808.79C316.318 806.29 332.318 797.79 333.818 793.29Z" fill="#D1D4D8"/>
<path d="M263.818 783.29C271.818 778.79 260.818 775.96 254.318 776.79L253.318 785.29L263.818 783.29Z" fill="#D1D4D8"/>
<path d="M217.465 769.6C214.315 773.83 204.469 782.28 195.018 782.28C186.929 782.28 183.794 791.93 192.655 796.76C207.422 802.8 241.448 800.02 252.317 786.5V767.79" stroke="#D1D4D8" stroke-width="3" stroke-linecap="round"/>
<path d="M275.704 775.79C272.921 778.21 265.803 783.31 259.6 784.28C251.846 785.49 241.045 794.6 247.074 805.49C252.442 815.19 264.371 813.17 271.529 810.95L299.563 800.64C302.545 799.43 307.317 797.61 307.317 790.34C307.317 783.06 307.317 780.03 307.317 779.43" stroke="#D1D4D8" stroke-width="3" stroke-linecap="round"/>
<path d="M325.6 376C326.767 372.333 329.4 362.3 330.6 351.5" stroke="#D1D4D8" stroke-width="3" stroke-linecap="round"/>
</svg>
