<svg width="607" height="983" viewBox="0 0 607 983" fill="none" xmlns="http://www.w3.org/2000/svg">
<path d="M293.691 405C290.091 364.2 305.361 349.667 313.194 334C319.994 330 326.86 323.5 331.193 324C310.393 355.2 305.038 379.167 300.205 409L293.691 405Z" fill="#D1D4D8"/>
<path d="M427.707 534.5C416.705 525.5 412.205 519 408.705 503L427.705 495.5C431.205 512.5 436.871 516.167 449.204 527.5L427.707 534.5Z" fill="#D1D4D8"/>
<path d="M377.078 442C367.861 375.774 407.303 335.739 428.176 324L443.705 334.977C407.636 362.784 401.959 395.349 403.629 408.155C389.201 421.693 379.917 436.359 377.078 442Z" fill="#D1D4D8"/>
<path d="M492.705 429.798C512.926 437.881 531.557 444.953 568.705 417" stroke="#D1D4D8" stroke-width="3" stroke-linecap="round"/>
<path d="M572.705 451C557.766 455.003 530.232 474.608 539.609 521" stroke="#D1D4D8" stroke-width="3" stroke-linecap="round"/>
<path d="M451.705 336.442C483.114 330.725 527.706 381.449 562.095 429.749C605.082 490.124 554.53 542.609 468.556 522.713" stroke="#D1D4D8" stroke-width="3" stroke-linecap="round"/>
<path d="M212.525 526.059C215.518 529.83 226.931 535.671 248.646 528.865C270.361 522.059 279.067 511.425 280.706 506.958" stroke="#D1D4D8" stroke-width="3" stroke-linecap="round"/>
<path d="M193.076 517.329C191.01 520.89 191.024 527.716 207.609 526.525L212.525 526.059L221.075 525.249" stroke="#D1D4D8" stroke-width="3" stroke-linecap="round"/>
<path d="M194.574 504.193C190.583 504.69 183.371 507.299 186.449 513.764C187.378 515.715 189.834 516.811 193.075 517.329C200.574 518.526 212.27 516.624 218.936 515.04" stroke="#D1D4D8" stroke-width="3" stroke-linecap="round"/>
<path d="M274.1 482.312C267.808 476.375 254.673 464.422 242.875 463.571C239.883 463.429 233.471 462.253 231.761 458.68C229.624 454.213 219.792 459.105 226.418 468.038C233.044 476.97 241.165 473.993 236.463 481.649C232.702 487.774 209.96 490.582 199.06 491.22C195.213 491.291 188.074 493.219 190.297 500.365C190.847 502.135 192.405 503.367 194.575 504.193C201.167 506.706 213.412 505.474 220.22 504.193" stroke="#D1D4D8" stroke-width="3" stroke-linecap="round"/>
<path d="M245.706 283.001C237.705 234.5 248.742 206.593 271.168 189.882C268.519 255.684 312.846 287.501 330.346 298.501L315.346 312.501L293.705 328.5C292.538 321.667 289.305 306.1 285.705 298.501C282.105 290.901 257.539 285.001 245.706 283.001Z" stroke="#D1D4D8" stroke-width="3" stroke-linecap="round"/>
<path d="M81.0666 334.229L42.2411 303.918C34.6345 297.98 45.9388 295.063 52.5418 294.346L197.543 276C215.767 278.393 256.019 284.455 271.232 289.56C286.445 294.665 281.797 299.664 277.571 301.525C230.029 310.3 130.351 329.284 111.968 335.027C93.5858 340.77 83.7078 336.888 81.0666 334.229Z" stroke="#D1D4D8" stroke-width="3" stroke-linecap="round"/>
<path d="M276.472 291C282.029 292.859 299.81 309.641 291.554 349.154C288.379 359.51 279.647 365.883 251.07 365.883H102.629C95.7496 366.414 79.9265 365.405 71.671 357.12C63.4154 348.835 46.5339 331.363 39.1251 323.662C37.5375 321.803 35.9499 318.085 42.3003 318.085" stroke="#D1D4D8" stroke-width="3" stroke-linecap="round"/>
<path d="M42.7051 318V305" stroke="#D1D4D8" stroke-width="3" stroke-linecap="round"/>
<path d="M38.2109 320.868L75.1053 347.993C79.0564 351.165 86.1684 356.716 104.344 355.923C122.207 355.144 218.663 353.28 264.759 354.337C271.617 354.495 280.564 351.165 282.144 335.306C284.19 314.775 281.113 302.368 273.211 302.368" stroke="#D1D4D8" stroke-width="3" stroke-linecap="round"/>
<path d="M43.7483 332L13.6768 334.367C9.45619 334.367 1.17333 336.418 1.80642 344.622C2.4395 352.827 2.0702 357.507 1.80642 358.822C1.01506 362.767 4.97184 365.922 9.71998 369.867L47.7051 403" stroke="#D1D4D8" stroke-width="3" stroke-linecap="round"/>
<path d="M51.7051 365L47.7051 403" stroke="#D1D4D8" stroke-width="3" stroke-linecap="round"/>
<path d="M51.7051 365L8.70508 337" stroke="#D1D4D8" stroke-width="3" stroke-linecap="round"/>
<path d="M50.7051 366L77.7051 362" stroke="#D1D4D8" stroke-width="3" stroke-linecap="round"/>
<path d="M47.7051 403L271.705 408" stroke="#D1D4D8" stroke-width="3" stroke-linecap="round"/>
<path d="M272.705 364L271.705 407" stroke="#D1D4D8" stroke-width="3" stroke-linecap="round"/>
<ellipse cx="77.7051" cy="386.5" rx="5" ry="4.5" fill="#D1D4D8"/>
<circle cx="103.205" cy="427.5" r="4.5" fill="#D1D4D8"/>
<ellipse cx="247.705" cy="384.5" rx="5" ry="4.5" fill="#D1D4D8"/>
<ellipse cx="276.205" cy="429" rx="4.5" ry="5" fill="#D1D4D8"/>
<path d="M25.7051 406L64.5326 443.768C70.0793 449.393 84.3425 451 116.038 451C145.37 451 248.633 448.054 296.705 448.589" stroke="#D1D4D8" stroke-width="3" stroke-linecap="round"/>
<path d="M297.705 408L296.705 448" stroke="#D1D4D8" stroke-width="3" stroke-linecap="round"/>
<path d="M297.705 408L272.705 397" stroke="#D1D4D8" stroke-width="3" stroke-linecap="round"/>
<path d="M30.6554 388C30.9388 392.636 30.1454 402.527 24.7051 405" stroke="#D1D4D8" stroke-width="3" stroke-linecap="round"/>
<path d="M73.3984 405C75.5059 407.409 78.1402 414.638 75.7693 425.882C73.9179 434.662 71.0275 442.748 64.7051 441.945" stroke="#D1D4D8" stroke-width="3" stroke-linecap="round"/>
<path d="M297.705 408H268.705" stroke="#D1D4D8" stroke-width="3" stroke-linecap="round"/>
<path d="M46.7051 426L11.7051 446" stroke="#D1D4D8" stroke-width="3" stroke-linecap="round"/>
<path d="M11.7051 446C6.68341 455.73 -1.13982 482.92 7.74061 517" stroke="#D1D4D8" stroke-width="3" stroke-linecap="round"/>
<path d="M7.70508 517.028L199.705 526.5" stroke="#D1D4D8" stroke-width="3" stroke-linecap="round"/>
<path d="M272.205 450L257.705 469M189.205 496C175.841 493.492 89.4812 471.5 40.427 459.485C31.1465 457.396 15.7674 457.918 14.9719 477.508C13.9113 486.389 15.4492 504.464 30.0859 505.718C44.7226 506.972 136.681 510.91 185.205 513" stroke="#D1D4D8" stroke-width="3" stroke-linecap="round"/>
<path d="M360.765 900.634C355.118 878.064 335.405 838.749 332.663 815L406.687 819.796C416.511 846.742 430.264 910.363 406.687 949.275C383.109 988.187 323.07 986.954 316.902 977.363C313.475 969.827 307.441 952.563 332.663 949.275C364.191 945.164 366.935 925.297 360.765 900.634Z" fill="#D1D4D8"/>
<path d="M577.345 974.951C514.512 966.742 475.905 865.301 465.205 814L519.705 801.5C527.354 856.768 553.213 899.709 562.319 912.022C586.223 941.434 640.177 983.159 577.345 974.951Z" fill="#D1D4D8"/>
<path d="M278.783 516C268.523 554.014 255.111 653.941 274.809 795.98C301.857 812.597 392.103 835.86 536.705 795.98C528.124 730.651 510.236 616.247 484.718 555.607" stroke="#D1D4D8" stroke-width="3" stroke-linecap="round"/>
<path d="M308.705 387.745C316.934 368.101 334.625 333.335 353.277 356.908C371.928 380.481 373.162 430.918 384.134 408.303L404.705 354.167" stroke="#D1D4D8" stroke-width="3" stroke-linecap="round"/>
<path d="M547.185 301.511C516.269 330.884 484.912 335.14 472.84 336.5C448.205 339.275 407.34 314 407.34 286.5C429.663 270.374 445.883 240.065 451.063 227.749C456.881 232.669 464.449 230.796 467.506 229.245C471.436 226.687 478.975 217.059 477.69 199.014C476.405 180.968 463.302 185.813 456.912 190.491L424.983 193.931C426.326 164.096 407.936 154.14 398.573 152.892C405.931 136.364 392.769 129.133 385.843 126.292C375.908 138.469 362.887 143.375 357.382 145.656C301.347 160.315 267.144 140.245 251.358 115.197C234.221 89.9117 236.994 30.535 285.476 16.0804C301.328 9.98027 338.91 4.97862 362.418 33.7734C431.623 8.34136 464.376 81.1271 473.361 107.558L483.746 131.657C573.931 150.841 581.869 236.14 566.027 273.496C558.845 290.434 557.9 291.331 547.66 301.059L547.185 301.511Z" stroke="#D1D4D8" stroke-width="3" stroke-linecap="round"/>
<path d="M342.887 320.908C327.388 321.908 286.206 341 282.208 400.001" stroke="#D1D4D8" stroke-width="3" stroke-linecap="round"/>
<path d="M284.21 474C283.505 468.619 280.21 459.5 282.21 450" stroke="#D1D4D8" stroke-width="3" stroke-linecap="round"/>
<path d="M381.886 320.908C451.386 309.408 471.022 365.252 478.703 391C492.742 435.427 478.703 531 283.934 502.33C272.704 500.677 267.205 485.585 289.203 471.124C312.209 456 336.705 446.5 366.209 440.5" stroke="#D1D4D8" stroke-width="3" stroke-linecap="round"/>
<path d="M279.722 514.176C298.59 532.475 362.693 559.649 468.169 521.951C470.405 517.168 471.568 486.481 468.169 476.59" stroke="#D1D4D8" stroke-width="3" stroke-linecap="round"/>
<path d="M425.922 194.59C422.238 215.56 404.095 229.606 385.666 226.368C367.237 223.131 354.966 203.742 358.65 182.772C362.334 161.802 380.477 147.756 398.906 150.993C417.336 154.231 429.606 173.619 425.922 194.59Z" stroke="#D1D4D8" stroke-width="3"/>
<path d="M338.703 191.798C335.019 212.768 316.876 226.814 298.447 223.576C280.018 220.339 267.748 200.95 271.431 179.98C275.115 159.01 293.259 144.964 311.688 148.201C330.117 151.439 342.387 170.827 338.703 191.798Z" stroke="#D1D4D8" stroke-width="3"/>
<path d="M338.333 183.913L359.972 185.252" stroke="#D1D4D8" stroke-width="3" stroke-linecap="round"/>
<path d="M350.439 204.997C344.097 221.285 331.129 234.878 345.466 245.193" stroke="#D1D4D8" stroke-width="3" stroke-linecap="round"/>
<path d="M330.431 266.697C334.773 271.496 346.885 278.215 360.597 266.697" stroke="#D1D4D8" stroke-width="3" stroke-linecap="round"/>
<circle cx="299.127" cy="200.421" r="9" transform="rotate(9.96339 299.127 200.421)" fill="#D1D4D8"/>
<circle cx="383.127" cy="198.421" r="9" transform="rotate(9.96339 383.127 198.421)" fill="#D1D4D8"/>
<path d="M464.975 202.842C466.076 205.82 467.143 212.69 462.602 216.347" stroke="#D1D4D8" stroke-width="3" stroke-linecap="round"/>
<path d="M281.171 143.609C268.256 168.256 256.64 228.475 308.215 280.414C359.79 332.354 415.079 283.641 436.276 252.792L451.268 226.886C457.495 232.388 471.15 237.339 475.961 213.125C480.771 188.911 471.279 185.619 465.932 187C463.033 187.651 456.681 190.526 454.462 196.819" stroke="#D1D4D8" stroke-width="3" stroke-linecap="round"/>
<path d="M424.935 193.024L460.358 189.501" stroke="#D1D4D8" stroke-width="3" stroke-linecap="round"/>
<path d="M393.077 176.009C398.669 176.806 409.806 181.285 409.613 192.826" stroke="#D1D4D8" stroke-width="3" stroke-linecap="round"/>
<path d="M286.521 180.521C290.789 178.646 301.223 176.41 308.821 182.47" stroke="#D1D4D8" stroke-width="3" stroke-linecap="round"/>
<path d="M388.705 319.803V296" stroke="#D1D4D8" stroke-width="3" stroke-linecap="round"/>
<path d="M336.705 300.868V322" stroke="#D1D4D8" stroke-width="3" stroke-linecap="round"/>
<path d="M297.016 740.368C322.278 753.976 384.747 772.445 482.518 751.662" stroke="#D1D4D8" stroke-width="3" stroke-linecap="round"/>
<path d="M314.559 551.868L337.09 791.868M292.711 678.054C323.207 685.27 398.265 695.373 454.525 678.054" stroke="#D1D4D8" stroke-width="3" stroke-linecap="round"/>
<path d="M292.711 612.487C316.607 618.672 377.919 627.332 431.994 612.487" stroke="#D1D4D8" stroke-width="3" stroke-linecap="round"/>
<path d="M464.082 706.507L482.517 791.868" stroke="#D1D4D8" stroke-width="3" stroke-linecap="round"/>
<path d="M385.566 593.93L419.704 791.868" stroke="#D1D4D8" stroke-width="3" stroke-linecap="round"/>
</svg>
