<svg width="711" height="521" viewBox="0 0 711 521" fill="none" xmlns="http://www.w3.org/2000/svg">
<path d="M544.277 486.454C522.677 468.854 551.943 466.787 569.277 467.954V479.454L610.777 489.954C597.61 496.121 565.877 504.054 544.277 486.454Z" fill="#D1D4D8"/>
<path d="M657.777 475.954C643.777 477.554 639.611 471.287 639.277 467.954H669.277C671.277 469.954 671.777 474.354 657.777 475.954Z" fill="#D1D4D8"/>
<path d="M626.277 427.454C610.777 427.454 602.277 426.454 589.777 425.454" stroke="#D1D4D8" stroke-width="3" stroke-linecap="round"/>
<path d="M638.277 433.454V481.454" stroke="#D1D4D8" stroke-width="3" stroke-linecap="round"/>
<path d="M602.277 435.954L569.277 433.454" stroke="#D1D4D8" stroke-width="3" stroke-linecap="round"/>
<path d="M617.777 440.954V489.454" stroke="#D1D4D8" stroke-width="3" stroke-linecap="round"/>
<path d="M617.277 490.454L638.277 481.954" stroke="#D1D4D8" stroke-width="3" stroke-linecap="round"/>
<path d="M589.277 425.454L569.277 433.454" stroke="#D1D4D8" stroke-width="3" stroke-linecap="round"/>
<path d="M568.777 433.954V479.954" stroke="#D1D4D8" stroke-width="3" stroke-linecap="round"/>
<path d="M568.277 479.454L617.277 490.454" stroke="#D1D4D8" stroke-width="3" stroke-linecap="round"/>
<path d="M626.277 428.454V414.454" stroke="#D1D4D8" stroke-width="3" stroke-linecap="round"/>
<path d="M669.777 467.454V418.954" stroke="#D1D4D8" stroke-width="3" stroke-linecap="round"/>
<path d="M693.277 402.954V456.954" stroke="#D1D4D8" stroke-width="3" stroke-linecap="round"/>
<path d="M669.777 468.454L693.277 456.954" stroke="#D1D4D8" stroke-width="3" stroke-linecap="round"/>
<path d="M693.277 402.454L640.277 400.454" stroke="#D1D4D8" stroke-width="3" stroke-linecap="round"/>
<path d="M626.277 414.454L640.277 400.454" stroke="#D1D4D8" stroke-width="3" stroke-linecap="round"/>
<path d="M669.777 418.454L692.777 403.454" stroke="#D1D4D8" stroke-width="3" stroke-linecap="round"/>
<path d="M669.777 467.454H640.277" stroke="#D1D4D8" stroke-width="3" stroke-linecap="round"/>
<path d="M626.777 414.454L655.277 415.454" stroke="#D1D4D8" stroke-width="3" stroke-linecap="round"/>
<path d="M227.245 507.5C227.745 493.5 283.745 498 287.245 498.5V507.5L304.244 519.5C278.411 520.167 226.845 518.7 227.245 507.5Z" fill="#D1D4D8"/>
<path d="M366.242 506V455" stroke="#D1D4D8" stroke-width="3" stroke-linecap="round"/>
<path d="M322.742 519V463" stroke="#D1D4D8" stroke-width="3" stroke-linecap="round"/>
<path d="M286.742 506V450" stroke="#D1D4D8" stroke-width="3" stroke-linecap="round"/>
<path d="M286.742 450L326.242 440" stroke="#D1D4D8" stroke-width="3" stroke-linecap="round"/>
<path d="M366.242 454.5L322.742 462.5" stroke="#D1D4D8" stroke-width="3" stroke-linecap="round"/>
<path d="M322.742 519.5L366.242 506.5" stroke="#D1D4D8" stroke-width="3" stroke-linecap="round"/>
<path d="M366.242 454.5L326.242 440" stroke="#D1D4D8" stroke-width="3" stroke-linecap="round"/>
<path d="M286.742 450.5L323.242 462.5" stroke="#D1D4D8" stroke-width="3" stroke-linecap="round"/>
<path d="M414.989 505C405.789 489 435.156 486.666 450.989 487.5V499L502.489 505C477.156 511.666 424.189 521 414.989 505Z" fill="#D1D4D8"/>
<path d="M527.988 483.5L508.488 503.5" stroke="#D1D4D8" stroke-width="3" stroke-linecap="round"/>
<path d="M503.988 442.5L453.488 439" stroke="#D1D4D8" stroke-width="3" stroke-linecap="round"/>
<path d="M473.988 426L527.988 428.5" stroke="#D1D4D8" stroke-width="3" stroke-linecap="round"/>
<path d="M452.488 439L449.988 497" stroke="#D1D4D8" stroke-width="3" stroke-linecap="round"/>
<path d="M527.988 429.5V482.5" stroke="#D1D4D8" stroke-width="3" stroke-linecap="round"/>
<path d="M508.488 461V503.5" stroke="#D1D4D8" stroke-width="3" stroke-linecap="round"/>
<path d="M452.488 439L473.988 426" stroke="#D1D4D8" stroke-width="3" stroke-linecap="round"/>
<path d="M508.488 503.5L449.488 497.5" stroke="#D1D4D8" stroke-width="3" stroke-linecap="round"/>
<path d="M404.562 130.264C406.73 129.597 412.463 128.964 418.062 131.764" stroke="#D1D4D8" stroke-width="3" stroke-linecap="round"/>
<path d="M384.562 156.264C388.428 156.264 391.562 152.906 391.562 148.764C391.562 144.622 388.428 141.264 384.562 141.264C380.697 141.264 377.562 144.622 377.562 148.764C377.562 152.906 380.697 156.264 384.562 156.264Z" fill="#D1D4D8"/>
<path d="M441.562 166.264C445.428 166.264 448.562 162.906 448.562 158.764C448.562 154.622 445.428 151.264 441.562 151.264C437.697 151.264 434.562 154.622 434.562 158.764C434.562 162.906 437.697 166.264 441.562 166.264Z" fill="#D1D4D8"/>
<path d="M367.562 136.764C368.062 133.597 371.163 127.564 379.562 128.764" stroke="#D1D4D8" stroke-width="3" stroke-linecap="round"/>
<path d="M431.562 135.764C435.562 132.264 445.562 127.364 453.562 135.764" stroke="#D1D4D8" stroke-width="3" stroke-linecap="round"/>
<path d="M410.062 144.264C414.729 151.931 421.262 168.364 410.062 172.764L404.562 174.764" stroke="#D1D4D8" stroke-width="3" stroke-linecap="round"/>
<path d="M391.062 190.264C392.23 193.431 396.663 198.664 405.062 194.264" stroke="#D1D4D8" stroke-width="3" stroke-linecap="round"/>
<path d="M327.271 150.597C328.051 156.606 329.712 165.294 333.029 174.224C336.316 183.073 341.265 192.254 348.681 199.278C333.807 201.77 305.017 208.535 284.009 221.044C271.814 214.59 254.869 201.899 242.834 184.353C230.581 166.488 223.458 143.665 231.495 117.2C239.574 90.5991 254.833 75.8882 270.554 68.2376C286.331 60.5593 302.655 59.9556 312.8 61.7413L313.767 61.9115L314.31 61.0929C324.553 45.6458 343.312 24.747 366.228 12.2431C389.085 -0.227978 415.923 -4.29271 442.73 13.5135L443.495 14.0216L444.295 13.5713C452.087 9.18862 464.842 5.16364 477.718 7.26931C490.472 9.355 503.564 17.4866 512.179 37.8484C520.732 58.066 515.647 74.1497 505.812 86.1639C495.946 98.2156 481.277 106.169 470.713 109.797L460.651 111.169C458.165 108.501 453.862 105.592 448.273 104.695C442.347 103.744 435.134 105.08 427.306 111.06C421.429 108.763 412.863 104.406 405.395 98.4536C397.553 92.2021 391.174 84.3936 390.048 75.574L389.333 69.9733L387.174 75.1904C386.197 77.5521 384.428 81.3112 382.32 84.8605C380.265 88.3219 378.02 91.3519 375.998 92.8275C371.794 93.4509 365.812 95.7733 360.811 100.779C355.965 105.629 352.104 112.936 351.613 123.47L329.647 113.608C328.699 111.847 327.426 109.971 325.897 108.372C324.242 106.642 322.192 105.138 319.838 104.568C317.409 103.98 314.824 104.43 312.299 106.309C309.832 108.145 307.454 111.316 305.202 116.128C302.339 122.243 301.705 127.69 302.619 132.386C303.532 137.076 305.964 140.893 309.029 143.791C312.087 146.683 315.795 148.684 319.34 149.769C322.118 150.619 324.91 150.94 327.271 150.597Z" stroke="#D1D4D8" stroke-width="3"/>
<path d="M352.562 126.264L328.562 113.764" stroke="#D1D4D8" stroke-width="3" stroke-linecap="round"/>
<path d="M404.062 125.264C404.062 142.509 392.276 155.764 378.562 155.764C364.849 155.764 353.062 142.509 353.062 125.264C353.062 108.018 364.849 94.764 378.562 94.764C392.276 94.764 404.062 108.018 404.062 125.264Z" stroke="#D1D4D8" stroke-width="3"/>
<path d="M470.062 136.264C470.062 153.509 458.276 166.764 444.562 166.764C430.849 166.764 419.062 153.509 419.062 136.264C419.062 119.018 430.849 105.764 444.562 105.764C458.276 105.764 470.062 119.018 470.062 136.264Z" stroke="#D1D4D8" stroke-width="3"/>
<path d="M448.49 212.97L448.387 212.889L448.271 212.827L436.747 206.653C446.654 200.697 463.995 182.835 472.396 146.333C479.787 154.95 487.83 168.318 490.232 183.028C492.783 198.649 489.002 215.859 471.046 230.727L448.49 212.97Z" stroke="#D1D4D8" stroke-width="3"/>
<path d="M331.561 125.264C330.728 116.097 320.061 94.264 308.561 114.764C303.561 124.097 299.961 144.064 325.561 149.264" stroke="#D1D4D8" stroke-width="3" stroke-linecap="round"/>
<path d="M323.061 121.764C320.728 123.764 317.261 128.964 322.061 133.764" stroke="#D1D4D8" stroke-width="3" stroke-linecap="round"/>
<path d="M468.062 147.764C465.262 163.764 459.061 178.257 452.561 187.264C448.497 192.896 441.912 200.005 433.516 206.202" stroke="#D1D4D8" stroke-width="3" stroke-linecap="round"/>
<path d="M328.061 149.264C327.728 169.597 335.662 199.764 372.062 215.764C377.661 218.225 383.166 219.637 388.516 220.206" stroke="#D1D4D8" stroke-width="3" stroke-linecap="round"/>
<path d="M430.061 240.264C422.061 238.264 414.395 244.764 411.561 248.264C410.061 251.431 409.361 257.664 418.561 257.264C430.061 256.764 433.561 240.264 447.061 266.764C457.861 287.964 458.561 329.597 457.561 347.764" stroke="#D1D4D8" stroke-width="3" stroke-linecap="round" stroke-linejoin="round"/>
<path d="M403.888 234.764C401.279 240.431 399.161 251.064 411.561 248.264" stroke="#D1D4D8" stroke-width="3" stroke-linecap="round" stroke-linejoin="round"/>
<path d="M408.713 215.264C401.713 218.264 391.561 229.064 395.561 236.264C396.061 237.097 397.561 238.664 399.561 238.264C400.437 238.089 401.865 236.564 403.888 234.764C407.64 231.425 413.44 227.14 421.561 228.764" stroke="#D1D4D8" stroke-width="3" stroke-linecap="round" stroke-linejoin="round"/>
<path d="M548.633 386.954C553.633 362.454 548.762 304.964 487.562 249.764L447.062 214.264L421.562 200.764L416.563 199.764L397.563 204.264L395.562 206.264L389.062 218.264C388.062 220.764 392.363 223.664 399.563 221.264" stroke="#D1D4D8" stroke-width="3" stroke-linecap="round" stroke-linejoin="round"/>
<path d="M350.563 202.264C318.063 206.597 233.693 225.227 182.563 300.764C134.375 371.954 188.875 401.954 229.375 403.454" stroke="#D1D4D8" stroke-width="3" stroke-linecap="round" stroke-linejoin="round"/>
<path d="M1.63281 413.454L227.133 402.454" stroke="#D1D4D8" stroke-width="3" stroke-linecap="round" stroke-linejoin="round"/>
<path d="M288.633 399.954L708.783 381.649" stroke="#D1D4D8" stroke-width="3" stroke-linecap="round"/>
<path d="M251.178 404.222C251.796 406.139 251.341 407.517 248.933 407.724C241.806 408.335 233.342 397.287 230.002 391.687" stroke="#D1D4D8" stroke-width="3" stroke-linecap="round"/>
<path d="M251.159 382.523C254.716 388.206 260.919 396.963 266.357 401.931C265.861 405.749 262.13 411.553 251.177 404.222C249.509 399.048 240.023 389.953 240.023 389.396" stroke="#D1D4D8" stroke-width="3" stroke-linecap="round"/>
<path d="M260.811 377.178C267.616 384.687 279.965 400.775 274.917 405.051C274.022 405.809 272.881 405.882 271.576 405.438C270.022 404.909 268.236 403.646 266.358 401.931C260.92 396.963 254.717 388.206 251.16 382.523" stroke="#D1D4D8" stroke-width="3" stroke-linecap="round"/>
<path d="M204.875 396.748C216.258 382.493 252.646 351.595 273.433 370.305C281.723 378.578 292.055 393.531 286.116 399.64C283.146 401.931 276.718 398.876 272.572 392.767" stroke="#D1D4D8" stroke-width="3" stroke-linecap="round"/>
<path d="M245.427 315.454C238.26 321.121 227.027 335.854 239.427 349.454" stroke="#D1D4D8" stroke-width="3" stroke-linecap="round"/>
</svg>
