<svg width="405" height="1312" viewBox="0 0 405 1312" fill="none" xmlns="http://www.w3.org/2000/svg">
<path d="M162 537C184.965 520.321 235.514 489.897 253.893 501.623C276.858 516.278 262.196 518.3 250.466 515.268" stroke="#D1D4D8" stroke-width="3" stroke-linecap="round"/>
<path d="M229.457 515.754C241.288 513.982 265.156 514.206 265.947 529.294C266.394 538.092 263.97 536.629 259.533 533.882C256.352 531.916 252.139 529.294 247.203 529.294H226" stroke="#D1D4D8" stroke-width="3" stroke-linecap="round"/>
<path d="M226 530H247.331C252.296 530 256.535 532.677 259.736 534.684C262.867 540.363 265.185 550.836 249.321 547.28C233.456 543.725 227.159 544.812 226 545.799" stroke="#D1D4D8" stroke-width="3" stroke-linecap="round"/>
<path d="M249.594 547C254.841 552.995 260.893 564.284 243.199 561.487C225.505 558.69 211.583 567.314 206.834 571.976C198.81 577.304 179.796 583.963 168 567.98" stroke="#D1D4D8" stroke-width="3" stroke-linecap="round"/>
<path d="M79.6972 562.371C162.843 516.274 162.929 559.688 155.904 586.163C145.513 612.93 93.9679 642.414 70.8273 645.941C38.1842 653.441 -19.6162 644.553 10.3607 548.988C47.8404 429.534 64.7942 342.296 190 319" stroke="#D1D4D8" stroke-width="3" stroke-linecap="round"/>
<path d="M125 459C125 504.111 122.36 503.049 103 544" stroke="#D1D4D8" stroke-width="3" stroke-linecap="round"/>
<path d="M295 483V470" stroke="#D1D4D8" stroke-width="3" stroke-linecap="round"/>
<path d="M310 482L315 466" stroke="#D1D4D8" stroke-width="3" stroke-linecap="round"/>
<path d="M325 486L337 458" stroke="#D1D4D8" stroke-width="3" stroke-linecap="round"/>
<path d="M159.985 1199C161.656 1212.9 158.314 1234.53 142.714 1241.68C123.21 1250.61 73.2215 1280.88 121.215 1287.34C159.61 1292.5 190.538 1266.33 201.21 1252.6C204.876 1236.72 207.485 1218.35 201.21 1199" stroke="#D1D4D8" stroke-width="3" stroke-linecap="round"/>
<path d="M235.764 1172.61C64.5444 1279.98 91.1326 890.585 102.857 701.375C227.18 740.147 327.85 715.294 350.155 680C356.486 702.525 376.095 863.79 377.75 909.652L377.819 911.481C380.515 986.04 386.641 1155.98 290.033 1190.5C266.004 1199.09 248.478 1191.38 235.764 1172.61Z" fill="#D1D4D8"/>
<path d="M251.45 1199.49C250.542 1209.4 250.765 1232.51 254.416 1245.43C263.638 1278.12 291.527 1312.7 358.961 1309.83C368.046 1307.67 380.765 1298.55 358.961 1279.38C350.99 1272.38 342.351 1265.97 334.226 1259.36C314.548 1243.32 297.989 1226.04 301.932 1196" stroke="#D1D4D8" stroke-width="3" stroke-linecap="round"/>
<path d="M94 643C97.4816 682.017 98.9665 679.548 104.94 701.772C165.253 719.552 298.698 739.998 350 679.548" stroke="#D1D4D8" stroke-width="3" stroke-linecap="round"/>
<path d="M156 409L157.887 406.139C169.26 388.979 191.19 382.128 210.383 389.745C227.604 396.578 247.29 391.816 259.428 377.883L275 360" stroke="#D1D4D8" stroke-width="3" stroke-linecap="round"/>
<path d="M264.093 318.111C268.468 305.835 264.467 297.574 260.587 296C237.199 316.775 201.727 309.063 188.587 296.471C183.906 300.627 186.629 312.918 188.587 316.695C213.914 343.892 249.965 328.657 264.093 318.111Z" fill="#D1D4D8"/>
<path d="M331.57 115.835L331.569 115.835C326.127 135.426 322.078 145.945 317.473 153.714C313.619 160.214 309.366 164.82 303.406 171.275C303.029 171.683 302.645 172.1 302.253 172.524C302.087 164.449 301.448 154.602 300.814 145.28C300.748 144.317 300.683 143.359 300.618 142.41C299.949 132.627 299.34 123.723 299.34 118.31V116.81H297.84C246.25 116.81 202.704 95.6959 187.459 85.2096L185.064 83.5619L185.109 86.4689C185.383 103.995 177.315 118.555 169.072 128.8C164.958 133.913 160.824 137.921 157.72 140.649C156.169 142.012 154.878 143.054 153.978 143.751C153.529 144.1 153.177 144.363 152.94 144.537C152.822 144.623 152.732 144.688 152.673 144.73L152.608 144.777L152.593 144.787L152.591 144.789L152.591 144.789L152.59 144.789L151.673 145.43L152.026 146.491L152.026 146.491L152.026 146.492L152.028 146.497L152.037 146.524C152.045 146.548 152.057 146.587 152.074 146.641C152.108 146.748 152.159 146.913 152.225 147.136C152.359 147.583 152.554 148.263 152.798 149.185C153.287 151.028 153.971 153.834 154.743 157.659C156.286 165.307 158.178 177.026 159.557 193.249L159.557 193.25C160.109 199.722 160.119 204.181 159.795 207.141C159.633 208.622 159.394 209.672 159.126 210.39C158.854 211.124 158.599 211.387 158.493 211.464L158.49 211.466C158.447 211.497 158.424 211.515 158.303 211.486C158.116 211.442 157.801 211.291 157.368 210.93C156.538 210.235 155.632 209.065 154.828 207.744C149.82 191.666 143.01 185.037 135.936 184.086C129.804 183.261 124.209 186.83 120.523 190.623C100.216 157.084 92.8752 130.388 93.5412 109.278C94.217 87.8574 103.14 72.0331 115.437 60.4763C127.766 48.8894 143.51 41.5757 157.764 37.3195C172.047 33.055 184.651 31.9131 190.608 32.5214L191.247 32.5866L191.735 32.1691C210.37 16.2323 236.299 3.81766 254.324 2.00957M331.57 115.835L254.324 2.00957M331.57 115.835C340.327 84.3237 337.211 54.1849 323.873 32.8159C310.585 11.5266 287.027 -1.26884 254.324 2.00957M331.57 115.835L254.174 0.517058L254.324 2.00957" stroke="#D1D4D8" stroke-width="3"/>
<path d="M154 232.915C162.991 287.791 223.314 327.253 266.851 282.797C310.388 238.344 301.671 156.972 297.021 119" stroke="#D1D4D8" stroke-width="3" stroke-linecap="round"/>
<path d="M119.794 189C114.514 202.371 119.469 232 154 232" stroke="#D1D4D8" stroke-width="3" stroke-linecap="round"/>
<path d="M137.193 197C136.581 199.475 137.071 205.343 144 209" stroke="#D1D4D8" stroke-width="3" stroke-linecap="round"/>
<path d="M297 225C308.387 220.204 316.426 202.443 313.333 174" stroke="#D1D4D8" stroke-width="3" stroke-linecap="round"/>
<path d="M231 258.326C241.62 261.523 240.949 252.723 249 245" stroke="#D1D4D8" stroke-width="3" stroke-linecap="round"/>
<path d="M265.5 196C269.642 196 273 192.418 273 188C273 183.582 269.642 180 265.5 180C261.358 180 258 183.582 258 188C258 192.418 261.358 196 265.5 196Z" fill="#D1D4D8"/>
<path d="M199.5 196C204.194 196 208 192.866 208 189C208 185.134 204.194 182 199.5 182C194.806 182 191 185.134 191 189C191 192.866 194.806 196 199.5 196Z" fill="#D1D4D8"/>
<path d="M183 172C184.646 167.775 191.76 159.96 207 162.495" stroke="#D1D4D8" stroke-width="3" stroke-linecap="round"/>
<path d="M253 163C256.634 160.736 266.526 157.567 277 163" stroke="#D1D4D8" stroke-width="3" stroke-linecap="round"/>
<path d="M227.799 186C226.648 195.555 225.848 214.933 232 216" stroke="#D1D4D8" stroke-width="3" stroke-linecap="round"/>
<path d="M213.788 505L187.995 461.666C185.98 458.28 187.124 453.891 190.538 451.933C193.867 450.025 198.1 451.135 200.063 454.426L227 499.501" stroke="#D1D4D8" stroke-width="3" stroke-linecap="round"/>
<path d="M220 656C233.715 611.664 265.649 525.592 285.932 528.052C286.854 528.164 287.775 528.427 288.696 528.557L365 539.246" stroke="#D1D4D8" stroke-width="3" stroke-linecap="round"/>
<path d="M376 557L369 578" stroke="#D1D4D8" stroke-width="3" stroke-linecap="round"/>
<path d="M287.767 539C273.135 547.933 251.368 609.231 238.671 650.479C235.899 659.469 242.025 668.668 251.386 669.839L323.703 678.88C331.095 679.802 338.077 675.335 340.319 668.264L346 650.299" stroke="#D1D4D8" stroke-width="3" stroke-linecap="round"/>
<path d="M299.493 547C304.321 545.246 314.36 534.905 311.494 524.883C311.008 523.144 310.122 521.414 308.75 519.739C299.493 508.425 283.55 519.741 287.666 528.998" stroke="#D1D4D8" stroke-width="3" stroke-linecap="round"/>
<path d="M311 525.162C315.925 519.14 329.236 516.389 336.194 528.258C342.665 542.711 330.228 550.968 322.765 552" stroke="#D1D4D8" stroke-width="3" stroke-linecap="round"/>
<path d="M337 527.967C342.199 523.999 356.115 518.651 364.169 529.004C373.718 545.048 356.625 555.4 349.574 553.846" stroke="#D1D4D8" stroke-width="3" stroke-linecap="round"/>
<path d="M364 529.043C370.637 525.146 382.429 523.451 386.963 533.617C391.497 543.784 380.326 557 369.603 557" stroke="#D1D4D8" stroke-width="3" stroke-linecap="round"/>
<path d="M326.116 613C323.387 616.731 323.954 626.354 348 635" stroke="#D1D4D8" stroke-width="3" stroke-linecap="round"/>
<path d="M389 593.167C363.008 588.162 336.332 586.307 326.225 586.004C320.805 585.843 314.785 590.471 317.812 595.711C318.65 597.053 321.283 600.035 325.097 601.236C341.291 606.511 348.199 606.98 355.33 607" stroke="#D1D4D8" stroke-width="3" stroke-linecap="round"/>
<path d="M355 606.78C347.867 606.76 340.955 606.29 324.756 601C321.061 602.337 320.581 608.697 326.432 612.668C330.127 615.185 336.816 618.272 347.866 622" stroke="#D1D4D8" stroke-width="3" stroke-linecap="round"/>
<path d="M265 319C345.825 351.095 410.277 445.405 402.337 574.773C401.179 593.041 391.723 630.865 363.169 636" stroke="#D1D4D8" stroke-width="3" stroke-linecap="round"/>
</svg>
