<svg width="2184" height="1417" viewBox="0 0 2184 1417" fill="none" xmlns="http://www.w3.org/2000/svg">
<path d="M1740.5 1291.27C1862.55 1291.27 1961.5 1192.32 1961.5 1070.27C1961.5 948.215 1862.55 849.27 1740.5 849.27C1618.45 849.27 1519.5 948.215 1519.5 1070.27C1519.5 1192.32 1618.45 1291.27 1740.5 1291.27Z" stroke="#D1D4D8" stroke-width="3"/>
<path d="M1933.89 876.875C1895.64 838.625 1846.91 812.577 1793.86 802.024C1740.8 791.471 1685.81 796.887 1635.84 817.588C1585.86 838.288 1543.15 873.343 1513.09 918.32C1483.04 963.297 1467 1016.18 1467 1070.27" stroke="#D1D4D8" stroke-width="3" stroke-linecap="round"/>
<path d="M1740.5 1144.27C1781.37 1144.27 1814.5 1111.14 1814.5 1070.27C1814.5 1029.4 1781.37 996.27 1740.5 996.27C1699.63 996.27 1666.5 1029.4 1666.5 1070.27C1666.5 1111.14 1699.63 1144.27 1740.5 1144.27Z" stroke="#D1D4D8" stroke-width="3"/>
<path d="M1740.5 1269.27C1850.4 1269.27 1939.5 1180.17 1939.5 1070.27C1939.5 960.365 1850.4 871.27 1740.5 871.27C1630.6 871.27 1541.5 960.365 1541.5 1070.27C1541.5 1180.17 1630.6 1269.27 1740.5 1269.27Z" stroke="#D1D4D8" stroke-width="3"/>
<path d="M1740.5 1035.77C1759.55 1035.77 1775 1051.22 1775 1070.27C1775 1089.32 1759.55 1104.77 1740.5 1104.77C1721.45 1104.77 1706 1089.32 1706 1070.27C1706 1051.22 1721.45 1035.77 1740.5 1035.77Z" fill="#D1D4D8"/>
<path d="M974 601.769C990 595.935 1017.72 606.05 1028 632.769C1043 671.769 1091.5 688.269 1110.5 688.269" stroke="#D1D4D8" stroke-width="3" stroke-linecap="square"/>
<path d="M483.5 1291.27C605.555 1291.27 704.5 1192.32 704.5 1070.27C704.5 948.215 605.555 849.27 483.5 849.27C361.445 849.27 262.5 948.215 262.5 1070.27C262.5 1192.32 361.445 1291.27 483.5 1291.27Z" stroke="#D1D4D8" stroke-width="3"/>
<path d="M675 874.981C636.75 836.732 589.911 812.577 536.857 802.024C483.803 791.471 428.812 796.887 378.836 817.588C328.86 838.288 286.146 873.343 256.093 918.32C226.04 963.297 210 1016.18 210 1070.27" stroke="#D1D4D8" stroke-width="3" stroke-linecap="round"/>
<path d="M483.5 1144.27C524.369 1144.27 557.5 1111.14 557.5 1070.27C557.5 1029.4 524.369 996.27 483.5 996.27C442.631 996.27 409.5 1029.4 409.5 1070.27C409.5 1111.14 442.631 1144.27 483.5 1144.27Z" stroke="#D1D4D8" stroke-width="3"/>
<path d="M483.5 1269.27C593.405 1269.27 682.5 1180.17 682.5 1070.27C682.5 960.365 593.405 871.27 483.5 871.27C373.595 871.27 284.5 960.365 284.5 1070.27C284.5 1180.17 373.595 1269.27 483.5 1269.27Z" stroke="#D1D4D8" stroke-width="3"/>
<path d="M483.5 1035.77C502.554 1035.77 518 1051.22 518 1070.27C518 1089.32 502.554 1104.77 483.5 1104.77C464.446 1104.77 449 1089.32 449 1070.27C449 1051.22 464.446 1035.77 483.5 1035.77Z" fill="#D1D4D8"/>
<path d="M499.5 1047.27L705.5 847.269" stroke="#D1D4D8" stroke-width="3" stroke-linecap="square"/>
<path d="M798.5 1073.77L644 703.269" stroke="#D1D4D8" stroke-width="3" stroke-linecap="square"/>
<path d="M499.5 1073.77H798.5H819H1247" stroke="#D1D4D8" stroke-width="3" stroke-linecap="square"/>
<path d="M819 1073.77C838.733 1002.49 998 813.5 1322.5 786" stroke="#D1D4D8" stroke-width="3" stroke-linecap="square"/>
<path d="M1570.5 743.769C1523 750.269 1510 786 1433 779" stroke="#D1D4D8" stroke-width="3" stroke-linecap="square"/>
<path d="M720 223.769L696 242.769" stroke="#D1D4D8" stroke-width="3" stroke-linecap="round"/>
<path d="M571.001 613.768C543.029 523.492 551.001 429.269 581.501 355.768C598.501 310.269 639.001 268.769 659.001 256.769C692.114 236.901 716.001 242.102 727.501 248.768C739.835 256.102 767.301 277.468 778.501 304.268" stroke="#D1D4D8" stroke-width="3" stroke-linecap="round"/>
<path d="M570.999 613.769C568.665 598.102 598.297 564.369 735.497 550.769" stroke="#D1D4D8" stroke-width="3" stroke-linecap="round"/>
<path d="M736.5 550.769C723.666 531.935 698.499 489.169 726.499 440.769" stroke="#D1D4D8" stroke-width="3" stroke-linecap="round"/>
<path d="M735.999 303.27C712.5 306.269 695.951 332.16 707.999 377.274C731.5 465.269 737.499 471.274 763.499 507.774C784.299 536.974 864.833 578.274 902.499 595.274" stroke="#D1D4D8" stroke-width="3" stroke-linecap="round"/>
<path d="M903.5 595.269C907.667 592.602 916 583.769 916 569.769" stroke="#D1D4D8" stroke-width="3" stroke-linecap="round"/>
<path d="M778.5 303.269C785.167 354.769 802.3 461.969 817.5 478.769C832.7 495.569 889.833 546.102 916.5 569.269" stroke="#D1D4D8" stroke-width="3" stroke-linecap="round"/>
<path d="M720 223.769C734.667 231.102 766.5 251.169 774.5 274.769" stroke="#D1D4D8" stroke-width="3" stroke-linecap="round"/>
<path d="M774.5 274.769L775.5 296.769" stroke="#D1D4D8" stroke-width="3" stroke-linecap="round"/>
<path d="M876.5 938.269L934.5 787.269L896.5 797.269L860 807.769C882.4 858.969 862 913.269 857 938.269C861.8 941.069 872 939.435 876.5 938.269Z" fill="#D1D4D8"/>
<path d="M582.501 695.769C564.101 672.569 585.334 656.102 598.001 650.769C611.501 664.269 625.001 668.769 632.001 670.769L654.001 700.269C609.201 707.869 587.26 701.769 582.501 695.769Z" fill="#D1D4D8"/>
<path d="M631.5 670.769C588.7 658.369 577.667 619.269 577.5 601.269C605.9 567.669 696 554.269 737.5 551.769L913 627.269L936 638.269C973.6 663.069 955.333 729.935 941.5 760.269L858.5 782.269C860 767.602 866.075 733.847 868.5 720.269C871 706.269 863 704.769 859 703.269L790.795 683.269C817.51 732.247 846.857 785.599 859 806.269C877.8 838.269 873.167 878.269 868.5 894.269L804 1131.27C770.8 1144.47 749.833 1127.1 743.5 1116.77L774 861.269L631.5 670.769Z" fill="#D1D4D8"/>
<path d="M953.5 625.981C958.333 625.577 967.6 621.469 966 608.269C965.5 603.769 957 594.269 943.5 590.769L918.5 571.269" stroke="#D1D4D8" stroke-width="3" stroke-linecap="round"/>
<path d="M945 628.976C947.351 629.787 951.169 629.719 953.5 625.981C954.804 623.889 955.644 620.648 955.5 615.769" stroke="#D1D4D8" stroke-width="3" stroke-linecap="round"/>
<path d="M935.5 634.781C938.236 634.669 942.638 633.233 945 628.976C946.235 626.75 946.912 623.752 946.5 619.769" stroke="#D1D4D8" stroke-width="3" stroke-linecap="round"/>
<path d="M905 595.269C910.167 602.102 917.4 615.769 925 619.769C923.667 624.769 927.1 636.069 931.5 637.269C933.377 637.78 934.653 636.612 935.5 634.781C936.638 632.319 937 628.658 937 626.269" stroke="#D1D4D8" stroke-width="3" stroke-linecap="round"/>
<path d="M746 1117.27C745 1122.6 736.373 1136.65 730.939 1150.62C725.439 1164.77 724.939 1181.27 735 1182.27L848.5 1181.27C859 1181.27 859.5 1166.77 849.5 1164.77C828 1161.27 793.7 1158.17 786.5 1135.77" stroke="#D1D4D8" stroke-width="3" stroke-linecap="round"/>
<path d="M832.5 1182.77H746.5C740.701 1182.77 736 1187.47 736 1193.27C736 1199.07 740.701 1203.77 746.5 1203.77H832.5C838.299 1203.77 843 1199.07 843 1193.27C843 1187.47 838.299 1182.77 832.5 1182.77Z" fill="#D1D4D8"/>
<path d="M1263.65 1174.75L1180.58 1152.49C1174.98 1150.99 1169.22 1154.31 1167.72 1159.91C1166.22 1165.51 1169.55 1171.27 1175.15 1172.77L1258.22 1195.03C1263.82 1196.53 1269.58 1193.21 1271.08 1187.61C1272.58 1182 1269.25 1176.25 1263.65 1174.75Z" fill="#D1D4D8"/>
<path d="M1416.5 1044.77H1330.5C1324.7 1044.77 1320 1049.47 1320 1055.27C1320 1061.07 1324.7 1065.77 1330.5 1065.77H1416.5C1422.3 1065.77 1427 1061.07 1427 1055.27C1427 1049.47 1422.3 1044.77 1416.5 1044.77Z" fill="#D1D4D8"/>
<path d="M1187.5 1099.27C1177.5 1107.94 1161.1 1130.57 1175.5 1151.77L1268.5 1176.27C1282.67 1179.94 1310.9 1182.37 1310.5 1162.77C1310.67 1156.44 1303.2 1143.07 1272 1140.27" stroke="#D1D4D8" stroke-width="3" stroke-linecap="round"/>
<path d="M843.344 986.651L899.64 1001.92C905.237 1003.43 908.544 1009.2 907.026 1014.8C905.509 1020.4 899.741 1023.7 894.144 1022.18L837.848 1006.92L843.344 986.651Z" fill="#D1D4D8"/>
<path d="M870.5 938.769C869 949 869.5 973.847 897.5 979.769C906.167 981.602 921.453 984.86 922.496 990.769C924.173 1000.27 912.667 1002.44 905.5 1001.77L857 989.269L844.5 985.269" stroke="#D1D4D8" stroke-width="3" stroke-linecap="round"/>
<path d="M1132.83 743.269C983.099 749.269 784.555 815.435 704 847.769" stroke="#D1D4D8" stroke-width="3" stroke-linecap="round"/>
<path d="M1100 647.269L1132.83 743.269L1246 1071.77" stroke="#D1D4D8" stroke-width="3" stroke-linecap="round"/>
<path d="M1506.5 575.269L1733.5 1065.27" stroke="#D1D4D8" stroke-width="3" stroke-linecap="round"/>
<path d="M1507.5 577.269C1503 567.27 1495.5 564.268 1473 566.268" stroke="#D1D4D8" stroke-width="3" stroke-linecap="square"/>
<path d="M1243 1149.77C1273.93 1149.77 1299 1124.7 1299 1093.77C1299 1062.84 1273.93 1037.77 1243 1037.77C1212.07 1037.77 1187 1062.84 1187 1093.77C1187 1124.7 1212.07 1149.77 1243 1149.77Z" fill="#D1D4D8"/>
<path d="M801 1149.77C831.928 1149.77 857 1124.7 857 1093.77C857 1062.84 831.928 1037.77 801 1037.77C770.072 1037.77 745 1062.84 745 1093.77C745 1124.7 770.072 1149.77 801 1149.77Z" fill="#D1D4D8"/>
<path d="M1254 1084.27L1355.5 1058.77" stroke="#D1D4D8" stroke-width="3" stroke-linecap="round"/>
<path d="M1226.5 982.269C1226.67 948.102 1233 861.769 1245.5 816.769L1249.5 802.769L1218.5 777.269C1197 759.602 1156.9 715.069 1118.5 648.269" stroke="#D1D4D8" stroke-width="3" stroke-linecap="round"/>
<path d="M1042 601.769C1092.83 635.935 1241.6 705.469 1356 708.269" stroke="#D1D4D8" stroke-width="3" stroke-linecap="round"/>
<path d="M1335.5 708.769V758.269V789.769C1336.5 848.269 1312.5 973.269 1331.5 973.269L1362.5 974.269C1374.5 973.269 1389.5 970.769 1395 941.769L1401 900.769C1405 869.102 1417.5 802.769 1422 773.269L1426.5 742.269C1430 717.269 1436.4 668.369 1416 646.769C1395.6 625.169 1254.5 559.769 1186.5 529.769C1166.83 527.435 1119.6 530.769 1088 562.769C1056.4 594.769 1042.83 601.102 1040 600.269" stroke="#D1D4D8" stroke-width="3" stroke-linecap="round"/>
<path d="M1298.5 704.269C1308.5 715.269 1338.5 737 1332 783.269L1330 822.269C1328 876.769 1303 973.769 1280.5 1017.77L1266 1045.27" stroke="#D1D4D8" stroke-width="3" stroke-linecap="round"/>
<path d="M1040.5 627.269C1038.9 619.669 1044.5 611.769 1047.5 608.769L1127 649.769C1118.83 649.769 1099.6 650.169 1088 651.769C1076.4 653.369 1062.83 651.102 1057.5 649.769C1052.5 645.435 1042.1 634.869 1040.5 627.269Z" fill="#D1D4D8"/>
<path d="M1113 233.769C984.199 332.969 1009.33 519.435 1038 600.269C1045 596.602 1066 582.869 1094 557.269C1122 531.669 1167.33 527.602 1186.5 528.769C1166.5 456.369 1171.83 424.269 1177 417.269C1192.83 440.935 1226.6 491.869 1235 506.269C1243.4 520.669 1332.17 554.269 1375.5 569.269C1388.7 541.269 1401.33 526.935 1406 523.269C1386 488.469 1316.33 454.102 1284 441.269C1248.5 340.769 1202.5 301.269 1190.5 268.269C1180.9 241.869 1146.17 221.935 1130 215.269L1113 233.769Z" fill="#D1D4D8"/>
<path d="M1378.5 559.769C1388.67 567.435 1409.5 586.569 1411.5 601.769C1413.41 616.269 1459.3 600.569 1462.5 573.769C1463.33 568.769 1462.8 557.869 1454 554.269C1441.33 547.935 1413.6 533.169 1404 524.769" stroke="#D1D4D8" stroke-width="3" stroke-linecap="round"/>
<path d="M1379 971.269C1379.5 982.269 1385 1005.17 1403 1008.77C1425.5 1013.27 1447.44 1017.15 1452.5 1027.27C1455.5 1033.27 1452.5 1043.27 1438 1043.27H1323.5C1321 1041.27 1314.85 1025.03 1319.5 1012.77C1325 998.269 1329.5 996.769 1334 973.769" stroke="#D1D4D8" stroke-width="3" stroke-linecap="round"/>
<path d="M571.5 614.269C572.5 614.769 576 614.269 579.5 610.769" stroke="#D1D4D8" stroke-width="3" stroke-linecap="round"/>
<path d="M1102 1282.13C1135.17 1266.46 1215.9 1236.13 1273.5 1240.13C1281.67 1240.46 1294 1243.93 1278 1255.13C1262 1266.33 1254 1272.13 1252 1273.63C1243.67 1280.63 1235.5 1295.43 1269.5 1298.63C1312 1302.63 1432 1259.13 1669.5 1291.13" stroke="#D1D4D8" stroke-width="3" stroke-linecap="round"/>
<path d="M48 1375.11C63.3122 1367.96 100.585 1354.11 127.177 1355.93C130.947 1356.09 136.641 1357.67 129.255 1362.78C121.868 1367.9 118.174 1370.55 117.251 1371.23C113.404 1374.43 109.633 1381.19 125.33 1382.65C144.952 1384.48 200.352 1364.61 310 1379.22" stroke="#D1D4D8" stroke-width="3" stroke-linecap="round"/>
<path d="M1134.28 194.912C1132.5 202.269 1133 208.769 1134.28 218.912" stroke="#D1D4D8" stroke-width="3" stroke-linecap="round"/>
<path d="M1198.78 88.9121C1214.61 101.579 1239.48 129.412 1212.28 139.412C1217.61 155.412 1218.78 193.712 1180.78 218.912L1173 244.269" stroke="#D1D4D8" stroke-width="3" stroke-linecap="round"/>
<path d="M1184.28 178.912C1183.78 181.912 1185.08 188.112 1194.28 188.912" stroke="#D1D4D8" stroke-width="3" stroke-linecap="round"/>
<path d="M1211.28 117.412C1211.28 123.016 1209.63 127.988 1207.07 131.498C1204.52 135.01 1201.2 136.912 1197.78 136.912C1194.36 136.912 1191.04 135.01 1188.49 131.498C1185.94 127.988 1184.28 123.016 1184.28 117.412C1184.28 111.808 1185.94 106.836 1188.49 103.326C1191.04 99.814 1194.36 97.9121 1197.78 97.9121C1201.2 97.9121 1204.52 99.814 1207.07 103.326C1209.63 106.836 1211.28 111.808 1211.28 117.412Z" stroke="#D1D4D8" stroke-width="3" stroke-linecap="round"/>
<path d="M1152.78 132.412L1183.78 122.412" stroke="#D1D4D8" stroke-width="3" stroke-linecap="round"/>
<path d="M1176.28 111.912C1177.11 108.579 1180.18 100.912 1185.78 96.9121" stroke="#D1D4D8" stroke-width="3" stroke-linecap="round"/>
<path d="M1199.5 121.854C1202.26 121.854 1204.5 119.615 1204.5 116.854C1204.5 114.093 1202.26 111.854 1199.5 111.854C1196.74 111.854 1194.5 114.093 1194.5 116.854C1194.5 119.615 1196.74 121.854 1199.5 121.854Z" fill="#D1D4D8"/>
<path d="M1180.28 150.412C1181.11 150.412 1181.78 149.741 1181.78 148.912C1181.78 148.084 1181.11 147.412 1180.28 147.412C1179.45 147.412 1178.78 148.084 1178.78 148.912C1178.78 149.741 1179.45 150.412 1180.28 150.412Z" fill="#D1D4D8"/>
<path d="M1186.28 158.412C1187.11 158.412 1187.78 157.741 1187.78 156.912C1187.78 156.084 1187.11 155.412 1186.28 155.412C1185.45 155.412 1184.78 156.084 1184.78 156.912C1184.78 157.741 1185.45 158.412 1186.28 158.412Z" fill="#D1D4D8"/>
<path d="M1171.28 161.412C1172.11 161.412 1172.78 160.741 1172.78 159.912C1172.78 159.084 1172.11 158.412 1171.28 158.412C1170.45 158.412 1169.78 159.084 1169.78 159.912C1169.78 160.741 1170.45 161.412 1171.28 161.412Z" fill="#D1D4D8"/>
<path d="M1100 89.3866L1100.99 89.5709L1101.54 88.7291C1117.16 64.6717 1135.71 48.7627 1153.53 40.6523C1171.36 32.5359 1188.34 32.2682 1201.06 39.228C1206.01 41.938 1208.62 45.6078 1209.69 49.7649C1210.77 53.9825 1210.3 58.8392 1208.79 63.8951C1205.99 73.2749 1199.75 82.9037 1194.4 89.4371L1184.52 75.0623L1183.09 72.9925L1181.94 75.2269C1178.51 81.909 1171.88 84.1477 1164.42 84.2121C1156.95 84.2766 1149.04 82.1396 1143.73 80.4803L1140.46 79.4584L1141.92 82.5549C1151 101.692 1165.4 151.018 1135.04 195.567C1104.6 240.232 1066.8 240.607 1048.13 228.177C1039.3 221.876 1027.68 210.239 1021.27 194.63C1014.88 179.076 1013.62 159.504 1025.6 137.12C1049.7 92.0919 1085.48 86.6742 1100 89.3866Z" stroke="#D1D4D8" stroke-width="3"/>
<path d="M768.439 260.625C770.439 254.625 771.194 250.125 772.764 245.005C774.688 238.728 841.571 242.269 851.947 169.503C871.169 169.503 881.435 153.637 866.691 147.072C850.964 139.193 851.963 124.379 854.694 115.625C859.063 104.136 859.194 92.125 858.194 89.625" stroke="#D1D4D8" stroke-width="3" stroke-linecap="round"/>
<path d="M838 144.854C840.485 144.854 842.5 141.944 842.5 138.354C842.5 134.764 840.485 131.854 838 131.854C835.515 131.854 833.5 134.764 833.5 138.354C833.5 141.944 835.515 144.854 838 144.854Z" fill="#D1D4D8"/>
<path d="M823.693 119.625C826.86 116.16 835.093 111.049 842.693 118.326" stroke="#D1D4D8" stroke-width="3" stroke-linecap="round"/>
<path d="M802.693 186.625C808.693 195.625 815.193 198.125 827.693 192.125" stroke="#D1D4D8" stroke-width="3" stroke-linecap="round"/>
<path d="M753.703 123.625C752.373 126.639 751.307 133.46 757.693 136.625" stroke="#D1D4D8" stroke-width="3" stroke-linecap="round"/>
<path d="M687.174 93.8774L685.695 93.625L687.174 93.8774C691.858 66.4369 706.791 51.4814 722.848 43.9168C739 36.3073 756.325 36.1651 765.598 38.4971L766.309 38.676L766.887 38.2244C780.812 27.3442 799.171 15.8427 818.442 9.36485C837.721 2.88418 857.716 1.49141 875.119 10.5114C885.641 15.965 891.067 22.4058 893.151 29.1168C895.242 35.8511 894.06 43.1511 890.76 50.4911C884.178 65.1332 869.43 79.3312 857.665 88.0031C851.71 89.6848 841.648 91.4219 830.621 91.2016C819.423 90.9779 807.384 88.7392 797.641 82.5281C792.518 79.2625 788.398 78.0373 785.157 78.7571C781.763 79.5107 779.882 82.2432 778.937 85.4426C777.994 88.6331 777.87 92.5945 778.159 96.514C778.433 100.235 779.09 104.027 779.862 107.281L771.25 122.585C769.458 116.642 766.039 110.46 761.573 106.461C758.844 104.018 755.631 102.31 752.085 102.096C748.505 101.879 744.818 103.199 741.207 106.376C737.909 109.277 736.488 113.671 736.266 118.401C736.044 123.148 737.013 128.43 738.713 133.407C740.414 138.388 742.876 143.151 745.717 146.856C748.519 150.51 751.862 153.358 755.392 154.093L755.697 152.625L755.392 154.093C756.534 154.331 756.684 154.714 756.724 154.853C756.813 155.169 756.765 155.88 756.095 157.145C754.792 159.603 751.794 162.943 747.717 166.658C739.972 173.717 728.861 181.662 720.116 186.665C719.822 186.266 719.526 185.864 719.229 185.461C702.135 162.236 680.518 132.868 687.174 93.8774Z" stroke="#D1D4D8" stroke-width="3"/>
<path d="M721.193 186.125C726.693 195.792 730.893 209.525 729.693 227.125" stroke="#D1D4D8" stroke-width="3" stroke-linecap="round"/>
<path d="M513.77 1414V1393" stroke="#D1D4D8" stroke-width="3" stroke-linecap="round"/>
<path d="M495 1404.67L506.45 1414" stroke="#D1D4D8" stroke-width="3" stroke-linecap="round"/>
<path d="M521.41 1414L530 1400.33" stroke="#D1D4D8" stroke-width="3" stroke-linecap="round"/>
<path d="M21.7695 1167V1146" stroke="#D1D4D8" stroke-width="3" stroke-linecap="round"/>
<path d="M3 1157.67L14.45 1167" stroke="#D1D4D8" stroke-width="3" stroke-linecap="round"/>
<path d="M29.4102 1167L38.0001 1153.33" stroke="#D1D4D8" stroke-width="3" stroke-linecap="round"/>
<path d="M1055 1153V1123" stroke="#D1D4D8" stroke-width="3" stroke-linecap="round"/>
<path d="M1028 1140L1044 1153" stroke="#D1D4D8" stroke-width="3" stroke-linecap="round"/>
<path d="M1066 1153L1078 1133" stroke="#D1D4D8" stroke-width="3" stroke-linecap="round"/>
<path d="M2164.77 1290V1269" stroke="#D1D4D8" stroke-width="3" stroke-linecap="round"/>
<path d="M2146 1280.67L2157.45 1290" stroke="#D1D4D8" stroke-width="3" stroke-linecap="round"/>
<path d="M2172.41 1290L2181 1276.33" stroke="#D1D4D8" stroke-width="3" stroke-linecap="round"/>
</svg>
