<svg width="952" height="725" viewBox="0 0 952 725" fill="none" xmlns="http://www.w3.org/2000/svg">
<path d="M560.619 422.608C543.077 446.917 491.681 484.194 413.579 453.498C397.579 447.209 371.493 437.884 353.579 422.497C332.198 486.072 305.006 492.744 291.841 492.503C291.663 492.5 291.483 492.468 291.312 492.416C241.297 477.099 274.314 421.451 297.121 395.498C275.105 401.798 245.576 408.968 207.796 398.694C207.337 398.57 206.938 398.29 206.675 397.893C194.306 379.2 182.097 342.789 229.579 341.997C277.3 341.202 305.582 338.364 313.935 337.021C314.037 337.004 314.124 336.998 314.227 336.995C317.535 336.893 331.197 334.218 335.079 334.499C364.791 312.71 397.936 304.655 441.314 312.271C442.081 312.406 442.704 312.982 442.91 313.733C458.406 370.078 525.558 407.143 559.678 419.639C560.903 420.088 561.382 421.55 560.619 422.608Z" fill="#D1D4D8"/>
<path d="M186.206 361.195C178.831 363.813 165.747 362.311 160.08 352.437C153.858 341.596 146.44 332.287 140.436 327.853C135.863 325.443 127.074 325.906 128.503 347.039C129.932 368.172 138.458 386.215 142.543 392.596C144.823 395.899 152.42 401.57 164.569 397.826C176.717 394.082 184.218 392.352 186.45 391.955" stroke="#D1D4D8" stroke-width="3" stroke-linecap="round"/>
<path d="M269.694 495.966C257.197 510.074 231.863 541.14 235.224 549.166C238.585 557.191 251.751 548.73 257.914 543.496C266.732 536.157 288.05 516.487 296.485 501.02" stroke="#D1D4D8" stroke-width="3" stroke-linecap="round"/>
<path d="M165.205 622.275C160.372 611.942 157.205 596.275 130.705 585.275C126.205 583.608 113.205 572.961 129.705 570.275C136.705 569.135 139.205 570.775 146.705 572.961C156.205 578.275 153.705 576.775 161.705 583.775" stroke="#D1D4D8" stroke-width="3" stroke-linecap="round"/>
<path d="M146.706 572.961C146.372 566.399 143.306 550.774 133.706 540.774C121.706 528.274 140.706 528.774 147.706 540.774C153.306 550.374 156.372 559.441 157.206 562.774" stroke="#D1D4D8" stroke-width="3" stroke-linecap="round"/>
<path d="M147.705 540.775C149.372 532.775 155.205 522.175 165.205 543.775C165.999 545.546 167.111 548.088 168.241 550.774C170.193 555.418 172.198 560.494 172.705 562.775" stroke="#D1D4D8" stroke-width="3" stroke-linecap="round"/>
<path d="M168.24 550.775C172.819 543.583 182.445 536.449 187.087 559.775C187.502 561.858 187.877 564.184 188.204 566.775" stroke="#D1D4D8" stroke-width="3" stroke-linecap="round"/>
<path d="M187.088 559.774C190.627 554.774 198.405 551.874 201.205 580.274C204.005 608.674 205.039 618.774 205.205 620.274" stroke="#D1D4D8" stroke-width="3" stroke-linecap="round"/>
<path d="M182.704 723.275C182.038 720.275 178.504 701.775 169.704 651.775C160.904 601.775 189.704 609.941 205.204 620.275C209.871 629.608 220.104 654.675 223.704 680.275" stroke="#D1D4D8" stroke-width="3" stroke-linecap="round"/>
<path d="M391.705 591.774C390.155 585.151 389.59 573.529 386.806 568.558C384.335 564.147 379.205 567.774 377.705 572.274C373.205 584.774 362.514 617.274 378.376 663.274" stroke="#D1D4D8" stroke-width="3" stroke-linecap="round"/>
<path d="M391.705 591.774C390.155 585.151 389.59 573.529 386.806 568.558C384.705 542.274 400.603 531.274 404.603 558.274" stroke="#D1D4D8" stroke-width="3" stroke-linecap="round"/>
<path d="M407.205 583.774C405.872 570.274 400.105 543.974 411.705 540.774C418.101 539.01 420.332 544.359 420.627 551.274C420.868 556.901 419.827 563.564 418.705 568.274" stroke="#D1D4D8" stroke-width="3" stroke-linecap="round"/>
<path d="M373.206 718.274C371.54 702.082 371.724 678.256 378.377 663.274C379.647 660.414 381.154 657.875 382.928 655.774C388.599 649.06 397.008 646.811 409.206 652.774C417.206 656.685 421.206 670.774 421.206 697.274" stroke="#D1D4D8" stroke-width="3" stroke-linecap="round"/>
<path d="M420.627 551.274C426.653 548.608 436.505 548.274 427.705 568.274C418.905 588.274 427.047 590.941 435.214 588.274" stroke="#D1D4D8" stroke-width="3" stroke-linecap="round"/>
<path d="M426.205 600.274C433.205 589.108 447.805 571.474 458.205 582.274C460.538 584.608 461.905 591.874 448.705 598.274C435.505 604.674 426.872 634.608 424.205 649.274" stroke="#D1D4D8" stroke-width="3" stroke-linecap="round"/>
<path d="M535.914 723.02C534.572 709.848 536.8 688.913 551.414 684.114M587.414 720.52C587.014 699.72 577.581 689.186 572.914 686.52C563.793 682.764 556.771 682.355 551.414 684.114M551.414 684.114C551.914 676.249 554.414 657.02 549.414 643.02C543.615 626.783 534.914 592.02 551.414 599.02C554.58 600.519 560.414 606.519 558.414 618.519C555.914 633.519 566.914 630.519 568.914 622.519C570.914 614.519 570.414 576.019 582.914 577.019C592.914 577.819 592.58 596.114 589.414 604.615M586.414 617.52C589.414 595.02 603.009 576.815 611.414 584.52C614.765 587.592 613.186 594.616 609.745 602.02M599.611 618.519C603.143 613.958 607.025 607.87 609.745 602.02M607.414 630.02C613.914 625.52 617.142 619 623.08 614M623.08 614C625.58 610.5 630.08 603.98 625.58 599.5C622.902 596.833 615.08 593.5 609.745 602.02M623.08 614C628.393 614.333 636.603 621.22 623.852 632.02C607.914 645.52 592.414 670.52 590.414 686.52" stroke="#D1D4D8" stroke-width="3" stroke-linecap="round"/>
<path d="M535.914 723.02C534.572 709.848 536.8 688.913 551.414 684.114C556.771 682.355 563.793 682.764 572.914 686.52C577.581 689.186 587.014 699.72 587.414 720.52" stroke="#D1D4D8" stroke-width="3" stroke-linecap="round"/>
<path d="M623.08 614C628.393 614.333 636.603 621.22 623.853 632.02C607.914 645.52 592.414 670.52 590.414 686.52" stroke="#D1D4D8" stroke-width="3" stroke-linecap="round"/>
<path d="M607.414 630.02C613.914 625.52 617.142 619 623.08 614C625.58 610.5 630.08 603.98 625.58 599.5C622.902 596.833 615.08 593.5 609.745 602.02" stroke="#D1D4D8" stroke-width="3" stroke-linecap="round"/>
<path d="M586.414 617.52C589.414 595.02 603.009 576.815 611.414 584.52C614.766 587.592 613.187 594.616 609.745 602.02C607.026 607.87 603.143 613.958 599.612 618.519" stroke="#D1D4D8" stroke-width="3" stroke-linecap="round"/>
<path d="M551.413 684.114C551.913 676.249 554.413 657.02 549.413 643.02C543.615 626.783 534.913 592.02 551.413 599.02C554.58 600.519 560.413 606.519 558.413 618.519C555.913 633.519 566.913 630.519 568.913 622.519C570.913 614.519 570.413 576.019 582.913 577.019C592.913 577.819 592.58 596.114 589.413 604.615" stroke="#D1D4D8" stroke-width="3" stroke-linecap="round"/>
<path d="M8.87305 339.053C5.87615 342.669 3.54185 352.915 18.1798 364.973" stroke="#D1D4D8" stroke-width="3" stroke-linecap="round"/>
<path d="M19.5977 346.467C17.023 352.799 15.0336 368.58 27.6734 381.047" stroke="#D1D4D8" stroke-width="3" stroke-linecap="round"/>
<path d="M44.1719 389.282C39.2267 392.996 35.3234 416.675 59.272 481.678" stroke="#D1D4D8" stroke-width="3" stroke-linecap="round"/>
<path d="M30.8418 366.687C26.7243 374.936 22.8038 394.715 40.0619 407.839" stroke="#D1D4D8" stroke-width="3" stroke-linecap="round"/>
<path d="M565.58 493.5C582.08 491 620.78 476.2 643.58 437" stroke="#D1D4D8" stroke-width="3" stroke-linecap="round"/>
<path d="M641.08 473C647.413 471.333 662.48 464.2 672.08 449" stroke="#D1D4D8" stroke-width="3" stroke-linecap="round"/>
<path d="M218.08 88.5C235.913 96.1667 257.58 127 219.08 135C211.08 136.662 207.08 126.357 213.08 121.5C232.426 105.839 270.989 161.795 236.58 179C210.58 192 212.58 151 239.08 165C265.58 179 277.08 213 253.58 228" stroke="#D1D4D8" stroke-width="3" stroke-linecap="round"/>
<path d="M895.58 431C906.58 422.834 924.971 398.586 912.08 386.5C904.08 379 892.255 387.245 897.58 395.5C907.58 411 927.413 381.113 934.08 367C936.413 360.5 938.58 345.5 927.08 345.5C912.58 345.5 915.58 369 931.58 365.5C943.344 362.927 952.58 340.5 949.58 313.5" stroke="#D1D4D8" stroke-width="3" stroke-linecap="round"/>
<path d="M441.185 309.871C448.104 306.255 463.196 300.61 470.986 278.736C472.461 275.879 473.447 272.714 474.871 269.643C502.908 209.136 560.91 222.245 573.32 221.749" stroke="#D1D4D8" stroke-width="3" stroke-linecap="round"/>
<path d="M470.987 278.736C453.281 272.688 426.953 257.196 410.501 222.116C394.049 187.036 463.941 105.634 480.012 102.473C492.868 99.9443 499.073 101.321 499.902 108.688C502.262 147.83 493.351 164.766 480.098 193.788C475.442 203.983 474.381 210.516 481.108 210.469C500.509 206.931 547.595 204.479 580.729 222.976" stroke="#D1D4D8" stroke-width="3" stroke-linecap="round"/>
<path d="M573.321 221.749C576.149 221.635 578.465 222.049 580.345 222.769C585.061 224.577 587.025 228.32 587.431 230.532C589.87 239.137 601.347 256.011 627.74 254.665C644.337 255.718 673.274 271.999 656.251 328.701" stroke="#D1D4D8" stroke-width="3" stroke-linecap="round"/>
<path d="M627.104 354.088C644.369 342.842 684.122 322.214 705.017 329.678C725.912 337.143 722.112 355.821 717.6 364.228C707.783 382.892 676.746 421.967 631.126 428.949C574.101 437.676 552.61 388.917 577.868 339.458" stroke="#D1D4D8" stroke-width="3" stroke-linecap="round"/>
<path d="M771.495 323.151C774.368 324.815 777.267 330.068 765.874 337.76C751.633 347.375 734.889 349.797 721.773 350.261" stroke="#D1D4D8" stroke-width="3" stroke-linecap="round"/>
<path d="M768.481 311.689C771.745 312.545 776.918 316.037 771.498 323.151C769.752 325.195 765.348 329.171 761.688 328.721" stroke="#D1D4D8" stroke-width="3" stroke-linecap="round"/>
<path d="M747.272 318.862L763.585 302.617C764.693 301.606 767.73 300.187 771.018 302.602C775.127 305.621 769.62 309.971 768.48 311.688C767.568 313.063 762.191 317.654 759.618 319.779" stroke="#D1D4D8" stroke-width="3" stroke-linecap="round"/>
<path d="M734.269 316.31L748.989 304.429C750.958 302.632 755.97 300.358 760.259 305.65" stroke="#D1D4D8" stroke-width="3" stroke-linecap="round"/>
<path d="M705.385 329.341C708.902 322.069 718.054 307.621 726.114 301.618C730.685 298.213 734.238 294.202 738.011 296.851C743.459 300.678 736.642 306.464 735.553 311.958C735.499 313.124 735.137 314.743 734.271 316.311C732.863 318.857 730.125 321.27 725.213 321.396" stroke="#D1D4D8" stroke-width="3" stroke-linecap="round"/>
<path d="M500.304 107.645L510.643 98.2059L521.464 93.7441C525.809 91.5828 535.031 83.3907 529.975 77.8515C525.524 72.9755 520.301 76.8954 515.87 80.9406L512.266 85.8926" stroke="#D1D4D8" stroke-width="3" stroke-linecap="round"/>
<path d="M515.868 80.9405C516.727 76.1968 523.571 70.9612 530.639 67.4567C539.494 63.0667 536.686 54.7986 531.099 53.1283C526.63 51.7922 520.139 60.6516 516.762 64.8623" stroke="#D1D4D8" stroke-width="3" stroke-linecap="round"/>
<path d="M516.763 64.8627C520.14 60.652 526.631 51.7926 531.101 53.1287C532.271 49.4539 531.912 43.5185 528.453 41.3287C526.221 39.9154 523.048 39.3468 516.99 44.3457C514.277 49.5308 512.125 50.1406 510.696 58.2157" stroke="#D1D4D8" stroke-width="3" stroke-linecap="round"/>
<path d="M510.693 58.2147C512.123 50.1397 514.274 49.5299 516.988 44.3447C514.211 40.5608 507.238 36.185 501.56 48.9506L495.939 63.5591" stroke="#D1D4D8" stroke-width="3" stroke-linecap="round"/>
<path d="M501.562 48.9511C497.543 46.527 487.734 46.4099 480.642 65.3401C473.551 84.2702 477.759 97.5336 480.751 101.799" stroke="#D1D4D8" stroke-width="3" stroke-linecap="round"/>
<path d="M596.108 215.367L585.923 224.664C585.54 224.191 585.082 223.762 584.599 223.376C583.395 222.413 581.771 221.507 579.892 220.651C576.123 218.935 571.051 217.303 565.529 215.818C555.083 213.01 542.807 210.673 534.146 209.29C544.995 143.392 583.807 125.304 604.368 123.886C576.211 159.867 586.605 198.926 596.108 215.367Z" stroke="#D1D4D8" stroke-width="3"/>
<path d="M644.721 239.438C663.81 239.825 684.298 231.485 693.714 226.493C694.602 228.671 696.081 230.295 697.635 231.456C699.587 232.913 701.718 233.687 703.15 233.959L703.23 233.974L703.31 233.981C707.358 234.305 716.486 231.755 724.026 220.393C725.94 217.511 726.855 214.978 726.885 212.751C726.915 210.466 726.007 208.662 724.615 207.326C723.262 206.026 721.487 205.196 719.744 204.68C718.141 204.205 716.481 203.969 715.022 203.902L696.853 192.771C703.218 184.707 705.109 177.184 704.709 170.923C704.355 165.387 702.215 160.93 699.954 158.059C702.186 156.612 703.798 154.977 704.893 153.217C706.238 151.054 706.754 148.784 706.762 146.602C706.778 142.304 704.827 138.324 703.429 135.908L702.873 134.945L701.79 135.198C691.575 137.583 682.615 135.127 678.127 133.897C677.93 133.843 677.742 133.791 677.563 133.742C639.283 117.47 628.935 91.2449 630.907 70.4899L630.909 70.465L630.911 70.4401C631.564 59.8144 638.661 46.3573 649.888 37.1844C661.05 28.0638 676.113 23.3181 692.726 29.7093L692.781 29.7302L692.836 29.7468C698.57 31.4559 707.302 35.6918 714.669 42.7988C722.013 49.8829 727.954 59.7673 728.316 72.8405L728.345 73.909L729.365 74.2298C741.914 78.1786 750.411 84.5694 756.049 92.1714C761.699 99.7884 764.545 108.713 765.628 117.817C767.8 136.067 762.86 154.785 759.595 164.339L759.576 164.395L759.561 164.453L754.823 182.995L754.631 183.746L755.133 184.337C776.557 209.559 778.388 234.121 772.095 254.611C766.119 274.071 752.776 289.953 741.617 299.192C740.962 296.98 739.742 295.454 737.862 294.844C735.539 294.091 732.844 295.001 730.405 296.335C725.577 298.977 720.16 304.182 716.517 308.273C701.568 309.734 690.568 307.664 682.403 304.695C675.633 302.234 670.804 299.163 667.145 296.835C666.517 296.436 665.924 296.058 665.361 295.71C657.48 263.723 642.08 253.982 632.262 253.021L644.721 239.438Z" stroke="#D1D4D8" stroke-width="3"/>
<path d="M693.906 192.912C682.902 202.958 667.073 202.823 658.491 193.422C649.909 184.021 651.215 168.245 662.219 158.2C673.223 148.155 689.053 148.289 697.634 157.69C706.216 167.091 704.91 182.867 693.906 192.912Z" stroke="#D1D4D8" stroke-width="3"/>
<path d="M644.785 152.451C633.781 162.497 617.952 162.362 609.37 152.961C600.788 143.56 602.094 127.785 613.098 117.739C624.102 107.694 639.932 107.828 648.513 117.229C657.095 126.63 655.789 142.407 644.785 152.451Z" stroke="#D1D4D8" stroke-width="3"/>
<path d="M649.027 148.771L660.927 159.182" stroke="#D1D4D8" stroke-width="3" stroke-linecap="round"/>
<path d="M646.627 166.337C635.71 172.918 622.167 174.991 625.851 187.334" stroke="#D1D4D8" stroke-width="3" stroke-linecap="round"/>
<path d="M606.291 148.323C609.084 151.383 613.827 151.599 616.886 148.806C619.945 146.014 620.162 141.27 617.369 138.211C614.576 135.151 609.832 134.935 606.773 137.728C603.714 140.52 603.498 145.264 606.291 148.323Z" fill="#D1D4D8"/>
<path d="M654.738 188.046C657.531 191.106 662.274 191.321 665.333 188.529C668.393 185.736 668.609 180.993 665.816 177.933C663.024 174.874 658.28 174.658 655.221 177.45C652.161 180.243 651.945 184.987 654.738 188.046Z" fill="#D1D4D8"/>
<path d="M713.73 216.113C713.039 218.322 710.596 222.765 706.345 222.855" stroke="#D1D4D8" stroke-width="3" stroke-linecap="round"/>
<path d="M633.975 100.036C615.538 108.516 582.007 138.116 588.654 191.082C595.301 244.048 648.926 240.545 674.908 232.173L695.105 223.892C696.249 229.842 701.93 238.784 715.493 226.944C729.057 215.104 725.041 208.975 721.339 207.391C719.375 206.476 714.427 205.306 710.342 207.952" stroke="#D1D4D8" stroke-width="3" stroke-linecap="round"/>
<path d="M694.98 192.608L717.005 206.353" stroke="#D1D4D8" stroke-width="3" stroke-linecap="round"/>
<path d="M675.622 172.368C678.496 175.319 682.932 182.867 677.68 189.445" stroke="#D1D4D8" stroke-width="3" stroke-linecap="round"/>
<path d="M620.621 123.734C623.92 124.552 630.942 127.908 632.63 134.792" stroke="#D1D4D8" stroke-width="3" stroke-linecap="round"/>
<path d="M553.288 421.337C556.783 419.727 565.968 414.907 574.754 408.512" stroke="#D1D4D8" stroke-width="3" stroke-linecap="round"/>
<path d="M608.713 192.136C609.691 197.925 615.61 209.278 631.464 208.373" stroke="#D1D4D8" stroke-width="3" stroke-linecap="round"/>
</svg>
