<svg width="1552" height="1053" viewBox="0 0 1552 1053" fill="none" xmlns="http://www.w3.org/2000/svg">
<path d="M626.992 935.663C655.959 846.705 703.572 695.927 717.125 632.399C717.182 632.134 717.341 631.918 717.572 631.775C776.628 595.042 840.508 575.059 861.994 571.071C862.256 571.023 862.51 571.089 862.729 571.241C917.45 609.496 951.304 632.877 972.231 652.782C1025.45 703.403 1035.58 800.469 1034.65 863.649C1034.65 864.008 1034.45 864.327 1034.14 864.5L1012.2 876.621C1011.66 876.918 1010.99 876.663 1010.77 876.089C992.86 827.954 959.462 789.965 937.608 720.929C937.625 721.488 937.146 721.98 936.554 721.965C877.176 720.448 874.793 717.028 821.21 700.655C789.236 802.642 697.925 903.28 652.63 946.566C652.344 946.838 651.939 946.903 651.574 946.753L627.568 936.881C627.084 936.682 626.83 936.16 626.992 935.663Z" fill="#D1D4D8"/>
<path d="M788.439 346.408C793.439 338.908 847.806 318.916 827.653 248.231C845.21 240.404 848.126 221.732 831.986 221.739C814.413 220.948 809.294 207.01 808.224 197.903C807.535 185.63 802.765 174.607 800.834 172.731" stroke="#D1D4D8" stroke-width="3" stroke-linecap="round"/>
<path d="M802.025 230.656C804.342 229.623 804.964 225.968 803.415 222.493C801.865 219.017 798.731 217.037 796.414 218.07C794.097 219.103 793.475 222.758 795.024 226.233C796.574 229.709 799.708 231.689 802.025 230.656Z" fill="#D1D4D8"/>
<path d="M781.539 214.179C783.02 209.724 788.459 201.703 798.363 205.255" stroke="#D1D4D8" stroke-width="3" stroke-linecap="round"/>
<path d="M789.641 283.924C798.785 289.701 805.74 289.337 814.714 278.768" stroke="#D1D4D8" stroke-width="3" stroke-linecap="round"/>
<path d="M719.242 246.331C719.254 249.626 721.06 256.289 728.18 256.58" stroke="#D1D4D8" stroke-width="3" stroke-linecap="round"/>
<path d="M733.19 273.473L733.19 273.473C734.331 273.225 734.624 273.513 734.716 273.625C734.926 273.876 735.172 274.545 735.075 275.973C734.886 278.749 733.508 283.02 731.297 288.073C727.097 297.674 720.184 309.455 714.234 317.586C713.8 317.339 713.365 317.091 712.927 316.843C687.859 302.59 656.162 284.57 646.365 246.251C639.469 219.282 647.019 199.542 658.604 186.094C670.258 172.567 686.025 165.383 695.443 163.737L696.166 163.61L696.51 162.963C704.797 147.356 716.883 129.375 731.845 115.612C746.815 101.843 764.511 92.4289 784.078 93.5812C795.909 94.2779 803.487 97.9512 808.123 103.232C812.775 108.531 814.668 115.68 814.643 123.727C814.593 139.781 806.905 158.753 799.691 171.464C794.936 175.425 786.453 181.109 776.292 185.398C765.973 189.753 754.066 192.611 742.638 190.905C736.629 190.009 732.368 190.567 729.7 192.544C726.907 194.615 726.302 197.876 726.742 201.183C727.18 204.481 728.679 208.15 730.539 211.612C732.305 214.899 734.449 218.095 736.478 220.752L734.844 238.237C730.788 233.539 725.148 229.284 719.441 227.451C715.954 226.331 712.323 226.079 708.997 227.327C705.64 228.587 702.809 231.294 700.804 235.666C698.974 239.658 699.465 244.25 701.189 248.661C702.919 253.086 705.955 257.516 709.534 261.37C713.116 265.227 717.304 268.574 721.407 270.801C725.454 272.998 729.667 274.238 733.19 273.473Z" stroke="#D1D4D8" stroke-width="3"/>
<path d="M714.711 316.5C726.922 322.347 734.44 328.408 741.44 344.908" stroke="#D1D4D8" stroke-width="3" stroke-linecap="round"/>
<path d="M726.711 463.5C730.495 490.155 732.85 561.059 712.511 633.682C712.254 634.6 713.294 635.357 714.075 634.81C735.839 619.567 792.699 587.622 865.858 568.72C866.343 568.594 866.668 568.15 866.61 567.651C861.853 527.407 859.29 442.808 882.52 420.68C882.647 420.559 882.793 420.481 882.964 420.442C930.867 409.384 1032.51 374.155 1062.15 319.123C1062.19 319.041 1062.22 318.957 1062.24 318.866C1064.37 308.917 1065.83 288.6 1055.04 285.102C1054.83 285.033 1054.6 285.045 1054.39 285.129C983.641 313.738 904.788 337.435 803.44 355.408" stroke="#D1D4D8" stroke-width="3" stroke-linecap="round"/>
<path d="M726.712 497.5C678.312 550.3 633.274 570.408 598.941 585.408C574.955 597.636 522.941 606.408 546.212 568.5C646.212 443.7 668.212 422 691.712 400.5C705.209 388.152 711.212 380.5 745.212 371.5" stroke="#D1D4D8" stroke-width="3" stroke-linecap="round"/>
<path d="M586.711 973.5C584.711 960.5 623.545 941.5 630.212 938L650.712 946C649.112 956 644.045 961.833 641.712 963.5L586.711 973.5Z" stroke="#D1D4D8" stroke-width="3"/>
<path d="M1021.71 893.5C1013.71 891.9 1013.38 880.5 1014.21 875L1032.21 866C1037.71 867.5 1052.41 871.4 1067.21 875C1082.01 878.6 1080.04 883.5 1077.21 885.5L1021.71 893.5Z" stroke="#D1D4D8" stroke-width="3"/>
<path d="M917.838 990.5C917.838 1025.02 889.856 1053 855.338 1053C820.82 1053 792.838 1025.02 792.838 990.5C792.838 955.982 820.82 928 855.338 928C889.856 928 917.838 955.982 917.838 990.5Z" fill="#D1D4D8"/>
<path d="M489.711 998L1219.71 864" stroke="#D1D4D8" stroke-width="3" stroke-linecap="round"/>
<path d="M1130.71 157.5H1088.71C1084.57 157.5 1081.21 160.858 1081.21 165V196C1081.21 200.142 1084.57 203.5 1088.71 203.5H1130.71C1134.85 203.5 1138.21 200.142 1138.21 196V165C1138.21 160.858 1134.85 157.5 1130.71 157.5Z" stroke="#D1D4D8" stroke-width="3"/>
<path d="M1201.71 145.5H1173.71C1169.57 145.5 1166.21 148.858 1166.21 153V193C1166.21 197.142 1169.57 200.5 1173.71 200.5H1201.71C1205.85 200.5 1209.21 197.142 1209.21 193V153C1209.21 148.858 1205.85 145.5 1201.71 145.5Z" stroke="#D1D4D8" stroke-width="3"/>
<path d="M1272.71 120.5H1245.71C1241.57 120.5 1238.21 123.858 1238.21 128V193C1238.21 197.142 1241.57 200.5 1245.71 200.5H1272.71C1276.85 200.5 1280.21 197.142 1280.21 193V128C1280.21 123.858 1276.85 120.5 1272.71 120.5Z" stroke="#D1D4D8" stroke-width="3"/>
<path d="M1345.71 95H1317.71C1312.19 95 1307.71 99.4772 1307.71 105V193C1307.71 198.523 1312.19 203 1317.71 203H1345.71C1351.23 203 1355.71 198.523 1355.71 193V105C1355.71 99.4772 1351.23 95 1345.71 95Z" fill="#D1D4D8"/>
<path d="M1419.71 141.5H1392.71C1388.57 141.5 1385.21 144.858 1385.21 149V193C1385.21 197.142 1388.57 200.5 1392.71 200.5H1419.71C1423.85 200.5 1427.21 197.142 1427.21 193V149C1427.21 144.858 1423.85 141.5 1419.71 141.5Z" stroke="#D1D4D8" stroke-width="3"/>
<path d="M1494.71 166.5H1466.71C1462.57 166.5 1459.21 169.858 1459.21 174V193C1459.21 197.142 1462.57 200.5 1466.71 200.5H1494.71C1498.85 200.5 1502.21 197.142 1502.21 193V174C1502.21 169.858 1498.85 166.5 1494.71 166.5Z" stroke="#D1D4D8" stroke-width="3"/>
<path d="M1332.22 81.2561C1331.42 82.1763 1330 82.1763 1329.2 81.2561L1320.58 71.3099C1319.46 70.0147 1320.38 68 1322.09 68H1339.33C1341.04 68 1341.96 70.0147 1340.84 71.3099L1332.22 81.2561Z" fill="#D1D4D8"/>
<path fill-rule="evenodd" clip-rule="evenodd" d="M1283.71 0H1380.71C1386.23 0 1390.71 4.47715 1390.71 10V64C1390.71 69.5229 1386.23 74 1380.71 74H1283.71C1278.19 74 1273.71 69.5229 1273.71 64V10C1273.71 4.47715 1278.19 0 1283.71 0ZM1309.71 34H1373.71C1375.92 34 1377.71 35.7909 1377.71 38C1377.71 40.2091 1375.92 42 1373.71 42H1309.71C1307.5 42 1305.71 40.2091 1305.71 38C1305.71 35.7909 1307.5 34 1309.71 34ZM1290.71 36.5C1289.88 36.5 1289.21 37.1716 1289.21 38C1289.21 38.8284 1289.88 39.5 1290.71 39.5C1291.54 39.5 1292.21 38.8284 1292.21 38C1292.21 37.1716 1291.54 36.5 1290.71 36.5ZM1286.21 38C1286.21 35.5147 1288.23 33.5 1290.71 33.5C1293.2 33.5 1295.21 35.5147 1295.21 38C1295.21 40.4853 1293.2 42.5 1290.71 42.5C1288.23 42.5 1286.21 40.4853 1286.21 38ZM1309.71 53H1335.71C1337.92 53 1339.71 54.7909 1339.71 57C1339.71 59.2091 1337.92 61 1335.71 61H1309.71C1307.5 61 1305.71 59.2091 1305.71 57C1305.71 54.7909 1307.5 53 1309.71 53ZM1316.71 14H1290.71C1288.5 14 1286.71 15.7909 1286.71 18C1286.71 20.2091 1288.5 22 1290.71 22H1316.71C1318.92 22 1320.71 20.2091 1320.71 18C1320.71 15.7909 1318.92 14 1316.71 14ZM1290.71 53C1292.92 53 1294.71 54.7909 1294.71 57C1294.71 59.2091 1292.92 61 1290.71 61C1288.5 61 1286.71 59.2091 1286.71 57C1286.71 54.7909 1288.5 53 1290.71 53Z" fill="#D1D4D8"/>
<path d="M199.671 774.965C215.387 766.884 233.314 764.164 250.72 767.221C268.125 770.277 284.053 778.941 296.076 791.893C308.099 804.845 315.556 821.373 317.311 838.957C319.065 856.542 315.021 874.217 305.795 889.289C296.569 904.361 282.667 916.003 266.208 922.438C249.75 928.874 231.639 929.75 214.636 924.934C197.633 920.118 182.672 909.873 172.033 895.763C161.395 881.652 155.663 864.449 155.711 846.778L236.711 847L199.671 774.965Z" stroke="#D1D4D8" stroke-width="3"/>
<path d="M140.711 838C140.711 823.372 144.772 809.032 152.442 796.576C160.112 784.121 171.09 774.039 184.152 767.455L219.711 838H140.711Z" fill="#D1D4D8"/>
<path d="M1145.53 284.103C1146.67 286.758 1147.09 292.625 1140.54 296.183C1140.06 296.447 1139.53 296.698 1138.97 296.934C1130.78 300.355 1128.74 294.73 1128.74 291.49V288.189" stroke="#D1D4D8" stroke-width="3" stroke-linecap="round"/>
<path d="M1144.47 275.938C1146.67 277.265 1149.68 280.634 1145.53 284.103C1145.22 284.362 1144.87 284.621 1144.47 284.881C1139.68 288.036 1132.87 288.45 1128.74 288.189C1127.98 288.141 1127.32 288.071 1126.77 287.991C1124.54 287.368 1120.95 284.948 1124.41 280.253" stroke="#D1D4D8" stroke-width="3" stroke-linecap="round"/>
<path d="M1142.9 266.218C1145.13 266.736 1148.96 268.784 1146.44 272.828C1143.92 276.871 1131.23 279.437 1125.2 280.215C1124.94 280.241 1124.68 280.254 1124.41 280.253C1122.03 280.244 1119.69 279.09 1119.69 275.938C1119.69 271.485 1125.46 269.976 1126.77 269.717" stroke="#D1D4D8" stroke-width="3" stroke-linecap="round"/>
<path d="M1129.71 253C1131.94 253.907 1133.3 257.198 1127.95 259.997C1122.6 262.796 1123.89 266.607 1125.2 268.162C1127.3 269.976 1134.09 271.35 1144.47 262.33C1154.86 253.31 1138.57 247.685 1128.74 246" stroke="#D1D4D8" stroke-width="3" stroke-linecap="round"/>
<path d="M1106.71 262.33C1111.17 258.831 1119.85 253.932 1118.91 262.33C1117.96 270.728 1111.96 274.383 1109.07 275.161" stroke="#D1D4D8" stroke-width="3" stroke-linecap="round"/>
<path d="M1106.71 296C1109.32 293.755 1113.77 286.411 1110.63 275" stroke="#D1D4D8" stroke-width="3" stroke-linecap="round"/>
<path d="M1108.62 259.602L1103.71 233" stroke="#D1D4D8" stroke-width="3" stroke-linecap="round"/>
<path d="M1126.21 228.5L1129.56 255.693" stroke="#D1D4D8" stroke-width="3" stroke-linecap="round"/>
<path d="M1133.91 297.904C1133.91 305.33 1137.47 315.101 1129.56 317.446C1119.91 320.309 1118.89 311.583 1116.92 302.594L1111.78 275.626" stroke="#D1D4D8" stroke-width="3" stroke-linecap="round"/>
<path d="M1105.71 249.5C1100.21 250.5 1087.31 256.1 1079.71 270.5C1072.11 284.9 1064.88 289.5 1062.21 290" stroke="#D1D4D8" stroke-width="3" stroke-linecap="round"/>
<path d="M1063.71 315C1077.71 316.5 1106.61 315.9 1116.21 305.5" stroke="#D1D4D8" stroke-width="3" stroke-linecap="round"/>
<path d="M1106.21 232.5C1132.72 232.5 1154.21 211.01 1154.21 184.5C1154.21 157.99 1132.72 136.5 1106.21 136.5C1079.7 136.5 1058.21 157.99 1058.21 184.5C1058.21 211.01 1079.7 232.5 1106.21 232.5Z" stroke="#D1D4D8" stroke-width="3"/>
<path d="M1548.65 277.548C1529.47 281.483 1538.46 307.893 1524.41 314.92C1507.63 323.309 1501.85 276.079 1504.03 256.032C1504.66 247.242 1514.89 243.333 1516.27 256.032C1517.74 269.522 1501 321.831 1481.82 301.646L1469.02 286.827C1465.46 282.442 1458.45 276.349 1452.52 286.827C1446.59 297.304 1437.14 293.842 1433.16 290.801L1420.65 281.698" stroke="#D1D4D8" stroke-width="3" stroke-linecap="round"/>
<path d="M1429.62 241.351L1330.04 224.483C1329.06 224.316 1328.46 225.542 1329.21 226.212L1375.33 267.751C1375.41 267.817 1375.48 267.872 1375.58 267.908C1379.66 269.513 1395.32 263.343 1403.66 259.611C1404.22 259.359 1404.87 259.667 1405.04 260.259C1406.96 266.985 1409.28 273.203 1410.47 276.167C1410.65 276.603 1411.13 276.844 1411.45 276.497C1413.68 274.037 1413.99 261.515 1413.83 254.328C1413.82 253.815 1414.19 253.38 1414.7 253.281C1420.83 252.084 1429.12 246.699 1432.65 244.035" stroke="#D1D4D8" stroke-width="3" stroke-linecap="round"/>
<path d="M1404.65 258.908C1394.03 254.019 1367.16 241.775 1344.65 231.908" stroke="#D1D4D8" stroke-width="3" stroke-linecap="round"/>
<path d="M1410.65 276.908L1390.65 264.908" stroke="#D1D4D8" stroke-width="3" stroke-linecap="round"/>
<path d="M1406.65 248.908L1379.65 240.908" stroke="#D1D4D8" stroke-width="3" stroke-linecap="round"/>
<path d="M731.44 375.908C724.274 367.575 714.24 350.008 731.44 346.408C752.94 341.908 801.44 342.908 803.44 354.908" stroke="#D1D4D8" stroke-width="3" stroke-linecap="round"/>
<path d="M501.131 638.959C505.02 641.061 516.745 641.862 532.533 628.245C548.321 614.628 551.774 602.489 551.527 598.121" stroke="#D1D4D8" stroke-width="3" stroke-linecap="round"/>
<path d="M481.594 638.628C481.152 642.386 483.648 648.148 497.165 641.133L501.13 638.959L508.026 635.178" stroke="#D1D4D8" stroke-width="3" stroke-linecap="round"/>
<path d="M478.075 626.986C474.899 628.851 469.782 633.667 474.724 638.016C476.215 639.328 478.68 639.364 481.594 638.628C488.337 636.923 497.483 631.079 502.513 627.326" stroke="#D1D4D8" stroke-width="3" stroke-linecap="round"/>
<path d="M537 579.689C529.547 576.951 514.15 571.61 503.917 575.165C501.349 576.129 495.528 577.457 492.789 575.057C489.366 572.058 482.877 579.752 491.7 584.9C500.524 590.048 506.272 584.59 505.103 592.762C504.168 599.301 486.062 609.911 477.126 614.398C473.916 615.852 468.613 620.067 473.083 625.3C474.19 626.596 475.949 627.073 478.074 626.986C484.534 626.72 494.384 621.244 499.644 617.696" stroke="#D1D4D8" stroke-width="3" stroke-linecap="round"/>
<path d="M275.055 219.848C301.41 246.823 350.374 258.71 376.183 261.955C378.007 262.185 378.649 264.557 377.169 265.649L309.263 315.736C309.042 315.899 308.787 316.016 308.519 316.076C258.241 327.297 211.366 277.246 192.766 248.812C192.057 247.729 192.585 246.291 193.813 245.879L272.961 219.336C273.699 219.088 274.51 219.291 275.055 219.848Z" stroke="#D1D4D8" stroke-width="3" stroke-linecap="round"/>
<path d="M236.172 260.93C244.172 259.268 261.572 254.094 267.172 246.688" stroke="#D1D4D8" stroke-width="3" stroke-linecap="round"/>
<path d="M258.672 278.93C263.672 279.096 275.172 276.63 281.172 265.43" stroke="#D1D4D8" stroke-width="3" stroke-linecap="round"/>
<path d="M283.172 290.93C290.672 289.93 306.772 284.23 311.172 269.43" stroke="#D1D4D8" stroke-width="3" stroke-linecap="round"/>
<path d="M106.381 428.848C80.0258 455.823 31.0618 467.71 5.25277 470.955C3.42877 471.185 2.78681 473.557 4.26681 474.649L72.1728 524.736C72.3938 524.899 72.6488 525.016 72.9168 525.076C123.195 536.297 170.07 486.246 188.67 457.812C189.379 456.729 188.851 455.291 187.623 454.879L108.475 428.336C107.737 428.088 106.926 428.291 106.381 428.848Z" stroke="#D1D4D8" stroke-width="3" stroke-linecap="round"/>
<path d="M145.264 469.93C137.264 468.268 119.864 463.094 114.264 455.688" stroke="#D1D4D8" stroke-width="3" stroke-linecap="round"/>
<path d="M122.764 487.93C117.764 488.096 106.264 485.63 100.264 474.43" stroke="#D1D4D8" stroke-width="3" stroke-linecap="round"/>
<path d="M98.2637 499.93C90.7637 498.93 74.6637 493.23 70.2637 478.43" stroke="#D1D4D8" stroke-width="3" stroke-linecap="round"/>
</svg>
