<svg width="291" height="397" viewBox="0 0 291 397" fill="none" xmlns="http://www.w3.org/2000/svg">
<ellipse cx="141" cy="388.309" rx="101" ry="8" fill="#D1D4D8"/>
<path d="M229.912 277.074C206.558 301.591 177.858 320.754 145.5 332.309C62.2137 302.719 2 222.966 2 129.687V49.9346L145.5 2.30859L289 49.9346V129.405C289 158.15 283.091 185.767 272.68 211.13C272.962 211.13 254.673 254.811 229.912 277.074Z" stroke="#D1D4D8" stroke-width="3" stroke-miterlimit="10" stroke-linecap="round" stroke-linejoin="round"/>
<path d="M145.5 228.309C190.511 228.309 227 192.044 227 147.309C227 102.574 190.511 66.3086 145.5 66.3086C100.489 66.3086 64 102.574 64 147.309C64 192.044 100.489 228.309 145.5 228.309Z" stroke="#D1D4D8" stroke-width="3" stroke-miterlimit="10"/>
<path fill-rule="evenodd" clip-rule="evenodd" d="M201.758 205.915C187.13 219.789 167.316 228.309 145.499 228.309C123.322 228.309 103.214 219.505 88.5195 205.222C97.6209 182.979 119.48 167.309 144.999 167.309C170.783 167.309 192.83 183.305 201.758 205.915Z" fill="#D1D4D8"/>
<path d="M145.5 140.309C158.479 140.309 169 130.011 169 117.309C169 104.606 158.479 94.3086 145.5 94.3086C132.521 94.3086 122 104.606 122 117.309C122 130.011 132.521 140.309 145.5 140.309Z" fill="#D1D4D8"/>
</svg>
