<svg width="260" height="358" viewBox="0 0 260 358" fill="none" xmlns="http://www.w3.org/2000/svg">
<path d="M258.5 172.309C258.5 204.629 232.521 230.809 200.5 230.809C168.479 230.809 142.5 204.629 142.5 172.309C142.5 139.988 168.479 113.809 200.5 113.809C232.521 113.809 258.5 139.988 258.5 172.309Z" fill="#D1D4D8" stroke="#D1D4D8" stroke-width="3"/>
<path d="M200.888 147.309V197.309M177 172.617H226" stroke="#D1D4D8" stroke-width="3" stroke-linecap="round"/>
<path d="M201 96.3086V22.3086C201 11.2629 192.046 2.30859 181 2.30859H22C10.9543 2.30859 2 11.2629 2 22.3086V336.309C2 347.354 10.9543 356.309 22 356.309H181C192.046 356.309 201 347.354 201 336.309V249.809" stroke="#D1D4D8" stroke-width="3" stroke-linecap="round"/>
<path d="M97 21.3086H117" stroke="#D1D4D8" stroke-width="3" stroke-linecap="round"/>
<path d="M87 21.3086H86" stroke="#D1D4D8" stroke-width="3" stroke-linecap="round"/>
<circle cx="101.5" cy="323.809" r="13" fill="#D1D4D8" stroke="#D1D4D8" stroke-width="3"/>
</svg>
