<svg width="283" height="217" viewBox="0 0 283 217" fill="none" xmlns="http://www.w3.org/2000/svg">
<path d="M101.359 47.135C140.783 21.8854 199.686 23.8341 228.357 37.4889C249.09 47.3625 311.042 83.8036 264.217 161.396C263.991 161.77 263.881 162.224 263.926 162.659L269.059 212.585C269.203 213.983 267.897 215.09 266.541 214.719L216.848 201.123C216.526 201.035 216.201 201.026 215.876 201.101C168.832 212.028 67.7878 217.608 62.3595 129.488C61.0971 108.995 64.8341 92.156 72.0168 78.4878" stroke="#D1D4D8" stroke-width="3" stroke-linecap="round"/>
<circle cx="128.859" cy="117.488" r="12.5" stroke="#D1D4D8" stroke-width="3"/>
<circle cx="167.859" cy="117.488" r="12.5" stroke="#D1D4D8" stroke-width="3"/>
<circle cx="206.859" cy="117.488" r="12.5" stroke="#D1D4D8" stroke-width="3"/>
<path d="M54.8617 173.986L14.559 190.2C13.1343 190.773 11.622 189.593 11.8312 188.072L16.7777 152.097C16.8325 151.699 16.7715 151.306 16.5941 150.945C0.829762 118.912 -16.4778 53.5419 48.3603 17.9867C110.36 -16.0122 160.362 10.9862 190.362 26.9862" stroke="#D1D4D8" stroke-width="3" stroke-linecap="round"/>
</svg>
