<svg width="694" height="442" viewBox="0 0 694 442" fill="none" xmlns="http://www.w3.org/2000/svg">
<path d="M453.5 186.133L490.5 104.133C520.1 112.533 538.833 125.299 544.5 130.633C531.315 155.299 505.156 204.833 506 205.633C494.4 194.033 466.167 187.799 453.5 186.133Z" fill="#D1D4D8"/>
<path d="M240.141 188.633L203.141 106.633C173.541 115.033 154.807 127.799 149.141 133.133C162.326 157.799 188.485 207.333 187.641 208.133C199.241 196.533 227.474 190.299 240.141 188.633Z" fill="#D1D4D8"/>
<path d="M490.5 103.133L520 35.6328C501.6 28.8328 473.333 24.7995 461.5 23.6328L435.5 93.6328C453.5 92.4328 479.667 99.4661 490.5 103.133Z" fill="#D1D4D8"/>
<path d="M203.141 105.633L173.641 38.1328C192.041 31.3328 220.307 27.2995 232.141 26.1328L258.141 96.1328C240.141 94.9328 213.974 101.966 203.141 105.633Z" fill="#D1D4D8"/>
<path d="M454 187.134C440.8 183.134 413.5 185.468 401.5 187.134L373.5 259.635L418 267.135L454 187.134Z" fill="#D1D4D8"/>
<path d="M239.641 189.634C252.841 185.634 280.141 187.968 292.141 189.634L320.141 262.135L275.641 269.635L239.641 189.634Z" fill="#D1D4D8"/>
<path d="M465.5 280.133L505.5 205.133C525.5 218.733 534 240.633 536 253.133L500.5 310.133C502.9 298.133 478.167 285.133 465.5 280.133Z" fill="#D1D4D8"/>
<path d="M228.141 282.633L188.141 207.633C168.141 221.233 159.641 243.133 157.641 255.633L193.141 312.633C190.741 300.633 215.474 287.633 228.141 282.633Z" fill="#D1D4D8"/>
<path d="M576.5 66.6328L544.5 129.633C568.9 148.033 576 174.966 576.5 186.133L607 138.133C613 102.533 589.167 75.6328 576.5 66.6328Z" fill="#D1D4D8"/>
<path d="M117.141 69.1328L149.141 132.133C124.741 150.533 117.641 177.466 117.141 188.633L86.6406 140.633C80.6406 105.033 104.474 78.1328 117.141 69.1328Z" fill="#D1D4D8"/>
<path d="M522.5 275.633L563 209.633C565 235.633 590.833 253.466 603.5 259.133L573.5 325.133C533.9 313.533 523.333 287.299 522.5 275.633Z" fill="#D1D4D8"/>
<path d="M171.141 278.133L130.641 212.133C128.641 238.133 102.807 255.966 90.1406 261.633L120.141 327.633C159.741 316.033 170.307 289.799 171.141 278.133Z" fill="#D1D4D8"/>
<path d="M631.5 381.133L655 329.633C619.4 335.633 586.167 329.799 574 326.133L549 381.133C563 384.333 609.833 382.466 631.5 381.133Z" fill="#D1D4D8"/>
<path d="M62.1406 383.633L38.6406 332.133C74.2406 338.133 107.474 332.299 119.641 328.633L144.641 383.633C130.641 386.833 83.8073 384.966 62.1406 383.633Z" fill="#D1D4D8"/>
<path d="M602 258.133L632 194.133C650.8 197.733 678.833 190.299 690.5 186.133C694.1 206.933 683.333 249.133 677.5 267.633C643.5 275.233 613 264.466 602 258.133Z" fill="#D1D4D8"/>
<path d="M91.6406 260.633L61.6406 196.633C42.8406 200.233 14.8073 192.799 3.14062 188.633C-0.459373 209.433 10.3073 251.633 16.1406 270.133C50.1406 277.733 80.6406 266.966 91.6406 260.633Z" fill="#D1D4D8"/>
<path d="M227.999 19.6379L385.499 430.138C392.499 444.638 410.999 435.138 405.499 420.638L248.501 9.13648C242 -4.36621 222 5.63473 227.999 19.6379Z" stroke="#D1D4D8" stroke-width="3" stroke-linecap="round"/>
<path d="M342 347.133L309 432.157C301.999 445.633 279.499 441.109 287.5 416.633C303.333 377.299 328.499 310.608 330.499 306.133" stroke="#D1D4D8" stroke-width="3" stroke-linecap="round"/>
<path d="M364 286.134L464.5 16.6321C470 4.13242 449.5 -3.8663 444.5 9.13377L349.5 252.132" stroke="#D1D4D8" stroke-width="3" stroke-linecap="round"/>
<path d="M374 260.133C426.333 266.966 523.9 288.733 495.5 321.133C460.106 361.512 494.295 386.981 630.774 381.681C631.512 381.652 632.187 381.245 632.507 380.579C654.561 334.605 695.787 234.488 691.304 187.254C691.177 185.924 689.786 185.179 688.555 185.696C659.039 198.071 602.541 205.915 597.067 155.286C597.023 154.873 597.111 154.439 597.316 154.079L606.828 137.434C606.942 137.235 607.019 137.026 607.058 136.8C612.523 104.834 591.657 38.1856 464.5 24.6328" stroke="#D1D4D8" stroke-width="3" stroke-linecap="round"/>
<path d="M319.641 262.633C267.307 269.466 169.741 291.233 198.141 323.633C233.535 364.012 199.346 389.481 62.867 384.181C62.1283 384.152 61.4536 383.745 61.1339 383.079C39.08 337.105 -2.14602 236.988 2.337 189.754C2.46319 188.424 3.85419 187.679 5.08591 188.196C34.6015 200.571 91.0998 208.415 96.5732 157.786C96.6178 157.373 96.5301 156.939 96.3242 156.579L86.8125 139.934C86.6988 139.735 86.6212 139.526 86.5826 139.3C81.1181 107.334 101.984 40.6856 229.141 27.1328" stroke="#D1D4D8" stroke-width="3" stroke-linecap="round"/>
<path d="M418.5 267.133L520 36.1328" stroke="#D1D4D8" stroke-width="3" stroke-linecap="round"/>
<path d="M275.141 269.633L173.641 38.6328" stroke="#D1D4D8" stroke-width="3" stroke-linecap="round"/>
<path d="M501 311.133L607 137.633" stroke="#D1D4D8" stroke-width="3" stroke-linecap="round"/>
<path d="M192.641 313.633L86.6406 140.133" stroke="#D1D4D8" stroke-width="3" stroke-linecap="round"/>
<path d="M437 93.1328C481.333 96.2995 571.2 119.333 576 186.133" stroke="#D1D4D8" stroke-width="3" stroke-linecap="round"/>
<path d="M256.641 95.6328C212.307 98.7995 122.441 121.833 117.641 188.633" stroke="#D1D4D8" stroke-width="3" stroke-linecap="round"/>
<path d="M403 186.133C443.333 181.3 524.6 185.334 535 252.134" stroke="#D1D4D8" stroke-width="3" stroke-linecap="round"/>
<path d="M290.641 188.633C250.307 183.8 169.041 187.834 158.641 254.634" stroke="#D1D4D8" stroke-width="3" stroke-linecap="round"/>
<path d="M522 278.633C527.333 300.633 559.6 341.233 654 329.633" stroke="#D1D4D8" stroke-width="3" stroke-linecap="round"/>
<path d="M171.641 281.133C166.307 303.133 134.041 343.733 39.6406 332.133" stroke="#D1D4D8" stroke-width="3" stroke-linecap="round"/>
<path d="M563 211.133C566.167 234.133 593.4 277.833 677 268.633" stroke="#D1D4D8" stroke-width="3" stroke-linecap="round"/>
<path d="M130.641 213.633C127.474 236.633 100.241 280.333 16.6406 271.133" stroke="#D1D4D8" stroke-width="3" stroke-linecap="round"/>
<path d="M465.5 281.133L577.5 66.1328" stroke="#D1D4D8" stroke-width="3" stroke-linecap="round"/>
<path d="M228.141 283.633L116.141 68.6328" stroke="#D1D4D8" stroke-width="3" stroke-linecap="round"/>
<path d="M550 378.133L631 194.633" stroke="#D1D4D8" stroke-width="3" stroke-linecap="round"/>
<path d="M143.641 380.633L62.6406 197.133" stroke="#D1D4D8" stroke-width="3" stroke-linecap="round"/>
</svg>
