<svg width="934" height="1030" viewBox="0 0 934 1030" fill="none" xmlns="http://www.w3.org/2000/svg">
<path d="M300 752.18C339.167 794.18 450 869.28 580 833.68" stroke="#D1D4D8" stroke-width="15" stroke-linecap="round"/>
<path d="M714.747 1012.65C697.311 939.659 670.848 793.591 701.097 780.305C702.471 779.703 703.969 779.31 705.358 778.732L820.335 730.753" stroke="#D1D4D8" stroke-width="3" stroke-linecap="round"/>
<path d="M850.266 746.395L857.823 781.381" stroke="#D1D4D8" stroke-width="3" stroke-linecap="round"/>
<path d="M712.665 794.024C699.665 818.506 719.867 921.727 736.177 989.582C739.724 1004.37 755.826 1012.13 769.815 1006.05L877.887 959.058C888.933 954.252 894.968 942.285 892.263 930.601L863.879 808.808" stroke="#D1D4D8" stroke-width="3" stroke-linecap="round"/>
<path d="M735.573 795.499C740.847 789.082 746.297 766.423 734.054 754.839C731.945 752.82 729.288 751.142 725.999 749.942C703.799 741.825 689.637 769.404 702.99 778.894" stroke="#D1D4D8" stroke-width="3" stroke-linecap="round"/>
<path d="M733.711 753.83C735.603 741.395 751.744 728.407 771.203 739.191C792.111 753.971 781.607 775.705 772.073 783.288" stroke="#D1D4D8" stroke-width="3" stroke-linecap="round"/>
<path d="M772.084 738.122C776.051 728.319 791.009 709.415 810.742 717.185C837.245 731.645 821.988 760.129 810.896 763.775" stroke="#D1D4D8" stroke-width="3" stroke-linecap="round"/>
<path d="M810.517 715.832C816.543 704.943 831.577 694.418 846.259 704.828C860.943 715.24 856.285 742.832 841.364 751.665" stroke="#D1D4D8" stroke-width="3" stroke-linecap="round"/>
<path d="M741 845.68C763.336 839.18 812.207 822.28 829 806.68" stroke="#D1D4D8" stroke-width="3" stroke-linecap="round"/>
<path d="M751 879.68C771.847 876.436 820.757 856.815 840 849.68" stroke="#D1D4D8" stroke-width="3" stroke-linecap="round"/>
<path d="M757 916.68C780.528 913.105 830.668 901.5 843 883.68" stroke="#D1D4D8" stroke-width="3" stroke-linecap="round"/>
<path d="M768 954.68C779.774 953.096 798.886 947.713 814 935.68" stroke="#D1D4D8" stroke-width="3" stroke-linecap="round"/>
<rect x="827.671" y="914.846" width="38.0475" height="30.483" rx="3.5" transform="rotate(-20.8025 827.671 914.846)" stroke="#D1D4D8" stroke-width="3"/>
<path d="M40 452.68L24 440.68" stroke="#D1D4D8" stroke-width="3" stroke-linecap="round"/>
<path d="M56 440.68L36 412.68" stroke="#D1D4D8" stroke-width="3" stroke-linecap="round"/>
<path d="M75 435.68L67 409.68" stroke="#D1D4D8" stroke-width="3" stroke-linecap="round"/>
<path d="M19.7106 522.644L93.2751 596.181C93.9117 596.817 94.8949 596.95 95.6774 596.505L132.573 575.533C133.372 575.079 134.377 575.228 135.01 575.893L163.083 605.394C163.734 606.078 164.775 606.214 165.579 605.719L251.59 552.809C252.995 551.945 254.782 553.056 254.63 554.697L242 690.602C241.895 691.735 240.867 692.552 239.739 692.399L3.92241 660.358C2.85136 660.212 2.08973 659.242 2.20262 658.167L16.3075 523.849C16.4832 522.176 18.5207 521.454 19.7106 522.644Z" stroke="#D1D4D8" stroke-width="3" stroke-linecap="round"/>
<path d="M25 642.68L76 609.68" stroke="#D1D4D8" stroke-width="3" stroke-linecap="round"/>
<path d="M180 622.68L221 667.68" stroke="#D1D4D8" stroke-width="3" stroke-linecap="round"/>
<path d="M51 496.68L17 520.594L49.4545 550.68L51 496.68Z" fill="#D1D4D8"/>
<path d="M224.837 519.68L221 571.68L254 550.724L224.837 519.68Z" fill="#D1D4D8"/>
<path d="M180 465.68L109 457.094L148.791 433.68L180 465.68Z" fill="#D1D4D8"/>
<path d="M49 551.031L53.5343 456.778C53.5892 455.636 54.5883 454.773 55.726 454.883L227.076 471.587C228.149 471.691 228.946 472.627 228.878 473.703L222.82 569.68" stroke="#D1D4D8" stroke-width="3" stroke-linecap="round"/>
<path d="M69 569.346L74.2536 503.78C74.3451 502.638 75.3754 501.807 76.5111 501.958L201.095 518.537C202.159 518.679 202.922 519.635 202.823 520.704L196.803 585.68" stroke="#D1D4D8" stroke-width="3" stroke-linecap="round"/>
<path d="M105 546.68L163 553.68" stroke="#D1D4D8" stroke-width="3" stroke-linecap="round"/>
<path d="M91 568.68L170 577.68" stroke="#D1D4D8" stroke-width="3" stroke-linecap="round"/>
<path d="M669.5 47.3265C708.924 22.0768 767.826 24.0255 796.498 37.6803C817.23 47.554 879.183 83.995 832.357 161.588C832.132 161.962 832.022 162.416 832.067 162.85L837.199 212.776C837.343 214.175 836.038 215.281 834.682 214.91L784.988 201.314C784.667 201.226 784.342 201.217 784.017 201.293C736.972 212.22 635.928 217.799 630.5 129.679C629.238 109.186 632.975 92.3474 640.157 78.6792" stroke="#D1D4D8" stroke-width="3" stroke-linecap="round"/>
<circle cx="697" cy="117.68" r="12.5" stroke="#D1D4D8" stroke-width="3"/>
<circle cx="736" cy="117.68" r="12.5" stroke="#D1D4D8" stroke-width="3"/>
<circle cx="775" cy="117.68" r="12.5" stroke="#D1D4D8" stroke-width="3"/>
<path d="M623.002 174.178L582.7 190.391C581.275 190.964 579.763 189.785 579.972 188.263L584.918 152.289C584.973 151.89 584.912 151.497 584.735 151.137C568.97 119.103 551.663 53.7333 616.501 18.1781C678.501 -15.8208 728.502 11.1776 758.502 27.1776" stroke="#D1D4D8" stroke-width="3" stroke-linecap="round"/>
<path d="M841 571.18C850.333 510.346 848.1 371.58 764.5 303.18" stroke="#D1D4D8" stroke-width="15" stroke-linecap="round"/>
<path d="M270 380.68C293.5 329.18 370.9 221.48 492.5 202.68" stroke="#D1D4D8" stroke-width="15" stroke-linecap="round"/>
<path d="M380 873.68C403 892.18 463.4 903.28 493 899.68" stroke="#D1D4D8" stroke-width="7" stroke-linecap="round"/>
<path d="M904.032 485.76C904.688 466.894 901.62 421.394 884.096 390.32" stroke="#D1D4D8" stroke-width="7" stroke-linecap="round"/>
<path d="M263.188 276.142C287.284 239.737 309.223 195.944 385.5 186.68" stroke="#D1D4D8" stroke-width="7" stroke-linecap="round"/>
</svg>
