<svg width="643" height="554" viewBox="0 0 643 554" fill="none" xmlns="http://www.w3.org/2000/svg">
<path d="M572.794 140.578C544.772 140.578 539.831 166.713 541.615 180.502C541.779 181.768 540.963 182.972 539.752 183.372C533.495 185.44 524.736 191.841 527.164 205.602C529.834 220.731 547.005 221.721 555.613 219.998C556.035 219.913 556.415 219.7 556.719 219.395L598.636 177.478C598.896 177.218 599.09 176.904 599.193 176.552C603.101 163.167 598.685 140.578 572.794 140.578Z" stroke="#D1D4D8" stroke-width="3" stroke-linecap="round"/>
<path d="M635.611 202.065C635.611 230.088 609.476 235.029 595.687 233.244C594.422 233.081 593.218 233.896 592.817 235.108C590.75 241.364 584.348 250.124 570.588 247.695C555.458 245.025 554.468 227.855 556.192 219.246C556.276 218.824 556.49 218.445 556.794 218.14L598.711 176.223C598.971 175.963 599.285 175.77 599.638 175.667C613.023 171.759 635.611 176.174 635.611 202.065Z" stroke="#D1D4D8" stroke-width="3" stroke-linecap="round"/>
<path d="M602.104 167.956C607.047 164.153 616.249 151.529 613.511 131.451" stroke="#D1D4D8" stroke-width="3" stroke-linecap="round"/>
<path d="M604.384 173.018C608.187 168.074 620.811 158.872 640.889 161.61" stroke="#D1D4D8" stroke-width="3" stroke-linecap="round"/>
<path d="M241.623 27.262C266.96 39.2325 260.264 64.9735 252.76 76.6792C252.071 77.7533 252.295 79.1904 253.219 80.0699C257.993 84.612 263.178 94.142 255.104 105.546C246.227 118.085 230.279 111.646 223.232 106.41C222.886 106.153 222.634 105.798 222.489 105.393L202.495 49.5866C202.371 49.2406 202.33 48.8742 202.388 48.5113C204.572 34.7397 218.214 16.202 241.623 27.262Z" stroke="#D1D4D8" stroke-width="3" stroke-linecap="round"/>
<path d="M158.56 56.0238C146.59 81.3609 168.109 96.9926 181.34 101.27C182.554 101.662 183.294 102.914 183.138 104.18C182.335 110.721 184.381 121.375 197.861 125.058C212.681 129.107 220.91 114.004 223.03 105.484C223.133 105.067 223.102 104.633 222.957 104.228L202.963 48.4211C202.839 48.0751 202.638 47.7661 202.363 47.5223C191.93 38.2711 169.62 32.6141 158.56 56.0238Z" stroke="#D1D4D8" stroke-width="3" stroke-linecap="round"/>
<path d="M203.425 39.4965C200.58 33.9467 197.653 18.6011 208.705 1.6173" stroke="#D1D4D8" stroke-width="3" stroke-linecap="round"/>
<path d="M199.199 43.0993C197.873 37.0054 190.389 23.2922 171.066 17.1911" stroke="#D1D4D8" stroke-width="3" stroke-linecap="round"/>
<path d="M390.573 347.717C391.713 318.437 389.888 258.737 373.461 254.174C352.927 248.471 247.977 248.471 176.109 254.174C104.241 259.878 38.0771 256.456 34.6548 240.485C31.917 227.709 116.409 222.994 158.998 222.233C209.476 221.792 316.736 224.236 341.947 237.542" stroke="#D1D4D8" stroke-width="3" stroke-linecap="round"/>
<path d="M10.6992 248.471C13.361 262.54 28.7233 289.766 68.8781 286.116C109.033 282.465 249.118 276.99 314.142 274.708C328.211 273.948 357.719 278.131 363.195 300.946C368.67 323.761 368.518 342.393 367.758 348.858" stroke="#D1D4D8" stroke-width="3" stroke-linecap="round" stroke-dasharray="22.82 22.82"/>
<path d="M355.207 456.09C359.009 471.68 356.804 504.458 317.562 510.846C268.509 518.832 214.893 510.846 125.914 517.691C54.7302 523.167 33.1317 517.691 31.2305 514.269" stroke="#D1D4D8" stroke-width="3" stroke-linecap="round" stroke-dasharray="22.82 22.82"/>
<path d="M369.325 253.518C282.102 185.548 35.1532 195.201 10.0565 232.84C9.69237 233.386 9.52913 233.953 9.46829 234.607C3.77127 295.816 -4.05866 421.856 9.55848 506.283C11.0792 515.789 17.771 536.399 32.3728 542.787C50.625 550.772 344.942 557.617 363.194 542.787C381.446 527.957 391.713 484.608 390.572 445.822" stroke="#D1D4D8" stroke-width="3" stroke-linecap="round"/>
<path d="M391.712 322.617C397.036 321.857 410.877 326.27 414.527 345.435C418.15 364.455 417.952 408.645 412.374 428.267C412.288 428.569 412.178 428.84 412.023 429.114C403.344 444.464 366.824 464.596 286.407 453.115C284.572 452.853 283.051 451.498 282.645 449.69C276.516 422.422 271.141 370.364 293.778 356.271C294.403 355.882 295.109 355.692 295.846 355.672C326.302 354.865 388.215 351.745 400.838 345.434" stroke="#D1D4D8" stroke-width="3" stroke-linecap="round"/>
<circle cx="334.675" cy="405.896" r="26.2375" fill="#D1D4D8"/>
<path d="M404.262 360.266C389.854 364.436 349.283 372.539 302.003 371.681C301.732 371.676 301.459 371.63 301.188 371.642C297.446 371.808 291.964 384.477 296.734 434.791C296.907 436.619 298.166 438.197 299.941 438.667C316.254 442.987 350.296 446.997 376.883 433.274" stroke="#D1D4D8" stroke-width="3" stroke-linecap="round" stroke-dasharray="22.82 22.82"/>
</svg>
