<svg width="734" height="684" viewBox="0 0 734 684" fill="none" xmlns="http://www.w3.org/2000/svg">
<ellipse cx="463.709" cy="485.353" rx="14.5203" ry="19.0579" transform="rotate(41.2642 463.709 485.353)" fill="#D1D4D8"/>
<circle cx="463.332" cy="484.515" r="34" stroke="#D1D4D8" stroke-width="3"/>
<circle cx="463.332" cy="484.515" r="47" stroke="#D1D4D8" stroke-width="3"/>
<rect x="370.852" y="438.015" width="44" height="17" rx="8.5" transform="rotate(45 370.852 438.015)" fill="#D1D4D8"/>
<path d="M341.831 485.515C339.506 480.367 337.545 466.016 348.218 449.688C348.292 449.574 348.379 449.467 348.475 449.371L419.831 378.015C421.148 376.534 424.739 374.468 428.68 377.882C428.78 377.968 428.877 378.042 428.991 378.11C451.68 391.588 525.571 442.302 542.331 479.015C544.331 483.396 546.331 490.015 538.331 499.515L518.831 521.515" stroke="#D1D4D8" stroke-width="3" stroke-linecap="round"/>
<path d="M185 367.103V342.813C185 331.767 176.046 322.812 165 322.812H22C10.9543 322.812 2 331.767 2 342.812V428.812C2 439.858 10.9543 448.812 22 448.812H108.814" stroke="#D1D4D8" stroke-width="3" stroke-linecap="round"/>
<path d="M23 416.812H60" stroke="#D1D4D8" stroke-width="3" stroke-linecap="round"/>
<path d="M72 416.812H78" stroke="#D1D4D8" stroke-width="3" stroke-linecap="round"/>
<rect x="4" y="339.812" width="178" height="21" fill="#D1D4D8"/>
<circle cx="155" cy="420.812" r="22" fill="#D1D4D8"/>
<path d="M171 400.949C173.155 400.212 175.467 399.812 177.874 399.812C189.541 399.812 199 409.215 199 420.812C199 432.41 189.541 441.812 177.874 441.812C175.467 441.812 173.155 441.413 171 440.676" stroke="#D1D4D8" stroke-width="3" stroke-linecap="round"/>
<path d="M595.518 152.559L582.269 248.323C582.12 249.403 582.862 250.403 583.939 250.573L684.681 266.447C685.897 266.639 686.996 265.696 686.992 264.465L686.528 127.469C686.524 126.139 685.246 125.183 683.969 125.556L596.94 150.913C596.183 151.134 595.626 151.778 595.518 152.559Z" stroke="#D1D4D8" stroke-width="3"/>
<path d="M697 132.312L686 123.312L685 268.812L708 264.312L697 132.312Z" fill="#D1D4D8"/>
<path d="M697 134.812H710.393C711.377 134.812 712.215 135.529 712.368 136.502L731.644 259.065C731.832 260.263 730.919 261.352 729.706 261.375L706.829 261.812" stroke="#D1D4D8" stroke-width="3" stroke-linecap="round"/>
<path d="M639 137.813C641.069 128.407 648.883 110.066 663.587 111.947C671.465 112.954 676 122.058 676 126.526" stroke="#D1D4D8" stroke-width="3" stroke-linecap="round"/>
<path d="M619 143.812C621.303 132.53 630.387 107.995 647.348 106.844C659.259 106.035 663.309 121.214 661.642 131.296" stroke="#D1D4D8" stroke-width="3" stroke-linecap="round"/>
<path d="M186.528 152.557C180.248 157.018 171.792 169.413 191.098 175.757C205.822 180.596 218.309 178.149 222.623 178.048" stroke="#D1D4D8" stroke-width="3" stroke-linecap="round"/>
<path d="M243.787 182.299C221.932 184.451 195.817 159.437 183.706 144.56C182.897 143.566 183.258 142.096 184.388 141.492C199.5 133.402 211.04 117.445 215.948 108.609C216.555 107.516 218.006 107.198 218.996 107.963C254.423 135.335 260.03 158.161 258.825 166.765C258.811 166.867 258.789 166.959 258.757 167.057C257.399 171.209 252.667 179.792 244.11 182.238C244.004 182.268 243.896 182.288 243.787 182.299Z" stroke="#D1D4D8" stroke-width="3" stroke-linecap="round"/>
<ellipse cx="199.429" cy="124.343" rx="26.5" ry="5" transform="rotate(-45.978 199.429 124.343)" fill="#D1D4D8"/>
<path d="M409.729 28.998C401.562 56.998 386.529 115.598 391.729 125.998" stroke="#D1D4D8" stroke-width="3" stroke-linecap="round"/>
<path d="M395.009 36.6544L408.197 28.4123C409.037 27.8868 410.136 28.0566 410.779 28.8113L420.032 39.6731C420.679 40.4326 421.786 40.5991 422.628 40.0635L454.16 19.9977C459.16 15.9977 459.077 12.3686 457.16 9.99768C453.843 5.89461 444.357 4.39037 438.065 4.45472C437.221 4.46336 436.498 5.03736 436.256 5.84623L433.941 13.5623C433.764 14.1526 433.318 14.6328 432.74 14.8475C415.995 21.0714 405.328 17.0898 401.159 11.6961C400.823 11.2616 400.731 10.6948 400.857 10.1602L402.139 4.71422C402.415 3.53925 401.599 2.38805 400.394 2.3177C391.811 1.81662 378.16 2.95251 378.16 10.9976C378.16 19.2061 387.151 30.6627 392.553 36.3591C393.194 37.0349 394.22 37.148 395.009 36.6544Z" fill="#D1D4D8"/>
<path d="M355.161 99.9981C359.161 57.1981 371.995 21.8314 378.161 9.99805C380.161 5.49805 384.961 2.39807 390.161 1.99807C396.661 1.49807 446.344 1.57188 458.661 7.99807C470.161 13.998 468.161 13.9981 465.161 47.4981C462.761 74.2981 453.161 109.998 448.661 124.498C445.661 132.498 427.561 139.298 409.161 132.498C386.161 123.998 393.161 128.498 372.161 124.498C355.361 121.298 354.46 107.498 355.161 99.9981Z" stroke="#D1D4D8" stroke-width="3"/>
<path d="M467.164 27.4977C463.83 23.9977 456.264 20.4977 452.664 34.4977C448.164 51.9977 438.084 91.0834 437.162 95.9977C435.662 103.998 435.163 124.998 443.163 112.498C449.563 102.498 456.997 60.4977 459.163 40.4977" stroke="#D1D4D8" stroke-width="3" stroke-linecap="round"/>
<ellipse cx="413.23" cy="41.4982" rx="2.50085" ry="4" transform="rotate(13.2587 413.23 41.4982)" fill="#D1D4D8"/>
<ellipse cx="407.581" cy="61.965" rx="2.50085" ry="4" transform="rotate(13.2587 407.581 61.965)" fill="#D1D4D8"/>
<ellipse cx="402.581" cy="85.965" rx="2.50085" ry="4" transform="rotate(13.2587 402.581 85.965)" fill="#D1D4D8"/>
<ellipse cx="398.581" cy="110.965" rx="2.50085" ry="4" transform="rotate(13.2587 398.581 110.965)" fill="#D1D4D8"/>
<path d="M508 288.313C520.833 284.979 549.9 283.813 563.5 305.813C580.5 333.313 581.5 341.313 603 336.313" stroke="#D1D4D8" stroke-width="3" stroke-linecap="round"/>
<path d="M373.91 230.205C375.243 220.205 372.71 197.805 351.91 188.205" stroke="#D1D4D8" stroke-width="3" stroke-linecap="round"/>
<path d="M229 343.812C231.167 331.812 243.8 308.612 277 311.812C310.2 315.012 328.833 301.812 334 294.812" stroke="#D1D4D8" stroke-width="3" stroke-linecap="round"/>
<path d="M308.817 232.205C303.471 234.105 294.509 240.577 301.431 251.273C308.302 261.89 314.493 252.941 316.786 247.021C316.82 246.932 316.841 246.843 316.85 246.749C317.168 243.21 316.38 236.831 310.716 238.561C304.976 240.314 307.058 244.844 308.817 246.889" stroke="#D1D4D8" stroke-width="3" stroke-linecap="round"/>
<path d="M487.907 187.812C482.561 189.712 473.599 196.185 480.521 206.88C487.392 217.497 493.583 208.548 495.876 202.628C495.91 202.54 495.931 202.451 495.94 202.356C496.258 198.817 495.47 192.438 489.806 194.168C484.066 195.922 486.148 200.451 487.907 202.497" stroke="#D1D4D8" stroke-width="3" stroke-linecap="round"/>
<path d="M191 565.102L253 518.602L261 567.602L437.901 682.813L191 565.102Z" fill="#D1D4D8"/>
<path d="M365.5 501.273L452.132 558.435C452.752 558.845 453.549 558.876 454.2 558.517L512 526.584L627.999 462.959C629.341 462.223 629.393 460.314 628.093 459.506L415.458 327.407C414.863 327.038 414.119 327.006 413.496 327.323L240.565 415.254C239.198 415.949 239.09 417.861 240.37 418.706L365.5 501.273Z" stroke="#D1D4D8" stroke-width="3" stroke-linecap="round"/>
<path d="M414.5 326.812L418.5 378.102" stroke="#D1D4D8" stroke-width="3" stroke-linecap="round"/>
<path d="M453.142 559.102L438.863 679.432C438.671 681.052 440.393 682.208 441.819 681.417L585.882 601.487C586.328 601.239 586.663 600.83 586.818 600.344L631.001 461.312" stroke="#D1D4D8" stroke-width="3" stroke-linecap="round"/>
<path d="M440.402 681.812L262.001 566.312L239.402 417.312" stroke="#D1D4D8" stroke-width="3" stroke-linecap="round"/>
<path d="M302.693 483.06L349 573.102L367 557.602C361.666 547.102 346.693 518.86 326.693 480.06C306.693 441.26 322 415.102 348.5 402.602L431 360.102C464.5 341.011 497.333 363.269 503.5 379.602L538 401.102L530 387.602L518.5 368.694C497.5 330.194 453.193 330.227 435.193 337.06C411.36 348.56 352.392 373.774 318.193 399.06C285 423.602 292.693 464.227 302.693 483.06Z" fill="#D1D4D8"/>
<path d="M356.5 584.602C368.374 584.602 378 573.409 378 559.602C378 545.794 368.374 534.602 356.5 534.602C344.626 534.602 335 545.794 335 559.602C335 573.409 344.626 584.602 356.5 584.602Z" fill="#D1D4D8"/>
</svg>
