<svg width="636" height="502" viewBox="0 0 636 502" fill="none" xmlns="http://www.w3.org/2000/svg">
<path d="M109 466.504L147 466.504C158.046 466.504 167 457.55 167 446.504L167 247.504C167 236.458 158.046 227.504 147 227.504L22 227.504C10.9543 227.504 2 236.458 2 247.504L2.00001 367.004" stroke="#D1D4D8" stroke-width="3" stroke-linecap="round"/>
<path d="M44 255.504L44 303.504" stroke="#D1D4D8" stroke-width="3" stroke-linecap="round"/>
<path d="M44 319.504L44 326.504" stroke="#D1D4D8" stroke-width="3" stroke-linecap="round"/>
<rect x="145" y="230.504" width="233" height="28" transform="rotate(90 145 230.504)" fill="#D1D4D8"/>
<circle cx="39.002" cy="427.504" r="29" transform="rotate(90 39.002 427.504)" fill="#D1D4D8"/>
<path d="M65.0136 448.568C65.9782 451.416 66.502 454.472 66.502 457.651C66.502 473.07 54.1898 485.568 39.002 485.568C23.8141 485.568 11.502 473.07 11.502 457.651C11.502 454.472 12.0257 451.416 12.9903 448.568" stroke="#D1D4D8" stroke-width="3" stroke-linecap="round"/>
<path d="M611.416 310.004C611.416 314.409 612.176 318.326 613.347 321.085C613.934 322.468 614.594 323.49 615.25 324.145C615.901 324.793 616.462 325.004 616.916 325.004C617.37 325.004 617.931 324.793 618.582 324.145C619.238 323.49 619.898 322.468 620.485 321.085C621.656 318.326 622.416 314.409 622.416 310.004C622.416 305.599 621.656 301.682 620.485 298.922C619.898 297.54 619.238 296.517 618.582 295.863C617.931 295.214 617.37 295.004 616.916 295.004C616.462 295.004 615.901 295.214 615.25 295.863C614.594 296.517 613.934 297.54 613.347 298.922C612.176 301.682 611.416 305.599 611.416 310.004Z" stroke="#D1D4D8" stroke-width="3"/>
<path d="M224.916 211.005C216.083 211.505 197.516 208.405 193.916 192.005C190.316 175.605 195.083 175.171 197.916 177.005C199.995 178.35 200.916 182.005 194.916 190.005" stroke="#D1D4D8" stroke-width="3" stroke-linecap="round"/>
<path d="M184.416 198.504C181.416 198.171 176.916 195.179 176.916 185.504C176.916 171.504 168.416 184.504 168.416 193.005C168.416 200.004 175.916 208.004 186.416 205.504" stroke="#D1D4D8" stroke-width="3" stroke-linecap="round"/>
<path d="M218.416 222.01C207.083 224.01 181.716 215.505 182.916 179.505C183.266 169.002 192.916 164.505 201.416 168.505C211.416 174.005 207.316 192.008 198.916 198.008" stroke="#D1D4D8" stroke-width="3" stroke-linecap="round"/>
<path d="M577.416 310.504C577.416 324.929 580.729 337.915 586.008 347.242C591.313 356.614 598.41 362.004 605.916 362.004C613.422 362.004 620.519 356.614 625.824 347.242C631.103 337.915 634.416 324.929 634.416 310.504C634.416 296.079 631.103 283.093 625.824 273.766C620.519 264.394 613.422 259.004 605.916 259.004C598.41 259.004 591.313 264.394 586.008 273.766C580.729 283.093 577.416 296.079 577.416 310.504Z" stroke="#D1D4D8" stroke-width="3"/>
<path d="M593.416 316.004C593.416 320.409 594.176 324.326 595.347 327.085C595.934 328.468 596.594 329.49 597.25 330.145C597.901 330.793 598.462 331.004 598.916 331.004C599.37 331.004 599.931 330.793 600.582 330.145C601.238 329.49 601.898 328.468 602.485 327.085C603.656 324.326 604.416 320.409 604.416 316.004C604.416 311.599 603.656 307.682 602.485 304.922C601.898 303.54 601.238 302.517 600.582 301.863C599.931 301.214 599.37 301.004 598.916 301.004C598.462 301.004 597.901 301.214 597.25 301.863C596.594 302.517 595.934 303.54 595.347 304.922C594.176 307.682 593.416 311.599 593.416 316.004Z" stroke="#D1D4D8" stroke-width="3"/>
<path d="M544.916 279.504C539.416 292.337 532.016 325.104 546.416 353.504" stroke="#D1D4D8" stroke-width="3" stroke-linecap="round"/>
<path d="M556.416 257.504L602.916 260.004" stroke="#D1D4D8" stroke-width="3" stroke-linecap="round"/>
<path d="M609.916 360.504C604.916 363.337 591.416 370.004 575.416 370.004C559.416 370.004 552.749 370.671 551.416 371.004" stroke="#D1D4D8" stroke-width="3" stroke-linecap="round"/>
<path d="M577.916 370.504C571.416 383.504 551.216 413.704 522.416 430.504" stroke="#D1D4D8" stroke-width="3" stroke-linecap="round"/>
<path d="M533.916 423.504C534.416 441.671 532.616 480.404 521.416 490.004C510.216 499.604 481.749 494.004 468.916 490.004" stroke="#D1D4D8" stroke-width="3" stroke-linecap="round"/>
<path d="M475.416 434.004C476.583 453.337 475.116 493.104 459.916 497.504C444.716 501.904 418.916 499.337 407.916 497.504C406.249 497.504 402.216 495.304 399.416 486.504C396.616 477.704 393.916 448.837 392.916 435.504" stroke="#D1D4D8" stroke-width="3" stroke-linecap="round"/>
<path d="M502.916 440.004C497.916 443.004 486.816 448.504 476.416 446.504" stroke="#D1D4D8" stroke-width="3" stroke-linecap="round"/>
<path d="M394.916 458.504C377.083 460.004 337.616 460.804 318.416 450.004" stroke="#D1D4D8" stroke-width="3" stroke-linecap="round"/>
<path d="M351.916 459.004C350.749 466.337 346.916 480.504 340.916 482.504C333.416 485.004 314.416 487.004 309.416 482.004" stroke="#D1D4D8" stroke-width="3" stroke-linecap="round"/>
<path d="M318.416 439.504C317.583 455.337 313.016 487.404 301.416 489.004C286.916 491.004 264.416 491.504 249.416 478.004C237.416 467.204 239.416 428.171 241.916 410.004" stroke="#D1D4D8" stroke-width="3" stroke-linecap="round"/>
<path d="M240.416 422.504C215.749 393.004 176.716 312.104 217.916 224.504C239.92 177.719 280.113 152.906 320 140.805" stroke="#D1D4D8" stroke-width="3" stroke-linecap="round"/>
<path d="M411.416 132.005C403.152 131.016 393.131 130.521 382 130.845" stroke="#D1D4D8" stroke-width="3" stroke-linecap="round"/>
<path d="M435.916 135.004C470.249 142.004 543.916 174.704 575.916 257.504" stroke="#D1D4D8" stroke-width="3" stroke-linecap="round"/>
<circle r="15" transform="matrix(-1 0 0 1 503.916 231.504)" fill="#D1D4D8"/>
<ellipse rx="12.5" ry="13" transform="matrix(-1 0 0 1 550.416 212.504)" fill="#D1D4D8"/>
<path d="M503.415 158.005C506.082 151.672 509.615 139.871 508.415 133.871" stroke="#D1D4D8" stroke-width="3" stroke-linecap="round"/>
<path d="M509.916 123.871C509.416 121.704 507.016 119.071 501.416 125.871C495.816 132.671 488.416 143.37 485.416 147.87" stroke="#D1D4D8" stroke-width="3" stroke-linecap="round"/>
<path d="M511.915 172.003C517.082 154.003 524.315 116.803 511.915 112.003C499.515 107.203 477.748 132.003 468.415 145.003" stroke="#D1D4D8" stroke-width="3" stroke-linecap="round"/>
<path d="M462.416 175.005C450.916 154.005 425.316 115.505 414.916 129.505C404.516 143.505 405.249 192.672 406.916 215.505" stroke="#D1D4D8" stroke-width="3" stroke-linecap="round"/>
<path d="M423.416 199.504C418.749 185.671 412.216 155.904 423.416 147.504C426.749 145.171 436.316 148.104 447.916 178.504" stroke="#D1D4D8" stroke-width="3" stroke-linecap="round"/>
<path d="M427.531 43.9402C400.684 66.0173 385.706 112.135 381.5 133.004C381.5 76.0816 391.155 50.8415 397.82 42.9101C398.833 41.7056 398.658 39.6402 397.177 39.1084C386.568 35.2989 361.394 30.0892 347.181 27.4111C346.011 27.1906 345.297 26.0071 345.681 24.8802C349.054 14.9829 354.85 6.02982 358.305 1.50773C358.958 0.653285 360.168 0.520747 361.034 1.15814C375.383 11.7193 409.259 30.7673 427.252 40.5201C428.538 41.2172 428.661 43.011 427.531 43.9402Z" fill="#D1D4D8"/>
<path d="M322 150.401C319.273 151.33 316.761 152.337 314.533 153.428C313.767 153.803 313.129 154.393 312.664 155.109L311.93 156.239C309.589 159.846 312.586 164.564 316.852 164.02C336.244 161.545 364.63 158.626 380.624 158.705C382.247 158.713 383.787 157.984 384.713 156.651C386.982 153.386 389.981 148.459 390.737 144.281C391.138 142.065 389.093 140.539 386.842 140.63C385.475 140.685 384.024 140.753 382.5 140.836" stroke="#D1D4D8" stroke-width="3" stroke-linecap="round"/>
<path d="M311.916 158.004C325.516 150.804 374.083 147.837 387.416 147.504C387.417 150.004 384.916 154.504 382.416 157.004C367.416 156.504 322.916 163.004 312.916 163.004L311.916 158.004Z" fill="#D1D4D8"/>
<path d="M383 148.003C380.106 121.956 379.352 65.8481 398.337 42.8867C399.282 41.7432 398.851 39.9512 397.437 39.5007C381.469 34.4133 349.225 26.1061 325.022 26.4685C324.12 26.482 323.358 27.0917 323.158 27.9718C317.859 51.2473 310.972 106.739 323.5 154.503" stroke="#D1D4D8" stroke-width="3" stroke-linecap="round"/>
</svg>
