<svg width="559" height="484" viewBox="0 0 559 484" fill="none" xmlns="http://www.w3.org/2000/svg">
<path d="M37.3438 363.523L19.3438 330.523L190.844 235.023L193.844 266.523L197.844 275.523L37.3438 363.523Z" fill="#D1D4D8"/>
<path d="M154.843 194.523L166.842 215.641C167.173 216.223 167.617 216.733 168.149 217.14L189.075 233.169C190.201 234.031 190.907 235.33 191.019 236.743L193.24 264.727C193.308 265.577 193.591 266.396 194.064 267.105L209.686 290.537C210.118 291.186 210.393 291.926 210.488 292.7L214.065 321.764C214.242 323.199 215.031 324.488 216.23 325.297L252.353 349.68C253.611 350.529 254.415 351.898 254.54 353.411C255.427 364.133 256.972 382.17 257.343 384.023C257.647 385.544 261.63 392.168 264.988 397.528C266.52 399.974 265.712 403.214 263.193 404.622L131.843 478.023C124.843 482.523 105.843 485.523 97.3432 472.523L6.34318 306.523C1.34302 296.523 -2.15686 282.523 12.3432 273.023L95.064 227.454" stroke="#D1D4D8" stroke-width="3" stroke-linecap="round"/>
<path d="M539.844 296.023L522.344 329.523L369.844 246.023L376.344 233.523L398.844 219.523L539.844 296.023Z" fill="#D1D4D8"/>
<path d="M299.844 374.523L309.797 355.564C310.157 354.88 310.67 354.288 311.297 353.835L335.271 336.52C336.573 335.58 337.344 334.072 337.344 332.467V283.427C337.344 281.908 338.034 280.471 339.22 279.522L359.027 263.677C359.566 263.246 360.009 262.708 360.33 262.098L374.696 234.757C375.12 233.95 375.756 233.274 376.536 232.803L397.097 220.381C398.504 219.531 399.403 218.044 399.503 216.404L401.27 187.235C401.319 186.439 401.557 185.666 401.965 184.98L411.385 169.155C412.758 166.847 415.709 166.037 418.068 167.319L546.344 237.023C554.344 241.023 561.344 254.523 553.344 271.023L466.844 432.523C460.344 445.023 447.844 454.523 426.844 444.023L345.065 399.27" stroke="#D1D4D8" stroke-width="3" stroke-linecap="round"/>
<circle cx="126.344" cy="423.023" r="20" fill="#D1D4D8"/>
<circle cx="146.344" cy="413.023" r="18.5" stroke="#D1D4D8" stroke-width="3"/>
<circle cx="283.844" cy="117.523" r="116" stroke="#D1D4D8" stroke-width="3"/>
<circle cx="283.844" cy="173.523" r="13.5" fill="#D1D4D8"/>
<path d="M283.552 49.0234C268.202 49.0235 266.564 81.6901 267.587 98.3316C268.611 114.973 273.716 147.023 283.552 147.023C293.377 147.023 298.904 117.439 300.132 98.3316C301.174 82.1139 298.789 49.0234 283.552 49.0234Z" fill="#D1D4D8"/>
</svg>
