<svg width="359" height="476" viewBox="0 0 359 476" fill="none" xmlns="http://www.w3.org/2000/svg">
<path d="M321 138.551C294.028 166.022 196.703 210.957 160.612 169.68C160.538 169.595 160.472 169.506 160.416 169.409C157.648 164.612 156.883 151.135 185 149.551C220.5 147.551 262.5 106.551 239 84.0508" stroke="#D1D4D8" stroke-width="3" stroke-linecap="round"/>
<path d="M357.499 100.051C342.832 59.2179 279.199 -16.6488 141.999 6.55118C117.999 12.0512 74.4992 41.0513 114.999 55.5513" stroke="#D1D4D8" stroke-width="3" stroke-linecap="round"/>
<path d="M141.5 29.5508C118.166 49.0508 78.4996 90.5508 106.5 100.551C111.5 102.337 118.5 102.551 127.5 100.551" stroke="#D1D4D8" stroke-width="3" stroke-linecap="round"/>
<path d="M202.002 39.5506C191.669 35.5506 166.002 32.8506 146.002 54.0506C126.002 75.2506 132.167 120.884 136.5 141.051C140 157.338 170.294 157.551 170.501 134.551C170.668 116.051 171.001 90.0508 188.001 88.5508C205.497 87.007 203.001 98.0508 239.501 94.5508" stroke="#D1D4D8" stroke-width="3" stroke-linecap="round"/>
<path d="M178 139.051C162.5 152.051 132.7 172.551 129.5 206.551" stroke="#D1D4D8" stroke-width="3" stroke-linecap="round"/>
<path d="M112.5 170.051L122 152.551" stroke="#D1D4D8" stroke-width="3" stroke-linecap="round"/>
<path d="M92.5 168.551L89 143.051" stroke="#D1D4D8" stroke-width="3" stroke-linecap="round"/>
<path d="M77.5 181.551L58.5 169.051" stroke="#D1D4D8" stroke-width="3" stroke-linecap="round"/>
<path d="M72 204.551H49.5" stroke="#D1D4D8" stroke-width="3" stroke-linecap="round"/>
<path fill-rule="evenodd" clip-rule="evenodd" d="M132.952 197.901C149.183 195.448 178.598 197.274 173.499 223.552C166.999 257.052 131.999 264.552 121.499 264.552C110.999 264.552 79.4994 246.552 83.9994 214.052C88.4375 181.999 113.787 182.044 131.272 197.4C131.734 197.806 132.344 197.992 132.952 197.901ZM116.417 202.188C116.769 200.852 115.971 199.485 114.636 199.134C113.3 198.783 111.933 199.581 111.582 200.916C110.768 204.011 111.375 207.352 112.794 210.252C114.221 213.169 116.557 215.837 119.519 217.628C122.503 219.434 126.151 220.362 130.095 219.697C134.035 219.032 138.037 216.819 141.827 212.758C142.769 211.748 142.715 210.166 141.705 209.224C140.696 208.282 139.114 208.337 138.172 209.346C134.963 212.784 131.902 214.321 129.264 214.766C126.63 215.21 124.185 214.607 122.107 213.35C120.006 212.079 118.311 210.153 117.285 208.055C116.25 205.939 115.982 203.842 116.417 202.188Z" fill="#D1D4D8"/>
<path d="M103.5 281.051C83.8712 280.053 46.5455 270.289 53.9556 239.233C53.9838 239.115 54.0222 238.999 54.0727 238.889C56.9984 232.503 66.7386 219.947 83 219.551" stroke="#D1D4D8" stroke-width="3" stroke-linecap="round"/>
<path d="M175 224.051C186.833 227.884 207.9 242.051 197.5 268.051C187.1 294.051 145.5 305.217 126 307.551" stroke="#D1D4D8" stroke-width="3" stroke-linecap="round"/>
<path d="M199 266.552C213 275.052 236.2 299.052 217 327.052C197.8 355.052 141.5 372.552 100.5 366.552C68.3425 361.846 20.8 341.752 20 300.552C20 286.052 29.3 264.552 60.5 266.552" stroke="#D1D4D8" stroke-width="3" stroke-linecap="round"/>
<path d="M10.0008 285.551C-1.66588 306.884 -5.99921 354.951 70.0008 376.551C146.001 398.151 205 367.217 225 349.051C232.667 340.717 245.7 318.651 236.5 297.051" stroke="#D1D4D8" stroke-width="3" stroke-linecap="round"/>
<path d="M232.047 420.208L240.1 361.597C240.37 359.637 237.816 358.337 236.319 359.631C197.475 393.187 60.894 425.697 5.71983 346.677C4.45081 344.859 1.22248 346.006 1.53967 348.2L11.9269 420.045C11.9749 420.377 12.1046 420.691 12.3067 420.958C31.8161 446.765 61.8714 467.076 84.5 472.051C154.679 487.48 220.399 442.134 231.846 420.842C231.955 420.64 232.016 420.435 232.047 420.208Z" fill="#D1D4D8"/>
</svg>
