<svg width="414" height="528" viewBox="0 0 414 528" fill="none" xmlns="http://www.w3.org/2000/svg">
<path d="M7.46334 335.177L30.9308 330.91C31.9119 330.732 32.7403 330.078 33.1411 329.165L40.6859 311.979C41.1778 310.859 40.9398 309.552 40.0845 308.677L22.3079 290.487C21.0706 289.221 21.1929 287.164 22.5715 286.054L53.6207 261.042C54.9276 259.989 56.8441 260.213 57.8729 261.539L76.6629 285.757C77.6778 287.065 79.5606 287.304 80.8697 286.29L92.6198 277.194C93.473 276.533 93.9057 275.465 93.7532 274.397L89.9892 248.049C89.731 246.242 91.1334 244.625 92.959 244.625H125C126.657 244.625 128 245.968 128 247.625V269.037C128 270.292 128.781 271.414 129.958 271.85L153.342 280.511C154.365 280.89 155.513 280.683 156.34 279.972L174.149 264.648C175.434 263.542 177.381 263.721 178.444 265.043L195.2 285.886C196.207 287.138 196.048 288.96 194.842 290.02L178.076 304.741C177.129 305.572 176.803 306.906 177.258 308.08L184.989 328.018C185.558 329.486 187.167 330.264 188.672 329.799L210.103 323.175C211.879 322.626 213.721 323.807 213.964 325.65L218.173 357.642C218.362 359.08 217.496 360.447 216.115 360.89L193.55 368.128C192.583 368.438 191.839 369.216 191.572 370.195L186.352 389.335C186.128 390.156 186.263 391.034 186.724 391.749L198.966 410.744C199.827 412.08 199.496 413.857 198.211 414.793L172.785 433.324C171.723 434.098 170.282 434.091 169.228 433.307L153.126 421.334C152.143 420.603 150.816 420.543 149.771 421.181L135.304 430.023C134.222 430.684 133.673 431.953 133.931 433.194L137.809 451.808C138.176 453.571 136.919 455.258 135.124 455.41L99.917 458.379C98.2945 458.516 96.8591 457.334 96.6825 455.715L94.2394 433.32C94.097 432.014 93.122 430.953 91.8332 430.701L72.8712 426.991C71.7293 426.768 70.5612 427.225 69.8741 428.164L57.9286 444.489C56.891 445.907 54.8622 446.134 53.5372 444.98L26.9614 421.833C25.8358 420.853 25.6022 419.194 26.413 417.941L40.5691 396.064C41.146 395.172 41.2085 394.042 40.7337 393.092L29.3292 370.283C28.821 369.267 27.7822 368.625 26.6459 368.625H8C6.34315 368.625 5 367.282 5 365.625V338.129C5 336.679 6.03687 335.436 7.46334 335.177Z" stroke="#D1D4D8" stroke-width="3"/>
<path d="M199 413.625L169.79 435.297C168.727 436.086 167.274 436.085 166.212 435.295L150.126 423.334C149.143 422.603 147.816 422.543 146.771 423.181L132.304 432.023C131.222 432.684 130.673 433.953 130.931 435.194L134.809 453.808C135.176 455.571 133.919 457.258 132.124 457.41L96.917 460.379C95.2945 460.516 93.8591 459.334 93.6825 457.715L91.2394 435.32C91.097 434.014 90.122 432.953 88.8332 432.701L69.8712 428.991C68.7293 428.768 67.5612 429.225 66.8741 430.164L54.9286 446.489C53.891 447.907 51.8622 448.134 50.5372 446.98L23.9614 423.833C22.8358 422.853 22.6022 421.194 23.413 419.941L37.5691 398.064C38.146 397.172 38.2085 396.042 37.7337 395.092L26.3292 372.283C25.821 371.267 24.7822 370.625 23.6459 370.625H5C3.34315 370.625 2 369.282 2 367.625V340.129C2 338.679 3.03687 337.436 4.46334 337.177L27.9308 332.91C28.9119 332.732 29.7403 332.078 30.1411 331.165L37.6859 313.979C38.1778 312.859 37.9398 311.552 37.0845 310.677L19.3079 292.487C18.0706 291.221 18.1929 289.164 19.5715 288.054L50.6207 263.042C51.9276 261.989 53.8441 262.213 54.8729 263.539L73.6629 287.757C74.6778 289.065 76.5606 289.304 77.8697 288.29L89.8365 279.026C90.5704 278.458 91 277.582 91 276.654V247.125" stroke="#D1D4D8" stroke-width="3" stroke-linecap="round"/>
<circle cx="112" cy="351.625" r="35.5" stroke="#D1D4D8" stroke-width="3"/>
<path d="M116.5 385.625C132.5 381.625 142 368.746 142 351.625C142 334.504 131 317.125 110 317.125" stroke="#D1D4D8" stroke-width="3" stroke-linecap="round"/>
<circle cx="295.119" cy="246.625" r="23.5" stroke="#D1D4D8" stroke-width="3"/>
<path d="M297.119 269.125C308.619 264.125 315.119 258.125 315.119 246.625C314.119 235.125 308.119 228.125 297.119 224.125" stroke="#D1D4D8" stroke-width="3" stroke-linecap="round"/>
<circle cx="281.619" cy="417.625" r="20" stroke="#D1D4D8" stroke-width="3"/>
<path d="M282.121 436.625C293.12 433.625 298.244 426.625 299.12 418.625C300.411 406.821 291.62 401.125 285.62 399.125" stroke="#D1D4D8" stroke-width="3" stroke-linecap="round"/>
<path d="M229.289 260.619L234.302 271.803C234.797 272.907 234.581 274.199 233.753 275.082L222.001 287.617C220.937 288.753 220.917 290.514 221.957 291.673L235.896 307.204C236.887 308.309 238.536 308.523 239.776 307.708L253.675 298.574C254.569 297.986 255.708 297.919 256.664 298.398L266.461 303.296C267.477 303.804 268.119 304.843 268.119 305.979V319.625C268.119 321.282 269.462 322.625 271.119 322.625H298.119C299.776 322.625 301.119 321.282 301.119 319.625V309.717C301.119 308.46 301.903 307.336 303.082 306.902L317.928 301.432C319.217 300.957 320.663 301.418 321.44 302.551L330.126 315.218C331.171 316.742 333.333 316.968 334.67 315.693L351.67 299.484C352.779 298.426 352.913 296.703 351.98 295.487L343.332 284.207C342.597 283.249 342.509 281.943 343.108 280.894L349.383 269.914C349.847 269.102 350.663 268.552 351.591 268.429L369.884 265.99C371.43 265.784 372.56 264.427 372.484 262.869L371.268 238.145C371.186 236.481 369.764 235.202 368.1 235.298L355.546 236.015C354.372 236.082 353.268 235.457 352.72 234.417L344.711 219.199C344.069 217.98 344.34 216.481 345.367 215.564L355.556 206.467C356.721 205.427 356.893 203.665 355.95 202.419L345.558 188.688C344.51 187.302 342.506 187.094 341.196 188.236L329.873 198.098C328.841 198.997 327.331 199.083 326.203 198.308L313.209 189.374C312.515 188.897 312.053 188.15 311.937 187.315L310.027 173.563C309.801 171.935 308.307 170.792 306.677 170.999L284.74 173.791C283.242 173.982 282.119 175.257 282.119 176.767V189.362C282.119 190.702 281.231 191.879 279.943 192.247L269.484 195.235C268.62 195.482 267.691 195.329 266.952 194.817L250.648 183.53C249.469 182.714 247.878 182.846 246.85 183.845L232.761 197.542C231.577 198.694 231.546 200.586 232.693 201.776L242.455 211.899C243.428 212.908 243.572 214.457 242.802 215.629L233.508 229.773C232.953 230.617 232.011 231.125 231.001 231.125H218.685C217.208 231.125 215.95 232.201 215.721 233.66L212.586 253.646C212.329 255.289 213.457 256.828 215.101 257.077L227.001 258.88C228.009 259.033 228.871 259.688 229.289 260.619Z" stroke="#D1D4D8" stroke-width="3"/>
<path d="M354.619 206.625L342.558 190.688C341.51 189.302 339.506 189.094 338.196 190.236L326.873 200.098C325.841 200.997 324.331 201.083 323.203 200.308L310.209 191.374C309.515 190.897 309.053 190.15 308.937 189.315L307.027 175.563C306.801 173.935 305.307 172.792 303.677 172.999L281.74 175.791C280.242 175.982 279.119 177.257 279.119 178.767V191.362C279.119 192.702 278.231 193.879 276.943 194.247L266.484 197.235C265.62 197.482 264.691 197.329 263.952 196.817L247.648 185.53C246.469 184.714 244.878 184.846 243.85 185.845L229.761 199.542C228.577 200.694 228.546 202.586 229.693 203.776L239.455 213.899C240.428 214.908 240.572 216.457 239.802 217.629L230.508 231.773C229.953 232.617 229.011 233.125 228.001 233.125H215.685C214.208 233.125 212.95 234.201 212.721 235.66L209.586 255.646C209.329 257.289 210.457 258.828 212.101 259.077L224.001 260.88C225.009 261.033 225.871 261.688 226.289 262.619L231.377 273.97C231.833 274.988 231.688 276.174 230.999 277.051L221.119 289.625" stroke="#D1D4D8" stroke-width="3" stroke-linecap="round"/>
<path d="M343.748 398.097L333.037 404.745C332.155 405.292 331.619 406.256 331.619 407.294V419.594C331.619 420.821 332.366 421.924 333.505 422.379L341.815 425.703C343.152 426.238 343.92 427.648 343.645 429.061L341.091 442.198C340.817 443.607 339.582 444.625 338.146 444.625H323.119C322.175 444.625 321.286 445.07 320.719 445.825L315.353 452.979C314.61 453.971 314.552 455.318 315.209 456.369L322.405 467.882C323.33 469.363 322.801 471.317 321.255 472.128L306.7 479.77C305.263 480.525 303.486 479.999 302.69 478.585L295.979 466.654C295.448 465.71 294.448 465.125 293.365 465.125H279.171C277.934 465.125 276.824 465.885 276.375 467.038L271.127 480.532C270.559 481.995 268.959 482.772 267.458 482.315L250.244 477.076C248.563 476.564 247.68 474.724 248.332 473.092L253.17 460.997C253.717 459.63 253.191 458.068 251.928 457.311L240.709 450.579C239.735 449.994 238.514 450.01 237.555 450.62L230.925 454.839C229.425 455.794 227.427 455.241 226.632 453.65L219.411 439.208C218.69 437.766 219.238 436.012 220.652 435.236L232.062 428.979C233.022 428.452 233.619 427.444 233.619 426.349V413.301C233.619 412.26 233.079 411.292 232.191 410.746L222.873 405.012C221.585 404.22 221.089 402.592 221.714 401.216L227.002 389.584C227.637 388.186 229.225 387.494 230.681 387.979L240.862 391.373C242.184 391.813 243.636 391.286 244.366 390.099L250.152 380.697C250.745 379.733 250.745 378.517 250.152 377.553L244.645 368.604C243.795 367.223 244.196 365.417 245.551 364.525L259.334 355.458C260.822 354.478 262.831 355.005 263.648 356.588L269.281 367.501C269.796 368.498 270.824 369.125 271.947 369.125H287.935C289.237 369.125 290.39 368.285 290.79 367.046L294.137 356.67C294.669 355.021 296.483 354.164 298.095 354.801L314.001 361.09C315.473 361.672 316.24 363.297 315.753 364.803L311.773 377.103C311.381 378.314 311.797 379.641 312.809 380.413L319.815 385.751C320.883 386.564 322.36 386.569 323.433 385.764L332.801 378.739C334.279 377.63 336.398 378.108 337.257 379.744L344.822 394.154C345.553 395.546 345.084 397.267 343.748 398.097Z" stroke="#D1D4D8" stroke-width="3"/>
<path d="M296.416 356.125L311.921 362.853C313.337 363.467 314.055 365.056 313.582 366.526L309.715 378.518C309.326 379.727 309.739 381.05 310.748 381.821L317.473 386.963C318.542 387.78 320.025 387.786 321.1 386.977L330.079 380.219C331.558 379.105 333.683 379.585 334.541 381.225L341.829 395.155C342.557 396.546 342.089 398.263 340.757 399.092L330.425 405.528C329.546 406.076 329.011 407.038 329.011 408.074V420.002C329.011 421.227 329.756 422.33 330.894 422.786L338.874 425.99C340.209 426.525 340.976 427.933 340.702 429.344L338.239 442.058C337.965 443.468 336.73 444.487 335.293 444.487H320.784C319.838 444.487 318.948 444.933 318.381 445.691L313.211 452.609C312.471 453.599 312.414 454.942 313.068 455.991L320.009 467.136C320.93 468.615 320.402 470.564 318.861 471.376L304.84 478.763C303.401 479.521 301.62 478.994 300.825 477.575L294.357 466.036C293.826 465.089 292.825 464.503 291.74 464.503H278.101C276.832 464.503 275.7 465.301 275.274 466.497L271.119 478.172" stroke="#D1D4D8" stroke-width="3" stroke-linecap="round"/>
<path d="M169.866 220.947C171.817 212.917 181.184 197.168 184.477 186.961C184.819 185.903 187.007 185.763 187.375 186.812C192.384 201.107 198.417 214.861 200.153 220.947C202.098 227.768 202.737 244.942 185.615 244.621C168.493 244.3 167.982 228.704 169.866 220.947Z" fill="#D1D4D8"/>
<path d="M201.633 155.464C202.875 150.388 208.49 140.794 211.111 133.87C211.504 132.832 213.864 132.72 214.242 133.764C217.559 142.935 221.327 151.537 222.455 155.464C223.792 160.12 224.232 171.841 212.46 171.622C200.689 171.403 200.337 160.759 201.633 155.464Z" fill="#D1D4D8"/>
<path d="M212.119 108.078L228.3 80.3472C228.813 79.4681 229.583 78.7665 230.505 78.3361L286.86 52.0407C288.696 51.1841 290.894 51.5068 292.105 53.1313C294.401 56.2126 296.907 61.1422 297.106 67.0913C297.175 69.1417 295.663 70.8318 293.68 71.359L240.165 85.5889C238.953 85.9112 237.906 86.6773 237.232 87.7352L222.018 111.625" stroke="#D1D4D8" stroke-width="3" stroke-linecap="round"/>
<path d="M224.056 112.799C225.04 108.033 214.228 104.22 210.295 106.126C207.347 108.033 210.296 111.846 215.211 113.752C219.142 115.277 224.056 114.705 224.056 112.799Z" fill="#D1D4D8"/>
<path d="M289.119 51.3316C289.81 38.1557 300.749 10.3515 338.663 2.17847C340.372 1.81017 342.153 2.40933 343.248 3.77108C353.052 15.9566 368.306 43.8742 364.531 75.6567C364.289 77.6946 362.753 79.3217 360.738 79.7128C340.757 83.5917 307.045 85.7228 297.119 70.125" stroke="#D1D4D8" stroke-width="3" stroke-linecap="round"/>
</svg>
