<svg width="489" height="489" viewBox="0 0 489 489" fill="none" xmlns="http://www.w3.org/2000/svg">
<path d="M186.75 161.02C148.114 154.715 107.112 166.537 77.1488 196.486C65.3213 208.309 56.6478 221.707 50.3398 235.894C77.9373 230.771 109.871 229.983 144.171 234.317C155.21 209.097 169.403 184.27 186.75 161.02Z" stroke="#D1D4D8" stroke-width="3" stroke-miterlimit="10" stroke-linecap="round" stroke-linejoin="round"/>
<path d="M292.804 412.044C281.371 423.867 267.572 432.536 253.379 438.841C260.095 409.721 257.321 363.179 254.956 344.658C280.188 334.018 304.631 319.831 328.286 302.492C334.594 341.505 322.767 382.095 292.804 412.044Z" stroke="#D1D4D8" stroke-width="3" stroke-miterlimit="10" stroke-linecap="round" stroke-linejoin="round"/>
<path d="M224.598 285.547C243.522 302.886 263.628 317.073 285.312 329.289" stroke="#D1D4D8" stroke-width="3" stroke-miterlimit="10" stroke-linecap="round" stroke-linejoin="round"/>
<path d="M159.941 203.578C171.769 224.858 186.356 245.35 203.703 264.265" stroke="#D1D4D8" stroke-width="3" stroke-miterlimit="10" stroke-linecap="round" stroke-linejoin="round"/>
<path d="M153.238 335.989C147.324 330.078 147.324 320.62 153.238 314.709L232.088 235.894C238.002 229.983 247.464 229.983 253.377 235.894C259.291 241.805 259.291 251.263 253.377 257.174L174.528 335.989C168.614 341.9 159.152 341.9 153.238 335.989Z" stroke="#D1D4D8" stroke-width="3" stroke-miterlimit="10" stroke-linecap="round" stroke-linejoin="round"/>
<path d="M203.309 306.825C219.473 321.405 236.426 334.016 254.167 345.05C297.14 326.528 338.931 298.549 375.99 261.506M182.02 285.545C167.432 269.782 154.816 252.443 143.777 234.71C162.701 191.756 190.299 149.984 227.358 112.941C263.244 77.2557 303.557 49.8988 345.161 31.2772M409.625 223.48C463.259 154.667 489.754 74.6847 486.774 2.20662C450.785 0.728253 413.014 6.50775 375.661 19.2597" stroke="#D1D4D8" stroke-width="3" stroke-miterlimit="10" stroke-linecap="round" stroke-linejoin="round"/>
<path d="M392.941 14.0273C403.192 30.9725 415.019 46.3413 429.212 60.1339C443.405 74.3205 458.781 86.1427 475.34 95.9945" stroke="#D1D4D8" stroke-width="3" stroke-miterlimit="10" stroke-linecap="round" stroke-linejoin="round"/>
<path d="M65.7766 349.877C64.7159 335.145 52.8475 302.355 24.7644 316.642C4.61169 326.896 9.09027 348.816 20.1683 359.422" stroke="#D1D4D8" stroke-width="3" stroke-linecap="round"/>
<path d="M56.5844 369.676C48.8061 359.776 16.4215 365.996 23.704 394.071C27.6359 409.23 57.2915 417.288 71.0801 409.628" stroke="#D1D4D8" stroke-width="3" stroke-linecap="round"/>
<path d="M73.5551 401.496C78.387 399.492 87.8386 398.526 86.9901 410.688C86.1416 422.85 75.0873 430.133 69.6662 432.255C65.6003 433.846 59.4839 431.689 59.7667 422.355" stroke="#D1D4D8" stroke-width="3" stroke-linecap="round"/>
<path d="M97.2427 470.437C102.192 475.387 115.415 483.094 128.709 474.326" stroke="#D1D4D8" stroke-width="3" stroke-linecap="round"/>
<path d="M121.285 430.839C117.632 423.886 106.648 413.657 91.9402 428.364C73.5554 446.749 99.3648 463.366 107.497 461.599" stroke="#D1D4D8" stroke-width="3" stroke-linecap="round"/>
<path d="M147.8 419.171C158.878 421.763 182.386 432.806 177.145 454.172C172.549 472.911 149.214 469.611 137.193 463.719" stroke="#D1D4D8" stroke-width="3" stroke-linecap="round"/>
<path d="M117.395 351.292C116.547 352.706 91.8216 368.144 79.565 375.687" stroke="#D1D4D8" stroke-width="3" stroke-linecap="round"/>
<path d="M126.941 366.492L96.8894 396.544" stroke="#D1D4D8" stroke-width="3" stroke-linecap="round"/>
<path d="M140.73 376.746L117.749 411.041" stroke="#D1D4D8" stroke-width="3" stroke-linecap="round"/>
<circle cx="335.5" cy="152.48" r="43" stroke="#D1D4D8" stroke-width="3"/>
</svg>
