<svg width="298" height="182" viewBox="0 0 298 182" fill="none" xmlns="http://www.w3.org/2000/svg">
<path d="M0 149.602C-0.000180899 134.602 25.5 121.903 37 122.57C28.5 163.6 44.8334 165.07 54.5 166.57H181C181 167.57 182.5 181.07 171 181.602H63.0002C41.6669 182.936 0.000292966 173.894 0 149.602Z" fill="#D1D4D8"/>
<path d="M277 59.5703V21.5703C277 10.5246 268.046 1.57031 257 1.57031H58C46.9543 1.57031 38 10.5246 38 21.5703V146.57C38 157.616 46.9543 166.57 58 166.57H177.5" stroke="#D1D4D8" stroke-width="3" stroke-linecap="round"/>
<path d="M66 124.57H114" stroke="#D1D4D8" stroke-width="3" stroke-linecap="round"/>
<path d="M130 124.57H137" stroke="#D1D4D8" stroke-width="3" stroke-linecap="round"/>
<rect x="41" y="23.5703" width="233" height="28" fill="#D1D4D8"/>
<circle cx="238" cy="129.57" r="29" fill="#D1D4D8"/>
<path d="M259.064 103.559C261.912 102.594 264.968 102.07 268.148 102.07C283.566 102.07 296.064 114.382 296.064 129.57C296.064 144.758 283.566 157.07 268.148 157.07C264.968 157.07 261.912 156.547 259.064 155.582" stroke="#D1D4D8" stroke-width="3" stroke-linecap="round"/>
</svg>
