<svg width="359" height="336" viewBox="0 0 359 336" fill="none" xmlns="http://www.w3.org/2000/svg">
<path d="M105.434 320.698C87.9988 247.71 61.5357 101.641 91.784 88.3562C93.1586 87.7542 94.6568 87.3611 96.0454 86.7828L211.023 38.8038" stroke="#D1D4D8" stroke-width="3" stroke-linecap="round"/>
<path d="M103.352 102.072C90.3516 126.554 110.555 229.776 126.864 297.63C130.411 312.422 146.513 320.176 160.502 314.095L252.194 274.229" stroke="#D1D4D8" stroke-width="3" stroke-linecap="round"/>
<path d="M126.259 103.55C131.532 97.1325 136.982 74.474 124.74 62.8898C122.631 60.871 119.973 59.1929 116.685 57.9931C94.4847 49.8754 80.323 77.4543 93.6756 86.9447" stroke="#D1D4D8" stroke-width="3" stroke-linecap="round"/>
<path d="M124.398 61.8812C126.29 49.4454 142.431 36.4574 161.89 47.2414C182.799 62.0214 172.294 83.756 162.761 91.3389" stroke="#D1D4D8" stroke-width="3" stroke-linecap="round"/>
<path d="M162.772 46.1731C166.738 36.3696 181.696 17.4655 201.43 25.2362C227.933 39.6953 212.676 68.1797 201.584 71.8256" stroke="#D1D4D8" stroke-width="3" stroke-linecap="round"/>
<path d="M201.205 23.8829C207.231 12.9938 222.265 2.46906 236.947 12.879C251.63 23.2912 246.972 50.8828 232.052 59.7154" stroke="#D1D4D8" stroke-width="3" stroke-linecap="round"/>
<path d="M164.688 140.23C187.024 133.73 202.895 130.33 219.688 114.73" stroke="#D1D4D8" stroke-width="3" stroke-linecap="round"/>
<path d="M173.188 175.73C194.034 172.487 211.444 164.866 230.688 157.73" stroke="#D1D4D8" stroke-width="3" stroke-linecap="round"/>
<path d="M180.188 212.73C203.716 209.155 221.355 209.55 233.688 191.73" stroke="#D1D4D8" stroke-width="3" stroke-linecap="round"/>
<path d="M187.688 244.73C199.461 243.147 210.573 240.764 225.688 228.73" stroke="#D1D4D8" stroke-width="3" stroke-linecap="round"/>
<path d="M240.188 52.2305L266.688 167.23" stroke="#D1D4D8" stroke-width="3" stroke-linecap="round"/>
<path d="M131.688 153.23L137.608 156.561C138.692 157.171 140.065 156.653 140.476 155.478L146.688 137.73" stroke="#D1D4D8" stroke-width="3" stroke-linecap="round"/>
<path d="M139.688 187.23L145.608 190.561C146.692 191.171 148.065 190.653 148.476 189.478L154.688 171.73" stroke="#D1D4D8" stroke-width="3" stroke-linecap="round"/>
<path d="M147.688 221.23L153.608 224.561C154.692 225.171 156.065 224.653 156.476 223.478L162.688 205.73" stroke="#D1D4D8" stroke-width="3" stroke-linecap="round"/>
<path d="M155.688 255.23L161.608 258.561C162.692 259.171 164.065 258.653 164.476 257.478L170.688 239.73" stroke="#D1D4D8" stroke-width="3" stroke-linecap="round"/>
<path d="M262.534 223.052L345.087 157.275C352.628 152.335 359.882 162.335 352.628 168.452L270.663 233.223C270.231 233.563 269.605 233.492 269.262 233.063L262.376 224.459C262.03 224.027 262.101 223.396 262.534 223.052Z" stroke="#D1D4D8" stroke-width="3" stroke-linecap="round"/>
<path d="M255.73 238.434L269.846 236.014C270.592 235.886 270.931 235.006 270.463 234.411L261.59 223.118C261.11 222.507 260.147 222.653 259.87 223.379L254.627 237.091C254.35 237.815 254.966 238.565 255.73 238.434Z" fill="#D1D4D8"/>
</svg>
