<svg width="373" height="427" viewBox="0 0 373 427" fill="none" xmlns="http://www.w3.org/2000/svg">
<path d="M252.9 252.48L224.9 225.48" stroke="#D1D4D8" stroke-width="3" stroke-linecap="round"/>
<path d="M235.611 52.9805C252.778 75.075 263 102.834 263 132.98C263 205.054 204.573 263.48 132.5 263.48C60.4268 263.48 2 205.054 2 132.98C2 60.9073 60.4268 2.48047 132.5 2.48047C158.855 2.48047 183.385 10.2928 203.901 23.728" stroke="#D1D4D8" stroke-width="3" stroke-linecap="round"/>
<rect x="268.916" y="220.48" width="137.404" height="73.2425" rx="36.6212" transform="rotate(40.8596 268.916 220.48)" fill="#D1D4D8"/>
<ellipse cx="131.5" cy="402.98" rx="121.5" ry="23.5" fill="#D1D4D8"/>
<path d="M110 187.48C119.351 175.652 139.571 170.225 155 187.48" stroke="#D1D4D8" stroke-width="3" stroke-linecap="round"/>
<ellipse cx="95" cy="115.48" rx="9" ry="12" fill="#D1D4D8"/>
<ellipse cx="171" cy="116.48" rx="9" ry="12" fill="#D1D4D8"/>
<path d="M192.729 146.195C187.937 147.473 187.504 141.606 188.118 136.645C188.309 135.108 190.129 134.565 191.139 135.739C194.511 139.654 197.555 144.908 192.729 146.195Z" fill="#D1D4D8"/>
</svg>
