<svg width="316" height="337" viewBox="0 0 316 337" fill="none" xmlns="http://www.w3.org/2000/svg">
<path d="M30.3224 94.853L2.26898 297.625C2.11961 298.705 2.86218 299.705 3.9388 299.875L218.181 333.635C219.397 333.826 220.496 332.884 220.492 331.652L219.509 41.1565C219.504 39.8262 218.227 38.871 216.95 39.2431L31.7441 93.2069C30.9872 93.4275 30.4305 94.0721 30.3224 94.853Z" stroke="#D1D4D8" stroke-width="3"/>
<path d="M240.485 57.4852L220.414 37.4142C219.154 36.1543 217 37.0466 217 38.8284V334.06C217 335.322 218.155 336.269 219.392 336.022L262.744 327.351C263.744 327.151 264.433 326.232 264.344 325.216L241.063 58.7253C241.022 58.2568 240.818 57.8177 240.485 57.4852Z" fill="#D1D4D8"/>
<path d="M241 60.5H270.791C271.775 60.5 272.613 61.2161 272.766 62.1883L313.642 321.232C313.831 322.431 312.918 323.521 311.705 323.544L261.5 324.5" stroke="#D1D4D8" stroke-width="3" stroke-linecap="round"/>
<path d="M120.5 67.0707C124.833 47.0707 141.2 8.07141 172 12.0707C188.5 14.2132 198 33.5707 198 43.0707" stroke="#D1D4D8" stroke-width="3" stroke-linecap="round"/>
<path d="M78.5 78.5694C83.3333 55.0694 102.4 3.9675 138 1.56855C163 -0.116096 171.5 31.5005 168 52.5" stroke="#D1D4D8" stroke-width="3" stroke-linecap="round"/>
<path d="M103 221.07C110.5 213.017 121.6 210.539 133 221.07" stroke="#D1D4D8" stroke-width="3" stroke-linecap="round"/>
<ellipse cx="87.5" cy="153.57" rx="8.5" ry="12.5" fill="#D1D4D8"/>
<ellipse cx="141.5" cy="153.57" rx="8.5" ry="12.5" fill="#D1D4D8"/>
<path d="M160.944 181.999C154.81 183.618 154.497 175.794 155.392 169.628C155.613 168.101 157.428 167.558 158.461 168.703C162.792 173.502 167.118 180.37 160.944 181.999Z" fill="#D1D4D8"/>
</svg>
