<svg width="515" height="279" viewBox="0 0 515 279" fill="none" xmlns="http://www.w3.org/2000/svg">
<path d="M184.5 243.488C184.5 261.97 169.298 276.988 150.5 276.988C131.702 276.988 116.5 261.97 116.5 243.488C116.5 225.007 131.702 209.988 150.5 209.988C169.298 209.988 184.5 225.007 184.5 243.488Z" stroke="#D1D4D8" stroke-width="3"/>
<path d="M150.836 259.398L150.836 263.398" stroke="#D1D4D8" stroke-width="3" stroke-linecap="round"/>
<path d="M150.833 227.398L150.832 222.398" stroke="#D1D4D8" stroke-width="3" stroke-linecap="round"/>
<path d="M158.832 229.571C156.727 228.441 153.532 227.385 150.544 227.398C146.942 227.413 143.643 228.981 142.919 233.845C141.963 240.26 149.211 242.562 153.529 244.88C159.498 248.084 159.444 254.09 155.852 256.984C154.236 258.286 152.401 259 150.548 259.27C147.838 259.665 145.087 259.11 142.922 258.054" stroke="#D1D4D8" stroke-width="3" stroke-linecap="round"/>
<path d="M228.004 259.398L228.004 263.398" stroke="#D1D4D8" stroke-width="3" stroke-linecap="round"/>
<path d="M228.001 227.398L228 222.398" stroke="#D1D4D8" stroke-width="3" stroke-linecap="round"/>
<path d="M236 229.571C233.895 228.441 230.7 227.385 227.712 227.398C224.11 227.413 220.811 228.981 220.087 233.845C219.131 240.26 226.379 242.562 230.697 244.88C236.666 248.084 236.612 254.09 233.02 256.984C231.404 258.286 229.569 259 227.716 259.27C225.006 259.665 222.255 259.11 220.09 258.054" stroke="#D1D4D8" stroke-width="3" stroke-linecap="round"/>
<path d="M305.172 259.398L305.172 263.398" stroke="#D1D4D8" stroke-width="3" stroke-linecap="round"/>
<path d="M305.169 227.398L305.168 222.398" stroke="#D1D4D8" stroke-width="3" stroke-linecap="round"/>
<path d="M313.168 229.571C311.063 228.441 307.868 227.385 304.88 227.398C301.278 227.413 297.979 228.981 297.255 233.845C296.299 240.26 303.547 242.562 307.865 244.88C313.834 248.084 313.78 254.09 310.188 256.984C308.572 258.286 306.737 259 304.884 259.27C302.174 259.665 299.423 259.11 297.258 258.054" stroke="#D1D4D8" stroke-width="3" stroke-linecap="round"/>
<path d="M382.34 259.398L382.34 263.398" stroke="#D1D4D8" stroke-width="3" stroke-linecap="round"/>
<path d="M382.337 227.398L382.336 222.398" stroke="#D1D4D8" stroke-width="3" stroke-linecap="round"/>
<path d="M390.336 229.571C388.231 228.441 385.036 227.385 382.048 227.398C378.446 227.413 375.147 228.981 374.423 233.845C373.467 240.26 380.715 242.562 385.033 244.88C391.002 248.084 390.948 254.09 387.356 256.984C385.74 258.286 383.905 259 382.051 259.27C379.342 259.665 376.591 259.11 374.426 258.054" stroke="#D1D4D8" stroke-width="3" stroke-linecap="round"/>
<path d="M261.5 242.988C261.5 261.47 246.298 276.488 227.5 276.488C208.702 276.488 193.5 261.47 193.5 242.988C193.5 224.507 208.702 209.488 227.5 209.488C246.298 209.488 261.5 224.507 261.5 242.988Z" stroke="#D1D4D8" stroke-width="3"/>
<path d="M338.5 242.988C338.5 261.47 323.298 276.488 304.5 276.488C285.702 276.488 270.5 261.47 270.5 242.988C270.5 224.507 285.702 209.488 304.5 209.488C323.298 209.488 338.5 224.507 338.5 242.988Z" stroke="#D1D4D8" stroke-width="3"/>
<path d="M415.5 242.988C415.5 261.47 400.298 276.488 381.5 276.488C362.702 276.488 347.5 261.47 347.5 242.988C347.5 224.507 362.702 209.488 381.5 209.488C400.298 209.488 415.5 224.507 415.5 242.988Z" stroke="#D1D4D8" stroke-width="3"/>
<path d="M74 190.488C72 190.155 65.1 186.288 53.5 173.488" stroke="#D1D4D8" stroke-width="3" stroke-linecap="round"/>
<path d="M62 214.988C47.6667 208.655 15.6 188.788 2 159.988" stroke="#D1D4D8" stroke-width="3" stroke-linecap="round"/>
<path d="M66.5 254.988C56.6667 252.322 32.8 241.688 16 220.488" stroke="#D1D4D8" stroke-width="3" stroke-linecap="round"/>
<path d="M441 178.988C443 178.655 449.9 174.788 461.5 161.988" stroke="#D1D4D8" stroke-width="3" stroke-linecap="round"/>
<path d="M453 203.488C467.333 197.155 499.4 177.288 513 148.488" stroke="#D1D4D8" stroke-width="3" stroke-linecap="round"/>
<path d="M448.5 243.488C458.333 240.822 482.2 230.188 499 208.988" stroke="#D1D4D8" stroke-width="3" stroke-linecap="round"/>
<path d="M227.5 30.4883V207.988" stroke="#D1D4D8" stroke-width="3" stroke-linecap="round"/>
<path d="M151 30.9883V208.488" stroke="#D1D4D8" stroke-width="3" stroke-linecap="round"/>
<path d="M303 30.4883V207.988" stroke="#D1D4D8" stroke-width="3" stroke-linecap="round"/>
<path d="M381 30.4883V207.988" stroke="#D1D4D8" stroke-width="3" stroke-linecap="round"/>
<path d="M94 0.488281H401C417.569 0.488281 431 13.9197 431 30.4883V31.4883H124C107.431 31.4883 94 18.0568 94 1.48828V0.488281Z" fill="#D1D4D8"/>
</svg>
