<svg width="445" height="436" viewBox="0 0 445 436" fill="none" xmlns="http://www.w3.org/2000/svg">
<path d="M52.5 191.934V349.499C52.5 350.025 52.9078 350.461 53.4327 350.496L185.928 359.429C185.976 359.432 186.024 359.432 186.072 359.428L238.5 355.434" stroke="#D1D4D8" stroke-width="3" stroke-linecap="round"/>
<path d="M52.5 191.434L184.877 175.072C185.474 174.999 186 175.464 186 176.065V357.434" stroke="#D1D4D8" stroke-width="3" stroke-linecap="round"/>
<path d="M212.4 176.434L382.564 187.373C383.09 187.407 383.5 187.844 383.5 188.371V254.434" stroke="#D1D4D8" stroke-width="3" stroke-linecap="round"/>
<path d="M53 350.434H3C2.44772 350.434 2 350.881 2 351.434V410.573C2 411.068 2.36187 411.488 2.85117 411.562L150.351 433.761C150.956 433.852 151.5 433.383 151.5 432.772V375.434" stroke="#D1D4D8" stroke-width="3" stroke-linecap="round"/>
<path d="M151 433.934L269.5 422.934" stroke="#D1D4D8" stroke-width="3" stroke-linecap="round"/>
<path d="M221 430.934V305.934L275 430.934H221Z" fill="#D1D4D8" fill-opacity="0.3"/>
<path d="M370.926 370.738L292.936 208.423C292.284 207.065 293.309 205.501 294.814 205.558L330.303 206.889C331.04 206.916 331.702 207.348 332.025 208.011L410.375 368.651C410.749 369.419 410.595 370.339 409.991 370.942L394.052 386.881C393.697 387.236 393.221 387.445 392.719 387.465L361.179 388.744C359.42 388.815 358.433 386.743 359.598 385.422L370.623 372.928C371.154 372.325 371.274 371.463 370.926 370.738Z" fill="#D1D4D8"/>
<path d="M326.409 418.05L318.942 425.842C317.696 427.143 318.67 429.3 320.471 429.224L350.273 427.964C350.743 427.944 351.19 427.76 351.537 427.443L358.692 420.911C360.04 419.679 359.169 417.434 357.343 417.434H327.853C327.308 417.434 326.787 417.656 326.409 418.05Z" fill="#D1D4D8"/>
<path d="M101.5 202.687V187.185C101.5 186.182 102.242 185.335 103.236 185.202L129.236 181.736C130.435 181.576 131.5 182.508 131.5 183.718V199.653C131.5 200.668 130.74 201.522 129.732 201.64L103.732 204.673C102.543 204.812 101.5 203.883 101.5 202.687Z" fill="#D1D4D8"/>
<path d="M56.5 404.189V417.22C56.5 418.206 57.2188 419.045 58.1933 419.196L83.1933 423.076C84.4056 423.264 85.5 422.326 85.5 421.099V407.207C85.5 406.195 84.7442 405.342 83.7396 405.221L58.7396 402.204C57.5487 402.06 56.5 402.99 56.5 404.189Z" fill="#D1D4D8"/>
<path d="M103.5 335.934V351.588C103.5 352.631 104.3 353.498 105.339 353.582L132.339 355.759C133.503 355.853 134.5 354.934 134.5 353.766V335.934C134.5 334.829 133.605 333.934 132.5 333.934H105.5C104.395 333.934 103.5 334.829 103.5 335.934Z" fill="#D1D4D8"/>
<path d="M56.5 374.66V353.076C56.5 351.918 57.4816 351.001 58.6376 351.081L83.6376 352.805C84.6863 352.877 85.5 353.749 85.5 354.8V377.678C85.5 378.877 84.4513 379.807 83.2604 379.663L58.2604 376.646C57.2558 376.525 56.5 375.672 56.5 374.66Z" fill="#D1D4D8"/>
<path d="M274.929 430.124L202.753 264.515C202.599 264.16 202.663 263.748 202.918 263.457L254.499 204.577C254.972 204.036 255.844 204.157 256.154 204.805L336.188 372.779C336.374 373.169 336.288 373.635 335.974 373.934L276.535 430.449C276.032 430.928 275.207 430.761 274.929 430.124Z" stroke="#D1D4D8" stroke-width="3" stroke-linecap="round"/>
<path d="M276.5 430.934L383.63 425.951C383.869 425.94 384.096 425.843 384.27 425.68L443.058 370.264C443.731 369.63 443.257 368.501 442.333 368.537L354.901 371.934" stroke="#D1D4D8" stroke-width="3" stroke-linecap="round"/>
<path d="M255.5 203.934L358.919 207.911C359.278 207.925 359.602 208.13 359.768 208.449L443 368.434" stroke="#D1D4D8" stroke-width="3" stroke-linecap="round"/>
<path fill-rule="evenodd" clip-rule="evenodd" d="M279.5 131.934C315.675 131.934 345 102.608 345 66.4336C345 30.2589 315.675 0.933594 279.5 0.933594C243.325 0.933594 214 30.2589 214 66.4336C214 102.608 243.325 131.934 279.5 131.934ZM311.943 49.0079C313.641 46.8301 313.252 43.6883 311.074 41.9904C308.896 40.2925 305.755 40.6816 304.057 42.8593L274.383 80.9202L254.07 65.1176C251.891 63.422 248.749 63.8143 247.054 65.9939C245.358 68.1734 245.75 71.3149 247.93 73.0105L270.608 90.6532C273.657 93.0253 278.052 92.4789 280.427 89.4322L311.943 49.0079Z" fill="#D1D4D8"/>
</svg>
