<svg width="366" height="381" viewBox="0 0 366 381" fill="none" xmlns="http://www.w3.org/2000/svg">
<path d="M93.6789 80.1786L90.9749 12.1786C90.7489 6.50442 95.2879 1.78125 100.967 1.78125H174.061C179.584 1.78125 184.061 6.2584 184.061 11.7812V79.7812C184.061 85.3041 179.584 89.7812 174.061 89.7812H103.671C98.3029 89.7812 93.8919 85.5426 93.6789 80.1786Z" stroke="#D1D4D8" stroke-width="3" stroke-linecap="round"/>
<path d="M126.562 46.3528L147.987 50.2814M117.562 67.7814L126.562 46.3528L117.562 67.7814ZM153.062 67.7814L147.987 50.2814L153.062 67.7814ZM126.562 46.3528L136.372 22.9952C137.102 21.2569 139.613 21.4018 140.138 23.2126L147.987 50.2814L126.562 46.3528Z" stroke="#D1D4D8" stroke-width="3" stroke-linecap="round"/>
<path d="M276.146 349.871V269.887C276.146 268.742 277.105 267.831 278.248 267.889L362.448 272.171C363.626 272.23 364.497 273.29 364.346 274.46C361.301 298.054 363.031 335.362 364.463 353.525C364.557 354.729 363.576 355.734 362.37 355.679L278.057 351.869C276.988 351.82 276.146 350.94 276.146 349.871Z" stroke="#D1D4D8" stroke-width="3" stroke-linecap="round"/>
<path d="M120.063 99.7812C109.328 120.181 124.535 144.615 133.48 154.282C147.48 165.782 165.98 142.782 168.48 133.282C170.98 123.782 163.48 108.282 142.48 117.282C121.48 126.282 129.48 147.781 142.48 145.781C155.48 143.781 182.98 130.281 185.48 150.281C187.98 170.281 165.48 175.781 158.98 169.781C152.48 163.781 134.48 151.301 141.48 133.282C148.48 115.262 176.98 116.281 183.48 131.781C189.98 147.281 166.48 183.781 141.48 188.281C116.48 192.781 123.98 164.781 139.48 164.781C173.48 162.281 168.58 147.081 216.98 150.281C235.508 152.948 252.363 168.381 171.563 208.781" stroke="#D1D4D8" stroke-width="3" stroke-linecap="round"/>
<path d="M275.062 313.779C261.229 320.779 235.163 322.28 233.562 278.28C231.962 234.28 194.896 232.946 176.562 237.78" stroke="#D1D4D8" stroke-width="3" stroke-linecap="round"/>
<path d="M337.307 333.324H309.149C306.535 333.324 305.172 330.214 306.942 328.292L332.672 300.357C334.443 298.434 333.079 295.324 330.465 295.324H305.807" stroke="#D1D4D8" stroke-width="3" stroke-linecap="round"/>
<circle r="14" transform="matrix(-0.278825 -0.960342 -0.960342 0.278825 73.3183 345.296)" stroke="#D1D4D8" stroke-width="3"/>
<path d="M124.001 270.574L148.501 224.574C113.386 241.143 100.668 256.144 97.9655 267.074" stroke="#D1D4D8" stroke-width="3" stroke-linecap="round"/>
<path d="M116.002 288.571L94.4361 326.146C97.2602 329.256 99.4373 333.041 100.688 337.347C105.076 352.463 96.3802 368.275 81.2643 372.663C66.1484 377.052 50.3368 368.356 45.9481 353.24C41.5593 338.124 50.2554 322.313 65.3713 317.924C69.7696 316.647 74.2268 316.478 78.4443 317.252C78.8904 317.252 91.002 294.298 98.002 283.071" stroke="#D1D4D8" stroke-width="3" stroke-linecap="round"/>
<circle r="14" transform="matrix(-0.186293 -0.982494 -0.982494 0.186293 40.2959 287.366)" stroke="#D1D4D8" stroke-width="3"/>
<path d="M116.501 288.572C150.002 294.572 164.001 266.572 173.001 249.572L68.0093 296.38C67.5045 296.605 67.1187 297.03 66.9217 297.546C65.4596 301.378 63.1433 304.954 59.9798 307.975C48.5976 318.847 30.5572 318.434 19.6853 307.051C8.81354 295.669 9.22731 277.629 20.6095 266.757C31.9918 255.885 50.0322 256.299 60.904 267.681C64.0011 270.923 66.1823 274.706 67.455 278.71L96.5012 267.681" stroke="#D1D4D8" stroke-width="3" stroke-linecap="round"/>
</svg>
