<svg width="461" height="455" viewBox="0 0 461 455" fill="none" xmlns="http://www.w3.org/2000/svg">
<path d="M459.5 420.516C436.667 442.849 367.8 475.816 275 429.016C159 370.516 385 334.516 391.5 331.516C398 328.516 461.5 326.016 411.5 264.016C361.5 202.016 329 184.516 363.5 113.516C398 42.5156 326.5 -40.4844 238 26.0156" stroke="#D1D4D8" stroke-width="3" stroke-linecap="round" stroke-dasharray="10 15"/>
<path d="M134 203.269C106.803 190.349 88 162.628 88 130.516C88 86.0567 124.041 50.0156 168.5 50.0156C212.959 50.0156 249 86.0567 249 130.516C249 165.69 226.44 195.596 195 206.552" stroke="#D1D4D8" stroke-width="3" stroke-linecap="round"/>
<path d="M133.5 219.398C98.0715 205.436 73 170.904 73 130.516C73 77.7724 115.757 35.0156 168.5 35.0156C221.243 35.0156 264 77.7724 264 130.516C264 174.246 234.607 211.111 194.5 222.434" stroke="#D1D4D8" stroke-width="3" stroke-linecap="round"/>
<path d="M219.5 70.5139C203.007 79.3675 183.948 77.6026 177.716 65.9932C171.484 54.3839 179.802 37.7954 196.294 28.9419C212.787 20.0884 231.209 22.3224 237.441 33.9317C241.471 41.4398 239.416 51.0305 233 59.2646" stroke="#D1D4D8" stroke-width="3" stroke-linecap="round"/>
<path d="M147.5 123.434C126.373 124.546 106.441 127.84 88.5 132.888" stroke="#D1D4D8" stroke-width="3" stroke-linecap="round"/>
<path d="M73 137.863C30.1552 153.417 2 179.706 2 209.517C2 257.289 74.306 296.017 163.5 296.017C252.694 296.017 325 257.289 325 209.517C325 182.092 301.172 157.649 264 141.801" stroke="#D1D4D8" stroke-width="3" stroke-linecap="round"/>
<path d="M182.5 123.609C206.583 125.121 229.046 129.471 248.692 136.017" stroke="#D1D4D8" stroke-width="3" stroke-linecap="round"/>
<path d="M190.787 228.24C172.703 240.43 149.449 234.04 137.85 228.266C136.359 227.524 135.424 226.041 135.32 224.378C132.744 183.184 138.595 111.113 166 115.517C197.639 120.602 196.878 190.477 192.756 224.955C192.596 226.29 191.902 227.488 190.787 228.24Z" stroke="#D1D4D8" stroke-width="3" stroke-linecap="round"/>
<path d="M15.5006 339.516C-2.09945 316.716 20.5006 304.016 34.0006 300.516C42.001 345.516 128.001 367.373 172.001 366.516C141.001 369.516 37.5006 368.016 15.5006 339.516Z" fill="#D1D4D8"/>
<path d="M4.5 224.516L40.6213 318.035C40.871 318.682 41.228 319.248 41.7231 319.733C76.4132 353.718 186.314 401.082 288.244 324.96C289.052 324.356 289.671 323.503 289.99 322.546L322.5 225.016" stroke="#D1D4D8" stroke-width="3" stroke-linecap="round"/>
</svg>
