<svg width="457" height="386" viewBox="0 0 457 386" fill="none" xmlns="http://www.w3.org/2000/svg">
<path d="M398 177.871V139.871C398 128.825 389.046 119.871 378 119.871H179C167.954 119.871 159 128.825 159 139.871V264.871C159 275.917 167.954 284.871 179 284.871H298.5" stroke="#D1D4D8" stroke-width="3" stroke-linecap="round"/>
<path d="M187 242.871H235" stroke="#D1D4D8" stroke-width="3" stroke-linecap="round"/>
<path d="M251 242.871H258" stroke="#D1D4D8" stroke-width="3" stroke-linecap="round"/>
<rect x="163.5" y="143.371" width="230" height="25" fill="#D1D4D8" stroke="#D1D4D8" stroke-width="3"/>
<circle cx="359" cy="247.871" r="27.5" fill="#D1D4D8" stroke="#D1D4D8" stroke-width="3"/>
<path fill-rule="evenodd" clip-rule="evenodd" d="M0.219862 206.784C-1.72153 231.115 8.35814 286.327 64.1955 315.631C64.3166 315.694 64.4559 315.704 64.5815 315.65C87.7033 305.679 132.91 270.128 130.613 206.781C130.605 206.578 130.457 206.398 130.26 206.35C128.314 205.871 126.46 205.424 124.685 204.995C101.053 199.291 91.3168 196.941 64.7407 170.016C64.555 169.828 64.2496 169.818 64.0733 170.015C54.5441 180.659 29.1079 202.211 0.608321 206.381C0.398142 206.412 0.236757 206.572 0.219862 206.784ZM85.3161 226.218C86.1228 225.097 85.8685 223.535 84.748 222.728C83.6275 221.922 82.0651 222.176 81.2584 223.296L60.2099 252.53L49.4294 237.751C48.6158 236.635 47.0519 236.391 45.9364 237.204C44.8209 238.018 44.5762 239.582 45.3899 240.697L57.8327 257.756C59.0178 259.381 61.4443 259.373 62.6193 257.741L85.3161 226.218Z" fill="#D1D4D8"/>
<path d="M380.064 221.859C382.912 220.895 385.968 220.371 389.148 220.371C404.566 220.371 417.064 232.683 417.064 247.871C417.064 263.059 404.566 275.371 389.148 275.371C385.968 275.371 382.912 274.847 380.064 273.883" stroke="#D1D4D8" stroke-width="3" stroke-linecap="round"/>
<path d="M79.748 142.371C101.892 61.3904 175.996 1.87109 264.001 1.87109C369.487 1.87109 455.001 87.3847 455.001 192.871C455.001 298.357 369.487 383.871 264.001 383.871C205.37 383.871 152.909 357.453 117.872 315.871" stroke="#D1D4D8" stroke-width="3" stroke-linecap="round"/>
</svg>
