<svg width="384" height="362" viewBox="0 0 384 362" fill="none" xmlns="http://www.w3.org/2000/svg">
<path d="M153.062 133.056L144.768 193.27C144.619 194.348 145.361 195.348 146.436 195.518L209.179 205.447C210.396 205.64 211.496 204.697 211.492 203.465L211.202 117.474C211.198 116.143 209.918 115.188 208.641 115.561L154.482 131.41C153.726 131.631 153.17 132.276 153.062 133.056Z" stroke="#D1D4D8" stroke-width="3"/>
<path d="M217.9 119.814L211.9 113.814V207.314L225.4 204.314L217.9 119.814Z" fill="#D1D4D8"/>
<path d="M217.5 121.814H225.726C226.706 121.814 227.541 122.524 227.7 123.491L240.126 199.23C240.323 200.433 239.408 201.531 238.189 201.554L223.959 201.814" stroke="#D1D4D8" stroke-width="3" stroke-linecap="round"/>
<path d="M180.5 123.814C181.898 117.665 187.177 105.672 197.113 106.902C202.435 107.561 205.5 113.513 205.5 116.435" stroke="#D1D4D8" stroke-width="3" stroke-linecap="round"/>
<path d="M168.5 126.814C169.946 119.801 175.65 104.55 186.3 103.834C193.779 103.331 196.322 112.767 195.275 119.034" stroke="#D1D4D8" stroke-width="3" stroke-linecap="round"/>
<path d="M64.5 95.9184L64.5 225.94C64.5 227.045 65.3954 227.94 66.5 227.94H322.5C323.605 227.94 324.5 227.045 324.5 225.94V94.9404" stroke="#D1D4D8" stroke-width="3" stroke-linecap="round"/>
<path d="M349.5 90.4404V247.94C349.5 249.045 348.605 249.94 347.5 249.94H40.5C39.3954 249.94 38.5 249.045 38.5 247.94L38.5 93.4404" stroke="#D1D4D8" stroke-width="3" stroke-linecap="round"/>
<path d="M39 248.312L2.12631 338.556C1.58873 339.872 2.55647 341.312 3.97772 341.312H380.154C381.539 341.312 382.505 339.938 382.035 338.635L349.5 248.312" stroke="#D1D4D8" stroke-width="3" stroke-linecap="round"/>
<path d="M105 273.312L283.5 272.312" stroke="#D1D4D8" stroke-width="3" stroke-linecap="round"/>
<path d="M76.5 293.312L313 294.313" stroke="#D1D4D8" stroke-width="3" stroke-linecap="round"/>
<path d="M2 340.812V357.812C2 358.917 2.89543 359.812 4 359.812H358.5" stroke="#D1D4D8" stroke-width="3" stroke-linecap="round"/>
<path d="M149.992 308.555C150.299 307.804 151.031 307.312 151.843 307.312H234.738C235.509 307.312 236.211 307.755 236.543 308.451L245.134 326.451C245.768 327.778 244.8 329.312 243.329 329.312H144.479C143.057 329.312 142.09 327.871 142.628 326.555L149.992 308.555Z" fill="#D1D4D8"/>
<path d="M193.47 25.4548L192 74.0684V90.3792C192 90.7941 191.746 91.1657 191.357 91.3098C160.489 102.745 117.464 95.6515 112.258 91.3149C112.07 91.1587 112 90.9336 112 90.6895L112 72.1106C112 71.998 112.02 71.8861 112.057 71.7798L128.762 24.1207C128.904 23.7145 129.291 23.4449 129.721 23.4516L192.486 24.4247C193.044 24.4333 193.487 24.897 193.47 25.4548Z" fill="#D1D4D8"/>
<path d="M127.537 27.269L112.055 71.7809C112.018 71.8865 112 71.9975 112 72.1094V88.2361C112 88.6585 111.737 89.0349 111.338 89.1738C79.486 100.258 35.0126 93.509 29.758 89.1856C29.5695 89.0305 29.5 88.8057 29.5 88.5616V72.2459C29.5 72.0468 29.5594 71.8522 29.6707 71.6871L60.2027 26.3816C60.3886 26.1058 60.6994 25.9404 61.032 25.9404H126.593C127.281 25.9404 127.763 26.6191 127.537 27.269Z" stroke="#D1D4D8" stroke-width="3" stroke-linecap="round"/>
<path d="M336.767 25.0238L358.409 72.242C358.468 72.3728 358.5 72.5149 358.5 72.6587V86.6541C358.5 86.9194 358.402 87.1686 358.209 87.3508C343.494 101.265 287.444 97.1847 279.855 92.3254C279.605 92.1653 279.5 91.8968 279.5 91.6V72.5384C279.5 72.4733 279.493 72.4082 279.48 72.3443L270.236 25.6346C270.114 25.0163 270.587 24.4404 271.217 24.4404H335.858C336.249 24.4404 336.604 24.6683 336.767 25.0238Z" fill="#D1D4D8"/>
<path d="M269.174 26.7229L278.476 68.4609C278.491 68.5323 278.5 68.6053 278.5 68.6784V89.3999C278.5 89.8045 278.262 90.1675 277.887 90.3177C249.313 101.747 199.675 94.6441 194.258 90.3091C194.067 90.1566 194 89.9336 194 89.6895V71.9404L194.979 26.9187C194.991 26.375 195.435 25.9404 195.978 25.9404H268.198C268.666 25.9404 269.072 26.2657 269.174 26.7229Z" stroke="#D1D4D8" stroke-width="3" stroke-linecap="round"/>
<path d="M57.5 10.9404C57.5 5.41758 61.9772 0.94043 67.5 0.94043H326.5C332.023 0.94043 336.5 5.41758 336.5 10.9404V24.9404H57.5V10.9404Z" fill="#D1D4D8"/>
</svg>
