<svg width="674" height="506" viewBox="0 0 674 506" fill="none" xmlns="http://www.w3.org/2000/svg">
<path d="M628.559 463.303C611.389 481.283 590.289 495.336 566.5 503.809C505.269 482.109 461 423.624 461 355.219V296.734L566.5 261.809L672 296.734V355.013C672 376.092 667.656 396.345 660.002 414.944C660.209 414.944 646.763 446.977 628.559 463.303Z" stroke="#D1D4D8" stroke-width="3" stroke-miterlimit="10" stroke-linecap="round" stroke-linejoin="round"/>
<path fill-rule="evenodd" clip-rule="evenodd" d="M566.501 430.595C593.096 430.595 614.656 409.036 614.656 382.44C614.656 355.845 593.096 334.285 566.501 334.285C539.905 334.285 518.346 355.845 518.346 382.44C518.346 409.036 539.905 430.595 566.501 430.595ZM591.397 370.443C593.095 368.265 592.706 365.123 590.528 363.426C588.35 361.728 585.208 362.117 583.511 364.295L562.508 391.233L548.618 380.428C546.438 378.732 543.297 379.124 541.601 381.304C539.906 383.483 540.298 386.625 542.478 388.321L558.733 400.966C561.782 403.339 566.176 402.792 568.552 399.745L591.397 370.443Z" fill="#D1D4D8"/>
<path d="M79.9965 179.178L61.2686 314.678C61.1195 315.758 61.8618 316.758 62.9382 316.928L205.68 339.443C206.897 339.635 207.996 338.692 207.992 337.46L207.336 143.466C207.332 142.135 206.054 141.18 204.776 141.553L81.4177 177.531C80.661 177.752 80.1045 178.397 79.9965 179.178Z" stroke="#D1D4D8" stroke-width="3"/>
<path d="M221.651 154.399L209.411 142.207C208.15 140.951 206 141.844 206 143.624V339.371C206 340.632 207.154 341.579 208.391 341.332L236.242 335.784C237.242 335.584 237.933 334.664 237.843 333.647L222.232 155.641C222.191 155.172 221.985 154.732 221.651 154.399Z" fill="#D1D4D8"/>
<path d="M222 156.809H241.435C242.419 156.809 243.257 157.524 243.41 158.497L270.642 330.87C270.831 332.069 269.918 333.159 268.704 333.182L235.76 333.809" stroke="#D1D4D8" stroke-width="3" stroke-linecap="round"/>
<path d="M141 160.809C143.908 147.062 154.889 120.256 175.555 123.005C186.626 124.477 193 137.783 193 144.312" stroke="#D1D4D8" stroke-width="3" stroke-linecap="round"/>
<path d="M113 168.809C116.213 152.952 128.889 118.471 152.556 116.852C169.176 115.715 174.827 137.049 172.5 151.218" stroke="#D1D4D8" stroke-width="3" stroke-linecap="round"/>
<path d="M567 231.309V11.8086C567 6.28575 562.523 1.80859 557 1.80859H12C6.47715 1.80859 2 6.28573 2 11.8086V423.809C2 429.331 6.47715 433.809 12 433.809H437" stroke="#D1D4D8" stroke-width="3"/>
<rect x="29.5" y="28.3086" width="510" height="39" rx="19.5" stroke="#D1D4D8" stroke-width="3"/>
<circle cx="60" cy="47.8086" r="8.5" stroke="#D1D4D8" stroke-width="3"/>
<circle cx="85" cy="47.8086" r="8.5" stroke="#D1D4D8" stroke-width="3"/>
<circle cx="110" cy="47.8086" r="8.5" stroke="#D1D4D8" stroke-width="3"/>
<path d="M311 201.809H391" stroke="#D1D4D8" stroke-width="3" stroke-linecap="round"/>
<path d="M310 257.809L408 258.809" stroke="#D1D4D8" stroke-width="3" stroke-linecap="round"/>
<path d="M311 229.809H432" stroke="#D1D4D8" stroke-width="3" stroke-linecap="round"/>
</svg>
