<svg width="629" height="521" viewBox="0 0 629 521" fill="none" xmlns="http://www.w3.org/2000/svg">
<path d="M37.2083 495.273C32.6341 448.007 54.032 424.836 66.873 418.145C68.0692 417.522 69.4036 417.273 70.7524 417.273H97.0067C98.4569 417.273 99.9015 417.573 101.181 418.255C126.362 431.693 133.146 470.898 130.708 495.273C129.708 514.273 116.208 517.773 104.208 517.773H63.708C39.208 516.773 37.5415 501.44 37.2083 495.273Z" fill="#D1D4D8"/>
<path d="M92 457.44C89.8952 456.382 86.6996 455.393 83.7116 455.404C80.1104 455.418 76.8108 456.886 76.0859 461.44C75.1298 467.447 82.3775 469.603 86.6951 471.774C92.6635 474.774 92.6092 480.398 89.016 483.107C87.4 484.326 85.5652 484.994 83.7116 485.247C81.0017 485.616 78.2515 485.097 76.0859 484.107" stroke="#1E2022" stroke-width="7" stroke-linecap="round"/>
<path d="M83.7109 485.246V489.773" stroke="#1E2022" stroke-width="7" stroke-linecap="round"/>
<path d="M83.7109 455.404V450.773" stroke="#1E2022" stroke-width="7" stroke-linecap="round"/>
<rect x="65.707" y="406.273" width="35" height="8" rx="4" stroke="#D1D4D8" stroke-width="5"/>
<rect x="128" y="337.773" width="60" height="12" rx="6" fill="#D1D4D8"/>
<path d="M68.707 400.273L57.707 380.273" stroke="#D1D4D8" stroke-width="5" stroke-linecap="round"/>
<path d="M98.707 400.273L109.207 379.773" stroke="#D1D4D8" stroke-width="5" stroke-linecap="round"/>
<path d="M57.207 379.773C60.5404 380.44 67.907 380.673 70.707 376.273C73.507 371.873 77.207 373.107 78.707 374.273L83.207 378.273" stroke="#D1D4D8" stroke-width="5" stroke-linecap="round"/>
<path d="M109.207 379.371C105.874 380.038 98.507 380.271 95.707 375.871C92.907 371.471 89.207 372.704 87.707 373.871L83.207 378.273" stroke="#D1D4D8" stroke-width="5" stroke-linecap="round"/>
<path d="M131.707 334.773L113.207 299.273" stroke="#D1D4D8" stroke-width="5" stroke-linecap="round"/>
<path d="M185.207 334.773L203.207 298.773" stroke="#D1D4D8" stroke-width="5" stroke-linecap="round"/>
<path d="M113.207 299.136C118.976 300.284 131.726 300.686 136.572 293.108C141.419 285.53 147.822 287.655 150.419 289.664L158.207 296.553" stroke="#D1D4D8" stroke-width="5" stroke-linecap="round"/>
<path d="M203.207 298.136C197.438 299.284 184.688 299.686 179.842 292.108C174.995 284.53 168.592 286.655 165.995 288.664L158.207 296.246" stroke="#D1D4D8" stroke-width="5" stroke-linecap="round"/>
<rect x="2.03376" y="511.08" width="49.2945" height="13.8004" rx="6.90019" transform="rotate(-61.5197 2.03376 511.08)" stroke="#D1D4D8" stroke-width="3"/>
<rect x="206.707" y="471.273" width="49.2945" height="13.8004" rx="6.90019" stroke="#D1D4D8" stroke-width="3"/>
<rect x="213.707" y="488.273" width="49.2945" height="13.8004" rx="6.90019" stroke="#D1D4D8" stroke-width="3"/>
<rect x="206.707" y="505.273" width="49.2945" height="13.8004" rx="6.90019" stroke="#D1D4D8" stroke-width="3"/>
<rect x="257.707" y="505.273" width="49.2945" height="13.8004" rx="6.90019" stroke="#D1D4D8" stroke-width="3"/>
<rect x="265.707" y="490.273" width="49.2945" height="13.8004" rx="6.90019" stroke="#D1D4D8" stroke-width="3"/>
<rect x="258.707" y="474.273" width="49.2945" height="13.8004" rx="6.90019" stroke="#D1D4D8" stroke-width="3"/>
<rect x="249.707" y="457.273" width="49.2945" height="13.8004" rx="6.90019" stroke="#D1D4D8" stroke-width="3"/>
<rect x="254.707" y="440.273" width="49.2945" height="13.8004" rx="6.90019" stroke="#D1D4D8" stroke-width="3"/>
<path d="M114.5 371.773C120.5 363.94 125.707 357.273 136.207 353.773H181.207C200.54 363.94 232 394.773 230 460.273" stroke="#D1D4D8" stroke-width="5" stroke-linecap="round"/>
<path d="M130 514.773H199.5" stroke="#D1D4D8" stroke-width="5" stroke-linecap="round"/>
<path d="M158.707 459.482V466.273" stroke="#D1D4D8" stroke-width="7" stroke-linecap="round"/>
<path d="M158.707 414.719V407.773" stroke="#D1D4D8" stroke-width="7" stroke-linecap="round"/>
<path d="M171.208 417.773C168.034 416.186 163.214 414.702 158.708 414.719C153.277 414.74 148.301 416.941 147.208 423.773C145.766 432.783 156.696 436.017 163.207 439.273C172.208 443.773 172.126 452.209 166.708 456.273C164.27 458.101 161.503 459.104 158.708 459.483C154.621 460.037 150.474 459.257 147.208 457.773" stroke="#D1D4D8" stroke-width="7" stroke-linecap="round"/>
<circle cx="393.5" cy="233.273" r="201.5" fill="#D1D4D8" fill-opacity="0.1"/>
<path d="M241.904 39.9655V21.6504C241.904 10.6047 232.95 1.65039 221.904 1.65039H104.904C93.8586 1.65039 84.9043 10.6047 84.9043 21.6504V90.6504C84.9043 101.696 93.8586 110.65 104.904 110.65H176.542" stroke="#D1D4D8" stroke-width="3" stroke-linecap="round"/>
<path d="M102.904 82.6504H134.904" stroke="#D1D4D8" stroke-width="3" stroke-linecap="round"/>
<path d="M145.904 82.6504H149.904" stroke="#D1D4D8" stroke-width="3" stroke-linecap="round"/>
<rect x="86.9043" y="15.6504" width="153" height="19" fill="#D1D4D8"/>
<path d="M358.904 461.789C370.794 463.672 382.985 464.65 395.404 464.65C523.258 464.65 626.904 361.004 626.904 233.15C626.904 105.296 523.258 1.65039 395.404 1.65039C267.55 1.65039 163.904 105.296 163.904 233.15C163.904 242.284 164.433 251.293 165.462 260.15" stroke="#D1D4D8" stroke-width="3" stroke-linecap="round"/>
<path d="M195.976 262.15C194.611 252.681 193.904 242.998 193.904 233.15C193.904 121.865 284.119 31.6504 395.404 31.6504C506.69 31.6504 596.904 121.865 596.904 233.15C596.904 344.436 506.69 434.65 395.404 434.65C325.135 434.65 263.267 398.681 227.207 344.15" stroke="#D1D4D8" stroke-width="3" stroke-linecap="round"/>
<ellipse cx="423" cy="232.773" rx="172" ry="187" fill="#1E2022"/>
<path d="M408.904 426.65C309.019 426.65 230.904 342.346 230.904 234.65C230.904 126.955 311.877 39.6504 411.763 39.6504C456.447 39.6504 497.346 57.1221 528.904 86.0751C491.071 51.7669 389.904 8.65039 298.904 103.15C279.738 123.984 243.604 182.55 252.404 250.15C255.238 291.817 285.604 382.25 384.404 410.65C434.404 420.15 464.104 417.411 530.904 380.15C499.346 409.103 453.588 426.65 408.904 426.65Z" fill="#D1D4D8"/>
<path d="M370.577 215.344C359.073 250.207 373.506 285.811 402.125 295.255C430.744 304.699 463.533 284.677 475.037 249.814C486.541 214.951 472.108 179.347 443.489 169.903C414.87 160.46 382.081 180.482 370.577 215.344Z" stroke="#D1D4D8" stroke-width="3"/>
<ellipse rx="18" ry="24" transform="matrix(-0.949634 -0.31336 -0.31336 0.949634 422.802 230.996)" fill="#D1D4D8"/>
<path d="M441.424 279.303L401.6 180.826" stroke="#D1D4D8" stroke-width="3" stroke-linecap="round"/>
<path d="M469.525 204.294L376.069 260.873" stroke="#D1D4D8" stroke-width="3" stroke-linecap="round"/>
<path d="M138.404 237.15V209.65" stroke="#D1D4D8" stroke-width="3" stroke-linecap="round"/>
<path d="M120.404 244.15L89.4043 213.15" stroke="#D1D4D8" stroke-width="3" stroke-linecap="round"/>
<path d="M113.904 262.15H84.9043" stroke="#D1D4D8" stroke-width="3" stroke-linecap="round"/>
</svg>
