<svg width="384" height="337" viewBox="0 0 384 337" fill="none" xmlns="http://www.w3.org/2000/svg">
<path d="M331 269.797L318 257.797" stroke="#D1D4D8" stroke-width="3" stroke-linecap="round"/>
<path d="M322.932 182.048C330.496 191.783 335 204.014 335 217.297C335 249.053 309.256 274.797 277.5 274.797C245.744 274.797 220 249.053 220 217.297C220 185.541 245.744 159.797 277.5 159.797C289.112 159.797 299.92 163.239 308.96 169.159" stroke="#D1D4D8" stroke-width="3" stroke-linecap="round"/>
<rect x="337.557" y="255.809" width="60.5163" height="32.2578" rx="16.1289" transform="rotate(40.8596 337.557 255.809)" fill="#D1D4D8"/>
<path d="M105.434 320.765C87.9988 247.777 61.5357 101.708 91.784 88.4226C93.1586 87.8206 94.6568 87.4275 96.0454 86.8492L211.023 38.8703" stroke="#D1D4D8" stroke-width="3" stroke-linecap="round"/>
<path d="M103.353 102.142C90.353 126.624 110.556 229.845 126.865 297.7C130.412 312.492 146.514 320.245 160.503 314.164L237.5 283.798" stroke="#D1D4D8" stroke-width="3" stroke-linecap="round"/>
<path d="M126.259 103.617C131.532 97.1989 136.982 74.5404 124.74 62.9563C122.631 60.9374 119.973 59.2593 116.685 58.0595C94.4847 49.9418 80.323 77.5207 93.6756 87.0111" stroke="#D1D4D8" stroke-width="3" stroke-linecap="round"/>
<path d="M124.398 61.9476C126.29 49.5118 142.431 36.5238 161.89 47.3078C182.799 62.0878 172.294 83.8224 162.761 91.4053" stroke="#D1D4D8" stroke-width="3" stroke-linecap="round"/>
<path d="M162.772 46.2395C166.738 36.436 181.696 17.5319 201.43 25.3026C227.933 39.7617 212.676 68.2461 201.584 71.892" stroke="#D1D4D8" stroke-width="3" stroke-linecap="round"/>
<path d="M201.205 23.9493C207.231 13.0602 222.265 2.53546 236.947 12.9454C251.63 23.3576 246.972 50.9492 232.052 59.7818" stroke="#D1D4D8" stroke-width="3" stroke-linecap="round"/>
<path d="M164.688 140.297C187.024 133.797 202.895 130.397 219.688 114.797" stroke="#D1D4D8" stroke-width="3" stroke-linecap="round"/>
<path d="M173.188 175.797C194.034 172.554 211.444 164.932 230.688 157.797" stroke="#D1D4D8" stroke-width="3" stroke-linecap="round"/>
<path d="M180 212.297L202.5 206.297" stroke="#D1D4D8" stroke-width="3" stroke-linecap="round"/>
<path d="M240.188 52.2969L261.5 145.297" stroke="#D1D4D8" stroke-width="3" stroke-linecap="round"/>
<path d="M131.688 153.297L137.608 156.627C138.692 157.237 140.065 156.719 140.476 155.544L146.688 137.797" stroke="#D1D4D8" stroke-width="3" stroke-linecap="round"/>
<path d="M139.688 187.297L145.608 190.627C146.692 191.237 148.065 190.719 148.476 189.544L154.688 171.797" stroke="#D1D4D8" stroke-width="3" stroke-linecap="round"/>
<path d="M147.688 221.297L153.608 224.627C154.692 225.237 156.065 224.719 156.476 223.544L162.688 205.797" stroke="#D1D4D8" stroke-width="3" stroke-linecap="round"/>
<path d="M155.688 255.297L161.608 258.627C162.692 259.237 164.065 258.719 164.476 257.544L170.688 239.797" stroke="#D1D4D8" stroke-width="3" stroke-linecap="round"/>
<path d="M187 245.297C191 244.964 200 243.497 204 240.297" stroke="#D1D4D8" stroke-width="3" stroke-linecap="round"/>
</svg>
