<svg width="518" height="273" viewBox="0 0 518 273" fill="none" xmlns="http://www.w3.org/2000/svg">
<path d="M254.372 31.8313C310.946 -4.43153 398.857 -3.7615 440.001 15.8492C469.775 30.0404 558.791 82.446 491.303 194.06C491.077 194.434 490.968 194.888 491.012 195.322L498.538 268.584C498.681 269.982 497.376 271.088 496.02 270.717L423.272 250.798C422.95 250.71 422.621 250.701 422.296 250.777C373.2 262.241 283.513 271.453 235 225.715" stroke="#D1D4D8" stroke-width="3" stroke-linecap="round"/>
<ellipse cx="16" cy="238.988" rx="16" ry="11.5" fill="#D1D4D8"/>
<ellipse cx="43" cy="209.988" rx="23" ry="17.5" fill="#D1D4D8"/>
<path d="M107.952 205.106C144.257 258.126 183.327 236.538 199.403 218.038C199.991 217.362 200.976 217.158 201.801 217.508C265.733 244.626 286.694 183.993 275.111 157.937C274.647 156.894 275.101 155.624 276.121 155.11C339.899 122.92 298.864 73.9442 272.451 71.7014C271.407 71.6128 270.545 70.7727 270.449 69.7296C265.756 18.5839 227.888 25.8397 208.12 36.5506C207.341 36.9724 206.365 36.8315 205.716 36.229C167.354 0.611835 135.049 23.6774 122.912 40.6309C122.497 41.2112 121.792 41.5293 121.079 41.4884C68.4206 38.4671 67.1471 96.433 73.3002 127.056C73.4394 127.749 73.1848 128.467 72.6702 128.951C30.1037 169.025 68.5829 209.483 105.928 204.209C106.707 204.099 107.507 204.457 107.952 205.106Z" fill="#D1D4D8"/>
</svg>
