<svg width="402" height="553" viewBox="0 0 402 553" fill="none" xmlns="http://www.w3.org/2000/svg">
<path d="M286.975 240.035L295.699 240.775" stroke="#D1D4D8" stroke-width="3" stroke-linecap="round"/>
<path d="M223.724 234.671L215 233.932" stroke="#D1D4D8" stroke-width="3" stroke-linecap="round"/>
<path d="M229.502 217.587C226.903 221.701 224.261 228.058 223.767 234.17C223.172 241.535 225.698 248.545 235.186 250.842C247.701 253.872 253.509 239.439 258.839 230.999C266.208 219.333 278.07 220.45 283.167 228.282C285.459 231.805 286.552 235.676 286.764 239.511C287.074 245.118 285.501 250.649 283.036 254.899" stroke="#D1D4D8" stroke-width="3" stroke-linecap="round"/>
<path d="M143.198 187.15L134.533 188.404" stroke="#D1D4D8" stroke-width="3" stroke-linecap="round"/>
<path d="M144.96 169.2C143.36 173.795 142.225 180.586 143.127 186.65C144.214 193.96 148.262 200.215 158.024 200.306C170.899 200.425 171.226 187.25 174.508 177.823" stroke="#D1D4D8" stroke-width="3" stroke-linecap="round"/>
<path d="M374.786 355.119C375.88 327.029 374.129 269.754 358.37 265.377C338.67 259.905 237.984 259.905 169.036 265.377C100.087 270.849 36.6112 267.566 33.3279 252.244C31.4097 243.292 74.1256 238.465 113.22 236.229" stroke="#D1D4D8" stroke-width="3" stroke-linecap="round"/>
<path d="M10.3457 259.904C12.8993 273.402 27.6375 299.522 66.161 296.02C104.684 292.518 239.079 287.265 301.461 285.076C314.958 284.346 343.267 288.359 348.52 310.247C353.774 332.136 353.628 350.011 352.898 356.213" stroke="#D1D4D8" stroke-width="3" stroke-linecap="round" stroke-dasharray="21.89 21.89"/>
<path d="M340.859 459.088C344.507 474.045 342.391 505.491 304.744 511.62C257.684 519.281 206.246 511.62 120.882 518.186C52.5899 523.44 31.8689 518.186 30.0449 514.903" stroke="#D1D4D8" stroke-width="3" stroke-linecap="round" stroke-dasharray="21.89 21.89"/>
<path d="M374.786 449.239C375.88 486.449 366.03 528.037 348.52 542.264C331.009 556.492 48.6495 549.925 31.1388 542.264C17.1303 536.135 10.7103 516.363 9.25141 507.243C-3.78244 426.433 3.66483 305.883 9.1271 247.011C9.20962 246.121 9.5514 245.31 10.1528 244.65C27.3322 225.786 68.5226 219.798 104.465 219.41" stroke="#D1D4D8" stroke-width="3" stroke-linecap="round"/>
<path d="M375.881 331.04C380.988 330.31 394.267 334.544 397.769 352.93C401.245 371.178 401.055 413.573 395.703 432.397C395.621 432.687 395.515 432.947 395.366 433.21C387.04 447.936 352.004 467.251 274.854 456.236C273.093 455.985 271.634 454.685 271.244 452.95C265.365 426.79 260.208 376.846 281.926 363.326C282.526 362.953 283.203 362.77 283.909 362.752C313.128 361.977 372.526 358.984 384.636 352.929" stroke="#D1D4D8" stroke-width="3" stroke-linecap="round"/>
<circle cx="321.16" cy="410.933" r="25.1716" fill="#D1D4D8"/>
<path d="M387.92 367.156C374.097 371.158 335.175 378.931 289.815 378.108C289.555 378.103 289.293 378.059 289.033 378.071C285.443 378.23 280.184 390.384 284.76 438.654C284.926 440.408 286.134 441.922 287.837 442.373C303.487 446.517 336.146 450.364 361.653 437.199" stroke="#D1D4D8" stroke-width="3" stroke-linecap="round" stroke-dasharray="21.89 21.89"/>
<path d="M128.845 260.999L35.5602 99.2432C34.3349 97.1186 35.094 94.4019 37.2433 93.2202L201.851 2.71436C204.024 1.51954 206.755 2.36666 207.87 4.58161L250.023 88.2948" stroke="#D1D4D8" stroke-width="3" stroke-linecap="round"/>
<path d="M164.658 260.999C169.261 229.994 178.636 154.802 180.097 97.3462C180.152 95.1689 181.758 93.3662 183.923 93.1232C234.738 87.42 338.181 86.6558 377.799 126.212C378.686 127.098 379.102 128.308 378.98 129.556C375.898 161.203 365.2 228.753 345.295 260.999" stroke="#D1D4D8" stroke-width="3" stroke-linecap="round"/>
</svg>
