<svg width="393" height="336" viewBox="0 0 393 336" fill="none" xmlns="http://www.w3.org/2000/svg">
<path d="M105.434 320.21C87.9988 247.222 61.5357 101.153 91.784 87.8679C93.1586 87.2659 94.6568 86.8728 96.0454 86.2945L211.023 38.3156" stroke="#D1D4D8" stroke-width="3" stroke-linecap="round"/>
<path d="M103.352 101.588C90.3516 126.07 110.555 229.291 126.864 297.146C130.411 311.938 146.513 319.691 160.502 313.611L252.194 273.744" stroke="#D1D4D8" stroke-width="3" stroke-linecap="round"/>
<path d="M126.261 103.062C131.534 96.6442 136.984 73.9858 124.742 62.4016C122.633 60.3827 119.975 58.7046 116.687 57.5048C94.4867 49.3871 80.3249 76.9661 93.6775 86.4564" stroke="#D1D4D8" stroke-width="3" stroke-linecap="round"/>
<path d="M124.398 61.3929C126.29 48.9571 142.431 35.9691 161.89 46.7531C182.799 61.5331 172.294 83.2678 162.761 90.8506" stroke="#D1D4D8" stroke-width="3" stroke-linecap="round"/>
<path d="M162.772 45.6848C166.738 35.8813 181.696 16.9772 201.43 24.7479C227.933 39.207 212.676 67.6914 201.584 71.3373" stroke="#D1D4D8" stroke-width="3" stroke-linecap="round"/>
<path d="M201.205 23.3946C207.231 12.5055 222.265 1.98077 236.947 12.3907C251.63 22.8029 246.972 50.3945 232.052 59.2271" stroke="#D1D4D8" stroke-width="3" stroke-linecap="round"/>
<path d="M164.688 139.742C187.024 133.242 202.895 129.842 219.688 114.242" stroke="#D1D4D8" stroke-width="3" stroke-linecap="round"/>
<path d="M173.188 175.242C194.034 171.999 211.444 164.377 230.688 157.242" stroke="#D1D4D8" stroke-width="3" stroke-linecap="round"/>
<path d="M180.188 212.242C203.716 208.667 221.355 209.062 233.688 191.242" stroke="#D1D4D8" stroke-width="3" stroke-linecap="round"/>
<path d="M187.688 244.242C199.461 242.659 210.573 240.276 225.688 228.242" stroke="#D1D4D8" stroke-width="3" stroke-linecap="round"/>
<path d="M319.688 305.743C287.688 283.743 230.188 245.243 255.188 198.242C271.299 167.954 304.998 178.932 318.372 189.181C319.148 189.776 320.229 189.781 321.004 189.184C333.694 179.411 365.418 166.584 384.688 198.242C405.688 232.742 367.688 272.242 341.688 288.742" stroke="#D1D4D8" stroke-width="3" stroke-linecap="round"/>
<path d="M275.882 211.943C286.744 191.601 309.288 198.56 318.709 205.452C319.496 206.028 320.565 206.032 321.35 205.453C330.432 198.757 353.057 189.829 364.52 211.943C378.895 239.678 339.451 272.648 321.121 284.541C320.451 284.976 319.615 284.956 318.955 284.505C296.871 269.391 259.047 243.472 275.882 211.943Z" fill="#D1D4D8"/>
<path d="M240.188 51.7422L266.688 166.742" stroke="#D1D4D8" stroke-width="3" stroke-linecap="round"/>
<path d="M131.688 152.742L137.608 156.072C138.692 156.682 140.065 156.164 140.476 154.99L146.688 137.242" stroke="#D1D4D8" stroke-width="3" stroke-linecap="round"/>
<path d="M139.688 186.742L145.608 190.072C146.692 190.682 148.065 190.164 148.476 188.99L154.688 171.242" stroke="#D1D4D8" stroke-width="3" stroke-linecap="round"/>
<path d="M147.688 220.742L153.608 224.072C154.692 224.682 156.065 224.164 156.476 222.99L162.688 205.242" stroke="#D1D4D8" stroke-width="3" stroke-linecap="round"/>
<path d="M155.688 254.742L161.608 258.072C162.692 258.682 164.065 258.164 164.476 256.99L170.688 239.242" stroke="#D1D4D8" stroke-width="3" stroke-linecap="round"/>
</svg>
