<svg width="537" height="400" viewBox="0 0 537 400" fill="none" xmlns="http://www.w3.org/2000/svg">
<path d="M216 298.93L192 274.93" stroke="#D1D4D8" stroke-width="3" stroke-linecap="round"/>
<circle cx="114.5" cy="195.43" r="113" stroke="#D1D4D8" stroke-width="3"/>
<rect x="233.924" y="271.887" width="120.42" height="64.1894" rx="32.0947" transform="rotate(40.8596 233.924 271.887)" fill="#D1D4D8"/>
<path d="M144 18.9297V88.4297M330 182.43L277.572 186.424C277.524 186.428 277.476 186.428 277.428 186.425L225.5 182.924" stroke="#D1D4D8" stroke-width="3" stroke-linecap="round"/>
<path d="M144 18.4297L276.377 2.06844C276.974 1.99473 277.5 2.45995 277.5 3.06089V184.43" stroke="#D1D4D8" stroke-width="3" stroke-linecap="round"/>
<path d="M298.996 2.42969L474.067 14.3661C474.592 14.4019 474.999 14.8379 474.999 15.3638V81.4297" stroke="#D1D4D8" stroke-width="3" stroke-linecap="round"/>
<path d="M243 204.43V259.768C243 260.379 242.456 260.848 241.851 260.757L208.5 255.737" stroke="#D1D4D8" stroke-width="3" stroke-linecap="round"/>
<path d="M242.5 260.93L361 249.93" stroke="#D1D4D8" stroke-width="3" stroke-linecap="round"/>
<path d="M312.5 257.93V132.93L366.5 257.93H312.5Z" fill="#D1D4D8" fill-opacity="0.3"/>
<path d="M462.426 197.735L384.436 35.4187C383.784 34.0614 384.809 32.4975 386.314 32.554L421.803 33.8848C422.54 33.9124 423.202 34.3436 423.525 35.0066L501.875 195.647C502.249 196.415 502.095 197.335 501.491 197.938L485.552 213.877C485.197 214.232 484.721 214.441 484.219 214.461L452.679 215.74C450.92 215.811 449.933 213.739 451.098 212.418L462.123 199.924C462.654 199.321 462.774 198.459 462.426 197.735Z" fill="#D1D4D8"/>
<path d="M417.909 245.046L410.442 252.838C409.196 254.139 410.17 256.296 411.971 256.22L441.773 254.96C442.243 254.941 442.69 254.756 443.037 254.439L450.192 247.907C451.54 246.675 450.669 244.43 448.843 244.43H419.353C418.808 244.43 418.287 244.652 417.909 245.046Z" fill="#D1D4D8"/>
<path d="M193 29.6828V14.1807C193 13.1783 193.742 12.3307 194.736 12.1983L220.736 8.7316C221.935 8.57174 223 9.50448 223 10.7141V26.6495C223 27.6644 222.24 28.5184 221.232 28.636L195.232 31.6693C194.043 31.808 193 30.8792 193 29.6828Z" fill="#D1D4D8"/>
<path d="M366.429 257.12L294.253 91.5111C294.099 91.1562 294.163 90.7439 294.418 90.4526L345.999 31.5727C346.472 31.0321 347.344 31.1527 347.654 31.8015L427.688 199.775C427.874 200.165 427.788 200.631 427.474 200.93L368.035 257.445C367.532 257.924 366.707 257.757 366.429 257.12Z" stroke="#D1D4D8" stroke-width="3" stroke-linecap="round"/>
<path d="M368 257.93L475.13 252.947C475.369 252.936 475.596 252.84 475.77 252.676L534.533 197.284C535.208 196.647 534.727 195.514 533.799 195.558L441.497 199.93" stroke="#D1D4D8" stroke-width="3" stroke-linecap="round"/>
<path d="M347 30.9297L450.419 34.9074C450.778 34.9212 451.102 35.1264 451.268 35.4451L534.5 195.43" stroke="#D1D4D8" stroke-width="3" stroke-linecap="round"/>
</svg>
