<svg width="485" height="381" viewBox="0 0 485 381" fill="none" xmlns="http://www.w3.org/2000/svg">
<path d="M119.506 363.129C99.7432 280.399 69.7482 114.835 104.034 99.777C105.592 99.0946 107.29 98.649 108.864 97.9935L239.187 43.611" stroke="#D1D4D8" stroke-width="3" stroke-linecap="round"/>
<path d="M117.147 115.326C102.412 143.075 125.311 260.073 143.797 336.984C147.818 353.75 166.069 362.539 181.925 355.646L285.855 310.459" stroke="#D1D4D8" stroke-width="3" stroke-linecap="round"/>
<path d="M143.112 117C149.089 109.725 155.267 84.0428 141.39 70.9125C139 68.6242 135.988 66.7221 132.26 65.3622C107.097 56.161 91.0454 87.4209 106.18 98.1779" stroke="#D1D4D8" stroke-width="3" stroke-linecap="round"/>
<path d="M141.001 69.767C143.145 55.6714 161.441 40.95 183.497 53.1733C207.196 69.926 195.289 94.5614 184.483 103.156" stroke="#D1D4D8" stroke-width="3" stroke-linecap="round"/>
<path d="M184.496 51.9639C188.992 40.852 205.947 19.4248 228.314 28.2327C258.354 44.6216 241.061 76.9077 228.489 81.0402" stroke="#D1D4D8" stroke-width="3" stroke-linecap="round"/>
<path d="M228.06 26.6995C234.89 14.3571 251.931 2.42766 268.572 14.2269C285.216 26.0289 279.936 57.303 263.024 67.3144" stroke="#D1D4D8" stroke-width="3" stroke-linecap="round"/>
<path d="M153.045 167.446C178.224 160.054 230.07 146.917 249 129.176" stroke="#D1D4D8" stroke-width="3" stroke-linecap="round"/>
<path d="M161.045 205.446C184.611 201.663 239.247 186.5 261 178.176" stroke="#D1D4D8" stroke-width="3" stroke-linecap="round"/>
<path d="M173.545 250.446C200.372 246.361 250.939 237.541 265 217.176" stroke="#D1D4D8" stroke-width="3" stroke-linecap="round"/>
<path d="M185.545 287.946C198.868 286.165 238.897 272.713 256 259.176" stroke="#D1D4D8" stroke-width="3" stroke-linecap="round"/>
<path d="M272 59.1758L302 189.176" stroke="#D1D4D8" stroke-width="3" stroke-linecap="round"/>
<path d="M470 255.772V237.457C470 226.411 461.046 217.457 450 217.457H333C321.954 217.457 313 226.411 313 237.457V306.457C313 317.503 321.954 326.457 333 326.457H404.638" stroke="#D1D4D8" stroke-width="3" stroke-linecap="round"/>
<path d="M331 298.457H363" stroke="#D1D4D8" stroke-width="3" stroke-linecap="round"/>
<path d="M374 298.457H378" stroke="#D1D4D8" stroke-width="3" stroke-linecap="round"/>
<rect x="315" y="231.457" width="153" height="19" fill="#D1D4D8"/>
<ellipse cx="444.5" cy="301.457" rx="19.5" ry="19" fill="#D1D4D8"/>
<path d="M459 285.431C460.847 284.8 462.829 284.457 464.892 284.457C474.893 284.457 483 292.516 483 302.457C483 312.398 474.893 320.457 464.892 320.457C462.829 320.457 460.847 320.114 459 319.483" stroke="#D1D4D8" stroke-width="3" stroke-linecap="round"/>
</svg>
