<svg width="935" height="801" viewBox="0 0 935 801" fill="none" xmlns="http://www.w3.org/2000/svg">
<path d="M222.477 177.107C211.961 157.65 180.04 120.607 135.725 146.425C111.941 162.639 74.2108 211.755 113.568 278.506C121.58 291.477 148.494 314.351 192.057 302.079" stroke="black" stroke-width="5" stroke-linecap="round"/>
<path fill-rule="evenodd" clip-rule="evenodd" d="M166.921 163.156C191.237 161.882 202.602 178.095 205.243 186.676C205.65 187.995 204.909 189.394 203.59 189.801C202.27 190.207 200.871 189.466 200.465 188.147C198.333 181.221 188.693 167.022 167.182 168.149C165.803 168.221 164.627 167.162 164.555 165.783C164.483 164.404 165.542 163.228 166.921 163.156ZM128.789 171.219C135.766 165.726 144.605 164.321 150.609 164.657C151.987 164.734 153.042 165.914 152.965 167.292C152.888 168.671 151.708 169.726 150.33 169.649C145.153 169.36 137.635 170.618 131.881 175.148C126.3 179.542 121.982 187.323 123.557 201.006C125.223 215.479 125.102 224.279 124.164 229.426C123.703 231.96 122.992 233.918 121.936 235.206C121.385 235.879 120.663 236.46 119.753 236.743C118.814 237.035 117.886 236.944 117.092 236.611C115.819 236.078 115.219 234.613 115.753 233.339C116.177 232.328 117.188 231.741 118.225 231.811C118.499 231.353 118.908 230.379 119.245 228.531C120.048 224.124 120.24 215.917 118.59 201.578C116.848 186.449 121.638 176.848 128.789 171.219ZM156.308 181.275C153.489 181.06 145.662 181.755 138.68 186.48C135.755 188.46 134.562 191.516 134.357 194.87C134.149 198.268 134.993 201.681 135.826 203.725C136.346 205.004 135.732 206.463 134.453 206.984C133.174 207.505 131.716 206.89 131.195 205.611C130.143 203.029 129.103 198.864 129.366 194.565C129.632 190.222 131.265 185.462 135.877 182.34C143.971 176.861 152.977 176.006 156.69 176.29C158.067 176.395 159.097 177.597 158.992 178.974C158.887 180.35 157.685 181.381 156.308 181.275ZM171.037 178.159C171.382 176.822 172.745 176.017 174.082 176.362C178.031 177.378 183.918 179.875 189.023 184.131C194.155 188.411 198.645 194.609 199.316 202.968C199.427 204.344 198.401 205.549 197.025 205.66C195.648 205.77 194.443 204.744 194.332 203.368C193.798 196.72 190.248 191.663 185.82 187.971C181.365 184.256 176.172 182.063 172.835 181.204C171.498 180.86 170.693 179.497 171.037 178.159ZM164.259 187.128C164.416 188.499 163.431 189.738 162.059 189.895C158.802 190.267 154.655 191.954 151.651 196.069C148.656 200.172 146.55 207.031 148.048 218.217C149.557 229.484 149.964 235.779 149.763 239.686C149.66 241.675 149.398 243.118 149.009 244.323C148.682 245.338 148.273 246.139 147.952 246.767C147.9 246.868 147.851 246.965 147.804 247.058C147.184 248.291 145.682 248.789 144.448 248.17C143.214 247.55 142.716 246.047 143.336 244.813C143.401 244.684 143.462 244.563 143.52 244.449C143.836 243.827 144.054 243.397 144.251 242.788C144.474 242.094 144.683 241.099 144.769 239.429C144.945 236.021 144.598 230.123 143.092 218.881C141.478 206.832 143.643 198.56 147.613 193.121C151.574 187.695 157.086 185.431 161.492 184.927C162.863 184.771 164.103 185.756 164.259 187.128ZM171.197 188.971C171.786 187.722 173.276 187.187 174.525 187.776C181.001 190.83 185.049 196.555 187.491 202.182C189.935 207.814 190.896 213.622 191.032 217.332C191.082 218.712 190.004 219.872 188.624 219.922C187.245 219.972 186.085 218.895 186.035 217.515C185.919 214.348 185.071 209.164 182.905 204.172C180.736 199.176 177.372 194.647 172.392 192.299C171.143 191.71 170.608 190.22 171.197 188.971ZM174.921 201.065C176.254 203.522 176.477 206.376 176.327 208.245C176.217 209.621 175.011 210.647 173.635 210.537C172.259 210.426 171.233 209.221 171.343 207.845C171.444 206.587 171.253 204.789 170.526 203.451C170.183 202.818 169.752 202.345 169.225 202.032C168.709 201.726 167.95 201.483 166.793 201.538C165.789 201.586 165.154 201.917 164.691 202.355C164.185 202.834 163.752 203.572 163.437 204.585C162.795 206.653 162.836 209.257 163.115 211.034C164.487 219.778 164.16 233.356 161.752 245.81C160.545 252.052 158.796 258.118 156.412 263.211C154.047 268.263 150.938 272.617 146.866 275.085C145.685 275.8 144.147 275.423 143.432 274.242C142.716 273.061 143.094 271.524 144.274 270.809C147.136 269.075 149.709 265.738 151.883 261.092C154.038 256.488 155.685 250.849 156.843 244.861C159.164 232.855 159.441 219.871 158.175 211.809C157.826 209.584 157.716 206.148 158.663 203.101C159.143 201.556 159.939 199.969 161.255 198.723C162.614 197.437 164.395 196.646 166.556 196.544C168.565 196.449 170.316 196.866 171.775 197.731C173.223 198.59 174.234 199.801 174.921 201.065ZM199.254 206.684C200.42 205.944 201.964 206.29 202.704 207.456C204.444 210.198 207.321 217.332 205.265 224.837C204.9 226.169 203.525 226.952 202.194 226.588C200.862 226.223 200.078 224.848 200.443 223.516C202.005 217.816 199.757 212.144 198.482 210.134C197.742 208.969 198.088 207.424 199.254 206.684ZM170.815 213.828C172.18 213.617 173.457 214.552 173.668 215.916C174.8 223.24 175.496 228.325 175.25 234.684C175.006 240.996 173.839 248.481 171.387 260.684C165.938 287.807 147.992 296.656 137.672 298.3C136.309 298.517 135.027 297.588 134.81 296.224C134.593 294.861 135.522 293.579 136.886 293.362C145.409 292.005 161.498 284.522 166.485 259.699C168.932 247.517 170.026 240.371 170.254 234.491C170.479 228.656 169.856 223.988 168.727 216.68C168.516 215.316 169.451 214.038 170.815 213.828ZM131.51 214.973C132.864 214.701 134.182 215.578 134.454 216.931C137.098 230.091 135.512 239.38 132.121 245.668C128.742 251.934 123.657 255.036 119.714 255.883C118.364 256.173 117.035 255.313 116.745 253.963C116.455 252.613 117.314 251.284 118.664 250.994C121.128 250.465 125.012 248.316 127.72 243.295C130.415 238.298 132.033 230.267 129.552 217.916C129.28 216.562 130.157 215.245 131.51 214.973ZM181.942 219.057C183.319 218.955 184.518 219.989 184.62 221.366C185.951 239.356 185.07 253.701 183.174 264.29C182.226 269.583 181.019 273.97 179.689 277.421C178.378 280.825 176.882 283.491 175.264 285.18C174.309 286.177 172.726 286.212 171.729 285.256C170.732 284.301 170.698 282.719 171.653 281.722C172.61 280.723 173.815 278.761 175.024 275.624C176.215 272.533 177.347 268.464 178.252 263.409C180.062 253.302 180.94 239.385 179.633 221.735C179.531 220.358 180.565 219.159 181.942 219.057ZM99.1035 236.52C99.5383 235.209 100.953 234.499 102.264 234.934C105.387 235.97 109.094 235.874 111.531 234.965C112.825 234.482 114.265 235.139 114.748 236.433C115.23 237.726 114.573 239.166 113.28 239.649C109.687 240.99 104.802 241.044 100.689 239.68C99.3785 239.245 98.6686 237.83 99.1035 236.52ZM142.553 249.178C143.87 249.593 144.601 250.997 144.186 252.314C143.112 255.72 140.835 260.919 137.423 265.657C134.039 270.357 129.299 274.933 123.201 276.494C121.863 276.836 120.501 276.03 120.159 274.692C119.817 273.354 120.623 271.993 121.961 271.65C126.415 270.51 130.28 267.021 133.366 262.735C136.424 258.488 138.48 253.783 139.417 250.811C139.832 249.495 141.236 248.763 142.553 249.178ZM102.665 253.758C103.317 252.541 104.832 252.084 106.049 252.736C106.592 253.027 107.703 253.446 108.991 253.566C110.262 253.685 111.516 253.498 112.575 252.827C113.742 252.088 115.286 252.435 116.025 253.601C116.764 254.768 116.417 256.312 115.251 257.051C112.994 258.481 110.542 258.732 108.527 258.545C106.531 258.358 104.778 257.727 103.687 257.143C102.47 256.49 102.012 254.975 102.665 253.758ZM194.75 255.823C196.126 255.926 197.159 257.125 197.056 258.502C196.598 264.627 194.731 274.323 190.607 283.758C186.494 293.171 179.997 302.629 170.093 307.801C168.869 308.44 167.359 307.966 166.72 306.742C166.081 305.519 166.555 304.008 167.779 303.369C176.266 298.937 182.144 290.638 186.026 281.756C189.898 272.896 191.649 263.759 192.07 258.129C192.173 256.752 193.373 255.72 194.75 255.823ZM138.898 281.546C139.95 282.44 140.078 284.018 139.184 285.07C137.518 287.03 132.859 290.874 126.625 291.563C125.252 291.715 124.017 290.726 123.865 289.353C123.713 287.981 124.702 286.745 126.075 286.594C130.694 286.083 134.276 283.123 135.374 281.832C136.268 280.78 137.846 280.652 138.898 281.546ZM169.868 286.759C171.149 287.273 171.77 288.729 171.256 290.01C169.223 295.069 165.591 298.849 161.997 301.501C158.409 304.147 154.715 305.778 152.302 306.484C150.977 306.872 149.589 306.112 149.201 304.787C148.813 303.462 149.572 302.073 150.897 301.685C152.756 301.141 155.921 299.77 159.029 297.477C162.13 295.189 165.031 292.092 166.616 288.146C167.131 286.865 168.587 286.244 169.868 286.759Z" fill="black"/>
<path d="M334.977 114.585V39.0852H258.477" stroke="black" stroke-width="10" stroke-linecap="round"/>
<path d="M5.47656 114.585V39.0852H81.9766" stroke="black" stroke-width="10" stroke-linecap="round"/>
<path d="M5.47656 337.585V413.085H81.9766" stroke="black" stroke-width="10" stroke-linecap="round"/>
<path d="M576.297 314.037C463.897 370.037 378.797 332.848 350.297 307.253C286.983 307.253 286.606 337.442 294.332 352.537C320.654 396.537 413.897 472.337 534.297 441.537" stroke="black" stroke-width="5" stroke-linecap="round"/>
<path d="M294.331 352.537C267.875 319.044 238.111 305.818 229.038 298.708C216.828 289.139 223.951 283.329 229.038 281.62C234.974 279.911 246.507 282.133 255.326 291.019C264.145 299.905 269.176 296.43 270.589 293.582C271.155 292.158 271.946 285.55 270.589 270.512C269.233 255.475 244.303 246.589 244.303 236.335C244.303 224.715 253.348 225.798 257.87 227.791C266.35 231.494 284.157 241.975 287.548 254.278C288.357 259.714 291.777 272.285 298.977 279.085" stroke="black" stroke-width="5" stroke-linecap="round"/>
<path d="M308.746 270.512C306.485 263.962 300.081 251.544 288.549 257.696" stroke="black" stroke-width="5" stroke-linecap="round"/>
<path d="M319.77 276.493C319.77 270.228 320.279 257.867 305.355 258.551" stroke="black" stroke-width="5" stroke-linecap="round"/>
<path d="M350.296 307.253C343.513 299.563 335.881 288.455 334.185 276.493C333.018 268.261 324.292 262.538 318.922 262.823" stroke="black" stroke-width="5" stroke-linecap="round"/>
<path d="M646.142 289.665C616.142 285.665 537.083 303.665 577.142 385.164C581.975 394.998 599.542 414.364 631.142 413.164C671.642 411.626 693.475 452.498 706.642 472.165" stroke="black" stroke-width="5" stroke-linecap="round"/>
<path d="M756.143 297.164C800.643 313.498 851.143 369.465 719.143 450.665" stroke="black" stroke-width="5" stroke-linecap="round"/>
<path d="M634.143 322.165C661.31 342.832 714.043 410.065 707.643 513.665C701.243 617.265 700.643 631.498 701.144 625.665" stroke="black" stroke-width="5" stroke-linecap="round"/>
<path d="M672.643 431.665V518.665" stroke="black" stroke-width="5" stroke-linecap="round"/>
<path d="M736.143 442.165V523.665" stroke="black" stroke-width="5" stroke-linecap="round"/>
<path d="M719.143 450.165C720.976 422.165 730.943 345.965 756.143 265.165" stroke="black" stroke-width="5" stroke-linecap="round"/>
<path d="M663.143 352.165C663.477 337.665 659.843 303.565 642.643 283.165C621.143 257.665 619.643 242.165 619.643 194.665" stroke="black" stroke-width="5" stroke-linecap="round"/>
<path d="M673.643 208.665C665.643 207.165 652.043 197.165 661.643 169.165" stroke="black" stroke-width="5" stroke-linecap="round"/>
<path d="M652.297 237.537C655.131 242.704 665.697 251.037 685.297 243.037" stroke="black" stroke-width="5" stroke-linecap="round"/>
<path d="M793.644 166.165C793.31 171.165 789.944 181.365 779.144 182.165" stroke="black" stroke-width="5" stroke-linecap="round"/>
<path d="M779.144 208.665C799.144 197.498 831.244 170.065 799.644 149.665C795.31 146.665 785.144 144.865 779.144 161.665" stroke="black" stroke-width="5" stroke-linecap="round"/>
<path d="M735.143 137.165C730.87 134.147 719.887 129.921 710.143 137.165" stroke="black" stroke-width="5" stroke-linecap="round"/>
<path d="M645.143 142.165C640.87 139.147 629.887 134.921 620.143 142.165" stroke="black" stroke-width="5" stroke-linecap="round"/>
<path d="M763.643 24.1652C876.443 35.7652 841.976 120.332 810.643 161.165C804.243 147.165 791.643 146.665 786.143 148.165C780.943 69.3652 731.309 79.9986 707.143 95.1652C656.743 93.1652 644.143 112.998 644.143 123.165C622.296 109.537 603.796 125.537 602.296 129.037C546.296 -34.1627 686.976 -8.33474 763.643 24.1652Z" fill="black"/>
<path d="M720.143 190.665C700.536 190.665 684.643 174.771 684.643 155.165C684.643 135.559 700.536 119.665 720.143 119.665C739.749 119.665 755.643 135.559 755.643 155.165C755.643 174.771 739.749 190.665 720.143 190.665Z" stroke="black" stroke-width="5"/>
<path d="M720.143 171.165C714.62 171.165 710.143 166.688 710.143 161.165C710.143 155.642 714.62 151.165 720.143 151.165C725.665 151.165 730.143 155.642 730.143 161.165C730.143 166.688 725.665 171.165 720.143 171.165Z" fill="black"/>
<path d="M628.143 190.665C608.536 190.665 592.643 174.771 592.643 155.165C592.643 135.559 608.536 119.665 628.143 119.665C647.749 119.665 663.643 135.559 663.643 155.165C663.643 174.771 647.749 190.665 628.143 190.665Z" stroke="black" stroke-width="5"/>
<path d="M628.143 171.165C622.62 171.165 618.143 166.688 618.143 161.165C618.143 155.642 622.62 151.165 628.143 151.165C633.665 151.165 638.143 155.642 638.143 161.165C638.143 166.688 633.665 171.165 628.143 171.165Z" fill="black"/>
<path d="M664.143 153.165H683.643" stroke="black" stroke-width="5" stroke-linecap="round"/>
<path d="M756.297 149.037L780.297 155.537" stroke="black" stroke-width="5" stroke-linecap="round"/>
<path d="M605.296 621.037C613.296 645.037 609.298 703.037 574.297 743.037" stroke="black" stroke-width="5" stroke-linecap="round"/>
<path d="M796.296 632.537C785.13 653.204 777.496 721.037 804.296 767.037" stroke="black" stroke-width="5" stroke-linecap="round"/>
<path d="M796.297 631.537C759.464 636.37 669.897 640.937 606.297 620.537" stroke="black" stroke-width="5" stroke-linecap="round"/>
<path d="M799.797 332.537C911.464 394.204 1030.8 555.537 802.297 760.537" stroke="black" stroke-width="5" stroke-linecap="round"/>
<path d="M817.93 639.408C842.197 602.771 842.619 595.931 844.93 549.408" stroke="black" stroke-width="5" stroke-linecap="round"/>
<path d="M832.297 733.037C832.297 760.037 829.797 770.537 824.797 786.037C760.964 801.37 621.497 814.237 574.297 743.037" stroke="black" stroke-width="5" stroke-linecap="round"/>
<path d="M521.297 446.037C556.296 556.537 522.797 646.037 573.797 743.537" stroke="black" stroke-width="5" stroke-linecap="round"/>
</svg>
