<svg width="974" height="658" viewBox="0 0 974 658" fill="none" xmlns="http://www.w3.org/2000/svg">
<g clip-path="url(#clip0_285_2450)">
<path d="M238.988 186.464C243.14 139.639 222.874 115.009 212.222 108.548C246.68 127.968 280.637 115.346 293.309 106.608L297.192 127.415C320.8 129.797 326.424 97.7936 326.285 81.4946C326.07 56.3474 298.251 25.2967 242.911 37.7481C187.571 50.1996 157.2 95.977 148.931 117.31C109.309 106.416 66.7459 136.062 50.4171 152.247C33.5327 169.047 -2.01463 219.836 22.9466 276.544C56.6233 353.053 146.204 334.054 160.825 326.528C211.347 300.526 233.799 244.995 238.988 186.464Z" fill="black"/>
<path d="M314.705 177.835C313.527 185.783 310.586 192.577 306.911 197.146C303.194 201.768 299.08 203.743 295.447 203.205C291.815 202.667 288.45 199.584 286.233 194.082C284.041 188.644 283.195 181.289 284.373 173.341C285.55 165.393 288.492 158.599 292.167 154.03C295.884 149.407 299.998 147.432 303.631 147.97C307.263 148.509 310.628 151.591 312.845 157.093C315.037 162.531 315.883 169.887 314.705 177.835Z" stroke="black" stroke-width="5"/>
<path d="M299.783 184.672C302.34 185.05 304.966 181.626 305.648 177.023C306.33 172.42 304.81 168.381 302.253 168.002C299.696 167.623 297.07 171.048 296.388 175.651C295.706 180.254 297.226 184.293 299.783 184.672Z" fill="black"/>
<path d="M239.127 182.543L282.406 178.618" stroke="black" stroke-width="5" stroke-linecap="round"/>
<path d="M301.955 128.233C305.693 135.758 316.722 152.204 328.238 161.408C340.016 170.822 341.011 182.822 333.491 191.468L321.769 205.07C328.238 254.535 318.707 291.164 258.081 308.215" stroke="black" stroke-width="5" stroke-linecap="round"/>
<path d="M257.362 227.659C258.794 227.871 260.128 226.882 260.34 225.449C260.552 224.017 259.563 222.683 258.13 222.471C256.698 222.259 255.364 223.248 255.152 224.681C254.94 226.113 255.929 227.447 257.362 227.659Z" fill="black"/>
<path d="M247.966 251.715C249.685 251.97 251.251 251.015 251.463 249.582C251.675 248.149 250.453 246.782 248.734 246.527C247.015 246.272 245.449 247.227 245.237 248.66C245.025 250.092 246.247 251.46 247.966 251.715Z" fill="black"/>
<path d="M270.831 247.682C272.55 247.937 274.115 246.982 274.328 245.549C274.54 244.117 273.318 242.749 271.599 242.494C269.88 242.239 268.314 243.194 268.102 244.627C267.89 246.059 269.111 247.427 270.831 247.682Z" fill="black"/>
<path d="M328.034 346.167L349.974 322.801C353.944 318.381 364.267 313.581 373.795 329.748C383.324 345.914 379.855 363.007 376.93 369.533" stroke="black" stroke-width="5" stroke-linecap="round"/>
<path d="M412.129 254.939C404.046 264.093 421.606 276.555 426.572 283.825C433.645 281.791 452.549 285.455 448.76 297.533C455.707 289.693 480.331 270.198 484.752 264.477C494.084 252.4 481.426 242.865 472.751 233.329C466.968 226.972 458.86 214.26 443.704 226.972C432.337 236.507 420.212 245.785 412.129 254.939Z" stroke="black" stroke-width="5"/>
<path d="M443.899 307.716C446.094 304.659 447.261 301.971 447.674 300.108C449.781 296.304 451.04 287.526 438.825 284.259C419.863 279.187 423.024 291.233 426.816 291.866C439.457 293.388 444.736 304.335 443.899 307.716Z" stroke="black" stroke-width="5" stroke-linecap="round"/>
<path d="M380.044 356.533C381.94 350.193 391.547 335.485 414.807 327.37C430.473 321.904 439.372 314.023 443.899 307.716" stroke="black" stroke-width="5" stroke-linecap="round"/>
<path d="M413.543 308.984C407.854 305.814 393.57 302.137 381.94 312.788" stroke="black" stroke-width="5" stroke-linecap="round"/>
<path d="M431.873 308.984C426.395 299.263 412.279 282.61 399.638 293.768" stroke="black" stroke-width="5" stroke-linecap="round"/>
<path d="M368.034 312.788C373.09 297.723 383.835 278.069 419.23 275.533" stroke="black" stroke-width="5" stroke-linecap="round"/>
<path d="M437.693 377.677C439.995 374.464 441.151 371.539 440.102 369.519C437.051 363.647 429.548 369.674 426.178 373.422C417.791 382.439 401.649 398.112 406 379.874C410.35 361.635 401.097 362.758 379.43 385.021L357.892 398.118" stroke="black" stroke-width="5" stroke-linecap="round"/>
<path d="M435.932 406.272C437.787 411.976 434.811 425.178 407.537 428.377C397.218 429.587 395.667 429.417 385.982 428.6H369.392" stroke="black" stroke-width="5" stroke-linecap="round"/>
<path d="M419.392 394.861C424.751 390.912 433.298 383.742 437.685 377.618C442.449 377.563 447.062 380.249 439.71 389.633C436.527 393.696 431.101 399.013 422.473 405.909" stroke="black" stroke-width="5" stroke-linecap="round"/>
<path d="M422.481 405.967C431.109 399.071 436.535 393.753 439.718 389.69C444.263 390.971 448.352 395.926 435.932 406.272C433.216 408.534 429.71 411.055 425.247 413.851" stroke="black" stroke-width="5" stroke-linecap="round"/>
<path d="M416.492 380.987L404.548 360.369C404.313 359.965 404.385 359.457 404.728 359.14C412.601 351.857 429.746 336.362 441.02 327.41C441.467 327.055 442.114 327.151 442.439 327.62C448.701 336.65 461.566 358.994 467.661 383.297C467.721 383.535 467.695 383.779 467.578 383.994C463.914 390.742 452.713 404.399 435.615 407.602" stroke="black" stroke-width="5" stroke-linecap="round"/>
<path d="M161.034 336.533C87.5711 390.12 96.3615 456.946 96.3615 539.533" stroke="black" stroke-width="5" stroke-linecap="round"/>
<path d="M163.034 337.442L198.301 368.303C199.446 369.306 201.247 368.712 201.572 367.225L210.766 325.178C211.107 323.619 213.047 323.067 214.157 324.215L238.034 348.896" stroke="black" stroke-width="5" stroke-linecap="round"/>
<path d="M238.034 312.533C239.99 316.198 242.794 322.155 245.422 329.078C249.028 338.581 252.302 349.905 252.595 359.624" stroke="black" stroke-width="5" stroke-linecap="round"/>
<path d="M245.422 329.078L326.034 375.533" stroke="black" stroke-width="5" stroke-linecap="round"/>
<path d="M194.034 398.042C206.078 414.358 273.909 459.539 322.721 409.966L336.034 395.533" stroke="black" stroke-width="5" stroke-linecap="round"/>
<path d="M227.034 557.533C242.705 553.481 317.034 512.778 338.682 474.957" stroke="black" stroke-width="5" stroke-linecap="round"/>
<path d="M332.879 425.79C338.247 445.063 339.758 461.332 338.682 474.957C350.625 466.762 362.034 460.459 362.034 434.615C362.034 416.334 348.724 400.576 336.681 395.533" stroke="black" stroke-width="5" stroke-linecap="round"/>
<path d="M233.034 382.533C235.795 382.533 238.034 379.847 238.034 376.533C238.034 373.219 235.795 370.533 233.034 370.533C230.273 370.533 228.034 373.219 228.034 376.533C228.034 379.847 230.273 382.533 233.034 382.533Z" fill="black"/>
<path d="M240.034 411.533C242.795 411.533 245.034 408.847 245.034 405.533C245.034 402.219 242.795 399.533 240.034 399.533C237.273 399.533 235.034 402.219 235.034 405.533C235.034 408.847 237.273 411.533 240.034 411.533Z" fill="black"/>
<path d="M293.152 245.533C292.508 249.433 294.182 257.493 306.034 258.533" stroke="black" stroke-width="5" stroke-linecap="round"/>
<path d="M826.064 245.06C862.356 258.357 903.541 303.922 795.889 370.029" stroke="black" stroke-width="5" stroke-linecap="round"/>
<path d="M736.354 238.954C711.887 235.698 647.41 250.352 680.081 316.703C684.022 324.709 698.349 340.476 724.12 339.499C757.15 338.247 774.956 371.522 785.694 387.533" stroke="black" stroke-width="5" stroke-linecap="round"/>
<path d="M726.034 265.533C748.418 282.426 791.867 337.385 786.594 422.071C781.321 506.756 780.826 518.391 781.238 513.623" stroke="black" stroke-width="5" stroke-linecap="round"/>
<path d="M757.034 355.533V424.533" stroke="black" stroke-width="5" stroke-linecap="round"/>
<path d="M810.034 362.533V429.533" stroke="black" stroke-width="5" stroke-linecap="round"/>
<path d="M796.034 369.533C797.52 346.527 805.601 283.92 826.034 217.533" stroke="black" stroke-width="5" stroke-linecap="round"/>
<path d="M750.017 289.533C750.293 277.657 747.287 249.727 733.059 233.019C715.274 212.133 714.034 199.438 714.034 160.533" stroke="black" stroke-width="5" stroke-linecap="round"/>
<path d="M759.034 172.533C751.714 171.318 739.271 163.216 748.055 140.533" stroke="black" stroke-width="5" stroke-linecap="round"/>
<path d="M845.034 172.533C861.015 163.374 886.666 140.874 861.415 124.143C857.952 121.682 849.828 120.206 845.034 133.985" stroke="black" stroke-width="5" stroke-linecap="round"/>
<path d="M856.62 137.676C856.354 141.776 853.664 150.142 845.034 150.798" stroke="black" stroke-width="5" stroke-linecap="round"/>
<path d="M808.034 112.533C804.957 111.024 797.049 108.911 790.034 112.533" stroke="black" stroke-width="5" stroke-linecap="round"/>
<path d="M735.034 117.533C731.444 116.024 722.218 113.911 714.034 117.533" stroke="black" stroke-width="5" stroke-linecap="round"/>
<path d="M832.515 21.4748C924.782 31.0476 896.589 100.835 870.96 134.533C865.725 122.979 855.418 122.567 850.919 123.805C846.666 58.7757 806.067 67.5507 786.3 80.0669C745.074 78.4164 734.768 94.7836 734.768 103.174C716.898 91.9273 701.766 105.131 700.539 108.02C654.733 -26.6597 769.804 -5.34552 832.515 21.4748Z" fill="black"/>
<path d="M768.534 128.533C768.534 144.311 781.108 157.033 796.534 157.033C811.959 157.033 824.534 144.311 824.534 128.533C824.534 112.754 811.959 100.033 796.534 100.033C781.108 100.033 768.534 112.754 768.534 128.533Z" stroke="black" stroke-width="5"/>
<path d="M797.534 141.533C793.392 141.533 790.034 137.951 790.034 133.533C790.034 129.115 793.392 125.533 797.534 125.533C801.676 125.533 805.034 129.115 805.034 133.533C805.034 137.951 801.676 141.533 797.534 141.533Z" fill="black"/>
<path d="M692.534 128.533C692.534 144.235 705.479 157.033 721.534 157.033C737.588 157.033 750.534 144.235 750.534 128.533C750.534 112.83 737.588 100.033 721.534 100.033C705.479 100.033 692.534 112.83 692.534 128.533Z" stroke="black" stroke-width="5"/>
<path d="M721.034 141.533C716.064 141.533 712.034 137.951 712.034 133.533C712.034 129.115 716.064 125.533 721.034 125.533C726.005 125.533 730.034 129.115 730.034 133.533C730.034 137.951 726.005 141.533 721.034 141.533Z" fill="black"/>
<path d="M750.034 127.533H767.034" stroke="black" stroke-width="5" stroke-linecap="round"/>
<path d="M826.034 124.533L846.034 129.533" stroke="black" stroke-width="5" stroke-linecap="round"/>
<path d="M703.105 509.533C709.833 529.402 706.47 577.418 677.034 610.533" stroke="black" stroke-width="5" stroke-linecap="round"/>
<path d="M858.893 519.533C850.321 536.435 844.461 591.912 865.034 629.533" stroke="black" stroke-width="5" stroke-linecap="round"/>
<path d="M858.892 519.118C828.456 522.953 755.945 525.805 703.392 509.618" stroke="black" stroke-width="5" stroke-linecap="round"/>
<path d="M863.034 274.533C953.088 324.961 1049.32 456.893 865.05 624.533" stroke="black" stroke-width="5" stroke-linecap="round"/>
<path d="M878.034 525.533C895.11 499.887 895.407 495.099 897.034 462.533" stroke="black" stroke-width="5" stroke-linecap="round"/>
<path d="M887.892 602.618C887.892 624.635 885.989 632.112 881.9 644.751C829.695 657.255 715.493 668.178 676.892 610.118" stroke="black" stroke-width="5" stroke-linecap="round"/>
<path d="M634.034 366.533C662.7 457.161 635.262 530.566 677.034 610.533" stroke="black" stroke-width="5" stroke-linecap="round"/>
<path d="M763.141 204.009C762.57 207.202 761.24 209.829 759.683 211.512C758.103 213.22 756.563 213.714 755.391 213.504C754.219 213.295 752.946 212.297 752.057 210.147C751.181 208.028 750.844 205.103 751.416 201.91C751.988 198.717 753.318 196.091 754.875 194.407C756.454 192.7 757.995 192.205 759.167 192.415C760.339 192.625 761.611 193.623 762.501 195.773C763.377 197.892 763.713 200.816 763.141 204.009Z" stroke="black" stroke-width="5"/>
<path d="M522.247 264.263C522.886 232.441 543.333 164.855 587.422 130.131C599.68 124.107 624.577 123.787 626.097 170.7C618.424 189.974 613.111 220.167 609.946 246.124C604.94 287.176 576.208 335.387 550.521 333.478C524.835 331.568 520.969 286.539 522.247 264.263Z" stroke="black" stroke-width="5" stroke-linecap="round"/>
<path d="M587.422 130.131C608.029 113.901 649.051 86.8836 698.125 87.6473C702.917 87.17 712.406 87.9337 712.022 94.8074C711.543 103.4 697.166 96.2395 675.121 107.696" stroke="black" stroke-width="5" stroke-linecap="round"/>
<path d="M658.828 118.675C666.975 122.812 681.831 132.995 676.08 140.632C674.962 142.223 671.767 145.406 667.933 145.406" stroke="black" stroke-width="5" stroke-linecap="round"/>
<path d="M654.994 131.562C661.543 135.062 672.917 144.259 666.016 153.042C659.115 161.825 651.32 161.157 648.284 159.725C645.159 158.428 640.44 155.184 641.921 151.133C642.256 150.215 642.909 149.256 643.971 148.269C649.722 142.923 651.799 147.951 652.118 151.133" stroke="black" stroke-width="5" stroke-linecap="round"/>
<path d="M646.368 104.354C658.668 103.877 683.268 107.314 683.268 124.88C683.428 126.789 682.214 130.322 676.08 129.176" stroke="black" stroke-width="5" stroke-linecap="round"/>
<path d="M626.097 170.7C630.559 159.492 635.82 151.976 641.921 151.134" stroke="black" stroke-width="5" stroke-linecap="round"/>
<path d="M550.034 346.533C565.18 357.44 602.984 376.751 633.034 366.743" stroke="black" stroke-width="5" stroke-linecap="round"/>
<path d="M609.534 255.033C617.2 250.366 644.334 242.433 691.534 248.033" stroke="black" stroke-width="5" stroke-linecap="round"/>
<path d="M441.892 197.618L420.892 168.618" stroke="black" stroke-width="5" stroke-linecap="round"/>
<path d="M463.392 196.618L466.392 141.118" stroke="black" stroke-width="5" stroke-linecap="round"/>
<path d="M485.392 202.118L502.392 174.618" stroke="black" stroke-width="5" stroke-linecap="round"/>
</g>
<defs>
<clipPath id="clip0_285_2450">
<rect width="973" height="657" fill="white" transform="translate(0.39209 0.617676)"/>
</clipPath>
</defs>
</svg>
