<svg width="676" height="526" viewBox="0 0 676 526" fill="none" xmlns="http://www.w3.org/2000/svg">
<path d="M224.657 152.172C228.809 105.347 208.543 80.7171 197.891 74.2561C232.349 93.6761 266.306 81.0541 278.978 72.3161L282.861 93.1231C306.469 95.5051 312.093 63.5021 311.954 47.2031C311.739 22.0559 283.92 -8.99477 228.58 3.45663C173.24 15.9081 142.869 61.6855 134.6 83.0181C94.978 72.1241 52.4148 101.77 36.086 117.955C19.2016 134.755 -16.3457 185.544 8.61553 242.252C42.2922 318.761 131.873 299.762 146.494 292.236C197.016 266.234 219.468 210.703 224.657 152.172Z" fill="black"/>
<path d="M300.374 143.543C299.196 151.491 296.255 158.285 292.58 162.854C288.863 167.476 284.749 169.451 281.116 168.913C277.484 168.375 274.119 165.292 271.902 159.79C269.71 154.352 268.864 146.997 270.042 139.049C271.219 131.101 274.161 124.307 277.836 119.738C281.553 115.115 285.667 113.14 289.3 113.678C292.932 114.217 296.297 117.299 298.514 122.801C300.706 128.239 301.552 135.595 300.374 143.543Z" stroke="black" stroke-width="5"/>
<path d="M285.452 150.38C288.009 150.758 290.635 147.334 291.317 142.731C291.999 138.128 290.479 134.089 287.922 133.71C285.365 133.331 282.739 136.756 282.057 141.359C281.375 145.962 282.895 150.001 285.452 150.38Z" fill="black"/>
<path d="M224.796 148.251L268.075 144.326" stroke="black" stroke-width="5" stroke-linecap="round"/>
<path d="M287.624 93.9414C291.362 101.466 302.391 117.912 313.907 127.116C325.685 136.53 326.68 148.53 319.16 157.176L307.438 170.778C313.907 220.243 304.376 256.872 243.75 273.923" stroke="black" stroke-width="5" stroke-linecap="round"/>
<path d="M243.031 193.368C244.463 193.58 245.797 192.591 246.009 191.158C246.221 189.726 245.232 188.392 243.799 188.18C242.367 187.968 241.033 188.957 240.821 190.39C240.609 191.822 241.598 193.156 243.031 193.368Z" fill="black"/>
<path d="M233.635 217.423C235.354 217.678 236.92 216.723 237.132 215.29C237.344 213.857 236.122 212.49 234.403 212.235C232.684 211.98 231.118 212.935 230.906 214.368C230.694 215.8 231.916 217.168 233.635 217.423Z" fill="black"/>
<path d="M256.5 213.39C258.219 213.645 259.784 212.69 259.997 211.257C260.209 209.825 258.987 208.457 257.268 208.202C255.549 207.947 253.983 208.902 253.771 210.335C253.559 211.767 254.78 213.135 256.5 213.39Z" fill="black"/>
<path d="M423.362 343.385C425.664 340.172 426.82 337.247 425.771 335.227C422.72 329.355 415.217 335.382 411.847 339.13C403.46 348.147 387.318 363.82 391.669 345.582C396.019 327.343 386.766 328.466 365.099 350.729L343.561 363.826" stroke="black" stroke-width="5" stroke-linecap="round"/>
<path d="M421.601 371.981C423.456 377.685 420.48 390.887 393.206 394.086C382.887 395.296 381.336 395.126 371.651 394.309H355.061" stroke="black" stroke-width="5" stroke-linecap="round"/>
<path d="M405.061 360.569C410.42 356.62 418.967 349.451 423.354 343.327C428.118 343.272 432.731 345.957 425.379 355.341C422.196 359.404 416.77 364.722 408.142 371.618" stroke="black" stroke-width="5" stroke-linecap="round"/>
<path d="M408.15 371.676C416.778 364.78 422.204 359.462 425.387 355.399C429.932 356.68 434.021 361.635 421.601 371.981C418.885 374.243 415.379 376.764 410.916 379.56" stroke="black" stroke-width="5" stroke-linecap="round"/>
<path d="M146.703 302.241C73.2398 355.828 82.0302 422.654 82.0302 505.241" stroke="black" stroke-width="5" stroke-linecap="round"/>
<path d="M148.703 303.15L183.97 334.011C185.115 335.014 186.916 334.42 187.241 332.933L196.435 290.886C196.776 289.327 198.716 288.775 199.826 289.923L223.703 314.604" stroke="black" stroke-width="5" stroke-linecap="round"/>
<path d="M223.703 278.241C225.659 281.906 228.463 287.863 231.091 294.786C234.697 304.289 237.971 315.613 238.264 325.332" stroke="black" stroke-width="5" stroke-linecap="round"/>
<path d="M231.091 294.786L311.703 341.241" stroke="black" stroke-width="5" stroke-linecap="round"/>
<path d="M179.703 363.75C191.747 380.066 259.578 425.247 308.39 375.674L321.703 361.241" stroke="black" stroke-width="5" stroke-linecap="round"/>
<path d="M212.703 523.241C228.374 519.189 302.703 478.486 324.351 440.665" stroke="black" stroke-width="5" stroke-linecap="round"/>
<path d="M318.548 391.498C323.916 410.771 325.427 427.04 324.351 440.665C336.294 432.47 347.703 426.167 347.703 400.323C347.703 382.042 334.393 366.284 322.35 361.241" stroke="black" stroke-width="5" stroke-linecap="round"/>
<path d="M218.703 348.241C221.464 348.241 223.703 345.555 223.703 342.241C223.703 338.927 221.464 336.241 218.703 336.241C215.942 336.241 213.703 338.927 213.703 342.241C213.703 345.555 215.942 348.241 218.703 348.241Z" fill="black"/>
<path d="M225.703 377.241C228.464 377.241 230.703 374.555 230.703 371.241C230.703 367.927 228.464 365.241 225.703 365.241C222.942 365.241 220.703 367.927 220.703 371.241C220.703 374.555 222.942 377.241 225.703 377.241Z" fill="black"/>
<path d="M278.821 211.241C278.177 215.141 279.851 223.201 291.703 224.241" stroke="black" stroke-width="5" stroke-linecap="round"/>
<path d="M406.061 321.326C408.061 327.826 405.56 334.726 395.56 336.326" stroke="black" stroke-width="5" stroke-linecap="round"/>
<path d="M385.061 331.326C385.061 321.826 391.061 317.626 401.061 312.826C411.061 308.026 460.893 290.993 484.56 281.326C475.56 298.826 451.06 330.326 425.06 316.326" stroke="black" stroke-width="5" stroke-linecap="round"/>
<path d="M425.061 316.326L417.561 327.326" stroke="black" stroke-width="5" stroke-linecap="round"/>
<path d="M410.559 308.326C404.56 299.826 399.858 283.126 457.058 252.326L433.06 300.326" stroke="black" stroke-width="5" stroke-linecap="round"/>
<path d="M402.679 107.724L399.975 39.7236C399.749 34.0493 404.288 29.3262 409.967 29.3262H483.061C488.584 29.3262 493.061 33.8033 493.061 39.3262V107.326C493.061 112.849 488.584 117.326 483.061 117.326H412.671C407.303 117.326 402.892 113.088 402.679 107.724Z" stroke="black" stroke-width="5" stroke-linecap="round"/>
<path d="M435.561 73.8977L456.986 77.8263M426.561 95.3263L435.561 73.8977L426.561 95.3263ZM462.061 95.3263L456.986 77.8263L462.061 95.3263ZM435.561 73.8977L445.371 50.5401C446.101 48.8018 448.611 48.9467 449.136 50.7575L456.986 77.8263L435.561 73.8977Z" stroke="black" stroke-width="7" stroke-linecap="round"/>
<path d="M585.145 377.415V297.431C585.145 296.286 586.104 295.375 587.247 295.433L671.447 299.715C672.625 299.774 673.495 300.834 673.344 302.004C670.299 325.598 672.029 362.906 673.461 381.069C673.555 382.273 672.575 383.278 671.369 383.223L587.055 379.413C585.986 379.364 585.145 378.484 585.145 377.415Z" stroke="black" stroke-width="5" stroke-linecap="round"/>
<path d="M429.062 127.326C418.327 147.726 433.534 172.16 442.479 181.827C456.479 193.327 474.979 170.327 477.479 160.827C479.979 151.327 472.479 135.827 451.479 144.827C430.479 153.827 438.479 175.326 451.479 173.326C464.479 171.326 491.979 157.826 494.479 177.826C496.979 197.826 474.479 203.326 467.979 197.326C461.479 191.326 443.479 178.846 450.479 160.827C457.479 142.807 485.979 143.826 492.479 159.326C498.979 174.826 475.479 211.326 450.479 215.826C425.479 220.326 432.979 192.326 448.479 192.326C482.479 189.826 477.579 174.626 525.979 177.826C544.507 180.493 561.362 195.926 480.562 236.326" stroke="black" stroke-width="5" stroke-linecap="round"/>
<path d="M584.061 341.326C570.228 348.326 544.161 349.827 542.561 305.827C540.961 261.827 503.894 260.493 485.561 265.327" stroke="black" stroke-width="5" stroke-linecap="round"/>
<path d="M646.305 360.871H618.147C615.533 360.871 614.17 357.761 615.94 355.839L641.67 327.904C643.441 325.981 642.077 322.871 639.463 322.871H614.805" stroke="black" stroke-width="7" stroke-linecap="round"/>
</svg>
