<svg width="928" height="544" viewBox="0 0 928 544" fill="none" xmlns="http://www.w3.org/2000/svg">
<path d="M225.591 167.725C229.743 120.9 209.477 96.2704 198.825 89.8094C233.283 109.229 267.24 96.6074 279.912 87.8694L283.795 108.676C307.403 111.058 313.027 79.0554 312.888 62.7564C312.673 37.6092 284.854 6.55845 229.514 19.0099C174.174 31.4614 143.803 77.2388 135.534 98.5714C95.9124 87.6774 53.3492 117.323 37.0204 133.508C20.136 150.308 -15.4114 201.097 9.54986 257.805C43.2266 334.314 132.807 315.315 147.428 307.789C197.95 281.787 220.402 226.256 225.591 167.725Z" fill="black"/>
<path d="M301.308 159.097C300.13 167.045 297.189 173.839 293.514 178.408C289.797 183.03 285.683 185.005 282.05 184.467C278.418 183.929 275.053 180.846 272.836 175.344C270.644 169.906 269.798 162.551 270.976 154.603C272.153 146.655 275.095 139.861 278.77 135.292C282.487 130.669 286.601 128.694 290.234 129.232C293.866 129.771 297.231 132.853 299.448 138.355C301.64 143.793 302.486 151.149 301.308 159.097Z" stroke="black" stroke-width="5"/>
<path d="M286.386 165.934C288.943 166.312 291.569 162.888 292.251 158.285C292.933 153.682 291.413 149.643 288.856 149.264C286.299 148.885 283.673 152.31 282.991 156.913C282.309 161.516 283.829 165.555 286.386 165.934Z" fill="black"/>
<path d="M225.73 163.804L269.009 159.879" stroke="black" stroke-width="5" stroke-linecap="round"/>
<path d="M288.558 109.495C292.296 117.02 303.325 133.466 314.841 142.67C326.619 152.084 327.614 164.084 320.094 172.73L308.372 186.332C314.841 235.797 305.31 272.426 244.684 289.477" stroke="black" stroke-width="5" stroke-linecap="round"/>
<path d="M243.965 208.922C245.397 209.134 246.731 208.145 246.943 206.712C247.155 205.28 246.166 203.946 244.733 203.734C243.301 203.522 241.967 204.511 241.755 205.944C241.543 207.376 242.532 208.71 243.965 208.922Z" fill="black"/>
<path d="M234.569 232.976C236.288 233.231 237.854 232.276 238.066 230.843C238.278 229.41 237.056 228.043 235.337 227.788C233.618 227.533 232.052 228.488 231.84 229.921C231.628 231.353 232.85 232.721 234.569 232.976Z" fill="black"/>
<path d="M257.434 228.944C259.153 229.199 260.718 228.244 260.931 226.811C261.143 225.379 259.921 224.011 258.202 223.756C256.483 223.501 254.917 224.456 254.705 225.889C254.493 227.321 255.714 228.689 257.434 228.944Z" fill="black"/>
<path d="M424.296 358.939C426.598 355.726 427.754 352.801 426.705 350.781C423.654 344.909 416.151 350.936 412.781 354.684C404.394 363.701 388.252 379.374 392.603 361.136C396.953 342.897 387.7 344.02 366.033 366.283L344.495 379.38" stroke="black" stroke-width="5" stroke-linecap="round"/>
<path d="M422.535 387.535C424.39 393.239 421.414 406.441 394.14 409.64C383.821 410.85 382.27 410.68 372.585 409.863H355.995" stroke="black" stroke-width="5" stroke-linecap="round"/>
<path d="M405.995 376.123C411.354 372.174 419.901 365.005 424.288 358.881C429.052 358.826 433.665 361.511 426.313 370.895C423.13 374.958 417.704 380.276 409.076 387.172" stroke="black" stroke-width="5" stroke-linecap="round"/>
<path d="M409.084 387.23C417.712 380.334 423.138 375.016 426.321 370.953C430.866 372.234 434.955 377.189 422.535 387.535C419.819 389.797 416.313 392.318 411.85 395.114" stroke="black" stroke-width="5" stroke-linecap="round"/>
<path d="M147.637 317.794C74.1741 371.381 82.9645 438.207 82.9645 520.794" stroke="black" stroke-width="5" stroke-linecap="round"/>
<path d="M149.637 318.704L184.904 349.565C186.049 350.568 187.85 349.974 188.175 348.487L197.369 306.44C197.71 304.881 199.65 304.329 200.76 305.477L224.637 330.158" stroke="black" stroke-width="5" stroke-linecap="round"/>
<path d="M224.637 293.794C226.593 297.459 229.397 303.416 232.025 310.339C235.631 319.842 238.905 331.166 239.198 340.885" stroke="black" stroke-width="5" stroke-linecap="round"/>
<path d="M232.025 310.339L298.435 349.171" stroke="black" stroke-width="5" stroke-linecap="round"/>
<path d="M180.637 379.303C192.681 395.619 260.512 440.8 309.324 391.227L322.637 376.794" stroke="black" stroke-width="5" stroke-linecap="round"/>
<path d="M213.637 538.794C229.308 534.742 303.637 494.039 325.285 456.218" stroke="black" stroke-width="5" stroke-linecap="round"/>
<path d="M319.482 407.051C324.85 426.324 326.361 442.593 325.285 456.218C337.228 448.023 348.637 441.72 348.637 415.876C348.637 397.595 335.327 381.837 323.284 376.794" stroke="black" stroke-width="5" stroke-linecap="round"/>
<path d="M219.637 363.794C222.398 363.794 224.637 361.108 224.637 357.794C224.637 354.48 222.398 351.794 219.637 351.794C216.876 351.794 214.637 354.48 214.637 357.794C214.637 361.108 216.876 363.794 219.637 363.794Z" fill="black"/>
<path d="M226.637 392.794C229.398 392.794 231.637 390.108 231.637 386.794C231.637 383.48 229.398 380.794 226.637 380.794C223.876 380.794 221.637 383.48 221.637 386.794C221.637 390.108 223.876 392.794 226.637 392.794Z" fill="black"/>
<path d="M279.755 226.794C279.111 230.694 280.785 238.754 292.637 239.794" stroke="black" stroke-width="5" stroke-linecap="round"/>
<path d="M755.808 371.949C755.808 331.949 766.308 312.449 780.808 292.949" stroke="black" stroke-width="5" stroke-linecap="round"/>
<path d="M923.308 510.949C928.308 446.949 923.308 420.449 918.808 386.449C911.848 333.865 889.883 292.955 881.076 279.308C872.269 265.66 854.821 266.506 838.308 272.449" stroke="black" stroke-width="5" stroke-linecap="round"/>
<path d="M782.875 273.109C774.15 267.738 708.513 272.915 695.751 190.35C673.903 190.605 662.024 172.709 678.694 165.051C696.465 155.887 695.131 139.062 691.911 129.149C686.793 116.149 686.484 102.5 687.587 99.645" stroke="black" stroke-width="5" stroke-linecap="round"/>
<path d="M724.151 166.711C720.961 166.748 718.329 162.899 718.273 158.113C718.217 153.327 720.758 149.417 723.948 149.379C727.139 149.342 729.771 153.191 729.827 157.977C729.883 162.763 727.342 166.673 724.151 166.711Z" fill="black"/>
<path d="M737.469 139.132C733.824 135.236 724.398 129.536 715.857 137.908" stroke="black" stroke-width="5" stroke-linecap="round"/>
<path d="M756.222 210.449C749.523 220.758 742.168 223.686 727.881 217.033" stroke="black" stroke-width="5" stroke-linecap="round"/>
<path d="M806.802 136.895C808.354 140.304 809.654 148.041 802.439 151.724" stroke="black" stroke-width="5" stroke-linecap="round"/>
<path d="M883.698 101.894C892.198 148.4 865.602 183.409 846.32 210.321C825.727 199.195 791.977 172.739 804.921 169.884C818.527 166.883 832.877 129.771 819.664 118.418C804.162 105.099 790.189 125.252 787.526 140.533L775.041 118.941C778.571 103.839 779.956 77.3481 757.25 92.199C734.543 107.05 701.237 103.16 687.422 99.358C660.182 79.861 617.861 34.3823 666.496 8.44722C706.946 -13.1236 759.583 14.1477 791.714 38.6526C813.469 32.9092 872.109 38.4847 883.698 101.894Z" fill="black"/>
<path d="M844.808 207.205C834.975 219.043 830.09 228.873 830.698 249.237" stroke="black" stroke-width="5" stroke-linecap="round"/>
<path d="M352.808 440.449V469.949C352.808 471.054 353.703 471.949 354.808 471.949H414.808C426.808 471.949 427.134 456.884 419.808 436.449C410.308 409.949 433.308 403.125 446.308 406.949C456.25 409.874 462.808 421.949 456.808 436.449C451.782 448.596 443.164 455.661 452.226 470.992C452.577 471.586 453.227 471.949 453.916 471.949H527.808C528.912 471.949 529.808 471.054 529.808 469.949V406.949C529.808 401.449 532.608 395.249 549.808 400.449C571.308 406.949 590.808 395.449 588.808 377.449C585.771 350.113 549.808 359.949 549.808 359.449C549.808 358.949 525.808 367.449 525.808 341.449C525.808 322.124 525.394 302.496 525.696 294.098C525.738 292.935 524.816 291.949 523.652 291.949H457.308C451.308 291.949 448.002 301.409 460.308 316.449C469.308 327.449 462.808 355.449 435.808 348.949C428.141 346.116 417.308 335.449 425.308 316.449C429.308 306.949 437.808 291.449 423.808 290.449H354.808C353.703 290.449 352.808 291.345 352.808 292.449V338.449C352.808 345.116 348.808 355.849 332.808 345.449C312.808 332.449 289.808 347.949 292.808 370.949C294.634 384.949 304.808 388.949 310.308 390.449" stroke="black" stroke-width="5" stroke-linecap="round"/>
<path d="M526.308 292.449H583.808C590.808 292.449 603.576 286.07 599.308 260.463C594.808 233.461 616.279 233.686 625.308 236.96C629.975 238.629 637.908 245.665 632.308 260.463C625.308 278.96 629.808 293.465 644.308 293.465H694.308C695.413 293.465 696.308 294.361 696.308 295.465V375.949" stroke="black" stroke-width="5" stroke-linecap="round"/>
<path d="M528.308 471.949C541.475 471.783 573.602 471.949 586.808 471.949C593.308 471.949 600.308 476.949 594.308 493.449C588.308 509.949 594.308 525.449 608.808 527.949C634.058 532.303 641.808 510.949 634.308 493.449C629.283 481.725 627.808 472.449 636.308 471.949C643.804 471.508 684.745 471.845 694.309 471.931C695.421 471.941 696.308 471.042 696.308 469.93V421.949" stroke="black" stroke-width="5" stroke-linecap="round"/>
<path d="M524.808 505.449C523.141 509.949 522.308 523.349 532.308 540.949" stroke="black" stroke-width="5" stroke-linecap="round"/>
<path d="M505.808 502.449C499.308 508.449 486.008 522.449 484.808 530.449" stroke="black" stroke-width="5" stroke-linecap="round"/>
<path d="M537.308 502.449C540.475 507.949 547.008 519.849 547.808 523.449" stroke="black" stroke-width="5" stroke-linecap="round"/>
<path d="M526.808 268.949C533.308 262.949 546.608 248.949 547.808 240.949" stroke="black" stroke-width="5" stroke-linecap="round"/>
<path d="M507.808 265.949C509.475 261.449 510.308 248.049 500.308 230.449" stroke="black" stroke-width="5" stroke-linecap="round"/>
<path d="M495.308 268.949C492.141 263.449 485.608 251.549 484.808 247.949" stroke="black" stroke-width="5" stroke-linecap="round"/>
<path d="M674 369.632C672.666 361.805 669.635 345.791 661.458 338.685C659.344 336.938 655.294 332.55 656.013 328.98C656.911 324.518 647.007 322.72 646.934 332.935C646.861 343.15 654.455 345.418 646.785 348.473" stroke="black" stroke-width="5" stroke-linecap="round"/>
<path d="M646.785 348.473C640.649 350.916 622.435 340.493 614.095 334.976C611.236 332.915 604.941 330.414 602.627 336.896C602.054 338.501 602.516 340.263 603.649 342.064C607.095 347.534 616.748 353.352 622.443 356.148" stroke="black" stroke-width="5" stroke-linecap="round"/>
<path d="M622.443 356.148C616.748 353.352 607.095 347.534 603.649 342.064C600.451 340.237 593.727 338.197 592.415 344.647C592.019 346.593 593.215 348.75 595.304 350.91C600.138 355.911 609.759 360.934 615.518 363.429" stroke="black" stroke-width="5" stroke-linecap="round"/>
<path d="M615.518 363.429C609.759 360.934 600.138 355.911 595.304 350.91C591.824 352.398 588.069 357.431 600.88 365.663L604.74 368.02L611.452 372.119" stroke="black" stroke-width="5" stroke-linecap="round"/>
<path d="M604.74 368.02C604.852 372.439 609.994 383.007 629.662 389.923C649.331 396.839 661.578 393.792 665.243 391.404" stroke="black" stroke-width="5" stroke-linecap="round"/>
<path d="M807.308 322.449C798.108 393.249 775.141 399.616 764.808 393.949C744.141 384.449 698.608 368.849 681.808 382.449C665.008 396.049 685.141 414.449 697.308 421.949C737.641 450.783 825.208 498.049 852.808 456.449C880.408 414.849 882.308 362.449 879.808 341.449" stroke="black" stroke-width="5" stroke-linecap="round"/>
<path d="M766.308 316.449C750.975 322.616 715.508 338.249 696.308 351.449" stroke="black" stroke-width="5" stroke-linecap="round"/>
<path d="M837.683 272.894C840.293 263.79 841.823 246.426 827.062 249.801C808.61 254.019 771.553 281.335 774.308 291.449" stroke="black" stroke-width="5" stroke-linecap="round"/>
</svg>
