<svg width="869" height="802" viewBox="0 0 869 802" fill="none" xmlns="http://www.w3.org/2000/svg">
<g clip-path="url(#clip0_285_3808)">
<path d="M203.295 203.04C203.295 179.223 185.163 159.915 162.795 159.915C140.428 159.915 122.295 179.223 122.295 203.04C122.295 218.665 130.1 232.35 141.784 239.915" stroke="black" stroke-width="5" stroke-linecap="round"/>
<path d="M123.613 234.217C118.849 238.959 114.742 243.046 111.913 245.862C104.538 253.202 96.7933 248.92 93.843 245.862L46.7925 200.8C39.8463 194.38 33.9751 188.043 7.72035 163.145C5.03285 160.47 0.774194 153.639 5.23958 147.713C9.70496 141.787 34.8021 110.676 46.7925 95.861C50.4295 90.6235 58.3333 84.3921 68.4151 93.7099C77.0978 101.735 106.867 129.513 132.295 150.632" stroke="black" stroke-width="5" stroke-linecap="round"/>
<path d="M46.2949 96.9148C47.7722 123.97 57.7403 167.523 109.295 183.915" stroke="black" stroke-width="5" stroke-linecap="round"/>
<path d="M149.295 200.777L159.455 211.131C159.868 211.552 160.552 211.527 160.933 211.077L176.295 192.915" stroke="black" stroke-width="5" stroke-linecap="round"/>
<path d="M509.295 314.952C396.895 370.952 311.795 333.763 283.295 308.168C219.981 308.168 219.604 338.357 227.33 353.452C253.652 397.452 346.895 473.252 467.295 442.452" stroke="black" stroke-width="5" stroke-linecap="round"/>
<path d="M227.33 353.452C200.874 319.959 171.11 306.733 162.037 299.623C149.827 290.054 156.95 284.244 162.037 282.535C167.973 280.826 179.505 283.048 188.324 291.934C197.143 300.82 202.174 297.345 203.587 294.497C204.153 293.073 204.944 286.465 203.587 271.427C202.231 256.39 177.301 247.504 177.301 237.25C177.301 225.63 186.346 226.713 190.868 228.706C199.348 232.409 217.155 242.89 220.546 255.193C221.355 260.629 224.775 273.2 231.975 280" stroke="black" stroke-width="5" stroke-linecap="round"/>
<path d="M241.745 271.427C239.484 264.877 233.08 252.459 221.548 258.611" stroke="black" stroke-width="5" stroke-linecap="round"/>
<path d="M252.769 277.408C252.769 271.143 253.278 258.782 238.354 259.466" stroke="black" stroke-width="5" stroke-linecap="round"/>
<path d="M283.295 308.168C276.512 300.478 268.88 289.37 267.184 277.408C266.017 269.176 257.291 263.453 251.921 263.738" stroke="black" stroke-width="5" stroke-linecap="round"/>
<path d="M579.141 290.58C549.141 286.58 470.082 304.58 510.141 386.079C514.974 395.913 532.541 415.279 564.141 414.079C604.641 412.541 626.474 453.413 639.641 473.08" stroke="black" stroke-width="5" stroke-linecap="round"/>
<path d="M689.141 298.079C733.641 314.413 784.141 370.38 652.141 451.58" stroke="black" stroke-width="5" stroke-linecap="round"/>
<path d="M567.141 323.08C594.308 343.747 647.041 410.98 640.641 514.58C634.241 618.18 633.641 632.413 634.142 626.58" stroke="black" stroke-width="5" stroke-linecap="round"/>
<path d="M605.641 432.58V519.58" stroke="black" stroke-width="5" stroke-linecap="round"/>
<path d="M669.141 443.08V524.58" stroke="black" stroke-width="5" stroke-linecap="round"/>
<path d="M652.141 451.08C653.974 423.08 663.941 346.88 689.141 266.08" stroke="black" stroke-width="5" stroke-linecap="round"/>
<path d="M596.141 353.08C596.475 338.58 592.841 304.48 575.641 284.08C554.141 258.58 552.641 243.08 552.641 195.58" stroke="black" stroke-width="5" stroke-linecap="round"/>
<path d="M606.641 209.58C598.641 208.08 585.041 198.08 594.641 170.08" stroke="black" stroke-width="5" stroke-linecap="round"/>
<path d="M585.295 238.452C588.129 243.619 598.695 251.952 618.295 243.952" stroke="black" stroke-width="5" stroke-linecap="round"/>
<path d="M726.642 167.08C726.308 172.08 722.942 182.28 712.142 183.08" stroke="black" stroke-width="5" stroke-linecap="round"/>
<path d="M712.142 209.58C732.142 198.413 764.242 170.98 732.642 150.58C728.308 147.58 718.142 145.78 712.142 162.58" stroke="black" stroke-width="5" stroke-linecap="round"/>
<path d="M668.141 138.08C663.868 135.062 652.885 130.836 643.141 138.08" stroke="black" stroke-width="5" stroke-linecap="round"/>
<path d="M578.141 143.08C573.868 140.062 562.885 135.836 553.141 143.08" stroke="black" stroke-width="5" stroke-linecap="round"/>
<path d="M696.641 25.08C809.441 36.68 774.974 121.247 743.641 162.08C737.241 148.08 724.641 147.58 719.141 149.08C713.941 70.28 664.307 80.9134 640.141 96.08C589.741 94.08 577.141 113.913 577.141 124.08C555.294 110.452 536.794 126.452 535.294 129.952C479.294 -33.2479 619.974 -7.41994 696.641 25.08Z" fill="black"/>
<path d="M653.141 191.58C633.535 191.58 617.641 175.686 617.641 156.08C617.641 136.474 633.535 120.58 653.141 120.58C672.747 120.58 688.641 136.474 688.641 156.08C688.641 175.686 672.747 191.58 653.141 191.58Z" stroke="black" stroke-width="5"/>
<path d="M653.141 172.08C647.618 172.08 643.141 167.603 643.141 162.08C643.141 156.557 647.618 152.08 653.141 152.08C658.663 152.08 663.141 156.557 663.141 162.08C663.141 167.603 658.663 172.08 653.141 172.08Z" fill="black"/>
<path d="M561.141 191.58C541.535 191.58 525.641 175.686 525.641 156.08C525.641 136.474 541.535 120.58 561.141 120.58C580.747 120.58 596.641 136.474 596.641 156.08C596.641 175.686 580.747 191.58 561.141 191.58Z" stroke="black" stroke-width="5"/>
<path d="M561.141 172.08C555.618 172.08 551.141 167.603 551.141 162.08C551.141 156.557 555.618 152.08 561.141 152.08C566.663 152.08 571.141 156.557 571.141 162.08C571.141 167.603 566.663 172.08 561.141 172.08Z" fill="black"/>
<path d="M597.141 154.08H616.641" stroke="black" stroke-width="5" stroke-linecap="round"/>
<path d="M689.295 149.952L713.295 156.452" stroke="black" stroke-width="5" stroke-linecap="round"/>
<path d="M538.294 621.952C546.294 645.952 542.296 703.952 507.295 743.952" stroke="black" stroke-width="5" stroke-linecap="round"/>
<path d="M729.294 633.452C718.128 654.119 710.494 721.952 737.294 767.952" stroke="black" stroke-width="5" stroke-linecap="round"/>
<path d="M729.295 632.452C692.462 637.285 602.895 641.852 539.295 621.452" stroke="black" stroke-width="5" stroke-linecap="round"/>
<path d="M732.795 333.452C844.462 395.119 963.795 556.452 735.295 761.452" stroke="black" stroke-width="5" stroke-linecap="round"/>
<path d="M750.928 640.323C775.195 603.686 775.617 596.846 777.928 550.323" stroke="black" stroke-width="5" stroke-linecap="round"/>
<path d="M765.295 733.952C765.295 760.952 762.795 771.452 757.795 786.952C693.962 802.285 554.495 815.152 507.295 743.952" stroke="black" stroke-width="5" stroke-linecap="round"/>
<path d="M454.295 446.952C489.294 557.452 455.795 646.952 506.795 744.452" stroke="black" stroke-width="5" stroke-linecap="round"/>
</g>
<defs>
<clipPath id="clip0_285_3808">
<rect width="868" height="802" fill="white" transform="translate(0.474609)"/>
</clipPath>
</defs>
</svg>
