<svg width="1302" height="810" viewBox="0 0 1302 810" fill="none" xmlns="http://www.w3.org/2000/svg">
<path d="M279.024 147.717C276.396 102.978 253.843 82.5824 242.895 77.9769C278.104 91.4768 308.365 74.8294 319.095 64.8183L325.664 83.8982C348.261 82.8455 349.093 51.8791 346.684 36.5274C342.968 12.842 312.394 -12.554 261.945 6.92061C211.496 26.3953 189.249 73.81 184.432 95.083C145.544 90.3459 109.546 124.251 96.4075 141.796C82.8317 159.999 62.1177 209.694 87.8679 262.855C120.056 329.305 214.392 293.048 227.13 283.908C271.141 252.328 282.309 203.641 279.024 147.717Z" fill="black"/>
<path d="M349.106 129C349.106 136.643 347.284 143.44 344.47 148.242C341.62 153.103 338.048 155.5 334.606 155.5C331.163 155.5 327.591 153.103 324.742 148.242C321.927 143.44 320.106 136.643 320.106 129C320.106 121.357 321.927 114.56 324.742 109.758C327.591 104.897 331.163 102.5 334.606 102.5C338.048 102.5 341.62 104.897 344.47 109.758C347.284 114.56 349.106 121.357 349.106 129Z" stroke="black" stroke-width="5"/>
<path d="M336.063 137C338.272 137 340.063 133.642 340.063 129.5C340.063 125.358 338.272 122 336.063 122C333.854 122 332.063 125.358 332.063 129.5C332.063 133.642 333.854 137 336.063 137Z" fill="black"/>
<path d="M278.606 144L320.606 134" stroke="black" stroke-width="5" stroke-linecap="round"/>
<path d="M321.97 289.45C321.098 281.34 324.454 262.098 344.854 250" stroke="black" stroke-width="5" stroke-linecap="round"/>
<path d="M249.848 299V265.468" stroke="black" stroke-width="5" stroke-linecap="round"/>
<path d="M330.269 84C334.846 90.5749 347.545 104.543 359.691 111.615C372.114 118.847 374.729 130.024 368.845 139.229L359.691 153.694C366.229 163.776 377.832 186.486 366.848 207" stroke="black" stroke-width="5" stroke-linecap="round"/>
<path d="M302.106 184C303.487 184 304.606 182.881 304.606 181.5C304.606 180.119 303.487 179 302.106 179C300.725 179 299.606 180.119 299.606 181.5C299.606 182.881 300.725 184 302.106 184Z" fill="black"/>
<path d="M296.606 208C298.263 208 299.606 206.881 299.606 205.5C299.606 204.119 298.263 203 296.606 203C294.949 203 293.606 204.119 293.606 205.5C293.606 206.881 294.949 208 296.606 208Z" fill="black"/>
<path d="M326.606 217C328.128 220.683 333.258 228.44 341.606 230" stroke="black" stroke-width="5" stroke-linecap="round"/>
<path d="M317.606 201C319.263 201 320.606 199.881 320.606 198.5C320.606 197.119 319.263 196 317.606 196C315.949 196 314.606 197.119 314.606 198.5C314.606 199.881 315.949 201 317.606 201Z" fill="black"/>
<path d="M380.707 229.813C370.871 229.156 350.279 225.476 346.606 216.014C342.934 206.552 354.695 205.501 361.034 206.158C369.122 207.472 388.97 213.649 403.66 227.842C422.022 245.583 463.337 291.58 483.01 332.976C498.749 366.094 525.418 409.856 536.785 427.597C559.3 462.642 595.15 535.36 500.717 537.989C476.453 538.664 441.04 509.339 404.316 486.735" stroke="black" stroke-width="5" stroke-linecap="round"/>
<path d="M350.459 255.44C344.584 252.154 339.262 242.035 364.968 227.842" stroke="black" stroke-width="5" stroke-linecap="round"/>
<path d="M369.559 281.723L378.74 279.095C382.457 277.562 389.495 276.992 387.921 286.98C386.348 296.968 358.586 298.15 357.099 286.98C356.555 282.89 356.666 276.966 358.444 271.21C360.951 263.095 366.771 255.313 378.74 253.468" stroke="black" stroke-width="5" stroke-linecap="round"/>
<path d="M358.443 271.21C353.131 268.932 346.72 263.368 350.458 255.44C352.111 251.933 355.749 247.964 362.344 243.612" stroke="black" stroke-width="5" stroke-linecap="round"/>
<path d="M149.588 651.233C150.025 668.232 142.904 703.423 110.926 708.191C78.9475 712.96 39.0621 713.269 23.1166 712.828C12.8504 713.711 -4.92985 711.635 6.07904 696.27C17.088 680.904 34.6933 678.388 42.1198 679.05C61.997 680.375 101.621 673.619 101.096 636" stroke="black" stroke-width="5" stroke-linecap="round"/>
<path d="M785.606 659C792.413 657.903 809.849 650.309 817.228 633.981C826.451 613.57 845.556 605.011 852.144 612.911C857.414 619.232 855.218 623.446 854.779 624.763" stroke="black" stroke-width="5" stroke-linecap="round"/>
<path d="M582.797 645.183C504.862 639.953 473.53 615.549 467.606 604C480.112 722.319 796.724 694.863 789.483 681.136C783.691 670.154 775.222 662.615 771.711 660.218C717.736 626.226 680.216 651.72 582.797 645.183Z" fill="black"/>
<path d="M312.37 793.788C219.462 779.155 190.388 721.921 194.347 695.5C212.847 764.5 360.968 770.814 426.847 725.5C468.847 688 471.706 623.566 468.847 598.5C480.724 635.083 504.557 643.453 541.341 660.327C572.354 674.554 694.868 672.07 754.476 667.102C784.169 664.627 811.703 686.165 794.067 745.01C767.673 833.081 428.505 812.08 312.37 793.788Z" fill="black"/>
<path d="M388.252 281C394.383 294.138 406.777 329.347 407.302 365.081" stroke="black" stroke-width="5" stroke-linecap="round"/>
<path d="M407.302 365.081L361.32 309.246C353.218 300.05 331.234 284.416 308.111 295.451L245.706 302.02C196.658 374.715 97.2477 529.959 91.9925 569.372C86.7374 608.785 97.6856 630.462 103.817 636.374C115.422 647.541 145.333 663.175 172.134 636.374C177.462 631.047 181.857 625.994 185.466 621.266C200.011 602.211 197.096 591.706 199.724 579.882" stroke="black" stroke-width="5" stroke-linecap="round"/>
<path d="M185.466 621.266C179.708 659.803 189.213 739.374 273.296 749.358C357.379 759.343 408.616 738.629 423.725 727.024C441.023 712.354 474.306 666.985 469.051 602.873L440.804 512.223" stroke="black" stroke-width="5" stroke-linecap="round"/>
<path d="M814.861 692.997C819.661 691.033 826.25 684.091 829.916 664.182C833.581 644.273 848.898 629.691 856.098 624.889C862.862 620.086 876.783 615.851 878.354 637.331C879.925 658.812 873.772 700.419 870.499 718.538C868.972 725.96 861.859 743.031 845.625 751.938C829.392 760.844 803.515 765.69 792.606 767" stroke="black" stroke-width="5"/>
<path d="M1174.59 732C1165.39 716 1194.76 713.666 1210.59 714.5V726L1262.09 732C1236.76 738.666 1183.79 748 1174.59 732Z" fill="black"/>
<path d="M1287.59 710.5L1268.09 730.5" stroke="black" stroke-width="5" stroke-linecap="round"/>
<path d="M1263.59 669.5L1213.09 666" stroke="black" stroke-width="5" stroke-linecap="round"/>
<path d="M1233.59 653L1287.59 655.5" stroke="black" stroke-width="5" stroke-linecap="round"/>
<path d="M1212.09 666L1209.59 724" stroke="black" stroke-width="5" stroke-linecap="round"/>
<path d="M1287.59 656.5V709.5" stroke="black" stroke-width="5" stroke-linecap="round"/>
<path d="M1268.09 688V730.5" stroke="black" stroke-width="5" stroke-linecap="round"/>
<path d="M1212.09 666L1233.59 653" stroke="black" stroke-width="5" stroke-linecap="round"/>
<path d="M1268.09 730.5L1209.09 724.5" stroke="black" stroke-width="5" stroke-linecap="round"/>
<path d="M1033.85 640.5C1034.35 626.5 1090.35 631 1093.85 631.5V640.5L1110.85 652.5C1085.02 653.167 1033.45 651.7 1033.85 640.5Z" fill="black"/>
<path d="M1172.85 639V588" stroke="black" stroke-width="5" stroke-linecap="round"/>
<path d="M1129.35 652V596" stroke="black" stroke-width="5" stroke-linecap="round"/>
<path d="M1093.35 639V583" stroke="black" stroke-width="5" stroke-linecap="round"/>
<path d="M1093.35 583L1132.85 573" stroke="black" stroke-width="5" stroke-linecap="round"/>
<path d="M1172.85 587.5L1129.35 595.5" stroke="black" stroke-width="5" stroke-linecap="round"/>
<path d="M1129.35 652.5L1172.85 639.5" stroke="black" stroke-width="5" stroke-linecap="round"/>
<path d="M1172.85 587.5L1132.85 573" stroke="black" stroke-width="5" stroke-linecap="round"/>
<path d="M1093.35 583.5L1129.85 595.5" stroke="black" stroke-width="5" stroke-linecap="round"/>
<path d="M1138.85 544.5C1139.35 530.5 1195.35 535 1198.85 535.5V544.5L1215.85 556.5C1190.02 557.167 1138.45 555.7 1138.85 544.5Z" fill="black"/>
<path d="M1277.85 543V492" stroke="black" stroke-width="5" stroke-linecap="round"/>
<path d="M1234.35 556V500" stroke="black" stroke-width="5" stroke-linecap="round"/>
<path d="M1198.35 543V487" stroke="black" stroke-width="5" stroke-linecap="round"/>
<path d="M1234.35 556.5L1277.85 543.5" stroke="black" stroke-width="5" stroke-linecap="round"/>
<path d="M1277.85 491.5L1234.35 499.5" stroke="black" stroke-width="5" stroke-linecap="round"/>
<path d="M1198.35 487L1237.85 477" stroke="black" stroke-width="5" stroke-linecap="round"/>
<path d="M1277.85 491.5L1237.85 477" stroke="black" stroke-width="5" stroke-linecap="round"/>
<path d="M1198.35 487.5L1234.85 499.5" stroke="black" stroke-width="5" stroke-linecap="round"/>
<path d="M1262.28 440.356L1241.17 473.431C1240.49 474.499 1240.96 475.924 1242.14 476.375L1276.27 489.397C1277.18 489.745 1278.21 489.383 1278.7 488.54L1298.64 454.563C1299.27 453.488 1298.77 452.104 1297.6 451.674L1264.66 439.556C1263.78 439.231 1262.79 439.564 1262.28 440.356Z" stroke="black" stroke-width="5"/>
<path d="M1204.39 434L1212.39 452" stroke="black" stroke-width="5" stroke-linecap="round"/>
<path d="M1176.39 444L1202.39 466" stroke="black" stroke-width="5" stroke-linecap="round"/>
<path d="M1175.39 473L1191.39 482" stroke="black" stroke-width="5" stroke-linecap="round"/>
</svg>
