<svg width="1460" height="1202" viewBox="0 0 1460 1202" fill="none" xmlns="http://www.w3.org/2000/svg">
<g clip-path="url(#clip0_285_4897)">
<path d="M618.368 790.896L712.368 794.896" stroke="black" stroke-width="5" stroke-linecap="round"/>
<path d="M617.368 790.896L493.368 801.896" stroke="black" stroke-width="5" stroke-linecap="round"/>
<path d="M492.368 801.896L517.368 917.896" stroke="black" stroke-width="5" stroke-linecap="round"/>
<path d="M517.368 917.896L620.368 935.896" stroke="black" stroke-width="5" stroke-linecap="round"/>
<path d="M620.368 934.896V811.896" stroke="black" stroke-width="5" stroke-linecap="round"/>
<path d="M620.368 812.896L493.368 802.896" stroke="black" stroke-width="5" stroke-linecap="round"/>
<path d="M620.368 812.896L712.368 794.896" stroke="black" stroke-width="5" stroke-linecap="round"/>
<path d="M714.368 794.896L708.368 886.896" stroke="black" stroke-width="5" stroke-linecap="round"/>
<path d="M708.368 886.896L620.368 935.896" stroke="black" stroke-width="5" stroke-linecap="round"/>
<path d="M619.368 790.896V810.896" stroke="black" stroke-width="5" stroke-linecap="round"/>
<path d="M545.468 839.002L565.672 840.252C570.358 840.542 573.921 844.575 573.632 849.261L573.447 852.251C573.157 856.936 569.124 860.5 564.438 860.21L544.234 858.96C539.548 858.671 535.985 854.637 536.275 849.952L536.459 846.962C536.749 842.276 540.782 838.713 545.468 839.002Z" stroke="black" stroke-width="5"/>
<path d="M621.087 961.896L710.868 888.396L620.868 938.396L514.868 919.896L504.868 921.396L621.087 961.896Z" fill="black"/>
<path d="M293.368 723.396C354.368 717.396 476.768 704.296 500.368 871.896C529.868 1081.4 513.868 1039.4 485.868 1078.9C463.468 1110.5 427.201 973.73 411.868 901.396" stroke="black" stroke-width="5" stroke-linecap="round"/>
<path d="M303.368 853.396C318.368 878.896 296.701 964.063 280.368 1027.4C274.868 1068.4 324.7 1082.4 334.368 1061.9C356.535 1014.9 399.368 938.696 423.368 871.896C447.368 805.096 360.868 748.896 293.368 748.896C276.368 748.73 248.367 750.896 227.867 753.396" stroke="black" stroke-width="5" stroke-linecap="round"/>
<path d="M408.368 514.896L413.628 497.202C413.782 496.686 414.137 496.254 414.613 496.003L492.141 455.124C493.711 454.296 495.501 455.771 494.989 457.471L444.675 624.378C444.483 625.014 443.988 625.514 443.354 625.711L366.161 649.716C364.592 650.204 363.137 648.697 363.679 647.146L383.868 589.396" stroke="black" stroke-width="5" stroke-linecap="round"/>
<path d="M253.74 330.827C257.891 284.002 237.625 259.373 226.973 252.911C261.431 272.331 295.389 259.71 308.06 250.972L311.943 271.779C335.552 274.16 341.175 242.158 341.036 225.858C340.821 200.711 313.002 169.661 257.662 182.112C202.323 194.564 171.951 240.341 163.682 261.673C124.06 250.78 81.4971 280.426 65.1683 296.611C48.2839 313.411 12.7366 364.2 37.6978 420.908C71.3745 497.416 160.955 478.417 175.577 470.892C226.098 444.89 248.551 389.359 253.74 330.827Z" fill="black"/>
<path d="M329.455 322.198C328.278 330.146 325.336 336.941 321.661 341.51C317.944 346.132 313.83 348.107 310.197 347.569C306.565 347.031 303.2 343.948 300.983 338.446C298.791 333.008 297.945 325.653 299.123 317.705C300.3 309.757 303.242 302.962 306.917 298.393C310.634 293.771 314.748 291.796 318.381 292.334C322.013 292.872 325.378 295.955 327.595 301.457C329.787 306.895 330.633 314.25 329.455 322.198Z" stroke="black" stroke-width="5"/>
<path d="M314.313 330.528C317.328 330.975 320.424 326.938 321.228 321.511C322.032 316.084 320.24 311.322 317.225 310.875C314.21 310.429 311.114 314.466 310.31 319.893C309.506 325.32 311.298 330.082 314.313 330.528Z" fill="black"/>
<path d="M253.878 326.906L298.129 321.98" stroke="black" stroke-width="5" stroke-linecap="round"/>
<path d="M316.706 272.596C320.444 280.122 331.473 296.567 342.989 305.772C354.767 315.186 355.762 327.186 348.242 335.832L336.52 349.434C342.989 398.899 333.458 435.527 272.832 452.578" stroke="black" stroke-width="5" stroke-linecap="round"/>
<path d="M272.112 372.022C273.545 372.235 274.878 371.245 275.09 369.813C275.303 368.38 274.313 367.047 272.881 366.835C271.448 366.622 270.115 367.612 269.902 369.044C269.69 370.477 270.679 371.81 272.112 372.022Z" fill="black"/>
<path d="M262.716 396.079C264.435 396.334 266.001 395.379 266.213 393.946C266.425 392.513 265.204 391.146 263.484 390.891C261.765 390.636 260.2 391.591 259.987 393.024C259.775 394.456 260.997 395.824 262.716 396.079Z" fill="black"/>
<path d="M285.582 392.045C287.301 392.299 288.867 391.344 289.079 389.912C289.291 388.479 288.07 387.111 286.351 386.857C284.631 386.602 283.066 387.557 282.853 388.99C282.641 390.422 283.863 391.79 285.582 392.045Z" fill="black"/>
<path d="M175.784 480.896C102.322 534.483 111.112 601.309 111.112 683.896" stroke="black" stroke-width="5" stroke-linecap="round"/>
<path d="M177.784 481.805L213.052 512.667C214.197 513.669 215.997 513.076 216.323 511.589L225.517 469.541C225.858 467.982 227.798 467.431 228.908 468.578L252.784 493.26" stroke="black" stroke-width="5" stroke-linecap="round"/>
<path d="M252.784 456.896C254.741 460.562 257.545 466.518 260.172 473.441C263.779 482.943 267.052 494.267 267.345 503.986" stroke="black" stroke-width="5" stroke-linecap="round"/>
<path d="M208.784 542.406C220.829 558.721 288.659 603.901 337.472 554.328L350.784 539.896" stroke="black" stroke-width="5" stroke-linecap="round"/>
<path d="M241.784 701.896C257.455 697.844 331.784 657.141 353.433 619.32" stroke="black" stroke-width="5" stroke-linecap="round"/>
<path d="M347.629 570.152C352.998 589.425 354.509 605.695 353.433 619.32C365.376 611.126 376.784 604.821 376.784 578.977C376.784 560.697 363.474 544.939 351.432 539.896" stroke="black" stroke-width="5" stroke-linecap="round"/>
<path d="M247.784 526.896C250.546 526.896 252.784 524.209 252.784 520.896C252.784 517.582 250.546 514.896 247.784 514.896C245.023 514.896 242.784 517.582 242.784 520.896C242.784 524.209 245.023 526.896 247.784 526.896Z" fill="black"/>
<path d="M254.784 555.896C257.546 555.896 259.784 553.209 259.784 549.896C259.784 546.582 257.546 543.896 254.784 543.896C252.023 543.896 249.784 546.582 249.784 549.896C249.784 553.209 252.023 555.896 254.784 555.896Z" fill="black"/>
<path d="M307.902 389.896C307.258 393.796 308.933 401.856 320.784 402.896" stroke="black" stroke-width="5" stroke-linecap="round"/>
<path d="M258.368 1144.4C233.168 1125.2 280.201 1131.73 306.868 1137.4L330.368 1144.4C309.568 1159.2 273.701 1150.57 258.368 1144.4Z" fill="black"/>
<path d="M467.868 1113.4C462.678 1106.38 485.868 1102.9 505.868 1110.63L529.368 1117.9C514.535 1125.23 476.368 1124.9 467.868 1113.4Z" fill="black"/>
<path d="M4.86791 648.396C-14.3321 740.396 32.8679 829.396 58.8679 862.396C92.4782 881.167 125.804 890.113 156.868 892.726C223.774 898.353 280.189 874.608 306.368 856.396C307.368 844.73 288.768 824.297 206.368 835.896C138.368 679.096 43.7012 645.563 4.86791 648.396Z" fill="black"/>
<path d="M520.368 1067.4C521.368 1077.23 531.468 1096.9 563.868 1096.9C604.368 1096.9 570.368 1119.9 533.868 1117.4C504.668 1115.4 495.368 1102.9 494.368 1096.9" stroke="black" stroke-width="5" stroke-linecap="round"/>
<path d="M319.83 1096.12C316.291 1108.11 320.05 1117.98 355.091 1132.08C398.893 1149.7 340.654 1149.19 307.795 1136.88C274.936 1124.57 270.346 1115.4 283.24 1062.9" stroke="black" stroke-width="5" stroke-linecap="round"/>
<path d="M167.368 1200.9C108.826 1200.9 61.3682 1191.72 61.3682 1180.4C61.3682 1169.08 108.826 1159.9 167.368 1159.9C225.91 1159.9 273.368 1169.08 273.368 1180.4C273.368 1191.72 225.91 1200.9 167.368 1200.9Z" fill="black"/>
<path d="M315.868 659.396C319.868 668.063 326.668 690.096 321.868 708.896" stroke="black" stroke-width="5" stroke-linecap="round"/>
<path d="M264.868 485.896C274.201 494.23 294.468 519.496 300.868 553.896" stroke="black" stroke-width="5" stroke-linecap="round"/>
<path d="M297.868 542.396C304.201 547.063 323.068 553.596 347.868 542.396" stroke="black" stroke-width="5" stroke-linecap="round"/>
<path d="M179.368 1160.4V886.396H155.868V1160.4H179.368Z" fill="black"/>
<path d="M1429.39 1048.17C1418.95 1072.26 1373.02 1118.08 1358.92 1096.09C1352.47 1086.02 1358.92 1078.81 1371.71 1063.88C1385.04 1048.33 1385.28 1039.01 1378.76 1034.04C1375.1 1030.89 1366.23 1023.04 1363.1 1019.9" stroke="black" stroke-width="5" stroke-linecap="round"/>
<path d="M1248.24 1031.53C1256.23 1061.35 1230.79 1079.97 1205.62 1081.47C1174.16 1083.34 1155.24 1076.94 1161.39 1066.27C1166.32 1057.74 1181.25 1058.3 1188.92 1058.9C1203.15 1060 1210.02 1045.87 1200.66 1026.25" stroke="black" stroke-width="5" stroke-linecap="round"/>
<path d="M1293.53 1076.56C1294.2 1061.86 1257.47 1067.36 1238.57 1071C1234.03 1079.9 1218.9 1081.87 1217.25 1084.09C1239.12 1086.77 1292.85 1091.26 1293.53 1076.56Z" fill="black"/>
<path d="M1457.55 1107.67C1469.54 1096.32 1419.94 1092.42 1393.64 1091.9C1389.85 1097.58 1375.23 1101.63 1368.39 1102.94C1393.11 1109.25 1445.56 1119.03 1457.55 1107.67Z" fill="black"/>
<path d="M972.392 269.896C965.527 259.643 951.956 236.296 952.589 224.939C952.061 221.258 952.273 213.896 957.342 213.896C962.412 213.896 964.207 221.258 964.471 224.939" stroke="black" stroke-width="5" stroke-linecap="round"/>
<path d="M1220.73 582.944C1235.8 623.932 1279.75 688.772 1334.96 620.23C1390.18 551.687 1308.25 411.323 1260.39 349.709" stroke="black" stroke-width="5" stroke-linecap="round"/>
<path d="M1111.25 408.415C1117.07 391.227 1135.69 358.436 1163.61 364.783C1191.53 371.129 1208.56 343.099 1213.59 328.29" stroke="black" stroke-width="5" stroke-linecap="round"/>
<path d="M1080.31 478.227C1058.63 520.273 1053.34 600.398 1080.31 659.896" stroke="black" stroke-width="5" stroke-linecap="round"/>
<path d="M1080.31 478.227C1058.63 520.273 1053.34 600.398 1080.31 659.896" stroke="black" stroke-width="5" stroke-linecap="round"/>
<path d="M1080.31 523.446C1020.02 484.573 1001.78 410.795 987.498 360.023C980.859 333.05 964.651 297.351 990.672 262.445C1016.69 227.539 1040.65 252.661 1049.37 269.585L1125.53 396.515" stroke="black" stroke-width="5" stroke-linecap="round"/>
<path d="M1219.39 581.628C1241.01 585.809 1288.67 587.116 1306.39 558.896" stroke="black" stroke-width="5" stroke-linecap="round"/>
<path d="M1213.39 328.437C1221.32 324.764 1239.09 326.233 1259.39 348.896" stroke="black" stroke-width="5" stroke-linecap="round"/>
<path d="M1122.98 659.896L1091.25 511.374C1087.28 493.901 1095.06 458.637 1157.89 457.366C1174.29 456.837 1205.5 446.247 1220.57 435.128C1235.39 424.197 1259.45 427.979 1261.83 443.864L1290.39 568.559" stroke="black" stroke-width="5" stroke-linecap="round"/>
<path d="M1181.53 645.642C1174.48 645.074 1168.75 644.242 1164.11 643.229C1165.43 651.16 1176.78 664.013 1211.63 651.977C1246.47 639.941 1252.55 635.349 1251.23 634.557" stroke="black" stroke-width="5" stroke-linecap="round"/>
<path d="M1216.38 580.712C1197.9 576.225 1165.06 572.002 1181.53 591.006C1198.01 610.01 1170.97 603.675 1155.4 598.133C1149.06 595.757 1136.39 593.223 1136.39 602.092C1136.39 605.144 1139.58 607.908 1144.31 610.307C1153.33 614.88 1167.95 618.127 1176.78 619.512" stroke="black" stroke-width="5" stroke-linecap="round"/>
<path d="M1164.11 643.229C1165.43 651.16 1176.78 664.013 1211.63 651.977C1246.47 639.941 1252.55 635.349 1251.23 634.557" stroke="black" stroke-width="5" stroke-linecap="round"/>
<path d="M1149.33 625.847C1144.71 630.178 1142.91 638.597 1164.11 643.229C1168.75 644.242 1174.48 645.074 1181.53 645.642" stroke="black" stroke-width="5" stroke-linecap="round"/>
<path d="M1144.31 610.307C1138.6 613.185 1134.76 619.228 1149.33 625.847C1155.64 628.712 1165.4 631.686 1179.95 634.557" stroke="black" stroke-width="5" stroke-linecap="round"/>
<path d="M1173.77 1011.44C1096.5 996.87 1076.65 767.286 1076.39 654.316C1116.29 665.719 1150.55 651.149 1162.69 642.438C1171.56 671.578 1225.5 650.886 1251.37 636.896C1283.39 661.617 1306.3 650.231 1317.39 638.617L1406.55 875.242C1414.73 901.109 1418.42 962.345 1367.75 1000.35C1317.08 1038.36 1292.27 992.963 1286.2 965.513C1280.92 986.893 1251.05 1026.01 1173.77 1011.44Z" fill="black"/>
<path d="M1283.51 162.473C1337.34 221.211 1294.86 315.896 1266.89 355.896C1243.45 323.685 1220.18 323.001 1211.47 326.686L1199.59 304.58C1214.79 291.948 1225.46 263.527 1228.89 250.895C1236.54 255.106 1251.84 257.053 1251.84 231.158C1251.84 205.263 1238.65 214.053 1232.05 221.684L1207.51 228C1210.68 190.105 1178.22 172.21 1161.6 168C1160.54 182.21 1148.43 220.181 1089.55 218.527C1033.35 216.947 1027.01 164.842 1028.6 138.789C1032.99 66.4828 1100.9 81.1565 1121.22 101.683C1161.6 62.2088 1214.64 104.052 1226.51 133.263C1249.31 131.368 1274.01 151.947 1283.51 162.473Z" fill="black"/>
<path d="M1080.49 319.105C1072.26 302.658 1082.34 290.113 1088.4 285.896C1109.29 325.747 1145.1 332.546 1160.39 330.965V364.965C1140.77 361.802 1125.32 378.935 1120.05 387.896C1110.29 371.819 1088.72 335.551 1080.49 319.105Z" fill="black"/>
<path d="M1071.48 209.896C1069.89 253.241 1088.01 338.028 1173.19 330.416C1188.29 328.038 1195.44 322.486 1203.39 307.421" stroke="black" stroke-width="5" stroke-linecap="round"/>
<path d="M1141.39 305.562C1144.83 309.174 1155.05 313.898 1168.39 303.896" stroke="black" stroke-width="5" stroke-linecap="round"/>
<path d="M1143.3 255.896C1138.52 268.314 1134.24 291.722 1155.39 286.015" stroke="black" stroke-width="5" stroke-linecap="round"/>
<path d="M1237.39 226.896C1240.41 228.936 1244.63 234.39 1237.39 239.896" stroke="black" stroke-width="5" stroke-linecap="round"/>
<path d="M1166.39 233.301C1170.7 231.174 1180.93 228.516 1187.39 234.896" stroke="black" stroke-width="5" stroke-linecap="round"/>
<path d="M1095.39 240.05C1098.82 237.916 1107.42 235.497 1114.39 242.896" stroke="black" stroke-width="5" stroke-linecap="round"/>
<path d="M1129.89 243.396C1129.89 259.654 1118.02 272.396 1103.89 272.396C1089.76 272.396 1077.89 259.654 1077.89 243.396C1077.89 227.139 1089.76 214.396 1103.89 214.396C1118.02 214.396 1129.89 227.139 1129.89 243.396Z" stroke="black" stroke-width="5"/>
<path d="M1204.89 236.896C1204.89 255.35 1192.79 269.396 1178.89 269.396C1164.99 269.396 1152.89 255.35 1152.89 236.896C1152.89 218.443 1164.99 204.396 1178.89 204.396C1192.79 204.396 1204.89 218.443 1204.89 236.896Z" stroke="black" stroke-width="5"/>
<path d="M1104.89 269.896C1109.59 269.896 1113.39 266.985 1113.39 263.396C1113.39 259.806 1109.59 256.896 1104.89 256.896C1100.2 256.896 1096.39 259.806 1096.39 263.396C1096.39 266.985 1100.2 269.896 1104.89 269.896Z" fill="black"/>
<path d="M1177.89 264.896C1182.59 264.896 1186.39 262.209 1186.39 258.896C1186.39 255.582 1182.59 252.896 1177.89 252.896C1173.2 252.896 1169.39 255.582 1169.39 258.896C1169.39 262.209 1173.2 264.896 1177.89 264.896Z" fill="black"/>
<path d="M1128.39 238.896C1133.72 237.527 1145.99 235.494 1152.39 238.31" stroke="black" stroke-width="5" stroke-linecap="round"/>
<path d="M1039.15 185.067C1039.15 185.744 1035.68 193.95 1036.16 200.277C1036.27 201.722 1035.14 203.186 1033.7 203.095L1024.13 202.496" stroke="black" stroke-width="5" stroke-linecap="round"/>
<path d="M1065.23 86.832L1101.67 15.3602C1102.09 14.5329 1101.93 13.5387 1101.16 13.0138C1078.17 -2.73842 971.61 5.39471 919.247 11.6723C918.575 11.7529 918.029 12.1401 917.732 12.7486C895.141 59.1081 856.391 159.727 877.467 201.144C877.727 201.655 878.181 202.004 878.741 202.126C898.816 206.498 944.32 204.739 964.838 203.288" stroke="black" stroke-width="5" stroke-linecap="round"/>
<path d="M943.117 59.7405C961.201 56.8394 1003.97 52.7778 1030.39 59.7405" stroke="black" stroke-width="5" stroke-linecap="round"/>
<path d="M932.11 94.5544L1021.74 89.8071" stroke="black" stroke-width="5" stroke-linecap="round"/>
<path d="M927.392 124.621L1001.3 118.291" stroke="black" stroke-width="5" stroke-linecap="round"/>
<path d="M927.392 153.896H973.781" stroke="black" stroke-width="5" stroke-linecap="round"/>
<path d="M962.873 214.896C964.668 206.459 967.18 186.577 962.873 174.553C958.567 162.53 964.668 158.469 968.257 157.942C972.103 157.414 979.486 161.264 978.255 180.882" stroke="black" stroke-width="5" stroke-linecap="round"/>
<path d="M974.892 161.117C973.05 151.361 971.902 132.529 983.903 131.896C997.798 135.06 999.167 168.548 998.114 184.896" stroke="black" stroke-width="5" stroke-linecap="round"/>
<path d="M995.392 146.257C1001.58 144.761 1010.55 147.327 1012.42 165.348C1012.88 169.698 1012.82 174.947 1012.08 181.258" stroke="black" stroke-width="5" stroke-linecap="round"/>
<path d="M1012.42 165.348C1017.34 161.106 1026.71 158.348 1024.8 181.258C1022.42 209.895 1020.03 206.713 1026.39 244.896" stroke="black" stroke-width="5" stroke-linecap="round"/>
<path d="M1284.33 894.896C1281.01 915.76 1279.58 965.57 1300.39 997.896" stroke="black" stroke-width="5" stroke-linecap="round"/>
<path d="M609 657.234C635.355 684.209 684.319 696.096 710.128 699.342C711.952 699.571 712.594 701.944 711.114 703.035L643.208 753.123C642.987 753.285 642.732 753.402 642.464 753.462C592.186 764.683 545.311 714.632 526.711 686.199C526.002 685.115 526.53 683.677 527.758 683.265L606.906 656.722C607.644 656.474 608.455 656.677 609 657.234Z" stroke="black" stroke-width="5" stroke-linecap="round"/>
<path d="M570.117 698.316C578.117 696.654 595.517 691.48 601.117 684.074" stroke="black" stroke-width="5" stroke-linecap="round"/>
<path d="M592.617 716.316C597.617 716.483 609.117 714.016 615.117 702.816" stroke="black" stroke-width="5" stroke-linecap="round"/>
<path d="M617.117 728.316C624.617 727.316 640.717 721.616 645.117 706.816" stroke="black" stroke-width="5" stroke-linecap="round"/>
<path d="M433.193 528.231C435.495 525.018 436.651 522.093 435.602 520.073C432.551 514.201 425.048 520.228 421.678 523.976C413.291 532.993 397.149 548.666 401.5 530.428C405.85 512.189 396.597 513.312 374.93 535.575" stroke="black" stroke-width="5" stroke-linecap="round"/>
<path d="M431.432 556.827C433.287 562.531 430.311 575.733 403.037 578.932C392.718 580.142 391.167 579.972 381.482 579.155" stroke="black" stroke-width="5" stroke-linecap="round"/>
<path d="M414.892 545.415C420.251 541.466 428.798 534.297 433.185 528.173C437.949 528.118 442.562 530.803 435.21 540.187C432.027 544.25 426.601 549.568 417.973 556.464" stroke="black" stroke-width="5" stroke-linecap="round"/>
<path d="M417.981 556.522C426.609 549.626 432.035 544.308 435.218 540.245C439.763 541.526 443.852 546.481 431.432 556.827C428.716 559.089 425.21 561.61 420.747 564.406" stroke="black" stroke-width="5" stroke-linecap="round"/>
</g>
<defs>
<clipPath id="clip0_285_4897">
<rect width="1459" height="1201" fill="white" transform="translate(0.39209 0.617676)"/>
</clipPath>
</defs>
</svg>
