<svg width="892" height="752" viewBox="0 0 892 752" fill="none" xmlns="http://www.w3.org/2000/svg">
<path d="M498.454 526.059C501.446 529.83 512.86 535.67 534.575 528.864C556.29 522.058 564.996 511.424 566.635 506.958" stroke="black" stroke-width="5" stroke-linecap="round"/>
<path d="M479.004 517.329C476.938 520.891 476.952 527.716 493.538 526.525L498.454 526.06L507.003 525.249" stroke="black" stroke-width="5" stroke-linecap="round"/>
<path d="M480.503 504.193C476.513 504.69 469.301 507.299 472.379 513.764C473.307 515.715 475.764 516.811 479.004 517.329C486.504 518.526 498.2 516.624 504.866 515.04" stroke="black" stroke-width="5" stroke-linecap="round"/>
<path d="M560.029 482.312C553.737 476.375 540.602 464.422 528.804 463.571C525.812 463.429 519.4 462.253 517.69 458.68C515.553 454.213 505.721 459.105 512.347 468.038C518.972 476.97 527.094 473.993 522.392 481.649C518.63 487.774 495.889 490.582 484.989 491.22C481.142 491.291 474.003 493.219 476.226 500.365C476.776 502.135 478.334 503.367 480.503 504.193C487.096 506.706 499.341 505.474 506.148 504.193" stroke="black" stroke-width="5" stroke-linecap="round"/>
<path d="M531.636 283C523.635 234.499 532.709 207.211 555.135 190.5C552.485 256.303 598.775 287.5 616.275 298.5L601.275 312.5L579.635 328.499C567.135 335.5 539.237 333 531.636 283Z" fill="black"/>
<path d="M564.712 516C554.453 554.014 545.014 607.461 564.712 749.5" stroke="black" stroke-width="5" stroke-linecap="round"/>
<path d="M594.635 387.745C602.863 368.101 620.555 333.335 639.206 356.908C657.858 380.481 659.092 430.918 670.063 408.303L690.635 354.167" stroke="black" stroke-width="5" stroke-linecap="round"/>
<path d="M833.114 301.511C802.199 330.884 770.842 335.14 758.77 336.5C734.135 339.275 693.27 314 693.27 286.5C715.593 270.374 731.813 240.065 736.993 227.749C742.811 232.669 750.379 230.796 753.436 229.245C757.366 226.687 764.904 217.059 763.619 199.014C762.334 180.968 749.232 185.813 742.842 190.491L710.913 193.931C712.256 164.096 693.865 154.14 684.502 152.892C691.861 136.364 678.699 129.133 671.773 126.292C661.837 138.469 648.817 143.375 643.312 145.656C587.277 160.315 553.074 140.245 537.287 115.197C520.15 89.9117 522.924 30.535 571.405 16.0804C587.258 9.98027 624.84 4.97862 648.348 33.7734C717.552 8.34136 750.305 81.1271 759.291 107.558L769.676 131.657C859.861 150.841 867.798 236.14 851.957 273.496C844.775 290.434 843.83 291.331 833.589 301.059L833.114 301.511Z" fill="black"/>
<path d="M628.817 320.911C613.317 321.911 553.135 349 563.636 478.502" stroke="black" stroke-width="5" stroke-linecap="round"/>
<path d="M667.817 320.908C737.317 309.408 756.953 365.251 764.633 390.999C778.673 435.426 764.633 531 569.865 502.329C558.635 500.676 553.136 485.585 575.133 471.124C598.14 456 622.635 446.5 652.14 440.5" stroke="black" stroke-width="5" stroke-linecap="round"/>
<path d="M565.652 514.177C584.519 532.476 648.623 559.65 754.099 521.951C756.335 517.169 757.498 486.482 754.099 476.591" stroke="black" stroke-width="5" stroke-linecap="round"/>
<path d="M710.867 194.417C707.26 214.947 689.555 228.508 671.768 225.383C653.982 222.259 641.958 203.475 645.565 182.945C649.171 162.415 666.877 148.854 684.663 151.978C702.45 155.103 714.473 173.887 710.867 194.417Z" stroke="black" stroke-width="5"/>
<path d="M623.648 191.625C620.041 212.155 602.336 225.716 584.549 222.591C566.763 219.467 554.739 200.683 558.346 180.153C561.952 159.623 579.658 146.062 597.444 149.186C615.231 152.311 627.254 171.095 623.648 191.625Z" stroke="black" stroke-width="5"/>
<path d="M624.263 183.913L645.902 185.252" stroke="black" stroke-width="5" stroke-linecap="round"/>
<path d="M636.368 204.997C630.026 221.285 617.057 234.878 631.395 245.193" stroke="black" stroke-width="5" stroke-linecap="round"/>
<path d="M616.362 266.697C620.704 271.496 632.816 278.215 646.528 266.697" stroke="black" stroke-width="5" stroke-linecap="round"/>
<circle cx="585.057" cy="200.421" r="9" transform="rotate(9.96339 585.057 200.421)" fill="black"/>
<circle cx="669.057" cy="198.421" r="9" transform="rotate(9.96339 669.057 198.421)" fill="black"/>
<path d="M750.904 202.842C752.005 205.82 753.072 212.69 748.532 216.347" stroke="black" stroke-width="5" stroke-linecap="round"/>
<path d="M567.101 143.609C554.186 168.255 542.569 228.474 594.145 280.414C645.72 332.353 701.008 283.64 722.206 252.791L737.198 226.885C743.424 232.388 757.08 237.339 761.89 213.124C766.701 188.91 757.209 185.618 751.862 186.999C748.963 187.65 742.611 190.525 740.392 196.818" stroke="black" stroke-width="5" stroke-linecap="round"/>
<path d="M710.865 193.024L746.288 189.501" stroke="black" stroke-width="5" stroke-linecap="round"/>
<path d="M679.006 176.009C684.599 176.806 695.736 181.285 695.543 192.826" stroke="black" stroke-width="5" stroke-linecap="round"/>
<path d="M572.451 180.521C576.718 178.646 587.152 176.41 594.751 182.47" stroke="black" stroke-width="5" stroke-linecap="round"/>
<path d="M674.635 319.803V296" stroke="black" stroke-width="5" stroke-linecap="round"/>
<path d="M622.635 300.868V322" stroke="black" stroke-width="5" stroke-linecap="round"/>
<path d="M578.64 678.054C609.136 685.27 684.194 695.373 740.453 678.054" stroke="black" stroke-width="5" stroke-linecap="round"/>
<path d="M578.64 612.486C602.536 618.672 663.848 627.332 717.922 612.486" stroke="black" stroke-width="5" stroke-linecap="round"/>
<path d="M671.495 593.93L693.635 734" stroke="black" stroke-width="5" stroke-linecap="round"/>
<path d="M600.488 551.868L617.635 730.5" stroke="black" stroke-width="5" stroke-linecap="round"/>
<path d="M305.635 268.383C272.435 292.383 274.468 393.383 279.635 440.883H268.635C252.635 340.883 271.968 288.55 283.635 274.883L305.635 268.383Z" fill="black"/>
<path d="M188.635 302.383C155.496 322.975 157.525 409.63 162.682 450.383H151.703C135.732 364.586 155.03 319.686 166.675 307.96L188.635 302.383Z" fill="black"/>
<path d="M125.635 444.383C119.968 399.55 121.635 318.883 167.635 306.883" stroke="black" stroke-width="5" stroke-linecap="round"/>
<path d="M167.635 306.883L354.135 254.883" stroke="black" stroke-width="5" stroke-linecap="round"/>
<path d="M123.571 451.824L286.571 441.451C287.147 441.414 287.635 441.872 287.635 442.449V458.939C287.635 459.469 287.221 459.907 286.692 459.938L123.692 469.322C123.118 469.355 122.635 468.899 122.635 468.324V452.822C122.635 452.294 123.045 451.857 123.571 451.824Z" stroke="black" stroke-width="5" stroke-linecap="round"/>
<path d="M239.635 463.383V532.383" stroke="black" stroke-width="5" stroke-linecap="round"/>
<path d="M272.635 461.883V509.383" stroke="black" stroke-width="5" stroke-linecap="round"/>
<path d="M522.128 487.812C500.157 503.305 355.955 463.148 288.635 441.883L426.134 447.383C472.188 453.079 544.098 472.319 522.128 487.812Z" fill="black" stroke="black" stroke-width="5" stroke-linecap="round"/>
<path d="M287.635 458.383C319.876 475.266 393.689 506.48 470.635 511.5" stroke="black" stroke-width="5" stroke-linecap="round"/>
<path d="M307.135 437.883C299.468 371.55 301.635 242.083 371.635 254.883C386.301 257.383 417.635 273.783 425.635 319.383" stroke="black" stroke-width="5" stroke-linecap="round"/>
<path d="M425.008 316.096C416.115 272.991 385.943 257.322 371.635 254.883C334.59 248.109 316.543 281.18 308.897 323.65C308.554 325.554 310.103 327.257 312.032 327.126L422.308 319.61C424.085 319.489 425.368 317.841 425.008 316.096Z" fill="black"/>
<path d="M425.464 446L368.135 385.112" stroke="black" stroke-width="5" stroke-linecap="round"/>
<path d="M447.464 320.5L368.135 385.112L341.599 406.779C340.465 407.705 338.828 407.677 337.726 406.714L305.464 378.5" stroke="black" stroke-width="5" stroke-linecap="round"/>
<path d="M445.769 319.57L312.903 328.267C311.812 328.338 310.844 328.98 310.432 329.993C301.295 352.429 303.76 408.091 306.39 435.989C306.527 437.443 307.699 438.575 309.156 438.677L424.074 446.738C425.315 446.825 426.48 446.147 426.987 445.011C436.789 423.036 453.426 371.171 448.922 322.24C448.775 320.64 447.371 319.466 445.769 319.57Z" stroke="black" stroke-width="5" stroke-linecap="round"/>
<path d="M443.635 393.383C462.637 393.383 464.045 392.006 483.04 388.813C484.519 388.564 485.951 389.444 486.489 390.844C492.967 407.681 515.786 435.68 529.135 411.883C532.968 405.05 536.835 385.383 521.635 361.383C506.773 337.917 491.975 348.549 486.027 357.29C485.763 357.679 485.608 358.126 485.568 358.595C484.933 366 485.778 378.361 491.237 388.383C494.346 394.091 498.952 399.04 505.635 401.883C524.435 409.883 524.635 388.383 518.635 376.883C515.635 370.383 510.135 364.383 502.135 370.383C495.635 376.383 501.135 382.883 504.635 387.383" stroke="black" stroke-width="5" stroke-linecap="round"/>
<path d="M515.135 421.002L434.135 428.883" stroke="black" stroke-width="5" stroke-linecap="round"/>
<path d="M449.134 357.883C467.634 357.883 467.134 357.883 497.635 347.883" stroke="black" stroke-width="5" stroke-linecap="round"/>
<path d="M504.635 387.383L491.237 388.383" stroke="black" stroke-width="5" stroke-linecap="round"/>
<path d="M2.63477 672.973C29.1564 678.413 16.7202 714.92 36.1585 724.635C59.3593 736.231 67.3484 670.942 64.3294 643.23C63.4643 631.08 49.3141 625.675 47.4052 643.23C45.3776 661.878 68.5195 734.188 95.0413 706.285L112.75 685.799C117.67 679.737 127.37 671.316 135.568 685.799C143.764 700.283 156.826 695.497 162.332 691.293L179.635 678.709" stroke="black" stroke-width="5" stroke-linecap="round"/>
<path d="M167.029 623.025L305.463 599.575C306.45 599.408 307.043 600.634 306.299 601.304L241.763 659.425C241.689 659.491 241.612 659.545 241.52 659.583C235.907 661.892 213.805 653.131 202.395 647.997C201.834 647.744 201.179 648.05 201.011 648.642C198.277 658.285 194.928 667.235 193.29 671.258C193.113 671.693 192.63 671.947 192.274 671.641C188.961 668.794 188.546 650.617 188.789 640.56C188.801 640.046 188.426 639.61 187.92 639.52C179.445 638.005 167.78 630.439 162.857 626.722" stroke="black" stroke-width="5" stroke-linecap="round"/>
<path d="M201.857 648C216.373 641.119 253.096 623.886 283.857 610" stroke="black" stroke-width="5" stroke-linecap="round"/>
<path d="M192.857 672L219.857 656" stroke="black" stroke-width="5" stroke-linecap="round"/>
<path d="M198.857 634L235.857 622" stroke="black" stroke-width="5" stroke-linecap="round"/>
<path d="M587.135 350C571.301 353 545.635 361.5 529.135 374.5" stroke="black" stroke-width="5" stroke-linecap="round"/>
<path d="M563.635 422C555.301 422.167 536.335 421 527.135 415" stroke="black" stroke-width="5" stroke-linecap="round"/>
</svg>
