<svg width="774" height="988" viewBox="0 0 774 988" fill="none" xmlns="http://www.w3.org/2000/svg">
<path d="M316.13 82.8506L308.658 40.9999" stroke="black" stroke-width="5" stroke-linecap="round"/>
<path d="M279.225 95.8024L230.22 50.1883" stroke="black" stroke-width="5" stroke-linecap="round"/>
<path d="M259.755 131.393L230.134 115.025" stroke="black" stroke-width="5" stroke-linecap="round"/>
<path d="M493.314 894L471.314 876" stroke="black" stroke-width="5" stroke-linecap="round"/>
<path d="M493.314 953.5L456.314 931" stroke="black" stroke-width="5" stroke-linecap="round"/>
<path d="M493.314 922L444.314 886.5" stroke="black" stroke-width="5" stroke-linecap="round"/>
<path d="M650.817 3C640.125 6.64066 622.201 19.0469 636.045 39.5467C649.787 59.8954 662.17 42.7437 666.755 31.3967C666.824 31.2273 666.866 31.0568 666.883 30.8749C667.519 24.0928 665.944 11.8661 654.616 15.1822C643.136 18.5428 647.3 27.2244 650.817 31.1451" stroke="black" stroke-width="5" stroke-linecap="round"/>
<path d="M92.0039 713.569C88.4083 699.69 76.4709 674.094 57.4863 682.746C38.5016 691.398 49.576 706.899 57.4863 713.569C62.8097 717.174 74.2535 721.031 77.4416 707.62C80.6297 694.21 67.1942 688.694 63.4189 694.643C61.4274 696.986 59.1787 702.862 66.1156 707.62" stroke="black" stroke-width="5" stroke-linecap="round"/>
<path d="M3.00391 272C5.4967 278.896 15.0441 293.049 33.2913 294.488C56.1002 296.287 59.0916 302.044 58.2191 326.87C57.3466 351.697 59.964 363.391 83.8948 356.914C107.825 350.438 142.101 316.976 136.367 351.697C135.578 356.794 132.628 370.191 127.144 383" stroke="black" stroke-width="5" stroke-linecap="round"/>
<path d="M389.423 507.289C344.223 450.889 360.923 407.123 374.923 392.289C381.323 439.889 419.256 458.789 437.423 462.289V479.289C431.823 475.289 403.09 496.289 389.423 507.289Z" fill="black"/>
<path d="M420.774 268.643C467.274 241.643 499.984 289.792 509.774 307.643C515.99 304.958 522.13 308.762 524.423 311V372.789C526.221 379.981 525.683 385.615 524.423 389.585V429.5C524.423 451.5 499.503 464.57 487.003 467.5L484.923 443.289C498.923 428.889 506.756 406.289 508.923 396.789C513.723 399.589 518.923 397.289 520.923 395.789C522.018 394.767 523.44 392.682 524.423 389.585V372.789C521.223 359.989 512.423 365.123 508.423 369.289L485.923 375.789C483.123 354.189 468.657 349.359 461.774 349.643C464.974 336.843 454.607 333.31 449.274 332.143C443.674 342.143 434.94 347.31 431.274 349.643C392.874 367.243 365.774 357.143 351.274 341.143C335.774 325.143 330.274 282.143 363.274 265.643C373.891 259.261 400.254 250.927 420.774 268.643Z" fill="black"/>
<path d="M485.274 376.143C485.274 391.043 474.503 402.643 461.774 402.643C449.045 402.643 438.274 391.043 438.274 376.143C438.274 361.244 449.045 349.643 461.774 349.643C474.503 349.643 485.274 361.244 485.274 376.143Z" stroke="black" stroke-width="5"/>
<path d="M422.274 385.143C422.274 400.043 411.503 411.643 398.774 411.643C386.045 411.643 375.274 400.043 375.274 385.143C375.274 370.244 386.045 358.643 398.774 358.643C411.503 358.643 422.274 370.244 422.274 385.143Z" stroke="black" stroke-width="5"/>
<path d="M422.418 379.528L438.13 377.759" stroke="black" stroke-width="5" stroke-linecap="round"/>
<path d="M436.274 443.643C443.003 445 451.503 438.5 451.503 431" stroke="black" stroke-width="5" stroke-linecap="round"/>
<path d="M433.774 393.143C431.274 405.643 423.674 417.043 435.274 422.643" stroke="black" stroke-width="5" stroke-linecap="round"/>
<path d="M393.274 410.789C397.417 410.789 400.774 407.431 400.774 403.289C400.774 399.147 397.417 395.789 393.274 395.789C389.132 395.789 385.774 399.147 385.774 403.289C385.774 407.431 389.132 410.789 393.274 410.789Z" fill="black"/>
<path d="M455.274 401.789C459.417 401.789 462.774 398.431 462.774 394.289C462.774 390.147 459.417 386.789 455.274 386.789C451.132 386.789 447.774 390.147 447.774 394.289C447.774 398.431 451.132 401.789 455.274 401.789Z" fill="black"/>
<path d="M515.774 377.143C516.941 379.143 518.574 383.943 515.774 387.143" stroke="black" stroke-width="5" stroke-linecap="round"/>
<path d="M376.275 357.789C370.108 377.123 369.363 421.843 412.963 452.643C456.563 483.443 490.13 441.477 501.463 416.643L508.963 396.143C514.13 399.31 524.563 401.143 524.963 383.143C525.363 365.143 518.13 363.977 514.463 365.643C512.463 366.477 508.263 369.343 507.463 374.143" stroke="black" stroke-width="5" stroke-linecap="round"/>
<path d="M485.774 375.143L510.774 368.143" stroke="black" stroke-width="5" stroke-linecap="round"/>
<path d="M457.774 375.796C461.892 375.663 470.456 377.475 471.774 385.789" stroke="black" stroke-width="5" stroke-linecap="round"/>
<path d="M384.774 383.628C387.602 381.743 394.815 378.82 401.037 382.214" stroke="black" stroke-width="5" stroke-linecap="round"/>
<path d="M486.504 465C477.671 472.333 454.704 485.3 437.504 476.5" stroke="black" stroke-width="5" stroke-linecap="round"/>
<path d="M244.172 634.5C242.172 623 234.928 608.1 213.328 602.5C203.828 600.333 185.828 595 184.828 586.5C183.94 578.952 191.328 577.677 195.828 579.01" stroke="black" stroke-width="5" stroke-linecap="round"/>
<path d="M213.828 592.5C192.814 586.5 167.969 533 185.814 533C192.968 533 198.969 549 203.469 557.5" stroke="black" stroke-width="5" stroke-linecap="round"/>
<path d="M211.253 536C219.828 536 221.928 536.1 230.328 558.5" stroke="black" stroke-width="5" stroke-linecap="round"/>
<path d="M226.328 546.5C227.828 543.167 232.628 539.8 239.828 553C244.828 562.167 251.128 582.8 264.328 588C277.528 593.2 277.828 598 278.828 601" stroke="black" stroke-width="5" stroke-linecap="round"/>
<path d="M282.002 615C251.003 612.5 233.703 646.8 270.503 718C316.503 807 428.502 869.5 460.502 643" stroke="black" stroke-width="5" stroke-linecap="round"/>
<path d="M282.004 615C292.004 617.167 318.404 634 344.004 684C376.004 746.5 326.004 596.5 391.504 501.5" stroke="black" stroke-width="5" stroke-linecap="round"/>
<path d="M201.969 527H216.469C222.544 527 227.469 531.925 227.469 538V543.5" stroke="black" stroke-width="5" stroke-linecap="round"/>
<path d="M209.469 527V459" stroke="black" stroke-width="5" stroke-linecap="round"/>
<path d="M180.469 492H207.469C208.573 492 209.469 491.105 209.469 490V465C209.469 463.895 208.573 463 207.469 463H188.923C187.819 463 186.923 463.895 186.923 465V471.633C186.923 472.738 187.819 473.633 188.923 473.633H192.438C193.543 473.633 194.438 474.529 194.438 475.633V478.4C194.438 479.505 193.543 480.4 192.438 480.4H180.469C179.364 480.4 178.469 481.295 178.469 482.4V490C178.469 491.105 179.364 492 180.469 492Z" fill="black"/>
<path d="M301.004 767V810C301.004 815.523 305.482 820 311.004 820H758.004C763.527 820 768.004 815.523 768.004 810V141C768.004 135.477 763.527 131 758.004 131H311.004C305.482 131 301.004 135.477 301.004 141V622" stroke="black" stroke-width="10" stroke-linecap="round"/>
<path d="M528.06 299.049L757.06 129.785C763.661 124.906 773.004 129.618 773.004 137.827V811.538C773.004 814.745 771.467 817.756 768.871 819.637L539.871 985.508C533.259 990.297 524.004 985.573 524.004 977.409V307.091C524.004 303.918 525.51 300.934 528.06 299.049Z" fill="black"/>
<path d="M191.469 534.5C193.469 525 204.769 517.5 215.969 551.5" stroke="black" stroke-width="5" stroke-linecap="round"/>
</svg>
