<svg width="961" height="773" viewBox="0 0 961 773" fill="none" xmlns="http://www.w3.org/2000/svg">
<path d="M653.253 365.376C669.304 381.814 699.124 389.058 714.843 391.036C715.954 391.176 716.345 392.622 715.443 393.287L674.087 423.811C673.952 423.91 673.797 423.981 673.633 424.018C643.013 430.856 614.464 400.355 603.137 383.027C602.705 382.367 603.026 381.49 603.774 381.239L651.978 365.064C652.427 364.913 652.921 365.036 653.253 365.376Z" stroke="black" stroke-width="3" stroke-linecap="round"/>
<path d="M629.942 390C634.846 389.067 645.51 386.16 648.942 382" stroke="black" stroke-width="3" stroke-linecap="round"/>
<path d="M642.942 400.995C646.053 401.094 653.209 399.633 656.942 393" stroke="black" stroke-width="3" stroke-linecap="round"/>
<path d="M657.942 409C662.496 408.395 672.271 404.949 674.942 396" stroke="black" stroke-width="3" stroke-linecap="round"/>
<path d="M459.847 362.81C462.014 362.143 467.747 361.51 473.347 364.31" stroke="black" stroke-width="5" stroke-linecap="round"/>
<path d="M439.847 388.81C443.713 388.81 446.847 385.452 446.847 381.31C446.847 377.168 443.713 373.81 439.847 373.81C435.981 373.81 432.847 377.168 432.847 381.31C432.847 385.452 435.981 388.81 439.847 388.81Z" fill="black"/>
<path d="M496.847 398.81C500.713 398.81 503.847 395.452 503.847 391.31C503.847 387.168 500.713 383.81 496.847 383.81C492.981 383.81 489.847 387.168 489.847 391.31C489.847 395.452 492.981 398.81 496.847 398.81Z" fill="black"/>
<path d="M422.847 369.31C423.347 366.143 426.447 360.11 434.847 361.31" stroke="black" stroke-width="5" stroke-linecap="round"/>
<path d="M486.847 368.31C490.847 364.81 500.847 359.91 508.847 368.31" stroke="black" stroke-width="5" stroke-linecap="round"/>
<path d="M465.347 376.81C470.014 384.477 476.547 400.91 465.347 405.31L459.847 407.31" stroke="black" stroke-width="5" stroke-linecap="round"/>
<path d="M446.347 422.81C447.514 425.977 451.947 431.21 460.347 426.81" stroke="black" stroke-width="5" stroke-linecap="round"/>
<path d="M285.346 349.31C268.946 403.31 314.512 442.477 339.346 455.31C361.746 441.71 393.679 434.81 407.346 432.81C390.346 418.81 385.179 393.143 383.846 381.31C374.846 384.31 350.846 372.81 361.846 349.31C370.646 330.51 380.179 340.143 383.846 347.31L408.346 358.31C408.346 335.51 424.012 327.81 431.846 326.81C436.646 323.61 441.846 313.143 443.846 308.31C446.246 327.11 470.846 340.81 482.846 345.31C498.446 332.91 511.012 340.143 515.346 345.31L526.346 343.81C547.846 336.477 586.446 311.41 568.846 269.81C551.246 228.21 514.846 235.81 498.846 244.81C444.046 208.41 389.012 261.643 368.346 292.81C347.512 289.143 301.746 295.31 285.346 349.31Z" fill="black"/>
<path d="M407.847 358.81L383.847 346.31" stroke="black" stroke-width="5" stroke-linecap="round"/>
<path d="M459.347 357.81C459.347 375.055 447.561 388.31 433.847 388.31C420.133 388.31 408.347 375.055 408.347 357.81C408.347 340.564 420.133 327.31 433.847 327.31C447.561 327.31 459.347 340.564 459.347 357.81Z" stroke="black" stroke-width="5"/>
<path d="M525.347 368.81C525.347 386.055 513.561 399.31 499.847 399.31C486.133 399.31 474.347 386.055 474.347 368.81C474.347 351.564 486.133 338.31 499.847 338.31C513.561 338.31 525.347 351.564 525.347 368.81Z" stroke="black" stroke-width="5"/>
<path d="M526.347 465.195C564.747 434.395 542.847 392.862 526.847 375.695C518.047 417.295 497.681 435.195 488.847 439.195L502.847 446.695L526.347 465.195Z" fill="black"/>
<path d="M386.847 357.81C386.014 348.643 375.347 326.81 363.847 347.31C358.847 356.643 355.247 376.61 380.847 381.81" stroke="black" stroke-width="5" stroke-linecap="round"/>
<path d="M378.347 354.31C376.014 356.31 372.547 361.51 377.347 366.31" stroke="black" stroke-width="5" stroke-linecap="round"/>
<path d="M523.348 380.31C520.548 396.31 514.347 410.803 507.847 419.81C503.783 425.442 497.198 432.551 488.802 438.748" stroke="black" stroke-width="5" stroke-linecap="round"/>
<path d="M383.347 381.81C383.014 402.143 390.948 432.31 427.348 448.31C432.947 450.771 438.452 452.183 443.802 452.752" stroke="black" stroke-width="5" stroke-linecap="round"/>
<path d="M455.347 696.31L444.347 612.81C486.347 570.01 553.847 576.31 582.347 584.81L603.847 627.31C612.681 642.643 637.047 679.21 663.847 702.81C663.847 707.31 646.647 712.31 577.847 696.31C509.047 680.31 465.847 719.976 452.847 741.81" stroke="black" stroke-width="5" stroke-linecap="round"/>
<path d="M652.347 708.81L645.347 730.31L476.847 752.81C470.347 758.31 454.647 766.01 443.847 752.81C433.047 739.61 275.347 747.31 197.847 752.81" stroke="black" stroke-width="5" stroke-linecap="round"/>
<path d="M466.847 741.81C437.181 712.81 348.847 667.31 232.847 717.31" stroke="black" stroke-width="5" stroke-linecap="round"/>
<path d="M254.347 635.81L232.847 716.81" stroke="black" stroke-width="5" stroke-linecap="round"/>
<path d="M232.847 617.81L197.847 752.81" stroke="black" stroke-width="5" stroke-linecap="round"/>
<path d="M197.847 752.695L232.847 716.695" stroke="black" stroke-width="5" stroke-linecap="round"/>
<path d="M443.847 610.81C429.728 590.33 380.362 555.98 295.847 582.414" stroke="black" stroke-width="5" stroke-linecap="round"/>
<path d="M486.847 736.81C492.681 728.643 511.447 713.11 539.847 716.31" stroke="black" stroke-width="5" stroke-linecap="round"/>
<path d="M485.347 472.81C477.347 470.81 469.681 477.31 466.847 480.81C465.347 483.977 464.647 490.21 473.847 489.81C485.347 489.31 488.847 472.81 502.347 499.31C513.147 520.51 513.847 562.143 512.847 580.31" stroke="black" stroke-width="5" stroke-linecap="round" stroke-linejoin="round"/>
<path d="M459.173 467.31C456.564 472.977 454.446 483.61 466.846 480.81" stroke="black" stroke-width="5" stroke-linecap="round" stroke-linejoin="round"/>
<path d="M463.999 447.81C456.999 450.81 446.847 461.61 450.847 468.81C451.347 469.643 452.847 471.21 454.847 470.81C455.723 470.635 457.151 469.11 459.174 467.31C462.926 463.971 468.726 459.686 476.847 461.31" stroke="black" stroke-width="5" stroke-linecap="round" stroke-linejoin="round"/>
<path d="M604.347 624.81C609.347 600.31 604.047 537.51 542.847 482.31L502.347 446.81L476.847 433.31L471.848 432.31L452.848 436.81L450.847 438.81L444.347 450.81C443.347 453.31 447.648 456.21 454.848 453.81" stroke="black" stroke-width="5" stroke-linecap="round" stroke-linejoin="round"/>
<path d="M405.848 434.81C373.348 439.143 288.978 457.773 237.848 533.31C189.66 604.5 244.16 634.5 284.66 636" stroke="black" stroke-width="5" stroke-linecap="round" stroke-linejoin="round"/>
<path d="M2.84668 635.81L228.346 624.81" stroke="black" stroke-width="5" stroke-linecap="round" stroke-linejoin="round"/>
<path d="M602.847 623.695L764.068 614.195" stroke="black" stroke-width="5" stroke-linecap="round"/>
<path d="M440.846 43.8099C440.346 39.8099 444.882 28.6091 457.846 31.3099C469.346 33.7058 471.846 46.3099 463.846 53.8099C459.346 58.4965 453.246 66.4099 454.846 74.8099" stroke="black" stroke-width="5" stroke-linecap="round"/>
<path d="M503.847 44.8099C507.447 15.2099 486.347 13.1433 475.347 15.8099C456.147 -7.39007 439.347 6.14326 433.347 15.8099C403.747 12.2099 401.013 33.6433 403.347 44.8099C382.547 61.6099 394.68 79.4766 403.347 86.3099C398.947 115.11 421.847 118.643 433.847 116.81C451.047 139.21 468.68 125.477 475.347 115.81C503.747 119.41 506.18 97.6432 503.847 86.3099C527.447 68.7099 513.68 51.3099 503.847 44.8099Z" stroke="black" stroke-width="5"/>
<path d="M451.511 91.0648C452.699 93.2477 455.432 94.0542 457.614 92.8662C459.797 91.6781 460.604 88.9454 459.416 86.7625C458.228 84.5795 455.495 83.7731 453.312 84.9611C451.129 86.1492 450.323 88.8819 451.511 91.0648Z" fill="black"/>
<path opacity="0.4" d="M645.875 143.515C645.496 140.509 648.936 132.093 658.766 134.122C667.486 135.922 669.381 145.394 663.315 151.03C659.903 154.551 655.278 160.498 656.491 166.81" stroke="black" stroke-width="5" stroke-linecap="round"/>
<path opacity="0.4" d="M693.944 144.354C696.68 122.022 680.646 120.463 672.287 122.474C657.697 104.971 644.93 115.181 640.371 122.474C617.877 119.758 615.8 135.929 617.574 144.354C601.768 157.028 610.988 170.508 617.574 175.663C614.23 197.392 631.632 200.057 640.751 198.674C653.821 215.574 667.221 205.213 672.287 197.92C693.868 200.636 695.717 184.214 693.944 175.663C711.878 162.385 701.417 149.258 693.944 144.354Z" stroke="black" stroke-width="5"/>
<path opacity="0.4" d="M654.351 179.143C655.251 180.796 657.32 181.406 658.973 180.507C660.626 179.607 661.236 177.538 660.337 175.885C659.437 174.232 657.368 173.622 655.715 174.521C654.062 175.421 653.452 177.49 654.351 179.143Z" fill="black"/>
<path opacity="0.3" d="M212.867 172.753C212.596 170.567 215.053 164.446 222.075 165.922C228.303 167.231 229.657 174.12 225.324 178.218C222.887 180.78 219.583 185.104 220.45 189.695" stroke="black" stroke-width="5" stroke-linecap="round"/>
<path opacity="0.3" d="M247.654 173.606C249.641 157.386 237.995 156.253 231.924 157.715C221.327 145.002 212.055 152.417 208.743 157.715C192.406 155.742 190.897 167.487 192.185 173.606C180.705 182.812 187.402 192.602 192.185 196.347C189.757 212.128 202.396 214.064 209.019 213.06C218.512 225.334 228.245 217.809 231.924 212.512C247.599 214.484 248.942 202.557 247.654 196.347C260.68 186.702 253.082 177.168 247.654 173.606Z" stroke="black" stroke-width="5"/>
<path opacity="0.3" d="M218.718 199.152C219.372 200.355 220.878 200.799 222.08 200.144C223.283 199.49 223.727 197.985 223.073 196.782C222.418 195.579 220.913 195.135 219.71 195.79C218.508 196.444 218.064 197.95 218.718 199.152Z" fill="black"/>
<path d="M166.347 772.195L228.847 624.695L197.847 752.695L297.347 749.195L347.347 747.695H396.847L422.347 748.695L444.347 753.695L166.347 772.195Z" fill="black"/>
<path d="M473.847 642.151C482.681 627.151 512.747 600.651 562.347 614.651" stroke="black" stroke-width="5" stroke-linecap="round"/>
<path d="M483.847 676.332C496.681 657.166 537.547 625.832 598.347 653.832" stroke="black" stroke-width="5" stroke-linecap="round"/>
<path d="M434.847 682.575C408.681 668.575 341.847 646.475 283.847 670.075" stroke="black" stroke-width="5" stroke-linecap="round"/>
<path d="M423.847 635.695C415.181 630.695 393.547 622.195 376.347 628.195" stroke="black" stroke-width="5" stroke-linecap="round"/>
<path d="M673.067 448.195L625.067 450.195" stroke="black" stroke-width="3" stroke-linecap="round"/>
<path d="M673.567 448.195L736.567 453.695" stroke="black" stroke-width="3" stroke-linecap="round"/>
<path d="M737.067 453.695L724.567 513.195" stroke="black" stroke-width="3" stroke-linecap="round"/>
<path d="M724.567 513.195L672.067 522.195" stroke="black" stroke-width="3" stroke-linecap="round"/>
<path d="M672.067 521.695V459.195" stroke="black" stroke-width="3" stroke-linecap="round"/>
<path d="M672.067 459.695L736.567 454.195" stroke="black" stroke-width="3" stroke-linecap="round"/>
<path d="M672.067 459.695L625.067 450.195" stroke="black" stroke-width="3" stroke-linecap="round"/>
<path d="M624.067 450.195L627.067 497.195" stroke="black" stroke-width="3" stroke-linecap="round"/>
<path d="M627.067 497.195L672.067 522.195" stroke="black" stroke-width="3" stroke-linecap="round"/>
<path d="M672.567 448.195V458.695" stroke="black" stroke-width="3" stroke-linecap="round"/>
<path d="M709.284 473.554L700.51 474.097C698.106 474.245 696.278 476.315 696.426 478.719C696.575 481.122 698.644 482.951 701.048 482.802L709.823 482.259C712.226 482.11 714.055 480.041 713.906 477.637C713.757 475.234 711.688 473.405 709.284 473.554Z" stroke="black" stroke-width="3"/>
<path d="M672.567 535.195L625.067 496.195L672.567 522.695L727.833 513.195H735.567L672.567 535.195Z" fill="black"/>
<path d="M821.131 568.195L796.631 549.195C791.831 545.473 798.965 543.644 803.131 543.195L894.632 531.695C906.132 533.195 931.531 536.995 941.132 540.195C950.732 543.395 947.799 546.528 945.132 547.695C915.132 553.195 852.231 565.095 840.631 568.695C829.031 572.295 822.798 569.862 821.131 568.195Z" stroke="black" stroke-width="5" stroke-linecap="round"/>
<path d="M944.132 541.195C947.632 542.362 958.832 552.895 953.632 577.695C951.632 584.195 946.132 588.195 928.132 588.195H834.632C830.299 588.528 820.332 587.895 815.132 582.695C809.932 577.495 799.299 566.528 794.632 561.695C793.632 560.528 792.632 558.195 796.632 558.195" stroke="black" stroke-width="5" stroke-linecap="round"/>
<path d="M796.632 558.195V549.695" stroke="black" stroke-width="5" stroke-linecap="round"/>
<path d="M796.632 561.195L817.132 577.195C819.632 579.195 824.132 582.695 835.632 582.195C846.935 581.704 907.966 580.528 937.132 581.195C941.472 581.294 947.132 579.195 948.132 569.195C949.427 556.25 947.132 548.195 942.132 548.195" stroke="black" stroke-width="5" stroke-linecap="round"/>
<path d="M797.631 566.695L778.631 568.195C775.964 568.195 770.731 569.495 771.131 574.695C771.531 579.895 771.298 582.862 771.131 583.695C770.631 586.195 773.131 588.195 776.131 590.695L800.131 611.695" stroke="black" stroke-width="5" stroke-linecap="round"/>
<path d="M802.632 587.695L800.132 611.695" stroke="black" stroke-width="5" stroke-linecap="round"/>
<path d="M802.632 587.695L775.632 570.195" stroke="black" stroke-width="5" stroke-linecap="round"/>
<path d="M802.132 588.195L819.132 586.195" stroke="black" stroke-width="5" stroke-linecap="round"/>
<path d="M800.132 611.695L941.132 614.695" stroke="black" stroke-width="5" stroke-linecap="round"/>
<path d="M942.132 587.195L941.132 614.195" stroke="black" stroke-width="5" stroke-linecap="round"/>
<path d="M819.132 604.195C820.789 604.195 822.132 602.852 822.132 601.195C822.132 599.538 820.789 598.195 819.132 598.195C817.475 598.195 816.132 599.538 816.132 601.195C816.132 602.852 817.475 604.195 819.132 604.195Z" fill="black"/>
<path d="M835.132 630.195C836.789 630.195 838.132 628.852 838.132 627.195C838.132 625.538 836.789 624.195 835.132 624.195C833.475 624.195 832.132 625.538 832.132 627.195C832.132 628.852 833.475 630.195 835.132 630.195Z" fill="black"/>
<path d="M926.132 603.195C927.789 603.195 929.132 601.852 929.132 600.195C929.132 598.538 927.789 597.195 926.132 597.195C924.475 597.195 923.132 598.538 923.132 600.195C923.132 601.852 924.475 603.195 926.132 603.195Z" fill="black"/>
<path d="M944.132 631.195C945.789 631.195 947.132 629.852 947.132 628.195C947.132 626.538 945.789 625.195 944.132 625.195C942.475 625.195 941.132 626.538 941.132 628.195C941.132 629.852 942.475 631.195 944.132 631.195Z" fill="black"/>
<path d="M786.132 613.695L810.632 637.195C814.132 640.695 823.132 641.695 843.132 641.695C861.641 641.695 926.799 639.862 957.132 640.195" stroke="black" stroke-width="5" stroke-linecap="round"/>
<path d="M957.632 614.695L957.132 640.195" stroke="black" stroke-width="5" stroke-linecap="round"/>
<path d="M957.632 614.695L942.132 607.695" stroke="black" stroke-width="5" stroke-linecap="round"/>
<path d="M789.132 602.195C789.299 605.195 788.832 611.595 785.632 613.195" stroke="black" stroke-width="5" stroke-linecap="round"/>
<path d="M816.132 613.195C817.466 614.695 819.132 619.195 817.632 626.195C816.461 631.661 814.632 636.695 810.632 636.195" stroke="black" stroke-width="5" stroke-linecap="round"/>
<path d="M957.632 615.195L939.132 614.695" stroke="black" stroke-width="5" stroke-linecap="round"/>
<path d="M799.132 626.195L777.132 638.695" stroke="black" stroke-width="5" stroke-linecap="round"/>
<path d="M777.132 638.695C773.966 644.862 769.032 662.095 774.632 683.695" stroke="black" stroke-width="5" stroke-linecap="round"/>
<path d="M775.132 683.695L889.632 691.195C896.466 691.362 911.732 690.195 918.132 684.195C924.532 678.195 936.632 665.028 942.132 659.195" stroke="black" stroke-width="5" stroke-linecap="round"/>
<path d="M942.132 659.195V644.195" stroke="black" stroke-width="5" stroke-linecap="round"/>
<path d="M941.631 643.695L912.631 670.195C911.465 671.528 907.031 673.795 898.631 672.195C890.231 670.595 826.465 654.862 795.631 647.195C789.798 645.862 780.131 646.195 779.631 658.695C778.965 664.362 779.931 675.895 789.131 676.695C798.331 677.495 861.631 680.362 892.131 681.695C900.465 682.195 916.631 683.695 933.631 668.195" stroke="black" stroke-width="5" stroke-linecap="round"/>
<path d="M306.463 636.768C307.081 638.685 306.626 640.063 304.218 640.27C297.091 640.881 288.627 629.833 285.287 624.233" stroke="black" stroke-width="5" stroke-linecap="round"/>
<path d="M306.446 615.069C310.003 620.752 316.206 629.509 321.644 634.477C321.148 638.295 317.417 644.099 306.464 636.768C304.796 631.594 295.31 622.499 295.31 621.942" stroke="black" stroke-width="5" stroke-linecap="round"/>
<path d="M316.096 609.724C322.901 617.233 335.25 633.321 330.202 637.597C329.307 638.355 328.166 638.428 326.861 637.984C325.307 637.455 323.521 636.192 321.643 634.477C316.205 629.509 310.002 620.752 306.445 615.069" stroke="black" stroke-width="5" stroke-linecap="round"/>
<path d="M260.159 629.294C271.542 615.039 307.93 584.141 328.717 602.851C337.007 611.124 347.339 626.077 341.4 632.186C338.43 634.477 332.002 631.422 327.856 625.313" stroke="black" stroke-width="5" stroke-linecap="round"/>
<path d="M300.711 548C293.544 553.667 282.311 568.4 294.711 582" stroke="black" stroke-width="5" stroke-linecap="round"/>
</svg>
