<svg width="1243" height="951" viewBox="0 0 1243 951" fill="none" xmlns="http://www.w3.org/2000/svg">
<path d="M178.203 656.279C202.066 680.663 246.401 691.408 269.77 694.342C271.422 694.55 272.003 696.695 270.663 697.681L209.177 742.958C208.977 743.105 208.746 743.211 208.503 743.265C162.978 753.408 120.535 708.164 103.693 682.462C103.051 681.482 103.53 680.182 104.641 679.81L176.307 655.816C176.975 655.592 177.709 655.775 178.203 656.279Z" stroke="black" stroke-width="5" stroke-linecap="round"/>
<path d="M143.405 692.722C150.631 691.322 166.347 686.962 171.405 680.722" stroke="black" stroke-width="5" stroke-linecap="round"/>
<path d="M162.405 708.715C167.071 708.851 177.805 706.842 183.405 697.722" stroke="black" stroke-width="5" stroke-linecap="round"/>
<path d="M185.405 720.722C192.101 719.838 206.476 714.801 210.405 701.722" stroke="black" stroke-width="5" stroke-linecap="round"/>
<path d="M592.93 153L590.93 197" stroke="black" stroke-width="5" stroke-linecap="round"/>
<path d="M652.232 151.012L654.696 192.902" stroke="black" stroke-width="5" stroke-linecap="round"/>
<path d="M622.516 394.737C645.658 365.506 693.909 297.779 701.773 260.726C702.387 258.049 701.527 253.068 693.171 254.55C684.816 256.032 678.631 255.991 676.583 255.785C675.149 254.962 673.388 252.821 677.811 250.845C682.235 248.868 690.714 244.257 694.4 242.199C696.858 240.346 700.298 235.282 694.4 229.847C688.502 224.413 666.138 203.513 655.693 193.743" stroke="black" stroke-width="5" stroke-linecap="round"/>
<path d="M591.182 186C588.989 187.724 584.647 191.57 581.966 193.743C565.114 207.404 542.03 224.907 540.187 234.17C538.548 242.407 543.873 245.904 550.017 247.139C554.932 248.127 554.933 251.462 552.475 252.08L537.729 254.55C534.862 255.167 530.848 259.86 537.729 273.693C546.331 290.985 593.64 377.445 625.588 404" stroke="black" stroke-width="5" stroke-linecap="round"/>
<path d="M589.254 188C573.714 233.052 587.141 343.767 625.93 404" stroke="black" stroke-width="5" stroke-linecap="round"/>
<path d="M655.991 194C664.154 208.154 655.991 286.923 622.93 394" stroke="black" stroke-width="5" stroke-linecap="round"/>
<path d="M579.93 195C551.444 206.698 517.26 221.473 496.948 275.65C480.56 319.361 470.939 340.293 444.93 376" stroke="black" stroke-width="5" stroke-linecap="round"/>
<path d="M422.93 384.744C437.304 377.53 470.611 369.955 488.846 397.369C492.045 402.179 492.542 407.59 491.31 413" stroke="black" stroke-width="5" stroke-linecap="round"/>
<path d="M491.93 413C507.686 401.219 545.09 377.9 553.93 335" stroke="black" stroke-width="5" stroke-linecap="round"/>
<path d="M553.881 325C554.497 351.891 549.569 411.338 524.93 434" stroke="black" stroke-width="5" stroke-linecap="round"/>
<path d="M664.93 202C716.649 211.83 730.564 237.02 756.67 300.915C782.775 364.811 805.31 387.338 813.93 390" stroke="black" stroke-width="5" stroke-linecap="round"/>
<path d="M811.93 389.408C801.312 385.33 778.116 379.499 758.024 396.136C737.932 412.773 749.652 426.311 758.024 431" stroke="black" stroke-width="5" stroke-linecap="round"/>
<path d="M757.93 432C744.474 428.921 712.056 399.976 694.93 331" stroke="black" stroke-width="5" stroke-linecap="round"/>
<path d="M698.513 312C691.153 325.494 683.792 368.921 713.235 434.674C714.87 437.945 721.699 443.874 735.93 441.421" stroke="black" stroke-width="5" stroke-linecap="round"/>
<path d="M625.508 404C630.139 419.775 631.307 453.659 598.93 463" stroke="black" stroke-width="5" stroke-linecap="round"/>
<path d="M622.93 445.172C624.161 451.727 632.53 464.202 656.161 461.665C679.791 459.127 713.186 447.498 726.93 442" stroke="black" stroke-width="5" stroke-linecap="round"/>
<path d="M544.503 550C528.163 552.03 489.911 559.516 481.532 574.74C479.018 579.308 476.102 590.422 484.548 598.338C492.995 606.255 508.43 604.174 515.091 602.144L553.93 586.539" stroke="black" stroke-width="5" stroke-linecap="round"/>
<path d="M767.97 434C737.407 434.984 602.42 500.371 538.747 532.942C533.325 568.832 556.206 594.602 568.324 603C631.792 584.564 762.054 547.2 775.364 545.233C788.674 543.267 801.86 533.762 806.789 529.255C841.296 488.941 815.827 454.69 798.779 442.604C775.61 444.079 768.586 437.483 767.97 434Z" fill="black"/>
<path d="M481.908 425.019C503.541 424.036 597.77 463.232 642.43 482.5L540.294 533.863C494.585 547.353 466.505 542.909 457.93 540.001C408.43 516.001 427.824 456.791 447.491 434.858C471.583 436.334 480.474 428.914 481.908 425.019Z" fill="black"/>
<path d="M599.93 463L524.93 434" stroke="black" stroke-width="5" stroke-linecap="round"/>
<path d="M613.43 427C617.02 427 619.93 423.866 619.93 420C619.93 416.134 617.02 413 613.43 413C609.84 413 606.93 416.134 606.93 420C606.93 423.866 609.84 427 613.43 427Z" fill="black"/>
<path d="M620.93 234C623.139 234 624.93 231.985 624.93 229.5C624.93 227.014 623.139 225 620.93 225C618.721 225 616.93 227.014 616.93 229.5C616.93 231.985 618.721 234 620.93 234Z" fill="black"/>
<path d="M620.93 259C623.139 259 624.93 257.209 624.93 255C624.93 252.79 623.139 251 620.93 251C618.721 251 616.93 252.79 616.93 255C616.93 257.209 618.721 259 620.93 259Z" fill="black"/>
<path d="M620.93 285C623.139 285 624.93 283.209 624.93 281C624.93 278.791 623.139 277 620.93 277C618.721 277 616.93 278.791 616.93 281C616.93 283.209 618.721 285 620.93 285Z" fill="black"/>
<path d="M620.93 311C623.139 311 624.93 309.209 624.93 307C624.93 304.791 623.139 303 620.93 303C618.721 303 616.93 304.791 616.93 307C616.93 309.209 618.721 311 620.93 311Z" fill="black"/>
<path d="M620.93 337C623.139 337 624.93 334.985 624.93 332.5C624.93 330.015 623.139 328 620.93 328C618.721 328 616.93 330.015 616.93 332.5C616.93 334.985 618.721 337 620.93 337Z" fill="black"/>
<path d="M722.43 557C735.93 563.5 743.229 572.016 746.93 579C754.861 597.187 740.62 608.119 724.361 602.979C715.376 600.139 713.258 598.235 708.499 594.281C706.084 592.274 694.806 581.774 681.93 569.373" stroke="black" stroke-width="5" stroke-linecap="round"/>
<path d="M461.42 417.491C457.112 412.492 444.558 417.741 453.42 431.239C458.343 436.238 464.496 436.238 474.958 429.364C483.431 423.796 488.468 415.244 490.93 411.495" stroke="black" stroke-width="5" stroke-linecap="round"/>
<path d="M446.035 414.992C443.574 408.118 429.297 410.868 433.728 421.865C438.158 432.863 445.83 435.196 449.112 434.988" stroke="black" stroke-width="5" stroke-linecap="round"/>
<path d="M441.112 433.738C437.666 434.238 433.933 434.988 430.651 432.488C414.897 420.491 420.189 410.618 426.959 409.993C427.574 409.993 429.174 410.243 430.651 411.242" stroke="black" stroke-width="5" stroke-linecap="round"/>
<path d="M422.905 384.722C418.598 387.847 409.293 387.615 404.805 386.247C398.651 384.372 394.959 389.996 394.959 393.746C394.958 394.996 393.7 400.247 407.855 404.621C410.294 405.172 412.375 405.359 414.624 405.075C417.481 404.715 420.609 403.595 425.085 401.497" stroke="black" stroke-width="5" stroke-linecap="round"/>
<path d="M419.574 414.367C418.479 412.977 415.765 411.969 413.393 412.064C412.211 412.112 411.114 412.433 410.343 413.117C405.42 417.491 412.395 425.198 416.497 428.114C418.138 428.947 420.805 431.614 425.728 430.614" stroke="black" stroke-width="5" stroke-linecap="round"/>
<path d="M812.366 389C815.028 390.659 823.299 394.1 835.092 394.598C846.885 395.096 847.376 400.818 846.762 403.927C846.762 405.793 840.62 416.989 827.721 413.879" stroke="black" stroke-width="5" stroke-linecap="round"/>
<path d="M825.264 429.428C827.721 425.696 828.498 416.108 835.706 419.477C843.691 423.208 834.682 432.33 829.564 436.892C826.772 439.379 821.456 439.877 813.594 439.379" stroke="black" stroke-width="5" stroke-linecap="round"/>
<path d="M801.31 440.623C807.452 440.831 820.842 438.882 825.264 429.428C830.792 417.611 813.876 419.477 810.805 425.696" stroke="black" stroke-width="5" stroke-linecap="round"/>
<path d="M785.955 441.867C791.892 442.489 804.873 441.245 809.295 431.294C814.823 418.855 803.767 417.611 800.082 420.72C797.207 423.146 797.011 427.147 796.397 428.184" stroke="black" stroke-width="5" stroke-linecap="round"/>
<path d="M758.93 431.916C767.324 437.721 784.604 444.853 791.483 436.892C800.082 426.94 793.326 421.342 788.412 422.586C785.955 423.208 783.498 425.074 781.656 428.184" stroke="black" stroke-width="5" stroke-linecap="round"/>
<path d="M585.93 195C598.732 203.301 629.664 214.922 655.93 195" stroke="black" stroke-width="5" stroke-linecap="round"/>
<path d="M579.93 102.613C582.195 128.159 593.785 173.213 621.93 174.959C651.577 176.798 663.93 117.328 663.93 102" stroke="black" stroke-width="5" stroke-linecap="round"/>
<path d="M585.93 102L576.93 99.9995" stroke="black" stroke-width="5" stroke-linecap="round"/>
<path d="M667.358 99.9995C676.204 102.274 683.16 112.152 661.93 131" stroke="black" stroke-width="5" stroke-linecap="round"/>
<path d="M575.891 99.9995C568.059 101.034 559.814 113.02 583.93 131" stroke="black" stroke-width="5" stroke-linecap="round"/>
<path d="M601.93 109C605.243 109 607.93 107.656 607.93 106C607.93 104.343 605.243 103 601.93 103C598.616 103 595.93 104.343 595.93 106C595.93 107.656 598.616 109 601.93 109Z" fill="black"/>
<path d="M642.43 109C646.02 109 648.93 107.656 648.93 106C648.93 104.343 646.02 103 642.43 103C638.84 103 635.93 104.343 635.93 106C635.93 107.656 638.84 109 642.43 109Z" fill="black"/>
<path d="M601.43 120.5C610.266 120.5 617.43 113.336 617.43 104.5C617.43 95.663 610.266 88.4995 601.43 88.4995C592.593 88.4995 585.43 95.663 585.43 104.5C585.43 113.336 592.593 120.5 601.43 120.5Z" stroke="black" stroke-width="5"/>
<path d="M641.43 120.5C650.266 120.5 657.43 113.336 657.43 104.5C657.43 95.663 650.266 88.4995 641.43 88.4995C632.593 88.4995 625.43 95.663 625.43 104.5C625.43 113.336 632.593 120.5 641.43 120.5Z" stroke="black" stroke-width="5"/>
<path d="M617.93 103H624.93" stroke="black" stroke-width="5" stroke-linecap="round"/>
<path d="M614.7 113C613.05 122 612.597 137.941 628.93 129.713" stroke="black" stroke-width="5" stroke-linecap="round"/>
<path d="M610.93 145C614.263 147.264 622.93 150.434 630.93 145" stroke="black" stroke-width="5" stroke-linecap="round"/>
<path d="M656.93 99.9995H664.93" stroke="black" stroke-width="5" stroke-linecap="round"/>
<path d="M574.906 50.1153C543.424 64.9395 558.099 90.8819 569.372 102C571.34 100.518 577.571 100.147 580.44 100.147C575.029 60.6158 595.402 50.115 604.421 47.6443C629.631 43.3205 658.531 50.1153 663.45 69.8809C669.326 93.4928 669.511 101.383 674.079 102C691.436 88.1641 688.876 61.6452 685.427 50.1153C689.928 37.2364 679.876 25.6142 674.079 18.6139C668.281 11.6135 652.382 -1.15211 624.097 0.0835751C568.142 5.64266 571.832 40.2325 574.906 50.1153Z" fill="black"/>
<path d="M590.93 80C593.43 79.2454 600.93 78.1889 610.93 80" stroke="black" stroke-width="5" stroke-linecap="round"/>
<path d="M632.93 81C635.305 80.2454 642.43 79.1889 651.93 81" stroke="black" stroke-width="5" stroke-linecap="round"/>
<path d="M2.92969 856L83.6304 776H1140.13L1239.92 856" stroke="black" stroke-width="5" stroke-linecap="round"/>
<path d="M446.93 773.999C448.371 753.803 462.371 712.421 506.842 708.465C562.43 703.519 592.077 696.718 618.636 725.157C623.577 730.722 633.953 748.28 635.93 773.999" stroke="black" stroke-width="5" stroke-linecap="round"/>
<path d="M186.93 782L109.93 786" stroke="black" stroke-width="5" stroke-linecap="round"/>
<path d="M186.93 782L285.93 790" stroke="black" stroke-width="5" stroke-linecap="round"/>
<path d="M287.93 790L267.93 884" stroke="black" stroke-width="5" stroke-linecap="round"/>
<path d="M267.93 884L183.93 899" stroke="black" stroke-width="5" stroke-linecap="round"/>
<path d="M183.93 898V799" stroke="black" stroke-width="5" stroke-linecap="round"/>
<path d="M183.93 800L285.93 792" stroke="black" stroke-width="5" stroke-linecap="round"/>
<path d="M183.93 800L109.93 786" stroke="black" stroke-width="5" stroke-linecap="round"/>
<path d="M108.93 786L113.93 859" stroke="black" stroke-width="5" stroke-linecap="round"/>
<path d="M113.93 859L183.93 899" stroke="black" stroke-width="5" stroke-linecap="round"/>
<path d="M184.93 782V798" stroke="black" stroke-width="5" stroke-linecap="round"/>
<path d="M243.586 821.212L229.722 822.07C225.444 822.334 222.19 826.017 222.455 830.295C222.719 834.572 226.402 837.826 230.68 837.561L244.544 836.704C248.822 836.439 252.075 832.757 251.811 828.479C251.546 824.201 247.864 820.948 243.586 821.212Z" stroke="black" stroke-width="3"/>
<path d="M183.713 920L110.93 861L183.891 901.136L269.823 886.286L277.93 887.49L183.713 920Z" fill="black"/>
<path d="M1033.96 941.721C1024.76 925.721 1054.13 923.387 1069.96 924.221V935.721L1121.46 941.721C1096.13 948.387 1043.16 957.721 1033.96 941.721Z" fill="black"/>
<path d="M1146.96 920.222L1127.46 940.222M1122.96 879.222L1072.46 875.722L1122.96 879.222ZM1092.96 862.722L1146.96 865.222L1092.96 862.722Z" stroke="black" stroke-width="5" stroke-linecap="round"/>
<path d="M1071.46 875.722L1068.96 933.722M1127.46 897.722V940.222V897.722ZM1146.96 866.222V919.222V866.222Z" stroke="black" stroke-width="5" stroke-linecap="round"/>
<path d="M1071.46 875.722L1092.96 862.722M1127.46 940.222L1068.46 934.222L1127.46 940.222Z" stroke="black" stroke-width="5" stroke-linecap="round"/>
<path d="M893.22 850.222C893.72 836.222 949.72 840.722 953.22 841.222V850.222L970.22 862.222C944.386 862.889 892.82 861.422 893.22 850.222Z" fill="black"/>
<path d="M1032.21 848.722V797.722M952.719 848.722V792.722V848.722ZM988.719 861.722V805.722V861.722Z" stroke="black" stroke-width="5" stroke-linecap="round"/>
<path d="M952.719 792.722L992.219 782.722M988.719 862.222L1032.21 849.222L988.719 862.222ZM1032.21 797.222L988.719 805.222L1032.21 797.222Z" stroke="black" stroke-width="5" stroke-linecap="round"/>
<path d="M1032.21 797.222L992.219 782.722M952.719 793.222L989.219 805.222L952.719 793.222Z" stroke="black" stroke-width="5" stroke-linecap="round"/>
<path d="M721.247 797.331C713.675 795.915 698.885 798.448 707.74 816.739C714.493 830.689 724.93 837.968 728 841" stroke="black" stroke-width="5" stroke-linecap="round"/>
<path d="M739.651 859.172C722.916 844.953 722.754 808.791 725.036 789.743C725.189 788.471 726.497 787.71 727.716 788.102C744.036 793.347 763.529 790.556 773.293 787.945C774.502 787.622 775.739 788.444 775.876 789.687C780.814 834.184 768.297 854.078 761.272 859.191C761.189 859.252 761.108 859.3 761.015 859.345C757.086 861.254 747.626 863.816 739.92 859.362C739.825 859.307 739.735 859.243 739.651 859.172Z" stroke="black" stroke-width="5" stroke-linecap="round"/>
<ellipse cx="750.5" cy="787" rx="26.5" ry="5" fill="black"/>
<path d="M756.491 770C760.731 766.058 766.668 753.751 756.491 736.052C746.314 718.353 757.448 701.976 764.288 696" stroke="black" stroke-width="5" stroke-linecap="round"/>
<path d="M743.769 752.835C737.887 744.443 728.668 723.998 738.845 709.351" stroke="black" stroke-width="5" stroke-linecap="round"/>
<path d="M788.5 860.001C800.1 853.601 779.333 854.833 768 855L762 861.001C774.5 863.501 784 862.001 788.5 860.001Z" fill="black"/>
</svg>
