<svg width="689" height="549" viewBox="0 0 689 549" fill="none" xmlns="http://www.w3.org/2000/svg">
<path d="M224.656 175.172C228.808 128.347 208.542 103.717 197.89 97.2561C232.348 116.676 266.305 104.054 278.977 95.3161L282.86 116.123C306.468 118.505 312.092 86.5021 311.953 70.2031C311.738 45.0559 283.919 14.0052 228.579 26.4566C173.239 38.9081 142.868 84.6855 134.599 106.018C94.9773 95.1241 52.4141 124.77 36.0853 140.955C19.2009 157.755 -16.3464 208.544 8.6148 265.252C42.2915 341.761 131.872 322.762 146.493 315.236C197.015 289.234 219.467 233.703 224.656 175.172Z" fill="black"/>
<path d="M300.373 166.543C299.195 174.491 296.254 181.286 292.579 185.854C288.862 190.477 284.748 192.452 281.115 191.914C277.483 191.376 274.118 188.293 271.901 182.791C269.709 177.353 268.863 169.998 270.041 162.05C271.218 154.102 274.16 147.308 277.835 142.739C281.552 138.116 285.666 136.141 289.299 136.679C292.931 137.218 296.296 140.3 298.513 145.802C300.705 151.24 301.551 158.595 300.373 166.543Z" stroke="black" stroke-width="5"/>
<path d="M285.451 173.38C288.008 173.758 290.634 170.334 291.316 165.731C291.998 161.128 290.478 157.089 287.921 156.71C285.364 156.331 282.738 159.756 282.056 164.359C281.374 168.962 282.894 173.001 285.451 173.38Z" fill="black"/>
<path d="M224.795 171.251L268.074 167.326" stroke="black" stroke-width="5" stroke-linecap="round"/>
<path d="M287.623 116.941C291.361 124.466 302.39 140.912 313.906 150.116C325.684 159.53 326.679 171.53 319.159 180.176L307.437 193.778C313.906 243.243 304.375 279.872 243.749 296.923" stroke="black" stroke-width="5" stroke-linecap="round"/>
<path d="M243.03 216.368C244.462 216.58 245.796 215.591 246.008 214.158C246.22 212.726 245.231 211.392 243.798 211.18C242.366 210.968 241.032 211.957 240.82 213.39C240.608 214.822 241.597 216.156 243.03 216.368Z" fill="black"/>
<path d="M233.634 240.423C235.353 240.678 236.919 239.723 237.131 238.29C237.343 236.857 236.121 235.49 234.402 235.235C232.683 234.98 231.117 235.935 230.905 237.368C230.693 238.8 231.915 240.168 233.634 240.423Z" fill="black"/>
<path d="M256.499 236.39C258.218 236.645 259.783 235.69 259.996 234.257C260.208 232.825 258.986 231.457 257.267 231.202C255.548 230.947 253.982 231.902 253.77 233.335C253.558 234.767 254.779 236.135 256.499 236.39Z" fill="black"/>
<path d="M304 345.001L323.409 324.384C326.921 320.484 336.053 316.248 344.481 330.513C352.911 344.777 349.842 359.859 347.254 365.618" stroke="black" stroke-width="5" stroke-linecap="round"/>
<path d="M406.498 310.618C408.423 308.019 409.446 305.733 409.808 304.149C411.655 300.915 412.759 293.452 402.049 290.675C385.423 286.362 388.195 296.604 391.52 297.142C402.603 298.436 407.232 307.743 406.498 310.618Z" stroke="black" stroke-width="5" stroke-linecap="round"/>
<path d="M350 354.618C351.663 348.903 360.088 335.647 380.487 328.332C394.226 323.406 402.03 316.302 406 310.618" stroke="black" stroke-width="5" stroke-linecap="round"/>
<path d="M380 312.396C374.96 309.712 362.304 306.598 352 315.618" stroke="black" stroke-width="5" stroke-linecap="round"/>
<path d="M396 312.618C391.072 303.886 378.372 288.927 367 298.95" stroke="black" stroke-width="5" stroke-linecap="round"/>
<path d="M339 315.618C343.543 302.273 353.197 284.864 385 282.618" stroke="black" stroke-width="5" stroke-linecap="round"/>
<path d="M423.361 366.385C425.663 363.172 426.819 360.247 425.77 358.227C422.719 352.355 415.216 358.382 411.846 362.13C403.459 371.147 387.317 386.82 391.668 368.582C396.018 350.343 386.765 351.466 365.098 373.729L343.56 386.826" stroke="black" stroke-width="5" stroke-linecap="round"/>
<path d="M421.6 394.981C423.455 400.685 420.479 413.887 393.205 417.086C382.886 418.296 381.335 418.126 371.65 417.309H355.06" stroke="black" stroke-width="5" stroke-linecap="round"/>
<path d="M405.06 383.569C410.419 379.62 418.966 372.451 423.353 366.327C428.117 366.272 432.73 368.957 425.378 378.341C422.195 382.404 416.769 387.722 408.141 394.618" stroke="black" stroke-width="5" stroke-linecap="round"/>
<path d="M408.149 394.676C416.777 387.78 422.203 382.462 425.386 378.399C429.931 379.68 434.02 384.635 421.6 394.981C418.884 397.243 415.378 399.764 410.915 402.56" stroke="black" stroke-width="5" stroke-linecap="round"/>
<path d="M146.702 325.241C73.2393 378.828 82.0297 445.654 82.0297 528.241" stroke="black" stroke-width="5" stroke-linecap="round"/>
<path d="M148.702 326.15L183.969 357.011C185.114 358.014 186.915 357.42 187.24 355.933L196.434 313.886C196.775 312.327 198.715 311.775 199.825 312.923L223.702 337.604" stroke="black" stroke-width="5" stroke-linecap="round"/>
<path d="M223.702 301.241C225.658 304.906 228.462 310.863 231.09 317.786C234.696 327.289 237.97 338.613 238.263 348.332" stroke="black" stroke-width="5" stroke-linecap="round"/>
<path d="M231.09 317.786L297 353.118" stroke="black" stroke-width="5" stroke-linecap="round"/>
<path d="M179.702 386.75C191.746 403.066 259.577 448.247 308.389 398.674L321.702 384.241" stroke="black" stroke-width="5" stroke-linecap="round"/>
<path d="M212.702 546.241C228.373 542.189 302.702 501.486 324.35 463.665" stroke="black" stroke-width="5" stroke-linecap="round"/>
<path d="M318.547 414.498C323.915 433.771 325.426 450.04 324.35 463.665C336.293 455.47 347.702 449.167 347.702 423.323C347.702 405.042 334.392 389.284 322.349 384.241" stroke="black" stroke-width="5" stroke-linecap="round"/>
<path d="M218.702 371.241C221.463 371.241 223.702 368.555 223.702 365.241C223.702 361.927 221.463 359.241 218.702 359.241C215.941 359.241 213.702 361.927 213.702 365.241C213.702 368.555 215.941 371.241 218.702 371.241Z" fill="black"/>
<path d="M225.702 400.241C228.463 400.241 230.702 397.555 230.702 394.241C230.702 390.927 228.463 388.241 225.702 388.241C222.941 388.241 220.702 390.927 220.702 394.241C220.702 397.555 222.941 400.241 225.702 400.241Z" fill="black"/>
<path d="M278.82 234.241C278.176 238.141 279.85 246.201 291.702 247.241" stroke="black" stroke-width="5" stroke-linecap="round"/>
<path d="M381.659 265.893C375.259 273.093 389.163 282.896 393.095 288.614C398.695 287.014 413.663 289.896 410.663 299.396C416.163 293.229 435.66 277.896 439.16 273.396C446.549 263.896 436.526 256.397 429.658 248.896C425.079 243.896 418.66 233.897 406.659 243.896C397.659 251.396 388.059 258.693 381.659 265.893Z" stroke="black" stroke-width="5"/>
<path d="M401.509 369.117L392.135 352.937C391.901 352.533 391.977 352.021 392.32 351.704C398.568 345.928 411.888 333.896 420.755 326.836C421.201 326.48 421.848 326.569 422.172 327.038C427.166 334.288 437.207 351.811 442.002 370.869C442.061 371.106 442.034 371.353 441.917 371.568C438.977 376.934 436.5 380.118 430.5 383.618" stroke="black" stroke-width="5" stroke-linecap="round"/>
<path d="M526.801 341.659C527.307 331.573 536.258 309.988 541.294 299.112C541.545 298.57 541.271 297.932 540.706 297.74L504.932 285.629C504.518 285.489 504.062 285.628 503.822 285.993C498.851 293.542 491.649 316.903 488.361 328.744C488.22 329.251 488.5 329.773 488.996 329.946L525.397 342.639C526.065 342.872 526.766 342.365 526.801 341.659Z" stroke="black" stroke-width="5" stroke-linecap="round"/>
<path d="M526.256 139.094C523.461 130.211 519.23 108.899 523.855 92.6483C524.065 91.9101 523.431 91.1852 522.674 91.3125C515.431 92.5317 499.321 94.0277 480.53 92.1727C480.028 92.1232 479.564 92.4479 479.458 92.9405C477.697 101.14 475.52 120.262 479.499 138.419C479.588 138.825 479.915 139.131 480.328 139.186C491.074 140.617 512.903 142.479 519.482 139.094" stroke="black" stroke-width="5" stroke-linecap="round"/>
<path d="M550.141 60.9391L575.256 38.8779" stroke="black" stroke-width="5" stroke-linecap="round"/>
<path d="M539.877 55.1046L563.905 19.5635" stroke="black" stroke-width="5" stroke-linecap="round"/>
<path d="M526.424 47.382C531.529 40.4454 542.251 21.7813 544.305 2.61768" stroke="black" stroke-width="5" stroke-linecap="round"/>
<path d="M430 162.725C440.346 180.533 478.036 206.604 546.893 171.317C548.405 170.542 550.209 171.832 549.897 173.502C542.838 211.324 542.768 272.894 630.623 296.107C668.817 306.198 703.937 286.454 675.841 262.762C637.607 230.52 569.602 337.35 609.112 402.725" stroke="black" stroke-width="5" stroke-linecap="round"/>
</svg>
