<svg width="1553" height="1312" viewBox="0 0 1553 1312" fill="none" xmlns="http://www.w3.org/2000/svg">
<path d="M337.725 825.51C297.215 751.658 328.891 721.982 347.951 707.779C345.699 763.706 383.679 793.749 403.825 801.43L401.882 817.948C398.319 813.414 355.63 815.64 337.725 825.51Z" fill="black"/>
<path d="M582.55 802.656C556.275 827.622 533.746 827.268 523.485 828.424C488.646 820.266 472.913 822.014 458.928 826.093L463.93 788.499C482.903 774.793 496.452 750.431 500.854 739.964C505.799 744.146 512.232 742.554 514.83 741.236C518.17 739.062 524.577 730.879 523.485 715.541C522.393 700.204 511.257 704.322 505.825 708.298L478.688 711.222C479.83 685.864 464.199 677.402 456.241 676.341C462.495 662.294 451.309 656.148 445.422 653.734C436.978 664.083 425.912 668.252 421.232 670.191C373.607 682.65 344.537 665.593 331.12 644.304C316.554 622.813 318.912 572.347 360.117 560.062C373.591 554.877 405.532 550.626 425.513 575.099C484.331 553.484 512.169 615.347 519.806 637.811L528.632 658.293C605.283 674.598 612.029 747.096 598.565 778.846C592.461 793.242 591.658 794.004 582.954 802.272L582.55 802.656Z" fill="black"/>
<path d="M478.278 711.569C475.242 728.853 460.358 740.197 445.482 737.584C430.606 734.971 420.479 719.233 423.516 701.949C426.552 684.665 441.436 673.321 456.312 675.934C471.188 678.548 481.315 694.285 478.278 711.569Z" stroke="black" stroke-width="5"/>
<path d="M404.15 709.196C401.114 726.48 386.23 737.824 371.354 735.211C356.477 732.598 346.351 716.86 349.387 699.576C352.423 682.292 367.307 670.948 382.184 673.561C397.06 676.175 407.186 691.912 404.15 709.196Z" stroke="black" stroke-width="5"/>
<path d="M405.041 702.707L423.433 703.845" stroke="black" stroke-width="5" stroke-linecap="round"/>
<path d="M398.327 773.067C402.017 777.146 412.311 782.857 423.966 773.067" stroke="black" stroke-width="5" stroke-linecap="round"/>
<path d="M415.331 720.627C409.94 734.47 398.918 746.023 411.104 754.79" stroke="black" stroke-width="5" stroke-linecap="round"/>
<path d="M365.286 732.714C370.04 733.549 374.572 730.372 375.407 725.617C376.242 720.863 373.065 716.331 368.31 715.496C363.556 714.661 359.025 717.838 358.189 722.593C357.354 727.347 360.531 731.878 365.286 732.714Z" fill="black"/>
<path d="M438.267 734.886C443.021 735.721 447.553 732.544 448.388 727.789C449.223 723.035 446.046 718.503 441.291 717.668C436.537 716.833 432.006 720.01 431.17 724.765C430.335 729.519 433.512 734.05 438.267 734.886Z" fill="black"/>
<path d="M512.679 718.795C513.615 721.326 514.522 727.165 510.662 730.273" stroke="black" stroke-width="5" stroke-linecap="round"/>
<path d="M356.459 668.451C345.483 689.399 335.61 740.581 379.445 784.725C423.28 828.87 470.271 787.468 488.287 761.248L501.029 739.23C506.321 743.907 517.927 748.115 522.016 727.534C526.105 706.954 518.037 704.156 513.492 705.33C511.029 705.883 505.63 708.327 503.744 713.675" stroke="black" stroke-width="5" stroke-linecap="round"/>
<path d="M478.647 710.451L508.754 707.457" stroke="black" stroke-width="5" stroke-linecap="round"/>
<path d="M446.377 705.554C451.13 706.231 460.595 710.038 460.431 719.847" stroke="black" stroke-width="5" stroke-linecap="round"/>
<path d="M361.005 699.824C364.632 698.23 373.5 696.33 379.958 701.48" stroke="black" stroke-width="5" stroke-linecap="round"/>
<path d="M301.477 981.628C298.567 993.697 295.132 1028.35 304.845 1043.92" stroke="black" stroke-width="5" stroke-linecap="round"/>
<path d="M400.676 817.261C365.711 810.775 297.519 828.613 291 887.016" stroke="black" stroke-width="5" stroke-linecap="round"/>
<path d="M489.489 941.33C487.743 931.791 484.833 912.596 498.803 893.44" stroke="black" stroke-width="5" stroke-linecap="round"/>
<path d="M459.923 826.016C534.386 813.694 552.516 846.445 566.114 902.868C581.118 965.127 563.2 1052.68 489.489 1077C453.518 1077.05 410.389 1061.44 369.272 1015.07C362.084 1006.96 353.214 994.247 365.387 984.908C380.603 973.234 462.075 983.611 489.489 1006.96" stroke="black" stroke-width="5" stroke-linecap="round"/>
<path d="M288.697 887.694C279.124 893.94 286.503 922.928 290.492 934.539L293.963 933.224L292.992 928.678L293.316 924.131C295.11 919.327 305.469 915.723 311.452 924.131C317.301 932.351 324.73 939.394 328.783 941.145C344.578 950.274 341.746 935.34 338.355 926.732C336.361 922.728 330.697 909.075 328.783 896.102C326.868 883.13 318.612 881.689 313.825 881.088C309.438 880.688 298.27 881.448 288.697 887.694Z" fill="black"/>
<path d="M253.917 904L273.167 902.263" stroke="black" stroke-width="5" stroke-linecap="round"/>
<path d="M273.75 891.842L244 886.632" stroke="black" stroke-width="5" stroke-linecap="round"/>
<path d="M279 883.158L260.917 871" stroke="black" stroke-width="5" stroke-linecap="round"/>
<path d="M306.271 876.14C303.043 875.176 296.47 875.678 296 885.397" stroke="black" stroke-width="5" stroke-linecap="round"/>
<path d="M317.312 869.777C314.208 868.984 308.471 869.495 306.271 876.14C305.796 877.574 305.486 879.294 305.403 881.347" stroke="black" stroke-width="5" stroke-linecap="round"/>
<path d="M335.374 923C334.982 919.336 336.697 912.857 340.075 909.116C344.776 903.909 346.147 894.074 346.539 888.289C346.931 885.975 348.334 879.688 343.013 879.033C338.312 878.455 337.724 882.504 337.136 885.397C336.941 889.06 331.26 892.211 331.26 883.083C331.26 876.14 331.848 874.405 331.848 867.463C331.848 859.942 333.023 853 324.208 853C317.156 853.579 318.331 858.207 317.312 869.777C317.223 872.211 317.346 874.905 317.744 877.876" stroke="black" stroke-width="5" stroke-linecap="round"/>
<path d="M286.77 914C275.821 931.255 259.473 983.796 293 1028.01" stroke="black" stroke-width="5" stroke-linecap="round"/>
<path d="M297.429 965.041C294.706 968.931 292.168 977.76 303.798 981.96C315.429 986.161 346.164 1001.62 356.825 1009.01" stroke="black" stroke-width="5" stroke-linecap="round"/>
<path d="M296.82 951.039C293.913 953.956 290.873 959.44 297.429 965.041C299.771 967.042 303.308 969.033 308.451 970.875" stroke="black" stroke-width="5" stroke-linecap="round"/>
<path d="M310.777 945.205C307.675 939.954 293.257 929.453 288.679 938.787C286.962 942.288 288.098 946.955 296.82 951.039L307.288 958.623" stroke="black" stroke-width="5" stroke-linecap="round"/>
<path d="M373 972.042C370.674 959.79 359.044 952.206 353.81 930.036C352.011 922.42 349.739 915.451 342.76 916.034C337.178 916.501 335.201 923.618 336.364 928.286C339.272 935.287 342.179 946.489 332.875 944.622C323.57 942.755 314.653 931.786 311.358 926.536C308.644 921.868 300.309 916.618 293.912 925.952C292.75 927.649 292.168 932.774 299.146 936.041" stroke="black" stroke-width="5" stroke-linecap="round"/>
<path d="M499 924C490.415 937.237 482.024 958.69 475 997" stroke="black" stroke-width="5" stroke-linecap="round"/>
<path d="M518 1078.12C460.184 1096.14 387.392 1083.46 340.088 1064.27C298.04 1044.51 247.816 999.745 180.071 1028.23C150.871 1042.96 122.008 1063.36 90.2387 1134.06C81.3743 1155.26 75.6448 1179 118.778 1182.23C136.939 1175.12 150.5 1183.73 234 1089.73" stroke="black" stroke-width="5" stroke-linecap="round"/>
<path d="M390.896 1222.75C337.557 1227.48 217.798 1221.36 165.471 1159.04" stroke="black" stroke-width="5" stroke-linecap="round"/>
<path d="M518 1078.12C516.248 1122.88 501.272 1215.93 397.904 1222.4C395.554 1222.55 393.217 1222.67 390.896 1222.75C310.726 1225.77 241.69 1184.82 204.719 1122.42" stroke="black" stroke-width="5" stroke-linecap="round"/>
<path d="M243 1020.56C198.883 1008.16 103.357 1014.95 60.0934 1120.26C53.6969 1138.17 46.4771 1160.5 85.068 1166.01" stroke="black" stroke-width="5" stroke-linecap="round"/>
<path d="M32.3892 1176.54C39.5013 1154.22 71.3832 1164.43 89.2875 1172.33C97.0464 1179.83 112.995 1182.14 120 1182.36C120 1194.35 116.91 1199.92 112.434 1203C110.683 1204.93 99.006 1207.16 66.3113 1200.69C33.6166 1194.22 30.638 1183.47 32.3892 1176.54Z" fill="black"/>
<path d="M5.05469 1143.13C11.594 1130.03 40.4759 1140.98 54.6834 1147.81C57.786 1159.83 76.2279 1165.08 85.061 1166.21L87 1171.72C52.0979 1156.47 36.2626 1165.89 33.6772 1174.01C24.1407 1170.69 -1.48465 1156.24 5.05469 1143.13Z" fill="black"/>
<path d="M404 1122C386.656 1104.56 347.575 1067.55 330 1059" stroke="black" stroke-width="5" stroke-linecap="round"/>
<path d="M518 1078C518 1073.74 518 1066.82 518 1063" stroke="black" stroke-width="5" stroke-linecap="round"/>
<path d="M406.112 817.322C415.098 822.82 435.144 830.519 443.439 817.322C453.808 800.826 463.139 820.391 458.992 833.05C454.844 845.71 419.643 866.782 396 820.563" stroke="black" stroke-width="5" stroke-linecap="round"/>
<path d="M423.194 848C416.096 851.521 402.559 862.717 405.203 879.328" stroke="black" stroke-width="5" stroke-linecap="round"/>
<path d="M430.712 870.221C419.983 884.38 407.767 887.292 403 886.978" stroke="black" stroke-width="5" stroke-linecap="round"/>
<path d="M427.967 850.914C427.171 855.323 427.346 862.806 430.712 870.221C433.557 876.488 438.681 882.706 447.427 886.978" stroke="black" stroke-width="5" stroke-linecap="round"/>
<path d="M440.818 849.093C447.059 854.314 457.34 868.327 452.934 886.978" stroke="black" stroke-width="5" stroke-linecap="round"/>
<path d="M1425.98 254C1426.24 243.505 1423.48 218.823 1410.44 204.057C1394.14 185.6 1393 174.381 1393 140" stroke="black" stroke-width="5" stroke-linecap="round"/>
<path d="M1432 151C1426.25 149.937 1416.47 142.848 1423.37 123" stroke="black" stroke-width="5" stroke-linecap="round"/>
<path d="M1518.87 120.326C1518.64 123.934 1516.35 131.296 1509 131.874" stroke="black" stroke-width="5" stroke-linecap="round"/>
<path d="M1509 151C1522.61 142.941 1544.46 123.141 1522.95 108.417C1520 106.252 1513.08 104.952 1509 117.078" stroke="black" stroke-width="5" stroke-linecap="round"/>
<path d="M1476 98C1473.26 97.2454 1466.24 96.1889 1460 98" stroke="black" stroke-width="5" stroke-linecap="round"/>
<path d="M1412 102C1408.75 101.245 1400.41 100.189 1393 102" stroke="black" stroke-width="5" stroke-linecap="round"/>
<path d="M1497.19 17.5431C1578.26 25.9643 1553.49 87.3566 1530.97 117C1526.37 106.837 1517.31 106.474 1513.36 107.563C1509.62 50.3566 1473.95 58.076 1456.58 69.0865C1420.36 67.6346 1411.31 82.0328 1411.31 89.4134C1395.6 79.5201 1382.31 91.1355 1381.23 93.6763C1340.98 -24.8008 1442.09 -6.05072 1497.19 17.5431Z" fill="black"/>
<path d="M1465.5 137.5C1451.69 137.5 1440.5 126.307 1440.5 112.5C1440.5 98.6929 1451.69 87.5 1465.5 87.5C1479.31 87.5 1490.5 98.6929 1490.5 112.5C1490.5 126.307 1479.31 137.5 1465.5 137.5Z" stroke="black" stroke-width="5"/>
<path d="M1466.5 125C1462.91 125 1460 121.418 1460 117C1460 112.582 1462.91 109 1466.5 109C1470.09 109 1473 112.582 1473 117C1473 121.418 1470.09 125 1466.5 125Z" fill="black"/>
<path d="M1374.5 112.5C1374.5 126.265 1385.87 137.5 1400 137.5C1414.13 137.5 1425.5 126.265 1425.5 112.5C1425.5 98.7352 1414.13 87.5 1400 87.5C1385.87 87.5 1374.5 98.7352 1374.5 112.5Z" stroke="black" stroke-width="5"/>
<path d="M1399.5 125C1395.36 125 1392 121.418 1392 117C1392 112.582 1395.36 109 1399.5 109C1403.64 109 1407 112.582 1407 117C1407 121.418 1403.64 125 1399.5 125Z" fill="black"/>
<path d="M1426 112H1439" stroke="black" stroke-width="5" stroke-linecap="round"/>
<path d="M1491 109L1510 113" stroke="black" stroke-width="5" stroke-linecap="round"/>
<path d="M1421 173C1425.12 178.282 1436.88 185.678 1451 173" stroke="black" stroke-width="5" stroke-linecap="round"/>
<path d="M1349.9 172H1175C1133.58 172 1100 205.579 1100 247C1100 288.421 1133.58 322 1175 322H1382C1423.42 322 1457 288.421 1457 247" stroke="black" stroke-width="7" stroke-linecap="round"/>
<path d="M1162 277H1273.21M1162 216H1329.74H1162ZM1162 247.812H1396H1162Z" stroke="black" stroke-width="7" stroke-linecap="round"/>
<path d="M1342.53 611.403C1350.24 639.218 1354.1 641.683 1365.32 654.006C1365.32 641.827 1367.41 621.385 1367.41 612.873C1404.15 612.873 1435.17 597.813 1446.08 590.283C1445.69 615.819 1469.53 632.516 1469.53 632.516C1469.53 632.516 1466.11 642.829 1464.16 665.909C1462.59 684.374 1467.09 680.805 1469.53 676.713C1476.57 653.927 1488.1 660.016 1492.99 665.909C1552.95 568.096 1460.74 549.197 1443.15 550.997C1429.86 539.604 1411.32 530.676 1398.29 529.367C1351.29 524.644 1330.02 566.302 1342.53 611.403Z" fill="black"/>
<path d="M1469 693.678C1462.64 732.062 1419.96 759.663 1389.16 728.569C1358.36 697.475 1364.52 640.559 1367.81 614" stroke="black" stroke-width="5" stroke-linecap="round"/>
<path d="M1493.7 663C1497.52 672.64 1493.94 694 1469 694" stroke="black" stroke-width="5" stroke-linecap="round"/>
<path d="M1482.8 669C1483.42 670.857 1482.93 675.257 1476 678" stroke="black" stroke-width="5" stroke-linecap="round"/>
<path d="M1369 689C1360.96 685.52 1355.29 672.635 1357.47 652" stroke="black" stroke-width="5" stroke-linecap="round"/>
<path d="M1415 711.567C1407.33 713.623 1407.82 707.965 1402 703" stroke="black" stroke-width="5" stroke-linecap="round"/>
<path d="M1391 668C1388.24 668 1386 665.538 1386 662.5C1386 659.462 1388.24 657 1391 657C1393.76 657 1396 659.462 1396 662.5C1396 665.538 1393.76 668 1391 668Z" fill="black"/>
<path d="M1437.5 668C1434.46 668 1432 665.761 1432 663C1432 660.239 1434.46 658 1437.5 658C1440.54 658 1443 660.239 1443 663C1443 665.761 1440.54 668 1437.5 668Z" fill="black"/>
<path d="M1449 652C1447.9 648.62 1443.16 642.368 1433 644.396" stroke="black" stroke-width="5" stroke-linecap="round"/>
<path d="M1400 645C1397.58 643.491 1390.98 641.378 1384 645" stroke="black" stroke-width="5" stroke-linecap="round"/>
<path d="M1417.35 660C1418.29 667.007 1418.92 681.218 1414 682" stroke="black" stroke-width="5" stroke-linecap="round"/>
<path d="M1336.6 698H1175C1133.58 698 1100 731.579 1100 773C1100 814.421 1133.58 848 1175 848H1363C1404.42 848 1438 814.421 1438 773" stroke="black" stroke-width="7" stroke-linecap="round"/>
<path d="M1162 803H1263.7M1162 742H1315.4H1162ZM1162 773.812H1376H1162Z" stroke="black" stroke-width="7" stroke-linecap="round"/>
<path d="M686 1224.94C707.507 1214.6 759.859 1194.59 797.211 1197.23C802.506 1197.45 810.504 1199.74 800.129 1207.13C789.753 1214.52 784.566 1218.34 783.269 1219.33C777.865 1223.95 772.569 1233.71 794.617 1235.82C822.176 1238.46 899.991 1209.77 1054 1230.87" stroke="black" stroke-width="5" stroke-linecap="round"/>
<path d="M3 1284.89C12.9354 1280.12 37.1198 1270.89 54.3744 1272.1C56.8209 1272.21 60.5154 1273.26 55.7225 1276.67C50.9295 1280.08 48.533 1281.85 47.9339 1282.3C45.4376 1284.43 42.9912 1288.94 53.1762 1289.92C65.9075 1291.13 101.855 1277.89 173 1287.63" stroke="black" stroke-width="5" stroke-linecap="round"/>
<path d="M961.738 912.238C944.507 915.71 952.587 939.012 939.957 945.213C924.883 952.615 919.693 910.942 921.654 893.253C922.216 885.498 931.41 882.048 932.65 893.253C933.968 905.156 918.932 951.311 901.7 933.501L890.195 920.425C886.998 916.556 880.696 911.18 875.37 920.425C870.044 929.67 861.558 926.615 857.98 923.931L846.738 915.899" stroke="black" stroke-width="5" stroke-linecap="round"/>
<path d="M853.795 864.794L723.133 842.66C722.146 842.493 721.553 843.719 722.297 844.389L783.151 899.193C783.225 899.26 783.302 899.314 783.394 899.351C788.701 901.52 809.513 893.277 820.31 888.423C820.871 888.171 821.525 888.477 821.693 889.069C824.264 898.128 827.406 906.53 828.956 910.342C829.133 910.777 829.616 911.03 829.966 910.717C833.063 907.941 833.455 890.902 833.229 881.419C833.217 880.905 833.592 880.468 834.097 880.376C842.104 878.925 853.094 871.795 857.738 868.288" stroke="black" stroke-width="5" stroke-linecap="round"/>
<path d="M821.738 889.085C807.753 882.385 772.374 865.606 742.738 852.085" stroke="black" stroke-width="5" stroke-linecap="round"/>
<path d="M829.738 911.085L803.738 897.085" stroke="black" stroke-width="5" stroke-linecap="round"/>
<path d="M823.738 875.085L788.738 864.085" stroke="black" stroke-width="5" stroke-linecap="round"/>
<path d="M464.738 525.048C483.077 523.377 526.289 534.313 555.155 590.554C555.91 592.025 558.04 592.064 558.792 590.591C588.401 532.628 624.741 473.829 739.605 544.624C741.37 545.712 743.687 543.741 742.813 541.861C724.177 501.78 714.106 425.342 800.947 387.422C802.688 386.661 802.612 384.072 800.787 383.539L778.325 376.973C776.266 376.371 776.49 373.546 778.626 373.353C801.766 371.269 834.412 372.627 823.173 386.28C810.05 402.221 806.823 412.299 810.022 428.941" stroke="black" stroke-width="5" stroke-linecap="round"/>
<path d="M1083.4 432H1209.5C1251.2 432 1285 465.803 1285 507.5C1285 549.198 1251.2 583 1209.5 583H1072.5C1030.8 583 997 549.198 997 507.5" stroke="black" stroke-width="7" stroke-linecap="round"/>
<path d="M1223 537H1145.06M1223 477H1105.44H1223ZM1223 508.29H1059H1223Z" stroke="black" stroke-width="7" stroke-linecap="round"/>
<path d="M985.585 329.724C1015.22 334 1025.92 370.151 1027.56 387.692C1036.03 415.525 1035.28 438.636 1029.31 455.938C1028.32 460.323 1030.69 468.024 1048.14 463.749C1065.59 459.473 1058.16 429.626 1052.26 415.237C1048.97 407.672 1048.14 393.722 1048.14 387.692C1054.4 306.455 1004.65 297.657 979 303.413C986.902 308.675 986.683 323.146 985.585 329.724Z" fill="black"/>
<path d="M882.667 349.157C895.429 283.697 972.003 286.56 995.058 306.607C1020.99 339.337 954.712 420.346 936.598 412.573C923.754 402.753 914.115 408.072 911.485 412.573C899.629 432.866 916.426 444.212 926.306 447.349C923.671 461.423 957.594 476.806 952.654 487.444C926.306 520.584 845.616 466.578 864.965 450.213C880.444 437.12 879.607 420.347 879.374 412.573C878.139 371.251 879.374 367.978 882.667 349.157Z" fill="black"/>
<path d="M997 438C1010.58 434.714 1003.41 428.143 1000.4 415" stroke="black" stroke-width="5" stroke-linecap="round"/>
<path d="M1019.25 408.145C1021.29 407.818 1022.56 405.065 1022.07 401.995C1021.58 398.926 1019.52 396.703 1017.47 397.029C1015.43 397.356 1014.16 400.109 1014.66 403.179C1015.15 406.248 1017.2 408.472 1019.25 408.145Z" fill="black"/>
<path d="M977.385 418.643C979.404 418.32 980.649 415.604 980.165 412.575C979.682 409.546 977.653 407.352 975.633 407.675C973.614 407.997 972.37 410.714 972.853 413.743C973.337 416.771 975.366 418.965 977.385 418.643Z" fill="black"/>
<path d="M920 419C919.245 421.6 918.189 427.84 920 432" stroke="black" stroke-width="5" stroke-linecap="round"/>
<path d="M949 482.914C983.104 482.914 1002 505.343 1032 456" stroke="black" stroke-width="5" stroke-linecap="round"/>
<path d="M992 461.086C1000.29 463.434 1006.93 461.086 1009 456" stroke="black" stroke-width="5" stroke-linecap="round"/>
<path d="M990.5 413.5C990.5 423.222 983.697 430.5 976 430.5C968.303 430.5 961.5 423.222 961.5 413.5C961.5 403.778 968.303 396.5 976 396.5C983.697 396.5 990.5 403.778 990.5 413.5Z" stroke="black" stroke-width="5"/>
<path d="M1032.5 403C1032.5 413.061 1025.64 420.5 1018 420.5C1010.36 420.5 1003.5 413.061 1003.5 403C1003.5 392.939 1010.36 385.5 1018 385.5C1025.64 385.5 1032.5 392.939 1032.5 403Z" stroke="black" stroke-width="5"/>
<path d="M1002 405.287C999.51 404.77 993.829 404.589 991 408" stroke="black" stroke-width="5" stroke-linecap="round"/>
<path d="M960.914 407.5L948.212 407.91" stroke="black" stroke-width="5" stroke-linecap="round"/>
<path d="M654.77 1148V1127" stroke="black" stroke-width="5" stroke-linecap="round"/>
<path d="M636 1138.67L647.45 1148" stroke="black" stroke-width="5" stroke-linecap="round"/>
<path d="M662.41 1148L671 1134.33" stroke="black" stroke-width="5" stroke-linecap="round"/>
<path d="M311.77 1309V1288" stroke="black" stroke-width="5" stroke-linecap="round"/>
<path d="M293 1299.67L304.45 1309" stroke="black" stroke-width="5" stroke-linecap="round"/>
<path d="M319.41 1309L328 1295.33" stroke="black" stroke-width="5" stroke-linecap="round"/>
<path d="M21.77 1070V1049" stroke="black" stroke-width="5" stroke-linecap="round"/>
<path d="M3 1060.67L14.45 1070" stroke="black" stroke-width="5" stroke-linecap="round"/>
<path d="M29.4102 1070L38.0001 1056.33" stroke="black" stroke-width="5" stroke-linecap="round"/>
<path d="M1369.77 1218V1197" stroke="black" stroke-width="5" stroke-linecap="round"/>
<path d="M1351 1208.67L1362.45 1218" stroke="black" stroke-width="5" stroke-linecap="round"/>
<path d="M1377.41 1218L1386 1204.33" stroke="black" stroke-width="5" stroke-linecap="round"/>
</svg>
