<svg width="558" height="769" viewBox="0 0 558 769" fill="none" xmlns="http://www.w3.org/2000/svg">
<path d="M378.867 298.844C423.203 314.997 473.517 370.347 342.003 450.652" stroke="black" stroke-width="5" stroke-linecap="round"/>
<path d="M269.272 291.427C239.383 287.471 160.615 305.272 200.526 385.873C205.342 395.598 222.844 414.752 254.327 413.565C294.678 412.044 316.431 452.465 329.549 471.915" stroke="black" stroke-width="5" stroke-linecap="round"/>
<path d="M256.474 322.915C283.995 343.472 337.417 410.349 330.933 513.401C324.45 616.452 323.842 630.61 324.349 624.807" stroke="black" stroke-width="5" stroke-linecap="round"/>
<path d="M295.474 431.915V516.915" stroke="black" stroke-width="5" stroke-linecap="round"/>
<path d="M359.474 441.915V522.915" stroke="black" stroke-width="5" stroke-linecap="round"/>
<path d="M341.474 449.915C343.307 421.763 353.274 345.152 378.474 263.915" stroke="black" stroke-width="5" stroke-linecap="round"/>
<path d="M287.453 351.915C287.798 337.461 284.041 303.469 266.256 283.134C244.025 257.715 242.474 242.264 242.474 194.915" stroke="black" stroke-width="5" stroke-linecap="round"/>
<path d="M296.473 208.915C288.108 207.472 273.888 197.852 283.926 170.915" stroke="black" stroke-width="5" stroke-linecap="round"/>
<path d="M416.207 167.086C415.891 172.007 412.702 182.046 402.474 182.833" stroke="black" stroke-width="5" stroke-linecap="round"/>
<path d="M402.474 208.915C421.415 197.925 451.816 170.925 421.889 150.847C417.785 147.894 408.156 146.123 402.474 162.657" stroke="black" stroke-width="5" stroke-linecap="round"/>
<path d="M357.474 136.915C353.713 135.406 344.048 133.293 335.474 136.915" stroke="black" stroke-width="5" stroke-linecap="round"/>
<path d="M268.474 141.915C264.03 140.406 252.607 138.293 242.474 141.915" stroke="black" stroke-width="5" stroke-linecap="round"/>
<path d="M386.389 25.2052C498.363 36.8653 464.149 121.87 433.045 162.915C426.691 148.842 414.184 148.34 408.724 149.847C403.562 70.6393 354.292 81.3277 330.302 96.5729C280.271 94.5626 267.763 114.499 267.763 124.718C246.077 111.019 227.712 127.102 226.223 130.62C170.633 -33.4249 310.283 -7.46309 386.389 25.2052Z" fill="black"/>
<path d="M342.474 191.415C322.868 191.415 306.974 175.521 306.974 155.915C306.974 136.309 322.868 120.415 342.474 120.415C362.08 120.415 377.974 136.309 377.974 155.915C377.974 175.521 362.08 191.415 342.474 191.415Z" stroke="black" stroke-width="5"/>
<path d="M343.974 172.915C339.279 172.915 335.474 168.214 335.474 162.415C335.474 156.616 339.279 151.915 343.974 151.915C348.668 151.915 352.474 156.616 352.474 162.415C352.474 168.214 348.668 172.915 343.974 172.915Z" fill="black"/>
<path d="M215.974 155.915C215.974 175.49 232.061 191.415 251.974 191.415C271.887 191.415 287.974 175.49 287.974 155.915C287.974 136.339 271.887 120.415 251.974 120.415C232.061 120.415 215.974 136.339 215.974 155.915Z" stroke="black" stroke-width="5"/>
<path d="M250.974 172.915C245.175 172.915 240.474 168.214 240.474 162.415C240.474 156.616 245.175 151.915 250.974 151.915C256.773 151.915 261.474 156.616 261.474 162.415C261.474 168.214 256.773 172.915 250.974 172.915Z" fill="black"/>
<path d="M287.474 155.915H306.474" stroke="black" stroke-width="5" stroke-linecap="round"/>
<path d="M378.474 150.915L404.474 156.915" stroke="black" stroke-width="5" stroke-linecap="round"/>
<path d="M228.939 619.915C237.059 643.915 233.001 701.915 197.474 741.915" stroke="black" stroke-width="5" stroke-linecap="round"/>
<path d="M419.017 631.915C408.608 652.505 401.493 720.086 426.474 765.915" stroke="black" stroke-width="5" stroke-linecap="round"/>
<path d="M418.474 630.825C381.641 635.619 292.074 640.148 228.474 619.915" stroke="black" stroke-width="5" stroke-linecap="round"/>
<path d="M423.474 333.915C533.728 395.293 651.552 555.873 425.942 759.915" stroke="black" stroke-width="5" stroke-linecap="round"/>
<path d="M442.474 639.915C463.146 608.57 463.505 602.718 465.474 562.915" stroke="black" stroke-width="5" stroke-linecap="round"/>
<path d="M144.474 446.915C179.807 556.486 145.988 645.234 197.474 741.915" stroke="black" stroke-width="5" stroke-linecap="round"/>
<path d="M85.015 615.118C116.07 611.077 138.38 546.43 134.207 496.172C131.731 466.348 130.586 431.603 134.074 406.854C120.936 351.16 91.7238 354.536 78.7597 363.186C34.8363 415.504 27.1731 501.252 34.2669 539.414C38.2435 566.332 53.9603 619.158 85.015 615.118Z" stroke="black" stroke-width="5" stroke-linecap="round"/>
<path d="M280.474 240.489C286.307 247.155 302.974 256.489 322.974 240.489" stroke="black" stroke-width="5" stroke-linecap="round"/>
<path d="M139.477 253.995C139.649 256.058 139.005 258.865 136.477 260.442" stroke="black" stroke-width="5" stroke-linecap="round"/>
<path d="M136.477 260.442C134.196 261.865 130.38 262.287 124.243 260.257C123.751 260.094 123.213 260.109 122.754 260.349C116.949 263.386 109.115 272.062 119.477 285.495C132.977 302.995 139.977 275.889 136.477 260.442Z" stroke="black" stroke-width="5" stroke-linecap="round"/>
<path d="M64.2416 253.995C60.1631 243.495 52.3432 216.46 64.2416 212.995C79.974 208.415 76.477 260.995 83.477 253.995C90.477 246.995 76.477 188.495 95.477 195.495C108.682 200.36 105.987 227.968 101.884 246.386C101.433 248.409 104.354 250.227 106.12 249.142C114.62 243.918 127.726 241.008 139.477 253.995C145.144 252.495 156.077 254.095 154.477 272.495C152.877 290.895 140.81 311.828 134.977 319.995C128.644 327.828 116.477 346.495 118.477 358.495" stroke="black" stroke-width="5" stroke-linecap="round"/>
<path d="M79.4768 354.495C81.8101 349.829 84.4768 337.595 76.4768 325.995C66.4768 311.495 30.9768 242.995 49.9768 237.995C57.9736 236.915 59.6004 245.565 64.2412 253.995C66.5146 258.125 67.9736 262.415 71.4736 267.915" stroke="black" stroke-width="5" stroke-linecap="round"/>
<path d="M79.9736 628.915C96.307 636.915 134.374 641.215 155.974 594.415" stroke="black" stroke-width="5" stroke-linecap="round"/>
<path d="M133.974 406.415C137.141 399.248 163.974 342.215 191.974 327.415" stroke="black" stroke-width="5" stroke-linecap="round"/>
</svg>
