<svg width="828" height="1656" viewBox="0 0 828 1656" fill="none" xmlns="http://www.w3.org/2000/svg">
<path d="M790.603 609.569C788.954 613.047 784.159 613.436 781.971 610.269L768.923 591.384C766.735 588.217 768.795 583.869 772.632 583.558L795.512 581.701C799.348 581.389 802.083 585.348 800.434 588.826L790.603 609.569Z" fill="black"/>
<path d="M25.0233 589.204C27.0958 585.96 31.9022 586.177 33.6748 589.593L44.2463 609.969C46.0189 613.385 43.4283 617.44 39.5832 617.266L16.6515 616.234C12.8064 616.061 10.5907 611.79 12.6632 608.547L25.0233 589.204Z" fill="black"/>
<path d="M452.947 928.5C489.246 975.917 545.016 984.854 574.447 973C626.116 946.921 589.299 840.63 574.447 780C562.199 730 525.447 665.5 421.947 653.5" stroke="black" stroke-width="5" stroke-linecap="round"/>
<path d="M229.529 903.5C336.447 884.5 350.603 920.733 343.502 947.439C308.455 968.788 252.918 981.242 229.529 984.8C196.55 992.367 138.162 983.4 168.448 887C206.305 766.5 223.447 678.5 349.947 655" stroke="black" stroke-width="5" stroke-linecap="round"/>
<path d="M453.947 921.5C463.565 917.223 479.424 904.436 488.15 886.471" stroke="black" stroke-width="5" stroke-linecap="round"/>
<path d="M488.15 886.471C505.505 891.828 525.692 898.257 539.15 911.471" stroke="black" stroke-width="5" stroke-linecap="round"/>
<path d="M489.65 780.971C489.65 824.971 493.65 850.471 506.151 891.471" stroke="black" stroke-width="5" stroke-linecap="round"/>
<path d="M283.264 797.471C283.264 842.067 276.095 858.896 256.947 899.38" stroke="black" stroke-width="5" stroke-linecap="round"/>
<path d="M370.648 870.235C369.209 856.658 370.216 826.906 382.875 824.939C395.535 822.973 406.612 822.481 410.568 822.481C415.962 822.247 426.823 825.923 427.111 842.496C427.399 859.069 426.032 875.385 425.313 881.471" stroke="black" stroke-width="5" stroke-linecap="round"/>
<path d="M380.15 814.916L368.086 786.471M366.667 823.093L358.505 807.805M357.441 834.471L347.15 825.227" stroke="black" stroke-width="5" stroke-linecap="round"/>
<path d="M335.15 911.421C336.46 899.522 342.438 874.523 355.871 869.716C369.304 864.909 371.472 870.069 370.876 873.25C368.375 881.968 365.374 898.98 373.377 897.284C381.38 895.587 393.86 878.198 399.1 869.716C401.6 865.004 408.174 858.406 414.462 869.716C416.559 873.488 416.197 877.967 414.462 882.538C410.993 891.673 402.036 901.173 396.242 906.12" stroke="black" stroke-width="5" stroke-linecap="round"/>
<path d="M414.462 882.538C419.507 879.331 427.951 877.621 422.961 895.163C422.768 895.841 421.964 897.284 418.392 901.878L399.1 922.377" stroke="black" stroke-width="5" stroke-linecap="round"/>
<path d="M422.961 895.163C429.824 902.232 428.466 908.099 417.32 918.843C414.802 921.27 412.273 923.502 409.817 925.528C401.402 932.472 393.844 936.994 390.525 938.635" stroke="black" stroke-width="5" stroke-linecap="round"/>
<path d="M409.818 925.529C409.46 932.489 405.53 946.552 392.669 947.118C376.592 947.825 349.441 942.523 342.296 947.471" stroke="black" stroke-width="5" stroke-linecap="round"/>
<path d="M486.15 889.566C485.094 878.813 481.359 855.321 474.878 847.38C468.396 839.44 464.427 840.29 463.253 841.708" stroke="black" stroke-width="5" stroke-linecap="round"/>
<path d="M463.253 857.661C464.192 850.689 463.464 834.76 453.037 826.819C446.752 822.033 444.076 822.329 443.173 824.2C442.578 825.433 442.753 827.35 443.173 828.946C445.522 834.027 449.937 846.175 448.809 854.116" stroke="black" stroke-width="5" stroke-linecap="round"/>
<path d="M443.173 824.2C438.476 820.11 428.096 814.908 424.15 826.819" stroke="black" stroke-width="5" stroke-linecap="round"/>
<path d="M453.037 921.471C446.931 919.699 428.73 908.709 424.503 890.275" stroke="black" stroke-width="5" stroke-linecap="round"/>
<circle cx="16.5" cy="475.5" r="15.5" fill="black"/>
<path d="M41.9745 476.824C68.1959 474.125 109.34 477.317 114.203 497.6C119.066 517.883 100.496 525.301 90.6036 526.475C52.9401 532.461 3 529.644 3 497.6" stroke="black" stroke-width="5" stroke-linecap="round"/>
<circle cx="32.0396" cy="501.585" r="5.5" fill="black"/>
<circle cx="57.0396" cy="501.585" r="5.5" fill="black"/>
<circle cx="83.0396" cy="501.585" r="5.5" fill="black"/>
<circle cx="741.5" cy="662.5" r="14.5" fill="black"/>
<path d="M765.076 652C773.869 652 798.996 652 810.815 652C820.389 652 824.998 654.118 824.998 668.942C824.998 683.345 824.88 702.002 824.998 709.532C825.081 714.826 822.445 720.685 813.652 721.532C804.858 722.379 769.566 721.885 753.02 721.532C746.874 721.532 736 718.048 736 703.884L736 688.001" stroke="black" stroke-width="5" stroke-linecap="round"/>
<path d="M759 677L781 692" stroke="black" stroke-width="5" stroke-linecap="round"/>
<path d="M781 692L821 655" stroke="black" stroke-width="5" stroke-linecap="round"/>
<path d="M751 705L767.127 683M791.139 683L813 705" stroke="black" stroke-width="5" stroke-linecap="round"/>
<path d="M319.01 1542C320.676 1556 317.327 1577.8 301.727 1585C282.227 1594 232.227 1624.5 280.227 1631C318.627 1636.2 349.56 1609.83 360.227 1596C363.893 1580 366.51 1561.5 360.227 1542" stroke="black" stroke-width="5" stroke-linecap="round"/>
<path d="M395.542 1515C222.8 1623 249.629 1231.32 261.447 1041C386.883 1080 488.451 1055 510.951 1019.5C517.342 1042.16 537.135 1204.37 538.8 1250.5C541.47 1324.5 548.568 1497.98 450.299 1533C426.061 1541.64 408.375 1533.88 395.542 1515Z" fill="black"/>
<path d="M411.009 1542.5C410.112 1552.42 410.331 1575.56 413.941 1588.5C423.074 1621.24 450.713 1655.87 517.509 1653C526.509 1650.83 539.109 1641.7 517.509 1622.5C509.622 1615.49 501.053 1609.08 493.009 1602.45C473.517 1586.39 457.116 1569.09 461.009 1539" stroke="black" stroke-width="5" stroke-linecap="round"/>
<path d="M252.447 981.5C255.947 1021 257.447 1018.5 263.447 1041C324.114 1059 458.347 1079.7 509.947 1018.5C512.281 1007.83 516.247 983.6 513.447 972" stroke="black" stroke-width="5" stroke-linecap="round"/>
<path d="M314.947 746L322.977 733.675C330.804 721.662 346.036 716.866 359.332 722.228L378.469 729.944C390.408 734.759 404.088 731.419 412.466 721.645L434.447 696" stroke="black" stroke-width="5" stroke-linecap="round"/>
<path d="M425.447 655.415C429.947 642.415 425.848 633.667 421.848 632C397.848 654 361.447 645.833 347.947 632.5C343.147 636.9 345.947 649.915 347.947 653.915C373.947 682.715 410.947 666.581 425.447 655.415Z" fill="black"/>
<path d="M494.391 451.021C483.391 490.521 477.891 494.021 461.891 511.521C461.891 494.226 458.919 465.196 458.919 453.108C406.53 453.108 362.317 431.722 346.758 421.029C347.316 457.292 313.319 481.003 313.319 481.003C313.319 481.003 318.196 495.648 320.982 528.425C323.212 554.646 316.802 549.579 313.319 543.767C303.287 511.409 286.846 520.056 279.879 528.425C194.391 389.521 325.858 362.681 350.938 365.238C369.887 349.059 396.313 336.38 414.891 334.521C481.891 327.814 512.227 386.973 494.391 451.021Z" fill="black"/>
<path d="M314.49 568.49C323.49 623.435 383.898 662.944 427.49 618.435C471.082 573.926 462.359 492.454 457.702 454.435" stroke="black" stroke-width="5" stroke-linecap="round"/>
<path d="M278.891 525.021C273.391 538.521 278.551 568.435 314.491 568.435" stroke="black" stroke-width="5" stroke-linecap="round"/>
<path d="M294.742 532.435C293.946 535.324 294.583 542.169 303.49 546.435" stroke="black" stroke-width="5" stroke-linecap="round"/>
<path d="M456.49 561.435C468.221 556.545 476.49 538.435 473.309 509.435" stroke="black" stroke-width="5" stroke-linecap="round"/>
<path d="M390.49 594.435C401.99 597.435 401.263 589.18 409.99 581.935" stroke="black" stroke-width="5" stroke-linecap="round"/>
<circle cx="425.04" cy="523.585" r="7.5" fill="black"/>
<circle cx="359.04" cy="524.585" r="7.5" fill="black"/>
<path d="M342.49 508.435C344.069 503.788 350.878 495.192 365.49 497.98" stroke="black" stroke-width="5" stroke-linecap="round"/>
<path d="M412.49 499.435C415.975 496.417 425.454 492.191 435.49 499.435" stroke="black" stroke-width="5" stroke-linecap="round"/>
<path d="M388.297 520.435C387.133 530.309 386.341 550.333 392.49 551.435" stroke="black" stroke-width="5" stroke-linecap="round"/>
<path d="M92.3667 412.5C138.236 344.983 205.302 293.03 284 266.206" stroke="black" stroke-width="5" stroke-linecap="round"/>
<path d="M782.535 574C761.413 418.319 645.886 292.635 495.5 256.494" stroke="black" stroke-width="5" stroke-linecap="round"/>
<path d="M756.899 771.5C731.442 832.526 690.508 885.481 639 925.463" stroke="black" stroke-width="5" stroke-linecap="round"/>
<path d="M27 625.5C27 717.245 59.5554 801.385 113.744 867" stroke="black" stroke-width="5" stroke-linecap="round"/>
<path d="M364.5 267.5C373.167 280.167 396.5 293.5 417 266" stroke="black" stroke-width="5" stroke-linecap="round"/>
<path d="M360.5 255.5C370.333 260.833 395.6 268 418 254" stroke="black" stroke-width="5" stroke-linecap="round"/>
<path d="M357.5 244C368.167 250.167 396.1 258.8 422.5 244" stroke="black" stroke-width="5" stroke-linecap="round"/>
<path d="M347.502 193.999C357.155 204.492 357.767 217.684 357.912 228.847C357.961 232.619 360.14 236.065 363.67 237.396C384.888 245.394 404.891 242.122 416.56 237.859C420.538 236.406 422.467 232.2 422.218 227.972C421.145 209.776 427.999 197.298 432.002 192.999C452.402 170.599 466.501 138.499 464.503 119.499C459.085 67.9995 400.5 30.2096 358.004 57.4963C279.47 107.922 341.503 187.478 347.502 193.999Z" stroke="black" stroke-width="5" stroke-linecap="round"/>
<path d="M358.454 167.135C358.148 156.215 358.812 130.028 365.903 102.868C365.965 102.632 366.109 102.427 366.313 102.292C379.293 93.7331 399.481 86.1556 410.631 82.5526C411.59 82.2425 412.347 83.4115 411.714 84.1963C398.14 101.015 391.81 123.733 389.899 135.658C389.748 136.595 390.895 137.163 391.617 136.548C402.154 127.568 418.435 123.469 427.326 122.255C428.176 122.139 428.72 123.095 428.227 123.797C405.084 156.73 392.682 189.116 388.424 204.419C388.15 205.403 386.759 205.41 386.514 204.418C382.428 187.935 383.734 169.337 385.197 160.239C385.321 159.471 384.571 158.844 383.842 159.114L359.791 168.022C359.154 168.258 358.473 167.814 358.454 167.135Z" stroke="black" stroke-width="5" stroke-linecap="round"/>
<path d="M307 208.5L320 198.5" stroke="black" stroke-width="5" stroke-linecap="round"/>
<path d="M307 169L280.5 181.5" stroke="black" stroke-width="5" stroke-linecap="round"/>
<path d="M277.5 146C279.9 146 292.5 143 298.5 141.5" stroke="black" stroke-width="5" stroke-linecap="round"/>
<path d="M298.5 118.5L267 115" stroke="black" stroke-width="5" stroke-linecap="round"/>
<path d="M302.5 86.5L280.5 76" stroke="black" stroke-width="5" stroke-linecap="round"/>
<path d="M323.5 64L298.5 40" stroke="black" stroke-width="5" stroke-linecap="round"/>
<path d="M340.5 48L317.5 9.5" stroke="black" stroke-width="5" stroke-linecap="round"/>
<path d="M369 37.5L363.5 9.5" stroke="black" stroke-width="5" stroke-linecap="round"/>
<path d="M402 35V3" stroke="black" stroke-width="5" stroke-linecap="round"/>
<path d="M434 40L443 22.5" stroke="black" stroke-width="5" stroke-linecap="round"/>
<path d="M463 64L489.5 40" stroke="black" stroke-width="5" stroke-linecap="round"/>
<path d="M483.5 90L502 84.5" stroke="black" stroke-width="5" stroke-linecap="round"/>
<path d="M483.5 122.5L516.5 118.5" stroke="black" stroke-width="5" stroke-linecap="round"/>
<path d="M486 149L504.5 154.5" stroke="black" stroke-width="5" stroke-linecap="round"/>
<path d="M477 172L497 183.5" stroke="black" stroke-width="5" stroke-linecap="round"/>
<path d="M463 195L477 208.5" stroke="black" stroke-width="5" stroke-linecap="round"/>
</svg>
