<svg width="2937" height="1014" viewBox="0 0 2937 1014" fill="none" xmlns="http://www.w3.org/2000/svg">
<g clip-path="url(#clip0_291_8409)">
<path d="M2511 815.921L2528 823.303C2528.91 823.699 2529.5 824.6 2529.5 825.596V870.662C2529.5 872.501 2527.58 873.711 2525.92 872.918L2508.92 864.798C2508.05 864.383 2507.5 863.506 2507.5 862.542V818.214C2507.5 816.414 2509.34 815.204 2511 815.921Z" stroke="black" stroke-width="5"/>
<path d="M2562.95 844.752L2580.95 852.178C2581.89 852.565 2582.5 853.477 2582.5 854.49V898.832C2582.5 900.649 2580.62 901.86 2578.97 901.108L2560.97 892.94C2560.07 892.534 2559.5 891.644 2559.5 890.663V847.063C2559.5 845.283 2561.31 844.073 2562.95 844.752Z" stroke="black" stroke-width="5"/>
<path d="M2510.98 730.871L2527.98 738.144C2528.9 738.538 2529.5 739.442 2529.5 740.443V784.713C2529.5 786.545 2527.59 787.755 2525.94 786.975L2508.94 778.974C2508.06 778.562 2507.5 777.68 2507.5 776.712V733.169C2507.5 731.375 2509.33 730.165 2510.98 730.871Z" stroke="black" stroke-width="5"/>
<path d="M2562.95 758.752L2580.95 766.178C2581.89 766.565 2582.5 767.477 2582.5 768.49V812.832C2582.5 814.649 2580.62 815.86 2578.97 815.108L2560.97 806.94C2560.07 806.534 2559.5 805.644 2559.5 804.663V761.063C2559.5 759.283 2561.31 758.073 2562.95 758.752Z" stroke="black" stroke-width="5"/>
<path d="M2530 925.154V968.728C2530 969.903 2530.69 970.971 2531.76 971.458L2549.76 979.658C2551.74 980.563 2554 979.111 2554 976.928V932.923C2554 931.726 2553.29 930.643 2552.19 930.169L2534.19 922.4C2532.21 921.545 2530 922.997 2530 925.154Z" fill="black"/>
<path d="M2610 1008.59L2478.67 943.923C2477.65 943.418 2477 942.375 2477 941.232V673.592" stroke="black" stroke-width="5" stroke-linecap="round"/>
<path d="M2607.2 1008.71V737.586L2473.66 676.164C2471.09 674.985 2471.43 671.24 2474.16 670.534L2593.03 639.815C2593.59 639.669 2594.19 639.691 2594.74 639.877L2716 680.761V956.663C2716 957.794 2715.36 958.828 2714.36 959.339L2611.56 1011.39C2609.56 1012.4 2607.2 1010.95 2607.2 1008.71Z" fill="black"/>
<path d="M2795 941.291L2714.97 919.592V957.712L2639 997.592L2795 941.291Z" fill="black"/>
<path d="M543.786 603.582C550.005 649.136 542.867 700.254 537.563 724.13C537.283 725.389 538.236 726.592 539.526 726.592H558.324C559.208 726.592 559.989 726.013 560.23 725.162C572.184 682.996 559.307 632.446 547.498 602.45C546.634 600.256 543.466 601.246 543.786 603.582Z" fill="black"/>
<path d="M464.882 623.114C451.199 646.61 497.227 698.698 544.139 675.984" stroke="black" stroke-width="5" stroke-linecap="round"/>
<path d="M486.832 547.726C459.017 551.64 443.765 589.589 464.882 623.114C468.725 629.216 485.405 635.84 493.224 635.84" stroke="black" stroke-width="5" stroke-linecap="round"/>
<path d="M629 594.246C629 565.131 621.19 534.153 574.436 520.313C525.195 505.736 498.437 527.759 486.832 547.726C481.316 557.216 483.45 566.326 486.832 574.159" stroke="black" stroke-width="5" stroke-linecap="round"/>
<path d="M560 631.592C568.026 623.219 584.885 608.404 578.642 574.592" stroke="black" stroke-width="5" stroke-linecap="round"/>
<path d="M544 647.592C537.704 645.647 522.089 635.925 510 612.592" stroke="black" stroke-width="5" stroke-linecap="round"/>
<path d="M513.693 742.484C518.55 728.782 546.22 723.191 562.084 721.82C563.801 721.672 565.247 723.043 565.247 724.767V757.818C565.247 759.475 566.59 760.818 568.247 760.818H622C546.619 768.066 507.195 760.818 513.693 742.484Z" fill="black"/>
<path d="M606.348 773.291C591.79 764.825 628.156 764.768 649.243 763.592L719 799.746C682.605 805.33 620.906 781.756 606.348 773.291Z" fill="black"/>
<path d="M607.007 636.592L567.107 669.04C566.407 669.61 566 670.465 566 671.367V756.592C566 758.249 567.343 759.592 569 759.592H631" stroke="black" stroke-width="5" stroke-linecap="round"/>
<path d="M613.704 633.218L649.935 680.426C651.151 682.01 653.547 681.986 654.731 680.378L689.482 633.17C690.941 631.189 689.526 628.392 687.066 628.392H651.042C649.385 628.392 648.042 627.049 648.042 625.392V617.592C648.042 615.935 646.699 614.592 645.042 614.592H631.589C629.932 614.592 628.589 615.935 628.589 617.592V625.392C628.589 627.049 627.245 628.392 625.589 628.392H616.084C613.597 628.392 612.19 631.245 613.704 633.218Z" fill="black"/>
<path d="M586 688.112V719.592C586 721.249 587.343 722.592 589 722.592H629.756C631.413 722.592 632.756 721.249 632.756 719.592V711.849C632.756 711.229 632.948 710.625 633.306 710.119L637.45 704.251C637.808 703.744 638 703.14 638 702.52V688.285C638 687.595 637.749 686.906 637.305 686.377C614.979 659.816 594.514 674.883 586.496 686.481C586.164 686.961 586 687.528 586 688.112Z" stroke="black" stroke-width="5"/>
<path d="M614 622.592V608.485C614 607.586 614.403 606.735 615.097 606.165L667 563.592" stroke="black" stroke-width="5" stroke-linecap="round"/>
<path d="M665.132 566.738L710.156 620.427C710.77 621.159 711.696 621.555 712.65 621.493L792.685 616.266C795.018 616.114 796.288 613.47 794.948 611.554L767.643 572.497C767.159 571.804 766.406 571.348 765.568 571.24L695.165 562.148C693.669 561.955 692.549 560.681 692.549 559.172V552.592C692.549 550.935 691.206 549.592 689.549 549.592H679.991C678.334 549.592 676.991 550.935 676.991 552.592V558.81C676.991 560.467 675.647 561.81 673.991 561.81H667.431C664.883 561.81 663.495 564.785 665.132 566.738Z" fill="black"/>
<path d="M836 779.014L796.309 797.592L795 735.86C795 723.33 802.785 710.238 813.319 708.725C823.054 707.328 836 716.934 836 735.86V779.014Z" fill="black"/>
<path d="M759.576 818.592V711.342" stroke="black" stroke-width="5" stroke-linecap="round"/>
<path d="M652 719.5V762.68C652 763.815 652.64 764.852 653.653 765.361L759.576 818.592L865.349 765.361C866.361 764.852 867 763.815 867 762.682V711.342" stroke="black" stroke-width="5" stroke-linecap="round"/>
<path d="M758.548 717.421L642.216 722.33C639.706 722.435 638.185 719.595 639.665 717.565L683.2 657.854C683.541 657.386 684.01 657.027 684.551 656.82L709.146 647.402C710.307 646.958 711.073 645.844 711.073 644.601V629.83C711.073 628.253 712.295 626.945 713.869 626.837L739.801 625.065C741.535 624.947 743.006 626.321 743.006 628.058V632.336C743.006 634.42 745.079 635.869 747.037 635.153L827.434 605.727C830.153 604.732 832.565 607.785 830.967 610.199L760.923 716.079C760.392 716.881 759.509 717.38 758.548 717.421Z" fill="black"/>
<path d="M831.485 606.592L895.801 700.902C897.159 702.893 895.733 705.592 893.323 705.592H872.22C871.257 705.592 870.353 705.13 869.789 704.349L828 646.539" stroke="black" stroke-width="5" stroke-linecap="round"/>
<path d="M5 978.879C101 898.592 244 813.092 445 759.592" stroke="black" stroke-width="10" stroke-linecap="round"/>
<path d="M889.5 633.592C1010.61 607.607 1119.51 592.223 1248.72 582.092" stroke="black" stroke-width="10" stroke-linecap="round"/>
<path d="M1694.88 593C1570.88 577.295 1572.97 577.192 1434.22 577.295" stroke="black" stroke-width="10" stroke-linecap="round"/>
<path d="M2099.22 657.735C2244.33 689.205 2292.52 698.911 2443 757.092" stroke="black" stroke-width="10" stroke-linecap="round"/>
<path d="M2931.5 978.879C2866.37 942.173 2823.91 919.17 2759.22 888.235L2931.5 978.879Z" stroke="black" stroke-width="10" stroke-linecap="round"/>
<path d="M426.5 825.379C459.5 885.046 591.6 968.579 856 825.379C921.5 789.904 913 775.879 1001.5 769.879C1071.79 765.114 1123.67 693.046 1141.5 662.879" stroke="black" stroke-width="10" stroke-linecap="round"/>
<path d="M1839.5 667.879C1852.17 696.879 1907.1 753.279 2025.5 746.879C2143.9 740.479 2234.5 788.879 2265 813.879" stroke="black" stroke-width="10" stroke-linecap="round"/>
<path d="M1782.5 706.879C1787.5 720.212 1805.1 750.279 1835.5 763.879" stroke="black" stroke-width="10" stroke-linecap="round"/>
<path d="M1835.5 722.879C1851.17 745.212 1916.4 788.079 2052 780.879" stroke="black" stroke-width="10" stroke-linecap="round"/>
<path d="M416.5 872.879C418.167 883.546 435.7 908.779 492.5 924.379" stroke="black" stroke-width="10" stroke-linecap="round"/>
<path d="M458.5 952.879C469 962.379 479.5 964.379 492.5 966.379" stroke="black" stroke-width="10" stroke-linecap="round"/>
<path d="M875.5 888.379C895.833 870.546 952.8 832.279 1018 821.879C1083.2 811.479 1101.83 780.212 1103 765.879" stroke="black" stroke-width="10" stroke-linecap="round"/>
<path d="M849 943.379C854.5 943.379 909.5 924.879 941.5 888.379" stroke="black" stroke-width="10" stroke-linecap="round"/>
<path d="M1586.39 329.973C1612.92 335.413 1600.48 371.92 1619.92 381.635C1643.12 393.231 1651.11 327.942 1648.09 300.23C1647.22 288.08 1633.07 282.675 1631.16 300.23C1629.14 318.878 1652.28 391.188 1678.8 363.285L1696.51 342.799C1701.43 336.737 1711.13 328.316 1719.33 342.799C1727.52 357.283 1740.59 352.497 1746.09 348.293L1763.39 335.709" stroke="black" stroke-width="5" stroke-linecap="round"/>
<path d="M1750.79 280.025L1889.22 256.575C1890.21 256.408 1890.8 257.634 1890.06 258.304L1825.52 316.425C1825.45 316.491 1825.37 316.545 1825.28 316.583C1819.67 318.892 1797.57 310.131 1786.15 304.997C1785.59 304.744 1784.94 305.05 1784.77 305.642C1782.04 315.285 1778.69 324.235 1777.05 328.258C1776.87 328.693 1776.39 328.947 1776.03 328.641C1772.72 325.794 1772.31 307.617 1772.55 297.56C1772.56 297.046 1772.19 296.61 1771.68 296.52C1763.2 295.005 1751.54 287.439 1746.62 283.722" stroke="black" stroke-width="5" stroke-linecap="round"/>
<path d="M1785.62 305C1800.13 298.119 1836.86 280.886 1867.62 267" stroke="black" stroke-width="5" stroke-linecap="round"/>
<path d="M1776.62 329L1803.62 313" stroke="black" stroke-width="5" stroke-linecap="round"/>
<path d="M1782.62 291L1819.62 279" stroke="black" stroke-width="5" stroke-linecap="round"/>
<path d="M1021.78 199.741C1024.57 191.557 1022.03 186.049 1019.54 185C1004.64 198.85 982.031 193.709 973.646 185.315C970.665 188.085 972.404 196.278 973.646 198.797C989.794 216.928 1012.77 206.771 1021.78 199.741Z" fill="black"/>
<path d="M1064.88 73.1258C1058.05 97.8092 1054.64 99.9964 1044.7 110.932C1044.7 100.124 1042.86 81.984 1042.86 74.4303C1010.34 74.4303 982.888 61.0661 973.23 54.3839C973.576 77.045 952.471 91.8619 952.471 91.8619C952.471 91.8619 955.498 101.013 957.228 121.496C958.612 137.881 954.634 134.715 952.471 131.083C946.243 110.862 936.037 116.266 931.712 121.496C878.642 34.6946 960.255 17.9228 975.824 19.5207C987.588 9.41042 1003.99 1.48739 1015.53 0.325292C1057.12 -3.86584 1075.95 33.1025 1064.88 73.1258Z" fill="black"/>
<path d="M953 145.963C958.625 180.149 996.381 204.731 1023.63 177.038C1050.87 149.345 1045.42 98.6543 1042.51 75" stroke="black" stroke-width="5" stroke-linecap="round"/>
<path d="M930.5 118.5C927.124 126.896 930.939 146 953 146" stroke="black" stroke-width="5" stroke-linecap="round"/>
<path d="M941.14 125C940.698 126.651 941.051 130.562 946 133" stroke="black" stroke-width="5" stroke-linecap="round"/>
<path d="M1042.5 141.5C1049.87 138.396 1053.57 127.404 1051.57 109" stroke="black" stroke-width="5" stroke-linecap="round"/>
<path d="M1004 161.567C1011.08 163.623 1010.63 157.965 1016 153" stroke="black" stroke-width="5" stroke-linecap="round"/>
<path d="M1024.14 129.195C1026.45 129.417 1028.61 126.54 1028.97 122.77C1029.33 119 1027.76 115.764 1025.46 115.543C1023.15 115.321 1020.99 118.198 1020.63 121.968C1020.27 125.738 1021.84 128.974 1024.14 129.195Z" fill="black"/>
<path d="M982.127 129.222C984.445 129.504 986.689 126.726 987.14 123.017C987.591 119.308 986.077 116.074 983.759 115.792C981.442 115.51 979.197 118.288 978.746 121.997C978.295 125.705 979.809 128.94 982.127 129.222Z" fill="black"/>
<path d="M971 109C971.961 106.043 976.106 100.572 985 102.346" stroke="black" stroke-width="5" stroke-linecap="round"/>
<path d="M1014 103C1016.12 101.491 1021.89 99.3777 1028 103" stroke="black" stroke-width="5" stroke-linecap="round"/>
<path d="M1006.52 115C1007.21 121.052 1007.69 133.324 1004 134" stroke="black" stroke-width="5" stroke-linecap="round"/>
<path d="M1171.9 287.591C1150.4 264.091 1093 209.591 1035.4 179.591" stroke="black" stroke-width="5" stroke-linecap="round"/>
<path d="M1257.4 477.091C1128.6 670.691 903.399 593.591 822.399 516.091C770.399 462.258 700.399 343.091 753.899 226.091C792.511 141.651 867.371 131.286 924.5 141.31" stroke="black" stroke-width="5" stroke-linecap="round"/>
<path d="M1193.4 352.092C1124.6 338.092 1057.4 376.592 1032.4 397.592C1082.4 409.592 1121.57 433.925 1134.9 444.592C1142.1 440.192 1158.07 436.758 1165.16 435.592C1207.36 457.232 1295.85 495.905 1340.9 515.092C1356 519.5 1378 475 1365.9 461.592L1193.4 352.092Z" fill="black"/>
<path d="M852.9 219.592C850.733 239.092 851.5 289.392 871.9 334.592" stroke="black" stroke-width="5" stroke-linecap="round"/>
<path d="M837.399 348.592C846.733 363.258 880.699 398.892 941.899 424.092" stroke="black" stroke-width="5" stroke-linecap="round"/>
<path d="M998.899 445.092C1011.07 448.425 1041.3 453.092 1064.9 445.092" stroke="black" stroke-width="5" stroke-linecap="round"/>
<path d="M941.899 388.092C977.566 385.259 1067.4 393.392 1141.4 448.592" stroke="black" stroke-width="5" stroke-linecap="round"/>
<path d="M962.399 247.092C964.566 254.426 963.509 275.49 967.399 287.592C971.899 301.592 994.566 307.426 1006.4 309.592C1026.9 313.346 1049.5 312.092 1071.9 320.092" stroke="black" stroke-width="5" stroke-linecap="round"/>
<path d="M967.399 197C944 194.5 911.643 202.5 904.899 238.092C897.699 276.092 914.732 321.759 923.899 343.092C931.204 360.092 978.899 374.292 1058.9 355.092" stroke="black" stroke-width="5" stroke-linecap="round"/>
<path d="M1058.9 355.092C1063.07 348.425 1071.9 332.092 1071.9 320.092" stroke="black" stroke-width="5" stroke-linecap="round"/>
<path d="M1026.5 199C1059.5 199 1085.3 212.992 1104.9 244.592C1124.5 276.192 1150.4 301.092 1160.9 309.592" stroke="black" stroke-width="5" stroke-linecap="round"/>
<path d="M1095.4 258.592C1098.73 265.592 1102.65 275.778 1104.9 287.592C1106.9 298.092 1112.4 311.592 1114.4 315.592" stroke="black" stroke-width="5" stroke-linecap="round"/>
<path d="M945.899 362.592C947.399 367.758 951.399 378.592 957.399 386.592" stroke="black" stroke-width="5" stroke-linecap="round"/>
<path d="M1245.9 348.092L1182.4 350.092L1193.4 352.092L1293.4 415.592C1285.8 373.592 1258.57 352.925 1245.9 348.092Z" fill="black"/>
<path d="M1299.4 554.592L1256.9 480.592L1258.4 478.592L1340.9 514.592V523.092C1337.5 543.5 1310 566 1299.4 554.592Z" fill="black"/>
<path d="M1071.9 320.092C1076.73 322.092 1088.7 324.801 1097.9 321.201C1107.1 317.601 1120.73 317.368 1126.4 317.701C1131.07 318.701 1140.6 323.501 1141.4 334.701C1141.9 339.201 1134.53 340.201 1132.91 335.701" stroke="black" stroke-width="5" stroke-linecap="round"/>
<path d="M1114.9 327.201C1120.43 327.201 1130.51 329.01 1132.91 335.701C1133.33 336.878 1133.52 338.206 1133.4 339.701C1131.9 344.592 1123.57 341.217 1120.4 338.592C1118.86 336.425 1113.94 334.145 1111.4 333.592" stroke="black" stroke-width="5" stroke-linecap="round"/>
<path d="M1111.4 333.592C1113.94 334.145 1118.86 336.425 1120.4 338.592C1121.18 339.691 1120.34 341.111 1119.4 342.592C1116.4 346.092 1111.41 343.802 1104.4 341.592C1098.4 339.701 1092.73 345.425 1091.9 348.592" stroke="black" stroke-width="5" stroke-linecap="round"/>
<path d="M1060.9 351.592C1061.73 351.758 1064.6 352.292 1069.4 353.092" stroke="black" stroke-width="5" stroke-linecap="round"/>
<path d="M1068.4 352.592C1070.8 352.592 1128.07 343.092 1156.4 338.092H1264.4C1270.23 338.425 1283.9 336.892 1291.9 328.092" stroke="black" stroke-width="5" stroke-linecap="round"/>
<path d="M1291.9 328.592C1301.4 304.259 1322.9 249.492 1330.9 227.092C1338.9 204.692 1325.9 199.759 1318.4 200.092C1301.9 199.759 1262.1 199.292 1234.9 200.092C1207.7 200.892 1199.9 214.092 1196.4 222.092L1158.4 328.092C1157.57 330.759 1157.1 336.092 1161.9 338.092" stroke="black" stroke-width="5" stroke-linecap="round"/>
<path d="M1291.9 328.092C1288.07 337.592 1275.9 352.092 1246.4 350.592" stroke="black" stroke-width="5" stroke-linecap="round"/>
<path d="M1068.4 352.592C1068.07 357.758 1073.4 366.092 1098.9 363.092" stroke="black" stroke-width="5" stroke-linecap="round"/>
<path d="M1114.9 468.592C1132.07 468.592 1171.3 464.492 1190.9 448.092" stroke="black" stroke-width="5" stroke-linecap="round"/>
<path d="M1361.82 509.965C1369.41 517.623 1387.55 532.034 1410 516C1455.5 483.5 1432.5 470 1406.5 486.499C1401 489.99 1393.1 495.699 1385.5 492.499" stroke="black" stroke-width="5" stroke-linecap="round"/>
<path d="M1323 558.175C1328.93 572.034 1340.53 590.801 1359.53 585.495C1396.5 575.172 1413.01 538.032 1379.53 553.18C1369.92 557.527 1363.5 561.674 1351 549.385" stroke="black" stroke-width="5" stroke-linecap="round"/>
<path d="M1968.56 307C1930.29 237.37 1960.21 209.391 1978.22 196C1976.09 248.729 2011.97 277.055 2031 284.297L2029.16 299.87C2025.8 295.596 1985.47 297.694 1968.56 307Z" fill="black"/>
<path d="M2198.69 284.78C2173.92 308.246 2152.68 307.913 2143.01 309C2110.17 301.332 2095.33 302.975 2082.15 306.809L2086.87 271.473C2104.75 258.59 2117.52 235.691 2121.67 225.853C2126.33 229.784 2132.4 228.287 2134.85 227.048C2138 225.005 2144.04 217.313 2143.01 202.897C2141.98 188.481 2131.48 192.351 2126.36 196.089L2100.78 198.837C2101.85 175.002 2087.12 167.048 2079.62 166.051C2085.51 152.847 2074.97 147.07 2069.42 144.801C2061.46 154.529 2051.03 158.448 2046.62 160.27C2001.72 171.981 1974.32 155.948 1961.67 135.938C1947.94 115.738 1950.16 68.3024 1989 56.7552C2001.71 51.8816 2031.82 47.8859 2050.65 70.8891C2106.1 50.5722 2132.34 108.72 2139.54 129.835L2147.86 149.087C2220.12 164.412 2226.48 232.556 2213.78 262.4C2208.03 275.931 2207.27 276.647 2199.07 284.419L2198.69 284.78Z" fill="black"/>
<path d="M2100.5 199.471C2097.67 215.537 2083.81 226.081 2069.96 223.653C2056.1 221.224 2046.67 206.595 2049.5 190.529C2052.33 174.463 2066.19 163.919 2080.04 166.347C2093.9 168.777 2103.33 183.405 2100.5 199.471Z" stroke="black" stroke-width="5"/>
<path d="M2030.5 197.048C2027.67 213.391 2013.81 224.117 1999.96 221.647C1986.1 219.176 1976.67 204.295 1979.5 187.952C1982.33 171.609 1996.19 160.883 2010.04 163.353C2023.9 165.825 2033.33 180.705 2030.5 197.048Z" stroke="black" stroke-width="5"/>
<path d="M2032 191L2049 192" stroke="black" stroke-width="5" stroke-linecap="round"/>
<path d="M2025 257C2028.45 260.773 2038.09 266.056 2049 257" stroke="black" stroke-width="5" stroke-linecap="round"/>
<path d="M2041 208C2036.02 220.967 2025.84 231.788 2037.1 240" stroke="black" stroke-width="5" stroke-linecap="round"/>
<path d="M1994.23 219.351C1998.71 220.138 2002.97 217.146 2003.76 212.668C2004.55 208.191 2001.55 203.924 1997.08 203.137C1992.6 202.351 1988.33 205.343 1987.55 209.82C1986.76 214.297 1989.75 218.564 1994.23 219.351Z" fill="black"/>
<path d="M2062.96 221.396C2067.43 222.183 2071.7 219.191 2072.49 214.713C2073.27 210.236 2070.28 205.969 2065.8 205.182C2061.33 204.396 2057.06 207.388 2056.27 211.865C2055.49 216.342 2058.48 220.61 2062.96 221.396Z" fill="black"/>
<path d="M2133.14 206C2134.13 208.426 2135.09 214.021 2131 217" stroke="black" stroke-width="5" stroke-linecap="round"/>
<path d="M1985.83 159C1975.48 178.763 1966.17 227.05 2007.51 268.696C2048.84 310.344 2093.15 271.284 2110.14 246.548L2122.15 225.775C2127.14 230.188 2138.09 234.157 2141.94 214.741C2145.8 195.325 2138.19 192.685 2133.9 193.793C2131.58 194.314 2126.49 196.62 2124.71 201.666" stroke="black" stroke-width="5" stroke-linecap="round"/>
<path d="M2101 198L2129 196" stroke="black" stroke-width="5" stroke-linecap="round"/>
<path d="M2071 194C2075.4 194.616 2084.15 198.078 2084 207" stroke="black" stroke-width="5" stroke-linecap="round"/>
<path d="M1990 188.52C1993.44 187.096 2001.87 185.399 2008 190" stroke="black" stroke-width="5" stroke-linecap="round"/>
<path d="M1933.85 454C1931.13 465.237 1927.92 497.504 1937 512" stroke="black" stroke-width="5" stroke-linecap="round"/>
<path d="M2028 299.19C1994.84 293.07 1930.18 309.9 1924 365" stroke="black" stroke-width="5" stroke-linecap="round"/>
<path d="M2111.39 416C2109.78 407.037 2107.09 389 2120 371" stroke="black" stroke-width="5" stroke-linecap="round"/>
<path d="M2083.56 307.436C2153.57 295.821 2170.62 326.691 2183.41 379.874C2197.51 438.557 2180.67 521.077 2111.36 544C2077.53 544.047 2036.98 529.333 1998.32 485.627C1991.56 477.982 1983.22 466.004 1994.67 457.202C2008.97 446.198 2085.58 455.979 2111.36 477.982" stroke="black" stroke-width="5" stroke-linecap="round"/>
<path d="M1922.37 365.269C1913.47 371.118 1920.33 398.266 1924.04 409.14L1927.26 407.908L1926.36 403.651L1926.66 399.393C1928.33 394.894 1937.96 391.518 1943.53 399.393C1948.96 407.091 1955.87 413.687 1959.64 415.326C1974.33 423.876 1971.69 409.89 1968.54 401.829C1966.69 398.079 1961.42 385.293 1959.64 373.143C1957.86 360.995 1950.18 359.645 1945.73 359.082C1941.65 358.708 1931.27 359.42 1922.37 365.269Z" fill="black"/>
<path d="M1889 381L1907 379" stroke="black" stroke-width="5" stroke-linecap="round"/>
<path d="M1908 369L1880 364" stroke="black" stroke-width="5" stroke-linecap="round"/>
<path d="M1913 361L1896 350" stroke="black" stroke-width="5" stroke-linecap="round"/>
<path d="M1939 354.32C1935.86 353.416 1929.46 353.887 1929 363" stroke="black" stroke-width="5" stroke-linecap="round"/>
<path d="M1949 348.262C1946.13 347.526 1940.83 348.001 1938.8 354.168C1938.36 355.498 1938.08 357.095 1938 359" stroke="black" stroke-width="5" stroke-linecap="round"/>
<path d="M1966.05 399C1965.68 395.545 1967.29 389.437 1970.47 385.909C1974.9 381 1976.2 371.727 1976.57 366.272C1976.93 364.091 1978.26 358.163 1973.24 357.545C1968.81 357 1968.26 360.818 1967.71 363.546C1967.52 366.999 1962.17 369.97 1962.17 361.364C1962.17 354.818 1962.72 353.182 1962.72 346.637C1962.72 339.545 1963.83 333 1955.52 333C1948.88 333.546 1949.99 337.909 1949.03 348.818C1948.94 351.113 1949.06 353.653 1949.43 356.455" stroke="black" stroke-width="5" stroke-linecap="round"/>
<path d="M1920.08 390C1909.68 406.195 1894.15 455.507 1926 497" stroke="black" stroke-width="5" stroke-linecap="round"/>
<path d="M1930.16 438C1927.6 441.716 1925.21 450.151 1936.15 454.163C1947.08 458.177 1975.98 472.94 1986 480" stroke="black" stroke-width="5" stroke-linecap="round"/>
<path d="M1930.09 425C1927.37 427.794 1924.52 433.047 1930.67 438.412C1932.86 440.329 1936.18 442.236 1941 444" stroke="black" stroke-width="5" stroke-linecap="round"/>
<path d="M1943 419.473C1940 414.57 1926.08 404.766 1921.66 413.481C1920 416.749 1921.09 421.106 1929.52 424.919L1939.63 432" stroke="black" stroke-width="5" stroke-linecap="round"/>
<path d="M2001 445C1998.81 433.413 1987.88 426.241 1982.96 405.274C1981.27 398.072 1979.14 391.481 1972.58 392.032C1967.33 392.474 1965.47 399.205 1966.57 403.619C1969.3 410.24 1972.03 420.834 1963.29 419.068C1954.54 417.303 1946.16 406.929 1943.06 401.964C1940.51 397.55 1932.68 392.585 1926.67 401.412C1925.58 403.017 1925.03 407.864 1931.59 410.953" stroke="black" stroke-width="5" stroke-linecap="round"/>
<path d="M2120 399C2112.13 411.512 2104.44 431.789 2098 468" stroke="black" stroke-width="5" stroke-linecap="round"/>
<path d="M2138 544.773C2083.51 561.775 2014.92 549.811 1970.34 531.706C1930.71 513.062 1883.38 470.831 1819.54 497.702C1792.02 511.6 1764.82 530.847 1734.88 597.552C1726.53 617.554 1721.13 639.953 1761.77 643C1778.89 636.292 1791.67 644.421 1870.36 555.733" stroke="black" stroke-width="5" stroke-linecap="round"/>
<path d="M2018 680.825C1967.84 685.266 1855.21 679.519 1806 621" stroke="black" stroke-width="5" stroke-linecap="round"/>
<path d="M2138 545C2136.35 587.044 2122.25 674.447 2024.91 680.524C2022.7 680.665 2020.5 680.778 2018.31 680.853C1942.82 683.69 1877.81 645.225 1843 586.612" stroke="black" stroke-width="5" stroke-linecap="round"/>
<path d="M1879 490.28C1837.46 478.624 1747.53 485.007 1706.8 583.996C1700.77 600.831 1693.98 621.821 1730.31 627" stroke="black" stroke-width="5" stroke-linecap="round"/>
<path d="M1680.37 637.578C1687.08 616.852 1717.15 626.333 1734.03 633.668C1741.35 640.633 1756.39 642.778 1763 642.982C1763 654.115 1760.09 659.287 1755.86 662.147C1754.21 663.94 1743.2 666.01 1712.36 660.002C1681.52 653.995 1678.72 644.013 1680.37 637.578Z" fill="black"/>
<path d="M1654.99 605.794C1661.14 593.404 1688.28 603.77 1701.63 610.23C1704.55 621.598 1721.88 626.563 1730.18 627.632L1732 632.844C1699.2 618.42 1684.32 627.32 1681.89 635C1672.93 631.86 1648.85 618.193 1654.99 605.794Z" fill="black"/>
<path d="M2031 586C2014.59 569.667 1977.63 535.007 1961 527" stroke="black" stroke-width="5" stroke-linecap="round"/>
<path d="M2138 545C2138 540.74 2138 533.82 2138 530" stroke="black" stroke-width="5" stroke-linecap="round"/>
<path d="M2032.48 298.989C2040.9 304.198 2059.7 311.491 2067.47 298.989C2077.2 283.361 2085.94 301.897 2082.06 313.889C2078.17 325.883 2045.17 345.846 2023 302.059" stroke="black" stroke-width="5" stroke-linecap="round"/>
<path d="M2049 328C2042.42 331.259 2029.86 341.623 2032.31 357" stroke="black" stroke-width="5" stroke-linecap="round"/>
<path d="M2056 349C2045.93 362.502 2034.47 365.278 2030 364.979" stroke="black" stroke-width="5" stroke-linecap="round"/>
<path d="M2053.38 331C2052.62 335.157 2052.78 342.211 2056 349.202C2058.73 355.11 2063.63 360.972 2072 365" stroke="black" stroke-width="5" stroke-linecap="round"/>
<path d="M2065 329C2071.15 333.961 2081.29 347.277 2076.95 365" stroke="black" stroke-width="5" stroke-linecap="round"/>
</g>
<defs>
<clipPath id="clip0_291_8409">
<rect width="2937" height="1014" fill="white"/>
</clipPath>
</defs>
</svg>
