<svg width="471" height="582" viewBox="0 0 471 582" fill="none" xmlns="http://www.w3.org/2000/svg">
<path d="M175.477 430.915L183.507 418.589C191.333 406.577 206.565 401.781 219.862 407.143L238.999 414.859C250.938 419.673 264.617 416.334 272.995 406.56L294.977 380.915" stroke="black" stroke-width="5" stroke-linecap="round"/>
<path d="M61.4766 519.915C61.4766 505.915 69.2623 502.241 73.7623 501.241C79.5949 500.067 88.6763 496.805 79.4766 487.414" stroke="black" stroke-width="5" stroke-linecap="round"/>
<path d="M37.2627 486.741C39.2627 481.574 44.2319 472.579 62.477 471.415C85.9752 469.915 84.977 481.914 83.2608 484.241C82.504 485.268 80.8796 487.106 79.477 487.414C71.5482 489.151 58.5 484.044 52.977 498.914" stroke="black" stroke-width="5" stroke-linecap="round"/>
<path d="M62.4768 471.415C67.9768 458.415 49.9768 457.414 42.9769 458.415C38.4768 459.415 27.3078 461.741 18.7606 475.741C15.5859 480.941 12.4151 488.366 10.183 497.241C5.6185 515.39 6.76064 552.415 22.4768 577.415" stroke="black" stroke-width="5" stroke-linecap="round"/>
<path d="M18.7603 475.741C17.7603 471.241 13.9604 463.442 6.76041 468.241C-2.23959 474.241 10.1051 490.24 10.1828 497.241" stroke="black" stroke-width="5" stroke-linecap="round"/>
<path d="M406.476 558.923C405.642 563.587 410.375 572.415 435.976 570.415" stroke="black" stroke-width="5" stroke-linecap="round"/>
<path d="M399.978 548.915C397.172 551.713 399.459 557.752 406.476 558.923C410.924 559.666 418.332 559.667 429.976 558.415" stroke="black" stroke-width="5" stroke-linecap="round"/>
<path d="M454.714 514.415C428.905 520.815 403.802 530.415 394.477 534.415C389.477 536.56 385.964 543.378 390.978 546.915C392.311 547.796 395.979 549.43 399.978 548.915C416.978 546.915 423.478 544.415 429.976 541.415" stroke="black" stroke-width="5" stroke-linecap="round"/>
<path d="M432.976 496.415C438.977 499.377 447.527 505.456 454.714 514.415C463.295 525.111 469.935 539.912 467.976 558.415" stroke="black" stroke-width="5" stroke-linecap="round"/>
<path d="M257.977 551.029L277.477 549.301M286.977 578.415L282.977 548.915L247.977 551.915C248.477 557.415 250.977 576.615 250.977 577.415" stroke="black" stroke-width="5" stroke-linecap="round"/>
<path d="M247.977 551.915L47.9766 526.415L59.4766 577.415" stroke="black" stroke-width="5" stroke-linecap="round"/>
<path d="M430.977 512.415L432.477 444.915L277.477 549.301" stroke="black" stroke-width="5" stroke-linecap="round"/>
<path d="M285.477 528.415C299.643 514.248 335.977 482.615 367.977 469.415" stroke="black" stroke-width="5" stroke-linecap="round"/>
<path d="M257.977 551.029C286.614 469.947 363.564 445.575 411.877 444.044" stroke="black" stroke-width="5" stroke-linecap="round"/>
<path d="M257.977 551.029C262.443 523.353 288.877 448 386.877 424.5L390.377 437" stroke="black" stroke-width="5" stroke-linecap="round"/>
<path d="M257.977 551.029C210.377 491.029 131.977 492.915 91.9766 497.915" stroke="black" stroke-width="5" stroke-linecap="round"/>
<path d="M178.977 486.415C170.81 478.915 145.877 464.215 111.477 465.415" stroke="black" stroke-width="5" stroke-linecap="round"/>
<path d="M257.977 551.029C248.143 511.529 198.577 428.415 64.9766 434.415L70.4766 457.915" stroke="black" stroke-width="5" stroke-linecap="round"/>
<path d="M23.4766 577.915L468.477 578.915" stroke="black" stroke-width="5" stroke-linecap="round"/>
<path d="M286.877 319.007C318.276 318.509 387.384 344.886 414.877 428" stroke="black" stroke-width="5" stroke-linecap="round"/>
<path d="M210.877 318C137.575 333.5 102.538 367.5 74.877 433" stroke="black" stroke-width="5" stroke-linecap="round"/>
<path d="M287.377 321.415C291.877 308.415 287.777 299.667 283.777 298C259.777 320 223.377 311.833 209.877 298.5C205.077 302.9 207.877 315.915 209.877 319.915C235.877 348.715 272.877 332.581 287.377 321.415Z" fill="black"/>
<path d="M356.32 117.021C345.32 156.521 339.82 160.021 323.82 177.521C323.82 160.226 320.849 131.196 320.849 119.108C268.46 119.108 224.246 97.7218 208.688 87.0287C209.245 123.292 175.249 147.003 175.249 147.003C175.249 147.003 180.125 161.648 182.912 194.425C185.141 220.646 178.732 215.579 175.249 209.767C165.217 177.409 148.775 186.056 141.808 194.425C56.3211 55.5205 187.788 28.6813 212.867 31.2383C231.816 15.0591 258.243 2.38022 276.82 0.520555C343.82 -6.18637 374.156 52.9727 356.32 117.021Z" fill="black"/>
<path d="M176.42 234.49C185.42 289.435 245.828 328.944 289.42 284.435C333.012 239.926 324.289 158.454 319.631 120.435" stroke="black" stroke-width="5" stroke-linecap="round"/>
<path d="M140.82 191.021C135.32 204.521 140.48 234.435 176.42 234.435" stroke="black" stroke-width="5" stroke-linecap="round"/>
<path d="M156.671 198.435C155.876 201.324 156.512 208.169 165.42 212.435" stroke="black" stroke-width="5" stroke-linecap="round"/>
<path d="M318.42 227.435C330.15 222.545 338.42 204.435 335.238 175.435" stroke="black" stroke-width="5" stroke-linecap="round"/>
<path d="M252.42 260.435C263.92 263.435 263.193 255.18 271.92 247.935" stroke="black" stroke-width="5" stroke-linecap="round"/>
<circle cx="287.92" cy="189.935" r="7.5" fill="black"/>
<circle cx="221.92" cy="190.935" r="7.5" fill="black"/>
<path d="M204.42 174.435C205.998 169.788 212.808 161.192 227.42 163.98" stroke="black" stroke-width="5" stroke-linecap="round"/>
<path d="M274.42 165.435C277.905 162.417 287.384 158.191 297.42 165.435" stroke="black" stroke-width="5" stroke-linecap="round"/>
<path d="M250.227 186.435C249.062 196.309 248.27 216.333 254.42 217.435" stroke="black" stroke-width="5" stroke-linecap="round"/>
</svg>
