<svg width="608" height="983" viewBox="0 0 608 983" fill="none" xmlns="http://www.w3.org/2000/svg">
<path d="M294.621 405C291.021 364.2 306.291 349.667 314.124 334C320.924 330 327.79 323.5 332.123 324C311.323 355.2 305.968 379.167 301.135 409L294.621 405Z" fill="black"/>
<path d="M428.637 534.5C417.635 525.5 413.135 519 409.635 503L428.635 495.5C432.135 512.5 437.8 516.167 450.134 527.5L428.637 534.5Z" fill="black"/>
<path d="M378.008 442C368.79 375.774 408.232 335.739 429.106 324L444.635 334.977C408.566 362.784 402.888 395.349 404.558 408.155C390.131 421.693 380.847 436.359 378.008 442Z" fill="black"/>
<path d="M493.635 429.798C513.856 437.881 532.487 444.953 569.635 417" stroke="black" stroke-width="5" stroke-linecap="round"/>
<path d="M573.635 451C558.696 455.003 531.161 474.608 540.539 521" stroke="black" stroke-width="5" stroke-linecap="round"/>
<path d="M452.635 336.442C484.044 330.725 528.635 381.449 563.025 429.749C606.012 490.124 555.459 542.609 469.486 522.713" stroke="black" stroke-width="5" stroke-linecap="round"/>
<path d="M213.454 526.059C216.446 529.83 227.86 535.671 249.575 528.865C271.29 522.059 279.996 511.425 281.635 506.958" stroke="black" stroke-width="5" stroke-linecap="round"/>
<path d="M194.004 517.329C191.938 520.89 191.952 527.716 208.538 526.525L213.454 526.059L222.003 525.249" stroke="black" stroke-width="5" stroke-linecap="round"/>
<path d="M195.503 504.193C191.513 504.69 184.301 507.299 187.379 513.764C188.307 515.715 190.764 516.811 194.004 517.329C201.504 518.526 213.2 516.624 219.866 515.04" stroke="black" stroke-width="5" stroke-linecap="round"/>
<path d="M275.029 482.312C268.737 476.375 255.602 464.422 243.804 463.571C240.812 463.429 234.4 462.253 232.69 458.68C230.553 454.213 220.721 459.105 227.347 468.038C233.972 476.97 242.094 473.993 237.392 481.649C233.63 487.774 210.889 490.582 199.989 491.22C196.142 491.291 189.003 493.219 191.226 500.365C191.776 502.135 193.334 503.367 195.503 504.193C202.096 506.706 214.341 505.474 221.148 504.193" stroke="black" stroke-width="5" stroke-linecap="round"/>
<path d="M246.636 283.001C238.635 234.5 249.671 206.593 272.098 189.882C269.448 255.684 313.775 287.501 331.275 298.501L316.275 312.501L294.635 328.5C293.468 321.667 290.235 306.1 286.635 298.501C283.035 290.901 258.469 285.001 246.636 283.001Z" fill="black"/>
<path d="M81.9963 334.229L43.1708 303.918C35.5642 297.98 46.8685 295.063 53.4715 294.346L198.473 276C216.697 278.393 256.948 284.455 272.162 289.56C287.375 294.665 282.726 299.664 278.501 301.525C230.959 310.3 131.281 329.284 112.898 335.027C94.5155 340.77 84.6375 336.888 81.9963 334.229Z" stroke="black" stroke-width="5" stroke-linecap="round"/>
<path d="M277.402 291C282.958 292.859 300.739 309.641 292.484 349.154C289.309 359.51 280.577 365.883 252 365.883H103.559C96.6793 366.414 80.8562 365.405 72.6006 357.12C64.3451 348.835 47.4636 331.363 40.0548 323.662C38.4672 321.803 36.8796 318.085 43.23 318.085" stroke="black" stroke-width="5" stroke-linecap="round"/>
<path d="M43.6348 318V305" stroke="black" stroke-width="5" stroke-linecap="round"/>
<path d="M39.1396 320.868L76.034 347.993C79.9851 351.165 87.0971 356.716 105.272 355.923C123.136 355.144 219.591 353.28 265.688 354.337C272.546 354.495 281.492 351.165 283.073 335.306C285.119 314.775 282.042 302.368 274.14 302.368" stroke="black" stroke-width="5" stroke-linecap="round"/>
<path d="M44.678 332L14.6064 334.367C10.3859 334.367 2.10302 336.418 2.7361 344.622C3.36919 352.827 2.99989 357.507 2.7361 358.822C1.94474 362.767 5.90153 365.922 10.6497 369.867L48.6348 403" stroke="black" stroke-width="5" stroke-linecap="round"/>
<path d="M52.6348 365L48.6348 403" stroke="black" stroke-width="5" stroke-linecap="round"/>
<path d="M52.6348 365L9.63477 337" stroke="black" stroke-width="5" stroke-linecap="round"/>
<path d="M51.6348 366L78.6348 362" stroke="black" stroke-width="5" stroke-linecap="round"/>
<path d="M48.6348 403L272.635 408" stroke="black" stroke-width="5" stroke-linecap="round"/>
<path d="M273.635 364L272.635 407" stroke="black" stroke-width="5" stroke-linecap="round"/>
<ellipse cx="78.6348" cy="386.5" rx="5" ry="4.5" fill="black"/>
<circle cx="104.135" cy="427.5" r="4.5" fill="black"/>
<ellipse cx="248.635" cy="384.5" rx="5" ry="4.5" fill="black"/>
<ellipse cx="277.135" cy="429" rx="4.5" ry="5" fill="black"/>
<path d="M26.6348 406L65.4623 443.768C71.009 449.393 85.2722 451 116.968 451C146.3 451 249.563 448.054 297.635 448.589" stroke="black" stroke-width="5" stroke-linecap="round"/>
<path d="M298.635 408L297.635 448" stroke="black" stroke-width="5" stroke-linecap="round"/>
<path d="M298.635 408L273.635 397" stroke="black" stroke-width="5" stroke-linecap="round"/>
<path d="M31.5851 388C31.8684 392.636 31.0751 402.527 25.6348 405" stroke="black" stroke-width="5" stroke-linecap="round"/>
<path d="M74.3281 405C76.4356 407.409 79.0699 414.638 76.699 425.882C74.8476 434.662 71.9572 442.748 65.6348 441.945" stroke="black" stroke-width="5" stroke-linecap="round"/>
<path d="M298.635 408H269.635" stroke="black" stroke-width="5" stroke-linecap="round"/>
<path d="M47.6348 426L12.6348 446" stroke="black" stroke-width="5" stroke-linecap="round"/>
<path d="M12.6348 446C7.61309 455.73 -0.210137 482.92 8.67029 517" stroke="black" stroke-width="5" stroke-linecap="round"/>
<path d="M8.63477 517.028L200.635 526.5" stroke="black" stroke-width="5" stroke-linecap="round"/>
<path d="M273.135 450L258.635 469M190.135 496C176.771 493.492 90.4109 471.5 41.3567 459.485C32.0762 457.396 16.6971 457.918 15.9016 477.508C14.8409 486.389 16.3789 504.464 31.0156 505.718C45.6523 506.972 137.611 510.91 186.135 513" stroke="black" stroke-width="5" stroke-linecap="round"/>
<path d="M361.694 900.634C356.048 878.064 336.335 838.749 333.593 815L407.616 819.796C417.44 846.742 431.194 910.363 407.616 949.275C384.039 988.187 324 986.954 317.832 977.363C314.405 969.827 308.371 952.563 333.593 949.275C365.121 945.164 367.865 925.297 361.694 900.634Z" fill="black"/>
<path d="M578.274 974.951C515.442 966.742 476.834 865.301 466.135 814L520.635 801.5C528.284 856.768 554.143 899.709 563.249 912.022C587.153 941.434 641.107 983.159 578.274 974.951Z" fill="black"/>
<path d="M279.712 516C269.453 554.014 256.041 653.941 275.739 795.98C302.787 812.597 393.032 835.86 537.635 795.98C529.054 730.651 511.166 616.247 485.648 555.607" stroke="black" stroke-width="5" stroke-linecap="round"/>
<path d="M309.635 387.745C317.863 368.101 335.555 333.335 354.206 356.908C372.858 380.481 374.092 430.918 385.063 408.303L405.635 354.167" stroke="black" stroke-width="5" stroke-linecap="round"/>
<path d="M548.114 301.511C517.199 330.884 485.842 335.14 473.77 336.5C449.135 339.275 408.27 314 408.27 286.5C430.593 270.374 446.813 240.065 451.993 227.749C457.811 232.669 465.379 230.796 468.436 229.245C472.366 226.687 479.904 217.059 478.619 199.014C477.334 180.968 464.232 185.813 457.842 190.491L425.913 193.931C427.256 164.096 408.865 154.14 399.502 152.892C406.861 136.364 393.699 129.133 386.773 126.292C376.837 138.469 363.817 143.375 358.312 145.656C302.277 160.315 268.074 140.245 252.287 115.197C235.15 89.9117 237.924 30.535 286.405 16.0804C302.258 9.98027 339.84 4.97862 363.348 33.7734C432.552 8.34136 465.305 81.1271 474.291 107.558L484.676 131.657C574.861 150.841 582.798 236.14 566.957 273.496C559.775 290.434 558.83 291.331 548.589 301.059L548.114 301.511Z" fill="black"/>
<path d="M343.817 320.908C328.317 321.908 287.135 341 283.138 400.001" stroke="black" stroke-width="5" stroke-linecap="round"/>
<path d="M285.14 474C284.434 468.619 281.14 459.5 283.14 450" stroke="black" stroke-width="5" stroke-linecap="round"/>
<path d="M382.817 320.908C452.317 309.408 471.953 365.252 479.633 391C493.673 435.427 479.633 531 284.865 502.33C273.635 500.677 268.136 485.585 290.133 471.124C313.14 456 337.635 446.5 367.14 440.5" stroke="black" stroke-width="5" stroke-linecap="round"/>
<path d="M280.652 514.176C299.519 532.475 363.623 559.649 469.099 521.951C471.335 517.168 472.498 486.481 469.099 476.59" stroke="black" stroke-width="5" stroke-linecap="round"/>
<path d="M425.867 194.417C422.26 214.947 404.555 228.508 386.768 225.383C368.982 222.259 356.958 203.475 360.565 182.945C364.171 162.415 381.877 148.854 399.663 151.978C417.45 155.103 429.473 173.887 425.867 194.417Z" stroke="black" stroke-width="5"/>
<path d="M338.648 191.625C335.041 212.155 317.336 225.716 299.549 222.591C281.763 219.467 269.739 200.683 273.346 180.153C276.952 159.623 294.658 146.062 312.444 149.186C330.231 152.311 342.254 171.095 338.648 191.625Z" stroke="black" stroke-width="5"/>
<path d="M339.263 183.913L360.902 185.252" stroke="black" stroke-width="5" stroke-linecap="round"/>
<path d="M351.368 204.997C345.026 221.285 332.057 234.878 346.395 245.193" stroke="black" stroke-width="5" stroke-linecap="round"/>
<path d="M331.362 266.697C335.704 271.496 347.816 278.215 361.528 266.697" stroke="black" stroke-width="5" stroke-linecap="round"/>
<circle cx="300.057" cy="200.421" r="9" transform="rotate(9.96339 300.057 200.421)" fill="black"/>
<circle cx="384.057" cy="198.421" r="9" transform="rotate(9.96339 384.057 198.421)" fill="black"/>
<path d="M465.904 202.842C467.005 205.82 468.072 212.69 463.532 216.347" stroke="black" stroke-width="5" stroke-linecap="round"/>
<path d="M282.101 143.609C269.186 168.256 257.569 228.475 309.145 280.414C360.72 332.354 416.008 283.641 437.206 252.792L452.198 226.886C458.424 232.388 472.08 237.339 476.89 213.125C481.701 188.911 472.209 185.619 466.862 187C463.963 187.651 457.611 190.526 455.392 196.819" stroke="black" stroke-width="5" stroke-linecap="round"/>
<path d="M425.865 193.024L461.288 189.501" stroke="black" stroke-width="5" stroke-linecap="round"/>
<path d="M394.006 176.009C399.599 176.806 410.736 181.285 410.543 192.826" stroke="black" stroke-width="5" stroke-linecap="round"/>
<path d="M287.451 180.521C291.718 178.646 302.152 176.41 309.751 182.47" stroke="black" stroke-width="5" stroke-linecap="round"/>
<path d="M389.635 319.803V296" stroke="black" stroke-width="5" stroke-linecap="round"/>
<path d="M337.635 300.868V322" stroke="black" stroke-width="5" stroke-linecap="round"/>
<path d="M297.944 740.368C323.206 753.976 385.676 772.445 483.447 751.662" stroke="black" stroke-width="5" stroke-linecap="round"/>
<path d="M315.488 551.868L338.019 791.868M293.64 678.054C324.136 685.27 399.194 695.373 455.453 678.054" stroke="black" stroke-width="5" stroke-linecap="round"/>
<path d="M293.64 612.487C317.536 618.672 378.848 627.332 432.922 612.487" stroke="black" stroke-width="5" stroke-linecap="round"/>
<path d="M465.012 706.507L483.446 791.868" stroke="black" stroke-width="5" stroke-linecap="round"/>
<path d="M386.495 593.93L420.633 791.868" stroke="black" stroke-width="5" stroke-linecap="round"/>
</svg>
