<svg width="421" height="785" viewBox="0 0 421 785" fill="none" xmlns="http://www.w3.org/2000/svg">
<path d="M172.566 544C172.566 541.239 174.805 539 177.566 539H255.566C258.328 539 260.566 541.239 260.566 544V601C260.566 612.046 251.612 621 240.566 621H192.566C181.521 621 172.566 612.046 172.566 601V544Z" fill="black"/>
<path d="M240.566 529V545H192.566V529C192.566 515.745 203.312 505 216.566 505C229.821 505 240.566 515.745 240.566 529Z" stroke="black" stroke-width="10"/>
<circle cx="216.566" cy="574" r="10" fill="white"/>
<rect x="212.566" y="578" width="8" height="18" rx="4" fill="white"/>
<path d="M253.066 318.915C287.9 318.415 364.566 344.915 395.066 428.415" stroke="black" stroke-width="5" stroke-linecap="round"/>
<path d="M176.566 318.415C97.0664 333.915 59.0664 367.915 29.0664 433.415" stroke="black" stroke-width="5" stroke-linecap="round"/>
<path d="M253.566 321.415C258.066 308.415 253.967 299.667 249.967 298C225.967 320 189.566 311.833 176.066 298.5C171.266 302.9 174.066 315.915 176.066 319.915C202.066 348.715 239.066 332.581 253.566 321.415Z" fill="black"/>
<path d="M147.066 401.415L155.097 389.09C162.923 377.077 178.155 372.281 191.451 377.643L210.588 385.359C222.528 390.174 236.207 386.834 244.585 377.06L266.566 351.415" stroke="black" stroke-width="5" stroke-linecap="round"/>
<path d="M322.51 117.021C311.51 156.521 306.01 160.021 290.01 177.521C290.01 160.226 287.038 131.196 287.038 119.108C234.649 119.108 190.436 97.7218 174.878 87.0287C175.435 123.292 141.438 147.003 141.438 147.003C141.438 147.003 146.315 161.648 149.101 194.425C151.331 220.646 144.921 215.579 141.438 209.767C131.406 177.409 114.965 186.056 107.998 194.425C22.5106 55.5205 153.977 28.6813 179.057 31.2383C198.006 15.0591 224.432 2.38022 243.01 0.520555C310.01 -6.18637 340.346 52.9727 322.51 117.021Z" fill="black"/>
<path d="M142.609 234.49C151.609 289.436 212.017 328.945 255.609 284.436C299.202 239.926 290.478 158.454 285.821 120.436" stroke="black" stroke-width="5" stroke-linecap="round"/>
<path d="M107.01 191.021C101.51 204.521 106.67 234.435 142.61 234.435" stroke="black" stroke-width="5" stroke-linecap="round"/>
<path d="M122.861 198.436C122.065 201.324 122.702 208.169 131.609 212.436" stroke="black" stroke-width="5" stroke-linecap="round"/>
<path d="M284.609 227.436C296.34 222.545 304.609 204.436 301.428 175.436" stroke="black" stroke-width="5" stroke-linecap="round"/>
<path d="M218.609 260.436C230.109 263.436 229.382 255.18 238.109 247.936" stroke="black" stroke-width="5" stroke-linecap="round"/>
<circle cx="252.939" cy="190.585" r="7.5" fill="black"/>
<circle cx="186.939" cy="191.585" r="7.5" fill="black"/>
<path d="M170.609 174.436C172.188 169.789 178.998 161.192 193.609 163.98" stroke="black" stroke-width="5" stroke-linecap="round"/>
<path d="M240.609 165.436C244.094 162.417 253.573 158.191 263.609 165.436" stroke="black" stroke-width="5" stroke-linecap="round"/>
<path d="M216.416 186.436C215.252 196.31 214.46 216.333 220.609 217.436" stroke="black" stroke-width="5" stroke-linecap="round"/>
<path d="M376.066 535.5C373.966 541.939 373.804 544.773 371.566 551" stroke="black" stroke-width="7" stroke-linecap="round"/>
<path d="M347.488 608.5C308.018 694.342 259.106 753.347 230.983 778.462C227.566 781.514 222.496 781.573 218.867 778.775C154.169 728.902 110.459 677.329 80.5664 628.5" stroke="black" stroke-width="7" stroke-linecap="round"/>
<path d="M383.066 514C389.136 493.341 393.682 473.336 397.788 451.081C398.567 446.854 396.545 442.603 392.698 440.685C328.809 408.831 177.007 372.209 26.4028 456.463C23.1353 458.291 21.1599 461.849 21.4807 465.579C22.8328 481.3 26.7877 503.71 35.3484 530.5" stroke="black" stroke-width="7" stroke-linecap="round"/>
<path d="M376.566 569C370.182 570.915 360.036 574.507 351.566 578.743C342.651 584 333.566 574 345.066 566.5C350.566 563.167 363.966 555.5 373.566 551.5C383.166 547.5 379.566 536.5 375.566 533.5C370.233 528.667 355.566 519.5 364.566 514C368.066 512.5 372.466 512.8 382.066 516C383.899 516.667 388.466 517.6 392.066 516" stroke="black" stroke-width="5" stroke-linecap="round"/>
<path d="M376.566 569C370.182 570.915 360.036 574.507 351.566 578.743C344.557 582.249 340.264 584.994 338.067 588.5C334.067 594.882 342.067 600.118 347.067 597L370.864 585.231" stroke="black" stroke-width="5" stroke-linecap="round"/>
<path d="M371.566 598.5C369.172 599.85 365.924 601.833 362.816 604C350.864 610.231 345.364 608.731 343.364 598.731" stroke="black" stroke-width="5" stroke-linecap="round"/>
<path d="M387.566 495C399.899 500.667 420.266 524.5 403.066 574.5C399.97 583.5 384.466 601.1 374.066 609.5C361.066 620 354.066 619.5 353.066 614.5C352.561 611.973 357.483 607.717 362.816 604C365.924 601.833 369.172 599.85 371.566 598.5" stroke="black" stroke-width="5" stroke-linecap="round"/>
<path d="M410.066 550C418.399 535.833 426.766 500.9 393.566 474.5" stroke="black" stroke-width="5" stroke-linecap="round"/>
<path d="M72.0664 579.895C75.5664 579.895 77.0664 579.888 79.0664 579.895C88.2331 579.93 105.066 577.7 99.0664 568.5C96.4577 564.5 86.2744 560.471 62.5664 555C49.5664 552 58.0664 542 65.5664 531.5C68.5769 527.285 73.7807 515.5 65.5664 513C54.0664 509.5 38.0665 534.5 29.0664 534" stroke="black" stroke-width="5" stroke-linecap="round"/>
<path d="M72.0664 596.5C79.5664 598 82.5732 598.737 90.0664 600.638C112.749 606.39 118.066 595 112.066 588C106.416 581.408 87.5767 581.091 79.0664 579.895" stroke="black" stroke-width="5" stroke-linecap="round"/>
<path d="M84.0664 616.371C95.0664 619 104.794 618 104.066 610C103.511 603.887 99.0411 602.914 90.0664 600.638C82.5732 598.737 79.5664 598 72.0664 596.5" stroke="black" stroke-width="5" stroke-linecap="round"/>
<path d="M32.0666 519.5C20.8998 522.667 2.56657 563 27.0666 592C34.6622 600.991 55.4666 627.5 83.0666 627.5C88.6097 627.5 91.9924 621.739 84.0666 616.371C80.5536 613.991 74.8191 611.689 66.0666 610" stroke="black" stroke-width="5" stroke-linecap="round"/>
<path d="M25.0663 490.5C9.23297 501.333 -13.9337 534.7 20.0663 581.5" stroke="black" stroke-width="5" stroke-linecap="round"/>
</svg>
