<svg width="953" height="726" viewBox="0 0 953 726" fill="none" xmlns="http://www.w3.org/2000/svg">
<path d="M560.549 422.608C543.008 446.917 491.611 484.194 413.51 453.498C397.51 447.209 371.423 437.884 353.51 422.497C332.129 486.072 304.937 492.744 291.772 492.503C291.594 492.5 291.413 492.468 291.243 492.416C241.227 477.099 274.245 421.451 297.052 395.498C275.036 401.798 245.507 408.968 207.727 398.694C207.268 398.57 206.868 398.29 206.606 397.893C194.237 379.2 182.027 342.789 229.51 341.997C277.23 341.202 305.513 338.364 313.865 337.021C313.968 337.004 314.054 336.998 314.158 336.995C317.466 336.893 331.127 334.218 335.01 334.499C364.722 312.71 397.867 304.655 441.245 312.271C442.012 312.406 442.634 312.982 442.841 313.733C458.337 370.078 525.489 407.143 559.608 419.639C560.834 420.088 561.313 421.55 560.549 422.608Z" fill="black"/>
<path d="M186.135 361.195C178.759 363.813 165.676 362.311 160.009 352.437C153.787 341.596 146.368 332.287 140.365 327.853C135.792 325.443 127.003 325.906 128.432 347.039C129.861 368.172 138.387 386.215 142.471 392.596C144.751 395.899 152.349 401.57 164.497 397.826C176.646 394.082 184.147 392.352 186.378 391.955" stroke="black" stroke-width="5" stroke-linecap="round"/>
<path d="M269.622 495.966C257.125 510.074 231.792 541.14 235.153 549.166C238.514 557.191 251.68 548.73 257.843 543.496C266.661 536.157 287.979 516.487 296.414 501.02" stroke="black" stroke-width="5" stroke-linecap="round"/>
<path d="M165.135 622.275C160.301 611.942 157.135 596.275 130.635 585.275C126.135 583.608 113.135 572.961 129.635 570.275C136.635 569.135 139.135 570.775 146.635 572.961C156.135 578.275 153.635 576.775 161.635 583.775" stroke="black" stroke-width="5" stroke-linecap="round"/>
<path d="M146.634 572.961C146.301 566.399 143.235 550.774 133.634 540.774C121.634 528.274 140.634 528.774 147.634 540.774C153.234 550.374 156.301 559.441 157.134 562.774" stroke="black" stroke-width="5" stroke-linecap="round"/>
<path d="M147.635 540.775C149.301 532.775 155.135 522.175 165.135 543.775C165.929 545.546 167.041 548.088 168.171 550.774C170.123 555.418 172.128 560.494 172.635 562.775" stroke="black" stroke-width="5" stroke-linecap="round"/>
<path d="M168.171 550.775C172.75 543.583 182.376 536.449 187.018 559.775C187.432 561.858 187.807 564.184 188.135 566.775" stroke="black" stroke-width="5" stroke-linecap="round"/>
<path d="M187.018 559.774C190.557 554.774 198.335 551.874 201.135 580.274C203.935 608.674 204.968 618.774 205.135 620.274" stroke="black" stroke-width="5" stroke-linecap="round"/>
<path d="M182.635 723.275C181.968 720.275 178.435 701.775 169.635 651.775C160.835 601.775 189.635 609.941 205.135 620.275C209.802 629.608 220.035 654.675 223.635 680.275" stroke="black" stroke-width="5" stroke-linecap="round"/>
<path d="M391.635 591.774C390.084 585.151 389.52 573.529 386.735 568.558C384.264 564.147 379.135 567.774 377.635 572.274C373.135 584.774 362.443 617.274 378.306 663.274" stroke="black" stroke-width="5" stroke-linecap="round"/>
<path d="M391.635 591.774C390.084 585.151 389.52 573.529 386.735 568.558C384.635 542.274 400.532 531.274 404.532 558.274" stroke="black" stroke-width="5" stroke-linecap="round"/>
<path d="M407.135 583.774C405.801 570.274 400.035 543.974 411.635 540.774C418.031 539.01 420.262 544.359 420.557 551.274C420.797 556.901 419.756 563.564 418.635 568.274" stroke="black" stroke-width="5" stroke-linecap="round"/>
<path d="M373.134 718.274C371.469 702.082 371.653 678.256 378.306 663.274C379.576 660.414 381.082 657.875 382.857 655.774C388.528 649.06 396.937 646.811 409.134 652.774C417.134 656.685 421.134 670.774 421.134 697.274" stroke="black" stroke-width="5" stroke-linecap="round"/>
<path d="M420.557 551.274C426.583 548.608 436.434 548.274 427.634 568.274C418.834 588.274 426.977 590.941 435.144 588.274" stroke="black" stroke-width="5" stroke-linecap="round"/>
<path d="M426.135 600.274C433.135 589.108 447.735 571.474 458.135 582.274C460.468 584.608 461.835 591.874 448.635 598.274C435.435 604.674 426.801 634.608 424.135 649.274" stroke="black" stroke-width="5" stroke-linecap="round"/>
<path d="M535.844 723.02C534.502 709.848 536.73 688.913 551.344 684.114M587.344 720.52C586.944 699.72 577.51 689.186 572.844 686.52C563.723 682.764 556.701 682.355 551.344 684.114M551.344 684.114C551.843 676.249 554.344 657.02 549.344 643.02C543.545 626.783 534.844 592.02 551.344 599.02C554.51 600.519 560.344 606.519 558.344 618.519C555.844 633.519 566.844 630.519 568.844 622.519C570.844 614.519 570.344 576.019 582.844 577.019C592.844 577.819 592.51 596.114 589.344 604.615M586.344 617.52C589.344 595.02 602.939 576.815 611.344 584.52C614.695 587.592 613.116 594.616 609.675 602.02M599.541 618.519C603.073 613.958 606.955 607.87 609.675 602.02M607.344 630.02C613.844 625.52 617.071 619 623.01 614M623.01 614C625.51 610.5 630.01 603.98 625.51 599.5C622.831 596.833 615.01 593.5 609.675 602.02M623.01 614C628.323 614.333 636.533 621.22 623.782 632.02C607.844 645.52 592.344 670.52 590.344 686.52" stroke="black" stroke-width="5" stroke-linecap="round"/>
<path d="M535.844 723.02C534.502 709.848 536.73 688.913 551.344 684.114C556.701 682.355 563.723 682.764 572.844 686.52C577.51 689.186 586.944 699.72 587.344 720.52" stroke="black" stroke-width="5" stroke-linecap="round"/>
<path d="M623.01 614C628.323 614.333 636.533 621.22 623.782 632.02C607.844 645.52 592.344 670.52 590.344 686.52" stroke="black" stroke-width="5" stroke-linecap="round"/>
<path d="M607.344 630.02C613.844 625.52 617.072 619 623.01 614C625.51 610.5 630.01 603.98 625.51 599.5C622.832 596.833 615.01 593.5 609.675 602.02" stroke="black" stroke-width="5" stroke-linecap="round"/>
<path d="M586.344 617.52C589.344 595.02 602.939 576.815 611.344 584.52C614.695 587.592 613.116 594.616 609.675 602.02C606.955 607.87 603.073 613.958 599.541 618.519" stroke="black" stroke-width="5" stroke-linecap="round"/>
<path d="M551.343 684.114C551.843 676.249 554.343 657.02 549.343 643.02C543.544 626.783 534.843 592.02 551.343 599.02C554.51 600.519 560.343 606.519 558.343 618.519C555.843 633.519 566.843 630.519 568.843 622.519C570.843 614.519 570.343 576.019 582.843 577.019C592.843 577.819 592.51 596.114 589.343 604.615" stroke="black" stroke-width="5" stroke-linecap="round"/>
<path d="M8.80176 339.053C5.80486 342.669 3.47056 352.915 18.1085 364.973" stroke="black" stroke-width="5" stroke-linecap="round"/>
<path d="M19.5273 346.467C16.9527 352.799 14.9633 368.58 27.6031 381.047" stroke="black" stroke-width="5" stroke-linecap="round"/>
<path d="M44.1016 389.282C39.1564 392.996 35.2531 416.675 59.2017 481.678" stroke="black" stroke-width="5" stroke-linecap="round"/>
<path d="M30.7705 366.687C26.653 374.936 22.7325 394.715 39.9906 407.839" stroke="black" stroke-width="5" stroke-linecap="round"/>
<path d="M565.51 493.5C582.01 491 620.71 476.2 643.51 437" stroke="black" stroke-width="5" stroke-linecap="round"/>
<path d="M641.01 473C647.343 471.333 662.41 464.2 672.01 449" stroke="black" stroke-width="5" stroke-linecap="round"/>
<path d="M218.01 88.5C235.843 96.1667 257.51 127 219.01 135C211.01 136.662 207.01 126.357 213.01 121.5C232.355 105.839 270.919 161.795 236.51 179C210.51 192 212.51 151 239.01 165C265.51 179 277.01 213 253.51 228" stroke="black" stroke-width="5" stroke-linecap="round"/>
<path d="M895.51 431C906.51 422.834 924.901 398.586 912.01 386.5C904.01 379 892.184 387.245 897.51 395.5C907.51 411 927.343 381.113 934.01 367C936.343 360.5 938.51 345.5 927.01 345.5C912.51 345.5 915.51 369 931.51 365.5C943.273 362.927 952.51 340.5 949.51 313.5" stroke="black" stroke-width="5" stroke-linecap="round"/>
<path d="M441.115 309.871C448.034 306.255 463.126 300.61 470.915 278.736C472.391 275.879 473.377 272.714 474.801 269.643C502.837 209.136 560.839 222.245 573.249 221.749" stroke="black" stroke-width="5" stroke-linecap="round"/>
<path d="M470.916 278.736C453.209 272.688 426.881 257.196 410.43 222.116C393.978 187.036 463.87 105.634 479.94 102.473C492.797 99.9443 499.001 101.321 499.831 108.688C502.191 147.83 493.279 164.766 480.027 193.788C475.371 203.983 474.31 210.516 481.037 210.469C500.438 206.931 547.524 204.479 580.657 222.976" stroke="black" stroke-width="5" stroke-linecap="round"/>
<path d="M573.249 221.749C576.077 221.635 578.394 222.049 580.273 222.769C584.99 224.577 586.954 228.32 587.36 230.532C589.799 239.137 601.276 256.011 627.669 254.665C644.266 255.718 673.203 271.999 656.18 328.701" stroke="black" stroke-width="5" stroke-linecap="round"/>
<path d="M627.033 354.088C644.297 342.842 684.051 322.214 704.946 329.678C725.841 337.143 722.04 355.821 717.529 364.228C707.711 382.892 676.674 421.967 631.055 428.949C574.03 437.676 552.539 388.917 577.797 339.458" stroke="black" stroke-width="5" stroke-linecap="round"/>
<path d="M771.425 323.151C774.299 324.815 777.198 330.068 765.805 337.76C751.564 347.375 734.819 349.797 721.703 350.261" stroke="black" stroke-width="5" stroke-linecap="round"/>
<path d="M768.409 311.689C771.673 312.545 776.847 316.037 771.426 323.151C769.681 325.195 765.277 329.171 761.617 328.721" stroke="black" stroke-width="5" stroke-linecap="round"/>
<path d="M747.202 318.862L763.515 302.617C764.622 301.606 767.66 300.187 770.948 302.602C775.057 305.621 769.55 309.971 768.41 311.688C767.498 313.063 762.121 317.654 759.547 319.779" stroke="black" stroke-width="5" stroke-linecap="round"/>
<path d="M734.2 316.31L748.92 304.429C750.889 302.632 755.9 300.358 760.189 305.65" stroke="black" stroke-width="5" stroke-linecap="round"/>
<path d="M705.314 329.341C708.831 322.069 717.983 307.621 726.043 301.618C730.614 298.213 734.167 294.202 737.939 296.851C743.388 300.678 736.571 306.464 735.481 311.958C735.427 313.124 735.066 314.743 734.199 316.311C732.791 318.857 730.053 321.27 725.142 321.396" stroke="black" stroke-width="5" stroke-linecap="round"/>
<path d="M500.232 107.645L510.572 98.2059L521.393 93.7441C525.738 91.5828 534.96 83.3907 529.903 77.8515C525.452 72.9755 520.23 76.8954 515.798 80.9406L512.195 85.8926" stroke="black" stroke-width="5" stroke-linecap="round"/>
<path d="M515.797 80.9405C516.657 76.1968 523.5 70.9612 530.569 67.4567C539.424 63.0667 536.615 54.7986 531.029 53.1283C526.56 51.7922 520.068 60.6516 516.691 64.8623" stroke="black" stroke-width="5" stroke-linecap="round"/>
<path d="M516.693 64.8627C520.07 60.652 526.561 51.7926 531.03 53.1287C532.201 49.4539 531.841 43.5185 528.383 41.3287C526.15 39.9154 522.977 39.3468 516.92 44.3457C514.206 49.5308 512.055 50.1406 510.625 58.2157" stroke="black" stroke-width="5" stroke-linecap="round"/>
<path d="M510.623 58.2147C512.053 50.1397 514.204 49.5299 516.918 44.3447C514.141 40.5608 507.167 36.185 501.489 48.9506L495.869 63.5591" stroke="black" stroke-width="5" stroke-linecap="round"/>
<path d="M501.491 48.9511C497.472 46.527 487.663 46.4099 480.571 65.3401C473.48 84.2702 477.688 97.5336 480.679 101.799" stroke="black" stroke-width="5" stroke-linecap="round"/>
<path d="M532.355 210.539C543.536 139.131 587.119 121.959 607.513 122.298C576.672 159.116 588.288 199.874 597.951 215.651L585.395 227.112C584.574 220.279 549.692 213.216 532.355 210.539Z" fill="black"/>
<path d="M717.18 309.707C686.244 312.898 671.556 301.258 663.979 296.665C655.165 260.139 636.812 253.381 628.737 254.568L644.006 237.921C664.08 238.553 686.053 229.102 694.53 224.297C695.698 229.73 700.902 232.02 703.359 232.485C706.767 232.759 715.409 230.557 722.705 219.564C730.001 208.571 720.277 205.533 714.503 205.387L694.533 193.152C708.598 176.522 702.413 162.581 697.562 157.689C709.173 151.423 704.794 141.385 702.06 136.659C690.899 139.265 681.195 136.299 677 135.163C638.112 118.668 627.3 91.8448 629.342 70.348C630.709 48.1133 658.758 15.0618 693.193 28.3093C705.065 31.8479 728.994 45.7006 729.744 72.799C781.035 88.9388 767.527 145.559 760.943 164.824L756.205 183.366C799.738 234.615 763.901 283.758 740.54 301.923C739.172 288.387 724.397 301.472 717.18 309.707Z" fill="black"/>
<path d="M693.836 192.912C682.831 202.958 667.002 202.823 658.421 193.422C649.839 184.021 651.144 168.245 662.149 158.2C673.153 148.155 688.982 148.289 697.564 157.69C706.146 167.091 704.84 182.867 693.836 192.912Z" stroke="black" stroke-width="5"/>
<path d="M644.715 152.451C633.71 162.497 617.881 162.362 609.3 152.961C600.718 143.56 602.023 127.785 613.028 117.739C624.032 107.694 639.861 107.828 648.443 117.229C657.025 126.63 655.719 142.407 644.715 152.451Z" stroke="black" stroke-width="5"/>
<path d="M648.957 148.771L660.857 159.182" stroke="black" stroke-width="5" stroke-linecap="round"/>
<path d="M646.557 166.337C635.64 172.918 622.096 174.991 625.781 187.334" stroke="black" stroke-width="5" stroke-linecap="round"/>
<path d="M606.221 148.323C609.014 151.383 613.758 151.599 616.817 148.806C619.876 146.014 620.093 141.27 617.3 138.211C614.507 135.151 609.763 134.935 606.704 137.728C603.645 140.52 603.429 145.264 606.221 148.323Z" fill="black"/>
<path d="M654.668 188.046C657.461 191.106 662.204 191.321 665.263 188.529C668.322 185.736 668.539 180.993 665.746 177.933C662.953 174.874 658.209 174.658 655.15 177.45C652.091 180.243 651.875 184.987 654.668 188.046Z" fill="black"/>
<path d="M713.659 216.113C712.968 218.322 710.525 222.765 706.274 222.855" stroke="black" stroke-width="5" stroke-linecap="round"/>
<path d="M633.904 100.036C615.467 108.516 581.936 138.116 588.583 191.082C595.23 244.048 648.854 240.545 674.837 232.173L695.034 223.892C696.178 229.842 701.858 238.784 715.422 226.944C728.986 215.104 724.97 208.975 721.268 207.391C719.304 206.476 714.355 205.306 710.271 207.952" stroke="black" stroke-width="5" stroke-linecap="round"/>
<path d="M694.91 192.608L716.935 206.353" stroke="black" stroke-width="5" stroke-linecap="round"/>
<path d="M675.552 172.368C678.426 175.319 682.862 182.867 677.61 189.445" stroke="black" stroke-width="5" stroke-linecap="round"/>
<path d="M620.551 123.734C623.85 124.552 630.872 127.908 632.56 134.792" stroke="black" stroke-width="5" stroke-linecap="round"/>
<path d="M553.217 421.337C556.712 419.727 565.897 414.907 574.682 408.512" stroke="black" stroke-width="5" stroke-linecap="round"/>
<path d="M608.643 192.136C609.621 197.925 615.54 209.278 631.394 208.373" stroke="black" stroke-width="5" stroke-linecap="round"/>
</svg>
