<svg width="1194" height="1064" viewBox="0 0 1194 1064" fill="none" xmlns="http://www.w3.org/2000/svg">
<circle cx="567.425" cy="15.5" r="15.5" fill="black"/>
<path d="M592.899 16.8242C619.121 14.1245 660.265 17.3169 665.128 37.5999C669.99 57.8828 651.421 65.3012 641.528 66.4749C603.865 72.4612 553.925 69.6442 553.925 37.5999" stroke="black" stroke-width="5" stroke-linecap="round"/>
<circle cx="582.964" cy="41.585" r="5.5" fill="black"/>
<circle cx="607.964" cy="41.585" r="5.5" fill="black"/>
<circle cx="633.964" cy="41.585" r="5.5" fill="black"/>
<circle cx="1107.42" cy="764.5" r="14.5" fill="black"/>
<path d="M1131 754C1139.79 754 1164.92 754 1176.74 754C1186.31 754 1190.92 756.118 1190.92 770.942C1190.92 785.345 1190.8 804.002 1190.92 811.532C1191.01 816.826 1188.37 822.685 1179.58 823.532C1170.78 824.379 1135.49 823.885 1118.94 823.532C1112.8 823.532 1101.92 820.048 1101.92 805.884L1101.92 790.001" stroke="black" stroke-width="5" stroke-linecap="round"/>
<path d="M1124.92 779L1146.92 794" stroke="black" stroke-width="5" stroke-linecap="round"/>
<path d="M1146.92 794L1186.92 757" stroke="black" stroke-width="5" stroke-linecap="round"/>
<path d="M1116.92 807L1133.05 785M1157.06 785L1178.92 807" stroke="black" stroke-width="5" stroke-linecap="round"/>
<path d="M591.925 419C595.143 427.947 607.469 446.306 631.027 448.173C660.474 450.507 664.336 457.976 663.21 490.183C662.084 522.391 679.697 539.716 704.925 520C764.425 473.5 736.425 585 713.925 650" stroke="black" stroke-width="5" stroke-linecap="round"/>
<path d="M822.925 138.973C849.446 144.413 837.01 180.92 856.449 190.635C879.649 202.231 887.638 136.942 884.619 109.23C883.754 97.0797 869.604 91.6753 867.695 109.23C865.668 127.878 888.81 200.188 915.331 172.285L933.04 151.799C937.96 145.737 947.66 137.316 955.858 151.799C964.054 166.283 977.116 161.497 982.622 157.293L999.925 144.709" stroke="black" stroke-width="5" stroke-linecap="round"/>
<path d="M987.319 89.0253L1125.75 65.575C1126.74 65.4078 1127.33 66.6341 1126.59 67.3041L1062.05 125.425C1061.98 125.491 1061.9 125.545 1061.81 125.583C1056.2 127.892 1034.1 119.131 1022.68 113.997C1022.12 113.744 1021.47 114.05 1021.3 114.642C1018.57 124.285 1015.22 133.235 1013.58 137.258C1013.4 137.693 1012.92 137.947 1012.56 137.641C1009.25 134.794 1008.84 116.617 1009.08 106.56C1009.09 106.046 1008.72 105.61 1008.21 105.52C999.735 104.005 988.071 96.4393 983.147 92.7215" stroke="black" stroke-width="5" stroke-linecap="round"/>
<path d="M1022.15 114C1036.66 107.119 1073.39 89.8864 1104.15 76" stroke="black" stroke-width="5" stroke-linecap="round"/>
<path d="M1013.15 138L1040.15 122" stroke="black" stroke-width="5" stroke-linecap="round"/>
<path d="M1019.15 100L1056.15 88" stroke="black" stroke-width="5" stroke-linecap="round"/>
<path d="M431.925 205C412.425 322 407.925 339 362.925 370.5" stroke="black" stroke-width="5" stroke-linecap="round"/>
<path d="M348.925 600.176C380.584 775.227 533.749 908 717.925 908C925.032 908 1092.92 740.107 1092.92 533C1092.92 387.891 1010.5 262.033 889.925 199.684" stroke="black" stroke-width="5" stroke-linecap="round"/>
<path d="M374.347 382.5C432.328 250.324 564.345 158 717.925 158C755.103 158 791.018 163.41 824.925 173.487" stroke="black" stroke-width="5" stroke-linecap="round"/>
<path d="M1033.09 244.202L1044.7 222.438" stroke="black" stroke-width="5" stroke-linecap="round"/>
<path d="M1055.56 263.059L1073.91 246.089" stroke="black" stroke-width="5" stroke-linecap="round"/>
<path d="M1066.53 286.418L1097.43 286.995" stroke="black" stroke-width="5" stroke-linecap="round"/>
<path d="M566.047 923.219L537.478 939.189" stroke="black" stroke-width="5" stroke-linecap="round"/>
<path d="M609.497 944.766C610.943 949.054 621.798 967.98 627.045 976.907" stroke="black" stroke-width="5" stroke-linecap="round"/>
<path d="M585.345 943.951C582.679 949.326 574.165 966.498 570.24 974.412" stroke="black" stroke-width="5" stroke-linecap="round"/>
<path d="M692.925 882C684.912 906 657.925 898.333 649.925 891C626.425 868.5 594.473 816.534 598.973 793.034C603.473 769.533 592.473 744.534 569.973 730.034C551.973 718.434 550.806 702.534 552.473 696.034C554.14 685.534 559.373 658.334 566.973 633.534C574.573 608.734 611.473 621.201 628.973 630.534C636.806 654.701 661.073 701.634 695.473 696.034C729.873 690.434 751.473 709.7 757.973 720.034C761.973 733.867 760.173 767.834 720.973 793.034C671.973 824.534 703.762 849.538 692.925 882Z" fill="black"/>
<path d="M816.425 560C859.625 551.2 870.758 591 870.925 612C869.925 623.5 871.225 659.3 884.425 710.5C900.925 774.5 920.925 759 954.925 727.5C988.925 696 987.425 679 995.925 629.5C1004.42 580 1014.92 572 1034.42 550.5C1053.92 529 1025.42 485.5 987.425 474C949.425 462.5 948.425 455.5 887.925 427C827.425 398.5 787.425 449.5 768.425 490C749.425 530.5 762.425 571 816.425 560Z" fill="black"/>
<path d="M1017.93 706C1001.93 720 1001.26 694.833 1002.93 680.5C1006.42 660.5 1024.42 656.5 1029.92 638C1032.06 630.812 1042.42 628 1045.92 638C1050.6 651.348 1037.93 688.5 1017.93 706Z" fill="black"/>
<path d="M486.925 527.999C478.925 540.999 439.425 513.499 436.925 510.499C425.425 499.999 402.608 475.929 399.925 454.999C397.425 435.5 385.925 401.5 374.425 383.5C399.925 339.5 406.925 317.833 429.925 294.5C469.925 259.7 505.258 278.666 516.925 291.499C525.758 305.499 552.825 328.098 590.425 306.498C628.025 284.898 639.758 315.498 640.925 333.498C639.925 352.832 627.325 391.998 584.925 393.998C531.925 396.498 531.425 424.498 528.425 448.998C526.025 468.598 511.091 465.499 503.925 461.499C496.758 455.165 478.525 446.299 462.925 461.499C447.325 476.699 464.425 496.832 474.925 504.999C482.258 511.332 493.397 517.482 486.925 527.999Z" fill="black"/>
<path d="M664.925 262C700.125 267.2 689.701 291 685.425 303.5C675.025 333.901 719.188 329.5 726.425 317C735.591 301.167 757.525 269.9 771.925 271.5C786.325 273.1 795.258 262.167 797.925 256.5C803.525 212.5 757.258 215.167 733.425 222C722.925 228.167 696.225 238.6 673.425 231C650.625 223.4 633.592 225.167 627.925 227C584.425 254 620.925 255.5 664.925 262Z" fill="black"/>
<path d="M647.844 580.971C650.609 589.471 646.174 609.143 605.534 613.91C590.157 615.713 587.847 615.46 573.415 614.242" stroke="black" stroke-width="5" stroke-linecap="round"/>
<path d="M653.486 556.263C660.259 558.172 666.351 565.555 647.844 580.972C643.797 584.343 638.573 588.099 631.923 592.265" stroke="black" stroke-width="5" stroke-linecap="round"/>
<path d="M650.469 538.362C657.568 538.28 664.441 542.281 653.486 556.263C648.743 562.317 640.658 570.242 627.802 580.518" stroke="black" stroke-width="5" stroke-linecap="round"/>
<path d="M563.652 549.304C595.938 516.132 609.726 514.459 603.243 541.635C596.761 568.811 620.814 545.458 633.311 532.022C638.333 526.437 649.513 517.455 654.058 526.205C655.622 529.216 653.898 533.574 650.469 538.362C643.932 547.487 631.197 558.17 623.211 564.054" stroke="black" stroke-width="5" stroke-linecap="round"/>
<path d="M511.981 638.997C481.462 650.996 411.925 652.5 348.925 600" stroke="black" stroke-width="5" stroke-linecap="round"/>
<path d="M536.003 583.799C530.329 605.362 522.815 622.3 514.315 635.501C513.403 636.918 514.496 638.811 516.176 638.686C531.999 637.51 546.493 635.754 561.028 610.782C572.211 591.57 567.962 566.924 558.481 554.309" stroke="black" stroke-width="5" stroke-linecap="round"/>
<path d="M281.425 263C281.425 280.619 294.397 294.5 309.925 294.5C325.453 294.5 338.425 280.619 338.425 263C338.425 245.381 325.453 231.5 309.925 231.5C294.397 231.5 281.425 245.381 281.425 263Z" stroke="black" stroke-width="5"/>
<path d="M358.425 272.5C358.425 290.431 371.43 304.5 386.925 304.5C402.42 304.5 415.425 290.431 415.425 272.5C415.425 254.569 402.42 240.5 386.925 240.5C371.43 240.5 358.425 254.569 358.425 272.5Z" stroke="black" stroke-width="5"/>
<path d="M355.425 266.5L339.425 265" stroke="black" stroke-width="5" stroke-linecap="round"/>
<path d="M345.726 277C348.727 291.799 357.851 305.295 343.925 311.925" stroke="black" stroke-width="5" stroke-linecap="round"/>
<circle r="9" transform="matrix(-1 0 0 1 400.925 288.722)" fill="black"/>
<circle r="9" transform="matrix(-1 0 0 1 324.925 279.722)" fill="black"/>
<path d="M317.925 257.73C313.219 257.57 303.431 259.744 301.925 269.722" stroke="black" stroke-width="5" stroke-linecap="round"/>
<path d="M407.158 270.175C403.813 267.945 395.284 264.488 387.925 268.502" stroke="black" stroke-width="5" stroke-linecap="round"/>
<path d="M332.925 339.815C344.958 346.007 353.958 342.007 358.493 335.311" stroke="black" stroke-width="5" stroke-linecap="round"/>
<path d="M76.2642 420.655C116.271 458.354 161.544 467.05 177.106 468.803C170.425 340 203.925 322.5 226.925 316.5C200.425 295 208.925 250 238.425 250C238.425 207.5 275.31 198.456 284.238 194.794C297.044 210.49 313.828 216.813 320.924 219.754C393.155 238.65 437.243 212.78 457.592 180.492C479.683 147.899 476.107 71.3604 413.614 52.7281C393.179 44.8648 344.735 38.4176 314.433 75.5348C225.226 42.7522 183.007 136.575 171.424 170.645L158.038 201.709C41.7875 226.438 29.6526 337.242 51.9752 384.544C60.1897 401.95 65.9903 410.973 76.2642 420.655Z" fill="black"/>
<path d="M557.924 554.293C344.925 520.5 431.697 429.171 351.371 361.396C287.111 307.176 232.1 313.78 212.627 323.859C188.981 332.896 144.425 405.5 212.424 692.5" stroke="black" stroke-width="5" stroke-linecap="round"/>
<path d="M161.425 937.5C133.889 820.651 174.484 743.816 213.423 684C231.923 742.5 323.423 806 345.923 822C378.923 850 407.923 864 425.423 867.5C412.925 937.5 412.925 966.5 412.925 1016C412.925 1109.5 188.961 1054.35 161.425 937.5Z" fill="black"/>
<path d="M422.925 867C426.425 851.667 433.925 815.3 437.925 786.5" stroke="black" stroke-width="5" stroke-linecap="round"/>
<path d="M231.342 272C228.009 275.833 223.342 286.3 231.342 297.5" stroke="black" stroke-width="5" stroke-linecap="round"/>
<path d="M280.425 255.5L232.425 248" stroke="black" stroke-width="5" stroke-linecap="round"/>
<path d="M470.926 332.002C465.426 267.668 457.925 97.0001 661.425 152.502" stroke="black" stroke-width="5" stroke-linecap="round"/>
<path d="M736.925 799C816.591 850.833 970.525 933.3 948.925 848.5" stroke="black" stroke-width="5" stroke-linecap="round"/>
</svg>
