<svg width="467" height="560" viewBox="0 0 467 560" fill="none" xmlns="http://www.w3.org/2000/svg">
<path d="M219.01 364.612C225.095 350.105 238.18 324.432 251.974 341.84C265.768 359.248 266.681 396.493 274.795 379.793L290.01 339.816" stroke="black" stroke-width="5" stroke-linecap="round"/>
<path d="M58.9805 301.511C90.0169 330.757 128.438 335.64 140.51 337C129.51 318 98.8103 270.7 112.01 239.5C107.01 231.333 98.5102 209.5 112.01 192.5C117.569 185.5 138.51 176.5 153.51 189L181.182 193.931C179.839 164.096 198.229 154.14 207.592 152.892C200.234 136.364 213.396 129.133 220.322 126.292C230.257 138.469 243.278 143.375 248.783 145.656C304.818 160.315 339.021 140.245 354.807 115.197C371.944 89.9117 369.171 30.535 320.689 16.0804C304.837 9.98027 267.255 4.97862 243.747 33.7734C174.542 8.34136 141.789 81.1271 132.804 107.558L122.419 131.657C32.2342 150.841 22.8202 236.801 40.1376 273.496C46.5103 287 51.0102 294 58.9805 301.511Z" fill="black"/>
<path d="M347.035 328.4C394.697 241.508 357.429 206.592 335.003 189.881C337.652 255.684 293.325 287.5 275.825 298.5L290.825 312.5C309.96 327 330.46 350 347.035 328.4Z" fill="black"/>
<path d="M181.228 194.417C184.835 214.947 202.54 228.508 220.326 225.383C238.113 222.259 250.136 203.475 246.53 182.945C242.924 162.415 225.218 148.854 207.432 151.978C189.645 155.103 177.622 173.887 181.228 194.417Z" stroke="black" stroke-width="5"/>
<path d="M268.447 191.625C272.053 212.155 289.759 225.716 307.545 222.591C325.332 219.467 337.355 200.683 333.749 180.153C330.142 159.623 312.437 146.062 294.65 149.186C276.864 152.311 264.84 171.095 268.447 191.625Z" stroke="black" stroke-width="5"/>
<path d="M267.832 183.913L247.038 185.368" stroke="black" stroke-width="5" stroke-linecap="round"/>
<path d="M255.727 204.997C262.069 221.285 275.037 234.878 260.7 245.193" stroke="black" stroke-width="5" stroke-linecap="round"/>
<path d="M275.733 266.697C271.391 271.496 259.279 278.215 245.567 266.697" stroke="black" stroke-width="5" stroke-linecap="round"/>
<circle r="9" transform="matrix(-0.984918 0.173019 0.173019 0.984918 307.038 200.421)" fill="black"/>
<circle r="9" transform="matrix(-0.984918 0.173019 0.173019 0.984918 223.038 198.421)" fill="black"/>
<path d="M324.994 143.609C337.909 168.255 349.525 228.474 297.95 280.414C246.375 332.353 189.51 285.5 169.889 252.791L156.01 230" stroke="black" stroke-width="5" stroke-linecap="round"/>
<path d="M213.088 176.009C207.496 176.806 196.359 181.285 196.552 192.826" stroke="black" stroke-width="5" stroke-linecap="round"/>
<path d="M319.644 180.521C315.376 178.646 304.942 176.41 297.344 182.47" stroke="black" stroke-width="5" stroke-linecap="round"/>
<path d="M290.01 307.004C322.843 326.504 389.31 377.204 400.51 430.004" stroke="black" stroke-width="5" stroke-linecap="round"/>
<path d="M139.148 237.124C148.314 236.457 171.03 226.125 160.648 201.624C148.648 173.304 116.461 188.129 111.648 195.623C107.149 202.63 101.148 219.125 112.648 239.125" stroke="black" stroke-width="5" stroke-linecap="round"/>
<path d="M169.01 287.003C176.51 280.67 196.411 271.248 206.51 290.003C217.01 309.503 196.51 332.503 181.51 331.003C166.51 329.503 151.51 319.004 147.01 296.004" stroke="black" stroke-width="5" stroke-linecap="round"/>
<path d="M147.011 295.004C150.344 287.337 158.311 274.304 163.511 283.504" stroke="black" stroke-width="5" stroke-linecap="round"/>
<path d="M169.511 283.504C169.11 279.781 167.886 275.546 165.511 272.647C160.974 267.109 152.238 266.44 137.011 283.504" stroke="black" stroke-width="5" stroke-linecap="round"/>
<path d="M165.511 272.647C166.028 268.265 165.438 262.905 162.249 260.003C158.247 256.362 150.15 256.595 135.011 267.504" stroke="black" stroke-width="5" stroke-linecap="round"/>
<path d="M162.249 260.003C161.669 253.337 155.81 242.203 137.01 251.003C118.21 259.803 127.844 238.337 135.01 226.504C137.844 222.17 143.21 212.804 142.01 210.004C140.81 207.204 133.51 211.837 130.01 214.504C119.677 222.837 102.11 247.704 114.51 280.504C126.91 313.304 139.677 333.171 144.51 339.004C146.51 341.171 148.71 348.004 141.51 358.004C132.51 370.504 56.0104 490.504 137.01 504.504" stroke="black" stroke-width="5" stroke-linecap="round"/>
<path d="M199.509 336.004C206.842 356.504 220.009 401.504 182.009 419.504C164.509 429.004 146.235 407.771 169.009 391.504C186.509 379.004 203.109 406.404 199.509 442.004C197.638 460.504 172.165 487.627 158.009 480.004C138.509 469.504 157.009 444.004 172.509 456.004C188.009 468.004 188.009 498.004 183.509 526.004C182.509 533.171 177.009 546.004 163.009 540.004C145.509 532.504 154.509 490.504 210.509 496.004M355.009 511.004C307.009 514.604 304.676 539.171 309.509 551.004C312.777 559.004 328.709 561.204 331.509 544.004C334.309 526.804 316.009 510.583 296.509 511.004C291.217 511.118 286.396 511.445 282.009 511.953M225.009 499.504L233.009 503.004C247.009 508.004 274.399 514.834 269.509 535.004C265.509 551.504 251.324 554.845 245.009 546.004C242.509 542.504 237.133 525.414 260.009 517.261" stroke="black" stroke-width="5" stroke-linecap="round"/>
<path d="M275.009 499.004C275.009 500.004 251.009 522.004 263.009 523.004C272.609 523.804 284.009 509.337 288.509 502.004" stroke="black" stroke-width="5" stroke-linecap="round"/>
<path d="M232.51 520.011C233.51 521.004 243.51 530.504 269.01 495.004" stroke="black" stroke-width="5" stroke-linecap="round"/>
<path d="M247.01 483.004C237.844 492.837 221.21 513.904 228.01 519.504C229.216 520.497 230.753 520.593 232.51 520.011C240.667 517.312 253.565 500.014 260.01 490.004" stroke="black" stroke-width="5" stroke-linecap="round"/>
<path d="M321.01 502.004C305.676 483.337 258.01 449.504 230.01 474.004C218.843 484.837 202.01 505.504 210.01 513.504C214.01 516.504 220.01 515.004 222.51 505.504C226.016 492.182 238.462 488.671 244.295 486.004" stroke="black" stroke-width="5" stroke-linecap="round"/>
<path d="M394.238 461.688L395.782 466.32C395.918 466.728 396.3 467.004 396.731 467.004H420.843C421.247 467.004 421.611 466.761 421.766 466.389L423.753 461.619C423.909 461.247 424.273 461.004 424.676 461.004H430.167C430.654 461.004 431.07 461.361 431.158 461.84C436.086 488.775 454.029 504.417 462.975 509.224C463.306 509.402 463.51 509.741 463.51 510.117V538.004C463.51 538.556 463.062 539.004 462.51 539.004H458.51C457.957 539.004 457.51 539.452 457.51 540.004V542.504C457.51 543.056 457.062 543.504 456.51 543.504H437.51C436.957 543.504 436.51 543.056 436.51 542.504V540.004C436.51 539.452 436.062 539.004 435.51 539.004H382.01C381.457 539.004 381.01 539.452 381.01 540.004V542.504C381.01 543.056 380.562 543.504 380.01 543.504H361.51C360.957 543.504 360.51 543.056 360.51 542.504V540.004C360.51 539.452 360.062 539.004 359.51 539.004H356.51C355.957 539.004 355.51 538.556 355.51 538.004V510.181C355.51 509.772 355.759 509.406 356.134 509.245C373.427 501.796 383.975 475.056 387.324 461.758C387.437 461.31 387.836 461.004 388.298 461.004H393.289C393.719 461.004 394.102 461.279 394.238 461.688Z" stroke="black" stroke-width="5" stroke-linecap="round"/>
<path d="M434.51 493.504C434.51 505.49 423.491 515.504 409.51 515.504C395.528 515.504 384.51 505.49 384.51 493.504C384.51 481.518 395.528 471.504 409.51 471.504C423.491 471.504 434.51 481.518 434.51 493.504Z" stroke="black" stroke-width="3"/>
<ellipse cx="409.51" cy="493.504" rx="10.5" ry="8.5" fill="black"/>
<circle cx="423.01" cy="485.004" r="3" fill="black"/>
<circle cx="415.01" cy="480.004" r="3" fill="black"/>
<circle cx="406.01" cy="479.004" r="3" fill="black"/>
<circle cx="398.01" cy="483.004" r="3" fill="black"/>
<circle cx="393.01" cy="489.004" r="3" fill="black"/>
<circle cx="393.01" cy="497.004" r="3" fill="black"/>
<circle cx="398.01" cy="504.004" r="3" fill="black"/>
<circle cx="406.01" cy="508.004" r="3" fill="black"/>
<circle cx="415.01" cy="507.004" r="3" fill="black"/>
<circle cx="423.01" cy="502.004" r="3" fill="black"/>
<path d="M355.51 510.004C371.843 520.337 416.31 534.804 463.51 510.004" stroke="black" stroke-width="5" stroke-linecap="round"/>
<path d="M222.01 412.5C245.843 411.833 292.91 407.4 310.51 397" stroke="black" stroke-width="7" stroke-linecap="round"/>
<path d="M217.01 445C247.01 448.333 308.61 449.7 341.01 428.5" stroke="black" stroke-width="7" stroke-linecap="round"/>
</svg>
