<svg width="465" height="485" viewBox="0 0 465 485" fill="none" xmlns="http://www.w3.org/2000/svg">
<path d="M170.639 484.48L8.09912 316.691L182.26 440.691L460.599 411.691L170.639 484.48Z" fill="black"/>
<path d="M181.013 396.191L185.472 241.601C185.545 239.082 187.481 237.01 189.99 236.768L455.12 211.219C458.057 210.936 460.599 213.245 460.599 216.196V404.791C460.599 407.307 458.73 409.431 456.234 409.751L206.76 441.712" stroke="black" stroke-width="7" stroke-linecap="round"/>
<path d="M185.599 237.691L17.097 140.515C13.7637 138.593 9.59912 140.999 9.59912 144.847V312.193C9.59912 313.766 10.3393 315.247 11.5973 316.191L95.8491 379.441L182.099 444.191" stroke="black" stroke-width="7" stroke-linecap="round"/>
<rect x="291.625" y="259.885" width="81.379" height="31.3257" rx="15.6629" transform="rotate(-4.10101 291.625 259.885)" stroke="black" stroke-width="7"/>
<path d="M275.099 348.191L302.099 345.191" stroke="black" stroke-width="7" stroke-linecap="round"/>
<path d="M299.599 366.191L328.599 362.691" stroke="black" stroke-width="7" stroke-linecap="round"/>
<path d="M373.099 336.191L393.099 334.191" stroke="black" stroke-width="7" stroke-linecap="round"/>
<path d="M316.099 342.691L359.099 337.691" stroke="black" stroke-width="7" stroke-linecap="round"/>
<path d="M343.599 360.691L369.599 357.691" stroke="black" stroke-width="7" stroke-linecap="round"/>
<path d="M213.26 219.191L227.826 191.144C228.618 189.618 230.139 188.606 231.853 188.465L451.781 170.376C455.546 170.066 458.281 173.883 456.778 177.348L442.099 211.191" stroke="black" stroke-width="7" stroke-linecap="round"/>
<path d="M322.753 4.06257L366.364 150.37C367.263 153.386 365.185 156.473 362.052 156.775L199.877 172.423C198.15 172.59 196.634 173.639 195.869 175.196L172.014 223.775C170.717 226.415 167.433 227.371 164.922 225.84L150.827 217.245C149.719 216.569 148.917 215.489 148.591 214.232L99.0976 23.4671C98.3162 20.4554 100.446 17.469 103.548 17.2267L317.572 0.506031C319.921 0.322488 322.08 1.80425 322.753 4.06257Z" fill="black"/>
<path d="M171.099 227.191L195.384 173.86C196.134 172.212 197.717 171.099 199.521 170.949L429.344 151.876C433.094 151.565 435.831 155.352 434.359 158.815L429.099 171.191" stroke="black" stroke-width="7" stroke-linecap="round"/>
<path d="M102.099 20.6914C94.0988 21.6914 53.0587 33.1051 63.5997 74.1914C74.76 117.691 81.7597 148.191 86.2597 167.191" stroke="black" stroke-width="7" stroke-linecap="round"/>
<path d="M60.5991 150.691L40.8548 71.5959C38.6767 62.8707 44.6128 54.2032 53.5353 53.0803L60.5991 52.1914" stroke="black" stroke-width="7" stroke-linecap="round"/>
<path d="M37.7599 127.191L23.0992 65.6914C21.5991 59.1914 20.5992 47.1914 33.5992 44.6914L70.5991 36.1914" stroke="black" stroke-width="7" stroke-linecap="round"/>
<path d="M24.0991 144.191L4.65773 60.9315C2.71725 52.6212 8.09134 44.3686 16.4764 42.7822L75.0991 31.6914" stroke="black" stroke-width="7" stroke-linecap="round"/>
<path d="M85.5991 62.1914L103.099 128.191" stroke="black" stroke-width="7" stroke-linecap="round"/>
<path d="M109.76 155.191L117.76 184.691" stroke="black" stroke-width="7" stroke-linecap="round"/>
</svg>
