<svg width="696" height="444" viewBox="0 0 696 444" fill="none" xmlns="http://www.w3.org/2000/svg">
<path d="M454.6 187.133L491.6 105.133C521.2 113.533 539.933 126.299 545.6 131.633C532.415 156.299 506.256 205.833 507.1 206.633C495.5 195.033 467.267 188.799 454.6 187.133Z" fill="black"/>
<path d="M241.241 189.633L204.241 107.633C174.641 116.033 155.907 128.799 150.241 134.133C163.426 158.799 189.585 208.333 188.741 209.133C200.341 197.533 228.574 191.299 241.241 189.633Z" fill="black"/>
<path d="M491.6 104.133L521.1 36.6328C502.7 29.8328 474.433 25.7995 462.6 24.6328L436.6 94.6328C454.6 93.4328 480.767 100.466 491.6 104.133Z" fill="black"/>
<path d="M204.241 106.633L174.741 39.1328C193.141 32.3328 221.407 28.2995 233.241 27.1328L259.241 97.1328C241.241 95.9328 215.074 102.966 204.241 106.633Z" fill="black"/>
<path d="M455.1 188.134C441.9 184.134 414.6 186.468 402.6 188.134L374.6 260.635L419.1 268.135L455.1 188.134Z" fill="black"/>
<path d="M240.741 190.634C253.941 186.634 281.241 188.968 293.241 190.634L321.241 263.135L276.741 270.635L240.741 190.634Z" fill="black"/>
<path d="M466.6 281.133L506.6 206.133C526.6 219.733 535.1 241.633 537.1 254.133L501.6 311.133C504 299.133 479.267 286.133 466.6 281.133Z" fill="black"/>
<path d="M229.241 283.633L189.241 208.633C169.241 222.233 160.741 244.133 158.741 256.633L194.241 313.633C191.841 301.633 216.574 288.633 229.241 283.633Z" fill="black"/>
<path d="M577.6 67.6328L545.6 130.633C570 149.033 577.1 175.966 577.6 187.133L608.1 139.133C614.1 103.533 590.267 76.6328 577.6 67.6328Z" fill="black"/>
<path d="M118.241 70.1328L150.241 133.133C125.841 151.533 118.741 178.466 118.241 189.633L87.7406 141.633C81.7406 106.033 105.574 79.1328 118.241 70.1328Z" fill="black"/>
<path d="M523.6 276.633L564.1 210.633C566.1 236.633 591.933 254.466 604.6 260.133L574.6 326.133C535 314.533 524.433 288.299 523.6 276.633Z" fill="black"/>
<path d="M172.241 279.133L131.741 213.133C129.741 239.133 103.907 256.966 91.2406 262.633L121.241 328.633C160.841 317.033 171.407 290.799 172.241 279.133Z" fill="black"/>
<path d="M632.6 382.133L656.1 330.633C620.5 336.633 587.267 330.799 575.1 327.133L550.1 382.133C564.1 385.333 610.933 383.466 632.6 382.133Z" fill="black"/>
<path d="M63.2406 384.633L39.7406 333.133C75.3406 339.133 108.574 333.299 120.741 329.633L145.741 384.633C131.741 387.833 84.9073 385.966 63.2406 384.633Z" fill="black"/>
<path d="M603.1 259.133L633.1 195.133C651.9 198.733 679.933 191.299 691.6 187.133C695.2 207.933 684.433 250.133 678.6 268.633C644.6 276.233 614.1 265.466 603.1 259.133Z" fill="black"/>
<path d="M92.7406 261.633L62.7406 197.633C43.9406 201.233 15.9073 193.799 4.2406 189.633C0.640602 210.433 11.4073 252.633 17.2406 271.133C51.2406 278.733 81.7406 267.966 92.7406 261.633Z" fill="black"/>
<path d="M229.099 20.6379L386.599 431.138C393.599 445.638 412.099 436.138 406.599 421.638L249.601 10.1365C243.1 -3.36621 223.1 6.63473 229.099 20.6379Z" stroke="black" stroke-width="5" stroke-linecap="round"/>
<path d="M343.1 348.133L310.1 433.157C303.099 446.633 280.599 442.109 288.6 417.633C304.433 378.299 329.599 311.608 331.599 307.133" stroke="black" stroke-width="5" stroke-linecap="round"/>
<path d="M365.1 287.134L465.6 17.6321C471.1 5.13242 450.6 -2.8663 445.6 10.1338L350.6 253.132" stroke="black" stroke-width="5" stroke-linecap="round"/>
<path d="M375.1 261.133C427.433 267.966 525 289.733 496.6 322.133C461.206 362.512 495.395 387.981 631.874 382.681C632.612 382.652 633.287 382.245 633.607 381.579C655.661 335.605 696.887 235.488 692.404 188.254C692.277 186.924 690.886 186.179 689.655 186.696C660.139 199.071 603.641 206.915 598.167 156.286C598.123 155.873 598.211 155.439 598.416 155.079L607.928 138.434C608.042 138.235 608.119 138.026 608.158 137.8C613.623 105.834 592.757 39.1856 465.6 25.6328" stroke="black" stroke-width="5" stroke-linecap="round"/>
<path d="M320.741 263.633C268.407 270.466 170.841 292.233 199.241 324.633C234.635 365.012 200.446 390.481 63.967 385.181C63.2283 385.152 62.5536 384.745 62.2339 384.079C40.1799 338.105 -1.04605 237.988 3.43697 190.754C3.56317 189.424 4.95417 188.679 6.18588 189.196C35.7015 201.571 92.1997 209.415 97.6732 158.786C97.7178 158.373 97.63 157.939 97.4242 157.579L87.9125 140.934C87.7987 140.735 87.7212 140.526 87.6825 140.3C82.218 108.334 103.084 41.6856 230.241 28.1328" stroke="black" stroke-width="5" stroke-linecap="round"/>
<path d="M419.6 268.133L521.1 37.1328" stroke="black" stroke-width="5" stroke-linecap="round"/>
<path d="M276.241 270.633L174.741 39.6328" stroke="black" stroke-width="5" stroke-linecap="round"/>
<path d="M502.1 312.133L608.1 138.633" stroke="black" stroke-width="5" stroke-linecap="round"/>
<path d="M193.741 314.633L87.7406 141.133" stroke="black" stroke-width="5" stroke-linecap="round"/>
<path d="M438.1 94.1328C482.433 97.2995 572.3 120.333 577.1 187.133" stroke="black" stroke-width="5" stroke-linecap="round"/>
<path d="M257.741 96.6328C213.407 99.7995 123.541 122.833 118.741 189.633" stroke="black" stroke-width="5" stroke-linecap="round"/>
<path d="M404.1 187.133C444.433 182.3 525.7 186.334 536.1 253.134" stroke="black" stroke-width="5" stroke-linecap="round"/>
<path d="M291.741 189.633C251.407 184.8 170.141 188.834 159.741 255.634" stroke="black" stroke-width="5" stroke-linecap="round"/>
<path d="M523.1 279.633C528.433 301.633 560.7 342.233 655.1 330.633" stroke="black" stroke-width="5" stroke-linecap="round"/>
<path d="M172.741 282.133C167.407 304.133 135.141 344.733 40.7406 333.133" stroke="black" stroke-width="5" stroke-linecap="round"/>
<path d="M564.1 212.133C567.267 235.133 594.5 278.833 678.1 269.633" stroke="black" stroke-width="5" stroke-linecap="round"/>
<path d="M131.741 214.633C128.574 237.633 101.341 281.333 17.7406 272.133" stroke="black" stroke-width="5" stroke-linecap="round"/>
<path d="M466.6 282.133L578.6 67.1328" stroke="black" stroke-width="5" stroke-linecap="round"/>
<path d="M229.241 284.633L117.241 69.6328" stroke="black" stroke-width="5" stroke-linecap="round"/>
<path d="M551.1 379.133L632.1 195.633" stroke="black" stroke-width="5" stroke-linecap="round"/>
<path d="M144.741 381.633L63.7406 198.133" stroke="black" stroke-width="5" stroke-linecap="round"/>
</svg>
