<svg width="285" height="219" viewBox="0 0 285 219" fill="none" xmlns="http://www.w3.org/2000/svg">
<path d="M102.459 48.135C141.884 22.8854 200.786 24.8341 229.458 38.4889C250.19 48.3625 312.142 84.8036 265.317 162.396C265.091 162.77 264.982 163.224 265.026 163.659L270.159 213.585C270.303 214.983 268.997 216.09 267.642 215.719L217.948 202.123C217.626 202.035 217.301 202.026 216.977 202.101C169.932 213.028 68.8879 218.608 63.4596 130.488C62.1972 109.995 65.9342 93.156 73.1169 79.4878" stroke="black" stroke-width="5" stroke-linecap="round"/>
<circle cx="129.959" cy="118.488" r="11.5" stroke="black" stroke-width="5"/>
<circle cx="168.959" cy="118.488" r="11.5" stroke="black" stroke-width="5"/>
<circle cx="207.959" cy="118.488" r="11.5" stroke="black" stroke-width="5"/>
<path d="M55.9609 174.986L15.6581 191.2C14.2335 191.773 12.7211 190.593 12.9303 189.072L17.8769 153.097C17.9316 152.699 17.8706 152.306 17.6932 151.945C1.92888 119.912 -15.3787 54.5419 49.4595 18.9867C111.459 -15.0122 161.461 11.9862 191.461 27.9862" stroke="black" stroke-width="5" stroke-linecap="round"/>
</svg>
