<svg width="935" height="1031" viewBox="0 0 935 1031" fill="none" xmlns="http://www.w3.org/2000/svg">
<path d="M301.099 753.18C340.266 795.18 451.099 870.28 581.099 834.68" stroke="black" stroke-width="15" stroke-linecap="round"/>
<path d="M715.845 1013.65C698.41 940.659 671.947 794.591 702.195 781.305C703.569 780.703 705.068 780.31 706.456 779.732L821.434 731.753" stroke="black" stroke-width="5" stroke-linecap="round"/>
<path d="M851.364 747.395L858.921 782.381" stroke="black" stroke-width="5" stroke-linecap="round"/>
<path d="M713.762 795.024C700.762 819.506 720.965 922.727 737.274 990.582C740.822 1005.37 756.924 1013.13 770.913 1007.05L878.985 960.058C890.031 955.252 896.066 943.285 893.361 931.601L864.977 809.808" stroke="black" stroke-width="5" stroke-linecap="round"/>
<path d="M736.671 796.499C741.945 790.082 747.395 767.423 735.152 755.839C733.043 753.82 730.386 752.142 727.097 750.942C704.897 742.825 690.735 770.404 704.088 779.894" stroke="black" stroke-width="5" stroke-linecap="round"/>
<path d="M734.81 754.83C736.701 742.395 752.843 729.407 772.301 740.191C793.21 754.971 782.706 776.705 773.172 784.288" stroke="black" stroke-width="5" stroke-linecap="round"/>
<path d="M773.183 739.122C777.149 729.319 792.107 710.415 811.841 718.185C838.344 732.645 823.087 761.129 811.995 764.775" stroke="black" stroke-width="5" stroke-linecap="round"/>
<path d="M811.617 716.832C817.642 705.943 832.677 695.418 847.359 705.828C862.042 716.24 857.384 743.832 842.463 752.665" stroke="black" stroke-width="5" stroke-linecap="round"/>
<path d="M742.099 846.68C764.435 840.18 813.306 823.28 830.099 807.68" stroke="black" stroke-width="5" stroke-linecap="round"/>
<path d="M752.099 880.68C772.946 877.436 821.856 857.815 841.099 850.68" stroke="black" stroke-width="5" stroke-linecap="round"/>
<path d="M758.099 917.68C781.627 914.105 831.767 902.5 844.099 884.68" stroke="black" stroke-width="5" stroke-linecap="round"/>
<path d="M769.099 955.68C780.873 954.096 799.985 948.713 815.099 936.68" stroke="black" stroke-width="5" stroke-linecap="round"/>
<rect x="830.059" y="916.426" width="36.0475" height="28.483" rx="2.5" transform="rotate(-20.8025 830.059 916.426)" stroke="black" stroke-width="5"/>
<path d="M41.0991 453.68L25.0991 441.68" stroke="black" stroke-width="5" stroke-linecap="round"/>
<path d="M57.0991 441.68L37.0991 413.68" stroke="black" stroke-width="5" stroke-linecap="round"/>
<path d="M76.0991 436.68L68.0991 410.68" stroke="black" stroke-width="5" stroke-linecap="round"/>
<path d="M20.8097 523.644L94.3743 597.181C95.0108 597.817 95.994 597.95 96.7765 597.505L133.672 576.533C134.471 576.079 135.476 576.228 136.109 576.893L164.182 606.394C164.833 607.078 165.874 607.214 166.678 606.719L252.689 553.809C254.094 552.945 255.881 554.056 255.729 555.697L243.099 691.602C242.994 692.735 241.966 693.552 240.838 693.399L5.02153 661.358C3.95048 661.212 3.18885 660.242 3.30174 659.167L17.4067 524.849C17.5824 523.176 19.6198 522.454 20.8097 523.644Z" stroke="black" stroke-width="5" stroke-linecap="round"/>
<path d="M26.0991 643.68L77.0991 610.68" stroke="black" stroke-width="5" stroke-linecap="round"/>
<path d="M181.099 623.68L222.099 668.68" stroke="black" stroke-width="5" stroke-linecap="round"/>
<path d="M52.0991 497.68L18.0991 521.594L50.5537 551.68L52.0991 497.68Z" fill="black"/>
<path d="M225.936 520.68L222.099 572.68L255.099 551.724L225.936 520.68Z" fill="black"/>
<path d="M181.099 466.68L110.099 458.094L149.89 434.68L181.099 466.68Z" fill="black"/>
<path d="M50.0991 552.031L54.6334 457.778C54.6883 456.636 55.6874 455.773 56.8251 455.883L228.175 472.587C229.248 472.691 230.045 473.627 229.977 474.703L223.919 570.68" stroke="black" stroke-width="5" stroke-linecap="round"/>
<path d="M70.0991 570.346L75.3528 504.78C75.4443 503.638 76.4745 502.807 77.6102 502.958L202.194 519.537C203.258 519.679 204.021 520.635 203.922 521.704L197.903 586.68" stroke="black" stroke-width="5" stroke-linecap="round"/>
<path d="M106.099 547.68L164.099 554.68" stroke="black" stroke-width="5" stroke-linecap="round"/>
<path d="M92.0991 569.68L171.099 578.68" stroke="black" stroke-width="5" stroke-linecap="round"/>
<path d="M670.599 48.3265C710.023 23.0768 768.925 25.0255 797.597 38.6803C818.329 48.554 880.282 84.995 833.456 162.588C833.231 162.962 833.121 163.416 833.166 163.85L838.299 213.776C838.442 215.175 837.137 216.281 835.781 215.91L786.087 202.314C785.766 202.226 785.441 202.217 785.116 202.293C738.071 213.22 637.028 218.799 631.599 130.679C630.337 110.186 634.074 93.3474 641.257 79.6792" stroke="black" stroke-width="5" stroke-linecap="round"/>
<circle cx="698.099" cy="118.68" r="11.5" stroke="black" stroke-width="5"/>
<circle cx="737.099" cy="118.68" r="11.5" stroke="black" stroke-width="5"/>
<circle cx="776.099" cy="118.68" r="11.5" stroke="black" stroke-width="5"/>
<path d="M624.101 175.178L583.798 191.391C582.373 191.964 580.861 190.785 581.07 189.263L586.017 153.289C586.071 152.89 586.01 152.497 585.833 152.137C570.069 120.103 552.761 54.7333 617.599 19.1781C679.599 -14.8208 729.6 12.1776 759.6 28.1776" stroke="black" stroke-width="5" stroke-linecap="round"/>
<path d="M842.099 572.18C851.432 511.346 849.199 372.58 765.599 304.18" stroke="black" stroke-width="15" stroke-linecap="round"/>
<path d="M271.099 381.68C294.599 330.18 371.999 222.48 493.599 203.68" stroke="black" stroke-width="15" stroke-linecap="round"/>
<path d="M381.099 874.68C404.099 893.18 464.499 904.28 494.099 900.68" stroke="black" stroke-width="7" stroke-linecap="round"/>
<path d="M905.13 486.76C905.787 467.894 902.718 422.394 885.194 391.32" stroke="black" stroke-width="7" stroke-linecap="round"/>
<path d="M264.287 277.142C288.383 240.737 310.322 196.944 386.599 187.68" stroke="black" stroke-width="7" stroke-linecap="round"/>
</svg>
