<svg width="563" height="486" viewBox="0 0 563 486" fill="none" xmlns="http://www.w3.org/2000/svg">
<path d="M39.4421 363.523L21.4421 330.523L192.942 235.023L195.942 266.523L199.942 275.523L39.4421 363.523Z" fill="black"/>
<path d="M156.942 194.523L168.941 215.641C169.272 216.223 169.716 216.733 170.248 217.14L191.175 233.169C192.3 234.031 193.006 235.33 193.118 236.743L195.339 264.727C195.407 265.577 195.691 266.396 196.164 267.105L211.785 290.537C212.217 291.186 212.492 291.926 212.587 292.7L216.164 321.764C216.341 323.199 217.131 324.488 218.329 325.297L254.453 349.68C255.71 350.529 256.514 351.898 256.639 353.411C257.526 364.133 259.072 382.17 259.442 384.023C259.746 385.544 263.729 392.168 267.087 397.528C268.619 399.974 267.811 403.214 265.292 404.622L133.942 478.023C126.942 482.523 107.942 485.523 99.4423 472.523L8.4423 306.523C3.44214 296.523 -0.0577345 282.523 14.4423 273.023L97.1631 227.454" stroke="black" stroke-width="7" stroke-linecap="round"/>
<path d="M541.942 296.023L524.442 329.523L371.942 246.023L378.442 233.523L400.942 219.523L541.942 296.023Z" fill="black"/>
<path d="M301.942 374.523L311.896 355.564C312.255 354.88 312.768 354.288 313.395 353.835L337.37 336.52C338.671 335.58 339.442 334.072 339.442 332.467V283.427C339.442 281.908 340.133 280.471 341.319 279.522L361.126 263.677C361.664 263.246 362.108 262.708 362.428 262.098L376.794 234.757C377.218 233.95 377.855 233.274 378.635 232.803L399.196 220.381C400.602 219.531 401.501 218.044 401.601 216.404L403.369 187.235C403.417 186.439 403.655 185.666 404.063 184.98L413.483 169.155C414.856 166.847 417.807 166.037 420.167 167.319L548.442 237.023C556.442 241.023 563.442 254.523 555.442 271.023L468.942 432.523C462.442 445.023 449.942 454.523 428.942 444.023L347.163 399.27" stroke="black" stroke-width="7" stroke-linecap="round"/>
<circle cx="128.442" cy="423.023" r="20" fill="black"/>
<circle cx="148.442" cy="413.023" r="17.5" stroke="black" stroke-width="5"/>
<circle cx="285.942" cy="117.523" r="114" stroke="black" stroke-width="7"/>
<circle cx="285.942" cy="173.523" r="13.5" fill="black"/>
<path d="M285.651 49.0234C270.3 49.0235 268.662 81.6901 269.686 98.3316C270.709 114.973 275.814 147.023 285.651 147.023C295.476 147.023 301.002 117.439 302.23 98.3316C303.273 82.1139 300.887 49.0234 285.651 49.0234Z" fill="black"/>
</svg>
