<svg width="617" height="654" viewBox="0 0 617 654" fill="none" xmlns="http://www.w3.org/2000/svg">
<path d="M340.599 224.434C340.599 238.712 328.593 250.434 313.599 250.434C298.605 250.434 286.599 238.712 286.599 224.434C286.599 210.155 298.605 198.434 313.599 198.434C328.593 198.434 340.599 210.155 340.599 224.434Z" stroke="black" stroke-width="5"/>
<path d="M313.099 238.934V241.934" stroke="black" stroke-width="5" stroke-linecap="round"/>
<path d="M313.099 210.934V207.934" stroke="black" stroke-width="5" stroke-linecap="round"/>
<path d="M321.099 212.836C319.257 211.848 316.461 210.923 313.847 210.934C310.696 210.947 307.809 212.318 307.174 216.574C306.338 222.188 312.679 224.203 316.457 226.231C321.68 229.035 321.632 234.291 318.488 236.823C317.074 237.961 315.469 238.586 313.847 238.822C311.476 239.167 309.069 238.682 307.174 237.757" stroke="black" stroke-width="5" stroke-linecap="round"/>
<path d="M359.868 333.719C351.777 329.114 287.511 324.317 272.099 323.934C272.098 326.812 275.132 331.674 278.022 334.552C295.361 333.976 363.099 343.916 363.099 340.03L359.868 333.719Z" fill="black"/>
<path d="M356.355 329.02C335.858 318.816 294.101 314.905 272.211 314.056C269.956 313.969 267.905 315.486 268.211 317.721C268.91 322.827 272.735 329.063 275.48 332.994C276.412 334.329 277.955 335.062 279.583 335.049C298.42 334.905 332.674 338.498 355.195 341.433C359.455 341.988 362.455 337.285 360.126 333.676L358.208 330.704C357.745 329.986 357.12 329.401 356.355 329.02Z" stroke="black" stroke-width="5"/>
<path d="M375.448 149.843C377.639 163.452 375.53 194.878 349.569 211.705C345.051 213.217 335.767 213.519 334.781 202.632C339.3 192.184 346.447 169.309 338.889 161.39C329.441 151.492 311.367 146.131 296.99 163.04C293.156 167.851 286.885 183.496 292.472 207.581C289.87 213.354 281.545 222.428 269.057 212.53C253.448 200.157 257.555 140.357 271.932 132.934" stroke="black" stroke-width="5" stroke-linecap="round"/>
<path d="M248.677 169.544C239.939 172.418 217.546 175.045 219.184 162.565C220.823 150.084 254.823 122.331 271.618 110.015C280.357 103.857 303.487 92.6077 326.099 96.8774" stroke="black" stroke-width="5" stroke-linecap="round"/>
<path d="M215.965 149.934C209.669 148.986 199.458 144.977 208.985 136.527C218.511 128.077 241.149 124.746 252.099 123.934" stroke="black" stroke-width="5" stroke-linecap="round"/>
<path d="M453.061 97.692C429.731 118.674 376.177 155.127 348.606 133.09C314.142 105.544 349.807 42.5872 388.385 11.7395" stroke="black" stroke-width="5" stroke-linecap="round"/>
<path d="M30.0991 398.74V639.127C30.0991 645.641 37.1241 650.934 45.9054 650.934H576.293C585.074 650.934 592.099 645.641 592.099 639.127V397.934" stroke="black" stroke-width="5" stroke-miterlimit="10" stroke-linecap="round"/>
<path d="M228.766 275.19L206.259 360.076C206.237 360.16 206.226 360.246 206.226 360.332V391.352C206.226 391.788 205.956 392.17 205.54 392.299C143.712 411.527 28.0192 400.374 0.756092 392.283C0.33649 392.159 0.0991211 391.786 0.0991211 391.348V360.508C0.0991211 360.308 0.158615 360.114 0.269974 359.949L57.9659 274.375C58.1517 274.099 58.4625 273.934 58.795 273.934H227.799C228.456 273.934 228.934 274.555 228.766 275.19Z" fill="black"/>
<path d="M574.126 274.498L615.999 361.01C616.065 361.146 616.099 361.295 616.099 361.446V388.598C616.099 388.823 616.05 389.014 615.9 389.182C601.151 405.68 421.983 404.067 411.819 396.149C411.624 395.997 411.593 395.806 411.593 395.559V361.217L401.234 275.053C401.162 274.458 401.627 273.934 402.227 273.934H573.226C573.609 273.934 573.959 274.153 574.126 274.498Z" fill="black"/>
<path d="M402.75 276.822L412.099 360.148V394.586C412.099 394.974 411.908 395.313 411.553 395.473C374.601 412.05 229.51 415.936 206.353 392.034C206.178 391.853 206.099 391.625 206.099 391.374V360.276C206.099 360.191 206.11 360.106 206.131 360.024L227.774 276.682C227.888 276.241 228.286 275.934 228.742 275.934H401.756C402.265 275.934 402.693 276.316 402.75 276.822Z" stroke="black" stroke-width="5" stroke-linecap="round"/>
<rect x="256.599" y="457.434" width="257" height="142" rx="7.5" stroke="black" stroke-width="5"/>
<path d="M85.0991 509.434C85.0991 479.334 109.5 454.934 139.599 454.934C169.699 454.934 194.099 479.334 194.099 509.434V650.934H85.0991V509.434Z" fill="black"/>
</svg>
