<svg width="491" height="491" viewBox="0 0 491 491" fill="none" xmlns="http://www.w3.org/2000/svg">
<path d="M186.849 163.02C148.213 156.715 107.211 168.537 77.248 198.486C65.4205 210.309 56.747 223.707 50.4391 237.894C78.0365 232.771 109.971 231.983 144.27 236.317C155.309 211.097 169.502 186.27 186.849 163.02Z" stroke="black" stroke-width="7" stroke-miterlimit="10" stroke-linecap="round" stroke-linejoin="round"/>
<path d="M292.903 414.044C281.469 425.867 267.671 434.536 253.478 440.841C260.193 411.721 257.42 365.179 255.055 346.658C280.287 336.018 304.73 321.831 328.385 304.492C334.693 343.505 322.866 384.095 292.903 414.044Z" stroke="black" stroke-width="7" stroke-miterlimit="10" stroke-linecap="round" stroke-linejoin="round"/>
<path d="M224.696 287.547C243.62 304.886 263.727 319.073 285.411 331.289" stroke="black" stroke-width="7" stroke-miterlimit="10" stroke-linecap="round" stroke-linejoin="round"/>
<path d="M160.04 205.578C171.867 226.858 186.454 247.35 203.801 266.265" stroke="black" stroke-width="7" stroke-miterlimit="10" stroke-linecap="round" stroke-linejoin="round"/>
<path d="M153.338 337.989C147.424 332.078 147.424 322.62 153.338 316.709L232.188 237.894C238.101 231.983 247.563 231.983 253.477 237.894C259.391 243.805 259.391 253.263 253.477 259.174L174.627 337.989C168.713 343.9 159.251 343.9 153.338 337.989Z" stroke="black" stroke-width="7" stroke-miterlimit="10" stroke-linecap="round" stroke-linejoin="round"/>
<path d="M203.408 308.825C219.572 323.405 236.525 336.016 254.266 347.05C297.239 328.528 339.03 300.549 376.089 263.506M182.118 287.545C167.531 271.782 154.915 254.443 143.876 236.71C162.8 193.756 190.397 151.984 227.457 114.941C263.343 79.2557 303.656 51.8988 345.259 33.2772M409.724 225.48C463.358 156.667 489.853 76.6847 486.873 4.20662C450.883 2.72825 413.113 8.50775 375.759 21.2597" stroke="black" stroke-width="7" stroke-miterlimit="10" stroke-linecap="round" stroke-linejoin="round"/>
<path d="M393.041 16.0273C403.292 32.9725 415.119 48.3413 429.312 62.1339C443.505 76.3205 458.881 88.1427 475.44 97.9945" stroke="black" stroke-width="7" stroke-miterlimit="10" stroke-linecap="round" stroke-linejoin="round"/>
<path d="M65.8756 351.877C64.8149 337.145 52.9465 304.355 24.8634 318.642C4.71066 328.896 9.18924 350.816 20.2673 361.422" stroke="black" stroke-width="5" stroke-linecap="round"/>
<path d="M56.6831 371.676C48.9049 361.776 16.5202 367.996 23.8027 396.071C27.7347 411.23 57.3903 419.288 71.1788 411.628" stroke="black" stroke-width="5" stroke-linecap="round"/>
<path d="M73.6536 403.496C78.4855 401.492 87.9371 400.526 87.0886 412.688C86.2401 424.85 75.1858 432.133 69.7647 434.255C65.6988 435.846 59.5823 433.689 59.8652 424.355" stroke="black" stroke-width="5" stroke-linecap="round"/>
<path d="M97.3416 472.437C102.291 477.387 115.514 485.094 128.808 476.326" stroke="black" stroke-width="5" stroke-linecap="round"/>
<path d="M121.383 432.839C117.73 425.886 106.746 415.657 92.0384 430.364C73.6537 448.749 99.4631 465.366 107.595 463.599" stroke="black" stroke-width="5" stroke-linecap="round"/>
<path d="M147.9 421.171C158.978 423.763 182.485 434.806 177.245 456.172C172.649 474.911 149.314 471.611 137.293 465.719" stroke="black" stroke-width="5" stroke-linecap="round"/>
<path d="M117.494 353.292C116.646 354.706 91.9205 370.144 79.664 377.687" stroke="black" stroke-width="5" stroke-linecap="round"/>
<path d="M127.04 368.492L96.9881 398.544" stroke="black" stroke-width="5" stroke-linecap="round"/>
<path d="M140.829 378.746L117.848 413.041" stroke="black" stroke-width="5" stroke-linecap="round"/>
<circle cx="335.599" cy="154.48" r="42" stroke="black" stroke-width="5"/>
</svg>
