<svg width="359" height="336" viewBox="0 0 359 336" fill="none" xmlns="http://www.w3.org/2000/svg">
<path d="M105.533 320.698C88.0977 247.71 61.6346 101.641 91.8829 88.3562C93.2575 87.7542 94.7557 87.3611 96.1443 86.7828L211.122 38.8038" stroke="black" stroke-width="5" stroke-linecap="round"/>
<path d="M103.452 102.072C90.4515 126.554 110.654 229.776 126.964 297.63C130.511 312.422 146.613 320.176 160.602 314.095L252.294 274.229" stroke="black" stroke-width="5" stroke-linecap="round"/>
<path d="M126.359 103.55C131.632 97.1325 137.082 74.474 124.84 62.8898C122.731 60.871 120.073 59.1929 116.785 57.9931C94.5847 49.8754 80.4229 77.4543 93.7755 86.9447" stroke="black" stroke-width="5" stroke-linecap="round"/>
<path d="M124.497 61.8812C126.389 49.4454 142.53 36.4574 161.989 47.2414C182.898 62.0214 172.393 83.756 162.86 91.3389" stroke="black" stroke-width="5" stroke-linecap="round"/>
<path d="M162.871 46.1731C166.837 36.3696 181.795 17.4655 201.529 25.2362C228.032 39.6953 212.775 68.1797 201.683 71.8256" stroke="black" stroke-width="5" stroke-linecap="round"/>
<path d="M201.305 23.8829C207.33 12.9938 222.365 2.46906 237.047 12.879C251.73 23.2912 247.072 50.8828 232.151 59.7154" stroke="black" stroke-width="5" stroke-linecap="round"/>
<path d="M164.786 140.23C187.123 133.73 202.994 130.33 219.786 114.73" stroke="black" stroke-width="5" stroke-linecap="round"/>
<path d="M173.286 175.73C194.133 172.487 211.543 164.866 230.786 157.73" stroke="black" stroke-width="5" stroke-linecap="round"/>
<path d="M180.286 212.73C203.815 209.155 221.454 209.55 233.786 191.73" stroke="black" stroke-width="5" stroke-linecap="round"/>
<path d="M187.786 244.73C199.56 243.147 210.672 240.764 225.786 228.73" stroke="black" stroke-width="5" stroke-linecap="round"/>
<path d="M240.286 52.2305L266.786 167.23" stroke="black" stroke-width="5" stroke-linecap="round"/>
<path d="M131.786 153.23L137.707 156.561C138.791 157.171 140.164 156.653 140.575 155.478L146.786 137.73" stroke="black" stroke-width="5" stroke-linecap="round"/>
<path d="M139.786 187.23L145.707 190.561C146.791 191.171 148.164 190.653 148.575 189.478L154.786 171.73" stroke="black" stroke-width="5" stroke-linecap="round"/>
<path d="M147.786 221.23L153.707 224.561C154.791 225.171 156.164 224.653 156.575 223.478L162.786 205.73" stroke="black" stroke-width="5" stroke-linecap="round"/>
<path d="M155.786 255.23L161.707 258.561C162.791 259.171 164.164 258.653 164.575 257.478L170.786 239.73" stroke="black" stroke-width="5" stroke-linecap="round"/>
<path d="M262.633 223.052L345.187 157.275C352.728 152.335 359.982 162.335 352.728 168.452L270.762 233.223C270.331 233.563 269.705 233.492 269.362 233.063L262.476 224.459C262.13 224.027 262.201 223.396 262.633 223.052Z" stroke="black" stroke-width="5" stroke-linecap="round"/>
<path d="M255.829 238.434L269.945 236.014C270.691 235.886 271.03 235.006 270.562 234.411L261.689 223.118C261.209 222.507 260.246 222.653 259.969 223.379L254.726 237.091C254.449 237.815 255.065 238.565 255.829 238.434Z" fill="black"/>
</svg>
