<svg width="459" height="279" viewBox="0 0 459 279" fill="none" xmlns="http://www.w3.org/2000/svg">
<path d="M149.099 231.488C149.099 249.404 134.358 263.988 116.099 263.988C97.8402 263.988 83.0991 249.404 83.0991 231.488C83.0991 213.572 97.8402 198.988 116.099 198.988C134.358 198.988 149.099 213.572 149.099 231.488Z" stroke="black" stroke-width="5"/>
<path d="M109.322 245.797L107.568 249.392" stroke="black" stroke-width="5" stroke-linecap="round"/>
<path d="M123.356 217.04L125.549 212.547" stroke="black" stroke-width="5" stroke-linecap="round"/>
<path d="M129.592 222.502C128.196 220.564 125.787 218.213 123.096 216.913C119.854 215.347 116.201 215.309 113.416 219.362C109.743 224.708 115.247 229.957 118.11 233.934C122.069 239.431 119.386 244.805 114.888 245.83C112.865 246.291 110.903 246.128 109.118 245.557C106.51 244.723 104.282 243.019 102.799 241.119" stroke="black" stroke-width="5" stroke-linecap="round"/>
<path d="M295.099 243.488C295.099 261.404 280.358 275.988 262.099 275.988C243.84 275.988 229.099 261.404 229.099 243.488C229.099 225.572 243.84 210.988 262.099 210.988C280.358 210.988 295.099 225.572 295.099 243.488Z" stroke="black" stroke-width="5"/>
<path d="M372.099 243.488C372.099 261.404 357.358 275.988 339.099 275.988C320.84 275.988 306.099 261.404 306.099 243.488C306.099 225.572 320.84 210.988 339.099 210.988C357.358 210.988 372.099 225.572 372.099 243.488Z" stroke="black" stroke-width="5"/>
<path d="M449.099 243.488C449.099 261.404 434.358 275.988 416.099 275.988C397.84 275.988 383.099 261.404 383.099 243.488C383.099 225.572 397.84 210.988 416.099 210.988C434.358 210.988 449.099 225.572 449.099 243.488Z" stroke="black" stroke-width="5"/>
<path d="M75.0991 190.488C73.0991 190.155 66.1991 186.288 54.5991 173.488" stroke="black" stroke-width="5" stroke-linecap="round"/>
<path d="M63.0991 214.988C48.7658 208.655 16.6991 188.788 3.09912 159.988" stroke="black" stroke-width="5" stroke-linecap="round"/>
<path d="M67.5991 254.988C57.7658 252.322 33.8991 241.688 17.0991 220.488" stroke="black" stroke-width="5" stroke-linecap="round"/>
<path d="M127.099 197.988L187.099 30.9883" stroke="black" stroke-width="5" stroke-linecap="round"/>
<path d="M262.099 30.9883V208.488" stroke="black" stroke-width="5" stroke-linecap="round"/>
<path d="M337.599 30.9883V208.488" stroke="black" stroke-width="5" stroke-linecap="round"/>
<path d="M415.599 30.9883V208.488" stroke="black" stroke-width="5" stroke-linecap="round"/>
<path d="M121.599 0.488281H428.599C445.168 0.488281 458.599 13.9197 458.599 30.4883V31.4883H151.599C135.031 31.4883 121.599 18.0568 121.599 1.48828V0.488281Z" fill="black"/>
</svg>
