<svg width="318" height="338" viewBox="0 0 318 338" fill="none" xmlns="http://www.w3.org/2000/svg">
<path d="M31.4215 95.853L3.3681 298.625C3.21874 299.705 3.9613 300.705 5.03792 300.875L219.28 334.635C220.496 334.826 221.595 333.884 221.591 332.652L220.608 42.1565C220.604 40.8262 219.326 39.871 218.049 40.2431L32.8432 94.2069C32.0863 94.4275 31.5296 95.0721 31.4215 95.853Z" stroke="black" stroke-width="5"/>
<path d="M241.584 58.4852L221.513 38.4142C220.253 37.1543 218.099 38.0466 218.099 39.8284V335.06C218.099 336.322 219.254 337.269 220.491 337.022L263.843 328.351C264.843 328.151 265.532 327.232 265.443 326.216L242.162 59.7253C242.122 59.2568 241.917 58.8177 241.584 58.4852Z" fill="black"/>
<path d="M242.099 61.5H271.89C272.874 61.5 273.712 62.2161 273.866 63.1883L314.741 322.232C314.93 323.431 314.017 324.521 312.804 324.544L262.599 325.5" stroke="black" stroke-width="5" stroke-linecap="round"/>
<path d="M121.599 68.0707C125.932 48.0707 142.299 9.07141 173.099 13.0707C189.599 15.2132 199.099 34.5707 199.099 44.0707" stroke="black" stroke-width="5" stroke-linecap="round"/>
<path d="M79.5991 79.5694C84.4325 56.0694 103.499 4.9675 139.099 2.56855C164.099 0.883904 172.599 32.5005 169.099 53.5" stroke="black" stroke-width="5" stroke-linecap="round"/>
<path d="M104.099 222.07C111.599 214.017 122.699 211.539 134.099 222.07" stroke="black" stroke-width="5" stroke-linecap="round"/>
<ellipse cx="88.5991" cy="154.57" rx="8.5" ry="12.5" fill="black"/>
<ellipse cx="142.599" cy="154.57" rx="8.5" ry="12.5" fill="black"/>
<path d="M162.044 182.999C155.91 184.618 155.597 176.794 156.492 170.628C156.713 169.101 158.528 168.558 159.561 169.703C163.892 174.502 168.218 181.37 162.044 182.999Z" fill="black"/>
</svg>
