<svg width="418" height="267" viewBox="0 0 418 267" fill="none" xmlns="http://www.w3.org/2000/svg">
<path d="M72.4383 124.117H161.665C162.361 124.117 162.837 124.804 162.521 125.424C158.641 133.027 144.631 144.414 137.788 147.532C137.66 147.591 137.526 147.617 137.385 147.616L45.0218 147.132C44.0688 147.128 43.6623 145.919 44.4186 145.339L71.8299 124.324C72.0045 124.19 72.2184 124.117 72.4383 124.117Z" fill="black"/>
<path d="M136.099 145.273C142.932 143.939 159.699 135.873 172.099 114.273C187.599 87.2726 207.099 -0.383789 301.099 54.6162" stroke="black" stroke-width="5" stroke-linecap="round"/>
<path d="M46.0991 147.117L318.099 148.117" stroke="black" stroke-width="5" stroke-linecap="round"/>
<path d="M329.099 86.1282C338.766 84.1282 359.999 72.3282 367.599 41.1282C375.199 9.92817 402.432 2.79484 415.099 3.12817" stroke="black" stroke-width="5" stroke-linecap="round"/>
<path d="M216.099 147.617C204.344 126.76 238.396 123.43 254.605 124.418C255.508 124.473 256.051 123.388 255.483 122.684C244.106 108.583 242.089 95.0942 244.599 83.6175C251.599 51.6177 282.433 50.9505 299.099 54.1172C321.899 61.7172 328.599 82.6172 329.099 92.1172C329.266 99.6172 329.499 117.417 329.099 128.617C328.699 139.817 328.599 145.117 318.099 148.117" stroke="black" stroke-width="5" stroke-linecap="round"/>
<path d="M138.599 104.117C139.099 102.117 145.099 47.1172 188.099 25.1172" stroke="black" stroke-width="5" stroke-linecap="round"/>
<path d="M123.599 94.1172C121.432 84.1172 119.999 58.9172 131.599 38.1172" stroke="black" stroke-width="5" stroke-linecap="round"/>
<rect x="148.099" y="164.117" width="68" height="24" rx="12" fill="black"/>
<path d="M46.5991 147.117V262.617C46.5991 263.169 47.0468 263.617 47.5991 263.617H317.099C317.651 263.617 318.099 263.169 318.099 262.617V148.617" stroke="black" stroke-width="5" stroke-linecap="round"/>
<path d="M318.599 148.117L362.099 190.617" stroke="black" stroke-width="5" stroke-linecap="round"/>
<path d="M45.5991 147.617L3.09912 191.117" stroke="black" stroke-width="5" stroke-linecap="round"/>
<path d="M109.599 106.617C104.599 93.1172 82.2991 65.1172 33.0991 61.1172" stroke="black" stroke-width="5" stroke-linecap="round"/>
</svg>
