<svg width="368" height="382" viewBox="0 0 368 382" fill="none" xmlns="http://www.w3.org/2000/svg">
<path d="M93.7788 81.1786L91.0748 13.1786C90.8488 7.50442 95.3878 2.78125 101.067 2.78125H174.161C179.684 2.78125 184.161 7.2584 184.161 12.7812V80.7812C184.161 86.3041 179.684 90.7812 174.161 90.7812H103.771C98.4028 90.7812 93.9918 86.5426 93.7788 81.1786Z" stroke="black" stroke-width="5" stroke-linecap="round"/>
<path d="M126.661 47.3528L148.086 51.2814M117.661 68.7814L126.661 47.3528L117.661 68.7814ZM153.161 68.7814L148.086 51.2814L153.161 68.7814ZM126.661 47.3528L136.471 23.9952C137.201 22.2569 139.711 22.4018 140.236 24.2126L148.086 51.2814L126.661 47.3528Z" stroke="black" stroke-width="7" stroke-linecap="round"/>
<path d="M276.245 350.871V270.887C276.245 269.742 277.204 268.831 278.347 268.889L362.547 273.171C363.725 273.23 364.595 274.29 364.444 275.46C361.399 299.054 363.129 336.362 364.561 354.525C364.655 355.729 363.675 356.734 362.469 356.679L278.155 352.869C277.086 352.82 276.245 351.94 276.245 350.871Z" stroke="black" stroke-width="5" stroke-linecap="round"/>
<path d="M120.162 100.781C109.427 121.181 124.634 145.615 133.579 155.282C147.579 166.782 166.079 143.782 168.579 134.282C171.079 124.782 163.579 109.282 142.579 118.282C121.579 127.282 129.579 148.781 142.579 146.781C155.579 144.781 183.079 131.281 185.579 151.281C188.079 171.281 165.579 176.781 159.079 170.781C152.579 164.781 134.579 152.301 141.579 134.282C148.579 116.262 177.079 117.281 183.579 132.781C190.079 148.281 166.579 184.781 141.579 189.281C116.579 193.781 124.079 165.781 139.579 165.781C173.579 163.281 168.679 148.081 217.079 151.281C235.607 153.948 252.462 169.381 171.662 209.781" stroke="black" stroke-width="5" stroke-linecap="round"/>
<path d="M275.161 314.779C261.328 321.779 235.261 323.28 233.661 279.28C232.061 235.28 194.994 233.946 176.661 238.78" stroke="black" stroke-width="5" stroke-linecap="round"/>
<path d="M337.405 334.324H309.247C306.633 334.324 305.27 331.214 307.04 329.292L332.77 301.357C334.541 299.434 333.177 296.324 330.563 296.324H305.905" stroke="black" stroke-width="7" stroke-linecap="round"/>
<circle r="13" transform="matrix(-0.278825 -0.960342 -0.960342 0.278825 73.4167 346.296)" stroke="black" stroke-width="5"/>
<path d="M124.101 271.574L148.601 225.574C113.485 242.143 100.767 257.144 98.065 268.074" stroke="black" stroke-width="5" stroke-linecap="round"/>
<path d="M116.101 289.571L94.5351 327.146C97.3591 330.256 99.5363 334.041 100.786 338.347C105.175 353.463 96.4792 369.275 81.3633 373.663C66.2474 378.052 50.4357 369.356 46.047 354.24C41.6583 339.124 50.3543 323.313 65.4702 318.924C69.8685 317.647 74.3257 317.478 78.5433 318.252C78.9894 318.252 91.1009 295.298 98.1009 284.071" stroke="black" stroke-width="5" stroke-linecap="round"/>
<circle r="13" transform="matrix(-0.186293 -0.982494 -0.982494 0.186293 40.3953 288.366)" stroke="black" stroke-width="5"/>
<path d="M116.6 289.572C150.101 295.572 164.1 267.572 173.1 250.572L68.1082 297.38C67.6034 297.605 67.2177 298.03 67.0206 298.546C65.5585 302.378 63.2423 305.954 60.0788 308.975C48.6966 319.847 30.6561 319.434 19.7843 308.051C8.91248 296.669 9.32625 278.629 20.7085 267.757C32.0907 256.885 50.1312 257.299 61.003 268.681C64.1 271.923 66.2812 275.706 67.5539 279.71L96.6002 268.681" stroke="black" stroke-width="5" stroke-linecap="round"/>
</svg>
