<svg width="311" height="340" viewBox="0 0 311 340" fill="none" xmlns="http://www.w3.org/2000/svg">
<path d="M156.069 339.181C177.351 339.017 194.777 322.899 197.084 302.262C197.391 299.518 195.103 297.286 192.342 297.307L119.158 297.87C116.396 297.891 114.143 300.157 114.492 302.897C117.116 323.495 134.788 339.344 156.069 339.181Z" fill="black"/>
<path d="M152.872 0.958173C142.211 1.04009 133.227 8.06083 130.172 17.7022C129.091 21.1167 132.736 23.6176 136.211 22.7507C147.717 19.881 160.811 20.6831 169.667 22.5617C173.215 23.3142 176.944 20.6186 175.77 17.1872C172.52 7.67968 163.472 0.876725 152.872 0.958173Z" fill="black"/>
<path d="M267.103 159.13C267.176 168.607 266.663 173.089 266.802 191.109C266.963 212.165 269.675 223.032 296.542 247.764C312.515 262.468 309.024 282.258 293.206 284.881C293.179 284.886 293.15 284.889 293.122 284.889L17.2976 287.008C17.2491 287.008 17.2006 287.002 17.1538 286.99C3.73491 283.337 -4.89214 264.894 13.2765 249.941C31.4771 234.962 42.323 216.329 43.3638 192.826C44.1527 175.01 44.949 134.281 46.4376 116.132C56.6425 45.8147 121.069 29.4087 152.007 29.9954C186.194 29.7327 210.289 40.2648 218.062 45.5637C238.915 57.4456 250.807 72.9895 257.585 90.4817" stroke="black" stroke-width="5" stroke-linecap="round"/>
<path d="M210.089 124.482H241.558C242.002 124.482 242.225 125.018 241.913 125.334L210.933 156.631C210.62 156.946 210.844 157.482 211.288 157.482H242.756" stroke="black" stroke-width="7" stroke-linecap="round"/>
<path d="M274.089 98.4824H305.558C306.002 98.4824 306.225 99.0185 305.913 99.3342L274.933 130.631C274.62 130.946 274.844 131.482 275.288 131.482H306.756" stroke="black" stroke-width="7" stroke-linecap="round"/>
</svg>
