<svg width="464" height="457" viewBox="0 0 464 457" fill="none" xmlns="http://www.w3.org/2000/svg">
<path d="M460.6 421.516C437.766 443.849 368.9 476.816 276.1 430.016C160.1 371.516 386.1 335.516 392.6 332.516C399.1 329.516 462.599 327.016 412.599 265.016C362.599 203.016 330.099 185.516 364.599 114.516C399.099 43.5156 327.599 -39.4844 239.099 27.0156" stroke="black" stroke-width="5" stroke-linecap="round" stroke-dasharray="10 15"/>
<path d="M135.099 204.269C107.902 191.349 89.0991 163.628 89.0991 131.516C89.0991 87.0567 125.14 51.0156 169.599 51.0156C214.058 51.0156 250.099 87.0567 250.099 131.516C250.099 166.69 227.539 196.596 196.099 207.552" stroke="black" stroke-width="5" stroke-linecap="round"/>
<path d="M134.599 220.398C99.1706 206.436 74.0991 171.904 74.0991 131.516C74.0991 78.7724 116.856 36.0156 169.599 36.0156C222.342 36.0156 265.099 78.7724 265.099 131.516C265.099 175.246 235.706 212.111 195.599 223.434" stroke="black" stroke-width="5" stroke-linecap="round"/>
<path d="M220.599 71.5139C204.107 80.3675 185.047 78.6026 178.815 66.9932C172.583 55.3839 180.901 38.7954 197.393 29.9419C213.886 21.0884 232.308 23.3224 238.54 34.9317C242.571 42.4398 240.515 52.0305 234.099 60.2646" stroke="black" stroke-width="5" stroke-linecap="round"/>
<path d="M148.599 124.434C127.472 125.546 107.541 128.84 89.5991 133.888" stroke="black" stroke-width="5" stroke-linecap="round"/>
<path d="M74.0991 138.863C31.2543 154.417 3.09912 180.706 3.09912 210.517C3.09912 258.289 75.4051 297.017 164.599 297.017C253.793 297.017 326.099 258.289 326.099 210.517C326.099 183.092 302.271 158.649 265.099 142.801" stroke="black" stroke-width="5" stroke-linecap="round"/>
<path d="M183.599 124.609C207.682 126.121 230.145 130.471 249.791 137.017" stroke="black" stroke-width="5" stroke-linecap="round"/>
<path d="M191.887 229.24C173.802 241.43 150.548 235.04 138.949 229.266C137.458 228.524 136.523 227.041 136.419 225.378C133.843 184.184 139.694 112.113 167.099 116.517C198.738 121.602 197.977 191.477 193.855 225.955C193.695 227.29 193.001 228.488 191.887 229.24Z" stroke="black" stroke-width="5" stroke-linecap="round"/>
<path d="M16.5987 340.516C-1.0013 317.716 21.5987 305.016 35.0987 301.516C43.0991 346.516 129.099 368.373 173.099 367.516C142.099 370.516 38.5987 369.016 16.5987 340.516Z" fill="black"/>
<path d="M5.59912 225.516L41.7204 319.035C41.9702 319.682 42.3271 320.248 42.8222 320.733C77.5123 354.718 187.413 402.082 289.343 325.96C290.151 325.356 290.77 324.503 291.089 323.546L323.599 226.016" stroke="black" stroke-width="5" stroke-linecap="round"/>
</svg>
