<svg width="328" height="384" viewBox="0 0 328 384" fill="none" xmlns="http://www.w3.org/2000/svg">
<path d="M3.09912 372.503C19.1711 364.821 58.2929 349.956 86.2048 351.905C90.1623 352.082 96.1387 353.773 88.3855 359.265C80.6321 364.756 76.7554 367.607 75.7863 368.332C71.7482 371.762 67.7908 379.025 84.2665 380.603C104.861 382.552 163.012 361.229 278.099 376.915" stroke="black" stroke-width="5" stroke-linecap="round"/>
<path d="M108.845 320.698C91.4099 247.71 64.9468 101.641 95.1951 88.3562C96.5697 87.7542 98.0679 87.3611 99.4565 86.7828L214.434 38.8038" stroke="black" stroke-width="5" stroke-linecap="round"/>
<path d="M244.364 54.4453L251.921 89.4316" stroke="black" stroke-width="5" stroke-linecap="round"/>
<path d="M106.763 102.075C93.7626 126.557 113.966 229.778 130.275 297.633C133.822 312.424 149.924 320.178 163.913 314.097L271.985 267.109C283.031 262.303 289.066 250.336 286.361 238.651L257.977 116.859" stroke="black" stroke-width="5" stroke-linecap="round"/>
<path d="M129.671 103.55C134.945 97.1325 140.395 74.474 128.152 62.8898C126.043 60.871 123.386 59.1929 120.097 57.9931C97.8973 49.8754 83.7356 77.4543 97.0882 86.9447" stroke="black" stroke-width="5" stroke-linecap="round"/>
<path d="M127.81 61.8812C129.702 49.4454 145.843 36.4574 165.302 47.2414C186.21 62.0214 175.706 83.756 166.172 91.3389" stroke="black" stroke-width="5" stroke-linecap="round"/>
<path d="M166.183 46.1731C170.149 36.3696 185.107 17.4655 204.841 25.2362C231.344 39.6953 216.087 68.1797 204.995 71.8256" stroke="black" stroke-width="5" stroke-linecap="round"/>
<path d="M204.617 23.8829C210.643 12.9938 225.677 2.46906 240.359 12.879C255.042 23.2912 250.384 50.8828 235.464 59.7154" stroke="black" stroke-width="5" stroke-linecap="round"/>
<path d="M135.099 153.73C157.436 147.23 206.306 130.33 223.099 114.73" stroke="black" stroke-width="5" stroke-linecap="round"/>
<path d="M145.099 187.73C165.946 184.487 214.856 164.866 234.099 157.73" stroke="black" stroke-width="5" stroke-linecap="round"/>
<path d="M151.099 224.73C174.627 221.155 224.767 209.55 237.099 191.73" stroke="black" stroke-width="5" stroke-linecap="round"/>
<path d="M162.099 262.73C173.873 261.147 192.985 255.764 208.099 243.73" stroke="black" stroke-width="5" stroke-linecap="round"/>
<rect x="223.059" y="223.477" width="36.0475" height="28.483" rx="2.5" transform="rotate(-20.8025 223.059 223.477)" stroke="black" stroke-width="5"/>
</svg>
