<svg width="449" height="438" viewBox="0 0 449 438" fill="none" xmlns="http://www.w3.org/2000/svg">
<path d="M54.5991 191.932V349.497C54.5991 350.023 55.0069 350.459 55.5319 350.495L188.027 359.427C188.075 359.43 188.123 359.43 188.171 359.426L240.599 355.432" stroke="black" stroke-width="7" stroke-linecap="round"/>
<path d="M54.5991 191.432L186.976 175.07C187.573 174.997 188.099 175.462 188.099 176.063V357.432" stroke="black" stroke-width="7" stroke-linecap="round"/>
<path d="M214.5 176.432L384.663 187.371C385.19 187.405 385.599 187.842 385.599 188.369V254.432" stroke="black" stroke-width="7" stroke-linecap="round"/>
<path d="M55.0991 350.432H5.09912C4.54684 350.432 4.09912 350.879 4.09912 351.432V410.571C4.09912 411.066 4.461 411.486 4.9503 411.56L152.45 433.759C153.055 433.85 153.599 433.381 153.599 432.77V375.432" stroke="black" stroke-width="7" stroke-linecap="round"/>
<path d="M153.099 433.932L271.599 422.932" stroke="black" stroke-width="7" stroke-linecap="round"/>
<path d="M223.099 430.932V305.932L277.099 430.932H223.099Z" fill="black" fill-opacity="0.3"/>
<path d="M373.025 370.736L295.035 208.421C294.383 207.063 295.408 205.499 296.913 205.556L332.402 206.887C333.139 206.914 333.801 207.346 334.124 208.009L412.474 368.649C412.848 369.417 412.694 370.337 412.09 370.94L396.152 386.879C395.796 387.234 395.32 387.443 394.818 387.463L363.278 388.742C361.519 388.813 360.532 386.741 361.697 385.42L372.722 372.926C373.254 372.323 373.373 371.461 373.025 370.736Z" fill="black"/>
<path d="M328.509 418.048L321.042 425.84C319.795 427.141 320.769 429.298 322.57 429.222L352.372 427.962C352.842 427.943 353.289 427.758 353.636 427.441L360.791 420.909C362.139 419.677 361.268 417.432 359.442 417.432H329.953C329.407 417.432 328.886 417.654 328.509 418.048Z" fill="black"/>
<path d="M103.599 202.685V187.183C103.599 186.18 104.341 185.333 105.335 185.2L131.335 181.734C132.534 181.574 133.599 182.506 133.599 183.716V199.651C133.599 200.666 132.839 201.52 131.831 201.638L105.831 204.671C104.643 204.81 103.599 203.881 103.599 202.685Z" fill="black"/>
<path d="M58.5991 404.188V417.218C58.5991 418.204 59.3179 419.043 60.2924 419.194L85.2924 423.074C86.5048 423.262 87.5991 422.324 87.5991 421.097V407.205C87.5991 406.193 86.8434 405.34 85.8388 405.219L60.8388 402.202C59.6478 402.058 58.5991 402.988 58.5991 404.188Z" fill="black"/>
<path d="M105.599 335.932V351.586C105.599 352.629 106.399 353.496 107.438 353.58L134.438 355.757C135.603 355.851 136.599 354.932 136.599 353.764V335.932C136.599 334.827 135.704 333.932 134.599 333.932H107.599C106.495 333.932 105.599 334.827 105.599 335.932Z" fill="black"/>
<path d="M58.5991 374.659V353.074C58.5991 351.916 59.5807 350.999 60.7367 351.079L85.7367 352.803C86.7854 352.876 87.5991 353.747 87.5991 354.798V377.676C87.5991 378.875 86.5504 379.805 85.3595 379.661L60.3595 376.644C59.3549 376.523 58.5991 375.67 58.5991 374.659Z" fill="black"/>
<path d="M277.028 430.122L204.853 264.513C204.698 264.158 204.762 263.746 205.017 263.455L256.598 204.575C257.071 204.034 257.944 204.155 258.253 204.803L338.287 372.777C338.473 373.167 338.387 373.633 338.073 373.932L278.634 430.447C278.131 430.926 277.306 430.759 277.028 430.122Z" stroke="black" stroke-width="7" stroke-linecap="round"/>
<path d="M278.599 430.932L385.729 425.949C385.968 425.938 386.195 425.842 386.369 425.678L445.157 370.262C445.83 369.628 445.356 368.499 444.432 368.535L357 371.932" stroke="black" stroke-width="7" stroke-linecap="round"/>
<path d="M257.599 203.932L361.019 207.909C361.378 207.923 361.701 208.128 361.867 208.447L445.099 368.432" stroke="black" stroke-width="7" stroke-linecap="round"/>
<path fill-rule="evenodd" clip-rule="evenodd" d="M347.099 66.4336C347.099 102.608 317.774 131.934 281.599 131.934C245.424 131.934 216.099 102.608 216.099 66.4336C216.099 30.2589 245.424 0.933594 281.599 0.933594C317.774 0.933594 347.099 30.2589 347.099 66.4336ZM289.099 98.9316C289.099 103.35 285.741 106.932 281.599 106.932C277.457 106.932 274.099 103.35 274.099 98.9316C274.099 94.5134 277.457 90.9316 281.599 90.9316C285.741 90.9316 289.099 94.5134 289.099 98.9316ZM272.239 55.6109C271.65 45.9316 272.593 26.9317 281.431 26.9316C290.204 26.9316 291.577 46.1782 290.977 55.6109C290.27 66.7241 287.088 83.9316 281.431 83.9316C275.768 83.9316 272.829 65.2901 272.239 55.6109Z" fill="black"/>
</svg>
