<svg width="459" height="390" viewBox="0 0 459 390" fill="none" xmlns="http://www.w3.org/2000/svg">
<path d="M398.099 179.871V141.871C398.099 130.825 389.145 121.871 378.099 121.871H179.099C168.053 121.871 159.099 130.825 159.099 141.871V266.871C159.099 277.917 168.053 286.871 179.099 286.871H298.599" stroke="black" stroke-width="7" stroke-linecap="round"/>
<path d="M187.099 244.871H235.099" stroke="black" stroke-width="7" stroke-linecap="round"/>
<path d="M251.099 244.871H258.099" stroke="black" stroke-width="7" stroke-linecap="round"/>
<rect x="162.099" y="143.871" width="233" height="28" fill="black"/>
<circle cx="359.099" cy="249.871" r="29" fill="black"/>
<path fill-rule="evenodd" clip-rule="evenodd" d="M0.318983 208.784C-1.62241 233.115 8.45726 288.327 64.2946 317.631C64.4157 317.694 64.5551 317.704 64.6806 317.65C87.8024 307.679 133.009 272.128 130.712 208.781C130.704 208.578 130.557 208.398 130.359 208.35C128.414 207.871 126.559 207.424 124.784 206.995C101.152 201.291 91.4159 198.941 64.8398 172.016C64.6541 171.828 64.3487 171.818 64.1724 172.015C54.6432 182.659 29.207 204.211 0.707442 208.381C0.497263 208.412 0.335878 208.572 0.318983 208.784ZM85.4152 228.218C86.2219 227.097 85.9676 225.535 84.8471 224.728C83.7266 223.922 82.1643 224.176 81.3575 225.296L60.309 254.53L49.5286 239.751C48.7149 238.635 47.151 238.391 46.0355 239.204C44.92 240.018 44.6753 241.582 45.489 242.697L57.9319 259.756C59.1169 261.381 61.5434 261.373 62.7184 259.741L85.4152 228.218Z" fill="black"/>
<path d="M380.164 223.859C383.011 222.895 386.067 222.371 389.247 222.371C404.665 222.371 417.164 234.683 417.164 249.871C417.164 265.059 404.665 277.371 389.247 277.371C386.067 277.371 383.011 276.847 380.164 275.883" stroke="black" stroke-width="5" stroke-linecap="round"/>
<path d="M79.8472 144.371C101.991 63.3904 176.095 3.87109 264.1 3.87109C369.586 3.87109 455.1 89.3847 455.1 194.871C455.1 300.357 369.586 385.871 264.1 385.871C205.469 385.871 153.008 359.453 117.971 317.871" stroke="black" stroke-width="7" stroke-linecap="round"/>
</svg>
