<svg width="676" height="508" viewBox="0 0 676 508" fill="none" xmlns="http://www.w3.org/2000/svg">
<path d="M629.658 464.303C612.488 482.283 591.388 496.336 567.599 504.809C506.368 483.109 462.099 424.624 462.099 356.219V297.734L567.599 262.809L673.099 297.734V356.013C673.099 377.092 668.755 397.345 661.101 415.944C661.308 415.944 647.862 447.977 629.658 464.303Z" stroke="black" stroke-width="5" stroke-miterlimit="10" stroke-linecap="round" stroke-linejoin="round"/>
<path fill-rule="evenodd" clip-rule="evenodd" d="M567.6 431.595C594.195 431.595 615.755 410.036 615.755 383.44C615.755 356.845 594.195 335.285 567.6 335.285C541.005 335.285 519.445 356.845 519.445 383.44C519.445 410.036 541.005 431.595 567.6 431.595ZM592.496 371.443C594.194 369.265 593.805 366.123 591.627 364.426C589.449 362.728 586.307 363.117 584.61 365.295L563.607 392.233L549.717 381.428C547.538 379.732 544.396 380.124 542.7 382.304C541.005 384.483 541.397 387.625 543.577 389.32L559.832 401.966C562.881 404.339 567.276 403.792 569.651 400.745L592.496 371.443Z" fill="black"/>
<path d="M81.0957 180.178L62.3678 315.678C62.2186 316.758 62.9609 317.758 64.0373 317.928L206.78 340.443C207.996 340.635 209.095 339.692 209.091 338.46L208.435 144.466C208.431 143.135 207.153 142.18 205.875 142.553L82.5168 178.531C81.7601 178.752 81.2036 179.397 81.0957 180.178Z" stroke="black" stroke-width="5"/>
<path d="M222.75 155.399L210.511 143.207C209.25 141.951 207.099 142.844 207.099 144.624V340.371C207.099 341.632 208.253 342.579 209.49 342.332L237.341 336.784C238.341 336.584 239.032 335.664 238.942 334.647L223.331 156.641C223.29 156.172 223.084 155.732 222.75 155.399Z" fill="black"/>
<path d="M223.099 157.809H242.534C243.518 157.809 244.356 158.524 244.51 159.497L271.741 331.87C271.93 333.069 271.017 334.159 269.803 334.182L236.859 334.809" stroke="black" stroke-width="5" stroke-linecap="round"/>
<path d="M142.099 161.809C145.007 148.062 155.988 121.256 176.654 124.005C187.725 125.477 194.099 138.783 194.099 145.312" stroke="black" stroke-width="5" stroke-linecap="round"/>
<path d="M114.099 169.809C117.312 153.952 129.988 119.471 153.655 117.852C170.275 116.715 175.926 138.049 173.599 152.218" stroke="black" stroke-width="5" stroke-linecap="round"/>
<path d="M568.099 232.309V12.8086C568.099 7.28575 563.622 2.80859 558.099 2.80859H13.0991C7.57627 2.80859 3.09912 7.28573 3.09912 12.8086V424.809C3.09912 430.331 7.57627 434.809 13.0991 434.809H438.099" stroke="black" stroke-width="5"/>
<rect x="31.5991" y="30.3086" width="508" height="37" rx="18.5" stroke="black" stroke-width="5"/>
<circle cx="61.0991" cy="48.8086" r="7.5" stroke="black" stroke-width="5"/>
<circle cx="86.0991" cy="48.8086" r="7.5" stroke="black" stroke-width="5"/>
<circle cx="111.099" cy="48.8086" r="7.5" stroke="black" stroke-width="5"/>
<path d="M312.099 202.809H392.099" stroke="black" stroke-width="7" stroke-linecap="round"/>
<path d="M311.099 258.809L409.099 259.809" stroke="black" stroke-width="7" stroke-linecap="round"/>
<path d="M312.099 230.809H433.099" stroke="black" stroke-width="7" stroke-linecap="round"/>
</svg>
