<svg width="519" height="275" viewBox="0 0 519 275" fill="none" xmlns="http://www.w3.org/2000/svg">
<path d="M254.472 32.8313C311.045 -3.43153 398.956 -2.7615 440.1 16.8492C469.874 31.0404 558.89 83.446 491.402 195.06C491.176 195.434 491.067 195.888 491.111 196.322L498.637 269.584C498.78 270.982 497.475 272.088 496.119 271.717L423.371 251.798C423.049 251.71 422.721 251.701 422.396 251.777C373.299 263.241 283.612 272.453 235.099 226.715" stroke="black" stroke-width="5" stroke-linecap="round"/>
<ellipse cx="16.0991" cy="239.988" rx="16" ry="11.5" fill="black"/>
<ellipse cx="43.0991" cy="210.988" rx="23" ry="17.5" fill="black"/>
<path d="M108.051 206.106C144.356 259.126 183.426 237.538 199.502 219.038C200.09 218.362 201.076 218.158 201.9 218.508C265.832 245.626 286.793 184.993 275.21 158.937C274.746 157.894 275.201 156.624 276.22 156.11C339.998 123.92 298.963 74.9442 272.55 72.7014C271.507 72.6128 270.644 71.7727 270.549 70.7296C265.855 19.5839 227.988 26.8397 208.219 37.5506C207.44 37.9724 206.464 37.8315 205.816 37.229C167.454 1.61184 135.148 24.6774 123.011 41.6309C122.596 42.2112 121.891 42.5293 121.178 42.4884C68.5197 39.4671 67.2462 97.433 73.3993 128.056C73.5385 128.749 73.2839 129.467 72.7693 129.951C30.2028 170.025 68.6821 210.483 106.027 205.209C106.806 205.099 107.607 205.457 108.051 206.106Z" fill="black"/>
</svg>
