<svg width="406" height="557" viewBox="0 0 406 557" fill="none" xmlns="http://www.w3.org/2000/svg">
<path d="M289.073 242.035L297.797 242.775" stroke="black" stroke-width="7" stroke-linecap="round"/>
<path d="M225.824 236.671L217.1 235.932" stroke="black" stroke-width="7" stroke-linecap="round"/>
<path d="M231.6 219.587C229.002 223.701 226.359 230.058 225.865 236.17C225.27 243.535 227.796 250.545 237.285 252.842C249.799 255.872 255.607 241.439 260.938 232.999C268.306 221.333 280.168 222.45 285.265 230.282C287.557 233.805 288.651 237.676 288.863 241.511C289.173 247.118 287.599 252.649 285.134 256.899" stroke="black" stroke-width="7" stroke-linecap="round"/>
<path d="M145.298 189.15L136.633 190.404" stroke="black" stroke-width="7" stroke-linecap="round"/>
<path d="M147.059 171.2C145.459 175.795 144.324 182.586 145.226 188.65C146.313 195.96 150.361 202.215 160.123 202.306C172.998 202.425 173.325 189.25 176.607 179.823" stroke="black" stroke-width="7" stroke-linecap="round"/>
<path d="M376.885 357.119C377.98 329.029 376.229 271.754 360.469 267.377C340.769 261.905 240.083 261.905 171.135 267.377C102.187 272.849 38.7104 269.566 35.4272 254.244C33.509 245.292 76.2248 240.465 115.319 238.229" stroke="black" stroke-width="7" stroke-linecap="round"/>
<path d="M12.4441 261.904C14.9978 275.402 29.7359 301.522 68.2594 298.02C106.783 294.518 241.177 289.265 303.559 287.076C317.057 286.346 345.366 290.359 350.619 312.247C355.872 334.136 355.726 352.011 354.997 358.213" stroke="black" stroke-width="7" stroke-linecap="round" stroke-dasharray="21.89 21.89"/>
<path d="M342.958 461.088C346.606 476.045 344.49 507.491 306.842 513.62C259.782 521.281 208.345 513.62 122.98 520.186C54.6886 525.44 33.9676 520.186 32.1436 516.903" stroke="black" stroke-width="7" stroke-linecap="round" stroke-dasharray="21.89 21.89"/>
<path d="M376.885 451.239C377.979 488.449 368.13 530.037 350.619 544.264C333.108 558.492 50.7487 551.925 33.238 544.264C19.2295 538.135 12.8095 518.363 11.3506 509.243C-1.68326 428.433 5.76401 307.883 11.2263 249.011C11.3088 248.121 11.6506 247.31 12.252 246.65C29.4314 227.786 70.6218 221.798 106.564 221.41" stroke="black" stroke-width="7" stroke-linecap="round"/>
<path d="M377.979 333.04C383.087 332.31 396.365 336.544 399.868 354.93C403.343 373.178 403.154 415.573 397.802 434.397C397.719 434.687 397.614 434.947 397.465 435.21C389.139 449.936 354.103 469.251 276.953 458.236C275.192 457.985 273.733 456.685 273.343 454.95C267.464 428.79 262.307 378.846 284.025 365.326C284.624 364.953 285.302 364.77 286.008 364.752C315.227 363.977 374.625 360.984 386.735 354.929" stroke="black" stroke-width="7" stroke-linecap="round"/>
<circle cx="323.258" cy="412.933" r="25.1716" fill="black"/>
<path d="M390.019 369.156C376.196 373.158 337.274 380.931 291.914 380.108C291.654 380.103 291.392 380.059 291.133 380.071C287.542 380.23 282.283 392.384 286.859 440.654C287.025 442.408 288.233 443.922 289.936 444.373C305.586 448.517 338.245 452.364 363.752 439.199" stroke="black" stroke-width="7" stroke-linecap="round" stroke-dasharray="21.89 21.89"/>
<path d="M130.944 262.999L37.6589 101.243C36.4336 99.1186 37.1928 96.4019 39.342 95.2202L203.949 4.71436C206.123 3.51954 208.853 4.36666 209.969 6.58161L252.121 90.2948" stroke="black" stroke-width="7" stroke-linecap="round"/>
<path d="M166.757 262.999C171.359 231.994 180.735 156.802 182.195 99.3462C182.251 97.1689 183.857 95.3662 186.022 95.1232C236.837 89.42 340.279 88.6558 379.897 128.212C380.785 129.098 381.201 130.308 381.079 131.556C377.997 163.203 367.298 230.753 347.393 262.999" stroke="black" stroke-width="7" stroke-linecap="round"/>
</svg>
