<svg width="394" height="336" viewBox="0 0 394 336" fill="none" xmlns="http://www.w3.org/2000/svg">
<path d="M105.533 320.21C88.0977 247.222 61.6346 101.153 91.8829 87.8679C93.2575 87.2659 94.7557 86.8728 96.1443 86.2945L211.122 38.3156" stroke="black" stroke-width="5" stroke-linecap="round"/>
<path d="M103.452 101.588C90.4515 126.07 110.654 229.291 126.964 297.146C130.511 311.938 146.613 319.691 160.602 313.611L252.294 273.744" stroke="black" stroke-width="5" stroke-linecap="round"/>
<path d="M126.359 103.062C131.633 96.6442 137.083 73.9858 124.84 62.4016C122.731 60.3827 120.074 58.7046 116.785 57.5048C94.5852 49.3871 80.4234 76.9661 93.776 86.4564" stroke="black" stroke-width="5" stroke-linecap="round"/>
<path d="M124.498 61.3929C126.389 48.9571 142.531 35.9691 161.99 46.7531C182.898 61.5331 172.394 83.2678 162.86 90.8506" stroke="black" stroke-width="5" stroke-linecap="round"/>
<path d="M162.871 45.6848C166.837 35.8813 181.795 16.9772 201.529 24.7479C228.032 39.207 212.775 67.6914 201.683 71.3373" stroke="black" stroke-width="5" stroke-linecap="round"/>
<path d="M201.305 23.3946C207.33 12.5055 222.365 1.98077 237.047 12.3907C251.73 22.8029 247.072 50.3945 232.151 59.2271" stroke="black" stroke-width="5" stroke-linecap="round"/>
<path d="M164.787 139.742C187.123 133.242 202.994 129.842 219.787 114.242" stroke="black" stroke-width="5" stroke-linecap="round"/>
<path d="M173.287 175.242C194.134 171.999 211.544 164.377 230.787 157.242" stroke="black" stroke-width="5" stroke-linecap="round"/>
<path d="M180.287 212.242C203.815 208.667 221.455 209.062 233.787 191.242" stroke="black" stroke-width="5" stroke-linecap="round"/>
<path d="M187.787 244.242C199.561 242.659 210.673 240.276 225.787 228.242" stroke="black" stroke-width="5" stroke-linecap="round"/>
<path d="M319.787 305.743C287.787 283.743 230.287 245.243 255.287 198.242C271.397 167.954 305.096 178.932 318.471 189.181C319.247 189.776 320.328 189.781 321.102 189.184C333.792 179.411 365.516 166.584 384.787 198.242C405.787 232.742 367.787 272.242 341.787 288.742" stroke="black" stroke-width="5" stroke-linecap="round"/>
<path d="M275.981 211.943C286.844 191.601 309.387 198.56 318.809 205.452C319.596 206.028 320.665 206.032 321.449 205.453C330.531 198.757 353.156 189.829 364.619 211.943C378.995 239.678 339.551 272.648 321.22 284.541C320.55 284.976 319.714 284.956 319.055 284.505C296.97 269.391 259.146 243.472 275.981 211.943Z" fill="black"/>
<path d="M240.287 51.7422L266.787 166.742" stroke="black" stroke-width="5" stroke-linecap="round"/>
<path d="M131.787 152.742L137.707 156.072C138.792 156.682 140.164 156.164 140.575 154.99L146.787 137.242" stroke="black" stroke-width="5" stroke-linecap="round"/>
<path d="M139.787 186.742L145.707 190.072C146.792 190.682 148.164 190.164 148.575 188.99L154.787 171.242" stroke="black" stroke-width="5" stroke-linecap="round"/>
<path d="M147.787 220.742L153.707 224.072C154.792 224.682 156.164 224.164 156.575 222.99L162.787 205.242" stroke="black" stroke-width="5" stroke-linecap="round"/>
<path d="M155.787 254.742L161.707 258.072C162.792 258.682 164.164 258.164 164.575 256.99L170.787 239.242" stroke="black" stroke-width="5" stroke-linecap="round"/>
</svg>
