<svg width="486" height="381" viewBox="0 0 486 381" fill="none" xmlns="http://www.w3.org/2000/svg">
<path d="M119.605 363.129C99.8426 280.399 69.8475 114.835 104.133 99.777C105.691 99.0946 107.389 98.649 108.963 97.9935L239.286 43.611" stroke="black" stroke-width="5" stroke-linecap="round"/>
<path d="M117.246 115.326C102.511 143.075 125.41 260.073 143.896 336.984C147.916 353.75 166.167 362.539 182.024 355.646L285.954 310.459" stroke="black" stroke-width="5" stroke-linecap="round"/>
<path d="M143.211 117C149.188 109.725 155.365 84.0428 141.489 70.9125C139.099 68.6242 136.086 66.7221 132.359 65.3622C107.196 56.161 91.144 87.4209 106.279 98.1779" stroke="black" stroke-width="5" stroke-linecap="round"/>
<path d="M141.101 69.767C143.245 55.6714 161.54 40.95 183.596 53.1733C207.296 69.926 195.389 94.5614 184.583 103.156" stroke="black" stroke-width="5" stroke-linecap="round"/>
<path d="M184.595 51.9639C189.091 40.852 206.045 19.4248 228.413 28.2327C258.453 44.6216 241.159 76.9077 228.587 81.0402" stroke="black" stroke-width="5" stroke-linecap="round"/>
<path d="M228.159 26.6995C234.989 14.3571 252.03 2.42766 268.671 14.2269C285.315 26.0289 280.035 57.303 263.123 67.3144" stroke="black" stroke-width="5" stroke-linecap="round"/>
<path d="M153.144 167.446C178.323 160.054 230.169 146.917 249.099 129.176" stroke="black" stroke-width="5" stroke-linecap="round"/>
<path d="M161.144 205.446C184.71 201.663 239.346 186.5 261.099 178.176" stroke="black" stroke-width="5" stroke-linecap="round"/>
<path d="M173.644 250.446C200.471 246.361 251.038 237.541 265.099 217.176" stroke="black" stroke-width="5" stroke-linecap="round"/>
<path d="M185.644 287.946C198.967 286.165 238.996 272.713 256.099 259.176" stroke="black" stroke-width="5" stroke-linecap="round"/>
<path d="M272.099 59.1758L302.099 189.176" stroke="black" stroke-width="5" stroke-linecap="round"/>
<path d="M470.099 255.772V237.457C470.099 226.411 461.145 217.457 450.099 217.457H333.099C322.053 217.457 313.099 226.411 313.099 237.457V306.457C313.099 317.503 322.053 326.457 333.099 326.457H404.737" stroke="black" stroke-width="5" stroke-linecap="round"/>
<path d="M331.099 298.457H363.099" stroke="black" stroke-width="5" stroke-linecap="round"/>
<path d="M374.099 298.457H378.099" stroke="black" stroke-width="5" stroke-linecap="round"/>
<rect x="315.099" y="231.457" width="153" height="19" fill="black"/>
<ellipse cx="444.599" cy="301.457" rx="19.5" ry="19" fill="black"/>
<path d="M459.099 285.431C460.946 284.8 462.928 284.457 464.991 284.457C474.992 284.457 483.099 292.516 483.099 302.457C483.099 312.398 474.992 320.457 464.991 320.457C462.928 320.457 460.946 320.114 459.099 319.483" stroke="black" stroke-width="5" stroke-linecap="round"/>
</svg>
