<svg width="974" height="658" viewBox="0 0 974 658" fill="none" xmlns="http://www.w3.org/2000/svg">
<path d="M213.49 107.241L211.976 109.83C222.063 115.949 242.135 139.983 238.025 186.331C232.856 244.643 210.523 299.536 160.67 325.194C157.224 326.968 149.068 329.535 138.159 331.168C127.289 332.796 113.814 333.476 99.7657 331.562C71.7061 327.74 41.4265 313.597 24.851 275.939L23.4781 276.544L24.851 275.939C12.5593 248.014 15.154 221.549 22.9326 199.938C30.7218 178.296 43.6926 161.582 52.0066 153.31C60.0619 145.326 74.641 133.978 92.095 125.987C109.56 117.992 129.725 113.439 149.065 118.756L150.371 119.115L150.861 117.852C159.018 96.8081 189.08 51.5173 243.772 39.2116C298.43 26.9136 325.112 57.5575 325.317 81.5074C325.385 89.5317 324.027 101.373 319.805 110.85C317.698 115.579 314.919 119.625 311.341 122.342C308.04 124.849 303.994 126.277 298.987 126.008L295.315 106.332L294.891 104.061L292.989 105.373C280.623 113.9 247.294 126.292 213.49 107.241Z" stroke="#D1D4D8" stroke-width="3"/>
<path d="M315.237 177.835C314.059 185.783 311.118 192.577 307.443 197.146C303.726 201.768 299.612 203.743 295.979 203.205C292.347 202.667 288.982 199.584 286.765 194.082C284.573 188.644 283.727 181.289 284.905 173.341C286.082 165.393 289.024 158.599 292.699 154.03C296.416 149.407 300.53 147.432 304.163 147.97C307.795 148.509 311.16 151.591 313.377 157.093C315.569 162.531 316.415 169.887 315.237 177.835Z" stroke="#D1D4D8" stroke-width="3"/>
<path d="M300.314 184.672C302.871 185.05 305.497 181.626 306.179 177.023C306.861 172.42 305.341 168.381 302.784 168.002C300.227 167.623 297.601 171.048 296.919 175.651C296.237 180.254 297.757 184.293 300.314 184.672Z" fill="#D1D4D8"/>
<path d="M239.658 182.543L282.937 178.618" stroke="#D1D4D8" stroke-width="3" stroke-linecap="round"/>
<path d="M302.487 128.233C306.225 135.758 317.254 152.204 328.77 161.408C340.548 170.822 341.543 182.822 334.023 191.468L322.301 205.07C328.77 254.535 319.239 291.164 258.613 308.215" stroke="#D1D4D8" stroke-width="3" stroke-linecap="round"/>
<path d="M257.893 227.659C259.325 227.871 260.659 226.882 260.871 225.449C261.083 224.017 260.094 222.683 258.661 222.471C257.229 222.259 255.895 223.248 255.683 224.681C255.471 226.113 256.46 227.447 257.893 227.659Z" fill="#D1D4D8"/>
<path d="M248.497 251.715C250.216 251.97 251.782 251.015 251.994 249.582C252.206 248.149 250.984 246.782 249.265 246.527C247.546 246.272 245.98 247.227 245.768 248.66C245.556 250.092 246.778 251.46 248.497 251.715Z" fill="#D1D4D8"/>
<path d="M271.362 247.682C273.081 247.937 274.646 246.982 274.859 245.549C275.071 244.117 273.849 242.749 272.13 242.494C270.411 242.239 268.845 243.194 268.633 244.627C268.421 246.059 269.642 247.427 271.362 247.682Z" fill="#D1D4D8"/>
<path d="M328.566 346.167L350.506 322.801C354.476 318.381 364.799 313.581 374.327 329.748C383.856 345.914 380.387 363.007 377.462 369.533" stroke="#D1D4D8" stroke-width="3" stroke-linecap="round"/>
<path d="M412.66 254.939C404.577 264.093 422.137 276.555 427.103 283.825C434.176 281.791 453.08 285.455 449.291 297.533C456.238 289.693 480.862 270.198 485.283 264.477C494.615 252.4 481.957 242.865 473.282 233.329C467.499 226.972 459.391 214.26 444.235 226.972C432.868 236.507 420.743 245.785 412.66 254.939Z" stroke="#D1D4D8" stroke-width="3"/>
<path d="M444.431 307.716C446.626 304.659 447.794 301.971 448.207 300.108C450.314 296.304 451.573 287.526 439.358 284.259C420.396 279.187 423.557 291.233 427.349 291.866C439.99 293.388 445.268 304.335 444.431 307.716Z" stroke="#D1D4D8" stroke-width="3" stroke-linecap="round"/>
<path d="M380.576 356.533C382.472 350.193 392.079 335.485 415.339 327.37C431.005 321.904 439.904 314.023 444.431 307.716" stroke="#D1D4D8" stroke-width="3" stroke-linecap="round"/>
<path d="M414.076 308.984C408.387 305.814 394.103 302.137 382.473 312.788" stroke="#D1D4D8" stroke-width="3" stroke-linecap="round"/>
<path d="M432.405 308.984C426.927 299.263 412.811 282.61 400.17 293.768" stroke="#D1D4D8" stroke-width="3" stroke-linecap="round"/>
<path d="M368.566 312.788C373.622 297.723 384.367 278.069 419.762 275.533" stroke="#D1D4D8" stroke-width="3" stroke-linecap="round"/>
<path d="M438.225 377.677C440.527 374.464 441.683 371.539 440.634 369.519C437.583 363.647 430.08 369.674 426.71 373.422C418.323 382.439 402.181 398.112 406.532 379.874C410.882 361.635 401.629 362.758 379.962 385.021L358.424 398.118" stroke="#D1D4D8" stroke-width="3" stroke-linecap="round"/>
<path d="M436.464 406.272C438.319 411.976 435.343 425.178 408.069 428.377C397.75 429.587 396.199 429.417 386.514 428.6H369.924" stroke="#D1D4D8" stroke-width="3" stroke-linecap="round"/>
<path d="M419.924 394.861C425.283 390.912 433.83 383.742 438.217 377.618C442.981 377.563 447.594 380.249 440.242 389.633C437.059 393.696 431.633 399.013 423.005 405.909" stroke="#D1D4D8" stroke-width="3" stroke-linecap="round"/>
<path d="M423.014 405.967C431.642 399.071 437.068 393.753 440.251 389.69C444.796 390.971 448.885 395.926 436.465 406.272C433.749 408.534 430.243 411.055 425.78 413.851" stroke="#D1D4D8" stroke-width="3" stroke-linecap="round"/>
<path d="M417.024 380.987L405.08 360.369C404.845 359.965 404.917 359.457 405.26 359.14C413.133 351.857 430.278 336.362 441.552 327.41C441.999 327.055 442.646 327.151 442.971 327.62C449.233 336.65 462.098 358.994 468.193 383.297C468.253 383.535 468.227 383.779 468.11 383.994C464.446 390.742 453.245 404.399 436.147 407.602" stroke="#D1D4D8" stroke-width="3" stroke-linecap="round"/>
<path d="M161.567 336.533C88.1038 390.12 96.8942 456.946 96.8942 539.533" stroke="#D1D4D8" stroke-width="3" stroke-linecap="round"/>
<path d="M163.566 337.442L198.833 368.303C199.978 369.306 201.779 368.712 202.104 367.225L211.298 325.178C211.639 323.619 213.579 323.067 214.689 324.215L238.566 348.896" stroke="#D1D4D8" stroke-width="3" stroke-linecap="round"/>
<path d="M238.566 312.533C240.522 316.198 243.326 322.155 245.954 329.078C249.56 338.581 252.834 349.905 253.127 359.624" stroke="#D1D4D8" stroke-width="3" stroke-linecap="round"/>
<path d="M245.953 329.078L326.565 375.533" stroke="#D1D4D8" stroke-width="3" stroke-linecap="round"/>
<path d="M194.566 398.042C206.61 414.358 274.441 459.539 323.253 409.966L336.566 395.533" stroke="#D1D4D8" stroke-width="3" stroke-linecap="round"/>
<path d="M227.566 557.533C243.237 553.481 317.566 512.778 339.214 474.957" stroke="#D1D4D8" stroke-width="3" stroke-linecap="round"/>
<path d="M333.41 425.79C338.778 445.063 340.289 461.332 339.213 474.957C351.156 466.762 362.565 460.459 362.565 434.615C362.565 416.334 349.255 400.576 337.212 395.533" stroke="#D1D4D8" stroke-width="3" stroke-linecap="round"/>
<path d="M233.566 382.533C236.327 382.533 238.566 379.847 238.566 376.533C238.566 373.219 236.327 370.533 233.566 370.533C230.805 370.533 228.566 373.219 228.566 376.533C228.566 379.847 230.805 382.533 233.566 382.533Z" fill="#D1D4D8"/>
<path d="M240.566 411.533C243.327 411.533 245.566 408.847 245.566 405.533C245.566 402.219 243.327 399.533 240.566 399.533C237.805 399.533 235.566 402.219 235.566 405.533C235.566 408.847 237.805 411.533 240.566 411.533Z" fill="#D1D4D8"/>
<path d="M293.685 245.533C293.041 249.433 294.715 257.493 306.567 258.533" stroke="#D1D4D8" stroke-width="3" stroke-linecap="round"/>
<path d="M826.595 245.06C862.887 258.357 904.072 303.922 796.42 370.029" stroke="#D1D4D8" stroke-width="3" stroke-linecap="round"/>
<path d="M736.887 238.954C712.42 235.698 647.943 250.352 680.614 316.703C684.555 324.709 698.882 340.476 724.653 339.499C757.683 338.247 775.489 371.522 786.227 387.533" stroke="#D1D4D8" stroke-width="3" stroke-linecap="round"/>
<path d="M726.566 265.533C748.95 282.426 792.399 337.385 787.126 422.071C781.853 506.756 781.358 518.391 781.77 513.623" stroke="#D1D4D8" stroke-width="3" stroke-linecap="round"/>
<path d="M757.566 355.533V424.533" stroke="#D1D4D8" stroke-width="3" stroke-linecap="round"/>
<path d="M810.566 362.533V429.533" stroke="#D1D4D8" stroke-width="3" stroke-linecap="round"/>
<path d="M796.566 369.533C798.052 346.527 806.133 283.92 826.566 217.533" stroke="#D1D4D8" stroke-width="3" stroke-linecap="round"/>
<path d="M750.549 289.533C750.825 277.657 747.819 249.727 733.591 233.019C715.806 212.133 714.566 199.438 714.566 160.533" stroke="#D1D4D8" stroke-width="3" stroke-linecap="round"/>
<path d="M759.567 172.533C752.247 171.318 739.804 163.216 748.588 140.533" stroke="#D1D4D8" stroke-width="3" stroke-linecap="round"/>
<path d="M845.566 172.533C861.547 163.374 887.198 140.874 861.947 124.143C858.484 121.682 850.36 120.206 845.566 133.985" stroke="#D1D4D8" stroke-width="3" stroke-linecap="round"/>
<path d="M857.152 137.676C856.886 141.776 854.196 150.142 845.566 150.798" stroke="#D1D4D8" stroke-width="3" stroke-linecap="round"/>
<path d="M808.566 112.533C805.489 111.024 797.581 108.911 790.566 112.533" stroke="#D1D4D8" stroke-width="3" stroke-linecap="round"/>
<path d="M735.566 117.533C731.976 116.024 722.75 113.911 714.566 117.533" stroke="#D1D4D8" stroke-width="3" stroke-linecap="round"/>
<path d="M832.458 22.854L832.667 22.9434L832.893 22.9668C855.788 25.3422 870.996 31.4341 880.614 39.5843C890.191 47.6989 894.363 57.9674 894.983 69.0409C896.188 90.5196 884.013 114.959 871.732 131.706C866.508 122.594 857.95 121.282 852.827 121.999C850.405 90.4137 839.19 76.0044 825.433 71.4329C811.831 66.9132 796.474 72.3003 786.428 78.5502C765.902 77.791 752.816 81.4734 744.8 86.5908C738.03 90.9125 734.885 96.2644 734.042 100.704C725.443 96.0824 717.49 96.6712 711.43 98.8873C708.18 100.076 705.478 101.728 703.498 103.283C702.78 103.847 702.149 104.403 701.618 104.927C691.018 72.7612 689.932 50.0179 694.977 34.3679C700.117 18.4257 711.699 9.60885 726.749 5.63519C741.876 1.64104 760.451 2.56964 779.243 6.21588C798.01 9.85721 816.857 16.1819 832.458 22.854Z" stroke="#D1D4D8" stroke-width="3"/>
<path d="M769.066 128.533C769.066 144.311 781.64 157.033 797.066 157.033C812.491 157.033 825.066 144.311 825.066 128.533C825.066 112.754 812.491 100.033 797.066 100.033C781.64 100.033 769.066 112.754 769.066 128.533Z" stroke="#D1D4D8" stroke-width="3"/>
<path d="M798.066 141.533C793.924 141.533 790.566 137.951 790.566 133.533C790.566 129.115 793.924 125.533 798.066 125.533C802.208 125.533 805.566 129.115 805.566 133.533C805.566 137.951 802.208 141.533 798.066 141.533Z" fill="#D1D4D8"/>
<path d="M693.066 128.533C693.066 144.235 706.011 157.033 722.066 157.033C738.12 157.033 751.066 144.235 751.066 128.533C751.066 112.83 738.12 100.033 722.066 100.033C706.011 100.033 693.066 112.83 693.066 128.533Z" stroke="#D1D4D8" stroke-width="3"/>
<path d="M721.566 141.533C716.596 141.533 712.566 137.951 712.566 133.533C712.566 129.115 716.596 125.533 721.566 125.533C726.537 125.533 730.566 129.115 730.566 133.533C730.566 137.951 726.537 141.533 721.566 141.533Z" fill="#D1D4D8"/>
<path d="M750.566 127.533H767.566" stroke="#D1D4D8" stroke-width="3" stroke-linecap="round"/>
<path d="M826.566 124.533L846.566 129.533" stroke="#D1D4D8" stroke-width="3" stroke-linecap="round"/>
<path d="M703.637 509.533C710.365 529.402 707.002 577.418 677.566 610.533" stroke="#D1D4D8" stroke-width="3" stroke-linecap="round"/>
<path d="M859.426 519.533C850.854 536.435 844.994 591.912 865.567 629.533" stroke="#D1D4D8" stroke-width="3" stroke-linecap="round"/>
<path d="M859.424 519.118C828.988 522.953 756.477 525.805 703.924 509.618" stroke="#D1D4D8" stroke-width="3" stroke-linecap="round"/>
<path d="M863.566 274.533C953.62 324.961 1049.85 456.893 865.582 624.533" stroke="#D1D4D8" stroke-width="3" stroke-linecap="round"/>
<path d="M878.566 525.533C895.642 499.887 895.939 495.099 897.566 462.533" stroke="#D1D4D8" stroke-width="3" stroke-linecap="round"/>
<path d="M888.424 602.618C888.424 624.635 886.521 632.112 882.432 644.751C830.227 657.255 716.025 668.178 677.424 610.118" stroke="#D1D4D8" stroke-width="3" stroke-linecap="round"/>
<path d="M634.566 366.533C663.232 457.161 635.794 530.566 677.566 610.533" stroke="#D1D4D8" stroke-width="3" stroke-linecap="round"/>
<path d="M763.672 204.009C763.101 207.202 761.771 209.829 760.214 211.512C758.634 213.22 757.094 213.714 755.922 213.504C754.75 213.295 753.477 212.297 752.588 210.147C751.712 208.028 751.375 205.103 751.947 201.91C752.519 198.717 753.849 196.091 755.406 194.407C756.985 192.7 758.526 192.205 759.698 192.415C760.87 192.625 762.142 193.623 763.032 195.773C763.908 197.892 764.244 200.816 763.672 204.009Z" stroke="#D1D4D8" stroke-width="3"/>
<path d="M522.78 264.263C523.419 232.441 543.866 164.855 587.955 130.131C600.213 124.107 625.11 123.787 626.63 170.7C618.957 189.974 613.644 220.167 610.479 246.124C605.473 287.176 576.741 335.387 551.054 333.478C525.368 331.568 521.502 286.539 522.78 264.263Z" stroke="#D1D4D8" stroke-width="3" stroke-linecap="round"/>
<path d="M587.953 130.131C608.56 113.901 649.582 86.8836 698.656 87.6473C703.448 87.17 712.937 87.9337 712.553 94.8074C712.074 103.4 697.697 96.2395 675.652 107.696" stroke="#D1D4D8" stroke-width="3" stroke-linecap="round"/>
<path d="M659.359 118.675C667.506 122.812 682.362 132.995 676.611 140.632C675.493 142.223 672.298 145.406 668.464 145.406" stroke="#D1D4D8" stroke-width="3" stroke-linecap="round"/>
<path d="M655.525 131.562C662.074 135.062 673.448 144.259 666.547 153.042C659.646 161.825 651.851 161.157 648.815 159.725C645.69 158.428 640.971 155.184 642.452 151.133C642.787 150.215 643.44 149.256 644.502 148.269C650.253 142.923 652.33 147.951 652.649 151.133" stroke="#D1D4D8" stroke-width="3" stroke-linecap="round"/>
<path d="M646.9 104.354C659.2 103.877 683.8 107.314 683.8 124.88C683.96 126.789 682.746 130.322 676.612 129.176" stroke="#D1D4D8" stroke-width="3" stroke-linecap="round"/>
<path d="M626.629 170.7C631.091 159.492 636.352 151.976 642.453 151.134" stroke="#D1D4D8" stroke-width="3" stroke-linecap="round"/>
<path d="M550.566 346.533C565.712 357.44 603.516 376.751 633.566 366.743" stroke="#D1D4D8" stroke-width="3" stroke-linecap="round"/>
<path d="M610.066 255.033C617.732 250.366 644.866 242.433 692.066 248.033" stroke="#D1D4D8" stroke-width="3" stroke-linecap="round"/>
<path d="M442.424 197.618L421.424 168.618" stroke="#D1D4D8" stroke-width="3" stroke-linecap="round"/>
<path d="M463.924 196.618L466.924 141.118" stroke="#D1D4D8" stroke-width="3" stroke-linecap="round"/>
<path d="M485.924 202.118L502.924 174.618" stroke="#D1D4D8" stroke-width="3" stroke-linecap="round"/>
</svg>
