<svg width="2804" height="1694" viewBox="0 0 2804 1694" fill="none" xmlns="http://www.w3.org/2000/svg">
<path d="M568.5 1238.41L828.5 1243.41V1208.91L598.5 1204.41L542.314 1224.58C541.47 1224.89 541.421 1226.06 542.237 1226.44L568.5 1238.41Z" fill="#D1D4D8"/>
<path d="M901.42 1209.46L866 1256.41V1209.46H901.42Z" fill="#D1D4D8"/>
<path d="M1063 1277.76C1047.69 1270.61 1010.42 1256.75 983.823 1258.58C980.053 1258.73 974.359 1260.31 981.745 1265.43C989.132 1270.54 992.826 1273.19 993.749 1273.88C997.596 1277.07 1001.37 1283.83 985.67 1285.29C966.048 1287.12 910.648 1267.26 801 1281.87" stroke="#D1D4D8" stroke-width="3" stroke-linecap="round"/>
<path d="M863.5 1258.41V1087.91H831V1252.41" stroke="#D1D4D8" stroke-width="3" stroke-linecap="round"/>
<path d="M863.5 970.915V984.415H831V970.915C831 969.258 832.343 967.915 834 967.915H860.5C862.157 967.915 863.5 969.258 863.5 970.915Z" stroke="#D1D4D8" stroke-width="3" stroke-linecap="round"/>
<path d="M889.332 987.159L884.155 1084.58C884.069 1086.2 882.701 1087.46 881.073 1087.41L678.701 1081.53C677.93 1081.51 677.197 1081.19 676.655 1080.65L635.976 1039.5C634.865 1038.37 634.816 1036.58 635.866 1035.4L680.605 985.008C681.174 984.367 681.991 984 682.848 984H886.336C888.056 984 889.423 985.442 889.332 987.159Z" stroke="#D1D4D8" stroke-width="3" stroke-linecap="round"/>
<path d="M722.77 1256V1235" stroke="#D1D4D8" stroke-width="3" stroke-linecap="round"/>
<path d="M704 1246.67L715.45 1256" stroke="#D1D4D8" stroke-width="3" stroke-linecap="round"/>
<path d="M730.41 1256L739 1242.33" stroke="#D1D4D8" stroke-width="3" stroke-linecap="round"/>
<path d="M668.77 1187V1166" stroke="#D1D4D8" stroke-width="3" stroke-linecap="round"/>
<path d="M650 1177.67L661.45 1187" stroke="#D1D4D8" stroke-width="3" stroke-linecap="round"/>
<path d="M676.41 1187L685 1173.33" stroke="#D1D4D8" stroke-width="3" stroke-linecap="round"/>
<path d="M974.77 1204V1183" stroke="#D1D4D8" stroke-width="3" stroke-linecap="round"/>
<path d="M956 1194.67L967.45 1204" stroke="#D1D4D8" stroke-width="3" stroke-linecap="round"/>
<path d="M982.41 1204L991 1190.33" stroke="#D1D4D8" stroke-width="3" stroke-linecap="round"/>
<path d="M2494.5 1033.5L2234.5 1038.5V1004L2464.5 999.495L2520.69 1019.67C2521.53 1019.98 2521.58 1021.15 2520.76 1021.53L2494.5 1033.5Z" fill="#D1D4D8"/>
<path d="M2161.58 1004.54L2197 1051.49V1004.54H2161.58Z" fill="#D1D4D8"/>
<path d="M2000 1072.84C2015.31 1065.69 2052.58 1051.83 2079.18 1053.66C2082.95 1053.81 2088.64 1055.39 2081.26 1060.51C2073.87 1065.62 2070.17 1068.27 2069.25 1068.96C2065.4 1072.15 2061.63 1078.91 2077.33 1080.37C2096.95 1082.2 2152.35 1062.34 2262 1076.95" stroke="#D1D4D8" stroke-width="3" stroke-linecap="round"/>
<path d="M2199.5 1053.49V882.995H2232V1047.49" stroke="#D1D4D8" stroke-width="3" stroke-linecap="round"/>
<path d="M2199.5 766V779.5H2232V766C2232 764.343 2230.66 763 2229 763H2202.5C2200.84 763 2199.5 764.343 2199.5 766Z" stroke="#D1D4D8" stroke-width="3" stroke-linecap="round"/>
<path d="M2173.67 782.244L2178.84 879.66C2178.93 881.287 2180.3 882.547 2181.93 882.5L2384.3 876.62C2385.07 876.597 2385.8 876.279 2386.34 875.73L2427.02 834.584C2428.14 833.46 2428.18 831.665 2427.13 830.483L2382.4 780.093C2381.83 779.452 2381.01 779.085 2380.15 779.085H2176.66C2174.94 779.085 2173.58 780.527 2173.67 782.244Z" stroke="#D1D4D8" stroke-width="3" stroke-linecap="round"/>
<path d="M2340.23 1051.08V1030.08" stroke="#D1D4D8" stroke-width="3" stroke-linecap="round"/>
<path d="M2359 1041.75L2347.55 1051.08" stroke="#D1D4D8" stroke-width="3" stroke-linecap="round"/>
<path d="M2332.59 1051.08L2324 1037.42" stroke="#D1D4D8" stroke-width="3" stroke-linecap="round"/>
<path d="M2394.23 982.083V961.085" stroke="#D1D4D8" stroke-width="3" stroke-linecap="round"/>
<path d="M2413 972.751L2401.55 982.083" stroke="#D1D4D8" stroke-width="3" stroke-linecap="round"/>
<path d="M2386.59 982.083L2378 968.418" stroke="#D1D4D8" stroke-width="3" stroke-linecap="round"/>
<path d="M2088.23 999.083V978.085" stroke="#D1D4D8" stroke-width="3" stroke-linecap="round"/>
<path d="M2107 989.751L2095.55 999.083" stroke="#D1D4D8" stroke-width="3" stroke-linecap="round"/>
<path d="M2080.59 999.083L2072 985.418" stroke="#D1D4D8" stroke-width="3" stroke-linecap="round"/>
<path d="M1335 395.415C1341.32 389.044 1357.5 330.415 1475 317.915" stroke="#D1D4D8" stroke-width="3" stroke-linecap="round"/>
<path d="M1555 317.915C1572.5 322.915 1626.36 333.202 1650 359.915C1720.06 439.063 1739.96 585.761 1648 736.415" stroke="#D1D4D8" stroke-width="3" stroke-linecap="round"/>
<path d="M1306 509.4C1327.14 517.361 1362 513.915 1385 493.915" stroke="#D1D4D8" stroke-width="3" stroke-linecap="round"/>
<path d="M1162 1688.91C1027.07 1544.08 606.756 1253.72 5 1250.91" stroke="#D1D4D8" stroke-width="3" stroke-linecap="round"/>
<path d="M1642 1688.91C1776.93 1544.08 2197.24 1253.72 2799 1250.91" stroke="#D1D4D8" stroke-width="3" stroke-linecap="round"/>
<path d="M1449.01 1208.91C1450.68 1222.91 1447.33 1244.71 1431.73 1251.91C1412.23 1260.91 1362.23 1291.41 1410.23 1297.91C1448.63 1303.11 1479.56 1276.75 1490.23 1262.91C1493.89 1246.91 1496.51 1228.41 1490.23 1208.91" stroke="#D1D4D8" stroke-width="3" stroke-linecap="round"/>
<path d="M1525.54 1181.91C1352.8 1289.91 1379.63 898.236 1391.45 707.915C1516.88 746.915 1618.45 721.915 1640.95 686.415C1647.34 709.073 1667.14 871.283 1668.8 917.415C1671.47 991.415 1678.57 1164.9 1580.3 1199.91C1556.06 1208.55 1538.38 1200.79 1525.54 1181.91Z" fill="#D1D4D8"/>
<path d="M1541.01 1209.41C1540.11 1219.33 1540.33 1242.47 1543.94 1255.41C1553.07 1288.15 1580.71 1322.78 1647.51 1319.91C1656.51 1317.75 1669.11 1308.61 1647.51 1289.41C1639.62 1282.4 1631.05 1275.99 1623.01 1269.36C1603.52 1253.31 1587.12 1236 1591.01 1205.91" stroke="#D1D4D8" stroke-width="3" stroke-linecap="round"/>
<path d="M1388 525.415C1380 598.915 1387.45 685.415 1393.45 707.915C1454.11 725.915 1588.35 746.615 1639.95 685.415C1642.28 674.748 1650.5 566.915 1636.5 511.415" stroke="#D1D4D8" stroke-width="3" stroke-linecap="round"/>
<path d="M1444.95 412.915L1452.98 400.589C1460.8 388.577 1476.04 383.781 1489.33 389.143L1508.47 396.859C1520.41 401.673 1534.09 398.334 1542.47 388.56L1564.45 362.915" stroke="#D1D4D8" stroke-width="3" stroke-linecap="round"/>
<path d="M1555.45 322.33C1559.95 309.33 1555.85 300.581 1551.85 298.915C1527.85 320.915 1491.45 312.748 1477.95 299.415C1473.15 303.815 1475.95 316.83 1477.95 320.83C1503.95 349.63 1540.95 333.496 1555.45 322.33Z" fill="#D1D4D8"/>
<path d="M1230.59 426.635C1223.13 387.739 1230.56 300.179 1275.3 246.488C1288.68 235.979 1318.94 229.136 1332.94 285.84C1328.58 311.288 1329.92 349.413 1332.78 381.826C1337.3 433.088 1314.77 499.214 1282.97 503.549C1251.17 507.882 1234.8 454.079 1230.59 426.635Z" stroke="#D1D4D8" stroke-width="3" stroke-linecap="round"/>
<path d="M1275.46 246.582C1296.3 221.311 1339.17 177.506 1399.09 165.741C1404.8 163.914 1416.55 162.396 1417.87 170.939C1419.54 181.618 1400.17 176.544 1376.33 196.323" stroke="#D1D4D8" stroke-width="3" stroke-linecap="round"/>
<path d="M1359.36 213.906C1370.15 216.775 1390.5 225.16 1385.56 235.744C1384.63 237.929 1381.62 242.543 1377.03 243.518" stroke="#D1D4D8" stroke-width="3" stroke-linecap="round"/>
<path d="M1357.8 229.996C1366.81 232.552 1383.28 240.802 1377.02 253.355C1370.77 265.908 1360.95 267.143 1356.82 266.191C1352.62 265.428 1345.93 262.704 1346.71 257.362C1346.89 256.151 1347.45 254.807 1348.5 253.321C1354.23 245.272 1358.11 250.873 1359.33 254.679" stroke="#D1D4D8" stroke-width="3" stroke-linecap="round"/>
<path d="M1340.52 199.426C1355.46 195.631 1386.51 193.472 1391.13 215.207C1391.83 217.527 1391.27 222.215 1383.46 222.396" stroke="#D1D4D8" stroke-width="3" stroke-linecap="round"/>
<path d="M1332.84 285.363C1335.42 270.476 1339.95 259.898 1347.26 257.268" stroke="#D1D4D8" stroke-width="3" stroke-linecap="round"/>
<path d="M1594.51 173.376C1594.13 173.787 1593.74 174.206 1593.35 174.634C1593.18 166.498 1592.54 156.571 1591.9 147.175C1591.84 146.204 1591.77 145.24 1591.7 144.284C1591.03 134.435 1590.42 125.472 1590.42 120.023V118.523H1588.92C1536.89 118.523 1492.97 97.2638 1477.61 86.7073L1475.22 85.0619L1475.26 87.9667C1475.53 105.614 1467.39 120.273 1459.08 130.588C1454.93 135.737 1450.76 139.773 1447.63 142.519C1446.07 143.892 1444.77 144.94 1443.86 145.642C1443.41 145.994 1443.05 146.258 1442.81 146.433C1442.69 146.521 1442.6 146.586 1442.54 146.629L1442.48 146.675L1442.46 146.686L1442.46 146.688L1442.46 146.688L1442.46 146.688L1441.54 147.329L1441.9 148.391L1441.9 148.392L1441.9 148.392L1441.9 148.397L1441.91 148.424C1441.91 148.435 1441.91 148.447 1441.92 148.463C1441.93 148.485 1441.93 148.511 1441.94 148.542C1441.98 148.65 1442.03 148.816 1442.1 149.041C1442.23 149.491 1442.43 150.176 1442.68 151.104C1443.17 152.959 1443.86 155.785 1444.64 159.635C1446.19 167.335 1448.1 179.133 1449.49 195.467L1449.49 195.467C1450.04 201.983 1450.05 206.472 1449.72 209.453C1449.56 210.944 1449.32 212.003 1449.05 212.727C1448.77 213.466 1448.52 213.733 1448.41 213.812L1448.4 213.813C1448.36 213.847 1448.33 213.866 1448.21 213.836C1448.02 213.791 1447.7 213.638 1447.26 213.273C1446.42 212.573 1445.51 211.393 1444.7 210.062C1439.65 193.875 1432.78 187.208 1425.65 186.252C1419.47 185.422 1413.82 189.019 1410.11 192.842C1389.62 159.069 1382.22 132.187 1382.89 110.929C1383.57 89.3623 1392.57 73.4289 1404.97 61.7923C1417.41 50.1255 1433.29 42.7616 1447.66 38.4763C1462.07 34.1828 1474.78 33.0327 1480.79 33.6454L1481.43 33.7104L1481.91 33.2939C1500.71 17.2485 1526.85 4.74849 1545.04 2.92789L1544.89 1.43535L1545.04 2.92789C1578.02 -0.373212 1601.78 12.511 1615.18 33.9475C1628.64 55.4633 1631.78 85.8077 1622.94 117.533C1617.45 137.256 1613.37 147.847 1608.73 155.669C1604.83 162.223 1600.54 166.864 1594.51 173.376Z" stroke="#D1D4D8" stroke-width="3"/>
<path d="M1444.49 235.405C1453.49 290.35 1513.9 329.86 1557.49 285.35C1601.08 240.841 1592.36 159.369 1587.7 121.35" stroke="#D1D4D8" stroke-width="3" stroke-linecap="round"/>
<path d="M1408.89 191.935C1403.39 205.435 1408.55 235.35 1444.49 235.35" stroke="#D1D4D8" stroke-width="3" stroke-linecap="round"/>
<path d="M1424.74 199.35C1423.95 202.239 1424.58 209.084 1433.49 213.35" stroke="#D1D4D8" stroke-width="3" stroke-linecap="round"/>
<path d="M1586.49 228.35C1598.22 223.46 1606.49 205.35 1603.31 176.35" stroke="#D1D4D8" stroke-width="3" stroke-linecap="round"/>
<path d="M1520.49 261.35C1527 247.415 1531.26 256.095 1539.99 248.85" stroke="#D1D4D8" stroke-width="3" stroke-linecap="round"/>
<path d="M1554.04 207C1558.18 207 1561.54 203.642 1561.54 199.5C1561.54 195.358 1558.18 192 1554.04 192C1549.9 192 1546.54 195.358 1546.54 199.5C1546.54 203.642 1549.9 207 1554.04 207Z" fill="#D1D4D8"/>
<path d="M1488.04 208C1492.18 208 1495.54 204.642 1495.54 200.5C1495.54 196.358 1492.18 193 1488.04 193C1483.9 193 1480.54 196.358 1480.54 200.5C1480.54 204.642 1483.9 208 1488.04 208Z" fill="#D1D4D8"/>
<path d="M1472.49 175.35C1474.07 170.703 1480.88 162.107 1495.49 164.895" stroke="#D1D4D8" stroke-width="3" stroke-linecap="round"/>
<path d="M1542.49 166.35C1545.98 163.332 1555.45 159.106 1565.49 166.35" stroke="#D1D4D8" stroke-width="3" stroke-linecap="round"/>
<path d="M1518.3 187.35C1517.13 197.224 1516.34 217.248 1522.49 218.35" stroke="#D1D4D8" stroke-width="3" stroke-linecap="round"/>
</svg>
