<svg width="2044" height="1292" viewBox="0 0 2044 1292" fill="none" xmlns="http://www.w3.org/2000/svg">
<path d="M951.222 826.351H924.778C918.335 826.351 913.111 831.572 913.111 838.012V859.779C913.111 866.219 918.335 871.439 924.778 871.439H951.222C957.666 871.439 962.889 866.219 962.889 859.779V838.012C962.889 831.572 957.666 826.351 951.222 826.351Z" stroke="#D1D4D8" stroke-width="5"/>
<path d="M1038.33 806.14H1010.33C1003.89 806.14 998.666 811.36 998.666 817.8V859.779C998.666 866.219 1003.89 871.439 1010.33 871.439H1038.33C1044.78 871.439 1050 866.219 1050 859.779V817.8C1050 811.36 1044.78 806.14 1038.33 806.14Z" stroke="#D1D4D8" stroke-width="5"/>
<path d="M1125.45 775.044H1099C1092.56 775.044 1087.33 780.265 1087.33 786.705V859.779C1087.33 866.219 1092.56 871.439 1099 871.439H1125.45C1131.89 871.439 1137.11 866.219 1137.11 859.779V786.705C1137.11 780.265 1131.89 775.044 1125.45 775.044Z" stroke="#D1D4D8" stroke-width="5"/>
<path d="M1214.11 743.172H1186.11C1177.52 743.172 1170.55 750.133 1170.55 758.72V859.779C1170.55 868.365 1177.52 875.326 1186.11 875.326H1214.11C1222.7 875.326 1229.67 868.365 1229.67 859.779V758.72C1229.67 750.133 1222.7 743.172 1214.11 743.172Z" fill="#D1D4D8"/>
<path d="M1302.78 801.475H1277.89C1271.45 801.475 1266.22 806.696 1266.22 813.136V859.779C1266.22 866.219 1271.45 871.439 1277.89 871.439H1302.78C1309.22 871.439 1314.44 866.219 1314.44 859.779V813.136C1314.44 806.696 1309.22 801.475 1302.78 801.475Z" stroke="#D1D4D8" stroke-width="5"/>
<path d="M1394.56 831.016H1368.11C1361.67 831.016 1356.45 836.236 1356.45 842.676V859.779C1356.45 866.219 1361.67 871.439 1368.11 871.439H1394.56C1401 871.439 1406.22 866.219 1406.22 859.779V842.676C1406.22 836.236 1401 831.016 1394.56 831.016Z" stroke="#D1D4D8" stroke-width="5"/>
<path d="M1200.12 726.505C1198.88 727.92 1196.68 727.92 1195.44 726.505L1185.96 715.679C1184.2 713.669 1185.63 710.522 1188.3 710.522H1207.25C1209.93 710.522 1211.36 713.669 1209.6 715.679L1200.12 726.505Z" fill="#D1D4D8"/>
<path fill-rule="evenodd" clip-rule="evenodd" d="M1144.11 628.12H1256.11C1264.7 628.12 1271.67 635.081 1271.67 643.668V702.748C1271.67 711.335 1264.7 718.296 1256.11 718.296H1144.11C1135.52 718.296 1128.55 711.335 1128.55 702.748V643.668C1128.55 635.081 1135.52 628.12 1144.11 628.12ZM1172.11 668.544H1251.45C1254.02 668.544 1256.11 670.632 1256.11 673.208C1256.11 675.784 1254.02 677.872 1251.45 677.872H1172.11C1169.53 677.872 1167.45 675.784 1167.45 673.208C1167.45 670.632 1169.53 668.544 1172.11 668.544ZM1145.5 673.208C1145.5 670.538 1147.67 668.376 1150.33 668.376C1153 668.376 1155.17 670.538 1155.17 673.208V674.763C1155.17 677.433 1153 679.595 1150.33 679.595C1147.67 679.595 1145.5 677.433 1145.5 674.763V673.208ZM1172.89 691.865H1204C1207.01 691.865 1209.45 694.302 1209.45 697.307C1209.45 700.312 1207.01 702.749 1204 702.749H1172.89C1169.88 702.749 1167.45 700.312 1167.45 697.307C1167.45 694.302 1169.88 691.865 1172.89 691.865ZM1195.44 637.449H1164.33C1161.76 637.449 1159.67 639.537 1159.67 642.113C1159.67 644.689 1161.76 646.777 1164.33 646.777H1195.44C1198.02 646.777 1200.11 644.689 1200.11 642.113C1200.11 639.537 1198.02 637.449 1195.44 637.449ZM1150.33 691.865C1152.91 691.865 1155 693.953 1155 696.53V698.084C1155 700.66 1152.91 702.749 1150.33 702.749C1147.76 702.749 1145.67 700.66 1145.67 698.084V696.53C1145.67 693.953 1147.76 691.865 1150.33 691.865Z" fill="#D1D4D8"/>
<path d="M1379 206.005H940.334C925.299 206.005 913.111 218.186 913.111 233.213V488.193C913.111 503.219 925.299 515.401 940.334 515.401H1379C1394.03 515.401 1406.22 503.219 1406.22 488.193V233.213C1406.22 218.186 1394.03 206.005 1379 206.005Z" stroke="#D1D4D8" stroke-width="5"/>
<path d="M960.556 267.418C967.429 267.418 973 261.849 973 254.98C973 248.11 967.429 242.542 960.556 242.542C953.683 242.542 948.111 248.11 948.111 254.98C948.111 261.849 953.683 267.418 960.556 267.418Z" fill="#D1D4D8"/>
<path d="M1319 480.419H1369.67M1291.89 458.652H1369.67H1291.89Z" stroke="#D1D4D8" stroke-width="5" stroke-linecap="round"/>
<path d="M978.006 393.65C995.602 392.047 1037.16 402.583 1064.75 456.864C1065.33 458.01 1066.99 458.047 1067.58 456.902C1096.04 401.125 1130.76 344.051 1241.91 413.086C1243.28 413.938 1245.09 412.442 1244.39 410.988C1226.14 372.925 1215.34 298.251 1300.3 261.764C1301.66 261.181 1301.61 259.168 1300.19 258.753L1276.17 251.736C1274.57 251.268 1274.74 249.053 1276.4 248.888C1298.57 246.685 1331.61 247.719 1320.6 261.083C1308.06 276.311 1304.97 285.939 1308.03 301.838" stroke="#D1D4D8" stroke-width="5" stroke-linecap="round"/>
<path d="M1472.67 112.72H847.339C832.305 112.72 820.117 124.901 820.117 139.928V937.516C820.117 952.543 832.305 964.724 847.339 964.724H1472.67C1487.71 964.724 1499.9 952.543 1499.9 937.516V139.928C1499.9 124.901 1487.71 112.72 1472.67 112.72Z" stroke="#D1D4D8" stroke-width="5"/>
<path d="M1543.67 144.592L1606.11 122.811" stroke="#D1D4D8" stroke-width="5" stroke-linecap="round"/>
<path d="M1514.69 91.1291L1572.67 4.66425" stroke="#D1D4D8" stroke-width="5" stroke-linecap="round"/>
<path d="M1455.22 70.0079L1473.06 20.5052" stroke="#D1D4D8" stroke-width="5" stroke-linecap="round"/>
<path d="M782.445 203.673L748.223 175.687" stroke="#D1D4D8" stroke-width="5" stroke-linecap="round"/>
<path d="M782.444 296.181L724.889 261.199" stroke="#D1D4D8" stroke-width="5" stroke-linecap="round"/>
<path d="M782.445 247.206L706.223 192.012" stroke="#D1D4D8" stroke-width="5" stroke-linecap="round"/>
<path d="M1536.11 787.483L1568.78 752.501" stroke="#D1D4D8" stroke-width="5" stroke-linecap="round"/>
<path d="M1536.11 746.282L1606.11 670.099" stroke="#D1D4D8" stroke-width="5" stroke-linecap="round"/>
<path d="M1536.11 705.081L1557.11 680.982" stroke="#D1D4D8" stroke-width="5" stroke-linecap="round"/>
<path d="M572.444 578.368C575.021 578.368 577.111 576.28 577.111 573.704C577.111 571.128 575.021 569.04 572.444 569.04C569.867 569.04 567.777 571.128 567.777 573.704C567.777 576.28 569.867 578.368 572.444 578.368Z" fill="#D1D4D8"/>
<path d="M574.001 618.792C576.578 618.792 578.667 616.704 578.667 614.128C578.667 611.552 576.578 609.463 574.001 609.463C571.423 609.463 569.334 611.552 569.334 614.128C569.334 616.704 571.423 618.792 574.001 618.792Z" fill="#D1D4D8"/>
<path d="M383.701 1057.23C394.072 1081.07 439.701 1126.42 453.701 1104.65C460.109 1094.69 453.701 1087.55 441 1072.78C427.758 1057.38 427.518 1048.16 434 1043.24C437.629 1040.13 446.445 1032.36 449.556 1029.25" stroke="#D1D4D8" stroke-width="5" stroke-linecap="round"/>
<path d="M537.445 1051.01C537.445 1081.33 566.324 1092.53 590.591 1087.55C620.924 1081.33 637.258 1070.45 628.702 1061.9C621.858 1055.06 607.83 1059.38 600.702 1061.9C587.48 1066.56 577.369 1054.9 581.258 1033.91" stroke="#D1D4D8" stroke-width="5" stroke-linecap="round"/>
<path d="M505.92 1103.23C501.54 1089.46 537.803 1085.34 556.663 1084C563.233 1091.29 578.093 1089.3 580.223 1090.99C560.147 1099.09 510.301 1117.01 505.92 1103.23Z" fill="#D1D4D8"/>
<path d="M356.479 1116.31C344.656 1105.12 393.554 1101.28 419.479 1100.77C423.212 1106.36 437.627 1110.35 444.368 1111.65C419.998 1117.87 368.301 1127.51 356.479 1116.31Z" fill="#D1D4D8"/>
<path d="M439.445 1028.47C319.219 1002.51 386.945 844.273 416.501 613C427.388 710.172 584.833 705.529 617.5 655C612.833 843.902 642.446 925.856 608.224 990.378C583.474 1037.04 521.04 1028.41 500.589 996.455C486.872 1011.68 469.417 1034.94 439.445 1028.47Z" fill="#D1D4D8"/>
<path d="M472.89 380.915C434.51 451.676 408.334 562.821 420.779 635.894C435.76 662.55 470.574 687.764 516.445 691.088C534.886 693.523 587.747 684.096 612.112 660.77C624.056 649.337 624.556 592.361 612.112 540.277" stroke="#D1D4D8" stroke-width="5" stroke-linecap="round"/>
<path d="M221.747 302.225L221.549 302.264L221.36 302.334C218.977 303.215 211.404 303.595 204.961 293.897C203.608 291.86 201.848 290.447 199.74 290.001C197.626 289.554 195.614 290.177 193.964 291.307C190.756 293.504 188.42 297.88 187.624 302.828C186.812 307.879 187.533 313.864 190.841 319.579C194.01 325.056 199.472 330.144 207.93 333.944C209.411 340.833 209.888 350.291 207.049 357.862C205.567 361.816 203.218 365.166 199.711 367.45C196.207 369.731 191.316 371.099 184.479 370.678C178.143 370.288 172.04 366.56 166.242 360.202C160.461 353.861 155.218 345.154 150.617 335.4C141.426 315.919 135.02 292.757 131.944 277.367C128.209 254.905 132.995 203.283 181.782 176.29L180.572 174.103L181.782 176.29C231.149 148.977 268.766 155.755 281.024 162.109C286.557 165.705 293.732 172.782 297.286 182.252C300.803 191.629 300.862 203.565 291.801 217.266L291.801 217.266C273.072 245.591 256.288 246.313 251.364 244.342L249.924 243.766L248.768 244.8L223.369 267.524L221.954 268.791L222.794 270.494C225.329 275.63 228.167 283.398 228.626 290.085C228.856 293.429 228.47 296.236 227.407 298.28C226.411 300.194 224.722 301.644 221.747 302.225Z" stroke="#D1D4D8" stroke-width="5"/>
<path d="M246.69 248.969C266.579 272.879 302.345 332.851 286.291 381.452C281.511 392.567 266.725 415.466 233.578 420.365" stroke="#D1D4D8" stroke-width="5" stroke-linecap="round"/>
<path d="M180.623 380.094C184.159 399.455 184.812 403.036 185.661 425.007" stroke="#D1D4D8" stroke-width="5" stroke-linecap="round"/>
<path d="M271.262 286.779C286.982 297.978 312.64 322.515 289.494 331.072" stroke="#D1D4D8" stroke-width="5" stroke-linecap="round"/>
<path d="M254.869 271.692C250.989 273.431 243.26 279.476 243.376 289.733" stroke="#D1D4D8" stroke-width="5" stroke-linecap="round"/>
<path d="M212.462 308.748C210.612 312.037 209.068 318.969 217.687 320.38" stroke="#D1D4D8" stroke-width="5" stroke-linecap="round"/>
<path d="M287.263 367.3C283.335 364.767 275.495 357.627 275.553 349.331" stroke="#D1D4D8" stroke-width="5" stroke-linecap="round"/>
<path d="M241.538 327.653C239.867 327.255 238.834 325.578 239.232 323.908C239.63 322.237 241.308 321.205 242.979 321.603C244.651 322.001 245.683 323.677 245.285 325.348C244.887 327.019 243.21 328.051 241.538 327.653Z" fill="#D1D4D8"/>
<path d="M259.522 297.404C257.42 297.849 255.212 295.825 254.59 292.885C253.968 289.945 255.166 287.201 257.268 286.757C259.369 286.312 261.577 288.336 262.199 291.276C262.822 294.216 261.623 296.96 259.522 297.404Z" fill="#D1D4D8"/>
<path d="M251.556 346.019C249.884 345.621 248.852 343.945 249.25 342.274C249.648 340.603 251.325 339.571 252.997 339.969C254.668 340.367 255.701 342.044 255.303 343.714C254.905 345.385 253.227 346.417 251.556 346.019Z" fill="#D1D4D8"/>
<path d="M232.388 352.645C230.716 352.248 229.684 350.571 230.082 348.9C230.48 347.23 232.157 346.198 233.829 346.596C235.5 346.993 236.533 348.67 236.135 350.341C235.737 352.011 234.059 353.043 232.388 352.645Z" fill="#D1D4D8"/>
<path d="M101.488 640.995C113.311 668.981 160.859 665.094 183.155 659.652L191.71 656.543V665.871L176.155 668.981C167.859 671.571 150.955 682.196 149.711 703.963C148.155 731.171 155.155 804.244 158.266 823.679C160.755 839.226 172.786 845.186 178.488 846.223C187.199 863.014 222.044 858.401 238.377 853.996C239.622 865.813 250.304 864.62 255.488 862.548C256.11 866.901 262.488 866.952 265.599 866.435C284.888 944.794 280.377 1088.24 275.71 1150.18C276.748 1167.02 271.355 1199.77 241.488 1196.04C211.622 1192.31 159.044 1197.6 136.488 1200.71C99.7774 1207.55 88.007 1184.38 86.7107 1171.94C56.8441 1182.52 39.5254 1170.65 34.5996 1163.39C43.3107 905.303 82.8218 707.59 101.488 640.995Z" fill="#D1D4D8"/>
<path d="M137.667 1290.79C234.111 1294.67 280 1275.33 280 1262.02C280 1256.58 283.111 1251.14 261.333 1243.37C270.667 1256.06 267.244 1280.21 178.889 1275.24C164.629 1276.02 132.533 1272.28 118.222 1251.14H111.222C41.2222 1233.26 0 1247.94 0 1261.25C0 1274.55 57.5556 1287.56 137.667 1290.79Z" fill="#D1D4D8"/>
<path d="M188.598 1212.71C188.598 1216.08 189.376 1223.44 192.487 1225.92C196.376 1229.03 266.376 1221.26 264.82 1256.24C265.598 1261.16 257.82 1268.68 239.154 1271.01C212.899 1274.29 137.639 1283.87 119.592 1250.8L110.043 1215.04" stroke="#D1D4D8" stroke-width="5" stroke-linecap="round"/>
<path d="M119.592 1250.8C67.4982 1255.77 60.9277 1214 64.1541 1192.5" stroke="#D1D4D8" stroke-width="5" stroke-linecap="round"/>
<path d="M131.445 485.86C67.6675 515.401 -10.1103 653.774 70.0008 716.741" stroke="#D1D4D8" stroke-width="5" stroke-linecap="round"/>
<path d="M208.042 481.633C234.487 495.108 290.953 564.346 305.265 733.503C306.302 753.715 297.176 794.138 252.376 794.138C207.576 794.138 190.153 673.645 184.709 613.787" stroke="#D1D4D8" stroke-width="5" stroke-linecap="round"/>
<path d="M103.82 649.546C111.598 608.863 129.643 513.661 152.043 483.188C153.339 465.308 158.666 434.554 180.444 436.886C196.777 436.886 238.376 446.807 238.376 478.524V505.732" stroke="#D1D4D8" stroke-width="5" stroke-linecap="round"/>
<path d="M284.266 787.919C285.043 799.061 289.555 822.435 301.377 826.788C316.155 832.23 303.71 853.996 295.932 859.438" stroke="#D1D4D8" stroke-width="5" stroke-linecap="round"/>
<path d="M295.931 826.788C297.747 839.226 296.865 864.102 278.82 864.102" stroke="#D1D4D8" stroke-width="5" stroke-linecap="round"/>
<path d="M278.82 839.226C280.376 847.518 278.976 864.102 260.932 864.102" stroke="#D1D4D8" stroke-width="5" stroke-linecap="round"/>
<path d="M260.933 839.226C263.266 848.813 263.421 866.745 245.377 861.77" stroke="#D1D4D8" stroke-width="5" stroke-linecap="round"/>
<path d="M237.6 799.58C241.229 812.536 246.622 840.781 239.155 850.11" stroke="#D1D4D8" stroke-width="5" stroke-linecap="round"/>
<path d="M299.82 665.094C324.449 664.576 375.265 667.271 381.487 682.196C387.709 697.122 397.561 740.24 401.709 759.934C407.154 786.365 408.398 840.47 369.82 845.445C331.243 850.421 309.931 851.664 305.265 851.664" stroke="#D1D4D8" stroke-width="5" stroke-linecap="round"/>
<path d="M188.599 665.871C173.303 666.649 147.377 671.313 149.71 720.288C152.211 772.779 152.043 848.555 180.821 846.223" stroke="#D1D4D8" stroke-width="5" stroke-linecap="round"/>
<path d="M237.598 852.442C220.746 858.401 185.02 863.325 176.931 835.339C168.842 807.354 164.746 736.613 163.709 704.74C163.191 695.67 167.909 676.91 190.931 674.422" stroke="#D1D4D8" stroke-width="5" stroke-linecap="round"/>
<path d="M297.486 649.546C315.893 647.732 353.797 648.924 358.153 668.203" stroke="#D1D4D8" stroke-width="5" stroke-linecap="round"/>
<path d="M1893.11 569.032C1872.16 554.022 1826.04 526.643 1809.27 537.195C1788.31 550.384 1801.69 552.203 1812.39 549.475" stroke="#D1D4D8" stroke-width="5" stroke-linecap="round"/>
<path d="M1831.57 549.475C1820.87 547.808 1799.28 548.019 1798.57 562.21C1798.16 570.484 1800.35 569.108 1804.37 566.524C1807.25 564.675 1811.06 562.21 1815.52 562.21H1834.7" stroke="#D1D4D8" stroke-width="5" stroke-linecap="round"/>
<path d="M1834.7 562.21H1815.52C1811.06 562.21 1807.24 564.675 1804.37 566.524C1801.55 571.756 1799.47 581.403 1813.73 578.127C1828 574.853 1833.66 575.854 1834.7 576.764" stroke="#D1D4D8" stroke-width="5" stroke-linecap="round"/>
<path d="M1813.73 578.127C1808.97 583.586 1803.48 593.865 1819.53 591.318C1835.59 588.771 1848.22 596.624 1852.53 600.869C1859.81 605.719 1877.06 611.783 1887.76 597.231" stroke="#D1D4D8" stroke-width="5" stroke-linecap="round"/>
<path d="M1968.62 592C1892.94 549.957 1892.86 589.553 1899.26 613.7C1908.71 638.113 1955.63 665.004 1976.69 668.22C2006.4 675.061 2059.01 666.955 2031.73 579.794C1997.61 470.845 1982.18 391.279 1868.22 370.031" stroke="#D1D4D8" stroke-width="5" stroke-linecap="round"/>
<path d="M1927.33 497.521C1927.33 538.778 1929.76 537.806 1947.56 575.259" stroke="#D1D4D8" stroke-width="5" stroke-linecap="round"/>
<path d="M1771.95 520.143L1772.32 507.627" stroke="#D1D4D8" stroke-width="5" stroke-linecap="round"/>
<path d="M1758.73 519.065L1753.81 504.163" stroke="#D1D4D8" stroke-width="5" stroke-linecap="round"/>
<path d="M1744.93 522.775L1733.85 497.092" stroke="#D1D4D8" stroke-width="5" stroke-linecap="round"/>
<path d="M1895.29 1172.28C1893.77 1184.91 1896.81 1204.56 1911.05 1211.05C1928.84 1219.17 1974.45 1246.67 1930.66 1252.53C1895.63 1257.22 1867.41 1233.44 1857.68 1220.97C1854.33 1206.54 1851.95 1189.87 1857.68 1172.28" stroke="#D1D4D8" stroke-width="5" stroke-linecap="round"/>
<path d="M1826.11 1148.14C1982.18 1245.9 1957.95 891.37 1947.26 719.1C1833.94 754.4 1742.18 731.773 1721.85 699.639C1716.07 720.148 1698.2 866.974 1696.69 908.73L1696.63 910.395C1694.17 978.279 1688.59 1133 1776.65 1164.44C1798.55 1172.26 1814.53 1165.23 1826.11 1148.14Z" fill="#D1D4D8"/>
<path d="M1811.82 1172.37C1812.64 1181.42 1812.44 1202.53 1809.13 1214.34C1800.76 1244.21 1775.45 1275.81 1714.25 1273.19C1706.01 1271.21 1694.47 1262.88 1714.25 1245.36C1721.49 1238.97 1729.33 1233.11 1736.7 1227.07C1754.56 1212.42 1769.58 1196.63 1766.01 1169.17" stroke="#D1D4D8" stroke-width="5" stroke-linecap="round"/>
<path d="M1955.33 665.434C1952.16 700.886 1950.81 698.642 1945.36 718.836C1890.39 734.991 1768.76 753.569 1722 698.642" stroke="#D1D4D8" stroke-width="5" stroke-linecap="round"/>
<path d="M1899.33 452.433L1897.61 449.801C1887.2 434.011 1867.13 427.706 1849.57 434.715C1833.81 441.003 1815.8 436.621 1804.69 423.801L1790.45 407.345" stroke="#D1D4D8" stroke-width="5" stroke-linecap="round"/>
<path d="M1799.97 369.873C1795.97 358.739 1799.62 351.247 1803.17 349.819C1824.54 368.662 1856.96 361.667 1868.97 350.247C1873.25 354.016 1870.76 365.163 1868.97 368.588C1845.82 393.255 1812.88 379.438 1799.97 369.873Z" fill="#D1D4D8"/>
<path d="M1739.84 184.68L1739.84 184.68C1744.79 202.536 1748.45 212.014 1752.56 218.969C1755.83 224.489 1759.4 228.466 1764.38 233.883C1764.6 227.071 1765.11 219.223 1765.62 211.772C1765.68 210.897 1765.74 210.029 1765.8 209.169C1766.41 200.222 1766.96 192.138 1766.96 187.24V184.74H1769.46C1816.16 184.74 1855.59 165.573 1869.32 156.108L1873.32 153.355L1873.24 158.206C1873 173.833 1880.18 186.867 1887.6 196.104C1891.29 200.708 1895.01 204.318 1897.8 206.775C1899.19 208.002 1900.35 208.937 1901.15 209.561C1901.55 209.873 1901.87 210.106 1902.07 210.259C1902.13 210.302 1902.18 210.338 1902.22 210.368C1902.26 210.392 1902.28 210.412 1902.31 210.428L1902.36 210.467L1902.37 210.474L1902.37 210.474L1902.37 210.475L1902.37 210.475L1903.9 211.542L1903.31 213.307L1903.31 213.308L1903.31 213.308L1903.31 213.309L1903.31 213.31L1903.3 213.33C1903.3 213.35 1903.29 213.383 1903.27 213.429C1903.24 213.521 1903.2 213.666 1903.14 213.864C1903.02 214.26 1902.85 214.87 1902.63 215.7C1902.19 217.359 1901.57 219.898 1900.87 223.365C1899.48 230.3 1897.76 240.95 1896.51 255.712L1896.51 255.712C1896.01 261.589 1896 265.574 1896.29 268.169C1896.42 269.379 1896.6 270.207 1896.79 270.749C1897.36 270.228 1898.01 269.384 1898.64 268.372C1903.23 253.695 1909.62 247.092 1916.73 246.134C1922.24 245.391 1927.21 248.208 1930.68 251.411C1948.54 221.499 1954.94 197.751 1954.35 179.035C1953.75 159.822 1945.77 145.657 1934.77 135.295C1923.71 124.882 1909.56 118.278 1896.68 114.427C1883.76 110.561 1872.44 109.556 1867.22 110.091L1866.15 110.2L1865.34 109.502C1848.49 95.0624 1825.09 83.8715 1808.97 82.2516M1739.84 184.68L1808.97 82.2516M1739.84 184.68C1731.93 156.153 1734.78 128.997 1746.72 109.831C1758.57 90.7994 1779.59 79.3004 1808.97 82.2516M1739.84 184.68L1809.22 79.7641L1808.97 82.2516M1737.43 185.348L1737.46 185.341L1737.43 185.348Z" stroke="#D1D4D8" stroke-width="5"/>
<path d="M1900.89 291.681C1892.71 341.567 1837.81 377.44 1798.19 337.027C1758.57 296.616 1766.51 222.644 1770.74 188.125" stroke="#D1D4D8" stroke-width="5" stroke-linecap="round"/>
<path d="M1931.92 251.87C1936.71 263.957 1932.22 290.739 1900.89 290.739" stroke="#D1D4D8" stroke-width="5" stroke-linecap="round"/>
<path d="M1916.27 259.644C1916.82 261.889 1916.38 267.211 1910.22 270.527" stroke="#D1D4D8" stroke-width="5" stroke-linecap="round"/>
<path d="M1770.22 284.52C1759.8 280.134 1752.44 263.89 1755.27 237.877" stroke="#D1D4D8" stroke-width="5" stroke-linecap="round"/>
<path d="M1830.89 315.016C1820.79 317.857 1821.43 310.038 1813.78 303.177" stroke="#D1D4D8" stroke-width="5" stroke-linecap="round"/>
<path d="M1799 258.089C1795.13 258.089 1792 254.957 1792 251.093C1792 247.229 1795.13 244.096 1799 244.096C1802.87 244.096 1806 247.229 1806 251.093C1806 254.957 1802.87 258.089 1799 258.089Z" fill="#D1D4D8"/>
<path d="M1858.89 258.089C1854.59 258.089 1851.11 255.305 1851.11 251.87C1851.11 248.435 1854.59 245.651 1858.89 245.651C1863.18 245.651 1866.67 248.435 1866.67 251.87C1866.67 255.305 1863.18 258.089 1858.89 258.089Z" fill="#D1D4D8"/>
<path d="M1874.44 236.323C1872.95 232.381 1866.49 225.091 1852.67 227.456" stroke="#D1D4D8" stroke-width="5" stroke-linecap="round"/>
<path d="M1810.67 228.549C1807.37 226.203 1798.39 222.917 1788.89 228.549" stroke="#D1D4D8" stroke-width="5" stroke-linecap="round"/>
<path d="M1833.25 248.761C1834.33 257.674 1835.07 275.751 1829.33 276.746" stroke="#D1D4D8" stroke-width="5" stroke-linecap="round"/>
<path d="M1846.04 539.499L1869.54 500.149C1871.38 497.073 1870.34 493.088 1867.23 491.31C1864.19 489.578 1860.34 490.585 1858.55 493.574L1834 534.506" stroke="#D1D4D8" stroke-width="5" stroke-linecap="round"/>
<path d="M1840.22 677.872C1827.72 637.483 1798.6 559.072 1780.1 561.313C1779.26 561.415 1778.42 561.655 1777.58 561.773L1708 571.51" stroke="#D1D4D8" stroke-width="5" stroke-linecap="round"/>
<path d="M1698.67 586.839L1705.06 606.691" stroke="#D1D4D8" stroke-width="5" stroke-linecap="round"/>
<path d="M1778.51 570.594C1791.81 578.743 1811.6 634.655 1823.14 672.28C1825.66 680.48 1820.09 688.871 1811.58 689.939L1745.85 698.185C1739.13 699.026 1732.78 694.951 1730.74 688.502L1725.58 672.115" stroke="#D1D4D8" stroke-width="5" stroke-linecap="round"/>
<path d="M1768.37 578.242C1764.05 576.63 1755.06 567.124 1757.62 557.912C1758.06 556.314 1758.85 554.724 1760.08 553.184C1768.37 542.785 1782.65 553.186 1778.96 561.695" stroke="#D1D4D8" stroke-width="5" stroke-linecap="round"/>
<path d="M1757.62 557.912C1753.06 552.396 1740.74 549.876 1734.3 560.748C1728.32 573.987 1739.83 581.551 1746.73 582.496" stroke="#D1D4D8" stroke-width="5" stroke-linecap="round"/>
<path d="M1734.3 560.748C1729.54 557.124 1716.8 552.239 1709.43 561.695C1700.69 576.35 1716.34 585.806 1722.79 584.387" stroke="#D1D4D8" stroke-width="5" stroke-linecap="round"/>
<path d="M1709.43 561.695C1703.44 558.071 1692.8 556.494 1688.71 565.949C1684.62 575.405 1694.7 587.697 1704.38 587.697" stroke="#D1D4D8" stroke-width="5" stroke-linecap="round"/>
<path d="M1743.44 637.99C1745.91 641.499 1745.4 650.551 1723.6 658.684" stroke="#D1D4D8" stroke-width="5" stroke-linecap="round"/>
<path d="M1686.83 619.879C1710.47 615.278 1734.74 613.573 1743.93 613.294C1748.86 613.147 1754.34 617.4 1751.59 622.217C1750.82 623.45 1748.43 626.191 1744.96 627.295C1730.23 632.144 1723.94 632.575 1717.46 632.593" stroke="#D1D4D8" stroke-width="5" stroke-linecap="round"/>
<path d="M1717.46 632.593C1723.94 632.575 1730.23 632.144 1744.96 627.295C1748.32 628.52 1748.76 634.35 1743.44 637.99C1740.08 640.297 1733.99 643.127 1723.94 646.544" stroke="#D1D4D8" stroke-width="5" stroke-linecap="round"/>
<path d="M1799.78 370.031C1725.98 399.31 1667.14 485.344 1674.38 603.361C1675.44 620.026 1684.08 654.531 1710.15 659.215" stroke="#D1D4D8" stroke-width="5" stroke-linecap="round"/>
<path d="M844.666 1218.84C878.667 1202.77 961.432 1171.66 1020.48 1175.76C1028.85 1176.1 1041.5 1179.66 1025.09 1191.15C1008.69 1202.63 1000.49 1208.58 998.44 1210.12C989.897 1217.3 981.525 1232.48 1016.38 1235.76C1059.95 1239.86 1182.97 1195.25 1426.44 1228.07" stroke="#D1D4D8" stroke-width="5" stroke-linecap="round"/>
<path d="M529.238 144.261L526.715 148.577C535.943 154.172 554.964 176.676 551.071 220.556C546.15 276.034 524.917 327.952 477.806 352.186L478.949 354.409L477.806 352.186C474.665 353.802 467.01 356.229 456.647 357.78C446.351 359.32 433.591 359.963 420.3 358.154C393.781 354.543 365.258 341.215 349.623 305.713L347.335 306.721L349.623 305.713C338.024 279.377 340.464 254.418 347.819 233.995C355.191 213.523 367.474 197.708 375.319 189.906C382.93 182.366 396.745 171.615 413.278 164.051C429.83 156.478 448.807 152.229 466.933 157.21L469.11 157.808L469.926 155.703C477.633 135.832 506.108 92.9676 557.854 81.3306C609.545 69.7062 634.204 98.6547 634.392 120.65C634.457 128.217 633.17 139.347 629.224 148.2C627.257 152.612 624.7 156.301 621.474 158.749C618.709 160.848 615.359 162.11 611.219 162.059L607.872 144.13L607.165 140.346L603.996 142.53C592.408 150.516 561.04 162.175 529.238 144.261Z" stroke="#D1D4D8" stroke-width="5"/>
<path d="M625.837 212.545C624.713 220.128 621.905 226.61 618.397 230.969C614.849 235.379 610.922 237.263 607.454 236.75C603.987 236.236 600.775 233.295 598.659 228.046C596.566 222.857 595.759 215.84 596.883 208.257C598.007 200.674 600.815 194.192 604.323 189.833C607.871 185.422 611.798 183.538 615.266 184.051C618.733 184.565 621.945 187.506 624.062 192.755C626.154 197.944 626.961 204.962 625.837 212.545Z" stroke="#D1D4D8" stroke-width="5"/>
<path d="M611.594 219.068C614.034 219.428 616.541 216.162 617.192 211.77C617.843 207.378 616.392 203.525 613.951 203.163C611.511 202.802 609.004 206.069 608.353 210.461C607.702 214.853 609.153 218.706 611.594 219.068Z" fill="#D1D4D8"/>
<path d="M553.693 217.036L595.006 213.292" stroke="#D1D4D8" stroke-width="5" stroke-linecap="round"/>
<path d="M613.666 165.221C617.234 172.4 627.762 188.091 638.755 196.872C649.998 205.854 650.948 217.303 643.769 225.552L632.58 238.529C638.755 285.722 629.657 320.669 571.785 336.937" stroke="#D1D4D8" stroke-width="5" stroke-linecap="round"/>
<path d="M571.1 260.082C572.467 260.284 573.74 259.34 573.942 257.973C574.145 256.607 573.201 255.334 571.833 255.132C570.466 254.93 569.193 255.873 568.99 257.24C568.788 258.607 569.732 259.879 571.1 260.082Z" fill="#D1D4D8"/>
<path d="M562.132 283.032C563.773 283.275 565.267 282.364 565.47 280.997C565.672 279.63 564.506 278.325 562.865 278.082C561.224 277.839 559.729 278.75 559.527 280.117C559.324 281.483 560.491 282.789 562.132 283.032Z" fill="#D1D4D8"/>
<path d="M583.956 279.184C585.597 279.427 587.091 278.516 587.294 277.149C587.497 275.783 586.33 274.478 584.689 274.234C583.048 273.991 581.553 274.902 581.351 276.269C581.149 277.636 582.314 278.941 583.956 279.184Z" fill="#D1D4D8"/>
<path d="M743.238 403.209C745.435 400.144 746.539 397.353 745.538 395.426C742.625 389.823 735.463 395.574 732.246 399.15C724.24 407.752 708.832 422.706 712.985 405.305C717.137 387.904 708.305 388.975 687.622 410.216L667.062 422.711" stroke="#D1D4D8" stroke-width="5" stroke-linecap="round"/>
<path d="M741.556 430.492C743.327 435.934 740.486 448.53 714.451 451.582C704.601 452.736 703.12 452.574 693.875 451.795H678.039" stroke="#D1D4D8" stroke-width="5" stroke-linecap="round"/>
<path d="M725.768 419.604C730.883 415.836 739.042 408.997 743.23 403.154C747.777 403.101 752.181 405.663 745.163 414.616C742.124 418.492 736.945 423.566 728.709 430.146" stroke="#D1D4D8" stroke-width="5" stroke-linecap="round"/>
<path d="M728.717 430.201C736.953 423.622 742.132 418.548 745.171 414.671C749.509 415.894 753.413 420.621 741.557 430.492C738.964 432.65 735.617 435.055 731.357 437.723" stroke="#D1D4D8" stroke-width="5" stroke-linecap="round"/>
<path d="M723.001 406.367L711.6 386.696C711.375 386.311 711.444 385.826 711.771 385.524C719.287 378.575 735.653 363.792 746.415 355.251C746.841 354.912 747.459 355.004 747.769 355.451C753.747 364.066 766.027 385.384 771.845 408.571C771.903 408.798 771.878 409.031 771.766 409.236C768.269 415.674 757.576 428.704 741.255 431.76" stroke="#D1D4D8" stroke-width="5" stroke-linecap="round"/>
<path d="M481.059 364.822L514.723 394.266C515.816 395.223 517.536 394.656 517.846 393.237L526.622 353.121C526.948 351.634 528.799 351.107 529.859 352.202L552.651 375.75" stroke="#D1D4D8" stroke-width="5" stroke-linecap="round"/>
<path d="M552.65 341.057C554.518 344.554 557.194 350.237 559.703 356.842C563.145 365.909 566.27 376.713 566.55 385.985" stroke="#D1D4D8" stroke-width="5" stroke-linecap="round"/>
<path d="M510.648 422.639C522.145 438.206 586.895 481.312 633.489 434.015L646.197 420.245" stroke="#D1D4D8" stroke-width="5" stroke-linecap="round"/>
<path d="M542.15 574.805C557.109 570.94 628.062 532.106 648.726 496.022" stroke="#D1D4D8" stroke-width="5" stroke-linecap="round"/>
<path d="M643.186 449.113C648.31 467.501 649.752 483.022 648.725 496.022C660.125 488.203 671.016 482.19 671.016 457.532C671.016 440.091 658.311 425.057 646.815 420.245" stroke="#D1D4D8" stroke-width="5" stroke-linecap="round"/>
<path d="M547.878 407.842C550.514 407.842 552.651 405.28 552.651 402.118C552.651 398.956 550.514 396.393 547.878 396.393C545.243 396.393 543.105 398.956 543.105 402.118C543.105 405.28 545.243 407.842 547.878 407.842Z" fill="#D1D4D8"/>
<path d="M554.56 435.51C557.196 435.51 559.333 432.948 559.333 429.786C559.333 426.624 557.196 424.061 554.56 424.061C551.924 424.061 549.787 426.624 549.787 429.786C549.787 432.948 551.924 435.51 554.56 435.51Z" fill="#D1D4D8"/>
<path d="M605.263 277.134C604.649 280.855 606.246 288.545 617.56 289.537" stroke="#D1D4D8" stroke-width="5" stroke-linecap="round"/>
<path d="M563.111 363.812C579.445 375.473 602.778 398.017 602.778 436.108" stroke="#D1D4D8" stroke-width="5" stroke-linecap="round"/>
</svg>
