<svg width="1096" height="880" viewBox="0 0 1096 880" fill="none" xmlns="http://www.w3.org/2000/svg">
<path d="M826.881 410.758C838.987 454.415 845.04 458.283 862.647 477.625C862.647 458.51 865.917 426.425 865.917 413.065C923.571 413.065 972.228 389.429 989.349 377.61C988.736 417.69 1026.15 443.896 1026.15 443.896C1026.15 443.896 1020.78 460.082 1017.72 496.308C1015.26 525.288 1022.32 519.688 1026.15 513.265C1037.19 477.501 1055.28 487.059 1062.95 496.308C1157.03 342.787 1012.35 313.123 984.75 315.949C963.897 298.068 934.815 284.055 914.37 281.999C840.638 274.586 807.253 339.971 826.881 410.758Z" stroke="#D1D4D8" stroke-width="3" stroke-linecap="round"/>
<path d="M1025.35 539.543C1015.38 599.818 948.487 643.16 900.215 594.333C851.942 545.506 861.602 456.13 866.759 414.424" stroke="#D1D4D8" stroke-width="3" stroke-linecap="round"/>
<path d="M1064.3 491.424C1070.32 506.661 1064.67 540.424 1025.35 540.424" stroke="#D1D4D8" stroke-width="3" stroke-linecap="round"/>
<path d="M1047.04 501.424C1048.01 504.313 1047.23 511.157 1036.35 515.424" stroke="#D1D4D8" stroke-width="3" stroke-linecap="round"/>
<path d="M868.348 532.424C855.615 526.969 846.639 506.77 850.092 474.424" stroke="#D1D4D8" stroke-width="3" stroke-linecap="round"/>
<path d="M940.348 567.75C928.553 570.948 929.299 562.147 920.348 554.424" stroke="#D1D4D8" stroke-width="3" stroke-linecap="round"/>
<ellipse rx="7.5" ry="8.5" transform="matrix(-1 0 0 1 902.848 490.924)" fill="#D1D4D8"/>
<ellipse rx="8.5" ry="8" transform="matrix(-1 0 0 1 975.848 491.424)" fill="#D1D4D8"/>
<path d="M994.348 474.424C992.563 468.932 984.865 458.772 968.348 462.067" stroke="#D1D4D8" stroke-width="3" stroke-linecap="round"/>
<path d="M917.348 463.424C913.56 461.16 903.257 457.991 892.348 463.424" stroke="#D1D4D8" stroke-width="3" stroke-linecap="round"/>
<path d="M944.379 487.424C945.777 498.253 946.727 520.215 939.348 521.424" stroke="#D1D4D8" stroke-width="3" stroke-linecap="round"/>
<path d="M764.848 347.424L773.848 367.424L750.848 360.924C711.648 391.724 670.848 382.257 659.348 375.424C633.014 361.924 605.348 329.924 626.848 295.924C651.367 257.149 710.681 272.757 733.348 282.424C745.014 286.257 769.448 297.324 773.848 310.924C778.248 324.524 769.681 340.924 764.848 347.424Z" stroke="#D1D4D8" stroke-width="3" stroke-linecap="round"/>
<path d="M665.348 299.424H694.848" stroke="#D1D4D8" stroke-width="3" stroke-linecap="round"/>
<path d="M657.848 321.424H731.848" stroke="#D1D4D8" stroke-width="3" stroke-linecap="round"/>
<path d="M655.348 339.924L702.848 342.924" stroke="#D1D4D8" stroke-width="3" stroke-linecap="round"/>
<path d="M854.348 572.018C857.827 581.572 867.522 602.168 878.467 608.118" stroke="#D1D4D8" stroke-width="3" stroke-linecap="round"/>
<path d="M392.173 822C391.829 807.546 395.586 773.554 413.37 753.219C435.601 727.8 437.152 712.349 437.152 665" stroke="#D1D4D8" stroke-width="3" stroke-linecap="round"/>
<path d="M383.152 679C391.517 677.557 405.738 667.937 395.7 641" stroke="#D1D4D8" stroke-width="3" stroke-linecap="round"/>
<path d="M277.152 679C258.211 668.01 227.81 641.01 257.737 620.932C261.841 617.979 271.47 616.208 277.152 632.742" stroke="#D1D4D8" stroke-width="3" stroke-linecap="round"/>
<path d="M263.42 637.171C263.736 642.092 266.924 652.131 277.152 652.919" stroke="#D1D4D8" stroke-width="3" stroke-linecap="round"/>
<path d="M322.152 607C325.913 605.491 335.578 603.378 344.152 607" stroke="#D1D4D8" stroke-width="3" stroke-linecap="round"/>
<path d="M411.152 612C415.597 610.491 427.019 608.378 437.152 612" stroke="#D1D4D8" stroke-width="3" stroke-linecap="round"/>
<path d="M293.238 495.29C181.263 506.95 215.478 591.955 246.582 633C252.935 618.927 265.443 618.425 270.903 619.933C276.064 540.725 325.335 551.413 349.324 566.658C399.355 564.648 411.863 584.584 411.863 594.803C433.55 581.105 451.914 597.188 453.403 600.706C508.993 436.66 369.343 462.622 293.238 495.29Z" stroke="#D1D4D8" stroke-width="3" stroke-linecap="round"/>
<circle cx="337.152" cy="626" r="36.5" stroke="#D1D4D8" stroke-width="3"/>
<ellipse cx="335.652" cy="632.5" rx="8.5" ry="10.5" fill="#D1D4D8"/>
<path d="M464.652 626C464.652 646.14 448.105 662.5 427.652 662.5C407.199 662.5 390.652 646.14 390.652 626C390.652 605.86 407.199 589.5 427.652 589.5C448.105 589.5 464.652 605.86 464.652 626Z" stroke="#D1D4D8" stroke-width="3"/>
<circle cx="428.652" cy="632.5" r="10.5" fill="#D1D4D8"/>
<path d="M392.152 626H373.152" stroke="#D1D4D8" stroke-width="3" stroke-linecap="round"/>
<path d="M301.152 621L275.152 627" stroke="#D1D4D8" stroke-width="3" stroke-linecap="round"/>
<path d="M399.152 710.574C393.319 717.24 376.652 726.574 356.652 710.574" stroke="#D1D4D8" stroke-width="3" stroke-linecap="round"/>
<path d="M446.652 757C453.986 753 468.052 740.3 465.652 721.5" stroke="#D1D4D8" stroke-width="3" stroke-linecap="round"/>
<path d="M489.152 801L483.152 770.5L504.152 792C524.152 772.4 590.99 773.103 621.652 782.5C652.652 792 663.152 818.5 651.152 843.5C639.152 868.5 569.152 887.5 513.652 874C469.252 863.2 478.819 820.833 489.152 801Z" stroke="#D1D4D8" stroke-width="3" stroke-linecap="round"/>
<path d="M524.152 812.5L546.652 807.5" stroke="#D1D4D8" stroke-width="3" stroke-linecap="round"/>
<path d="M522.652 833.5L617.652 821.5" stroke="#D1D4D8" stroke-width="3" stroke-linecap="round"/>
<path d="M523.652 852.987L583.083 845.985" stroke="#D1D4D8" stroke-width="3" stroke-linecap="round"/>
<path d="M409.07 145.787C399.91 160.191 380.935 189 378.318 189L383.552 126.145C371.12 113.05 355.286 76.3842 391.404 34.4807C427.522 -7.42283 501.11 -0.00241613 533.39 8.94574C559.998 18.9851 602.616 53.3373 560.217 110.431C517.817 167.524 441.786 157.791 409.07 145.787Z" stroke="#D1D4D8" stroke-width="3" stroke-linecap="round"/>
<path d="M412.152 61L451.152 54" stroke="#D1D4D8" stroke-width="3" stroke-linecap="round"/>
<path d="M418.152 88L519.152 71" stroke="#D1D4D8" stroke-width="3" stroke-linecap="round"/>
<path d="M429.152 117L484.152 110" stroke="#D1D4D8" stroke-width="3" stroke-linecap="round"/>
<path d="M224 57.5002C271.042 64.294 263.635 125.289 266.249 153.161C279.683 197.386 278.492 234.11 269.023 261.6C267.445 268.568 271.214 280.806 298.917 274.012C326.619 267.218 314.815 219.792 305.45 196.929C300.224 184.909 298.917 162.742 298.917 153.161C308.848 24.0788 249.226 9.3547 208.5 18.5002C221.045 26.8618 225.742 47.0482 224 57.5002Z" stroke="#D1D4D8" stroke-width="3" stroke-linecap="round"/>
<path d="M35.0116 91.1435C55.3027 -13.4653 177.05 -8.89023 213.705 23.1464C254.942 75.4509 149.558 204.906 120.758 192.484C100.336 176.792 85.0111 185.292 80.8305 192.484C61.9794 224.912 88.6851 243.045 104.394 248.057C100.205 270.548 154.14 295.132 146.286 312.131C104.394 365.089 -23.8975 278.786 6.86639 252.634C31.4775 231.712 30.1455 204.907 29.7759 192.484C27.8115 126.45 29.7759 121.219 35.0116 91.1435Z" stroke="#D1D4D8" stroke-width="3" stroke-linecap="round"/>
<path d="M216.152 233C239.923 227.857 227.378 217.571 222.095 197" stroke="#D1D4D8" stroke-width="3" stroke-linecap="round"/>
<ellipse cx="251.156" cy="176.408" rx="5.98134" ry="8.97201" transform="rotate(11.0109 251.156 176.408)" fill="#D1D4D8"/>
<ellipse cx="184.434" cy="193.261" rx="5.90198" ry="8.85297" transform="rotate(8.55426 184.434 193.261)" fill="#D1D4D8"/>
<path d="M95.1523 203C92.8885 207 89.7191 216.6 95.1523 223" stroke="#D1D4D8" stroke-width="3" stroke-linecap="round"/>
<path d="M140.152 304.894C194.39 304.894 224.449 340.64 272.152 262" stroke="#D1D4D8" stroke-width="3" stroke-linecap="round"/>
<path d="M210.152 269.477C222.835 273.39 232.982 269.477 236.152 261" stroke="#D1D4D8" stroke-width="3" stroke-linecap="round"/>
<path d="M209.652 194C209.652 210.466 197.848 223.5 183.652 223.5C169.457 223.5 157.652 210.466 157.652 194C157.652 177.534 169.457 164.5 183.652 164.5C197.848 164.5 209.652 177.534 209.652 194Z" stroke="#D1D4D8" stroke-width="3"/>
<path d="M276.652 177C276.652 193.466 264.848 206.5 250.652 206.5C236.457 206.5 224.652 193.466 224.652 177C224.652 160.534 236.457 147.5 250.652 147.5C264.848 147.5 276.652 160.534 276.652 177Z" stroke="#D1D4D8" stroke-width="3"/>
<path d="M225.152 180.478C221.081 179.617 211.781 179.315 207.152 185" stroke="#D1D4D8" stroke-width="3" stroke-linecap="round"/>
<path d="M159.573 184.241L139.324 184.895" stroke="#D1D4D8" stroke-width="3" stroke-linecap="round"/>
</svg>
