<svg width="675" height="525" viewBox="0 0 675 525" fill="none" xmlns="http://www.w3.org/2000/svg">
<path d="M198.627 72.9494L197.112 75.5387C207.2 81.6574 227.272 105.691 223.162 152.04C217.993 210.352 195.66 265.245 145.807 290.902C142.361 292.676 134.205 295.243 123.295 296.877C112.426 298.504 98.9508 299.185 84.9024 297.271C56.8428 293.449 26.5632 279.305 9.98769 241.648L8.6148 242.252L9.98768 241.648C-2.30403 213.723 0.290768 187.258 8.06931 165.646C15.8585 144.005 28.8293 127.291 37.1433 119.018C45.1986 111.035 59.7777 99.6861 77.2317 91.6959C94.697 83.7006 114.862 79.1471 134.202 84.4645L135.508 84.8237L135.998 83.5603C144.155 62.5166 174.216 17.2258 228.909 4.92005C283.567 -7.37792 310.249 23.266 310.453 47.2159C310.522 55.2402 309.164 67.0816 304.942 76.5581C302.835 81.2875 300.056 85.3333 296.478 88.0505C293.177 90.5576 289.131 91.9853 284.124 91.7169L280.452 72.041L280.028 69.7696L278.126 71.0813C265.759 79.6086 232.43 92.0006 198.627 72.9494Z" stroke="#D1D4D8" stroke-width="3"/>
<path d="M300.372 143.543C299.194 151.491 296.253 158.285 292.578 162.854C288.861 167.476 284.747 169.451 281.114 168.913C277.482 168.375 274.117 165.292 271.9 159.79C269.708 154.352 268.862 146.997 270.04 139.049C271.217 131.101 274.159 124.307 277.834 119.738C281.551 115.115 285.665 113.14 289.298 113.678C292.93 114.217 296.295 117.299 298.512 122.801C300.704 128.239 301.55 135.595 300.372 143.543Z" stroke="#D1D4D8" stroke-width="3"/>
<path d="M285.451 150.38C288.008 150.758 290.634 147.334 291.316 142.731C291.998 138.128 290.478 134.089 287.921 133.71C285.364 133.331 282.738 136.756 282.056 141.359C281.374 145.962 282.894 150.001 285.451 150.38Z" fill="#D1D4D8"/>
<path d="M224.795 148.251L268.074 144.326" stroke="#D1D4D8" stroke-width="3" stroke-linecap="round"/>
<path d="M287.624 93.9414C291.362 101.466 302.391 117.912 313.907 127.116C325.685 136.53 326.68 148.53 319.16 157.176L307.438 170.778C313.907 220.243 304.376 256.872 243.75 273.923" stroke="#D1D4D8" stroke-width="3" stroke-linecap="round"/>
<path d="M243.03 193.368C244.462 193.58 245.796 192.591 246.008 191.158C246.22 189.726 245.231 188.392 243.798 188.18C242.366 187.968 241.032 188.957 240.82 190.39C240.608 191.822 241.597 193.156 243.03 193.368Z" fill="#D1D4D8"/>
<path d="M233.634 217.423C235.353 217.678 236.919 216.723 237.131 215.29C237.343 213.857 236.121 212.49 234.402 212.235C232.683 211.98 231.117 212.935 230.905 214.368C230.693 215.8 231.915 217.168 233.634 217.423Z" fill="#D1D4D8"/>
<path d="M256.499 213.39C258.218 213.645 259.783 212.69 259.996 211.257C260.208 209.825 258.986 208.457 257.267 208.202C255.548 207.947 253.982 208.902 253.77 210.335C253.558 211.767 254.779 213.135 256.499 213.39Z" fill="#D1D4D8"/>
<path d="M423.362 343.385C425.664 340.172 426.82 337.247 425.771 335.227C422.72 329.355 415.217 335.382 411.847 339.13C403.46 348.147 387.318 363.82 391.669 345.582C396.019 327.343 386.766 328.466 365.099 350.729L343.561 363.826" stroke="#D1D4D8" stroke-width="3" stroke-linecap="round"/>
<path d="M421.601 371.981C423.456 377.685 420.48 390.887 393.206 394.086C382.887 395.296 381.336 395.126 371.651 394.309H355.061" stroke="#D1D4D8" stroke-width="3" stroke-linecap="round"/>
<path d="M405.061 360.569C410.42 356.62 418.967 349.451 423.354 343.327C428.118 343.272 432.731 345.957 425.379 355.341C422.196 359.404 416.77 364.722 408.142 371.618" stroke="#D1D4D8" stroke-width="3" stroke-linecap="round"/>
<path d="M408.148 371.676C416.776 364.78 422.202 359.462 425.385 355.399C429.93 356.68 434.019 361.635 421.599 371.981C418.883 374.243 415.377 376.764 410.914 379.56" stroke="#D1D4D8" stroke-width="3" stroke-linecap="round"/>
<path d="M146.702 302.241C73.2386 355.828 82.029 422.654 82.029 505.241" stroke="#D1D4D8" stroke-width="3" stroke-linecap="round"/>
<path d="M148.703 303.15L183.97 334.011C185.115 335.014 186.916 334.42 187.241 332.933L196.435 290.886C196.776 289.327 198.716 288.775 199.826 289.923L223.703 314.604" stroke="#D1D4D8" stroke-width="3" stroke-linecap="round"/>
<path d="M223.703 278.241C225.659 281.906 228.463 287.863 231.091 294.786C234.697 304.289 237.971 315.613 238.264 325.332" stroke="#D1D4D8" stroke-width="3" stroke-linecap="round"/>
<path d="M231.09 294.786L311.702 341.241" stroke="#D1D4D8" stroke-width="3" stroke-linecap="round"/>
<path d="M179.703 363.75C191.747 380.066 259.578 425.247 308.39 375.674L321.703 361.241" stroke="#D1D4D8" stroke-width="3" stroke-linecap="round"/>
<path d="M212.703 523.241C228.374 519.189 302.703 478.486 324.351 440.665" stroke="#D1D4D8" stroke-width="3" stroke-linecap="round"/>
<path d="M318.547 391.498C323.915 410.771 325.426 427.04 324.35 440.665C336.293 432.47 347.702 426.167 347.702 400.323C347.702 382.042 334.392 366.284 322.349 361.241" stroke="#D1D4D8" stroke-width="3" stroke-linecap="round"/>
<path d="M218.703 348.241C221.464 348.241 223.703 345.555 223.703 342.241C223.703 338.927 221.464 336.241 218.703 336.241C215.942 336.241 213.703 338.927 213.703 342.241C213.703 345.555 215.942 348.241 218.703 348.241Z" fill="#D1D4D8"/>
<path d="M225.703 377.241C228.464 377.241 230.703 374.555 230.703 371.241C230.703 367.927 228.464 365.241 225.703 365.241C222.942 365.241 220.703 367.927 220.703 371.241C220.703 374.555 222.942 377.241 225.703 377.241Z" fill="#D1D4D8"/>
<path d="M278.819 211.241C278.175 215.141 279.849 223.201 291.701 224.241" stroke="#D1D4D8" stroke-width="3" stroke-linecap="round"/>
<path d="M406.06 321.326C408.06 327.826 405.559 334.726 395.559 336.326" stroke="#D1D4D8" stroke-width="3" stroke-linecap="round"/>
<path d="M385.061 331.326C385.061 321.826 391.061 317.626 401.061 312.826C411.061 308.026 460.893 290.993 484.56 281.326C475.56 298.826 451.06 330.326 425.06 316.326" stroke="#D1D4D8" stroke-width="3" stroke-linecap="round"/>
<path d="M425.061 316.326L417.561 327.326" stroke="#D1D4D8" stroke-width="3" stroke-linecap="round"/>
<path d="M410.559 308.326C404.56 299.826 399.858 283.126 457.058 252.326L433.06 300.326" stroke="#D1D4D8" stroke-width="3" stroke-linecap="round"/>
<path d="M402.677 107.724L399.973 39.7236C399.747 34.0493 404.286 29.3262 409.965 29.3262H483.059C488.582 29.3262 493.059 33.8033 493.059 39.3262V107.326C493.059 112.849 488.582 117.326 483.059 117.326H412.669C407.301 117.326 402.89 113.088 402.677 107.724Z" stroke="#D1D4D8" stroke-width="3" stroke-linecap="round"/>
<path d="M435.561 73.8977L456.986 77.8263M426.561 95.3263L435.561 73.8977L426.561 95.3263ZM462.061 95.3263L456.986 77.8263L462.061 95.3263ZM435.561 73.8977L445.371 50.5401C446.101 48.8018 448.611 48.9467 449.136 50.7575L456.986 77.8263L435.561 73.8977Z" stroke="#D1D4D8" stroke-width="3" stroke-linecap="round"/>
<path d="M585.145 377.415V297.431C585.145 296.286 586.104 295.375 587.247 295.433L671.447 299.715C672.625 299.774 673.495 300.834 673.344 302.004C670.299 325.598 672.029 362.906 673.461 381.069C673.555 382.273 672.575 383.278 671.369 383.223L587.055 379.413C585.986 379.364 585.145 378.484 585.145 377.415Z" stroke="#D1D4D8" stroke-width="3" stroke-linecap="round"/>
<path d="M429.062 127.326C418.327 147.726 433.534 172.16 442.479 181.827C456.479 193.327 474.979 170.327 477.479 160.827C479.979 151.327 472.479 135.827 451.479 144.827C430.479 153.827 438.479 175.326 451.479 173.326C464.479 171.326 491.979 157.826 494.479 177.826C496.979 197.826 474.479 203.326 467.979 197.326C461.479 191.326 443.479 178.846 450.479 160.827C457.479 142.807 485.979 143.826 492.479 159.326C498.979 174.826 475.479 211.326 450.479 215.826C425.479 220.326 432.979 192.326 448.479 192.326C482.479 189.826 477.579 174.626 525.979 177.826C544.507 180.493 561.362 195.926 480.562 236.326" stroke="#D1D4D8" stroke-width="3" stroke-linecap="round"/>
<path d="M584.061 341.326C570.228 348.326 544.161 349.827 542.561 305.827C540.961 261.827 503.894 260.493 485.561 265.327" stroke="#D1D4D8" stroke-width="3" stroke-linecap="round"/>
<path d="M646.305 360.871H618.147C615.533 360.871 614.17 357.761 615.94 355.839L641.67 327.904C643.441 325.981 642.077 322.871 639.463 322.871H614.805" stroke="#D1D4D8" stroke-width="3" stroke-linecap="round"/>
</svg>
