<svg width="927" height="543" viewBox="0 0 927 543" fill="none" xmlns="http://www.w3.org/2000/svg">
<path d="M199.094 88.5026L197.579 91.0919C207.667 97.2107 227.739 121.244 223.629 167.593C218.459 225.905 196.127 280.798 146.274 306.456C142.828 308.229 134.671 310.797 123.762 312.43C112.893 314.057 99.4176 314.738 85.3692 312.824C57.3096 309.002 27.03 294.858 10.4545 257.201L9.08159 257.805L10.4545 257.201C-1.83723 229.276 0.757565 202.811 8.53611 181.199C16.3253 159.558 29.2961 142.844 37.6101 134.572C45.6654 126.588 60.2445 115.239 77.6985 107.249C95.1638 99.2538 115.329 94.7003 134.668 100.018L135.975 100.377L136.465 99.1135C144.622 78.0698 174.683 32.779 229.375 20.4733C284.033 8.1753 310.715 38.8192 310.92 62.7691C310.989 70.7934 309.631 82.6349 305.409 92.1113C303.301 96.8407 300.523 100.887 296.945 103.604C293.644 106.111 289.598 107.539 284.591 107.27L280.919 87.5942L280.495 85.3228L278.593 86.6345C266.226 95.1618 232.897 107.554 199.094 88.5026Z" stroke="#D1D4D8" stroke-width="3"/>
<path d="M300.841 159.097C299.663 167.045 296.722 173.839 293.047 178.408C289.33 183.03 285.216 185.005 281.583 184.467C277.951 183.929 274.586 180.846 272.369 175.344C270.177 169.906 269.331 162.551 270.509 154.603C271.686 146.655 274.628 139.861 278.303 135.292C282.02 130.669 286.134 128.694 289.767 129.232C293.399 129.771 296.764 132.853 298.981 138.355C301.173 143.793 302.019 151.149 300.841 159.097Z" stroke="#D1D4D8" stroke-width="3"/>
<path d="M285.917 165.934C288.474 166.312 291.1 162.888 291.782 158.285C292.464 153.682 290.944 149.643 288.387 149.264C285.83 148.885 283.204 152.31 282.522 156.913C281.84 161.516 283.36 165.555 285.917 165.934Z" fill="#D1D4D8"/>
<path d="M225.262 163.804L268.541 159.879" stroke="#D1D4D8" stroke-width="3" stroke-linecap="round"/>
<path d="M288.089 109.495C291.827 117.02 302.856 133.466 314.372 142.67C326.15 152.084 327.145 164.084 319.625 172.73L307.903 186.332C314.372 235.797 304.841 272.426 244.215 289.477" stroke="#D1D4D8" stroke-width="3" stroke-linecap="round"/>
<path d="M243.496 208.922C244.928 209.134 246.262 208.145 246.474 206.712C246.686 205.28 245.697 203.946 244.264 203.734C242.832 203.522 241.498 204.511 241.286 205.944C241.074 207.376 242.063 208.71 243.496 208.922Z" fill="#D1D4D8"/>
<path d="M234.101 232.976C235.82 233.231 237.386 232.276 237.598 230.843C237.81 229.41 236.588 228.043 234.869 227.788C233.15 227.533 231.584 228.488 231.372 229.921C231.16 231.353 232.382 232.721 234.101 232.976Z" fill="#D1D4D8"/>
<path d="M256.966 228.944C258.685 229.199 260.25 228.244 260.463 226.811C260.675 225.379 259.453 224.011 257.734 223.756C256.015 223.501 254.449 224.456 254.237 225.889C254.025 227.321 255.246 228.689 256.966 228.944Z" fill="#D1D4D8"/>
<path d="M423.828 358.939C426.13 355.726 427.286 352.801 426.237 350.781C423.186 344.909 415.683 350.936 412.313 354.684C403.926 363.701 387.784 379.374 392.135 361.136C396.485 342.897 387.232 344.02 365.565 366.283L344.027 379.38" stroke="#D1D4D8" stroke-width="3" stroke-linecap="round"/>
<path d="M422.067 387.535C423.922 393.239 420.946 406.441 393.672 409.64C383.353 410.85 381.802 410.68 372.117 409.863H355.527" stroke="#D1D4D8" stroke-width="3" stroke-linecap="round"/>
<path d="M405.527 376.123C410.886 372.174 419.433 365.005 423.82 358.881C428.584 358.826 433.197 361.511 425.845 370.895C422.662 374.958 417.236 380.276 408.608 387.172" stroke="#D1D4D8" stroke-width="3" stroke-linecap="round"/>
<path d="M408.615 387.23C417.243 380.334 422.669 375.016 425.852 370.953C430.397 372.234 434.486 377.189 422.066 387.535C419.35 389.797 415.844 392.318 411.381 395.114" stroke="#D1D4D8" stroke-width="3" stroke-linecap="round"/>
<path d="M147.168 317.794C73.7054 371.381 82.4958 438.207 82.4958 520.794" stroke="#D1D4D8" stroke-width="3" stroke-linecap="round"/>
<path d="M149.168 318.704L184.435 349.565C185.58 350.568 187.381 349.974 187.706 348.487L196.9 306.44C197.241 304.881 199.181 304.329 200.291 305.477L224.168 330.158" stroke="#D1D4D8" stroke-width="3" stroke-linecap="round"/>
<path d="M224.168 293.794C226.124 297.459 228.928 303.416 231.556 310.339C235.162 319.842 238.436 331.166 238.729 340.885" stroke="#D1D4D8" stroke-width="3" stroke-linecap="round"/>
<path d="M231.557 310.339L297.967 349.171" stroke="#D1D4D8" stroke-width="3" stroke-linecap="round"/>
<path d="M180.168 379.303C192.212 395.619 260.043 440.8 308.855 391.227L322.168 376.794" stroke="#D1D4D8" stroke-width="3" stroke-linecap="round"/>
<path d="M213.168 538.794C228.839 534.742 303.168 494.039 324.816 456.218" stroke="#D1D4D8" stroke-width="3" stroke-linecap="round"/>
<path d="M319.014 407.051C324.382 426.324 325.893 442.593 324.817 456.218C336.76 448.023 348.169 441.72 348.169 415.876C348.169 397.595 334.859 381.837 322.816 376.794" stroke="#D1D4D8" stroke-width="3" stroke-linecap="round"/>
<path d="M219.168 363.794C221.929 363.794 224.168 361.108 224.168 357.794C224.168 354.48 221.929 351.794 219.168 351.794C216.407 351.794 214.168 354.48 214.168 357.794C214.168 361.108 216.407 363.794 219.168 363.794Z" fill="#D1D4D8"/>
<path d="M226.168 392.794C228.929 392.794 231.168 390.108 231.168 386.794C231.168 383.48 228.929 380.794 226.168 380.794C223.407 380.794 221.168 383.48 221.168 386.794C221.168 390.108 223.407 392.794 226.168 392.794Z" fill="#D1D4D8"/>
<path d="M279.286 226.794C278.642 230.694 280.316 238.754 292.168 239.794" stroke="#D1D4D8" stroke-width="3" stroke-linecap="round"/>
<path d="M755.34 371.949C755.34 331.949 765.84 312.449 780.34 292.949" stroke="#D1D4D8" stroke-width="3" stroke-linecap="round"/>
<path d="M922.84 510.949C927.84 446.949 922.84 420.449 918.34 386.449C911.38 333.865 889.415 292.955 880.608 279.308C871.801 265.66 854.353 266.506 837.84 272.449" stroke="#D1D4D8" stroke-width="3" stroke-linecap="round"/>
<path d="M782.407 273.109C773.682 267.738 708.045 272.915 695.283 190.35C673.435 190.605 661.556 172.709 678.226 165.051C695.997 155.887 694.663 139.062 691.443 129.149C686.325 116.149 686.016 102.5 687.119 99.645" stroke="#D1D4D8" stroke-width="3" stroke-linecap="round"/>
<path d="M723.684 166.711C720.493 166.748 717.861 162.899 717.805 158.113C717.749 153.327 720.29 149.417 723.481 149.379C726.671 149.342 729.303 153.191 729.359 157.977C729.415 162.763 726.874 166.673 723.684 166.711Z" fill="#D1D4D8"/>
<path d="M737.001 139.132C733.356 135.236 723.93 129.536 715.389 137.908" stroke="#D1D4D8" stroke-width="3" stroke-linecap="round"/>
<path d="M755.753 210.449C749.054 220.758 741.699 223.686 727.412 217.033" stroke="#D1D4D8" stroke-width="3" stroke-linecap="round"/>
<path d="M806.334 136.895C807.886 140.304 809.186 148.041 801.971 151.724" stroke="#D1D4D8" stroke-width="3" stroke-linecap="round"/>
<path d="M666.733 9.77079L666.027 8.44722L666.733 9.77079C686.46 -0.749068 709.269 0.580708 731.295 7.69884C753.313 14.8142 774.353 27.6561 790.336 39.8453L790.919 40.2902L791.628 40.1029C802.18 37.3172 821.923 37.2514 840.426 45.7054C858.834 54.1156 876.053 70.9685 881.754 102.164C889.853 146.477 865.628 180.21 846.515 206.824C846.143 207.341 845.774 207.855 845.407 208.367C835.364 202.795 822.529 193.853 813.573 185.88C808.889 181.711 805.413 177.934 803.882 175.124C803.096 173.684 803 172.816 803.118 172.377C803.189 172.115 803.442 171.643 804.776 171.349C808.705 170.482 812.429 167.249 815.555 163.072C818.719 158.843 821.445 153.418 823.306 147.751C825.166 142.089 826.191 136.099 825.877 130.739C825.564 125.396 823.902 120.484 820.173 117.28L819.196 118.418L820.173 117.28C816.059 113.746 811.902 112.32 807.9 112.61C803.933 112.896 800.345 114.852 797.298 117.645C792.193 122.324 788.348 129.582 786.441 136.471L776.167 118.701C777.006 114.985 777.708 110.646 777.972 106.396C778.248 101.947 778.052 97.4752 776.949 93.8959C775.843 90.3079 773.709 87.3101 769.945 86.5205C766.334 85.7629 761.727 87.1719 755.96 90.9437C744.925 98.1611 731.23 100.87 718.485 101.274C705.912 101.673 694.414 99.8225 687.609 97.9819C674.105 88.2765 657.102 72.2993 649.398 55.6859C645.537 47.3603 644.08 39.0256 646.386 31.2797C648.686 23.557 654.814 16.1267 666.733 9.77079Z" stroke="#D1D4D8" stroke-width="3"/>
<path d="M844.34 207.205C834.507 219.043 829.622 228.873 830.23 249.237" stroke="#D1D4D8" stroke-width="3" stroke-linecap="round"/>
<path d="M352.34 440.449V469.949C352.34 471.054 353.235 471.949 354.34 471.949H414.34C426.34 471.949 426.666 456.884 419.34 436.449C409.84 409.949 432.84 403.125 445.84 406.949C455.782 409.874 462.34 421.949 456.34 436.449C451.314 448.596 442.696 455.661 451.758 470.992C452.109 471.586 452.759 471.949 453.448 471.949H527.34C528.444 471.949 529.34 471.054 529.34 469.949V406.949C529.34 401.449 532.14 395.249 549.34 400.449C570.84 406.949 590.34 395.449 588.34 377.449C585.303 350.113 549.34 359.949 549.34 359.449C549.34 358.949 525.34 367.449 525.34 341.449C525.34 322.124 524.926 302.496 525.228 294.098C525.27 292.935 524.348 291.949 523.184 291.949H456.84C450.84 291.949 447.534 301.409 459.84 316.449C468.84 327.449 462.34 355.449 435.34 348.949C427.673 346.116 416.84 335.449 424.84 316.449C428.84 306.949 437.34 291.449 423.34 290.449H354.34C353.235 290.449 352.34 291.345 352.34 292.449V338.449C352.34 345.116 348.34 355.849 332.34 345.449C312.34 332.449 289.34 347.949 292.34 370.949C294.166 384.949 304.34 388.949 309.84 390.449" stroke="#D1D4D8" stroke-width="3" stroke-linecap="round"/>
<path d="M525.84 292.449H583.34C590.34 292.449 603.108 286.07 598.84 260.463C594.34 233.461 615.811 233.686 624.84 236.96C629.507 238.629 637.44 245.665 631.84 260.463C624.84 278.96 629.34 293.465 643.84 293.465H693.84C694.945 293.465 695.84 294.361 695.84 295.465V375.949" stroke="#D1D4D8" stroke-width="3" stroke-linecap="round"/>
<path d="M527.84 471.949C541.007 471.783 573.134 471.949 586.34 471.949C592.84 471.949 599.84 476.949 593.84 493.449C587.84 509.949 593.84 525.449 608.34 527.949C633.59 532.303 641.34 510.949 633.84 493.449C628.815 481.725 627.34 472.449 635.84 471.949C643.336 471.508 684.277 471.845 693.841 471.931C694.953 471.941 695.84 471.042 695.84 469.93V421.949" stroke="#D1D4D8" stroke-width="3" stroke-linecap="round"/>
<path d="M524.339 505.449C522.672 509.949 521.839 523.349 531.839 540.949" stroke="#D1D4D8" stroke-width="3" stroke-linecap="round"/>
<path d="M505.34 502.449C498.84 508.449 485.54 522.449 484.34 530.449" stroke="#D1D4D8" stroke-width="3" stroke-linecap="round"/>
<path d="M536.84 502.449C540.007 507.949 546.54 519.849 547.34 523.449" stroke="#D1D4D8" stroke-width="3" stroke-linecap="round"/>
<path d="M526.34 268.949C532.84 262.949 546.14 248.949 547.34 240.949" stroke="#D1D4D8" stroke-width="3" stroke-linecap="round"/>
<path d="M507.34 265.949C509.007 261.449 509.84 248.049 499.84 230.449" stroke="#D1D4D8" stroke-width="3" stroke-linecap="round"/>
<path d="M494.84 268.949C491.673 263.449 485.14 251.549 484.34 247.949" stroke="#D1D4D8" stroke-width="3" stroke-linecap="round"/>
<path d="M673.531 369.632C672.197 361.805 669.166 345.791 660.989 338.685C658.875 336.938 654.825 332.55 655.544 328.98C656.442 324.518 646.538 322.72 646.465 332.935C646.392 343.15 653.986 345.418 646.316 348.473" stroke="#D1D4D8" stroke-width="3" stroke-linecap="round"/>
<path d="M646.316 348.473C640.18 350.916 621.966 340.493 613.626 334.976C610.767 332.915 604.472 330.414 602.158 336.896C601.585 338.501 602.047 340.263 603.18 342.064C606.626 347.534 616.279 353.352 621.974 356.148" stroke="#D1D4D8" stroke-width="3" stroke-linecap="round"/>
<path d="M621.974 356.148C616.279 353.352 606.626 347.534 603.18 342.064C599.982 340.237 593.258 338.197 591.946 344.647C591.55 346.593 592.746 348.75 594.835 350.91C599.669 355.911 609.29 360.934 615.049 363.429" stroke="#D1D4D8" stroke-width="3" stroke-linecap="round"/>
<path d="M615.051 363.429C609.292 360.934 599.671 355.911 594.837 350.91C591.357 352.398 587.602 357.431 600.413 365.663L604.273 368.02L610.985 372.119" stroke="#D1D4D8" stroke-width="3" stroke-linecap="round"/>
<path d="M604.271 368.02C604.383 372.439 609.525 383.007 629.193 389.923C648.862 396.839 661.109 393.792 664.774 391.404" stroke="#D1D4D8" stroke-width="3" stroke-linecap="round"/>
<path d="M806.841 322.449C797.641 393.249 774.674 399.616 764.341 393.949C743.674 384.449 698.141 368.849 681.341 382.449C664.541 396.049 684.674 414.449 696.841 421.949C737.174 450.783 824.741 498.049 852.341 456.449C879.941 414.849 881.841 362.449 879.341 341.449" stroke="#D1D4D8" stroke-width="3" stroke-linecap="round"/>
<path d="M765.84 316.449C750.507 322.616 715.04 338.249 695.84 351.449" stroke="#D1D4D8" stroke-width="3" stroke-linecap="round"/>
<path d="M837.216 272.894C839.826 263.79 841.356 246.426 826.595 249.801C808.143 254.019 771.086 281.335 773.841 291.449" stroke="#D1D4D8" stroke-width="3" stroke-linecap="round"/>
</svg>
