<svg width="771" height="751" viewBox="0 0 771 751" fill="none" xmlns="http://www.w3.org/2000/svg">
<path d="M377.973 526.059C380.965 529.83 392.378 535.67 414.093 528.864C435.809 522.058 444.515 511.424 446.153 506.958" stroke="#D1D4D8" stroke-width="3" stroke-linecap="round"/>
<path d="M358.525 517.329C356.459 520.891 356.473 527.716 373.059 526.525L377.974 526.06L386.524 525.249" stroke="#D1D4D8" stroke-width="3" stroke-linecap="round"/>
<path d="M360.023 504.193C356.032 504.69 348.821 507.299 351.898 513.764C352.827 515.715 355.284 516.811 358.524 517.329C366.023 518.526 377.719 516.624 384.386 515.04" stroke="#D1D4D8" stroke-width="3" stroke-linecap="round"/>
<path d="M439.547 482.312C433.256 476.375 420.121 464.422 408.322 463.571C405.33 463.429 398.918 462.253 397.208 458.68C395.071 454.213 385.239 459.105 391.865 468.038C398.491 476.97 406.613 473.993 401.91 481.649C398.149 487.774 375.408 490.582 364.507 491.22C360.66 491.291 353.521 493.219 355.744 500.365C356.295 502.135 357.852 503.367 360.022 504.193C366.615 506.706 378.859 505.474 385.667 504.193" stroke="#D1D4D8" stroke-width="3" stroke-linecap="round"/>
<path d="M411.156 283C403.154 234.499 412.228 207.211 434.654 190.5C432.005 256.303 478.295 287.5 495.795 298.5L480.795 312.5L459.154 328.499C446.654 335.5 418.757 333 411.156 283Z" stroke="#D1D4D8" stroke-width="3" stroke-linecap="round"/>
<path d="M444.231 516C433.971 554.014 424.533 607.461 444.231 749.5" stroke="#D1D4D8" stroke-width="3" stroke-linecap="round"/>
<path d="M474.154 387.745C482.383 368.101 500.074 333.335 518.726 356.908C537.377 380.481 538.611 430.918 549.583 408.303L570.154 354.167" stroke="#D1D4D8" stroke-width="3" stroke-linecap="round"/>
<path d="M712.634 301.511C681.718 330.884 650.362 335.14 638.289 336.5C613.654 339.275 572.789 314 572.789 286.5C595.112 270.374 611.332 240.065 616.512 227.749C622.33 232.669 629.899 230.796 632.956 229.245C636.885 226.687 644.424 217.059 643.139 199.014C641.854 180.968 628.752 185.813 622.361 190.491L590.433 193.931C591.776 164.096 573.385 154.14 564.022 152.892C571.38 136.364 558.218 129.133 551.292 126.292C541.357 138.469 528.337 143.375 522.831 145.656C466.796 160.315 432.594 140.245 416.807 115.197C399.67 89.9117 402.444 30.535 450.925 16.0804C466.777 9.98027 504.359 4.97862 527.867 33.7734C597.072 8.34136 629.825 81.1271 638.811 107.558L649.195 131.657C739.38 150.841 747.318 236.14 731.477 273.496C724.294 290.434 723.35 291.331 713.109 301.059L712.634 301.511Z" stroke="#D1D4D8" stroke-width="3" stroke-linecap="round"/>
<path d="M508.337 320.911C492.838 321.911 432.655 349 443.156 478.502" stroke="#D1D4D8" stroke-width="3" stroke-linecap="round"/>
<path d="M547.337 320.908C616.837 309.408 636.473 365.251 644.154 390.999C658.194 435.426 644.154 531 449.385 502.329C438.156 500.676 432.656 485.585 454.654 471.124C477.66 456 502.156 446.5 531.66 440.5" stroke="#D1D4D8" stroke-width="3" stroke-linecap="round"/>
<path d="M445.171 514.177C464.039 532.476 528.143 559.65 633.618 521.951C635.855 517.169 637.018 486.482 633.618 476.591" stroke="#D1D4D8" stroke-width="3" stroke-linecap="round"/>
<path d="M591.371 194.59C587.687 215.56 569.544 229.606 551.115 226.368C532.686 223.131 520.416 203.742 524.099 182.772C527.783 161.802 545.927 147.756 564.356 150.993C582.785 154.231 595.055 173.619 591.371 194.59Z" stroke="#D1D4D8" stroke-width="3"/>
<path d="M504.152 191.798C500.469 212.768 482.325 226.814 463.896 223.576C445.467 220.339 433.197 200.95 436.881 179.98C440.564 159.01 458.708 144.964 477.137 148.201C495.566 151.439 507.836 170.827 504.152 191.798Z" stroke="#D1D4D8" stroke-width="3"/>
<path d="M503.782 183.913L525.421 185.252" stroke="#D1D4D8" stroke-width="3" stroke-linecap="round"/>
<path d="M515.886 204.997C509.544 221.285 496.576 234.878 510.913 245.193" stroke="#D1D4D8" stroke-width="3" stroke-linecap="round"/>
<path d="M495.882 266.697C500.224 271.496 512.336 278.215 526.048 266.697" stroke="#D1D4D8" stroke-width="3" stroke-linecap="round"/>
<circle cx="464.577" cy="200.421" r="9" transform="rotate(9.96339 464.577 200.421)" fill="#D1D4D8"/>
<circle cx="548.577" cy="198.421" r="9" transform="rotate(9.96339 548.577 198.421)" fill="#D1D4D8"/>
<path d="M630.424 202.842C631.525 205.82 632.592 212.69 628.051 216.347" stroke="#D1D4D8" stroke-width="3" stroke-linecap="round"/>
<path d="M446.62 143.609C433.705 168.255 422.089 228.474 473.664 280.414C525.239 332.353 580.528 283.64 601.725 252.791L616.717 226.885C622.944 232.388 636.599 237.339 641.41 213.124C646.22 188.91 636.728 185.618 631.381 186.999C628.482 187.65 622.13 190.525 619.911 196.818" stroke="#D1D4D8" stroke-width="3" stroke-linecap="round"/>
<path d="M590.384 193.024L625.808 189.501" stroke="#D1D4D8" stroke-width="3" stroke-linecap="round"/>
<path d="M558.526 176.009C564.118 176.806 575.255 181.285 575.062 192.826" stroke="#D1D4D8" stroke-width="3" stroke-linecap="round"/>
<path d="M451.971 180.521C456.238 178.646 466.672 176.41 474.27 182.47" stroke="#D1D4D8" stroke-width="3" stroke-linecap="round"/>
<path d="M554.154 319.803V296" stroke="#D1D4D8" stroke-width="3" stroke-linecap="round"/>
<path d="M502.154 300.868V322" stroke="#D1D4D8" stroke-width="3" stroke-linecap="round"/>
<path d="M458.16 678.054C488.657 685.27 563.715 695.373 619.974 678.054" stroke="#D1D4D8" stroke-width="3" stroke-linecap="round"/>
<path d="M458.16 612.486C482.057 618.672 543.368 627.332 597.443 612.486" stroke="#D1D4D8" stroke-width="3" stroke-linecap="round"/>
<path d="M551.016 593.93L573.155 734" stroke="#D1D4D8" stroke-width="3" stroke-linecap="round"/>
<path d="M480.008 551.868L497.154 730.5" stroke="#D1D4D8" stroke-width="3" stroke-linecap="round"/>
<path d="M185.154 268.383C151.954 292.383 153.988 393.383 159.154 440.883H148.154C132.154 340.883 151.488 288.55 163.154 274.883L185.154 268.383Z" fill="#D1D4D8"/>
<path d="M68.1543 302.383C35.0152 322.975 37.0448 409.63 42.202 450.383H31.2222C15.2516 364.586 34.5494 319.686 46.1947 307.96L68.1543 302.383Z" fill="#D1D4D8"/>
<path d="M5.1543 444.383C-0.51237 399.55 1.1543 318.883 47.1543 306.883" stroke="#D1D4D8" stroke-width="3" stroke-linecap="round"/>
<path d="M47.1543 306.883L233.654 254.883" stroke="#D1D4D8" stroke-width="3" stroke-linecap="round"/>
<path d="M3.09079 451.824L166.091 441.451C166.667 441.414 167.154 441.872 167.154 442.449V458.939C167.154 459.469 166.741 459.907 166.212 459.938L3.21178 469.322C2.63785 469.355 2.1543 468.899 2.1543 468.324V452.822C2.1543 452.294 2.56422 451.857 3.09079 451.824Z" stroke="#D1D4D8" stroke-width="3" stroke-linecap="round"/>
<path d="M119.154 463.383V532.383" stroke="#D1D4D8" stroke-width="3" stroke-linecap="round"/>
<path d="M152.154 461.883V509.383" stroke="#D1D4D8" stroke-width="3" stroke-linecap="round"/>
<path d="M401.647 487.812C379.677 503.305 235.474 463.148 168.154 441.883L305.654 447.383C351.708 453.079 423.618 472.319 401.647 487.812Z" fill="#D1D4D8" stroke="#D1D4D8" stroke-width="3" stroke-linecap="round"/>
<path d="M167.154 458.383C199.395 475.266 273.209 506.48 350.154 511.5" stroke="#D1D4D8" stroke-width="3" stroke-linecap="round"/>
<path d="M186.655 437.883C178.988 371.55 181.155 242.083 251.155 254.883C265.822 257.383 297.155 273.783 305.155 319.383C308.655 336.922 313.555 386.3 305.155 443.5" stroke="#D1D4D8" stroke-width="3" stroke-linecap="round"/>
<path d="M250.653 260C186.214 248.162 184.048 371.506 190.875 434.505C191.033 435.968 192.234 437.05 193.705 437.117L297.941 441.876C299.481 441.947 300.825 440.835 301.037 439.309C308.352 386.702 304.328 337.43 301.118 321.267C293.655 278.529 264.335 262.343 250.653 260Z" fill="#D1D4D8"/>
<path d="M460.694 360C395.002 378.579 363.546 388.613 358.37 411.265C356.687 418.62 360.885 422.919 373.393 427.025C396.356 434.563 425.372 433.55 441.154 434" stroke="#D1D4D8" stroke-width="3" stroke-linecap="round"/>
<path d="M319.904 437.601C321.229 445.675 333.916 443.417 352.897 434.843C364.805 429.463 360.691 430.401 367.576 428.595" stroke="#D1D4D8" stroke-width="3" stroke-linecap="round"/>
<path d="M301.046 432.427C299.723 436.018 300.769 442.312 315.543 438.759L319.905 437.601L327.491 435.589" stroke="#D1D4D8" stroke-width="3" stroke-linecap="round"/>
<path d="M300.409 420.09C296.886 421.138 290.778 424.612 294.532 430.12C295.665 431.782 298.046 432.43 301.046 432.427C307.989 432.422 318.247 428.937 324.017 426.489" stroke="#D1D4D8" stroke-width="3" stroke-linecap="round"/>
<path d="M368.8 388.137C362.228 383.591 352.383 375.948 341.616 376.91C338.897 377.222 331.309 374.246 327.047 372.604C322.785 370.963 316.32 374.768 323.646 382.027C330.973 389.285 337.845 385.337 334.765 393.095C332.3 399.302 312.221 405.257 302.489 407.459C299.031 408.094 292.886 410.929 295.973 417.191C296.737 418.742 298.328 419.648 300.409 420.089C306.734 421.431 317.587 418.482 323.532 416.294" stroke="#D1D4D8" stroke-width="3" stroke-linecap="round"/>
</svg>
