<svg width="788" height="767" viewBox="0 0 788 767" fill="none" xmlns="http://www.w3.org/2000/svg">
<path d="M1.19176 745.883C-7.06029 738.566 29.605 739.107 47.7016 738.769C50.3075 742.428 52.2257 742.495 56.9309 743.342C59.1024 748.932 9.44381 753.2 1.19176 745.883Z" fill="#D1D4D8"/>
<path d="M283.339 192.769C281.661 198.842 280.41 218.576 287 234.769" stroke="#D1D4D8" stroke-width="3" stroke-linecap="round"/>
<path d="M278 238.738C293.639 233.134 323.42 226.276 323.42 245.662V249.026C323.42 251.297 326.015 252.584 327.81 251.193C352.916 231.741 404 192.769 422 163.269" stroke="#D1D4D8" stroke-width="3" stroke-linecap="round"/>
<path d="M347.306 88.769C362.67 100.865 386.515 126.973 363.338 137.594C361.979 138.216 361.229 139.722 361.617 141.158C366.177 158.044 365.456 192.912 330.081 216.525C329.554 216.876 329.149 217.398 328.957 217.998L322 239.769" stroke="#D1D4D8" stroke-width="3" stroke-linecap="round"/>
<path d="M332.1 177.769C331.554 180.169 332.972 185.129 343 185.769" stroke="#D1D4D8" stroke-width="3" stroke-linecap="round"/>
<path d="M359 114.769C359 120.028 357.41 124.652 355.006 127.883C352.601 131.112 349.557 132.769 346.5 132.769C343.443 132.769 340.399 131.112 337.994 127.883C335.59 124.652 334 120.028 334 114.769C334 109.51 335.59 104.886 337.994 101.655C340.399 98.4264 343.443 96.769 346.5 96.769C349.557 96.769 352.601 98.4264 355.006 101.655C357.41 104.886 359 109.51 359 114.769Z" stroke="#D1D4D8" stroke-width="3" stroke-linecap="round"/>
<path d="M301 130.769L332 119.769" stroke="#D1D4D8" stroke-width="3" stroke-linecap="round"/>
<path d="M325 109.769C325.789 106.436 328.695 98.7686 334 94.769" stroke="#D1D4D8" stroke-width="3" stroke-linecap="round"/>
<path d="M348 117.769C350.209 117.769 352 116.426 352 114.769C352 113.112 350.209 111.769 348 111.769C345.791 111.769 344 113.112 344 114.769C344 116.426 345.791 117.769 348 117.769Z" fill="#D1D4D8"/>
<path d="M334.397 445.769C332.556 426.11 331.082 382.731 339.923 366.476C348.763 350.221 357.257 326.969 363.231 317.563C383.321 305.965 431.2 261.469 462 176.269" stroke="#D1D4D8" stroke-width="3" stroke-linecap="round"/>
<path d="M278 237.769L163 372.769" stroke="#D1D4D8" stroke-width="3" stroke-linecap="round"/>
<path d="M163 373.183C171.526 372.032 193.69 372.59 214.15 384.046C239.726 398.365 266.804 423.549 334 445.769" stroke="#D1D4D8" stroke-width="3" stroke-linecap="round"/>
<path d="M334 445.769L311 461.769" stroke="#D1D4D8" stroke-width="3" stroke-linecap="round"/>
<path d="M163.013 372.769C161.455 377.598 159.909 388.861 173 402.769" stroke="#D1D4D8" stroke-width="3" stroke-linecap="round"/>
<path d="M247 274.769C228.39 290.27 181.201 322.973 141.323 329.775C132.019 333.608 116.001 344.375 126.369 356.776C136.738 369.178 143.65 384.28 145.81 390.279C147.472 395.781 151.608 403.45 161.578 385.849" stroke="#D1D4D8" stroke-width="3" stroke-linecap="round"/>
<path d="M130 361.769C122.274 366.325 104.258 375.03 94.0008 373.41C83.7435 371.791 76.9053 376.11 74.7683 378.472C73.6176 380.328 72.8944 384.14 79.2066 384.546C85.5187 384.951 93.0146 384.714 95.9733 384.546" stroke="#D1D4D8" stroke-width="3" stroke-linecap="round"/>
<path d="M104 377.769C100.54 381.646 88.7749 390.458 69.3974 394.688C65.6077 395.393 60.4996 399.446 67.4202 404.205C73.352 407.906 89.7635 404.522 98.0682 399.446" stroke="#D1D4D8" stroke-width="3" stroke-linecap="round"/>
<path d="M97.9781 398.769C91.6226 401.969 80.1826 410.487 85.2671 418.971C86.8966 420.655 93.7735 420.788 108.245 407.859L119 398.769" stroke="#D1D4D8" stroke-width="3" stroke-linecap="round"/>
<path d="M119.538 398.962L108.557 408.134C105.395 416.458 100.57 436.674 113.548 425.462C123.032 415.779 121.035 407.524 125.029 405.077C129.022 402.631 138.007 393.187 142 388.769" stroke="#D1D4D8" stroke-width="3" stroke-linecap="round"/>
<path d="M120.009 382.769C118.679 386.886 117.615 396.449 124 401.769" stroke="#D1D4D8" stroke-width="3" stroke-linecap="round"/>
<path d="M241 719.769C247.29 718.102 259.97 709.67 260.367 689.269C260.765 668.869 269.141 633.769 273.278 618.769L314 438.769" stroke="#D1D4D8" stroke-width="3" stroke-linecap="round"/>
<path d="M329 148.769C330.105 148.769 331 148.097 331 147.269C331 146.441 330.105 145.769 329 145.769C327.895 145.769 327 146.441 327 147.269C327 148.097 327.895 148.769 329 148.769Z" fill="#D1D4D8"/>
<path d="M335.5 154.769C336.328 154.769 337 154.321 337 153.769C337 153.217 336.328 152.769 335.5 152.769C334.672 152.769 334 153.217 334 153.769C334 154.321 334.672 154.769 335.5 154.769Z" fill="#D1D4D8"/>
<path d="M321 158.769C321.552 158.769 322 157.874 322 156.769C322 155.664 321.552 154.769 321 154.769C320.448 154.769 320 155.664 320 156.769C320 157.874 320.448 158.769 321 158.769Z" fill="#D1D4D8"/>
<path d="M248.668 87.8691L249.651 88.0517L250.198 87.2145C265.759 63.3851 284.229 47.6265 301.975 39.5927C319.736 31.5526 336.651 31.2875 349.32 38.1819L350.037 36.8644L349.32 38.182C354.253 40.8661 356.851 44.4992 357.913 48.6112C358.991 52.784 358.521 57.5906 357.017 62.5971C354.227 71.8842 348.014 81.4196 342.686 87.891L332.845 73.655L331.425 71.5999L330.279 73.8197C326.864 80.4327 320.259 82.6518 312.824 82.7157C305.384 82.7795 297.504 80.6624 292.215 79.0187L288.94 78.0009L290.416 81.0966C299.452 100.052 313.791 148.905 283.56 193.028L284.603 193.743L283.56 193.028C253.251 237.268 215.6 237.642 197 225.329C188.205 219.088 176.633 207.561 170.248 192.102C163.887 176.7 162.639 157.319 174.566 135.149C198.56 90.5515 234.203 85.1824 248.668 87.8691Z" stroke="#D1D4D8" stroke-width="3"/>
<path d="M161 725.769C164.315 730.958 175.355 740.75 193 738.415" stroke="#D1D4D8" stroke-width="3" stroke-linecap="round"/>
<path d="M188.791 375.769C182.534 393.667 153.219 430.457 127.035 476.695C109.578 505.697 67.9455 570.461 41.0689 597.507C37.4459 602.644 34.0533 614.311 49.4679 619.879C61.3252 624.851 66.661 636.385 68.242 648.715C70.2181 664.128 95.415 675.562 112.213 664.128C125.602 655.012 164.1 589.362 193.185 552.264C200.59 542.819 207.385 535.224 213 530.887" stroke="#D1D4D8" stroke-width="3" stroke-linecap="round"/>
<path d="M193.904 552.769L161 725.769C177.725 721.307 223.667 712.88 252 712.88" stroke="#D1D4D8" stroke-width="3" stroke-linecap="round"/>
<path d="M30.1335 711.471C2.87678 658.636 28.1436 623.476 41.8087 614.769C62.9924 621.432 63.5648 643.643 67 654.193L59.0717 675.903C53.7664 685.241 56.8611 703.506 59.0717 711.471C68.2354 748.374 54.4045 751.921 47.617 742.039L30.1335 711.471Z" fill="#D1D4D8"/>
<path d="M175.46 759.921C166.279 752.65 184.437 749.831 202.863 748.769C209.283 754.509 251.92 756.468 254 757.796C234.385 764.173 183.506 766.292 175.46 759.921Z" fill="#D1D4D8"/>
<path d="M267.681 756.807C198.069 766.351 183.622 738.818 185.099 722.722C197.071 717.723 229.992 715.905 245.511 714.769C241.077 725.222 246.619 723.858 250.499 726.699C255.488 730.107 269.344 734.274 277.103 734.652C312.021 736.357 284.678 754.346 267.681 756.807Z" fill="#D1D4D8"/>
<path d="M431.664 75.2453C434.853 73.412 441.43 72.7453 442.23 84.7453" stroke="#D1D4D8" stroke-width="3" stroke-linecap="round"/>
<path d="M425.229 107.245C425.562 102.579 425.229 91.9453 421.229 86.7453C416.229 80.2453 415.229 67.7453 425.229 68.7453C428.403 69.0628 430.423 71.7001 431.663 75.2453C433.548 80.6343 433.631 88.1209 433.229 92.7453" stroke="#D1D4D8" stroke-width="3" stroke-linecap="round"/>
<path d="M418.943 120.245C418.538 115.745 416.829 105.345 413.229 99.745C408.729 92.7452 408.229 74.7452 417.729 76.7452" stroke="#D1D4D8" stroke-width="3" stroke-linecap="round"/>
<path d="M425.229 154.245C422.729 154.245 417.429 151.845 416.229 142.245C415.029 132.645 410.729 126.579 408.729 124.745C407.562 121.912 406.329 116.045 410.729 115.245C413.32 114.774 416.384 117.285 418.943 120.245L423.229 126.245" stroke="#D1D4D8" stroke-width="3" stroke-linecap="round"/>
<path d="M448.229 109.745C449.396 107.579 450.529 102.045 445.729 97.2453C439.729 91.2453 441.229 85.7453 444.729 84.2453C448.229 82.7453 453.229 83.7453 458.229 98.7453C463.229 111.745 470.629 144.745 462.229 172.745" stroke="#D1D4D8" stroke-width="3" stroke-linecap="round"/>
<path d="M471.07 31.5087L478.916 17.2454" stroke="#D1D4D8" stroke-width="3" stroke-linecap="round"/>
<path d="M403.229 38.2454L417.229 47.2454" stroke="#D1D4D8" stroke-width="3" stroke-linecap="round"/>
<path d="M428.631 2L442.327 33.4909" stroke="#D1D4D8" stroke-width="3" stroke-linecap="round"/>
<path d="M477.109 74.7659C477.109 64.2674 479.551 46.7423 492.25 62.614C500.064 74.0219 502.995 96.7383 497.134 108.245" stroke="#D1D4D8" stroke-width="3" stroke-linecap="round"/>
<path d="M451.223 84.4378C449.595 78.6513 448.781 67.8717 458.549 71.046L469.294 92.8697" stroke="#D1D4D8" stroke-width="3" stroke-linecap="round"/>
<path d="M469.294 92.8697L458.549 71.046C457.735 64.5981 461.968 54.1823 472.225 62.6141L477.109 74.766L481.993 86.9178" stroke="#D1D4D8" stroke-width="3" stroke-linecap="round"/>
<path d="M482.228 123.745C479.561 129.579 476.728 142.845 486.728 149.245" stroke="#D1D4D8" stroke-width="3" stroke-linecap="round"/>
<path d="M494.729 115.245C497.062 108.579 504.129 95.3454 513.729 95.7454C523.329 96.1454 515.729 108.745 513.729 113.245L499.729 140.745C496.729 148.245 492.229 161.745 502.729 177.245C513.229 191.245 549.437 227.245 588.437 233.245" stroke="#D1D4D8" stroke-width="3" stroke-linecap="round"/>
<path d="M581.229 442.245C584.229 452.912 595.229 477.645 615.229 491.245M550.229 424.745L589.729 436.245L550.229 424.745ZM587.729 456.245C592.062 442.078 597.629 406.945 585.229 379.745C569.729 345.745 560.229 302.245 567.729 273.245C573.729 250.045 595.562 246.578 605.729 247.745C621.729 249.581 649.329 268.745 647.729 320.745C645.729 385.745 630.729 441.245 609.229 484.245L587.729 456.245Z" stroke="#D1D4D8" stroke-width="3" stroke-linecap="round"/>
<path d="M571.729 479.745C571.729 454.245 571.562 436.245 568.729 429.245C604 437.5 655.5 446 673.5 437.5C674 438.667 676.829 448.545 689.229 483.745C704.729 527.745 693.729 674.745 689.229 691.245C684.729 707.745 672.729 708.245 655.229 706.245C641.229 704.645 622.729 666.245 615.229 647.245C580.229 581.745 571.729 509.666 571.729 479.745Z" fill="#D1D4D8"/>
<path d="M707.498 346.78C712.458 358.947 723.677 389.88 728.877 416.28C714.543 426.447 674.229 445.745 626.229 439.745L550.229 424.745C547.229 399.579 546.877 335.48 566.877 278.28C566.877 273.114 572.129 258.645 583.729 252.245" stroke="#D1D4D8" stroke-width="3" stroke-linecap="round"/>
<path d="M703.229 390.245C703.015 387.035 708.94 363.678 707.498 346.78C706.694 337.357 705.667 325.601 704.378 311.28C700.778 271.28 686.543 240.614 679.877 230.28C673.21 219.947 657.438 213.745 644.938 218.245" stroke="#D1D4D8" stroke-width="3" stroke-linecap="round"/>
<path d="M693.63 658.2C697.94 564.42 679.597 474.067 669 439.5C695.725 435.893 715.777 424.841 723.5 421C731.259 450.257 742.843 526.614 747.512 561.014C759.151 598.686 756.672 652.857 753.978 675.233C755.702 688.859 744.639 694.27 738.891 695.272C708.287 705.291 695.965 674.732 693.63 658.2Z" fill="#D1D4D8"/>
<path d="M450.229 82.7454C458.729 96.4121 471.329 129.545 461.729 176.745C462.562 186.912 477.399 220.531 488.729 235.745C506.229 259.245 542.729 285.745 565.229 293.245" stroke="#D1D4D8" stroke-width="3" stroke-linecap="round"/>
<path d="M605.361 225.459C598.746 221.388 548.988 225.312 539.314 162.721C522.751 162.915 513.745 149.348 526.383 143.542C539.854 136.595 538.844 123.841 536.403 116.326C532.522 106.471 532.288 96.1239 533.124 93.9597" stroke="#D1D4D8" stroke-width="3" stroke-linecap="round"/>
<path d="M553.056 140.223C550.69 140.251 548.738 137.396 548.696 133.847C548.655 130.298 550.539 127.398 552.905 127.371C555.271 127.343 557.223 130.198 557.265 133.747C557.306 137.296 555.422 140.196 553.056 140.223Z" fill="#D1D4D8"/>
<path d="M563.154 119.459C560.391 116.506 553.245 112.185 546.77 118.532" stroke="#D1D4D8" stroke-width="3" stroke-linecap="round"/>
<path d="M581.923 176.976C576.845 184.791 571.269 187.01 560.439 181.967" stroke="#D1D4D8" stroke-width="3" stroke-linecap="round"/>
<path d="M623.499 122.199C624.675 124.783 625.661 130.649 620.191 133.441" stroke="#D1D4D8" stroke-width="3" stroke-linecap="round"/>
<path d="M611.735 49.3602L611.152 48.9154C599.055 39.6903 583.142 29.9799 566.503 24.6026C549.855 19.2225 532.676 18.2375 517.842 26.1481C508.864 30.9355 504.302 36.5017 502.595 42.237C500.88 47.9954 501.955 54.2192 504.859 60.4826C510.651 72.972 523.447 85.0194 533.655 92.3662C538.789 93.7468 547.438 95.1318 556.893 94.832C566.518 94.5269 576.826 92.4808 585.114 87.0599C589.508 84.1863 593.105 83.0503 595.989 83.6553C599.025 84.2923 600.713 86.7116 601.571 89.4948C602.426 92.2692 602.572 95.71 602.361 99.1002C602.163 102.292 601.642 105.545 601.016 108.348L608.309 120.959C609.838 115.933 612.679 110.753 616.405 107.338C618.754 105.184 621.548 103.651 624.661 103.426C627.808 103.199 631.051 104.325 634.228 107.054C637.157 109.571 638.437 113.407 638.677 117.511C638.919 121.631 638.131 126.218 636.711 130.541C635.29 134.868 633.206 139.018 630.781 142.259C628.393 145.45 625.503 147.986 622.396 148.671M611.735 49.3602L652.238 176.987C652.495 176.629 652.754 176.268 653.014 175.905M611.735 49.3602L612.444 49.173C620.365 47.082 635.245 47.0264 649.194 53.3994C663.047 59.7285 676.018 72.4092 680.318 95.9344C686.428 129.372 668.15 154.826 653.649 175.021C653.436 175.317 653.225 175.612 653.014 175.905M611.735 49.3602L653.014 175.905M622.396 148.671L622.073 147.206L622.396 148.671C622.396 148.671 622.396 148.671 622.396 148.671ZM622.396 148.671C621.482 148.873 621.42 149.157 621.413 149.189C621.412 149.19 621.412 149.19 621.412 149.191C621.36 149.383 621.376 149.934 621.959 151.005C623.088 153.076 625.681 155.904 629.229 159.062C635.914 165.013 645.466 171.685 653.014 175.905M609.358 122.773C609.169 123.51 609.012 124.24 608.887 124.956L607.757 123.002L609.358 122.773Z" stroke="#D1D4D8" stroke-width="3"/>
<path d="M652.311 175.499C644.856 184.473 641.154 191.925 641.615 207.362" stroke="#D1D4D8" stroke-width="3" stroke-linecap="round"/>
<path d="M698.599 765.988C636.599 768.488 607.099 756.049 607.099 747.488C607.099 743.988 605.099 740.488 619.099 735.488C613.099 743.655 615.299 759.188 672.099 755.988C681.265 756.488 701.899 754.088 711.099 740.488H715.599C760.599 728.988 787.099 738.428 787.099 746.988C787.099 755.549 750.099 763.912 698.599 765.988Z" fill="#D1D4D8"/>
<path d="M710.219 740.269C743.708 743.469 747.932 716.602 745.858 702.769" stroke="#D1D4D8" stroke-width="3" stroke-linecap="round"/>
<path d="M665.856 715.769C665.856 717.936 665.356 722.669 663.356 724.269C660.856 726.269 615.856 721.269 616.856 743.769C616.356 746.936 621.356 751.769 633.356 753.269C650.234 755.379 698.615 761.538 710.217 740.269C710.892 739.031 711.443 737.699 711.856 736.269L716.356 717.269" stroke="#D1D4D8" stroke-width="3" stroke-linecap="round"/>
</svg>
