<svg width="1452" height="1252" viewBox="0 0 1452 1252" fill="none" xmlns="http://www.w3.org/2000/svg">
<path d="M786.27 473.899C812.625 500.874 861.589 512.761 887.398 516.007C889.222 516.236 889.864 518.609 888.384 519.7L820.478 569.788C820.257 569.95 820.002 570.067 819.734 570.127C769.456 581.348 722.581 531.297 703.981 502.864C703.272 501.78 703.8 500.342 705.028 499.93L784.176 473.387C784.914 473.139 785.725 473.342 786.27 473.899Z" stroke="#D1D4D8" stroke-width="3" stroke-linecap="round"/>
<path d="M747.387 514.981C755.387 513.319 772.787 508.145 778.387 500.739" stroke="#D1D4D8" stroke-width="3" stroke-linecap="round"/>
<path d="M769.887 532.981C774.887 533.148 786.387 530.681 792.387 519.481" stroke="#D1D4D8" stroke-width="3" stroke-linecap="round"/>
<path d="M794.387 544.981C801.887 543.981 817.987 538.281 822.387 523.481" stroke="#D1D4D8" stroke-width="3" stroke-linecap="round"/>
<path d="M1252.74 89.6144L1254.25 92.2037C1244.16 98.3225 1224.09 122.356 1228.2 168.705C1233.37 227.017 1255.7 281.91 1305.56 307.567C1309 309.341 1317.16 311.908 1328.07 313.542C1338.94 315.169 1352.41 315.85 1366.46 313.936C1394.52 310.114 1424.8 295.97 1441.38 258.313L1442.75 258.917L1441.38 258.313C1453.67 230.388 1451.07 203.923 1443.29 182.311C1435.5 160.67 1422.53 143.956 1414.22 135.683C1406.16 127.7 1391.59 116.351 1374.13 108.361C1356.67 100.366 1336.5 95.8121 1317.16 101.13L1315.86 101.489L1315.37 100.225C1307.21 79.1816 1277.15 33.8908 1222.45 21.5851C1167.8 9.28712 1141.11 39.931 1140.91 63.881C1140.84 71.9052 1142.2 83.7467 1146.42 93.2231C1148.53 97.9525 1151.31 101.998 1154.89 104.716C1158.19 107.223 1162.23 108.65 1167.24 108.382L1170.91 88.706L1171.34 86.4346L1173.24 87.7463C1185.6 96.2736 1218.93 108.666 1252.74 89.6144Z" stroke="#D1D4D8" stroke-width="3"/>
<path d="M1150.99 160.208C1152.17 168.156 1155.11 174.95 1158.79 179.519C1162.5 184.141 1166.62 186.116 1170.25 185.578C1173.88 185.04 1177.25 181.957 1179.46 176.455C1181.66 171.017 1182.5 163.662 1181.32 155.714C1180.15 147.766 1177.2 140.972 1173.53 136.403C1169.81 131.78 1165.7 129.805 1162.07 130.343C1158.43 130.882 1155.07 133.964 1152.85 139.466C1150.66 144.904 1149.81 152.26 1150.99 160.208Z" stroke="#D1D4D8" stroke-width="3"/>
<path d="M1165.91 167.045C1163.36 167.423 1160.73 163.999 1160.05 159.396C1159.37 154.793 1160.89 150.754 1163.44 150.375C1166 149.996 1168.63 153.421 1169.31 158.024C1169.99 162.627 1168.47 166.666 1165.91 167.045Z" fill="#D1D4D8"/>
<path d="M1226.57 164.916L1183.29 160.991" stroke="#D1D4D8" stroke-width="3" stroke-linecap="round"/>
<path d="M1163.74 110.606C1160 118.131 1148.97 134.577 1137.46 143.781C1125.68 153.195 1124.69 165.195 1132.21 173.841L1143.93 187.443C1137.46 236.908 1146.99 273.537 1207.62 290.588" stroke="#D1D4D8" stroke-width="3" stroke-linecap="round"/>
<path d="M1208.33 210.033C1206.9 210.245 1205.57 209.256 1205.36 207.823C1205.14 206.391 1206.13 205.057 1207.57 204.845C1209 204.633 1210.33 205.622 1210.54 207.055C1210.76 208.487 1209.77 209.821 1208.33 210.033Z" fill="#D1D4D8"/>
<path d="M1217.73 234.088C1216.01 234.343 1214.44 233.388 1214.23 231.955C1214.02 230.522 1215.24 229.155 1216.96 228.9C1218.68 228.645 1220.25 229.6 1220.46 231.033C1220.67 232.465 1219.45 233.833 1217.73 234.088Z" fill="#D1D4D8"/>
<path d="M1194.86 230.055C1193.15 230.31 1191.58 229.355 1191.37 227.922C1191.16 226.49 1192.38 225.122 1194.1 224.867C1195.82 224.612 1197.38 225.567 1197.59 227C1197.81 228.432 1196.58 229.8 1194.86 230.055Z" fill="#D1D4D8"/>
<path d="M466.662 385.666L486.071 365.049C489.583 361.149 498.715 356.913 507.143 371.178C515.573 385.442 512.504 400.524 509.917 406.283" stroke="#D1D4D8" stroke-width="3" stroke-linecap="round"/>
<path d="M569.16 351.283C571.085 348.684 572.108 346.398 572.47 344.814C574.317 341.58 575.421 334.117 564.711 331.34C548.086 327.027 550.857 337.269 554.182 337.807C565.265 339.101 569.894 348.408 569.16 351.283Z" stroke="#D1D4D8" stroke-width="3" stroke-linecap="round"/>
<path d="M512.662 395.283C514.325 389.568 522.75 376.312 543.149 368.997C556.888 364.071 564.692 356.967 568.662 351.283" stroke="#D1D4D8" stroke-width="3" stroke-linecap="round"/>
<path d="M542.662 353.061C537.622 350.377 524.966 347.263 514.662 356.283" stroke="#D1D4D8" stroke-width="3" stroke-linecap="round"/>
<path d="M558.662 353.283C553.734 344.551 541.035 329.592 529.662 339.615" stroke="#D1D4D8" stroke-width="3" stroke-linecap="round"/>
<path d="M501.662 356.283C506.205 342.938 515.859 325.529 547.662 323.283" stroke="#D1D4D8" stroke-width="3" stroke-linecap="round"/>
<path d="M1028 360.05C1025.7 356.837 1024.55 353.912 1025.59 351.892C1028.65 346.02 1036.15 352.047 1039.52 355.795C1047.91 364.812 1064.05 380.485 1059.7 362.247C1055.35 344.008 1064.6 345.131 1086.27 367.394L1107.8 380.491" stroke="#D1D4D8" stroke-width="3" stroke-linecap="round"/>
<path d="M1029.76 388.646C1027.91 394.35 1030.89 407.552 1058.16 410.751C1068.48 411.961 1070.03 411.791 1079.71 410.974H1096.3" stroke="#D1D4D8" stroke-width="3" stroke-linecap="round"/>
<path d="M1046.3 377.234C1040.95 373.285 1032.4 366.116 1028.01 359.992C1023.25 359.937 1018.63 362.622 1025.99 372.006C1029.17 376.069 1034.6 381.387 1043.22 388.283" stroke="#D1D4D8" stroke-width="3" stroke-linecap="round"/>
<path d="M1043.21 388.341C1034.59 381.445 1029.16 376.127 1025.98 372.064C1021.43 373.345 1017.34 378.3 1029.76 388.646C1032.48 390.908 1035.99 393.429 1040.45 396.225" stroke="#D1D4D8" stroke-width="3" stroke-linecap="round"/>
<path d="M1304.66 318.906C1378.12 372.493 1369.33 439.319 1369.33 521.906" stroke="#D1D4D8" stroke-width="3" stroke-linecap="round"/>
<path d="M1302.66 319.815L1267.4 350.676C1266.25 351.679 1264.45 351.085 1264.12 349.598L1254.93 307.551C1254.59 305.992 1252.65 305.44 1251.54 306.588L1227.66 331.269" stroke="#D1D4D8" stroke-width="3" stroke-linecap="round"/>
<path d="M1227.66 294.906C1225.71 298.571 1222.9 304.528 1220.27 311.451C1216.67 320.954 1213.39 332.278 1213.1 341.997" stroke="#D1D4D8" stroke-width="3" stroke-linecap="round"/>
<path d="M1220.27 311.451L1139.66 357.906" stroke="#D1D4D8" stroke-width="3" stroke-linecap="round"/>
<path d="M1271.66 380.415C1259.62 396.731 1191.79 441.912 1142.98 392.339L1129.66 377.906" stroke="#D1D4D8" stroke-width="3" stroke-linecap="round"/>
<path d="M1238.66 539.906C1222.99 535.854 1148.66 495.151 1127.01 457.33" stroke="#D1D4D8" stroke-width="3" stroke-linecap="round"/>
<path d="M1132.82 408.163C1127.45 427.436 1125.94 443.705 1127.01 457.33C1115.07 449.135 1103.66 442.832 1103.66 416.988C1103.66 398.707 1116.97 382.949 1129.01 377.906" stroke="#D1D4D8" stroke-width="3" stroke-linecap="round"/>
<path d="M1232.66 364.906C1229.9 364.906 1227.66 362.22 1227.66 358.906C1227.66 355.592 1229.9 352.906 1232.66 352.906C1235.42 352.906 1237.66 355.592 1237.66 358.906C1237.66 362.22 1235.42 364.906 1232.66 364.906Z" fill="#D1D4D8"/>
<path d="M1225.66 393.906C1222.9 393.906 1220.66 391.22 1220.66 387.906C1220.66 384.592 1222.9 381.906 1225.66 381.906C1228.42 381.906 1230.66 384.592 1230.66 387.906C1230.66 391.22 1228.42 393.906 1225.66 393.906Z" fill="#D1D4D8"/>
<path d="M1172.54 227.906C1173.19 231.806 1171.51 239.866 1159.66 240.906" stroke="#D1D4D8" stroke-width="3" stroke-linecap="round"/>
<path d="M833.924 633.198L739.924 637.198" stroke="#D1D4D8" stroke-width="3" stroke-linecap="round"/>
<path d="M834.924 633.198L958.924 644.198" stroke="#D1D4D8" stroke-width="3" stroke-linecap="round"/>
<path d="M959.924 644.198L934.924 760.198" stroke="#D1D4D8" stroke-width="3" stroke-linecap="round"/>
<path d="M934.924 760.198L831.924 778.198" stroke="#D1D4D8" stroke-width="3" stroke-linecap="round"/>
<path d="M831.924 777.198V654.198" stroke="#D1D4D8" stroke-width="3" stroke-linecap="round"/>
<path d="M831.924 655.198L958.924 645.198" stroke="#D1D4D8" stroke-width="3" stroke-linecap="round"/>
<path d="M831.924 655.198L739.924 637.198" stroke="#D1D4D8" stroke-width="3" stroke-linecap="round"/>
<path d="M737.924 637.198L743.924 729.198" stroke="#D1D4D8" stroke-width="3" stroke-linecap="round"/>
<path d="M743.924 729.198L831.924 778.198" stroke="#D1D4D8" stroke-width="3" stroke-linecap="round"/>
<path d="M832.924 633.198V653.198" stroke="#D1D4D8" stroke-width="3" stroke-linecap="round"/>
<path d="M906.825 681.304L886.621 682.554C881.935 682.844 878.372 686.877 878.661 691.562L878.846 694.553C879.136 699.238 883.169 702.802 887.855 702.512L908.059 701.262C912.745 700.972 916.308 696.939 916.018 692.254L915.834 689.263C915.544 684.578 911.51 681.014 906.825 681.304Z" stroke="#D1D4D8" stroke-width="3"/>
<path d="M831.204 804.198L741.424 730.698L831.424 780.698L937.424 762.198L947.424 763.698L831.204 804.198Z" fill="#D1D4D8"/>
<path d="M1148.92 695.698C1133.92 721.198 1155.59 806.365 1171.92 869.698C1177.42 910.698 1127.59 924.698 1117.92 904.198C1095.76 857.198 1052.92 780.998 1028.92 714.198C1004.92 647.398 1091.42 591.198 1158.92 591.198C1175.92 591.031 1203.92 593.198 1224.42 595.698" stroke="#D1D4D8" stroke-width="3" stroke-linecap="round"/>
<path d="M1158.92 565.698C1097.92 559.698 975.525 546.598 951.925 714.198C922.425 923.698 938.425 881.698 966.425 921.198C988.825 952.798 1025.09 816.031 1040.42 743.698" stroke="#D1D4D8" stroke-width="3" stroke-linecap="round"/>
<path d="M1043.92 357.198L1038.42 338.698L955.924 295.198L1007.92 467.698L1089.92 493.198L1068.42 431.698" stroke="#D1D4D8" stroke-width="3" stroke-linecap="round"/>
<path d="M1193.92 986.698C1219.12 967.498 1172.09 974.032 1145.42 979.698L1121.92 986.698C1142.72 1001.5 1178.59 992.863 1193.92 986.698Z" fill="#D1D4D8"/>
<path d="M984.424 955.698C989.614 948.676 966.424 945.198 946.424 952.931L922.924 960.198C937.757 967.532 975.924 967.198 984.424 955.698Z" fill="#D1D4D8"/>
<path d="M1447.42 490.698C1466.62 582.698 1419.42 671.698 1393.42 704.698C1359.81 723.469 1326.49 732.414 1295.42 735.027C1228.52 740.655 1172.1 716.909 1145.92 698.698C1144.92 687.032 1163.52 666.598 1245.92 678.198C1313.92 521.398 1408.59 487.865 1447.42 490.698Z" fill="#D1D4D8"/>
<path d="M931.924 909.698C930.924 919.531 920.824 939.198 888.424 939.198C847.924 939.198 881.924 962.198 918.424 959.698C947.624 957.698 956.924 945.198 957.924 939.198" stroke="#D1D4D8" stroke-width="3" stroke-linecap="round"/>
<path d="M1132.46 938.419C1136 950.408 1132.24 960.276 1097.2 974.377C1053.4 992.003 1111.64 991.493 1144.49 979.18C1177.35 966.871 1181.94 957.695 1169.05 905.198" stroke="#D1D4D8" stroke-width="3" stroke-linecap="round"/>
<path d="M1284.92 1043.2C1343.46 1043.2 1390.92 1034.02 1390.92 1022.7C1390.92 1011.38 1343.46 1002.2 1284.92 1002.2C1226.38 1002.2 1178.92 1011.38 1178.92 1022.7C1178.92 1034.02 1226.38 1043.2 1284.92 1043.2Z" fill="#D1D4D8"/>
<path d="M1136.42 501.698C1132.42 510.365 1125.62 532.398 1130.42 551.198" stroke="#D1D4D8" stroke-width="3" stroke-linecap="round"/>
<path d="M1272.92 1002.7V728.698H1296.42V1002.7H1272.92Z" fill="#D1D4D8"/>
<path d="M455.925 414.662C455.925 370.033 444.218 348.277 428.051 326.52" stroke="#D1D4D8" stroke-width="3" stroke-linecap="round"/>
<path d="M274.189 598.198C260.716 519.54 269.172 468.774 274.189 430.84C281.948 372.171 296.052 348.442 305.871 333.216C318.136 314.198 345.53 297.018 363.942 303.649" stroke="#D1D4D8" stroke-width="3" stroke-linecap="round"/>
<path d="M426.113 304.72C435.851 298.727 509.103 304.504 523.345 212.36C547.727 212.646 560.985 192.673 542.38 184.127C522.548 173.9 524.037 155.123 527.63 144.06C533.342 129.552 533.687 114.319 532.456 111.133" stroke="#D1D4D8" stroke-width="3" stroke-linecap="round"/>
<path d="M500.671 183.087C503.779 182.992 506.178 178.968 506.03 174.098C505.882 169.228 503.242 165.356 500.135 165.451C497.027 165.545 494.628 169.57 494.776 174.44C494.924 179.31 497.564 183.181 500.671 183.087Z" fill="#D1D4D8"/>
<path d="M479.1 165.842C479.229 159.888 482.82 148.132 496.154 148.731" stroke="#D1D4D8" stroke-width="3" stroke-linecap="round"/>
<path d="M455.859 234.792C463.336 246.297 471.544 249.564 487.488 242.14" stroke="#D1D4D8" stroke-width="3" stroke-linecap="round"/>
<path d="M399.412 152.705C397.68 156.509 396.228 165.144 404.281 169.254" stroke="#D1D4D8" stroke-width="3" stroke-linecap="round"/>
<path d="M421.553 152.679C419.472 144.898 415.146 136.637 409.378 131.349C405.997 128.25 402.028 126.092 397.65 125.775C393.239 125.457 388.643 127.026 384.08 130.947C379.968 134.48 378.123 139.907 377.775 145.845C377.426 151.799 378.565 158.461 380.636 164.765C382.708 171.074 385.742 177.112 389.26 181.813C392.74 186.463 396.864 190.031 401.188 190.985C402.71 191.32 403.065 191.876 403.168 192.257C403.319 192.813 403.183 193.834 402.301 195.452C400.576 198.616 396.677 202.848 391.448 207.503C381.403 216.444 366.993 226.476 355.755 232.696C355.311 232.077 354.864 231.455 354.415 230.829C333.091 201.136 306.019 163.438 315.071 113.912C321.445 79.0393 340.7 60.1857 361.292 50.7777C381.98 41.3258 404.054 41.3964 415.867 44.5152L416.577 44.7025L417.16 44.2576C435.006 30.6471 458.505 16.3036 483.102 8.35473C507.708 0.403127 533.216 -1.09198 555.289 10.6791C568.619 17.7872 575.498 26.1113 578.081 34.787C580.671 43.486 579.03 52.8329 574.711 62.1474C566.089 80.7384 547.069 98.6001 531.986 109.437C524.379 111.498 511.515 113.571 497.445 113.125C483.206 112.674 467.886 109.647 455.533 101.568C449.108 97.3658 444.018 95.8257 440.058 96.6564C435.945 97.5192 433.596 100.794 432.371 104.768C431.149 108.734 430.929 113.7 431.237 118.656C431.532 123.414 432.321 128.273 433.263 132.428L421.553 152.679Z" stroke="#D1D4D8" stroke-width="3"/>
<path d="M356.998 231.171C367.972 244.383 373.423 255.353 372.745 278.079" stroke="#D1D4D8" stroke-width="3" stroke-linecap="round"/>
<path d="M624.915 410.642C624.79 415.574 619.052 427.368 597.102 435.086C575.152 442.805 561.484 439.404 557.393 436.739" stroke="#D1D4D8" stroke-width="3" stroke-linecap="round"/>
<path d="M635.447 391.548C639.33 393.208 643.521 398.824 629.224 408.012L624.916 410.642L617.426 415.216" stroke="#D1D4D8" stroke-width="3" stroke-linecap="round"/>
<path d="M605.158 397.393C611.514 394.272 622.286 387.78 626.131 381.675C629.7 379.636 637.205 377.359 638.669 384.558C639.111 386.73 637.777 389.136 635.445 391.548C630.05 397.128 619.313 402.734 612.885 405.519" stroke="#D1D4D8" stroke-width="3" stroke-linecap="round"/>
<path d="M547.621 412.441C549.111 403.706 552.493 385.835 561.618 377.904C563.978 375.954 568.497 371.057 567.695 367.073C566.693 362.094 577.746 360.087 577.828 371.487C577.909 382.887 569.433 385.419 577.993 388.827C584.841 391.554 605.169 379.922 614.476 373.765C617.666 371.465 624.692 368.674 627.274 375.907C627.914 377.698 627.399 379.666 626.133 381.675C622.288 387.78 611.516 394.272 605.16 397.393" stroke="#D1D4D8" stroke-width="3" stroke-linecap="round"/>
<path d="M398.721 360.198C408.987 438.813 434.616 445.882 446.147 439.59C469.208 429.042 520.018 411.72 538.765 426.821C557.512 441.922 535.046 462.353 521.469 470.681C476.462 502.697 378.747 555.181 347.948 508.989C317.15 462.797 315.03 404.613 317.819 381.295" stroke="#D1D4D8" stroke-width="3" stroke-linecap="round"/>
<path d="M364.948 304.481C362.035 294.321 360.328 274.942 376.802 278.708C397.393 283.416 438.749 313.901 435.675 325.189" stroke="#D1D4D8" stroke-width="3" stroke-linecap="round"/>
<path d="M451.924 602.197L388.924 613.197C488.924 604.697 516.161 609.93 528.924 641.196C541.687 672.463 531.924 767.696 518.924 849.696C511.52 905.296 553.924 917.696 571.424 907.696C585.369 906.645 614.881 898.247 602.496 858.99C619.019 817.107 629.291 768.312 637.898 736.87C692.065 604.335 508.656 600.322 505.934 600.197C505.931 600.197 505.928 600.197 505.924 600.197C484.424 599.16 473.424 599.197 451.924 602.197Z" fill="#D1D4D8"/>
<path d="M577.379 936.198C566.179 930.598 578.712 929.198 586.379 929.198C593.579 938.398 615.09 940.531 624.424 939.698C614.424 945.198 591.379 943.198 577.379 936.198Z" fill="#D1D4D8"/>
<path d="M604.272 903.198C604.978 910.055 612.106 923.77 634.971 923.77C663.553 923.77 639.559 939.809 613.8 938.066C593.193 936.671 586.629 927.954 585.924 923.77" stroke="#D1D4D8" stroke-width="3" stroke-linecap="round"/>
<path d="M518.425 973.698C482.894 966.248 512.096 962.531 528.429 959.698C555.429 973.198 577.097 974.698 588.43 975.698C578.763 981.698 549.422 980.198 518.425 973.698Z" fill="#D1D4D8"/>
<path d="M563.967 927.833C560.562 939.364 564.178 948.855 597.882 962.418C640.011 979.37 583.996 978.876 552.391 967.037C542.402 963.591 521.824 955.798 519.424 952.198" stroke="#D1D4D8" stroke-width="3" stroke-linecap="round"/>
<path d="M84.9648 338.047C88.4511 326.764 114.524 300.098 190.924 283.698C221.424 277.151 244.724 330.498 271.924 437.698" stroke="#D1D4D8" stroke-width="3" stroke-linecap="round"/>
<path d="M84.9648 338.046C88.9764 327.986 99.0619 323.885 116.627 317.394C140.488 308.577 156.243 328.416 161.138 339.437C180.869 386.278 226.757 496.124 252.454 560.783C278.151 625.442 313.424 619.563 349.735 619.563C520.436 600.276 519.059 619.564 530.072 651.25C538.454 675.366 526.401 794.987 519.059 851.012C473.172 856.156 259.166 850.094 194.924 851.012C84.3352 645.739 91.389 408.78 84.9648 370.664C82.3238 354.995 82.1644 345.069 84.9648 338.046Z" stroke="#D1D4D8" stroke-width="3" stroke-linecap="round"/>
<path d="M448.274 521.198C440.941 537.89 437.604 576.058 482.924 595.198" stroke="#D1D4D8" stroke-width="3" stroke-linecap="round"/>
<path d="M510.85 871.198C514.319 903.41 515.938 966.214 494.661 959.733C473.384 953.252 459.971 902.638 455.924 878.142" stroke="#D1D4D8" stroke-width="3" stroke-linecap="round"/>
<path d="M194.869 869.198C191.945 908.67 194.868 960.094 217.136 965.097C231.468 968.317 250.875 893.659 254.924 869.198" stroke="#D1D4D8" stroke-width="3" stroke-linecap="round"/>
<path d="M247.924 900.332C255.054 936.286 285.518 954.615 280.333 867.198" stroke="#D1D4D8" stroke-width="3" stroke-linecap="round"/>
<path d="M140.96 1242.62C131.76 1226.62 161.127 1224.28 176.96 1225.12V1236.62L228.46 1242.62C203.127 1249.28 150.16 1258.62 140.96 1242.62Z" fill="#D1D4D8"/>
<path d="M253.959 1221.12L234.459 1241.12" stroke="#D1D4D8" stroke-width="3" stroke-linecap="round"/>
<path d="M229.959 1180.12L179.459 1176.62" stroke="#D1D4D8" stroke-width="3" stroke-linecap="round"/>
<path d="M199.959 1163.62L253.959 1166.12" stroke="#D1D4D8" stroke-width="3" stroke-linecap="round"/>
<path d="M178.459 1176.62L175.959 1234.62" stroke="#D1D4D8" stroke-width="3" stroke-linecap="round"/>
<path d="M253.959 1167.12V1220.12" stroke="#D1D4D8" stroke-width="3" stroke-linecap="round"/>
<path d="M234.459 1198.62V1241.12" stroke="#D1D4D8" stroke-width="3" stroke-linecap="round"/>
<path d="M178.459 1176.62L199.959 1163.62" stroke="#D1D4D8" stroke-width="3" stroke-linecap="round"/>
<path d="M234.459 1241.12L175.459 1235.12" stroke="#D1D4D8" stroke-width="3" stroke-linecap="round"/>
<path d="M0.215204 1151.12C0.715204 1137.12 56.7152 1141.62 60.2152 1142.12V1151.12L77.2152 1163.12C51.3819 1163.78 -0.184796 1162.32 0.215204 1151.12Z" fill="#D1D4D8"/>
<path d="M139.215 1149.62V1098.62" stroke="#D1D4D8" stroke-width="3" stroke-linecap="round"/>
<path d="M95.7148 1162.62V1106.62" stroke="#D1D4D8" stroke-width="3" stroke-linecap="round"/>
<path d="M59.7148 1149.62V1093.62" stroke="#D1D4D8" stroke-width="3" stroke-linecap="round"/>
<path d="M59.7148 1093.62L99.2148 1083.62" stroke="#D1D4D8" stroke-width="3" stroke-linecap="round"/>
<path d="M139.215 1098.12L95.7148 1106.12" stroke="#D1D4D8" stroke-width="3" stroke-linecap="round"/>
<path d="M95.7148 1163.12L139.215 1150.12" stroke="#D1D4D8" stroke-width="3" stroke-linecap="round"/>
<path d="M139.215 1098.12L99.2148 1083.62" stroke="#D1D4D8" stroke-width="3" stroke-linecap="round"/>
<path d="M59.7148 1094.12L96.2148 1106.12" stroke="#D1D4D8" stroke-width="3" stroke-linecap="round"/>
<path d="M228.215 1104.12C228.715 1090.12 284.715 1094.62 288.215 1095.12V1104.12L305.215 1116.12C279.382 1116.78 227.815 1115.32 228.215 1104.12Z" fill="#D1D4D8"/>
<path d="M367.215 1102.62V1051.62" stroke="#D1D4D8" stroke-width="3" stroke-linecap="round"/>
<path d="M323.715 1115.62V1059.62" stroke="#D1D4D8" stroke-width="3" stroke-linecap="round"/>
<path d="M287.715 1102.62V1046.62" stroke="#D1D4D8" stroke-width="3" stroke-linecap="round"/>
<path d="M323.715 1116.12L367.215 1103.12" stroke="#D1D4D8" stroke-width="3" stroke-linecap="round"/>
<path d="M367.215 1051.12L323.715 1059.12" stroke="#D1D4D8" stroke-width="3" stroke-linecap="round"/>
<path d="M287.715 1046.62L327.215 1036.62" stroke="#D1D4D8" stroke-width="3" stroke-linecap="round"/>
<path d="M367.215 1051.12L327.215 1036.62" stroke="#D1D4D8" stroke-width="3" stroke-linecap="round"/>
<path d="M287.715 1047.12L324.215 1059.12" stroke="#D1D4D8" stroke-width="3" stroke-linecap="round"/>
<path d="M351.648 999.974L330.534 1033.05C329.852 1034.12 330.323 1035.54 331.507 1035.99L365.631 1049.01C366.544 1049.36 367.575 1049 368.069 1048.16L388.002 1014.18C388.633 1013.11 388.138 1011.72 386.968 1011.29L354.024 999.173C353.143 998.849 352.154 999.182 351.648 999.974Z" stroke="#D1D4D8" stroke-width="3"/>
<path d="M293.756 993.618L301.756 1011.62" stroke="#D1D4D8" stroke-width="3" stroke-linecap="round"/>
<path d="M265.756 1003.62L291.756 1025.62" stroke="#D1D4D8" stroke-width="3" stroke-linecap="round"/>
<path d="M264.756 1032.62L280.756 1041.62" stroke="#D1D4D8" stroke-width="3" stroke-linecap="round"/>
</svg>
