<svg width="1945" height="1101" viewBox="0 0 1945 1101" fill="none" xmlns="http://www.w3.org/2000/svg">
<path d="M1398.06 386.11C1387.59 380.767 1370.53 376.617 1355.71 375.11C1347.96 374.322 1340.7 374.242 1335.22 375.135C1332.49 375.581 1330.1 376.284 1328.29 377.339C1327.86 377.588 1327.46 377.863 1327.09 378.163L1324.12 361.234C1347.07 351.961 1389.73 319.545 1388.76 258.929C1398.99 266.856 1411.27 278.585 1416.58 297.261C1422.26 317.246 1420.04 345.523 1398.06 386.11Z" stroke="#D1D4D8" stroke-width="3"/>
<path d="M1198.85 294.693L1198.92 294.736L1198.99 294.773C1200.63 295.607 1203.39 296.489 1206.5 296.537C1209.11 296.578 1212.03 296.031 1214.73 294.327C1220.07 306.586 1231.95 329.373 1252.26 344.301L1255.21 385.972C1248.06 383.996 1241.34 382.787 1232.14 383.046C1222.16 383.327 1209.31 385.336 1189.84 389.885C1188.79 389.77 1187.64 389.668 1186.4 389.557C1180.71 389.05 1173.08 388.371 1163.95 385.527C1152.71 382.026 1139.2 375.23 1124.6 361.366C1124.6 361.364 1124.6 361.363 1124.6 361.362L1124.15 360.936L1124.15 360.931C1119.23 356.256 1116.69 353.834 1114.49 350.597C1112.28 347.342 1110.4 343.225 1106.96 335.11C1099.55 317.647 1097.66 288.772 1108.29 262.011C1118.88 235.348 1141.91 210.756 1184.47 201.703L1185.23 201.542L1185.53 200.83L1195.45 177.814L1195.48 177.759L1195.5 177.703C1199.76 165.16 1209.64 141.722 1226.56 124.463C1235 115.849 1245.16 108.818 1257.2 105.411C1269.23 102.01 1283.26 102.189 1299.51 108.162L1300.51 108.531L1301.19 107.702C1312.11 94.3217 1326.3 88.7813 1339.67 87.2994C1353.08 85.8139 1365.59 88.4197 1372.97 91.257L1373.02 91.2779L1373.08 91.2945C1395.61 98.0118 1407.53 115.136 1411.84 133.648C1416.16 152.24 1412.75 172.008 1404.84 183.674L1404.83 183.695L1404.82 183.716C1390.14 207.008 1358.21 225.983 1305.31 212.18C1305.08 212.083 1304.83 211.981 1304.57 211.874C1298.93 209.559 1287.58 204.902 1278.82 194.163L1278.12 193.302L1277.09 193.724C1273.72 195.104 1268.61 197.632 1265.27 202C1263.57 204.21 1262.33 206.896 1262.01 210.118C1261.73 212.873 1262.13 215.948 1263.41 219.373C1258.78 220.431 1252.83 223.302 1247.93 228.884C1242.52 235.039 1238.46 244.399 1238.72 258.033L1210.34 254.974C1208.78 253.872 1206.87 252.778 1204.82 251.988C1202.64 251.145 1200.21 250.609 1197.87 250.864C1195.47 251.124 1193.21 252.21 1191.5 254.492C1189.82 256.726 1188.76 259.986 1188.44 264.456C1187.18 282.131 1194.55 291.899 1198.85 294.693Z" stroke="#D1D4D8" stroke-width="3"/>
<path d="M1240.43 260.153C1243.87 279.71 1260.73 292.607 1277.64 289.635C1294.56 286.664 1306.01 268.793 1302.58 249.236C1299.14 229.679 1282.28 216.782 1265.37 219.753C1248.45 222.725 1237 240.596 1240.43 260.153Z" stroke="#D1D4D8" stroke-width="3"/>
<path d="M1323.73 257.486C1327.16 277.044 1344.02 289.941 1360.94 286.969C1377.85 283.998 1389.31 266.127 1385.87 246.57C1382.44 227.013 1365.58 214.116 1348.66 217.087C1331.75 220.058 1320.29 237.929 1323.73 257.486Z" stroke="#D1D4D8" stroke-width="3"/>
<path d="M1323.03 250.142L1302.37 251.421" stroke="#D1D4D8" stroke-width="3" stroke-linecap="round"/>
<path d="M1311.46 270.277C1317.52 285.832 1329.9 298.814 1316.21 308.665" stroke="#D1D4D8" stroke-width="3" stroke-linecap="round"/>
<path d="M1367.69 283.86C1362.35 284.799 1357.26 281.229 1356.32 275.886C1355.38 270.544 1358.95 265.452 1364.3 264.514C1369.64 263.575 1374.73 267.145 1375.67 272.488C1376.61 277.83 1373.04 282.922 1367.69 283.86Z" fill="#D1D4D8"/>
<path d="M1285.69 286.299C1280.35 287.238 1275.26 283.668 1274.32 278.325C1273.38 272.983 1276.95 267.891 1282.3 266.953C1287.64 266.014 1292.73 269.584 1293.67 274.927C1294.61 280.269 1291.04 285.361 1285.69 286.299Z" fill="#D1D4D8"/>
<path d="M1202.07 268.219C1201.02 271.063 1200 277.624 1204.34 281.117" stroke="#D1D4D8" stroke-width="3" stroke-linecap="round"/>
<path d="M1377.62 211.65C1389.96 235.188 1401.05 292.699 1351.79 342.302C1302.54 391.906 1249.74 345.384 1229.49 315.922L1215.17 291.181C1209.23 296.436 1196.19 301.165 1191.59 278.039C1187 254.914 1196.06 251.77 1201.17 253.089C1203.94 253.711 1210.01 256.457 1212.12 262.466" stroke="#D1D4D8" stroke-width="3" stroke-linecap="round"/>
<path d="M1240.32 258.843L1206.49 255.479" stroke="#D1D4D8" stroke-width="3" stroke-linecap="round"/>
<path d="M1276.59 253.34C1271.24 254.101 1260.61 258.379 1260.79 269.401" stroke="#D1D4D8" stroke-width="3" stroke-linecap="round"/>
<path d="M1372.5 246.902C1368.43 245.111 1358.46 242.975 1351.21 248.763" stroke="#D1D4D8" stroke-width="3" stroke-linecap="round"/>
<path d="M619.205 909L631.205 888.5M590.205 892L602.205 909L590.205 892ZM610.705 909V888.5V909Z" stroke="#D1D4D8" stroke-width="3" stroke-linecap="round"/>
<path d="M1375.21 1081.85C1408.38 1066.19 1489.11 1035.85 1546.71 1039.85C1554.88 1040.19 1567.21 1043.65 1551.21 1054.85C1535.21 1066.05 1527.21 1071.85 1525.21 1073.35C1516.88 1080.35 1508.71 1095.15 1542.71 1098.35C1585.21 1102.35 1705.21 1058.85 1942.71 1090.85" stroke="#D1D4D8" stroke-width="3" stroke-linecap="round"/>
<path d="M479.205 1044.84C494.518 1037.69 531.79 1023.83 558.383 1025.66C562.153 1025.81 567.847 1027.39 560.46 1032.51C553.073 1037.62 549.38 1040.27 548.457 1040.96C544.609 1044.15 540.839 1050.91 556.536 1052.38C576.157 1054.2 631.558 1034.34 741.205 1048.95" stroke="#D1D4D8" stroke-width="3" stroke-linecap="round"/>
<path d="M1320.58 335.5C1317.05 331.676 1306.11 325.766 1290.58 332.719" stroke="#D1D4D8" stroke-width="3" stroke-linecap="round"/>
<path d="M1254.71 388.5C1207.21 378.5 1117.41 394 1080.21 532C1033.71 704.5 1229.21 735.5 1302.71 683.5C1316.38 670.5 1322.71 641.5 1272.71 629.5C1210.21 614.5 1188 625 1163.71 532" stroke="#D1D4D8" stroke-width="3" stroke-linecap="round"/>
<path d="M1438.49 962.5C1419.23 952.095 1424.71 929.408 1430.35 918.224C1430.66 917.615 1431.49 917.527 1431.96 918.014C1452.79 939.253 1478.16 928.58 1488.69 920.241C1488.89 920.084 1489.13 920.009 1489.38 920.028C1503.88 921.135 1534.89 928.797 1546 951C1560 979 1463.49 976 1438.49 962.5Z" fill="#D1D4D8"/>
<path d="M1370 992.5C1294.4 988.9 1288.16 949.667 1294.5 930.5C1324.1 963.7 1355.83 948.667 1368 937C1382 942.2 1397.06 951.179 1402 956C1423.5 977 1404.5 996 1370 992.5Z" fill="#D1D4D8"/>
<path d="M1174.71 567.5C1187.71 531.5 1220.21 489 1269.21 492.5C1308.41 495.3 1323.01 508 1329.21 523.5C1336.01 540.5 1336.71 550 1344.71 618.5" stroke="#D1D4D8" stroke-width="3" stroke-linecap="round"/>
<path d="M1386.21 803C1395.71 836.833 1404.11 911.9 1361.71 941.5C1308.71 978.5 1247.71 896.5 1222.21 760" stroke="#D1D4D8" stroke-width="3" stroke-linecap="round"/>
<path d="M1332.21 528.999C1341.04 513.166 1373.81 482.501 1416.21 504.5C1434.37 513.926 1464.21 554 1474.21 628" stroke="#D1D4D8" stroke-width="3" stroke-linecap="round"/>
<path d="M1399.21 385.5C1449.71 408.5 1477.21 437 1505.21 524.5C1525.88 577.333 1551.61 690 1489.21 718C1470.71 725.167 1438.01 723.4 1461.21 667C1466.56 654 1477.21 644.5 1473.71 625" stroke="#D1D4D8" stroke-width="3" stroke-linecap="round"/>
<path d="M1399.98 723.907C1392.38 722.823 1379.79 720.283 1372.03 716.705C1367.95 714.828 1365.21 712.666 1365.21 710.279C1365.21 703.341 1376.12 705.323 1381.57 707.181C1394.98 711.517 1419.89 718.298 1405.71 703.431C1391.53 688.564 1401.62 685.137 1435.71 695.378L1447.35 699.901" stroke="#D1D4D8" stroke-width="3" stroke-linecap="round"/>
<path d="M1372.03 716.705C1367.11 718.957 1363.81 723.685 1376.35 728.862C1381.78 731.104 1390.18 733.43 1402.71 735.676" stroke="#D1D4D8" stroke-width="3" stroke-linecap="round"/>
<path d="M1389.07 742.461C1390.21 748.665 1400.3 759.51 1429.98 749.304C1441.21 745.443 1442.71 744.536 1452.21 739.094C1456.77 736.012 1465.04 729.495 1466.08 723.586" stroke="#D1D4D8" stroke-width="3" stroke-linecap="round"/>
<path d="M1376.35 728.862C1372.37 732.251 1370.82 738.837 1389.07 742.461C1393.06 743.253 1398 743.904 1404.07 744.349" stroke="#D1D4D8" stroke-width="3" stroke-linecap="round"/>
<path d="M1383.9 686.378C1381.99 693.08 1375 705.9 1362.34 703.56C1346.52 700.635 1313.25 693.169 1303.21 691.626" stroke="#D1D4D8" stroke-width="3" stroke-linecap="round"/>
<path d="M1403.54 659.744C1408.63 668.174 1405.99 673.586 1392.72 681.55C1389.72 683.349 1386.75 684.956 1383.9 686.378C1374.14 691.252 1365.76 693.959 1362.16 694.813" stroke="#D1D4D8" stroke-width="3" stroke-linecap="round"/>
<path d="M1398.09 645.532C1403.73 643.54 1412.34 643.773 1403.54 659.744C1403.2 660.361 1402.09 661.586 1397.57 665.26L1374.17 680.898" stroke="#D1D4D8" stroke-width="3" stroke-linecap="round"/>
<path d="M1315.71 649.126C1319.66 637.826 1330.57 624.991 1343.88 619.868C1356.21 615.126 1362.16 622.126 1357.71 626.685C1345.71 636.626 1346.57 650.519 1354.74 650.665C1362.92 650.811 1378.99 636.672 1386.01 629.584C1389.5 625.555 1397.39 620.604 1400.97 633.037C1402.17 637.184 1400.81 641.468 1398.09 645.532C1392.66 653.653 1381.8 660.896 1375.04 664.414" stroke="#D1D4D8" stroke-width="3" stroke-linecap="round"/>
<path d="M1263.87 386.561C1275.8 393.217 1302.43 402.536 1313.44 386.561C1327.21 366.592 1339.61 390.276 1334.1 405.601C1328.59 420.926 1281.84 446.434 1250.44 390.484" stroke="#D1D4D8" stroke-width="3" stroke-linecap="round"/>
<path d="M1284.71 422.739C1275.04 427.573 1256.61 442.939 1260.21 465.739" stroke="#D1D4D8" stroke-width="3" stroke-linecap="round"/>
<path d="M1294.95 453.239C1280.34 472.673 1263.7 476.67 1257.21 476.239" stroke="#D1D4D8" stroke-width="3" stroke-linecap="round"/>
<path d="M1308.71 424.239C1317.21 431.406 1331.21 450.639 1325.21 476.239" stroke="#D1D4D8" stroke-width="3" stroke-linecap="round"/>
<path d="M1291.21 426.739C1290.13 432.791 1290.36 443.062 1294.95 453.239C1298.82 461.841 1305.8 470.376 1317.71 476.239" stroke="#D1D4D8" stroke-width="3" stroke-linecap="round"/>
<path d="M1498.21 717.5C1515.21 833.5 1523.71 912.5 1471.71 928.5C1419.71 944.5 1399.71 856.5 1386.21 803L1375.21 753.5" stroke="#D1D4D8" stroke-width="3" stroke-linecap="round"/>
<path d="M1096.71 654C1085.54 752.833 1109.11 946.6 1292.71 931" stroke="#D1D4D8" stroke-width="3" stroke-linecap="round"/>
<path d="M40.7058 843.5C-148.927 700.643 393.539 708.333 554.205 691L554.206 806.5L941.206 912C460.208 957.001 190.706 956.5 40.7058 843.5Z" fill="#D1D4D8"/>
<path d="M1122.71 2L556.705 12L941.205 62.5H1300.71H1622.71L1122.71 2Z" stroke="#D1D4D8" stroke-width="3" stroke-linecap="round"/>
<path d="M556.705 12V804.5L941.205 909.5V751V62.5" stroke="#D1D4D8" stroke-width="3" stroke-linecap="round"/>
<path d="M941.205 751L1095.21 748" stroke="#D1D4D8" stroke-width="3" stroke-linecap="round"/>
<path d="M941.205 909.5L1166.71 900" stroke="#D1D4D8" stroke-width="3" stroke-linecap="round"/>
<path d="M1300.71 62.5V109" stroke="#D1D4D8" stroke-width="3" stroke-linecap="round"/>
<path d="M1622.71 62.5V882.5H1509.21" stroke="#D1D4D8" stroke-width="3" stroke-linecap="round"/>
<path d="M979.996 1026V993" stroke="#D1D4D8" stroke-width="3" stroke-linecap="round"/>
<path d="M950.996 1011L968.996 1026" stroke="#D1D4D8" stroke-width="3" stroke-linecap="round"/>
<path d="M992.996 1026L1006 1005" stroke="#D1D4D8" stroke-width="3" stroke-linecap="round"/>
<path d="M1764 814V787" stroke="#D1D4D8" stroke-width="3" stroke-linecap="round"/>
<path d="M1740 802L1755 814" stroke="#D1D4D8" stroke-width="3" stroke-linecap="round"/>
<path d="M1774 814L1785 796" stroke="#D1D4D8" stroke-width="3" stroke-linecap="round"/>
</svg>
