<svg width="773" height="987" viewBox="0 0 773 987" fill="none" xmlns="http://www.w3.org/2000/svg">
<path d="M315.129 81.8506L307.657 39.9999" stroke="#D1D4D8" stroke-width="3" stroke-linecap="round"/>
<path d="M278.225 94.8024L229.22 49.1883" stroke="#D1D4D8" stroke-width="3" stroke-linecap="round"/>
<path d="M258.754 130.393L229.134 114.025" stroke="#D1D4D8" stroke-width="3" stroke-linecap="round"/>
<path d="M492.314 893L470.314 875" stroke="#D1D4D8" stroke-width="3" stroke-linecap="round"/>
<path d="M492.314 952.5L455.314 930" stroke="#D1D4D8" stroke-width="3" stroke-linecap="round"/>
<path d="M492.314 921L443.314 885.5" stroke="#D1D4D8" stroke-width="3" stroke-linecap="round"/>
<path d="M649.817 2C639.125 5.64066 621.201 18.0469 635.045 38.5467C648.787 58.8954 661.17 41.7437 665.755 30.3967C665.824 30.2273 665.866 30.0568 665.883 29.8749C666.519 23.0928 664.944 10.8661 653.616 14.1822C642.136 17.5428 646.3 26.2244 649.817 30.1451" stroke="#D1D4D8" stroke-width="3" stroke-linecap="round"/>
<path d="M91.0039 712.569C87.4083 698.69 75.4709 673.094 56.4863 681.746C37.5016 690.398 48.576 705.899 56.4863 712.569C61.8097 716.174 73.2535 720.031 76.4416 706.62C79.6297 693.21 66.1942 687.694 62.4189 693.643C60.4274 695.986 58.1787 701.862 65.1156 706.62" stroke="#D1D4D8" stroke-width="3" stroke-linecap="round"/>
<path d="M2.00391 271C4.4967 277.896 14.0441 292.049 32.2913 293.488C55.1002 295.287 58.0916 301.044 57.2191 325.87C56.3466 350.697 58.964 362.391 82.8948 355.914C106.825 349.438 141.101 315.976 135.367 350.697C134.578 355.794 131.628 369.191 126.144 382" stroke="#D1D4D8" stroke-width="3" stroke-linecap="round"/>
<path d="M434.922 462.511V476.301C434.314 476.265 433.689 476.315 433.079 476.411C431.556 476.651 429.791 477.239 427.893 478.05C424.085 479.677 419.459 482.322 414.64 485.4C405.523 491.222 395.521 498.713 388.66 504.177C347.305 451.736 360.112 410.877 372.927 394.735C380.518 439.789 416.373 458.445 434.922 462.511Z" stroke="#D1D4D8" stroke-width="3"/>
<path d="M418.794 268.778L419.603 269.477L420.527 268.94C431.904 262.334 442.353 260.367 451.769 261.328C461.203 262.291 469.713 266.206 477.167 271.544C492.11 282.243 502.604 298.511 507.459 307.364L508.116 308.562L509.369 308.02C512.046 306.864 514.734 307.085 517.081 307.894C519.132 308.6 520.847 309.732 521.923 310.66V364.972C521.679 364.679 521.425 364.409 521.161 364.162C519.494 362.599 517.55 362.053 515.625 362.18C513.752 362.303 511.942 363.055 510.386 363.994C508.954 364.858 507.661 365.925 506.628 366.957L486.158 372.871C484.493 362.734 480.212 356.265 475.318 352.34C470.991 348.868 466.256 347.444 462.611 347.179C463.048 344.554 462.927 342.262 462.365 340.266C461.674 337.814 460.345 335.904 458.74 334.427C455.576 331.517 451.321 330.274 448.595 329.678L447.509 329.44L446.965 330.41C441.841 339.56 433.989 344.521 430.054 347.007C429.88 347.117 429.714 347.222 429.556 347.322C391.731 364.623 365.385 354.584 351.386 339.136L351.369 339.117L351.352 339.099C343.944 331.453 338.79 317.139 339.584 302.663C340.374 288.269 347.024 273.945 362.945 265.985L362.997 265.959L363.047 265.929C368.175 262.846 377.19 259.253 387.406 258.603C397.589 257.956 408.894 260.232 418.794 268.778ZM521.923 394.814V428.5C521.923 438.883 516.05 447.265 508.45 453.491C501.524 459.165 493.32 462.91 487.346 464.602L485.476 442.838C498.632 429.001 506.285 408.245 508.946 397.925C511.154 398.737 513.351 398.74 515.256 398.375C517.648 397.916 519.657 396.864 520.823 395.989L520.888 395.941L520.947 395.886C521.263 395.59 521.592 395.233 521.923 394.814Z" stroke="#D1D4D8" stroke-width="3"/>
<path d="M484.273 375.143C484.273 390.043 473.502 401.643 460.773 401.643C448.044 401.643 437.273 390.043 437.273 375.143C437.273 360.244 448.044 348.643 460.773 348.643C473.502 348.643 484.273 360.244 484.273 375.143Z" stroke="#D1D4D8" stroke-width="3"/>
<path d="M421.273 384.143C421.273 399.043 410.502 410.643 397.773 410.643C385.044 410.643 374.273 399.043 374.273 384.143C374.273 369.244 385.044 357.643 397.773 357.643C410.502 357.643 421.273 369.244 421.273 384.143Z" stroke="#D1D4D8" stroke-width="3"/>
<path d="M421.418 378.528L437.13 376.759" stroke="#D1D4D8" stroke-width="3" stroke-linecap="round"/>
<path d="M435.273 442.643C442.002 444 450.502 437.5 450.502 430" stroke="#D1D4D8" stroke-width="3" stroke-linecap="round"/>
<path d="M432.774 392.143C430.274 404.643 422.674 416.043 434.274 421.643" stroke="#D1D4D8" stroke-width="3" stroke-linecap="round"/>
<path d="M392.273 409.789C396.416 409.789 399.773 406.431 399.773 402.289C399.773 398.147 396.416 394.789 392.273 394.789C388.131 394.789 384.773 398.147 384.773 402.289C384.773 406.431 388.131 409.789 392.273 409.789Z" fill="#D1D4D8"/>
<path d="M454.273 400.789C458.416 400.789 461.773 397.431 461.773 393.289C461.773 389.147 458.416 385.789 454.273 385.789C450.131 385.789 446.773 389.147 446.773 393.289C446.773 397.431 450.131 400.789 454.273 400.789Z" fill="#D1D4D8"/>
<path d="M514.773 376.143C515.94 378.143 517.573 382.943 514.773 386.143" stroke="#D1D4D8" stroke-width="3" stroke-linecap="round"/>
<path d="M375.274 356.789C369.107 376.123 368.362 420.843 411.962 451.643C455.562 482.443 489.129 440.477 500.462 415.643L507.962 395.143C513.129 398.31 523.562 400.143 523.962 382.143C524.362 364.143 517.129 362.977 513.462 364.643C511.462 365.477 507.262 368.343 506.462 373.143" stroke="#D1D4D8" stroke-width="3" stroke-linecap="round"/>
<path d="M484.773 374.143L509.773 367.143" stroke="#D1D4D8" stroke-width="3" stroke-linecap="round"/>
<path d="M456.773 374.796C460.891 374.663 469.455 376.475 470.773 384.789" stroke="#D1D4D8" stroke-width="3" stroke-linecap="round"/>
<path d="M383.773 382.628C386.601 380.743 393.814 377.82 400.036 381.214" stroke="#D1D4D8" stroke-width="3" stroke-linecap="round"/>
<path d="M485.504 464C476.671 471.333 453.704 484.3 436.504 475.5" stroke="#D1D4D8" stroke-width="3" stroke-linecap="round"/>
<path d="M243.171 633.5C241.171 622 233.927 607.1 212.327 601.5C202.827 599.333 184.827 594 183.827 585.5C182.939 577.952 190.327 576.677 194.827 578.01" stroke="#D1D4D8" stroke-width="3" stroke-linecap="round"/>
<path d="M212.828 591.5C191.814 585.5 166.969 532 184.814 532C191.968 532 197.969 548 202.469 556.5" stroke="#D1D4D8" stroke-width="3" stroke-linecap="round"/>
<path d="M210.254 535C218.829 535 220.929 535.1 229.329 557.5" stroke="#D1D4D8" stroke-width="3" stroke-linecap="round"/>
<path d="M225.328 545.5C226.828 542.167 231.628 538.8 238.828 552C243.828 561.167 250.128 581.8 263.328 587C276.528 592.2 276.828 597 277.828 600" stroke="#D1D4D8" stroke-width="3" stroke-linecap="round"/>
<path d="M281.003 614C250.004 611.5 232.704 645.8 269.504 717C315.504 806 427.503 868.5 459.503 642" stroke="#D1D4D8" stroke-width="3" stroke-linecap="round"/>
<path d="M281.004 614C291.004 616.167 317.404 633 343.004 683C375.004 745.5 325.004 595.5 390.504 500.5" stroke="#D1D4D8" stroke-width="3" stroke-linecap="round"/>
<path d="M200.969 526H215.469C221.544 526 226.469 530.925 226.469 537V542.5" stroke="#D1D4D8" stroke-width="3" stroke-linecap="round"/>
<path d="M208.469 526V458" stroke="#D1D4D8" stroke-width="3" stroke-linecap="round"/>
<path d="M179.469 491H206.469C207.573 491 208.469 490.105 208.469 489V464C208.469 462.895 207.573 462 206.469 462H187.923C186.819 462 185.923 462.895 185.923 464V470.633C185.923 471.738 186.819 472.633 187.923 472.633H191.438C192.543 472.633 193.438 473.529 193.438 474.633V477.4C193.438 478.505 192.543 479.4 191.438 479.4H179.469C178.364 479.4 177.469 480.295 177.469 481.4V489C177.469 490.105 178.364 491 179.469 491Z" fill="#D1D4D8"/>
<path d="M300.004 766V809C300.004 814.523 304.482 819 310.004 819H757.004C762.527 819 767.004 814.523 767.004 809V140C767.004 134.477 762.527 130 757.004 130H310.004C304.482 130 300.004 134.477 300.004 140V621" stroke="#D1D4D8" stroke-width="3" stroke-linecap="round"/>
<path d="M527.06 298.049L756.06 128.785C762.661 123.906 772.004 128.618 772.004 136.827V810.538C772.004 813.745 770.467 816.756 767.871 818.637L538.871 984.508C532.259 989.297 523.004 984.573 523.004 976.409V306.091C523.004 302.918 524.51 299.934 527.06 298.049Z" fill="#D1D4D8"/>
<path d="M190.469 533.5C192.469 524 203.769 516.5 214.969 550.5" stroke="#D1D4D8" stroke-width="3" stroke-linecap="round"/>
</svg>
