<svg width="1236" height="1069" viewBox="0 0 1236 1069" fill="none" xmlns="http://www.w3.org/2000/svg">
<path d="M764.531 629.915V714.915" stroke="#D1D4D8" stroke-width="3" stroke-linecap="round"/>
<path d="M828.531 639.915V720.915" stroke="#D1D4D8" stroke-width="3" stroke-linecap="round"/>
<path d="M573.104 616.323L586.511 859.964C586.803 865.266 591.187 869.415 596.496 869.415H970.531C976.054 869.415 980.531 864.938 980.531 859.415V610.551C980.531 604.975 975.972 600.476 970.396 600.551L582.954 605.774C577.269 605.851 572.792 610.646 573.104 616.323Z" fill="#D1D4D8"/>
<rect x="584.531" y="872.915" width="396" height="19" rx="9.5" fill="#D1D4D8"/>
<path d="M829.531 494.915C864.365 494.415 941.031 520.915 971.531 604.415" stroke="#D1D4D8" stroke-width="3" stroke-linecap="round"/>
<path d="M753.031 494.415C673.531 509.915 635.531 543.915 605.531 609.415" stroke="#D1D4D8" stroke-width="3" stroke-linecap="round"/>
<path d="M1019.03 573.5L1038.53 541" stroke="#D1D4D8" stroke-width="3" stroke-linecap="round"/>
<path d="M1038.53 582.5L1065.03 560.5" stroke="#D1D4D8" stroke-width="3" stroke-linecap="round"/>
<path d="M1042.53 597.5C1047.7 599.5 1059.43 601.4 1065.03 593" stroke="#D1D4D8" stroke-width="3" stroke-linecap="round"/>
<path d="M531.031 567.415L501.031 536.415" stroke="#D1D4D8" stroke-width="3" stroke-linecap="round"/>
<path d="M561.531 562.415L543.531 515.915" stroke="#D1D4D8" stroke-width="3" stroke-linecap="round"/>
<path d="M523.531 584.915L501.031 576.415" stroke="#D1D4D8" stroke-width="3" stroke-linecap="round"/>
<path d="M509.531 845.69C514.581 845.519 520.216 845.283 526.491 844.969C565.009 843.044 564.273 816.236 558.659 801.603C558.24 800.51 557.562 799.513 556.744 798.677C520.441 761.558 488.477 773.281 475.706 784.816C474.883 785.56 474.228 786.506 473.748 787.506C453.375 829.968 460.693 843.01 468.404 844.759C469.757 845.066 471.166 845.213 472.541 845.396C476.853 845.97 487.733 846.43 509.531 845.69ZM509.531 845.69C507.198 836.599 505.431 814.115 517.031 796.915" stroke="#D1D4D8" stroke-width="3" stroke-linecap="round"/>
<path d="M435.031 824.915H327.031" stroke="#D1D4D8" stroke-width="3" stroke-linecap="round"/>
<path d="M1119.03 824.915H1233.53" stroke="#D1D4D8" stroke-width="3" stroke-linecap="round"/>
<path d="M991.531 660.5C1010.03 689.5 1031.03 724 991.531 788.915" stroke="#D1D4D8" stroke-width="3" stroke-linecap="round"/>
<path d="M529.778 1060C520.578 1044 549.945 1041.67 565.778 1042.5V1054L617.278 1060C591.945 1066.67 538.978 1076 529.778 1060Z" fill="#D1D4D8"/>
<path d="M642.777 1038.5L623.277 1058.5" stroke="#D1D4D8" stroke-width="3" stroke-linecap="round"/>
<path d="M618.777 997.5L568.277 994" stroke="#D1D4D8" stroke-width="3" stroke-linecap="round"/>
<path d="M588.777 981L642.777 983.5" stroke="#D1D4D8" stroke-width="3" stroke-linecap="round"/>
<path d="M567.277 994L564.777 1052" stroke="#D1D4D8" stroke-width="3" stroke-linecap="round"/>
<path d="M642.777 984.5V1037.5" stroke="#D1D4D8" stroke-width="3" stroke-linecap="round"/>
<path d="M623.277 1016V1058.5" stroke="#D1D4D8" stroke-width="3" stroke-linecap="round"/>
<path d="M567.277 994L588.777 981" stroke="#D1D4D8" stroke-width="3" stroke-linecap="round"/>
<path d="M623.277 1058.5L564.277 1052.5" stroke="#D1D4D8" stroke-width="3" stroke-linecap="round"/>
<path d="M389.034 968.5C389.534 954.5 445.534 959 449.034 959.5V968.5L466.034 980.5C440.2 981.167 388.634 979.7 389.034 968.5Z" fill="#D1D4D8"/>
<path d="M528.033 967V916" stroke="#D1D4D8" stroke-width="3" stroke-linecap="round"/>
<path d="M484.533 980V924" stroke="#D1D4D8" stroke-width="3" stroke-linecap="round"/>
<path d="M448.533 967V911" stroke="#D1D4D8" stroke-width="3" stroke-linecap="round"/>
<path d="M448.533 911L488.033 901" stroke="#D1D4D8" stroke-width="3" stroke-linecap="round"/>
<path d="M528.033 915.5L484.533 923.5" stroke="#D1D4D8" stroke-width="3" stroke-linecap="round"/>
<path d="M484.533 980.5L528.033 967.5" stroke="#D1D4D8" stroke-width="3" stroke-linecap="round"/>
<path d="M528.033 915.5L488.033 901" stroke="#D1D4D8" stroke-width="3" stroke-linecap="round"/>
<path d="M448.533 911.5L485.033 923.5" stroke="#D1D4D8" stroke-width="3" stroke-linecap="round"/>
<path d="M830.031 497.415C834.531 484.415 830.432 475.667 826.432 474C802.432 496 766.031 487.833 752.531 474.5C747.731 478.9 750.531 491.915 752.531 495.915C778.531 524.715 815.531 508.581 830.031 497.415Z" fill="#D1D4D8"/>
<path d="M723.531 577.415L731.561 565.089C739.388 553.077 754.62 548.281 767.916 553.643L787.053 561.359C798.992 566.173 812.672 562.834 821.05 553.06L843.031 527.415" stroke="#D1D4D8" stroke-width="3" stroke-linecap="round"/>
<path d="M567.031 678.915C559.531 696.581 550.631 739.415 575.031 769.415" stroke="#D1D4D8" stroke-width="3" stroke-linecap="round"/>
<path d="M898.975 293.021C887.975 332.521 882.475 336.021 866.475 353.521C866.475 336.226 863.503 307.196 863.503 295.108C811.114 295.108 766.901 273.722 751.342 263.029C751.9 299.292 717.903 323.003 717.903 323.003C717.903 323.003 722.78 337.648 725.566 370.425C727.796 396.646 721.386 391.579 717.903 385.767C707.871 353.409 691.43 362.056 684.463 370.425C598.975 231.521 730.442 204.681 755.522 207.238C774.471 191.059 800.897 178.38 819.475 176.521C886.475 169.814 916.811 228.973 898.975 293.021Z" stroke="#D1D4D8" stroke-width="3" stroke-linecap="round"/>
<path d="M719.074 410.49C728.074 465.435 788.482 504.944 832.074 460.435C875.666 415.926 866.943 334.454 862.286 296.435" stroke="#D1D4D8" stroke-width="3" stroke-linecap="round"/>
<path d="M683.475 367.021C677.975 380.521 683.135 410.435 719.075 410.435" stroke="#D1D4D8" stroke-width="3" stroke-linecap="round"/>
<path d="M699.326 374.435C698.53 377.324 699.167 384.169 708.074 388.435" stroke="#D1D4D8" stroke-width="3" stroke-linecap="round"/>
<path d="M861.074 403.435C872.805 398.545 881.074 380.435 877.893 351.435" stroke="#D1D4D8" stroke-width="3" stroke-linecap="round"/>
<path d="M795.074 436.435C806.574 439.435 805.847 431.18 814.574 423.935" stroke="#D1D4D8" stroke-width="3" stroke-linecap="round"/>
<circle cx="829.404" cy="366.585" r="7.5" fill="#D1D4D8"/>
<circle cx="763.404" cy="367.585" r="7.5" fill="#D1D4D8"/>
<path d="M747.074 350.435C748.653 345.788 755.462 337.192 770.074 339.98" stroke="#D1D4D8" stroke-width="3" stroke-linecap="round"/>
<path d="M817.074 341.435C820.559 338.417 830.038 334.191 840.074 341.435" stroke="#D1D4D8" stroke-width="3" stroke-linecap="round"/>
<path d="M792.881 362.435C791.717 372.309 790.925 392.333 797.074 393.435" stroke="#D1D4D8" stroke-width="3" stroke-linecap="round"/>
<circle cx="54.5312" cy="51.5" r="17.5" fill="#D1D4D8"/>
<circle cx="107.531" cy="51.5" r="16" stroke="#D1D4D8" stroke-width="3"/>
<circle cx="160.531" cy="51.5" r="16" stroke="#D1D4D8" stroke-width="3"/>
<path d="M2.03125 101L745.031 101" stroke="#D1D4D8" stroke-width="3" stroke-linecap="round"/>
<circle cx="375.031" cy="236" r="74" fill="#D1D4D8"/>
<rect x="195.531" y="360.5" width="358" height="52" rx="8.5" stroke="#D1D4D8" stroke-width="3"/>
<rect x="195.531" y="435.5" width="358" height="52" rx="8.5" stroke="#D1D4D8" stroke-width="3"/>
<circle cx="223.531" cy="461.5" r="7.5" fill="#D1D4D8"/>
<circle cx="248.531" cy="461.5" r="7.5" fill="#D1D4D8"/>
<circle cx="273.531" cy="461.5" r="7.5" fill="#D1D4D8"/>
<circle cx="298.531" cy="461.5" r="7.5" fill="#D1D4D8"/>
<circle cx="323.531" cy="461.5" r="7.5" fill="#D1D4D8"/>
<circle cx="348.531" cy="461.5" r="7.5" fill="#D1D4D8"/>
<circle cx="373.531" cy="461.5" r="7.5" fill="#D1D4D8"/>
<path d="M2.03125 570.5V52C2.03125 24.3858 24.417 2 52.0312 2H695.531C723.146 2 745.531 24.3858 745.531 52V174.5" stroke="#D1D4D8" stroke-width="3" stroke-linecap="round"/>
<path d="M1044.19 824.436C1034.31 822.57 1015.02 825.909 1026.57 850.02C1035.38 868.409 1049 878.003 1053 882" stroke="#D1D4D8" stroke-width="3" stroke-linecap="round"/>
<path d="M1068.71 906.504C1046.33 887.447 1046.35 838.565 1049.47 813.48C1049.62 812.206 1050.94 811.435 1052.15 811.844C1074.27 819.285 1101.06 815.246 1113.84 811.684C1115.04 811.348 1116.29 812.176 1116.43 813.42C1123.19 873.138 1106.5 899.75 1097.19 906.523C1097.1 906.584 1097.02 906.632 1096.93 906.678C1091.76 909.218 1079.19 912.663 1068.98 906.695C1068.89 906.639 1068.8 906.575 1068.71 906.504Z" stroke="#D1D4D8" stroke-width="3" stroke-linecap="round"/>
<ellipse cx="1083" cy="810.5" rx="35" ry="6.5" fill="#D1D4D8"/>
<path d="M1091.17 788C1096.52 782.78 1104 766.48 1091.17 743.041C1078.34 719.602 1092.38 697.914 1101 690" stroke="#D1D4D8" stroke-width="3" stroke-linecap="round"/>
<path d="M1074 765C1066.56 754 1054.89 727.2 1067.77 708" stroke="#D1D4D8" stroke-width="3" stroke-linecap="round"/>
<path d="M1133.44 906.926C1148.95 898.409 1121.18 900.049 1106.02 900.27L1098 908.257C1114.71 911.584 1127.42 909.588 1133.44 906.926Z" fill="#D1D4D8"/>
</svg>
