<svg width="780" height="727" viewBox="0 0 780 727" fill="none" xmlns="http://www.w3.org/2000/svg">
<path d="M743.21 610.085C755.727 622.817 771.774 650.641 735.834 660.085" stroke="#D1D4D8" stroke-width="3" stroke-linecap="round"/>
<path d="M743.834 637.085C741.7 625.935 732.93 604.904 714.003 598.152C710.893 597.042 707.509 596.318 703.834 596.085" stroke="#D1D4D8" stroke-width="3" stroke-linecap="round"/>
<path d="M721.921 533.085C697.041 549.641 656.18 593.21 691.79 635.028C727.399 676.847 741.324 680.513 743.834 677.118" stroke="#D1D4D8" stroke-width="3" stroke-linecap="round"/>
<path d="M749.834 566.085L713.834 598.085" stroke="#D1D4D8" stroke-width="3" stroke-linecap="round"/>
<path d="M713.834 530.085C716.041 530.335 718.86 531.14 722.024 532.689C730.724 536.939 742.039 546.79 750.448 566.073C752.859 571.604 755.032 577.912 756.834 585.085" stroke="#D1D4D8" stroke-width="3" stroke-linecap="round"/>
<path d="M717.834 520.085C733.571 522.085 766.002 531.285 769.834 552.085" stroke="#D1D4D8" stroke-width="3" stroke-linecap="round"/>
<path d="M723.834 509.338C731.676 507.141 750.854 504.613 764.834 512.085" stroke="#D1D4D8" stroke-width="3" stroke-linecap="round"/>
<path d="M540.218 253.031C539.506 257.007 537.846 260.306 535.869 262.444C533.869 264.606 531.818 265.337 530.145 265.037C528.471 264.738 526.802 263.341 525.676 260.619C524.563 257.928 524.151 254.258 524.863 250.282C525.574 246.306 527.234 243.007 529.212 240.869C531.212 238.707 533.263 237.976 534.936 238.276C536.609 238.575 538.279 239.972 539.405 242.694C540.517 245.385 540.93 249.055 540.218 253.031Z" stroke="#D1D4D8" stroke-width="3"/>
<path d="M1.54492 266.619L118.462 237.901M88.8288 23.9409L152.108 112.33L88.8288 23.9409ZM94.2378 106.142L125.802 133.234L94.2378 106.142ZM7.27432 135.121C46.8821 145.734 69.0887 151.684 108.697 162.297L7.27432 135.121ZM63.8107 206.175L106.649 204.713L63.8107 206.175Z" stroke="#D1D4D8" stroke-width="3" stroke-linecap="round"/>
<path d="M263.304 207.348C257.317 229.691 246.917 248.456 235.066 260.753C223.146 273.123 210.223 278.535 198.968 275.519C187.712 272.503 179.227 261.355 175.089 244.683C170.975 228.107 171.35 206.656 177.337 184.313C183.323 161.97 193.724 143.205 205.575 130.908C217.495 118.538 230.417 113.126 241.673 116.142C252.928 119.157 261.413 130.306 265.552 146.978C269.666 163.554 269.291 185.005 263.304 207.348Z" stroke="#D1D4D8" stroke-width="3"/>
<path d="M212.574 209.284C216.842 210.428 222.04 204.868 224.184 196.866C226.328 188.864 224.606 181.45 220.339 180.306C216.071 179.163 210.873 184.723 208.729 192.725C206.585 200.727 208.306 208.141 212.574 209.284Z" fill="#D1D4D8"/>
<path d="M393.203 257.683C398.779 249.238 400.617 235.168 400.838 229.188L414.387 238.513C418.602 247.51 413.037 253.853 409.728 255.899L393.203 257.683Z" fill="#D1D4D8"/>
<path d="M213.043 275.15L409.727 255.899M414.386 238.513L248.175 118.919L414.386 238.513Z" stroke="#D1D4D8" stroke-width="3" stroke-linecap="round"/>
<path d="M212.869 206.257L253.031 234.1M219.081 183.075L267.266 180.974L219.081 183.075Z" stroke="#D1D4D8" stroke-width="3" stroke-linecap="round"/>
<path d="M424.016 529.531L383.282 570.602C349.993 600.472 328.016 577.5 314.515 565.209C300.516 545.5 278.516 520.879 278.516 438.5C278.516 387 291.016 361.908 341.516 380.908" stroke="#D1D4D8" stroke-width="3" stroke-linecap="round"/>
<path d="M414.387 238.512C416.069 241.896 417.491 250.111 409.729 255.899" stroke="#D1D4D8" stroke-width="3" stroke-linecap="round"/>
<path d="M400.001 228.447C400.262 234.556 398.464 247.705 392.236 257.424" stroke="#D1D4D8" stroke-width="3" stroke-linecap="round"/>
<path d="M508.016 319.5C473.516 319.5 395.516 337.5 363.516 411" stroke="#D1D4D8" stroke-width="3" stroke-linecap="round"/>
<path d="M274.738 322.221C272.457 325.144 269.983 332.293 276.841 338.867C277.349 339.354 277.908 339.838 278.523 340.317C287.429 347.259 291.813 340.945 292.891 336.92" stroke="#D1D4D8" stroke-width="3" stroke-linecap="round"/>
<path d="M301.944 324.385C304.631 331.357 299.415 333.181 296.471 333.221C295.773 333.14 294.933 333.009 293.99 332.82C288.831 331.785 280.603 329.03 275.773 323.534C275.376 323.082 275.033 322.645 274.738 322.221C270.79 316.544 275.611 313.351 278.749 312.426" stroke="#D1D4D8" stroke-width="3" stroke-linecap="round"/>
<path d="M283.916 300.869C281.007 300.78 275.625 302.064 277.37 307.915C279.115 313.766 293.844 321.129 300.991 324.079C301.302 324.197 301.621 324.3 301.944 324.385C304.87 325.157 308.127 324.493 309.176 320.578C310.658 315.046 304.077 311.275 302.553 310.522" stroke="#D1D4D8" stroke-width="3" stroke-linecap="round"/>
<path d="M305.22 288.978C302.181 289.371 298.703 292.822 304.339 298.059C309.976 303.297 307.13 307.607 305.003 309.107C301.823 310.671 293.026 310.143 283.279 295.522C273.531 280.901 296.363 279.53 308.998 280.673" stroke="#D1D4D8" stroke-width="3" stroke-linecap="round"/>
<path d="M329.642 307.945C325.333 302.132 316.306 293.191 314.67 303.934C313.034 314.676 319.191 321.192 322.474 323.107" stroke="#D1D4D8" stroke-width="3" stroke-linecap="round"/>
<path d="M318.505 357.242C316.34 353.729 313.813 343.458 321.017 330.48" stroke="#D1D4D8" stroke-width="3" stroke-linecap="round"/>
<path d="M317.616 265.899L305.211 296.74" stroke="#D1D4D8" stroke-width="3" stroke-linecap="round"/>
<path d="M328.479 312.292L352.243 262.237" stroke="#D1D4D8" stroke-width="3" stroke-linecap="round"/>
<path d="M284.887 351.34C282.428 360.516 274.846 371.426 283.729 376.912C294.575 383.61 298.71 373.161 304.101 362.7L319.309 331.058" stroke="#D1D4D8" stroke-width="3" stroke-linecap="round"/>
<path d="M337.516 300.5C342.849 319.333 343.016 357.908 343.016 434.408" stroke="#D1D4D8" stroke-width="3" stroke-linecap="round"/>
<path d="M669.071 499.5C693.517 558 660.017 609.5 669.071 707C608.404 725 474.171 745.7 422.571 684.5C420.237 673.833 422.571 613.5 422.571 574.5" stroke="#D1D4D8" stroke-width="3" stroke-linecap="round"/>
<path d="M617.568 412L609.538 399.674C601.711 387.662 586.48 382.866 573.183 388.228L554.046 395.944C542.107 400.758 528.427 397.419 520.049 387.645L498.068 362" stroke="#D1D4D8" stroke-width="3" stroke-linecap="round"/>
<path d="M507.069 321.415C502.569 308.415 506.668 299.666 510.668 298C534.668 320 571.069 311.833 584.569 298.5C589.369 302.9 586.569 315.915 584.569 319.915C558.569 348.715 521.569 332.581 507.069 321.415Z" fill="#D1D4D8"/>
<path d="M439.572 116.618L438.127 117.02L439.572 116.618C430.736 84.8929 433.881 54.5485 447.334 33.0327C460.738 11.5962 484.5 -1.28801 517.477 2.01309C535.664 3.83369 561.813 16.3337 580.606 32.3791L581.093 32.7956L581.732 32.7306C587.74 32.1179 600.452 33.268 614.856 37.5615C629.232 41.8468 645.111 49.2107 657.545 60.8775C669.947 72.5141 678.946 88.4475 679.627 110.015C680.299 131.272 672.893 158.154 652.406 191.927C648.694 188.104 643.052 184.507 636.868 185.337C629.742 186.293 622.872 192.96 617.819 209.147C617.007 210.478 616.093 211.658 615.255 212.358C614.819 212.723 614.499 212.876 614.309 212.921C614.182 212.951 614.157 212.932 614.11 212.898L614.109 212.897C614 212.818 613.742 212.551 613.467 211.812C613.198 211.088 612.956 210.029 612.793 208.538C612.466 205.557 612.475 201.068 613.029 194.552C614.418 178.219 616.326 166.42 617.881 158.72C618.659 154.87 619.349 152.044 619.842 150.189C620.088 149.261 620.285 148.576 620.42 148.126C620.487 147.901 620.538 147.735 620.572 147.627C620.589 147.573 620.602 147.534 620.61 147.509L620.619 147.482L620.621 147.477L620.621 147.477L620.621 147.476L620.975 146.414L620.056 145.773L620.056 145.773L620.056 145.773L620.053 145.771L620.038 145.76L619.972 145.714C619.913 145.671 619.822 145.606 619.703 145.518C619.464 145.343 619.11 145.079 618.656 144.728C617.749 144.025 616.447 142.977 614.884 141.604C611.754 138.858 607.586 134.822 603.437 129.674C595.125 119.359 586.987 104.699 587.258 87.0518L587.303 84.147L584.909 85.7925C569.55 96.349 525.626 117.608 473.598 117.608H472.098V119.108C472.098 124.557 471.485 133.521 470.813 143.369C470.747 144.325 470.681 145.289 470.615 146.26C469.977 155.656 469.335 165.583 469.168 173.719C468.773 173.292 468.385 172.873 468.004 172.461C461.978 165.95 457.682 161.308 453.791 154.754C449.147 146.932 445.064 136.341 439.572 116.618Z" stroke="#D1D4D8" stroke-width="3"/>
<path d="M618.025 234.49C609.025 289.435 548.617 328.945 505.025 284.435C461.433 239.926 470.157 158.454 474.814 120.435" stroke="#D1D4D8" stroke-width="3" stroke-linecap="round"/>
<path d="M653.625 191.02C659.126 204.52 653.965 234.435 618.025 234.435" stroke="#D1D4D8" stroke-width="3" stroke-linecap="round"/>
<path d="M637.774 198.435C638.569 201.324 637.933 208.169 629.025 212.435" stroke="#D1D4D8" stroke-width="3" stroke-linecap="round"/>
<path d="M476.026 227.435C464.296 222.545 456.026 204.435 459.207 175.435" stroke="#D1D4D8" stroke-width="3" stroke-linecap="round"/>
<path d="M502.344 192.258C499.013 190.92 497.711 186.353 499.437 182.057C501.163 177.761 505.263 175.364 508.594 176.702C511.925 178.04 513.226 182.608 511.5 186.903C509.774 191.199 505.675 193.597 502.344 192.258Z" fill="#D1D4D8"/>
<path d="M563.507 193.983C560.127 192.773 558.553 188.537 559.99 184.521C561.427 180.506 565.333 178.232 568.712 179.442C572.092 180.652 573.667 184.888 572.229 188.903C570.792 192.918 566.887 195.193 563.507 193.983Z" fill="#D1D4D8"/>
<path d="M590.025 174.435C588.446 169.788 581.637 161.192 567.025 163.98" stroke="#D1D4D8" stroke-width="3" stroke-linecap="round"/>
<path d="M520.025 165.435C516.54 162.417 507.061 158.191 497.025 165.435" stroke="#D1D4D8" stroke-width="3" stroke-linecap="round"/>
<path d="M528.822 187.085C527.657 196.959 520.015 218.085 533.015 218.085" stroke="#D1D4D8" stroke-width="3" stroke-linecap="round"/>
<path d="M586.016 316C685.516 316 810.016 420.5 771.205 551" stroke="#D1D4D8" stroke-width="3" stroke-linecap="round"/>
<path d="M660.334 460.585C664.834 465.419 674.834 478.785 678.834 493.585C682.834 508.385 694.167 518.752 699.334 522.085" stroke="#D1D4D8" stroke-width="3" stroke-linecap="round"/>
</svg>
