<svg width="353" height="845" viewBox="0 0 353 845" fill="none" xmlns="http://www.w3.org/2000/svg">
<path d="M172.146 163.278V189.278" stroke="#D1D4D8" stroke-width="3" stroke-linecap="round"/>
<path d="M217.637 162.782L217.645 189.278" stroke="#D1D4D8" stroke-width="3" stroke-linecap="round"/>
<path d="M266.147 275.778C266.146 301.778 264.647 316.778 264.646 358.778" stroke="#D1D4D8" stroke-width="3" stroke-linecap="round"/>
<path d="M264.646 406.278L265.646 422.778" stroke="#D1D4D8" stroke-width="3" stroke-linecap="round"/>
<path d="M152.146 102.891C154.411 128.437 166.001 173.491 194.146 175.237C223.793 177.076 236.146 117.606 236.146 102.278" stroke="#D1D4D8" stroke-width="3" stroke-linecap="round"/>
<path d="M157.646 101.778L149.146 100.278" stroke="#D1D4D8" stroke-width="3" stroke-linecap="round"/>
<path d="M239.574 100.278C248.42 102.552 255.376 112.43 234.146 131.278" stroke="#D1D4D8" stroke-width="3" stroke-linecap="round"/>
<path d="M148.108 100.278C140.276 101.312 132.031 113.298 156.147 131.278" stroke="#D1D4D8" stroke-width="3" stroke-linecap="round"/>
<path d="M173.146 110.278C175.908 110.278 178.146 108.039 178.146 105.278C178.146 102.516 175.908 100.278 173.146 100.278C170.385 100.278 168.146 102.516 168.146 105.278C168.146 108.039 170.385 110.278 173.146 110.278Z" fill="#D1D4D8"/>
<path d="M214.146 110.278C216.908 110.278 219.146 108.039 219.146 105.278C219.146 102.516 216.908 100.278 214.146 100.278C211.385 100.278 209.146 102.516 209.146 105.278C209.146 108.039 211.385 110.278 214.146 110.278Z" fill="#D1D4D8"/>
<path d="M173.646 120.778C182.483 120.778 189.646 113.614 189.646 104.778C189.646 95.9413 182.483 88.7778 173.646 88.7778C164.81 88.7778 157.646 95.9413 157.646 104.778C157.646 113.614 164.81 120.778 173.646 120.778Z" stroke="#D1D4D8" stroke-width="3"/>
<path d="M213.646 120.778C222.483 120.778 229.646 113.614 229.646 104.778C229.646 95.9413 222.483 88.7778 213.646 88.7778C204.81 88.7778 197.646 95.9413 197.646 104.778C197.646 113.614 204.81 120.778 213.646 120.778Z" stroke="#D1D4D8" stroke-width="3"/>
<path d="M190.146 103.278H197.146" stroke="#D1D4D8" stroke-width="3" stroke-linecap="round"/>
<path d="M186.645 114.278C184.995 123.278 184.811 138.219 201.145 129.991" stroke="#D1D4D8" stroke-width="3" stroke-linecap="round"/>
<path d="M183.146 145.278C186.479 147.542 195.146 150.712 203.146 145.278" stroke="#D1D4D8" stroke-width="3" stroke-linecap="round"/>
<path d="M229.146 100.278H239.146" stroke="#D1D4D8" stroke-width="3" stroke-linecap="round"/>
<path d="M147.762 51.7507L148.943 51.1946L148.555 49.9481C147.085 45.2209 145.477 34.5585 150.904 24.4667C156.274 14.4786 168.779 4.61343 196.421 1.85867C224.154 0.66019 239.607 13.1681 245.141 19.8489C245.286 20.025 245.435 20.2036 245.585 20.3845C248.446 23.8338 252.034 28.1596 254.488 33.1052C257.056 38.281 258.299 43.9716 256.228 49.8987L256.067 50.3577L256.207 50.8235C257.883 56.4256 259.354 65.7336 258.281 75.3041C257.234 84.645 253.788 94.0679 245.935 100.636C245.552 100.464 245.191 100.136 244.804 99.5212C244.181 98.5307 243.593 96.9391 242.92 94.4503C242.29 92.1215 241.623 89.1497 240.774 85.3763L240.628 84.7232C239.712 80.6513 238.596 75.7172 237.122 69.797C234.489 59.2135 225.476 52.2955 214.232 48.583C202.968 44.8639 189.186 44.2485 176.384 46.4442L176.312 46.4566L176.242 46.4759C171.506 47.7732 163.811 51.1715 158.01 59.4127C152.358 67.4413 148.641 79.8681 150.955 98.9591C149.65 99.0081 148.099 99.1145 146.594 99.308C145.475 99.4519 144.35 99.6478 143.356 99.9146C142.851 100.05 142.338 100.215 141.86 100.42C136.551 94.9253 130.848 86.3664 129.813 77.5507C129.275 72.9719 129.995 68.3392 132.67 63.975C135.354 59.5966 140.081 55.3677 147.762 51.7507Z" stroke="#D1D4D8" stroke-width="3"/>
<path d="M163.146 80.2783C165.646 79.5237 173.146 78.4672 183.146 80.2783" stroke="#D1D4D8" stroke-width="3" stroke-linecap="round"/>
<path d="M205.146 81.2783C207.521 80.5237 214.646 79.4672 224.146 81.2783" stroke="#D1D4D8" stroke-width="3" stroke-linecap="round"/>
<path d="M109.793 778.278C62.7017 754.733 81.7031 524.353 109.597 405.11C109.712 404.622 110.165 404.315 110.663 404.364L267.032 419.704C267.481 419.748 267.841 420.064 267.916 420.509C282.126 504.316 310.749 682.081 303.793 731.278C297.147 778.278 287.292 775.205 255.793 778.278C188.214 784.871 184.77 623.43 186.163 530.992C186.181 529.82 184.725 529.623 184.491 530.772C174.592 579.401 186.292 671.69 186.292 716.278C186.292 763.278 168.793 807.778 109.793 778.278Z" fill="#D1D4D8"/>
<path d="M134.117 794.278V805.778C115.617 813.778 83.2172 831.878 101.617 840.278C120.017 848.678 151.951 830.778 165.618 820.778V789.778" stroke="#D1D4D8" stroke-width="3" stroke-linecap="round"/>
<path d="M242.617 784.278V813.778C251.617 821.612 278.117 836.578 312.117 833.778C354.617 830.278 285.617 822.278 266.617 786.778" stroke="#D1D4D8" stroke-width="3" stroke-linecap="round"/>
<path d="M219.646 174.278C289.646 192.778 399.146 279.478 325.146 348.278" stroke="#D1D4D8" stroke-width="3" stroke-linecap="round"/>
<path d="M306.146 391.778C315.48 400.945 327.446 420.978 300.646 427.778" stroke="#D1D4D8" stroke-width="3" stroke-linecap="round"/>
<path d="M306.146 411.278C304.572 403.119 298.104 387.731 284.146 382.79C281.852 381.978 279.356 381.448 276.646 381.278" stroke="#D1D4D8" stroke-width="3" stroke-linecap="round"/>
<path d="M290.147 334.695C271.981 346.889 242.147 378.978 268.147 409.778C294.147 440.578 304.314 443.278 306.147 440.778" stroke="#D1D4D8" stroke-width="3" stroke-linecap="round"/>
<path d="M310.968 359.278L284.146 382.79" stroke="#D1D4D8" stroke-width="3" stroke-linecap="round"/>
<path d="M284.146 332.778C285.763 332.962 287.828 333.555 290.146 334.695C296.519 337.825 304.808 345.079 310.968 359.278C312.734 363.351 314.326 367.996 315.646 373.278" stroke="#D1D4D8" stroke-width="3" stroke-linecap="round"/>
<path d="M287.146 324.778C298.646 326.278 322.346 333.178 325.146 348.778" stroke="#D1D4D8" stroke-width="3" stroke-linecap="round"/>
<path d="M291.646 317.278C297.48 315.278 311.746 312.978 322.146 319.778" stroke="#D1D4D8" stroke-width="3" stroke-linecap="round"/>
<path d="M266.146 287.778L290.146 312.778" stroke="#D1D4D8" stroke-width="3" stroke-linecap="round"/>
<path d="M82.1465 434.778C79.1465 431.278 64.1465 431.278 56.6465 415.778" stroke="#D1D4D8" stroke-width="3" stroke-linecap="round"/>
<path d="M82.1458 427.278C82.1458 423.278 67.168 421.778 67.168 405.778" stroke="#D1D4D8" stroke-width="3" stroke-linecap="round"/>
<path d="M85.646 418.778C82.6533 413.646 79.8069 404.522 89.646 405.224C90.6704 405.297 91.8324 405.477 93.146 405.778" stroke="#D1D4D8" stroke-width="3" stroke-linecap="round"/>
<path d="M89.6465 405.224C77.8132 395.242 53.5465 375.278 51.1465 375.278" stroke="#D1D4D8" stroke-width="3" stroke-linecap="round"/>
<path d="M76.3823 339.527C96.3037 360.611 128.547 409.178 98.1465 434.778C89.4798 440.278 68.5465 449.178 54.1465 440.778" stroke="#D1D4D8" stroke-width="3" stroke-linecap="round"/>
<path d="M41.1465 375.278C47.0522 364.796 61.4855 344.792 76.3823 339.527C78.3017 338.849 80.2289 338.415 82.1465 338.278" stroke="#D1D4D8" stroke-width="3" stroke-linecap="round"/>
<path d="M121.145 276.278C122.312 282.278 120.068 297.201 117.145 313.278C113.145 335.278 110.564 380.724 110.564 405.224" stroke="#D1D4D8" stroke-width="3" stroke-linecap="round"/>
<path d="M67.1687 326.778C59.1865 324.378 44.4947 325.778 38.1465 326.778" stroke="#D1D4D8" stroke-width="3" stroke-linecap="round"/>
<path d="M36.1465 353.778C40.3623 346.655 51.8312 332.634 67.1687 326.778C69.4152 325.921 71.7447 325.238 74.1465 324.778L121.147 286.778" stroke="#D1D4D8" stroke-width="3" stroke-linecap="round"/>
<path d="M171.147 172.778C132.647 179.278 70.9465 227.578 36.1465 266.778C-7.35352 315.778 -7.35352 344.778 36.1465 367.278" stroke="#D1D4D8" stroke-width="3" stroke-linecap="round"/>
<path d="M193.646 346.778C217.947 346.778 237.646 327.078 237.646 302.778C237.646 278.477 217.947 258.778 193.646 258.778C169.346 258.778 149.646 278.477 149.646 302.778C149.646 327.078 169.346 346.778 193.646 346.778Z" stroke="#D1D4D8" stroke-width="3"/>
<path d="M193.646 336.778C212.424 336.778 227.646 321.556 227.646 302.778C227.646 284 212.424 268.778 193.646 268.778C174.869 268.778 159.646 284 159.646 302.778C159.646 321.556 174.869 336.778 193.646 336.778Z" stroke="#D1D4D8" stroke-width="3"/>
<path d="M204.645 258.278C214.645 230.278 220.645 219.278 235.146 179.278M182.145 258.278C173.145 229.278 167.645 223.778 153.646 177.778L182.145 258.278Z" stroke="#D1D4D8" stroke-width="3" stroke-linecap="round"/>
<path d="M198.262 297.362H207.278L199.984 302.662C198.757 303.553 198.244 305.133 198.712 306.575L200.979 305.838L198.712 306.575L201.498 315.15L194.204 309.85C192.977 308.959 191.316 308.959 190.09 309.85L182.795 315.15L185.582 306.575C186.05 305.133 185.537 303.553 184.31 302.662L177.016 297.362H186.032C187.548 297.362 188.892 296.386 189.361 294.943L187.404 294.308L189.361 294.943L192.147 286.368L194.933 294.943L197.311 294.171L194.933 294.943C195.402 296.386 196.745 297.362 198.262 297.362Z" stroke="#D1D4D8" stroke-width="3"/>
</svg>
