<svg width="558" height="769" viewBox="0 0 558 769" fill="none" xmlns="http://www.w3.org/2000/svg">
<path d="M378.866 298.844C423.202 314.997 473.516 370.347 342.002 450.652" stroke="#D1D4D8" stroke-width="3" stroke-linecap="round"/>
<path d="M269.271 291.427C239.382 287.471 160.614 305.272 200.525 385.873C205.341 395.598 222.843 414.752 254.326 413.565C294.677 412.044 316.43 452.465 329.548 471.915" stroke="#D1D4D8" stroke-width="3" stroke-linecap="round"/>
<path d="M256.473 322.915C283.994 343.472 337.416 410.349 330.932 513.401C324.449 616.452 323.841 630.61 324.348 624.807" stroke="#D1D4D8" stroke-width="3" stroke-linecap="round"/>
<path d="M295.473 431.915V516.915" stroke="#D1D4D8" stroke-width="3" stroke-linecap="round"/>
<path d="M359.473 441.915V522.915" stroke="#D1D4D8" stroke-width="3" stroke-linecap="round"/>
<path d="M341.473 449.915C343.306 421.763 353.273 345.152 378.473 263.915" stroke="#D1D4D8" stroke-width="3" stroke-linecap="round"/>
<path d="M287.452 351.915C287.797 337.461 284.04 303.469 266.255 283.134C244.024 257.715 242.473 242.264 242.473 194.915" stroke="#D1D4D8" stroke-width="3" stroke-linecap="round"/>
<path d="M296.474 208.915C288.109 207.472 273.889 197.852 283.927 170.915" stroke="#D1D4D8" stroke-width="3" stroke-linecap="round"/>
<path d="M416.206 167.086C415.89 172.007 412.701 182.046 402.473 182.833" stroke="#D1D4D8" stroke-width="3" stroke-linecap="round"/>
<path d="M402.473 208.915C421.414 197.925 451.815 170.925 421.888 150.847C417.784 147.894 408.155 146.123 402.473 162.657" stroke="#D1D4D8" stroke-width="3" stroke-linecap="round"/>
<path d="M357.473 136.915C353.712 135.406 344.047 133.293 335.473 136.915" stroke="#D1D4D8" stroke-width="3" stroke-linecap="round"/>
<path d="M268.473 141.915C264.029 140.406 252.606 138.293 242.473 141.915" stroke="#D1D4D8" stroke-width="3" stroke-linecap="round"/>
<path d="M385.796 26.5836L386.006 26.6736L386.232 26.6972C414.054 29.5943 432.579 37.0281 444.319 47.0122C456.018 56.9612 461.114 69.5574 461.872 83.1245C463.35 109.573 448.317 139.637 433.298 160.066C426.948 148.512 416.249 147.043 410.099 148.021C407.22 109.368 393.615 91.8928 377.047 86.3672C360.633 80.8932 342.051 87.4426 329.894 95.056C304.967 94.1175 289.129 98.6021 279.46 104.796C271.081 110.165 267.349 116.823 266.471 122.211C255.978 116.4 246.274 117.099 238.901 119.805C234.992 121.239 231.742 123.235 229.363 125.109C228.329 125.924 227.449 126.724 226.745 127.455C213.72 87.9848 212.341 60.048 218.521 40.8073C224.8 21.2613 238.958 10.4568 257.303 5.59513C275.727 0.712678 298.324 1.85252 321.151 6.29788C343.952 10.7383 366.847 18.4498 385.796 26.5836Z" stroke="#D1D4D8" stroke-width="3"/>
<path d="M342.473 191.415C322.867 191.415 306.973 175.521 306.973 155.915C306.973 136.309 322.867 120.415 342.473 120.415C362.079 120.415 377.973 136.309 377.973 155.915C377.973 175.521 362.079 191.415 342.473 191.415Z" stroke="#D1D4D8" stroke-width="3"/>
<path d="M343.973 172.915C339.278 172.915 335.473 168.214 335.473 162.415C335.473 156.616 339.278 151.915 343.973 151.915C348.667 151.915 352.473 156.616 352.473 162.415C352.473 168.214 348.667 172.915 343.973 172.915Z" fill="#D1D4D8"/>
<path d="M215.973 155.915C215.973 175.49 232.06 191.415 251.973 191.415C271.886 191.415 287.973 175.49 287.973 155.915C287.973 136.339 271.886 120.415 251.973 120.415C232.06 120.415 215.973 136.339 215.973 155.915Z" stroke="#D1D4D8" stroke-width="3"/>
<path d="M250.973 172.915C245.174 172.915 240.473 168.214 240.473 162.415C240.473 156.616 245.174 151.915 250.973 151.915C256.772 151.915 261.473 156.616 261.473 162.415C261.473 168.214 256.772 172.915 250.973 172.915Z" fill="#D1D4D8"/>
<path d="M287.473 155.915H306.473" stroke="#D1D4D8" stroke-width="3" stroke-linecap="round"/>
<path d="M378.473 150.915L404.473 156.915" stroke="#D1D4D8" stroke-width="3" stroke-linecap="round"/>
<path d="M228.938 619.915C237.058 643.915 233 701.915 197.473 741.915" stroke="#D1D4D8" stroke-width="3" stroke-linecap="round"/>
<path d="M419.016 631.915C408.607 652.505 401.492 720.086 426.473 765.915" stroke="#D1D4D8" stroke-width="3" stroke-linecap="round"/>
<path d="M418.473 630.825C381.64 635.619 292.073 640.148 228.473 619.915" stroke="#D1D4D8" stroke-width="3" stroke-linecap="round"/>
<path d="M423.473 333.915C533.727 395.293 651.551 555.873 425.941 759.915" stroke="#D1D4D8" stroke-width="3" stroke-linecap="round"/>
<path d="M442.473 639.915C463.145 608.57 463.504 602.718 465.473 562.915" stroke="#D1D4D8" stroke-width="3" stroke-linecap="round"/>
<path d="M144.473 446.915C179.806 556.486 145.987 645.234 197.473 741.915" stroke="#D1D4D8" stroke-width="3" stroke-linecap="round"/>
<path d="M85.015 615.118C116.07 611.077 138.38 546.43 134.207 496.172C131.731 466.348 130.586 431.603 134.074 406.854C120.936 351.16 91.7238 354.536 78.7597 363.186C34.8363 415.504 27.1731 501.252 34.2669 539.414C38.2435 566.332 53.9603 619.158 85.015 615.118Z" stroke="#D1D4D8" stroke-width="3" stroke-linecap="round"/>
<path d="M280.473 240.489C286.306 247.155 302.973 256.489 322.973 240.489" stroke="#D1D4D8" stroke-width="3" stroke-linecap="round"/>
<path d="M139.477 253.995C139.649 256.058 139.005 258.865 136.477 260.442" stroke="#D1D4D8" stroke-width="3" stroke-linecap="round"/>
<path d="M136.477 260.442C134.196 261.865 130.38 262.287 124.243 260.257C123.751 260.094 123.213 260.109 122.754 260.349C116.949 263.386 109.115 272.062 119.477 285.495C132.977 302.995 139.977 275.889 136.477 260.442Z" stroke="#D1D4D8" stroke-width="3" stroke-linecap="round"/>
<path d="M64.2416 253.995C60.1631 243.495 52.3432 216.46 64.2416 212.995C79.974 208.415 76.477 260.995 83.477 253.995C90.477 246.995 76.477 188.495 95.477 195.495C108.682 200.36 105.987 227.968 101.884 246.386C101.433 248.409 104.354 250.227 106.12 249.142C114.62 243.918 127.726 241.008 139.477 253.995C145.144 252.495 156.077 254.095 154.477 272.495C152.877 290.895 140.81 311.828 134.977 319.995C128.644 327.828 116.477 346.495 118.477 358.495" stroke="#D1D4D8" stroke-width="3" stroke-linecap="round"/>
<path d="M79.4758 354.495C81.8091 349.829 84.4758 337.595 76.4758 325.995C66.4758 311.495 30.9758 242.995 49.9758 237.995C57.9726 236.915 59.5994 245.565 64.2402 253.995C66.5136 258.125 67.9726 262.415 71.4726 267.915" stroke="#D1D4D8" stroke-width="3" stroke-linecap="round"/>
<path d="M79.9727 628.915C96.3061 636.915 134.373 641.215 155.973 594.415" stroke="#D1D4D8" stroke-width="3" stroke-linecap="round"/>
<path d="M133.973 406.415C137.14 399.248 163.973 342.215 191.973 327.415" stroke="#D1D4D8" stroke-width="3" stroke-linecap="round"/>
</svg>
