<svg width="826" height="1654" viewBox="0 0 826 1654" fill="none" xmlns="http://www.w3.org/2000/svg">
<path d="M789.602 608.569C787.954 612.047 783.158 612.436 780.97 609.269L767.922 590.384C765.734 587.217 767.795 582.869 771.631 582.558L794.511 580.701C798.347 580.389 801.082 584.348 799.434 587.826L789.602 608.569Z" fill="#D1D4D8"/>
<path d="M24.0225 588.204C26.095 584.96 30.9014 585.177 32.674 588.593L43.2456 608.969C45.0182 612.385 42.4276 616.44 38.5825 616.266L15.6508 615.234C11.8057 615.061 9.58995 610.79 11.6625 607.547L24.0225 588.204Z" fill="#D1D4D8"/>
<path d="M451.947 927.5C488.246 974.917 544.016 983.854 573.447 972C625.116 945.921 588.299 839.63 573.447 779C561.199 729 524.447 664.5 420.947 652.5" stroke="#D1D4D8" stroke-width="3" stroke-linecap="round"/>
<path d="M228.529 902.5C335.447 883.5 349.603 919.733 342.502 946.439C307.455 967.788 251.918 980.242 228.529 983.8C195.55 991.367 137.162 982.4 167.448 886C205.305 765.5 222.447 677.5 348.947 654" stroke="#D1D4D8" stroke-width="3" stroke-linecap="round"/>
<path d="M452.947 920.5C462.565 916.223 478.424 903.436 487.15 885.471" stroke="#D1D4D8" stroke-width="3" stroke-linecap="round"/>
<path d="M487.15 885.471C504.505 890.828 524.692 897.257 538.15 910.471" stroke="#D1D4D8" stroke-width="3" stroke-linecap="round"/>
<path d="M488.65 779.971C488.65 823.971 492.65 849.471 505.151 890.471" stroke="#D1D4D8" stroke-width="3" stroke-linecap="round"/>
<path d="M282.264 796.471C282.264 841.067 275.095 857.896 255.947 898.38" stroke="#D1D4D8" stroke-width="3" stroke-linecap="round"/>
<path d="M369.648 869.235C368.209 855.658 369.216 825.906 381.875 823.939C394.535 821.973 405.612 821.481 409.568 821.481C414.962 821.247 425.823 824.923 426.111 841.496C426.399 858.069 425.032 874.385 424.313 880.471" stroke="#D1D4D8" stroke-width="3" stroke-linecap="round"/>
<path d="M379.15 813.916L367.086 785.471M365.667 822.093L357.505 806.805M356.441 833.471L346.15 824.227" stroke="#D1D4D8" stroke-width="3" stroke-linecap="round"/>
<path d="M334.15 910.421C335.46 898.522 341.438 873.523 354.871 868.716C368.304 863.909 370.472 869.069 369.876 872.25C367.375 880.968 364.374 897.98 372.377 896.284C380.38 894.587 392.86 877.198 398.1 868.716C400.6 864.004 407.174 857.406 413.462 868.716C415.559 872.488 415.197 876.967 413.462 881.538C409.993 890.673 401.036 900.173 395.242 905.12" stroke="#D1D4D8" stroke-width="3" stroke-linecap="round"/>
<path d="M413.462 881.538C418.507 878.331 426.951 876.621 421.961 894.163C421.768 894.841 420.964 896.284 417.392 900.878L398.1 921.377" stroke="#D1D4D8" stroke-width="3" stroke-linecap="round"/>
<path d="M421.961 894.163C428.824 901.232 427.466 907.099 416.32 917.843C413.802 920.27 411.273 922.502 408.817 924.528C400.402 931.472 392.844 935.994 389.525 937.635" stroke="#D1D4D8" stroke-width="3" stroke-linecap="round"/>
<path d="M408.817 924.529C408.46 931.489 404.53 945.552 391.668 946.118C375.592 946.825 348.44 941.523 341.295 946.471" stroke="#D1D4D8" stroke-width="3" stroke-linecap="round"/>
<path d="M485.15 888.566C484.093 877.813 480.359 854.321 473.877 846.38C467.395 838.44 463.426 839.29 462.252 840.708" stroke="#D1D4D8" stroke-width="3" stroke-linecap="round"/>
<path d="M462.252 856.661C463.191 849.689 462.463 833.76 452.036 825.819C445.751 821.033 443.075 821.329 442.172 823.2C441.577 824.433 441.753 826.35 442.172 827.946C444.521 833.027 448.936 845.175 447.809 853.116" stroke="#D1D4D8" stroke-width="3" stroke-linecap="round"/>
<path d="M442.173 823.2C437.476 819.11 427.096 813.908 423.15 825.819" stroke="#D1D4D8" stroke-width="3" stroke-linecap="round"/>
<path d="M452.036 920.471C445.93 918.699 427.729 907.709 423.502 889.275" stroke="#D1D4D8" stroke-width="3" stroke-linecap="round"/>
<circle cx="15.5" cy="474.5" r="15.5" fill="#D1D4D8"/>
<path d="M40.9745 475.824C67.1959 473.125 108.34 476.317 113.203 496.6C118.066 516.883 99.4962 524.301 89.6036 525.475C51.9401 531.461 2 528.644 2 496.6" stroke="#D1D4D8" stroke-width="3" stroke-linecap="round"/>
<circle cx="31.0391" cy="500.585" r="5.5" fill="#D1D4D8"/>
<circle cx="56.0391" cy="500.585" r="5.5" fill="#D1D4D8"/>
<circle cx="82.0391" cy="500.585" r="5.5" fill="#D1D4D8"/>
<circle cx="740.5" cy="661.5" r="14.5" fill="#D1D4D8"/>
<path d="M764.076 651C772.869 651 797.996 651 809.815 651C819.389 651 823.998 653.118 823.998 667.942C823.998 682.345 823.88 701.002 823.998 708.532C824.081 713.826 821.445 719.685 812.652 720.532C803.858 721.379 768.566 720.885 752.02 720.532C745.874 720.532 735 717.048 735 702.884L735 687.001" stroke="#D1D4D8" stroke-width="3" stroke-linecap="round"/>
<path d="M758 676L780 691" stroke="#D1D4D8" stroke-width="3" stroke-linecap="round"/>
<path d="M780 691L820 654" stroke="#D1D4D8" stroke-width="3" stroke-linecap="round"/>
<path d="M750 704L766.127 682M790.139 682L812 704" stroke="#D1D4D8" stroke-width="3" stroke-linecap="round"/>
<path d="M318.01 1541C319.676 1555 316.327 1576.8 300.727 1584C281.227 1593 231.227 1623.5 279.227 1630C317.627 1635.2 348.56 1608.83 359.227 1595C362.893 1579 365.51 1560.5 359.227 1541" stroke="#D1D4D8" stroke-width="3" stroke-linecap="round"/>
<path d="M394.542 1514C221.8 1622 248.629 1230.32 260.447 1040C385.883 1079 487.451 1054 509.951 1018.5C516.342 1041.16 536.135 1203.37 537.8 1249.5C540.47 1323.5 547.568 1496.98 449.299 1532C425.061 1540.64 407.375 1532.88 394.542 1514Z" fill="#D1D4D8"/>
<path d="M410.009 1541.5C409.112 1551.42 409.331 1574.56 412.941 1587.5C422.074 1620.24 449.713 1654.87 516.509 1652C525.509 1649.83 538.109 1640.7 516.509 1621.5C508.622 1614.49 500.053 1608.08 492.009 1601.45C472.517 1585.39 456.116 1568.09 460.009 1538" stroke="#D1D4D8" stroke-width="3" stroke-linecap="round"/>
<path d="M251.447 980.5C254.947 1020 256.447 1017.5 262.447 1040C323.114 1058 457.347 1078.7 508.947 1017.5C511.281 1006.83 515.247 982.6 512.447 971" stroke="#D1D4D8" stroke-width="3" stroke-linecap="round"/>
<path d="M313.947 745L321.977 732.675C329.804 720.662 345.036 715.866 358.332 721.228L377.469 728.944C389.408 733.759 403.088 730.419 411.466 720.645L433.447 695" stroke="#D1D4D8" stroke-width="3" stroke-linecap="round"/>
<path d="M424.447 654.415C428.947 641.415 424.848 632.667 420.848 631C396.848 653 360.447 644.833 346.947 631.5C342.147 635.9 344.947 648.915 346.947 652.915C372.947 681.715 409.947 665.581 424.447 654.415Z" fill="#D1D4D8"/>
<path d="M493.391 450.021C482.391 489.521 476.891 493.021 460.891 510.521C460.891 493.226 457.919 464.196 457.919 452.108C405.53 452.108 361.317 430.722 345.758 420.029C346.316 456.292 312.319 480.003 312.319 480.003C312.319 480.003 317.196 494.648 319.982 527.425C322.212 553.646 315.802 548.579 312.319 542.767C302.287 510.409 285.846 519.056 278.879 527.425C193.391 388.521 324.858 361.681 349.938 364.238C368.887 348.059 395.313 335.38 413.891 333.521C480.891 326.814 511.227 385.973 493.391 450.021Z" stroke="#D1D4D8" stroke-width="3" stroke-linecap="round"/>
<path d="M313.49 567.49C322.49 622.435 382.898 661.944 426.49 617.435C470.082 572.926 461.359 491.454 456.702 453.435" stroke="#D1D4D8" stroke-width="3" stroke-linecap="round"/>
<path d="M277.891 524.021C272.391 537.521 277.551 567.435 313.491 567.435" stroke="#D1D4D8" stroke-width="3" stroke-linecap="round"/>
<path d="M293.742 531.435C292.946 534.324 293.583 541.169 302.49 545.435" stroke="#D1D4D8" stroke-width="3" stroke-linecap="round"/>
<path d="M455.49 560.435C467.221 555.545 475.49 537.435 472.309 508.435" stroke="#D1D4D8" stroke-width="3" stroke-linecap="round"/>
<path d="M389.49 593.435C400.99 596.435 400.263 588.18 408.99 580.935" stroke="#D1D4D8" stroke-width="3" stroke-linecap="round"/>
<circle cx="424.039" cy="522.585" r="7.5" fill="#D1D4D8"/>
<circle cx="358.039" cy="523.585" r="7.5" fill="#D1D4D8"/>
<path d="M341.49 507.435C343.069 502.788 349.878 494.192 364.49 496.98" stroke="#D1D4D8" stroke-width="3" stroke-linecap="round"/>
<path d="M411.49 498.435C414.975 495.417 424.454 491.191 434.49 498.435" stroke="#D1D4D8" stroke-width="3" stroke-linecap="round"/>
<path d="M387.297 519.435C386.133 529.309 385.341 549.333 391.49 550.435" stroke="#D1D4D8" stroke-width="3" stroke-linecap="round"/>
<path d="M91.3672 411.5C137.237 343.983 204.303 292.03 283 265.206" stroke="#D1D4D8" stroke-width="3" stroke-linecap="round"/>
<path d="M781.535 573C760.413 417.319 644.886 291.635 494.5 255.494" stroke="#D1D4D8" stroke-width="3" stroke-linecap="round"/>
<path d="M755.899 770.5C730.442 831.526 689.508 884.481 638 924.463" stroke="#D1D4D8" stroke-width="3" stroke-linecap="round"/>
<path d="M26 624.5C26 716.245 58.5554 800.385 112.744 866" stroke="#D1D4D8" stroke-width="3" stroke-linecap="round"/>
<path d="M363.5 266.5C372.167 279.167 395.5 292.5 416 265" stroke="#D1D4D8" stroke-width="3" stroke-linecap="round"/>
<path d="M359.5 254.5C369.333 259.833 394.6 267 417 253" stroke="#D1D4D8" stroke-width="3" stroke-linecap="round"/>
<path d="M356.5 243C367.167 249.167 395.1 257.8 421.5 243" stroke="#D1D4D8" stroke-width="3" stroke-linecap="round"/>
<path d="M346.503 192.999C356.156 203.492 356.768 216.684 356.913 227.847C356.962 231.619 359.141 235.065 362.671 236.396C383.889 244.394 403.892 241.122 415.561 236.859C419.539 235.406 421.468 231.2 421.219 226.972C420.146 208.776 427 196.298 431.003 191.999C451.403 169.599 465.502 137.499 463.503 118.499C458.086 66.9995 399.501 29.2096 357.005 56.4963C278.471 106.922 340.504 186.478 346.503 192.999Z" stroke="#D1D4D8" stroke-width="3" stroke-linecap="round"/>
<path d="M357.453 166.135C357.147 155.215 357.812 129.028 364.903 101.868C364.965 101.632 365.109 101.427 365.313 101.292C378.293 92.7331 398.481 85.1556 409.63 81.5526C410.59 81.2425 411.347 82.4115 410.713 83.1963C397.139 100.015 390.81 122.733 388.898 134.658C388.748 135.595 389.895 136.163 390.616 135.548C401.153 126.568 417.435 122.469 426.326 121.255C427.176 121.139 427.72 122.095 427.226 122.797C404.084 155.73 391.682 188.116 387.424 203.419C387.15 204.403 385.759 204.41 385.513 203.418C381.427 186.935 382.734 168.337 384.197 159.239C384.32 158.471 383.571 157.844 382.841 158.114L358.791 167.022C358.154 167.258 357.472 166.814 357.453 166.135Z" stroke="#D1D4D8" stroke-width="3" stroke-linecap="round"/>
<path d="M306 207.5L319 197.5" stroke="#D1D4D8" stroke-width="3" stroke-linecap="round"/>
<path d="M306 168L279.5 180.5" stroke="#D1D4D8" stroke-width="3" stroke-linecap="round"/>
<path d="M276.5 145C278.9 145 291.5 142 297.5 140.5" stroke="#D1D4D8" stroke-width="3" stroke-linecap="round"/>
<path d="M297.5 117.5L266 114" stroke="#D1D4D8" stroke-width="3" stroke-linecap="round"/>
<path d="M301.5 85.5L279.5 75" stroke="#D1D4D8" stroke-width="3" stroke-linecap="round"/>
<path d="M322.5 63L297.5 39" stroke="#D1D4D8" stroke-width="3" stroke-linecap="round"/>
<path d="M339.5 47L316.5 8.5" stroke="#D1D4D8" stroke-width="3" stroke-linecap="round"/>
<path d="M368 36.5L362.5 8.5" stroke="#D1D4D8" stroke-width="3" stroke-linecap="round"/>
<path d="M401 34V2" stroke="#D1D4D8" stroke-width="3" stroke-linecap="round"/>
<path d="M433 39L442 21.5" stroke="#D1D4D8" stroke-width="3" stroke-linecap="round"/>
<path d="M462 63L488.5 39" stroke="#D1D4D8" stroke-width="3" stroke-linecap="round"/>
<path d="M482.5 89L501 83.5" stroke="#D1D4D8" stroke-width="3" stroke-linecap="round"/>
<path d="M482.5 121.5L515.5 117.5" stroke="#D1D4D8" stroke-width="3" stroke-linecap="round"/>
<path d="M485 148L503.5 153.5" stroke="#D1D4D8" stroke-width="3" stroke-linecap="round"/>
<path d="M476 171L496 182.5" stroke="#D1D4D8" stroke-width="3" stroke-linecap="round"/>
<path d="M462 194L476 207.5" stroke="#D1D4D8" stroke-width="3" stroke-linecap="round"/>
</svg>
