<svg width="1553" height="1311" viewBox="0 0 1553 1311" fill="none" xmlns="http://www.w3.org/2000/svg">
<path d="M402.201 802.401L400.658 815.522C400.201 815.364 399.702 815.226 399.172 815.104C397.514 814.724 395.392 814.471 392.959 814.331C388.082 814.051 381.775 814.217 375.045 814.834C362.275 816.003 347.675 818.824 338.336 823.496C318.853 787.472 316.909 762.394 321.943 744.686C326.606 728.28 337.335 717.912 346.367 710.87C345.616 764.608 381.77 794.073 402.201 802.401Z" stroke="#D1D4D8" stroke-width="3"/>
<path d="M465.331 789.333C483.373 776.05 496.428 753.497 501.486 742.266C503.878 743.728 506.445 744.198 508.745 744.162C511.543 744.118 514.023 743.327 515.508 742.574L515.58 742.537L515.647 742.493C519.525 739.969 526.104 731.213 524.98 715.435C524.696 711.439 523.746 708.503 522.228 706.479C520.673 704.409 518.617 703.422 516.444 703.186C514.322 702.956 512.135 703.441 510.181 704.197C508.362 704.9 506.66 705.87 505.27 706.849L480.239 709.546C480.432 697.477 476.821 689.164 472.003 683.68C467.678 678.757 462.445 676.188 458.318 675.206C459.411 672.208 459.754 669.504 459.508 667.072C459.216 664.17 458.096 661.751 456.575 659.764C453.572 655.84 448.99 653.576 445.99 652.346L444.962 651.924L444.259 652.786C436.491 662.306 426.426 666.437 421.405 668.497C421.177 668.591 420.959 668.68 420.753 668.766C373.745 681.029 345.408 664.163 332.388 643.504L332.375 643.483L332.361 643.462C325.354 633.125 322.322 615.581 326.165 599.071C329.989 582.641 340.563 567.457 360.545 561.499L360.601 561.483L360.655 561.462C367.195 558.945 378.308 556.631 390.209 557.95C402.077 559.265 414.661 564.18 424.35 576.048L425.026 576.876L426.03 576.507C440.465 571.202 452.908 571.046 463.577 574.063C474.264 577.086 483.279 583.324 490.78 590.976C505.813 606.309 514.593 627.14 518.385 638.294L518.404 638.35L518.428 638.405L527.254 658.887L527.561 659.599L528.319 659.76C566.139 667.805 586.591 689.652 595.997 713.331C605.441 737.108 603.756 762.761 597.183 778.26L598.564 778.846L597.183 778.26C594.12 785.486 592.447 789.134 590.492 792.015C588.55 794.878 586.304 797.02 581.92 801.184L581.92 801.185L581.516 801.569C568.547 813.892 556.547 819.928 546.565 823.037C538.458 825.562 531.688 826.164 526.618 826.616C525.523 826.713 524.508 826.804 523.575 826.905C490.517 819.189 474.454 820.343 460.714 824.034L465.331 789.333Z" stroke="#D1D4D8" stroke-width="3"/>
<path d="M478.278 711.569C475.242 728.853 460.358 740.197 445.482 737.584C430.606 734.971 420.479 719.233 423.516 701.949C426.552 684.665 441.436 673.321 456.312 675.934C471.188 678.548 481.315 694.285 478.278 711.569Z" stroke="#D1D4D8" stroke-width="3"/>
<path d="M404.15 709.196C401.114 726.48 386.23 737.824 371.354 735.211C356.477 732.598 346.351 716.86 349.387 699.576C352.423 682.292 367.307 670.948 382.184 673.561C397.06 676.175 407.186 691.912 404.15 709.196Z" stroke="#D1D4D8" stroke-width="3"/>
<path d="M405.041 702.707L423.433 703.845" stroke="#D1D4D8" stroke-width="3" stroke-linecap="round"/>
<path d="M398.326 773.067C402.016 777.146 412.31 782.857 423.965 773.067" stroke="#D1D4D8" stroke-width="3" stroke-linecap="round"/>
<path d="M415.331 720.627C409.94 734.47 398.918 746.023 411.104 754.79" stroke="#D1D4D8" stroke-width="3" stroke-linecap="round"/>
<path d="M365.285 732.714C370.04 733.549 374.571 730.372 375.406 725.617C376.242 720.863 373.064 716.331 368.31 715.496C363.555 714.661 359.024 717.838 358.189 722.593C357.354 727.347 360.531 731.878 365.285 732.714Z" fill="#D1D4D8"/>
<path d="M438.268 734.886C443.022 735.721 447.554 732.544 448.389 727.789C449.224 723.035 446.047 718.503 441.292 717.668C436.538 716.833 432.007 720.01 431.171 724.765C430.336 729.519 433.513 734.05 438.268 734.886Z" fill="#D1D4D8"/>
<path d="M512.679 718.795C513.615 721.326 514.522 727.165 510.662 730.273" stroke="#D1D4D8" stroke-width="3" stroke-linecap="round"/>
<path d="M356.459 668.451C345.483 689.399 335.61 740.581 379.445 784.725C423.28 828.87 470.271 787.468 488.287 761.248L501.029 739.23C506.321 743.907 517.927 748.115 522.016 727.534C526.105 706.954 518.037 704.156 513.492 705.33C511.029 705.883 505.63 708.327 503.744 713.675" stroke="#D1D4D8" stroke-width="3" stroke-linecap="round"/>
<path d="M478.646 710.451L508.753 707.457" stroke="#D1D4D8" stroke-width="3" stroke-linecap="round"/>
<path d="M446.377 705.554C451.13 706.231 460.595 710.038 460.431 719.847" stroke="#D1D4D8" stroke-width="3" stroke-linecap="round"/>
<path d="M361.004 699.824C364.631 698.23 373.499 696.33 379.957 701.48" stroke="#D1D4D8" stroke-width="3" stroke-linecap="round"/>
<path d="M301.477 981.628C298.567 993.697 295.132 1028.35 304.845 1043.92" stroke="#D1D4D8" stroke-width="3" stroke-linecap="round"/>
<path d="M400.676 817.261C365.711 810.775 297.519 828.613 291 887.016" stroke="#D1D4D8" stroke-width="3" stroke-linecap="round"/>
<path d="M489.489 941.33C487.743 931.791 484.833 912.596 498.803 893.44" stroke="#D1D4D8" stroke-width="3" stroke-linecap="round"/>
<path d="M459.923 826.016C534.386 813.694 552.516 846.445 566.114 902.868C581.118 965.127 563.2 1052.68 489.489 1077C453.518 1077.05 410.389 1061.44 369.272 1015.07C362.084 1006.96 353.214 994.247 365.387 984.908C380.603 973.234 462.075 983.611 489.489 1006.96" stroke="#D1D4D8" stroke-width="3" stroke-linecap="round"/>
<path d="M288.697 887.694C279.124 893.94 286.503 922.928 290.492 934.539L293.963 933.224L292.992 928.678L293.316 924.131C295.11 919.327 305.469 915.723 311.452 924.131C317.301 932.351 324.73 939.394 328.783 941.145C344.578 950.274 341.746 935.34 338.355 926.732C336.361 922.728 330.697 909.075 328.783 896.102C326.868 883.13 318.612 881.689 313.825 881.088C309.438 880.688 298.27 881.448 288.697 887.694Z" fill="#D1D4D8"/>
<path d="M253.918 904L273.168 902.263" stroke="#D1D4D8" stroke-width="3" stroke-linecap="round"/>
<path d="M273.75 891.842L244 886.632" stroke="#D1D4D8" stroke-width="3" stroke-linecap="round"/>
<path d="M279.001 883.158L260.918 871" stroke="#D1D4D8" stroke-width="3" stroke-linecap="round"/>
<path d="M306.271 876.14C303.043 875.176 296.47 875.678 296 885.397" stroke="#D1D4D8" stroke-width="3" stroke-linecap="round"/>
<path d="M317.311 869.777C314.207 868.984 308.47 869.495 306.27 876.14C305.795 877.574 305.485 879.294 305.402 881.347" stroke="#D1D4D8" stroke-width="3" stroke-linecap="round"/>
<path d="M335.375 923C334.983 919.336 336.698 912.857 340.076 909.116C344.777 903.909 346.148 894.074 346.54 888.289C346.932 885.975 348.335 879.688 343.014 879.033C338.313 878.455 337.725 882.504 337.137 885.397C336.942 889.06 331.261 892.211 331.261 883.083C331.261 876.14 331.849 874.405 331.849 867.463C331.849 859.942 333.024 853 324.209 853C317.157 853.579 318.332 858.207 317.313 869.777C317.224 872.211 317.347 874.905 317.745 877.876" stroke="#D1D4D8" stroke-width="3" stroke-linecap="round"/>
<path d="M286.77 914C275.821 931.255 259.473 983.796 293 1028.01" stroke="#D1D4D8" stroke-width="3" stroke-linecap="round"/>
<path d="M297.429 965.041C294.706 968.931 292.168 977.76 303.798 981.96C315.429 986.161 346.164 1001.62 356.825 1009.01" stroke="#D1D4D8" stroke-width="3" stroke-linecap="round"/>
<path d="M296.82 951.039C293.913 953.956 290.873 959.44 297.429 965.041C299.771 967.042 303.308 969.033 308.451 970.875" stroke="#D1D4D8" stroke-width="3" stroke-linecap="round"/>
<path d="M310.777 945.205C307.675 939.954 293.257 929.453 288.679 938.787C286.962 942.288 288.098 946.955 296.82 951.039L307.288 958.623" stroke="#D1D4D8" stroke-width="3" stroke-linecap="round"/>
<path d="M372.999 972.042C370.673 959.79 359.043 952.206 353.809 930.036C352.01 922.42 349.738 915.451 342.759 916.034C337.177 916.501 335.2 923.618 336.363 928.286C339.271 935.287 342.178 946.489 332.874 944.622C323.569 942.755 314.652 931.786 311.357 926.536C308.643 921.868 300.308 916.618 293.911 925.952C292.749 927.649 292.167 932.774 299.145 936.041" stroke="#D1D4D8" stroke-width="3" stroke-linecap="round"/>
<path d="M499 924C490.415 937.237 482.024 958.69 475 997" stroke="#D1D4D8" stroke-width="3" stroke-linecap="round"/>
<path d="M518 1078.12C460.184 1096.14 387.392 1083.46 340.088 1064.27C298.04 1044.51 247.816 999.745 180.071 1028.23C150.871 1042.96 122.008 1063.36 90.2387 1134.06C81.3743 1155.26 75.6448 1179 118.778 1182.23C136.939 1175.12 150.5 1183.73 234 1089.73" stroke="#D1D4D8" stroke-width="3" stroke-linecap="round"/>
<path d="M390.896 1222.75C337.557 1227.48 217.798 1221.36 165.471 1159.04" stroke="#D1D4D8" stroke-width="3" stroke-linecap="round"/>
<path d="M518 1078.12C516.248 1122.88 501.272 1215.93 397.904 1222.4C395.554 1222.55 393.217 1222.67 390.896 1222.75C310.726 1225.77 241.69 1184.82 204.719 1122.42" stroke="#D1D4D8" stroke-width="3" stroke-linecap="round"/>
<path d="M243 1020.56C198.883 1008.16 103.357 1014.95 60.0934 1120.26C53.6969 1138.17 46.4771 1160.5 85.068 1166.01" stroke="#D1D4D8" stroke-width="3" stroke-linecap="round"/>
<path d="M32.3892 1176.54C39.5013 1154.22 71.3832 1164.43 89.2875 1172.33C97.0464 1179.83 112.995 1182.14 120 1182.36C120 1194.35 116.91 1199.92 112.434 1203C110.683 1204.93 99.006 1207.16 66.3113 1200.69C33.6166 1194.22 30.638 1183.47 32.3892 1176.54Z" fill="#D1D4D8"/>
<path d="M5.05469 1143.13C11.594 1130.03 40.4759 1140.98 54.6834 1147.81C57.786 1159.83 76.2279 1165.08 85.061 1166.21L87 1171.72C52.0979 1156.47 36.2626 1165.89 33.6772 1174.01C24.1407 1170.69 -1.48465 1156.24 5.05469 1143.13Z" fill="#D1D4D8"/>
<path d="M404 1122C386.656 1104.56 347.575 1067.55 330 1059" stroke="#D1D4D8" stroke-width="3" stroke-linecap="round"/>
<path d="M518 1078C518 1073.74 518 1066.82 518 1063" stroke="#D1D4D8" stroke-width="3" stroke-linecap="round"/>
<path d="M406.112 817.322C415.098 822.82 435.144 830.519 443.439 817.322C453.808 800.826 463.139 820.391 458.992 833.05C454.844 845.71 419.643 866.782 396 820.563" stroke="#D1D4D8" stroke-width="3" stroke-linecap="round"/>
<path d="M423.194 848C416.096 851.521 402.559 862.717 405.203 879.328" stroke="#D1D4D8" stroke-width="3" stroke-linecap="round"/>
<path d="M430.712 870.221C419.983 884.38 407.767 887.292 403 886.978" stroke="#D1D4D8" stroke-width="3" stroke-linecap="round"/>
<path d="M427.967 850.914C427.171 855.323 427.346 862.806 430.712 870.221C433.557 876.488 438.681 882.706 447.427 886.978" stroke="#D1D4D8" stroke-width="3" stroke-linecap="round"/>
<path d="M440.818 849.093C447.059 854.314 457.34 868.327 452.934 886.978" stroke="#D1D4D8" stroke-width="3" stroke-linecap="round"/>
<path d="M1425.98 254C1426.24 243.505 1423.48 218.823 1410.44 204.057C1394.14 185.6 1393 174.381 1393 140" stroke="#D1D4D8" stroke-width="3" stroke-linecap="round"/>
<path d="M1432 151C1426.25 149.937 1416.47 142.848 1423.37 123" stroke="#D1D4D8" stroke-width="3" stroke-linecap="round"/>
<path d="M1518.87 120.326C1518.64 123.934 1516.35 131.296 1509 131.874" stroke="#D1D4D8" stroke-width="3" stroke-linecap="round"/>
<path d="M1509 151C1522.61 142.941 1544.46 123.141 1522.95 108.417C1520 106.252 1513.08 104.952 1509 117.078" stroke="#D1D4D8" stroke-width="3" stroke-linecap="round"/>
<path d="M1476 98C1473.26 97.2454 1466.24 96.1889 1460 98" stroke="#D1D4D8" stroke-width="3" stroke-linecap="round"/>
<path d="M1412 102C1408.75 101.245 1400.41 100.189 1393 102" stroke="#D1D4D8" stroke-width="3" stroke-linecap="round"/>
<path d="M1496.6 18.922L1496.81 19.0115L1497.03 19.035C1517.13 21.1225 1530.45 26.4736 1538.87 33.6111C1547.24 40.7132 1550.88 49.6978 1551.43 59.3971C1552.48 78.1345 1541.92 99.4698 1531.2 114.182C1526.62 106.418 1519.26 105.198 1514.73 105.77C1512.57 78.0848 1502.72 65.3662 1490.55 61.3201C1478.55 57.326 1465.02 62.0724 1456.17 67.5698C1438.15 66.91 1426.63 70.1499 1419.55 74.6739C1413.69 78.4216 1410.89 83.0564 1410.07 86.9667C1402.54 82.9986 1395.58 83.5271 1390.27 85.4735C1387.39 86.5263 1385 87.9902 1383.25 89.3677C1382.7 89.7954 1382.22 90.2187 1381.79 90.6238C1372.57 62.4888 1371.65 42.61 1376.05 28.9398C1380.54 14.9849 1390.66 7.26615 1403.84 3.78327C1417.09 0.279792 1433.38 1.09164 1449.88 4.29688C1466.35 7.49721 1482.9 13.0566 1496.6 18.922Z" stroke="#D1D4D8" stroke-width="3"/>
<path d="M1465.5 137.5C1451.69 137.5 1440.5 126.307 1440.5 112.5C1440.5 98.6929 1451.69 87.5 1465.5 87.5C1479.31 87.5 1490.5 98.6929 1490.5 112.5C1490.5 126.307 1479.31 137.5 1465.5 137.5Z" stroke="#D1D4D8" stroke-width="3"/>
<path d="M1466.5 125C1462.91 125 1460 121.418 1460 117C1460 112.582 1462.91 109 1466.5 109C1470.09 109 1473 112.582 1473 117C1473 121.418 1470.09 125 1466.5 125Z" fill="#D1D4D8"/>
<path d="M1374.5 112.5C1374.5 126.265 1385.87 137.5 1400 137.5C1414.13 137.5 1425.5 126.265 1425.5 112.5C1425.5 98.7352 1414.13 87.5 1400 87.5C1385.87 87.5 1374.5 98.7352 1374.5 112.5Z" stroke="#D1D4D8" stroke-width="3"/>
<path d="M1399.5 125C1395.36 125 1392 121.418 1392 117C1392 112.582 1395.36 109 1399.5 109C1403.64 109 1407 112.582 1407 117C1407 121.418 1403.64 125 1399.5 125Z" fill="#D1D4D8"/>
<path d="M1426 112H1439" stroke="#D1D4D8" stroke-width="3" stroke-linecap="round"/>
<path d="M1491 109L1510 113" stroke="#D1D4D8" stroke-width="3" stroke-linecap="round"/>
<path d="M1421 173C1425.12 178.282 1436.88 185.678 1451 173" stroke="#D1D4D8" stroke-width="3" stroke-linecap="round"/>
<path d="M1349.9 172H1175C1133.58 172 1100 205.579 1100 247C1100 288.421 1133.58 322 1175 322H1382C1423.42 322 1457 288.421 1457 247" stroke="#D1D4D8" stroke-width="3" stroke-linecap="round"/>
<path d="M1162 277H1273.21M1162 216H1329.74H1162ZM1162 247.812H1396H1162Z" stroke="#D1D4D8" stroke-width="3" stroke-linecap="round"/>
<path d="M1343.97 611.002L1343.98 611.002C1347.82 624.883 1350.67 632.295 1353.9 637.751C1356.6 642.321 1359.58 645.551 1363.8 650.133C1363.83 650.16 1363.85 650.186 1363.88 650.213C1364.02 644.691 1364.45 638.157 1364.87 631.963C1364.91 631.281 1364.96 630.604 1365.01 629.933C1365.48 622.99 1365.91 616.694 1365.91 612.873V611.373H1367.41C1403.79 611.373 1434.52 596.441 1445.23 589.049L1447.62 587.395L1447.58 590.306C1447.39 602.591 1453.03 612.817 1458.83 620.037C1461.72 623.638 1464.62 626.462 1466.8 628.383C1467.89 629.343 1468.8 630.075 1469.43 630.565C1469.74 630.81 1469.99 630.993 1470.15 631.115C1470.23 631.175 1470.3 631.22 1470.34 631.249L1470.38 631.28L1470.39 631.287L1470.39 631.287L1343.97 611.002ZM1343.97 611.002C1337.8 588.749 1340.01 567.515 1349.37 552.494C1358.67 537.553 1375.17 528.551 1398.14 530.86L1398.14 530.86C1410.78 532.129 1429.04 540.877 1442.17 552.136L1442.66 552.555L1443.3 552.489C1447.44 552.066 1456.29 552.861 1466.36 555.875C1476.4 558.88 1487.47 564.037 1496.12 572.19C1504.74 580.313 1511 591.425 1511.47 606.483C1511.94 621.237 1506.86 639.924 1492.74 663.431C1490.08 660.843 1486.18 658.489 1481.87 659.07C1476.6 659.779 1471.71 664.694 1468.15 676.094C1467.6 676.992 1467 677.758 1466.48 678.199C1466.33 678.32 1466.22 678.395 1466.14 678.44C1466.08 678.354 1466.01 678.216 1465.93 678C1465.76 677.536 1465.6 676.83 1465.48 675.8C1465.26 673.742 1465.26 670.613 1465.65 666.036L1465.65 666.035C1466.62 654.55 1467.96 646.258 1469.05 640.853C1469.59 638.151 1470.07 636.17 1470.41 634.872C1470.59 634.223 1470.72 633.744 1470.82 633.432C1470.86 633.276 1470.9 633.161 1470.92 633.088C1470.93 633.051 1470.94 633.024 1470.95 633.007L1470.95 632.99L1470.95 632.988L1470.95 632.988M1343.97 611.002L1470.95 632.988M1470.95 632.988L1470.95 632.987L1470.95 632.988Z" stroke="#D1D4D8" stroke-width="3"/>
<path d="M1469 693.678C1462.64 732.062 1419.96 759.663 1389.16 728.569C1358.36 697.475 1364.52 640.559 1367.81 614" stroke="#D1D4D8" stroke-width="3" stroke-linecap="round"/>
<path d="M1493.7 663C1497.52 672.64 1493.94 694 1469 694" stroke="#D1D4D8" stroke-width="3" stroke-linecap="round"/>
<path d="M1482.8 669C1483.42 670.857 1482.93 675.257 1476 678" stroke="#D1D4D8" stroke-width="3" stroke-linecap="round"/>
<path d="M1369 689C1360.96 685.52 1355.29 672.635 1357.47 652" stroke="#D1D4D8" stroke-width="3" stroke-linecap="round"/>
<path d="M1415 711.567C1407.33 713.623 1407.82 707.965 1402 703" stroke="#D1D4D8" stroke-width="3" stroke-linecap="round"/>
<path d="M1391 668C1388.24 668 1386 665.538 1386 662.5C1386 659.462 1388.24 657 1391 657C1393.76 657 1396 659.462 1396 662.5C1396 665.538 1393.76 668 1391 668Z" fill="#D1D4D8"/>
<path d="M1437.5 668C1434.46 668 1432 665.761 1432 663C1432 660.239 1434.46 658 1437.5 658C1440.54 658 1443 660.239 1443 663C1443 665.761 1440.54 668 1437.5 668Z" fill="#D1D4D8"/>
<path d="M1449 652C1447.9 648.62 1443.16 642.368 1433 644.396" stroke="#D1D4D8" stroke-width="3" stroke-linecap="round"/>
<path d="M1400 645C1397.58 643.491 1390.98 641.378 1384 645" stroke="#D1D4D8" stroke-width="3" stroke-linecap="round"/>
<path d="M1417.35 660C1418.29 667.007 1418.92 681.218 1414 682" stroke="#D1D4D8" stroke-width="3" stroke-linecap="round"/>
<path d="M1336.6 698H1175C1133.58 698 1100 731.579 1100 773C1100 814.421 1133.58 848 1175 848H1363C1404.42 848 1438 814.421 1438 773" stroke="#D1D4D8" stroke-width="3" stroke-linecap="round"/>
<path d="M1162 803H1263.7M1162 742H1315.4H1162ZM1162 773.812H1376H1162Z" stroke="#D1D4D8" stroke-width="3" stroke-linecap="round"/>
<path d="M686 1224.94C707.507 1214.6 759.859 1194.59 797.211 1197.23C802.506 1197.45 810.504 1199.74 800.129 1207.13C789.753 1214.52 784.566 1218.34 783.269 1219.33C777.865 1223.95 772.569 1233.71 794.617 1235.82C822.176 1238.46 899.991 1209.77 1054 1230.87" stroke="#D1D4D8" stroke-width="3" stroke-linecap="round"/>
<path d="M3 1284.89C12.9354 1280.12 37.1198 1270.89 54.3744 1272.1C56.8209 1272.21 60.5154 1273.26 55.7225 1276.67C50.9295 1280.08 48.533 1281.85 47.9339 1282.3C45.4376 1284.43 42.9912 1288.94 53.1762 1289.92C65.9075 1291.13 101.855 1277.89 173 1287.63" stroke="#D1D4D8" stroke-width="3" stroke-linecap="round"/>
<path d="M961.738 912.238C944.507 915.71 952.587 939.012 939.957 945.213C924.883 952.615 919.693 910.942 921.654 893.253C922.216 885.498 931.41 882.048 932.65 893.253C933.968 905.156 918.932 951.311 901.7 933.501L890.195 920.425C886.998 916.556 880.696 911.18 875.37 920.425C870.044 929.67 861.558 926.615 857.98 923.931L846.738 915.899" stroke="#D1D4D8" stroke-width="3" stroke-linecap="round"/>
<path d="M853.795 864.794L723.133 842.66C722.146 842.493 721.553 843.719 722.297 844.389L783.151 899.193C783.225 899.26 783.302 899.314 783.394 899.351C788.701 901.52 809.513 893.277 820.31 888.423C820.871 888.171 821.525 888.477 821.693 889.069C824.264 898.128 827.406 906.53 828.956 910.342C829.133 910.777 829.616 911.03 829.966 910.717C833.063 907.941 833.455 890.902 833.229 881.419C833.217 880.905 833.592 880.468 834.097 880.376C842.104 878.925 853.094 871.795 857.738 868.288" stroke="#D1D4D8" stroke-width="3" stroke-linecap="round"/>
<path d="M821.738 889.085C807.753 882.385 772.374 865.606 742.738 852.085" stroke="#D1D4D8" stroke-width="3" stroke-linecap="round"/>
<path d="M829.738 911.085L803.738 897.085" stroke="#D1D4D8" stroke-width="3" stroke-linecap="round"/>
<path d="M823.738 875.085L788.738 864.085" stroke="#D1D4D8" stroke-width="3" stroke-linecap="round"/>
<path d="M464.738 525.048C483.077 523.377 526.289 534.313 555.155 590.554C555.91 592.025 558.04 592.064 558.792 590.591C588.401 532.628 624.741 473.829 739.605 544.624C741.37 545.712 743.687 543.741 742.813 541.861C724.177 501.78 714.106 425.342 800.947 387.422C802.688 386.661 802.612 384.072 800.787 383.539L778.325 376.973C776.266 376.371 776.49 373.546 778.626 373.353C801.766 371.269 834.412 372.627 823.173 386.28C810.05 402.221 806.823 412.299 810.022 428.941" stroke="#D1D4D8" stroke-width="3" stroke-linecap="round"/>
<path d="M1083.4 432H1209.5C1251.2 432 1285 465.803 1285 507.5C1285 549.198 1251.2 583 1209.5 583H1072.5C1030.8 583 997 549.198 997 507.5" stroke="#D1D4D8" stroke-width="3" stroke-linecap="round"/>
<path d="M1223 537H1145.06M1223 477H1105.44H1223ZM1223 508.29H1059H1223Z" stroke="#D1D4D8" stroke-width="3" stroke-linecap="round"/>
<path d="M1046.64 387.577L1046.64 387.634V387.692C1046.64 390.761 1046.85 395.816 1047.48 401.067C1048.1 406.278 1049.15 411.83 1050.88 415.821C1053.79 422.928 1057.05 433.799 1057.46 443.349C1057.66 448.131 1057.14 452.443 1055.61 455.763C1054.12 459.014 1051.66 461.343 1047.78 462.292C1039.19 464.398 1034.8 463.418 1032.7 461.881C1030.71 460.428 1030.37 458.156 1030.76 456.345C1036.81 438.728 1037.52 415.367 1029.04 387.402C1028.83 385.067 1028.69 382.482 1028.54 379.672C1028.42 377.205 1028.28 374.565 1028.07 371.768C1027.63 365.836 1026.88 359.46 1025.22 353.472C1023.57 347.486 1020.99 341.805 1016.83 337.331C1012.92 333.118 1007.67 330.046 1000.67 328.755C1001 325.412 1000.72 321.187 999.569 317.1C998.523 313.392 996.724 309.678 993.888 306.849C1005.87 304.727 1019.73 305.663 1030.27 315.33C1041.75 325.847 1049.76 347.117 1046.64 387.577Z" stroke="#D1D4D8" stroke-width="3"/>
<path d="M880.873 412.528C880.256 391.868 880.258 380.785 880.819 372.529C881.299 365.459 882.187 360.458 883.474 353.212C883.686 352.018 883.908 350.764 884.142 349.43C890.39 317.408 912.17 302.145 935.311 297.285C946.912 294.848 958.841 295.036 969.279 297.065C979.675 299.087 988.462 302.908 993.968 307.648C999.963 315.306 1000.74 325.907 997.951 337.721C995.156 349.565 988.833 362.351 981.097 373.946C973.365 385.537 964.284 395.844 956.056 402.749C951.938 406.205 948.087 408.764 944.771 410.221C941.504 411.655 939.031 411.903 937.348 411.259C930.732 406.253 924.768 404.988 919.984 405.72C915.217 406.45 911.745 409.154 910.19 411.816L910.19 411.816C907.116 417.077 905.843 421.858 905.91 426.15C905.977 430.448 907.386 434.149 909.507 437.243C913.399 442.919 919.691 446.574 924.674 448.378C924.472 452.081 926.303 455.669 928.813 458.964C931.639 462.676 935.581 466.34 939.328 469.789L939.744 470.171C943.394 473.53 946.801 476.665 949.064 479.589C951.404 482.611 952.1 484.865 951.36 486.66C945.178 494.32 935.807 497.048 925.206 496.412C914.522 495.77 902.785 491.708 892.388 486.074C881.983 480.436 873.076 473.31 867.988 466.681C865.437 463.358 863.939 460.28 863.583 457.668C863.24 455.153 863.94 453.045 865.934 451.358L864.965 450.213L865.934 451.358C881.663 438.053 881.137 421.039 880.889 413.034C880.883 412.861 880.878 412.693 880.873 412.528ZM880.873 412.528L879.374 412.573L880.873 412.528Z" stroke="#D1D4D8" stroke-width="3"/>
<path d="M997 438C1010.58 434.714 1003.41 428.143 1000.4 415" stroke="#D1D4D8" stroke-width="3" stroke-linecap="round"/>
<path d="M1019.25 408.145C1021.29 407.818 1022.56 405.065 1022.07 401.995C1021.58 398.926 1019.52 396.703 1017.47 397.029C1015.43 397.356 1014.16 400.109 1014.66 403.179C1015.15 406.248 1017.2 408.472 1019.25 408.145Z" fill="#D1D4D8"/>
<path d="M977.384 418.643C979.403 418.32 980.648 415.604 980.164 412.575C979.681 409.546 977.652 407.352 975.633 407.675C973.613 407.997 972.369 410.714 972.852 413.743C973.336 416.771 975.365 418.965 977.384 418.643Z" fill="#D1D4D8"/>
<path d="M920 419C919.245 421.6 918.189 427.84 920 432" stroke="#D1D4D8" stroke-width="3" stroke-linecap="round"/>
<path d="M949 482.914C983.104 482.914 1002 505.343 1032 456" stroke="#D1D4D8" stroke-width="3" stroke-linecap="round"/>
<path d="M992 461.086C1000.29 463.434 1006.93 461.086 1009 456" stroke="#D1D4D8" stroke-width="3" stroke-linecap="round"/>
<path d="M990.5 413.5C990.5 423.222 983.697 430.5 976 430.5C968.303 430.5 961.5 423.222 961.5 413.5C961.5 403.778 968.303 396.5 976 396.5C983.697 396.5 990.5 403.778 990.5 413.5Z" stroke="#D1D4D8" stroke-width="3"/>
<path d="M1032.5 403C1032.5 413.061 1025.64 420.5 1018 420.5C1010.36 420.5 1003.5 413.061 1003.5 403C1003.5 392.939 1010.36 385.5 1018 385.5C1025.64 385.5 1032.5 392.939 1032.5 403Z" stroke="#D1D4D8" stroke-width="3"/>
<path d="M1002 405.287C999.51 404.77 993.829 404.589 991 408" stroke="#D1D4D8" stroke-width="3" stroke-linecap="round"/>
<path d="M960.913 407.5L948.211 407.91" stroke="#D1D4D8" stroke-width="3" stroke-linecap="round"/>
<path d="M654.77 1148V1127" stroke="#D1D4D8" stroke-width="3" stroke-linecap="round"/>
<path d="M636 1138.67L647.45 1148" stroke="#D1D4D8" stroke-width="3" stroke-linecap="round"/>
<path d="M662.41 1148L671 1134.33" stroke="#D1D4D8" stroke-width="3" stroke-linecap="round"/>
<path d="M311.77 1309V1288" stroke="#D1D4D8" stroke-width="3" stroke-linecap="round"/>
<path d="M293 1299.67L304.45 1309" stroke="#D1D4D8" stroke-width="3" stroke-linecap="round"/>
<path d="M319.41 1309L328 1295.33" stroke="#D1D4D8" stroke-width="3" stroke-linecap="round"/>
<path d="M21.7695 1070V1049" stroke="#D1D4D8" stroke-width="3" stroke-linecap="round"/>
<path d="M3 1060.67L14.45 1070" stroke="#D1D4D8" stroke-width="3" stroke-linecap="round"/>
<path d="M29.4102 1070L38.0001 1056.33" stroke="#D1D4D8" stroke-width="3" stroke-linecap="round"/>
<path d="M1369.77 1218V1197" stroke="#D1D4D8" stroke-width="3" stroke-linecap="round"/>
<path d="M1351 1208.67L1362.45 1218" stroke="#D1D4D8" stroke-width="3" stroke-linecap="round"/>
<path d="M1377.41 1218L1386 1204.33" stroke="#D1D4D8" stroke-width="3" stroke-linecap="round"/>
</svg>
