<svg width="1588" height="1272" viewBox="0 0 1588 1272" fill="none" xmlns="http://www.w3.org/2000/svg">
<path d="M1435.93 425.618C1444.43 432.618 1454.93 434.118 1448.79 442.975C1440.68 452.633 1435.28 464.392 1433.59 469.064" stroke="#D1D4D8" stroke-width="3" stroke-linecap="round"/>
<path d="M1445.43 447.118C1451.64 450.683 1466.12 457.496 1474.36 456.228C1482.6 454.961 1488.1 458.341 1489.81 460.19C1490.74 461.642 1491.32 464.626 1486.25 464.943C1481.17 465.26 1475.15 465.074 1472.77 464.943" stroke="#D1D4D8" stroke-width="3" stroke-linecap="round"/>
<path d="M1466.43 461.118C1469.11 463.887 1478.23 470.181 1493.25 473.203C1496.18 473.706 1500.14 476.601 1494.78 480C1490.18 482.644 1477.46 480.227 1471.03 476.601" stroke="#D1D4D8" stroke-width="3" stroke-linecap="round"/>
<path d="M1471.25 477.118C1476.33 479.555 1485.48 486.045 1481.42 492.509C1480.11 493.792 1474.61 493.894 1463.03 484.044L1454.43 477.118" stroke="#D1D4D8" stroke-width="3" stroke-linecap="round"/>
<path d="M1454.03 476.272L1462.64 483.61C1465.12 490.269 1468.9 506.442 1458.73 497.472C1451.3 489.726 1452.86 483.122 1449.73 481.164C1446.6 479.207 1439.56 471.652 1436.43 468.118" stroke="#D1D4D8" stroke-width="3" stroke-linecap="round"/>
<path d="M1453.82 463.118C1454.62 466.584 1455.26 474.638 1451.43 479.118" stroke="#D1D4D8" stroke-width="3" stroke-linecap="round"/>
<path d="M1294.87 111.749L1297.28 113.536C1292.07 120.801 1285.1 143.763 1301.97 175.273C1323.25 214.995 1355.6 247.023 1398.52 250.117L1398.42 251.552L1398.52 250.117C1401.45 250.328 1407.96 249.691 1416.17 247.553C1424.34 245.426 1434.07 241.844 1443.41 236.258C1462.07 225.107 1479.16 206.022 1479.52 174.468C1479.78 151.066 1469.99 133.175 1457.98 120.259C1445.96 107.321 1431.76 99.4242 1423.4 96.0904C1415.31 92.881 1401.58 89.2565 1386.84 88.8734C1372.09 88.4901 1356.51 91.3557 1344.5 100.904L1343.44 101.747L1342.49 100.777C1330.4 88.3803 1295.5 65.4467 1253.16 73.239C1210.86 81.025 1201.42 110.626 1208.42 127.409C1210.78 133.091 1215.3 141.025 1221.11 146.419C1224.01 149.11 1227.15 151.098 1230.44 151.923C1233.38 152.664 1236.52 152.488 1239.82 150.927L1236.53 136.137L1236.03 133.882L1238.3 134.342C1249.56 136.629 1276.78 135.339 1294.87 111.749Z" stroke="#D1D4D8" stroke-width="3"/>
<path d="M1244.38 192.766C1247.62 198.043 1251.75 201.969 1255.74 204.096C1259.77 206.247 1263.29 206.403 1265.7 204.923C1268.11 203.443 1269.56 200.24 1269.47 195.67C1269.38 191.153 1267.75 185.684 1264.52 180.407C1261.28 175.13 1257.14 171.204 1253.15 169.077C1249.12 166.925 1245.61 166.769 1243.19 168.249C1240.78 169.73 1239.33 172.932 1239.42 177.502C1239.51 182.019 1241.14 187.489 1244.38 192.766Z" stroke="#D1D4D8" stroke-width="3"/>
<path d="M1259.91 196.529C1258.21 197.57 1255.31 195.938 1253.44 192.882C1251.56 189.826 1251.42 186.503 1253.12 185.461C1254.81 184.419 1257.71 186.052 1259.59 189.109C1261.46 192.165 1261.61 195.487 1259.91 196.529Z" fill="#D1D4D8"/>
<path d="M1299.37 173.244L1267.51 183.552" stroke="#D1D4D8" stroke-width="3" stroke-linecap="round"/>
<path d="M1238.41 153.753C1238.04 160.217 1235.2 175.209 1229.82 185.215C1224.32 195.45 1227.24 204.256 1235.19 208.109L1247.61 214.205C1257.98 251.22 1275.82 274.299 1323.94 268.048" stroke="#D1D4D8" stroke-width="3" stroke-linecap="round"/>
<path d="M1300.09 210.737C1299.14 211.321 1297.89 211.023 1297.31 210.072C1296.73 209.121 1297.02 207.876 1297.98 207.292C1298.93 206.709 1300.17 207.007 1300.75 207.958C1301.34 208.909 1301.04 210.154 1300.09 210.737Z" fill="#D1D4D8"/>
<path d="M1314.02 224.944C1312.88 225.644 1311.48 225.441 1310.9 224.49C1310.32 223.538 1310.77 222.2 1311.91 221.499C1313.05 220.798 1314.45 221.001 1315.04 221.953C1315.62 222.904 1315.17 224.243 1314.02 224.944Z" fill="#D1D4D8"/>
<path d="M1296.6 229C1295.46 229.701 1294.06 229.497 1293.48 228.546C1292.89 227.595 1293.34 226.256 1294.49 225.556C1295.63 224.855 1297.03 225.058 1297.61 226.01C1298.19 226.96 1297.74 228.299 1296.6 229Z" fill="#D1D4D8"/>
<path d="M1165.75 313.82C1163.97 311.337 1163.08 309.076 1163.89 307.515C1166.25 302.977 1172.07 307.635 1174.68 310.531C1181.18 317.5 1193.68 329.613 1190.31 315.518C1186.94 301.422 1194.11 302.29 1210.9 319.496L1227.59 329.618" stroke="#D1D4D8" stroke-width="3" stroke-linecap="round"/>
<path d="M1166.93 335.618C1165.49 340.086 1167.8 350.429 1188.97 352.935C1196.98 353.883 1198.19 353.749 1205.71 353.109H1218.59" stroke="#D1D4D8" stroke-width="3" stroke-linecap="round"/>
<path d="M1180.59 327.026C1176.37 323.955 1169.65 318.38 1166.2 313.618C1162.46 313.576 1158.83 315.663 1164.61 322.961C1167.11 326.12 1171.38 330.255 1178.16 335.618" stroke="#D1D4D8" stroke-width="3" stroke-linecap="round"/>
<path d="M1177.59 335.744C1170.83 330.607 1166.58 326.645 1164.09 323.618C1160.53 324.572 1157.32 328.264 1167.05 335.971C1169.18 337.656 1171.92 339.535 1175.42 341.618" stroke="#D1D4D8" stroke-width="3" stroke-linecap="round"/>
<path d="M1379.59 282.618C1436.1 323.798 1429.33 375.152 1429.33 438.618" stroke="#D1D4D8" stroke-width="3" stroke-linecap="round"/>
<path d="M1379.59 282.618L1350.31 307.233C1349.43 308.01 1348.03 307.55 1347.78 306.398L1340.67 273.837C1340.41 272.63 1338.91 272.202 1338.05 273.091L1319.59 292.204" stroke="#D1D4D8" stroke-width="3" stroke-linecap="round"/>
<path d="M1353.59 329.584C1344.34 342.372 1292.27 377.784 1254.81 338.93L1244.59 327.618" stroke="#D1D4D8" stroke-width="3" stroke-linecap="round"/>
<path d="M1328.59 452.618C1316.51 449.477 1259.26 417.931 1242.59 388.618" stroke="#D1D4D8" stroke-width="3" stroke-linecap="round"/>
<path d="M1246.59 350.856C1242.54 365.658 1241.4 378.153 1242.21 388.618C1233.2 382.324 1224.59 377.483 1224.59 357.634C1224.59 343.593 1234.63 331.491 1243.72 327.618" stroke="#D1D4D8" stroke-width="3" stroke-linecap="round"/>
<path d="M1323.59 317.618C1321.38 317.618 1319.59 315.603 1319.59 313.118C1319.59 310.632 1321.38 308.618 1323.59 308.618C1325.79 308.618 1327.59 310.632 1327.59 313.118C1327.59 315.603 1325.79 317.618 1323.59 317.618Z" fill="#D1D4D8"/>
<path d="M1318.59 340.618C1316.38 340.618 1314.59 338.379 1314.59 335.618C1314.59 332.856 1316.38 330.618 1318.59 330.618C1320.79 330.618 1322.59 332.856 1322.59 335.618C1322.59 338.379 1320.79 340.618 1318.59 340.618Z" fill="#D1D4D8"/>
<path d="M1280.13 234.228C1281.77 236.797 1283.02 243.016 1274.93 247.338" stroke="#D1D4D8" stroke-width="3" stroke-linecap="round"/>
<path d="M537.899 512.777C529.399 536.11 488.399 614.804 508.838 736.334C513.595 747.334 547.339 741.804 569.399 728.777" stroke="#D1D4D8" stroke-width="3" stroke-linecap="round"/>
<path d="M612.898 454.777C632.231 461.277 667.998 493.777 656.398 571.777C644.798 649.777 657.898 673.277 660.398 681.777C662.946 690.441 667.898 708.777 649.398 714.277L618.898 723.277" stroke="#D1D4D8" stroke-width="3" stroke-linecap="round"/>
<path d="M612.898 453.277C594.898 462.111 551.398 489.896 537.898 512.896" stroke="#D1D4D8" stroke-width="3" stroke-linecap="round"/>
<path d="M608.399 499.777C598.232 498.277 577.199 507.277 574.399 555.277C571.599 603.277 573.232 673.611 574.399 702.777C571.566 712.777 568.099 733.877 576.899 738.277C585.699 742.677 595.899 745.777 599.899 746.777C604.232 747.444 613.399 744.177 615.399 725.777C617.399 707.377 630.566 671.777 636.899 656.277C641.232 646.611 647.299 620.077 636.899 591.277C634.566 583.944 630.299 567.077 631.899 558.277" stroke="#D1D4D8" stroke-width="3" stroke-linecap="round"/>
<path d="M512.336 584.304L488.897 560.276C485.73 556.776 477.497 552.976 469.897 565.776C462.297 578.576 465.064 592.11 467.397 597.276C471.064 606.443 497.136 647.004 502.336 655.804" stroke="#D1D4D8" stroke-width="3" stroke-linecap="round"/>
<path d="M432.964 512.117C439.364 519.317 432.297 526.45 427.964 529.117C422.364 527.517 416.297 530.784 413.964 532.617C408.464 526.45 397.899 514.277 394.399 509.777C387.809 501.304 390.679 498.777 398.464 491.117C404.399 485.277 410.399 486.277 412.464 488.617C416.631 493.45 426.564 504.917 432.964 512.117Z" fill="#D1D4D8"/>
<path d="M464.899 586.777C463.399 581.777 455.799 570.177 437.399 563.777C425.006 559.467 417.967 553.251 414.385 548.277" stroke="#D1D4D8" stroke-width="3" stroke-linecap="round"/>
<path d="M414.384 548.277C412.648 545.866 411.724 543.746 411.398 542.277C409.731 539.277 408.736 532.354 418.398 529.777C433.398 525.777 430.898 535.277 427.898 535.777C417.898 536.977 413.722 545.611 414.384 548.277Z" stroke="#D1D4D8" stroke-width="3" stroke-linecap="round"/>
<path d="M423.898 549.277C428.231 541.611 439.398 528.477 449.398 537.277" stroke="#D1D4D8" stroke-width="3" stroke-linecap="round"/>
<path d="M438.398 549.277C442.898 546.777 454.198 543.877 463.398 552.277" stroke="#D1D4D8" stroke-width="3" stroke-linecap="round"/>
<path d="M478.398 550.276C477.065 539.443 466.498 518.176 434.898 519.776" stroke="#D1D4D8" stroke-width="3" stroke-linecap="round"/>
<path d="M375.398 470.277L390.398 485.277M361.898 507.277H382.898H361.898ZM364.898 487.777L381.398 493.777L364.898 487.777Z" stroke="#D1D4D8" stroke-width="3" stroke-linecap="round"/>
<path d="M508.837 737.805C480.837 896.805 500.11 910.396 434.898 1038.78" stroke="#D1D4D8" stroke-width="3" stroke-linecap="round"/>
<path d="M396.837 1073.81C437.291 1079.37 448.446 1060.69 449.313 1048.51C449.408 1047.17 450.661 1046.16 451.892 1046.71C455.523 1048.32 460.444 1051.81 462.337 1057.81C464.593 1064.95 473.797 1073.53 478.909 1077.58C479.478 1078.04 479.777 1078.75 479.651 1079.47C478.525 1085.82 474.722 1098.54 466.837 1106.81C456.337 1117.81 458.575 1115.59 423.838 1111.31C387.338 1106.81 342.337 1066.31 396.837 1073.81Z" fill="#D1D4D8"/>
<path d="M434.898 1038.78C441.565 1040.94 456.398 1047.38 462.398 1057.78C469.898 1070.78 486.898 1087.78 502.898 1084.78" stroke="#D1D4D8" stroke-width="3" stroke-linecap="round"/>
<path d="M502.898 1084.78L578.898 922.277" stroke="#D1D4D8" stroke-width="3" stroke-linecap="round"/>
<path d="M569.627 832.305C582.961 883.638 584.127 968.305 635.127 1081.31" stroke="#D1D4D8" stroke-width="3" stroke-linecap="round"/>
<path d="M598.398 1103.78C621.998 1097.78 632.231 1085.94 634.398 1080.78C638.731 1080.28 650.698 1081.18 663.898 1088.78C677.098 1096.38 694.398 1092.94 701.398 1090.28C702.998 1095.88 702.065 1104.94 701.398 1108.78C699.209 1121.36 686.338 1135.8 600.837 1123.3C587.337 1120.43 574.798 1109.78 598.398 1103.78Z" fill="#D1D4D8"/>
<path d="M655.398 713.277C664.398 736.444 691.127 809.305 698.398 905.805C705.988 1006.55 708.398 1057.8 698.398 1089.3" stroke="#D1D4D8" stroke-width="3" stroke-linecap="round"/>
<path d="M560.398 742.277C561.065 758.277 572.198 794.977 611.398 813.777" stroke="#D1D4D8" stroke-width="3" stroke-linecap="round"/>
<path d="M575.399 738.277C573.066 740.777 568.599 747.877 569.399 756.277" stroke="#D1D4D8" stroke-width="3" stroke-linecap="round"/>
<path d="M599.898 747.277C603.065 755.777 605.698 776.577 590.898 791.777" stroke="#D1D4D8" stroke-width="3" stroke-linecap="round"/>
<path d="M558.232 471.86C551.039 468.93 502.601 480.973 482.779 420.82C466.474 423.731 455.362 411.827 466.875 404.025C479.023 394.96 475.931 382.545 472.289 375.533C466.843 366.449 464.913 356.28 465.383 354.008" stroke="#D1D4D8" stroke-width="3" stroke-linecap="round"/>
<path d="M494.144 397.449C492.036 397.825 489.871 395.567 489.306 392.406C488.742 389.245 489.993 386.377 492.1 386.001C494.208 385.625 496.374 387.882 496.938 391.044C497.502 394.205 496.251 397.073 494.144 397.449Z" fill="#D1D4D8"/>
<path d="M499.191 374.232C495.98 371.772 488.222 368.683 482.877 376.007" stroke="#D1D4D8" stroke-width="3" stroke-linecap="round"/>
<path d="M527.151 427.884C523.424 436.427 518.289 439.532 506.777 436.335" stroke="#D1D4D8" stroke-width="3" stroke-linecap="round"/>
<path d="M559.168 367.025C560.753 369.38 562.689 375.005 557.752 378.656" stroke="#D1D4D8" stroke-width="3" stroke-linecap="round"/>
<path d="M597.583 414.18C597.423 414.506 597.263 414.831 597.103 415.155C588.965 412.231 578.447 407.218 570.875 402.446C566.856 399.914 563.834 397.55 562.381 395.693C561.629 394.732 561.524 394.191 561.543 393.993C561.543 393.993 561.543 393.992 561.543 393.991C561.545 393.959 561.56 393.668 562.429 393.319L561.87 391.927L562.429 393.319C565.381 392.133 567.815 389.157 569.646 385.617C571.507 382.022 572.88 377.586 573.571 373.084C574.262 368.587 574.286 363.932 573.371 359.908C572.46 355.899 570.568 352.325 567.265 350.324L566.488 351.606L567.265 350.323C563.684 348.153 560.3 347.575 557.233 348.316C554.199 349.049 551.695 351.02 549.731 353.53C546.617 357.511 544.665 363.087 543.982 368.297L534.716 357.053C534.874 354.186 534.854 350.891 534.525 347.711C534.176 344.332 533.467 340.962 532.168 338.365C530.865 335.761 528.802 333.652 525.702 333.522C522.759 333.399 519.397 335.11 515.535 338.666L516.551 339.769L515.535 338.666C508.249 345.374 498.417 349.085 488.973 350.967C479.695 352.816 470.937 352.87 465.646 352.351C454.37 346.78 439.769 336.997 432.005 325.629C428.112 319.927 426.03 313.964 426.775 308.002C427.518 302.065 431.104 295.825 439.173 289.628C452.507 279.389 469.614 277.54 486.92 280.113C504.216 282.685 521.509 289.65 534.955 296.764L535.604 297.107L536.272 296.805C543.742 293.442 558.411 290.944 573.218 294.94C587.922 298.908 602.799 309.287 610.903 331.786C622.422 363.768 608.571 391.879 597.583 414.18Z" stroke="#D1D4D8" stroke-width="3"/>
<path d="M596.341 414.869C590.462 424.946 588.032 432.905 591.022 448.057" stroke="#D1D4D8" stroke-width="3" stroke-linecap="round"/>
<path d="M612.899 453.396C611.899 445.896 608.399 439.397 598.879 444.289C582.045 452.94 542.899 475.396 549.399 496.397" stroke="#D1D4D8" stroke-width="3" stroke-linecap="round"/>
<path d="M1269.97 770.634C1191.92 743.638 1244.73 576.601 1280.9 496.457C1341.46 512.655 1404.82 484.646 1428.93 468.618C1431.18 480.71 1443.56 516.873 1475.18 564.79C1506.81 612.708 1547.83 637.628 1555.08 658.432C1572.75 709.049 1534.06 735.202 1514.71 741.107C1446.76 756.629 1389.4 680.086 1369.21 639.872C1340.28 758.654 1290.99 776.539 1269.97 770.634Z" fill="#D1D4D8"/>
<path d="M1158 263.164C1146.82 270.478 1165.9 296.873 1175.21 310.937L1186.47 321.3C1197.66 323.551 1203.26 313.316 1204.59 307.455L1181.95 265.274C1178.63 261.523 1169.18 255.85 1158 263.164Z" fill="#D1D4D8"/>
<path d="M1123.59 277.618H1140.59" stroke="#D1D4D8" stroke-width="3" stroke-linecap="round"/>
<path d="M1140.59 238.618L1145.59 252.618" stroke="#D1D4D8" stroke-width="3" stroke-linecap="round"/>
<path d="M1123.59 251.618C1124.44 252.051 1135.27 260.465 1140.59 264.618" stroke="#D1D4D8" stroke-width="3" stroke-linecap="round"/>
<path d="M1255.31 758.618C1255.89 767.381 1251.92 796.777 1228.99 780.665C1223.34 775.012 1209.97 765.741 1201.82 773.881C1193.67 782.022 1209.75 797.06 1218.8 803.561C1228.14 810.911 1251.07 823.403 1268.05 814.584C1285.03 805.765 1284.76 782.644 1282.48 772.185" stroke="#D1D4D8" stroke-width="3" stroke-linecap="round"/>
<path d="M1533.59 727.9C1539.51 730.727 1551.36 738.583 1551.36 747.4C1544.59 757.009 1533.76 780.635 1544.59 798.269C1555.43 815.904 1575.07 775.661 1583.53 753.335C1587.77 740.617 1588.27 712.47 1556.44 701.618" stroke="#D1D4D8" stroke-width="3" stroke-linecap="round"/>
<path d="M1280.59 808.618C1284.22 815.573 1298.48 825.809 1326.59 811.121" stroke="#D1D4D8" stroke-width="3" stroke-linecap="round"/>
<path d="M1299.59 796.618C1307.65 803.907 1329.24 815.898 1356.59 805.645" stroke="#D1D4D8" stroke-width="3" stroke-linecap="round"/>
<path d="M1338.59 791.618C1348.71 803.317 1376.88 822.204 1408.59 804.153" stroke="#D1D4D8" stroke-width="3" stroke-linecap="round"/>
<path d="M1382.59 785.618C1385.11 795.981 1419.24 818.09 1535.59 823.618" stroke="#D1D4D8" stroke-width="3" stroke-linecap="round"/>
<path d="M747.398 1253.28C780.565 1237.61 861.298 1207.28 918.898 1211.28C927.065 1211.61 939.398 1215.08 923.398 1226.28C907.398 1237.48 899.398 1243.28 897.398 1244.78C889.065 1251.78 880.898 1266.58 914.898 1269.78C957.398 1273.78 1077.4 1230.28 1314.9 1262.28" stroke="#D1D4D8" stroke-width="3" stroke-linecap="round"/>
<path d="M2.39844 781.121C17.7106 773.966 54.9831 760.114 81.5755 761.941C85.3458 762.093 91.0398 763.676 83.653 768.791C76.2662 773.906 72.5729 776.554 71.6496 777.239C67.8023 780.436 64.032 787.195 79.7289 788.656C99.35 790.483 154.75 770.617 264.398 785.231" stroke="#D1D4D8" stroke-width="3" stroke-linecap="round"/>
<path d="M1271.18 430.618C1269.86 441.273 1269.88 467.591 1280.59 487.618" stroke="#D1D4D8" stroke-width="3" stroke-linecap="round"/>
<path d="M1311.59 285.618C1306.17 288.47 1275.59 303.118 1275.59 341.618" stroke="#D1D4D8" stroke-width="3" stroke-linecap="round"/>
</svg>
