<svg width="1283" height="1219" viewBox="0 0 1283 1219" fill="none" xmlns="http://www.w3.org/2000/svg">
<path d="M54.5 559C61.6797 559 67.5 553.18 67.5 546C67.5 538.82 61.6797 533 54.5 533C47.3203 533 41.5 538.82 41.5 546C41.5 553.18 47.3203 559 54.5 559Z" stroke="#D1D4D8" stroke-width="3"/>
<path d="M79.9745 547.324C106.196 544.625 147.34 547.817 152.203 568.1C157.066 588.383 138.496 595.801 128.604 596.975C90.9401 602.961 41 600.144 41 568.1" stroke="#D1D4D8" stroke-width="3" stroke-linecap="round"/>
<path d="M70.5 578C72.1569 578 73.5 576.657 73.5 575C73.5 573.343 72.1569 572 70.5 572C68.8431 572 67.5 573.343 67.5 575C67.5 576.657 68.8431 578 70.5 578Z" stroke="#D1D4D8" stroke-width="3"/>
<path d="M99.5 575C99.5 576.457 98.1422 578 96 578C93.8578 578 92.5 576.457 92.5 575C92.5 573.543 93.8578 572 96 572C98.1422 572 99.5 573.543 99.5 575Z" stroke="#D1D4D8" stroke-width="3"/>
<path d="M121.5 578C123.157 578 124.5 576.657 124.5 575C124.5 573.343 123.157 572 121.5 572C119.843 572 118.5 573.343 118.5 575C118.5 576.657 119.843 578 121.5 578Z" stroke="#D1D4D8" stroke-width="3"/>
<path d="M1041 193C1047.63 193 1053 187.627 1053 181C1053 174.373 1047.63 169 1041 169C1034.37 169 1029 174.373 1029 181C1029 187.627 1034.37 193 1041 193Z" stroke="#D1D4D8" stroke-width="3"/>
<path d="M1064.58 170.5C1073.37 170.5 1098.5 170.5 1110.32 170.5C1119.89 170.5 1124.5 172.618 1124.5 187.442C1124.5 201.845 1124.38 220.502 1124.5 228.032C1124.58 233.326 1121.95 239.185 1113.15 240.032C1104.36 240.879 1069.07 240.385 1052.52 240.032C1046.37 240.032 1035.5 236.548 1035.5 222.384V206.501" stroke="#D1D4D8" stroke-width="3" stroke-linecap="round"/>
<path d="M1058.5 195.5L1080.5 210.5" stroke="#D1D4D8" stroke-width="3" stroke-linecap="round"/>
<path d="M1080.5 210.5L1120.5 173.5" stroke="#D1D4D8" stroke-width="3" stroke-linecap="round"/>
<path d="M1090.64 201.5L1101.57 212.5L1112.5 223.5" stroke="#D1D4D8" stroke-width="3" stroke-linecap="round"/>
<path d="M1050.5 223.5L1066.63 201.5" stroke="#D1D4D8" stroke-width="3" stroke-linecap="round"/>
<path d="M1128.94 942.982C1125.62 946.31 1122.75 949.179 1120.78 951.155C1115.63 956.307 1110.23 953.302 1108.17 951.155L1075.35 919.528C1070.5 915.022 1066.4 910.574 1048.09 893.1C1046.21 891.222 1043.24 886.428 1046.36 882.268C1049.47 878.109 1066.98 856.273 1075.35 845.875C1077.88 842.199 1083.4 837.826 1090.43 844.366C1096.49 849.998 1117.26 869.494 1135 884.317" stroke="#D1D4D8" stroke-width="3" stroke-linecap="round"/>
<path d="M1075 847C1076.03 865.97 1082.99 896.507 1119 908" stroke="#D1D4D8" stroke-width="3" stroke-linecap="round"/>
<path d="M1166.31 909.468C1165.92 913.019 1165.67 916.743 1165.73 919.909M1167.36 903.63C1166.99 905.821 1166.61 906.742 1166.31 909.468L1167.36 903.63ZM1182 930.89C1180.6 935.143 1171.47 944.228 1154.62 943.996C1137.76 943.764 1132.6 928.899 1132.06 921.978C1131.57 915.651 1134.02 903.455 1142.99 895.837C1152.02 888.162 1163.5 887.947 1173.68 895.837C1182.12 902.372 1182.11 912.368 1180.61 917.589C1179.71 920.693 1176.33 923.737 1170.07 927.449C1166.95 929.299 1165.85 925.465 1165.73 919.909L1182 930.89ZM1166.31 909.468C1164.66 905.273 1151.99 900.389 1147.2 909.468C1142.26 918.833 1146.04 926.722 1149.25 928.269C1153.35 930.244 1159.37 931.277 1165.73 919.909L1166.31 909.468Z" stroke="#D1D4D8" stroke-width="3" stroke-linecap="round"/>
<path d="M279 784.569C275.405 770.69 263.467 745.094 244.483 753.746C225.498 762.398 236.572 777.899 244.483 784.569C249.806 788.174 261.25 792.031 264.438 778.62C267.626 765.21 254.191 759.694 250.415 765.643C248.424 767.986 246.175 773.862 253.112 778.62" stroke="#D1D4D8" stroke-width="3" stroke-linecap="round"/>
<path d="M364.122 100.381L384.519 115.022C386.102 116.159 388.238 116.146 389.809 114.992L410.036 100.118C411.207 99.2568 412.795 100.397 412.354 101.781L404.732 125.704C404.141 127.562 404.812 129.589 406.396 130.726L426.793 145.367C427.973 146.215 427.379 148.078 425.926 148.086L400.819 148.23C398.87 148.241 397.149 149.506 396.557 151.363L388.935 175.286C388.494 176.671 386.539 176.682 386.082 175.303L378.187 151.469C377.574 149.618 375.839 148.373 373.89 148.384L348.782 148.528C347.329 148.536 346.714 146.68 347.885 145.819L368.113 130.945C369.683 129.79 370.332 127.755 369.719 125.905L361.823 102.071C361.367 100.691 362.942 99.5332 364.122 100.381Z" stroke="#D1D4D8" stroke-width="3"/>
<path d="M672.5 558.915V643.915" stroke="#D1D4D8" stroke-width="3" stroke-linecap="round"/>
<path d="M736.5 568.915V649.915" stroke="#D1D4D8" stroke-width="3" stroke-linecap="round"/>
<path d="M586.808 937C565.675 939.631 516.202 949.336 505.365 969.07C502.114 974.992 498.343 989.399 509.266 999.66C520.191 1009.92 540.153 1007.23 548.768 1004.59L599 984.365" stroke="#D1D4D8" stroke-width="3" stroke-linecap="round"/>
<path d="M874.8 788.076C835.368 789.345 661.206 873.661 579.054 915.661C572.059 961.941 601.58 995.171 617.215 1006C699.102 982.227 867.167 934.046 884.34 931.51C901.513 928.975 918.525 916.718 924.885 910.907C969.406 858.922 936.546 814.756 914.55 799.171C898.892 788.076 885.375 787.735 874.8 788.076Z" fill="#D1D4D8"/>
<path d="M505.432 776.282C533.371 778.146 655.251 825.382 713 850.139L580.93 916.134C521.824 933.467 485.515 927.757 474.426 924.021C410.419 893.183 435.497 817.106 460.928 788.924C477.318 774.974 495.421 775.615 505.432 776.282Z" fill="#D1D4D8"/>
<path d="M816.386 946C833.848 954.391 843.29 965.386 848.077 974.402C858.336 997.881 839.915 1011.99 818.884 1005.36C807.262 1001.69 804.522 999.234 798.367 994.129C795.243 991.538 780.655 977.983 764 961.973" stroke="#D1D4D8" stroke-width="3" stroke-linecap="round"/>
<path d="M481.073 545.323L494.48 788.964C494.772 794.266 499.155 798.415 504.465 798.415H878.5C884.023 798.415 888.5 793.938 888.5 788.415V539.551C888.5 533.975 883.94 529.477 878.365 529.552L490.923 534.775C485.238 534.851 480.76 539.646 481.073 545.323Z" fill="#D1D4D8"/>
<rect x="492.5" y="801.915" width="396" height="19" rx="9.5" fill="#D1D4D8"/>
<path d="M737.5 423.915C772.333 423.415 849 449.915 879.5 533.415" stroke="#D1D4D8" stroke-width="3" stroke-linecap="round"/>
<path d="M661 423.415C581.5 438.915 543.5 472.915 513.5 538.415" stroke="#D1D4D8" stroke-width="3" stroke-linecap="round"/>
<path d="M927 502.5L946.5 470" stroke="#D1D4D8" stroke-width="3" stroke-linecap="round"/>
<path d="M946.5 511.5L973 489.5" stroke="#D1D4D8" stroke-width="3" stroke-linecap="round"/>
<path d="M950.5 526.5C955.667 528.5 967.4 530.4 973 522" stroke="#D1D4D8" stroke-width="3" stroke-linecap="round"/>
<path d="M439 496.415L409 465.415" stroke="#D1D4D8" stroke-width="3" stroke-linecap="round"/>
<path d="M469.5 491.415L451.5 444.915" stroke="#D1D4D8" stroke-width="3" stroke-linecap="round"/>
<path d="M431.5 513.915L409 505.415" stroke="#D1D4D8" stroke-width="3" stroke-linecap="round"/>
<path d="M899.5 589.5C918 618.5 939 653 899.5 717.915" stroke="#D1D4D8" stroke-width="3" stroke-linecap="round"/>
<path d="M738 426.415C742.5 413.415 738.4 404.667 734.4 403C710.4 425 674 416.833 660.5 403.5C655.7 407.9 658.5 420.915 660.5 424.915C686.5 453.715 723.5 437.581 738 426.415Z" fill="#D1D4D8"/>
<path d="M631.5 506.415L639.53 494.09C647.356 482.077 662.588 477.281 675.885 482.643L695.022 490.359C706.961 495.174 720.641 491.834 729.019 482.06L751 456.415" stroke="#D1D4D8" stroke-width="3" stroke-linecap="round"/>
<path d="M475 607.915C467.5 625.582 458.6 668.415 483 698.415" stroke="#D1D4D8" stroke-width="3" stroke-linecap="round"/>
<path d="M806.943 222.021C795.943 261.521 790.443 265.021 774.443 282.521C774.443 265.226 771.472 236.196 771.472 224.108C719.083 224.108 674.869 202.722 659.311 192.029C659.869 228.292 625.872 252.003 625.872 252.003C625.872 252.003 630.748 266.648 633.535 299.425C635.764 325.646 629.355 320.579 625.872 314.767C615.84 282.409 599.398 291.056 592.431 299.425C506.944 160.521 638.411 133.681 663.49 136.238C682.439 120.059 708.866 107.38 727.443 105.521C794.443 98.8136 824.779 157.973 806.943 222.021Z" stroke="#D1D4D8" stroke-width="3" stroke-linecap="round"/>
<path d="M627.043 339.49C636.043 394.436 696.451 433.945 740.043 389.436C783.635 344.926 774.912 263.454 770.254 225.436" stroke="#D1D4D8" stroke-width="3" stroke-linecap="round"/>
<path d="M591.443 296.021C585.943 309.521 591.103 339.435 627.043 339.435" stroke="#D1D4D8" stroke-width="3" stroke-linecap="round"/>
<path d="M607.294 303.436C606.499 306.324 607.135 313.169 616.043 317.436" stroke="#D1D4D8" stroke-width="3" stroke-linecap="round"/>
<path d="M769.043 332.436C780.773 327.545 789.043 309.436 785.861 280.436" stroke="#D1D4D8" stroke-width="3" stroke-linecap="round"/>
<path d="M703.043 365.436C714.543 368.436 713.816 360.18 722.543 352.936" stroke="#D1D4D8" stroke-width="3" stroke-linecap="round"/>
<circle cx="737.373" cy="295.585" r="7.5" fill="#D1D4D8"/>
<circle cx="671.373" cy="296.585" r="7.5" fill="#D1D4D8"/>
<path d="M655.043 279.436C656.621 274.789 663.431 266.192 678.043 268.98" stroke="#D1D4D8" stroke-width="3" stroke-linecap="round"/>
<path d="M725.043 270.436C728.528 267.417 738.007 263.191 748.043 270.436" stroke="#D1D4D8" stroke-width="3" stroke-linecap="round"/>
<path d="M700.85 291.436C699.685 301.31 698.893 321.333 705.043 322.436" stroke="#D1D4D8" stroke-width="3" stroke-linecap="round"/>
<path d="M989 745C1122.5 782 1362.3 824.499 1253.5 698.499C1219.17 664.666 1168.5 625 1087 590" stroke="#D1D4D8" stroke-width="3" stroke-linecap="round"/>
<path d="M1133.5 486.488C1216.5 433.321 1350.2 323.488 1221 309.488C1091.8 295.488 973.833 343.988 931 369.988" stroke="#D1D4D8" stroke-width="3" stroke-linecap="round"/>
<path d="M812 408.793C867 290.293 956 44.6933 872 10.2933C767 -32.7067 631 91.2932 520 387.293" stroke="#D1D4D8" stroke-width="3" stroke-linecap="round"/>
<path d="M397.68 306.713C274.68 239.38 23.5797 135.813 3.1797 260.213C-17.2203 384.613 232.013 488.38 359.18 524.713" stroke="#D1D4D8" stroke-width="3" stroke-linecap="round"/>
<path d="M391.831 590C212.331 681.5 -12.5795 808.045 112.001 874C163 901 293.5 884.5 353.5 860" stroke="#D1D4D8" stroke-width="3" stroke-linecap="round"/>
<ellipse cx="685.5" cy="1189" rx="247.5" ry="30" fill="#D1D4D8"/>
</svg>
