<svg width="419" height="786" viewBox="0 0 419 786" fill="none" xmlns="http://www.w3.org/2000/svg">
<path d="M171.566 546C171.566 543.239 173.805 541 176.566 541H254.566C257.328 541 259.566 543.239 259.566 546V603C259.566 614.046 250.612 623 239.566 623H191.566C180.521 623 171.566 614.046 171.566 603V546Z" fill="#D1D4D8"/>
<path d="M243.066 531V550.5H188.066V531C188.066 515.812 200.379 503.5 215.566 503.5C230.754 503.5 243.066 515.812 243.066 531Z" stroke="#D1D4D8" stroke-width="3"/>
<circle cx="215.566" cy="576" r="10" fill="#D1D4D8"/>
<rect x="211.566" y="580" width="8" height="18" rx="4" fill="#D1D4D8"/>
<path d="M252.066 320.915C286.9 320.415 363.566 346.915 394.066 430.415" stroke="#D1D4D8" stroke-width="3" stroke-linecap="round"/>
<path d="M175.566 320.415C96.0664 335.915 58.0664 369.915 28.0664 435.415" stroke="#D1D4D8" stroke-width="3" stroke-linecap="round"/>
<path d="M252.566 323.415C257.066 310.415 252.967 301.667 248.967 300C224.967 322 188.566 313.833 175.066 300.5C170.266 304.9 173.066 317.915 175.066 321.915C201.066 350.715 238.066 334.581 252.566 323.415Z" fill="#D1D4D8"/>
<path d="M146.066 403.415L154.097 391.09C161.923 379.077 177.155 374.281 190.451 379.643L209.588 387.359C221.528 392.174 235.207 388.834 243.585 379.06L265.566 353.415" stroke="#D1D4D8" stroke-width="3" stroke-linecap="round"/>
<path d="M321.51 119.021C310.51 158.521 305.01 162.021 289.01 179.521C289.01 162.226 286.038 133.196 286.038 121.108C233.649 121.108 189.436 99.7218 173.878 89.0287C174.435 125.292 140.438 149.003 140.438 149.003C140.438 149.003 145.315 163.648 148.101 196.425C150.331 222.646 143.921 217.579 140.438 211.767C130.406 179.409 113.965 188.056 106.998 196.425C21.5106 57.5205 152.977 30.6813 178.057 33.2383C197.006 17.0591 223.432 4.38022 242.01 2.52055C309.01 -4.18637 339.346 54.9727 321.51 119.021Z" stroke="#D1D4D8" stroke-width="3" stroke-linecap="round"/>
<path d="M141.609 236.49C150.609 291.436 211.017 330.945 254.609 286.436C298.202 241.926 289.478 160.454 284.821 122.436" stroke="#D1D4D8" stroke-width="3" stroke-linecap="round"/>
<path d="M106.01 193.021C100.51 206.521 105.67 236.435 141.61 236.435" stroke="#D1D4D8" stroke-width="3" stroke-linecap="round"/>
<path d="M121.861 200.436C121.065 203.324 121.702 210.169 130.609 214.436" stroke="#D1D4D8" stroke-width="3" stroke-linecap="round"/>
<path d="M283.609 229.436C295.34 224.545 303.609 206.436 300.428 177.436" stroke="#D1D4D8" stroke-width="3" stroke-linecap="round"/>
<path d="M217.609 262.436C229.109 265.436 228.382 257.18 237.109 249.936" stroke="#D1D4D8" stroke-width="3" stroke-linecap="round"/>
<circle cx="251.939" cy="192.585" r="7.5" fill="#D1D4D8"/>
<circle cx="185.939" cy="193.585" r="7.5" fill="#D1D4D8"/>
<path d="M169.609 176.436C171.188 171.789 177.998 163.192 192.609 165.98" stroke="#D1D4D8" stroke-width="3" stroke-linecap="round"/>
<path d="M239.609 167.436C243.094 164.417 252.573 160.191 262.609 167.436" stroke="#D1D4D8" stroke-width="3" stroke-linecap="round"/>
<path d="M215.416 188.436C214.252 198.31 213.46 218.333 219.609 219.436" stroke="#D1D4D8" stroke-width="3" stroke-linecap="round"/>
<path d="M375.066 537.5C372.966 543.939 372.804 546.773 370.566 553" stroke="#D1D4D8" stroke-width="3" stroke-linecap="round"/>
<path d="M346.488 610.5C307.018 696.342 258.106 755.347 229.983 780.462C226.566 783.514 221.496 783.573 217.867 780.775C153.169 730.902 109.459 679.329 79.5664 630.5" stroke="#D1D4D8" stroke-width="3" stroke-linecap="round"/>
<path d="M382.066 516C388.136 495.341 392.682 475.336 396.788 453.081C397.567 448.854 395.545 444.603 391.698 442.685C327.809 410.831 176.007 374.209 25.4028 458.463C22.1353 460.291 20.1599 463.849 20.4807 467.579C21.8328 483.3 25.7877 505.71 34.3484 532.5" stroke="#D1D4D8" stroke-width="3" stroke-linecap="round"/>
<path d="M375.565 571C369.182 572.915 359.035 576.507 350.566 580.743C341.651 586 332.566 576 344.066 568.5C349.566 565.167 362.965 557.5 372.565 553.5C382.165 549.5 378.565 538.5 374.565 535.5C369.232 530.667 354.566 521.5 363.566 516C367.066 514.5 371.465 514.8 381.065 518C382.899 518.667 387.465 519.6 391.065 518" stroke="#D1D4D8" stroke-width="3" stroke-linecap="round"/>
<path d="M375.567 571C369.183 572.915 359.037 576.507 350.567 580.743C343.558 584.249 339.265 586.994 337.068 590.5C333.068 596.882 341.068 602.118 346.068 599L369.865 587.231" stroke="#D1D4D8" stroke-width="3" stroke-linecap="round"/>
<path d="M370.567 600.5C368.173 601.85 364.925 603.833 361.817 606C349.865 612.231 344.365 610.731 342.365 600.731" stroke="#D1D4D8" stroke-width="3" stroke-linecap="round"/>
<path d="M386.567 497C398.9 502.667 419.267 526.5 402.067 576.5C398.971 585.5 383.467 603.1 373.067 611.5C360.067 622 353.067 621.5 352.067 616.5C351.562 613.973 356.484 609.717 361.817 606C364.925 603.833 368.173 601.85 370.567 600.5" stroke="#D1D4D8" stroke-width="3" stroke-linecap="round"/>
<path d="M409.066 552C417.4 537.833 425.766 502.9 392.566 476.5" stroke="#D1D4D8" stroke-width="3" stroke-linecap="round"/>
<path d="M71.0664 581.895C74.5664 581.895 76.0664 581.888 78.0664 581.895C87.2331 581.93 104.066 579.7 98.0664 570.5C95.4577 566.5 85.2744 562.471 61.5664 557C48.5664 554 57.0664 544 64.5664 533.5C67.5769 529.285 72.7807 517.5 64.5664 515C53.0664 511.5 37.0665 536.5 28.0664 536" stroke="#D1D4D8" stroke-width="3" stroke-linecap="round"/>
<path d="M71.0664 598.5C78.5664 600 81.5732 600.737 89.0664 602.638C111.749 608.39 117.066 597 111.066 590C105.416 583.408 86.5767 583.091 78.0664 581.895" stroke="#D1D4D8" stroke-width="3" stroke-linecap="round"/>
<path d="M83.0664 618.371C94.0664 621 103.794 620 103.066 612C102.511 605.887 98.0411 604.914 89.0664 602.638C81.5732 600.737 78.5664 600 71.0664 598.5" stroke="#D1D4D8" stroke-width="3" stroke-linecap="round"/>
<path d="M31.0656 521.5C19.8989 524.667 1.56559 565 26.0656 594C33.6612 602.991 54.4656 629.5 82.0656 629.5C87.6087 629.5 90.9914 623.739 83.0656 618.371C79.5527 615.991 73.8182 613.689 65.0656 612" stroke="#D1D4D8" stroke-width="3" stroke-linecap="round"/>
<path d="M24.0663 492.5C8.23297 503.333 -14.9337 536.7 19.0663 583.5" stroke="#D1D4D8" stroke-width="3" stroke-linecap="round"/>
</svg>
