<svg width="931" height="800" viewBox="0 0 931 800" fill="none" xmlns="http://www.w3.org/2000/svg">
<path d="M219.477 177.107C208.961 157.65 177.04 120.607 132.725 146.425C108.941 162.639 71.2108 211.755 110.568 278.506C118.58 291.477 145.494 314.351 189.057 302.079" stroke="#D1D4D8" stroke-width="3" stroke-linecap="round"/>
<path fill-rule="evenodd" clip-rule="evenodd" d="M163.922 163.156C188.238 161.882 199.603 178.095 202.244 186.676C202.651 187.995 201.91 189.394 200.591 189.801C199.271 190.207 197.872 189.466 197.466 188.147C195.334 181.221 185.694 167.022 164.183 168.149C162.804 168.221 161.628 167.162 161.556 165.783C161.484 164.404 162.543 163.228 163.922 163.156ZM125.79 171.219C132.767 165.726 141.606 164.321 147.61 164.657C148.988 164.734 150.043 165.914 149.966 167.292C149.889 168.671 148.709 169.726 147.331 169.649C142.154 169.36 134.636 170.618 128.882 175.148C123.301 179.542 118.983 187.323 120.558 201.006C122.224 215.479 122.103 224.279 121.165 229.426C120.704 231.96 119.993 233.918 118.937 235.206C118.386 235.879 117.663 236.46 116.754 236.743C115.815 237.035 114.887 236.944 114.093 236.611C112.82 236.078 112.22 234.613 112.754 233.339C113.178 232.328 114.189 231.741 115.226 231.811C115.5 231.353 115.909 230.379 116.246 228.531C117.049 224.124 117.241 215.917 115.591 201.578C113.849 186.449 118.639 176.848 125.79 171.219ZM153.309 181.275C150.49 181.06 142.663 181.755 135.681 186.48C132.756 188.46 131.563 191.516 131.358 194.87C131.15 198.268 131.994 201.681 132.827 203.725C133.347 205.004 132.733 206.463 131.454 206.984C130.175 207.505 128.717 206.89 128.196 205.611C127.144 203.029 126.104 198.864 126.367 194.565C126.633 190.222 128.266 185.462 132.878 182.34C140.972 176.861 149.978 176.006 153.691 176.29C155.068 176.395 156.098 177.597 155.993 178.974C155.888 180.35 154.686 181.381 153.309 181.275ZM168.038 178.159C168.383 176.822 169.746 176.017 171.083 176.362C175.032 177.378 180.919 179.875 186.023 184.131C191.156 188.411 195.646 194.609 196.317 202.968C196.428 204.344 195.402 205.549 194.026 205.66C192.649 205.77 191.444 204.744 191.333 203.368C190.799 196.72 187.249 191.663 182.821 187.971C178.365 184.256 173.173 182.063 169.836 181.204C168.499 180.86 167.694 179.497 168.038 178.159ZM161.26 187.128C161.417 188.499 160.432 189.738 159.06 189.895C155.803 190.267 151.656 191.954 148.652 196.069C145.657 200.172 143.551 207.031 145.049 218.217C146.558 229.484 146.965 235.779 146.764 239.686C146.661 241.675 146.399 243.118 146.01 244.323C145.683 245.338 145.274 246.139 144.953 246.767C144.901 246.868 144.852 246.965 144.805 247.058C144.185 248.291 142.683 248.789 141.449 248.17C140.215 247.55 139.717 246.047 140.337 244.813C140.402 244.684 140.463 244.563 140.521 244.449C140.837 243.827 141.055 243.397 141.252 242.788C141.475 242.094 141.684 241.099 141.77 239.429C141.946 236.021 141.599 230.123 140.093 218.881C138.479 206.832 140.644 198.56 144.614 193.121C148.575 187.695 154.087 185.431 158.493 184.927C159.864 184.771 161.104 185.756 161.26 187.128ZM168.198 188.971C168.787 187.722 170.277 187.187 171.526 187.776C178.002 190.83 182.05 196.555 184.492 202.182C186.936 207.814 187.897 213.622 188.032 217.332C188.083 218.712 187.005 219.872 185.625 219.922C184.246 219.972 183.086 218.895 183.036 217.515C182.92 214.348 182.072 209.164 179.906 204.172C177.737 199.176 174.373 194.647 169.393 192.299C168.144 191.71 167.609 190.22 168.198 188.971ZM171.922 201.065C173.255 203.522 173.478 206.376 173.328 208.245C173.218 209.621 172.012 210.647 170.636 210.537C169.26 210.426 168.234 209.221 168.344 207.845C168.445 206.587 168.254 204.789 167.527 203.451C167.184 202.818 166.753 202.345 166.226 202.032C165.709 201.726 164.951 201.483 163.794 201.538C162.79 201.586 162.155 201.917 161.692 202.355C161.186 202.834 160.753 203.572 160.438 204.585C159.796 206.653 159.837 209.257 160.116 211.034C161.488 219.778 161.161 233.356 158.753 245.81C157.546 252.052 155.797 258.118 153.413 263.211C151.048 268.263 147.939 272.617 143.867 275.085C142.686 275.8 141.148 275.423 140.433 274.242C139.717 273.061 140.095 271.524 141.275 270.809C144.137 269.075 146.71 265.738 148.884 261.092C151.039 256.488 152.686 250.849 153.844 244.861C156.165 232.855 156.442 219.871 155.176 211.809C154.827 209.584 154.717 206.148 155.664 203.101C156.144 201.556 156.94 199.969 158.256 198.723C159.615 197.437 161.396 196.646 163.557 196.544C165.566 196.449 167.317 196.866 168.776 197.731C170.224 198.59 171.235 199.801 171.922 201.065ZM196.255 206.684C197.421 205.944 198.965 206.29 199.705 207.456C201.445 210.198 204.322 217.332 202.266 224.837C201.901 226.169 200.526 226.952 199.195 226.588C197.863 226.223 197.079 224.848 197.444 223.516C199.006 217.816 196.758 212.144 195.483 210.134C194.743 208.969 195.089 207.424 196.255 206.684ZM167.816 213.828C169.181 213.617 170.458 214.552 170.669 215.916C171.801 223.24 172.497 228.325 172.251 234.684C172.007 240.996 170.84 248.481 168.388 260.684C162.938 287.807 144.993 296.656 134.673 298.3C133.31 298.517 132.028 297.588 131.811 296.224C131.594 294.861 132.523 293.579 133.887 293.362C142.41 292.005 158.499 284.522 163.486 259.699C165.933 247.517 167.027 240.371 167.255 234.491C167.48 228.656 166.857 223.988 165.727 216.68C165.517 215.316 166.452 214.038 167.816 213.828ZM128.511 214.973C129.865 214.701 131.183 215.578 131.455 216.931C134.099 230.091 132.513 239.38 129.122 245.668C125.743 251.934 120.658 255.036 116.715 255.883C115.365 256.173 114.036 255.313 113.746 253.963C113.456 252.613 114.315 251.284 115.665 250.994C118.129 250.465 122.013 248.316 124.721 243.295C127.416 238.298 129.034 230.267 126.553 217.916C126.281 216.562 127.158 215.245 128.511 214.973ZM178.943 219.057C180.32 218.955 181.519 219.989 181.621 221.366C182.952 239.356 182.071 253.701 180.175 264.29C179.227 269.583 178.02 273.97 176.69 277.421C175.379 280.825 173.883 283.491 172.265 285.18C171.31 286.177 169.727 286.212 168.73 285.256C167.733 284.301 167.699 282.719 168.654 281.722C169.611 280.723 170.816 278.761 172.025 275.624C173.216 272.533 174.348 268.464 175.253 263.409C177.063 253.302 177.941 239.385 176.634 221.735C176.532 220.358 177.566 219.159 178.943 219.057ZM96.1045 236.52C96.5393 235.209 97.9541 234.499 99.2646 234.934C102.388 235.97 106.095 235.874 108.532 234.965C109.826 234.482 111.266 235.139 111.749 236.433C112.231 237.726 111.574 239.166 110.281 239.649C106.688 240.99 101.803 241.044 97.6899 239.68C96.3795 239.245 95.6696 237.83 96.1045 236.52ZM139.554 249.178C140.871 249.593 141.602 250.997 141.187 252.314C140.113 255.72 137.836 260.919 134.424 265.657C131.04 270.357 126.3 274.933 120.202 276.494C118.864 276.836 117.502 276.03 117.16 274.692C116.818 273.354 117.624 271.993 118.962 271.65C123.416 270.51 127.281 267.021 130.367 262.735C133.425 258.488 135.481 253.783 136.418 250.811C136.833 249.495 138.237 248.763 139.554 249.178ZM99.6656 253.758C100.318 252.541 101.833 252.084 103.05 252.736C103.593 253.027 104.704 253.446 105.992 253.566C107.263 253.685 108.517 253.498 109.576 252.827C110.742 252.088 112.287 252.435 113.026 253.601C113.765 254.768 113.418 256.312 112.252 257.051C109.995 258.481 107.543 258.732 105.528 258.545C103.532 258.358 101.779 257.727 100.688 257.143C99.4711 256.49 99.0134 254.975 99.6656 253.758ZM191.751 255.823C193.127 255.926 194.16 257.125 194.057 258.502C193.599 264.627 191.732 274.323 187.608 283.758C183.494 293.171 176.998 302.629 167.094 307.801C165.87 308.44 164.36 307.966 163.721 306.742C163.082 305.519 163.556 304.008 164.78 303.369C173.267 298.937 179.144 290.638 183.027 281.756C186.899 272.896 188.65 263.759 189.071 258.129C189.174 256.752 190.374 255.72 191.751 255.823ZM135.899 281.546C136.951 282.44 137.079 284.018 136.185 285.07C134.519 287.03 129.86 290.874 123.625 291.563C122.253 291.715 121.018 290.726 120.866 289.353C120.714 287.981 121.703 286.745 123.076 286.594C127.695 286.083 131.277 283.123 132.375 281.832C133.269 280.78 134.847 280.652 135.899 281.546ZM166.869 286.759C168.15 287.273 168.771 288.729 168.257 290.01C166.224 295.069 162.592 298.849 158.998 301.501C155.41 304.147 151.716 305.778 149.303 306.484C147.978 306.872 146.59 306.112 146.202 304.787C145.814 303.462 146.573 302.073 147.898 301.685C149.757 301.141 152.922 299.77 156.03 297.477C159.131 295.189 162.032 292.092 163.617 288.146C164.132 286.865 165.588 286.244 166.869 286.759Z" fill="#D1D4D8"/>
<path d="M331.977 114.585V39.0852H255.477" stroke="#D1D4D8" stroke-width="3" stroke-linecap="round"/>
<path d="M2.47656 114.585V39.0852H78.9766" stroke="#D1D4D8" stroke-width="3" stroke-linecap="round"/>
<path d="M2.47656 337.585V413.085H78.9766" stroke="#D1D4D8" stroke-width="3" stroke-linecap="round"/>
<path d="M573.296 314.037C460.896 370.037 375.796 332.848 347.296 307.253C283.982 307.253 283.605 337.442 291.331 352.537C317.653 396.537 410.896 472.337 531.296 441.537" stroke="#D1D4D8" stroke-width="3" stroke-linecap="round"/>
<path d="M291.331 352.537C264.875 319.044 235.111 305.818 226.038 298.708C213.828 289.139 220.951 283.329 226.038 281.62C231.974 279.911 243.507 282.133 252.326 291.019C261.145 299.905 266.176 296.43 267.589 293.582C268.155 292.158 268.946 285.55 267.589 270.512C266.233 255.475 241.303 246.589 241.303 236.335C241.303 224.715 250.348 225.798 254.87 227.791C263.35 231.494 281.157 241.975 284.548 254.278C285.357 259.714 288.777 272.285 295.977 279.085" stroke="#D1D4D8" stroke-width="3" stroke-linecap="round"/>
<path d="M305.746 270.512C303.485 263.962 297.081 251.544 285.549 257.696" stroke="#D1D4D8" stroke-width="3" stroke-linecap="round"/>
<path d="M316.77 276.493C316.77 270.228 317.279 257.867 302.355 258.551" stroke="#D1D4D8" stroke-width="3" stroke-linecap="round"/>
<path d="M347.296 307.253C340.513 299.563 332.881 288.455 331.185 276.493C330.018 268.261 321.292 262.538 315.922 262.823" stroke="#D1D4D8" stroke-width="3" stroke-linecap="round"/>
<path d="M643.142 289.665C613.142 285.665 534.083 303.665 574.142 385.164C578.975 394.998 596.542 414.364 628.142 413.164C668.642 411.626 690.475 452.498 703.642 472.165" stroke="#D1D4D8" stroke-width="3" stroke-linecap="round"/>
<path d="M753.143 297.164C797.643 313.498 848.143 369.465 716.143 450.665" stroke="#D1D4D8" stroke-width="3" stroke-linecap="round"/>
<path d="M631.143 322.165C658.31 342.832 711.043 410.065 704.643 513.665C698.243 617.265 697.643 631.498 698.144 625.665" stroke="#D1D4D8" stroke-width="3" stroke-linecap="round"/>
<path d="M669.643 431.665V518.665" stroke="#D1D4D8" stroke-width="3" stroke-linecap="round"/>
<path d="M733.143 442.165V523.665" stroke="#D1D4D8" stroke-width="3" stroke-linecap="round"/>
<path d="M716.143 450.165C717.976 422.165 727.943 345.965 753.143 265.165" stroke="#D1D4D8" stroke-width="3" stroke-linecap="round"/>
<path d="M660.143 352.165C660.477 337.665 656.843 303.565 639.643 283.165C618.143 257.665 616.643 242.165 616.643 194.665" stroke="#D1D4D8" stroke-width="3" stroke-linecap="round"/>
<path d="M670.642 208.665C662.642 207.165 649.042 197.165 658.642 169.165" stroke="#D1D4D8" stroke-width="3" stroke-linecap="round"/>
<path d="M649.297 237.537C652.131 242.704 662.697 251.037 682.297 243.037" stroke="#D1D4D8" stroke-width="3" stroke-linecap="round"/>
<path d="M790.645 166.165C790.311 171.165 786.945 181.365 776.145 182.165" stroke="#D1D4D8" stroke-width="3" stroke-linecap="round"/>
<path d="M776.145 208.665C796.145 197.498 828.245 170.065 796.645 149.665C792.311 146.665 782.145 144.865 776.145 161.665" stroke="#D1D4D8" stroke-width="3" stroke-linecap="round"/>
<path d="M732.143 137.165C727.87 134.147 716.887 129.921 707.143 137.165" stroke="#D1D4D8" stroke-width="3" stroke-linecap="round"/>
<path d="M642.143 142.165C637.87 139.147 626.887 134.921 617.143 142.165" stroke="#D1D4D8" stroke-width="3" stroke-linecap="round"/>
<path d="M760.058 25.5463L760.265 25.6343L760.49 25.6574C788.521 28.54 807.187 35.937 819.016 45.8717C830.801 55.77 835.932 68.2981 836.695 81.7876C838.184 108.1 823.033 138.017 807.898 158.341C801.496 146.816 790.703 145.366 784.518 146.343C781.617 107.88 767.906 90.497 751.225 85.003C734.7 79.5603 715.987 86.0733 703.741 93.6487C678.629 92.7139 662.678 97.1746 652.941 103.335C644.501 108.675 640.737 115.304 639.854 120.673C629.279 114.882 619.504 115.577 612.078 118.268C608.143 119.694 604.87 121.678 602.474 123.543C601.423 124.361 600.529 125.164 599.817 125.898C586.691 86.6237 585.303 58.8318 591.527 39.6946C597.849 20.257 612.109 9.50403 630.599 4.6649C649.165 -0.193967 671.934 0.940774 694.931 5.36357C717.902 9.78154 740.968 17.4539 760.058 25.5463Z" stroke="#D1D4D8" stroke-width="3"/>
<path d="M717.143 190.665C697.536 190.665 681.643 174.771 681.643 155.165C681.643 135.559 697.536 119.665 717.143 119.665C736.749 119.665 752.643 135.559 752.643 155.165C752.643 174.771 736.749 190.665 717.143 190.665Z" stroke="#D1D4D8" stroke-width="3"/>
<path d="M717.143 171.165C711.62 171.165 707.143 166.688 707.143 161.165C707.143 155.642 711.62 151.165 717.143 151.165C722.665 151.165 727.143 155.642 727.143 161.165C727.143 166.688 722.665 171.165 717.143 171.165Z" fill="#D1D4D8"/>
<path d="M625.143 190.665C605.536 190.665 589.643 174.771 589.643 155.165C589.643 135.559 605.536 119.665 625.143 119.665C644.749 119.665 660.643 135.559 660.643 155.165C660.643 174.771 644.749 190.665 625.143 190.665Z" stroke="#D1D4D8" stroke-width="3"/>
<path d="M625.143 171.165C619.62 171.165 615.143 166.688 615.143 161.165C615.143 155.642 619.62 151.165 625.143 151.165C630.665 151.165 635.143 155.642 635.143 161.165C635.143 166.688 630.665 171.165 625.143 171.165Z" fill="#D1D4D8"/>
<path d="M661.143 153.165H680.643" stroke="#D1D4D8" stroke-width="3" stroke-linecap="round"/>
<path d="M753.297 149.037L777.297 155.537" stroke="#D1D4D8" stroke-width="3" stroke-linecap="round"/>
<path d="M602.296 621.037C610.296 645.037 606.298 703.037 571.297 743.037" stroke="#D1D4D8" stroke-width="3" stroke-linecap="round"/>
<path d="M793.296 632.537C782.13 653.204 774.496 721.037 801.296 767.037" stroke="#D1D4D8" stroke-width="3" stroke-linecap="round"/>
<path d="M793.297 631.537C756.464 636.37 666.897 640.937 603.297 620.537" stroke="#D1D4D8" stroke-width="3" stroke-linecap="round"/>
<path d="M796.797 332.537C908.464 394.204 1027.8 555.537 799.297 760.537" stroke="#D1D4D8" stroke-width="3" stroke-linecap="round"/>
<path d="M814.93 639.408C839.197 602.771 839.619 595.931 841.93 549.408" stroke="#D1D4D8" stroke-width="3" stroke-linecap="round"/>
<path d="M829.297 733.037C829.297 760.037 826.797 770.537 821.797 786.037C757.964 801.37 618.497 814.237 571.297 743.037" stroke="#D1D4D8" stroke-width="3" stroke-linecap="round"/>
<path d="M518.297 446.037C553.296 556.537 519.797 646.037 570.797 743.537" stroke="#D1D4D8" stroke-width="3" stroke-linecap="round"/>
</svg>
