<svg width="1176" height="1250" viewBox="0 0 1176 1250" fill="none" xmlns="http://www.w3.org/2000/svg">
<path fill-rule="evenodd" clip-rule="evenodd" d="M341.457 976.743C332.031 979.341 324.329 984.919 320.152 989.251C320.138 989.265 320.123 989.28 320.109 989.294L329.343 992.515C331.64 993.317 332.884 995.799 332.152 998.119L321.215 1032.75C330.303 1035.34 337.32 1038.63 341.846 1041.51L350.922 1026.1L340.714 1020.88C339.485 1020.25 338.998 1018.74 339.626 1017.51C340.255 1016.28 341.761 1015.8 342.991 1016.43L353.464 1021.78L358.198 1013.75C358.899 1012.56 360.431 1012.16 361.621 1012.86C362.711 1013.5 363.135 1014.84 362.659 1015.98C373.566 1014.39 385.226 1019.43 395.39 1026.21C406.055 1033.33 415.608 1042.74 421.825 1049.97C424.322 1052.87 422.22 1056.96 418.861 1057.36C410.698 1058.35 404.309 1060.47 399.345 1063.16C405.177 1063.09 410.475 1067.15 414.563 1071.69C419.54 1077.21 423.616 1084.39 426.038 1089.66C426.872 1091.47 426.377 1093.56 424.942 1094.84C422.464 1097.05 418.702 1100.37 414.319 1104.18C416.006 1105.62 419.531 1107.52 425.852 1107.52C439.422 1107.52 445.542 1117.79 448.128 1123.48C448.888 1125.15 450.442 1127.44 452.297 1129.84C454.119 1132.2 456.112 1134.51 457.627 1136.17C459.006 1137.69 459.219 1139.97 458.066 1141.72L444.022 1162.99C443.141 1164.33 441.751 1164.95 440.467 1165.06C439.201 1165.17 437.864 1164.81 436.796 1163.99C434.083 1161.92 429.389 1160.12 424.232 1158.71C419.16 1157.33 413.974 1156.43 410.542 1156C409.858 1155.91 409.274 1155.56 408.881 1155.05C408.388 1155.49 407.895 1155.93 407.404 1156.39C404.292 1159.25 401.378 1162.3 399.116 1164.85C407.329 1170.26 415.656 1176.28 421.907 1181C423.561 1182.25 423.949 1184.21 423.546 1185.79C423.147 1187.35 421.915 1188.84 420.007 1189.28C418.966 1189.52 417.914 1189.8 416.855 1190.12C426.47 1191.4 433.836 1198.54 438.079 1204.28C438.153 1204.3 438.289 1204.31 438.467 1204.29C438.659 1204.27 438.818 1204.2 438.916 1204.14C438.943 1204.13 438.96 1204.11 438.971 1204.1C443.574 1194.48 453.696 1188.19 460.702 1185.13C455.872 1179.99 453.407 1173.65 452.274 1167.86C451.135 1162.03 451.306 1156.59 451.886 1153.1C452.113 1151.74 453.401 1150.82 454.763 1151.05C456.125 1151.28 457.045 1152.56 456.818 1153.93C456.332 1156.84 456.161 1161.68 457.181 1166.9C458.199 1172.11 460.37 1177.52 464.419 1181.78C466.636 1184.12 466.031 1188.27 462.87 1189.64C456.232 1192.5 447.317 1198.21 443.465 1206.3C442.569 1208.18 440.665 1209.05 439.106 1209.25C437.554 1209.45 435.418 1209.09 434.115 1207.33C430.056 1201.81 423.508 1195.79 415.603 1195C414.23 1194.87 413.227 1193.64 413.365 1192.27C413.406 1191.85 413.548 1191.47 413.765 1191.14C411.669 1191.9 409.557 1192.78 407.45 1193.77C408.28 1194.18 408.852 1195.03 408.852 1196.02C408.852 1200.56 410.008 1210.69 414.175 1217.73C415.477 1219.93 414.853 1223.07 412.258 1224.31L363.578 1247.7C363.373 1247.8 363.149 1247.89 362.899 1247.96C354.212 1250.47 334.034 1250.31 319.363 1231.03C318.527 1229.93 318.74 1228.36 319.838 1227.53C320.937 1226.69 322.506 1226.9 323.342 1228C336.462 1245.25 354.256 1245.23 361.455 1243.17L409.708 1219.99C405.017 1211.86 403.852 1200.88 403.852 1196.02C403.852 1195.85 403.869 1195.68 403.9 1195.53C400.92 1197.08 397.976 1198.8 395.135 1200.6C387.195 1205.65 380.203 1211.25 375.639 1215.38C373.702 1217.13 370.658 1216.91 369.027 1214.81L344.035 1182.73C341.714 1183.64 339.255 1184.56 336.71 1185.47C336.549 1190.03 337.901 1198.39 344.298 1205.08C346.395 1207.27 346.01 1211.18 342.98 1212.61C338.264 1214.84 331.965 1218.19 326.206 1222.08C320.371 1226.02 315.398 1230.3 312.996 1234.3C309.576 1240 304.456 1242.4 299.558 1243.03C294.753 1243.66 290.104 1242.62 287.157 1241.43C286.771 1241.28 286.409 1241.07 286.079 1240.8C283.476 1238.7 277.625 1232.56 271.687 1222.26C271.437 1221.83 271.332 1221.36 271.355 1220.89C270.728 1221.4 270.103 1221.91 269.483 1222.43C264.015 1227.01 259.023 1232.02 255.964 1236.85C254.797 1238.7 253.32 1240.06 251.558 1240.9C249.803 1241.73 247.921 1241.97 246.046 1241.8C242.381 1241.48 238.525 1239.62 234.929 1237.22C227.681 1232.4 220.395 1224.68 215.903 1219.08C215.038 1218 215.21 1216.43 216.287 1215.57C217.363 1214.7 218.937 1214.87 219.801 1215.95C224.143 1221.36 231.057 1228.64 237.7 1233.06C241.05 1235.29 244.063 1236.61 246.481 1236.82C247.647 1236.92 248.609 1236.76 249.414 1236.38C250.21 1236 251.007 1235.33 251.74 1234.18C255.205 1228.71 260.654 1223.3 266.273 1218.6C271.855 1213.92 277.742 1209.83 282.342 1206.92C282.342 1206.92 282.342 1206.91 282.341 1206.9C282.335 1206.81 282.307 1206.7 282.263 1206.62C282.22 1206.53 282.182 1206.51 282.183 1206.51C277.895 1203.42 276.193 1198.9 275.872 1196.33C275.7 1194.96 276.672 1193.71 278.042 1193.53C279.412 1193.36 280.662 1194.34 280.833 1195.71C281.016 1197.17 282.148 1200.32 285.106 1202.45C286.518 1203.47 287.235 1205.09 287.331 1206.58C287.428 1208.09 286.897 1209.96 285.169 1211.05C282.011 1213.04 278.21 1215.62 274.336 1218.56C275.019 1218.7 275.642 1219.12 276.018 1219.77C281.639 1229.51 287.039 1235.12 289.128 1236.84C291.471 1237.76 295.192 1238.56 298.913 1238.07C302.598 1237.6 306.218 1235.88 308.708 1231.73C311.705 1226.73 317.464 1221.95 323.409 1217.94C329.268 1213.98 335.61 1210.58 340.446 1208.28C333.923 1201.31 331.933 1192.92 331.72 1187.22C319.342 1191.45 305.718 1195.41 296.233 1197.97C294.023 1198.56 291.648 1197.4 290.875 1195.14C285.521 1179.52 286.847 1159.56 288.287 1150.7C285.641 1153.18 283.266 1155.53 281.318 1157.53C279.83 1159.07 277.279 1159.46 275.409 1157.93C270.758 1154.1 263.664 1145.38 264.865 1133.76C265.008 1132.38 266.236 1131.39 267.609 1131.53C268.983 1131.67 269.981 1132.9 269.839 1134.27C268.918 1143.17 274.146 1150.2 278.11 1153.66C283.03 1148.62 290.411 1141.66 298.077 1135.65C302.01 1132.57 306.057 1129.71 309.914 1127.48C313.733 1125.28 317.537 1123.6 320.954 1123.05C326.534 1122.15 329.724 1119.7 331.536 1117.18C332.734 1115.52 333.375 1113.76 333.664 1112.28L333.227 1112.86C332.047 1114.42 329.994 1115.04 328.147 1114.39L291.025 1101.37C289.722 1100.92 289.036 1099.49 289.493 1098.19C289.95 1096.89 291.377 1096.2 292.679 1096.66L329.457 1109.55L360.714 1068.18L339.171 1054.67C337.107 1053.37 336.449 1050.67 337.685 1048.57L339.307 1045.82C338.569 1045.34 337.749 1044.85 336.847 1044.35C336.906 1045.26 336.464 1046.17 335.625 1046.67C300.706 1067.32 285.189 1100.12 281.249 1115.6C280.635 1118.01 278.175 1119.55 275.688 1118.9L218.288 1103.86L210.526 1114.16C210.927 1114.52 211.214 1115.01 211.315 1115.58L213.078 1125.64C213.97 1125.35 214.988 1125.57 215.673 1126.3L236.501 1148.43C236.527 1148.43 236.56 1148.42 236.598 1148.42C236.717 1148.39 236.835 1148.33 236.925 1148.27C237.003 1148.21 237.027 1148.17 237.028 1148.17C239.594 1143.23 244.865 1137.53 250.303 1132.45C255.806 1127.3 261.734 1122.55 265.869 1119.5C266.981 1118.68 268.546 1118.92 269.365 1120.03C270.184 1121.14 269.947 1122.71 268.835 1123.53C264.83 1126.48 259.057 1131.1 253.718 1136.1C248.314 1141.15 243.603 1146.36 241.463 1150.48C240.666 1152.02 239.168 1152.95 237.743 1153.28C236.32 1153.62 234.378 1153.47 232.986 1151.99L226.852 1145.48V1173C226.852 1173.01 226.852 1173.02 226.852 1173.04V1187.02H285.352C286.733 1187.02 287.852 1188.13 287.852 1189.52C287.852 1190.9 286.733 1192.02 285.352 1192.02H240.144C240.612 1193.09 240.277 1194.37 239.284 1195.07C234.463 1198.43 227.213 1204.06 220.592 1210.33C213.888 1216.68 208.154 1223.39 205.965 1228.93C205.014 1231.33 202.066 1232.88 199.395 1231.54C195.438 1229.54 190.637 1227.38 185.506 1225.08C181.79 1223.41 177.902 1221.66 174.036 1219.84C165.054 1215.61 156.202 1210.99 151.16 1206.36C150.143 1205.42 150.078 1203.84 151.012 1202.82C151.947 1201.81 153.529 1201.74 154.545 1202.68C158.937 1206.72 167.087 1211.04 176.165 1215.32C179.83 1217.04 183.653 1218.76 187.362 1220.43C192.497 1222.74 197.412 1224.95 201.376 1226.93C204.04 1220.33 210.459 1213.04 217.154 1206.7C223.336 1200.84 230.027 1195.55 234.941 1192.02H226.352C223.867 1192.02 221.852 1190 221.852 1187.52V1176.06C220.132 1176.62 218.24 1177.57 216.321 1178.78C213.413 1180.6 210.734 1182.81 208.948 1184.48C207.803 1185.56 205.915 1186.17 204.112 1185.28C200.572 1183.55 196.137 1179.54 192.178 1175.51C188.89 1172.16 185.737 1168.58 183.388 1165.76C177.971 1169.61 173.675 1173.2 171.508 1176.02C170.6 1177.21 169.237 1177.91 167.904 1178.11C166.566 1178.31 164.886 1178.04 163.645 1176.76L152.054 1164.75C151.095 1163.76 151.122 1162.18 152.116 1161.22C153.109 1160.26 154.692 1160.29 155.651 1161.28L167.129 1173.17C167.139 1173.17 167.15 1173.16 167.163 1173.16C167.246 1173.15 167.338 1173.12 167.419 1173.07C167.5 1173.03 167.536 1172.99 167.542 1172.98C170.483 1169.15 176.139 1164.66 182.434 1160.33C191.807 1153.87 203.205 1147.34 211.075 1143.15L206.845 1119.04L205.013 1121.47C203.552 1123.41 200.818 1123.84 198.832 1122.45L163.415 1097.56C162.285 1096.77 162.013 1095.21 162.807 1094.08C163.601 1092.95 165.16 1092.68 166.29 1093.47L201.311 1118.08L225.567 1085.89L210.967 1091.39C209.283 1092.02 207.384 1091.6 206.137 1090.3L182.05 1065.25C181.093 1064.25 181.124 1062.67 182.119 1061.71C183.115 1060.76 184.697 1060.79 185.654 1061.78L209.513 1086.6L243.038 1073.97L232.436 1062.23L227.099 1063.23C225.341 1063.56 223.555 1062.82 222.549 1061.34L214.785 1049.92C214.009 1048.78 214.305 1047.22 215.446 1046.45C216.588 1045.67 218.143 1045.97 218.92 1047.11L226.5 1058.26L231.79 1057.26C233.33 1056.98 234.909 1057.51 235.959 1058.67L247.24 1071.16C249.366 1073.52 248.455 1077.27 245.487 1078.39L234.309 1082.6L221.541 1099.54L276.512 1113.95C280.867 1097.34 297.06 1063.69 333.014 1042.4C321.802 1037.16 302.573 1031.79 277.933 1033.43L288.398 1059.64C289.349 1062.03 288.119 1064.72 285.695 1065.56L251.672 1077.38C250.368 1077.83 248.943 1077.14 248.491 1075.84C248.038 1074.53 248.728 1073.11 250.032 1072.65L283.56 1061.01L272.726 1033.87C266.289 1034.54 259.518 1035.69 252.453 1037.44C252.353 1037.47 252.252 1037.49 252.152 1037.5C251.711 1038.53 250.609 1039.17 249.451 1038.98C248.088 1038.76 247.163 1037.48 247.385 1036.11L250.376 1017.74L198.161 1021.58L205.518 1028.15C206.548 1029.07 206.636 1030.65 205.716 1031.68C204.796 1032.71 203.216 1032.8 202.186 1031.88L180.345 1012.36L160.01 1030.39C159.913 1030.47 159.811 1030.55 159.705 1030.62L179.584 1049.71C180.58 1050.67 180.612 1052.25 179.655 1053.25C178.699 1054.24 177.116 1054.27 176.12 1053.32L139.145 1017.8L89.7731 1031.39L107.517 1052.52H117.608C118.688 1052.52 119.733 1052.9 120.55 1053.61L148.036 1077.37L202.086 1040.69C202.623 1040.33 203.233 1040.08 203.873 1039.98L230.441 1035.55C231.803 1035.32 233.091 1036.24 233.318 1037.6C233.545 1038.97 232.625 1040.25 231.263 1040.48L204.803 1044.89L159.361 1075.73C160.441 1076.2 161.065 1077.39 160.787 1078.58L154.165 1106.96C153.678 1109.05 151.784 1110.5 149.646 1110.44C152.89 1115.6 156.565 1122.33 159.315 1129.25C161.099 1133.74 162.524 1138.39 163.165 1142.8C163.803 1147.19 163.694 1151.53 162.206 1155.27C161.466 1157.13 159.682 1157.96 158.164 1158.01C154.377 1158.15 147.808 1159.65 143.793 1164.59C140.944 1168.1 136.861 1170.66 133.029 1172.44C129.171 1174.24 125.357 1175.35 122.827 1175.87C122.112 1176.02 121.322 1176 120.547 1175.72C117.144 1174.49 111.227 1170.68 105.933 1163.08L91.0279 1177.88C90.5093 1178.4 89.9128 1178.76 89.2847 1178.97C89.9301 1179.42 90.3521 1180.17 90.3521 1181.02V1196.69C90.3521 1199.02 88.5827 1200.96 86.2689 1201.17L45.0837 1205C43.7089 1205.13 42.4907 1204.12 42.3629 1202.75C42.235 1201.37 43.2458 1200.15 44.6206 1200.03L85.3521 1196.24V1181.02C85.3521 1180.18 85.763 1179.44 86.3941 1178.98C85.8141 1178.8 85.2681 1178.52 84.7946 1178.13C81.7913 1175.69 76.337 1172.59 68.298 1169.99C68.515 1171.01 68.0752 1172.1 67.1298 1172.66C61.5703 1175.97 48.5058 1187.01 40.9763 1204.5C39.9694 1206.84 37.1812 1207.97 34.8042 1206.8L8.69264 1193.96C5.9666 1192.62 5.32488 1189.02 7.41996 1186.82L25.5418 1167.79C26.494 1166.79 28.0764 1166.75 29.0763 1167.71C30.0761 1168.66 30.1147 1170.24 29.1625 1171.24L11.5102 1189.77L36.5681 1202.1C44.3551 1184.31 57.4656 1172.81 63.9871 1168.73C53.1624 1165.83 38.4971 1163.97 19.7521 1165.26C16.533 1165.48 13.8939 1162.23 15.3257 1159.02C18.9613 1150.88 26.6436 1136.72 36.2373 1128.61C37.2913 1127.72 38.8687 1127.85 39.7606 1128.9C40.6524 1129.95 40.521 1131.53 39.467 1132.42C31.0702 1139.53 23.9671 1152.16 20.2751 1160.21C57.1439 1157.85 79.2595 1167.33 87.7509 1174.09L103.221 1158.73C102.846 1158.05 102.477 1157.36 102.116 1156.63C97.2377 1146.88 91.9717 1139.82 88.6705 1135.87L79.7328 1145.13C78.3018 1146.61 76.0461 1146.93 74.2578 1145.91L25.9315 1118.23C23.7004 1116.95 22.9919 1114.07 24.3769 1111.9L42.3915 1083.72C42.9093 1082.91 43.6731 1082.29 44.5707 1081.95L86.9565 1065.68C88.1391 1065.23 89.4537 1065.73 90.0447 1066.81C90.8798 1063.12 92.9774 1059.58 95.1405 1056.71C96.7426 1054.58 98.4666 1052.71 99.9494 1051.28L92.8352 1042.81C92.8086 1043.03 92.7513 1043.26 92.6611 1043.47C92.1318 1044.75 90.6689 1045.35 89.3937 1044.82C85.2377 1043.1 78.3997 1040.9 71.354 1039.89C64.3637 1038.88 57.6994 1039.11 53.1631 1041.55C52.512 1047.54 53.5948 1060.32 62.7413 1070.88C63.6456 1071.92 63.5328 1073.5 62.4894 1074.4C61.446 1075.31 59.8671 1075.2 58.9629 1074.15C48.452 1062.02 47.3848 1047.37 48.2452 1040.56C48.4114 1039.24 49.176 1038.07 50.3495 1037.39C56.4053 1033.92 64.6537 1033.87 72.0682 1034.94C79.0558 1035.95 85.7984 1038.02 90.3066 1039.8L85.4432 1034.01C83.3338 1031.5 84.5328 1027.65 87.6947 1026.78L138.093 1012.91C139.622 1012.49 141.26 1012.9 142.404 1014L156.196 1027.25C156.326 1027.03 156.492 1026.82 156.694 1026.64L168.597 1016.09C168.562 1016.02 168.531 1015.95 168.503 1015.87L163.12 1001.07C153.988 1001.49 136.096 1004.46 124.379 1013.5C123.285 1014.34 121.715 1014.14 120.872 1013.04C120.029 1011.95 120.232 1010.38 121.326 1009.54C134.462 999.409 154 996.42 163.345 996.054C165.33 995.976 167.042 997.221 167.686 998.993L172.611 1012.54L177.362 1008.33C179.071 1006.81 181.643 1006.82 183.345 1008.34L192.977 1016.94L202.64 1016.23L228.228 986.726C229.256 985.54 230.827 984.976 232.375 985.237L276.566 992.679L284.396 980.491C285.521 978.74 287.7 977.989 289.665 978.674L315.87 987.816C315.783 987.095 316.01 986.343 316.553 985.78C321.246 980.913 329.702 974.797 340.129 971.923C350.644 969.024 363.185 969.429 375.702 977.729C377.156 978.693 377.895 980.414 377.644 982.105L374.153 1005.67C373.756 1008.35 371.179 1009.96 368.703 1009.48C364.322 1008.63 358.099 1008.27 352.028 1009.66C345.989 1011.04 340.25 1014.11 336.454 1020.01C335.707 1021.17 334.16 1021.5 332.999 1020.75C331.838 1020.01 331.503 1018.46 332.25 1017.3C336.937 1010.02 343.976 1006.37 350.912 1004.78C357.637 1003.24 364.405 1003.6 369.272 1004.5L372.649 981.705C361.612 974.506 350.714 974.191 341.457 976.743ZM279.169 997.879C280.005 997.589 280.66 996.864 280.817 995.931C280.855 995.709 280.862 995.489 280.841 995.276L288.39 983.525L327.237 997.077L316.371 1031.49C304.838 1028.75 290.527 1027.22 274.127 1028.71C267.449 1029.32 260.424 1030.42 253.097 1032.14L255.412 1017.92C255.88 1015.05 253.542 1012.49 250.641 1012.71L209.708 1015.72L231.821 990.214L273.627 997.255L260.749 1017.3C260.003 1018.46 260.339 1020.01 261.501 1020.76C262.663 1021.5 264.209 1021.17 264.956 1020L279.169 997.879ZM103.174 1055.12C101.927 1056.35 100.481 1057.93 99.1337 1059.72C97.0129 1062.53 95.3139 1065.62 94.8141 1068.45C94.2066 1071.89 91.775 1078.08 89.0264 1084.41C86.349 1090.58 83.2312 1097.19 80.785 1102.2L149.391 1105.42L155.747 1078.18L150.526 1081.72C148.84 1082.87 146.597 1082.74 145.056 1081.4L117.421 1057.52H107.284C105.955 1057.52 104.694 1056.93 103.839 1055.91L103.174 1055.12ZM89.2472 1070.09C89.0941 1070.19 88.9272 1070.28 88.7477 1070.35L46.5155 1086.55L28.8722 1114.15L76.4051 1141.38L86.9541 1130.45C86.9643 1130.43 86.9746 1130.42 86.985 1130.41L102.553 1114.28C103.512 1113.29 105.095 1113.26 106.088 1114.22C107.082 1115.18 107.11 1116.76 106.151 1117.75L92.1613 1132.25C95.6378 1136.36 101.334 1143.89 106.588 1154.4C107.203 1155.63 107.839 1156.77 108.49 1157.85C113.517 1166.14 119.35 1169.88 122.029 1170.93C124.219 1170.47 127.552 1169.48 130.916 1167.91C134.413 1166.28 137.736 1164.12 139.912 1161.44C145.121 1155.03 153.186 1153.25 157.709 1153.03C158.618 1150.47 158.758 1147.25 158.217 1143.52C157.65 1139.63 156.364 1135.37 154.668 1131.1C151.489 1123.09 146.972 1115.3 143.494 1110.15L79.8038 1107.16C76.5544 1107 74.5434 1103.57 75.9687 1100.66C78.4385 1095.63 81.6822 1088.78 84.44 1082.42C86.5595 1077.54 88.3085 1073.14 89.2472 1070.09ZM187.526 1162.92C189.767 1165.59 192.703 1168.9 195.747 1172.01C199.508 1175.84 203.185 1179.09 205.839 1180.55C207.795 1178.75 210.592 1176.46 213.666 1174.54C216.152 1172.98 219.009 1171.53 221.852 1170.87V1144.52C221.852 1143.37 222.626 1142.4 223.681 1142.11L214.201 1132.03L216.062 1142.64C216.4 1144.57 215.456 1146.49 213.733 1147.4C206.569 1151.2 196.346 1157.03 187.526 1162.92ZM337.162 1107.65C338.111 1107.97 338.809 1108.86 338.85 1109.92C338.953 1112.59 338.168 1116.53 335.593 1120.1C332.964 1123.75 328.57 1126.88 321.75 1127.98C319.218 1128.39 316.033 1129.72 312.412 1131.81C308.828 1133.88 304.983 1136.59 301.161 1139.58C297.71 1142.29 294.309 1145.2 291.175 1148.04C291.21 1148.04 291.244 1148.05 291.279 1148.05C292.639 1148.29 293.551 1149.58 293.316 1150.94C291.914 1159.04 290.555 1178.24 295.432 1193C305.727 1190.22 320.654 1185.84 333.52 1181.3C337.217 1180 340.732 1178.68 343.912 1177.39C347.524 1175.93 350.666 1174.51 353.135 1173.18C355.676 1171.82 357.253 1170.69 357.972 1169.87C358.507 1169.26 359.005 1168.69 359.47 1168.17C362.659 1164.57 364.23 1162.8 364.994 1159.84C365.9 1156.34 365.65 1151.07 363.917 1139.63C361.248 1140.58 358.284 1141.53 355.015 1142.43C347.032 1144.62 342.406 1147.89 339.839 1150.81C339.057 1151.7 337.981 1152.2 337.086 1152.48C336.138 1152.77 335.095 1152.92 334.096 1152.93C333.108 1152.94 332.033 1152.82 331.055 1152.47C330.12 1152.13 328.924 1151.46 328.293 1150.14L321.097 1135.09C320.501 1133.85 321.028 1132.36 322.274 1131.76C323.519 1131.16 325.012 1131.69 325.608 1132.94L332.687 1147.74C332.702 1147.74 332.718 1147.75 332.737 1147.76C333.015 1147.86 333.473 1147.94 334.047 1147.93C334.611 1147.93 335.162 1147.84 335.592 1147.7C335.971 1147.59 336.106 1147.48 336.109 1147.48C339.442 1143.7 344.978 1140 353.689 1137.6C365.099 1134.47 372.427 1130.82 376.285 1128.35C370.867 1124.41 366.601 1116.76 363.4 1108.97C359.686 1099.92 357.133 1090 355.896 1083.48C355.86 1083.29 355.846 1083.1 355.854 1082.91L337.162 1107.65ZM357.568 1080.64C357.671 1080.61 357.777 1080.58 357.886 1080.56C359.242 1080.3 360.551 1081.19 360.808 1082.55C361.986 1088.75 364.415 1098.2 367.911 1106.79C370.309 1110.04 374.438 1114.21 379.162 1116.49C381.556 1117.65 384.003 1118.27 386.406 1118.15C388.772 1118.02 391.252 1117.16 393.758 1115.09C398.977 1110.77 404.395 1106.15 409.217 1101.98C414.183 1097.69 418.509 1093.88 421.32 1091.37C419.004 1086.42 415.257 1079.93 410.848 1075.03C406.165 1069.84 401.56 1067.31 397.517 1068.43C396.186 1068.79 394.809 1068.01 394.442 1066.68C394.413 1066.58 394.391 1066.47 394.377 1066.37C389.026 1070.47 386.048 1075.25 384.574 1079.3C384.173 1080.4 383.355 1081.22 382.654 1081.77C381.907 1082.36 381.031 1082.84 380.159 1083.21C379.284 1083.58 378.33 1083.87 377.4 1084C376.526 1084.13 375.407 1084.16 374.367 1083.76C369.438 1081.86 362.286 1080.54 358.054 1080L357.568 1080.64ZM361.493 1075.45C365.863 1076.15 371.687 1077.38 376.127 1079.08C376.127 1079.08 376.126 1079.08 376.127 1079.08C376.138 1079.08 376.306 1079.11 376.681 1079.05C377.124 1078.99 377.665 1078.84 378.214 1078.6C378.763 1078.37 379.236 1078.1 379.568 1077.84C379.79 1077.66 379.878 1077.55 379.9 1077.52C383.546 1067.58 394.1 1055.58 417.408 1052.51C411.389 1045.62 402.451 1036.94 392.614 1030.37C382.33 1023.5 371.588 1019.3 362.331 1021.11C361.479 1021.27 360.644 1020.98 360.075 1020.41L342.24 1050.69L363.833 1064.24C366.069 1065.64 366.623 1068.66 365.032 1070.76L361.493 1075.45ZM374.922 1119.88C376.39 1121.84 377.923 1123.42 379.503 1124.5C380.675 1125.31 381.461 1126.58 381.63 1127.95C381.807 1129.4 381.282 1131.01 379.805 1132.02C377.394 1133.66 373.688 1135.72 368.561 1137.84C368.69 1138.09 368.78 1138.35 368.824 1138.64C369.656 1144.11 370.202 1148.42 370.41 1151.94C370.984 1151.23 371.925 1150.87 372.876 1151.07C375.801 1151.7 379.517 1153.33 383.518 1155.44C387.029 1157.29 390.901 1159.59 394.869 1162.11C397.296 1159.34 400.531 1155.92 404.016 1152.71C408.19 1148.86 412.93 1145.12 417.172 1143.26C417.171 1143.26 417.171 1143.26 417.172 1143.26C417.177 1143.26 417.228 1143.23 417.298 1143.15C417.377 1143.06 417.446 1142.94 417.487 1142.81C417.502 1142.77 417.511 1142.73 417.516 1142.7L397.1 1118.81C397.049 1118.86 396.998 1118.9 396.946 1118.94C393.653 1121.67 390.158 1122.96 386.667 1123.14C383.214 1123.32 379.923 1122.41 376.987 1120.99C376.283 1120.65 375.594 1120.28 374.922 1119.88ZM400.941 1115.61L421.433 1139.59C422.741 1141.12 422.686 1143.05 422.223 1144.42C421.759 1145.79 420.718 1147.17 419.173 1147.85C417.421 1148.61 415.462 1149.83 413.42 1151.35C416.855 1151.87 421.229 1152.71 425.544 1153.89C430.79 1155.32 436.297 1157.32 439.833 1160.02C439.845 1160.03 439.875 1160.05 439.921 1160.06C439.935 1160.07 439.948 1160.07 439.961 1160.07L453.688 1139.27C452.14 1137.56 450.169 1135.26 448.342 1132.9C446.452 1130.46 444.591 1127.78 443.576 1125.55C441.163 1120.24 436.283 1112.52 425.852 1112.52C418.16 1112.52 413.168 1110.04 410.505 1107.47C407.444 1110.11 404.194 1112.88 400.941 1115.61ZM370.505 1155.2C370.489 1157.49 370.273 1159.4 369.835 1161.09C368.749 1165.29 366.295 1168.04 363.186 1171.52C362.716 1172.05 362.23 1172.6 361.732 1173.16C360.38 1174.71 358.111 1176.19 355.498 1177.59C353.572 1178.62 351.319 1179.68 348.835 1180.75L372.657 1211.34C377.404 1207.08 384.457 1201.46 392.453 1196.38C400.456 1191.3 409.55 1186.66 418.306 1184.54C411.565 1179.47 402.58 1173.02 393.998 1167.48C389.458 1164.56 385.06 1161.91 381.184 1159.86C377.257 1157.79 374.046 1156.44 371.828 1155.96C371.298 1155.85 370.844 1155.57 370.505 1155.2ZM332.572 1147.68C332.572 1147.68 332.577 1147.69 332.587 1147.69C332.576 1147.69 332.572 1147.68 332.572 1147.68ZM163.403 1179.05C164.486 1179.91 164.67 1181.48 163.813 1182.57L130.671 1224.48C129.51 1225.95 127.56 1226.55 125.775 1225.98L81.593 1211.9C80.2775 1211.48 79.5509 1210.07 79.9701 1208.76C80.3894 1207.44 81.7957 1206.71 83.1112 1207.13L126.964 1221.11L159.891 1179.46C160.748 1178.38 162.32 1178.2 163.403 1179.05Z" fill="#D1D4D8"/>
<path d="M596.854 225C596.854 254.526 572.699 278.5 542.854 278.5C513.01 278.5 488.854 254.526 488.854 225C488.854 195.474 513.01 171.5 542.854 171.5C572.699 171.5 596.854 195.474 596.854 225Z" stroke="#D1D4D8" stroke-width="3"/>
<path d="M610.854 225C610.854 262.262 580.426 292.5 542.854 292.5C505.282 292.5 474.854 262.262 474.854 225C474.854 187.738 505.282 157.5 542.854 157.5C580.426 157.5 610.854 187.738 610.854 225Z" stroke="#D1D4D8" stroke-width="3"/>
<path d="M542.854 181C544.234 181 545.354 179.881 545.354 178.5C545.354 177.119 544.234 176 542.854 176C541.473 176 540.354 177.119 540.354 178.5C540.354 179.881 541.473 181 542.854 181Z" fill="#D1D4D8"/>
<path d="M542.854 274C544.234 274 545.354 272.881 545.354 271.5C545.354 270.119 544.234 269 542.854 269C541.473 269 540.354 270.119 540.354 271.5C540.354 272.881 541.473 274 542.854 274Z" fill="#D1D4D8"/>
<path d="M588.854 227C590.234 227 591.354 225.881 591.354 224.5C591.354 223.119 590.234 222 588.854 222C587.473 222 586.354 223.119 586.354 224.5C586.354 225.881 587.473 227 588.854 227Z" fill="#D1D4D8"/>
<path d="M496.854 227C498.234 227 499.354 225.881 499.354 224.5C499.354 223.119 498.234 222 496.854 222C495.473 222 494.354 223.119 494.354 224.5C494.354 225.881 495.473 227 496.854 227Z" fill="#D1D4D8"/>
<path d="M542.354 229.5C544.839 229.5 546.854 227.485 546.854 225C546.854 222.515 544.839 220.5 542.354 220.5C539.868 220.5 537.854 222.515 537.854 225C537.854 227.485 539.868 229.5 542.354 229.5Z" stroke="#D1D4D8" stroke-width="3"/>
<path d="M522.354 225H537.354" stroke="#D1D4D8" stroke-width="3" stroke-linecap="round"/>
<path d="M542.354 220V192" stroke="#D1D4D8" stroke-width="3" stroke-linecap="round"/>
<path d="M18.8535 415.5C26.0332 415.5 31.8535 409.68 31.8535 402.5C31.8535 395.32 26.0332 389.5 18.8535 389.5C11.6738 389.5 5.85352 395.32 5.85352 402.5C5.85352 409.68 11.6738 415.5 18.8535 415.5Z" stroke="#D1D4D8" stroke-width="3"/>
<path d="M44.328 403.824C70.5494 401.125 111.693 404.317 116.556 424.6C121.419 444.883 102.849 452.301 92.957 453.475C55.2936 459.461 5.35352 456.644 5.35352 424.6" stroke="#D1D4D8" stroke-width="3" stroke-linecap="round"/>
<path d="M34.8535 434.5C36.5104 434.5 37.8535 433.157 37.8535 431.5C37.8535 429.843 36.5104 428.5 34.8535 428.5C33.1967 428.5 31.8535 429.843 31.8535 431.5C31.8535 433.157 33.1967 434.5 34.8535 434.5Z" stroke="#D1D4D8" stroke-width="3"/>
<path d="M63.8535 431.5C63.8535 432.957 62.4957 434.5 60.3535 434.5C58.2113 434.5 56.8535 432.957 56.8535 431.5C56.8535 430.043 58.2113 428.5 60.3535 428.5C62.4957 428.5 63.8535 430.043 63.8535 431.5Z" stroke="#D1D4D8" stroke-width="3"/>
<path d="M85.8535 434.5C87.5104 434.5 88.8535 433.157 88.8535 431.5C88.8535 429.843 87.5104 428.5 85.8535 428.5C84.1967 428.5 82.8535 429.843 82.8535 431.5C82.8535 433.157 84.1967 434.5 85.8535 434.5Z" stroke="#D1D4D8" stroke-width="3"/>
<path d="M764.854 295.5C771.481 295.5 776.854 290.127 776.854 283.5C776.854 276.873 771.481 271.5 764.854 271.5C758.226 271.5 752.854 276.873 752.854 283.5C752.854 290.127 758.226 295.5 764.854 295.5Z" stroke="#D1D4D8" stroke-width="3"/>
<path d="M788.43 273C797.223 273 822.35 273 834.169 273C843.744 273 848.352 275.118 848.352 289.942C848.352 304.345 848.234 323.002 848.352 330.532C848.435 335.826 845.799 341.685 837.006 342.532C828.212 343.379 792.921 342.885 776.374 342.532C770.228 342.532 759.354 339.048 759.354 324.884V309.001" stroke="#D1D4D8" stroke-width="3" stroke-linecap="round"/>
<path d="M782.354 298L804.354 313" stroke="#D1D4D8" stroke-width="3" stroke-linecap="round"/>
<path d="M804.354 313L844.354 276" stroke="#D1D4D8" stroke-width="3" stroke-linecap="round"/>
<path d="M774.354 326L790.481 304" stroke="#D1D4D8" stroke-width="3" stroke-linecap="round"/>
<path d="M814.492 304L836.353 326" stroke="#D1D4D8" stroke-width="3" stroke-linecap="round"/>
<path d="M228.269 130.105C226.366 127.387 222.759 121.939 219.89 115.879C218.396 112.726 217.133 109.47 216.402 106.393C215.666 103.293 215.512 100.549 216.055 98.329C217.518 92.3481 220.64 88.0351 224.672 85.5403C228.7 83.0483 233.871 82.2245 239.718 83.6542C251.007 86.4147 256.317 97.8659 253.939 107.593C253.522 109.297 252.23 111.386 250.121 113.727C248.053 116.024 245.391 118.356 242.556 120.556C237.108 124.788 231.237 128.372 228.269 130.105ZM233.34 109.736C238.654 111.036 243.961 107.702 245.257 102.399C246.554 97.0951 243.385 91.6889 238.071 90.3894C232.757 89.09 227.451 92.4236 226.154 97.7272C224.857 103.031 228.026 108.437 233.34 109.736Z" stroke="#D1D4D8" stroke-width="3"/>
<path d="M912.855 430C918.855 434 920.355 435.5 922.855 442.5" stroke="#D1D4D8" stroke-width="3" stroke-linecap="round"/>
<path d="M918.354 480.606L947.361 509.613C950.29 512.542 955.039 512.542 957.967 509.613C960.896 506.684 960.896 501.935 957.967 499.007L928.961 470" stroke="#D1D4D8" stroke-width="3" stroke-linecap="round"/>
<path d="M904.354 481.5C922.855 481.5 937.854 466.502 937.854 448C937.854 429.498 922.855 414.5 904.354 414.5C885.852 414.5 870.854 429.498 870.854 448C870.854 466.502 885.852 481.5 904.354 481.5Z" stroke="#D1D4D8" stroke-width="3"/>
<path d="M251.709 360.081L235.85 373.606C228.496 379.878 227.619 390.923 233.891 398.277L284.577 457.705C290.848 465.059 301.894 465.936 309.248 459.664L325.106 446.139C332.46 439.867 333.337 428.821 327.065 421.468L276.38 362.039C270.108 354.686 259.062 353.809 251.709 360.081Z" stroke="#D1D4D8" stroke-width="3"/>
<path d="M213.495 407.696L187.814 410.751M206.113 385.004L185.568 378.468L206.113 385.004ZM237.164 355.334L229.391 347.199L219.83 337.192L237.164 355.334ZM264.868 337.126L267.387 312.133L264.868 337.126ZM287.07 345.107L297.805 324.108L287.07 345.107Z" stroke="#D1D4D8" stroke-width="3" stroke-linecap="round"/>
<path d="M985.295 709.982C981.972 713.31 979.107 716.179 977.133 718.155C971.988 723.307 966.585 720.302 964.526 718.155L931.7 686.528C926.854 682.022 922.758 677.574 904.441 660.1C902.566 658.222 899.595 653.428 902.71 649.268C905.825 645.109 923.335 623.273 931.7 612.875C934.238 609.199 939.752 604.826 946.786 611.366C952.844 616.998 973.613 636.494 991.353 651.317" stroke="#D1D4D8" stroke-width="3" stroke-linecap="round"/>
<path d="M931.354 614C932.386 632.97 939.348 663.507 975.354 675" stroke="#D1D4D8" stroke-width="3" stroke-linecap="round"/>
<path d="M1022.66 676.468C1022.27 680.019 1022.02 683.743 1022.08 686.909M1023.71 670.63C1023.34 672.821 1022.96 673.742 1022.66 676.468L1023.71 670.63ZM1038.35 697.89C1036.95 702.143 1027.82 711.228 1010.97 710.996C994.115 710.764 988.95 695.899 988.413 688.978C987.922 682.651 990.374 670.455 999.34 662.837C1008.37 655.162 1019.85 654.947 1030.03 662.837C1038.47 669.372 1038.46 679.368 1036.96 684.589C1036.06 687.693 1032.68 690.737 1026.42 694.449C1023.3 696.299 1022.2 692.465 1022.08 686.909L1038.35 697.89ZM1022.66 676.468C1021.01 672.273 1008.34 667.389 1003.55 676.468C998.616 685.833 1002.39 693.722 1005.6 695.269C1009.7 697.244 1015.72 698.277 1022.08 686.909L1022.66 676.468Z" stroke="#D1D4D8" stroke-width="3" stroke-linecap="round"/>
<path d="M314.781 183.44L313.553 171.263L321.704 180.393C323.002 181.847 325.089 182.3 326.874 181.515L338.076 176.584L331.911 187.158C330.929 188.842 331.143 190.967 332.442 192.421L340.592 201.551L328.632 198.956C326.727 198.542 324.772 199.403 323.79 201.087L317.625 211.66L316.398 199.483C316.202 197.543 314.78 195.95 312.875 195.536L300.914 192.941L312.116 188.01C313.9 187.225 314.976 185.38 314.781 183.44Z" stroke="#D1D4D8" stroke-width="3"/>
<path d="M702.354 198L735.354 187" stroke="#D1D4D8" stroke-width="3" stroke-linecap="round"/>
<path d="M714.354 185C716.563 185 718.354 182.985 718.354 180.5C718.354 178.015 716.563 176 714.354 176C712.144 176 710.354 178.015 710.354 180.5C710.354 182.985 712.144 185 714.354 185Z" fill="#D1D4D8"/>
<path d="M721.354 208C723.563 208 725.354 206.209 725.354 204C725.354 201.791 723.563 200 721.354 200C719.144 200 717.354 201.791 717.354 204C717.354 206.209 719.144 208 721.354 208Z" fill="#D1D4D8"/>
<path d="M1070.17 404C1059.47 407.641 1041.55 420.047 1055.39 440.547C1069.14 460.895 1081.52 443.744 1086.11 432.397C1086.17 432.227 1086.22 432.057 1086.23 431.875C1086.87 425.093 1085.29 412.866 1073.97 416.182C1062.49 419.543 1066.65 428.224 1070.17 432.145" stroke="#D1D4D8" stroke-width="3" stroke-linecap="round"/>
<path d="M238.353 561.569C234.758 547.69 222.82 522.094 203.836 530.746C184.851 539.398 195.925 554.899 203.836 561.569C209.159 565.174 220.603 569.031 223.791 555.62C226.979 542.21 213.544 536.694 209.768 542.643C207.777 544.986 205.528 550.862 212.465 555.62" stroke="#D1D4D8" stroke-width="3" stroke-linecap="round"/>
<path d="M995.1 278.25L1014.92 287.746C1016.18 288.351 1017.66 287.503 1017.78 286.107L1021.1 246" stroke="#D1D4D8" stroke-width="3" stroke-linecap="round"/>
<path d="M112.377 194.529C112.052 191.887 115 184.491 123.426 186.274C130.9 187.856 132.525 196.18 127.326 201.132C124.401 204.227 120.436 209.453 121.476 215" stroke="#D1D4D8" stroke-width="3" stroke-linecap="round"/>
<path d="M152.91 195.227C155.243 175.951 141.572 174.605 134.445 176.342C122.005 161.234 111.119 170.047 107.232 176.342C88.0538 173.998 86.2828 187.955 87.7947 195.227C74.318 206.168 82.1794 217.803 87.7947 222.252C84.9438 241.007 99.7812 243.308 107.556 242.114C118.7 256.702 130.125 247.758 134.445 241.463C152.845 243.808 154.422 229.633 152.91 222.252C168.201 210.791 159.281 199.46 152.91 195.227Z" stroke="#D1D4D8" stroke-width="3"/>
<path d="M119.009 225.223C119.779 226.637 121.549 227.159 122.963 226.389C124.377 225.62 124.899 223.85 124.13 222.435C123.36 221.021 121.59 220.499 120.176 221.269C118.762 222.038 118.239 223.808 119.009 225.223Z" fill="#D1D4D8"/>
<path d="M831.947 159.27C826.073 168.513 813.908 187 812.23 187L815.586 146.665C807.615 138.262 797.463 114.733 820.62 87.8432C843.777 60.9533 890.958 65.715 911.654 71.4572C928.714 77.8995 956.038 99.9437 928.854 136.581C901.669 173.219 852.922 166.973 831.947 159.27Z" stroke="#D1D4D8" stroke-width="3" stroke-linecap="round"/>
<path d="M834.354 105L858.354 101" stroke="#D1D4D8" stroke-width="3" stroke-linecap="round"/>
<path d="M837.354 122L902.354 111" stroke="#D1D4D8" stroke-width="3" stroke-linecap="round"/>
<path d="M845.354 141L880.354 136" stroke="#D1D4D8" stroke-width="3" stroke-linecap="round"/>
<path d="M328.188 711.5C323.718 711.875 321.436 716.031 320.854 718.062L331.854 721.5L328.188 711.5Z" fill="#D1D4D8"/>
<path d="M267.354 629L320.854 688L331.854 722" stroke="#D1D4D8" stroke-width="3" stroke-linecap="round"/>
<path d="M267.354 629C259.854 629 247.554 634.3 246.354 649.5" stroke="#D1D4D8" stroke-width="3" stroke-linecap="round"/>
<path d="M246.854 650L299.354 711.5L331.854 722" stroke="#D1D4D8" stroke-width="3" stroke-linecap="round"/>
<path d="M299.854 711.5C301.188 705.333 307.054 693.2 319.854 690" stroke="#D1D4D8" stroke-width="3" stroke-linecap="round"/>
<path d="M142.634 653.11L146.619 642.177C150.402 631.799 145.055 620.32 134.677 616.537L50.1199 585.716C39.7421 581.934 28.2628 587.28 24.4801 597.658L7.35734 644.635C3.57468 655.012 8.9211 666.492 19.2989 670.274L71.7988 689.41" stroke="#D1D4D8" stroke-width="3" stroke-linecap="round"/>
<path d="M101.806 700.88C114 705.325 127.488 699.043 131.933 686.849C136.377 674.655 130.095 661.167 117.901 656.722C105.707 652.277 92.2192 658.559 87.7745 670.753C83.3299 682.947 89.6119 696.435 101.806 700.88Z" stroke="#D1D4D8" stroke-width="3"/>
<path d="M21.3086 609.275L142.509 653.452" stroke="#D1D4D8" stroke-width="3" stroke-linecap="round"/>
<path d="M22.4766 646.953L47.844 656.199" stroke="#D1D4D8" stroke-width="3" stroke-linecap="round"/>
<path d="M55.3613 658.938L59.1194 660.308" stroke="#D1D4D8" stroke-width="3" stroke-linecap="round"/>
<path d="M104.133 674.055L117.287 678.85C118.584 679.322 119.252 680.757 118.779 682.055L117.752 684.873C115.955 689.803 110.503 692.342 105.573 690.545C100.644 688.749 98.1045 683.296 99.9012 678.367L100.928 675.548C101.401 674.251 102.836 673.582 104.133 674.055Z" stroke="#D1D4D8" stroke-width="3"/>
<path d="M115.607 674.515L114.408 677.803L105.953 674.721L107.151 671.433C108.002 669.098 110.585 667.895 112.92 668.746C115.255 669.597 116.458 672.18 115.607 674.515Z" stroke="#D1D4D8" stroke-width="3"/>
<path d="M108.14 683.499C109.178 683.877 110.326 683.343 110.704 682.305C111.082 681.267 110.548 680.119 109.51 679.741C108.472 679.363 107.324 679.897 106.946 680.935C106.568 681.973 107.102 683.121 108.14 683.499Z" fill="#D1D4D8"/>
<path d="M109.082 683.841C109.271 683.323 109.003 682.749 108.484 682.559C107.966 682.37 107.392 682.638 107.202 683.157L106.518 685.036C106.328 685.554 106.596 686.128 107.115 686.318C107.634 686.507 108.207 686.239 108.397 685.72L109.082 683.841Z" fill="#D1D4D8"/>
<path d="M1124.85 619.5C1150.81 619.5 1171.85 598.457 1171.85 572.5C1171.85 546.543 1150.81 525.5 1124.85 525.5C1098.89 525.5 1077.85 546.543 1077.85 572.5C1077.85 598.457 1098.89 619.5 1124.85 619.5Z" stroke="#D1D4D8" stroke-width="3"/>
<path d="M1124.35 526V619" stroke="#D1D4D8" stroke-width="3" stroke-linecap="round"/>
<path d="M1087.36 599H1163.34M1087.36 546H1163.16H1087.36ZM1080.35 572.699H1170.35H1080.35Z" stroke="#D1D4D8" stroke-width="3" stroke-linecap="round"/>
<path d="M1148.85 573C1148.85 586.198 1145.95 598.023 1141.39 606.459C1136.78 614.994 1130.82 619.5 1124.85 619.5C1118.89 619.5 1112.93 614.994 1108.31 606.459C1103.75 598.023 1100.85 586.198 1100.85 573C1100.85 559.802 1103.75 547.977 1108.31 539.541C1112.93 531.006 1118.89 526.5 1124.85 526.5C1130.82 526.5 1136.78 531.006 1141.39 539.541C1145.95 547.977 1148.85 559.802 1148.85 573Z" stroke="#D1D4D8" stroke-width="3"/>
<path d="M594.811 82.973C621.333 88.4125 608.897 124.92 628.335 134.635C651.536 146.231 659.525 80.9421 656.506 53.2303C655.641 41.0797 641.491 35.6753 639.582 53.2303C637.554 71.8779 660.696 144.188 687.218 116.285L704.926 95.7994C709.847 89.7374 719.547 81.3155 727.744 95.7994C735.941 110.283 749.002 105.497 754.509 101.293L771.811 88.7091" stroke="#D1D4D8" stroke-width="3" stroke-linecap="round"/>
<path d="M332.811 215C336.03 223.947 348.356 242.306 371.914 244.173C401.361 246.507 405.223 253.976 404.097 286.183C402.97 318.391 406.349 333.561 437.245 325.159C468.141 316.757 512.392 273.347 504.99 318.391C503.971 325.003 500.163 342.383 493.083 359" stroke="#D1D4D8" stroke-width="3" stroke-linecap="round"/>
<path d="M416.463 3.91812C442.818 30.8932 491.782 42.78 517.591 46.0257C519.415 46.2552 520.057 48.6279 518.577 49.7196L450.671 99.8068C450.45 99.9695 450.195 100.086 449.927 100.146C399.649 111.367 352.774 61.3162 334.174 32.8828C333.465 31.7991 333.993 30.3613 335.221 29.9496L414.369 3.40615C415.107 3.15849 415.918 3.36098 416.463 3.91812Z" stroke="#D1D4D8" stroke-width="3" stroke-linecap="round"/>
<path d="M377.58 45C385.58 43.3385 402.98 38.1641 408.58 30.7578" stroke="#D1D4D8" stroke-width="3" stroke-linecap="round"/>
<path d="M400.08 63C405.08 63.1667 416.58 60.7 422.58 49.5" stroke="#D1D4D8" stroke-width="3" stroke-linecap="round"/>
<path d="M424.58 75C432.08 74 448.18 68.3 452.58 53.5" stroke="#D1D4D8" stroke-width="3" stroke-linecap="round"/>
<path d="M599.197 1023.64C557.597 906.443 561.031 804.81 574.198 773.143C626.198 810.143 709.031 780.477 735.198 767.143C774.398 810.343 740.531 1041.48 718.698 1151.64C710.298 1166.04 692.198 1158.64 684.198 1153.14L674.198 1076.64L662.698 1143.64C656.298 1154.84 637.364 1152.64 628.698 1150.14L599.197 1023.64Z" fill="#D1D4D8"/>
<path d="M576.699 772.643C578.693 765.095 584.699 750.143 573.795 729.643C572.68 726.627 571.007 723.765 569.699 720.643C543.913 659.143 592.699 625.143 600.699 615.643" stroke="#D1D4D8" stroke-width="3" stroke-linecap="round"/>
<path d="M573.795 729.643C557.391 738.643 528.199 747.643 491.199 736.143C454.199 724.643 441.199 618.143 449.699 604.143C456.499 592.943 461.699 589.289 467.699 593.643C498.199 618.289 504.699 636.289 517.199 665.643C521.589 675.955 525.699 681.143 530.199 676.143C540.666 659.429 570.6 623 606.6 611" stroke="#D1D4D8" stroke-width="3" stroke-linecap="round"/>
<path d="M600.699 615.643C602.522 613.478 604.389 612.046 606.188 611.143C610.703 608.879 614.792 609.952 616.699 611.143C624.699 615.143 644.899 618.043 661.699 597.643C673.666 586.095 705.2 575.7 735.6 626.5" stroke="#D1D4D8" stroke-width="3" stroke-linecap="round"/>
<path d="M734.699 665.143C738.032 644.81 749.599 601.543 769.199 591.143C788.799 580.743 800.032 596.143 803.199 605.143C810.365 624.977 818.299 674.243 792.699 712.643C760.699 760.643 710.199 743.643 690.699 691.643" stroke="#D1D4D8" stroke-width="3" stroke-linecap="round"/>
<path d="M809.199 537.643C812.365 536.643 818.199 538.043 816.199 551.643C813.699 568.643 804.199 582.643 795.699 592.643" stroke="#D1D4D8" stroke-width="3" stroke-linecap="round"/>
<path d="M798.699 532.143C801.532 530.31 807.599 528.843 809.199 537.643C809.532 540.31 809.499 546.243 806.699 548.643" stroke="#D1D4D8" stroke-width="3" stroke-linecap="round"/>
<path d="M789.699 552.643L788.699 529.643C788.699 528.143 789.699 524.943 793.699 524.143C798.699 523.143 798.199 530.143 798.699 532.143C799.099 533.743 798.865 540.81 798.699 544.143" stroke="#D1D4D8" stroke-width="3" stroke-linecap="round"/>
<path d="M779.049 560.525L780.198 541.643C780.198 538.977 781.898 533.743 788.698 534.143" stroke="#D1D4D8" stroke-width="3" stroke-linecap="round"/>
<path d="M769.199 590.643C766.199 583.143 761.699 566.643 762.699 556.643C763.266 550.971 762.699 545.643 767.199 544.643C773.699 543.199 773.376 552.134 776.699 556.643C777.524 557.469 778.476 558.828 779.05 560.525C779.981 563.281 779.917 566.93 776.699 570.643" stroke="#D1D4D8" stroke-width="3" stroke-linecap="round"/>
<path d="M467.199 592.643V578.643L471.199 567.643C472.532 562.977 472.699 550.643 465.199 550.643C458.597 550.643 457.971 557.143 457.971 563.143L459.199 569.143" stroke="#D1D4D8" stroke-width="3" stroke-linecap="round"/>
<path d="M457.971 563.143C455.047 559.31 455.794 550.726 457.971 543.143C460.699 533.643 452.699 530.143 447.699 533.143C443.699 535.543 445.866 546.31 446.699 551.643" stroke="#D1D4D8" stroke-width="3" stroke-linecap="round"/>
<path d="M446.699 551.643C445.866 546.31 443.699 535.543 447.699 533.143C445.774 529.801 441.148 526.065 437.199 527.143C434.65 527.839 432.091 529.799 431.699 537.643C433.699 543.143 432.699 545.143 437.699 551.643" stroke="#D1D4D8" stroke-width="3" stroke-linecap="round"/>
<path d="M437.7 551.643C432.7 545.143 433.7 543.143 431.7 537.643C427.033 537.143 419.1 539.343 424.7 552.143L431.7 566.143" stroke="#D1D4D8" stroke-width="3" stroke-linecap="round"/>
<path d="M424.699 552.143C420.199 553.477 413.499 560.643 422.699 578.643C431.899 596.643 444.532 602.477 449.699 603.143" stroke="#D1D4D8" stroke-width="3" stroke-linecap="round"/>
<path d="M611.348 594.511V608.301C610.74 608.265 610.114 608.315 609.505 608.411C607.981 608.651 606.217 609.239 604.318 610.05C600.51 611.677 595.885 614.322 591.066 617.4C581.949 623.222 571.946 630.713 565.086 636.177C523.73 583.736 536.538 542.877 549.353 526.735C556.944 571.789 592.799 590.445 611.348 594.511Z" stroke="#D1D4D8" stroke-width="3"/>
<path d="M661.902 574.836C675.057 560.999 682.709 540.245 685.37 529.925C687.578 530.737 689.775 530.74 691.68 530.375C694.072 529.916 696.08 528.864 697.247 527.989L697.311 527.941L697.37 527.886C700.339 525.115 704.609 516.654 701.302 503.425C700.463 500.068 699.21 497.684 697.585 496.162C695.917 494.599 693.974 494.053 692.048 494.18C690.176 494.303 688.366 495.055 686.81 495.994C685.378 496.858 684.085 497.925 683.052 498.957L662.582 504.871C660.917 494.733 656.636 488.265 651.742 484.339C647.415 480.868 642.68 479.444 639.035 479.179C639.472 476.554 639.351 474.262 638.789 472.266C638.099 469.814 636.769 467.903 635.164 466.427C632 463.517 627.745 462.274 625.019 461.678L623.932 461.44L623.389 462.41C618.264 471.562 610.409 476.524 606.475 479.009C606.302 479.118 606.137 479.222 605.98 479.322C568.154 496.623 541.809 486.585 527.81 471.136L527.793 471.117L527.775 471.099C520.368 463.453 515.214 449.139 516.008 434.663C516.798 420.27 523.448 405.945 539.369 397.985L539.421 397.959L539.471 397.929C544.599 394.846 553.614 391.253 563.83 390.603C574.013 389.956 585.319 392.232 595.218 400.778L596.027 401.477L596.951 400.94C608.328 394.334 618.777 392.367 628.193 393.328C637.627 394.291 646.137 398.206 653.591 403.543C668.534 414.243 679.028 430.511 683.883 439.364L683.911 439.416L683.944 439.466L694.444 455.466L694.869 456.114L695.644 456.142C728.716 457.323 748.091 472.531 758.981 490.993C769.325 508.526 772.059 529.088 771.359 543.558C769.284 542.551 767.334 542.423 765.616 543.401C763.494 544.609 762.349 547.212 761.69 549.913C760.387 555.26 760.578 562.77 761.144 568.219C752.144 580.245 743.2 586.973 735.502 591.002C729.12 594.342 723.596 595.838 719.411 596.971C718.692 597.166 718.013 597.35 717.376 597.531C688.438 581.785 670.862 586.593 663.533 593.195L661.902 574.836Z" stroke="#D1D4D8" stroke-width="3"/>
<path d="M660.699 507.143C660.699 522.043 649.928 533.643 637.199 533.643C624.47 533.643 613.699 522.043 613.699 507.143C613.699 492.244 624.47 480.643 637.199 480.643C649.928 480.643 660.699 492.244 660.699 507.143Z" stroke="#D1D4D8" stroke-width="3"/>
<path d="M597.699 516.143C597.699 531.043 586.928 542.643 574.199 542.643C561.47 542.643 550.699 531.043 550.699 516.143C550.699 501.244 561.47 489.643 574.199 489.643C586.928 489.643 597.699 501.244 597.699 516.143Z" stroke="#D1D4D8" stroke-width="3"/>
<path d="M597.842 510.528L613.554 508.759" stroke="#D1D4D8" stroke-width="3" stroke-linecap="round"/>
<path d="M611.697 574.643C611.697 570.477 614.097 563.243 623.697 567.643" stroke="#D1D4D8" stroke-width="3" stroke-linecap="round"/>
<path d="M609.198 524.143C606.698 536.643 599.098 548.043 610.698 553.643" stroke="#D1D4D8" stroke-width="3" stroke-linecap="round"/>
<path d="M568.699 541.789C572.842 541.789 576.199 538.431 576.199 534.289C576.199 530.147 572.842 526.789 568.699 526.789C564.557 526.789 561.199 530.147 561.199 534.289C561.199 538.431 564.557 541.789 568.699 541.789Z" fill="#D1D4D8"/>
<path d="M630.699 532.789C634.842 532.789 638.199 529.431 638.199 525.289C638.199 521.147 634.842 517.789 630.699 517.789C626.557 517.789 623.199 521.147 623.199 525.289C623.199 529.431 626.557 532.789 630.699 532.789Z" fill="#D1D4D8"/>
<path d="M691.199 508.143C692.365 510.143 693.999 514.943 691.199 518.143" stroke="#D1D4D8" stroke-width="3" stroke-linecap="round"/>
<path d="M551.699 488.789C545.532 508.123 544.787 552.843 588.387 583.643C631.987 614.443 665.553 572.477 676.887 547.643L684.387 527.143C689.553 530.31 699.987 532.143 700.387 514.143C700.787 496.143 693.553 494.977 689.887 496.643C687.887 497.477 683.687 500.343 682.887 505.143" stroke="#D1D4D8" stroke-width="3" stroke-linecap="round"/>
<path d="M661.199 506.143L686.199 499.143" stroke="#D1D4D8" stroke-width="3" stroke-linecap="round"/>
<path d="M633.199 506.796C637.316 506.663 645.881 508.475 647.199 516.789" stroke="#D1D4D8" stroke-width="3" stroke-linecap="round"/>
<path d="M560.199 514.628C563.027 512.743 570.24 509.82 576.462 513.214" stroke="#D1D4D8" stroke-width="3" stroke-linecap="round"/>
<path d="M742.818 1182.29C745.618 1173.89 726.151 1178.79 717.318 1182.29C717.318 1189.89 698.651 1195.79 689.318 1197.79C725.318 1195.29 741.318 1186.79 742.818 1182.29Z" fill="#D1D4D8"/>
<path d="M672.818 1172.29C680.818 1167.79 669.818 1164.96 663.318 1165.79L662.318 1174.29L672.818 1172.29Z" fill="#D1D4D8"/>
<path d="M626.465 1158.6C623.315 1162.83 613.469 1171.28 604.018 1171.28C595.929 1171.28 592.794 1180.93 601.655 1185.76C616.422 1191.8 650.448 1189.02 661.317 1175.5V1156.79" stroke="#D1D4D8" stroke-width="3" stroke-linecap="round"/>
<path d="M684.704 1164.79C681.921 1167.21 674.803 1172.31 668.6 1173.28C660.846 1174.49 650.045 1183.6 656.074 1194.49C661.442 1204.19 673.371 1202.17 680.529 1199.95L708.563 1189.64C711.545 1188.43 716.317 1186.61 716.317 1179.34C716.317 1172.06 716.317 1169.03 716.317 1168.43" stroke="#D1D4D8" stroke-width="3" stroke-linecap="round"/>
<path d="M734.6 765C735.767 761.333 738.4 751.3 739.6 740.5" stroke="#D1D4D8" stroke-width="3" stroke-linecap="round"/>
<circle cx="1013.1" cy="270" r="43.5" stroke="#D1D4D8" stroke-width="3"/>
</svg>
