<svg width="1301" height="848" viewBox="0 0 1301 848" fill="none" xmlns="http://www.w3.org/2000/svg">
<path d="M902.966 792.634C824.916 765.638 871.421 544.262 907.586 464.118C962.086 515.118 1059.59 493.118 1067.09 472.618C1069.34 484.71 1076.56 538.873 1108.18 586.79C1139.81 634.708 1180.83 659.628 1188.08 680.432C1205.75 731.049 1167.06 757.202 1147.71 763.107C1079.76 778.629 1022.4 702.086 1002.21 661.872C973.278 780.654 923.992 798.539 902.966 792.634Z" fill="#D1D4D8"/>
<path d="M888.311 780.618C888.889 789.381 884.915 818.777 861.991 802.665C856.337 797.012 842.973 787.741 834.822 795.881C826.671 804.022 842.752 819.06 851.803 825.561C861.142 832.911 884.066 845.403 901.047 836.584C918.027 827.765 917.756 804.644 915.48 794.185" stroke="#D1D4D8" stroke-width="3" stroke-linecap="round"/>
<path d="M1166.59 749.9C1172.51 752.727 1184.36 760.583 1184.36 769.4C1177.59 779.009 1166.76 802.635 1177.59 820.269C1188.43 837.904 1208.07 797.661 1216.53 775.335C1220.77 762.617 1221.27 734.47 1189.44 723.618" stroke="#D1D4D8" stroke-width="3" stroke-linecap="round"/>
<path d="M913.586 830.618C917.216 837.573 931.484 847.809 959.586 833.121" stroke="#D1D4D8" stroke-width="3" stroke-linecap="round"/>
<path d="M932.586 818.618C940.655 825.907 962.245 837.898 989.586 827.645" stroke="#D1D4D8" stroke-width="3" stroke-linecap="round"/>
<path d="M971.586 813.618C981.706 825.317 1009.88 844.204 1041.59 826.153" stroke="#D1D4D8" stroke-width="3" stroke-linecap="round"/>
<path d="M1015.59 807.618C1018.11 817.981 1052.24 840.09 1168.59 845.618" stroke="#D1D4D8" stroke-width="3" stroke-linecap="round"/>
<path d="M1007.29 383.618C1053.59 370.315 1090.02 328.317 1102.45 308.981C1116.33 288.193 1105.19 241.718 949.587 222.118" stroke="#D1D4D8" stroke-width="3" stroke-linecap="round"/>
<path d="M1007.59 383.618C1004.76 379.816 997.318 372.944 988.586 372.618" stroke="#D1D4D8" stroke-width="3" stroke-linecap="round"/>
<path d="M988.586 372.618C988.844 361.76 998.004 333.758 1032.59 308.618" stroke="#D1D4D8" stroke-width="3" stroke-linecap="round"/>
<path d="M990.586 302.974C986.997 297.163 975.971 284.827 960.586 281.974" stroke="#D1D4D8" stroke-width="3" stroke-linecap="round"/>
<path d="M956.978 389.629C949.097 389.244 932.639 388.088 929.848 386.546C926.36 384.62 925.585 384.62 925.585 380.766C925.585 376.913 956.978 383.464 956.978 371.133C954.135 368.307 949.536 361.962 953.877 359.187C958.218 356.413 967.313 364.454 971.317 368.821C975.451 373.188 984.727 380.073 988.758 372.674" stroke="#D1D4D8" stroke-width="3" stroke-linecap="round"/>
<path d="M1006.59 383.464C1003.1 393.611 990.541 411.824 968.218 403.501C945.894 395.178 944.964 390.785 947.29 389.629" stroke="#D1D4D8" stroke-width="3" stroke-linecap="round"/>
<path d="M851.326 373.781C845.901 372.298 834.044 365.401 830.014 349.671C825.984 333.942 831.435 333.865 834.664 335.792" stroke="#D1D4D8" stroke-width="3" stroke-linecap="round"/>
<path d="M871.477 362.394C869.798 353.655 863.882 336.795 853.652 339.262" stroke="#D1D4D8" stroke-width="3" stroke-linecap="round"/>
<path d="M867.213 348.129C874.343 342.269 878.709 355.711 880.001 363.165C888.06 365.632 891.109 377.301 891.625 382.827C872.974 384.74 859.72 379.731 851.326 373.781C846.187 370.138 842.87 366.142 841.251 363.165C837.247 352.499 831.409 330.241 840.089 326.54C848.769 322.839 851.197 331.166 851.326 335.792C850.396 346.279 855.847 357.896 858.688 362.394" stroke="#D1D4D8" stroke-width="3" stroke-linecap="round"/>
<path d="M1050.59 393.974C1066.43 415.364 1087.09 473.618 1050.59 485.974C998.753 501.259 891.587 504.258 877.587 393.974" stroke="#D1D4D8" stroke-width="3" stroke-linecap="round"/>
<path d="M827.086 358.118L704.77 350.733C699.179 350.395 694.401 354.715 694.175 360.312L692.221 408.849C691.994 414.474 687.171 418.804 681.554 418.424L649.804 416.275C644.396 415.909 640.264 411.302 640.487 405.886L641.678 377.005C641.904 371.528 637.678 366.89 632.203 366.607L623.019 366.131C617.524 365.847 612.832 370.055 612.519 375.548L611.641 390.898C611.332 396.308 606.771 400.487 601.355 400.323L588.414 399.931C582.765 399.759 578.381 394.946 578.736 389.306L580.949 354.216C581.3 348.658 577.043 343.885 571.481 343.599L552.62 342.632C547.086 342.348 542.838 337.619 543.148 332.086L545.524 289.66C545.834 284.123 550.59 279.896 556.124 280.238L691.807 288.618L1025.59 311.118" stroke="#D1D4D8" stroke-width="3" stroke-linecap="round"/>
<path d="M883.77 232.188C877.156 228.117 827.397 232.041 817.723 169.45C801.161 169.644 792.155 156.077 804.792 150.271C818.264 143.324 817.253 130.57 814.812 123.055C810.932 113.2 810.697 102.853 811.534 100.688" stroke="#D1D4D8" stroke-width="3" stroke-linecap="round"/>
<path d="M832.324 146.848C830.445 146.87 828.894 144.603 828.861 141.784C828.828 138.965 830.325 136.661 832.205 136.639C834.084 136.617 835.634 138.885 835.667 141.704C835.7 144.523 834.203 146.826 832.324 146.848Z" fill="#D1D4D8"/>
<path d="M841.562 126.189C838.799 123.235 831.654 118.914 825.18 125.261" stroke="#D1D4D8" stroke-width="3" stroke-linecap="round"/>
<path d="M860.332 183.705C855.253 191.52 849.678 193.739 838.847 188.696" stroke="#D1D4D8" stroke-width="3" stroke-linecap="round"/>
<path d="M901.909 128.928C903.086 131.512 904.071 137.378 898.602 140.17" stroke="#D1D4D8" stroke-width="3" stroke-linecap="round"/>
<path d="M886.718 127.688C888.248 122.662 891.089 117.481 894.815 114.066C897.164 111.913 899.958 110.38 903.071 110.155C906.218 109.927 909.461 111.053 912.637 113.782C915.566 116.299 916.846 120.135 917.087 124.239C917.328 128.359 916.54 132.947 915.12 137.27C913.699 141.597 911.616 145.746 909.19 148.988C906.803 152.178 903.913 154.714 900.807 155.399C899.892 155.601 899.83 155.886 899.823 155.917C899.822 155.918 899.822 155.919 899.822 155.919C899.77 156.112 899.785 156.663 900.369 157.734C901.498 159.805 904.091 162.633 907.639 165.791C914.324 171.742 923.876 178.413 931.424 182.634C931.635 182.34 931.847 182.045 932.059 181.749C946.56 161.555 964.839 136.1 958.727 102.663L960.2 102.394L958.727 102.663C954.427 79.1377 941.456 66.457 927.603 60.1279C913.655 53.7549 898.775 53.8105 890.854 55.9015L890.145 56.0887L889.562 55.6439C877.466 46.4188 861.552 36.7084 844.912 31.3311C828.264 25.951 811.086 24.966 796.251 32.8767C787.274 37.664 782.712 43.2302 781.004 48.9655C779.29 54.7239 780.365 60.9477 783.269 67.2112C789.061 79.7005 801.857 91.7479 812.064 99.0947C817.199 100.475 825.847 101.86 835.302 101.561C844.927 101.256 855.235 99.2095 863.523 93.7884C867.917 90.9148 871.515 89.7789 874.398 90.3838C877.434 91.0207 879.122 93.4401 879.98 96.2232C880.835 98.9976 880.982 102.438 880.771 105.829C880.573 109.02 880.051 112.274 879.425 115.076L886.718 127.688Z" stroke="#D1D4D8" stroke-width="3"/>
<path d="M930.719 182.228C923.265 191.202 919.562 198.654 920.023 214.091" stroke="#D1D4D8" stroke-width="3" stroke-linecap="round"/>
<path d="M939.014 234.757C941.624 225.653 943.153 208.289 928.392 211.664C909.941 215.882 872.333 234.128 875.088 244.242" stroke="#D1D4D8" stroke-width="3" stroke-linecap="round"/>
<path d="M875.086 258.474C861.586 270.974 858.586 278.974 856.586 293.974" stroke="#D1D4D8" stroke-width="3" stroke-linecap="round"/>
<path d="M320.244 511.192C332.054 531.531 375.147 561.329 453.908 520.712C455.418 519.933 457.225 521.226 456.909 522.895C448.764 565.944 448.232 636.62 548.744 663.192C592.244 674.692 632.244 652.192 600.244 625.192C556.698 588.45 479.244 710.192 524.244 784.692" stroke="#D1D4D8" stroke-width="3" stroke-linecap="round"/>
<path d="M124.737 197.618C122.995 145.145 135.191 35.201 220.124 38.6992C244.95 40.1985 282.495 70.4829 284.586 149.642" stroke="#D1D4D8" stroke-width="3" stroke-linecap="round"/>
<path d="M83.6979 207.618C81.9587 148.306 99.6809 10.9139 192.837 2.19211C288.931 -6.80481 312.122 91.9929 314.586 150.638" stroke="#D1D4D8" stroke-width="3" stroke-linecap="round"/>
<path d="M145.586 181.118L263.586 150.118" stroke="#D1D4D8" stroke-width="3" stroke-linecap="round"/>
<path d="M69.7441 203.618C56.0775 206.118 25.6441 216.618 13.2441 238.618" stroke="#D1D4D8" stroke-width="3" stroke-linecap="round"/>
<path d="M11.2449 237.118C46.4449 216.318 57.7449 255.784 61.7449 273.118V511.118C61.7449 563.118 76.7449 560.618 91.6375 573.772C49.6375 559.272 27.7446 539.118 20.1373 529.272C-0.535906 502.516 1.63746 306.272 0.637462 284.772C-0.162538 267.572 8.57821 242.951 11.2449 237.118Z" fill="#D1D4D8"/>
<path d="M318.247 174.355L99.5882 238.119C78.2538 244.341 63.5859 263.897 63.5859 286.12V528.085C63.5859 563.773 99.8986 587.97 132.835 574.231L351.494 483.02C370.116 475.252 382.245 457.051 382.245 436.874V222.356C382.245 189.023 350.246 165.024 318.247 174.355Z" stroke="#D1D4D8" stroke-width="3" stroke-linecap="round"/>
<path d="M234.116 328.243C257.851 289.451 232.985 270.324 217.586 265.609C269.464 257.124 260.394 305.177 249.374 330.264L281.586 414.618L255.839 402.517C253.092 401.226 251.08 398.757 250.37 395.806L234.116 328.243Z" fill="#D1D4D8"/>
<path d="M196.586 438.618L219.337 336.707C189.845 330.116 189.369 268.316 219.337 264.204C267.368 257.613 261.891 308.314 249.251 330.116L279.586 414.281L196.586 438.618Z" stroke="#D1D4D8" stroke-width="3"/>
<path d="M14.2445 680.692C-11.3555 670.692 8.24447 658.192 21.2445 653.192L244.745 583.692C262.411 578.692 304.245 572.292 330.245 586.692C362.745 604.692 326.745 613.692 320.245 618.692C313.745 623.692 176.745 680.692 129.745 696.192C82.7446 711.692 46.2445 693.192 14.2445 680.692Z" fill="#D1D4D8"/>
<path d="M1293.15 353.682C1291.55 385.496 1281.31 413.788 1266.14 433.815C1250.96 453.85 1230.96 465.49 1209.76 464.42C1188.56 463.349 1169.83 449.754 1156.75 428.293C1143.68 406.84 1136.34 377.66 1137.95 345.847C1139.55 314.033 1149.79 285.741 1164.96 265.714C1180.14 245.679 1200.14 234.039 1221.34 235.109C1242.54 236.18 1261.27 249.775 1274.35 271.236C1287.43 292.689 1294.76 321.868 1293.15 353.682Z" stroke="#D1D4D8" stroke-width="3"/>
<path d="M1260.92 351.813C1259.98 370.483 1253.97 387.06 1245.1 398.77C1236.23 410.487 1224.6 417.209 1212.35 416.59C1200.1 415.972 1189.21 408.113 1181.55 395.561C1173.91 383.017 1169.6 365.921 1170.54 347.25C1171.49 328.58 1177.49 312.003 1186.36 300.294C1195.24 288.576 1206.87 281.854 1219.12 282.473C1231.37 283.091 1242.26 290.95 1249.91 303.502C1257.56 316.046 1261.87 333.143 1260.92 351.813Z" stroke="#D1D4D8" stroke-width="3"/>
<path d="M1098 321L1140 324" stroke="#D1D4D8" stroke-width="3" stroke-linecap="round"/>
<path d="M891.086 368.118L953.586 372.618" stroke="#D1D4D8" stroke-width="3" stroke-linecap="round"/>
<path d="M1029.59 377.618L1139.5 382" stroke="#D1D4D8" stroke-width="3" stroke-linecap="round"/>
</svg>
