<svg width="2186" height="1461" viewBox="0 0 2186 1461" fill="none" xmlns="http://www.w3.org/2000/svg">
<path d="M260.422 721C245.422 734.5 224.262 722.5 219.929 719C226.922 708.5 227.068 587.05 215.344 564C206.938 612.444 115.874 643.38 69.4376 659.155L68.4224 659.5C50.9223 657 51.7557 643.833 52.4224 637C55.9158 623.5 66.7224 617.5 103.923 577.5C141.123 537.5 137.562 505.5 134.423 484.5C118.291 444.956 136.838 402.167 144.929 392C172.929 419.5 241.929 446.833 282.429 464C353.229 575.6 296.756 678.167 260.422 721Z" fill="#D1D4D8"/>
<path d="M34.4219 1238.81C58.676 1227.41 117.714 1205.35 159.836 1208.26C165.808 1208.5 174.827 1211.03 163.127 1219.17C151.426 1227.32 145.576 1231.54 144.114 1232.63C138.02 1237.72 132.047 1248.48 156.911 1250.81C187.99 1253.72 275.744 1222.08 449.422 1245.35" stroke="#D1D4D8" stroke-width="3" stroke-linecap="round"/>
<path d="M146.422 394C219.922 296.5 316.922 267 373.922 249" stroke="#D1D4D8" stroke-width="3" stroke-linecap="round"/>
<path d="M373.922 249C379.089 270.667 394.422 296 421.922 292.5" stroke="#D1D4D8" stroke-width="3" stroke-linecap="round"/>
<path d="M421.922 293C422.755 300.167 422.422 329 409.422 362" stroke="#D1D4D8" stroke-width="3" stroke-linecap="round"/>
<path d="M359.922 412.5C330.422 441.5 325.422 446.5 283.422 466" stroke="#D1D4D8" stroke-width="3" stroke-linecap="round"/>
<path d="M412.744 371C428.921 357 478.921 336.5 507.921 349" stroke="#D1D4D8" stroke-width="3" stroke-linecap="round"/>
<path d="M370.922 307.5C408.422 335.5 403.922 353.5 417.922 384" stroke="#D1D4D8" stroke-width="3" stroke-linecap="round"/>
<path d="M507.922 349C508.922 360.5 505.95 378.103 496.922 391C489.922 401 463.422 420.5 440.422 428C432.481 430.589 390.09 444.286 373.422 427C359.922 413 339.922 386.5 326.422 362.5" stroke="#D1D4D8" stroke-width="3" stroke-linecap="round"/>
<path d="M422.922 308C428.755 316.833 459.222 330.5 538.422 318.5" stroke="#D1D4D8" stroke-width="3" stroke-linecap="round"/>
<path d="M538.422 319C538.922 322.167 539.622 328.7 538.422 333.5" stroke="#D1D4D8" stroke-width="3" stroke-linecap="round"/>
<path d="M507.422 349C511.589 348 522.222 343.8 531.422 337C540.622 330.2 557.255 333.167 564.422 335.5C569.255 336.833 576.022 342 564.422 352" stroke="#D1D4D8" stroke-width="3" stroke-linecap="round"/>
<path d="M543.422 344C552.089 343.833 568.122 345.9 562.922 355.5C560.422 359.5 554.822 359.2 548.422 358" stroke="#D1D4D8" stroke-width="3" stroke-linecap="round"/>
<path d="M533.922 355.5C540.589 354.333 548.422 355.5 551.922 362C554.098 366.042 552.922 369 549.922 370.139C545.922 371 546.604 368.916 542.922 367.5C540.755 366.833 535.922 367.4 533.922 371L519.922 381.5C515.589 384.833 504.922 386.5 499.922 387.5" stroke="#D1D4D8" stroke-width="3" stroke-linecap="round"/>
<path d="M538.422 318.5C539.422 318.5 557.422 316.5 566.422 309.5C573.622 303.9 590.089 306.167 597.422 308C600.755 309.167 606.222 312.9 601.422 318.5" stroke="#D1D4D8" stroke-width="3" stroke-linecap="round"/>
<path d="M569.422 323.945C576.422 324.5 583.922 321.201 583.922 328.5C583.922 335 576.422 332.923 573.422 332C571.255 331.333 568.722 331.3 563.922 334.5" stroke="#D1D4D8" stroke-width="3" stroke-linecap="round"/>
<path d="M580.922 314C587.755 314 600.922 315.8 598.922 323C596.922 330.2 586.422 324.925 580.922 323.925" stroke="#D1D4D8" stroke-width="3" stroke-linecap="round"/>
<path d="M564.737 51.5936C564.784 59.3919 566.528 69.6463 574.517 81.9039L575.773 81.0849L574.517 81.904C582.087 93.5187 585.465 106.032 582.014 116.853C578.586 127.599 568.245 137.204 547.177 142.66L547.553 144.112L547.177 142.66C538.864 144.813 525.14 146.071 511.161 142.797C497.218 139.531 483.089 131.779 473.73 115.958L472.296 113.534L471.085 116.077C465.219 128.397 454.631 147.131 441.967 163.244C435.635 171.3 428.815 178.661 421.839 184.235C415.486 189.311 409.09 192.835 402.884 194.124C403.151 189.336 402.484 183.054 399.644 177.794C398.004 174.756 395.625 172.036 392.269 170.18C389.275 168.524 385.585 167.6 381.094 167.682C381.991 148.591 387.707 121.419 402.003 99.9109C409.343 88.867 418.922 79.3516 431.239 73.1584C443.547 66.9704 458.677 64.0544 477.207 66.3366C482.68 67.0106 489.769 68.7102 497.047 70.4549C499.071 70.9401 501.109 71.4289 503.132 71.9C507.743 72.9743 512.255 73.9517 516.235 74.5553C520.178 75.1531 523.755 75.4104 526.431 74.9524C536.532 73.224 544.427 68.5991 550.948 63.5557C554.204 61.0382 557.131 58.4049 559.808 55.9797L560.187 55.6359C561.791 54.1826 563.296 52.8193 564.737 51.5936Z" stroke="#D1D4D8" stroke-width="3"/>
<path d="M382.577 166.873C374.374 174.21 360.995 195.662 382.222 212.131C380.905 222.125 384.377 246.434 408.798 263.719C439.324 285.324 464.715 291.092 479.887 286.587C495.059 282.082 519.561 263.958 529.389 241.793" stroke="#D1D4D8" stroke-width="3" stroke-linecap="round"/>
<path d="M516.049 236.492L533.805 241.658C537.869 240.085 547.966 231.547 537.148 224.111C533.064 221.748 524.532 215.146 523.081 207.634" stroke="#D1D4D8" stroke-width="3" stroke-linecap="round"/>
<path d="M546.538 143.306C547.901 147.149 549.539 156.62 545.189 163.762" stroke="#D1D4D8" stroke-width="3" stroke-linecap="round"/>
<path d="M470.498 172.312C472.192 170.457 476.864 166.342 481.994 164.721" stroke="#D1D4D8" stroke-width="3" stroke-linecap="round"/>
<path d="M491.236 203.111C493.735 204.022 496.869 201.722 498.236 197.973C499.603 194.224 498.685 190.447 496.186 189.535C493.687 188.624 490.553 190.924 489.186 194.673C487.819 198.422 488.737 202.2 491.236 203.111Z" fill="#D1D4D8"/>
<path d="M543.803 197.395C545.946 198.176 548.634 196.204 549.806 192.989C550.979 189.774 550.192 186.535 548.048 185.753C545.905 184.972 543.218 186.944 542.045 190.159C540.873 193.374 541.66 196.613 543.803 197.395Z" fill="#D1D4D8"/>
<path d="M505.709 201.3C501 214.214 488.649 220.785 478.598 217.12C468.547 213.455 463.326 200.476 468.035 187.562C472.744 174.648 485.095 168.076 495.146 171.741C505.197 175.407 510.418 188.386 505.709 201.3Z" stroke="#D1D4D8" stroke-width="3"/>
<path d="M553.496 194.722C551.181 201.071 547.185 206.023 542.708 208.942C538.231 211.859 533.423 212.672 529.222 211.14C525.021 209.609 521.865 205.892 520.317 200.777C518.769 195.661 518.899 189.299 521.215 182.951C523.53 176.602 527.525 171.65 532.003 168.731C536.48 165.813 541.288 165.001 545.489 166.532C549.689 168.064 552.846 171.781 554.393 176.896C555.941 182.012 555.811 188.374 553.496 194.722Z" stroke="#D1D4D8" stroke-width="3"/>
<path d="M508.176 188.67L519.247 187.034" stroke="#D1D4D8" stroke-width="3" stroke-linecap="round"/>
<path d="M530.479 161.017C532.302 159.208 536.999 156.062 541.201 157.944" stroke="#D1D4D8" stroke-width="3" stroke-linecap="round"/>
<path d="M432.908 176.062L466.384 189.578" stroke="#D1D4D8" stroke-width="3" stroke-linecap="round"/>
<path d="M388.797 185.725C386.589 187.393 382.739 191.808 385.005 196.125" stroke="#D1D4D8" stroke-width="3" stroke-linecap="round"/>
<path d="M422.422 273.5L412.922 292.5L422.422 273.5ZM391.922 247.5L379.422 263.5L391.922 247.5Z" stroke="#D1D4D8" stroke-width="3" stroke-linecap="round"/>
<path d="M1040.45 1037.99C1004.82 963.855 1014.6 893.225 1023.94 868C1126 928.321 1176.53 906.386 1192.04 889.935C1192.04 911.87 1243.07 975.48 1265.08 998.512C1282.69 1016.94 1285.76 1055.18 1285.09 1071.99C1285.59 1083.51 1285.89 1118.6 1283.09 1166.86C1280.29 1215.12 1268.58 1238.15 1255.08 1241.44C1238.9 1243.63 1207.15 1240.56 1209.55 1210.73C1212.55 1173.44 1197.54 1109.83 1200.04 1091.19C1202.04 1076.27 1195.21 1067.06 1191.54 1064.32L1148.9 1026.48C1151.33 1057.7 1147.35 1080.16 1143.01 1091.19C1125.66 1138.16 1083.17 1232.23 1051.95 1232.67C1020.73 1233.1 1000.92 1213.47 999.422 1201.96C999.922 1180.75 1015.85 1149.77 1037.94 1122.44C1057.46 1098.32 1048.95 1052.43 1040.45 1037.99Z" fill="#D1D4D8"/>
<path d="M1161.42 1270C1166.22 1256.4 1194.75 1263.33 1209.42 1269C1205.92 1298.5 1229.42 1298.5 1237.42 1301.5C1198.92 1299 1155.42 1287 1161.42 1270Z" fill="#D1D4D8"/>
<path d="M931.421 1264C913.422 1248.8 957.255 1247.17 977.922 1247.5C981.422 1260.5 1011.92 1289.67 1018.42 1296C948.921 1276 933.79 1266 931.421 1264Z" fill="#D1D4D8"/>
<path d="M1049.42 1238.31C1039.42 1251.78 1039.15 1258.89 1045.4 1260.14L1064.15 1265.13C1078.53 1268.87 1089.53 1281.84 1073.53 1293.82C1057.53 1305.79 1035.42 1296.5 1018.42 1293.82C1002.9 1277.5 970.479 1252.87 979.778 1238.31L987.922 1223" stroke="#D1D4D8" stroke-width="3" stroke-linecap="round"/>
<path d="M1213.32 1240C1211.89 1252.9 1209.88 1284.23 1213.32 1289.14C1217.62 1295.28 1283.22 1318.16 1300.55 1306.95C1311 1300.2 1309.77 1288.03 1304.24 1283.61C1298.1 1278.7 1283.97 1272.55 1267.99 1273.17C1253.34 1273.73 1257.76 1255.37 1260.42 1248" stroke="#D1D4D8" stroke-width="3" stroke-linecap="round"/>
<path d="M1186.81 667C1186.64 655 1181.61 628.8 1162.81 620C1144.01 611.2 1134.81 599 1129.81 594C1125.97 589.667 1116.41 583.6 1108.81 594C1104.15 600.379 1102.73 610.128 1104.28 620C1105.88 630.246 1110.67 640.624 1118.31 647.5" stroke="#D1D4D8" stroke-width="3" stroke-linecap="round"/>
<path d="M1193.31 779.5C1208.51 841.1 1197.42 871.833 1189.92 891.5C1150.92 926 1066.92 891.5 1037.31 875C1003.47 856.146 1014.09 832.088 1037.31 759C1051.92 713 1080.92 654 1104.28 620" stroke="#D1D4D8" stroke-width="3" stroke-linecap="round"/>
<path d="M1128.31 718.5C1167.64 760.333 1257.21 840.4 1300.81 826C1344.41 811.6 1375.64 798.333 1385.81 793.5C1387.81 783.667 1389.61 762 1380.81 754" stroke="#D1D4D8" stroke-width="3" stroke-linecap="round"/>
<path d="M1170.81 656.5C1195.64 674.833 1242.44 722.431 1261.81 747.5C1270.31 758.5 1278.81 762 1300.81 760C1321.75 758.096 1362.14 752.5 1380.81 754" stroke="#D1D4D8" stroke-width="3" stroke-linecap="round"/>
<path d="M1185.92 655C1210.75 673.333 1249.44 714.431 1268.81 739.5C1277.31 750.5 1285.81 754 1307.81 752C1328.75 750.096 1361.25 750.5 1379.92 752" stroke="#D1D4D8" stroke-width="3" stroke-linecap="round"/>
<path d="M1381.81 754C1385.97 751.833 1394.11 742.3 1393.31 729.5C1391.14 725.5 1388.21 717.5 1391.81 715.5C1396.31 713 1403.31 717 1405.31 730" stroke="#D1D4D8" stroke-width="3" stroke-linecap="round"/>
<path d="M1411.81 738C1417.98 732.62 1430.91 724.386 1435.63 730.412C1436.11 731.027 1436 731.89 1435.51 732.499L1429.81 739.62" stroke="#D1D4D8" stroke-width="3" stroke-linecap="round"/>
<path d="M1403.31 733.5C1408.64 725 1418.91 715.5 1435.31 719.5C1436.81 720.167 1439.01 722.5 1435.81 726.5" stroke="#D1D4D8" stroke-width="3" stroke-linecap="round"/>
<path d="M1410.31 751C1415.23 745.542 1424.6 737.382 1429.81 739.62C1430.76 740.029 1431.83 741.575 1432.6 743.191C1433.1 744.261 1432.73 745.502 1431.84 746.281L1425.31 752L1414.81 762C1403.81 773.5 1392.97 788.5 1386.81 793" stroke="#D1D4D8" stroke-width="3" stroke-linecap="round"/>
<path d="M1345.92 811.5C1251.34 975.315 1300.86 1194.53 1464.67 1289.11C1628.49 1383.69 1837.96 1327.56 1932.53 1163.75C2027.11 999.934 1970.99 790.465 1807.17 695.886C1684.7 625.18 1539.34 637.243 1432.92 717.02" stroke="#D1D4D8" stroke-width="3" stroke-linecap="round"/>
<path d="M1170.42 623.5C1172.42 617.5 1171.92 617.5 1173.49 612.38C1175.42 606.103 1242.3 609.644 1252.67 536.878C1271.9 536.878 1282.16 521.012 1267.42 514.447C1251.69 506.568 1252.69 491.754 1255.42 483C1259.79 471.511 1259.92 459.5 1258.92 457" stroke="#D1D4D8" stroke-width="3" stroke-linecap="round"/>
<path d="M1236.42 508C1238.08 508 1239.42 505.985 1239.42 503.5C1239.42 501.015 1238.08 499 1236.42 499C1234.76 499 1233.42 501.015 1233.42 503.5C1233.42 505.985 1234.76 508 1236.42 508Z" fill="#D1D4D8"/>
<path d="M1224.42 487C1227.59 483.535 1235.82 478.424 1243.42 485.701" stroke="#D1D4D8" stroke-width="3" stroke-linecap="round"/>
<path d="M1203.42 554C1209.42 563 1215.92 565.5 1228.42 559.5" stroke="#D1D4D8" stroke-width="3" stroke-linecap="round"/>
<path d="M1154.43 491C1153.1 494.014 1152.04 500.835 1158.42 504" stroke="#D1D4D8" stroke-width="3" stroke-linecap="round"/>
<path d="M1121.92 553.5C1127.42 563.167 1131.62 576.9 1130.42 594.5" stroke="#D1D4D8" stroke-width="3" stroke-linecap="round"/>
<path d="M493.995 254.128C493.274 256.197 492.021 257.758 490.691 258.653C489.361 259.547 488.102 259.701 487.114 259.357C486.127 259.013 485.237 258.11 484.751 256.583C484.264 255.055 484.253 253.053 484.974 250.984C485.695 248.916 486.948 247.354 488.279 246.459C489.609 245.565 490.867 245.411 491.855 245.755C492.843 246.1 493.733 247.002 494.219 248.53C494.705 250.058 494.716 252.06 493.995 254.128Z" stroke="#D1D4D8" stroke-width="3"/>
<path d="M507.422 771L866.422 817.5" stroke="#D1D4D8" stroke-width="3" stroke-linecap="round"/>
<path d="M866.422 817V433.5" stroke="#D1D4D8" stroke-width="3" stroke-linecap="round"/>
<path d="M866.422 433.5L508.422 393.5" stroke="#D1D4D8" stroke-width="3" stroke-linecap="round"/>
<path d="M865.922 434L998.922 321" stroke="#D1D4D8" stroke-width="3" stroke-linecap="round"/>
<path d="M999.422 321V695.5" stroke="#D1D4D8" stroke-width="3" stroke-linecap="round"/>
<path d="M866.922 817L999.422 695" stroke="#D1D4D8" stroke-width="3" stroke-linecap="round"/>
<path d="M999.422 320.5L644.922 284.5" stroke="#D1D4D8" stroke-width="3" stroke-linecap="round"/>
<path d="M508.422 393.5C508.422 400 508.589 645.667 507.422 771" stroke="#D1D4D8" stroke-width="3" stroke-linecap="round"/>
<path d="M508.422 393L540.422 367.5" stroke="#D1D4D8" stroke-width="3" stroke-linecap="round"/>
<path d="M603.422 315L644.422 284" stroke="#D1D4D8" stroke-width="3" stroke-linecap="round"/>
<path d="M507.422 760L478.566 755.811C477.138 755.604 475.698 755.5 474.256 755.5H448.853C443.973 755.5 439.166 754.309 434.85 752.032L430.511 749.741C425.866 747.29 420.66 746.101 415.411 746.293L389.728 747.233C385.156 747.4 380.796 745.3 378.077 741.621C375.464 738.086 371.328 736 366.932 736H327.922L507.422 760ZM507.422 658.5H499.739C495.919 658.5 492.157 657.566 488.781 655.778C486.556 654.6 484.156 653.789 481.673 653.375L476.422 652.5L507.422 658.5ZM507.422 679.5H487.955C482.377 679.5 476.911 677.941 472.172 675C467.433 672.059 461.966 670.5 456.389 670.5H441.422L507.422 679.5ZM507.422 700.5L470.064 698.742C466.661 698.582 463.31 697.843 460.155 696.558L455.911 694.829C452.946 693.621 449.776 693 446.575 693H437.574C434.382 693 431.428 691.311 429.81 688.559C428.314 686.016 425.668 684.367 422.726 684.144L394.422 682L507.422 700.5ZM506.922 733L418.357 723.726C413.805 723.25 409.442 721.65 405.661 719.072C402.213 716.721 398.278 715.181 394.15 714.568L363.422 710L506.922 733Z" stroke="#D1D4D8" stroke-width="3" stroke-linecap="round"/>
<path d="M789.922 462.5L830.422 466.5V509.5" stroke="#D1D4D8" stroke-width="3" stroke-linecap="round"/>
<path d="M580.922 747L540.422 743V700" stroke="#D1D4D8" stroke-width="3" stroke-linecap="round"/>
<path d="M1885.54 823.5C1900.88 837.312 1906.45 847.001 1913.54 865.5" stroke="#D1D4D8" stroke-width="3" stroke-linecap="round"/>
<path d="M1922.04 910.5C1922.04 899.5 1921.54 897 1918.54 887" stroke="#D1D4D8" stroke-width="3" stroke-linecap="round"/>
<path d="M373.922 249C377.255 249.667 384.322 252.2 385.922 255" stroke="#D1D4D8" stroke-width="3" stroke-linecap="round"/>
<path d="M421.922 292.5C421.922 291 421.022 287.2 417.422 284" stroke="#D1D4D8" stroke-width="3" stroke-linecap="round"/>
<path d="M2185.42 1280.36C2180.02 1215.5 1979.25 1217.36 1891.92 1223.36C1819.92 1306.86 1703.42 1334.69 1652.92 1336.86C1840.92 1343.02 2190.42 1340.36 2185.42 1280.36Z" fill="#D1D4D8"/>
<path d="M1170.42 623.5C1172.42 617.5 1171.92 617.5 1173.49 612.38C1175.42 606.103 1242.3 609.644 1252.67 536.878C1271.9 536.878 1282.16 521.012 1267.42 514.447C1251.69 506.568 1252.69 491.754 1255.42 483C1259.79 471.511 1259.92 459.5 1258.92 457" stroke="#D1D4D8" stroke-width="3" stroke-linecap="round"/>
<path d="M1237.71 510.085C1240.2 510.085 1242.21 507.175 1242.21 503.585C1242.21 499.995 1240.2 497.085 1237.71 497.085C1235.23 497.085 1233.21 499.995 1233.21 503.585C1233.21 507.175 1235.23 510.085 1237.71 510.085Z" fill="#D1D4D8"/>
<path d="M1224.42 487C1227.59 483.535 1235.82 478.424 1243.42 485.701" stroke="#D1D4D8" stroke-width="3" stroke-linecap="round"/>
<path d="M1203.42 554C1209.42 563 1215.92 565.5 1228.42 559.5" stroke="#D1D4D8" stroke-width="3" stroke-linecap="round"/>
<path d="M1154.43 491C1153.1 494.014 1152.04 500.835 1158.42 504" stroke="#D1D4D8" stroke-width="3" stroke-linecap="round"/>
<path d="M1087.9 461.252L1087.9 461.252C1092.58 433.812 1107.51 418.856 1123.57 411.292C1139.72 403.682 1157.05 403.54 1166.32 405.872L1167.04 406.051L1167.61 405.599C1181.54 394.719 1199.9 383.218 1219.17 376.74C1238.45 370.259 1258.45 368.866 1275.85 377.887C1286.37 383.34 1291.8 389.781 1293.88 396.492C1295.97 403.226 1294.79 410.526 1291.49 417.866C1284.91 432.508 1270.16 446.707 1258.39 455.378C1252.44 457.06 1242.37 458.797 1231.35 458.577C1220.15 458.353 1208.11 456.114 1198.37 449.903C1193.24 446.637 1189.12 445.412 1185.88 446.132C1182.49 446.886 1180.61 449.618 1179.66 452.818C1178.72 456.008 1178.6 459.97 1178.89 463.89C1179.16 467.611 1179.82 471.402 1180.59 474.656L1171.97 489.962C1170.18 484.018 1166.76 477.835 1162.3 473.836C1159.57 471.393 1156.35 469.685 1152.81 469.471C1149.23 469.254 1145.54 470.574 1141.93 473.751L1141.93 473.751C1138.63 476.652 1137.21 481.046 1136.99 485.776C1136.77 490.523 1137.74 495.805 1139.44 500.782C1141.14 505.763 1143.6 510.526 1146.44 514.231C1149.24 517.885 1152.59 520.733 1156.11 521.468L1156.11 521.468C1157.26 521.706 1157.41 522.089 1157.45 522.229C1157.54 522.544 1157.49 523.255 1156.82 524.52C1155.52 526.978 1152.52 530.318 1148.44 534.033C1140.7 541.092 1129.59 549.036 1120.84 554.04C1120.55 553.64 1120.25 553.237 1119.95 552.833C1102.86 529.608 1081.24 500.241 1087.9 461.252Z" stroke="#D1D4D8" stroke-width="3"/>
<path d="M1121.92 553.5C1127.42 563.167 1131.62 576.9 1130.42 594.5" stroke="#D1D4D8" stroke-width="3" stroke-linecap="round"/>
<path d="M217.911 730C204.821 754.812 231.304 765.617 251.945 768.524C270.488 771.136 289.252 771.136 291.216 761.342C293.179 751.547 280.743 750.241 270.488 750.241C258.689 750.241 250.853 748.936 254.125 731.306" stroke="#D1D4D8" stroke-width="3" stroke-linecap="round"/>
<path d="M196.421 762.5C193.605 753.642 208.297 757.868 220.421 757C224.645 761.689 240.421 769.5 252.253 769.5C239.347 774.71 199.237 771.357 196.421 762.5Z" fill="#D1D4D8"/>
<path d="M62.4229 666.5C60.4229 668.5 54.7563 673.5 52.4229 675.5C48.2563 678.667 48.4102 684.596 56.9229 694.5C65.0882 704 69.2065 708.594 65.0882 715C56.0882 729 26.7549 699.833 20.0882 684.5C17.0331 679 16.8229 664.8 40.4229 652" stroke="#D1D4D8" stroke-width="3" stroke-linecap="round"/>
<path d="M2.58713 722.5C-5.01287 715.3 26.4204 712.833 43.0871 712.5C45.4871 716.1 54.7538 718.667 59.0871 719.5C43.4204 723.5 10.1871 729.7 2.58713 722.5Z" fill="#D1D4D8"/>
<path d="M215.059 929.998V909" stroke="#D1D4D8" stroke-width="3" stroke-linecap="round"/>
<path d="M196.289 920.666L207.739 929.998" stroke="#D1D4D8" stroke-width="3" stroke-linecap="round"/>
<path d="M222.699 929.998L231.289 916.333" stroke="#D1D4D8" stroke-width="3" stroke-linecap="round"/>
<path d="M653.176 1056V1025" stroke="#D1D4D8" stroke-width="3" stroke-linecap="round"/>
<path d="M625.289 1042.22L642.3 1056" stroke="#D1D4D8" stroke-width="3" stroke-linecap="round"/>
<path d="M664.527 1056L677.29 1035.83" stroke="#D1D4D8" stroke-width="3" stroke-linecap="round"/>
<path d="M1629.96 368V340" stroke="#D1D4D8" stroke-width="3" stroke-linecap="round"/>
<path d="M1605.29 355.556L1620.34 368" stroke="#D1D4D8" stroke-width="3" stroke-linecap="round"/>
<path d="M1640 368L1651.29 349.778" stroke="#D1D4D8" stroke-width="3" stroke-linecap="round"/>
</svg>
