<svg width="1193" height="1064" viewBox="0 0 1193 1064" fill="none" xmlns="http://www.w3.org/2000/svg">
<circle cx="567.496" cy="15.5" r="15.5" fill="#D1D4D8"/>
<path d="M592.971 16.8242C619.192 14.1245 660.336 17.3169 665.199 37.5999C670.062 57.8828 651.492 65.3012 641.6 66.4749C603.936 72.4612 553.996 69.6442 553.996 37.5999" stroke="#D1D4D8" stroke-width="3" stroke-linecap="round"/>
<circle cx="583.035" cy="41.585" r="5.5" fill="#D1D4D8"/>
<circle cx="608.035" cy="41.585" r="5.5" fill="#D1D4D8"/>
<circle cx="634.035" cy="41.585" r="5.5" fill="#D1D4D8"/>
<circle cx="1107.5" cy="764.5" r="14.5" fill="#D1D4D8"/>
<path d="M1131.07 754C1139.87 754 1164.99 754 1176.81 754C1186.39 754 1190.99 756.118 1190.99 770.942C1190.99 785.345 1190.88 804.002 1190.99 811.532C1191.08 816.826 1188.44 822.685 1179.65 823.532C1170.85 824.379 1135.56 823.885 1119.02 823.532C1112.87 823.532 1102 820.048 1102 805.884L1102 790.001" stroke="#D1D4D8" stroke-width="3" stroke-linecap="round"/>
<path d="M1125 779L1147 794" stroke="#D1D4D8" stroke-width="3" stroke-linecap="round"/>
<path d="M1147 794L1187 757" stroke="#D1D4D8" stroke-width="3" stroke-linecap="round"/>
<path d="M1117 807L1133.12 785M1157.13 785L1179 807" stroke="#D1D4D8" stroke-width="3" stroke-linecap="round"/>
<path d="M591.996 419C595.214 427.947 607.54 446.306 631.098 448.173C660.546 450.507 664.408 457.976 663.281 490.183C662.155 522.391 679.769 539.716 704.996 520C764.496 473.5 736.496 585 713.996 650" stroke="#D1D4D8" stroke-width="3" stroke-linecap="round"/>
<path d="M822.996 138.973C849.518 144.413 837.081 180.92 856.52 190.635C879.721 202.231 887.71 136.942 884.691 109.23C883.826 97.0797 869.675 91.6753 867.767 109.23C865.739 127.878 888.881 200.188 915.403 172.285L933.111 151.799C938.031 145.737 947.731 137.316 955.929 151.799C964.126 166.283 977.187 161.497 982.693 157.293L999.996 144.709" stroke="#D1D4D8" stroke-width="3" stroke-linecap="round"/>
<path d="M987.39 89.0253L1125.82 65.575C1126.81 65.4078 1127.4 66.6341 1126.66 67.3041L1062.12 125.425C1062.05 125.491 1061.97 125.545 1061.88 125.583C1056.27 127.892 1034.17 119.131 1022.76 113.997C1022.2 113.744 1021.54 114.05 1021.37 114.642C1018.64 124.285 1015.29 133.235 1013.65 137.258C1013.47 137.693 1012.99 137.947 1012.64 137.641C1009.32 134.794 1008.91 116.617 1009.15 106.56C1009.16 106.046 1008.79 105.61 1008.28 105.52C999.807 104.005 988.142 96.4393 983.219 92.7215" stroke="#D1D4D8" stroke-width="3" stroke-linecap="round"/>
<path d="M1022.22 114C1036.73 107.119 1073.46 89.8864 1104.22 76" stroke="#D1D4D8" stroke-width="3" stroke-linecap="round"/>
<path d="M1013.22 138L1040.22 122" stroke="#D1D4D8" stroke-width="3" stroke-linecap="round"/>
<path d="M1019.22 100L1056.22 88" stroke="#D1D4D8" stroke-width="3" stroke-linecap="round"/>
<path d="M431.996 205C412.496 322 407.996 339 362.996 370.5" stroke="#D1D4D8" stroke-width="3" stroke-linecap="round"/>
<path d="M348.996 600.176C380.655 775.227 533.82 908 717.996 908C925.103 908 1093 740.107 1093 533C1093 387.891 1010.58 262.033 889.996 199.684" stroke="#D1D4D8" stroke-width="3" stroke-linecap="round"/>
<path d="M374.418 382.5C432.399 250.324 564.415 158 717.996 158C755.174 158 791.089 163.41 824.996 173.487" stroke="#D1D4D8" stroke-width="3" stroke-linecap="round"/>
<path d="M1033.16 244.202L1044.77 222.438" stroke="#D1D4D8" stroke-width="3" stroke-linecap="round"/>
<path d="M1055.63 263.059L1073.99 246.089" stroke="#D1D4D8" stroke-width="3" stroke-linecap="round"/>
<path d="M1066.6 286.418L1097.5 286.995" stroke="#D1D4D8" stroke-width="3" stroke-linecap="round"/>
<path d="M566.118 923.219L537.549 939.189" stroke="#D1D4D8" stroke-width="3" stroke-linecap="round"/>
<path d="M609.57 944.766C611.015 949.054 621.87 967.98 627.117 976.907" stroke="#D1D4D8" stroke-width="3" stroke-linecap="round"/>
<path d="M585.417 943.951C582.752 949.326 574.237 966.498 570.312 974.412" stroke="#D1D4D8" stroke-width="3" stroke-linecap="round"/>
<path d="M692.996 882C684.984 906 657.996 898.333 649.996 891C626.496 868.5 594.544 816.534 599.044 793.034C603.544 769.533 592.544 744.534 570.044 730.034C552.044 718.434 550.878 702.534 552.544 696.034C554.211 685.534 559.444 658.334 567.044 633.534C574.644 608.734 611.544 621.201 629.044 630.534C636.878 654.701 661.144 701.634 695.544 696.034C729.944 690.434 751.544 709.7 758.044 720.034C762.044 733.867 760.244 767.834 721.044 793.034C672.044 824.534 703.834 849.538 692.996 882Z" fill="#D1D4D8"/>
<path d="M816.497 560C859.697 551.2 870.83 591 870.997 612C869.997 623.5 871.297 659.3 884.497 710.5C900.997 774.5 920.997 759 954.997 727.5C988.997 696 987.497 679 995.997 629.5C1004.5 580 1015 572 1034.5 550.5C1054 529 1025.5 485.5 987.497 474C949.497 462.5 948.497 455.5 887.997 427C827.497 398.5 787.497 449.5 768.497 490C749.497 530.5 762.497 571 816.497 560Z" fill="#D1D4D8"/>
<path d="M1018 706C1002 720 1001.33 694.833 1003 680.5C1006.5 660.5 1024.5 656.5 1030 638C1032.13 630.812 1042.5 628 1046 638C1050.67 651.348 1038 688.5 1018 706Z" fill="#D1D4D8"/>
<path d="M486.996 527.999C478.996 540.999 439.496 513.499 436.996 510.499C425.496 499.999 402.68 475.929 399.996 454.999C397.496 435.5 385.996 401.5 374.496 383.5C399.996 339.5 406.996 317.833 429.996 294.5C469.996 259.7 505.329 278.666 516.996 291.499C525.829 305.499 552.896 328.098 590.496 306.498C628.096 284.898 639.829 315.498 640.996 333.498C639.996 352.832 627.396 391.998 584.996 393.998C531.996 396.498 531.496 424.498 528.496 448.998C526.096 468.598 511.163 465.499 503.996 461.499C496.829 455.165 478.596 446.299 462.996 461.499C447.396 476.699 464.496 496.832 474.996 504.999C482.329 511.332 493.468 517.482 486.996 527.999Z" fill="#D1D4D8"/>
<path d="M664.996 262C700.196 267.2 689.773 291 685.496 303.5C675.096 333.901 719.259 329.5 726.496 317C735.663 301.167 757.596 269.9 771.996 271.5C786.396 273.1 795.329 262.167 797.996 256.5C803.596 212.5 757.329 215.167 733.496 222C722.996 228.167 696.296 238.6 673.496 231C650.696 223.4 633.663 225.167 627.996 227C584.496 254 620.996 255.5 664.996 262Z" fill="#D1D4D8"/>
<path d="M647.915 580.971C650.68 589.471 646.244 609.143 605.604 613.91C590.228 615.713 587.918 615.46 573.485 614.242" stroke="#D1D4D8" stroke-width="3" stroke-linecap="round"/>
<path d="M653.558 556.263C660.331 558.172 666.423 565.555 647.917 580.972C643.869 584.343 638.646 588.099 631.995 592.265" stroke="#D1D4D8" stroke-width="3" stroke-linecap="round"/>
<path d="M650.541 538.362C657.64 538.28 664.512 542.281 653.558 556.263C648.814 562.317 640.729 570.242 627.873 580.518" stroke="#D1D4D8" stroke-width="3" stroke-linecap="round"/>
<path d="M563.724 549.304C596.01 516.132 609.798 514.459 603.316 541.635C596.833 568.811 620.886 545.458 633.383 532.022C638.405 526.437 649.585 517.455 654.13 526.205C655.694 529.216 653.971 533.574 650.541 538.362C644.004 547.487 631.269 558.17 623.283 564.054" stroke="#D1D4D8" stroke-width="3" stroke-linecap="round"/>
<path d="M512.053 638.997C481.534 650.996 411.997 652.5 348.997 600" stroke="#D1D4D8" stroke-width="3" stroke-linecap="round"/>
<path d="M536.075 583.799C530.4 605.362 522.887 622.3 514.386 635.501C513.474 636.918 514.567 638.811 516.247 638.686C532.07 637.51 546.564 635.754 561.099 610.782C572.282 591.57 568.033 566.924 558.552 554.309" stroke="#D1D4D8" stroke-width="3" stroke-linecap="round"/>
<path d="M280.496 263C280.496 281.083 293.831 295.5 309.996 295.5C326.161 295.5 339.496 281.083 339.496 263C339.496 244.917 326.161 230.5 309.996 230.5C293.831 230.5 280.496 244.917 280.496 263Z" stroke="#D1D4D8" stroke-width="3"/>
<path d="M357.496 272.5C357.496 290.88 370.851 305.5 386.996 305.5C403.142 305.5 416.496 290.88 416.496 272.5C416.496 254.12 403.142 239.5 386.996 239.5C370.851 239.5 357.496 254.12 357.496 272.5Z" stroke="#D1D4D8" stroke-width="3"/>
<path d="M355.496 266.5L339.497 265" stroke="#D1D4D8" stroke-width="3" stroke-linecap="round"/>
<path d="M345.797 277C348.798 291.799 357.922 305.295 343.996 311.925" stroke="#D1D4D8" stroke-width="3" stroke-linecap="round"/>
<circle r="9" transform="matrix(-1 0 0 1 400.996 288.722)" fill="#D1D4D8"/>
<circle r="9" transform="matrix(-1 0 0 1 324.996 279.722)" fill="#D1D4D8"/>
<path d="M317.996 257.73C313.29 257.57 303.502 259.744 301.996 269.722" stroke="#D1D4D8" stroke-width="3" stroke-linecap="round"/>
<path d="M407.229 270.175C403.884 267.945 395.354 264.488 387.995 268.502" stroke="#D1D4D8" stroke-width="3" stroke-linecap="round"/>
<path d="M332.996 339.815C345.029 346.007 354.029 342.007 358.564 335.311" stroke="#D1D4D8" stroke-width="3" stroke-linecap="round"/>
<path d="M76.335 420.655C116.342 458.354 161.615 467.05 177.176 468.803C170.496 340 203.996 322.5 226.996 316.5C200.496 295 208.996 250 238.496 250C238.496 207.5 275.381 198.456 284.308 194.794C297.115 210.49 313.899 216.813 320.995 219.754C393.226 238.65 437.314 212.78 457.663 180.492C479.753 147.899 476.178 71.3604 413.684 52.7281C393.25 44.8648 344.806 38.4176 314.503 75.5348C225.297 42.7522 183.078 136.575 171.495 170.645L158.109 201.709C41.8583 226.438 29.7234 337.242 52.046 384.544C60.2605 401.95 66.0611 410.973 76.335 420.655Z" stroke="#D1D4D8" stroke-width="3" stroke-linecap="round"/>
<path d="M557.995 554.293C344.996 520.5 431.769 429.171 351.443 361.396C287.182 307.176 232.171 313.78 212.698 323.859C189.052 332.896 144.496 405.5 212.496 692.5" stroke="#D1D4D8" stroke-width="3" stroke-linecap="round"/>
<path d="M161.496 937.5C133.96 820.651 174.554 743.816 213.494 684C231.994 742.5 323.494 806 345.994 822C378.994 850 407.994 864 425.494 867.5C412.996 937.5 412.996 966.5 412.996 1016C412.996 1109.5 189.032 1054.35 161.496 937.5Z" fill="#D1D4D8"/>
<path d="M422.996 867C426.496 851.667 433.996 815.3 437.996 786.5" stroke="#D1D4D8" stroke-width="3" stroke-linecap="round"/>
<path d="M231.413 272C228.08 275.833 223.413 286.3 231.413 297.5" stroke="#D1D4D8" stroke-width="3" stroke-linecap="round"/>
<path d="M280.496 255.5L232.496 248" stroke="#D1D4D8" stroke-width="3" stroke-linecap="round"/>
<path d="M470.996 332.002C465.496 267.668 457.996 97.0001 661.496 152.502" stroke="#D1D4D8" stroke-width="3" stroke-linecap="round"/>
<path d="M736.996 799C816.663 850.833 970.596 933.3 948.996 848.5" stroke="#D1D4D8" stroke-width="3" stroke-linecap="round"/>
</svg>
