<svg width="466" height="559" viewBox="0 0 466 559" fill="none" xmlns="http://www.w3.org/2000/svg">
<path d="M219.08 364.612C225.166 350.105 238.25 324.432 252.044 341.84C265.839 359.248 266.752 396.493 274.866 379.793L290.08 339.816" stroke="#D1D4D8" stroke-width="3" stroke-linecap="round"/>
<path d="M59.0499 301.511C90.0862 330.757 128.507 335.64 140.58 337C129.58 318 98.8796 270.7 112.08 239.5C107.08 231.333 98.5795 209.5 112.08 192.5C117.638 185.5 138.58 176.5 153.58 189L181.251 193.931C179.908 164.096 198.299 154.14 207.662 152.892C200.303 136.364 213.466 129.133 220.391 126.292C230.327 138.469 243.347 143.375 248.852 145.656C304.887 160.315 339.09 140.245 354.877 115.197C372.014 89.9117 369.24 30.535 320.759 16.0804C304.906 9.98027 267.324 4.97862 243.816 33.7734C174.612 8.34136 141.859 81.1271 132.873 107.558L122.489 131.657C32.3036 150.841 22.8895 236.801 40.2069 273.496C46.5796 287 51.0796 294 59.0499 301.511Z" stroke="#D1D4D8" stroke-width="3" stroke-linecap="round"/>
<path d="M347.104 328.4C394.767 241.508 357.498 206.592 335.072 189.881C337.722 255.684 293.395 287.5 275.895 298.5L290.895 312.5C310.029 327 330.529 350 347.104 328.4Z" stroke="#D1D4D8" stroke-width="3" stroke-linecap="round"/>
<path d="M180.314 194.59C183.998 215.56 202.142 229.606 220.571 226.368C239 223.131 251.27 203.742 247.586 182.772C243.902 161.802 225.759 147.756 207.33 150.993C188.901 154.231 176.631 173.619 180.314 194.59Z" stroke="#D1D4D8" stroke-width="3"/>
<path d="M267.533 191.798C271.217 212.768 289.361 226.814 307.79 223.576C326.219 220.339 338.489 200.95 334.805 179.98C331.121 159.01 312.978 144.964 294.549 148.201C276.12 151.439 263.849 170.827 267.533 191.798Z" stroke="#D1D4D8" stroke-width="3"/>
<path d="M267.903 183.913L247.11 185.368" stroke="#D1D4D8" stroke-width="3" stroke-linecap="round"/>
<path d="M255.797 204.997C262.139 221.285 275.108 234.878 260.77 245.193" stroke="#D1D4D8" stroke-width="3" stroke-linecap="round"/>
<path d="M275.803 266.697C271.461 271.496 259.349 278.215 245.637 266.697" stroke="#D1D4D8" stroke-width="3" stroke-linecap="round"/>
<circle r="9" transform="matrix(-0.984918 0.173019 0.173019 0.984918 307.107 200.421)" fill="#D1D4D8"/>
<circle r="9" transform="matrix(-0.984918 0.173019 0.173019 0.984918 223.107 198.421)" fill="#D1D4D8"/>
<path d="M325.064 143.609C337.978 168.255 349.595 228.474 298.019 280.414C246.444 332.353 189.58 285.5 169.958 252.791L156.08 230" stroke="#D1D4D8" stroke-width="3" stroke-linecap="round"/>
<path d="M213.158 176.009C207.565 176.806 196.428 181.285 196.622 192.826" stroke="#D1D4D8" stroke-width="3" stroke-linecap="round"/>
<path d="M319.713 180.521C315.446 178.646 305.012 176.41 297.413 182.47" stroke="#D1D4D8" stroke-width="3" stroke-linecap="round"/>
<path d="M290.08 307.004C322.913 326.504 389.38 377.204 400.58 430.004" stroke="#D1D4D8" stroke-width="3" stroke-linecap="round"/>
<path d="M139.218 237.124C148.385 236.457 171.1 226.125 160.718 201.624C148.718 173.304 116.531 188.129 111.718 195.623C107.219 202.63 101.218 219.125 112.718 239.125" stroke="#D1D4D8" stroke-width="3" stroke-linecap="round"/>
<path d="M169.08 287.003C176.58 280.67 196.481 271.248 206.58 290.003C217.08 309.503 196.58 332.503 181.58 331.003C166.58 329.503 151.58 319.004 147.08 296.004" stroke="#D1D4D8" stroke-width="3" stroke-linecap="round"/>
<path d="M147.08 295.004C150.413 287.337 158.38 274.304 163.58 283.504" stroke="#D1D4D8" stroke-width="3" stroke-linecap="round"/>
<path d="M169.58 283.504C169.179 279.781 167.955 275.546 165.58 272.647C161.044 267.109 152.307 266.44 137.08 283.504" stroke="#D1D4D8" stroke-width="3" stroke-linecap="round"/>
<path d="M165.58 272.647C166.097 268.265 165.507 262.905 162.318 260.003C158.316 256.362 150.219 256.595 135.08 267.504" stroke="#D1D4D8" stroke-width="3" stroke-linecap="round"/>
<path d="M162.319 260.003C161.74 253.337 155.881 242.203 137.081 251.003C118.281 259.803 127.914 238.337 135.081 226.504C137.914 222.17 143.281 212.804 142.081 210.004C140.881 207.204 133.581 211.837 130.081 214.504C119.747 222.837 102.181 247.704 114.581 280.504C126.981 313.304 139.747 333.171 144.581 339.004C146.581 341.171 148.781 348.004 141.581 358.004C132.581 370.504 56.0807 490.504 137.081 504.504" stroke="#D1D4D8" stroke-width="3" stroke-linecap="round"/>
<path d="M199.579 336.004C206.913 356.504 220.079 401.504 182.079 419.504C164.579 429.004 146.305 407.771 169.079 391.504C186.579 379.004 203.179 406.404 199.579 442.004C197.708 460.504 172.236 487.627 158.079 480.004C138.579 469.504 157.079 444.004 172.579 456.004C188.079 468.004 188.079 498.004 183.579 526.004C182.579 533.171 177.079 546.004 163.079 540.004C145.579 532.504 154.579 490.504 210.579 496.004M355.079 511.004C307.079 514.604 304.746 539.171 309.579 551.004C312.847 559.004 328.779 561.204 331.579 544.004C334.379 526.804 316.079 510.583 296.579 511.004C291.287 511.118 286.466 511.445 282.079 511.953M225.079 499.504L233.079 503.004C247.079 508.004 274.469 514.834 269.579 535.004C265.579 551.504 251.394 554.845 245.079 546.004C242.579 542.504 237.203 525.414 260.079 517.261" stroke="#D1D4D8" stroke-width="3" stroke-linecap="round"/>
<path d="M275.081 499.004C275.081 500.004 251.081 522.004 263.081 523.004C272.681 523.804 284.081 509.337 288.581 502.004" stroke="#D1D4D8" stroke-width="3" stroke-linecap="round"/>
<path d="M232.58 520.011C233.58 521.004 243.58 530.504 269.08 495.004" stroke="#D1D4D8" stroke-width="3" stroke-linecap="round"/>
<path d="M247.08 483.004C237.913 492.837 221.28 513.904 228.08 519.504C229.285 520.497 230.822 520.593 232.58 520.011C240.737 517.312 253.635 500.014 260.08 490.004" stroke="#D1D4D8" stroke-width="3" stroke-linecap="round"/>
<path d="M321.08 502.004C305.747 483.337 258.08 449.504 230.08 474.004C218.913 484.837 202.08 505.504 210.08 513.504C214.08 516.504 220.08 515.004 222.58 505.504C226.086 492.182 238.532 488.671 244.366 486.004" stroke="#D1D4D8" stroke-width="3" stroke-linecap="round"/>
<path d="M394.308 461.688L395.852 466.32C395.988 466.728 396.37 467.004 396.801 467.004H420.913C421.317 467.004 421.681 466.761 421.836 466.389L423.824 461.619C423.979 461.247 424.343 461.004 424.747 461.004H430.237C430.724 461.004 431.141 461.361 431.228 461.84C436.156 488.775 454.1 504.417 463.046 509.224C463.377 509.402 463.58 509.741 463.58 510.117V538.004C463.58 538.556 463.132 539.004 462.58 539.004H458.58C458.028 539.004 457.58 539.452 457.58 540.004V542.504C457.58 543.056 457.132 543.504 456.58 543.504H437.58C437.028 543.504 436.58 543.056 436.58 542.504V540.004C436.58 539.452 436.132 539.004 435.58 539.004H382.08C381.528 539.004 381.08 539.452 381.08 540.004V542.504C381.08 543.056 380.632 543.504 380.08 543.504H361.58C361.028 543.504 360.58 543.056 360.58 542.504V540.004C360.58 539.452 360.132 539.004 359.58 539.004H356.58C356.028 539.004 355.58 538.556 355.58 538.004V510.181C355.58 509.772 355.829 509.406 356.204 509.245C373.497 501.796 384.046 475.056 387.394 461.758C387.507 461.31 387.906 461.004 388.368 461.004H393.359C393.79 461.004 394.172 461.279 394.308 461.688Z" stroke="#D1D4D8" stroke-width="3" stroke-linecap="round"/>
<path d="M434.58 493.504C434.58 505.49 423.562 515.504 409.58 515.504C395.598 515.504 384.58 505.49 384.58 493.504C384.58 481.518 395.598 471.504 409.58 471.504C423.562 471.504 434.58 481.518 434.58 493.504Z" stroke="#D1D4D8" stroke-width="3"/>
<ellipse cx="409.58" cy="493.504" rx="10.5" ry="8.5" fill="#D1D4D8"/>
<circle cx="423.08" cy="485.004" r="3" fill="#D1D4D8"/>
<circle cx="415.08" cy="480.004" r="3" fill="#D1D4D8"/>
<circle cx="406.08" cy="479.004" r="3" fill="#D1D4D8"/>
<circle cx="398.08" cy="483.004" r="3" fill="#D1D4D8"/>
<circle cx="393.08" cy="489.004" r="3" fill="#D1D4D8"/>
<circle cx="393.08" cy="497.004" r="3" fill="#D1D4D8"/>
<circle cx="398.08" cy="504.004" r="3" fill="#D1D4D8"/>
<circle cx="406.08" cy="508.004" r="3" fill="#D1D4D8"/>
<circle cx="415.08" cy="507.004" r="3" fill="#D1D4D8"/>
<circle cx="423.08" cy="502.004" r="3" fill="#D1D4D8"/>
<path d="M355.58 510.004C371.913 520.337 416.38 534.804 463.58 510.004" stroke="#D1D4D8" stroke-width="3" stroke-linecap="round"/>
<path d="M222.08 412.5C245.913 411.833 292.98 407.4 310.58 397" stroke="#D1D4D8" stroke-width="3" stroke-linecap="round"/>
<path d="M217.08 445C247.08 448.333 308.68 449.7 341.08 428.5" stroke="#D1D4D8" stroke-width="3" stroke-linecap="round"/>
</svg>
