<svg width="1093" height="882" viewBox="0 0 1093 882" fill="none" xmlns="http://www.w3.org/2000/svg">
<path d="M824.782 411.376C836.887 455.032 842.94 458.901 860.548 478.242C860.548 459.127 863.818 427.043 863.818 413.683C921.471 413.683 970.128 390.046 987.249 378.228C986.636 418.308 1024.05 444.514 1024.05 444.514C1024.05 444.514 1018.68 460.7 1015.62 496.925C1013.16 525.906 1020.22 520.305 1024.05 513.882C1035.09 478.119 1053.18 487.676 1060.85 496.925C1154.93 343.404 1010.25 313.741 982.65 316.567C961.797 298.685 932.715 284.672 912.271 282.617C838.538 275.204 805.153 340.588 824.782 411.376Z" fill="black"/>
<path d="M1023.25 540.16C1013.28 600.436 946.388 643.777 898.115 594.951C849.842 546.124 859.502 456.748 864.66 415.042" stroke="black" stroke-width="5" stroke-linecap="round"/>
<path d="M1062.2 492.042C1068.22 507.278 1062.57 541.042 1023.25 541.042" stroke="black" stroke-width="5" stroke-linecap="round"/>
<path d="M1044.94 502.042C1045.91 504.93 1045.14 511.775 1034.25 516.042" stroke="black" stroke-width="5" stroke-linecap="round"/>
<path d="M866.248 533.042C853.516 527.587 844.539 507.388 847.993 475.042" stroke="black" stroke-width="5" stroke-linecap="round"/>
<path d="M938.248 568.367C926.453 571.565 927.199 562.764 918.248 555.042" stroke="black" stroke-width="5" stroke-linecap="round"/>
<ellipse rx="7.5" ry="8.5" transform="matrix(-1 0 0 1 900.748 491.542)" fill="black"/>
<ellipse rx="8.5" ry="8" transform="matrix(-1 0 0 1 973.748 492.042)" fill="black"/>
<path d="M992.248 475.042C990.464 469.55 982.766 459.39 966.248 462.685" stroke="black" stroke-width="5" stroke-linecap="round"/>
<path d="M915.248 464.042C911.46 461.778 901.157 458.608 890.248 464.042" stroke="black" stroke-width="5" stroke-linecap="round"/>
<path d="M942.28 488.042C943.677 498.871 944.628 520.833 937.248 522.042" stroke="black" stroke-width="5" stroke-linecap="round"/>
<path d="M762.748 348.042L771.748 368.042L748.748 361.542C709.548 392.342 668.748 382.875 657.248 376.042C630.915 362.542 603.248 330.542 624.748 296.542C649.267 257.767 708.581 273.375 731.248 283.042C742.915 286.875 767.348 297.942 771.748 311.542C776.148 325.142 767.581 341.542 762.748 348.042Z" stroke="black" stroke-width="5" stroke-linecap="round"/>
<path d="M663.248 300.042H692.748" stroke="black" stroke-width="5" stroke-linecap="round"/>
<path d="M655.748 322.042H729.748" stroke="black" stroke-width="5" stroke-linecap="round"/>
<path d="M653.248 340.542L700.748 343.542" stroke="black" stroke-width="5" stroke-linecap="round"/>
<path d="M852.248 572.635C855.728 582.189 865.423 602.785 876.368 608.736" stroke="black" stroke-width="5" stroke-linecap="round"/>
<path d="M390.074 822.618C389.729 808.164 393.486 774.172 411.271 753.837C433.502 728.418 435.053 712.967 435.053 665.618" stroke="black" stroke-width="5" stroke-linecap="round"/>
<path d="M381.053 679.618C389.418 678.175 403.638 668.554 393.6 641.618" stroke="black" stroke-width="5" stroke-linecap="round"/>
<path d="M275.053 679.618C256.111 668.627 225.71 641.627 255.638 621.55C259.742 618.597 269.37 616.826 275.053 633.36" stroke="black" stroke-width="5" stroke-linecap="round"/>
<path d="M261.32 637.789C261.636 642.71 264.825 652.749 275.053 653.536" stroke="black" stroke-width="5" stroke-linecap="round"/>
<path d="M320.053 607.618C323.813 606.108 333.478 603.995 342.053 607.618" stroke="black" stroke-width="5" stroke-linecap="round"/>
<path d="M409.053 612.618C413.497 611.108 424.919 608.995 435.053 612.618" stroke="black" stroke-width="5" stroke-linecap="round"/>
<path d="M291.138 495.908C179.164 507.568 213.378 592.573 244.482 633.618C250.835 619.545 263.343 619.043 268.803 620.55C273.965 541.342 323.235 552.031 347.225 567.276C397.256 565.265 409.764 585.202 409.764 595.421C431.45 581.722 449.815 597.805 451.304 601.323C506.894 437.278 367.244 463.24 291.138 495.908Z" fill="black"/>
<circle cx="335.053" cy="626.618" r="35.5" stroke="black" stroke-width="5"/>
<ellipse cx="333.553" cy="633.118" rx="8.5" ry="10.5" fill="black"/>
<path d="M461.553 626.618C461.553 646.193 445.466 662.118 425.553 662.118C405.64 662.118 389.553 646.193 389.553 626.618C389.553 607.042 405.64 591.118 425.553 591.118C445.466 591.118 461.553 607.042 461.553 626.618Z" stroke="black" stroke-width="5"/>
<circle cx="426.553" cy="633.118" r="10.5" fill="black"/>
<path d="M390.053 626.618H371.053" stroke="black" stroke-width="5" stroke-linecap="round"/>
<path d="M299.053 621.618L273.053 627.618" stroke="black" stroke-width="5" stroke-linecap="round"/>
<path d="M397.053 711.191C391.219 717.858 374.553 727.191 354.553 711.191" stroke="black" stroke-width="5" stroke-linecap="round"/>
<path d="M444.553 757.618C451.886 753.618 465.953 740.918 463.553 722.118" stroke="black" stroke-width="5" stroke-linecap="round"/>
<path d="M487.053 801.618L481.053 771.118L502.053 792.618C522.053 773.018 588.89 773.721 619.553 783.118C650.553 792.618 661.053 819.118 649.053 844.118C637.053 869.118 567.053 888.118 511.553 874.618C467.153 863.818 476.719 821.451 487.053 801.618Z" stroke="black" stroke-width="5" stroke-linecap="round"/>
<path d="M522.053 813.118L544.553 808.118" stroke="black" stroke-width="5" stroke-linecap="round"/>
<path d="M520.553 834.118L615.553 822.118" stroke="black" stroke-width="5" stroke-linecap="round"/>
<path d="M521.553 853.605L580.983 846.602" stroke="black" stroke-width="5" stroke-linecap="round"/>
<path d="M406.971 146.405C397.81 160.809 378.835 189.618 376.218 189.618L381.453 126.762C369.021 113.668 353.186 77.0019 389.304 35.0984C425.422 -6.80516 499.011 0.61526 531.29 9.56341C557.899 19.6028 600.516 53.955 558.117 111.049C515.717 168.142 439.686 158.408 406.971 146.405Z" stroke="black" stroke-width="5" stroke-linecap="round"/>
<path d="M410.053 61.6177L449.053 54.6177" stroke="black" stroke-width="5" stroke-linecap="round"/>
<path d="M416.053 88.6177L517.053 71.6177" stroke="black" stroke-width="5" stroke-linecap="round"/>
<path d="M427.053 117.618L482.053 110.618" stroke="black" stroke-width="5" stroke-linecap="round"/>
<path d="M197.506 61.6702C244.548 68.464 261.536 125.906 264.149 153.778C277.583 198.004 276.393 234.727 266.924 262.218C265.345 269.186 269.115 281.423 296.817 274.63C324.52 267.836 312.716 220.41 303.351 197.546C298.124 185.526 296.817 163.359 296.817 153.778C306.748 24.6962 227.779 10.7167 187.053 19.8622C199.597 28.2238 199.249 51.2182 197.506 61.6702Z" fill="black"/>
<path d="M32.912 91.7612C53.203 -12.8476 174.95 -8.27255 211.605 23.7641C252.842 76.0686 147.459 205.524 118.658 193.101C98.2365 177.41 82.9115 185.909 78.7309 193.101C59.8798 225.53 86.5855 243.662 102.295 248.675C98.1056 271.166 152.04 295.749 144.186 312.748C102.294 365.707 -25.9971 279.404 4.76678 253.252C29.3779 232.33 28.0459 205.525 27.6763 193.101C25.7119 127.067 27.6763 121.837 32.912 91.7612Z" fill="black"/>
<path d="M214.053 233.618C237.824 228.475 225.278 218.189 219.995 197.618" stroke="black" stroke-width="5" stroke-linecap="round"/>
<ellipse cx="249.056" cy="177.026" rx="5.98134" ry="8.97201" transform="rotate(11.0109 249.056 177.026)" fill="black"/>
<ellipse cx="182.334" cy="193.879" rx="5.90198" ry="8.85297" transform="rotate(8.55426 182.334 193.879)" fill="black"/>
<path d="M93.0527 203.618C90.7889 207.618 87.6194 217.218 93.0527 223.618" stroke="black" stroke-width="5" stroke-linecap="round"/>
<path d="M138.053 305.512C192.29 305.512 222.35 341.258 270.053 262.618" stroke="black" stroke-width="5" stroke-linecap="round"/>
<path d="M208.053 270.095C220.736 274.008 230.882 270.095 234.053 261.618" stroke="black" stroke-width="5" stroke-linecap="round"/>
<path d="M206.553 194.618C206.553 210.648 195.087 223.118 181.553 223.118C168.019 223.118 156.553 210.648 156.553 194.618C156.553 178.588 168.019 166.118 181.553 166.118C195.087 166.118 206.553 178.588 206.553 194.618Z" stroke="black" stroke-width="5"/>
<path d="M273.553 177.618C273.553 193.648 262.087 206.118 248.553 206.118C235.019 206.118 223.553 193.648 223.553 177.618C223.553 161.588 235.019 149.118 248.553 149.118C262.087 149.118 273.553 161.588 273.553 177.618Z" stroke="black" stroke-width="5"/>
<path d="M223.053 181.096C218.981 180.234 209.681 179.933 205.053 185.618" stroke="black" stroke-width="5" stroke-linecap="round"/>
<path d="M157.474 184.859L137.225 185.512" stroke="black" stroke-width="5" stroke-linecap="round"/>
</svg>
