<svg width="1352" height="1298" viewBox="0 0 1352 1298" fill="none" xmlns="http://www.w3.org/2000/svg">
<path d="M1244.16 787.054C1229.24 776.316 1196.39 756.728 1184.45 764.277C1169.53 773.713 1179.06 775.014 1186.68 773.062" stroke="black" stroke-width="5" stroke-linecap="round"/>
<path d="M1200 773.576C1192.42 772.396 1177.13 772.546 1176.62 782.59C1176.34 788.447 1177.89 787.473 1180.73 785.644C1182.77 784.335 1185.47 782.59 1188.63 782.59H1202.22" stroke="black" stroke-width="5" stroke-linecap="round"/>
<path d="M1202.22 782.394H1188.41C1185.2 782.394 1182.46 784.127 1180.38 785.425C1178.36 789.101 1176.86 795.88 1187.12 793.578C1197.39 791.277 1201.47 791.981 1202.22 792.62" stroke="black" stroke-width="5" stroke-linecap="round"/>
<path d="M1187.13 794.044C1183.68 798.1 1179.71 805.736 1191.32 803.844C1202.93 801.952 1212.06 807.786 1215.18 810.939C1220.45 814.543 1232.92 819.048 1240.66 808.237" stroke="black" stroke-width="5" stroke-linecap="round"/>
<path d="M1297.97 804.051C1243.35 773.69 1243.3 802.284 1247.91 819.722C1254.74 837.351 1288.59 856.771 1303.79 859.094C1325.23 864.034 1363.2 858.18 1343.51 795.237C1318.89 716.559 1307.76 659.101 1225.52 643.757" stroke="black" stroke-width="5" stroke-linecap="round"/>
<path d="M1268.62 735.794C1268.62 765.472 1270.3 764.773 1282.6 791.714" stroke="black" stroke-width="5" stroke-linecap="round"/>
<path d="M1156.78 752.104V743.949" stroke="black" stroke-width="5" stroke-linecap="round"/>
<path d="M1147.47 752.104L1143.97 740.454" stroke="black" stroke-width="5" stroke-linecap="round"/>
<path d="M1138.15 753.269L1129.99 735.794" stroke="black" stroke-width="5" stroke-linecap="round"/>
<path d="M1245.95 1221.6C1244.84 1230.7 1247.05 1244.86 1257.36 1249.54C1270.25 1255.38 1303.29 1275.2 1271.57 1279.42C1246.19 1282.8 1225.75 1265.67 1218.7 1256.68C1216.28 1246.29 1214.55 1234.27 1218.7 1221.6" stroke="black" stroke-width="5" stroke-linecap="round"/>
<path d="M1195.71 1205.21C1307.69 1275.79 1290.3 1019.84 1282.63 895.47C1201.32 920.955 1135.48 904.619 1120.9 881.42C1116.76 896.226 1103.93 1002.23 1102.85 1032.37L1102.81 1033.57C1101.04 1082.58 1097.04 1194.28 1160.22 1216.98C1175.93 1222.62 1187.39 1217.55 1195.71 1205.21Z" fill="black"/>
<path d="M1186.78 1222.73C1187.38 1229.2 1187.23 1244.32 1184.82 1252.77C1178.73 1274.15 1160.32 1296.76 1115.8 1294.89C1109.81 1293.48 1101.41 1287.51 1115.8 1274.97C1121.07 1270.39 1126.77 1266.21 1132.13 1261.88C1145.12 1251.39 1156.05 1240.09 1153.45 1220.44" stroke="black" stroke-width="5" stroke-linecap="round"/>
<path d="M1288.42 856.955C1286.14 882.339 1285.17 880.733 1281.25 895.191C1241.73 906.759 1154.29 920.061 1120.67 880.733" stroke="black" stroke-width="5" stroke-linecap="round"/>
<path d="M1249.98 704.338L1248.72 702.434C1241.15 691.01 1226.55 686.449 1213.78 691.519C1202.31 696.068 1189.21 692.899 1181.13 683.623L1170.76 671.718" stroke="black" stroke-width="5" stroke-linecap="round"/>
<path d="M1177.84 644.088C1174.97 636.143 1177.59 630.796 1180.14 629.777C1195.46 643.224 1218.71 638.232 1227.32 630.082C1230.38 632.772 1228.6 640.727 1227.32 643.172C1210.72 660.775 1187.1 650.914 1177.84 644.088Z" fill="black"/>
<path d="M1133.25 511.511C1140.37 537.264 1143.94 539.545 1154.3 550.954C1154.3 539.68 1156.24 520.754 1156.24 512.872C1190.19 512.872 1218.83 498.93 1228.93 491.958C1228.56 515.6 1250.6 531.059 1250.6 531.059C1250.6 531.059 1247.44 540.607 1245.63 561.975C1244.18 579.071 1248.34 575.767 1250.6 571.978C1257.09 550.882 1267.74 556.519 1272.26 561.975C1327.66 471.417 1242.47 453.919 1226.21 455.586C1213.93 445.038 1196.81 436.772 1184.77 435.559C1141.34 431.187 1121.69 469.756 1133.25 511.511Z" fill="black"/>
<path d="M1249.98 587.972C1244.07 623.955 1204.39 649.831 1175.75 620.681C1147.11 591.532 1152.85 538.175 1155.91 513.276" stroke="black" stroke-width="5" stroke-linecap="round"/>
<path d="M1272.12 558.711C1275.54 567.406 1272.33 586.672 1249.98 586.672" stroke="black" stroke-width="5" stroke-linecap="round"/>
<path d="M1261.5 564.536C1261.91 566.219 1261.58 570.207 1256.97 572.692" stroke="black" stroke-width="5" stroke-linecap="round"/>
<path d="M1155.62 582.012C1147.82 578.835 1142.31 567.068 1144.43 548.226" stroke="black" stroke-width="5" stroke-linecap="round"/>
<path d="M1199.89 603.754C1192.33 605.617 1192.8 600.49 1187.07 595.992" stroke="black" stroke-width="5" stroke-linecap="round"/>
<path d="M1177.17 563.372C1174.28 563.372 1171.93 561.024 1171.93 558.129C1171.93 555.234 1174.28 552.886 1177.17 552.886C1180.07 552.886 1182.41 555.234 1182.41 558.129C1182.41 561.024 1180.07 563.372 1177.17 563.372Z" fill="black"/>
<path d="M1219.11 563.372C1216.21 563.372 1213.87 561.285 1213.87 558.711C1213.87 556.138 1216.21 554.051 1219.11 554.051C1222 554.051 1224.35 556.138 1224.35 558.711C1224.35 561.285 1222 563.372 1219.11 563.372Z" fill="black"/>
<path d="M1230.18 547.061C1229.22 544.6 1225.07 540.048 1216.2 541.525" stroke="black" stroke-width="5" stroke-linecap="round"/>
<path d="M1184.74 541.236C1182.45 540.357 1176.21 539.126 1169.6 541.236" stroke="black" stroke-width="5" stroke-linecap="round"/>
<path d="M1200.68 556.381C1201.22 562.689 1201.59 575.482 1198.72 576.187" stroke="black" stroke-width="5" stroke-linecap="round"/>
<path d="M1209.9 767.249L1227.18 737.332C1228.53 734.994 1227.76 731.965 1225.48 730.612C1223.25 729.296 1220.41 730.062 1219.1 732.333L1201.05 763.452" stroke="black" stroke-width="5" stroke-linecap="round"/>
<path d="M1205.71 866.275C1196.68 836.817 1175.64 779.629 1162.28 781.263C1161.67 781.338 1161.06 781.513 1160.46 781.599L1110.19 788.701" stroke="black" stroke-width="5" stroke-linecap="round"/>
<path d="M1104.36 799.869L1109.02 815.014" stroke="black" stroke-width="5" stroke-linecap="round"/>
<path d="M1161.85 788.219C1171.32 794.166 1185.41 834.973 1193.63 862.433C1195.42 868.418 1191.46 874.542 1185.4 875.322L1138.6 881.34C1133.81 881.954 1129.29 878.98 1127.84 874.273L1124.17 862.313" stroke="black" stroke-width="5" stroke-linecap="round"/>
<path d="M1155.04 794.044C1152.12 792.895 1146.04 786.118 1147.77 779.55C1148.07 778.411 1148.6 777.277 1149.43 776.18C1155.04 768.765 1164.7 776.181 1162.21 782.247" stroke="black" stroke-width="5" stroke-linecap="round"/>
<path d="M1147.47 778.975C1144.28 774.809 1135.66 772.906 1131.16 781.116C1126.97 791.113 1135.02 796.825 1139.85 797.539" stroke="black" stroke-width="5" stroke-linecap="round"/>
<path d="M1129.99 782.072C1126.56 779.537 1117.37 776.121 1112.06 782.735C1105.75 792.985 1117.04 799.599 1121.69 798.606" stroke="black" stroke-width="5" stroke-linecap="round"/>
<path d="M1112.52 782.008C1108.01 779.519 1099.99 778.436 1096.91 784.93C1093.83 791.426 1101.42 799.869 1108.71 799.869" stroke="black" stroke-width="5" stroke-linecap="round"/>
<path d="M1136.25 837.15C1138.04 839.52 1137.67 845.635 1121.84 851.13" stroke="black" stroke-width="5" stroke-linecap="round"/>
<path d="M1096.21 824.048C1113.03 820.994 1130.29 819.862 1136.84 819.677C1140.34 819.579 1144.24 822.403 1142.28 825.601C1141.74 826.419 1140.03 828.239 1137.57 828.972C1127.09 832.191 1122.61 832.477 1118 832.49" stroke="black" stroke-width="5" stroke-linecap="round"/>
<path d="M1118.34 833.687C1122.87 833.675 1127.27 833.388 1137.56 830.16C1139.91 830.975 1140.21 834.857 1136.49 837.28C1134.15 838.816 1129.9 840.7 1122.87 842.975" stroke="black" stroke-width="5" stroke-linecap="round"/>
<path d="M1177.75 643.757C1124.54 664.989 1082.1 727.377 1087.32 812.957C1088.09 825.042 1094.31 850.063 1113.12 853.46" stroke="black" stroke-width="5" stroke-linecap="round"/>
<path d="M1.2909 1061.38C-7.64763 1053.63 32.0678 1054.2 51.6699 1053.84C54.4925 1057.72 56.5703 1057.79 61.6669 1058.69C64.0191 1064.61 10.2294 1069.13 1.2909 1061.38Z" fill="black"/>
<path d="M384.43 1185.61C416.429 1170.49 494.321 1141.2 549.893 1145.06C557.772 1145.38 569.671 1148.73 554.233 1159.54C538.797 1170.36 531.079 1175.96 529.15 1177.41C521.11 1184.17 513.231 1198.46 546.034 1201.55C587.036 1205.41 702.812 1163.41 931.952 1194.3" stroke="black" stroke-width="5" stroke-linecap="round"/>
<path d="M302.114 471.335C300.159 477.737 298.703 498.538 306.379 515.606" stroke="black" stroke-width="5" stroke-linecap="round"/>
<path d="M297.06 520.309C313.734 514.315 345.488 506.98 345.488 527.714V531.312C345.488 533.742 348.254 535.118 350.167 533.63C376.936 512.826 402.756 489.498 422.873 469.005" stroke="black" stroke-width="5" stroke-linecap="round"/>
<path d="M370.825 359.494C387.319 372.466 412.919 400.465 388.037 411.855C386.578 412.522 385.773 414.137 386.188 415.677C391.084 433.786 390.31 471.18 352.332 496.503C351.767 496.879 351.332 497.439 351.126 498.083L343.657 521.431" stroke="black" stroke-width="5" stroke-linecap="round"/>
<path d="M354.248 455.025C353.67 457.821 355.171 463.6 365.791 464.345" stroke="black" stroke-width="5" stroke-linecap="round"/>
<path d="M382.1 388.619C382.1 394.065 380.47 398.854 378.005 402.2C375.541 405.543 372.42 407.26 369.286 407.26C366.152 407.26 363.031 405.543 360.566 402.2C358.102 398.854 356.471 394.065 356.471 388.619C356.471 383.174 358.102 378.385 360.566 375.039C363.031 371.696 366.152 369.979 369.286 369.979C372.42 369.979 375.541 371.696 378.005 375.039C380.47 378.385 382.1 383.174 382.1 388.619Z" stroke="black" stroke-width="5" stroke-linecap="round"/>
<path d="M321.523 404.93L354.142 393.28" stroke="black" stroke-width="5" stroke-linecap="round"/>
<path d="M347.152 383.959C347.969 380.336 350.978 371.998 356.471 367.649" stroke="black" stroke-width="5" stroke-linecap="round"/>
<path d="M371.616 392.115C374.189 392.115 376.275 390.55 376.275 388.619C376.275 386.689 374.189 385.124 371.616 385.124C369.042 385.124 366.956 386.689 366.956 388.619C366.956 390.55 369.042 392.115 371.616 392.115Z" fill="black"/>
<path d="M356.798 741.619C354.832 720.557 353.258 674.083 362.699 656.669C372.14 639.254 381.21 614.343 387.589 604.266C411.513 570.321 409.386 576.686 445.007 528.421" stroke="black" stroke-width="5" stroke-linecap="round"/>
<path d="M297.06 519.101L173.576 663.563" stroke="black" stroke-width="5" stroke-linecap="round"/>
<path d="M173.576 662.847C182.695 661.598 206.401 662.204 228.284 674.636C255.639 690.175 284.601 717.505 356.471 741.619" stroke="black" stroke-width="5" stroke-linecap="round"/>
<path d="M356.472 741.619L332.008 757.929" stroke="black" stroke-width="5" stroke-linecap="round"/>
<path d="M173.591 663.563C171.777 668.813 169.975 681.06 185.225 696.183" stroke="black" stroke-width="5" stroke-linecap="round"/>
<path d="M263.276 558.711C243.52 575.143 193.425 609.807 151.09 617.016C141.213 621.079 124.208 632.492 135.215 645.637C146.222 658.783 153.56 674.79 155.854 681.149C157.618 686.98 162.009 695.11 172.592 676.453" stroke="black" stroke-width="5" stroke-linecap="round"/>
<path d="M139.793 650.747C131.436 655.594 111.947 664.853 100.851 663.13C89.7558 661.408 82.3587 666.002 80.047 668.514C78.8023 670.488 78.02 674.544 84.848 674.975C91.6761 675.406 99.7845 675.154 102.985 674.975" stroke="black" stroke-width="5" stroke-linecap="round"/>
<path d="M111.834 669.388C108.106 673.259 95.4282 682.059 74.5475 686.283C70.4639 686.987 64.9596 691.034 72.417 695.786C78.8089 699.482 96.4934 696.103 105.442 691.034" stroke="black" stroke-width="5" stroke-linecap="round"/>
<path d="M105.053 691.523C98.0727 694.895 85.5074 703.874 91.092 712.817C92.8819 714.592 100.435 714.733 116.33 701.105L128.143 691.523" stroke="black" stroke-width="5" stroke-linecap="round"/>
<path d="M128.562 690.857L116.806 700.742C113.422 709.712 108.257 731.497 122.15 719.414C132.302 708.98 130.165 700.084 134.44 697.447C138.714 694.811 148.332 684.633 152.607 679.873" stroke="black" stroke-width="5" stroke-linecap="round"/>
<path d="M127.919 672.883C126.679 677.679 125.687 688.82 131.638 695.018" stroke="black" stroke-width="5" stroke-linecap="round"/>
<path d="M257.452 1032.87C264.177 1031.1 277.735 1022.15 278.159 1000.5C278.584 978.849 287.54 941.595 291.963 925.674L335.503 734.629" stroke="black" stroke-width="5" stroke-linecap="round"/>
<path d="M351.229 424.735C352.194 424.735 352.977 423.953 352.977 422.987C352.977 422.022 352.194 421.24 351.229 421.24C350.264 421.24 349.482 422.022 349.482 422.987C349.482 423.953 350.264 424.735 351.229 424.735Z" fill="black"/>
<path d="M358.219 431.725C359.184 431.725 359.966 430.943 359.966 429.977C359.966 429.012 359.184 428.23 358.219 428.23C357.254 428.23 356.471 429.012 356.471 429.977C356.471 430.943 357.254 431.725 358.219 431.725Z" fill="black"/>
<path d="M342.492 436.385C343.136 436.385 343.657 435.342 343.657 434.055C343.657 432.768 343.136 431.725 342.492 431.725C341.849 431.725 341.327 432.768 341.327 434.055C341.327 435.342 341.849 436.385 342.492 436.385Z" fill="black"/>
<path d="M185.741 409.624C211.597 361.428 250.203 355.368 266.275 358.362C299.654 307.1 345.75 290.189 373.83 305.515C396.296 317.775 377.893 348.673 365.883 362.59L354.228 345.679C346.174 361.322 323.144 355.544 311.84 352.021C321.553 372.455 337.06 425.268 304.422 473.042C271.786 520.815 230.777 521.66 210.112 507.92C191.039 494.357 159.886 457.821 185.741 409.624Z" fill="black"/>
<path d="M424.038 470.17C432.469 478.612 447.754 501.728 444.58 529.586" stroke="black" stroke-width="5" stroke-linecap="round"/>
<path d="M490.458 443.375C494.839 443.901 500.974 449.159 490.458 465.987C482.676 477.031 462.924 503.114 446.172 519.101" stroke="black" stroke-width="5" stroke-linecap="round"/>
<path d="M492.569 420.153C498.327 419.281 502.599 425.672 492.569 439.26L490.05 442.919L475.295 464.345" stroke="black" stroke-width="5" stroke-linecap="round"/>
<path d="M462.481 442.21C464.643 432.753 476.72 418.208 482.49 412.117C487.897 407.281 499.145 399.435 500.876 406.742C501.958 413.728 484.436 425.981 477.082 438.448" stroke="black" stroke-width="5" stroke-linecap="round"/>
<path d="M441.512 446.87C448.389 435.944 464.254 413.245 472.716 409.86C481.179 406.477 482.589 409.86 482.237 411.975C476.594 417.968 464.783 432.278 462.668 441.582" stroke="black" stroke-width="5" stroke-linecap="round"/>
<path d="M424.038 467.84C428.4 461.785 437.125 448.605 432.763 436.851C431.386 432.58 430.757 423.092 433.853 418.152C438.116 411.347 446.997 410.609 448.577 420.824L449.667 432.577" stroke="black" stroke-width="5" stroke-linecap="round"/>
<path d="M171.246 1039.86C174.987 1045.44 187.446 1055.97 207.359 1053.46" stroke="black" stroke-width="5" stroke-linecap="round"/>
<path d="M202.382 667.058C195.677 686.13 164.259 725.334 136.195 774.605C117.486 805.51 72.8669 874.523 44.062 903.344C40.1791 908.818 36.5431 921.25 53.0636 927.183C65.7716 932.482 71.4902 944.773 73.1846 957.912C75.3026 974.336 102.307 986.52 120.31 974.336C134.66 964.622 175.92 894.664 207.092 855.133C215.028 845.068 222.31 836.975 228.328 832.352" stroke="black" stroke-width="5" stroke-linecap="round"/>
<path d="M206.629 854.625L171.246 1039.86C189.231 1035.08 238.634 1026.06 269.101 1026.06" stroke="black" stroke-width="5" stroke-linecap="round"/>
<path d="M350.647 750.939L367.072 757.672C522.869 809.893 845.229 918.495 888.298 935.14C931.366 951.785 956 942.076 962.935 935.14C993.313 913.48 1051.33 871.831 1088.05 843.972" stroke="black" stroke-width="5" stroke-linecap="round"/>
<path d="M338.997 305.118V250.125C338.997 212.237 354.898 152.349 416.05 103.46L523.68 19.1284C532.648 11.7952 558.415 -1.40462 589.725 4.46194C621.036 10.3285 918.321 112.016 1063.05 162.126C1088.73 174.348 1125.42 186.325 1130.32 258.679C1134.76 324.341 1138.11 524.37 1140.48 663.563" stroke="black" stroke-width="5" stroke-linecap="round"/>
<path d="M1121.84 225.518C1088.48 236.406 1005.9 276.815 942.436 351.339" stroke="black" stroke-width="5" stroke-linecap="round"/>
<path d="M387.925 132.316L850.719 282.789C889.794 296.245 944.988 323.404 950.849 392.891C956.711 462.377 953.292 785.587 950.849 938.506" stroke="black" stroke-width="5" stroke-linecap="round"/>
<path d="M358.801 699.678L375.461 705.745C394.337 713.495 740.461 825.983 910.74 882.447C932.738 889.742 952.785 890.87 987.732 870.261C1009.93 857.173 1047.88 829.168 1084.56 801.501" stroke="black" stroke-width="5" stroke-linecap="round"/>
<path d="M488.509 473.055L706.507 545.143C715.985 548.278 725.757 541.235 725.757 531.27V340.202C725.757 333.941 721.761 328.374 715.819 326.361L437.565 232.13C428.068 228.913 418.213 235.96 418.213 245.969V441.34C418.213 446.395 421.46 450.882 426.268 452.473" stroke="black" stroke-width="5" stroke-linecap="round"/>
<path d="M890.014 414.25C890.014 445.642 867.892 470.17 841.669 470.17C815.447 470.17 793.324 445.642 793.324 414.25C793.324 382.857 815.447 358.329 841.669 358.329C867.892 358.329 890.014 382.857 890.014 414.25Z" stroke="black" stroke-width="5"/>
<path d="M848.076 393.248C848.076 390.048 845.468 387.454 842.251 387.454C839.035 387.454 836.427 390.048 836.427 393.248V435.251C836.427 438.451 839.035 441.045 842.251 441.045C845.468 441.045 848.076 438.451 848.076 435.251V393.248Z" stroke="black" stroke-width="5"/>
<path d="M843.416 648.002C843.416 644.371 840.548 641.427 837.009 641.427C833.471 641.427 830.602 644.371 830.602 648.002V813.1C830.602 816.731 833.471 819.674 837.009 819.674C840.548 819.674 843.416 816.731 843.416 813.1V648.002Z" stroke="black" stroke-width="5"/>
<path d="M747.891 616.547C747.891 612.916 745.023 609.972 741.484 609.972C737.945 609.972 735.077 612.916 735.077 616.547V781.644C735.077 785.275 737.945 788.219 741.484 788.219C745.023 788.219 747.891 785.275 747.891 781.644V616.547Z" stroke="black" stroke-width="5"/>
<path d="M852.736 502.208C852.736 511.799 845.438 519.101 837.009 519.101C828.581 519.101 821.282 511.799 821.282 502.208C821.282 492.618 828.581 485.316 837.009 485.316C845.438 485.316 852.736 492.618 852.736 502.208Z" stroke="black" stroke-width="5"/>
<path d="M852.736 555.799C852.736 565.39 845.438 572.692 837.009 572.692C828.581 572.692 821.282 565.39 821.282 555.799C821.282 546.208 828.581 538.906 837.009 538.906C845.438 538.906 852.736 546.208 852.736 555.799Z" stroke="black" stroke-width="5"/>
<path d="M1109.02 705.574V526.801C1109.02 515.263 1096.31 508.243 1086.54 514.386L997.058 570.66C992.789 573.345 990.199 578.032 990.199 583.074V792.168C990.199 803.961 1003.41 810.932 1013.15 804.273L1092.07 750.305" stroke="black" stroke-width="5" stroke-linecap="round"/>
<path d="M429.924 618.057L428.44 617.584C422.352 615.649 418.213 609.963 418.213 603.537V581.61C418.213 571.602 427.916 564.507 437.372 567.598L630.599 630.744C636.633 632.716 640.717 638.374 640.717 644.757V669.791C640.717 679.636 631.307 686.71 621.927 683.919L586.886 673.489" stroke="black" stroke-width="5" stroke-linecap="round"/>
<path d="M541.073 756.764C554.769 712.842 589.172 667.7 603.439 653.059L449.358 601.817C420.009 622.314 391.883 679.087 382.1 704.301" stroke="black" stroke-width="5" stroke-linecap="round"/>
<path d="M434.522 595.992L620.913 655.408" stroke="black" stroke-width="5" stroke-linecap="round"/>
<path d="M767.56 743.831L722.818 729.523C712.517 726.229 702.279 734.722 703.769 745.327L704.083 747.561C704.843 752.971 708.611 757.502 713.832 759.283L758.715 774.594C769.067 778.125 779.541 769.605 778.034 758.88L777.58 755.641C776.806 750.13 772.913 745.543 767.56 743.831Z" fill="black"/>
<path d="M854.123 706.04L810.3 694.347C799.945 691.585 790.329 700.822 792.457 711.489L792.885 713.638C793.959 719.031 797.907 723.362 803.113 724.864L847.135 737.552C857.554 740.554 867.404 731.277 865.252 720.485L864.626 717.34C863.53 711.846 859.457 707.463 854.123 706.04Z" fill="black"/>
<path d="M457.821 408.892C467.025 375.644 490.952 317.485 513.039 350.837C540.648 392.528 553.295 456.81 586.144 408.892C612.586 370.32 610.642 353.175 649.527 360.189C655.313 361.714 666.487 365.534 673.753 370.562C675.044 371.455 677.526 370.034 677.168 368.504L674.786 358.363C674.494 357.121 675.757 356.222 676.721 357.052C680.992 360.725 686.313 368.199 686.146 379.512C686.132 380.412 685.288 381.053 684.404 380.892C678.031 379.727 666.694 378.908 661.581 383.178" stroke="black" stroke-width="5" stroke-linecap="round"/>
<path d="M33.6614 1023.14C5.14895 966.712 31.5797 929.164 45.8744 919.866C68.0339 926.981 68.6328 950.701 72.2262 961.968L63.9326 985.152C58.3829 995.124 61.6202 1014.63 63.9326 1023.14C73.5185 1062.55 59.0504 1066.33 51.9503 1055.78L33.6614 1023.14Z" fill="black"/>
<path d="M186.749 1075.59C176.714 1068.25 196.562 1065.4 216.702 1064.33C223.719 1070.12 270.322 1072.1 272.596 1073.44C251.156 1079.88 195.544 1082.02 186.749 1075.59Z" fill="black"/>
<path d="M285.522 1071.57C211.867 1081.68 196.581 1052.52 198.145 1035.47C210.812 1030.17 245.644 1028.25 262.065 1027.05C257.373 1038.12 263.237 1036.67 267.342 1039.68C272.621 1043.29 287.281 1047.7 295.491 1048.1C332.436 1049.91 303.506 1068.96 285.522 1071.57Z" fill="black"/>
</svg>
