<svg width="772" height="752" viewBox="0 0 772 752" fill="none" xmlns="http://www.w3.org/2000/svg">
<path d="M378.903 526.059C381.896 529.83 393.309 535.67 415.024 528.864C436.739 522.058 445.445 511.424 447.084 506.958" stroke="black" stroke-width="5" stroke-linecap="round"/>
<path d="M359.454 517.329C357.387 520.891 357.402 527.716 373.987 526.525L378.903 526.06L387.452 525.249" stroke="black" stroke-width="5" stroke-linecap="round"/>
<path d="M360.953 504.193C356.962 504.69 349.75 507.299 352.828 513.764C353.757 515.715 356.213 516.811 359.454 517.329C366.953 518.526 378.649 516.624 385.315 515.04" stroke="black" stroke-width="5" stroke-linecap="round"/>
<path d="M440.478 482.312C434.186 476.375 421.051 464.422 409.253 463.571C406.261 463.429 399.849 462.253 398.139 458.68C396.002 454.213 386.17 459.105 392.796 468.038C399.421 476.97 407.543 473.993 402.841 481.649C399.079 487.774 376.338 490.582 365.438 491.22C361.591 491.291 354.452 493.219 356.675 500.365C357.225 502.135 358.783 503.367 360.952 504.193C367.545 506.706 379.79 505.474 386.597 504.193" stroke="black" stroke-width="5" stroke-linecap="round"/>
<path d="M412.085 283C404.084 234.499 413.158 207.211 435.584 190.5C432.935 256.303 479.225 287.5 496.725 298.5L481.725 312.5L460.084 328.499C447.584 335.5 419.687 333 412.085 283Z" fill="black"/>
<path d="M445.161 516C434.902 554.014 425.463 607.461 445.162 749.5" stroke="black" stroke-width="5" stroke-linecap="round"/>
<path d="M475.084 387.745C483.313 368.101 501.004 333.335 519.655 356.908C538.307 380.481 539.541 430.918 550.513 408.303L571.084 354.167" stroke="black" stroke-width="5" stroke-linecap="round"/>
<path d="M713.563 301.511C682.648 330.884 651.291 335.14 639.219 336.5C614.584 339.275 573.719 314 573.719 286.5C596.042 270.374 612.262 240.065 617.442 227.749C623.26 232.669 630.828 230.796 633.885 229.245C637.815 226.687 645.354 217.059 644.069 199.014C642.784 180.968 629.681 185.813 623.291 190.491L591.362 193.931C592.705 164.096 574.315 154.14 564.952 152.892C572.31 136.364 559.148 129.133 552.222 126.292C542.287 138.469 529.266 143.375 523.761 145.656C467.726 160.315 433.523 140.245 417.737 115.197C400.6 89.9117 403.373 30.535 451.854 16.0804C467.707 9.98027 505.289 4.97862 528.797 33.7734C598.001 8.34136 630.755 81.1271 639.74 107.558L650.125 131.657C740.31 150.841 748.248 236.14 732.406 273.496C725.224 290.434 724.279 291.331 714.039 301.059L713.563 301.511Z" fill="black"/>
<path d="M509.266 320.911C493.766 321.911 433.584 349 444.085 478.502" stroke="black" stroke-width="5" stroke-linecap="round"/>
<path d="M548.266 320.908C617.766 309.408 637.402 365.251 645.083 390.999C659.122 435.426 645.083 531 450.314 502.329C439.084 500.676 433.585 485.585 455.583 471.124C478.589 456 503.084 446.5 532.589 440.5" stroke="black" stroke-width="5" stroke-linecap="round"/>
<path d="M446.101 514.177C464.968 532.476 529.072 559.65 634.548 521.951C636.784 517.169 637.947 486.482 634.548 476.591" stroke="black" stroke-width="5" stroke-linecap="round"/>
<path d="M591.316 194.417C587.709 214.947 570.004 228.508 552.217 225.383C534.431 222.259 522.407 203.475 526.014 182.945C529.62 162.415 547.326 148.854 565.112 151.978C582.899 155.103 594.922 173.887 591.316 194.417Z" stroke="black" stroke-width="5"/>
<path d="M504.097 191.625C500.491 212.155 482.785 225.716 464.999 222.591C447.212 219.467 435.189 200.683 438.795 180.153C442.402 159.623 460.107 146.062 477.894 149.186C495.68 152.311 507.704 171.095 504.097 191.625Z" stroke="black" stroke-width="5"/>
<path d="M504.712 183.913L526.351 185.252" stroke="black" stroke-width="5" stroke-linecap="round"/>
<path d="M516.817 204.997C510.475 221.285 497.507 234.878 511.844 245.193" stroke="black" stroke-width="5" stroke-linecap="round"/>
<path d="M496.811 266.697C501.153 271.496 513.265 278.215 526.977 266.697" stroke="black" stroke-width="5" stroke-linecap="round"/>
<circle cx="465.506" cy="200.421" r="9" transform="rotate(9.96339 465.506 200.421)" fill="black"/>
<circle cx="549.506" cy="198.421" r="9" transform="rotate(9.96339 549.506 198.421)" fill="black"/>
<path d="M631.354 202.842C632.455 205.82 633.522 212.69 628.981 216.347" stroke="black" stroke-width="5" stroke-linecap="round"/>
<path d="M447.55 143.609C434.635 168.255 423.019 228.474 474.594 280.414C526.169 332.353 581.458 283.64 602.655 252.791L617.647 226.885C623.874 232.388 637.529 237.339 642.34 213.124C647.15 188.91 637.658 185.618 632.311 186.999C629.412 187.65 623.06 190.525 620.841 196.818" stroke="black" stroke-width="5" stroke-linecap="round"/>
<path d="M591.314 193.024L626.737 189.501" stroke="black" stroke-width="5" stroke-linecap="round"/>
<path d="M559.455 176.009C565.048 176.806 576.185 181.285 575.992 192.826" stroke="black" stroke-width="5" stroke-linecap="round"/>
<path d="M452.9 180.521C457.168 178.646 467.601 176.41 475.2 182.47" stroke="black" stroke-width="5" stroke-linecap="round"/>
<path d="M555.084 319.803V296" stroke="black" stroke-width="5" stroke-linecap="round"/>
<path d="M503.084 300.868V322" stroke="black" stroke-width="5" stroke-linecap="round"/>
<path d="M459.089 678.054C489.585 685.27 564.643 695.373 620.903 678.054" stroke="black" stroke-width="5" stroke-linecap="round"/>
<path d="M459.089 612.486C482.985 618.672 544.297 627.332 598.372 612.486" stroke="black" stroke-width="5" stroke-linecap="round"/>
<path d="M551.944 593.93L574.084 734" stroke="black" stroke-width="5" stroke-linecap="round"/>
<path d="M480.938 551.868L498.084 730.5" stroke="black" stroke-width="5" stroke-linecap="round"/>
<path d="M186.084 268.383C152.884 292.383 154.917 393.383 160.084 440.883H149.084C133.084 340.883 152.417 288.55 164.084 274.883L186.084 268.383Z" fill="black"/>
<path d="M69.084 302.383C35.9449 322.975 37.9745 409.63 43.1317 450.383H32.1519C16.1813 364.586 35.4791 319.686 47.1244 307.96L69.084 302.383Z" fill="black"/>
<path d="M6.08398 444.383C0.417318 399.55 2.08398 318.883 48.084 306.883" stroke="black" stroke-width="5" stroke-linecap="round"/>
<path d="M48.084 306.883L234.584 254.883" stroke="black" stroke-width="5" stroke-linecap="round"/>
<path d="M4.02048 451.824L167.02 441.451C167.597 441.414 168.084 441.872 168.084 442.449V458.939C168.084 459.469 167.671 459.907 167.141 459.938L4.14146 469.322C3.56754 469.355 3.08398 468.899 3.08398 468.324V452.822C3.08398 452.294 3.49391 451.857 4.02048 451.824Z" stroke="black" stroke-width="5" stroke-linecap="round"/>
<path d="M120.084 463.383V532.383" stroke="black" stroke-width="5" stroke-linecap="round"/>
<path d="M153.084 461.883V509.383" stroke="black" stroke-width="5" stroke-linecap="round"/>
<path d="M402.577 487.812C380.606 503.305 236.404 463.148 169.084 441.883L306.584 447.383C352.637 453.079 424.547 472.319 402.577 487.812Z" fill="black" stroke="black" stroke-width="5" stroke-linecap="round"/>
<path d="M168.084 458.383C200.325 475.266 274.138 506.48 351.084 511.5" stroke="black" stroke-width="5" stroke-linecap="round"/>
<path d="M187.584 437.883C179.917 371.55 182.084 242.083 252.084 254.883C266.75 257.383 298.084 273.783 306.084 319.383C309.584 336.922 314.484 386.3 306.084 443.5" stroke="black" stroke-width="5" stroke-linecap="round"/>
<path d="M251.584 260C187.145 248.162 184.979 371.506 191.805 434.505C191.964 435.968 193.165 437.05 194.636 437.117L298.871 441.876C300.411 441.947 301.756 440.835 301.968 439.309C309.283 386.702 305.259 337.43 302.048 321.267C294.585 278.529 265.266 262.343 251.584 260Z" fill="black"/>
<path d="M461.624 360C395.931 378.579 364.476 388.613 359.3 411.265C357.617 418.62 361.815 422.919 374.322 427.025C397.286 434.563 426.302 433.55 442.084 434" stroke="black" stroke-width="5" stroke-linecap="round"/>
<path d="M320.833 437.601C322.159 445.675 334.846 443.417 353.826 434.843C365.735 429.463 361.621 430.401 368.505 428.595" stroke="black" stroke-width="5" stroke-linecap="round"/>
<path d="M301.976 432.427C300.652 436.018 301.699 442.312 316.473 438.759L320.834 437.601L328.42 435.589" stroke="black" stroke-width="5" stroke-linecap="round"/>
<path d="M301.338 420.09C297.815 421.138 291.708 424.612 295.462 430.12C296.594 431.782 298.975 432.43 301.975 432.427C308.918 432.422 319.176 428.937 324.947 426.489" stroke="black" stroke-width="5" stroke-linecap="round"/>
<path d="M369.73 388.137C363.158 383.591 353.313 375.948 342.546 376.91C339.827 377.222 332.239 374.246 327.977 372.604C323.715 370.963 317.249 374.768 324.576 382.027C331.902 389.285 338.775 385.337 335.694 393.095C333.23 399.302 313.15 405.257 303.419 407.459C299.961 408.094 293.816 410.929 296.902 417.191C297.666 418.742 299.257 419.648 301.339 420.089C307.664 421.431 318.517 418.482 324.462 416.294" stroke="black" stroke-width="5" stroke-linecap="round"/>
</svg>
