<svg width="958" height="906" viewBox="0 0 958 906" fill="none" xmlns="http://www.w3.org/2000/svg">
<path d="M406.68 708.051C395.566 650.68 436.779 519.642 458.774 461.294C466.106 464.764 527.462 452.812 547.142 424.281C562.887 401.456 589.626 392.491 602.71 388.424C620.075 383.026 649.017 383.797 654.419 396.906L660.207 410.401C679.116 464.764 662.651 547.402 650.946 584.287L607.727 591.998C575.003 538.946 591.777 474.275 604.254 448.571C590.979 466.461 553.703 485.327 536.724 492.524C535.952 539.948 463.405 703.424 447.584 713.834C434.927 722.162 415.041 713.449 406.68 708.051Z" fill="black"/>
<path d="M434.398 717.501L428.995 727.32M412.012 711.278L401.703 738.501L400.819 740.834C399.838 743.191 399.158 747.144 400.819 750.512C401.99 752.887 404.325 754.971 408.539 756.001C418.728 758.489 457.042 761.186 474.925 762.223C478.013 762.612 483.88 761.134 482.644 752.112C481.409 743.089 474.925 734.833 467.592 731.501C461.643 728.798 446.304 724.603 428.995 727.32L412.012 711.278ZM423.591 728.389C425.408 727.954 427.212 727.6 428.995 727.32L423.591 728.389Z" stroke="black" stroke-width="5" stroke-linecap="round"/>
<path d="M613.89 589.906C613.504 601.346 614.546 623.869 617.372 627.313C620.854 631.555 625.11 631.94 651.03 623.842C671.767 617.363 680.046 617.286 685.075 616.515C688.557 615.981 692.813 615.512 692.813 606.874C692.813 596.076 688.557 588.749 675.403 587.206C664.88 585.972 649.87 592.348 643.68 595.69V585.278" stroke="black" stroke-width="5" stroke-linecap="round"/>
<path d="M564.371 201.745C524.63 205.761 446.538 222.688 452.094 258.266C452.946 261.287 455.393 266.107 459.955 270.641C464.349 275.008 470.705 279.11 479.488 281.083" stroke="black" stroke-width="5" stroke-linecap="round"/>
<path d="M459.955 270.641C472.382 289.977 508.811 331.975 555.111 345.278" stroke="black" stroke-width="5" stroke-linecap="round"/>
<path d="M554.813 345.278C557.643 341.476 565.081 334.604 573.813 334.278" stroke="black" stroke-width="5" stroke-linecap="round"/>
<path d="M573.813 334.278C573.555 323.42 564.395 295.418 529.813 270.278" stroke="black" stroke-width="5" stroke-linecap="round"/>
<path d="M519.813 279.278C523.402 273.467 534.428 261.131 549.813 258.278" stroke="black" stroke-width="5" stroke-linecap="round"/>
<path d="M605.813 268.278C607.479 270.248 610.813 275.606 610.813 281.278" stroke="black" stroke-width="5" stroke-linecap="round"/>
<path d="M605.42 351.289C613.301 350.904 629.759 349.748 632.55 348.206C636.038 346.28 636.813 346.28 636.813 342.426C636.813 338.573 605.42 345.124 605.42 332.793C608.263 329.967 612.862 323.622 608.521 320.847C604.18 318.073 595.085 326.114 591.081 330.481C586.947 334.848 577.671 341.733 573.64 334.334" stroke="black" stroke-width="5" stroke-linecap="round"/>
<path d="M555.813 345.124C559.301 355.271 571.858 373.484 594.181 365.161C616.505 356.838 617.435 352.445 615.109 351.289" stroke="black" stroke-width="5" stroke-linecap="round"/>
<path d="M748.073 349.442C753.498 347.959 765.355 341.062 769.385 325.332C773.415 309.603 767.964 309.526 764.735 311.453" stroke="black" stroke-width="5" stroke-linecap="round"/>
<path d="M727.923 338.055C729.602 329.316 735.518 312.456 745.748 314.923" stroke="black" stroke-width="5" stroke-linecap="round"/>
<path d="M732.186 323.79C725.056 317.93 720.69 331.372 719.398 338.826C711.339 341.293 708.29 352.962 707.774 358.488C726.425 360.401 739.679 355.392 748.073 349.442C753.212 345.799 756.529 341.803 758.148 338.826C762.152 328.16 767.99 305.902 759.31 302.201C750.63 298.5 748.202 306.827 748.073 311.453C749.003 321.94 743.552 333.557 740.711 338.055" stroke="black" stroke-width="5" stroke-linecap="round"/>
<path d="M619.813 351.163C636.604 366.841 677.704 390.255 707.774 358.488" stroke="black" stroke-width="5" stroke-linecap="round"/>
<path d="M616.813 353.278C616.813 360.557 615.013 377.147 607.813 385.278" stroke="black" stroke-width="5" stroke-linecap="round"/>
<path d="M459.813 370.278C443.966 391.668 421.78 440.013 459.813 462.278" stroke="black" stroke-width="5" stroke-linecap="round"/>
<path d="M933.813 278.278L942.813 263.278" stroke="black" stroke-width="5" stroke-linecap="round"/>
<path d="M938.212 286.119L954.813 285.347" stroke="black" stroke-width="5" stroke-linecap="round"/>
<path d="M934.813 295.278L944.813 308.278" stroke="black" stroke-width="5" stroke-linecap="round"/>
<path d="M607.932 766.285H337.813V898.278" stroke="black" stroke-width="15" stroke-linecap="round"/>
<path d="M795.74 634.679H574.698V795.617" stroke="black" stroke-width="15" stroke-linecap="round"/>
<path d="M941.813 450.197H762.506V665.168" stroke="black" stroke-width="15" stroke-linecap="round"/>
<path d="M910.125 309.778V480.301" stroke="black" stroke-width="15" stroke-linecap="round"/>
<path d="M910.125 250.278V264.778" stroke="black" stroke-width="15" stroke-linecap="round"/>
<path d="M559.853 354.814L338.48 380.278C312.872 359.763 319.069 329.136 325.368 316.387L479.249 297.942" stroke="black" stroke-width="5" stroke-linecap="round"/>
<path d="M635.829 348.666L711.806 341.365" stroke="black" stroke-width="5" stroke-linecap="round"/>
<path d="M767.341 333.295L817.092 329.836L883.813 299.594C875.791 291.078 880.191 283.492 883.533 280.778L817.092 265.278L554.068 287.182" stroke="black" stroke-width="5" stroke-linecap="round"/>
<path d="M301.53 316.705L324.081 314.278C308.441 349.316 326.369 373.153 337.813 382.428L311.493 386.278C289.494 359.486 295.165 329.503 301.53 316.705Z" fill="black"/>
<path d="M886.213 301.278C877.843 292.542 882.546 282.138 886.033 278.778L917.813 286.621L886.213 301.278Z" fill="black"/>
<path d="M817.813 265.278C809.512 275.816 797.891 303.37 817.813 329.278" stroke="black" stroke-width="5"/>
<path d="M626.629 208.492C633.243 204.421 683.002 208.345 692.676 145.754C709.238 145.948 718.244 132.381 705.607 126.575C692.135 119.628 693.146 106.874 695.587 99.3593C699.467 89.504 699.702 79.1569 698.865 76.9927" stroke="black" stroke-width="5" stroke-linecap="round"/>
<path d="M678.075 123.152C679.955 123.174 681.505 120.907 681.538 118.088C681.571 115.269 680.074 112.966 678.195 112.944C676.315 112.922 674.765 115.189 674.732 118.008C674.699 120.827 676.196 123.13 678.075 123.152Z" fill="black"/>
<path d="M668.837 102.493C671.6 99.539 678.746 95.2183 685.22 101.565" stroke="black" stroke-width="5" stroke-linecap="round"/>
<path d="M650.066 160.009C655.145 167.824 660.72 170.043 671.551 165" stroke="black" stroke-width="5" stroke-linecap="round"/>
<path d="M608.491 105.232C607.314 107.816 606.329 113.682 611.798 116.474" stroke="black" stroke-width="5" stroke-linecap="round"/>
<path d="M550.197 78.6975C543.753 113.953 563.915 140.492 578.532 160.894C594.143 152.46 619.729 132.404 609.916 130.239C599.602 127.964 588.724 99.8304 598.74 91.2243C610.491 81.1273 621.084 96.4046 623.103 107.989L632.568 91.6206C629.891 80.1721 628.842 60.0897 646.055 71.348C663.268 82.6062 688.517 79.6571 698.99 76.7753C719.64 61.9947 751.722 27.5182 714.854 7.8573C684.189 -8.49513 644.286 12.1788 619.928 30.7554C603.436 26.4015 558.983 30.6282 550.197 78.6975Z" fill="black"/>
<path d="M579.679 158.532C587.133 167.506 590.836 174.958 590.375 190.395" stroke="black" stroke-width="5" stroke-linecap="round"/>
<path d="M571.385 211.062C568.775 201.958 567.246 184.594 582.007 187.969C600.458 192.187 638.066 210.433 635.311 220.547" stroke="black" stroke-width="5" stroke-linecap="round"/>
<path d="M635.313 234.778C648.813 247.278 651.813 255.278 653.813 270.278" stroke="black" stroke-width="5" stroke-linecap="round"/>
<path d="M2.81274 640.231C21.1514 638.561 64.3639 649.496 93.23 705.737C93.985 707.208 96.114 707.247 96.8661 705.775C126.475 647.811 162.815 589.012 277.679 659.808C279.445 660.896 281.762 658.925 280.887 657.044C262.251 616.963 252.18 540.526 339.021 502.605C340.763 501.845 340.686 499.256 338.862 498.722L316.399 492.157C314.34 491.555 314.564 488.73 316.701 488.537C339.841 486.452 372.486 487.811 361.247 501.464C348.125 517.404 344.898 527.483 348.097 544.125" stroke="black" stroke-width="5" stroke-linecap="round"/>
</svg>
