<svg width="2181" height="1420" viewBox="0 0 2181 1420" fill="none" xmlns="http://www.w3.org/2000/svg">
<path d="M214 611C214 600 214 549.9 214 533.5" stroke="black" stroke-width="5" stroke-linecap="round"/>
<path d="M216 425.464C216 380.835 204.293 359.079 188.126 337.322" stroke="black" stroke-width="5" stroke-linecap="round"/>
<path d="M28.0004 601.5C18.5004 485.5 25.3314 407 65.948 344.018C78.2123 325 105.607 307.82 124.018 314.451" stroke="black" stroke-width="5" stroke-linecap="round"/>
<path d="M187.247 320.463C197.807 316.079 269.233 333.33 297.82 244.583C321.853 248.708 338.093 231.075 321.068 219.703C303.096 206.478 307.525 188.171 312.817 177.812C320.745 164.386 323.486 149.398 322.773 146.058" stroke="black" stroke-width="5" stroke-linecap="round"/>
<path d="M275.067 210.719C277.42 212.129 281.119 210.284 283.329 206.597C285.539 202.91 285.423 198.777 283.071 197.367C280.718 195.957 277.019 197.802 274.809 201.49C272.599 205.177 272.714 209.309 275.067 210.719Z" fill="black"/>
<path d="M261.46 191.672C262.525 185.813 267.924 174.77 280.997 177.463" stroke="black" stroke-width="5" stroke-linecap="round"/>
<path d="M227.643 256.098C233.213 268.637 240.803 273.158 257.718 268.339" stroke="black" stroke-width="5" stroke-linecap="round"/>
<path d="M184.84 166.139C182.53 169.623 179.736 177.921 187.039 183.249" stroke="black" stroke-width="5" stroke-linecap="round"/>
<path d="M106.253 114.04C88.7048 163.798 111.857 207.057 128.372 240.108C153.024 231.468 194.873 208.249 181.11 202.826C166.644 197.125 157.357 153.701 173.915 143.515C193.342 131.563 205.196 156.23 205.443 173.539L223 151.94C221.766 134.676 224.9 105.237 247.311 125.598C269.722 145.959 307.113 147.53 323.006 145.771C356.456 129.075 411.095 86.3991 362.06 49.2623C321.275 18.3747 258.469 39.1704 218.749 60.5244C195.783 50.368 130.178 46.1978 106.253 114.04Z" fill="black"/>
<path d="M130.586 236.94C139.34 251.716 142.995 263.409 138.742 285.743" stroke="black" stroke-width="5" stroke-linecap="round"/>
<path d="M158.798 371C169.064 449.615 194.692 456.684 206.223 450.392C229.285 439.844 280.095 422.522 298.842 437.623C317.589 452.724 295.122 473.155 281.545 481.483C236.538 513.499 138.823 565.983 108.025 519.791C77.2262 473.599 75.106 415.415 77.8957 392.097" stroke="black" stroke-width="5" stroke-linecap="round"/>
<path d="M125.025 315.283C122.112 305.123 120.405 285.744 136.879 289.51C157.471 294.218 198.827 324.703 195.752 335.991" stroke="black" stroke-width="5" stroke-linecap="round"/>
<path d="M2137 830.159C2147.17 829.326 2169.1 831.359 2175.5 846.159C2183.5 864.659 2170 933.5 2146.5 900.159C2143.83 896.659 2137 879 2144 867" stroke="black" stroke-width="5" stroke-linecap="round"/>
<path d="M2073.64 679.892C2078.23 670.786 2091.42 653.141 2107.38 655.409C2127.34 658.244 2179 705.699 2138.3 708.335C2133.92 708.782 2115.29 705.391 2108.71 693.156" stroke="black" stroke-width="5" stroke-linecap="round"/>
<path fill-rule="evenodd" clip-rule="evenodd" d="M464.153 227.532C458.684 226.51 452.556 226.337 448.602 226.498C447.223 226.554 446.059 225.482 446.002 224.102C445.946 222.722 447.019 221.558 448.398 221.502C452.611 221.33 459.133 221.507 465.072 222.618C468.038 223.172 470.97 223.98 473.427 225.159C475.846 226.319 478.11 227.988 479.262 230.436C479.85 231.685 479.314 233.174 478.065 233.762C476.815 234.35 475.326 233.814 474.738 232.564C474.29 231.612 473.213 230.602 471.264 229.666C469.353 228.749 466.891 228.044 464.153 227.532ZM542.264 230.382C542.882 229.147 544.383 228.646 545.618 229.264C551.672 232.291 566.602 240.358 577.953 248.466C579.077 249.268 579.337 250.829 578.534 251.953C577.732 253.077 576.171 253.337 575.047 252.534C563.998 244.642 549.328 236.709 543.382 233.736C542.147 233.119 541.647 231.617 542.264 230.382ZM432.459 238.24C425.46 237.059 417.634 236.836 412.581 236.999C411.201 237.043 410.046 235.96 410.001 234.581C409.957 233.201 411.04 232.046 412.42 232.001C417.7 231.831 425.874 232.058 433.291 233.31C436.995 233.935 440.616 234.833 443.624 236.12C446.566 237.379 449.312 239.175 450.712 241.836C451.356 243.057 450.886 244.569 449.665 245.212C448.443 245.855 446.931 245.386 446.288 244.164C445.688 243.025 444.226 241.817 441.657 240.717C439.156 239.646 435.964 238.832 432.459 238.24ZM381.001 250.457C381.024 249.076 382.163 247.976 383.543 248C388.474 248.085 396.417 248.593 404.316 249.843C412.101 251.075 420.282 253.09 425.366 256.406C426.522 257.16 426.848 258.709 426.094 259.866C425.34 261.022 423.791 261.348 422.634 260.594C418.519 257.91 411.283 256.008 403.534 254.782C395.9 253.573 388.193 253.081 383.457 253C382.077 252.976 380.977 251.837 381.001 250.457ZM564.669 262.097C565.167 260.81 566.615 260.17 567.903 260.669C570.575 261.703 574.827 263.573 578.99 265.858C583.077 268.101 587.39 270.909 589.909 273.885C590.8 274.939 590.669 276.517 589.615 277.408C588.561 278.3 586.984 278.169 586.092 277.115C584.21 274.891 580.606 272.449 576.585 270.242C572.64 268.076 568.592 266.297 566.098 265.331C564.81 264.833 564.17 263.385 564.669 262.097ZM385.258 275.202C377.933 274.526 369.909 274.914 364.776 275.485C363.404 275.637 362.168 274.648 362.015 273.276C361.863 271.904 362.852 270.668 364.224 270.515C369.591 269.919 377.967 269.508 385.717 270.223C389.589 270.58 393.405 271.228 396.646 272.324C399.829 273.4 402.811 275.027 404.563 277.588C405.343 278.728 405.051 280.284 403.912 281.063C402.772 281.843 401.217 281.551 400.437 280.412C399.589 279.173 397.834 278.004 395.044 277.06C392.314 276.137 388.924 275.54 385.258 275.202ZM574.264 287.882C574.882 286.647 576.383 286.146 577.618 286.764C578.118 287.014 579.308 287.494 581.07 288.204C581.541 288.394 582.052 288.601 582.603 288.823C585.119 289.843 588.268 291.14 591.474 292.6C594.671 294.056 597.975 295.697 600.792 297.411C603.53 299.078 606.112 300.991 607.556 303.077C608.342 304.212 608.058 305.77 606.923 306.555C605.788 307.341 604.231 307.058 603.445 305.923C602.639 304.759 600.846 303.297 598.192 301.682C595.619 300.116 592.517 298.569 589.401 297.15C586.295 295.735 583.225 294.47 580.726 293.458C580.255 293.267 579.798 293.083 579.359 292.906C577.556 292.18 576.08 291.585 575.382 291.236C574.147 290.619 573.647 289.117 574.264 287.882ZM373.05 295.479C366.988 294.992 360.324 294.917 356.048 295C354.668 295.026 353.527 293.929 353.501 292.548C353.474 291.168 354.572 290.027 355.952 290C360.343 289.916 367.179 289.991 373.451 290.496C376.582 290.747 379.63 291.11 382.186 291.63C384.597 292.12 387.044 292.833 388.562 294.048C389.64 294.91 389.815 296.484 388.952 297.562C388.09 298.64 386.517 298.815 385.438 297.952C384.957 297.567 383.611 297.022 381.19 296.53C378.912 296.067 376.085 295.723 373.05 295.479ZM585.817 318.782C586.489 317.576 588.012 317.144 589.218 317.817C593.584 320.252 600.356 324.204 606.503 328.16C609.575 330.137 612.519 332.133 614.938 333.954C617.287 335.722 619.365 337.486 620.5 339C621.329 340.105 621.105 341.672 620 342.5C618.896 343.328 617.329 343.105 616.5 342C615.835 341.114 614.284 339.72 611.931 337.949C609.648 336.231 606.817 334.308 603.797 332.365C597.761 328.479 591.083 324.582 586.782 322.183C585.577 321.511 585.144 319.988 585.817 318.782ZM343 322C343 320.619 344.119 319.5 345.5 319.5H378C379.381 319.5 380.5 320.619 380.5 322C380.5 323.381 379.381 324.5 378 324.5H345.5C344.119 324.5 343 323.381 343 322ZM598.716 351.985C599.276 350.723 600.754 350.155 602.016 350.715C604.336 351.747 611.146 355.027 618.32 358.929C625.41 362.785 633.189 367.423 637.206 371.172C638.215 372.114 638.27 373.696 637.328 374.706C636.386 375.715 634.804 375.77 633.794 374.828C630.311 371.577 623.09 367.215 615.931 363.321C608.854 359.473 602.164 356.253 599.985 355.285C598.723 354.724 598.155 353.246 598.716 351.985ZM343 355.5C343 354.119 344.119 353 345.5 353H378C379.381 353 380.5 354.119 380.5 355.5C380.5 356.881 379.381 358 378 358H345.5C344.119 358 343 356.881 343 355.5ZM343 378.5C343 377.119 344.119 376 345.5 376H383.5C384.881 376 386 377.119 386 378.5C386 379.881 384.881 381 383.5 381H345.5C344.119 381 343 379.881 343 378.5ZM611.684 388.059C612.204 386.78 613.662 386.164 614.941 386.684L646.941 399.684C648.22 400.203 648.836 401.662 648.316 402.941C647.797 404.22 646.338 404.836 645.059 404.316L613.059 391.316C611.78 390.796 611.164 389.338 611.684 388.059ZM345.5 400C345.5 398.619 346.619 397.5 348 397.5H383.5C384.881 397.5 386 398.619 386 400C386 401.381 384.881 402.5 383.5 402.5H348C346.619 402.5 345.5 401.381 345.5 400ZM625.152 413.643C625.625 412.346 627.061 411.678 628.357 412.152L659.857 423.652C661.154 424.125 661.822 425.56 661.349 426.857C660.875 428.154 659.44 428.822 658.143 428.348L626.643 416.848C625.346 416.375 624.678 414.94 625.152 413.643ZM367 426C367 424.619 368.119 423.5 369.5 423.5H394.5C395.881 423.5 397 424.619 397 426C397 427.381 395.881 428.5 394.5 428.5H369.5C368.119 428.5 367 427.381 367 426ZM633.101 440.299C633.488 438.973 634.876 438.213 636.202 438.6L668.702 448.1C670.027 448.488 670.787 449.876 670.4 451.201C670.012 452.527 668.624 453.287 667.299 452.899L634.799 443.4C633.473 443.012 632.713 441.624 633.101 440.299ZM361.5 450.5C361.5 449.119 362.619 448 364 448H402.5C403.881 448 405 449.119 405 450.5C405 451.881 403.881 453 402.5 453H364C362.619 453 361.5 451.881 361.5 450.5ZM649.587 478.346C649.948 477.014 651.321 476.226 652.654 476.587L676.654 483.087C677.986 483.448 678.774 484.821 678.413 486.154C678.052 487.486 676.679 488.274 675.347 487.913L651.347 481.413C650.014 481.052 649.226 479.679 649.587 478.346ZM357.5 479C357.5 477.619 358.619 476.5 360 476.5H402.5C403.881 476.5 405 477.619 405 479C405 480.381 403.881 481.5 402.5 481.5H360C358.619 481.5 357.5 480.381 357.5 479ZM364.5 503C364.5 501.619 365.619 500.5 367 500.5H409C410.381 500.5 411.5 501.619 411.5 503C411.5 504.381 410.381 505.5 409 505.5H367C365.619 505.5 364.5 504.381 364.5 503ZM656.561 502.953C656.863 501.606 658.2 500.759 659.547 501.06L688.547 507.56C689.894 507.862 690.742 509.199 690.44 510.547C690.138 511.894 688.801 512.741 687.453 512.439L658.453 505.939C657.106 505.637 656.259 504.3 656.561 502.953ZM374.5 527C374.5 525.619 375.619 524.5 377 524.5H420.5C421.881 524.5 423 525.619 423 527C423 528.381 421.881 529.5 420.5 529.5H377C375.619 529.5 374.5 528.381 374.5 527ZM670.061 529.452C670.363 528.105 671.701 527.258 673.048 527.561L697.548 533.061C698.895 533.363 699.742 534.7 699.439 536.048C699.137 537.395 697.8 538.242 696.453 537.939L671.953 532.439C670.605 532.137 669.758 530.8 670.061 529.452ZM388.5 550.5C388.5 549.119 389.619 548 391 548H429C430.381 548 431.5 549.119 431.5 550.5C431.5 551.881 430.381 553 429 553H391C389.619 553 388.5 551.881 388.5 550.5ZM683.029 563.123C683.237 561.758 684.512 560.82 685.877 561.029L715.377 565.529C716.742 565.737 717.68 567.012 717.472 568.377C717.263 569.742 715.988 570.68 714.623 570.471L685.123 565.971C683.758 565.763 682.821 564.488 683.029 563.123ZM402.5 573.5C402.5 572.119 403.619 571 405 571H443.5C444.881 571 446 572.119 446 573.5C446 574.881 444.881 576 443.5 576H405C403.619 576 402.5 574.881 402.5 573.5ZM697 591C697 589.619 698.119 588.5 699.5 588.5C699.964 588.5 700.656 588.589 701.332 588.687C702.079 588.796 703.026 588.95 704.113 589.138C706.291 589.514 709.089 590.033 712.094 590.607C718.107 591.755 724.993 593.132 729.499 594.05C730.852 594.326 731.725 595.646 731.45 596.999C731.174 598.352 729.854 599.225 728.501 598.95C724.007 598.034 717.143 596.661 711.156 595.518C708.161 594.946 705.397 594.434 703.262 594.065C702.193 593.88 701.296 593.734 700.613 593.635C700.271 593.585 699.997 593.55 699.788 593.527C699.617 593.508 699.53 593.502 699.505 593.501C699.496 593.5 699.495 593.5 699.5 593.5C698.119 593.5 697 592.381 697 591ZM420.5 594.5C420.5 593.119 421.619 592 423 592H454C455.381 592 456.5 593.119 456.5 594.5C456.5 595.881 455.381 597 454 597H423C421.619 597 420.5 595.881 420.5 594.5ZM436 617C436 615.619 437.119 614.5 438.5 614.5H462C463.381 614.5 464.5 615.619 464.5 617C464.5 618.381 463.381 619.5 462 619.5H438.5C437.119 619.5 436 618.381 436 617ZM718.5 621.5C718.5 620.119 719.619 619 721 619C721.474 619 722.954 619.15 724.742 619.342C726.641 619.547 729.142 619.829 731.861 620.141C737.3 620.767 743.629 621.517 747.798 622.018C749.169 622.182 750.147 623.427 749.982 624.798C749.818 626.169 748.573 627.147 747.202 626.982C743.038 626.482 736.717 625.733 731.289 625.109C728.575 624.796 726.088 624.516 724.208 624.314C723.267 624.213 722.485 624.132 721.905 624.077C721.69 624.056 721.507 624.04 721.357 624.027C721.304 624.023 721.255 624.019 721.211 624.015C721.102 624.007 721.039 624.003 721.01 624.001C720.985 624 720.984 624 721 624C719.619 624 718.5 622.881 718.5 621.5ZM451.5 634C451.5 632.619 452.619 631.5 454 631.5H476.5C477.881 631.5 479 632.619 479 634C479 635.381 477.881 636.5 476.5 636.5H454C452.619 636.5 451.5 635.381 451.5 634ZM736.02 651.684C736.195 650.315 737.446 649.346 738.816 649.52L766.316 653.02C767.685 653.194 768.654 654.446 768.48 655.816C768.306 657.185 767.054 658.154 765.685 657.98L738.185 654.48C736.815 654.306 735.846 653.054 736.02 651.684ZM471 657C471 655.619 472.119 654.5 473.5 654.5H488.5C489.881 654.5 491 655.619 491 657C491 658.381 489.881 659.5 488.5 659.5H473.5C472.119 659.5 471 658.381 471 657ZM486 672C486 670.619 487.119 669.5 488.5 669.5H508C509.381 669.5 510.5 670.619 510.5 672C510.5 673.381 509.381 674.5 508 674.5H488.5C487.119 674.5 486 673.381 486 672ZM780.968 674.602C781.188 675.965 780.261 677.248 778.898 677.468C776.306 677.886 772.292 678.513 768.67 679.037C766.861 679.298 765.138 679.535 763.735 679.708C762.397 679.872 761.183 680 760.5 680C759.119 680 758 678.881 758 677.5C758 676.119 759.119 675 760.5 675C760.817 675 761.708 674.919 763.125 674.745C764.477 674.579 766.161 674.348 767.955 674.088C771.542 673.57 775.528 672.947 778.102 672.532C779.465 672.312 780.748 673.239 780.968 674.602ZM508.5 690.5C508.5 689.119 509.619 688 511 688H526C527.381 688 528.5 689.119 528.5 690.5C528.5 691.881 527.381 693 526 693H511C509.619 693 508.5 691.881 508.5 690.5ZM528.5 704.5C528.5 703.119 529.619 702 531 702H542.5C543.881 702 545 703.119 545 704.5C545 705.881 543.881 707 542.5 707H531C529.619 707 528.5 705.881 528.5 704.5ZM813.58 704.113C814.346 705.262 814.036 706.814 812.887 707.58C810.061 709.464 805.05 710.959 800.336 712.071C795.489 713.214 790.483 714.052 787.335 714.477C785.967 714.662 784.708 713.703 784.523 712.335C784.338 710.966 785.297 709.707 786.665 709.522C789.684 709.115 794.528 708.303 799.189 707.204C803.984 706.074 808.139 704.736 810.113 703.42C811.262 702.654 812.814 702.964 813.58 704.113ZM831.607 718.075C832.946 718.409 833.76 719.767 833.426 721.106C833.121 722.326 832.383 723.3 831.598 724.048C830.804 724.805 829.826 725.461 828.788 726.034C826.713 727.18 824.078 728.167 821.344 729.003C815.853 730.682 809.518 731.88 805.354 732.475C803.987 732.67 802.721 731.72 802.525 730.354C802.33 728.987 803.28 727.72 804.647 727.525C808.649 726.953 814.714 725.801 819.882 724.222C822.476 723.428 824.735 722.56 826.372 721.657C827.189 721.205 827.771 720.789 828.148 720.429C828.517 720.078 828.575 719.892 828.575 719.892V719.894L831.607 718.075ZM831.607 718.075C830.268 717.74 828.911 718.554 828.575 719.892L831.607 718.075ZM556 721.5C556 720.119 557.119 719 558.5 719H568C569.381 719 570.5 720.119 570.5 721.5C570.5 722.881 569.381 724 568 724H558.5C557.119 724 556 722.881 556 721.5ZM579.5 733C579.5 731.619 580.619 730.5 582 730.5H590.5C591.881 730.5 593 731.619 593 733C593 734.381 591.881 735.5 590.5 735.5H582C580.619 735.5 579.5 734.381 579.5 733ZM859.535 735.027C860.625 735.874 860.821 737.445 859.974 738.535C859.367 739.314 858.529 739.956 857.696 740.485C856.834 741.031 855.823 741.552 854.734 742.046C852.555 743.033 849.897 743.986 847.142 744.858C841.624 746.606 835.492 748.1 831.52 748.945C830.17 749.233 828.842 748.371 828.555 747.02C828.268 745.67 829.129 744.342 830.48 744.055C834.342 743.233 840.31 741.777 845.633 740.092C848.299 739.247 850.747 738.363 852.67 737.492C853.632 737.056 854.419 736.643 855.018 736.262C855.647 735.864 855.933 735.586 856.027 735.465C856.874 734.375 858.445 734.179 859.535 735.027ZM616.686 740.286C617.356 741.493 616.921 743.015 615.714 743.685L611.214 746.185C610.007 746.856 608.485 746.421 607.815 745.214C607.144 744.007 607.579 742.485 608.786 741.815L613.286 739.315C614.493 738.644 616.015 739.079 616.686 740.286ZM1191.53 747.977C1192.59 747.16 1192.82 745.644 1192.03 744.547C1191.23 743.423 1189.67 743.163 1188.55 743.966C1187.68 744.584 1187.13 745.497 1186.78 746.248C1186.39 747.056 1186.07 747.999 1185.8 748.986C1185.27 750.966 1184.85 753.409 1184.53 755.935C1183.89 761.005 1183.59 766.721 1183.5 770.443C1183.47 771.824 1184.56 772.968 1185.94 772.999C1187.32 773.031 1188.47 771.937 1188.5 770.557C1188.58 766.946 1188.88 761.412 1189.49 756.565C1189.8 754.133 1190.18 751.951 1190.63 750.295C1190.86 749.465 1191.08 748.838 1191.29 748.404C1191.42 748.128 1191.51 748.008 1191.53 747.977ZM643.236 749.382C643.854 750.617 643.353 752.119 642.118 752.736L637.118 755.236C635.883 755.854 634.382 755.353 633.764 754.118C633.147 752.883 633.647 751.381 634.882 750.764L639.882 748.264C641.117 747.646 642.619 748.147 643.236 749.382ZM666.626 755.684C667.353 756.858 666.99 758.399 665.816 759.126L655.316 765.626C654.142 766.352 652.601 765.99 651.874 764.816C651.148 763.642 651.51 762.101 652.684 761.374L663.184 754.874C664.358 754.148 665.899 754.51 666.626 755.684ZM873.421 758.9C874.305 759.96 874.161 761.537 873.101 762.421C870.275 764.775 865.84 766.472 861.771 767.651C857.611 768.857 853.437 769.631 850.831 769.978C849.462 770.161 848.205 769.199 848.022 767.83C847.84 766.462 848.801 765.204 850.17 765.022C852.563 764.703 856.49 763.976 860.379 762.849C864.361 761.695 867.925 760.225 869.9 758.579C870.96 757.696 872.537 757.839 873.421 758.9ZM1205.74 760.329C1206.94 761.014 1207.36 762.542 1206.67 763.74V763.739C1206.67 763.739 1206.64 763.79 1206.6 763.915C1206.56 764.047 1206.51 764.229 1206.46 764.468C1206.36 764.949 1206.28 765.574 1206.22 766.335C1206.11 767.855 1206.09 769.748 1206.15 771.793C1206.26 775.873 1206.66 780.349 1206.98 783.216C1207.14 784.588 1206.16 785.827 1204.78 785.984C1203.41 786.141 1202.17 785.156 1202.02 783.784C1201.68 780.818 1201.27 776.194 1201.15 771.932C1201.09 769.806 1201.1 767.718 1201.24 765.95C1201.31 765.066 1201.41 764.22 1201.56 763.466C1201.71 762.748 1201.94 761.948 1202.33 761.26C1203.01 760.061 1204.54 759.644 1205.74 760.329ZM691.326 766.584C691.832 767.868 691.201 769.32 689.916 769.826L673.416 776.326C672.132 776.832 670.68 776.201 670.174 774.916C669.668 773.632 670.299 772.18 671.584 771.674L688.084 765.174C689.368 764.668 690.82 765.299 691.326 766.584ZM1168.21 765.128C1169.52 764.692 1170.94 765.4 1171.37 766.709C1172.31 769.529 1172.47 772.796 1172.35 775.597C1172.22 778.429 1171.8 781.009 1171.43 782.573C1171.12 783.917 1169.77 784.75 1168.43 784.434C1167.08 784.117 1166.25 782.771 1166.57 781.427C1166.87 780.158 1167.24 777.888 1167.35 775.378C1167.46 772.837 1167.29 770.271 1166.63 768.291C1166.19 766.981 1166.9 765.565 1168.21 765.128ZM715.279 776.972C715.847 778.231 715.287 779.711 714.028 780.279L688.528 791.779C687.269 792.347 685.789 791.786 685.221 790.528C684.654 789.269 685.214 787.789 686.472 787.221L711.972 775.721C713.231 775.153 714.712 775.714 715.279 776.972ZM899.81 778.871C900.986 779.594 901.353 781.134 900.629 782.31C898.177 786.296 893.503 788.792 889.41 790.391C885.788 791.806 882.158 792.685 880.003 793.206C879.666 793.288 879.366 793.361 879.107 793.425C877.767 793.76 876.41 792.946 876.075 791.606C875.74 790.267 876.554 788.91 877.894 788.575C878.186 788.502 878.513 788.422 878.868 788.336C881.044 787.808 884.314 787.014 887.591 785.734C891.497 784.208 894.824 782.204 896.371 779.69C897.095 778.514 898.635 778.147 899.81 778.871ZM1307 783C1308.38 783 1309.5 784.119 1309.5 785.5V801C1309.5 802.381 1308.38 803.5 1307 803.5C1305.62 803.5 1304.5 802.381 1304.5 801V785.5C1304.5 784.119 1305.62 783 1307 783ZM730.631 788.192C731.353 789.369 730.985 790.909 729.808 791.631L707.808 805.131C706.631 805.853 705.091 805.484 704.369 804.308C703.647 803.131 704.016 801.591 705.193 800.869L727.193 787.369C728.369 786.647 729.909 787.016 730.631 788.192ZM1218.6 787.579C1219.66 788.463 1219.8 790.04 1218.92 791.1C1215.29 795.462 1214.5 799.766 1214.5 801C1214.5 802.381 1213.38 803.5 1212 803.5C1210.62 803.5 1209.5 802.381 1209.5 801C1209.5 798.568 1210.71 793.138 1215.08 787.9C1215.96 786.839 1217.54 786.696 1218.6 787.579ZM1152 787C1153.38 787 1154.5 788.119 1154.5 789.5C1154.5 795.41 1153.11 801.72 1152.4 804.187C1152.02 805.514 1150.64 806.283 1149.31 805.904C1147.99 805.524 1147.22 804.141 1147.6 802.813C1148.22 800.613 1149.5 794.79 1149.5 789.5C1149.5 788.119 1150.62 787 1152 787ZM1289.44 790.064C1290.78 789.754 1292.13 790.592 1292.44 791.938C1293.14 794.975 1292.97 798.537 1292.55 801.598C1292.13 804.702 1291.42 807.541 1290.88 809.253C1290.47 810.569 1289.06 811.3 1287.75 810.884C1286.43 810.468 1285.7 809.064 1286.12 807.747C1286.58 806.292 1287.22 803.732 1287.6 800.927C1287.98 798.08 1288.06 795.225 1287.56 793.062C1287.25 791.717 1288.09 790.375 1289.44 790.064ZM1322.77 790.732C1323.74 791.709 1323.74 793.291 1322.77 794.268C1322.61 794.427 1322.33 794.853 1322.09 795.733C1321.87 796.575 1321.72 797.622 1321.66 798.785C1321.53 801.112 1321.74 803.589 1321.97 805.129C1322.18 806.495 1321.24 807.768 1319.87 807.972C1318.51 808.177 1317.23 807.236 1317.03 805.871C1316.76 804.078 1316.52 801.254 1316.67 798.515C1316.74 797.144 1316.92 795.717 1317.27 794.417C1317.62 793.155 1318.19 791.773 1319.23 790.732C1320.21 789.756 1321.79 789.756 1322.77 790.732ZM1428.72 790.515C1430.1 790.363 1431.33 791.352 1431.48 792.724L1433.98 815.224C1434.14 816.596 1433.15 817.832 1431.78 817.985C1430.4 818.137 1429.17 817.148 1429.02 815.776L1426.52 793.276C1426.36 791.904 1427.35 790.668 1428.72 790.515ZM931.81 792.519C933.18 792.691 934.152 793.94 933.981 795.31C933.857 796.299 933.378 797.156 932.934 797.795C932.462 798.475 931.858 799.148 931.205 799.793C929.898 801.084 928.191 802.457 926.392 803.778C922.783 806.428 918.55 809.053 915.748 810.667C914.551 811.355 913.023 810.944 912.334 809.747C911.645 808.551 912.056 807.022 913.253 806.333C915.951 804.78 920.017 802.256 923.433 799.747C925.147 798.489 926.634 797.28 927.692 796.235C928.222 795.712 928.594 795.278 928.827 794.943C928.964 794.746 929.016 794.635 929.032 794.6C929.246 793.278 930.471 792.352 931.81 792.519ZM1444.76 794.341C1445.95 795.036 1446.36 796.567 1445.66 797.76L1442.16 803.76C1441.46 804.952 1439.93 805.355 1438.74 804.659C1437.55 803.964 1437.15 802.433 1437.84 801.24L1441.34 795.24C1442.04 794.048 1443.57 793.645 1444.76 794.341ZM1334.45 803.938C1335.31 805.016 1335.14 806.59 1334.06 807.452C1334.13 807.399 1333.87 807.635 1333.49 808.634C1333.16 809.511 1332.85 810.654 1332.57 811.941C1332.01 814.507 1331.65 817.373 1331.49 819.217C1331.37 820.592 1330.16 821.61 1328.78 821.491C1327.41 821.371 1326.39 820.159 1326.51 818.783C1326.68 816.793 1327.07 813.709 1327.68 810.884C1327.99 809.475 1328.36 808.062 1328.82 806.857C1329.23 805.773 1329.87 804.401 1330.94 803.548C1332.02 802.685 1333.59 802.86 1334.45 803.938ZM1227.27 803.732C1228.24 804.709 1228.24 806.291 1227.27 807.268C1225.83 808.708 1224.61 810.958 1223.67 813.378C1222.75 815.76 1222.19 818.07 1221.97 819.411C1221.74 820.773 1220.45 821.693 1219.09 821.466C1217.73 821.239 1216.81 819.951 1217.03 818.589C1217.31 816.93 1217.95 814.29 1219.01 811.572C1220.04 808.892 1221.57 805.892 1223.73 803.732C1224.71 802.756 1226.29 802.756 1227.27 803.732ZM748.228 804.866C748.854 806.097 748.364 807.602 747.134 808.228L718.634 822.728C717.403 823.354 715.898 822.864 715.272 821.634C714.646 820.403 715.136 818.898 716.367 818.272L744.867 803.772C746.097 803.146 747.602 803.636 748.228 804.866ZM968.685 806.299C969.901 806.953 970.356 808.47 969.701 809.685C968.74 811.471 967.068 813.022 965.278 814.33C963.445 815.668 961.273 816.905 959.061 818.002C954.638 820.196 949.831 821.944 946.731 822.891C945.41 823.294 944.013 822.551 943.609 821.231C943.206 819.91 943.949 818.513 945.27 818.109C948.17 817.223 952.712 815.57 956.839 813.523C958.903 812.499 960.805 811.405 962.329 810.292C963.894 809.149 964.861 808.129 965.299 807.315C965.954 806.099 967.47 805.644 968.685 806.299ZM1132.91 806.034C1134.27 806.261 1135.19 807.549 1134.97 808.911C1134.53 811.551 1132.35 818.371 1131.37 821.291C1130.94 822.6 1129.52 823.308 1128.21 822.872C1126.9 822.435 1126.19 821.019 1126.63 819.709C1127.66 816.629 1129.67 810.249 1130.03 808.089C1130.26 806.727 1131.55 805.807 1132.91 806.034ZM1272.2 811.6C1273.53 811.987 1274.29 813.375 1273.9 814.7L1270.4 826.7C1270.01 828.026 1268.63 828.787 1267.3 828.4C1265.97 828.013 1265.21 826.625 1265.6 825.3L1269.1 813.3C1269.49 811.974 1270.87 811.213 1272.2 811.6ZM1237.74 814.611C1239.05 815.017 1239.8 816.416 1239.39 817.735C1239.14 818.534 1238.86 819.519 1238.54 820.624C1237.87 822.917 1237.05 825.724 1236.15 828.433C1234.8 832.426 1233.1 836.734 1230.99 839.511C1230.16 840.611 1228.59 840.826 1227.49 839.992C1226.39 839.157 1226.17 837.589 1227.01 836.489C1228.57 834.433 1230.06 830.84 1231.41 826.842C1232.29 824.217 1233.03 821.645 1233.68 819.41C1234.02 818.259 1234.32 817.198 1234.61 816.265C1235.02 814.945 1236.42 814.205 1237.74 814.611ZM1003.93 814.538C1005.29 814.778 1006.2 816.075 1005.96 817.434C1005.54 819.821 1004.16 821.851 1002.51 823.509C1000.84 825.178 998.752 826.625 996.597 827.849C992.29 830.295 987.383 832.04 984.152 832.913C982.82 833.274 981.447 832.485 981.087 831.152C980.727 829.819 981.515 828.447 982.848 828.087C985.784 827.293 990.277 825.688 994.128 823.501C996.053 822.408 997.73 821.218 998.966 819.979C1000.21 818.728 1000.86 817.579 1001.04 816.566C1001.28 815.206 1002.57 814.298 1003.93 814.538ZM1111.19 814.519C1112.56 814.348 1113.81 815.32 1113.98 816.69C1114.15 818.067 1113.81 819.451 1113.38 820.618C1112.93 821.823 1112.28 823.032 1111.59 824.145C1110.2 826.368 1108.5 828.445 1107.33 829.701C1106.39 830.713 1104.81 830.771 1103.8 829.832C1102.79 828.892 1102.73 827.311 1103.67 826.299C1104.67 825.222 1106.16 823.399 1107.34 821.505C1107.93 820.559 1108.4 819.656 1108.7 818.863C1109.01 818.032 1109.05 817.533 1109.02 817.31C1108.85 815.94 1109.82 814.691 1111.19 814.519ZM1344.86 816.904C1346.02 817.656 1346.35 819.205 1345.6 820.362L1339.1 830.362C1338.34 831.52 1336.8 831.849 1335.64 831.096C1334.48 830.344 1334.15 828.795 1334.9 827.638L1341.4 817.638C1342.16 816.48 1343.7 816.151 1344.86 816.904ZM1419 817C1420.38 817 1421.5 818.119 1421.5 819.5V830.5C1421.5 831.881 1420.38 833 1419 833C1417.62 833 1416.5 831.881 1416.5 830.5V819.5C1416.5 818.119 1417.62 817 1419 817ZM1376.26 821.118C1377.57 821.536 1378.3 822.942 1377.88 824.258C1377.3 826.073 1376.41 828.974 1375.62 831.761C1374.8 834.616 1374.15 837.154 1373.97 838.354C1373.78 839.72 1372.51 840.67 1371.15 840.475C1369.78 840.28 1368.83 839.013 1369.03 837.646C1369.25 836.046 1370.02 833.167 1370.81 830.389C1371.62 827.543 1372.53 824.594 1373.12 822.742C1373.54 821.426 1374.94 820.699 1376.26 821.118ZM1254.59 821.07C1255.93 821.394 1256.75 822.744 1256.43 824.087L1252.93 838.587C1252.61 839.929 1251.26 840.754 1249.91 840.43C1248.57 840.106 1247.75 838.756 1248.07 837.413L1251.57 822.913C1251.89 821.571 1253.24 820.746 1254.59 821.07ZM1364.53 821.522C1365.62 822.366 1365.82 823.936 1364.98 825.029L1356.48 836.029C1355.63 837.121 1354.06 837.322 1352.97 836.478C1351.88 835.634 1351.68 834.064 1352.52 832.971L1361.02 821.971C1361.87 820.879 1363.44 820.678 1364.53 821.522ZM1081.6 821.579C1082.66 822.463 1082.8 824.04 1081.92 825.1C1080.74 826.517 1078.25 828.668 1075.83 830.647C1073.34 832.687 1070.69 834.734 1069 836C1067.9 836.828 1066.33 836.605 1065.5 835.5C1064.67 834.395 1064.9 832.828 1066 832C1067.65 830.766 1070.24 828.763 1072.67 826.778C1075.17 824.732 1077.26 822.883 1078.08 821.9C1078.96 820.839 1080.54 820.696 1081.6 821.579ZM1403 821C1404.38 821 1405.5 822.119 1405.5 823.5V834.5C1405.5 835.881 1404.38 837 1403 837C1401.62 837 1400.5 835.881 1400.5 834.5V823.5C1400.5 822.119 1401.62 821 1403 821ZM1048.27 823.732C1049.24 824.709 1049.24 826.291 1048.27 827.268C1046.98 828.553 1045.18 829.655 1043.28 830.593C1041.35 831.548 1039.15 832.416 1036.94 833.176C1032.53 834.697 1027.92 835.848 1025 836.449C1023.65 836.727 1022.33 835.857 1022.05 834.504C1021.77 833.152 1022.64 831.83 1024 831.551C1026.75 830.985 1031.14 829.887 1035.31 828.449C1037.4 827.73 1039.38 826.941 1041.06 826.11C1042.78 825.262 1044.02 824.447 1044.73 823.732C1045.71 822.756 1047.29 822.756 1048.27 823.732ZM1388.5 823.5C1389.88 823.5 1391 824.619 1391 826V838C1391 839.381 1389.88 840.5 1388.5 840.5C1387.12 840.5 1386 839.381 1386 838V826C1386 824.619 1387.12 823.5 1388.5 823.5ZM752.69 827.657C753.707 828.59 753.776 830.172 752.843 831.189C751.414 832.748 749.189 834.098 746.809 835.257C744.367 836.446 741.507 837.553 738.591 838.542C732.757 840.522 726.51 842.096 722.52 842.945C721.17 843.233 719.842 842.371 719.555 841.02C719.268 839.67 720.129 838.342 721.48 838.055C725.324 837.237 731.376 835.711 736.984 833.808C739.789 832.856 742.435 831.825 744.62 830.762C746.865 829.669 748.386 828.652 749.157 827.811C750.09 826.793 751.672 826.724 752.69 827.657ZM755.182 854.65C756.203 855.579 756.279 857.16 755.35 858.182C753.959 859.712 751.837 860.839 749.656 861.704C747.41 862.594 744.801 863.318 742.167 863.903C736.895 865.073 731.27 865.737 727.678 865.994C726.301 866.092 725.105 865.055 725.007 863.678C724.908 862.301 725.945 861.105 727.322 861.006C730.731 860.763 736.105 860.127 741.083 859.022C743.574 858.469 745.903 857.812 747.814 857.055C749.788 856.273 751.042 855.488 751.65 854.818C752.579 853.797 754.16 853.721 755.182 854.65ZM754.76 878.841C755.953 879.536 756.355 881.067 755.66 882.26C754.519 884.214 752.338 885.45 750.234 886.286C748.026 887.163 745.378 887.799 742.688 888.264C737.296 889.194 731.347 889.5 727.5 889.5C726.119 889.5 725 888.381 725 887C725 885.619 726.119 884.5 727.5 884.5C731.153 884.5 736.804 884.206 741.837 883.336C744.36 882.901 746.631 882.337 748.388 881.639C750.249 880.9 751.081 880.186 751.341 879.74C752.036 878.548 753.567 878.145 754.76 878.841ZM753.109 908.658C753.851 909.823 753.507 911.368 752.342 912.109C747.489 915.197 740.898 916.842 734.865 917.7C728.774 918.566 722.94 918.671 719.378 918.497C717.999 918.43 716.936 917.257 717.003 915.878C717.07 914.499 718.243 913.436 719.622 913.503C722.894 913.663 728.41 913.567 734.161 912.75C739.969 911.924 745.711 910.403 749.658 907.891C750.823 907.15 752.368 907.493 753.109 908.658ZM744.603 936.148C745.35 937.31 745.013 938.856 743.852 939.603C732.054 947.187 718.316 948.026 712.759 947.488C711.385 947.355 710.379 946.133 710.512 944.759C710.645 943.385 711.867 942.379 713.241 942.512C718.017 942.974 730.546 942.213 741.148 935.397C742.31 934.65 743.857 934.987 744.603 936.148ZM684.581 965.869C684.93 964.533 686.295 963.732 687.631 964.081C691.37 965.056 697.609 966.383 704.076 967.168C710.627 967.963 717.069 968.156 721.394 967.075C722.733 966.74 724.091 967.554 724.426 968.894C724.76 970.233 723.946 971.59 722.607 971.925C717.332 973.244 710.107 972.937 703.474 972.132C696.758 971.317 690.297 969.944 686.369 968.919C685.033 968.57 684.233 967.205 684.581 965.869ZM671.226 984.961C671.801 983.705 673.284 983.152 674.54 983.726C677.337 985.005 682.124 986.853 687.262 988.179C692.474 989.524 697.705 990.24 701.553 989.54C702.911 989.293 704.213 990.194 704.46 991.553C704.707 992.911 703.806 994.213 702.447 994.46C697.495 995.36 691.393 994.409 686.013 993.021C680.56 991.613 675.496 989.661 672.461 988.274C671.205 987.7 670.652 986.216 671.226 984.961ZM650.153 1006.64C650.628 1005.34 652.064 1004.68 653.361 1005.15C658.378 1006.99 669.822 1010.76 676.292 1011.52C677.664 1011.68 678.644 1012.92 678.483 1014.29C678.322 1015.66 677.079 1016.64 675.708 1016.48C668.579 1015.64 656.622 1011.67 651.64 1009.85C650.343 1009.37 649.678 1007.94 650.153 1006.64ZM624.837 1019.75C625.528 1018.55 627.058 1018.14 628.253 1018.84C631.347 1020.63 636.48 1023.33 641.754 1025.57C647.148 1027.87 652.265 1029.5 655.5 1029.5C656.881 1029.5 658 1030.62 658 1032C658 1033.38 656.881 1034.5 655.5 1034.5C651.136 1034.5 645.169 1032.46 639.796 1030.18C634.303 1027.84 628.987 1025.04 625.748 1023.16C624.553 1022.47 624.145 1020.94 624.837 1019.75ZM595.523 1030.47C596.369 1029.38 597.939 1029.18 599.031 1030.02C601.529 1031.96 605.772 1034.91 610.298 1037.41C614.927 1039.97 619.449 1041.84 622.632 1042C624.01 1042.08 625.069 1043.25 624.997 1044.63C624.924 1046.01 623.748 1047.07 622.369 1047C617.951 1046.76 612.557 1044.38 607.877 1041.79C603.095 1039.14 598.638 1036.04 595.97 1033.98C594.878 1033.13 594.678 1031.56 595.523 1030.47ZM557.964 1036.55C558.764 1035.43 560.325 1035.16 561.45 1035.96C566.332 1039.44 574.054 1044.68 581.333 1049.09C584.976 1051.29 588.469 1053.27 591.42 1054.71C592.896 1055.43 594.203 1056 595.303 1056.4C596.437 1056.81 597.208 1056.98 597.656 1057C599.034 1057.09 600.081 1058.28 599.995 1059.66C599.909 1061.03 598.722 1062.08 597.344 1062C596.193 1061.92 594.899 1061.57 593.607 1061.1C592.28 1060.62 590.798 1059.97 589.227 1059.2C586.083 1057.67 582.446 1055.61 578.742 1053.36C571.33 1048.87 563.502 1043.56 558.55 1040.04C557.426 1039.24 557.163 1037.67 557.964 1036.55ZM469.514 1042.49C470.625 1041.67 472.19 1041.9 473.011 1043.01C475.741 1046.71 480.788 1052.52 486.948 1057.77C493.149 1063.07 500.228 1067.59 507.028 1069.06C508.378 1069.35 509.235 1070.68 508.944 1072.03C508.652 1073.38 507.321 1074.24 505.972 1073.94C497.972 1072.21 490.134 1067.07 483.702 1061.58C477.229 1056.05 471.926 1049.96 468.99 1045.99C468.169 1044.88 468.404 1043.31 469.514 1042.49ZM421.856 1042.62C422.896 1041.71 424.475 1041.82 425.383 1042.86C429.936 1048.07 437.266 1056.07 444.438 1063.1C448.025 1066.62 451.544 1069.86 454.636 1072.39C457.811 1074.98 460.282 1076.6 461.826 1077.14C463.129 1077.6 463.816 1079.02 463.36 1080.33C462.904 1081.63 461.477 1082.32 460.174 1081.86C457.718 1081 454.648 1078.86 451.474 1076.26C448.217 1073.6 444.579 1070.24 440.937 1066.67C433.651 1059.53 426.231 1051.43 421.617 1046.14C420.709 1045.1 420.816 1043.52 421.856 1042.62ZM512.71 1042.75C513.674 1041.77 515.257 1041.75 516.245 1042.71C519.47 1045.85 525.187 1050.69 531.745 1054.88C538.363 1059.1 545.531 1062.46 551.72 1063.01C553.095 1063.13 554.112 1064.34 553.99 1065.72C553.869 1067.1 552.656 1068.11 551.28 1067.99C543.87 1067.34 535.871 1063.45 529.055 1059.09C522.18 1054.71 516.197 1049.65 512.755 1046.29C511.766 1045.33 511.746 1043.74 512.71 1042.75ZM385.544 1049.47C386.666 1048.66 388.228 1048.92 389.032 1050.04C392.597 1055.02 398.32 1062.73 403.889 1069.69C406.675 1073.17 409.405 1076.44 411.796 1079.07C414.242 1081.76 416.173 1083.61 417.387 1084.42C418.536 1085.19 418.846 1086.74 418.08 1087.89C417.314 1089.04 415.762 1089.35 414.613 1088.58C412.828 1087.39 410.529 1085.11 408.095 1082.43C405.606 1079.69 402.804 1076.33 399.986 1072.81C394.347 1065.77 388.57 1057.98 384.968 1052.96C384.164 1051.83 384.422 1050.27 385.544 1049.47ZM335.65 1063.4C336.812 1062.65 338.358 1062.99 339.104 1064.15C342.65 1069.67 348.492 1078.09 354.468 1085.35C357.458 1088.98 360.44 1092.27 363.153 1094.76C365.963 1097.33 368.156 1098.73 369.579 1099.07C370.922 1099.39 371.752 1100.74 371.432 1102.08C371.112 1103.42 369.764 1104.25 368.421 1103.93C365.645 1103.27 362.634 1101.06 359.775 1098.44C356.82 1095.74 353.671 1092.25 350.608 1088.53C344.475 1081.08 338.517 1072.49 334.896 1066.85C334.15 1065.69 334.488 1064.14 335.65 1063.4ZM295.978 1084.52C297.073 1083.68 298.643 1083.88 299.483 1084.98C302.202 1088.52 306.71 1094.09 311.37 1099.26C316.115 1104.53 320.749 1109.07 323.768 1110.85C324.958 1111.55 325.355 1113.08 324.655 1114.27C323.955 1115.46 322.423 1115.85 321.233 1115.15C317.451 1112.93 312.335 1107.8 307.656 1102.61C302.891 1097.32 298.299 1091.65 295.517 1088.02C294.676 1086.93 294.883 1085.36 295.978 1084.52ZM255.948 1105.07C256.737 1103.94 258.295 1103.66 259.429 1104.45L298.929 1131.95C300.062 1132.74 300.341 1134.3 299.552 1135.43C298.763 1136.56 297.205 1136.84 296.072 1136.05L256.572 1108.55C255.439 1107.76 255.16 1106.2 255.948 1105.07ZM227.135 1133.19C227.581 1131.88 229.002 1131.19 230.309 1131.63L269.809 1145.13C271.115 1145.58 271.812 1147 271.366 1148.31C270.919 1149.62 269.498 1150.31 268.192 1149.87L228.692 1136.37C227.385 1135.92 226.688 1134.5 227.135 1133.19ZM199.598 1162.31C199.979 1160.98 201.364 1160.22 202.691 1160.6L239.191 1171.1C240.518 1171.48 241.284 1172.86 240.903 1174.19C240.521 1175.52 239.136 1176.28 237.809 1175.9L201.309 1165.4C199.982 1165.02 199.216 1163.64 199.598 1162.31Z" fill="black"/>
<path fill-rule="evenodd" clip-rule="evenodd" d="M341.269 275.162C325.035 317.248 331.384 369.435 342.386 404.757C342.797 406.075 342.061 407.476 340.743 407.887C339.424 408.298 338.023 407.562 337.612 406.244C326.447 370.398 319.796 316.936 336.604 273.363C345.036 251.503 359.388 232.106 382.019 218.767C404.626 205.441 435.284 198.285 476.135 200.504L476.198 200.507L476.261 200.514C506.114 203.656 568.229 238.135 585.968 348.604C596.898 416.667 643.849 539.19 719.542 646.307C795.27 753.475 899.291 844.563 1024.13 851.003L1024.15 851.005L1024.18 851.006C1041.63 852.241 1069.81 851.335 1096.87 844.272C1124 837.192 1149.49 824.067 1162.32 801.273C1166.01 794.727 1169.47 790.001 1172.76 786.852C1176.04 783.71 1179.35 781.956 1182.69 781.8C1186.08 781.641 1188.98 783.157 1191.34 785.419C1193.67 787.653 1195.64 790.742 1197.31 794.149C1200.65 800.971 1203.13 809.696 1204.97 817.235C1205.75 820.444 1206.43 823.478 1207.01 826.085C1207.12 826.555 1207.22 827.01 1207.32 827.45C1207.98 830.402 1208.48 832.545 1208.87 833.71C1212.39 844.276 1220.39 852.607 1231.56 854.602C1242.77 856.602 1257.89 852.36 1275.82 836.146C1278.13 834.064 1280.27 832.111 1282.26 830.295C1285.31 827.509 1288.01 825.043 1290.41 822.927C1294.36 819.436 1297.64 816.738 1300.49 814.973C1303.34 813.213 1306.1 812.169 1308.93 812.491C1311.79 812.817 1314.14 814.47 1316.32 816.787C1318.51 819.116 1319.87 822.496 1321.16 825.701C1321.28 826.008 1321.4 826.313 1321.53 826.615C1323.01 830.274 1324.66 834.085 1327.51 837.62C1333.05 844.509 1343.69 851 1368.5 851H1409.18C1409.18 853.5 1409.18 856 1409.18 856H1368.5C1342.81 856 1330.45 849.242 1323.61 840.755C1320.27 836.603 1318.39 832.195 1316.89 828.494L1316.65 827.886C1315.2 824.317 1314.19 821.822 1312.68 820.214C1310.86 818.28 1309.53 817.592 1308.36 817.459C1307.17 817.323 1305.59 817.703 1303.12 819.227C1300.66 820.745 1297.66 823.188 1293.72 826.673C1291.35 828.769 1288.7 831.186 1285.68 833.944C1283.68 835.764 1281.52 837.732 1279.18 839.855C1260.61 856.64 1243.98 861.898 1230.69 859.524C1217.36 857.144 1208.11 847.224 1204.13 835.291C1203.64 833.83 1203.08 831.395 1202.44 828.546C1201.79 825.632 1201.02 822.15 1200.11 818.422C1198.28 810.93 1195.91 802.654 1192.82 796.351C1191.27 793.195 1189.62 790.691 1187.88 789.031C1186.18 787.398 1184.55 786.718 1182.92 786.794C1181.24 786.873 1179.02 787.783 1176.22 790.464C1173.42 793.14 1170.24 797.399 1166.68 803.727C1152.85 828.276 1125.76 841.9 1098.13 849.11C1070.46 856.334 1041.73 857.258 1023.85 855.996C896.696 849.426 791.475 756.769 715.458 649.193C639.401 541.56 592.102 418.334 581.031 349.397C563.584 240.748 502.977 208.393 475.8 205.493C435.683 203.323 406.09 210.382 384.558 223.074C363.037 235.759 349.358 254.193 341.269 275.162ZM526.702 208.015C527.246 206.746 528.716 206.158 529.985 206.702C567.178 222.642 592.67 244.788 611.809 274.251C630.896 303.634 643.601 340.201 655.417 384.861C670.085 440.303 715.438 548.236 789.208 641.196C862.994 734.176 964.819 811.714 1092.42 807.502C1106.52 807.036 1116.08 803.762 1124.18 796.837C1132.41 789.796 1139.35 778.809 1147.77 762.36C1158.51 741.409 1175.03 728.937 1190.57 728.191C1198.4 727.814 1205.85 730.45 1211.86 736.329C1217.84 742.172 1222.27 751.075 1224.46 763.051C1228.69 786.201 1235.31 799.137 1242.11 804.471C1245.39 807.051 1248.66 807.819 1251.86 807.236C1255.14 806.637 1258.65 804.548 1262.18 800.79C1264.04 798.805 1265.86 796.702 1267.78 794.484C1269.28 792.755 1270.83 790.957 1272.52 789.093C1276.24 784.96 1280.35 780.777 1285.01 777.314C1294.44 770.303 1306.1 766.267 1321.26 771.119C1334.58 775.38 1339.32 785.623 1343.21 794.04L1343.52 794.698C1345.55 799.082 1347.33 802.744 1349.86 805.375C1352.25 807.855 1355.41 809.5 1360.5 809.5C1369.01 809.5 1376.58 810.07 1383.11 810.667C1384.7 810.813 1386.23 810.959 1387.69 811.099C1392.24 811.536 1396.12 811.909 1399.42 812.001C1403.86 812.126 1406.6 811.7 1408.22 810.712C1409.5 809.924 1410.48 808.504 1410.5 805.089C1409.74 794.513 1412.37 786.647 1417.1 781.484C1421.84 776.312 1428.4 774.157 1434.82 774.504C1447.62 775.195 1460.41 785.904 1458.48 803.276C1458.33 804.648 1457.1 805.637 1455.72 805.485C1454.35 805.332 1453.36 804.096 1453.52 802.724C1455.08 788.597 1444.88 780.055 1434.55 779.497C1429.41 779.219 1424.38 780.938 1420.79 784.861C1417.2 788.775 1414.78 795.189 1415.49 804.815L1415.5 804.908V805C1415.5 809.52 1414.12 812.959 1410.83 814.976C1407.85 816.8 1403.76 817.125 1399.28 816.999C1395.79 816.902 1391.67 816.506 1387.07 816.064C1385.64 815.926 1384.17 815.785 1382.65 815.646C1376.18 815.055 1368.79 814.5 1360.5 814.5C1354.09 814.5 1349.62 812.333 1346.26 808.844C1343.05 805.506 1340.95 801.043 1338.98 796.802L1338.84 796.505C1334.85 787.892 1330.95 779.468 1319.74 775.881C1306.42 771.619 1296.41 775.067 1287.99 781.326C1283.73 784.498 1279.88 788.397 1276.23 792.442C1274.72 794.118 1273.19 795.875 1271.69 797.61C1269.67 799.933 1267.69 802.216 1265.82 804.21C1261.85 808.452 1257.43 811.301 1252.75 812.155C1247.99 813.025 1243.3 811.762 1239.02 808.404C1230.69 801.863 1223.81 787.3 1219.54 763.95C1217.48 752.676 1213.41 744.828 1208.37 739.905C1203.37 735.019 1197.29 732.874 1190.81 733.185C1177.72 733.814 1162.49 744.592 1152.22 764.64C1143.79 781.115 1136.48 792.899 1127.43 800.638C1118.24 808.493 1107.48 812.007 1092.58 812.499C962.681 816.787 859.506 737.824 785.292 644.304C711.061 550.764 665.414 442.197 650.583 386.14C638.799 341.599 626.254 305.667 607.616 276.975C589.03 248.363 564.322 226.858 528.015 211.298C526.746 210.754 526.158 209.284 526.702 208.015ZM423.806 305.515C410.488 337.365 411.669 377.609 416.955 405.027L416.96 405.055L416.965 405.084C433.551 503.231 459.648 570.57 490.201 617.862C520.731 665.117 555.779 692.462 590.467 710.533C616.741 724.221 642.731 732.568 666.619 740.241C674.384 742.735 681.926 745.157 689.185 747.669C718.577 757.839 743.409 769.515 757.655 793.733C759.343 796.603 761.375 802.817 763.218 811.241C765.085 819.779 766.817 830.869 767.788 843.697C769.729 869.343 768.639 902.052 759.435 935.274C750.227 968.513 732.882 1002.31 702.297 1030C671.705 1057.7 628.017 1079.17 566.353 1087.98C468.451 1101.96 403.704 1118.01 362.573 1132.36C342.005 1139.53 327.395 1146.26 317.515 1152.06C312.576 1154.96 308.856 1157.61 306.177 1159.93C303.472 1162.28 301.946 1164.2 301.236 1165.62C300.618 1166.85 299.117 1167.35 297.882 1166.74C296.647 1166.12 296.146 1164.62 296.764 1163.38C297.888 1161.13 299.955 1158.71 302.9 1156.15C305.873 1153.58 309.862 1150.76 314.984 1147.75C325.23 1141.74 340.162 1134.88 360.927 1127.64C402.462 1113.15 467.549 1097.04 565.646 1083.03C626.483 1074.33 669.2 1053.23 698.941 1026.3C728.69 999.359 745.608 966.457 754.617 933.939C763.63 901.406 764.711 869.299 762.802 844.074C761.848 831.467 760.148 820.608 758.333 812.309C756.493 803.896 754.591 798.385 753.345 796.268C740.091 773.736 716.861 762.536 687.55 752.394C680.479 749.947 673.059 747.565 665.372 745.096C641.407 737.401 614.846 728.871 588.157 714.967C552.783 696.539 517.05 668.633 486.002 620.576C454.98 572.56 428.703 504.533 412.04 405.945C406.663 378.03 405.35 336.691 419.193 303.586C426.14 286.974 436.945 272.341 453.05 262.605C469.162 252.864 490.337 248.17 517.758 251.014C519.131 251.156 520.129 252.385 519.987 253.758C519.844 255.131 518.615 256.129 517.242 255.987C490.663 253.23 470.63 257.819 455.637 266.883C440.638 275.951 430.443 289.643 423.806 305.515ZM347.267 482.61C348.587 482.205 349.985 482.947 350.39 484.267C370.592 550.173 449.55 695.293 603.312 748.136C652.148 764.919 683.252 791.725 698.635 822.556C714.025 853.398 713.522 887.957 699.732 919.867C672.167 983.656 591.669 1036.79 478.361 1030.5C299.39 1020.55 180.723 1124.99 147.645 1180.28C146.936 1181.47 145.401 1181.85 144.216 1181.15C143.032 1180.44 142.646 1178.9 143.354 1177.72C177.277 1121.01 297.609 1015.45 478.639 1025.5C590.331 1031.71 668.583 979.344 695.143 917.883C708.416 887.169 708.819 854.164 694.161 824.788C679.498 795.401 649.601 769.331 601.687 752.864C445.85 699.308 366.074 552.494 345.61 485.733C345.205 484.413 345.947 483.015 347.267 482.61Z" fill="black"/>
<path d="M356.5 1156L310.5 1154.5" stroke="black" stroke-width="5" stroke-linecap="round"/>
<path d="M4 1168L163 1153.55" stroke="black" stroke-width="5" stroke-linecap="round"/>
<path d="M3 1168L42 1353" stroke="black" stroke-width="5" stroke-linecap="round"/>
<path d="M42 1353L207 1381" stroke="black" stroke-width="5" stroke-linecap="round"/>
<path d="M207 1380V1186.5" stroke="black" stroke-width="5" stroke-linecap="round"/>
<path d="M207 1185L4 1169" stroke="black" stroke-width="5" stroke-linecap="round"/>
<path d="M207 1185L354 1156" stroke="black" stroke-width="5" stroke-linecap="round"/>
<path d="M357 1156L347 1303" stroke="black" stroke-width="5" stroke-linecap="round"/>
<path d="M347 1303L207 1381" stroke="black" stroke-width="5" stroke-linecap="round"/>
<path d="M98.7316 1231.05L126.214 1232.75C134.954 1233.29 141.602 1240.82 141.061 1249.56C140.521 1258.3 132.997 1264.94 124.256 1264.4L96.7739 1262.7C88.0333 1262.16 81.3859 1254.64 81.9265 1245.9C82.4671 1237.16 89.991 1230.51 98.7316 1231.05Z" stroke="black" stroke-width="5"/>
<path d="M208.048 1420L351 1303L207.699 1382.59L38.9223 1353.14L23 1355.53L208.048 1420Z" fill="black"/>
<path d="M1564.15 598.009C1543.44 570.206 1546.64 546.899 1550.83 538.722C1536.7 564.244 1510.49 569.45 1499.15 568.862L1504.76 583.432C1490.85 594.058 1474.95 576.133 1468.73 565.842C1459.14 549.965 1464.6 519.705 1504.18 506.124C1543.75 492.543 1580.53 509.548 1593.97 519.748C1614.64 497.584 1652.84 499.743 1669.36 503.593C1686.46 507.615 1728.42 525.767 1734.68 571.036C1743.11 632.112 1679.5 654.823 1667.41 655.751C1625.62 658.958 1590.05 632.764 1564.15 598.009Z" fill="black"/>
<path d="M1513.76 621.449C1517.52 625.912 1521.9 628.965 1525.84 630.368C1529.86 631.794 1532.92 631.387 1534.75 629.856C1536.57 628.325 1537.5 625.372 1536.78 621.175C1536.08 617.046 1533.82 612.204 1530.07 607.741C1526.32 603.278 1521.94 600.225 1517.99 598.822C1513.98 597.396 1510.91 597.803 1509.09 599.334C1507.27 600.865 1506.34 603.818 1507.05 608.015C1507.76 612.144 1510.01 616.986 1513.76 621.449Z" stroke="black" stroke-width="5"/>
<path d="M1528.63 621.05C1527.72 622.48 1524.9 622.313 1522.33 620.678C1519.75 619.043 1518.4 616.559 1519.31 615.13C1520.22 613.7 1523.04 613.867 1525.61 615.502C1528.19 617.137 1529.54 619.621 1528.63 621.05Z" fill="black"/>
<path d="M1562.55 595.601L1532.7 610.587" stroke="black" stroke-width="5" stroke-linecap="round"/>
<path d="M1502.09 585.787C1502.65 591.959 1502.08 606.553 1498.41 616.788C1494.65 627.256 1498.67 635.177 1506.73 637.699L1519.36 641.709C1534.42 675.277 1554.57 694.597 1599.25 681.86" stroke="black" stroke-width="5" stroke-linecap="round"/>
<path d="M1568.54 630.987C1567.73 631.675 1566.51 631.569 1565.82 630.751C1565.13 629.934 1565.24 628.714 1566.06 628.026C1566.87 627.339 1568.09 627.445 1568.78 628.262C1569.47 629.08 1569.36 630.3 1568.54 630.987Z" fill="black"/>
<path d="M1583.74 642.462C1582.76 643.287 1581.41 643.293 1580.72 642.475C1580.04 641.658 1580.27 640.326 1581.26 639.501C1582.24 638.676 1583.59 638.671 1584.28 639.488C1584.96 640.306 1584.73 641.638 1583.74 642.462Z" fill="black"/>
<path d="M1567.83 648.772C1566.85 649.597 1565.5 649.603 1564.81 648.785C1564.13 647.968 1564.36 646.636 1565.35 645.811C1566.33 644.987 1567.68 644.981 1568.37 645.798C1569.05 646.616 1568.82 647.948 1567.83 648.772Z" fill="black"/>
<path d="M361.147 448.341C363.003 454.045 360.026 467.246 332.752 470.445C322.433 471.656 320.883 471.486 311.197 470.669" stroke="black" stroke-width="5" stroke-linecap="round"/>
<path d="M364.933 431.759C369.479 433.039 373.567 437.994 361.147 448.341C358.431 450.603 354.925 453.123 350.462 455.92" stroke="black" stroke-width="5" stroke-linecap="round"/>
<path d="M332.752 470.445C322.433 471.656 320.883 471.486 311.197 470.669M344.615 436.987C349.975 433.038 358.522 425.868 362.909 419.745C367.673 419.69 372.285 422.375 364.933 431.759C361.75 435.822 356.324 441.14 347.696 448.036L344.615 436.987Z" stroke="black" stroke-width="5" stroke-linecap="round"/>
<path d="M304.645 427.088C326.312 404.826 335.566 403.703 331.215 421.941C326.865 440.179 343.007 424.507 351.394 415.49C354.764 411.742 362.267 405.714 365.317 411.586C366.367 413.607 365.21 416.532 362.909 419.745C358.522 425.868 349.975 433.038 344.615 436.987" stroke="black" stroke-width="5" stroke-linecap="round"/>
<path d="M299.003 399.588C315.796 382.333 322.968 381.463 319.596 395.599C316.224 409.735 328.735 397.588 335.236 390.599" stroke="black" stroke-width="5" stroke-linecap="round"/>
<path d="M1552.98 656.055C1554.89 658.255 1556.96 663.965 1549.92 669.201" stroke="black" stroke-width="5" stroke-linecap="round"/>
<path d="M1615 708C1604.41 716.509 1585.85 749.525 1592.36 815.514" stroke="black" stroke-width="5" stroke-linecap="round"/>
<path d="M1494.37 836.594C1491.65 833.946 1486.63 826.192 1488.3 816.354C1489.98 806.517 1496.08 806.868 1498.92 808.273L1514.42 815.514C1526.5 821.384 1557.88 828.827 1592.36 815.514C1595.06 814.473 1597.77 813.305 1600.5 812" stroke="black" stroke-width="5" stroke-linecap="round"/>
<path d="M1430.77 855.099C1426.06 854.698 1417.8 853.27 1413.93 850.407C1411.22 850.004 1406.01 850.405 1406.84 855.232C1407.09 856.688 1408.5 857.86 1410.53 858.794C1415.24 860.956 1423.26 861.842 1427.93 862.017" stroke="black" stroke-width="5" stroke-linecap="round"/>
<path d="M1427.93 862.017C1423.26 861.842 1415.24 860.956 1410.53 858.794C1408.52 860.765 1407.28 865.269 1418.38 867.518L1421.7 868.11L1427.46 869.14" stroke="black" stroke-width="5" stroke-linecap="round"/>
<path d="M1631.5 871.5C1660.33 861.833 1716.5 828.5 1710.5 772.5" stroke="black" stroke-width="5" stroke-linecap="round"/>
<path d="M1430.77 855.099C1426.06 854.698 1417.8 853.27 1413.93 850.407C1412.66 849.465 1411.86 848.367 1411.83 847.1C1411.68 841.981 1416.72 842.015 1419.26 842.672C1426.53 844.246 1441.98 846.555 1445.57 843.205C1450.07 839.016 1444.19 839.493 1441.48 832.391C1438.77 825.288 1446.13 823.861 1446.71 827.197C1447.17 829.866 1451.17 831.816 1453.1 832.457C1460.69 835.176 1467.12 845.462 1470.16 850.528C1514 830 1526 855.232 1569 835.5" stroke="black" stroke-width="5" stroke-linecap="round"/>
<path d="M1421.7 868.11C1422.97 871.145 1429.39 877.084 1444.89 876.569C1456 876.2 1459.16 874 1470.16 871.5H1631.5H1755" stroke="black" stroke-width="5" stroke-linecap="round"/>
<path d="M1654.77 682.779C1654.12 675.762 1650.49 663.309 1641.17 669.634C1629.51 677.541 1611.19 706.486 1615.83 712.756" stroke="black" stroke-width="5" stroke-linecap="round"/>
<path d="M1471 807.5C1469.07 807.03 1466.85 806.333 1465.13 805.5C1458.58 804.333 1445.5 803.9 1445.5 811.5C1445.5 821 1463 813 1469 822C1475 831 1484.5 829.5 1490 830.5" stroke="black" stroke-width="5" stroke-linecap="round"/>
<path d="M1493 807.5C1490.5 803.333 1482.2 795.8 1469 799C1459.94 801.197 1461.35 803.676 1465.13 805.5C1466.85 806.333 1469.07 807.03 1471 807.5" stroke="black" stroke-width="5" stroke-linecap="round"/>
<path d="M1464 805L1508.5 762" stroke="black" stroke-width="5" stroke-linecap="round"/>
<path d="M1652.5 673.5C1662.67 670 1689.2 676.1 1714 728.5C1730.33 763 1752 777 1764.5 778.5" stroke="black" stroke-width="5" stroke-linecap="round"/>
<path d="M2059 686.5C2039.8 691.7 2011.33 737.5 1982 782.5L2050 794.5C2068.83 761.333 2077.47 739.74 2083 725C2090.5 705 2083 680 2059 686.5Z" fill="black"/>
<path d="M1901.5 761C1826.63 739.023 1781.79 759.566 1765.62 775.148C1763.54 777.149 1762.96 780.14 1763.54 782.967C1768.53 807.596 1763.82 839.47 1759.07 859.816C1757.7 865.688 1762.07 871.5 1768.1 871.5H2114.5C2116.45 871.5 2118.39 870.889 2119.54 869.321C2123 864.627 2127.5 853.557 2127.5 833.5C2129 817.5 2110 807.5 2093.5 803C2053.99 792.225 1981.9 784.6 1901.5 761Z" fill="black"/>
<path d="M221 419.171C277 392.171 316 406 296.5 423.671" stroke="black" stroke-width="5" stroke-linecap="round"/>
<path d="M186.84 889.884C221.001 761.974 221.999 713.382 216.478 606.781C154.831 648.596 56.6305 615.069 25.6093 600C7.76994 706.712 19.2866 910.038 45.1704 1034.54C55.1288 1050.82 76.5868 1042.45 86.071 1036.24L97.9262 949.782L111.56 1025.5C119.147 1038.16 141.593 1035.67 151.867 1032.85L186.84 889.884Z" fill="black"/>
<path d="M24.5 1065.22C21.6996 1056.82 41.1666 1061.72 49.9999 1065.22C49.9999 1072.82 68.6666 1078.72 77.9999 1080.72C41.9999 1078.22 26 1069.72 24.5 1065.22Z" fill="black"/>
<path d="M104.787 1057.51C98.7869 1051.91 109.287 1051.18 115.787 1052.01C117.787 1068.01 119.287 1063.51 128.787 1069.01C127.287 1071.51 110.787 1063.11 104.787 1057.51Z" fill="black"/>
<path d="M151.852 1042.53C155.002 1046.76 164.847 1055.21 174.299 1055.21C182.388 1055.21 185.523 1064.87 176.662 1069.69C161.894 1075.73 127.869 1072.95 117 1059.43V1040.72" stroke="black" stroke-width="5" stroke-linecap="round"/>
<path d="M82.6126 1047.72C85.3961 1050.15 92.5139 1055.24 98.7171 1056.21C106.471 1057.42 117.271 1066.53 111.243 1077.43C105.875 1087.12 93.9454 1085.1 86.7879 1082.88L58.754 1072.58C55.7717 1071.36 51 1069.54 51 1062.27C51 1055 51 1051.97 51 1051.36" stroke="black" stroke-width="5" stroke-linecap="round"/>
<path d="M1518 1249.66C1539.51 1239.33 1591.86 1219.32 1629.21 1221.96C1634.51 1222.18 1642.5 1224.47 1632.13 1231.85C1621.75 1239.24 1616.57 1243.07 1615.27 1244.06C1609.86 1248.67 1604.57 1258.44 1626.62 1260.55C1654.18 1263.19 1731.99 1234.49 1886 1255.6" stroke="black" stroke-width="5" stroke-linecap="round"/>
<path d="M1005 681.618C1014.94 676.848 1039.12 667.613 1056.37 668.831C1058.82 668.933 1062.52 669.988 1057.72 673.398C1052.93 676.808 1050.53 678.574 1049.93 679.03C1047.44 681.162 1044.99 685.667 1055.18 686.642C1067.91 687.86 1103.85 674.616 1175 684.358" stroke="black" stroke-width="5" stroke-linecap="round"/>
<path d="M801 1203.62C810.935 1198.85 835.12 1189.61 852.374 1190.83C854.821 1190.93 858.515 1191.99 853.722 1195.4C848.93 1198.81 846.533 1200.57 845.934 1201.03C843.438 1203.16 840.991 1207.67 851.176 1208.64C863.907 1209.86 899.855 1196.62 971 1206.36" stroke="black" stroke-width="5" stroke-linecap="round"/>
<path d="M1276.75 1371C1267.55 1355 1296.91 1352.67 1312.75 1353.5V1365L1364.25 1371C1338.91 1377.67 1285.95 1387 1276.75 1371Z" fill="black"/>
<path d="M1389.75 1349.5L1370.25 1369.5" stroke="black" stroke-width="5" stroke-linecap="round"/>
<path d="M1365.75 1308.5L1315.25 1305" stroke="black" stroke-width="5" stroke-linecap="round"/>
<path d="M1335.75 1292L1389.75 1294.5" stroke="black" stroke-width="5" stroke-linecap="round"/>
<path d="M1314.25 1305L1311.75 1363" stroke="black" stroke-width="5" stroke-linecap="round"/>
<path d="M1389.75 1295.5V1348.5" stroke="black" stroke-width="5" stroke-linecap="round"/>
<path d="M1370.25 1327V1369.5" stroke="black" stroke-width="5" stroke-linecap="round"/>
<path d="M1314.25 1305L1335.75 1292" stroke="black" stroke-width="5" stroke-linecap="round"/>
<path d="M1370.25 1369.5L1311.25 1363.5" stroke="black" stroke-width="5" stroke-linecap="round"/>
<path d="M1136 1279.5C1136.5 1265.5 1192.5 1270 1196 1270.5V1279.5L1213 1291.5C1187.17 1292.17 1135.6 1290.7 1136 1279.5Z" fill="black"/>
<path d="M1275 1278V1227" stroke="black" stroke-width="5" stroke-linecap="round"/>
<path d="M1231.5 1291V1235" stroke="black" stroke-width="5" stroke-linecap="round"/>
<path d="M1195.5 1278V1222" stroke="black" stroke-width="5" stroke-linecap="round"/>
<path d="M1195.5 1222L1235 1212" stroke="black" stroke-width="5" stroke-linecap="round"/>
<path d="M1275 1226.5L1231.5 1234.5" stroke="black" stroke-width="5" stroke-linecap="round"/>
<path d="M1231.5 1291.5L1275 1278.5" stroke="black" stroke-width="5" stroke-linecap="round"/>
<path d="M1275 1226.5L1235 1212" stroke="black" stroke-width="5" stroke-linecap="round"/>
<path d="M1195.5 1222.5L1232 1234.5" stroke="black" stroke-width="5" stroke-linecap="round"/>
<path d="M1241 1183.5C1241.5 1169.5 1297.5 1174 1301 1174.5V1183.5L1318 1195.5C1292.17 1196.17 1240.6 1194.7 1241 1183.5Z" fill="black"/>
<path d="M1380 1182V1131" stroke="black" stroke-width="5" stroke-linecap="round"/>
<path d="M1336.5 1195V1139" stroke="black" stroke-width="5" stroke-linecap="round"/>
<path d="M1300.5 1182V1126" stroke="black" stroke-width="5" stroke-linecap="round"/>
<path d="M1336.5 1195.5L1380 1182.5" stroke="black" stroke-width="5" stroke-linecap="round"/>
<path d="M1380 1130.5L1336.5 1138.5" stroke="black" stroke-width="5" stroke-linecap="round"/>
<path d="M1300.5 1126L1340 1116" stroke="black" stroke-width="5" stroke-linecap="round"/>
<path d="M1380 1130.5L1340 1116" stroke="black" stroke-width="5" stroke-linecap="round"/>
<path d="M1300.5 1126.5L1337 1138.5" stroke="black" stroke-width="5" stroke-linecap="round"/>
<path d="M1364.44 1079.36L1343.32 1112.43C1342.64 1113.5 1343.11 1114.92 1344.29 1115.38L1378.42 1128.4C1379.33 1128.74 1380.36 1128.38 1380.86 1127.54L1400.79 1093.56C1401.42 1092.49 1400.92 1091.1 1399.76 1090.67L1366.81 1078.56C1365.93 1078.23 1364.94 1078.56 1364.44 1079.36Z" stroke="black" stroke-width="5"/>
<path d="M1306.54 1073L1314.54 1091" stroke="black" stroke-width="5" stroke-linecap="round"/>
<path d="M1278.54 1083L1304.54 1105" stroke="black" stroke-width="5" stroke-linecap="round"/>
<path d="M1277.54 1112L1293.54 1121" stroke="black" stroke-width="5" stroke-linecap="round"/>
<path d="M1150.77 1006V985" stroke="black" stroke-width="5" stroke-linecap="round"/>
<path d="M1132 996.666L1143.45 1006" stroke="black" stroke-width="5" stroke-linecap="round"/>
<path d="M1158.41 1006L1167 992.333" stroke="black" stroke-width="5" stroke-linecap="round"/>
<path d="M561.77 935.998V915" stroke="black" stroke-width="5" stroke-linecap="round"/>
<path d="M543 926.666L554.45 935.998" stroke="black" stroke-width="5" stroke-linecap="round"/>
<path d="M569.41 935.998L578 922.333" stroke="black" stroke-width="5" stroke-linecap="round"/>
<path d="M952.77 582.998V562" stroke="black" stroke-width="5" stroke-linecap="round"/>
<path d="M934 573.666L945.45 582.998" stroke="black" stroke-width="5" stroke-linecap="round"/>
<path d="M960.41 582.998L969 569.333" stroke="black" stroke-width="5" stroke-linecap="round"/>
<path d="M1946.77 1132V1111" stroke="black" stroke-width="5" stroke-linecap="round"/>
<path d="M1928 1122.67L1939.45 1132" stroke="black" stroke-width="5" stroke-linecap="round"/>
<path d="M1954.41 1132L1963 1118.33" stroke="black" stroke-width="5" stroke-linecap="round"/>
</svg>
