<svg width="1453" height="1252" viewBox="0 0 1453 1252" fill="none" xmlns="http://www.w3.org/2000/svg">
<path d="M786.738 473.899C813.093 500.874 862.057 512.761 887.866 516.007C889.69 516.236 890.332 518.609 888.852 519.7L820.946 569.788C820.725 569.95 820.47 570.067 820.202 570.127C769.924 581.348 723.049 531.297 704.449 502.864C703.74 501.78 704.268 500.342 705.496 499.93L784.644 473.387C785.382 473.139 786.193 473.342 786.738 473.899Z" stroke="black" stroke-width="5" stroke-linecap="round"/>
<path d="M747.855 514.981C755.855 513.319 773.255 508.145 778.855 500.739" stroke="black" stroke-width="5" stroke-linecap="round"/>
<path d="M770.355 532.981C775.355 533.148 786.855 530.681 792.855 519.481" stroke="black" stroke-width="5" stroke-linecap="round"/>
<path d="M794.855 544.981C802.355 543.981 818.455 538.281 822.855 523.481" stroke="black" stroke-width="5" stroke-linecap="round"/>
<path d="M1227.18 168.837C1223.02 122.012 1243.29 97.3822 1253.94 90.9212C1219.48 110.341 1185.53 97.7192 1172.85 88.9812L1168.97 109.788C1145.36 112.17 1139.74 80.1672 1139.88 63.8682C1140.09 38.721 1167.91 7.67027 1223.25 20.1217C1278.59 32.5732 1308.96 78.3506 1317.23 99.6832C1356.85 88.7892 1399.42 118.435 1415.75 134.62C1432.63 151.42 1468.18 202.209 1443.22 258.917C1409.54 335.426 1319.96 316.427 1305.34 308.901C1254.82 282.899 1232.36 227.368 1227.18 168.837Z" fill="black"/>
<path d="M1151.46 160.208C1152.64 168.156 1155.58 174.95 1159.25 179.519C1162.97 184.141 1167.08 186.116 1170.72 185.578C1174.35 185.04 1177.71 181.957 1179.93 176.455C1182.12 171.017 1182.97 163.662 1181.79 155.714C1180.61 147.766 1177.67 140.972 1174 136.403C1170.28 131.78 1166.17 129.805 1162.53 130.343C1158.9 130.882 1155.54 133.964 1153.32 139.466C1151.13 144.904 1150.28 152.26 1151.46 160.208Z" stroke="black" stroke-width="5"/>
<path d="M1166.38 167.045C1163.82 167.423 1161.2 163.999 1160.52 159.396C1159.83 154.793 1161.35 150.754 1163.91 150.375C1166.47 149.996 1169.09 153.421 1169.78 158.024C1170.46 162.627 1168.94 166.666 1166.38 167.045Z" fill="black"/>
<path d="M1227.04 164.916L1183.76 160.991" stroke="black" stroke-width="5" stroke-linecap="round"/>
<path d="M1164.21 110.606C1160.47 118.131 1149.44 134.577 1137.93 143.781C1126.15 153.195 1125.15 165.195 1132.67 173.841L1144.39 187.443C1137.93 236.908 1147.46 273.537 1208.08 290.588" stroke="black" stroke-width="5" stroke-linecap="round"/>
<path d="M1208.8 210.033C1207.37 210.245 1206.04 209.256 1205.82 207.823C1205.61 206.391 1206.6 205.057 1208.03 204.845C1209.47 204.633 1210.8 205.622 1211.01 207.055C1211.22 208.487 1210.23 209.821 1208.8 210.033Z" fill="black"/>
<path d="M1218.2 234.088C1216.48 234.343 1214.91 233.388 1214.7 231.955C1214.49 230.522 1215.71 229.155 1217.43 228.9C1219.15 228.645 1220.71 229.6 1220.93 231.033C1221.14 232.465 1219.92 233.833 1218.2 234.088Z" fill="black"/>
<path d="M1195.33 230.055C1193.61 230.31 1192.05 229.355 1191.84 227.922C1191.62 226.49 1192.85 225.122 1194.57 224.867C1196.28 224.612 1197.85 225.567 1198.06 227C1198.27 228.432 1197.05 229.8 1195.33 230.055Z" fill="black"/>
<path d="M467.13 385.666L486.539 365.049C490.051 361.149 499.183 356.913 507.612 371.178C516.041 385.442 512.972 400.524 510.385 406.283" stroke="black" stroke-width="5" stroke-linecap="round"/>
<path d="M569.628 351.283C571.553 348.684 572.576 346.398 572.938 344.814C574.786 341.58 575.89 334.117 565.18 331.34C548.554 327.027 551.325 337.269 554.65 337.807C565.734 339.101 570.362 348.408 569.628 351.283Z" stroke="black" stroke-width="5" stroke-linecap="round"/>
<path d="M513.13 395.283C514.793 389.568 523.218 376.312 543.617 368.997C557.356 364.071 565.16 356.967 569.13 351.283" stroke="black" stroke-width="5" stroke-linecap="round"/>
<path d="M543.13 353.061C538.09 350.377 525.434 347.263 515.13 356.283" stroke="black" stroke-width="5" stroke-linecap="round"/>
<path d="M559.13 353.283C554.202 344.551 541.503 329.592 530.13 339.615" stroke="black" stroke-width="5" stroke-linecap="round"/>
<path d="M502.13 356.283C506.673 342.938 516.328 325.529 548.13 323.283" stroke="black" stroke-width="5" stroke-linecap="round"/>
<path d="M1028.47 360.05C1026.17 356.837 1025.01 353.912 1026.06 351.892C1029.11 346.02 1036.62 352.047 1039.99 355.795C1048.37 364.812 1064.51 380.485 1060.16 362.247C1055.81 344.008 1065.07 345.131 1086.73 367.394L1108.27 380.491" stroke="black" stroke-width="5" stroke-linecap="round"/>
<path d="M1030.23 388.646C1028.38 394.35 1031.35 407.552 1058.63 410.751C1068.95 411.961 1070.5 411.791 1080.18 410.974H1096.77" stroke="black" stroke-width="5" stroke-linecap="round"/>
<path d="M1046.77 377.234C1041.41 373.285 1032.87 366.116 1028.48 359.992C1023.71 359.937 1019.1 362.622 1026.45 372.006C1029.64 376.069 1035.06 381.387 1043.69 388.283" stroke="black" stroke-width="5" stroke-linecap="round"/>
<path d="M1043.68 388.341C1035.05 381.445 1029.63 376.127 1026.45 372.064C1021.9 373.345 1017.81 378.3 1030.23 388.646C1032.95 390.908 1036.45 393.429 1040.92 396.225" stroke="black" stroke-width="5" stroke-linecap="round"/>
<path d="M1305.13 318.906C1378.59 372.493 1369.8 439.319 1369.8 521.906" stroke="black" stroke-width="5" stroke-linecap="round"/>
<path d="M1303.13 319.815L1267.86 350.676C1266.72 351.679 1264.92 351.085 1264.59 349.598L1255.4 307.551C1255.06 305.992 1253.12 305.44 1252.01 306.588L1228.13 331.269" stroke="black" stroke-width="5" stroke-linecap="round"/>
<path d="M1228.13 294.906C1226.17 298.571 1223.37 304.528 1220.74 311.451C1217.14 320.954 1213.86 332.278 1213.57 341.997" stroke="black" stroke-width="5" stroke-linecap="round"/>
<path d="M1220.74 311.451L1140.13 357.906" stroke="black" stroke-width="5" stroke-linecap="round"/>
<path d="M1272.13 380.415C1260.09 396.731 1192.25 441.912 1143.44 392.339L1130.13 377.906" stroke="black" stroke-width="5" stroke-linecap="round"/>
<path d="M1239.13 539.906C1223.46 535.854 1149.13 495.151 1127.48 457.33" stroke="black" stroke-width="5" stroke-linecap="round"/>
<path d="M1133.29 408.163C1127.92 427.436 1126.41 443.705 1127.48 457.33C1115.54 449.135 1104.13 442.832 1104.13 416.988C1104.13 398.707 1117.44 382.949 1129.48 377.906" stroke="black" stroke-width="5" stroke-linecap="round"/>
<path d="M1233.13 364.906C1230.37 364.906 1228.13 362.22 1228.13 358.906C1228.13 355.592 1230.37 352.906 1233.13 352.906C1235.89 352.906 1238.13 355.592 1238.13 358.906C1238.13 362.22 1235.89 364.906 1233.13 364.906Z" fill="black"/>
<path d="M1226.13 393.906C1223.37 393.906 1221.13 391.22 1221.13 387.906C1221.13 384.592 1223.37 381.906 1226.13 381.906C1228.89 381.906 1231.13 384.592 1231.13 387.906C1231.13 391.22 1228.89 393.906 1226.13 393.906Z" fill="black"/>
<path d="M1173.01 227.906C1173.66 231.806 1171.98 239.866 1160.13 240.906" stroke="black" stroke-width="5" stroke-linecap="round"/>
<path d="M834.393 633.198L740.393 637.198" stroke="black" stroke-width="5" stroke-linecap="round"/>
<path d="M835.393 633.198L959.393 644.198" stroke="black" stroke-width="5" stroke-linecap="round"/>
<path d="M960.393 644.198L935.393 760.198" stroke="black" stroke-width="5" stroke-linecap="round"/>
<path d="M935.393 760.198L832.393 778.198" stroke="black" stroke-width="5" stroke-linecap="round"/>
<path d="M832.393 777.198V654.198" stroke="black" stroke-width="5" stroke-linecap="round"/>
<path d="M832.393 655.198L959.393 645.198" stroke="black" stroke-width="5" stroke-linecap="round"/>
<path d="M832.393 655.198L740.393 637.198" stroke="black" stroke-width="5" stroke-linecap="round"/>
<path d="M738.393 637.198L744.393 729.198" stroke="black" stroke-width="5" stroke-linecap="round"/>
<path d="M744.393 729.198L832.393 778.198" stroke="black" stroke-width="5" stroke-linecap="round"/>
<path d="M833.393 633.198V653.198" stroke="black" stroke-width="5" stroke-linecap="round"/>
<path d="M907.293 681.304L887.088 682.554C882.403 682.844 878.839 686.877 879.129 691.562L879.314 694.553C879.604 699.238 883.637 702.802 888.323 702.512L908.527 701.262C913.213 700.972 916.776 696.939 916.486 692.254L916.301 689.263C916.011 684.578 911.978 681.014 907.293 681.304Z" stroke="black" stroke-width="3"/>
<path d="M831.673 804.198L741.893 730.698L831.893 780.698L937.893 762.198L947.893 763.698L831.673 804.198Z" fill="black"/>
<path d="M1149.39 695.698C1134.39 721.198 1156.06 806.365 1172.39 869.698C1177.89 910.698 1128.06 924.698 1118.39 904.198C1096.23 857.198 1053.39 780.998 1029.39 714.198C1005.39 647.398 1091.89 591.198 1159.39 591.198C1176.39 591.031 1204.39 593.198 1224.89 595.698" stroke="black" stroke-width="5" stroke-linecap="round"/>
<path d="M1159.39 565.698C1098.39 559.698 975.992 546.598 952.392 714.198C922.892 923.698 938.892 881.698 966.892 921.198C989.292 952.798 1025.56 816.031 1040.89 743.698" stroke="black" stroke-width="5" stroke-linecap="round"/>
<path d="M1044.39 357.198L1038.89 338.698L956.393 295.198L1008.39 467.698L1090.39 493.198L1068.89 431.698" stroke="black" stroke-width="5" stroke-linecap="round"/>
<path d="M1194.39 986.698C1219.59 967.498 1172.56 974.032 1145.89 979.698L1122.39 986.698C1143.19 1001.5 1179.06 992.863 1194.39 986.698Z" fill="black"/>
<path d="M984.893 955.698C990.083 948.676 966.893 945.198 946.893 952.931L923.393 960.198C938.226 967.532 976.393 967.198 984.893 955.698Z" fill="black"/>
<path d="M1447.89 490.698C1467.09 582.698 1419.89 671.698 1393.89 704.698C1360.28 723.469 1326.96 732.414 1295.89 735.027C1228.99 740.655 1172.57 716.909 1146.39 698.698C1145.39 687.032 1163.99 666.598 1246.39 678.198C1314.39 521.398 1409.06 487.865 1447.89 490.698Z" fill="black"/>
<path d="M932.393 909.698C931.393 919.531 921.293 939.198 888.892 939.198C848.392 939.198 882.393 962.198 918.893 959.698C948.093 957.698 957.393 945.198 958.393 939.198" stroke="black" stroke-width="5" stroke-linecap="round"/>
<path d="M1132.93 938.419C1136.47 950.408 1132.71 960.276 1097.67 974.377C1053.87 992.003 1112.11 991.493 1144.96 979.18C1177.82 966.871 1182.41 957.695 1169.52 905.198" stroke="black" stroke-width="5" stroke-linecap="round"/>
<path d="M1285.39 1043.2C1343.93 1043.2 1391.39 1034.02 1391.39 1022.7C1391.39 1011.38 1343.93 1002.2 1285.39 1002.2C1226.85 1002.2 1179.39 1011.38 1179.39 1022.7C1179.39 1034.02 1226.85 1043.2 1285.39 1043.2Z" fill="black"/>
<path d="M1136.89 501.698C1132.89 510.365 1126.09 532.398 1130.89 551.198" stroke="black" stroke-width="5" stroke-linecap="round"/>
<path d="M1273.39 1002.7V728.698H1296.89V1002.7H1273.39Z" fill="black"/>
<path d="M456.393 414.662C456.393 370.033 444.686 348.277 428.519 326.52" stroke="black" stroke-width="5" stroke-linecap="round"/>
<path d="M274.657 598.198C261.184 519.54 269.64 468.774 274.657 430.84C282.416 372.171 296.52 348.442 306.339 333.216C318.604 314.198 345.998 297.018 364.41 303.649" stroke="black" stroke-width="5" stroke-linecap="round"/>
<path d="M426.583 304.72C436.321 298.727 509.573 304.504 523.815 212.36C548.197 212.646 561.455 192.673 542.85 184.127C523.018 173.9 524.507 155.123 528.1 144.06C533.812 129.552 534.157 114.319 532.926 111.133" stroke="black" stroke-width="5" stroke-linecap="round"/>
<path d="M501.139 183.087C504.246 182.992 506.645 178.968 506.497 174.098C506.349 169.228 503.71 165.356 500.602 165.451C497.494 165.545 495.095 169.57 495.243 174.44C495.392 179.31 498.031 183.181 501.139 183.087Z" fill="black"/>
<path d="M479.568 165.842C479.697 159.888 483.288 148.132 496.622 148.731" stroke="black" stroke-width="5" stroke-linecap="round"/>
<path d="M456.327 234.792C463.804 246.297 472.012 249.564 487.956 242.14" stroke="black" stroke-width="5" stroke-linecap="round"/>
<path d="M399.881 152.705C398.149 156.509 396.697 165.144 404.75 169.254" stroke="black" stroke-width="5" stroke-linecap="round"/>
<path d="M314.065 113.643C304.579 165.545 334.261 204.614 355.779 234.649C378.76 222.232 416.427 192.707 401.981 189.52C386.797 186.171 370.782 144.754 385.527 132.085C402.828 117.22 418.422 139.711 421.393 156.764L435.327 132.668C431.387 115.814 429.842 86.2494 455.182 102.824C480.523 119.397 517.693 115.056 533.111 110.813C563.51 89.0537 610.741 38.2992 556.465 9.35554C511.322 -14.7177 452.578 15.7173 416.72 43.0649C392.441 36.6553 326.999 42.8776 314.065 113.643Z" fill="black"/>
<path d="M357.466 231.171C368.44 244.383 373.891 255.353 373.213 278.079" stroke="black" stroke-width="5" stroke-linecap="round"/>
<path d="M625.383 410.642C625.258 415.574 619.52 427.368 597.57 435.086C575.62 442.805 561.952 439.404 557.861 436.739" stroke="black" stroke-width="5" stroke-linecap="round"/>
<path d="M635.915 391.548C639.798 393.208 643.989 398.824 629.692 408.012L625.384 410.642L617.894 415.216" stroke="black" stroke-width="5" stroke-linecap="round"/>
<path d="M605.627 397.393C611.983 394.272 622.755 387.78 626.6 381.675C630.169 379.636 637.674 377.359 639.138 384.558C639.58 386.73 638.246 389.136 635.914 391.548C630.519 397.128 619.782 402.734 613.354 405.519" stroke="black" stroke-width="5" stroke-linecap="round"/>
<path d="M548.088 412.441C549.578 403.706 552.96 385.835 562.085 377.904C564.445 375.954 568.964 371.057 568.162 367.073C567.16 362.094 578.213 360.087 578.295 371.487C578.376 382.887 569.9 385.419 578.46 388.827C585.308 391.554 605.636 379.922 614.943 373.765C618.133 371.465 625.159 368.674 627.741 375.907C628.381 377.698 627.866 379.666 626.6 381.675C622.755 387.78 611.983 394.272 605.627 397.393" stroke="black" stroke-width="5" stroke-linecap="round"/>
<path d="M399.189 360.198C409.455 438.813 435.084 445.882 446.615 439.59C469.676 429.042 520.487 411.72 539.234 426.821C557.981 441.922 535.514 462.353 521.937 470.681C476.93 502.697 379.215 555.181 348.416 508.989C317.618 462.797 315.498 404.613 318.287 381.295" stroke="black" stroke-width="5" stroke-linecap="round"/>
<path d="M365.417 304.481C362.504 294.321 360.797 274.942 377.271 278.708C397.862 283.416 439.218 313.901 436.144 325.189" stroke="black" stroke-width="5" stroke-linecap="round"/>
<path d="M452.393 602.197L389.393 613.197C489.393 604.697 516.63 609.93 529.393 641.196C542.156 672.463 532.393 767.696 519.393 849.696C511.989 905.296 554.393 917.696 571.893 907.696C585.838 906.645 615.35 898.247 602.965 858.99C619.488 817.107 629.76 768.312 638.367 736.87C692.534 604.335 509.125 600.322 506.403 600.197C506.4 600.197 506.397 600.197 506.393 600.197C484.893 599.16 473.893 599.197 452.393 602.197Z" fill="black"/>
<path d="M577.847 936.198C566.647 930.598 579.18 929.198 586.847 929.198C594.047 938.398 615.559 940.531 624.893 939.698C614.893 945.198 591.847 943.198 577.847 936.198Z" fill="black"/>
<path d="M604.741 903.198C605.447 910.055 612.575 923.77 635.44 923.77C664.022 923.77 640.028 939.809 614.269 938.066C593.662 936.671 587.098 927.954 586.393 923.77" stroke="black" stroke-width="5" stroke-linecap="round"/>
<path d="M518.893 973.698C483.362 966.248 512.564 962.531 528.897 959.698C555.897 973.198 577.565 974.698 588.898 975.698C579.231 981.698 549.89 980.198 518.893 973.698Z" fill="black"/>
<path d="M564.436 927.833C561.031 939.364 564.647 948.855 598.351 962.418C640.48 979.37 584.465 978.876 552.86 967.037C542.871 963.591 522.293 955.798 519.893 952.198" stroke="black" stroke-width="5" stroke-linecap="round"/>
<path d="M85.4331 338.047C88.9194 326.764 114.992 300.098 191.392 283.698C221.892 277.151 245.192 330.498 272.392 437.698" stroke="black" stroke-width="5" stroke-linecap="round"/>
<path d="M85.4331 338.046C89.4447 327.986 99.5302 323.885 117.095 317.394C140.956 308.577 156.711 328.416 161.606 339.437C181.337 386.278 227.225 496.124 252.922 560.783C278.619 625.442 313.892 619.563 350.203 619.563C520.904 600.276 519.527 619.564 530.54 651.25C538.922 675.366 526.869 794.987 519.527 851.012C473.64 856.156 259.634 850.094 195.392 851.012C84.8035 645.739 91.8573 408.78 85.4331 370.664C82.7921 354.995 82.6327 345.069 85.4331 338.046Z" stroke="black" stroke-width="5" stroke-linecap="round"/>
<path d="M448.742 521.198C441.409 537.89 438.072 576.058 483.392 595.198" stroke="black" stroke-width="5" stroke-linecap="round"/>
<path d="M511.319 871.198C514.788 903.41 516.407 966.214 495.13 959.733C473.853 953.252 460.44 902.638 456.393 878.142" stroke="black" stroke-width="5" stroke-linecap="round"/>
<path d="M195.338 869.198C192.414 908.67 195.337 960.094 217.605 965.097C231.937 968.317 251.344 893.659 255.393 869.198" stroke="black" stroke-width="5" stroke-linecap="round"/>
<path d="M248.393 900.332C255.523 936.286 285.987 954.615 280.802 867.198" stroke="black" stroke-width="5" stroke-linecap="round"/>
<path d="M141.428 1242.62C132.228 1226.62 161.595 1224.28 177.428 1225.12V1236.62L228.928 1242.62C203.595 1249.28 150.628 1258.62 141.428 1242.62Z" fill="black"/>
<path d="M254.427 1221.12L234.927 1241.12" stroke="black" stroke-width="5" stroke-linecap="round"/>
<path d="M230.427 1180.12L179.927 1176.62" stroke="black" stroke-width="5" stroke-linecap="round"/>
<path d="M200.427 1163.62L254.427 1166.12" stroke="black" stroke-width="5" stroke-linecap="round"/>
<path d="M178.927 1176.62L176.427 1234.62" stroke="black" stroke-width="5" stroke-linecap="round"/>
<path d="M254.427 1167.12V1220.12" stroke="black" stroke-width="5" stroke-linecap="round"/>
<path d="M234.927 1198.62V1241.12" stroke="black" stroke-width="5" stroke-linecap="round"/>
<path d="M178.927 1176.62L200.427 1163.62" stroke="black" stroke-width="5" stroke-linecap="round"/>
<path d="M234.927 1241.12L175.927 1235.12" stroke="black" stroke-width="5" stroke-linecap="round"/>
<path d="M0.683466 1151.12C1.18347 1137.12 57.1835 1141.62 60.6835 1142.12V1151.12L77.6835 1163.12C51.8501 1163.78 0.283466 1162.32 0.683466 1151.12Z" fill="black"/>
<path d="M139.683 1149.62V1098.62" stroke="black" stroke-width="5" stroke-linecap="round"/>
<path d="M96.1831 1162.62V1106.62" stroke="black" stroke-width="5" stroke-linecap="round"/>
<path d="M60.1831 1149.62V1093.62" stroke="black" stroke-width="5" stroke-linecap="round"/>
<path d="M60.1831 1093.62L99.6831 1083.62" stroke="black" stroke-width="5" stroke-linecap="round"/>
<path d="M139.683 1098.12L96.1831 1106.12" stroke="black" stroke-width="5" stroke-linecap="round"/>
<path d="M96.1831 1163.12L139.683 1150.12" stroke="black" stroke-width="5" stroke-linecap="round"/>
<path d="M139.683 1098.12L99.6831 1083.62" stroke="black" stroke-width="5" stroke-linecap="round"/>
<path d="M60.1831 1094.12L96.6831 1106.12" stroke="black" stroke-width="5" stroke-linecap="round"/>
<path d="M228.683 1104.12C229.183 1090.12 285.183 1094.62 288.683 1095.12V1104.12L305.683 1116.12C279.85 1116.78 228.283 1115.32 228.683 1104.12Z" fill="black"/>
<path d="M367.683 1102.62V1051.62" stroke="black" stroke-width="5" stroke-linecap="round"/>
<path d="M324.183 1115.62V1059.62" stroke="black" stroke-width="5" stroke-linecap="round"/>
<path d="M288.183 1102.62V1046.62" stroke="black" stroke-width="5" stroke-linecap="round"/>
<path d="M324.183 1116.12L367.683 1103.12" stroke="black" stroke-width="5" stroke-linecap="round"/>
<path d="M367.683 1051.12L324.183 1059.12" stroke="black" stroke-width="5" stroke-linecap="round"/>
<path d="M288.183 1046.62L327.683 1036.62" stroke="black" stroke-width="5" stroke-linecap="round"/>
<path d="M367.683 1051.12L327.683 1036.62" stroke="black" stroke-width="5" stroke-linecap="round"/>
<path d="M288.183 1047.12L324.683 1059.12" stroke="black" stroke-width="5" stroke-linecap="round"/>
<path d="M352.116 999.974L331.002 1033.05C330.32 1034.12 330.791 1035.54 331.975 1035.99L366.1 1049.01C367.012 1049.36 368.043 1049 368.538 1048.16L388.471 1014.18C389.101 1013.11 388.606 1011.72 387.436 1011.29L354.493 999.173C353.611 998.849 352.622 999.182 352.116 999.974Z" stroke="black" stroke-width="5"/>
<path d="M294.224 993.618L302.224 1011.62" stroke="black" stroke-width="5" stroke-linecap="round"/>
<path d="M266.224 1003.62L292.224 1025.62" stroke="black" stroke-width="5" stroke-linecap="round"/>
<path d="M265.224 1032.62L281.224 1041.62" stroke="black" stroke-width="5" stroke-linecap="round"/>
</svg>
