<svg width="1946" height="1103" viewBox="0 0 1946 1103" fill="none" xmlns="http://www.w3.org/2000/svg">
<path d="M1398.59 389.13C1444.11 306.146 1408.52 272.801 1387.1 256.841C1389.63 319.684 1344.99 352.656 1322.35 361.286L1326.2 383.212C1327.88 371.452 1378.47 378.04 1398.59 389.13Z" fill="black"/>
<path d="M1123.49 363.45C1153.02 391.503 1178.33 391.105 1189.86 392.404C1229.01 383.237 1241.07 384.417 1256.78 389L1253.63 344.5C1232.31 329.099 1220.24 304.767 1215.29 293.005C1209.73 297.704 1202.51 295.916 1199.59 294.435C1195.83 291.991 1188.63 282.797 1189.86 265.563C1191.09 248.329 1203.6 252.956 1209.71 257.423L1240.2 260.709C1238.92 232.216 1256.48 222.708 1265.42 221.515C1258.39 205.731 1270.96 198.825 1277.58 196.112C1287.07 207.741 1299.5 212.426 1304.76 214.605C1358.27 228.604 1390.94 209.438 1406.01 185.516C1422.38 161.368 1419.73 104.662 1373.43 90.857C1358.29 85.0312 1322.4 80.2545 1299.95 107.754C1233.86 83.466 1202.58 152.978 1194 178.22L1184.08 201.236C1097.95 219.557 1090.37 301.019 1105.5 336.696C1112.36 352.871 1113.26 353.728 1123.04 363.019L1123.49 363.45Z" fill="black"/>
<path d="M1240.36 261.153C1243.8 280.71 1260.66 293.607 1277.57 290.635C1294.49 287.664 1305.94 269.793 1302.51 250.236C1299.07 230.679 1282.21 217.782 1265.3 220.753C1248.38 223.725 1236.93 241.596 1240.36 261.153Z" stroke="black" stroke-width="5"/>
<path d="M1323.65 258.486C1327.08 278.044 1343.94 290.941 1360.86 287.969C1377.77 284.998 1389.24 267.127 1385.8 247.57C1382.37 228.013 1365.51 215.116 1348.59 218.087C1331.68 221.058 1320.21 238.929 1323.65 258.486Z" stroke="black" stroke-width="5"/>
<path d="M1322.95 251.142L1302.29 252.421" stroke="black" stroke-width="5" stroke-linecap="round"/>
<path d="M1311.39 271.277C1317.45 286.832 1329.83 299.814 1316.14 309.665" stroke="black" stroke-width="5" stroke-linecap="round"/>
<path d="M1367.62 284.86C1362.28 285.799 1357.19 282.229 1356.25 276.886C1355.31 271.544 1358.88 266.452 1364.23 265.514C1369.57 264.575 1374.66 268.145 1375.6 273.488C1376.54 278.83 1372.97 283.922 1367.62 284.86Z" fill="black"/>
<path d="M1285.62 287.299C1280.28 288.238 1275.19 284.668 1274.25 279.325C1273.31 273.983 1276.88 268.891 1282.23 267.953C1287.57 267.014 1292.66 270.584 1293.6 275.927C1294.54 281.269 1290.97 286.361 1285.62 287.299Z" fill="black"/>
<path d="M1202 269.219C1200.95 272.063 1199.93 278.624 1204.27 282.117" stroke="black" stroke-width="5" stroke-linecap="round"/>
<path d="M1377.54 212.65C1389.88 236.188 1400.97 293.699 1351.71 343.302C1302.46 392.906 1249.66 346.384 1229.41 316.922L1215.09 292.181C1209.15 297.436 1196.11 302.165 1191.51 279.039C1186.92 255.914 1195.98 252.77 1201.09 254.089C1203.86 254.711 1209.93 257.457 1212.04 263.466" stroke="black" stroke-width="5" stroke-linecap="round"/>
<path d="M1240.24 259.843L1206.42 256.479" stroke="black" stroke-width="5" stroke-linecap="round"/>
<path d="M1276.52 254.34C1271.17 255.101 1260.54 259.379 1260.72 270.401" stroke="black" stroke-width="5" stroke-linecap="round"/>
<path d="M1372.43 247.902C1368.36 246.111 1358.39 243.975 1351.14 249.763" stroke="black" stroke-width="5" stroke-linecap="round"/>
<path d="M619.134 910L631.134 889.5M590.134 893L602.134 910L590.134 893ZM610.634 910V889.5V910Z" stroke="black" stroke-width="5" stroke-linecap="round"/>
<path d="M1375.13 1082.85C1408.3 1067.19 1489.03 1036.85 1546.63 1040.85C1554.8 1041.19 1567.13 1044.65 1551.13 1055.85C1535.13 1067.05 1527.13 1072.85 1525.13 1074.35C1516.8 1081.35 1508.63 1096.15 1542.63 1099.35C1585.13 1103.35 1705.13 1059.85 1942.63 1091.85" stroke="black" stroke-width="5" stroke-linecap="round"/>
<path d="M479.134 1045.84C494.447 1038.69 531.719 1024.83 558.312 1026.66C562.082 1026.81 567.776 1028.39 560.389 1033.51C553.002 1038.62 549.309 1041.27 548.386 1041.96C544.538 1045.15 540.768 1051.91 556.465 1053.38C576.086 1055.2 631.487 1035.34 741.134 1049.95" stroke="black" stroke-width="5" stroke-linecap="round"/>
<path d="M1320.5 336.5C1316.97 332.676 1306.03 326.766 1290.5 333.719" stroke="black" stroke-width="5" stroke-linecap="round"/>
<path d="M1254.63 389.5C1207.13 379.5 1117.33 395 1080.13 533C1033.63 705.5 1229.13 736.5 1302.63 684.5C1316.3 671.5 1322.63 642.5 1272.63 630.5C1210.13 615.5 1187.92 626 1163.63 533" stroke="black" stroke-width="5" stroke-linecap="round"/>
<path d="M1438.42 963.5C1419.16 953.095 1424.64 930.408 1430.28 919.224C1430.59 918.615 1431.41 918.527 1431.89 919.014C1452.72 940.253 1478.09 929.58 1488.62 921.241C1488.82 921.084 1489.05 921.009 1489.31 921.028C1503.81 922.135 1534.82 929.797 1545.92 952C1559.92 980 1463.42 977 1438.42 963.5Z" fill="black"/>
<path d="M1369.92 993.5C1294.32 989.9 1288.09 950.667 1294.42 931.5C1324.02 964.7 1355.76 949.667 1367.92 938C1381.92 943.2 1396.99 952.179 1401.92 957C1423.42 978 1404.42 997 1369.92 993.5Z" fill="black"/>
<path d="M1174.63 568.5C1187.63 532.5 1220.13 490 1269.13 493.5C1308.33 496.3 1322.93 509 1329.13 524.5C1335.93 541.5 1336.63 551 1344.63 619.5" stroke="black" stroke-width="5" stroke-linecap="round"/>
<path d="M1386.13 804C1395.63 837.833 1404.03 912.9 1361.63 942.5C1308.63 979.5 1247.63 897.5 1222.13 761" stroke="black" stroke-width="5" stroke-linecap="round"/>
<path d="M1332.13 529.999C1340.96 514.166 1373.73 483.501 1416.13 505.5C1434.29 514.926 1464.13 555 1474.13 629" stroke="black" stroke-width="5" stroke-linecap="round"/>
<path d="M1399.13 386.5C1449.63 409.5 1477.13 438 1505.13 525.5C1525.8 578.333 1551.53 691 1489.13 719C1470.63 726.167 1437.93 724.4 1461.13 668C1466.48 655 1477.13 645.5 1473.63 626" stroke="black" stroke-width="5" stroke-linecap="round"/>
<path d="M1399.9 724.907C1392.3 723.823 1379.71 721.283 1371.95 717.705C1367.87 715.828 1365.13 713.666 1365.13 711.279C1365.13 704.341 1376.04 706.323 1381.49 708.181C1394.9 712.517 1419.81 719.298 1405.63 704.431C1391.45 689.564 1401.54 686.137 1435.63 696.378L1447.27 700.901" stroke="black" stroke-width="5" stroke-linecap="round"/>
<path d="M1371.95 717.705C1367.03 719.957 1363.73 724.685 1376.27 729.862C1381.7 732.104 1390.1 734.43 1402.63 736.676" stroke="black" stroke-width="5" stroke-linecap="round"/>
<path d="M1389 743.461C1390.14 749.665 1400.23 760.51 1429.91 750.304C1441.14 746.443 1442.64 745.536 1452.14 740.094C1456.7 737.012 1464.97 730.495 1466.01 724.586" stroke="black" stroke-width="5" stroke-linecap="round"/>
<path d="M1376.27 729.862C1372.29 733.251 1370.74 739.837 1388.99 743.461C1392.98 744.253 1397.92 744.904 1403.99 745.349" stroke="black" stroke-width="5" stroke-linecap="round"/>
<path d="M1383.82 687.378C1381.91 694.08 1374.92 706.9 1362.26 704.56C1346.44 701.635 1313.17 694.169 1303.13 692.626" stroke="black" stroke-width="5" stroke-linecap="round"/>
<path d="M1403.46 660.744C1408.55 669.174 1405.91 674.586 1392.64 682.55C1389.64 684.349 1386.67 685.956 1383.82 687.378C1374.06 692.252 1365.68 694.959 1362.08 695.813" stroke="black" stroke-width="5" stroke-linecap="round"/>
<path d="M1398.01 646.532C1403.65 644.54 1412.26 644.773 1403.46 660.744C1403.12 661.361 1402.01 662.586 1397.49 666.26L1374.09 681.898" stroke="black" stroke-width="5" stroke-linecap="round"/>
<path d="M1315.63 650.126C1319.58 638.826 1330.49 625.991 1343.8 620.868C1356.13 616.126 1362.08 623.126 1357.63 627.685C1345.63 637.626 1346.49 651.519 1354.66 651.665C1362.84 651.811 1378.91 637.672 1385.93 630.584C1389.42 626.555 1397.31 621.604 1400.89 634.037C1402.09 638.184 1400.73 642.468 1398.01 646.532C1392.58 654.653 1381.72 661.896 1374.96 665.414" stroke="black" stroke-width="5" stroke-linecap="round"/>
<path d="M1263.79 387.561C1275.72 394.217 1302.35 403.536 1313.36 387.561C1327.13 367.592 1339.53 391.276 1334.02 406.601C1328.51 421.926 1281.76 447.434 1250.36 391.484" stroke="black" stroke-width="5" stroke-linecap="round"/>
<path d="M1284.63 423.739C1274.96 428.573 1256.53 443.939 1260.13 466.739" stroke="black" stroke-width="5" stroke-linecap="round"/>
<path d="M1294.87 454.239C1280.26 473.673 1263.62 477.67 1257.13 477.239" stroke="black" stroke-width="5" stroke-linecap="round"/>
<path d="M1308.63 425.239C1317.13 432.406 1331.13 451.639 1325.13 477.239" stroke="black" stroke-width="5" stroke-linecap="round"/>
<path d="M1291.13 427.739C1290.05 433.791 1290.28 444.062 1294.87 454.239C1298.74 462.841 1305.72 471.376 1317.63 477.239" stroke="black" stroke-width="5" stroke-linecap="round"/>
<path d="M1498.13 718.5C1515.13 834.5 1523.63 913.5 1471.63 929.5C1419.63 945.5 1399.63 857.5 1386.13 804L1375.13 754.5" stroke="black" stroke-width="5" stroke-linecap="round"/>
<path d="M1096.64 655C1085.47 753.833 1109.04 947.6 1292.64 932" stroke="black" stroke-width="5" stroke-linecap="round"/>
<path d="M40.6345 844.5C-148.998 701.643 393.468 709.333 554.134 692L554.135 807.5L941.135 913C460.137 958.001 190.635 957.5 40.6345 844.5Z" fill="black"/>
<path d="M1122.63 3L556.634 13L941.134 63.5H1300.63H1622.63L1122.63 3Z" stroke="black" stroke-width="5" stroke-linecap="round"/>
<path d="M556.634 13V805.5L941.134 910.5V752V63.5" stroke="black" stroke-width="5" stroke-linecap="round"/>
<path d="M941.134 752L1095.13 749" stroke="black" stroke-width="5" stroke-linecap="round"/>
<path d="M941.134 910.5L1166.63 901" stroke="black" stroke-width="5" stroke-linecap="round"/>
<path d="M1300.63 63.5V110" stroke="black" stroke-width="5" stroke-linecap="round"/>
<path d="M1622.63 63.5V883.5H1509.13" stroke="black" stroke-width="5" stroke-linecap="round"/>
<path d="M979.924 1027V994" stroke="black" stroke-width="5" stroke-linecap="round"/>
<path d="M950.924 1012L968.924 1027" stroke="black" stroke-width="5" stroke-linecap="round"/>
<path d="M992.924 1027L1005.92 1006" stroke="black" stroke-width="5" stroke-linecap="round"/>
<path d="M1763.92 815V788" stroke="black" stroke-width="5" stroke-linecap="round"/>
<path d="M1739.92 803L1754.92 815" stroke="black" stroke-width="5" stroke-linecap="round"/>
<path d="M1773.92 815L1784.92 797" stroke="black" stroke-width="5" stroke-linecap="round"/>
</svg>
