<svg width="1240" height="1072" viewBox="0 0 1240 1072" fill="none" xmlns="http://www.w3.org/2000/svg">
<path d="M767.532 632.915V717.915" stroke="black" stroke-width="5" stroke-linecap="round"/>
<path d="M831.532 642.915V723.915" stroke="black" stroke-width="5" stroke-linecap="round"/>
<path d="M576.104 619.323L589.512 862.964C589.803 868.266 594.187 872.415 599.497 872.415H973.532C979.055 872.415 983.532 867.938 983.532 862.415V613.551C983.532 607.975 978.972 603.476 973.397 603.551L585.955 608.774C580.27 608.851 575.792 613.646 576.104 619.323Z" fill="black"/>
<rect x="587.532" y="875.915" width="396" height="19" rx="9.5" fill="black"/>
<path d="M832.532 497.915C867.365 497.415 944.032 523.915 974.532 607.415" stroke="black" stroke-width="5" stroke-linecap="round"/>
<path d="M756.032 497.415C676.532 512.915 638.532 546.915 608.532 612.415" stroke="black" stroke-width="5" stroke-linecap="round"/>
<path d="M1022.03 576.5L1041.53 544" stroke="black" stroke-width="5" stroke-linecap="round"/>
<path d="M1041.53 585.5L1068.03 563.5" stroke="black" stroke-width="5" stroke-linecap="round"/>
<path d="M1045.53 600.5C1050.7 602.5 1062.43 604.4 1068.03 596" stroke="black" stroke-width="5" stroke-linecap="round"/>
<path d="M534.032 570.415L504.032 539.415" stroke="black" stroke-width="5" stroke-linecap="round"/>
<path d="M564.532 565.415L546.532 518.915" stroke="black" stroke-width="5" stroke-linecap="round"/>
<path d="M526.532 587.915L504.032 579.415" stroke="black" stroke-width="5" stroke-linecap="round"/>
<path d="M512.532 848.69C517.581 848.519 523.217 848.283 529.492 847.969C568.01 846.044 567.273 819.236 561.66 804.603C561.24 803.51 560.563 802.513 559.744 801.677C523.442 764.558 491.477 776.281 478.706 787.816C477.883 788.56 477.229 789.506 476.749 790.506C456.375 832.968 463.693 846.01 471.404 847.759C472.758 848.066 474.166 848.213 475.542 848.396C479.853 848.97 490.734 849.43 512.532 848.69ZM512.532 848.69C510.198 839.599 508.432 817.115 520.032 799.915" stroke="black" stroke-width="5" stroke-linecap="round"/>
<path d="M438.032 827.915H330.032" stroke="black" stroke-width="5" stroke-linecap="round"/>
<path d="M1122.03 827.915H1236.53" stroke="black" stroke-width="5" stroke-linecap="round"/>
<path d="M994.532 663.5C1013.03 692.5 1034.03 727 994.532 791.915" stroke="black" stroke-width="5" stroke-linecap="round"/>
<path d="M532.779 1063C523.579 1047 552.946 1044.67 568.779 1045.5V1057L620.279 1063C594.946 1069.67 541.979 1079 532.779 1063Z" fill="black"/>
<path d="M645.778 1041.5L626.278 1061.5" stroke="black" stroke-width="5" stroke-linecap="round"/>
<path d="M621.778 1000.5L571.278 997" stroke="black" stroke-width="5" stroke-linecap="round"/>
<path d="M591.778 984L645.778 986.5" stroke="black" stroke-width="5" stroke-linecap="round"/>
<path d="M570.278 997L567.778 1055" stroke="black" stroke-width="5" stroke-linecap="round"/>
<path d="M645.778 987.5V1040.5" stroke="black" stroke-width="5" stroke-linecap="round"/>
<path d="M626.278 1019V1061.5" stroke="black" stroke-width="5" stroke-linecap="round"/>
<path d="M570.278 997L591.778 984" stroke="black" stroke-width="5" stroke-linecap="round"/>
<path d="M626.278 1061.5L567.278 1055.5" stroke="black" stroke-width="5" stroke-linecap="round"/>
<path d="M392.034 971.5C392.534 957.5 448.534 962 452.034 962.5V971.5L469.034 983.5C443.201 984.167 391.634 982.7 392.034 971.5Z" fill="black"/>
<path d="M531.034 970V919" stroke="black" stroke-width="5" stroke-linecap="round"/>
<path d="M487.534 983V927" stroke="black" stroke-width="5" stroke-linecap="round"/>
<path d="M451.534 970V914" stroke="black" stroke-width="5" stroke-linecap="round"/>
<path d="M451.534 914L491.034 904" stroke="black" stroke-width="5" stroke-linecap="round"/>
<path d="M531.034 918.5L487.534 926.5" stroke="black" stroke-width="5" stroke-linecap="round"/>
<path d="M487.534 983.5L531.034 970.5" stroke="black" stroke-width="5" stroke-linecap="round"/>
<path d="M531.034 918.5L491.034 904" stroke="black" stroke-width="5" stroke-linecap="round"/>
<path d="M451.534 914.5L488.034 926.5" stroke="black" stroke-width="5" stroke-linecap="round"/>
<path d="M833.032 500.415C837.532 487.415 833.432 478.667 829.432 477C805.432 499 769.032 490.833 755.532 477.5C750.732 481.9 753.532 494.915 755.532 498.915C781.532 527.715 818.532 511.581 833.032 500.415Z" fill="black"/>
<path d="M726.532 580.415L734.562 568.089C742.388 556.077 757.62 551.281 770.917 556.643L790.054 564.359C801.993 569.173 815.673 565.834 824.05 556.06L846.032 530.415" stroke="black" stroke-width="5" stroke-linecap="round"/>
<path d="M570.032 681.915C562.532 699.581 553.632 742.415 578.032 772.415" stroke="black" stroke-width="5" stroke-linecap="round"/>
<path d="M901.975 296.021C890.975 335.521 885.475 339.021 869.475 356.521C869.475 339.226 866.504 310.196 866.504 298.108C814.115 298.108 769.901 276.722 754.343 266.029C754.9 302.292 720.903 326.003 720.903 326.003C720.903 326.003 725.78 340.648 728.567 373.425C730.796 399.646 724.387 394.579 720.903 388.767C710.872 356.409 694.43 365.056 687.463 373.425C601.976 234.521 733.443 207.681 758.522 210.238C777.471 194.059 803.898 181.38 822.475 179.521C889.475 172.814 919.811 231.973 901.975 296.021Z" fill="black"/>
<path d="M722.075 413.49C731.075 468.435 791.483 507.944 835.075 463.435C878.667 418.926 869.943 337.454 865.286 299.435" stroke="black" stroke-width="5" stroke-linecap="round"/>
<path d="M686.475 370.021C680.975 383.521 686.135 413.435 722.075 413.435" stroke="black" stroke-width="5" stroke-linecap="round"/>
<path d="M702.326 377.435C701.531 380.324 702.167 387.169 711.075 391.435" stroke="black" stroke-width="5" stroke-linecap="round"/>
<path d="M864.075 406.435C875.805 401.545 884.075 383.435 880.893 354.435" stroke="black" stroke-width="5" stroke-linecap="round"/>
<path d="M798.075 439.435C809.575 442.435 808.847 434.18 817.575 426.935" stroke="black" stroke-width="5" stroke-linecap="round"/>
<circle cx="832.404" cy="369.585" r="7.5" fill="black"/>
<circle cx="766.404" cy="370.585" r="7.5" fill="black"/>
<path d="M750.075 353.435C751.653 348.788 758.463 340.192 773.075 342.98" stroke="black" stroke-width="5" stroke-linecap="round"/>
<path d="M820.075 344.435C823.56 341.417 833.038 337.191 843.075 344.435" stroke="black" stroke-width="5" stroke-linecap="round"/>
<path d="M795.882 365.435C794.717 375.309 793.925 395.333 800.075 396.435" stroke="black" stroke-width="5" stroke-linecap="round"/>
<circle cx="57.5317" cy="54.5" r="17.5" fill="black"/>
<circle cx="110.532" cy="54.5" r="15" stroke="black" stroke-width="5"/>
<circle cx="163.532" cy="54.5" r="15" stroke="black" stroke-width="5"/>
<path d="M5.03174 104L748.032 104" stroke="black" stroke-width="10" stroke-linecap="round"/>
<circle cx="378.032" cy="239" r="74" fill="black"/>
<rect x="199.532" y="364.5" width="356" height="50" rx="7.5" stroke="black" stroke-width="5"/>
<rect x="199.532" y="439.5" width="356" height="50" rx="7.5" stroke="black" stroke-width="5"/>
<circle cx="226.532" cy="464.5" r="7.5" fill="black"/>
<circle cx="251.532" cy="464.5" r="7.5" fill="black"/>
<circle cx="276.532" cy="464.5" r="7.5" fill="black"/>
<circle cx="301.532" cy="464.5" r="7.5" fill="black"/>
<circle cx="326.532" cy="464.5" r="7.5" fill="black"/>
<circle cx="351.532" cy="464.5" r="7.5" fill="black"/>
<circle cx="376.532" cy="464.5" r="7.5" fill="black"/>
<path d="M5.03174 573.5V55C5.03174 27.3858 27.4175 5 55.0317 5H698.532C726.146 5 748.532 27.3858 748.532 55V177.5" stroke="black" stroke-width="10" stroke-linecap="round"/>
<path d="M1047.19 827.436C1037.31 825.57 1018.02 828.909 1029.57 853.02C1038.38 871.409 1052 881.003 1056 885" stroke="black" stroke-width="5" stroke-linecap="round"/>
<path d="M1071.71 909.504C1049.33 890.447 1049.35 841.565 1052.47 816.48C1052.62 815.206 1053.94 814.435 1055.15 814.844C1077.27 822.285 1104.06 818.246 1116.84 814.684C1118.04 814.348 1119.29 815.176 1119.43 816.42C1126.19 876.138 1109.5 902.75 1100.19 909.523C1100.1 909.584 1100.02 909.632 1099.93 909.678C1094.76 912.218 1082.19 915.663 1071.98 909.695C1071.89 909.639 1071.8 909.575 1071.71 909.504Z" stroke="black" stroke-width="5" stroke-linecap="round"/>
<ellipse cx="1086" cy="813.5" rx="35" ry="6.5" fill="black"/>
<path d="M1094.17 791C1099.52 785.78 1107 769.48 1094.17 746.041C1081.34 722.602 1095.38 700.914 1104 693" stroke="black" stroke-width="5" stroke-linecap="round"/>
<path d="M1077 768C1069.56 757 1057.89 730.2 1070.77 711" stroke="black" stroke-width="5" stroke-linecap="round"/>
<path d="M1136.44 909.926C1151.95 901.409 1124.18 903.049 1109.02 903.27L1101 911.257C1117.71 914.584 1130.42 912.588 1136.44 909.926Z" fill="black"/>
</svg>
