<svg width="782" height="728" viewBox="0 0 782 728" fill="none" xmlns="http://www.w3.org/2000/svg">
<path d="M744.211 610.085C756.728 622.817 772.775 650.641 736.835 660.085" stroke="black" stroke-width="5" stroke-linecap="round"/>
<path d="M744.835 637.085C742.701 625.935 733.931 604.904 715.004 598.152C711.894 597.042 708.51 596.318 704.835 596.085" stroke="black" stroke-width="5" stroke-linecap="round"/>
<path d="M722.922 533.085C698.042 549.641 657.181 593.21 692.791 635.028C728.4 676.847 742.325 680.513 744.835 677.118" stroke="black" stroke-width="5" stroke-linecap="round"/>
<path d="M750.835 566.085L714.835 598.085" stroke="black" stroke-width="5" stroke-linecap="round"/>
<path d="M714.835 530.085C717.042 530.335 719.861 531.14 723.025 532.689C731.725 536.939 743.04 546.79 751.449 566.073C753.86 571.604 756.033 577.912 757.835 585.085" stroke="black" stroke-width="5" stroke-linecap="round"/>
<path d="M718.835 520.085C734.572 522.085 767.003 531.285 770.835 552.085" stroke="black" stroke-width="5" stroke-linecap="round"/>
<path d="M724.835 509.338C732.677 507.141 751.855 504.613 765.835 512.085" stroke="black" stroke-width="5" stroke-linecap="round"/>
<path d="M541.219 253.031C540.507 257.007 538.847 260.306 536.87 262.444C534.87 264.606 532.819 265.337 531.146 265.037C529.472 264.738 527.803 263.341 526.677 260.619C525.564 257.928 525.152 254.258 525.864 250.282C526.575 246.306 528.235 243.007 530.213 240.869C532.213 238.707 534.264 237.976 535.937 238.276C537.61 238.575 539.28 239.972 540.406 242.694C541.518 245.385 541.931 249.055 541.219 253.031Z" stroke="black" stroke-width="5"/>
<path d="M2.54492 266.619L119.462 237.901M89.8288 23.9409L153.108 112.33L89.8288 23.9409ZM95.2378 106.142L126.802 133.234L95.2378 106.142ZM8.27432 135.121C47.8821 145.734 70.0887 151.684 109.697 162.297L8.27432 135.121ZM64.8107 206.175L107.649 204.713L64.8107 206.175Z" stroke="black" stroke-width="5" stroke-linecap="round"/>
<path d="M264.304 207.348C258.317 229.691 247.917 248.456 236.066 260.753C224.146 273.123 211.223 278.535 199.968 275.519C188.712 272.503 180.227 261.355 176.089 244.683C171.975 228.107 172.35 206.656 178.337 184.313C184.323 161.97 194.724 143.205 206.575 130.908C218.495 118.538 231.417 113.126 242.673 116.142C253.928 119.157 262.413 130.306 266.552 146.978C270.666 163.554 270.291 185.005 264.304 207.348Z" stroke="black" stroke-width="5"/>
<path d="M213.574 209.284C217.842 210.428 223.04 204.868 225.184 196.866C227.328 188.864 225.606 181.45 221.339 180.306C217.071 179.163 211.873 184.723 209.729 192.725C207.585 200.727 209.306 208.141 213.574 209.284Z" fill="black"/>
<path d="M394.203 257.683C399.779 249.238 401.617 235.168 401.838 229.188L415.387 238.513C419.602 247.51 414.037 253.853 410.728 255.899L394.203 257.683Z" fill="black"/>
<path d="M214.044 275.15L410.728 255.899M415.387 238.513L249.176 118.919L415.387 238.513Z" stroke="black" stroke-width="5" stroke-linecap="round"/>
<path d="M213.869 206.257L254.031 234.1M220.081 183.075L268.266 180.974L220.081 183.075Z" stroke="black" stroke-width="5" stroke-linecap="round"/>
<path d="M425.016 529.531L384.282 570.602C350.993 600.472 329.016 577.5 315.515 565.209C301.516 545.5 279.516 520.879 279.516 438.5C279.516 387 292.016 361.908 342.516 380.908" stroke="black" stroke-width="5" stroke-linecap="round"/>
<path d="M415.387 238.512C417.069 241.896 418.491 250.111 410.729 255.899" stroke="black" stroke-width="5" stroke-linecap="round"/>
<path d="M401.001 228.447C401.262 234.556 399.464 247.705 393.236 257.424" stroke="black" stroke-width="5" stroke-linecap="round"/>
<path d="M509.016 319.5C474.516 319.5 396.516 337.5 364.516 411" stroke="black" stroke-width="5" stroke-linecap="round"/>
<path d="M275.737 322.221C273.456 325.144 270.982 332.293 277.84 338.867C278.348 339.354 278.907 339.838 279.522 340.317C288.428 347.259 292.812 340.945 293.89 336.92" stroke="black" stroke-width="5" stroke-linecap="round"/>
<path d="M302.944 324.385C305.631 331.357 300.415 333.181 297.471 333.221C296.773 333.14 295.933 333.009 294.99 332.82C289.831 331.785 281.603 329.03 276.773 323.534C276.376 323.082 276.033 322.645 275.738 322.221C271.79 316.544 276.611 313.351 279.749 312.426" stroke="black" stroke-width="5" stroke-linecap="round"/>
<path d="M284.916 300.869C282.007 300.78 276.625 302.064 278.37 307.915C280.115 313.766 294.844 321.129 301.991 324.079C302.302 324.197 302.621 324.3 302.944 324.385C305.87 325.157 309.127 324.493 310.176 320.578C311.658 315.046 305.077 311.275 303.553 310.522" stroke="black" stroke-width="5" stroke-linecap="round"/>
<path d="M306.22 288.978C303.181 289.371 299.703 292.822 305.339 298.059C310.976 303.297 308.13 307.607 306.003 309.107C302.823 310.671 294.026 310.143 284.279 295.522C274.531 280.901 297.363 279.53 309.998 280.673" stroke="black" stroke-width="5" stroke-linecap="round"/>
<path d="M330.643 307.945C326.334 302.132 317.307 293.191 315.671 303.934C314.035 314.676 320.192 321.192 323.475 323.107" stroke="black" stroke-width="5" stroke-linecap="round"/>
<path d="M319.504 357.242C317.339 353.729 314.812 343.458 322.016 330.48" stroke="black" stroke-width="5" stroke-linecap="round"/>
<path d="M318.616 265.899L306.211 296.74" stroke="black" stroke-width="5" stroke-linecap="round"/>
<path d="M329.479 312.292L353.243 262.237" stroke="black" stroke-width="5" stroke-linecap="round"/>
<path d="M285.887 351.34C283.428 360.516 275.846 371.426 284.729 376.912C295.575 383.61 299.71 373.161 305.101 362.7L320.309 331.058" stroke="black" stroke-width="5" stroke-linecap="round"/>
<path d="M338.516 300.5C343.849 319.333 344.016 357.908 344.016 434.408" stroke="black" stroke-width="5" stroke-linecap="round"/>
<path d="M670.07 499.5C694.516 558 661.016 609.5 670.07 707C609.403 725 475.17 745.7 423.57 684.5C421.236 673.833 423.57 613.5 423.57 574.5" stroke="black" stroke-width="5" stroke-linecap="round"/>
<path d="M618.568 412L610.538 399.674C602.711 387.662 587.48 382.866 574.183 388.228L555.046 395.944C543.107 400.758 529.427 397.419 521.049 387.645L499.068 362" stroke="black" stroke-width="5" stroke-linecap="round"/>
<path d="M508.069 321.415C503.569 308.415 507.668 299.666 511.668 298C535.668 320 572.069 311.833 585.569 298.5C590.369 302.9 587.569 315.915 585.569 319.915C559.569 348.715 522.569 332.581 508.069 321.415Z" fill="black"/>
<path d="M439.126 117.02C450.126 156.52 455.626 160.02 471.626 177.52C471.626 160.225 474.597 131.196 474.597 119.108C526.986 119.108 571.2 97.7218 586.758 87.0287C586.2 123.292 620.197 147.003 620.197 147.003C620.197 147.003 615.321 161.648 612.534 194.425C610.305 220.646 616.714 215.579 620.197 209.767C630.229 177.409 646.671 186.056 653.637 194.425C739.125 55.5205 607.658 28.6813 582.579 31.2383C563.63 15.0591 537.203 2.38022 518.626 0.520554C451.626 -6.18637 421.289 52.9727 439.126 117.02Z" fill="black"/>
<path d="M619.025 234.49C610.025 289.435 549.617 328.945 506.025 284.435C462.433 239.926 471.157 158.454 475.814 120.435" stroke="black" stroke-width="5" stroke-linecap="round"/>
<path d="M654.624 191.02C660.125 204.52 654.964 234.435 619.024 234.435" stroke="black" stroke-width="5" stroke-linecap="round"/>
<path d="M638.774 198.435C639.569 201.324 638.933 208.169 630.025 212.435" stroke="black" stroke-width="5" stroke-linecap="round"/>
<path d="M477.025 227.435C465.295 222.545 457.025 204.435 460.206 175.435" stroke="black" stroke-width="5" stroke-linecap="round"/>
<path d="M503.343 192.258C500.012 190.92 498.71 186.353 500.436 182.057C502.162 177.761 506.262 175.364 509.593 176.702C512.924 178.04 514.225 182.608 512.499 186.903C510.773 191.199 506.674 193.597 503.343 192.258Z" fill="black"/>
<path d="M564.507 193.983C561.127 192.773 559.553 188.537 560.99 184.521C562.427 180.506 566.333 178.232 569.712 179.442C573.092 180.652 574.667 184.888 573.229 188.903C571.792 192.918 567.887 195.193 564.507 193.983Z" fill="black"/>
<path d="M591.025 174.435C589.446 169.788 582.637 161.192 568.025 163.98" stroke="black" stroke-width="5" stroke-linecap="round"/>
<path d="M521.025 165.435C517.54 162.417 508.061 158.191 498.025 165.435" stroke="black" stroke-width="5" stroke-linecap="round"/>
<path d="M529.823 187.085C528.658 196.959 521.016 218.085 534.016 218.085" stroke="black" stroke-width="5" stroke-linecap="round"/>
<path d="M587.016 316C686.516 316 811.016 420.5 772.205 551" stroke="black" stroke-width="5" stroke-linecap="round"/>
<path d="M661.335 460.585C665.835 465.419 675.835 478.785 679.835 493.585C683.835 508.385 695.168 518.752 700.335 522.085" stroke="black" stroke-width="5" stroke-linecap="round"/>
</svg>
