<svg width="353" height="845" viewBox="0 0 353 845" fill="none" xmlns="http://www.w3.org/2000/svg">
<g clip-path="url(#clip0_291_6718)">
<path d="M172.075 163.278V189.278" stroke="black" stroke-width="5" stroke-linecap="round"/>
<path d="M217.566 162.782L217.574 189.278" stroke="black" stroke-width="5" stroke-linecap="round"/>
<path d="M266.076 275.778C266.075 301.778 264.576 316.778 264.575 358.778" stroke="black" stroke-width="5" stroke-linecap="round"/>
<path d="M264.575 406.278L265.575 422.778" stroke="black" stroke-width="5" stroke-linecap="round"/>
<path d="M152.075 102.891C154.34 128.437 165.93 173.491 194.075 175.237C223.722 177.076 236.075 117.606 236.075 102.278" stroke="black" stroke-width="5" stroke-linecap="round"/>
<path d="M157.575 101.778L149.075 100.278" stroke="black" stroke-width="5" stroke-linecap="round"/>
<path d="M239.503 100.278C248.349 102.552 255.305 112.43 234.075 131.278" stroke="black" stroke-width="5" stroke-linecap="round"/>
<path d="M148.036 100.278C140.204 101.312 131.959 113.298 156.075 131.278" stroke="black" stroke-width="5" stroke-linecap="round"/>
<path d="M173.075 110.278C175.836 110.278 178.075 108.039 178.075 105.278C178.075 102.516 175.836 100.278 173.075 100.278C170.313 100.278 168.075 102.516 168.075 105.278C168.075 108.039 170.313 110.278 173.075 110.278Z" fill="black"/>
<path d="M214.075 110.278C216.836 110.278 219.075 108.039 219.075 105.278C219.075 102.516 216.836 100.278 214.075 100.278C211.313 100.278 209.075 102.516 209.075 105.278C209.075 108.039 211.313 110.278 214.075 110.278Z" fill="black"/>
<path d="M173.575 120.778C182.411 120.778 189.575 113.614 189.575 104.778C189.575 95.9413 182.411 88.7778 173.575 88.7778C164.738 88.7778 157.575 95.9413 157.575 104.778C157.575 113.614 164.738 120.778 173.575 120.778Z" stroke="black" stroke-width="5"/>
<path d="M213.575 120.778C222.411 120.778 229.575 113.614 229.575 104.778C229.575 95.9413 222.411 88.7778 213.575 88.7778C204.738 88.7778 197.575 95.9413 197.575 104.778C197.575 113.614 204.738 120.778 213.575 120.778Z" stroke="black" stroke-width="5"/>
<path d="M190.075 103.278H197.075" stroke="black" stroke-width="5" stroke-linecap="round"/>
<path d="M186.575 114.278C184.925 123.278 184.741 138.219 201.075 129.991" stroke="black" stroke-width="5" stroke-linecap="round"/>
<path d="M183.075 145.278C186.408 147.542 195.075 150.712 203.075 145.278" stroke="black" stroke-width="5" stroke-linecap="round"/>
<path d="M229.075 100.278H239.075" stroke="black" stroke-width="5" stroke-linecap="round"/>
<path d="M147.051 50.3936C115.569 65.2178 130.244 91.1602 141.517 102.278C143.485 100.796 149.716 100.425 152.585 100.425C147.174 60.8941 167.547 50.3933 176.566 47.9226C201.776 43.5988 230.676 50.3936 235.595 70.1592C241.471 93.7711 241.656 101.661 246.224 102.278C263.581 88.4424 261.021 61.9235 257.572 50.3936C262.073 37.5147 252.021 25.8925 246.224 18.8922C240.426 11.8918 224.527 -0.873792 196.242 0.361895C140.287 5.92098 143.977 40.5108 147.051 50.3936Z" fill="black"/>
<path d="M163.075 80.2783C165.575 79.5237 173.075 78.4672 183.075 80.2783" stroke="black" stroke-width="5" stroke-linecap="round"/>
<path d="M205.075 81.2783C207.45 80.5237 214.575 79.4672 224.075 81.2783" stroke="black" stroke-width="5" stroke-linecap="round"/>
<path d="M109.721 778.278C62.63 754.733 81.6314 524.353 109.525 405.11C109.64 404.622 110.093 404.315 110.591 404.364L266.96 419.704C267.409 419.748 267.769 420.064 267.844 420.509C282.054 504.316 310.677 682.081 303.721 731.278C297.075 778.278 287.22 775.205 255.721 778.278C188.142 784.871 184.698 623.43 186.091 530.992C186.109 529.82 184.653 529.623 184.419 530.772C174.52 579.401 186.22 671.69 186.22 716.278C186.22 763.278 168.721 807.778 109.721 778.278Z" fill="black"/>
<path d="M134.045 794.278V805.778C115.545 813.778 83.1452 831.878 101.545 840.278C119.945 848.678 151.879 830.778 165.546 820.778V789.778" stroke="black" stroke-width="5" stroke-linecap="round"/>
<path d="M242.546 784.278V813.778C251.546 821.612 278.046 836.578 312.046 833.778C354.546 830.278 285.546 822.278 266.546 786.778" stroke="black" stroke-width="5" stroke-linecap="round"/>
<path d="M219.575 174.278C289.575 192.778 399.075 279.478 325.075 348.278" stroke="black" stroke-width="5" stroke-linecap="round"/>
<path d="M306.075 391.778C315.409 400.945 327.375 420.978 300.575 427.778" stroke="black" stroke-width="5" stroke-linecap="round"/>
<path d="M306.075 411.278C304.501 403.119 298.033 387.731 284.075 382.79C281.781 381.978 279.285 381.448 276.575 381.278" stroke="black" stroke-width="5" stroke-linecap="round"/>
<path d="M290.075 334.695C271.909 346.889 242.075 378.978 268.075 409.778C294.075 440.578 304.242 443.278 306.075 440.778" stroke="black" stroke-width="5" stroke-linecap="round"/>
<path d="M310.897 359.278L284.075 382.79" stroke="black" stroke-width="5" stroke-linecap="round"/>
<path d="M284.075 332.778C285.692 332.962 287.757 333.555 290.075 334.695C296.448 337.825 304.737 345.079 310.897 359.278C312.663 363.351 314.255 367.996 315.575 373.278" stroke="black" stroke-width="5" stroke-linecap="round"/>
<path d="M287.075 324.778C298.575 326.278 322.275 333.178 325.075 348.778" stroke="black" stroke-width="5" stroke-linecap="round"/>
<path d="M291.575 317.278C297.409 315.278 311.675 312.978 322.075 319.778" stroke="black" stroke-width="5" stroke-linecap="round"/>
<path d="M266.075 287.778L290.075 312.778" stroke="black" stroke-width="5" stroke-linecap="round"/>
<path d="M82.0747 434.778C79.0747 431.278 64.0747 431.278 56.5747 415.778" stroke="black" stroke-width="5" stroke-linecap="round"/>
<path d="M82.0747 427.278C82.0747 423.278 67.0969 421.778 67.0969 405.778" stroke="black" stroke-width="5" stroke-linecap="round"/>
<path d="M85.5747 418.778C82.582 413.646 79.7356 404.522 89.5747 405.224C90.5991 405.297 91.7611 405.477 93.0747 405.778" stroke="black" stroke-width="5" stroke-linecap="round"/>
<path d="M89.5747 405.224C77.7414 395.242 53.4747 375.278 51.0747 375.278" stroke="black" stroke-width="5" stroke-linecap="round"/>
<path d="M76.3105 339.527C96.2319 360.611 128.475 409.178 98.0747 434.778C89.408 440.278 68.4747 449.178 54.0747 440.778" stroke="black" stroke-width="5" stroke-linecap="round"/>
<path d="M41.0747 375.278C46.9804 364.796 61.4137 344.792 76.3105 339.527C78.2299 338.849 80.1571 338.415 82.0747 338.278" stroke="black" stroke-width="5" stroke-linecap="round"/>
<path d="M121.075 276.278C122.242 282.278 119.998 297.201 117.075 313.278C113.075 335.278 110.494 380.724 110.494 405.224" stroke="black" stroke-width="5" stroke-linecap="round"/>
<path d="M67.0969 326.778C59.1147 324.378 44.4229 325.778 38.0747 326.778" stroke="black" stroke-width="5" stroke-linecap="round"/>
<path d="M36.0747 353.778C40.2905 346.655 51.7594 332.634 67.0969 326.778C69.3434 325.921 71.6729 325.238 74.0747 324.778L121.075 286.778" stroke="black" stroke-width="5" stroke-linecap="round"/>
<path d="M171.075 172.778C132.575 179.278 70.8747 227.578 36.0747 266.778C-7.42529 315.778 -7.42529 344.778 36.0747 367.278" stroke="black" stroke-width="5" stroke-linecap="round"/>
<path d="M193.575 346.778C217.875 346.778 237.575 327.078 237.575 302.778C237.575 278.477 217.875 258.778 193.575 258.778C169.274 258.778 149.575 278.477 149.575 302.778C149.575 327.078 169.274 346.778 193.575 346.778Z" stroke="black" stroke-width="5"/>
<path d="M193.575 336.778C212.352 336.778 227.575 321.556 227.575 302.778C227.575 284 212.352 268.778 193.575 268.778C174.797 268.778 159.575 284 159.575 302.778C159.575 321.556 174.797 336.778 193.575 336.778Z" stroke="black" stroke-width="3"/>
<path d="M204.575 258.278C214.575 230.278 220.575 219.278 235.076 179.278M182.075 258.278C173.075 229.278 167.575 223.778 153.576 177.778L182.075 258.278Z" stroke="black" stroke-width="5" stroke-linecap="round"/>
<path d="M198.19 297.362H207.206L199.912 302.662C198.685 303.553 198.172 305.133 198.64 306.575L200.907 305.838L198.64 306.575L201.426 315.15L194.132 309.85C192.905 308.959 191.244 308.959 190.018 309.85L182.723 315.15L185.51 306.575C185.978 305.133 185.465 303.553 184.238 302.662L176.944 297.362H185.96C187.476 297.362 188.82 296.386 189.289 294.943L187.332 294.308L189.289 294.943L192.075 286.368L194.861 294.943L197.239 294.171L194.861 294.943C195.33 296.386 196.673 297.362 198.19 297.362Z" stroke="black" stroke-width="5"/>
</g>
<defs>
<clipPath id="clip0_291_6718">
<rect width="352" height="845" fill="white" transform="translate(0.924805)"/>
</clipPath>
</defs>
</svg>
