<svg width="1589" height="1273" viewBox="0 0 1589 1273" fill="none" xmlns="http://www.w3.org/2000/svg">
<path d="M1436.4 425.618C1444.9 432.618 1455.4 434.118 1449.26 442.975C1441.15 452.633 1435.74 464.392 1434.05 469.064" stroke="black" stroke-width="5" stroke-linecap="round"/>
<path d="M1445.9 447.118C1452.1 450.683 1466.58 457.496 1474.82 456.228C1483.07 454.961 1488.56 458.341 1490.28 460.19C1491.2 461.642 1491.78 464.626 1486.71 464.943C1481.64 465.26 1475.62 465.074 1473.24 464.943" stroke="black" stroke-width="5" stroke-linecap="round"/>
<path d="M1466.9 461.118C1469.58 463.887 1478.7 470.181 1493.71 473.203C1496.65 473.706 1500.61 476.601 1495.25 480C1490.65 482.644 1477.93 480.227 1471.49 476.601" stroke="black" stroke-width="5" stroke-linecap="round"/>
<path d="M1471.71 477.118C1476.8 479.555 1485.95 486.045 1481.88 492.509C1480.58 493.792 1475.08 493.894 1463.5 484.044L1454.9 477.118" stroke="black" stroke-width="5" stroke-linecap="round"/>
<path d="M1454.5 476.272L1463.11 483.61C1465.59 490.269 1469.37 506.442 1459.2 497.472C1451.76 489.726 1453.33 483.122 1450.2 481.164C1447.07 479.207 1440.03 471.652 1436.9 468.118" stroke="black" stroke-width="5" stroke-linecap="round"/>
<path d="M1454.29 463.118C1455.09 466.584 1455.73 474.638 1451.9 479.118" stroke="black" stroke-width="5" stroke-linecap="round"/>
<path d="M1301.12 175.981C1284.01 144.049 1290.93 120.463 1296.52 112.662C1277.98 136.848 1250.09 138.172 1238.47 135.812L1242.01 151.733C1225.99 160.562 1212.33 139.58 1207.5 127.986C1200.04 110.098 1210.37 79.6763 1253.36 71.7638C1296.35 63.8513 1331.72 87.111 1344.03 99.7298C1368.82 80.0248 1407.95 88.1636 1424.42 94.6963C1441.47 101.497 1482.03 126.743 1481.49 174.485C1480.76 238.897 1411.52 252.525 1398.88 251.613C1355.21 248.465 1322.5 215.897 1301.12 175.981Z" fill="black"/>
<path d="M1244.85 192.766C1248.08 198.043 1252.22 201.969 1256.21 204.096C1260.24 206.247 1263.76 206.403 1266.17 204.923C1268.58 203.443 1270.03 200.24 1269.94 195.67C1269.85 191.153 1268.22 185.684 1264.98 180.407C1261.75 175.13 1257.61 171.204 1253.62 169.077C1249.59 166.925 1246.07 166.769 1243.66 168.249C1241.25 169.73 1239.8 172.932 1239.89 177.502C1239.98 182.019 1241.61 187.489 1244.85 192.766Z" stroke="black" stroke-width="5"/>
<path d="M1260.38 196.529C1258.68 197.57 1255.78 195.938 1253.91 192.882C1252.03 189.826 1251.89 186.503 1253.58 185.461C1255.28 184.419 1258.18 186.052 1260.05 189.109C1261.93 192.165 1262.07 195.487 1260.38 196.529Z" fill="black"/>
<path d="M1299.84 173.244L1267.97 183.552" stroke="black" stroke-width="5" stroke-linecap="round"/>
<path d="M1238.88 153.753C1238.5 160.217 1235.66 175.209 1230.28 185.215C1224.78 195.45 1227.71 204.256 1235.65 208.109L1248.07 214.205C1258.45 251.22 1276.28 274.299 1324.41 268.048" stroke="black" stroke-width="5" stroke-linecap="round"/>
<path d="M1300.56 210.737C1299.61 211.321 1298.36 211.023 1297.78 210.072C1297.2 209.121 1297.49 207.876 1298.44 207.292C1299.39 206.709 1300.64 207.007 1301.22 207.958C1301.81 208.909 1301.51 210.154 1300.56 210.737Z" fill="black"/>
<path d="M1314.49 224.944C1313.35 225.644 1311.95 225.441 1311.37 224.49C1310.78 223.538 1311.24 222.2 1312.38 221.499C1313.52 220.798 1314.92 221.001 1315.5 221.953C1316.09 222.904 1315.63 224.243 1314.49 224.944Z" fill="black"/>
<path d="M1297.07 229C1295.92 229.701 1294.53 229.497 1293.94 228.546C1293.36 227.595 1293.81 226.256 1294.95 225.556C1296.09 224.855 1297.49 225.058 1298.08 226.01C1298.66 226.96 1298.21 228.299 1297.07 229Z" fill="black"/>
<path d="M1166.22 313.82C1164.44 311.337 1163.54 309.076 1164.35 307.515C1166.72 302.977 1172.53 307.635 1175.14 310.531C1181.64 317.5 1194.15 329.613 1190.78 315.518C1187.41 301.422 1194.58 302.29 1211.36 319.496L1228.05 329.618" stroke="black" stroke-width="5" stroke-linecap="round"/>
<path d="M1167.4 335.618C1165.96 340.086 1168.27 350.429 1189.44 352.935C1197.45 353.883 1198.66 353.749 1206.17 353.109H1219.05" stroke="black" stroke-width="5" stroke-linecap="round"/>
<path d="M1181.05 327.026C1176.84 323.955 1170.12 318.38 1166.67 313.618C1162.92 313.576 1159.3 315.663 1165.08 322.961C1167.58 326.12 1171.85 330.255 1178.63 335.618" stroke="black" stroke-width="5" stroke-linecap="round"/>
<path d="M1178.05 335.744C1171.3 330.607 1167.05 326.645 1164.55 323.618C1160.99 324.572 1157.79 328.264 1167.52 335.971C1169.65 337.656 1172.39 339.535 1175.89 341.618" stroke="black" stroke-width="5" stroke-linecap="round"/>
<path d="M1380.05 282.618C1436.56 323.798 1429.8 375.152 1429.8 438.618" stroke="black" stroke-width="5" stroke-linecap="round"/>
<path d="M1380.05 282.618L1350.78 307.233C1349.89 308.01 1348.5 307.55 1348.25 306.398L1341.14 273.837C1340.88 272.63 1339.38 272.202 1338.52 273.091L1320.05 292.204" stroke="black" stroke-width="5" stroke-linecap="round"/>
<path d="M1354.05 329.584C1344.81 342.372 1292.74 377.784 1255.27 338.93L1245.05 327.618" stroke="black" stroke-width="5" stroke-linecap="round"/>
<path d="M1329.05 452.618C1316.98 449.477 1259.73 417.931 1243.05 388.618" stroke="black" stroke-width="5" stroke-linecap="round"/>
<path d="M1247.05 350.856C1243 365.658 1241.86 378.153 1242.67 388.618C1233.66 382.324 1225.05 377.483 1225.05 357.634C1225.05 343.593 1235.1 331.491 1244.18 327.618" stroke="black" stroke-width="5" stroke-linecap="round"/>
<path d="M1324.05 317.618C1321.84 317.618 1320.05 315.603 1320.05 313.118C1320.05 310.632 1321.84 308.618 1324.05 308.618C1326.26 308.618 1328.05 310.632 1328.05 313.118C1328.05 315.603 1326.26 317.618 1324.05 317.618Z" fill="black"/>
<path d="M1319.05 340.618C1316.84 340.618 1315.05 338.379 1315.05 335.618C1315.05 332.856 1316.84 330.618 1319.05 330.618C1321.26 330.618 1323.05 332.856 1323.05 335.618C1323.05 338.379 1321.26 340.618 1319.05 340.618Z" fill="black"/>
<path d="M1280.6 234.228C1282.23 236.797 1283.48 243.016 1275.4 247.338" stroke="black" stroke-width="5" stroke-linecap="round"/>
<path d="M538.366 512.777C529.866 536.11 488.866 614.804 509.305 736.334C514.062 747.334 547.806 741.804 569.866 728.777" stroke="black" stroke-width="5" stroke-linecap="round"/>
<path d="M613.366 454.777C632.699 461.277 668.466 493.777 656.866 571.777C645.266 649.777 658.366 673.277 660.866 681.777C663.414 690.441 668.366 708.777 649.866 714.277L619.366 723.277" stroke="black" stroke-width="5" stroke-linecap="round"/>
<path d="M613.366 453.277C595.366 462.111 551.866 489.896 538.366 512.896" stroke="black" stroke-width="5" stroke-linecap="round"/>
<path d="M608.866 499.777C598.699 498.277 577.666 507.277 574.866 555.277C572.066 603.277 573.699 673.611 574.866 702.777C572.033 712.777 568.566 733.877 577.366 738.277C586.166 742.677 596.366 745.777 600.366 746.777C604.699 747.444 613.866 744.177 615.866 725.777C617.866 707.377 631.033 671.777 637.366 656.277C641.699 646.611 647.766 620.077 637.366 591.277C635.033 583.944 630.766 567.077 632.366 558.277" stroke="black" stroke-width="5" stroke-linecap="round"/>
<path d="M512.805 584.304L489.366 560.276C486.199 556.776 477.966 552.976 470.366 565.776C462.766 578.576 465.533 592.11 467.866 597.276C471.533 606.443 497.605 647.004 502.805 655.804" stroke="black" stroke-width="5" stroke-linecap="round"/>
<path d="M433.431 512.117C439.831 519.317 432.764 526.45 428.431 529.117C422.831 527.517 416.764 530.784 414.431 532.617C408.931 526.45 398.366 514.277 394.866 509.777C388.276 501.304 391.146 498.777 398.931 491.117C404.866 485.277 410.866 486.277 412.931 488.617C417.098 493.45 427.031 504.917 433.431 512.117Z" fill="black"/>
<path d="M465.366 586.777C463.866 581.777 456.266 570.177 437.866 563.777C425.473 559.467 418.434 553.251 414.852 548.277" stroke="black" stroke-width="5" stroke-linecap="round"/>
<path d="M414.852 548.277C413.116 545.866 412.192 543.746 411.866 542.277C410.199 539.277 409.204 532.354 418.866 529.777C433.866 525.777 431.366 535.277 428.366 535.777C418.366 536.977 414.19 545.611 414.852 548.277Z" stroke="black" stroke-width="5" stroke-linecap="round"/>
<path d="M424.366 549.277C428.699 541.611 439.866 528.477 449.866 537.277" stroke="black" stroke-width="5" stroke-linecap="round"/>
<path d="M438.866 549.277C443.366 546.777 454.666 543.877 463.866 552.277" stroke="black" stroke-width="5" stroke-linecap="round"/>
<path d="M478.866 550.276C477.533 539.443 466.966 518.176 435.366 519.776" stroke="black" stroke-width="5" stroke-linecap="round"/>
<path d="M375.866 470.277L390.866 485.277M362.366 507.277H383.366H362.366ZM365.366 487.777L381.866 493.777L365.366 487.777Z" stroke="black" stroke-width="5" stroke-linecap="round"/>
<path d="M509.305 737.805C481.305 896.805 500.578 910.396 435.366 1038.78" stroke="black" stroke-width="5" stroke-linecap="round"/>
<path d="M397.305 1073.81C437.759 1079.37 448.914 1060.69 449.781 1048.51C449.876 1047.17 451.129 1046.16 452.36 1046.71C455.991 1048.32 460.912 1051.81 462.805 1057.81C465.061 1064.95 474.265 1073.53 479.377 1077.58C479.946 1078.04 480.245 1078.75 480.119 1079.47C478.993 1085.82 475.19 1098.54 467.305 1106.81C456.805 1117.81 459.043 1115.59 424.306 1111.31C387.806 1106.81 342.805 1066.31 397.305 1073.81Z" fill="black"/>
<path d="M435.366 1038.78C442.033 1040.94 456.866 1047.38 462.866 1057.78C470.366 1070.78 487.366 1087.78 503.366 1084.78" stroke="black" stroke-width="5" stroke-linecap="round"/>
<path d="M503.366 1084.78L579.366 922.277" stroke="black" stroke-width="5" stroke-linecap="round"/>
<path d="M570.096 832.305C583.43 883.638 584.596 968.305 635.596 1081.31" stroke="black" stroke-width="5" stroke-linecap="round"/>
<path d="M598.867 1103.78C622.467 1097.78 632.7 1085.94 634.867 1080.78C639.2 1080.28 651.167 1081.18 664.367 1088.78C677.567 1096.38 694.867 1092.94 701.867 1090.28C703.467 1095.88 702.534 1104.94 701.867 1108.78C699.678 1121.36 686.807 1135.8 601.306 1123.3C587.806 1120.43 575.267 1109.78 598.867 1103.78Z" fill="black"/>
<path d="M655.866 713.277C664.866 736.444 691.595 809.305 698.866 905.805C706.456 1006.55 708.866 1057.8 698.866 1089.3" stroke="black" stroke-width="5" stroke-linecap="round"/>
<path d="M560.866 742.277C561.533 758.277 572.666 794.977 611.866 813.777" stroke="black" stroke-width="5" stroke-linecap="round"/>
<path d="M575.866 738.277C573.533 740.777 569.066 747.877 569.866 756.277" stroke="black" stroke-width="5" stroke-linecap="round"/>
<path d="M600.366 747.277C603.533 755.777 606.166 776.577 591.366 791.777" stroke="black" stroke-width="5" stroke-linecap="round"/>
<path d="M558.7 471.86C551.507 468.93 503.069 480.973 483.247 420.82C466.942 423.731 455.83 411.827 467.343 404.025C479.491 394.96 476.399 382.545 472.757 375.533C467.311 366.449 465.381 356.28 465.851 354.008" stroke="black" stroke-width="5" stroke-linecap="round"/>
<path d="M494.613 397.449C492.505 397.825 490.339 395.567 489.775 392.406C489.21 389.245 490.461 386.377 492.569 386.001C494.676 385.625 496.842 387.882 497.407 391.044C497.971 394.205 496.72 397.073 494.613 397.449Z" fill="black"/>
<path d="M499.66 374.232C496.449 371.772 488.691 368.683 483.346 376.007" stroke="black" stroke-width="5" stroke-linecap="round"/>
<path d="M527.62 427.884C523.893 436.427 518.758 439.532 507.246 436.335" stroke="black" stroke-width="5" stroke-linecap="round"/>
<path d="M559.635 367.025C561.22 369.38 563.156 375.005 558.219 378.656" stroke="black" stroke-width="5" stroke-linecap="round"/>
<path d="M612.781 331.278C624.926 364.997 609.396 394.487 598.328 417.011C581.544 411.255 553.012 395.673 562.336 391.927C572.137 387.989 578.247 358.451 566.954 351.606C553.704 343.576 545.764 360.385 545.675 372.144L533.65 357.552C534.41 345.82 532.148 325.837 517.017 339.769C501.887 353.701 476.496 354.939 465.692 353.816C442.895 342.627 405.587 313.887 438.726 288.438C466.289 267.272 509.046 281.113 536.123 295.438C551.677 288.435 596.221 285.304 612.781 331.278Z" fill="black"/>
<path d="M596.81 414.869C590.931 424.946 588.501 432.905 591.491 448.057" stroke="black" stroke-width="5" stroke-linecap="round"/>
<path d="M613.366 453.396C612.366 445.896 608.866 439.397 599.346 444.289C582.512 452.94 543.366 475.396 549.866 496.397" stroke="black" stroke-width="5" stroke-linecap="round"/>
<path d="M1270.43 770.634C1192.38 743.638 1245.2 576.601 1281.37 496.457C1341.92 512.655 1405.29 484.646 1429.39 468.618C1431.65 480.71 1444.03 516.873 1475.65 564.79C1507.27 612.708 1548.3 637.628 1555.55 658.432C1573.21 709.049 1534.52 735.202 1515.18 741.107C1447.22 756.629 1389.86 680.086 1369.68 639.872C1340.74 758.654 1291.46 776.539 1270.43 770.634Z" fill="black"/>
<path d="M1158.46 263.164C1147.29 270.478 1166.37 296.873 1175.68 310.937L1186.94 321.3C1198.13 323.551 1203.73 313.316 1205.05 307.455L1182.42 265.274C1179.1 261.523 1169.65 255.85 1158.46 263.164Z" fill="black"/>
<path d="M1124.05 277.618H1141.05" stroke="black" stroke-width="5" stroke-linecap="round"/>
<path d="M1141.05 238.618L1146.05 252.618" stroke="black" stroke-width="5" stroke-linecap="round"/>
<path d="M1124.05 251.618C1124.9 252.051 1135.74 260.465 1141.05 264.618" stroke="black" stroke-width="5" stroke-linecap="round"/>
<path d="M1255.78 758.618C1256.36 767.381 1252.38 796.777 1229.46 780.665C1223.8 775.012 1210.44 765.741 1202.29 773.881C1194.14 782.022 1210.22 797.06 1219.27 803.561C1228.61 810.911 1251.53 823.403 1268.51 814.584C1285.49 805.765 1285.22 782.644 1282.95 772.185" stroke="black" stroke-width="5" stroke-linecap="round"/>
<path d="M1534.05 727.9C1539.98 730.727 1551.83 738.583 1551.83 747.4C1545.06 757.009 1534.22 780.635 1545.06 798.269C1555.89 815.904 1575.53 775.661 1584 753.335C1588.23 740.617 1588.74 712.47 1556.91 701.618" stroke="black" stroke-width="5" stroke-linecap="round"/>
<path d="M1281.05 808.618C1284.68 815.573 1298.95 825.809 1327.05 811.121" stroke="black" stroke-width="5" stroke-linecap="round"/>
<path d="M1300.05 796.618C1308.12 803.907 1329.71 815.898 1357.05 805.645" stroke="black" stroke-width="5" stroke-linecap="round"/>
<path d="M1339.05 791.618C1349.17 803.317 1377.34 822.204 1409.05 804.153" stroke="black" stroke-width="5" stroke-linecap="round"/>
<path d="M1383.05 785.618C1385.57 795.981 1419.71 818.09 1536.05 823.618" stroke="black" stroke-width="5" stroke-linecap="round"/>
<path d="M747.866 1253.28C781.033 1237.61 861.766 1207.28 919.366 1211.28C927.533 1211.61 939.866 1215.08 923.866 1226.28C907.866 1237.48 899.866 1243.28 897.866 1244.78C889.533 1251.78 881.366 1266.58 915.366 1269.78C957.866 1273.78 1077.86 1230.28 1315.36 1262.28" stroke="black" stroke-width="5" stroke-linecap="round"/>
<path d="M2.86621 781.121C18.1784 773.966 55.4509 760.114 82.0433 761.941C85.8136 762.093 91.5076 763.676 84.1208 768.791C76.734 773.906 73.0406 776.554 72.1173 777.239C68.27 780.436 64.4997 787.195 80.1966 788.656C99.8177 790.483 155.218 770.617 264.866 785.231" stroke="black" stroke-width="5" stroke-linecap="round"/>
<path d="M1271.65 430.618C1270.32 441.273 1270.35 467.591 1281.05 487.618" stroke="black" stroke-width="5" stroke-linecap="round"/>
<path d="M1312.05 285.618C1306.63 288.47 1276.05 303.118 1276.05 341.618" stroke="black" stroke-width="5" stroke-linecap="round"/>
</svg>
