<svg width="756" height="848" viewBox="0 0 756 848" fill="none" xmlns="http://www.w3.org/2000/svg">
<circle cx="95.4248" cy="263.5" r="42" stroke="black" stroke-width="5"/>
<circle cx="95.9248" cy="231" r="3" fill="black"/>
<circle cx="95.9248" cy="296" r="3" fill="black"/>
<circle cx="127.925" cy="264" r="3" fill="black"/>
<circle cx="62.9248" cy="264" r="3" fill="black"/>
<circle cx="95.4248" cy="263.5" r="6.5" fill="black"/>
<path d="M78.9248 264H92.9248" stroke="black" stroke-width="5" stroke-linecap="round"/>
<path d="M95.9248 264V242" stroke="black" stroke-width="5" stroke-linecap="round"/>
<path d="M334.55 102.613C336.815 128.159 348.405 173.212 376.55 174.958C406.197 176.798 418.55 117.327 418.55 102" stroke="black" stroke-width="5" stroke-linecap="round"/>
<path d="M340.05 101.5L331.55 100" stroke="black" stroke-width="5" stroke-linecap="round"/>
<path d="M421.978 100C430.824 102.273 437.78 112.152 416.55 131" stroke="black" stroke-width="5" stroke-linecap="round"/>
<path d="M330.511 100C322.679 101.033 314.434 113.02 338.55 131" stroke="black" stroke-width="5" stroke-linecap="round"/>
<circle cx="355.55" cy="105" r="5" fill="black"/>
<circle cx="396.55" cy="105" r="5" fill="black"/>
<circle cx="356.05" cy="104.5" r="16" stroke="black" stroke-width="5"/>
<circle cx="396.05" cy="104.5" r="16" stroke="black" stroke-width="5"/>
<path d="M372.55 103H379.55" stroke="black" stroke-width="5" stroke-linecap="round"/>
<path d="M369.05 114C367.4 122.999 367.216 137.941 383.549 129.713" stroke="black" stroke-width="5" stroke-linecap="round"/>
<path d="M365.55 145C368.883 147.264 377.55 150.433 385.55 145" stroke="black" stroke-width="5" stroke-linecap="round"/>
<path d="M411.55 100H421.55" stroke="black" stroke-width="5" stroke-linecap="round"/>
<path d="M329.526 50.1153C298.044 64.9395 312.719 90.8818 323.992 102C325.96 100.518 332.191 100.147 335.06 100.147C329.649 60.6157 350.022 50.1149 359.04 47.6442C384.251 43.3205 413.15 50.1153 418.07 69.8809C423.946 93.4928 424.131 101.382 428.698 102C446.056 88.1641 443.496 61.6452 440.047 50.1153C444.547 37.2363 434.496 25.6142 428.698 18.6138C422.901 11.6135 407.002 -1.15211 378.717 0.0835773C322.762 5.64265 326.452 40.2325 329.526 50.1153Z" fill="black"/>
<path d="M345.55 80C348.05 79.2454 355.55 78.1889 365.55 80" stroke="black" stroke-width="5" stroke-linecap="round"/>
<path d="M387.55 81C389.925 80.2454 397.05 79.1889 406.55 81" stroke="black" stroke-width="5" stroke-linecap="round"/>
<path d="M292.195 778C245.105 754.455 264.106 524.074 292 404.831C292.114 404.344 292.568 404.037 293.066 404.085L449.435 419.425C449.884 419.469 450.244 419.786 450.319 420.231C464.529 504.038 493.152 681.802 486.195 731C479.55 778 469.695 774.927 438.195 778C370.617 784.593 367.173 623.151 368.566 530.713C368.584 529.541 367.128 529.345 366.894 530.493C356.995 579.123 368.695 671.412 368.695 716C368.695 763 351.195 807.5 292.195 778Z" fill="black"/>
<path d="M313.895 796.5V808C295.395 816 262.995 834.1 281.395 842.5C299.795 850.9 331.729 833 345.396 823V792" stroke="black" stroke-width="5" stroke-linecap="round"/>
<path d="M430.925 787V816.5C439.925 824.333 466.425 839.3 500.425 836.5C542.925 833 473.925 825 454.925 789.5" stroke="black" stroke-width="5" stroke-linecap="round"/>
<path d="M447.925 414.868V254.912C447.925 253.102 449.517 251.707 451.317 251.897C519.788 259.123 590.813 217.709 603.425 206C610.425 199.502 666.425 136.502 589.425 163.998C512.805 191.359 435.515 194.515 402.917 189.882C401.466 189.676 400.425 188.423 400.425 186.957V161.368" stroke="black" stroke-width="5" stroke-linecap="round"/>
<path d="M354.426 163.368V185.535C354.426 186.968 353.446 188.197 352.035 188.45C312.667 195.505 222.581 195.035 157.926 139.001C147.759 131.334 119.933 135.341 148.926 188.001C172.801 231.367 256.036 251.308 301.909 248.747C303.76 248.644 305.29 250.183 305.141 252.031L293.43 397.368" stroke="black" stroke-width="5" stroke-linecap="round"/>
<path d="M657.925 162.5C652.925 171.5 664.588 172.823 670.425 174.214C673.091 175.06 676.725 178.926 669.925 187.626" stroke="black" stroke-width="5" stroke-linecap="round"/>
<path d="M666.925 165C663.425 164.5 659.52 163.231 657.925 162.5C655.877 161.561 654.581 158.463 655.425 156.214C657.648 150.284 667.425 155.096 674.925 157.714" stroke="black" stroke-width="5" stroke-linecap="round"/>
<path d="M680.925 151.214C672.925 147.881 653.925 140.714 657.925 153.479" stroke="black" stroke-width="5" stroke-linecap="round"/>
<path d="M662.425 145.5C661.425 142.5 660.725 135.114 681.925 140.714C693.425 143.751 692.925 153.087 692.925 157.714C692.925 174.285 677.591 184.559 669.925 187.626C656.816 192.788 638.043 198.26 629.925 193.714" stroke="black" stroke-width="5" stroke-linecap="round"/>
<path d="M633.425 156.214C637.091 151.381 646.325 140.914 653.925 137.714C666.591 130.714 689.925 121.513 681.925 140.714" stroke="black" stroke-width="5" stroke-linecap="round"/>
<path d="M104.928 139.243C109.928 148.243 98.2645 149.567 92.4278 150.957C89.7611 151.803 86.1278 155.669 92.9278 164.369" stroke="black" stroke-width="5" stroke-linecap="round"/>
<path d="M95.9278 141.743C99.4278 141.243 103.333 139.975 104.928 139.243C106.976 138.304 108.271 135.206 107.428 132.957C105.204 127.027 95.4278 131.839 87.9278 134.457" stroke="black" stroke-width="5" stroke-linecap="round"/>
<path d="M81.9275 127.957C89.9275 124.624 108.928 117.457 104.928 130.222" stroke="black" stroke-width="5" stroke-linecap="round"/>
<path d="M100.428 122.243C101.428 119.243 102.128 111.857 80.9277 117.457C69.4277 120.494 69.9277 129.83 69.9277 134.457C69.9277 151.028 85.2611 161.303 92.9277 164.369C106.037 169.532 124.81 175.003 132.928 170.457" stroke="black" stroke-width="5" stroke-linecap="round"/>
<path d="M129.428 132.957C125.761 128.124 116.528 117.657 108.928 114.457C96.2611 107.457 72.9277 98.2566 80.9277 117.457" stroke="black" stroke-width="5" stroke-linecap="round"/>
<path d="M751.925 357C735.258 316.167 698.125 227.668 674.925 184.868M674.925 137.5C676.758 132.667 681.825 121.2 687.425 114M661.93 172.868L572.925 357.5" stroke="black" stroke-width="5" stroke-linecap="round"/>
<path d="M3.4248 307L93.9248 153M98.4297 149.868L185.925 308M84.4297 114.368C82.0964 108.701 74.2248 98.1 55.4248 92.5" stroke="black" stroke-width="5" stroke-linecap="round"/>
<path d="M32.5782 329C6.64424 324.061 -0.25184 313.667 1.08149 306.5C93.8819 319.7 166.415 313 188.082 307.5C190.482 323.1 184.082 327 171.578 329C136.688 334.581 53.583 333 32.5782 329Z" fill="black"/>
<path d="M68.9248 297C30.3408 298.222 3.9248 302.378 3.9248 307.318C3.9248 313.218 44.443 318 94.4248 318C144.407 318 184.925 313.218 184.925 307.318C184.925 302.469 158.922 298.305 121.425 297" stroke="black" stroke-width="5" stroke-linecap="round"/>
<ellipse cx="98.9248" cy="776.5" rx="93" ry="10.5" fill="black"/>
<ellipse cx="662.925" cy="801.5" rx="93" ry="10.5" fill="black"/>
<path d="M602.419 378.5C570.555 375.536 567.591 365 570.425 357C628.424 374.2 717.42 364.167 754.42 358C756.42 373.5 744.92 374.5 742.92 374.5C740.92 374.5 645.425 382.5 602.419 378.5Z" fill="black"/>
<path d="M696.96 349C729.244 350.414 751.925 353.749 751.925 357.639C751.925 362.809 711.854 367 662.425 367C612.995 367 572.925 362.809 572.925 357.639C572.925 353.749 593.141 350.414 625.425 349" stroke="black" stroke-width="5" stroke-linecap="round"/>
<path d="M624.424 341.09C620.843 303.934 637.343 285.483 647.56 279.899C648.748 279.25 650.098 279 651.451 279H671.372C672.828 279 674.278 279.296 675.551 280.002C695.184 290.902 700.476 321.818 698.557 341.09C697.764 356.214 687.06 359 677.546 359H645.435C626.01 358.204 624.689 345.998 624.424 341.09Z" stroke="black" stroke-width="5" stroke-linecap="round"/>
<path d="M667.925 311.299C666.215 310.458 663.618 309.672 661.19 309.681C658.265 309.692 655.584 310.858 654.995 314.478C654.218 319.253 660.107 320.967 663.615 322.692C668.464 325.077 668.42 329.547 665.5 331.701C664.187 332.669 662.697 333.201 661.19 333.402C658.989 333.695 656.754 333.282 654.995 332.496" stroke="black" stroke-width="5" stroke-linecap="round"/>
<path d="M661.19 309.681V306" stroke="black" stroke-width="5" stroke-linecap="round"/>
<path d="M661.19 333.402V337" stroke="black" stroke-width="5" stroke-linecap="round"/>
<rect x="643.425" y="269.5" width="35" height="8" rx="4" stroke="black" stroke-width="5"/>
<path d="M648.925 266L639.925 250" stroke="black" stroke-width="5" stroke-linecap="round"/>
<path d="M672.925 266L680.925 249" stroke="black" stroke-width="5" stroke-linecap="round"/>
<path d="M639.925 249.681C642.617 250.256 648.567 250.456 650.829 246.667C653.09 242.879 656.079 243.941 657.29 244.945L660.925 248.39" stroke="black" stroke-width="5" stroke-linecap="round"/>
<path d="M680.925 248.735C678.361 249.213 672.694 249.38 670.54 246.223C668.386 243.065 665.54 243.95 664.386 244.788L660.925 247.947" stroke="black" stroke-width="5" stroke-linecap="round"/>
<path d="M346.925 202C346.925 211.462 350.506 227.191 359.42 235.633C360.246 236.415 361.551 236.234 362.221 235.316L376.72 215.431C377.562 214.276 379.309 214.351 380.048 215.575L391.785 235.001C392.42 236.051 393.838 236.289 394.729 235.445C400.211 230.254 408.774 219.632 409.493 208.5" stroke="black" stroke-width="5" stroke-linecap="round"/>
<circle cx="377.425" cy="277.5" r="3.5" fill="black"/>
<circle cx="377.425" cy="306.5" r="3.5" fill="black"/>
<circle cx="377.425" cy="335.5" r="3.5" fill="black"/>
<circle cx="377.425" cy="364.5" r="3.5" fill="black"/>
</svg>
