<svg width="844" height="983" viewBox="0 0 844 983" fill="none" xmlns="http://www.w3.org/2000/svg">
<path d="M125.139 444.368L93.4248 362.768" stroke="black" stroke-width="5" stroke-linecap="round"/>
<path d="M56.6396 370.868L89.6396 451.368L125.14 444.368L209.64 399.868L183.64 327.868" stroke="black" stroke-width="5" stroke-linecap="round"/>
<path d="M56.6396 370.868L93.4253 362.768L183.64 327.868L167.64 331.868L56.6396 370.868Z" stroke="black" stroke-width="5" stroke-linecap="round"/>
<path d="M144.098 348L169.948 418" stroke="black" stroke-width="5" stroke-linecap="round"/>
<path d="M76.6348 412.036L111.312 405.444L197.14 367.868" stroke="black" stroke-width="5" stroke-linecap="round"/>
<path d="M162.635 386.57C166.189 391.703 174.028 400.987 176.953 397.055C179.878 393.123 172.688 384.713 168.728 381" stroke="black" stroke-width="5" stroke-linecap="round"/>
<path d="M160.194 384C158.338 376.152 156.618 359.64 164.59 356.375C172.562 353.11 166.935 371.966 163.125 381.803" stroke="black" stroke-width="5" stroke-linecap="round"/>
<path d="M105.635 347.992C110.721 345.372 122.548 343.401 129.161 351.452" stroke="black" stroke-width="5" stroke-linecap="round"/>
<path d="M105.635 347.993C109.556 347.468 118.415 349.251 122.484 355.541" stroke="black" stroke-width="5" stroke-linecap="round"/>
<path d="M105.635 347.993C105.953 349.251 113.265 353.025 111.675 359" stroke="black" stroke-width="5" stroke-linecap="round"/>
<path d="M136.473 336.671C139.228 336.566 143.976 339.061 147.282 347.363" stroke="black" stroke-width="5" stroke-linecap="round"/>
<path d="M136.473 336.671C142.089 335.203 152.687 335.161 156.502 344.218" stroke="black" stroke-width="5" stroke-linecap="round"/>
<path d="M136.473 336.671C143.149 334.365 156.056 331.764 160.635 337.299" stroke="black" stroke-width="5" stroke-linecap="round"/>
<path d="M139.635 333C146.094 325.376 155.136 306.18 139.635 290.389C141.858 284.332 150.371 273.407 166.635 278.17" stroke="black" stroke-width="5" stroke-linecap="round"/>
<path d="M166.483 278C165.047 273.296 164.514 264.079 172.635 261" stroke="black" stroke-width="5" stroke-linecap="round"/>
<path d="M172.635 260.713C167.858 248.145 148.769 232.008 110.635 268" stroke="black" stroke-width="5" stroke-linecap="round"/>
<path d="M172.635 260L180.635 274" stroke="black" stroke-width="5" stroke-linecap="round"/>
<path d="M166.635 278L180.635 274" stroke="black" stroke-width="5" stroke-linecap="round"/>
<ellipse cx="161.135" cy="260.5" rx="1.5" ry="3.5" fill="black"/>
<path d="M110.635 266C97.2456 242.6 63.5009 199.421 35.6348 213.906" stroke="black" stroke-width="5" stroke-linecap="round"/>
<path d="M35.6348 214L38.6348 220" stroke="black" stroke-width="5" stroke-linecap="round"/>
<path d="M107.635 272C96.7566 252.979 63.3272 216.737 16.6348 223.932" stroke="black" stroke-width="5" stroke-linecap="round"/>
<path d="M31.5659 238.184C31.3187 237.543 30.9833 236.793 30.5624 235.977M16.7026 224C23.5324 225.276 28.2916 231.578 30.5624 235.977M30.5624 235.977C26.1533 232.72 14.4256 227.404 2.78792 232.195C1.82364 235.719 5.51399 240.196 11.0102 244.627M36.3096 259.932C29.3208 256.601 18.4923 250.657 11.0102 244.627M37.8908 280.419C33.3854 277.165 26.9492 271.839 21.4834 265.921M11.0102 244.627C9.76858 250.874 14.928 258.823 21.4834 265.921M53.3867 303.429C41.8159 297.23 19.2361 281.05 21.4834 265.921M79.6348 329.905C78.0504 329.741 76.2362 329.441 74.2587 328.983M31.5659 288.93C38.6227 314.865 60.4323 325.782 74.2587 328.983M66.0364 363C63.2956 357.133 61.103 342.115 74.2587 328.983" stroke="black" stroke-width="5" stroke-linecap="round"/>
<path d="M66.0361 363C63.2954 357.133 61.1028 342.115 74.2584 328.983" stroke="black" stroke-width="5" stroke-linecap="round"/>
<path d="M79.6352 329.905C78.0508 329.741 76.2366 329.441 74.2591 328.983C60.4327 325.782 38.6232 314.865 31.5664 288.93" stroke="black" stroke-width="5" stroke-linecap="round"/>
<path d="M53.3865 303.428C41.8157 297.23 19.236 281.05 21.4832 265.92" stroke="black" stroke-width="5" stroke-linecap="round"/>
<path d="M37.8913 280.419C33.3859 277.165 26.9496 271.839 21.4838 265.921C14.9285 258.823 9.76902 250.874 11.0107 244.626" stroke="black" stroke-width="5" stroke-linecap="round"/>
<path d="M31.5659 238.184C31.3187 237.543 30.9833 236.793 30.5624 235.977C26.1533 232.72 14.4256 227.404 2.78792 232.195C1.82364 235.719 5.51399 240.196 11.0102 244.626C18.4923 250.657 29.3208 256.6 36.3096 259.932" stroke="black" stroke-width="5" stroke-linecap="round"/>
<path d="M31.5655 238.184C31.5655 238.184 30.9829 236.793 30.562 235.977C28.2912 231.578 23.532 225.276 16.7021 224" stroke="black" stroke-width="5" stroke-linecap="round"/>
<path d="M597.694 900.634C592.048 878.064 572.335 838.749 569.593 815L643.616 819.796C653.44 846.742 667.194 910.363 643.616 949.275C620.039 988.187 560 986.954 553.832 977.363C550.405 969.827 544.371 952.563 569.593 949.275C601.121 945.164 603.865 925.297 597.694 900.634Z" fill="black"/>
<path d="M814.274 974.951C751.442 966.742 712.834 865.301 702.135 814L756.635 801.5C764.284 856.768 790.143 899.709 799.249 912.022C823.153 941.434 877.107 983.159 814.274 974.951Z" fill="black"/>
<path d="M515.712 516C505.453 554.014 492.041 653.941 511.739 795.98C538.787 812.597 629.032 835.86 773.635 795.98C765.054 730.651 747.166 616.247 721.648 555.607" stroke="black" stroke-width="5" stroke-linecap="round"/>
<path d="M532.135 740.5C557.397 754.108 619.866 772.577 717.637 751.794" stroke="black" stroke-width="5" stroke-linecap="round"/>
<path d="M549.678 552L572.209 792M527.83 678.186C558.327 685.402 633.385 695.505 689.644 678.186" stroke="black" stroke-width="5" stroke-linecap="round"/>
<path d="M527.83 612.619C551.727 618.804 613.038 627.464 667.113 612.619" stroke="black" stroke-width="5" stroke-linecap="round"/>
<path d="M699.202 706.639L717.637 792" stroke="black" stroke-width="5" stroke-linecap="round"/>
<path d="M620.686 594.062L654.823 792" stroke="black" stroke-width="5" stroke-linecap="round"/>
<path d="M545.635 387.745C553.863 368.101 571.555 333.335 590.206 356.908C608.858 380.481 610.092 430.918 621.063 408.303L641.635 354.167" stroke="black" stroke-width="5" stroke-linecap="round"/>
<path d="M784.114 301.511C753.199 330.884 721.842 335.14 709.77 336.5C685.135 339.275 644.27 314 644.27 286.5C666.593 270.374 682.813 240.065 687.993 227.749C693.811 232.669 701.379 230.796 704.436 229.245C708.366 226.687 715.904 217.059 714.619 199.014C713.334 180.968 700.232 185.813 693.842 190.491L661.913 193.931C663.256 164.096 644.865 154.14 635.502 152.892C642.861 136.364 629.699 129.133 622.773 126.292C612.837 138.469 599.817 143.375 594.312 145.656C538.277 160.315 504.074 140.245 488.287 115.197C471.15 89.9117 473.924 30.535 522.405 16.0804C538.258 9.98027 575.84 4.97862 599.348 33.7734C668.552 8.34136 701.305 81.1271 710.291 107.558L720.676 131.657C810.861 150.841 818.798 236.14 802.957 273.496C795.775 290.434 794.83 291.331 784.589 301.059L784.114 301.511Z" fill="black"/>
<path d="M516.647 514.176C535.514 532.475 599.618 559.649 705.094 521.951C707.33 517.168 708.493 486.481 705.094 476.59" stroke="black" stroke-width="5" stroke-linecap="round"/>
<path d="M617.317 319.5C685.818 319.5 707.948 365.252 715.629 391C729.668 435.426 715.629 531 520.86 502.329C509.63 500.676 504.131 485.585 526.129 471.124C549.135 456 573.63 446.5 603.135 440.5" stroke="black" stroke-width="5" stroke-linecap="round"/>
<path d="M582.818 319.5C539.818 329.908 508.133 374.32 520.82 471.124" stroke="black" stroke-width="5" stroke-linecap="round"/>
<path d="M535.64 354.001C467.806 361.694 435.14 366.5 426.364 388.015C423.512 395 426.958 399.922 438.635 406C460.074 417.158 494.635 424.5 510.136 427.5" stroke="black" stroke-width="5" stroke-linecap="round"/>
<path d="M451.195 519.534C453.936 523.003 464.388 528.377 484.274 522.115C504.161 515.854 512.134 506.07 513.634 501.961" stroke="black" stroke-width="5" stroke-linecap="round"/>
<path d="M433.384 511.502C431.491 514.779 431.505 521.059 446.693 519.963L451.195 519.534L459.025 518.789" stroke="black" stroke-width="5" stroke-linecap="round"/>
<path d="M434.757 499.418C431.102 499.875 424.498 502.275 427.316 508.223C428.167 510.018 430.416 511.026 433.384 511.502C440.251 512.604 450.963 510.854 457.068 509.397" stroke="black" stroke-width="5" stroke-linecap="round"/>
<path d="M507.586 479.288C501.824 473.825 489.795 462.828 478.99 462.046C476.25 461.915 470.378 460.832 468.812 457.545C466.855 453.436 457.851 457.937 463.919 466.155C469.987 474.373 477.424 471.633 473.118 478.677C469.673 484.312 448.847 486.895 438.865 487.482C435.342 487.547 428.804 489.321 430.84 495.896C431.344 497.524 432.77 498.657 434.757 499.418C440.795 501.729 452.008 500.596 458.243 499.418" stroke="black" stroke-width="5" stroke-linecap="round"/>
<path d="M384.14 407.772C384.14 415.954 397.025 415.781 417.144 410.394C429.767 407.015 425.555 407.274 432.641 406.606" stroke="black" stroke-width="5" stroke-linecap="round"/>
<path d="M366.369 399.611C364.481 402.941 364.494 409.321 379.649 408.207L384.14 407.772L391.952 407.015" stroke="black" stroke-width="5" stroke-linecap="round"/>
<path d="M367.738 387.333C364.092 387.797 357.502 390.236 360.315 396.28C361.163 398.103 363.408 399.128 366.369 399.612C373.221 400.731 383.908 398.953 389.999 397.472" stroke="black" stroke-width="5" stroke-linecap="round"/>
<path d="M440.402 366.881C434.654 361.331 426.176 352.194 415.396 351.399C412.662 351.266 405.656 347.1 401.717 344.79C397.777 342.48 390.78 345.188 396.834 353.537C402.888 361.887 410.309 359.104 406.013 366.261C402.576 371.986 381.797 374.61 371.837 375.207C368.322 375.273 361.799 377.075 363.83 383.755C364.333 385.409 365.756 386.561 367.739 387.333C373.763 389.682 384.951 388.53 391.171 387.333" stroke="black" stroke-width="5" stroke-linecap="round"/>
<path d="M496.06 328.4C448.397 241.508 485.666 206.592 508.092 189.881C505.442 255.684 549.77 287.5 567.27 298.5L552.27 312.5C533.135 327 512.635 350 496.06 328.4Z" fill="black"/>
<path d="M661.867 194.417C658.26 214.947 640.555 228.508 622.768 225.383C604.982 222.259 592.958 203.475 596.565 182.945C600.171 162.415 617.877 148.854 635.663 151.978C653.45 155.103 665.473 173.887 661.867 194.417Z" stroke="black" stroke-width="5"/>
<path d="M574.648 191.625C571.041 212.155 553.336 225.716 535.549 222.591C517.763 219.467 505.739 200.683 509.346 180.153C512.952 159.623 530.658 146.062 548.444 149.186C566.231 152.311 578.254 171.095 574.648 191.625Z" stroke="black" stroke-width="5"/>
<path d="M575.263 183.913L596.902 185.252" stroke="black" stroke-width="5" stroke-linecap="round"/>
<path d="M587.368 204.997C581.026 221.285 568.057 234.878 582.395 245.193" stroke="black" stroke-width="5" stroke-linecap="round"/>
<path d="M567.362 266.697C571.704 271.496 583.816 278.215 597.528 266.697" stroke="black" stroke-width="5" stroke-linecap="round"/>
<circle cx="536.057" cy="200.421" r="9" transform="rotate(9.96339 536.057 200.421)" fill="black"/>
<circle cx="620.057" cy="198.421" r="9" transform="rotate(9.96339 620.057 198.421)" fill="black"/>
<path d="M701.904 202.842C703.005 205.82 704.072 212.69 699.532 216.347" stroke="black" stroke-width="5" stroke-linecap="round"/>
<path d="M518.101 143.609C505.186 168.256 493.569 228.475 545.145 280.414C596.72 332.354 652.008 283.641 673.206 252.792L688.198 226.886C694.424 232.388 708.08 237.339 712.89 213.125C717.701 188.911 708.209 185.619 702.862 187C699.963 187.651 693.611 190.526 691.392 196.819" stroke="black" stroke-width="5" stroke-linecap="round"/>
<path d="M661.865 193.024L697.288 189.501" stroke="black" stroke-width="5" stroke-linecap="round"/>
<path d="M630.006 176.009C635.599 176.806 646.736 181.285 646.543 192.826" stroke="black" stroke-width="5" stroke-linecap="round"/>
<path d="M523.451 180.521C527.718 178.646 538.152 176.41 545.751 182.47" stroke="black" stroke-width="5" stroke-linecap="round"/>
<path d="M625.635 319.803V296" stroke="black" stroke-width="5" stroke-linecap="round"/>
<path d="M573.64 300.868L573.635 322" stroke="black" stroke-width="5" stroke-linecap="round"/>
<path d="M155.879 517.722C167.689 538.061 210.782 567.859 289.543 527.241C291.052 526.462 292.86 527.755 292.544 529.424C284.398 572.473 283.866 643.149 384.379 669.722C427.879 681.222 467.879 658.722 435.879 631.722C392.333 594.98 314.879 716.722 359.879 791.222" stroke="black" stroke-width="5" stroke-linecap="round"/>
</svg>
