<svg width="761" height="848" viewBox="0 0 761 848" fill="none" xmlns="http://www.w3.org/2000/svg">
<path d="M256.954 351C257.298 336.546 253.541 302.554 235.757 282.219C213.526 256.8 211.975 241.349 211.975 194" stroke="black" stroke-width="5" stroke-linecap="round"/>
<path d="M265.975 208C257.61 206.557 243.389 196.937 253.427 170" stroke="black" stroke-width="5" stroke-linecap="round"/>
<path d="M385.707 166.171C385.391 171.092 382.203 181.131 371.974 181.919" stroke="black" stroke-width="5" stroke-linecap="round"/>
<path d="M371.975 208C390.916 197.01 421.317 170.01 391.39 149.932C387.286 146.979 377.657 145.208 371.975 161.742" stroke="black" stroke-width="5" stroke-linecap="round"/>
<path d="M326.975 136C323.214 134.491 313.549 132.378 304.975 136" stroke="black" stroke-width="5" stroke-linecap="round"/>
<path d="M237.975 141C233.53 139.491 222.108 137.378 211.975 141" stroke="black" stroke-width="5" stroke-linecap="round"/>
<path d="M355.889 24.2904C467.864 35.9505 433.649 120.955 402.545 162C396.192 147.927 383.684 147.425 378.224 148.933C373.063 69.7245 323.792 80.4129 299.803 95.6581C249.771 93.6478 237.264 113.584 237.264 123.803C215.577 110.105 197.213 126.188 195.724 129.706C140.134 -34.3396 279.784 -8.37792 355.889 24.2904Z" fill="black"/>
<circle r="35.5" transform="matrix(-1 0 0 1 311.975 155)" stroke="black" stroke-width="5"/>
<ellipse rx="8.5" ry="10.5" transform="matrix(-1 0 0 1 313.475 161.5)" fill="black"/>
<path d="M185.475 155C185.475 174.575 201.561 190.5 221.475 190.5C241.388 190.5 257.475 174.575 257.475 155C257.475 135.425 241.388 119.5 221.475 119.5C201.561 119.5 185.475 135.425 185.475 155Z" stroke="black" stroke-width="5"/>
<circle r="10.5" transform="matrix(-1 0 0 1 220.475 161.5)" fill="black"/>
<path d="M347.975 150L373.975 156" stroke="black" stroke-width="5" stroke-linecap="round"/>
<path d="M222.475 268.029C215.308 267.696 178.475 270.5 163.475 286" stroke="black" stroke-width="5" stroke-linecap="round"/>
<path d="M70.9746 154C74.9344 158.299 79.0141 160.51 82.9649 161.304C84.6691 161.647 85.6171 163.74 84.2396 164.8C75.0672 171.858 63.8795 165.887 58.9746 161.5" stroke="black" stroke-width="5" stroke-linecap="round"/>
<path d="M106.475 150.947C102.828 155.415 95.6709 161.195 87.4746 161.628C82.1862 161.908 76.4651 159.961 70.9746 154" stroke="black" stroke-width="5" stroke-linecap="round"/>
<path d="M121.475 136.796C118.438 142.488 112.925 149.365 106.475 150.947C100.536 152.404 93.8022 149.373 87.4746 136.796" stroke="black" stroke-width="5" stroke-linecap="round"/>
<path d="M130.848 136.796C140.222 156.092 130.848 159.5 117.975 169.5C111.777 174.315 106.705 171.272 105.592 165.642C105.388 164.611 103.625 164.001 102.935 164.794C94.616 174.347 82.1436 178.405 75.9344 178.18C74.4907 178.128 72.7568 179.108 72.593 180.543C72.3816 182.396 72.2129 184.215 72.084 186" stroke="black" stroke-width="5" stroke-linecap="round"/>
<path d="M103.975 120.5C108.393 126 115.434 133.421 121.475 136.796C125.314 138.941 128.749 139.452 130.848 136.796C131.552 135.906 132.106 134.66 132.475 133C135.675 118.6 120.475 88.7622 109.475 94.0002C95.475 100.667 61.6749 119.3 38.4749 140.5C26.9552 151.027 18.7393 173.988 13.1416 198.5" stroke="black" stroke-width="5" stroke-linecap="round"/>
<path d="M149.975 376C34.3746 357.2 4.14128 295.167 3.47461 266.5C4.47952 249.836 7.45361 223.46 13.1072 198.649C13.1299 198.55 13.1587 198.456 13.1967 198.361C18.5704 184.987 37.5089 164.095 71.0739 185.351C71.688 185.74 72.0493 186.458 72.0036 187.184C69.9583 219.667 81.0885 240.658 87.4746 247.5C99.4746 260 138.275 286.7 197.475 293.5" stroke="black" stroke-width="5" stroke-linecap="round"/>
<path d="M318.975 761C235.475 709 193.808 538.333 185.975 489C277.475 565 358.641 501.667 381.475 481.5C393.475 509.9 478.609 625.5 476.475 664.5C472.075 744.9 426.808 722.167 401.975 701.5C386.475 690 347.141 633.333 331.475 608C322.975 637.167 359.975 696 362.975 725.5C362.975 769.9 333.641 767.667 318.975 761Z" fill="black"/>
<path d="M154.656 356.085C159.148 398.507 161.647 428.973 183.851 483.199C183.931 483.396 184.039 483.576 184.178 483.737C212.635 516.831 288.503 559.699 380.128 479.304C380.351 479.109 380.534 478.862 380.65 478.589C400.124 432.831 395.076 364.081 372.588 308.221C372.06 306.911 370.382 306.56 369.35 307.524C350.081 325.531 310.385 353.335 281.974 336C262.238 323.957 258.141 317 250.474 309" stroke="black" stroke-width="5" stroke-linecap="round"/>
<path d="M580.475 614C554.141 612.333 497.375 604.2 464.975 561" stroke="black" stroke-width="5" stroke-linecap="round"/>
<path d="M481.475 684C496.308 680 536.875 660.4 580.475 614" stroke="black" stroke-width="5" stroke-linecap="round"/>
<path d="M580.475 614C539.475 618.667 463.075 617.7 431.475 554.5" stroke="black" stroke-width="5" stroke-linecap="round"/>
<path d="M85.4739 674C60.3072 609.167 30.8738 461.3 132.474 374.5" stroke="black" stroke-width="5" stroke-linecap="round"/>
<path d="M94.9741 362.5C52.3074 399.667 -7.72583 512.8 85.4742 674" stroke="black" stroke-width="5" stroke-linecap="round"/>
<path d="M85.4746 674C102.641 646.833 156.975 617 223.475 663.5" stroke="black" stroke-width="5" stroke-linecap="round"/>
<path d="M322.54 770.931C325.678 786.305 336.066 822.345 363.464 822.83C380.843 822.269 374.94 803.997 364.061 773.384" stroke="black" stroke-width="5" stroke-linecap="round"/>
<path d="M484.474 525.001C481.141 521.167 476.974 511.301 486.974 502.501C489.277 501.856 493.312 501.832 497.474 504.102C500.841 505.939 504.291 509.276 506.974 515.001" stroke="black" stroke-width="5" stroke-linecap="round"/>
<path d="M497.475 504.102C499.369 499.026 504.419 492.227 511.975 495.665C514.392 496.765 517.066 498.913 519.975 502.501" stroke="black" stroke-width="5" stroke-linecap="round"/>
<path d="M486.975 502.501C484.475 500 477.375 495.186 490.975 487.186C507.975 477.186 516.475 472.5 522.475 487.186" stroke="black" stroke-width="5" stroke-linecap="round"/>
<path d="M511.975 495.665C513.909 492.103 517.708 487.752 522.475 487.186C526.332 486.728 530.823 488.747 535.475 495.665C545.875 511.134 536.475 523.334 530.475 527.501L506.975 547.001C486.475 559.5 428.375 552.601 401.975 539.001" stroke="black" stroke-width="5" stroke-linecap="round"/>
<path d="M276.475 253.5C285.641 257.833 304.975 257 315.475 240" stroke="black" stroke-width="5" stroke-linecap="round"/>
<path d="M368.475 291.5C438.171 330.055 412.252 420.084 405.21 446.608C405.049 447.216 405.092 447.811 405.327 448.395C416.928 477.13 454.659 505.527 474.259 513.531C475.707 514.122 476.534 515.662 476.19 517.188C473.765 527.95 471.223 546.626 476.833 552.5" stroke="black" stroke-width="5" stroke-linecap="round"/>
<path d="M354.475 264C351.809 270.667 348.075 288.3 354.475 305.5" stroke="black" stroke-width="5" stroke-linecap="round"/>
<path d="M424.975 727C428.808 748.333 450.475 784 463.475 776C469.612 772.223 474.775 758.1 467.975 730.5" stroke="black" stroke-width="5" stroke-linecap="round"/>
<path d="M496.117 837.43C511.429 830.275 548.702 816.423 575.294 818.25C579.065 818.402 584.759 819.985 577.372 825.1C569.985 830.215 566.292 832.863 565.368 833.548C561.521 836.745 557.751 843.504 573.448 844.965C593.069 846.792 648.47 826.926 758.117 841.54" stroke="black" stroke-width="5" stroke-linecap="round"/>
<path d="M485.066 381.005C491.672 365.68 499.583 325.009 478.376 284.924" stroke="black" stroke-width="5" stroke-linecap="round"/>
<path d="M507.605 306.088C509.541 299.832 511.456 283.272 503.635 267.085" stroke="black" stroke-width="5" stroke-linecap="round"/>
<path d="M120.236 822V794" stroke="black" stroke-width="5" stroke-linecap="round"/>
<path d="M95.0312 809.556L110.407 822" stroke="black" stroke-width="5" stroke-linecap="round"/>
<path d="M130.496 822L142.031 803.778" stroke="black" stroke-width="5" stroke-linecap="round"/>
<path d="M678.526 695V662" stroke="black" stroke-width="5" stroke-linecap="round"/>
<path d="M649.031 680.334L667.024 695" stroke="black" stroke-width="5" stroke-linecap="round"/>
<path d="M690.533 695L704.032 673.524" stroke="black" stroke-width="5" stroke-linecap="round"/>
</svg>
