<svg width="903" height="729" viewBox="0 0 903 729" fill="none" xmlns="http://www.w3.org/2000/svg">
<path d="M440.781 144.776C440.781 148.248 439.481 155.093 434.281 154.693" stroke="black" stroke-width="5" stroke-linecap="round"/>
<path d="M465.281 132.693L473.281 139.443C475.781 141.553 477.781 144.776 477.781 148.693C477.781 150.842 476.789 152.304 475.401 153.229C471.626 155.741 468.346 152.424 466.613 148.235V148.235C464.372 142.819 456.849 143.091 451.3 144.977C448.158 146.045 444.528 146.298 440.781 144.776C438.961 144.037 437.114 142.879 435.281 141.193" stroke="black" stroke-width="5" stroke-linecap="round"/>
<path d="M475.781 128.103C478.526 129.971 482.343 132.115 484.499 134.98C485.077 135.748 485.296 136.002 485.461 136.949V136.949C486.546 143.178 478.237 143.625 473.405 139.548L473.281 139.443L465.281 132.693" stroke="black" stroke-width="5" stroke-linecap="round"/>
<path d="M460.781 112.693C466.381 111.893 477.781 114.36 482.781 115.693C491.281 118.193 495.381 126.093 489.781 129.693C486.293 131.936 480.684 130.415 475.781 128.103C472.813 126.703 470.104 125.013 468.281 123.693" stroke="black" stroke-width="5" stroke-linecap="round"/>
<path d="M407.281 139.193C409.448 124.693 420.981 96.3934 449.781 99.1934C461.624 100.345 469.757 101.874 475.219 103.426C482.12 105.387 489.943 115.272 482.781 115.693V115.693" stroke="black" stroke-width="5" stroke-linecap="round"/>
<path d="M596.004 84.973C622.526 90.4125 610.089 126.92 629.528 136.635C652.728 148.231 660.718 82.9421 657.699 55.2303C656.833 43.0797 642.683 37.6753 640.774 55.2303C638.747 73.8779 661.889 146.188 688.41 118.285L706.119 97.7994C711.039 91.7374 720.739 83.3155 728.937 97.7994C737.133 112.283 750.195 107.497 755.701 103.293L773.004 90.7091" stroke="black" stroke-width="5" stroke-linecap="round"/>
<path d="M760.175 35.0253L898.609 11.575C899.596 11.4078 900.189 12.6341 899.446 13.3041L834.909 71.425C834.835 71.4915 834.758 71.545 834.666 71.5828C829.054 73.8923 806.952 65.1313 795.541 59.9967C794.98 59.7442 794.325 60.0501 794.157 60.642C791.424 70.2854 788.074 79.2353 786.437 83.2577C786.26 83.6926 785.777 83.9465 785.421 83.6406C782.107 80.7944 781.692 62.6174 781.935 52.56C781.948 52.0464 781.572 51.6102 781.066 51.5199C772.592 50.0055 760.927 42.4393 756.004 38.7215" stroke="black" stroke-width="5" stroke-linecap="round"/>
<path d="M795.004 60C809.52 53.1193 846.242 35.8864 877.004 22" stroke="black" stroke-width="5" stroke-linecap="round"/>
<path d="M786.004 84L813.004 68" stroke="black" stroke-width="5" stroke-linecap="round"/>
<path d="M792.004 46L829.004 34" stroke="black" stroke-width="5" stroke-linecap="round"/>
<path d="M1.99392 711.114C-6.4029 703.797 30.9056 704.338 49.3198 704C51.9713 707.659 53.9232 707.726 58.7109 708.573C60.9206 714.163 10.3907 718.431 1.99392 711.114Z" fill="black"/>
<path d="M283.388 160C281.374 165.928 279.874 185.193 287.781 201" stroke="black" stroke-width="5" stroke-linecap="round"/>
<path d="M278.781 205.969C294.288 200.364 323.817 193.506 323.817 212.893V216.257C323.817 218.528 326.389 219.815 328.169 218.424C353.063 198.972 387.781 167.5 404.281 143.5C405.448 141.833 409.281 139.3 415.281 142.5C422.781 146.5 432.781 148.5 433.781 162C434.781 175.5 422.781 211 389.281 249C362.481 279.4 360.903 285.5 356.281 299C349.948 317.5 336.681 366.2 334.281 413" stroke="black" stroke-width="5" stroke-linecap="round"/>
<path d="M347.591 56C362.654 68.0154 386.031 93.9506 363.309 104.501C361.976 105.119 361.241 106.615 361.621 108.042C366.092 124.816 365.385 159.453 330.704 182.91C330.187 183.258 329.79 183.777 329.602 184.373L322.781 206" stroke="black" stroke-width="5" stroke-linecap="round"/>
<path d="M331.882 144C331.336 146.7 332.753 152.28 342.781 153" stroke="black" stroke-width="5" stroke-linecap="round"/>
<path d="M358.781 82.5C358.781 87.6127 357.191 92.1089 354.787 95.2494C352.383 98.3887 349.338 100 346.281 100C343.224 100 340.18 98.3887 337.776 95.2494C335.372 92.1089 333.781 87.6127 333.781 82.5C333.781 77.3873 335.372 72.8911 337.776 69.7506C340.18 66.6113 343.224 65 346.281 65C349.338 65 352.383 66.6113 354.787 69.7506C357.191 72.8911 358.781 77.3873 358.781 82.5Z" stroke="black" stroke-width="5" stroke-linecap="round"/>
<path d="M301.781 98L331.781 88" stroke="black" stroke-width="5" stroke-linecap="round"/>
<path d="M325.781 77C326.571 73.8895 329.476 66.7329 334.781 63" stroke="black" stroke-width="5" stroke-linecap="round"/>
<path d="M348.781 86C350.99 86 352.781 84.433 352.781 82.5C352.781 80.567 350.99 79 348.781 79C346.572 79 344.781 80.567 344.781 82.5C344.781 84.433 346.572 86 348.781 86Z" fill="black"/>
<path d="M278.781 205L162.781 339" stroke="black" stroke-width="5" stroke-linecap="round"/>
<path d="M162.781 339.42C171.307 338.253 193.471 338.819 213.931 350.432C239.507 364.947 266.585 390.475 333.781 413" stroke="black" stroke-width="5" stroke-linecap="round"/>
<path d="M333.781 413L311.781 428" stroke="black" stroke-width="5" stroke-linecap="round"/>
<path d="M162.887 339C161.187 344.151 159.5 356.164 173.781 371" stroke="black" stroke-width="5" stroke-linecap="round"/>
<path d="M246.781 242C228.472 257.374 182.044 289.809 142.809 296.555C133.655 300.357 117.895 311.036 128.096 323.335C138.297 335.635 145.098 350.613 147.224 356.563C148.859 362.02 152.928 369.626 162.737 352.169" stroke="black" stroke-width="5" stroke-linecap="round"/>
<path d="M130.781 328C123.055 332.556 105.039 341.261 94.7821 339.641C84.5248 338.022 77.6865 342.341 75.5495 344.703C74.3988 346.559 73.6757 350.371 79.9878 350.776C86.3 351.182 93.7958 350.945 96.7546 350.776" stroke="black" stroke-width="5" stroke-linecap="round"/>
<path d="M105.781 344C102.235 347.877 90.1756 356.689 70.3136 360.919C66.4292 361.624 61.1934 365.677 68.287 370.436C74.3671 374.137 91.1888 370.753 99.7011 365.677" stroke="black" stroke-width="5" stroke-linecap="round"/>
<path d="M99.3599 365C93.186 368.199 82.0729 376.718 87.0121 385.202C88.5951 386.885 95.2755 387.019 109.333 374.09L119.781 365" stroke="black" stroke-width="5" stroke-linecap="round"/>
<path d="M121.319 365.193L110.338 374.365C107.177 382.689 102.351 402.905 115.33 391.693C124.813 382.01 122.817 373.755 126.81 371.308C130.803 368.862 139.788 359.418 143.781 355" stroke="black" stroke-width="5" stroke-linecap="round"/>
<path d="M120.79 349C119.46 353.55 118.396 364.12 124.781 370" stroke="black" stroke-width="5" stroke-linecap="round"/>
<path d="M241.781 685C247.985 683.345 260.492 674.972 260.883 654.718C261.276 634.463 269.537 599.612 273.617 584.719L313.781 406" stroke="black" stroke-width="5" stroke-linecap="round"/>
<path d="M329.281 116C330.11 116 330.781 115.328 330.781 114.5C330.781 113.672 330.11 113 329.281 113C328.453 113 327.781 113.672 327.781 114.5C327.781 115.328 328.453 116 329.281 116Z" fill="black"/>
<path d="M335.781 123C336.334 123 336.781 122.328 336.781 121.5C336.781 120.672 336.334 120 335.781 120C335.229 120 334.781 120.672 334.781 121.5C334.781 122.328 335.229 123 335.781 123Z" fill="black"/>
<path d="M321.281 126C322.11 126 322.781 125.328 322.781 124.5C322.781 123.672 322.11 123 321.281 123C320.453 123 319.781 123.672 319.781 124.5C319.781 125.328 320.453 126 321.281 126Z" fill="black"/>
<path d="M174.931 102.161C198.986 57.214 234.903 51.5627 249.856 54.3548C280.91 6.54825 323.795 -9.22275 349.92 5.07014C370.82 16.5039 353.7 45.3194 342.526 58.2983L331.682 42.5273C324.19 57.1155 302.764 51.7268 292.247 48.4411C301.284 67.4978 315.711 116.751 285.346 161.305C254.983 205.858 216.83 206.646 197.605 193.833C179.86 181.183 150.877 147.11 174.931 102.161Z" fill="black"/>
<path d="M344.781 249C350.732 254.754 361.522 270.511 359.281 289.5" stroke="black" stroke-width="5" stroke-linecap="round"/>
<path d="M160.781 691C164.303 696.189 176.034 705.981 194.781 703.646" stroke="black" stroke-width="5" stroke-linecap="round"/>
<path d="M190.572 343C184.315 360.837 155.001 397.502 128.816 443.581C111.359 472.484 69.7267 537.027 42.8502 563.981C39.2272 569.101 35.8345 580.728 51.2491 586.277C63.1064 591.232 68.4422 602.727 70.0232 615.015C71.9994 630.375 97.1963 641.77 113.994 630.375C127.383 621.29 165.881 555.864 194.966 518.893C202.371 509.48 209.166 501.911 214.781 497.588" stroke="black" stroke-width="5" stroke-linecap="round"/>
<path d="M193.685 518L160.781 691C177.506 686.538 223.448 678.111 251.781 678.111" stroke="black" stroke-width="5" stroke-linecap="round"/>
<path d="M31.6671 675.97C4.96667 623.534 29.7178 588.641 43.104 580C63.8554 586.613 64.4162 608.655 67.7812 619.125L60.0147 640.671C54.8177 649.938 57.8492 668.065 60.0147 675.97C68.9914 712.592 55.4428 716.113 48.7938 706.306L31.6671 675.97Z" fill="black"/>
<path d="M176.272 725.152C166.977 717.881 185.36 715.062 204.013 714C210.512 719.74 253.675 721.699 255.781 723.027C235.924 729.404 184.417 731.523 176.272 725.152Z" fill="black"/>
<path d="M266.704 722.038C197.73 731.582 183.415 704.049 184.88 687.953C196.742 682.954 229.36 681.136 244.737 680C240.344 690.453 245.835 689.089 249.679 691.93C254.623 695.338 268.351 699.505 276.04 699.883C310.636 701.588 283.545 719.577 266.704 722.038Z" fill="black"/>
</svg>
