<svg width="412" height="816" viewBox="0 0 412 816" fill="none" xmlns="http://www.w3.org/2000/svg">
<path d="M149.599 248C123.202 248 70.3146 269.629 54.0991 281.5" stroke="black" stroke-width="5" stroke-linecap="round"/>
<path d="M44.5991 322C53.5991 320.999 114.545 315.477 136.099 320.499C149.099 323.529 158.099 326.5 163.599 336.499" stroke="black" stroke-width="5" stroke-linecap="round"/>
<path d="M41.3717 295.237C39.6919 288.95 39.0535 276.9 49.939 279.001C55.2382 280.434 55.1298 294.521 42.6316 313.623" stroke="black" stroke-width="5" stroke-linecap="round"/>
<path d="M30.0329 274.225C31.3378 267.476 32.3259 255.977 29.853 247.722C34.7846 246.05 44.2445 248.438 42.6318 271.36C42.4638 273.27 41.9766 277.759 41.3719 280.433" stroke="black" stroke-width="5" stroke-linecap="round"/>
<path d="M22.2214 267.301C17.6017 256.159 11.1343 234.78 22.2214 238.41C26.1313 239.69 28.5057 243.224 29.8529 247.722C32.3258 255.977 31.3376 267.476 30.0327 274.225" stroke="black" stroke-width="5" stroke-linecap="round"/>
<path d="M14.2965 263.579C14.2965 262.146 0.124365 236.421 16.2709 241.79" stroke="black" stroke-width="5" stroke-linecap="round"/>
<path d="M43.8915 321.98C26.757 322.696 9.62243 304.072 8.36253 285.209C7.10264 266.346 7.05291 264.211 5.33879 260.377C3.06784 255.297 0.754127 246.526 7.99774 248.421" stroke="black" stroke-width="5" stroke-linecap="round"/>
<path d="M191.197 634.64C149.597 517.443 153.031 415.81 166.198 384.143C218.198 421.143 301.031 391.477 327.198 378.143C366.398 421.343 332.531 652.48 310.698 762.64C302.298 777.04 284.198 769.64 276.198 764.14L266.198 687.64L254.698 754.64C248.298 765.84 229.364 763.64 220.698 761.14L191.197 634.64Z" fill="black"/>
<path d="M192.698 226.643C194.521 224.478 196.388 223.046 198.187 222.143C202.702 219.879 206.791 220.952 208.698 222.143C216.698 226.143 236.898 229.043 253.698 208.643C265.665 197.095 297.199 186.7 327.599 237.5" stroke="black" stroke-width="5" stroke-linecap="round"/>
<path d="M326.698 276.143C330.031 255.81 341.598 212.543 361.198 202.143C380.798 191.743 392.031 207.143 395.198 216.143C402.364 235.977 410.298 285.243 384.698 323.643C352.698 371.643 302.198 354.643 282.698 302.643" stroke="black" stroke-width="5" stroke-linecap="round"/>
<path d="M401.198 148.643C404.364 147.643 410.198 149.043 408.198 162.643C405.698 179.643 396.198 193.643 387.698 203.643" stroke="black" stroke-width="5" stroke-linecap="round"/>
<path d="M390.698 143.143C393.531 141.31 399.598 139.843 401.198 148.643C401.531 151.31 401.498 157.243 398.698 159.643" stroke="black" stroke-width="5" stroke-linecap="round"/>
<path d="M381.698 163.643L380.698 140.643C380.698 139.143 381.698 135.943 385.698 135.143C390.698 134.143 390.198 141.143 390.698 143.143C391.098 144.743 390.864 151.81 390.698 155.143" stroke="black" stroke-width="5" stroke-linecap="round"/>
<path d="M371.049 171.525L372.198 152.643C372.198 149.977 373.898 144.743 380.698 145.143" stroke="black" stroke-width="5" stroke-linecap="round"/>
<path d="M361.198 201.643C358.198 194.143 353.698 177.643 354.698 167.643C355.265 161.971 354.698 156.643 359.198 155.643C365.698 154.199 365.375 163.134 368.698 167.643C369.523 168.469 370.475 169.828 371.049 171.525C371.98 174.281 371.916 177.93 368.698 181.643" stroke="black" stroke-width="5" stroke-linecap="round"/>
<path d="M160.599 262C113.599 213 128.347 149.123 142.347 134.289C148.747 181.889 186.68 200.789 204.847 204.289V221.289C199.247 217.289 168.599 248 160.599 262Z" fill="black"/>
<path d="M168.698 383.643C170.692 376.095 176.698 361.143 165.794 340.643C164.679 337.627 163.006 334.765 161.698 331.643C135.912 270.143 184.698 236.143 192.698 226.643" stroke="black" stroke-width="5" stroke-linecap="round"/>
<path d="M143.698 99.7892C137.531 119.123 136.786 163.843 180.386 194.643C223.986 225.443 257.552 183.477 268.886 158.643L276.386 138.143C281.552 141.31 291.986 143.143 292.386 125.143C292.786 107.143 285.552 105.977 281.886 107.643C279.886 108.477 275.686 111.343 274.886 116.143" stroke="black" stroke-width="5" stroke-linecap="round"/>
<path d="M354.697 179.643C336.197 204.643 317.697 207.643 309.197 210.143C276.278 192.027 258.914 201.025 254.346 207.789L252.346 185.289C266.346 170.889 274.18 148.289 276.346 138.789C281.146 141.589 286.346 139.289 288.346 137.789C290.846 135.456 295.046 127.589 291.846 114.789C288.646 101.989 279.846 107.123 275.846 111.289L253.346 117.789C250.546 96.1891 236.08 91.3591 229.197 91.6431C232.397 78.8431 222.031 75.3101 216.697 74.1431C211.097 84.1431 202.364 89.3101 198.697 91.6431C160.297 109.243 133.197 99.1441 118.697 83.1431C103.197 67.1431 97.697 24.1441 130.697 7.6431C141.314 1.2611 167.678 -7.0729 188.197 10.6431C234.697 -16.3569 267.408 31.7921 277.197 49.6431L287.697 65.6431C354.897 68.0431 367.031 127.643 364.697 157.143C353.778 149.027 353.481 168.761 354.697 179.643Z" fill="black"/>
<path d="M252.698 118.143C252.698 133.043 241.927 144.643 229.198 144.643C216.469 144.643 205.698 133.043 205.698 118.143C205.698 103.244 216.469 91.6432 229.198 91.6432C241.927 91.6432 252.698 103.244 252.698 118.143Z" stroke="black" stroke-width="5"/>
<path d="M189.698 127.143C189.698 142.043 178.927 153.643 166.198 153.643C153.469 153.643 142.698 142.043 142.698 127.143C142.698 112.244 153.469 100.643 166.198 100.643C178.927 100.643 189.698 112.244 189.698 127.143Z" stroke="black" stroke-width="5"/>
<path d="M189.842 121.528L205.554 119.759" stroke="black" stroke-width="5" stroke-linecap="round"/>
<path d="M203.697 185.643C203.697 181.477 206.097 174.243 215.697 178.643" stroke="black" stroke-width="5" stroke-linecap="round"/>
<path d="M201.197 135.143C198.697 147.643 191.097 159.043 202.697 164.643" stroke="black" stroke-width="5" stroke-linecap="round"/>
<path d="M160.698 152.789C164.841 152.789 168.198 149.431 168.198 145.289C168.198 141.147 164.841 137.789 160.698 137.789C156.556 137.789 153.198 141.147 153.198 145.289C153.198 149.431 156.556 152.789 160.698 152.789Z" fill="black"/>
<path d="M222.698 143.789C226.841 143.789 230.198 140.431 230.198 136.289C230.198 132.147 226.841 128.789 222.698 128.789C218.556 128.789 215.198 132.147 215.198 136.289C215.198 140.431 218.556 143.789 222.698 143.789Z" fill="black"/>
<path d="M283.198 119.143C284.364 121.143 285.998 125.943 283.198 129.143" stroke="black" stroke-width="5" stroke-linecap="round"/>
<path d="M253.198 117.143L278.198 110.143" stroke="black" stroke-width="5" stroke-linecap="round"/>
<path d="M225.198 117.796C229.315 117.663 237.88 119.475 239.198 127.789" stroke="black" stroke-width="5" stroke-linecap="round"/>
<path d="M152.198 125.628C155.026 123.743 162.239 120.82 168.461 124.214" stroke="black" stroke-width="5" stroke-linecap="round"/>
<path d="M334.817 793.29C337.617 784.89 318.15 789.79 309.317 793.29C309.317 800.89 290.65 806.79 281.317 808.79C317.317 806.29 333.317 797.79 334.817 793.29Z" fill="black"/>
<path d="M264.817 783.29C272.817 778.79 261.817 775.96 255.317 776.79L254.317 785.29L264.817 783.29Z" fill="black"/>
<path d="M218.465 769.6C215.315 773.83 205.469 782.28 196.018 782.28C187.929 782.28 184.794 791.93 193.655 796.76C208.422 802.8 242.448 800.02 253.317 786.5V767.79" stroke="black" stroke-width="5" stroke-linecap="round"/>
<path d="M276.704 775.79C273.921 778.21 266.803 783.31 260.6 784.28C252.846 785.49 242.045 794.6 248.074 805.49C253.442 815.19 265.371 813.17 272.529 810.95L300.563 800.64C303.545 799.43 308.317 797.61 308.317 790.34C308.317 783.06 308.317 780.03 308.317 779.43" stroke="black" stroke-width="5" stroke-linecap="round"/>
<path d="M326.599 376C327.766 372.333 330.399 362.3 331.599 351.5" stroke="black" stroke-width="5" stroke-linecap="round"/>
</svg>
