<svg width="1975" height="853" viewBox="0 0 1975 853" fill="none" xmlns="http://www.w3.org/2000/svg">
<path d="M1769.45 649.204C1769.45 649.933 1756.67 661.843 1754.43 668.618C1753.59 671.128 1754.21 672.933 1757.45 673.204C1767.05 674.004 1778.45 659.537 1782.95 652.204" stroke="black" stroke-width="5" stroke-linecap="round"/>
<path d="M1754.45 640.204C1749.66 647.645 1741.3 659.113 1733.98 665.618C1734.65 670.618 1739.67 678.218 1754.43 668.618C1756.67 661.843 1769.45 649.933 1769.45 649.204" stroke="black" stroke-width="5" stroke-linecap="round"/>
<path d="M1741.45 633.204C1732.28 643.037 1715.65 664.104 1722.45 669.704C1723.65 670.696 1725.19 670.792 1726.95 670.211C1729.04 669.518 1731.45 667.864 1733.98 665.618C1741.3 659.113 1749.66 647.645 1754.45 640.204" stroke="black" stroke-width="5" stroke-linecap="round"/>
<path d="M1815.45 652.204C1800.12 633.537 1752.45 599.704 1724.45 624.204C1713.28 635.037 1699.37 654.618 1707.37 662.618C1711.37 665.618 1720.02 661.618 1725.61 653.618" stroke="black" stroke-width="5" stroke-linecap="round"/>
<path d="M1638.8 438.27C1650.73 444.926 1677.35 454.245 1688.37 438.27C1702.14 418.301 1714.54 441.985 1709.03 457.31C1703.52 472.635 1656.77 498.143 1625.37 442.193" stroke="black" stroke-width="5" stroke-linecap="round"/>
<path d="M1632.14 527.949C1638.63 528.379 1655.26 524.382 1669.87 504.949" stroke="black" stroke-width="5" stroke-linecap="round"/>
<path d="M1666.14 478.449C1665.05 484.5 1665.29 494.772 1669.87 504.949C1673.75 513.551 1680.73 522.086 1692.64 527.949" stroke="black" stroke-width="5" stroke-linecap="round"/>
<path d="M1683.64 475.949C1692.14 483.115 1706.14 502.349 1700.14 527.949" stroke="black" stroke-width="5" stroke-linecap="round"/>
<path d="M1659.64 474.449C1649.97 479.282 1631.54 494.649 1635.14 517.449" stroke="black" stroke-width="5" stroke-linecap="round"/>
<path d="M1797.37 444.118C1901.87 444.118 1902.17 573.118 1955.37 625.118" stroke="black" stroke-width="5" stroke-linecap="round"/>
<path d="M1652.91 186.67C1605.87 193.464 1588.88 250.906 1586.27 278.778C1572.84 323.004 1574.03 359.727 1583.5 387.218C1585.07 394.186 1581.3 406.423 1553.6 399.63C1525.9 392.836 1537.7 345.41 1547.07 322.546C1552.29 310.526 1553.6 288.359 1553.6 278.778C1543.67 149.696 1622.64 135.717 1663.37 144.862C1650.82 153.224 1651.17 176.218 1652.91 186.67Z" fill="black"/>
<path d="M1817.51 216.761C1797.22 112.152 1675.47 116.727 1638.81 148.764C1597.58 201.069 1702.96 330.524 1731.76 318.101C1752.18 302.41 1767.51 310.909 1771.69 318.101C1790.54 350.53 1763.83 368.662 1748.12 373.675C1752.31 396.166 1698.38 420.749 1706.23 437.748C1748.12 490.707 1876.42 404.404 1845.65 378.252C1821.04 357.33 1822.37 330.525 1822.74 318.101C1824.71 252.067 1822.74 246.837 1817.51 216.761Z" fill="black"/>
<path d="M1636.37 358.618C1612.6 353.475 1625.14 343.189 1630.42 322.618" stroke="black" stroke-width="5" stroke-linecap="round"/>
<ellipse rx="5.98134" ry="8.97201" transform="matrix(-0.981591 0.190995 0.190995 0.981591 1601.36 302.026)" fill="black"/>
<ellipse rx="5.90198" ry="8.85297" transform="matrix(-0.988875 0.148746 0.148746 0.988875 1668.09 318.879)" fill="black"/>
<path d="M1757.37 328.618C1759.63 332.618 1762.8 342.218 1757.37 348.618" stroke="black" stroke-width="5" stroke-linecap="round"/>
<path d="M1712.37 430.512C1658.13 430.512 1628.07 466.258 1580.37 387.618" stroke="black" stroke-width="5" stroke-linecap="round"/>
<path d="M1642.37 395.095C1629.68 399.008 1619.54 395.095 1616.37 386.618" stroke="black" stroke-width="5" stroke-linecap="round"/>
<path d="M1643.87 319.618C1643.87 335.648 1655.33 348.118 1668.87 348.118C1682.4 348.118 1693.87 335.648 1693.87 319.618C1693.87 303.588 1682.4 291.118 1668.87 291.118C1655.33 291.118 1643.87 303.588 1643.87 319.618Z" stroke="black" stroke-width="5"/>
<path d="M1576.87 302.618C1576.87 318.648 1588.33 331.118 1601.87 331.118C1615.4 331.118 1626.87 318.648 1626.87 302.618C1626.87 286.588 1615.4 274.118 1601.87 274.118C1588.33 274.118 1576.87 286.588 1576.87 302.618Z" stroke="black" stroke-width="5"/>
<path d="M1627.37 306.096C1631.44 305.234 1640.74 304.933 1645.37 310.618" stroke="black" stroke-width="5" stroke-linecap="round"/>
<path d="M1692.95 309.859L1713.2 310.512" stroke="black" stroke-width="5" stroke-linecap="round"/>
<path d="M958.866 454.533V539.533" stroke="black" stroke-width="5" stroke-linecap="round"/>
<path d="M1022.87 464.533V545.533" stroke="black" stroke-width="5" stroke-linecap="round"/>
<path d="M767.439 440.941L780.846 684.582C781.138 689.884 785.522 694.033 790.831 694.033H1164.87C1170.39 694.033 1174.87 689.556 1174.87 684.033V435.168C1174.87 429.593 1170.31 425.094 1164.73 425.169L777.289 430.392C771.604 430.469 767.127 435.264 767.439 440.941Z" fill="black"/>
<rect x="778.866" y="697.533" width="396" height="19" rx="9.5" fill="black"/>
<path d="M1023.87 319.533C1058.7 319.033 1135.37 345.532 1165.87 429.032" stroke="black" stroke-width="5" stroke-linecap="round"/>
<path d="M947.366 319.033C867.866 334.533 829.866 368.533 799.866 434.033" stroke="black" stroke-width="5" stroke-linecap="round"/>
<path d="M1232.87 407.118L1259.37 385.118" stroke="black" stroke-width="5" stroke-linecap="round"/>
<path d="M1213.37 398.118L1232.87 365.618" stroke="black" stroke-width="5" stroke-linecap="round"/>
<path d="M1236.87 422.118C1242.03 424.118 1253.77 426.018 1259.37 417.618" stroke="black" stroke-width="5" stroke-linecap="round"/>
<path d="M755.866 387.033L737.866 340.533" stroke="black" stroke-width="5" stroke-linecap="round"/>
<path d="M725.366 392.033L695.366 361.033" stroke="black" stroke-width="5" stroke-linecap="round"/>
<path d="M717.866 409.533L695.366 401.033" stroke="black" stroke-width="5" stroke-linecap="round"/>
<path d="M703.866 670.308C708.916 670.136 714.551 669.9 720.826 669.587C759.344 667.661 758.608 640.853 752.994 626.22C752.575 625.127 751.897 624.13 751.079 623.294C714.776 586.176 682.812 597.899 670.041 609.433C669.217 610.177 668.563 611.123 668.083 612.123C647.71 654.585 655.028 667.628 662.739 669.376C664.092 669.683 665.501 669.83 666.876 670.013C671.188 670.587 682.068 671.048 703.866 670.308ZM703.866 670.308C701.533 661.216 699.766 638.732 711.366 621.532" stroke="black" stroke-width="5" stroke-linecap="round"/>
<path d="M1824.87 649.533H1971.87" stroke="black" stroke-width="5" stroke-linecap="round"/>
<path d="M1686.37 649.533H1544.37" stroke="black" stroke-width="5" stroke-linecap="round"/>
<path d="M1313.37 649.533H1427.87" stroke="black" stroke-width="5" stroke-linecap="round"/>
<path d="M629.366 649.533H521.366" stroke="black" stroke-width="5" stroke-linecap="round"/>
<path d="M342.366 764.618L290.366 840.118" stroke="black" stroke-width="5" stroke-linecap="round"/>
<path d="M1185.87 485.118C1204.37 514.118 1225.37 548.618 1185.87 613.532" stroke="black" stroke-width="5" stroke-linecap="round"/>
<path d="M1245.78 675.406C1236.56 673.669 1218.56 676.777 1229.34 699.225C1237.56 716.346 1250.26 725.279 1254 729" stroke="black" stroke-width="5" stroke-linecap="round"/>
<path d="M1267.93 750.813C1247.54 733.536 1247.49 689.332 1250.31 666.468C1250.47 665.197 1251.78 664.431 1252.99 664.834C1273.07 671.471 1297.28 667.89 1309 664.676C1310.2 664.346 1311.45 665.17 1311.59 666.412C1317.7 720.53 1302.49 744.67 1293.98 750.832C1293.9 750.892 1293.82 750.94 1293.73 750.986C1288.99 753.294 1277.52 756.414 1268.19 751.002C1268.1 750.947 1268.01 750.884 1267.93 750.813Z" stroke="black" stroke-width="5" stroke-linecap="round"/>
<ellipse cx="1281" cy="664" rx="32" ry="6" fill="black"/>
<path d="M1288.17 643C1293.52 638.259 1301 623.457 1288.17 602.17C1275.34 580.884 1289.38 561.187 1298 554" stroke="black" stroke-width="5" stroke-linecap="round"/>
<path d="M1273 622C1265.56 611.965 1253.89 587.516 1266.77 570" stroke="black" stroke-width="5" stroke-linecap="round"/>
<path d="M1326.89 751.234C1340.85 743.568 1315.86 745.044 1302.22 745.243L1295 752.431C1310.04 755.426 1321.48 753.629 1326.89 751.234Z" fill="black"/>
<path d="M1024.37 322.032C1028.87 309.032 1024.77 300.284 1020.77 298.618C996.767 320.618 960.366 312.451 946.866 299.118C942.066 303.518 944.866 316.532 946.866 320.532C972.866 349.332 1009.87 333.199 1024.37 322.032Z" fill="black"/>
<path d="M917.866 402.033L925.896 389.707C933.723 377.695 948.955 372.899 962.251 378.261L981.388 385.977C993.327 390.791 1007.01 387.452 1015.38 377.678L1037.37 352.033" stroke="black" stroke-width="5" stroke-linecap="round"/>
<path d="M761.366 503.533C753.866 521.199 744.966 564.033 769.366 594.033" stroke="black" stroke-width="5" stroke-linecap="round"/>
<path d="M1093.31 117.638C1082.31 157.138 1076.81 160.638 1060.81 178.138C1060.81 160.843 1057.84 131.814 1057.84 119.726C1005.45 119.726 961.236 98.3395 945.677 87.6463C946.235 123.91 912.238 147.621 912.238 147.621C912.238 147.621 917.115 162.266 919.901 195.043C922.13 221.264 915.721 216.196 912.238 210.385C902.206 178.027 885.764 186.674 878.798 195.043C793.31 56.1382 924.777 29.299 949.857 31.856C968.806 15.6768 995.232 2.9979 1013.81 1.13823C1080.81 -5.56869 1111.15 53.5903 1093.31 117.638Z" fill="black"/>
<path d="M913.409 235.108C922.409 290.053 982.817 329.562 1026.41 285.053C1070 240.544 1061.28 159.071 1056.62 121.053" stroke="black" stroke-width="5" stroke-linecap="round"/>
<path d="M877.81 191.638C872.31 205.138 877.47 235.053 913.41 235.053" stroke="black" stroke-width="5" stroke-linecap="round"/>
<path d="M893.661 199.053C892.865 201.942 893.502 208.787 902.409 213.053" stroke="black" stroke-width="5" stroke-linecap="round"/>
<path d="M1055.41 228.053C1067.14 223.163 1075.41 205.053 1072.23 176.053" stroke="black" stroke-width="5" stroke-linecap="round"/>
<path d="M989.409 261.053C1000.91 264.053 1000.18 255.798 1008.91 248.553" stroke="black" stroke-width="5" stroke-linecap="round"/>
<circle cx="1023.74" cy="191.203" r="7.5" fill="black"/>
<circle cx="957.738" cy="192.203" r="7.5" fill="black"/>
<path d="M941.409 175.053C942.988 170.406 949.797 161.81 964.409 164.598" stroke="black" stroke-width="5" stroke-linecap="round"/>
<path d="M1011.41 166.053C1014.89 163.035 1024.37 158.809 1034.41 166.053" stroke="black" stroke-width="5" stroke-linecap="round"/>
<path d="M987.216 187.053C986.052 196.927 985.26 216.951 991.409 218.053" stroke="black" stroke-width="5" stroke-linecap="round"/>
<path d="M1448.87 650.119C1446.37 628.618 1435.6 622.872 1482.85 532.217C1503.34 492.918 1543.64 483.557 1570.52 492.841C1591.65 500.136 1605.09 524.084 1548.49 633.123" stroke="black" stroke-width="5" stroke-linecap="round"/>
<path d="M1586.37 489.618C1594.2 480.951 1609.67 458.618 1608.87 438.618" stroke="black" stroke-width="5" stroke-linecap="round"/>
<path d="M1537.87 478.618C1537.87 477.118 1557.37 462.118 1551.37 438.618C1549.48 431.246 1541.67 402.718 1544.87 393.118" stroke="black" stroke-width="5" stroke-linecap="round"/>
<path d="M269.731 369.44C274.709 313.263 250.41 283.714 237.638 275.963C278.954 299.262 319.668 284.119 334.862 273.636L339.518 298.598C367.824 301.456 374.567 263.061 374.401 243.507C374.143 213.338 340.788 176.085 274.435 191.024C208.082 205.962 171.666 260.882 161.752 286.475C114.245 273.405 63.2111 308.972 43.6328 328.39C23.3882 348.545 -19.2333 409.477 10.6954 477.511C51.0741 569.3 158.482 546.507 176.013 537.478C236.589 506.283 263.509 439.661 269.731 369.44Z" fill="black"/>
<path d="M360.516 359.089C359.104 368.624 355.578 376.775 351.171 382.257C346.715 387.802 341.782 390.171 337.426 389.526C333.071 388.88 329.036 385.181 326.378 378.581C323.75 372.057 322.736 363.233 324.148 353.697C325.559 344.162 329.087 336.011 333.493 330.529C337.95 324.983 342.883 322.614 347.239 323.259C351.593 323.906 355.628 327.603 358.286 334.204C360.914 340.728 361.929 349.553 360.516 359.089Z" stroke="black" stroke-width="5"/>
<path d="M342.625 367.291C345.69 367.744 348.839 363.637 349.657 358.114C350.474 352.592 348.652 347.746 345.586 347.292C342.52 346.837 339.372 350.946 338.554 356.468C337.736 361.991 339.559 366.836 342.625 367.291Z" fill="black"/>
<path d="M269.897 364.737L321.789 360.028" stroke="black" stroke-width="5" stroke-linecap="round"/>
<path d="M345.228 299.58C349.71 308.607 362.934 328.338 376.742 339.38C390.864 350.674 392.057 365.071 383.04 375.444L368.985 391.762C376.742 451.106 365.314 495.051 292.623 515.507" stroke="black" stroke-width="5" stroke-linecap="round"/>
<path d="M291.761 418.864C293.478 419.119 295.078 417.932 295.332 416.213C295.586 414.495 294.4 412.895 292.682 412.64C290.965 412.386 289.366 413.572 289.111 415.292C288.857 417.01 290.043 418.61 291.761 418.864Z" fill="black"/>
<path d="M280.496 447.723C282.557 448.029 284.435 446.883 284.689 445.164C284.943 443.445 283.478 441.805 281.417 441.499C279.356 441.193 277.478 442.339 277.224 444.058C276.97 445.776 278.435 447.417 280.496 447.723Z" fill="black"/>
<path d="M307.911 442.884C309.972 443.19 311.849 442.045 312.104 440.325C312.358 438.607 310.893 436.966 308.832 436.66C306.771 436.354 304.893 437.5 304.639 439.219C304.385 440.937 305.849 442.578 307.911 442.884Z" fill="black"/>
<path d="M364.865 573.187L388.136 548.452C392.347 543.773 403.296 538.692 413.403 555.806C423.51 572.919 419.83 591.013 416.728 597.921" stroke="black" stroke-width="5" stroke-linecap="round"/>
<path d="M487.761 531.937C490.068 528.819 491.295 526.077 491.729 524.177C493.944 520.297 495.268 511.343 482.426 508.011C462.492 502.837 465.815 515.124 469.802 515.77C483.091 517.322 488.64 528.488 487.761 531.937Z" stroke="black" stroke-width="5" stroke-linecap="round"/>
<path d="M420.02 584.725C422.013 577.869 432.115 561.965 456.573 553.19C473.046 547.279 482.404 538.757 487.164 531.937" stroke="black" stroke-width="5" stroke-linecap="round"/>
<path d="M455.989 534.07C449.946 530.85 434.772 527.114 422.417 537.935" stroke="black" stroke-width="5" stroke-linecap="round"/>
<path d="M475.174 534.336C469.265 523.86 454.038 505.914 440.402 517.939" stroke="black" stroke-width="5" stroke-linecap="round"/>
<path d="M406.83 537.935C412.277 521.925 423.853 501.039 461.984 498.344" stroke="black" stroke-width="5" stroke-linecap="round"/>
<path d="M507.98 598.841C510.74 594.987 512.126 591.477 510.868 589.054C507.21 582.009 498.214 589.24 494.173 593.737C484.117 604.554 464.763 623.358 469.98 601.477C475.195 579.596 464.101 580.943 438.122 607.652L412.298 623.365" stroke="black" stroke-width="5" stroke-linecap="round"/>
<path d="M505.868 633.149C508.092 639.992 504.524 655.831 471.822 659.669C459.45 661.12 457.59 660.916 445.977 659.936H426.086" stroke="black" stroke-width="5" stroke-linecap="round"/>
<path d="M486.037 619.458C492.463 614.721 502.71 606.12 507.971 598.773C513.683 598.707 519.214 601.928 510.399 613.186C506.582 618.061 500.076 624.441 489.731 632.714" stroke="black" stroke-width="5" stroke-linecap="round"/>
<path d="M489.74 632.783C500.085 624.51 506.591 618.13 510.408 613.255C515.857 614.792 520.76 620.737 505.868 633.149C502.612 635.863 498.408 638.887 493.057 642.242" stroke="black" stroke-width="5" stroke-linecap="round"/>
<path d="M176.263 549.48C88.1804 613.769 98.7202 693.942 98.7202 793.023" stroke="black" stroke-width="5" stroke-linecap="round"/>
<path d="M178.662 550.571L220.948 587.596C222.32 588.799 224.48 588.086 224.869 586.302L235.893 535.858C236.302 533.988 238.628 533.325 239.959 534.703L268.588 564.313" stroke="black" stroke-width="5" stroke-linecap="round"/>
<path d="M268.587 520.687C270.932 525.084 274.294 532.231 277.445 540.536C281.769 551.937 285.694 565.523 286.046 577.183" stroke="black" stroke-width="5" stroke-linecap="round"/>
<path d="M277.445 540.537L356.472 582.925" stroke="black" stroke-width="5" stroke-linecap="round"/>
<path d="M215.831 623.273C230.272 642.848 311.602 697.052 370.128 637.579L386.09 620.263" stroke="black" stroke-width="5" stroke-linecap="round"/>
<path d="M255.398 814.618C274.188 809.757 363.309 760.925 389.265 715.55" stroke="black" stroke-width="5" stroke-linecap="round"/>
<path d="M382.307 656.563C388.743 679.685 390.555 699.203 389.264 715.55C403.584 705.718 417.264 698.156 417.264 667.151C417.264 645.219 401.305 626.313 386.865 620.263" stroke="black" stroke-width="5" stroke-linecap="round"/>
<path d="M262.593 604.668C265.903 604.668 268.588 601.445 268.588 597.469C268.588 593.493 265.903 590.271 262.593 590.271C259.282 590.271 256.598 593.493 256.598 597.469C256.598 601.445 259.282 604.668 262.593 604.668Z" fill="black"/>
<path d="M270.985 639.459C274.296 639.459 276.98 636.236 276.98 632.26C276.98 628.284 274.296 625.062 270.985 625.062C267.675 625.062 264.99 628.284 264.99 632.26C264.99 636.236 267.675 639.459 270.985 639.459Z" fill="black"/>
<path d="M334.674 440.306C333.902 444.985 335.909 454.655 350.12 455.902" stroke="black" stroke-width="5" stroke-linecap="round"/>
<path d="M457.979 478.279C450.305 486.917 466.976 498.678 471.691 505.538C478.405 503.619 496.352 507.076 492.755 518.473C499.349 511.075 522.726 492.68 526.923 487.281C535.782 475.883 523.765 466.887 515.53 457.888C510.04 451.889 502.343 439.893 487.954 451.889C477.163 460.887 465.652 469.641 457.979 478.279Z" stroke="black" stroke-width="5"/>
<path d="M481.778 602.119L470.539 582.708C470.258 582.223 470.349 581.609 470.761 581.228C478.252 574.299 494.223 559.864 504.854 551.394C505.389 550.967 506.165 551.073 506.553 551.636C512.541 560.334 524.58 581.357 530.33 604.221C530.4 604.505 530.368 604.802 530.228 605.06C526.703 611.497 523.733 615.317 516.539 619.516" stroke="black" stroke-width="5" stroke-linecap="round"/>
<path d="M1648.11 843.617C1638.91 827.617 1668.28 825.284 1684.11 826.117V837.618L1735.61 843.617C1710.28 850.284 1657.31 859.617 1648.11 843.617Z" fill="black"/>
<path d="M1761.11 822.118L1741.61 842.118" stroke="black" stroke-width="5" stroke-linecap="round"/>
<path d="M1737.11 781.118L1686.61 777.618" stroke="black" stroke-width="5" stroke-linecap="round"/>
<path d="M1707.11 764.618L1761.11 767.118" stroke="black" stroke-width="5" stroke-linecap="round"/>
<path d="M1685.61 777.618L1683.11 835.618" stroke="black" stroke-width="5" stroke-linecap="round"/>
<path d="M1761.11 768.118V821.118" stroke="black" stroke-width="5" stroke-linecap="round"/>
<path d="M1741.61 799.618V842.118" stroke="black" stroke-width="5" stroke-linecap="round"/>
<path d="M1685.61 777.618L1707.11 764.618" stroke="black" stroke-width="5" stroke-linecap="round"/>
<path d="M1741.61 842.118L1682.61 836.118" stroke="black" stroke-width="5" stroke-linecap="round"/>
<path d="M1453.37 791.118C1453.87 777.118 1509.87 781.618 1513.37 782.118V791.118L1530.37 803.118C1504.54 803.784 1452.97 802.318 1453.37 791.118Z" fill="black"/>
<path d="M1592.37 789.618V738.618" stroke="black" stroke-width="5" stroke-linecap="round"/>
<path d="M1548.87 802.618V746.618" stroke="black" stroke-width="5" stroke-linecap="round"/>
<path d="M1512.87 789.618V733.618" stroke="black" stroke-width="5" stroke-linecap="round"/>
<path d="M1512.87 733.618L1552.37 723.618" stroke="black" stroke-width="5" stroke-linecap="round"/>
<path d="M1592.37 738.118L1548.87 746.118" stroke="black" stroke-width="5" stroke-linecap="round"/>
<path d="M1548.87 803.118L1592.37 790.118" stroke="black" stroke-width="5" stroke-linecap="round"/>
<path d="M1592.37 738.118L1552.37 723.618" stroke="black" stroke-width="5" stroke-linecap="round"/>
<path d="M1512.87 734.118L1549.37 746.118" stroke="black" stroke-width="5" stroke-linecap="round"/>
<path d="M494.369 808.118C494.869 794.118 550.869 798.618 554.369 799.118V808.118L571.369 820.118C545.535 820.784 493.969 819.318 494.369 808.118Z" fill="black"/>
<path d="M633.368 806.618V755.618" stroke="black" stroke-width="5" stroke-linecap="round"/>
<path d="M589.868 819.618V763.618" stroke="black" stroke-width="5" stroke-linecap="round"/>
<path d="M553.868 806.618V750.618" stroke="black" stroke-width="5" stroke-linecap="round"/>
<path d="M589.868 820.118L633.368 807.118" stroke="black" stroke-width="5" stroke-linecap="round"/>
<path d="M633.368 755.118L589.868 763.118" stroke="black" stroke-width="5" stroke-linecap="round"/>
<path d="M553.868 750.618L593.368 740.618" stroke="black" stroke-width="5" stroke-linecap="round"/>
<path d="M633.368 755.118L593.368 740.618" stroke="black" stroke-width="5" stroke-linecap="round"/>
<path d="M553.868 751.118L590.368 763.118" stroke="black" stroke-width="5" stroke-linecap="round"/>
<path d="M617.801 703.974L596.687 737.048C596.005 738.116 596.476 739.541 597.66 739.993L631.785 753.014C632.698 753.363 633.728 753 634.223 752.158L654.156 718.181C654.786 717.106 654.291 715.722 653.121 715.292L620.178 703.173C619.296 702.849 618.307 703.182 617.801 703.974Z" stroke="black" stroke-width="5"/>
<path d="M559.909 697.618L567.909 715.618" stroke="black" stroke-width="5" stroke-linecap="round"/>
<path d="M531.909 707.618L557.909 729.618" stroke="black" stroke-width="5" stroke-linecap="round"/>
<path d="M530.909 736.618L546.909 745.618" stroke="black" stroke-width="5" stroke-linecap="round"/>
</svg>
