<svg width="407" height="1313" viewBox="0 0 407 1313" fill="none" xmlns="http://www.w3.org/2000/svg">
<path d="M163 537C185.965 520.321 236.514 489.897 254.893 501.623C277.858 516.278 263.196 518.3 251.466 515.268" stroke="black" stroke-width="5" stroke-linecap="round"/>
<path d="M230.457 515.754C242.288 513.982 266.156 514.206 266.947 529.294C267.394 538.092 264.97 536.629 260.533 533.882C257.352 531.916 253.139 529.294 248.203 529.294H227" stroke="black" stroke-width="5" stroke-linecap="round"/>
<path d="M227 530H248.331C253.296 530 257.535 532.677 260.736 534.684C263.867 540.363 266.185 550.836 250.321 547.28C234.456 543.725 228.159 544.812 227 545.799" stroke="black" stroke-width="5" stroke-linecap="round"/>
<path d="M250.594 547C255.841 552.995 261.893 564.284 244.199 561.487C226.505 558.69 212.583 567.314 207.834 571.976C199.81 577.304 180.796 583.963 169 567.98" stroke="black" stroke-width="5" stroke-linecap="round"/>
<path d="M80.6972 562.371C163.843 516.274 163.929 559.688 156.904 586.163C146.513 612.93 94.9679 642.414 71.8273 645.941C39.1842 653.441 -18.6162 644.553 11.3607 548.988C48.8404 429.534 65.7942 342.296 191 319" stroke="black" stroke-width="5" stroke-linecap="round"/>
<path d="M126 459C126 504.111 123.36 503.049 104 544" stroke="black" stroke-width="5" stroke-linecap="round"/>
<path d="M296 483V470" stroke="black" stroke-width="5" stroke-linecap="round"/>
<path d="M311 482L316 466" stroke="black" stroke-width="5" stroke-linecap="round"/>
<path d="M326 486L338 458" stroke="black" stroke-width="5" stroke-linecap="round"/>
<path d="M160.985 1199C162.656 1212.9 159.314 1234.53 143.714 1241.68C124.21 1250.61 74.2215 1280.88 122.215 1287.34C160.61 1292.5 191.538 1266.33 202.21 1252.6C205.876 1236.72 208.485 1218.35 202.21 1199" stroke="black" stroke-width="5" stroke-linecap="round"/>
<path d="M236.764 1172.61C65.5444 1279.98 92.1326 890.585 103.857 701.375C228.18 740.147 328.85 715.294 351.155 680C357.486 702.525 377.095 863.79 378.75 909.652L378.819 911.481C381.515 986.04 387.641 1155.98 291.033 1190.5C267.004 1199.09 249.478 1191.38 236.764 1172.61Z" fill="black"/>
<path d="M252.45 1199.49C251.542 1209.4 251.765 1232.51 255.416 1245.43C264.638 1278.12 292.527 1312.7 359.961 1309.83C369.046 1307.67 381.765 1298.55 359.961 1279.38C351.99 1272.38 343.351 1265.97 335.226 1259.36C315.548 1243.32 298.989 1226.04 302.932 1196" stroke="black" stroke-width="5" stroke-linecap="round"/>
<path d="M95 643C98.4816 682.017 99.9665 679.548 105.94 701.772C166.253 719.552 299.698 739.998 351 679.548" stroke="black" stroke-width="5" stroke-linecap="round"/>
<path d="M157 409L158.887 406.139C170.26 388.979 192.19 382.128 211.383 389.745C228.604 396.578 248.29 391.816 260.428 377.883L276 360" stroke="black" stroke-width="5" stroke-linecap="round"/>
<path d="M265.093 318.111C269.468 305.835 265.467 297.574 261.587 296C238.199 316.775 202.727 309.063 189.587 296.471C184.906 300.627 187.629 312.918 189.587 316.695C214.914 343.892 250.965 328.657 265.093 318.111Z" fill="black"/>
<path d="M334.015 116.236C323.115 155.473 317.649 158.949 301.795 176.331C301.795 159.153 298.84 130.318 298.84 118.31C246.889 118.31 203.052 97.0682 187.609 86.4455C188.173 122.466 154.45 146.019 154.45 146.019C154.45 146.019 159.284 160.566 162.052 193.122C164.273 219.17 157.901 214.136 154.45 208.363C144.507 176.22 128.209 184.81 121.291 193.122C36.5221 55.1489 166.887 28.4893 191.76 31.0291C210.552 14.9584 236.758 2.36436 255.174 0.517058C321.629 -6.14488 351.696 52.6181 334.015 116.236Z" fill="black"/>
<path d="M155 232.915C163.991 287.791 224.314 327.253 267.851 282.797C311.388 238.344 302.671 156.972 298.021 119" stroke="black" stroke-width="5" stroke-linecap="round"/>
<path d="M120.794 189C115.514 202.371 120.469 232 155 232" stroke="black" stroke-width="5" stroke-linecap="round"/>
<path d="M138.193 197C137.581 199.475 138.071 205.343 145 209" stroke="black" stroke-width="5" stroke-linecap="round"/>
<path d="M298 225C309.387 220.204 317.426 202.443 314.333 174" stroke="black" stroke-width="5" stroke-linecap="round"/>
<path d="M232 258.326C242.62 261.523 241.949 252.723 250 245" stroke="black" stroke-width="5" stroke-linecap="round"/>
<path d="M266.5 196C270.642 196 274 192.418 274 188C274 183.582 270.642 180 266.5 180C262.358 180 259 183.582 259 188C259 192.418 262.358 196 266.5 196Z" fill="black"/>
<path d="M200.5 196C205.194 196 209 192.866 209 189C209 185.134 205.194 182 200.5 182C195.806 182 192 185.134 192 189C192 192.866 195.806 196 200.5 196Z" fill="black"/>
<path d="M184 172C185.646 167.775 192.76 159.96 208 162.495" stroke="black" stroke-width="5" stroke-linecap="round"/>
<path d="M254 163C257.634 160.736 267.526 157.567 278 163" stroke="black" stroke-width="5" stroke-linecap="round"/>
<path d="M228.799 186C227.648 195.555 226.848 214.933 233 216" stroke="black" stroke-width="5" stroke-linecap="round"/>
<path d="M214.788 505L188.995 461.666C186.98 458.28 188.124 453.891 191.538 451.933C194.867 450.025 199.1 451.135 201.063 454.426L228 499.501" stroke="black" stroke-width="5" stroke-linecap="round"/>
<path d="M221 656C234.715 611.664 266.649 525.592 286.932 528.052C287.854 528.164 288.775 528.427 289.696 528.557L366 539.246" stroke="black" stroke-width="5" stroke-linecap="round"/>
<path d="M377 557L370 578" stroke="black" stroke-width="5" stroke-linecap="round"/>
<path d="M288.767 539C274.135 547.933 252.368 609.231 239.671 650.479C236.899 659.469 243.025 668.668 252.386 669.839L324.703 678.88C332.095 679.802 339.077 675.335 341.319 668.264L347 650.299" stroke="black" stroke-width="5" stroke-linecap="round"/>
<path d="M300.493 547C305.321 545.246 315.36 534.905 312.494 524.883C312.008 523.144 311.122 521.414 309.75 519.739C300.493 508.425 284.55 519.741 288.666 528.998" stroke="black" stroke-width="5" stroke-linecap="round"/>
<path d="M312 525.162C316.925 519.14 330.236 516.389 337.194 528.258C343.665 542.711 331.228 550.968 323.765 552" stroke="black" stroke-width="5" stroke-linecap="round"/>
<path d="M338 527.967C343.199 523.999 357.115 518.651 365.169 529.004C374.718 545.048 357.625 555.4 350.574 553.846" stroke="black" stroke-width="5" stroke-linecap="round"/>
<path d="M365 529.043C371.637 525.146 383.429 523.451 387.963 533.617C392.497 543.784 381.326 557 370.603 557" stroke="black" stroke-width="5" stroke-linecap="round"/>
<path d="M327.116 613C324.387 616.731 324.954 626.354 349 635" stroke="black" stroke-width="5" stroke-linecap="round"/>
<path d="M390 593.167C364.008 588.162 337.332 586.307 327.225 586.004C321.805 585.843 315.785 590.471 318.812 595.711C319.65 597.053 322.283 600.035 326.097 601.236C342.291 606.511 349.199 606.98 356.33 607" stroke="black" stroke-width="5" stroke-linecap="round"/>
<path d="M356 606.78C348.867 606.76 341.955 606.29 325.756 601C322.061 602.337 321.581 608.697 327.432 612.668C331.127 615.185 337.816 618.272 348.866 622" stroke="black" stroke-width="5" stroke-linecap="round"/>
<path d="M266 319C346.825 351.095 411.277 445.405 403.337 574.773C402.179 593.041 392.723 630.865 364.169 636" stroke="black" stroke-width="5" stroke-linecap="round"/>
</svg>
