<svg width="1300" height="850" viewBox="0 0 1300 850" fill="none" xmlns="http://www.w3.org/2000/svg">
<path d="M902.379 794.016C824.329 767.02 870.835 545.644 907 465.5C961.5 516.5 1059 494.5 1066.5 474C1068.75 486.092 1075.97 540.255 1107.6 588.173C1139.22 636.09 1180.25 661.011 1187.5 681.814C1205.16 732.432 1166.47 758.584 1147.13 764.489C1079.17 780.012 1021.81 703.468 1001.62 663.255C972.692 782.036 923.406 799.921 902.379 794.016Z" fill="black"/>
<path d="M887.725 782C888.303 790.763 884.329 820.159 861.405 804.047C855.751 798.395 842.387 789.123 834.236 797.264C826.086 805.404 842.166 820.442 851.217 826.943C860.556 834.293 883.48 846.786 900.461 837.967C917.442 829.148 917.17 806.027 914.894 795.568" stroke="black" stroke-width="5" stroke-linecap="round"/>
<path d="M1166 751.282C1171.93 754.109 1183.78 761.965 1183.78 770.782C1177.01 780.392 1166.17 804.017 1177.01 821.652C1187.84 839.286 1207.48 799.044 1215.95 776.717C1220.18 764 1220.69 735.852 1188.86 725" stroke="black" stroke-width="5" stroke-linecap="round"/>
<path d="M913 832C916.63 838.955 930.898 849.191 959 834.504" stroke="black" stroke-width="5" stroke-linecap="round"/>
<path d="M932 820C940.069 827.289 961.659 839.281 989 829.027" stroke="black" stroke-width="5" stroke-linecap="round"/>
<path d="M971 815C981.12 826.7 1009.29 845.586 1041 827.535" stroke="black" stroke-width="5" stroke-linecap="round"/>
<path d="M1015 809C1017.52 819.364 1051.65 841.473 1168 847" stroke="black" stroke-width="5" stroke-linecap="round"/>
<path d="M1006.7 385C1053 371.697 1089.43 329.699 1101.86 310.363C1115.74 289.575 1104.6 243.1 949 223.5" stroke="black" stroke-width="5" stroke-linecap="round"/>
<path d="M1007 385C1004.17 381.198 996.732 374.326 988 374" stroke="black" stroke-width="5" stroke-linecap="round"/>
<path d="M988 374C988.258 363.142 997.418 335.14 1032 310" stroke="black" stroke-width="5" stroke-linecap="round"/>
<path d="M990 304.356C986.411 298.545 975.385 286.209 960 283.356" stroke="black" stroke-width="5" stroke-linecap="round"/>
<path d="M956.393 391.011C948.512 390.626 932.054 389.47 929.263 387.928C925.775 386.002 925 386.002 925 382.148C925 378.295 956.393 384.846 956.393 372.515C953.55 369.689 948.951 363.344 953.292 360.569C957.633 357.795 966.728 365.836 970.732 370.203C974.866 374.57 984.142 381.455 988.173 374.056" stroke="black" stroke-width="5" stroke-linecap="round"/>
<path d="M1006 384.846C1002.51 394.993 989.955 413.206 967.632 404.883C945.308 396.56 944.378 392.167 946.704 391.011" stroke="black" stroke-width="5" stroke-linecap="round"/>
<path d="M850.74 375.163C845.315 373.68 833.458 366.783 829.428 351.053C825.398 335.324 830.849 335.247 834.078 337.174" stroke="black" stroke-width="5" stroke-linecap="round"/>
<path d="M870.89 363.776C869.211 355.037 863.295 338.177 853.065 340.644" stroke="black" stroke-width="5" stroke-linecap="round"/>
<path d="M866.627 349.511C873.757 343.651 878.123 357.093 879.415 364.547C887.474 367.014 890.523 378.683 891.039 384.209C872.388 386.122 859.134 381.113 850.74 375.163C845.601 371.52 842.284 367.524 840.665 364.547C836.661 353.881 830.823 331.623 839.503 327.922C848.183 324.221 850.611 332.548 850.74 337.174C849.81 347.661 855.261 359.278 858.102 363.776" stroke="black" stroke-width="5" stroke-linecap="round"/>
<path d="M1050 395.356C1065.85 416.746 1086.5 475 1050 487.356C998.167 502.641 891 505.641 877 395.356" stroke="black" stroke-width="5" stroke-linecap="round"/>
<path d="M826.5 359.5L704.184 352.115C698.593 351.777 693.815 356.098 693.589 361.694L691.635 410.231C691.408 415.857 686.585 420.186 680.968 419.806L649.218 417.658C643.81 417.292 639.678 412.684 639.901 407.268L641.092 378.387C641.318 372.91 637.092 368.272 631.617 367.989L622.433 367.514C616.938 367.23 612.246 371.437 611.933 376.93L611.055 392.28C610.746 397.69 606.185 401.869 600.769 401.705L587.828 401.313C582.179 401.142 577.795 396.328 578.15 390.688L580.363 355.598C580.714 350.04 576.457 345.267 570.895 344.982L552.034 344.015C546.5 343.731 542.252 339.001 542.562 333.469L544.938 291.042C545.248 285.505 550.004 281.278 555.538 281.62L691.221 290L1025 312.5" stroke="black" stroke-width="10" stroke-linecap="round"/>
<path d="M883.185 233.57C876.571 229.499 826.812 233.423 817.138 170.832C800.576 171.026 791.57 157.459 804.207 151.653C817.679 144.706 816.668 131.952 814.227 124.437C810.347 114.582 810.112 104.235 810.949 102.07" stroke="black" stroke-width="5" stroke-linecap="round"/>
<path d="M831.738 148.23C829.859 148.252 828.308 145.985 828.275 143.166C828.242 140.346 829.739 138.043 831.619 138.021C833.498 137.999 835.048 140.267 835.081 143.086C835.114 145.905 833.618 148.208 831.738 148.23Z" fill="black"/>
<path d="M840.977 127.571C838.214 124.617 831.068 120.296 824.594 126.643" stroke="black" stroke-width="5" stroke-linecap="round"/>
<path d="M859.747 185.087C854.668 192.902 849.093 195.121 838.262 190.078" stroke="black" stroke-width="5" stroke-linecap="round"/>
<path d="M901.323 130.31C902.5 132.894 903.485 138.76 898.016 141.552" stroke="black" stroke-width="5" stroke-linecap="round"/>
<path d="M959.617 103.776C966.061 139.031 945.899 165.57 931.282 185.972C915.671 177.538 890.085 157.482 899.898 155.317C910.212 153.042 921.09 124.908 911.074 116.302C899.323 106.205 888.73 121.483 886.711 133.067L877.246 116.699C879.923 105.25 880.972 85.1678 863.759 96.4261C846.546 107.684 821.297 104.735 810.824 101.853C790.174 87.0728 758.092 52.5963 794.96 32.9354C825.625 16.583 865.528 37.2569 889.886 55.8335C906.378 51.4796 950.831 55.7063 959.617 103.776Z" fill="black"/>
<path d="M930.134 183.61C922.68 192.584 918.977 200.036 919.438 215.473" stroke="black" stroke-width="5" stroke-linecap="round"/>
<path d="M938.428 236.14C941.038 227.036 942.567 209.672 927.806 213.047C909.355 217.265 871.747 235.511 874.502 245.625" stroke="black" stroke-width="5" stroke-linecap="round"/>
<path d="M874.5 259.856C861 272.356 858 280.356 856 295.356" stroke="black" stroke-width="5" stroke-linecap="round"/>
<path d="M319.659 512.574C331.468 532.913 374.561 562.711 453.323 522.093C454.832 521.315 456.64 522.608 456.324 524.276C448.178 567.326 447.646 638.002 548.159 664.574C591.659 676.074 631.659 653.574 599.659 626.574C556.113 589.832 478.659 711.574 523.659 786.074" stroke="black" stroke-width="5" stroke-linecap="round"/>
<path d="M124.151 199C122.409 146.527 134.605 36.5833 219.538 40.0815C244.364 41.5808 281.909 71.8652 284 151.025" stroke="black" stroke-width="5" stroke-linecap="round"/>
<path d="M83.112 209C81.3727 149.688 99.095 12.2963 192.251 3.57444C288.346 -5.42248 311.536 93.3752 314 152.021" stroke="black" stroke-width="5" stroke-linecap="round"/>
<path d="M145 182.5L263 151.5" stroke="black" stroke-width="5" stroke-linecap="round"/>
<path d="M69.1587 205C55.492 207.5 25.0587 218 12.6587 240" stroke="black" stroke-width="5" stroke-linecap="round"/>
<path d="M10.6589 238.5C45.8589 217.7 57.1589 257.167 61.1589 274.5V512.5C61.1589 564.5 76.1589 562 91.0515 575.154C49.0515 560.654 27.1587 540.5 19.5513 530.654C-1.12184 503.899 1.05152 307.654 0.0515249 286.154C-0.748475 268.954 7.99227 244.333 10.6589 238.5Z" fill="black"/>
<path d="M317.661 175.737L99.0023 239.501C77.6678 245.722 63 265.279 63 287.502V529.467C63 565.155 99.3126 589.352 132.249 575.613L350.908 484.402C369.531 476.633 381.659 458.433 381.659 438.255V223.738C381.659 190.405 349.661 166.405 317.661 175.737Z" stroke="black" stroke-width="5" stroke-linecap="round"/>
<path d="M233.53 329.626C257.265 290.833 232.4 271.706 217 266.992C268.878 258.506 259.808 306.559 248.788 331.646L281 416L255.253 403.899C252.506 402.608 250.494 400.139 249.784 397.188L233.53 329.626Z" fill="black"/>
<path d="M196 440L218.751 338.09C189.259 331.498 188.784 269.699 218.751 265.586C266.782 258.995 261.305 309.697 248.665 331.498L279 415.663L196 440Z" stroke="black" stroke-width="5"/>
<path d="M13.6585 682.074C-11.9415 672.074 7.65854 659.574 20.6585 654.574L244.159 585.074C261.825 580.074 303.659 573.674 329.659 588.074C362.159 606.074 326.159 615.074 319.659 620.074C313.159 625.074 176.159 682.074 129.159 697.574C82.1587 713.074 45.6585 694.574 13.6585 682.074Z" fill="black"/>
<path d="M1289.07 354.888C1287.5 386.093 1277.46 413.687 1262.77 433.084C1248.05 452.506 1229.06 463.301 1209.35 462.306C1189.65 461.312 1171.84 448.658 1159.15 427.853C1146.49 407.075 1139.28 378.61 1140.86 347.405C1142.43 316.201 1152.47 288.606 1167.16 269.209C1181.88 249.787 1200.87 238.992 1220.58 239.987C1240.28 240.982 1258.09 253.635 1270.77 274.44C1283.44 295.219 1290.65 323.683 1289.07 354.888Z" stroke="black" stroke-width="10"/>
<path d="M1256.84 353.019C1255.93 371.08 1250.12 386.959 1241.73 398.038C1233.32 409.143 1222.69 415.02 1211.94 414.477C1201.19 413.934 1191.21 407.017 1183.96 395.122C1176.72 383.253 1172.54 366.87 1173.45 348.809C1174.37 330.748 1180.18 314.869 1188.57 303.789C1196.98 292.685 1207.61 286.808 1218.36 287.351C1229.11 287.894 1239.09 294.81 1246.34 306.706C1253.57 318.575 1257.75 334.957 1256.84 353.019Z" stroke="black" stroke-width="10"/>
<path d="M1097.5 322.5L1142.5 325" stroke="black" stroke-width="10" stroke-linecap="round"/>
<path d="M890.5 369.5L953 374" stroke="black" stroke-width="10" stroke-linecap="round"/>
<path d="M1029 379L1142 383.5" stroke="black" stroke-width="10" stroke-linecap="round"/>
</svg>
