<svg width="2186" height="1461" viewBox="0 0 2186 1461" fill="none" xmlns="http://www.w3.org/2000/svg">
<path d="M260.423 721C245.423 734.5 224.263 722.5 219.93 719C226.923 708.5 227.069 587.05 215.345 564C206.939 612.444 115.875 643.38 69.4386 659.155L68.4234 659.5C50.9233 657 51.7567 643.833 52.4234 637C55.9168 623.5 66.7234 617.5 103.924 577.5C141.124 537.5 137.563 505.5 134.424 484.5C118.292 444.956 136.839 402.167 144.93 392C172.93 419.5 241.93 446.833 282.43 464C353.23 575.6 296.757 678.167 260.423 721Z" fill="black"/>
<path d="M34.4229 1238.81C58.677 1227.41 117.715 1205.35 159.837 1208.26C165.809 1208.5 174.828 1211.03 163.128 1219.17C151.427 1227.32 145.577 1231.54 144.115 1232.63C138.021 1237.72 132.048 1248.48 156.912 1250.81C187.991 1253.72 275.745 1222.08 449.423 1245.35" stroke="black" stroke-width="5" stroke-linecap="round"/>
<path d="M146.423 394C219.923 296.5 316.923 267 373.923 249" stroke="black" stroke-width="5" stroke-linecap="round"/>
<path d="M373.923 249C379.09 270.667 394.423 296 421.923 292.5" stroke="black" stroke-width="5" stroke-linecap="round"/>
<path d="M421.923 293C422.756 300.167 422.423 329 409.423 362" stroke="black" stroke-width="5" stroke-linecap="round"/>
<path d="M359.923 412.5C330.423 441.5 325.423 446.5 283.423 466" stroke="black" stroke-width="5" stroke-linecap="round"/>
<path d="M412.746 371C428.923 357 478.923 336.5 507.923 349" stroke="black" stroke-width="5" stroke-linecap="round"/>
<path d="M370.923 307.5C408.423 335.5 403.923 353.5 417.923 384" stroke="black" stroke-width="5" stroke-linecap="round"/>
<path d="M507.923 349C508.923 360.5 505.951 378.103 496.923 391C489.923 401 463.423 420.5 440.423 428C432.482 430.589 390.091 444.286 373.423 427C359.923 413 339.923 386.5 326.423 362.5" stroke="black" stroke-width="5" stroke-linecap="round"/>
<path d="M422.923 308C428.756 316.833 459.223 330.5 538.423 318.5" stroke="black" stroke-width="5" stroke-linecap="round"/>
<path d="M538.423 319C538.923 322.167 539.623 328.7 538.423 333.5" stroke="black" stroke-width="5" stroke-linecap="round"/>
<path d="M507.423 349C511.59 348 522.223 343.8 531.423 337C540.623 330.2 557.256 333.167 564.423 335.5C569.256 336.833 576.023 342 564.423 352" stroke="black" stroke-width="5" stroke-linecap="round"/>
<path d="M543.423 344C552.09 343.833 568.123 345.9 562.923 355.5C560.423 359.5 554.823 359.2 548.423 358" stroke="black" stroke-width="5" stroke-linecap="round"/>
<path d="M533.923 355.5C540.59 354.333 548.423 355.5 551.923 362C554.099 366.042 552.923 369 549.923 370.139C545.923 371 546.605 368.916 542.923 367.5C540.756 366.833 535.923 367.4 533.923 371L519.923 381.5C515.59 384.833 504.923 386.5 499.923 387.5" stroke="black" stroke-width="5" stroke-linecap="round"/>
<path d="M538.423 318.5C539.423 318.5 557.423 316.5 566.423 309.5C573.623 303.9 590.09 306.167 597.423 308C600.756 309.167 606.223 312.9 601.423 318.5" stroke="black" stroke-width="5" stroke-linecap="round"/>
<path d="M569.423 323.945C576.423 324.5 583.923 321.201 583.923 328.5C583.923 335 576.423 332.923 573.423 332C571.256 331.333 568.723 331.3 563.923 334.5" stroke="black" stroke-width="5" stroke-linecap="round"/>
<path d="M580.923 314C587.756 314 600.923 315.8 598.923 323C596.923 330.2 586.423 324.925 580.923 323.925" stroke="black" stroke-width="5" stroke-linecap="round"/>
<path d="M379.53 169.253C399.596 167.841 402.353 186.449 401.224 195.93C429.868 192.06 460.636 141.512 472.44 116.722C491.663 149.219 530.525 148.523 547.554 144.112C590.241 133.057 591.166 104.7 575.774 81.0849C566.819 67.3452 565.918 56.2518 566.311 48.3938C556.858 55.5664 545.729 70.1286 526.179 73.4739C516.48 75.1336 491.591 66.5968 477.391 64.8478C402.212 55.5884 380.826 130.593 379.53 169.253Z" fill="black"/>
<path d="M382.579 166.873C374.376 174.21 360.997 195.662 382.224 212.131C380.907 222.125 384.379 246.434 408.8 263.719C439.326 285.324 464.717 291.092 479.889 286.587C495.061 282.082 519.563 263.958 529.391 241.793" stroke="black" stroke-width="5" stroke-linecap="round"/>
<path d="M516.05 236.492L533.806 241.658C537.87 240.085 547.967 231.547 537.149 224.111C533.065 221.748 524.533 215.146 523.082 207.634" stroke="black" stroke-width="5" stroke-linecap="round"/>
<path d="M546.539 143.306C547.902 147.149 549.54 156.62 545.19 163.762" stroke="black" stroke-width="5" stroke-linecap="round"/>
<path d="M470.5 172.312C472.194 170.457 476.866 166.342 481.996 164.721" stroke="black" stroke-width="5" stroke-linecap="round"/>
<path d="M491.238 203.111C493.737 204.022 496.871 201.722 498.238 197.973C499.605 194.224 498.687 190.447 496.188 189.535C493.689 188.624 490.555 190.924 489.188 194.673C487.821 198.422 488.739 202.2 491.238 203.111Z" fill="black"/>
<path d="M543.804 197.395C545.947 198.176 548.635 196.204 549.807 192.989C550.98 189.774 550.193 186.535 548.049 185.753C545.906 184.972 543.219 186.944 542.046 190.159C540.874 193.374 541.661 196.613 543.804 197.395Z" fill="black"/>
<path d="M505.711 201.3C501.002 214.214 488.651 220.785 478.6 217.12C468.549 213.455 463.328 200.476 468.037 187.562C472.746 174.648 485.097 168.076 495.148 171.741C505.199 175.407 510.42 188.386 505.711 201.3Z" stroke="black" stroke-width="5"/>
<path d="M553.496 194.722C551.181 201.071 547.185 206.023 542.708 208.942C538.231 211.859 533.423 212.672 529.222 211.14C525.021 209.609 521.865 205.892 520.317 200.777C518.769 195.661 518.899 189.299 521.215 182.951C523.53 176.602 527.525 171.65 532.003 168.731C536.48 165.813 541.288 165.001 545.489 166.532C549.689 168.064 552.846 171.781 554.393 176.896C555.941 182.012 555.811 188.374 553.496 194.722Z" stroke="black" stroke-width="5"/>
<path d="M508.177 188.67L519.248 187.034" stroke="black" stroke-width="5" stroke-linecap="round"/>
<path d="M530.48 161.017C532.303 159.208 537 156.062 541.202 157.944" stroke="black" stroke-width="5" stroke-linecap="round"/>
<path d="M432.909 176.062L466.385 189.578" stroke="black" stroke-width="5" stroke-linecap="round"/>
<path d="M388.798 185.725C386.59 187.393 382.74 191.808 385.006 196.125" stroke="black" stroke-width="5" stroke-linecap="round"/>
<path d="M422.423 273.5L412.923 292.5L422.423 273.5ZM391.923 247.5L379.423 263.5L391.923 247.5Z" stroke="black" stroke-width="5" stroke-linecap="round"/>
<path d="M1040.45 1037.99C1004.82 963.855 1014.6 893.225 1023.94 868C1126 928.321 1176.53 906.386 1192.04 889.935C1192.04 911.87 1243.07 975.48 1265.08 998.512C1282.69 1016.94 1285.76 1055.18 1285.09 1071.99C1285.59 1083.51 1285.89 1118.6 1283.09 1166.86C1280.29 1215.12 1268.58 1238.15 1255.08 1241.44C1238.9 1243.63 1207.15 1240.56 1209.55 1210.73C1212.55 1173.44 1197.54 1109.83 1200.04 1091.19C1202.04 1076.27 1195.21 1067.06 1191.54 1064.32L1148.9 1026.48C1151.33 1057.7 1147.35 1080.16 1143.01 1091.19C1125.66 1138.16 1083.17 1232.23 1051.95 1232.67C1020.73 1233.1 1000.92 1213.47 999.423 1201.96C999.923 1180.75 1015.85 1149.77 1037.94 1122.44C1057.46 1098.32 1048.95 1052.43 1040.45 1037.99Z" fill="black"/>
<path d="M1161.42 1270C1166.22 1256.4 1194.75 1263.33 1209.42 1269C1205.92 1298.5 1229.42 1298.5 1237.42 1301.5C1198.92 1299 1155.42 1287 1161.42 1270Z" fill="black"/>
<path d="M931.422 1264C913.423 1248.8 957.256 1247.17 977.923 1247.5C981.423 1260.5 1011.92 1289.67 1018.42 1296C948.922 1276 933.791 1266 931.422 1264Z" fill="black"/>
<path d="M1049.42 1238.31C1039.42 1251.78 1039.15 1258.89 1045.4 1260.14L1064.15 1265.13C1078.53 1268.87 1089.53 1281.84 1073.53 1293.82C1057.53 1305.79 1035.42 1296.5 1018.42 1293.82C1002.9 1277.5 970.48 1252.87 979.779 1238.31L987.923 1223" stroke="black" stroke-width="5" stroke-linecap="round"/>
<path d="M1213.32 1240C1211.89 1252.9 1209.88 1284.23 1213.32 1289.14C1217.62 1295.28 1283.22 1318.16 1300.55 1306.95C1311 1300.2 1309.77 1288.03 1304.24 1283.61C1298.1 1278.7 1283.97 1272.55 1267.99 1273.17C1253.34 1273.73 1257.76 1255.37 1260.42 1248" stroke="black" stroke-width="5" stroke-linecap="round"/>
<path d="M1186.81 667C1186.64 655 1181.61 628.8 1162.81 620C1144.01 611.2 1134.81 599 1129.81 594C1125.97 589.667 1116.41 583.6 1108.81 594C1104.15 600.379 1102.73 610.128 1104.28 620C1105.88 630.246 1110.67 640.624 1118.31 647.5" stroke="black" stroke-width="5" stroke-linecap="round"/>
<path d="M1193.31 779.5C1208.51 841.1 1197.42 871.833 1189.92 891.5C1150.92 926 1066.92 891.5 1037.31 875C1003.47 856.146 1014.09 832.088 1037.31 759C1051.92 713 1080.92 654 1104.28 620" stroke="black" stroke-width="5" stroke-linecap="round"/>
<path d="M1128.31 718.5C1167.64 760.333 1257.21 840.4 1300.81 826C1344.41 811.6 1375.64 798.333 1385.81 793.5C1387.81 783.667 1389.61 762 1380.81 754" stroke="black" stroke-width="5" stroke-linecap="round"/>
<path d="M1170.81 656.5C1195.64 674.833 1242.44 722.431 1261.81 747.5C1270.31 758.5 1278.81 762 1300.81 760C1321.75 758.096 1362.14 752.5 1380.81 754" stroke="black" stroke-width="5" stroke-linecap="round"/>
<path d="M1185.92 655C1210.75 673.333 1249.44 714.431 1268.81 739.5C1277.31 750.5 1285.81 754 1307.81 752C1328.75 750.096 1361.25 750.5 1379.92 752" stroke="black" stroke-width="5" stroke-linecap="round"/>
<path d="M1381.81 754C1385.97 751.833 1394.11 742.3 1393.31 729.5C1391.14 725.5 1388.21 717.5 1391.81 715.5C1396.31 713 1403.31 717 1405.31 730" stroke="black" stroke-width="5" stroke-linecap="round"/>
<path d="M1411.81 738C1417.98 732.62 1430.91 724.386 1435.63 730.412C1436.11 731.027 1436 731.89 1435.51 732.499L1429.81 739.62" stroke="black" stroke-width="5" stroke-linecap="round"/>
<path d="M1403.31 733.5C1408.64 725 1418.91 715.5 1435.31 719.5C1436.81 720.167 1439.01 722.5 1435.81 726.5" stroke="black" stroke-width="5" stroke-linecap="round"/>
<path d="M1410.31 751C1415.23 745.542 1424.6 737.382 1429.81 739.62C1430.76 740.029 1431.83 741.575 1432.6 743.191C1433.1 744.261 1432.73 745.502 1431.84 746.281L1425.31 752L1414.81 762C1403.81 773.5 1392.97 788.5 1386.81 793" stroke="black" stroke-width="5" stroke-linecap="round"/>
<path d="M1345.92 811.5C1251.34 975.315 1300.86 1194.53 1464.67 1289.11C1628.49 1383.69 1837.96 1327.56 1932.53 1163.75C2027.11 999.934 1970.99 790.465 1807.17 695.886C1684.7 625.18 1539.34 637.243 1432.92 717.02" stroke="black" stroke-width="5" stroke-linecap="round"/>
<path d="M1170.42 623.5C1172.42 617.5 1171.92 617.5 1173.49 612.38C1175.42 606.103 1242.3 609.644 1252.67 536.878C1271.9 536.878 1282.16 521.012 1267.42 514.447C1251.69 506.568 1252.69 491.754 1255.42 483C1259.79 471.511 1259.92 459.5 1258.92 457" stroke="black" stroke-width="5" stroke-linecap="round"/>
<path d="M1236.42 508C1238.08 508 1239.42 505.985 1239.42 503.5C1239.42 501.015 1238.08 499 1236.42 499C1234.76 499 1233.42 501.015 1233.42 503.5C1233.42 505.985 1234.76 508 1236.42 508Z" fill="black"/>
<path d="M1224.42 487C1227.59 483.535 1235.82 478.424 1243.42 485.701" stroke="black" stroke-width="5" stroke-linecap="round"/>
<path d="M1203.42 554C1209.42 563 1215.92 565.5 1228.42 559.5" stroke="black" stroke-width="5" stroke-linecap="round"/>
<path d="M1154.43 491C1153.1 494.014 1152.04 500.835 1158.42 504" stroke="black" stroke-width="5" stroke-linecap="round"/>
<path d="M1086.42 461C1079.42 502 1103.18 532.524 1120.42 556C1138.42 546 1167.84 522.378 1156.42 520C1144.42 517.5 1131.42 485 1142.92 474.877C1156.42 463 1168.92 480.585 1171.42 494L1182.19 474.877C1178.92 461.628 1177.43 438.337 1197.56 451.168C1217.69 463.999 1246.95 460.233 1259.06 456.747C1282.83 439.314 1319.59 398.869 1276.54 376.555C1240.73 357.995 1194.7 382.529 1166.69 404.417C1147.49 399.589 1095.96 405.098 1086.42 461Z" fill="black"/>
<path d="M1121.92 553.5C1127.42 563.167 1131.62 576.9 1130.42 594.5" stroke="black" stroke-width="5" stroke-linecap="round"/>
<path d="M493.997 254.128C493.276 256.197 492.023 257.758 490.693 258.653C489.363 259.547 488.104 259.701 487.116 259.357C486.129 259.013 485.239 258.11 484.753 256.583C484.266 255.055 484.255 253.053 484.976 250.984C485.697 248.916 486.95 247.354 488.281 246.459C489.611 245.565 490.869 245.411 491.857 245.755C492.845 246.1 493.735 247.002 494.221 248.53C494.707 250.058 494.718 252.06 493.997 254.128Z" stroke="black" stroke-width="5"/>
<path d="M507.423 771L866.423 817.5" stroke="black" stroke-width="5" stroke-linecap="round"/>
<path d="M866.423 817V433.5" stroke="black" stroke-width="5" stroke-linecap="round"/>
<path d="M866.423 433.5L508.423 393.5" stroke="black" stroke-width="5" stroke-linecap="round"/>
<path d="M865.923 434L998.923 321" stroke="black" stroke-width="5" stroke-linecap="round"/>
<path d="M999.423 321V695.5" stroke="black" stroke-width="5" stroke-linecap="round"/>
<path d="M866.923 817L999.423 695" stroke="black" stroke-width="5" stroke-linecap="round"/>
<path d="M999.423 320.5L644.923 284.5" stroke="black" stroke-width="5" stroke-linecap="round"/>
<path d="M508.423 393.5C508.423 400 508.59 645.667 507.423 771" stroke="black" stroke-width="5" stroke-linecap="round"/>
<path d="M508.423 393L540.423 367.5" stroke="black" stroke-width="5" stroke-linecap="round"/>
<path d="M603.423 315L644.423 284" stroke="black" stroke-width="5" stroke-linecap="round"/>
<path d="M507.423 760L478.567 755.811C477.139 755.604 475.699 755.5 474.257 755.5H448.854C443.974 755.5 439.167 754.309 434.851 752.032L430.512 749.741C425.867 747.29 420.661 746.101 415.412 746.293L389.729 747.233C385.157 747.4 380.797 745.3 378.078 741.621C375.465 738.086 371.329 736 366.933 736H327.923L507.423 760ZM507.423 658.5H499.74C495.92 658.5 492.158 657.566 488.782 655.778C486.557 654.6 484.157 653.789 481.674 653.375L476.423 652.5L507.423 658.5ZM507.423 679.5H487.956C482.378 679.5 476.912 677.941 472.173 675C467.434 672.059 461.967 670.5 456.39 670.5H441.423L507.423 679.5ZM507.423 700.5L470.065 698.742C466.662 698.582 463.311 697.843 460.156 696.558L455.912 694.829C452.947 693.621 449.777 693 446.576 693H437.575C434.383 693 431.429 691.311 429.811 688.559C428.315 686.016 425.669 684.367 422.727 684.144L394.423 682L507.423 700.5ZM506.923 733L418.358 723.726C413.806 723.25 409.443 721.65 405.662 719.072C402.214 716.721 398.279 715.181 394.151 714.568L363.423 710L506.923 733Z" stroke="black" stroke-width="5" stroke-linecap="round"/>
<path d="M789.923 462.5L830.423 466.5V509.5" stroke="black" stroke-width="5" stroke-linecap="round"/>
<path d="M580.923 747L540.423 743V700" stroke="black" stroke-width="5" stroke-linecap="round"/>
<path d="M1885.54 823.5C1900.88 837.312 1906.45 847.001 1913.54 865.5" stroke="black" stroke-width="5" stroke-linecap="round"/>
<path d="M1922.04 910.5C1922.04 899.5 1921.54 897 1918.54 887" stroke="black" stroke-width="5" stroke-linecap="round"/>
<path d="M373.923 249C377.256 249.667 384.323 252.2 385.923 255" stroke="black" stroke-width="5" stroke-linecap="round"/>
<path d="M421.923 292.5C421.923 291 421.023 287.2 417.423 284" stroke="black" stroke-width="5" stroke-linecap="round"/>
<path d="M2185.42 1280.36C2180.02 1215.5 1979.25 1217.36 1891.92 1223.36C1819.92 1306.86 1703.42 1334.69 1652.92 1336.86C1840.92 1343.02 2190.42 1340.36 2185.42 1280.36Z" fill="black"/>
<path d="M1170.42 623.5C1172.42 617.5 1171.92 617.5 1173.49 612.38C1175.42 606.103 1242.3 609.644 1252.67 536.878C1271.9 536.878 1282.16 521.012 1267.42 514.447C1251.69 506.568 1252.69 491.754 1255.42 483C1259.79 471.511 1259.92 459.5 1258.92 457" stroke="black" stroke-width="5" stroke-linecap="round"/>
<path d="M1237.71 510.085C1240.2 510.085 1242.21 507.175 1242.21 503.585C1242.21 499.995 1240.2 497.085 1237.71 497.085C1235.23 497.085 1233.21 499.995 1233.21 503.585C1233.21 507.175 1235.23 510.085 1237.71 510.085Z" fill="black"/>
<path d="M1224.42 487C1227.59 483.535 1235.82 478.424 1243.42 485.701" stroke="black" stroke-width="5" stroke-linecap="round"/>
<path d="M1203.42 554C1209.42 563 1215.92 565.5 1228.42 559.5" stroke="black" stroke-width="5" stroke-linecap="round"/>
<path d="M1154.43 491C1153.1 494.014 1152.04 500.835 1158.42 504" stroke="black" stroke-width="5" stroke-linecap="round"/>
<path d="M1086.42 461C1079.42 502 1103.18 532.524 1120.42 556C1138.42 546 1167.84 522.378 1156.42 520C1144.42 517.5 1131.42 485 1142.92 474.877C1156.42 463 1168.92 480.585 1171.42 494L1182.19 474.877C1178.92 461.628 1177.43 438.337 1197.56 451.168C1217.69 463.999 1246.95 460.233 1259.06 456.747C1282.83 439.314 1319.59 398.869 1276.54 376.555C1240.73 357.995 1194.7 382.529 1166.69 404.417C1147.49 399.589 1095.96 405.098 1086.42 461Z" fill="black"/>
<path d="M1121.92 553.5C1127.42 563.167 1131.62 576.9 1130.42 594.5" stroke="black" stroke-width="5" stroke-linecap="round"/>
<path d="M217.912 730C204.822 754.812 231.305 765.617 251.946 768.524C270.489 771.136 289.253 771.136 291.217 761.342C293.18 751.547 280.744 750.241 270.489 750.241C258.69 750.241 250.854 748.936 254.126 731.306" stroke="black" stroke-width="5" stroke-linecap="round"/>
<path d="M196.423 762.5C193.607 753.642 208.299 757.868 220.423 757C224.647 761.689 240.423 769.5 252.255 769.5C239.349 774.71 199.239 771.357 196.423 762.5Z" fill="black"/>
<path d="M62.4229 666.5C60.4229 668.5 54.7563 673.5 52.4229 675.5C48.2563 678.667 48.4102 684.596 56.9229 694.5C65.0882 704 69.2065 708.594 65.0882 715C56.0882 729 26.7549 699.833 20.0882 684.5C17.0331 679 16.8229 664.8 40.4229 652" stroke="black" stroke-width="5" stroke-linecap="round"/>
<path d="M2.58811 722.5C-5.01189 715.3 26.4214 712.833 43.0881 712.5C45.4881 716.1 54.7548 718.667 59.0881 719.5C43.4214 723.5 10.1881 729.7 2.58811 722.5Z" fill="black"/>
<path d="M215.061 929.998V909" stroke="black" stroke-width="5" stroke-linecap="round"/>
<path d="M196.29 920.666L207.74 929.998" stroke="black" stroke-width="5" stroke-linecap="round"/>
<path d="M222.7 929.998L231.29 916.333" stroke="black" stroke-width="5" stroke-linecap="round"/>
<path d="M653.177 1056V1025" stroke="black" stroke-width="5" stroke-linecap="round"/>
<path d="M625.29 1042.22L642.301 1056" stroke="black" stroke-width="5" stroke-linecap="round"/>
<path d="M664.527 1056L677.29 1035.83" stroke="black" stroke-width="5" stroke-linecap="round"/>
<path d="M1629.96 368V340" stroke="black" stroke-width="5" stroke-linecap="round"/>
<path d="M1605.29 355.556L1620.34 368" stroke="black" stroke-width="5" stroke-linecap="round"/>
<path d="M1640 368L1651.29 349.778" stroke="black" stroke-width="5" stroke-linecap="round"/>
</svg>
