<svg width="281" height="185" viewBox="0 0 281 185" fill="none" xmlns="http://www.w3.org/2000/svg">
<path d="M0.00488281 152.073C0.00470191 137.073 25.5049 124.374 37.0049 125.041C28.5049 166.07 44.8383 167.541 54.5049 169.041H181.005C181.005 170.041 182.505 183.541 171.005 184.073H63.0051C41.6718 185.406 0.00517578 176.364 0.00488281 152.073Z" fill="black"/>
<path d="M277.005 62.04V24.04C277.005 12.9943 268.051 4.04004 257.005 4.04004H58.0049C46.9592 4.04004 38.0049 12.9943 38.0049 24.04V149.04C38.0049 160.086 46.9592 169.04 58.0049 169.04H177.505" stroke="black" stroke-width="7" stroke-linecap="round"/>
<path d="M66.0049 127.04H114.005" stroke="black" stroke-width="7" stroke-linecap="round"/>
<path d="M130.005 127.04H137.005" stroke="black" stroke-width="7" stroke-linecap="round"/>
<rect x="41.0049" y="26.04" width="233" height="28" fill="black"/>
<circle cx="236.505" cy="128.54" r="37" stroke="black" stroke-width="7"/>
<path d="M236.092 112.04V146.04M220.005 129.25H253.005" stroke="black" stroke-width="7" stroke-linecap="round"/>
</svg>
