<svg width="637" height="315" viewBox="0 0 637 315" fill="none" xmlns="http://www.w3.org/2000/svg">
<rect x="3.53809" y="252.54" width="67" height="58" rx="6.5" stroke="black" stroke-width="7"/>
<rect x="112.538" y="224.54" width="68" height="86" rx="6.5" stroke="black" stroke-width="7"/>
<rect x="224.538" y="186.54" width="65" height="124" rx="6.5" stroke="black" stroke-width="7"/>
<rect x="332.038" y="147.04" width="74" height="167" rx="10" fill="black"/>
<rect x="451.538" y="218.54" width="65" height="92" rx="6.5" stroke="black" stroke-width="7"/>
<rect x="565.538" y="257.54" width="67" height="53" rx="6.5" stroke="black" stroke-width="7"/>
<rect x="279.038" y="0.0400391" width="181" height="115" rx="10" fill="black"/>
<path d="M368.575 127.196C367.775 128.156 366.301 128.156 365.502 127.196L349.772 108.32C348.686 107.018 349.612 105.04 351.308 105.04H382.768C384.464 105.04 385.39 107.018 384.304 108.32L368.575 127.196Z" fill="black"/>
<rect x="329.038" y="53.04" width="111" height="12" rx="6" fill="white"/>
<rect x="300.538" y="54.54" width="10" height="10" rx="5" stroke="white" stroke-width="3"/>
<rect x="329.038" y="82.04" width="52" height="13" rx="6.5" fill="white"/>
<rect x="299.038" y="22.04" width="53" height="12" rx="6" fill="white"/>
<rect x="299.038" y="82.04" width="13" height="13" rx="6.5" fill="white"/>
</svg>
