<svg width="598" height="501" viewBox="0 0 598 501" fill="none" xmlns="http://www.w3.org/2000/svg">
<path d="M147.68 360.04C133.884 379.065 113.451 397.629 106.135 400.698L103 416.04C139.841 404.533 150.032 380.752 147.68 360.04Z" fill="black"/>
<path d="M88.6149 297.224C94.4815 341.629 87.6456 391.298 82.5527 414.585C82.2777 415.843 83.2301 417.04 84.5173 417.04H102.503C103.39 417.04 104.173 416.457 104.411 415.602C115.851 374.601 103.654 325.507 92.3271 296.106C91.4781 293.902 88.3056 294.882 88.6149 297.224Z" fill="black"/>
<path d="M108.864 364.726C129.727 368.533 157.545 357.74 173 335.23" stroke="black" stroke-width="5" stroke-linecap="round"/>
<path d="M12.6544 316.619C-0.714086 339.69 44.2562 390.837 90.0895 368.533" stroke="black" stroke-width="5" stroke-linecap="round"/>
<path d="M34.0998 242.594C6.92487 246.437 -7.97678 283.7 12.6544 316.62C16.4094 322.611 32.7061 329.115 40.345 329.115" stroke="black" stroke-width="5" stroke-linecap="round"/>
<path d="M173 288.273C173 259.684 165.369 229.266 119.69 215.676C71.5815 201.363 45.4387 222.987 34.0998 242.594C28.7109 251.912 30.7964 260.858 34.0998 268.549" stroke="black" stroke-width="5" stroke-linecap="round"/>
<path d="M105 324.04C113.026 315.814 129.885 301.259 123.642 268.04" stroke="black" stroke-width="5" stroke-linecap="round"/>
<path d="M89 340.04C82.7037 338.096 67.0889 328.373 55 305.04" stroke="black" stroke-width="5" stroke-linecap="round"/>
<path d="M215.967 234.253L242.967 245.577C243.896 245.966 244.5 246.875 244.5 247.882V311.227C244.5 313.051 242.609 314.261 240.953 313.497L213.953 301.041C213.067 300.633 212.5 299.747 212.5 298.771V236.559C212.5 234.772 214.319 233.563 215.967 234.253Z" stroke="black" stroke-width="5"/>
<path d="M285.967 272.253L312.967 283.577C313.896 283.966 314.5 284.875 314.5 285.882V349.227C314.5 351.051 312.609 352.261 310.953 351.497L283.953 339.041C283.067 338.633 282.5 337.747 282.5 336.771V274.559C282.5 272.772 284.319 271.563 285.967 272.253Z" stroke="black" stroke-width="5"/>
<path d="M215.967 120.253L242.967 131.577C243.896 131.966 244.5 132.875 244.5 133.882V197.227C244.5 199.051 242.609 200.261 240.953 199.497L213.953 187.041C213.067 186.633 212.5 185.747 212.5 184.771V122.559C212.5 120.772 214.319 119.563 215.967 120.253Z" stroke="black" stroke-width="5"/>
<path d="M285.967 157.253L312.967 168.577C313.896 168.966 314.5 169.875 314.5 170.882V234.227C314.5 236.051 312.609 237.261 310.953 236.497L283.953 224.041C283.067 223.633 282.5 222.747 282.5 221.771V159.559C282.5 157.772 284.319 156.563 285.967 157.253Z" stroke="black" stroke-width="5"/>
<path d="M244 379.617V440.419C244 441.591 244.683 442.655 245.748 443.145L271.748 455.087C273.735 456 276 454.548 276 452.361V390.931C276 389.737 275.292 388.656 274.197 388.18L248.197 376.866C246.216 376.004 244 377.456 244 379.617Z" fill="black"/>
<path d="M351 493.04L174.676 406.28C173.65 405.775 173 404.731 173 403.588V45.04" stroke="black" stroke-width="5" stroke-linecap="round"/>
<path d="M346.648 495.157V131.048L165.651 47.7472C163.088 46.5676 163.422 42.8239 166.154 42.1175L328.001 0.26354C328.565 0.117698 329.16 0.1392 329.712 0.325418L492 55.0788V424.554C492 425.684 491.364 426.719 490.356 427.23L351.004 497.833C349.008 498.844 346.648 497.394 346.648 495.157Z" fill="black"/>
<path d="M598 402.972L490.781 374.04V424.867L389 478.04L598 402.972Z" fill="black"/>
</svg>
