<svg width="262" height="338" viewBox="0 0 262 338" fill="none" xmlns="http://www.w3.org/2000/svg">
<path d="M132.73 163.04L38.7305 167.04" stroke="black" stroke-width="5" stroke-linecap="round"/>
<path d="M133.73 163.04L257.73 174.04" stroke="black" stroke-width="5" stroke-linecap="round"/>
<path d="M258.73 174.04L233.73 290.04" stroke="black" stroke-width="5" stroke-linecap="round"/>
<path d="M233.73 290.04L130.73 308.04" stroke="black" stroke-width="5" stroke-linecap="round"/>
<path d="M130.73 307.04V184.04" stroke="black" stroke-width="5" stroke-linecap="round"/>
<path d="M130.73 185.04L257.73 175.04" stroke="black" stroke-width="5" stroke-linecap="round"/>
<path d="M130.73 185.04L38.7305 167.04" stroke="black" stroke-width="5" stroke-linecap="round"/>
<path d="M36.7305 167.04L42.7305 259.04" stroke="black" stroke-width="5" stroke-linecap="round"/>
<path d="M42.7305 259.04L130.73 308.04" stroke="black" stroke-width="5" stroke-linecap="round"/>
<path d="M131.73 163.04V183.04" stroke="black" stroke-width="5" stroke-linecap="round"/>
<rect x="178.002" y="213.858" width="35.2431" height="17.996" rx="7.5" transform="rotate(-3.53924 178.002 213.858)" stroke="black" stroke-width="5"/>
<path d="M93.5 74.2822C101 73.2822 117.1 67.5822 121.5 52.7822" stroke="black" stroke-width="5" stroke-linecap="round"/>
<path d="M69 62.2822C74 62.4489 85.5 59.9822 91.5 48.7822" stroke="black" stroke-width="5" stroke-linecap="round"/>
<path d="M46.5 44.2822C54.5 42.6208 71.9 37.4463 77.5 30.04" stroke="black" stroke-width="5" stroke-linecap="round"/>
<path d="M118.847 99.4283C68.569 110.65 21.6937 60.5984 3.09364 32.165C2.3847 31.0813 2.91277 29.6435 4.14058 29.2318L83.2889 2.68837C84.0274 2.44071 84.8384 2.6432 85.3827 3.20033C111.738 30.1754 160.702 42.0622 186.511 45.3079C188.335 45.5374 188.977 47.9102 187.497 49.0018L119.591 99.089C119.37 99.2517 119.115 99.3686 118.847 99.4283Z" stroke="black" stroke-width="5" stroke-linecap="round"/>
<path d="M130.011 334.04L40.2305 260.54L130.23 310.54L236.23 292.04L246.23 293.54L130.011 334.04Z" fill="black"/>
</svg>
