<svg width="484" height="361" viewBox="0 0 484 361" fill="none" xmlns="http://www.w3.org/2000/svg">
<path d="M43.5029 166.592L66.9704 162.325C67.9515 162.147 68.7798 161.493 69.1807 160.58L76.7254 143.394C77.2174 142.274 76.9794 140.967 76.1241 140.092L58.3475 121.902C57.1102 120.636 57.2325 118.579 58.611 117.469L89.6602 92.4567C90.9672 91.4039 92.8837 91.628 93.9125 92.954L112.702 117.172C113.717 118.48 115.6 118.719 116.909 117.705L128.659 108.609C129.513 107.948 129.945 106.88 129.793 105.812L126.029 79.4643C125.771 77.657 127.173 76.04 128.999 76.04H161.04C162.696 76.04 164.04 77.3832 164.04 79.04V100.452C164.04 101.707 164.821 102.829 165.998 103.265L189.381 111.926C190.405 112.305 191.553 112.098 192.38 111.387L210.188 96.0633C211.474 94.957 213.42 95.1357 214.483 96.4576L231.24 117.301C232.246 118.553 232.088 120.376 230.881 121.435L214.115 136.156C213.169 136.987 212.842 138.321 213.298 139.495L221.028 159.433C221.598 160.901 223.206 161.679 224.711 161.214L246.143 154.59C247.919 154.041 249.761 155.222 250.003 157.065L254.213 189.057C254.402 190.495 253.536 191.862 252.155 192.305L229.589 199.543C228.623 199.853 227.878 200.631 227.611 201.61L222.391 220.75C222.167 221.571 222.303 222.449 222.764 223.164L235.005 242.159C235.866 243.495 235.535 245.272 234.25 246.208L208.824 264.739C207.763 265.513 206.321 265.506 205.267 264.722L189.165 252.749C188.183 252.018 186.855 251.958 185.811 252.596L171.343 261.438C170.262 262.099 169.712 263.368 169.971 264.609L173.849 283.223C174.216 284.986 172.958 286.673 171.164 286.825L135.957 289.794C134.334 289.931 132.899 288.749 132.722 287.13L130.279 264.735C130.137 263.429 129.162 262.368 127.873 262.116L108.911 258.406C107.769 258.183 106.601 258.64 105.914 259.579L93.9682 275.904C92.9305 277.322 90.9018 277.549 89.5767 276.395L63.0009 253.248C61.8754 252.268 61.6417 250.609 62.4525 249.356L76.6086 227.479C77.1855 226.587 77.2481 225.457 76.7732 224.507L65.3687 201.698C64.8606 200.682 63.8218 200.04 62.6854 200.04H44.0396C42.3827 200.04 41.0396 198.697 41.0396 197.04V169.544C41.0396 168.094 42.0764 166.852 43.5029 166.592Z" stroke="black" stroke-width="5"/>
<path d="M235.04 245.04L205.829 266.712C204.767 267.501 203.313 267.5 202.251 266.71L186.165 254.749C185.183 254.018 183.855 253.958 182.811 254.596L168.343 263.438C167.262 264.099 166.712 265.368 166.971 266.609L170.849 285.223C171.216 286.986 169.958 288.673 168.164 288.825L132.957 291.794C131.334 291.931 129.899 290.749 129.722 289.13L127.279 266.735C127.137 265.429 126.162 264.368 124.873 264.116L105.911 260.406C104.769 260.183 103.601 260.64 102.914 261.579L90.9682 277.904C89.9305 279.322 87.9018 279.549 86.5767 278.395L60.0009 255.248C58.8754 254.268 58.6417 252.609 59.4525 251.356L73.6086 229.479C74.1855 228.587 74.2481 227.457 73.7732 226.507L62.3687 203.698C61.8606 202.682 60.8218 202.04 59.6855 202.04H41.0396C39.3827 202.04 38.0396 200.697 38.0396 199.04V171.544C38.0396 170.094 39.0764 168.852 40.5029 168.592L63.9704 164.325C64.9515 164.147 65.7798 163.493 66.1807 162.58L73.7254 145.394C74.2174 144.274 73.9794 142.967 73.1241 142.092L55.3475 123.902C54.1102 122.636 54.2325 120.579 55.611 119.469L86.6602 94.4567C87.9672 93.4039 89.8837 93.628 90.9125 94.954L109.702 119.172C110.717 120.48 112.6 120.719 113.909 119.705L125.876 110.441C126.61 109.873 127.04 108.997 127.04 108.069V78.54" stroke="black" stroke-width="5" stroke-linecap="round"/>
<circle cx="148.04" cy="183.04" r="34.5" stroke="black" stroke-width="5"/>
<path d="M152.54 217.04C168.54 213.04 178.04 200.161 178.04 183.04C178.04 165.919 167.04 148.54 146.04 148.54" stroke="black" stroke-width="5" stroke-linecap="round"/>
<circle cx="372.04" cy="79.04" r="22.5" stroke="black" stroke-width="5"/>
<path d="M374.04 101.54C385.54 96.54 392.04 90.54 392.04 79.04C391.04 67.54 385.04 60.54 374.04 56.54" stroke="black" stroke-width="5" stroke-linecap="round"/>
<circle cx="343.54" cy="293.54" r="19" stroke="black" stroke-width="5"/>
<path d="M344.041 312.54C355.04 309.54 360.164 302.54 361.04 294.54C362.331 282.736 353.54 277.04 347.54 275.04" stroke="black" stroke-width="5" stroke-linecap="round"/>
<path d="M306.209 93.0338L311.223 104.218C311.717 105.322 311.501 106.614 310.674 107.497L298.922 120.032C297.857 121.168 297.838 122.929 298.878 124.088L312.816 139.619C313.807 140.724 315.456 140.938 316.696 140.123L330.596 130.989C331.489 130.402 332.628 130.334 333.585 130.813L343.381 135.711C344.398 136.219 345.04 137.258 345.04 138.394V152.04C345.04 153.697 346.383 155.04 348.04 155.04H375.04C376.696 155.04 378.04 153.697 378.04 152.04V142.132C378.04 140.875 378.823 139.751 380.002 139.317L394.849 133.847C396.137 133.373 397.583 133.833 398.36 134.966L407.046 147.633C408.091 149.157 410.253 149.383 411.591 148.108L428.59 131.899C429.699 130.841 429.833 129.118 428.901 127.902L420.253 116.622C419.518 115.664 419.429 114.358 420.029 113.309L426.303 102.329C426.767 101.517 427.584 100.967 428.511 100.844L446.804 98.4048C448.35 98.1986 449.481 96.8418 449.404 95.2837L448.188 70.5603C448.106 68.8961 446.684 67.6175 445.021 67.7126L432.467 68.4299C431.293 68.497 430.188 67.8724 429.641 66.8321L421.631 51.6141C420.99 50.3953 421.26 48.8963 422.288 47.979L432.476 38.8824C433.642 37.8416 433.813 36.0803 432.87 34.8342L422.479 21.1026C421.43 19.7167 419.427 19.5092 418.116 20.6507L406.793 30.5127C405.761 31.4117 404.251 31.498 403.123 30.7226L390.129 21.7894C389.435 21.312 388.974 20.5646 388.858 19.7299L386.948 5.97779C386.721 4.34992 385.228 3.207 383.597 3.4145L361.661 6.20643C360.162 6.39712 359.04 7.67201 359.04 9.18242V21.7771C359.04 23.1166 358.152 24.2937 356.864 24.6617L346.404 27.6501C345.54 27.8969 344.611 27.7436 343.873 27.2321L327.569 15.9449C326.39 15.1287 324.798 15.2609 323.77 16.2605L309.682 29.9574C308.497 31.109 308.467 33.0015 309.613 34.1907L319.375 44.314C320.348 45.3233 320.493 46.8722 319.723 48.0439L310.428 62.1876C309.874 63.0317 308.931 63.54 307.921 63.54H295.606C294.128 63.54 292.871 64.6156 292.642 66.0751L289.507 86.0608C289.249 87.7036 290.377 89.2427 292.021 89.4918L303.921 91.2948C304.93 91.4477 305.792 92.1027 306.209 93.0338Z" stroke="black" stroke-width="5"/>
<path d="M431.54 39.04L419.479 23.1026C418.43 21.7167 416.427 21.5092 415.116 22.6507L403.793 32.5127C402.761 33.4117 401.251 33.498 400.123 32.7226L387.129 23.7894C386.435 23.312 385.974 22.5646 385.858 21.7299L383.948 7.97779C383.721 6.34992 382.228 5.207 380.597 5.4145L358.661 8.20643C357.162 8.39712 356.04 9.67201 356.04 11.1824V23.7771C356.04 25.1166 355.152 26.2937 353.864 26.6617L343.404 29.6501C342.54 29.8969 341.611 29.7436 340.873 29.2321L324.569 17.9449C323.39 17.1287 321.798 17.2609 320.77 18.2605L306.682 31.9574C305.497 33.109 305.467 35.0015 306.613 36.1907L316.375 46.314C317.348 47.3233 317.493 48.8721 316.723 50.0439L307.428 64.1876C306.874 65.0317 305.931 65.54 304.921 65.54H292.606C291.128 65.54 289.871 66.6156 289.642 68.0751L286.507 88.0608C286.249 89.7036 287.377 91.2427 289.021 91.4918L300.921 93.2948C301.93 93.4477 302.792 94.1027 303.209 95.0338L308.298 106.385C308.754 107.403 308.608 108.589 307.919 109.466L298.04 122.04" stroke="black" stroke-width="5" stroke-linecap="round"/>
<path d="M405.668 274.012L394.957 280.66C394.076 281.207 393.54 282.171 393.54 283.209V295.509C393.54 296.736 394.286 297.839 395.425 298.294L403.735 301.618C405.072 302.153 405.841 303.563 405.566 304.976L403.012 318.113C402.737 319.522 401.503 320.54 400.067 320.54H385.04C384.095 320.54 383.206 320.985 382.64 321.74L377.274 328.894C376.53 329.886 376.473 331.233 377.13 332.284L384.325 343.797C385.251 345.278 384.721 347.232 383.176 348.043L368.62 355.685C367.183 356.44 365.406 355.915 364.611 354.5L357.9 342.569C357.368 341.625 356.369 341.04 355.285 341.04H341.092C339.855 341.04 338.744 341.8 338.296 342.953L333.048 356.447C332.479 357.91 330.879 358.687 329.378 358.23L312.165 352.991C310.483 352.479 309.6 350.639 310.253 349.007L315.091 336.912C315.638 335.545 315.111 333.983 313.849 333.226L302.629 326.494C301.655 325.909 300.434 325.925 299.475 326.535L292.846 330.754C291.345 331.709 289.348 331.156 288.552 329.565L281.331 315.123C280.61 313.681 281.158 311.927 282.572 311.151L293.982 304.894C294.943 304.367 295.54 303.359 295.54 302.264V289.216C295.54 288.175 294.999 287.207 294.112 286.661L284.794 280.927C283.506 280.135 283.009 278.507 283.635 277.131L288.922 265.499C289.557 264.101 291.145 263.409 292.602 263.894L302.783 267.288C304.105 267.728 305.556 267.201 306.286 266.014L312.072 256.612C312.665 255.648 312.665 254.432 312.072 253.468L306.565 244.519C305.715 243.138 306.116 241.332 307.471 240.44L321.254 231.373C322.743 230.393 324.752 230.92 325.569 232.503L331.201 243.416C331.716 244.413 332.745 245.04 333.867 245.04H349.855C351.157 245.04 352.31 244.2 352.71 242.961L356.057 232.585C356.589 230.936 358.404 230.079 360.015 230.716L375.922 237.005C377.394 237.587 378.16 239.212 377.673 240.718L373.694 253.018C373.302 254.23 373.717 255.556 374.73 256.328L381.736 261.666C382.803 262.479 384.28 262.484 385.354 261.679L394.721 254.654C396.199 253.545 398.318 254.024 399.177 255.659L406.742 270.069C407.473 271.461 407.004 273.182 405.668 274.012Z" stroke="black" stroke-width="5"/>
<path d="M358.337 232.04L373.841 238.768C375.257 239.382 375.976 240.971 375.502 242.441L371.636 254.433C371.246 255.642 371.66 256.965 372.669 257.737L379.394 262.878C380.463 263.695 381.945 263.701 383.02 262.892L391.999 256.134C393.479 255.021 395.603 255.5 396.462 257.14L403.75 271.07C404.477 272.461 404.01 274.178 402.677 275.007L392.345 281.443C391.466 281.991 390.931 282.953 390.931 283.989V295.917C390.931 297.142 391.677 298.245 392.814 298.701L400.795 301.905C402.129 302.44 402.896 303.848 402.622 305.259L400.159 317.973C399.886 319.384 398.651 320.402 397.214 320.402H382.705C381.759 320.402 380.868 320.848 380.302 321.606L375.132 328.524C374.392 329.514 374.335 330.857 374.988 331.906L381.929 343.051C382.85 344.53 382.322 346.479 380.781 347.291L366.761 354.678C365.322 355.436 363.541 354.909 362.745 353.49L356.277 341.951C355.747 341.004 354.746 340.418 353.66 340.418H340.021C338.752 340.418 337.62 341.217 337.195 342.412L333.04 354.087" stroke="black" stroke-width="5" stroke-linecap="round"/>
<path d="M230.539 316.539C185.872 344.706 54.6541 349.787 15.5392 244.54C-32.9608 114.039 86.5396 39.0396 130.54 39.5396C174.54 40.0396 243.54 50.04 277.04 148.04C298.107 209.67 408.539 215.04 446.539 161.543" stroke="black" stroke-width="7" stroke-linecap="round" stroke-dasharray="18 18"/>
<path d="M461.457 132.905C464.942 131.272 468.888 134.024 468.56 137.859L466.997 156.096C466.669 159.931 462.312 161.972 459.155 159.77L444.143 149.298C440.986 147.096 441.396 142.303 444.882 140.67L461.457 132.905Z" fill="black"/>
</svg>
