<svg width="301" height="249" viewBox="0 0 301 249" fill="none" xmlns="http://www.w3.org/2000/svg">
<path d="M183.307 221.542C176.217 228.64 170.105 234.758 165.894 238.973C154.917 249.961 143.391 243.551 139 238.973L68.971 171.52C58.6325 161.91 49.8941 152.424 10.8171 115.155C6.81715 111.151 0.478689 100.925 7.12484 92.0549C13.771 83.1844 51.1248 36.6141 68.971 14.4378C74.3843 6.59776 86.1481 -2.72991 101.154 11.2178C114.077 23.23 158.384 64.8106 196.23 96.4241" stroke="black" stroke-width="7" stroke-linecap="round"/>
<path d="M68.2305 16.04C70.4346 56.4675 85.3078 121.547 162.23 146.04" stroke="black" stroke-width="7" stroke-linecap="round"/>
<path d="M265.903 137.067C265.108 141.732 264.299 143.695 263.658 149.5C262.823 157.062 262.273 164.994 262.412 171.735C262.657 183.567 265.025 191.732 271.699 187.793C285.094 179.887 292.324 173.405 294.239 166.794C297.458 155.676 297.474 134.389 279.427 120.472C257.638 103.669 233.077 104.125 213.742 120.472C194.554 136.693 189.307 162.667 190.358 176.141C191.508 190.881 202.56 222.537 238.623 223.031C274.686 223.525 294.225 204.179 297.23 195.12" stroke="black" stroke-width="7" stroke-linecap="round"/>
<path d="M263.658 149.5C260.124 140.565 232.999 130.164 222.757 149.5C212.193 169.443 220.263 186.244 227.132 189.538C235.905 193.745 248.801 195.945 262.412 171.734" stroke="black" stroke-width="7" stroke-linecap="round"/>
</svg>
