<svg width="518" height="547" viewBox="0 0 518 547" fill="none" xmlns="http://www.w3.org/2000/svg">
<path d="M335.429 446.155C337.237 433.699 351.315 414.515 393.169 437.435" stroke="black" stroke-width="5" stroke-linecap="round"/>
<path d="M365.408 363.244C367.043 352.61 368.223 330.494 359.857 327.106C351.491 323.717 348.271 333.893 347.706 339.405L341.092 378.038" stroke="black" stroke-width="5" stroke-linecap="round"/>
<path d="M381.22 373.424C383.562 364.221 386.934 338.124 377.484 332.803C375.712 331.873 371.001 330.61 366.336 332.996" stroke="black" stroke-width="5" stroke-linecap="round"/>
<path d="M394.832 365.789C396.926 357.688 400.369 344.788 391.32 344.092L384.222 344.092" stroke="black" stroke-width="5" stroke-linecap="round"/>
<path d="M397.563 352.135C404.168 350.739 405.972 360.854 405.972 365.789C406.932 375.059 405.972 401.983 393.168 437.434C390.888 445.818 387.379 465.672 391.589 478.021" stroke="black" stroke-width="5" stroke-linecap="round"/>
<path d="M320.377 395.933C321.084 401.309 325.089 421.649 332.088 430.422C339.088 439.195 335.477 440.066 335.429 446.154L332.088 505.584" stroke="black" stroke-width="5" stroke-linecap="round"/>
<path d="M341.5 379.54L251.945 440.632C250.524 441.601 248.581 441.18 247.689 439.709C241.82 430.023 234.995 418.772 227.566 406.534C186.468 338.837 126.854 240.957 107.864 210.981C85.4253 175.559 175.689 76.4871 225.537 29.4909C226.694 28.4007 228.465 28.4422 229.616 29.5384L263.02 61.3521" stroke="black" stroke-width="5" stroke-linecap="round"/>
<path d="M227.566 406.534L188.99 452.094C187.725 453.588 185.429 453.542 184.291 451.949C136.295 384.749 38.4421 254.103 4.8753 232.524C3.43824 231.6 2.90938 229.729 3.75495 228.245L107.231 46.5819C107.636 45.8713 108.31 45.3508 109.11 45.1845C121.985 42.5109 152.037 44.1241 179.124 70.717" stroke="black" stroke-width="5" stroke-linecap="round"/>
<path d="M341.5 379.04L308.103 380.905C306.608 380.989 305.289 379.998 304.995 378.529C295.346 330.312 269.877 228.705 240.905 188.188C215.601 152.8 201.068 135.712 195.088 129.656C193.889 128.441 193.752 126.464 194.895 125.196C210.024 108.407 234.634 84.0692 263.02 61.3524C295.408 35.4334 332.711 11.6252 366.456 3.55051C367.77 3.23619 369.117 3.8685 369.746 5.06388L396.763 56.4164" stroke="black" stroke-width="5" stroke-linecap="round"/>
<path d="M408.348 366.324C415.264 360.547 440.62 351.279 487.673 358.881C489.822 359.228 491.66 357.302 491.176 355.181C482.774 318.364 472.586 236.421 492.244 168.902C511.635 102.302 515.595 40.7007 515.174 14.2455C515.142 12.1828 513.057 10.8393 511.136 11.5921L396.763 56.4169L324.619 84.6919C323.461 85.1457 322.702 86.2176 322.715 87.4613C323.304 143.225 329.105 268.597 347.97 340.375" stroke="black" stroke-width="5" stroke-linecap="round"/>
<path d="M389.077 292.04C410.355 284.748 453.404 268.964 455.368 264.165" stroke="black" stroke-width="5" stroke-linecap="round"/>
<path d="M389.077 249.699C388.726 246.405 402.756 238.478 436.427 228.881" stroke="black" stroke-width="5" stroke-linecap="round"/>
<path d="M383.465 210.18C410.005 201.83 464.908 183.223 472.204 175.602" stroke="black" stroke-width="5" stroke-linecap="round"/>
<path d="M378.204 168.545L430.114 146.669" stroke="black" stroke-width="5" stroke-linecap="round"/>
<path d="M378.204 123.734C391.766 115.148 429.553 94.5892 472.204 81.04" stroke="black" stroke-width="5" stroke-linecap="round"/>
<path d="M301.219 165.408L324.394 155.567" stroke="black" stroke-width="5" stroke-linecap="round"/>
<path d="M281.204 135.182L322.639 113.04" stroke="black" stroke-width="5" stroke-linecap="round"/>
<path d="M313.86 197.04L327.204 191.065" stroke="black" stroke-width="5" stroke-linecap="round"/>
<path d="M257.762 319.04L272.203 302.668" stroke="black" stroke-width="5" stroke-linecap="round"/>
<path d="M236.981 289.431C242.03 280.839 254.029 262.539 270.09 255.294" stroke="black" stroke-width="5" stroke-linecap="round"/>
<path d="M209.859 245.54L243.673 207.919" stroke="black" stroke-width="5" stroke-linecap="round"/>
<path d="M185.204 214.538L225.71 172.04" stroke="black" stroke-width="5" stroke-linecap="round"/>
<path d="M98.2036 251.34L119.128 231.04" stroke="black" stroke-width="5" stroke-linecap="round"/>
<path d="M119.128 270.24L135.17 256.24" stroke="black" stroke-width="5" stroke-linecap="round"/>
<path d="M135.17 296.49L151.909 283.54" stroke="black" stroke-width="5" stroke-linecap="round"/>
<path d="M156.443 321.69L169.347 311.54" stroke="black" stroke-width="5" stroke-linecap="round"/>
<path d="M171.439 343.04L181.204 334.64" stroke="black" stroke-width="5" stroke-linecap="round"/>
</svg>
