<svg width="538" height="509" viewBox="0 0 538 509" fill="none" xmlns="http://www.w3.org/2000/svg">
<path d="M253.871 462.54C261.038 464.207 281.371 465.34 285.371 452.54" stroke="black" stroke-width="5" stroke-linecap="round"/>
<path d="M264.371 434.54C276.371 446.04 295.371 464.54 305.371 449.54L311.371 439.54" stroke="black" stroke-width="5" stroke-linecap="round"/>
<path d="M264.371 403.54C278.037 416.54 319.971 447.74 338.371 436.54C341.704 434.373 348.471 427.44 348.871 417.04" stroke="black" stroke-width="5" stroke-linecap="round"/>
<path d="M297.371 386.04C314.204 399.207 351.371 422.74 365.371 411.54C379.371 400.34 364.871 384.873 355.871 378.54L295.371 329.54" stroke="black" stroke-width="5" stroke-linecap="round"/>
<path d="M123.371 338.54C130.871 342.479 139.145 352.697 141.871 362.04C145.371 374.04 155.204 384.373 159.371 387.54" stroke="black" stroke-width="5" stroke-linecap="round"/>
<path d="M273.371 271.54C263.371 267.54 235.371 259.44 213.371 263.04C191.371 266.64 193.371 259.54 182.871 253.54L123.371 217.04" stroke="black" stroke-width="5" stroke-linecap="round"/>
<path d="M353.371 268.54L375.371 257.04M372.871 398.04C382.071 395.64 397.371 382.04 403.871 375.54L429.371 362.04" stroke="black" stroke-width="5" stroke-linecap="round"/>
<path d="M355.371 322.04C340.704 330.873 303.971 341.74 274.371 318.54" stroke="black" stroke-width="5" stroke-linecap="round"/>
<path d="M274.37 318.54C263.37 334.04 237.57 363.64 222.37 358.04C207.17 352.44 214.037 336.04 219.37 328.54C234.871 297.54 283.371 242.14 353.371 268.54" stroke="black" stroke-width="5" stroke-linecap="round"/>
<path d="M254.871 444.54C254.471 459.34 249.704 465.706 247.371 467.04C235.996 473.54 223.371 463.54 226.894 455.412C229.312 450.909 232.553 441.621 233.871 437.54C236.938 428.04 255.271 429.74 254.871 444.54Z" stroke="black" stroke-width="5" stroke-linecap="round"/>
<path d="M213.371 458.54C196.571 462.14 196.371 445.04 203.871 436.54C206.274 433.816 212.271 428.219 219.871 422.04C227.471 415.861 232.371 421.132 233.871 424.54C235.851 429.04 230.171 454.94 213.371 458.54Z" stroke="black" stroke-width="5" stroke-linecap="round"/>
<path d="M185.371 438.54C166.971 438.14 167.871 422.04 175.371 415.04C181.204 408.873 196.071 397.44 208.871 401.04C221.671 404.64 218.871 416.54 215.871 422.54C213.371 428.04 203.771 438.94 185.371 438.54Z" stroke="black" stroke-width="5" stroke-linecap="round"/>
<path d="M191.371 383.04C171.771 378.24 155.204 390.04 149.371 396.54C145.371 401.74 145.704 407.707 146.371 410.04C151.171 422.04 173.371 413.373 183.871 407.54C194.537 401.373 210.971 387.84 191.371 383.04Z" stroke="black" stroke-width="5" stroke-linecap="round"/>
<path d="M218.371 203.04C221.371 209.707 226.471 226.14 222.871 238.54" stroke="black" stroke-width="5" stroke-linecap="round"/>
<path d="M236.871 215.54C237.704 219.207 239.371 228.04 239.371 234.04" stroke="black" stroke-width="5" stroke-linecap="round"/>
<path d="M299.371 180.04L310.871 220.54" stroke="black" stroke-width="5" stroke-linecap="round"/>
<path d="M331.871 198.04L328.371 222.04" stroke="black" stroke-width="5" stroke-linecap="round"/>
<path d="M362.871 215.54L345.371 229.04" stroke="black" stroke-width="5" stroke-linecap="round"/>
<circle cx="16.8706" cy="259.54" r="15.5" fill="black"/>
<path d="M42.3451 260.864C68.5665 258.165 109.71 261.357 114.573 281.64C119.436 301.923 100.867 309.341 90.9742 310.515C53.3107 316.501 3.37061 313.684 3.37061 281.64" stroke="black" stroke-width="5" stroke-linecap="round"/>
<circle cx="32.8706" cy="288.54" r="4" stroke="black" stroke-width="3"/>
<path d="M62.8706 288.54C62.8706 290.629 60.9814 292.54 58.3706 292.54C55.7598 292.54 53.8706 290.629 53.8706 288.54C53.8706 286.451 55.7598 284.54 58.3706 284.54C60.9814 284.54 62.8706 286.451 62.8706 288.54Z" stroke="black" stroke-width="3"/>
<circle cx="83.8706" cy="288.54" r="4" stroke="black" stroke-width="3"/>
<circle cx="451.871" cy="446.54" r="14.5" fill="black"/>
<path d="M475.446 436.04C484.24 436.04 509.367 436.04 521.186 436.04C530.76 436.04 535.369 438.158 535.369 452.982C535.369 467.385 535.251 486.042 535.369 493.572C535.452 498.866 532.816 504.725 524.022 505.572C515.229 506.419 479.937 505.925 463.39 505.572C457.244 505.572 446.37 502.088 446.371 487.925L446.371 472.042" stroke="black" stroke-width="5" stroke-linecap="round"/>
<path d="M469.371 461.04L491.371 476.04" stroke="black" stroke-width="5" stroke-linecap="round"/>
<path d="M491.371 476.04L531.371 439.04" stroke="black" stroke-width="5" stroke-linecap="round"/>
<path d="M461.371 489.04L477.498 467.04M501.509 467.04L523.371 489.04" stroke="black" stroke-width="5" stroke-linecap="round"/>
<path d="M459.125 202.085L407.125 241.585C341.124 292.085 405.624 348.752 429.624 361.585L506.125 312.585" stroke="black" stroke-width="5" stroke-linecap="round"/>
<path d="M237.77 74.2822C245.27 73.2822 261.37 67.5822 265.77 52.7822" stroke="black" stroke-width="5" stroke-linecap="round"/>
<path d="M213.27 62.2822C218.27 62.4489 229.77 59.9822 235.77 48.7822" stroke="black" stroke-width="5" stroke-linecap="round"/>
<path d="M190.77 44.2822C198.77 42.6208 216.17 37.4463 221.77 30.04" stroke="black" stroke-width="5" stroke-linecap="round"/>
<path d="M263.117 99.4283C212.839 110.65 165.963 60.5984 147.363 32.165C146.654 31.0813 147.182 29.6435 148.41 29.2318L227.558 2.68837C228.297 2.44071 229.108 2.6432 229.652 3.20033C256.007 30.1754 304.972 42.0622 330.78 45.3079C332.605 45.5374 333.246 47.9102 331.766 49.0018L263.86 99.089C263.64 99.2517 263.384 99.3686 263.117 99.4283Z" stroke="black" stroke-width="5" stroke-linecap="round"/>
</svg>
