<svg width="256" height="285" viewBox="0 0 256 285" fill="none" xmlns="http://www.w3.org/2000/svg">
<path d="M100.766 267.54C109.432 280.207 132.766 293.54 153.266 266.04" stroke="black" stroke-width="5" stroke-linecap="round"/>
<path d="M96.7656 255.54C106.599 260.873 131.866 268.04 154.266 254.04" stroke="black" stroke-width="5" stroke-linecap="round"/>
<path d="M93.7656 244.04C104.432 250.207 132.366 258.84 158.766 244.04" stroke="black" stroke-width="5" stroke-linecap="round"/>
<path d="M83.7676 194.039C93.4205 204.532 94.0326 217.724 94.1774 228.887C94.2264 232.659 96.4055 236.105 99.9356 237.436C121.154 245.434 141.157 242.162 152.826 237.899C156.804 236.446 158.733 232.24 158.483 228.012C157.411 209.816 164.264 197.338 168.268 193.039C188.668 170.639 202.767 138.539 200.768 119.539C195.35 68.0396 136.766 30.2497 94.2693 57.5363C15.736 107.962 77.769 187.518 83.7676 194.039Z" stroke="black" stroke-width="5" stroke-linecap="round"/>
<path d="M94.7189 167.175C94.4131 156.255 95.0773 130.068 102.169 102.908C102.23 102.672 102.374 102.467 102.578 102.332C115.558 93.7731 135.747 86.1956 146.896 82.5926C147.855 82.2825 148.612 83.4516 147.979 84.2363C134.405 101.055 128.075 123.773 126.164 135.698C126.013 136.635 127.16 137.204 127.882 136.588C138.419 127.608 154.7 123.509 163.592 122.295C164.441 122.179 164.985 123.135 164.492 123.837C141.35 156.77 128.947 189.156 124.69 204.459C124.416 205.444 123.025 205.45 122.779 204.458C118.693 187.975 120 169.377 121.462 160.279C121.586 159.511 120.836 158.884 120.107 159.154L96.0565 168.062C95.4192 168.298 94.738 167.854 94.7189 167.175Z" stroke="black" stroke-width="5" stroke-linecap="round"/>
<path d="M43.2656 208.54L56.2656 198.54" stroke="black" stroke-width="5" stroke-linecap="round"/>
<path d="M43.2656 169.04L16.7656 181.54" stroke="black" stroke-width="5" stroke-linecap="round"/>
<path d="M13.7656 146.04C16.1656 146.04 28.7656 143.04 34.7656 141.54" stroke="black" stroke-width="5" stroke-linecap="round"/>
<path d="M34.7656 118.54L3.26562 115.04" stroke="black" stroke-width="5" stroke-linecap="round"/>
<path d="M38.7656 86.54L16.7656 76.04" stroke="black" stroke-width="5" stroke-linecap="round"/>
<path d="M59.7656 64.04L34.7656 40.04" stroke="black" stroke-width="5" stroke-linecap="round"/>
<path d="M76.7656 48.04L53.7656 9.54004" stroke="black" stroke-width="5" stroke-linecap="round"/>
<path d="M105.266 37.54L99.7656 9.54004" stroke="black" stroke-width="5" stroke-linecap="round"/>
<path d="M138.266 35.04V3.04004" stroke="black" stroke-width="5" stroke-linecap="round"/>
<path d="M170.266 40.04L179.266 22.54" stroke="black" stroke-width="5" stroke-linecap="round"/>
<path d="M199.266 64.04L225.766 40.04" stroke="black" stroke-width="5" stroke-linecap="round"/>
<path d="M219.766 90.04L238.266 84.54" stroke="black" stroke-width="5" stroke-linecap="round"/>
<path d="M219.766 122.54L252.766 118.54" stroke="black" stroke-width="5" stroke-linecap="round"/>
<path d="M222.266 149.04L240.766 154.54" stroke="black" stroke-width="5" stroke-linecap="round"/>
<path d="M213.266 172.04L233.266 183.54" stroke="black" stroke-width="5" stroke-linecap="round"/>
<path d="M199.266 195.04L213.266 208.54" stroke="black" stroke-width="5" stroke-linecap="round"/>
</svg>
