<svg width="766" height="481" viewBox="0 0 766 481" fill="none" xmlns="http://www.w3.org/2000/svg">
<path d="M493.677 130.54H439.747L437.203 154.54H495.203L493.677 130.54Z" fill="black"/>
<path d="M498.414 175.54H435.186L432.203 201.54H500.203L498.414 175.54Z" fill="black"/>
<path d="M502.15 223.54H429.624L426.203 251.54H504.203L502.15 223.54Z" fill="black"/>
<path d="M506.302 274.54H422.172L418.203 303.54H492.563L508.203 295.54L506.302 274.54Z" fill="black"/>
<path d="M413.203 346.04L442.203 110.54M493.203 110.54L508.203 293.04" stroke="black" stroke-width="5" stroke-linecap="round"/>
<path d="M432.703 110.54H505.203" stroke="black" stroke-width="5" stroke-linecap="round"/>
<path d="M432.703 65.54H505.203" stroke="black" stroke-width="5" stroke-linecap="round"/>
<path d="M443.203 76.54V95.54" stroke="black" stroke-width="5" stroke-linecap="round"/>
<path d="M492.203 76.54V95.54" stroke="black" stroke-width="5" stroke-linecap="round"/>
<circle cx="469.203" cy="85.54" r="9" fill="black"/>
<rect x="460.203" y="48.54" width="18" height="9" rx="4.5" fill="black"/>
<path d="M388.703 62.04L194.703 3.04004" stroke="black" stroke-width="5" stroke-linecap="round"/>
<path d="M380.203 89.54L22.7031 75.04" stroke="black" stroke-width="5" stroke-linecap="round"/>
<path d="M375.203 109.04L3.20312 223.04" stroke="black" stroke-width="5" stroke-linecap="round"/>
<path d="M394.703 138.54L100.203 348.54" stroke="black" stroke-width="5" stroke-linecap="round"/>
<path d="M201.203 429.247C219.776 423.578 358.289 385.108 407.768 351.125" stroke="black" stroke-width="5" stroke-linecap="round"/>
<path d="M332.676 424.101C357.048 385.013 387.139 358.908 447.387 327.687C522.697 288.661 539.902 281.811 572.115 233.674" stroke="black" stroke-width="5" stroke-linecap="round"/>
<path d="M572.115 233.674C578.895 247.066 596.133 281.3 608.711 299.617M595.157 292.692C607.904 297.622 634.847 313.836 640.642 339.258C646.437 364.68 669.891 382.928 679.361 393.797" stroke="black" stroke-width="5" stroke-linecap="round"/>
<path d="M598.529 337.209C607.595 351.203 624.567 369.056 678.045 391.294" stroke="black" stroke-width="5" stroke-linecap="round"/>
<path d="M748.283 471.815C732.494 452.513 695.83 409.018 675.479 389.446" stroke="black" stroke-width="5" stroke-linecap="round"/>
<path d="M572.115 233.674C567.492 252.365 559.379 294.413 570.949 318.147" stroke="black" stroke-width="5" stroke-linecap="round"/>
<path d="M563.923 300.249C553.772 305.652 540.831 325.456 571.298 367.482" stroke="black" stroke-width="5" stroke-linecap="round"/>
<path d="M540.465 375.686C548.659 376.537 566.238 376.279 571.001 368.436" stroke="black" stroke-width="5" stroke-linecap="round"/>
<path d="M551.522 454.538L540.465 375.686" stroke="black" stroke-width="5" stroke-linecap="round"/>
</svg>
