<svg width="317" height="237" viewBox="0 0 317 237" fill="none" xmlns="http://www.w3.org/2000/svg">
<path d="M37.4358 211.54C32.8616 164.274 54.2595 141.103 67.1005 134.412C68.2967 133.788 69.6311 133.54 70.98 133.54H97.2342C98.6844 133.54 100.129 133.839 101.408 134.522C126.589 147.96 133.373 187.165 130.936 211.54C129.936 230.54 116.436 234.04 104.436 234.04H63.9355C39.4355 233.04 37.769 217.707 37.4358 211.54Z" fill="black"/>
<path d="M92.2285 173.706C90.1238 172.648 86.9281 171.659 83.9401 171.67C80.339 171.684 77.0393 173.152 76.3144 177.706C75.3583 183.712 82.606 185.869 86.9236 188.039C92.892 191.039 92.8377 196.663 89.2445 199.373C87.6285 200.591 85.7938 201.26 83.9401 201.513C81.2302 201.882 78.48 201.362 76.3144 200.373" stroke="white" stroke-width="7" stroke-linecap="round"/>
<path d="M83.9404 201.513V206.04" stroke="white" stroke-width="7" stroke-linecap="round"/>
<path d="M83.9404 171.671V167.04" stroke="white" stroke-width="7" stroke-linecap="round"/>
<rect x="65.9355" y="122.54" width="35" height="8" rx="4" stroke="black" stroke-width="5"/>
<rect x="128.229" y="54.04" width="60" height="12" rx="6" fill="black"/>
<path d="M68.9355 116.54L57.9355 96.54" stroke="black" stroke-width="5" stroke-linecap="round"/>
<path d="M98.9355 116.54L109.436 96.04" stroke="black" stroke-width="5" stroke-linecap="round"/>
<path d="M57.4355 96.04C60.7689 96.7067 68.1355 96.94 70.9355 92.54C73.7355 88.14 77.4355 89.3734 78.9355 90.54L83.4355 94.54" stroke="black" stroke-width="5" stroke-linecap="round"/>
<path d="M109.436 95.6377C106.102 96.3044 98.7355 96.5377 95.9355 92.1377C93.1355 87.7377 89.4355 88.971 87.9355 90.1377L83.4355 94.54" stroke="black" stroke-width="5" stroke-linecap="round"/>
<path d="M131.936 51.04L113.436 15.54" stroke="black" stroke-width="5" stroke-linecap="round"/>
<path d="M185.436 51.04L203.436 15.04" stroke="black" stroke-width="5" stroke-linecap="round"/>
<path d="M113.436 15.4029C119.205 16.551 131.955 16.9529 136.801 9.37498C141.647 1.79705 148.051 3.92117 150.647 5.93046L158.436 12.8195" stroke="black" stroke-width="5" stroke-linecap="round"/>
<path d="M203.436 14.4029C197.666 15.551 184.916 15.9529 180.07 8.37498C175.224 0.79705 168.82 2.92117 166.224 4.93046L158.436 12.5124" stroke="black" stroke-width="5" stroke-linecap="round"/>
<rect x="3.61811" y="226.944" width="47.2945" height="11.8004" rx="5.90019" transform="rotate(-61.5197 3.61811 226.944)" stroke="black" stroke-width="5"/>
<rect x="207.936" y="188.54" width="47.2945" height="11.8004" rx="5.90019" stroke="black" stroke-width="5"/>
<rect x="214.936" y="205.54" width="47.2945" height="11.8004" rx="5.90019" stroke="black" stroke-width="5"/>
<rect x="207.936" y="222.54" width="47.2945" height="11.8004" rx="5.90019" stroke="black" stroke-width="5"/>
<rect x="258.936" y="222.54" width="47.2945" height="11.8004" rx="5.90019" stroke="black" stroke-width="5"/>
<rect x="266.936" y="207.54" width="47.2945" height="11.8004" rx="5.90019" stroke="black" stroke-width="5"/>
<rect x="259.936" y="191.54" width="47.2945" height="11.8004" rx="5.90019" stroke="black" stroke-width="5"/>
<rect x="250.936" y="174.54" width="47.2945" height="11.8004" rx="5.90019" stroke="black" stroke-width="5"/>
<rect x="255.936" y="157.54" width="47.2945" height="11.8004" rx="5.90019" stroke="black" stroke-width="5"/>
<path d="M114.729 88.04C120.729 80.2067 125.936 73.54 136.436 70.04H181.436C200.769 80.2067 232.229 111.04 230.229 176.54" stroke="black" stroke-width="5" stroke-linecap="round"/>
<path d="M130.229 231.04H199.729" stroke="black" stroke-width="5" stroke-linecap="round"/>
<path d="M158.936 175.75V182.54" stroke="black" stroke-width="7" stroke-linecap="round"/>
<path d="M158.936 130.986V124.04" stroke="black" stroke-width="7" stroke-linecap="round"/>
<path d="M171.435 134.039C168.261 132.452 163.442 130.968 158.936 130.986C153.505 131.006 148.528 133.208 147.435 140.039C145.993 149.049 156.924 152.284 163.435 155.539C172.436 160.04 172.354 168.476 166.935 172.54C164.498 174.367 161.731 175.37 158.936 175.749C154.849 176.303 150.701 175.524 147.435 174.039" stroke="black" stroke-width="7" stroke-linecap="round"/>
</svg>
