<svg width="90" height="172" viewBox="0 0 90 172" fill="none" xmlns="http://www.w3.org/2000/svg">
<path d="M19.1551 104.371C11.5828 102.955 -3.20658 105.488 5.64772 123.779C12.4008 137.729 22.8378 145.008 25.9082 148.04" stroke="black" stroke-width="5" stroke-linecap="round"/>
<path d="M37.5597 166.212C20.8241 151.993 20.6627 115.831 22.9446 96.7835C23.097 95.5114 24.4049 94.75 25.6246 95.142C41.9439 100.387 61.4374 97.5963 71.2017 94.9849C72.4099 94.6618 73.6468 95.484 73.7847 96.727C78.7217 141.224 66.2048 161.119 59.1804 166.231C59.0967 166.292 59.0159 166.34 58.9228 166.385C54.9943 168.294 45.5338 170.856 37.8281 166.402C37.7332 166.347 37.6432 166.283 37.5597 166.212Z" stroke="black" stroke-width="5" stroke-linecap="round"/>
<ellipse cx="48.4082" cy="94.04" rx="26.5" ry="5" fill="black"/>
<path d="M54.3991 77.04C58.6396 73.0985 64.5763 60.7906 54.3991 43.0916C44.2219 25.3926 55.3567 9.01598 62.1962 3.04004" stroke="black" stroke-width="5" stroke-linecap="round"/>
<path d="M41.6776 59.8752C35.7956 51.4834 26.5759 31.038 36.7532 16.3906" stroke="black" stroke-width="5" stroke-linecap="round"/>
<path d="M86.4082 167.041C98.0082 160.641 77.2415 161.873 65.9082 162.04L59.9082 168.041C72.4082 170.541 81.9082 169.041 86.4082 167.041Z" fill="black"/>
</svg>
