<svg width="430" height="300" viewBox="0 0 430 300" fill="none" xmlns="http://www.w3.org/2000/svg">
<path d="M53.2305 3.04004L137.23 72.04" stroke="black" stroke-width="5" stroke-linecap="round"/>
<path d="M79.7305 81.04L117.23 99.04" stroke="black" stroke-width="5" stroke-linecap="round"/>
<path d="M3.23047 131.54C44.2355 131.54 67.2254 131.54 108.23 131.54" stroke="black" stroke-width="5" stroke-linecap="round"/>
<path d="M76.2305 185.54L117.23 173.04" stroke="black" stroke-width="5" stroke-linecap="round"/>
<path d="M31.7305 260.04L137.23 202.04" stroke="black" stroke-width="5" stroke-linecap="round"/>
<path d="M269.23 135.04C269.23 158.171 264.041 178.988 255.777 193.934C247.464 208.968 236.383 217.54 224.73 217.54C213.078 217.54 201.997 208.968 193.684 193.934C185.42 178.988 180.23 158.171 180.23 135.04C180.23 111.909 185.42 91.0917 193.684 76.1457C201.997 61.1125 213.078 52.54 224.73 52.54C236.383 52.54 247.464 61.1125 255.777 76.1457C264.041 91.0917 269.23 111.909 269.23 135.04Z" stroke="black" stroke-width="5"/>
<ellipse cx="220.73" cy="135.04" rx="8" ry="15" fill="black"/>
<path d="M407.73 150.04C410.93 140.44 409.064 126.373 407.73 120.54L423.23 126.04C429.63 133.64 425.897 141.207 423.23 144.04L407.73 150.04Z" fill="black"/>
<path d="M423.23 126.04L233.5 54.04" stroke="black" stroke-width="5" stroke-linecap="round"/>
<path d="M238.23 213.54L423.23 144.04" stroke="black" stroke-width="5" stroke-linecap="round"/>
<path d="M220.23 147.04L266.23 163.54" stroke="black" stroke-width="5" stroke-linecap="round"/>
<path d="M220.23 123.04L266.23 108.54" stroke="black" stroke-width="5" stroke-linecap="round"/>
<path d="M342.231 272.54C330.73 275.54 321.73 271.04 320.23 268.54C319.79 271.734 317.868 282.122 319.73 289.04C320.687 292.592 323.516 294.862 326.23 295.54C328.969 296.225 332.908 295.526 335.231 292.54C339.693 286.801 341.682 275.829 342.231 272.54Z" fill="black"/>
<path d="M329.23 180.04L319.73 271.04C319.019 281.54 315.23 293.04 325.23 296.04C337.44 299.703 338.73 288.54 341.23 277.04L351.73 222.04L361.73 167.54" stroke="black" stroke-width="5" stroke-linecap="round"/>
<path d="M423.23 126.04C425.73 128.873 429.23 136.44 423.23 144.04" stroke="black" stroke-width="5" stroke-linecap="round"/>
<path d="M406.73 120.04C408.564 125.873 410.23 139.04 406.73 150.04" stroke="black" stroke-width="5" stroke-linecap="round"/>
</svg>
