<svg width="405" height="377" viewBox="0 0 405 377" fill="none" xmlns="http://www.w3.org/2000/svg">
<path d="M60.2208 279.04V248.759V212.891C60.2208 204.181 61.4536 196.58 50.968 195.982C40.4825 195.384 35.4893 207.255 17.5139 203.156C8.02709 200.992 0.0380957 191.371 0.0380859 180.098C0.0380691 160.627 21.1704 148.879 41.4809 161.652C60.2207 173.437 60.2208 151.404 60.2208 144.23V97.04C60.2208 95.9355 61.1162 95.04 62.2208 95.04H131.123C145.104 96.0648 136.616 111.949 132.621 121.685C124.632 141.156 135.451 152.087 143.107 154.991C170.07 161.652 176.561 132.957 167.573 121.685C155.284 106.271 158.585 96.5772 164.577 96.5772H230.832C231.994 96.5772 232.915 97.5583 232.874 98.7195C232.568 107.292 232.983 127.454 232.983 147.305C232.983 173.949 256.95 165.238 256.95 165.751C256.95 166.263 292.864 156.183 295.897 184.197C297.894 202.643 278.421 214.428 256.95 207.767C239.774 202.438 236.978 208.792 236.978 214.428V279.04C236.978 280.145 236.082 281.04 234.978 281.04H161.207C160.509 281.04 159.853 280.668 159.505 280.064C150.451 264.349 159.058 257.109 164.078 244.66C170.07 229.801 163.521 217.425 153.592 214.428C140.61 210.51 117.642 217.503 127.129 244.66C134.445 265.601 134.119 281.04 122.136 281.04H62.2208C61.1162 281.04 60.2208 280.145 60.2208 279.04Z" fill="black"/>
<path d="M231.804 99.04H289.304C296.304 99.04 309.071 92.6603 304.804 67.0535C300.304 40.0517 321.774 40.2765 330.804 43.5509C335.47 45.2194 343.404 52.2556 337.804 67.0535C330.804 85.5508 335.304 100.056 349.804 100.056H399.804C400.908 100.056 401.804 100.952 401.804 102.056V276.521C401.804 277.633 400.917 278.532 399.805 278.522C390.24 278.436 349.3 278.099 341.804 278.54C333.304 279.04 334.779 288.315 339.804 300.04C347.304 317.54 339.553 338.893 314.304 334.54C299.804 332.04 293.804 316.54 299.804 300.04C305.804 283.54 298.804 278.54 292.304 278.54C279.098 278.54 248.205 278.373 235.038 278.54" stroke="black" stroke-width="5" stroke-linecap="round"/>
<path d="M239.538 335.04C242.705 340.54 249.238 352.44 250.038 356.04" stroke="black" stroke-width="5" stroke-linecap="round"/>
<path d="M227.038 338.04C225.371 342.54 224.538 355.94 234.538 373.54" stroke="black" stroke-width="5" stroke-linecap="round"/>
<path d="M208.038 335.04C201.538 341.04 188.238 355.04 187.038 363.04" stroke="black" stroke-width="5" stroke-linecap="round"/>
<path d="M229.038 41.54C235.538 35.54 248.838 21.54 250.038 13.54" stroke="black" stroke-width="5" stroke-linecap="round"/>
<path d="M210.038 38.54C211.705 34.04 212.538 20.64 202.538 3.04004" stroke="black" stroke-width="5" stroke-linecap="round"/>
<path d="M197.538 41.54C194.371 36.04 187.838 24.14 187.038 20.54" stroke="black" stroke-width="5" stroke-linecap="round"/>
</svg>
