<svg width="310" height="132" viewBox="0 0 310 132" fill="none" xmlns="http://www.w3.org/2000/svg">
<path d="M3.30371 76.0131C29.8253 81.4526 17.3891 117.96 36.8275 127.675C60.0283 139.271 68.0173 73.9822 64.9984 46.2704C64.1332 34.1198 49.983 28.7153 48.0742 46.2704C46.0465 64.9179 69.1884 137.228 95.7102 109.325L113.419 88.8394C118.339 82.7774 128.039 74.3555 136.236 88.8394C144.433 103.323 157.495 98.5366 163.001 94.3327L180.304 81.7492" stroke="black" stroke-width="5" stroke-linecap="round"/>
<path d="M167.698 26.0654L306.132 2.61508C307.119 2.44787 307.712 3.67412 306.968 4.34411L242.431 62.465C242.358 62.5315 242.281 62.585 242.189 62.6229C236.576 64.9323 214.474 56.1714 203.064 51.0367C202.503 50.7843 201.848 51.0901 201.68 51.6821C198.946 61.3255 195.597 70.2753 193.959 74.2978C193.782 74.7326 193.299 74.9866 192.943 74.6807C189.63 71.8345 189.215 53.6574 189.458 43.6C189.47 43.0865 189.095 42.6503 188.589 42.5599C180.114 41.0455 168.449 33.4793 163.526 29.7616" stroke="black" stroke-width="5" stroke-linecap="round"/>
<path d="M202.526 51.04C217.042 44.1594 253.765 26.9265 284.526 13.04" stroke="black" stroke-width="5" stroke-linecap="round"/>
<path d="M193.526 75.04L220.526 59.04" stroke="black" stroke-width="5" stroke-linecap="round"/>
<path d="M199.526 37.04L236.526 25.04" stroke="black" stroke-width="5" stroke-linecap="round"/>
</svg>
