<svg width="281" height="185" viewBox="0 0 281 185" fill="none" xmlns="http://www.w3.org/2000/svg">
<path d="M0.00488281 152.073C0.00470191 137.073 25.5049 124.374 37.0049 125.041C28.5049 166.07 44.8383 167.541 54.5049 169.041H181.005C181.005 170.041 182.505 183.541 171.005 184.073H63.0051C41.6718 185.406 0.00517578 176.364 0.00488281 152.073Z" fill="black"/>
<path d="M277.005 62.04V24.04C277.005 12.9943 268.051 4.04004 257.005 4.04004H58.0049C46.9592 4.04004 38.0049 12.9943 38.0049 24.04V149.04C38.0049 160.086 46.9592 169.04 58.0049 169.04H177.505" stroke="black" stroke-width="7" stroke-linecap="round"/>
<path d="M66.0049 127.04H114.005" stroke="black" stroke-width="7" stroke-linecap="round"/>
<path d="M130.005 127.04H137.005" stroke="black" stroke-width="7" stroke-linecap="round"/>
<path d="M214.005 118.54H272.005C273.386 118.54 274.505 119.659 274.505 121.04V157.04C274.505 163.944 268.908 169.54 262.005 169.54H224.005C217.101 169.54 211.505 163.944 211.505 157.04V121.04C211.505 119.659 212.624 118.54 214.005 118.54Z" stroke="black" stroke-width="5"/>
<path d="M260.505 107.04V118.54H225.505V107.04C225.505 97.3751 233.34 89.54 243.005 89.54C252.67 89.54 260.505 97.3751 260.505 107.04Z" stroke="black" stroke-width="5"/>
<circle cx="243.005" cy="138.04" r="7" fill="black"/>
<rect x="240.005" y="141.04" width="6" height="12" rx="3" fill="black"/>
<rect x="41.0049" y="26.04" width="233" height="28" fill="black"/>
</svg>
