<svg width="413" height="346" viewBox="0 0 413 346" fill="none" xmlns="http://www.w3.org/2000/svg">
<g clip-path="url(#clip0_292_4446)">
<path d="M92.1484 151.551C85.0806 148.557 77.3079 146.9 69.1484 146.9C36.5636 146.9 10.1484 173.316 10.1484 205.9C10.1484 238.485 36.5636 264.9 69.1484 264.9C101.733 264.9 128.148 238.485 128.148 205.9C128.148 191.658 123.102 178.595 114.7 168.4" stroke="black" stroke-width="5" stroke-linecap="round"/>
<path d="M215.648 98.4004C224.148 126.567 259.248 188.5 331.648 210.9" stroke="black" stroke-width="5" stroke-linecap="round"/>
<path d="M331.648 218.4C333.815 248.567 336.848 313.1 331.648 329.9" stroke="black" stroke-width="5" stroke-linecap="round"/>
<path d="M334.648 336.9C347.815 344.734 374.848 349.7 377.648 306.9C380.448 264.1 375.482 210.067 372.648 188.4" stroke="black" stroke-width="5" stroke-linecap="round"/>
<path d="M381.148 199.9C394.648 184.4 434.648 128.9 388.148 47.9004" stroke="black" stroke-width="5" stroke-linecap="round"/>
<path d="M376.648 34.403C353.148 10.4005 340.648 1.31193 324.648 14.4032C318.648 19.3123 317.148 30.4025 326.148 44.4025" stroke="black" stroke-width="5" stroke-linecap="round"/>
<path d="M198.148 41.3991C196.148 28.3991 200.202 7.99158 217.648 3.39986C227.148 0.899468 240.148 12.0251 243.648 18.4004" stroke="black" stroke-width="5" stroke-linecap="round"/>
<path d="M261.148 75.9004C268.967 109.172 297.543 171.869 349.361 156.984C349.548 156.93 349.732 156.858 349.903 156.766C363.32 149.554 376.793 122.059 352.148 83.9004" stroke="black" stroke-width="5" stroke-linecap="round"/>
<path d="M264.148 84.4L324.148 47.9C333.692 40.6601 357.335 28.0272 376.412 34.6343C376.896 34.8021 377.322 35.1054 377.653 35.4967L386.725 46.2172C387.572 47.2184 387.673 48.6561 386.955 49.7541C374.584 68.685 365.608 73.2555 348.648 84.4" stroke="black" stroke-width="5" stroke-linecap="round"/>
<path d="M222.148 116.9L125.148 184.9" stroke="black" stroke-width="5" stroke-linecap="round"/>
<path d="M277.648 117.401C313.148 101.9 311.648 101.9 349.148 84.4014" stroke="black" stroke-width="5" stroke-linecap="round"/>
<path d="M128.648 195.901L234.148 139.901" stroke="black" stroke-width="5" stroke-linecap="round"/>
<path d="M289.951 95.4414L331.451 71.9414" stroke="black" stroke-width="5" stroke-linecap="round"/>
<path d="M214.148 89.4004C210.548 95.4004 204.148 99.4007 199.148 102.901L23.6479 239.401C17.1479 243.401 15.1481 240.4 14.1481 238.4C12.3452 234.795 17.148 230.938 18.1479 229.901C80.8146 164.901 182.348 60.3004 193.148 47.9004" stroke="black" stroke-width="5" stroke-linecap="round"/>
<path d="M243.648 18.4004C249.324 25.8499 255.793 36.735 260.849 47.1093C261.047 47.5154 261.148 47.9608 261.148 48.4126V76.9004" stroke="black" stroke-width="5" stroke-linecap="round"/>
<path d="M109.951 154.941L192.451 78.4414" stroke="black" stroke-width="5" stroke-linecap="round"/>
<path d="M190.148 151.4L216.648 132.9" stroke="black" stroke-width="5" stroke-linecap="round"/>
<path d="M214.148 89.9C217.982 79.9003 232.448 57.4008 259.648 47.4004" stroke="black" stroke-width="5" stroke-linecap="round"/>
<path d="M193.648 47.4008C205.482 39.7341 233.648 25.9008 251.648 31.9008" stroke="black" stroke-width="5" stroke-linecap="round"/>
<path d="M40.6484 308.9C63.016 308.9 81.1484 304.423 81.1484 298.9C81.1484 293.378 63.016 288.9 40.6484 288.9C18.2809 288.9 0.148438 293.378 0.148438 298.9C0.148438 304.423 18.2809 308.9 40.6484 308.9Z" fill="black"/>
<path d="M16.1484 179.902C25.8151 172.735 44.1484 163.4 66.6484 179.902" stroke="black" stroke-width="5" stroke-linecap="round"/>
<path d="M79.1484 196.902C86.4818 205.235 98.9484 229.502 90.1484 259.902" stroke="black" stroke-width="5" stroke-linecap="round"/>
</g>
<defs>
<clipPath id="clip0_292_4446">
<rect width="413" height="345" fill="white" transform="translate(0 0.0400391)"/>
</clipPath>
</defs>
</svg>
