<svg width="524" height="324" viewBox="0 0 524 324" fill="none" xmlns="http://www.w3.org/2000/svg">
<path d="M497.026 273.535L237.026 278.535V244.035L467.026 239.535L523.212 259.705C524.056 260.015 524.105 261.185 523.289 261.565L497.026 273.535Z" fill="black"/>
<path d="M164.106 244.585L199.526 291.535V244.585H164.106Z" fill="black"/>
<path d="M2.52637 312.885C17.8364 305.735 55.1064 291.875 81.7034 293.705C85.4734 293.855 91.1674 295.435 83.7814 300.555C76.3944 305.665 72.7003 308.315 71.7773 309.005C67.9303 312.195 64.1564 318.955 79.8564 320.415C99.4784 322.245 154.878 302.385 264.526 316.995" stroke="black" stroke-width="5" stroke-linecap="round"/>
<path d="M202.026 293.535V123.035H234.526V287.535" stroke="black" stroke-width="5" stroke-linecap="round"/>
<path d="M202.026 6.04004V19.54H234.526V6.04004C234.526 4.38304 233.183 3.04004 231.526 3.04004H205.026C203.369 3.04004 202.026 4.38304 202.026 6.04004Z" stroke="black" stroke-width="5" stroke-linecap="round"/>
<path d="M176.194 22.2842L181.371 119.7C181.457 121.327 182.826 122.587 184.454 122.54L386.825 116.66C387.596 116.637 388.329 116.319 388.871 115.77L429.55 74.624C430.662 73.4995 430.71 71.7054 429.66 70.523L384.922 20.1332C384.352 19.492 383.536 19.125 382.678 19.125H179.19C177.471 19.125 176.103 20.5672 176.194 22.2842Z" stroke="black" stroke-width="5" stroke-linecap="round"/>
<path d="M342.756 291.123V270.125" stroke="black" stroke-width="5" stroke-linecap="round"/>
<path d="M361.526 281.791L350.076 291.123" stroke="black" stroke-width="5" stroke-linecap="round"/>
<path d="M335.116 291.123L326.526 277.458" stroke="black" stroke-width="5" stroke-linecap="round"/>
<path d="M396.756 222.123V201.125" stroke="black" stroke-width="5" stroke-linecap="round"/>
<path d="M415.526 212.791L404.076 222.123" stroke="black" stroke-width="5" stroke-linecap="round"/>
<path d="M389.116 222.123L380.526 208.458" stroke="black" stroke-width="5" stroke-linecap="round"/>
<path d="M90.7559 239.123V218.125" stroke="black" stroke-width="5" stroke-linecap="round"/>
<path d="M109.526 229.791L98.0764 239.123" stroke="black" stroke-width="5" stroke-linecap="round"/>
<path d="M83.1162 239.123L74.5262 225.458" stroke="black" stroke-width="5" stroke-linecap="round"/>
</svg>
