<svg width="742" height="511" viewBox="0 0 742 511" fill="none" xmlns="http://www.w3.org/2000/svg">
<path d="M590.503 149.966C580.095 225.911 592.041 311.131 600.918 350.936C601.386 353.035 599.792 355.04 597.633 355.04H566.173C564.693 355.04 563.386 354.075 562.983 352.656C542.977 282.36 564.528 198.086 584.291 148.079C585.737 144.422 591.039 146.072 590.503 149.966Z" fill="black"/>
<path d="M721.924 182.04C744.7 221.416 668.086 308.708 590 270.642" stroke="black" stroke-width="5" stroke-linecap="round"/>
<path d="M685.702 57.04C732.274 63.5253 757.812 126.405 722.454 181.954C716.02 192.064 688.092 203.04 675 203.04" stroke="black" stroke-width="5" stroke-linecap="round"/>
<path d="M449 134.04C449 85.5485 461.985 33.9542 539.72 10.9034C621.591 -13.3748 666.08 23.3049 685.375 56.5603C694.546 72.366 690.998 87.5388 685.375 100.585" stroke="black" stroke-width="5" stroke-linecap="round"/>
<path d="M564 196.04C550.356 182.085 521.695 157.393 532.308 101.04" stroke="black" stroke-width="5" stroke-linecap="round"/>
<path d="M590 223.04C600.555 219.817 626.733 203.706 647 165.04" stroke="black" stroke-width="5" stroke-linecap="round"/>
<path d="M640.843 381.183C632.733 358.555 586.532 349.322 560.043 347.058C557.176 346.814 554.762 349.078 554.762 351.925V406.505C554.762 409.242 552.519 411.459 549.753 411.459H460C585.865 423.429 651.692 411.459 640.843 381.183Z" fill="black"/>
<path d="M486.429 432.293C510.651 418.106 450.146 418.011 415.061 416.04L299 476.623C359.554 485.98 462.208 446.477 486.429 432.293Z" fill="black"/>
<path d="M485.234 205.04L552.144 259.12C553.318 260.07 554 261.495 554 262.998V405.04C554 407.802 551.748 410.04 548.969 410.04H445" stroke="black" stroke-width="5" stroke-linecap="round"/>
<path d="M473.96 199.173L413.727 278.079C411.705 280.727 407.722 280.687 405.754 277.999L347.98 199.092C345.555 195.781 347.907 191.106 351.997 191.106H411.886C414.641 191.106 416.874 188.862 416.874 186.092V173.054C416.874 170.285 419.107 168.04 421.861 168.04H444.227C446.982 168.04 449.214 170.285 449.214 173.054V186.092C449.214 188.862 451.449 191.106 454.202 191.106H470.004C474.138 191.106 476.477 195.875 473.96 199.173Z" fill="black"/>
<path d="M520 290.574V343.04C520 345.802 517.779 348.04 515.038 348.04H447.634C444.894 348.04 442.673 345.802 442.673 343.04V330.135C442.673 329.102 442.355 328.095 441.763 327.252L434.91 317.472C434.318 316.627 434 315.62 434 314.587V290.862C434 289.712 434.415 288.564 435.149 287.682C472.073 243.414 505.919 268.525 519.18 287.855C519.729 288.655 520 289.6 520 290.574Z" stroke="black" stroke-width="5"/>
<path d="M474 181.04V157.608C474 156.115 473.323 154.701 472.158 153.755L385 83.04" stroke="black" stroke-width="5" stroke-linecap="round"/>
<path d="M388.819 88.6535L313.589 178.251C312.563 179.472 311.016 180.133 309.422 180.029L175.693 171.307C171.795 171.053 169.673 166.641 171.912 163.443L217.535 98.2643C218.344 97.1078 219.602 96.3468 221.002 96.1666L338.637 80.9937C341.137 80.6716 343.008 78.5456 343.008 76.0273V65.0465C343.008 62.2813 345.252 60.04 348.021 60.04H363.991C366.76 60.04 369.004 62.2813 369.004 65.0465V75.4232C369.004 78.1884 371.249 80.4296 374.016 80.4296H384.977C389.235 80.4296 391.554 85.3943 388.819 88.6535Z" fill="black"/>
<path d="M104 442.146L169.829 473.04L172 370.385C172 349.549 159.088 327.778 141.617 325.262C125.471 322.939 104 338.913 104 370.385V442.146Z" fill="black"/>
<path d="M231 508.04V329.04" stroke="black" stroke-width="5" stroke-linecap="round"/>
<path d="M410 342.656V414.723C410 416.617 408.934 418.348 407.248 419.198L230.873 508.04L54.7491 419.198C53.064 418.348 52 416.617 52 414.726V329.04" stroke="black" stroke-width="5" stroke-linecap="round"/>
<path d="M232.68 339.84L426.773 348.035C430.96 348.211 433.498 343.469 431.029 340.08L358.393 240.39C357.825 239.609 357.042 239.01 356.139 238.664L315.104 222.94C313.167 222.199 311.889 220.339 311.889 218.264V193.603C311.889 190.971 309.85 188.787 307.224 188.606L263.958 185.648C261.065 185.451 258.611 187.745 258.611 190.645V197.787C258.611 201.267 255.153 203.686 251.886 202.49L117.749 153.363C113.212 151.701 109.188 156.798 111.854 160.829L228.718 337.599C229.604 338.938 231.077 339.771 232.68 339.84Z" fill="black"/>
<path d="M111.186 155.04L3.87862 312.223C1.61289 315.542 3.99211 320.04 8.01304 320.04H43.222C44.8287 320.04 46.3369 319.27 47.2779 317.968L117 221.618" stroke="black" stroke-width="5" stroke-linecap="round"/>
</svg>
