<svg width="429" height="466" viewBox="0 0 429 466" fill="none" xmlns="http://www.w3.org/2000/svg">
<path d="M25.7883 356.585C30.0383 344.585 28.2428 333.941 25.7883 319.399C22.7201 301.22 17.6064 260.405 43.5155 234.338C64.2428 213.485 87.8337 202.784 97.0383 200.04" stroke="black" stroke-width="5" stroke-linecap="round"/>
<path d="M78.0381 356.085C79.5203 350.893 94.0921 328.316 92.2393 313.085C91.5727 308.752 92.0393 298.785 101.239 293.585" stroke="black" stroke-width="5" stroke-linecap="round"/>
<path d="M69.7393 254.084C76.7393 242.584 95.7393 227.584 110.739 225.084C125.739 222.584 127.066 232.782 125.132 237.111C122.23 243.605 115.916 250.783 103.288 264.454C90.7775 277.999 83.9475 303.077 83.1511 315.039" stroke="black" stroke-width="5" stroke-linecap="round"/>
<path d="M317.633 213.615C307.912 205.272 283.735 190.507 264.796 198.186C263.081 198.872 259.513 202.095 258.964 209.501" stroke="black" stroke-width="5" stroke-linecap="round"/>
<path d="M297.239 285.585C278.239 264.085 267.239 247.085 269.739 225.585C271.133 213.602 278.034 208.66 284.353 214.644C292.739 222.585 299.239 232.585 308.369 236.586C310.159 237.419 315.839 239.085 324.239 239.085" stroke="black" stroke-width="5" stroke-linecap="round"/>
<path d="M367.038 333.612C366.123 329.955 364.225 318.252 365.322 308.927C366.695 297.27 365.452 253.27 346.239 240.585" stroke="black" stroke-width="5" stroke-linecap="round"/>
<path d="M364.239 217.585L245.903 209.064C245.681 209.048 245.446 209.072 245.232 209.131C227.282 214.088 234.945 224.017 241.276 229.212C241.577 229.459 241.945 229.604 242.333 229.639L269.239 232.085" stroke="black" stroke-width="5" stroke-linecap="round"/>
<path d="M363.739 241.585L324.223 238.995" stroke="black" stroke-width="5" stroke-linecap="round"/>
<ellipse cx="363.538" cy="229.54" rx="10.5" ry="14.5" fill="black"/>
<path d="M350.25 239.201C343.046 229.157 348.502 221.155 352.649 217.978C352.995 217.713 353.425 217.596 353.86 217.616L365.745 218.168C366.847 218.22 367.7 219.153 367.65 220.255L366.795 239.461C366.743 240.612 365.732 241.482 364.586 241.361L351.617 239.985C351.073 239.927 350.569 239.646 350.25 239.201Z" fill="black"/>
<path d="M227.03 215.349L232.802 213.517C234.183 213.079 235.557 214.208 235.395 215.647L234.845 220.531C234.683 221.968 233.097 222.764 231.848 222.034L226.625 218.982C225.129 218.107 225.378 215.873 227.03 215.349Z" fill="black"/>
<path d="M100.826 227.085L96.0381 95.0219C96.0376 75.5309 99.6637 42.4996 140.161 43.0468C180.658 43.5939 202.639 43.2747 208.568 43.0468" stroke="black" stroke-width="5" stroke-linecap="round"/>
<path d="M255.085 43.0469H323.15C341.962 43.3888 358.038 51.5954 358.038 83.0541C358.038 114.513 357.107 180.277 355.739 214.585" stroke="black" stroke-width="5" stroke-linecap="round"/>
<path d="M298.739 377.585C270.692 379.636 195.685 385.102 150.422 387.04C131.268 387.04 105.889 384.578 102.879 350.11L100.827 267.702" stroke="black" stroke-width="5" stroke-linecap="round"/>
<circle cx="231.538" cy="27.54" r="13" stroke="black" stroke-width="5"/>
<path d="M210.33 36.0032C212.784 43.1013 209.308 48.2882 201.47 49.9946C197.721 50.8107 192.472 50.8818 182.385 54.4308C169.775 58.867 167.389 71.4935 167.049 82.4136C166.776 91.1497 171.82 94.0163 180.681 94.3575C206.468 94.2438 261.7 95.04 276.446 95.04C291.782 95.04 294.012 89.2387 294.508 85.4849C296.962 66.9207 290.419 59.4785 284.625 56.8196C281.899 55.5683 273.924 52.4515 263.836 49.9946C253.748 47.5376 251.932 44.1932 252.93 39.4156C255.384 27.6765 253.953 18.1442 252.93 14.8454C251.794 10.2953 245.16 1.60474 227.711 3.24276C205.9 5.29029 207.263 27.1306 210.33 36.0032Z" stroke="black" stroke-width="5" stroke-linecap="round"/>
<path d="M329.739 212.085L331.038 85.5851C331.038 82.8542 329.491 78.0752 323.185 78.0752C316.698 78.0752 302.131 78.3028 295.53 78.0752" stroke="black" stroke-width="5" stroke-linecap="round"/>
<path d="M165.447 78.0755H134.036C130.622 77.7341 124.067 79.714 125.159 90.3644C126.252 101.015 131.533 266.164 134.036 347.407C133.923 351.504 135.744 359.56 143.938 359.014C150.172 358.598 247.179 353.135 305.239 350.585" stroke="black" stroke-width="5" stroke-linecap="round"/>
<path d="M339.239 213.585L341.038 87.9331C341.038 84.1707 339.399 78.6981 330.112 80.0663" stroke="black" stroke-width="5" stroke-linecap="round"/>
<path d="M127.975 79.04C124.561 79.04 116.708 79.04 117.049 87.9327C117.376 96.4792 120.463 183.997 121.488 224.585" stroke="black" stroke-width="5" stroke-linecap="round"/>
<path d="M121.488 244.243L124.561 350.958C124.902 354.721 126.268 360.193 142.658 358.825" stroke="black" stroke-width="5" stroke-linecap="round"/>
<path d="M161.038 137.04H225.038" stroke="black" stroke-width="5" stroke-linecap="round"/>
<path d="M161.467 159.745L299.639 159.061" stroke="black" stroke-width="5" stroke-linecap="round"/>
<path d="M161.809 182.66L270.226 181.634" stroke="black" stroke-width="5" stroke-linecap="round"/>
<path d="M162.85 218.249L216.188 215.834" stroke="black" stroke-width="5" stroke-linecap="round"/>
<path d="M343.24 216.085C340.74 220.752 335.239 227.085 341.239 239.085" stroke="black" stroke-width="5" stroke-linecap="round"/>
<path d="M263.739 271.682C260.406 275.649 258.539 286.985 277.739 300.585C287.239 306.751 306.939 325.485 309.739 351.085" stroke="black" stroke-width="5" stroke-linecap="round"/>
<path d="M258.739 231.585C256.952 234.935 256.168 241.382 261.739 247.558C264.484 250.6 268.77 253.577 275.239 256.085" stroke="black" stroke-width="5" stroke-linecap="round"/>
<path d="M261.739 247.558C258.165 252.728 254.906 263.33 263.739 271.682C266.027 273.845 273.625 277.857 277.739 279.585" stroke="black" stroke-width="5" stroke-linecap="round"/>
<path d="M331.173 438.592C320.507 413.759 305.573 359.992 331.173 343.593C363.173 323.093 404.673 369.592 419.173 409.592" stroke="black" stroke-width="5" stroke-linecap="round"/>
<path d="M5.03809 419.085C7.53809 395.752 24.9381 348.128 54.5381 354.128C84.1381 360.128 92.2048 413.628 92.5381 439.628" stroke="black" stroke-width="5" stroke-linecap="round"/>
</svg>
