<svg width="585" height="631" viewBox="0 0 585 631" fill="none" xmlns="http://www.w3.org/2000/svg">
<path fill-rule="evenodd" clip-rule="evenodd" d="M269.644 13.1543L273.452 14.4828C275.749 15.2843 276.993 17.7664 276.261 20.0865L269.805 40.5325C274.73 42.0102 278.669 43.7958 281.45 45.4475L286.254 37.2892L280.629 34.4117C280.051 34.1159 279.637 33.6258 279.426 33.0618C279.317 33.2174 279.21 33.3764 279.105 33.5391C278.358 34.7001 276.811 35.0355 275.65 34.2882C274.489 33.5409 274.153 31.9939 274.9 30.8329C277.902 26.1704 282.339 23.7483 286.718 22.6306C290.932 21.5549 295.198 21.6527 298.424 22.1379L300.347 9.15693C293.702 5.01721 287.184 4.90244 281.615 6.47146C276.564 7.89489 272.32 10.7064 269.644 13.1543ZM282.648 29.8457C284.252 28.7178 286.062 27.9582 287.954 27.4753C291.474 26.5769 295.158 26.6749 297.929 27.121C300.336 27.5084 302.912 25.963 303.312 23.264L305.345 9.53915C305.593 7.86547 304.877 6.12074 303.372 5.15458C295.229 -0.0763965 287.071 -0.260416 280.259 1.65887C273.532 3.55451 268.088 7.49855 265.037 10.6636C264.83 10.8784 264.669 11.1207 264.554 11.3782L249.453 6.10944C247.488 5.42381 245.309 6.17519 244.184 7.92634L239.845 14.6819L212.765 10.1201C211.217 9.85935 209.645 10.4239 208.617 11.6098L192.874 29.7684L187.496 30.1636L182.149 25.3843C180.446 23.8625 177.874 23.8573 176.165 25.3722L174.636 26.7281L172.141 19.8671C171.498 18.0972 169.774 16.8336 167.764 16.9395C161.601 17.2639 149.426 19.2469 141.095 25.6709C140.002 26.514 139.799 28.0838 140.642 29.1772C141.485 30.2706 143.055 30.4736 144.148 29.6305C151.09 24.2777 161.656 22.3365 167.581 21.9585L170.612 30.295L163.777 36.3549L155.975 28.8599C154.831 27.7608 153.193 27.3453 151.663 27.7664L121.137 36.1696C117.976 37.04 116.777 40.8911 118.886 43.4023L119.093 43.6489C116.623 42.8603 113.695 42.1122 110.685 41.6638C105.993 40.9648 100.58 40.9122 96.449 43.113C95.1957 43.7808 94.4124 45.0179 94.2716 46.3627C93.7874 50.9851 94.6196 60.298 101.339 68.0531C101.369 68.0872 101.399 68.1204 101.43 68.1526L92.7811 71.4721C91.8835 71.8167 91.1198 72.4396 90.602 73.2497L79.6973 90.3091C78.3126 92.4753 79.021 95.3593 81.2518 96.6373L88.4794 100.778C87.9538 100.806 87.4328 101 87.0001 101.366C81.1479 106.319 76.4513 114.632 73.9787 119.909C72.4615 123.147 75.155 126.377 78.3303 126.191C79.0314 126.149 79.7231 126.115 80.4053 126.088C80.3101 126.162 80.2191 126.245 80.1332 126.335L69.3034 137.709C67.2088 139.908 67.8505 143.509 70.5761 144.85L85.5668 152.223C87.6517 153.249 90.0205 152.502 91.2712 150.774C91.7801 151.296 92.5118 151.592 93.2943 151.52L118.801 149.146C121.114 148.931 122.884 146.99 122.884 144.666V135.367C122.884 134.96 122.786 134.576 122.614 134.236C122.947 134.045 123.265 133.804 123.56 133.512L131.758 125.369C134.949 129.624 138.405 131.906 140.622 132.771C141.43 133.087 142.255 133.107 142.982 132.951C144.675 132.588 147.136 131.85 149.615 130.678C152.069 129.518 154.737 127.84 156.634 125.505C157.58 124.34 158.784 123.498 160.037 122.904C159.631 123.808 159.789 124.908 160.519 125.665L167.005 132.384C167.182 132.567 167.368 132.729 167.56 132.872C166.77 132.822 165.968 133.148 165.44 133.817L144.91 159.786L117.648 151.097C116.333 150.678 114.927 151.404 114.507 152.72C114.088 154.035 114.814 155.441 116.13 155.861L143.721 164.655C145.506 165.224 147.456 164.628 148.618 163.159L159.255 149.703C159.045 150.56 159.295 151.502 159.99 152.141C163.21 155.104 168.704 157.997 174.194 160.601C176.893 161.881 179.549 163.074 182.071 164.206C184.935 165.492 187.626 166.7 190.008 167.87C192.676 169.18 195.546 167.635 196.594 165.42C198.179 162.068 201.716 158.046 205.818 154.216C209.859 150.444 214.204 147.081 217.121 145.043C217.735 144.614 218.097 143.959 218.174 143.269H239.527C239.083 143.785 238.85 144.48 238.941 145.21C239.127 146.694 239.914 148.917 241.664 150.829C241.719 150.889 241.792 150.999 241.85 151.156C241.901 151.293 241.925 151.427 241.929 151.534C241.779 151.605 241.627 151.676 241.474 151.748C238.494 153.148 234.814 154.878 231.391 156.955C227.719 159.185 224.058 161.979 221.837 165.487C221.098 166.653 221.445 168.198 222.612 168.936C223.778 169.675 225.323 169.328 226.061 168.162C227.658 165.64 230.521 163.333 233.986 161.229C237.17 159.297 240.619 157.675 243.633 156.258C243.867 156.148 244.098 156.039 244.327 155.932C246.262 155.02 246.91 153.132 246.929 151.644C246.948 150.173 246.404 148.602 245.353 147.454C244.357 146.366 243.97 145.129 243.903 144.59C243.839 144.082 243.628 143.629 243.317 143.269H245.869C246.654 143.269 247.355 142.907 247.813 142.342C247.962 142.891 248.123 143.434 248.295 143.97C249.038 146.289 251.456 147.445 253.656 146.848C259.363 145.3 267.195 143.013 274.501 140.553C274.833 143.976 276.104 148.4 279.331 152.317C276.31 153.645 272.545 155.39 269.093 157.479C265.564 159.615 262.034 162.302 260.092 165.538C259.382 166.722 259.766 168.258 260.95 168.968C262.134 169.678 263.67 169.294 264.38 168.11C265.669 165.962 268.314 163.796 271.682 161.756C274.983 159.758 278.668 158.063 281.71 156.734C284.875 155.351 285.134 151.447 283.3 149.27C280.268 145.669 279.443 141.449 279.406 138.843C280.59 138.414 281.744 137.982 282.853 137.552L297.821 156.772C299.458 158.875 302.492 159.075 304.425 157.365C308.188 154.036 314.02 149.554 320.28 146.11C320.364 147.899 320.632 150.294 321.2 152.814C321.903 155.931 323.115 159.461 325.184 162.27C326.003 163.382 327.568 163.619 328.68 162.8C329.791 161.981 330.029 160.416 329.21 159.304C327.721 157.284 326.709 154.511 326.078 151.713C325.452 148.941 325.249 146.362 325.249 144.9C325.249 144.495 325.153 144.113 324.983 143.775C325.436 143.576 325.889 143.385 326.341 143.203C326.564 144.235 327.429 145.052 328.537 145.163C332.424 145.552 335.85 148.121 338.391 151.047C339.8 152.67 341.976 152.92 343.494 152.748C345.034 152.573 346.988 151.849 348.08 150.186C350.438 146.593 354.435 143.869 357.883 142.203C359.443 141.449 360.301 140.001 360.566 138.615C360.83 137.234 360.569 135.626 359.541 134.355C355.362 129.189 355.133 121.781 355.713 118.302C355.94 116.94 355.02 115.652 353.658 115.425C353.571 115.411 353.484 115.401 353.397 115.395L356.05 111.376C357.205 109.625 356.982 107.356 355.63 105.844C354.671 104.77 353.5 103.391 352.449 102.012C351.37 100.595 350.529 99.3211 350.123 98.4274C348.448 94.7427 344.333 87.747 335.139 87.747C332.45 87.747 330.634 87.1753 329.492 86.5721C329.421 86.5349 329.353 86.4975 329.288 86.4601C331.483 84.5483 333.387 82.8689 334.773 81.6352C336.213 80.3547 336.713 78.2475 335.85 76.4267C334.232 73.0127 331.607 68.4904 328.405 65.0185C326.502 62.9543 324.083 60.9365 321.338 60.039C323.636 59.0996 326.339 58.3429 329.512 57.8675C332.77 57.3792 334.919 53.3271 332.333 50.4223C328.203 45.7832 322.176 40.0267 315.51 35.7198C309.533 31.8578 302.639 28.9008 295.987 29.4568C295.868 28.7557 295.452 28.1099 294.791 27.7207C293.601 27.02 292.069 27.4165 291.368 28.6062L288.796 32.9732L282.906 29.9603C282.821 29.9168 282.735 29.8787 282.648 29.8457ZM293.669 34.5528L283.249 52.2449L295.545 59.9616C297.78 61.3642 298.335 64.3801 296.744 66.4856L295.876 67.6344C297.609 67.9525 299.535 68.375 301.337 68.8963C301.333 68.895 301.331 68.8942 301.331 68.8937C301.332 68.8886 301.547 68.9135 302.051 68.8104C302.591 68.7003 303.245 68.4884 303.91 68.1984C304.575 67.9085 305.18 67.5716 305.636 67.2479C306.078 66.9341 306.215 66.7497 306.219 66.7525C306.22 66.753 306.217 66.7588 306.211 66.7703C309.269 61.0009 315.843 55.0752 327.971 53.0494C324.07 48.7666 318.65 43.7015 312.797 39.9194C306.532 35.8717 300.255 33.6058 294.954 34.6398C294.509 34.7266 294.069 34.6896 293.669 34.5528ZM290.135 75.234L280.091 88.5305C280.492 88.9551 280.747 89.5214 280.772 90.1509C280.844 92.0347 280.296 94.7385 278.531 97.1891C276.711 99.7161 273.7 101.83 269.141 102.565C267.729 102.793 265.872 103.545 263.671 104.801C261.505 106.037 259.162 107.669 256.808 109.497C254.868 111.002 252.947 112.621 251.14 114.225C251.689 114.78 251.971 115.583 251.827 116.411C250.975 121.334 250.157 132.81 252.88 141.877C259.364 140.107 268.37 137.444 276.17 134.69C278.51 133.864 280.73 133.033 282.734 132.22C285.013 131.295 286.977 130.407 288.506 129.587C290.107 128.728 290.983 128.072 291.324 127.682C291.664 127.294 291.978 126.939 292.268 126.612C294.323 124.286 295.162 123.336 295.589 121.683C296.084 119.77 296.002 116.826 295.048 110.289C293.612 110.779 292.055 111.26 290.373 111.722C287.099 112.623 284.776 113.805 283.152 114.991C282.251 115.649 281.103 115.956 280.164 116.111C279.152 116.278 278.038 116.323 276.971 116.251C275.915 116.18 274.789 115.989 273.79 115.614C272.884 115.273 271.593 114.598 270.943 113.238L267.758 106.577C267.163 105.332 267.689 103.839 268.935 103.243C270.181 102.648 271.673 103.175 272.269 104.42L275.341 110.844C275.389 110.868 275.456 110.898 275.548 110.933C275.956 111.086 276.57 111.213 277.305 111.262C278.027 111.311 278.753 111.276 279.349 111.178C279.88 111.09 280.132 110.981 280.194 110.954C280.21 110.947 280.213 110.946 280.204 110.952C282.386 109.359 285.278 107.938 289.047 106.901C295.237 105.199 299.491 103.267 302.063 101.791C298.936 99.0108 296.478 94.461 294.615 89.9258C292.528 84.8425 291.014 79.336 290.135 75.234ZM275.239 110.785C275.24 110.785 275.244 110.788 275.251 110.794C275.243 110.788 275.239 110.785 275.239 110.785ZM299.83 108.46C300.241 111.171 300.545 113.459 300.718 115.427C301.025 115.374 301.347 115.377 301.671 115.447C303.658 115.873 306.112 116.96 308.667 118.308C310.73 119.397 312.979 120.722 315.284 122.166C318.39 118.695 323.286 113.843 327.61 111.376C327.609 111.376 327.617 111.372 327.63 111.361C327.64 111.354 327.652 111.343 327.668 111.329C327.705 111.294 327.752 111.243 327.802 111.174C327.905 111.032 327.993 110.854 328.046 110.673C328.085 110.542 328.096 110.443 328.097 110.381L316.748 97.0972C314.686 98.6275 312.495 99.3824 310.29 99.4977C308.914 99.5697 307.586 99.3905 306.33 99.044C306.895 99.8067 307.258 100.719 307.334 101.671C307.449 103.104 306.888 104.715 305.333 105.666C303.948 106.513 302.123 107.474 299.83 108.46ZM299.126 87.7463C300.601 89.722 303.085 92.1947 305.871 93.5408C307.292 94.2278 308.694 94.5744 310.029 94.5046C311.327 94.4366 312.717 93.9691 314.166 92.7696C317.475 90.0307 320.913 87.0992 323.973 84.4522C326.837 81.9747 329.366 79.7506 331.142 78.1732C329.638 75.078 327.353 71.2521 324.73 68.4082C321.846 65.281 319.343 64.1532 317.378 64.6951C316.423 64.9588 315.444 64.6305 314.832 63.9319C312.868 65.6161 311.522 67.4265 310.628 69.1122C310.12 70.0708 309.256 70.8101 308.53 71.3253C307.744 71.8836 306.827 72.3814 305.908 72.7818C304.99 73.1819 304 73.5157 303.052 73.7093C302.179 73.8875 301.033 74.0139 299.968 73.7053C298.244 73.2053 296.356 72.7986 294.681 72.4992C294.691 72.5398 294.7 72.5809 294.708 72.6224C295.443 76.4939 296.956 82.3867 299.126 87.7463ZM320.601 93.9093L331.997 107.249C333.311 108.786 333.238 110.743 332.843 112.085C332.44 113.455 331.514 114.905 330.088 115.719C329.935 115.806 329.781 115.897 329.626 115.992C331.149 116.273 332.816 116.63 334.489 117.064C337.642 117.882 341.041 119.027 343.518 120.573C343.554 120.595 343.617 120.625 343.705 120.644C343.791 120.663 343.872 120.665 343.934 120.658L351.678 108.923C350.702 107.821 349.54 106.444 348.472 105.042C347.35 103.57 346.221 101.927 345.571 100.496C344.068 97.1903 341.194 92.747 335.139 92.747C330.596 92.747 327.366 91.4317 325.381 89.8398C323.836 91.168 322.223 92.5424 320.601 93.9093ZM324.38 120.069C322.628 121.66 320.942 123.381 319.537 124.918C323.868 127.8 328.19 130.9 331.718 133.53C333.4 134.784 333.766 136.763 333.391 138.329C333.18 139.212 332.709 140.087 331.998 140.776C336.294 142.056 339.734 144.981 342.119 147.714C342.138 147.722 342.168 147.733 342.211 147.745C342.373 147.789 342.625 147.814 342.93 147.78C343.232 147.745 343.504 147.661 343.702 147.561C343.843 147.49 343.9 147.435 343.911 147.425C346.952 142.803 351.806 139.597 355.638 137.735C355.644 137.719 355.651 137.699 355.655 137.675C355.667 137.616 355.664 137.559 355.655 137.52C355.652 137.505 355.649 137.496 355.647 137.492C351.049 131.801 350.247 124.417 350.534 119.735L348.022 123.542C347.138 124.881 345.745 125.484 344.504 125.626C343.274 125.766 341.96 125.494 340.871 124.815C339.055 123.682 336.255 122.688 333.234 121.904C330.263 121.134 327.297 120.622 325.298 120.372C324.965 120.33 324.656 120.225 324.38 120.069ZM300.83 120.383C300.763 121.314 300.631 122.156 300.43 122.935C299.681 125.832 297.958 127.758 295.992 129.957C295.694 130.289 295.391 130.628 295.085 130.978C294.11 132.09 292.543 133.095 290.869 133.993C289.905 134.51 288.819 135.036 287.643 135.564L301.463 153.311C307.334 148.178 318.041 140.28 328.3 137.219C324.242 134.206 319.221 130.637 314.406 127.533C311.534 125.681 308.764 124.013 306.333 122.73C303.981 121.489 302.109 120.696 300.83 120.383ZM246.481 118.557C245.728 119.29 245.026 119.99 244.388 120.642C242.926 122.132 240.314 122.615 238.424 120.927C235.4 118.225 231.182 112.625 231.946 105.242C232.088 103.868 233.317 102.87 234.69 103.012C236.063 103.154 237.062 104.383 236.92 105.756C236.425 110.537 238.946 114.455 241.239 116.713C244.443 113.477 249.019 109.214 253.741 105.547C256.208 103.632 258.753 101.85 261.193 100.458C263.597 99.0862 266.064 97.997 268.345 97.6291C271.664 97.0937 273.471 95.6591 274.474 94.2672C274.573 94.1294 274.665 93.9906 274.751 93.8515C273.942 94.0371 273.079 94.0001 272.256 93.7117L249.172 85.6157C248.52 85.387 248.023 84.9155 247.745 84.3382C246.127 87.7734 245.012 90.857 244.331 93.3251C243.687 95.6607 241.27 97.24 238.757 96.5815L236.35 95.9504C236.383 95.9897 236.415 96.0303 236.445 96.072C237.264 97.1835 237.027 98.7486 235.916 99.5677C233.595 101.278 230.321 103.89 227.187 106.754C224.021 109.648 221.144 112.668 219.49 115.201C218.566 116.617 217.007 117.431 215.592 117.71C214.2 117.983 212.224 117.856 210.823 116.367L209.612 115.081V130.265C209.612 130.279 209.612 130.293 209.612 130.307V138.269H245.869C246.259 138.269 246.627 138.358 246.956 138.517C245.64 131.225 245.918 123.561 246.481 118.557ZM204.612 128.221V112.172C204.612 111.516 204.864 110.92 205.277 110.474L202.086 107.083L202.65 110.3C202.989 112.231 202.041 114.144 200.328 115.059C196.056 117.341 190.247 120.66 185.072 124.059C186.312 125.507 187.802 127.169 189.346 128.757C191.528 131 193.643 132.912 195.24 133.941C196.53 132.8 198.252 131.444 200.125 130.302C201.464 129.484 203.01 128.695 204.612 128.221ZM180.929 126.906C182.295 128.517 183.991 130.422 185.762 132.242C188.198 134.748 190.992 137.323 193.336 138.629C195.188 139.66 197.134 138.972 198.252 137.956C199.403 136.909 201.018 135.614 202.73 134.57C203.386 134.17 204.017 133.83 204.612 133.558V138.769C204.612 141.254 206.627 143.269 209.112 143.269H211.079C208.435 145.281 205.349 147.814 202.406 150.562C198.23 154.46 194.089 159.022 192.074 163.282C192.073 163.284 192.069 163.293 192.056 163.306C189.741 162.174 186.903 160.897 183.964 159.575C181.406 158.424 178.771 157.238 176.337 156.083C170.768 153.442 165.957 150.837 163.376 148.462C162.583 147.732 161.446 147.612 160.54 148.077L169.362 136.918C170.142 135.931 170.059 134.54 169.221 133.652C169.923 133.83 170.627 133.85 171.246 133.779C172.561 133.628 173.95 133.025 174.935 131.953C176.277 130.492 178.372 128.759 180.929 126.906ZM200.703 99.1997C201.278 99.2602 201.834 99.519 202.261 99.9727L214.356 112.826C214.414 112.83 214.506 112.827 214.628 112.804C214.805 112.769 214.981 112.699 215.12 112.614C215.264 112.527 215.308 112.461 215.303 112.468C217.312 109.391 220.57 106.028 223.814 103.063C227.092 100.067 230.505 97.3445 232.95 95.5427C233.138 95.4038 233.34 95.2952 233.549 95.2161L203.619 87.3709L199.468 92.8802C199.59 93.1083 199.679 93.3594 199.726 93.6281L200.703 99.1997ZM195.436 98.1129C193.908 99.5269 191.557 99.7261 189.795 98.4879L167.87 83.0777C166.74 82.2837 166.468 80.7244 167.262 79.5948C168.056 78.4651 169.615 78.193 170.745 78.987L192.275 94.1191L205.266 76.8764L199.378 79.0942C197.695 79.7285 195.795 79.2989 194.548 78.0018L179.577 62.4291C179.11 61.9435 178.879 61.3181 178.879 60.6938L167.283 68.564C167.634 69.1121 167.771 69.7955 167.612 70.4791L163.543 87.9224C163.216 89.3233 162.257 90.4373 161.016 90.9998C162.896 94.0911 164.926 97.8979 166.512 101.825C167.658 104.664 168.6 107.634 169.065 110.486C169.527 113.316 169.55 116.209 168.678 118.785C167.997 120.8 166.106 121.579 164.713 121.68C164.377 121.704 164.016 121.745 163.639 121.805C163.81 121.911 163.971 122.04 164.117 122.192L170.511 128.816C170.548 128.819 170.602 128.82 170.674 128.812C170.801 128.797 170.936 128.759 171.055 128.702C171.176 128.644 171.236 128.588 171.253 128.571C173.305 126.336 176.492 123.86 179.961 121.47C185.728 117.497 192.679 113.488 197.664 110.814L195.436 98.1129ZM155.235 91.2206L116.346 89.3932C113.094 89.2404 111.092 85.8087 112.501 82.9064C114.075 79.6657 116.016 75.5266 117.64 71.7461C118.49 69.7677 119.218 67.966 119.764 66.4717L94.7262 76.0812L84.1928 92.5598L112.948 109.034L119.15 102.605C119.161 102.594 119.171 102.583 119.182 102.572L129.068 92.3242C130.027 91.3306 131.609 91.3021 132.603 92.2608C133.597 93.2194 133.625 94.8021 132.667 95.7957L124.345 104.421C126.61 107.18 129.979 111.795 133.103 118.044C133.483 118.803 133.875 119.511 134.276 120.172C137.212 125.015 140.559 127.28 142.185 128.006C143.545 127.695 145.511 127.088 147.478 126.158C149.595 125.157 151.518 123.873 152.753 122.352C156.068 118.272 161.036 116.986 164.082 116.715C164.462 115.27 164.482 113.446 164.131 111.291C163.744 108.92 162.936 106.322 161.876 103.697C159.969 98.9737 157.336 94.3815 155.235 91.2206ZM120.848 108.046L116.276 112.786C114.844 114.27 112.588 114.591 110.8 113.566L90.8381 102.13C91.3606 103.142 91.1366 104.416 90.2302 105.183C85.5132 109.175 81.3944 116.076 78.9266 121.15C100.78 120.034 114.373 125.461 120.241 129.761L129.022 121.039C128.89 120.791 128.76 120.538 128.631 120.28C125.871 114.758 122.914 110.617 120.848 108.046ZM121.281 61.2227C121.978 59.2119 123.137 57.3497 124.286 55.824C125.124 54.7121 126.013 53.7062 126.833 52.8658L123.711 49.148C123.016 49.8197 121.963 50.0541 121.013 49.66C118.467 48.6026 114.276 47.2539 109.949 46.6093C105.736 45.9818 101.862 46.0946 99.205 47.3245C98.9202 51.1505 99.7634 58.5991 105.118 64.7788C105.549 65.2758 105.749 65.8943 105.727 66.5035L119.488 61.2222C120.089 60.9915 120.724 61.0084 121.281 61.2227ZM130.104 56.6787C129.511 57.3059 128.88 58.0364 128.28 58.8327C126.967 60.5748 125.986 62.3976 125.705 63.9906C125.315 66.1974 123.853 69.9516 122.234 73.7199C120.678 77.3416 118.85 81.2582 117.317 84.4333L158.768 86.3811L162.104 72.0789L161.18 72.7064C159.494 73.8504 157.251 73.7194 155.71 72.3871L138.832 57.7947H133.07C131.971 57.7947 130.919 57.393 130.104 56.6787ZM182.301 58.3718C182.624 58.4995 182.925 58.6971 183.182 58.9639L197.924 74.2991L217.412 66.9581L211.914 60.8699L209.495 61.3236C207.736 61.6534 205.95 60.9102 204.944 59.4308L200.279 52.5696C199.503 51.4278 199.799 49.8729 200.941 49.0966C202.083 48.3203 203.638 48.6166 204.414 49.7584L208.895 56.3489L211.268 55.9039C212.808 55.6151 214.387 56.1481 215.437 57.3109L221.614 64.1514C222.091 64.6793 222.415 65.2777 222.597 65.9011C222.76 65.7965 222.938 65.7093 223.129 65.643L243.531 58.5577L237.257 42.8374C233.469 43.2611 229.498 43.9512 225.366 44.967C224.833 45.7309 223.893 46.1652 222.912 46.0056C221.549 45.7838 220.624 44.4992 220.846 43.1364L222.561 32.6004L192.679 34.7962L195.753 37.5434C196.782 38.4635 196.871 40.0439 195.951 41.0733C195.031 42.1028 193.45 42.1914 192.421 41.2713L179.149 29.4089L167.394 39.8301L179.299 51.2677C180.043 51.9822 180.249 53.0462 179.907 53.9538L192.32 45.5284C192.858 45.1638 193.467 44.9198 194.108 44.8131L210.831 42.0253C212.193 41.7983 213.481 42.7183 213.708 44.0802C213.935 45.4422 213.015 46.7303 211.653 46.9573L195.038 49.727L182.301 58.3718ZM177.525 55.5702C176.916 55.56 176.309 55.3286 175.835 54.8733L152.716 32.6625L123.216 40.7835L133.303 52.7947H139.018C140.099 52.7947 141.143 53.1837 141.961 53.8906L158.69 68.3538L177.525 55.5702ZM226.493 39.5698C230.713 38.6363 234.775 38.0223 238.655 37.6706C248.783 36.7524 257.684 37.6216 264.963 39.2639L271.347 19.0438L248.178 10.9602L243.92 17.5901C243.915 17.692 243.905 17.7948 243.887 17.898C243.751 18.7086 243.238 19.362 242.559 19.7096L233.677 33.5371C232.931 34.6988 231.384 35.0357 230.223 34.2895C229.061 33.5433 228.724 31.9967 229.47 30.835L236.906 19.2573L212.211 15.0972L199.942 29.249L222.827 27.5674C225.727 27.3542 228.065 29.9074 227.598 32.7782L226.493 39.5698ZM242.47 42.4106L248.369 57.1903C249.32 59.5731 248.089 62.2676 245.665 63.1093L224.769 70.3663C223.768 70.7141 222.695 70.3879 222.046 69.6271C221.55 70.3928 220.811 71.0207 219.861 71.3785L214.007 73.5837L206.871 83.0545L239.612 91.6365C242.67 80.9028 252.73 60.7489 274.19 47.4042C267.258 44.4729 256.285 41.6966 242.47 42.4106ZM278.415 50.6849C278.37 50.7158 278.323 50.7455 278.275 50.7738C263.949 59.2478 254.824 70.9829 249.532 80.8001C249.951 80.7202 250.396 80.7462 250.827 80.8974L273.566 88.8726L292.426 63.9068L280.18 56.2216C278.296 55.0391 277.583 52.6834 278.415 50.6849ZM118.116 134.314C117.855 134.185 117.608 134.034 117.377 133.862C115.622 132.557 112.761 130.982 108.741 129.586C108.547 130.095 108.187 130.544 107.683 130.843C104.752 132.587 98.2395 137.975 93.4945 146.479L117.884 144.21V135.367C117.884 134.991 117.967 134.634 118.116 134.314ZM103.035 127.95C97.7968 126.73 91.2644 125.913 83.3762 126.01C83.4777 126.081 83.5752 126.16 83.6677 126.248C84.6676 127.201 84.7063 128.783 83.7542 129.783L73.3939 140.663L87.3544 147.531C91.7989 137.882 98.6107 131.21 103.035 127.95Z" fill="black"/>
<path d="M80.736 516.04L82.736 539.04C140.336 604.24 249.403 592.54 296.736 578.54C249.236 609.873 131.636 659.84 41.236 609.04C-49.164 558.24 29.9027 525.873 80.736 516.04Z" fill="black"/>
<path d="M540.097 395.483C551.508 435.963 552.828 475.022 545.854 505.402C538.856 535.886 523.699 557.016 502.675 562.942C481.651 568.869 457.69 558.768 435.8 536.427C413.985 514.163 394.71 480.165 383.298 439.686C371.887 399.206 370.567 360.147 377.541 329.766C384.539 299.282 399.696 278.153 420.72 272.226C441.744 266.3 465.705 276.401 487.595 298.741C509.41 321.006 528.685 355.003 540.097 395.483Z" stroke="black" stroke-width="5"/>
<path d="M417.522 315.333C399.356 358.166 386.422 458.433 480.022 516.833" stroke="black" stroke-width="5" stroke-linecap="round"/>
<path d="M406.018 277.833C393.352 280.833 365.521 291.333 360.518 312.333C354.092 339.309 295.125 457.126 427.172 570.035C427.398 570.228 427.644 570.388 427.918 570.502C439.871 575.465 477.183 581.154 500.518 565.333" stroke="black" stroke-width="5" stroke-linecap="round"/>
<path d="M338.736 555.54C294.881 589.594 144.73 613.88 83.8373 539.778C83.4461 539.302 83.2141 538.71 83.1726 538.095L57.2363 153.54" stroke="black" stroke-width="5" stroke-linecap="round"/>
<path d="M338.736 537.04C302.403 569.873 130.736 604.54 84.2363 537.04" stroke="black" stroke-width="5" stroke-linecap="round"/>
<path d="M358.236 202.54C266.078 249.19 126.06 218.207 63.5347 198.664C62.9668 198.487 62.3768 198.481 61.8186 198.687C55.2854 201.099 59.0833 206.178 62.2541 208.802C62.5394 209.038 62.8821 209.208 63.2372 209.313C261.67 268.006 366.322 218.442 367.736 208.541C368.736 201.54 362.078 200.81 358.236 202.54Z" fill="black"/>
<path d="M61.2363 170.04C75.5697 186.04 128.936 205.64 221.736 206.04" stroke="black" stroke-width="5" stroke-linecap="round"/>
<path d="M363.736 280.54L367.736 156.54" stroke="black" stroke-width="5" stroke-linecap="round"/>
<rect x="98.7363" y="249.54" width="21" height="265" rx="10.5" stroke="black" stroke-width="5"/>
<rect x="151.736" y="254.54" width="21" height="293" rx="10.5" stroke="black" stroke-width="5"/>
<rect x="204.736" y="259.54" width="21" height="293" rx="10.5" stroke="black" stroke-width="5"/>
<rect x="257.736" y="264.54" width="21" height="275" rx="10.5" stroke="black" stroke-width="5"/>
<rect x="311.736" y="252.54" width="21" height="262" rx="10.5" stroke="black" stroke-width="5"/>
<rect x="107.236" y="250.04" width="13" height="264" rx="6.5" fill="black"/>
<rect x="160.236" y="255.04" width="13" height="292" rx="6.5" fill="black"/>
<rect x="213.236" y="260.04" width="13" height="292" rx="6.5" fill="black"/>
<rect x="266.236" y="265.04" width="13" height="274" rx="6.5" fill="black"/>
<rect x="320.236" y="253.04" width="13" height="261" rx="6.5" fill="black"/>
<path d="M63.7363 137.746C58.2233 140.194 55.2363 142.815 55.2363 145.54C55.2363 159.071 128.885 170.04 219.736 170.04C310.587 170.04 384.236 159.071 384.236 145.54C384.236 140.87 375.463 136.505 360.236 132.791" stroke="black" stroke-width="5" stroke-linecap="round"/>
<path d="M466.236 364.04C480.903 376.54 505.836 411.34 488.236 450.54" stroke="black" stroke-width="5" stroke-linecap="round"/>
<path d="M464.736 393.04C465.57 404.707 465.636 420.54 475.236 430.54" stroke="black" stroke-width="5" stroke-linecap="round"/>
</svg>
