<svg width="193" height="166" viewBox="0 0 193 166" fill="none" xmlns="http://www.w3.org/2000/svg">
<path d="M53.0691 39.54L28.5691 20.54C23.7691 16.8176 30.9024 14.989 35.0691 14.54L126.569 3.04004C138.069 4.54004 163.469 8.34004 173.069 11.54C182.669 14.74 179.736 17.8734 177.069 19.04C147.069 24.54 84.1691 36.44 72.5691 40.04C60.9691 43.64 54.7358 41.2067 53.0691 39.54Z" stroke="black" stroke-width="5" stroke-linecap="round"/>
<path d="M176.068 12.54C179.568 13.7067 190.768 24.24 185.568 49.04C183.568 55.54 178.068 59.54 160.068 59.54H66.5683C62.2349 59.8734 52.2683 59.24 47.0683 54.04C41.8683 48.84 31.2349 37.8734 26.5683 33.04C25.5683 31.8734 24.5683 29.54 28.5683 29.54" stroke="black" stroke-width="5" stroke-linecap="round"/>
<path d="M28.5684 29.54V21.04" stroke="black" stroke-width="5" stroke-linecap="round"/>
<path d="M28.5684 32.54L49.0684 48.54C51.5684 50.54 56.0684 54.04 67.5684 53.54C78.8714 53.0486 139.902 51.8734 169.068 52.54C173.408 52.6392 179.068 50.54 180.068 40.54C181.363 27.595 179.068 19.54 174.068 19.54" stroke="black" stroke-width="5" stroke-linecap="round"/>
<path d="M29.5689 38.04L10.5689 39.54C7.90224 39.54 2.66891 40.84 3.06891 46.04C3.46891 51.24 3.23558 54.2067 3.06891 55.04C2.56891 57.54 5.06891 59.54 8.06891 62.04L32.0689 83.04" stroke="black" stroke-width="5" stroke-linecap="round"/>
<path d="M34.5684 59.04L32.0684 83.04" stroke="black" stroke-width="5" stroke-linecap="round"/>
<path d="M34.5684 59.04L7.56836 41.54" stroke="black" stroke-width="5" stroke-linecap="round"/>
<path d="M34.0684 59.54L51.0684 57.54" stroke="black" stroke-width="5" stroke-linecap="round"/>
<path d="M32.0684 83.04L173.068 86.04" stroke="black" stroke-width="5" stroke-linecap="round"/>
<path d="M174.068 58.54L173.068 85.54" stroke="black" stroke-width="5" stroke-linecap="round"/>
<circle cx="51.0684" cy="72.54" r="3" fill="black"/>
<circle cx="67.0684" cy="98.54" r="3" fill="black"/>
<circle cx="158.068" cy="71.54" r="3" fill="black"/>
<circle cx="176.068" cy="99.54" r="3" fill="black"/>
<path d="M18.0684 85.04L42.5684 108.54C46.0684 112.04 55.0684 113.04 75.0684 113.04C93.5767 113.04 158.735 111.207 189.068 111.54" stroke="black" stroke-width="5" stroke-linecap="round"/>
<path d="M189.568 86.04L189.068 111.54" stroke="black" stroke-width="5" stroke-linecap="round"/>
<path d="M189.568 86.04L174.068 79.04" stroke="black" stroke-width="5" stroke-linecap="round"/>
<path d="M21.0684 73.54C21.235 76.54 20.7684 82.94 17.5684 84.54" stroke="black" stroke-width="5" stroke-linecap="round"/>
<path d="M48.0684 84.54C49.4017 86.04 51.0684 90.54 49.5684 97.54C48.3971 103.006 46.5684 108.04 42.5684 107.54" stroke="black" stroke-width="5" stroke-linecap="round"/>
<path d="M189.568 86.54L171.068 86.04" stroke="black" stroke-width="5" stroke-linecap="round"/>
<path d="M31.0684 97.54L9.06836 110.04" stroke="black" stroke-width="5" stroke-linecap="round"/>
<path d="M9.06824 110.04C5.90157 116.207 0.968242 133.44 6.56824 155.04" stroke="black" stroke-width="5" stroke-linecap="round"/>
<path d="M7.06836 155.04L121.568 162.54C128.402 162.707 143.668 161.54 150.068 155.54C156.468 149.54 168.568 136.373 174.068 130.54" stroke="black" stroke-width="5" stroke-linecap="round"/>
<path d="M174.068 130.54L174.068 115.54" stroke="black" stroke-width="5" stroke-linecap="round"/>
<path d="M173.569 115.04L144.569 141.54C143.402 142.873 138.969 145.14 130.569 143.54C122.169 141.94 58.4024 126.207 27.5691 118.54C21.7357 117.207 12.0691 117.54 11.5691 130.04C10.9024 135.707 11.8691 147.24 21.0691 148.04C30.2691 148.84 93.5691 151.707 124.069 153.04C132.402 153.54 148.569 155.04 165.569 139.54" stroke="black" stroke-width="5" stroke-linecap="round"/>
</svg>
