<?xml version="1.0" encoding="utf-8"?>
<!-- Generator: Adobe Illustrator 16.0.0, SVG Export Plug-In . SVG Version: 6.00 Build 0)  -->
<svg version="1.2" baseProfile="tiny" id="Layer_1" xmlns="http://www.w3.org/2000/svg" xmlns:xlink="http://www.w3.org/1999/xlink"
	 x="0px" y="0px"  viewBox="0 0 3000 3000" xml:space="preserve">
<g>
	<path fill="#3395C3" d="M503.734,195.236h1992.541c5.036,0,10.072,0.128,15.118,0.374c5.036,0.236,10.072,0.62,15.108,1.122
		c5.016,0.481,10.032,1.092,15.02,1.839c4.986,0.758,9.974,1.604,14.921,2.597c4.958,0.984,9.876,2.095,14.784,3.325
		c4.889,1.22,9.757,2.577,14.586,4.043c4.82,1.456,9.61,3.049,14.371,4.741s9.452,3.502,14.145,5.439
		c4.662,1.947,9.275,3.983,13.839,6.147c4.563,2.154,9.069,4.426,13.505,6.797c4.466,2.38,8.853,4.869,13.19,7.465
		c4.308,2.597,8.597,5.302,12.786,8.105c4.19,2.793,8.331,5.705,12.394,8.715c4.053,3.01,8.017,6.118,11.932,9.314
		c3.905,3.207,7.722,6.502,11.459,9.886c3.737,3.403,7.397,6.875,10.978,10.446c3.551,3.57,7.042,7.229,10.436,10.967
		c3.384,3.737,6.688,7.563,9.896,11.469c3.187,3.895,6.305,7.879,9.305,11.941c3.01,4.052,5.921,8.184,8.725,12.383
		c2.804,4.19,5.519,8.459,8.095,12.787c2.607,4.338,5.096,8.725,7.476,13.181c2.381,4.445,4.643,8.96,6.787,13.524
		c2.164,4.564,4.22,9.177,6.138,13.829c1.928,4.682,3.768,9.374,5.449,14.135c1.701,4.761,3.305,9.551,4.761,14.38
		c1.446,4.839,2.804,9.699,4.032,14.586c1.23,4.898,2.332,9.827,3.306,14.774c1.013,4.957,1.858,9.934,2.616,14.921
		c0.728,5.007,1.357,10.014,1.829,15.029c0.512,5.026,0.886,10.053,1.132,15.099c0.245,5.046,0.373,10.092,0.373,15.138v1992.541
		c0,5.036-0.128,10.072-0.373,15.118c-0.246,5.036-0.62,10.072-1.132,15.108c-0.472,5.017-1.091,10.032-1.829,15.02
		c-0.748,4.986-1.604,9.974-2.616,14.921c-0.974,4.958-2.075,9.876-3.306,14.784c-1.229,4.889-2.586,9.757-4.032,14.587
		c-1.456,4.819-3.069,9.609-4.761,14.37c-1.682,4.761-3.512,9.452-5.449,14.145c-1.918,4.662-3.974,9.275-6.138,13.839
		c-2.153,4.564-4.406,9.069-6.787,13.505c-2.38,4.466-4.868,8.853-7.476,13.19c-2.586,4.308-5.291,8.597-8.095,12.787
		c-2.804,4.189-5.715,8.33-8.725,12.393c-3.01,4.053-6.118,8.017-9.305,11.932c-3.206,3.905-6.512,7.722-9.896,11.459
		c-3.394,3.738-6.875,7.397-10.436,10.978c-3.581,3.551-7.24,7.042-10.978,10.436c-3.737,3.384-7.554,6.688-11.459,9.896
		c-3.905,3.187-7.879,6.305-11.932,9.305c-4.062,3.01-8.203,5.922-12.394,8.725c-4.189,2.804-8.469,5.519-12.786,8.096
		c-4.328,2.606-8.725,5.095-13.19,7.475c-4.436,2.381-8.941,4.643-13.505,6.787c-4.563,2.164-9.187,4.22-13.839,6.138
		c-4.692,1.929-9.374,3.768-14.145,5.449c-4.761,1.702-9.551,3.305-14.371,4.761c-4.829,1.446-9.697,2.804-14.586,4.033
		c-4.908,1.229-9.826,2.331-14.784,3.305c-4.947,1.013-9.935,1.859-14.921,2.616c-4.997,0.728-10.014,1.357-15.02,1.829
		c-5.036,0.512-10.072,0.886-15.108,1.132c-5.046,0.245-10.082,0.373-15.118,0.373H503.734c-5.046,0-10.092-0.128-15.138-0.373
		c-5.046-0.246-10.072-0.62-15.099-1.132c-5.026-0.472-10.032-1.092-15.029-1.829c-4.986-0.747-9.964-1.604-14.921-2.616
		c-4.948-0.974-9.876-2.075-14.774-3.305c-4.889-1.229-9.747-2.587-14.587-4.033c-4.829-1.456-9.629-3.069-14.38-4.761
		c-4.751-1.682-9.452-3.512-14.135-5.449c-4.662-1.918-9.266-3.974-13.829-6.138c-4.564-2.153-9.079-4.406-13.524-6.787
		c-4.456-2.38-8.833-4.868-13.181-7.475c-4.318-2.587-8.597-5.292-12.787-8.096c-4.2-2.803-8.341-5.715-12.384-8.725
		c-4.062-3.01-8.035-6.118-11.94-9.305c-3.905-3.206-7.731-6.512-11.469-9.896c-3.738-3.394-7.397-6.875-10.967-10.436
		c-3.561-3.581-7.042-7.239-10.446-10.978c-3.384-3.737-6.679-7.554-9.886-11.459c-3.196-3.905-6.314-7.879-9.314-11.932
		c-3.01-4.062-5.921-8.203-8.715-12.393c-2.803-4.19-5.518-8.469-8.105-12.787c-2.597-4.328-5.085-8.725-7.465-13.19
		c-2.371-4.436-4.652-8.94-6.797-13.505c-2.164-4.563-4.2-9.187-6.147-13.839c-1.928-4.692-3.748-9.374-5.439-14.145
		c-1.702-4.761-3.285-9.551-4.741-14.37c-1.465-4.83-2.823-9.698-4.042-14.587c-1.229-4.908-2.341-9.826-3.325-14.784
		c-0.993-4.947-1.839-9.935-2.597-14.921c-0.737-4.997-1.357-10.014-1.839-15.02c-0.512-5.036-0.886-10.072-1.122-15.108
		c-0.246-5.046-0.374-10.082-0.374-15.118V503.725c0-5.046,0.128-10.092,0.374-15.138c0.236-5.046,0.62-10.072,1.122-15.099
		c0.481-5.026,1.092-10.032,1.839-15.029c0.758-4.987,1.604-9.964,2.597-14.921c0.984-4.948,2.095-9.876,3.325-14.774
		c1.22-4.888,2.577-9.747,4.042-14.586c1.456-4.83,3.049-9.62,4.741-14.38c1.692-4.751,3.502-9.453,5.439-14.135
		c1.947-4.662,3.983-9.266,6.147-13.829c2.154-4.564,4.426-9.079,6.797-13.525c2.38-4.456,4.869-8.833,7.465-13.18
		c2.597-4.318,5.302-8.597,8.105-12.787c2.793-4.2,5.705-8.331,8.715-12.383c3.01-4.063,6.118-8.036,9.314-11.941
		c3.207-3.905,6.502-7.731,9.886-11.469c3.403-3.738,6.875-7.397,10.446-10.967c3.57-3.561,7.229-7.042,10.967-10.446
		c3.737-3.384,7.563-6.679,11.469-9.886c3.895-3.196,7.879-6.314,11.94-9.314c4.043-3.01,8.184-5.921,12.384-8.715
		c4.19-2.803,8.459-5.518,12.787-8.105c4.338-2.597,8.725-5.085,13.181-7.465c4.445-2.371,8.96-4.652,13.524-6.797
		c4.563-2.164,9.177-4.2,13.829-6.147c4.683-1.928,9.374-3.748,14.135-5.439c4.751-1.702,9.551-3.285,14.38-4.741
		c4.84-1.465,9.698-2.823,14.587-4.042c4.898-1.229,9.826-2.341,14.774-3.325c4.957-0.993,9.935-1.839,14.921-2.597
		c5.007-0.737,10.014-1.357,15.029-1.839c5.026-0.512,10.053-0.886,15.099-1.122C493.643,195.354,498.688,195.236,503.734,195.236z"
		/>
	<path fill="#FFFFFF" d="M2143.063,726.236c56.135,92.548,81.334,187.977,81.334,308.488
		c0,384.345-328.072,883.495-594.334,1233.954h-608.007L778.239,810.442l532.563-50.566l129.531,1037.566
		c120.364-196.298,269.174-504.797,269.174-714.974c0-115.16-19.701-193.437-50.566-257.921L2143.063,726.236z"/>
</g>
</svg>
