<svg width="279" height="183" viewBox="0 0 279 183" fill="none" xmlns="http://www.w3.org/2000/svg">
<path d="M0.00390625 150.073C0.00372535 135.073 25.5039 122.374 37.0039 123.041C33.5 162.5 44.8373 165.541 54.5039 167.041H181.004C181.004 168.041 182.504 181.541 171.004 182.073H63.0041C41.6708 183.406 0.00419922 174.364 0.00390625 150.073Z" fill="#D1D4D8"/>
<path d="M277.004 60.04V22.04C277.004 10.9943 268.05 2.04004 257.004 2.04004H58.0039C46.9582 2.04004 38.0039 10.9943 38.0039 22.04V147.04C38.0039 158.086 46.9582 167.04 58.0039 167.04H177.504" stroke="#D1D4D8" stroke-width="3" stroke-linecap="round"/>
<path d="M66.0039 125.04H114.004" stroke="#D1D4D8" stroke-width="3" stroke-linecap="round"/>
<path d="M130.004 125.04H137.004" stroke="#D1D4D8" stroke-width="3" stroke-linecap="round"/>
<rect x="38" y="24" width="239" height="28" fill="#D1D4D8"/>
<circle cx="236.504" cy="126.54" r="39" stroke="#D1D4D8" stroke-width="3"/>
<path d="M236.091 110.04V144.04M220.004 127.25H253.004" stroke="#D1D4D8" stroke-width="3" stroke-linecap="round"/>
</svg>
