<svg width="260" height="337" viewBox="0 0 260 337" fill="none" xmlns="http://www.w3.org/2000/svg">
<path d="M131.73 162.04L37.7305 166.04" stroke="#D1D4D8" stroke-width="3" stroke-linecap="round"/>
<path d="M132.73 162.04L256.73 173.04" stroke="#D1D4D8" stroke-width="3" stroke-linecap="round"/>
<path d="M257.73 173.04L232.73 289.04" stroke="#D1D4D8" stroke-width="3" stroke-linecap="round"/>
<path d="M232.73 289.04L129.73 307.04" stroke="#D1D4D8" stroke-width="3" stroke-linecap="round"/>
<path d="M129.73 306.04V183.04" stroke="#D1D4D8" stroke-width="3" stroke-linecap="round"/>
<path d="M129.73 184.04L256.73 174.04" stroke="#D1D4D8" stroke-width="3" stroke-linecap="round"/>
<path d="M129.73 184.04L37.7305 166.04" stroke="#D1D4D8" stroke-width="3" stroke-linecap="round"/>
<path d="M35.7305 166.04L41.7305 258.04" stroke="#D1D4D8" stroke-width="3" stroke-linecap="round"/>
<path d="M41.7305 258.04L129.73 307.04" stroke="#D1D4D8" stroke-width="3" stroke-linecap="round"/>
<path d="M130.73 162.04V182.04" stroke="#D1D4D8" stroke-width="3" stroke-linecap="round"/>
<rect x="175.943" y="211.921" width="37.2431" height="19.996" rx="8.5" transform="rotate(-3.53924 175.943 211.921)" stroke="#D1D4D8" stroke-width="3"/>
<path d="M92.5 73.2822C100 72.2822 116.1 66.5822 120.5 51.7822" stroke="#D1D4D8" stroke-width="3" stroke-linecap="round"/>
<path d="M68 61.2822C73 61.4489 84.5 58.9822 90.5 47.7822" stroke="#D1D4D8" stroke-width="3" stroke-linecap="round"/>
<path d="M45.5 43.2822C53.5 41.6208 70.9 36.4463 76.5 29.04" stroke="#D1D4D8" stroke-width="3" stroke-linecap="round"/>
<path d="M117.847 98.4283C67.569 109.65 20.6937 59.5984 2.09364 31.165C1.3847 30.0813 1.91277 28.6435 3.14058 28.2318L82.2889 1.68837C83.0274 1.44071 83.8384 1.6432 84.3827 2.20033C110.738 29.1754 159.702 41.0622 185.511 44.3079C187.335 44.5374 187.977 46.9102 186.497 48.0018L118.591 98.089C118.37 98.2517 118.115 98.3686 117.847 98.4283Z" stroke="#D1D4D8" stroke-width="3" stroke-linecap="round"/>
<path d="M129.011 333.04L39.2305 259.54L129.23 309.54L235.23 291.04L245.23 292.54L129.011 333.04Z" fill="#D1D4D8"/>
</svg>
