<svg width="268" height="309" viewBox="0 0 268 309" fill="none" xmlns="http://www.w3.org/2000/svg">
<path d="M141.655 300.04C132.455 284.04 161.822 281.706 177.655 282.54V294.04L229.155 300.04C203.822 306.706 150.855 316.04 141.655 300.04Z" fill="#D1D4D8"/>
<path d="M254.654 278.54L235.154 298.54" stroke="#D1D4D8" stroke-width="3" stroke-linecap="round"/>
<path d="M230.654 237.54L180.154 234.04" stroke="#D1D4D8" stroke-width="3" stroke-linecap="round"/>
<path d="M200.654 221.04L254.654 223.54" stroke="#D1D4D8" stroke-width="3" stroke-linecap="round"/>
<path d="M179.154 234.04L176.654 292.04" stroke="#D1D4D8" stroke-width="3" stroke-linecap="round"/>
<path d="M254.654 224.54V277.54" stroke="#D1D4D8" stroke-width="3" stroke-linecap="round"/>
<path d="M235.154 256.04V298.54" stroke="#D1D4D8" stroke-width="3" stroke-linecap="round"/>
<path d="M179.154 234.04L200.654 221.04" stroke="#D1D4D8" stroke-width="3" stroke-linecap="round"/>
<path d="M235.154 298.54L176.154 292.54" stroke="#D1D4D8" stroke-width="3" stroke-linecap="round"/>
<path d="M0.910517 208.54C1.41052 194.54 57.4105 199.04 60.9105 199.54V208.54L77.9105 220.54C52.0772 221.207 0.510517 219.74 0.910517 208.54Z" fill="#D1D4D8"/>
<path d="M139.91 207.04V156.04" stroke="#D1D4D8" stroke-width="3" stroke-linecap="round"/>
<path d="M96.4102 220.04V164.04" stroke="#D1D4D8" stroke-width="3" stroke-linecap="round"/>
<path d="M60.4102 207.04V151.04" stroke="#D1D4D8" stroke-width="3" stroke-linecap="round"/>
<path d="M60.4102 151.04L99.9102 141.04" stroke="#D1D4D8" stroke-width="3" stroke-linecap="round"/>
<path d="M139.91 155.54L96.4102 163.54" stroke="#D1D4D8" stroke-width="3" stroke-linecap="round"/>
<path d="M96.4102 220.54L139.91 207.54" stroke="#D1D4D8" stroke-width="3" stroke-linecap="round"/>
<path d="M139.91 155.54L99.9102 141.04" stroke="#D1D4D8" stroke-width="3" stroke-linecap="round"/>
<path d="M60.4102 151.54L96.9102 163.54" stroke="#D1D4D8" stroke-width="3" stroke-linecap="round"/>
<path d="M105.911 112.54C106.411 98.5405 162.411 103.04 165.911 103.54V112.54L182.911 124.54C157.077 125.207 105.511 123.74 105.911 112.54Z" fill="#D1D4D8"/>
<path d="M244.91 111.04V60.04" stroke="#D1D4D8" stroke-width="3" stroke-linecap="round"/>
<path d="M201.41 124.04V68.04" stroke="#D1D4D8" stroke-width="3" stroke-linecap="round"/>
<path d="M165.41 111.04V55.04" stroke="#D1D4D8" stroke-width="3" stroke-linecap="round"/>
<path d="M201.41 124.54L244.91 111.54" stroke="#D1D4D8" stroke-width="3" stroke-linecap="round"/>
<path d="M244.91 59.54L201.41 67.54" stroke="#D1D4D8" stroke-width="3" stroke-linecap="round"/>
<path d="M165.41 55.04L204.91 45.04" stroke="#D1D4D8" stroke-width="3" stroke-linecap="round"/>
<path d="M244.91 59.54L204.91 45.04" stroke="#D1D4D8" stroke-width="3" stroke-linecap="round"/>
<path d="M165.41 55.54L201.91 67.54" stroke="#D1D4D8" stroke-width="3" stroke-linecap="round"/>
<path d="M229.343 8.39647L208.229 41.4706C207.547 42.5387 208.018 43.9636 209.202 44.4153L243.327 57.4366C244.24 57.7849 245.27 57.4227 245.765 56.58L265.698 22.6033C266.328 21.5282 265.833 20.1445 264.663 19.7142L231.72 7.59563C230.838 7.27122 229.849 7.60446 229.343 8.39647Z" stroke="#D1D4D8" stroke-width="3"/>
<path d="M171.451 2.04004L179.451 20.04" stroke="#D1D4D8" stroke-width="3" stroke-linecap="round"/>
<path d="M143.451 12.04L169.451 34.04" stroke="#D1D4D8" stroke-width="3" stroke-linecap="round"/>
<path d="M142.451 41.04L158.451 50.04" stroke="#D1D4D8" stroke-width="3" stroke-linecap="round"/>
</svg>
