<svg width="482" height="359" viewBox="0 0 482 359" fill="none" xmlns="http://www.w3.org/2000/svg">
<path d="M41.5024 165.592L64.9699 161.325C65.951 161.147 66.7793 160.493 67.1802 159.58L74.7249 142.394C75.2169 141.274 74.9789 139.967 74.1236 139.092L56.347 120.902C55.1097 119.636 55.232 117.579 56.6105 116.469L87.6597 91.4567C88.9667 90.4039 90.8832 90.628 91.912 91.954L110.702 116.172C111.717 117.48 113.6 117.719 114.909 116.705L126.659 107.609C127.512 106.948 127.945 105.88 127.792 104.812L124.028 78.4643C123.77 76.657 125.172 75.04 126.998 75.04H159.039C160.696 75.04 162.039 76.3832 162.039 78.04V99.452C162.039 100.707 162.82 101.829 163.997 102.265L187.381 110.926C188.404 111.305 189.552 111.098 190.379 110.387L208.188 95.0633C209.473 93.957 211.42 94.1357 212.483 95.4576L229.239 116.301C230.246 117.553 230.088 119.376 228.881 120.435L212.115 135.156C211.168 135.987 210.842 137.321 211.297 138.495L219.028 158.433C219.598 159.901 221.206 160.679 222.711 160.214L244.143 153.59C245.918 153.041 247.76 154.222 248.003 156.065L252.212 188.057C252.402 189.495 251.535 190.862 250.154 191.305L227.589 198.543C226.622 198.853 225.878 199.631 225.611 200.61L220.391 219.75C220.167 220.571 220.302 221.449 220.764 222.164L233.005 241.159C233.866 242.495 233.535 244.272 232.25 245.208L206.824 263.739C205.762 264.513 204.321 264.506 203.267 263.722L187.165 251.749C186.182 251.018 184.855 250.958 183.81 251.596L169.343 260.438C168.261 261.099 167.712 262.368 167.97 263.609L171.848 282.223C172.215 283.986 170.958 285.673 169.163 285.825L133.956 288.794C132.334 288.931 130.898 287.749 130.722 286.13L128.279 263.735C128.136 262.429 127.161 261.368 125.872 261.116L106.91 257.406C105.768 257.183 104.6 257.64 103.913 258.579L91.9677 274.904C90.93 276.322 88.9013 276.549 87.5762 275.395L61.0004 252.248C59.8749 251.268 59.6412 249.609 60.4521 248.356L74.6081 226.479C75.185 225.587 75.2476 224.457 74.7727 223.507L63.3682 200.698C62.8601 199.682 61.8213 199.04 60.685 199.04H42.0391C40.3822 199.04 39.0391 197.697 39.0391 196.04V168.544C39.0391 167.094 40.0759 165.852 41.5024 165.592Z" stroke="#D1D4D8" stroke-width="3"/>
<path d="M233.039 244.04L203.829 265.712C202.766 266.501 201.313 266.5 200.251 265.71L184.165 253.749C183.182 253.018 181.855 252.958 180.81 253.596L166.343 262.438C165.261 263.099 164.712 264.368 164.97 265.609L168.848 284.223C169.215 285.986 167.958 287.673 166.163 287.825L130.956 290.794C129.334 290.931 127.898 289.749 127.722 288.13L125.279 265.735C125.136 264.429 124.161 263.368 122.872 263.116L103.91 259.406C102.768 259.183 101.6 259.64 100.913 260.579L88.9677 276.904C87.93 278.322 85.9013 278.549 84.5762 277.395L58.0004 254.248C56.8749 253.268 56.6412 251.609 57.4521 250.356L71.6081 228.479C72.185 227.587 72.2476 226.457 71.7727 225.507L60.3682 202.698C59.8601 201.682 58.8213 201.04 57.685 201.04H39.0391C37.3822 201.04 36.0391 199.697 36.0391 198.04V170.544C36.0391 169.094 37.0759 167.852 38.5024 167.592L61.9699 163.325C62.951 163.147 63.7793 162.493 64.1802 161.58L71.7249 144.394C72.2169 143.274 71.9789 141.967 71.1236 141.092L53.347 122.902C52.1097 121.636 52.232 119.579 53.6105 118.469L84.6597 93.4567C85.9667 92.4039 87.8832 92.628 88.912 93.954L107.702 118.172C108.717 119.48 110.6 119.719 111.909 118.705L123.876 109.441C124.609 108.873 125.039 107.997 125.039 107.069V77.54" stroke="#D1D4D8" stroke-width="3" stroke-linecap="round"/>
<circle cx="146.039" cy="182.04" r="35.5" stroke="#D1D4D8" stroke-width="3"/>
<path d="M150.539 216.04C166.539 212.04 176.039 199.161 176.039 182.04C176.039 164.919 165.039 147.54 144.039 147.54" stroke="#D1D4D8" stroke-width="3" stroke-linecap="round"/>
<circle cx="370.039" cy="78.04" r="23.5" stroke="#D1D4D8" stroke-width="3"/>
<path d="M372.039 100.54C383.539 95.54 390.039 89.54 390.039 78.04C389.039 66.54 383.039 59.54 372.039 55.54" stroke="#D1D4D8" stroke-width="3" stroke-linecap="round"/>
<circle cx="341.539" cy="292.54" r="20" stroke="#D1D4D8" stroke-width="3"/>
<path d="M342.041 311.54C353.04 308.54 358.164 301.54 359.04 293.54C360.331 281.736 351.54 276.04 345.54 274.04" stroke="#D1D4D8" stroke-width="3" stroke-linecap="round"/>
<path d="M304.209 92.0338L309.222 103.218C309.717 104.322 309.501 105.614 308.673 106.497L296.921 119.032C295.856 120.168 295.837 121.929 296.877 123.088L310.815 138.619C311.806 139.724 313.456 139.938 314.696 139.123L328.595 129.989C329.489 129.402 330.628 129.334 331.584 129.813L341.381 134.711C342.397 135.219 343.039 136.258 343.039 137.394V151.04C343.039 152.697 344.382 154.04 346.039 154.04H373.039C374.696 154.04 376.039 152.697 376.039 151.04V141.132C376.039 139.875 376.823 138.751 378.002 138.317L392.848 132.847C394.137 132.373 395.583 132.833 396.359 133.966L405.046 146.633C406.091 148.157 408.252 148.383 409.59 147.108L426.59 130.899C427.699 129.841 427.832 128.118 426.9 126.902L418.252 115.622C417.517 114.664 417.429 113.358 418.028 112.309L424.302 101.329C424.767 100.517 425.583 99.9675 426.511 99.8438L444.804 97.4048C446.35 97.1986 447.48 95.8418 447.404 94.2837L446.188 69.5603C446.106 67.8961 444.684 66.6175 443.02 66.7126L430.466 67.4299C429.292 67.497 428.188 66.8724 427.64 65.8321L419.631 50.6141C418.989 49.3953 419.26 47.8963 420.287 46.979L430.476 37.8824C431.641 36.8416 431.813 35.0803 430.87 33.8342L420.478 20.1026C419.43 18.7167 417.426 18.5092 416.116 19.6507L404.793 29.5127C403.76 30.4117 402.251 30.498 401.123 29.7226L388.129 20.7894C387.435 20.312 386.973 19.5646 386.857 18.7299L384.947 4.97779C384.721 3.34992 383.227 2.207 381.597 2.4145L359.66 5.20643C358.162 5.39712 357.039 6.67201 357.039 8.18242V20.7771C357.039 22.1166 356.151 23.2937 354.863 23.6617L344.404 26.6501C343.54 26.8969 342.611 26.7436 341.872 26.2321L325.568 14.9449C324.389 14.1287 322.798 14.2609 321.769 15.2605L307.681 28.9574C306.497 30.109 306.466 32.0015 307.613 33.1907L317.375 43.314C318.348 44.3233 318.492 45.8722 317.722 47.0439L308.428 61.1876C307.873 62.0317 306.931 62.54 305.921 62.54H293.605C292.128 62.54 290.87 63.6156 290.641 65.0751L287.506 85.0608C287.249 86.7036 288.377 88.2427 290.021 88.4918L301.921 90.2948C302.929 90.4477 303.791 91.1027 304.209 92.0338Z" stroke="#D1D4D8" stroke-width="3"/>
<path d="M429.539 38.04L417.478 22.1026C416.43 20.7167 414.426 20.5092 413.116 21.6507L401.793 31.5127C400.761 32.4117 399.251 32.498 398.123 31.7226L385.129 22.7894C384.435 22.312 383.973 21.5646 383.857 20.7299L381.947 6.97779C381.721 5.34992 380.227 4.207 378.597 4.4145L356.66 7.20643C355.162 7.39712 354.039 8.67201 354.039 10.1824V22.7771C354.039 24.1166 353.151 25.2937 351.863 25.6617L341.404 28.6501C340.54 28.8969 339.611 28.7436 338.872 28.2321L322.568 16.9449C321.389 16.1287 319.798 16.2609 318.769 17.2605L304.681 30.9574C303.497 32.109 303.466 34.0015 304.613 35.1907L314.375 45.314C315.348 46.3233 315.492 47.8721 314.722 49.0439L305.428 63.1876C304.873 64.0317 303.931 64.54 302.921 64.54H290.605C289.128 64.54 287.87 65.6156 287.641 67.0751L284.506 87.0608C284.249 88.7036 285.377 90.2427 287.021 90.4918L298.921 92.2948C299.929 92.4477 300.791 93.1027 301.209 94.0338L306.297 105.385C306.753 106.403 306.608 107.589 305.919 108.466L296.039 121.04" stroke="#D1D4D8" stroke-width="3" stroke-linecap="round"/>
<path d="M403.667 273.012L392.957 279.66C392.075 280.207 391.539 281.171 391.539 282.209V294.509C391.539 295.736 392.286 296.839 393.425 297.294L401.735 300.618C403.072 301.153 403.84 302.563 403.565 303.976L401.011 317.113C400.737 318.522 399.502 319.54 398.066 319.54H383.039C382.095 319.54 381.206 319.985 380.639 320.74L375.273 327.894C374.529 328.886 374.472 330.233 375.129 331.284L382.325 342.797C383.25 344.278 382.721 346.232 381.175 347.043L366.619 354.685C365.182 355.44 363.406 354.915 362.61 353.5L355.899 341.569C355.368 340.625 354.368 340.04 353.285 340.04H339.091C337.854 340.04 336.744 340.8 336.295 341.953L331.047 355.447C330.479 356.91 328.879 357.687 327.378 357.23L310.164 351.991C308.483 351.479 307.6 349.639 308.252 348.007L313.09 335.912C313.637 334.545 313.111 332.983 311.848 332.226L300.629 325.494C299.655 324.909 298.433 324.925 297.475 325.535L290.845 329.754C289.345 330.709 287.347 330.156 286.551 328.565L279.331 314.123C278.61 312.681 279.158 310.927 280.572 310.151L291.982 303.894C292.942 303.367 293.539 302.359 293.539 301.264V288.216C293.539 287.175 292.999 286.207 292.111 285.661L282.793 279.927C281.505 279.135 281.008 277.507 281.634 276.131L286.921 264.499C287.557 263.101 289.145 262.409 290.601 262.894L300.782 266.288C302.104 266.728 303.556 266.201 304.286 265.014L310.071 255.612C310.665 254.648 310.665 253.432 310.071 252.468L304.564 243.519C303.715 242.138 304.116 240.332 305.471 239.44L319.254 230.373C320.742 229.393 322.751 229.92 323.568 231.503L329.201 242.416C329.716 243.413 330.744 244.04 331.867 244.04H347.855C349.157 244.04 350.31 243.2 350.71 241.961L354.057 231.585C354.589 229.936 356.403 229.079 358.015 229.716L373.921 236.005C375.393 236.587 376.16 238.212 375.673 239.718L371.693 252.018C371.301 253.23 371.717 254.556 372.729 255.328L379.735 260.666C380.802 261.479 382.28 261.484 383.353 260.679L392.721 253.654C394.199 252.545 396.318 253.024 397.177 254.659L404.742 269.069C405.473 270.461 405.004 272.182 403.667 273.012Z" stroke="#D1D4D8" stroke-width="3"/>
<path d="M356.336 231.04L371.84 237.768C373.257 238.382 373.975 239.971 373.501 241.441L369.635 253.433C369.245 254.642 369.659 255.965 370.668 256.737L377.393 261.878C378.462 262.695 379.944 262.701 381.02 261.892L389.999 255.134C391.478 254.021 393.603 254.5 394.461 256.14L401.749 270.07C402.477 271.461 402.009 273.178 400.677 274.007L390.345 280.443C389.465 280.991 388.931 281.953 388.931 282.989V294.917C388.931 296.142 389.676 297.245 390.813 297.701L398.794 300.905C400.129 301.44 400.895 302.848 400.622 304.259L398.158 316.973C397.885 318.384 396.65 319.402 395.213 319.402H380.704C379.758 319.402 378.868 319.848 378.301 320.606L373.131 327.524C372.391 328.514 372.334 329.857 372.988 330.906L379.929 342.051C380.85 343.53 380.322 345.479 378.781 346.291L364.76 353.678C363.321 354.436 361.54 353.909 360.745 352.49L354.277 340.951C353.746 340.004 352.745 339.418 351.66 339.418H338.021C336.752 339.418 335.62 340.217 335.194 341.412L331.039 353.087" stroke="#D1D4D8" stroke-width="3" stroke-linecap="round"/>
<path d="M228.539 315.539C183.872 343.706 52.6536 348.787 13.5387 243.54C-34.9613 113.039 84.5391 38.0396 128.539 38.5396C172.539 39.0396 241.539 49.04 275.039 147.04C296.107 208.67 406.539 214.04 444.539 160.543" stroke="#D1D4D8" stroke-width="3" stroke-linecap="round" stroke-dasharray="18 18"/>
<path d="M459.456 131.905C462.942 130.272 466.888 133.024 466.559 136.859L464.997 155.096C464.668 158.931 460.311 160.972 457.154 158.77L442.142 148.298C438.985 146.096 439.396 141.303 442.881 139.67L459.456 131.905Z" fill="#D1D4D8"/>
</svg>
