<svg width="252" height="252" viewBox="0 0 252 252" fill="none" xmlns="http://www.w3.org/2000/svg">
<circle cx="126.305" cy="125.54" r="124" stroke="#D1D4D8" stroke-width="3"/>
<path d="M125.805 3.04004V248.54" stroke="#D1D4D8" stroke-width="3" stroke-linecap="round"/>
<path d="M23.8047 59.04H229.305" stroke="#D1D4D8" stroke-width="3" stroke-linecap="round"/>
<path d="M4.80469 126.04H248.805" stroke="#D1D4D8" stroke-width="3" stroke-linecap="round"/>
<path d="M23.8047 192.04H229.805" stroke="#D1D4D8" stroke-width="3" stroke-linecap="round"/>
<path d="M192.305 127.04C192.305 161.082 184.846 191.828 172.861 214.008C160.844 236.249 144.493 249.54 126.805 249.54C109.117 249.54 92.7653 236.249 80.7482 214.008C68.7635 191.828 61.3047 161.082 61.3047 127.04C61.3047 92.9977 68.7635 62.2525 80.7482 40.0718C92.7653 17.8313 109.117 4.54004 126.805 4.54004C144.493 4.54004 160.844 17.8313 172.861 40.0718C184.846 62.2525 192.305 92.9977 192.305 127.04Z" stroke="#D1D4D8" stroke-width="3"/>
</svg>
