<svg width="536" height="507" viewBox="0 0 536 507" fill="none" xmlns="http://www.w3.org/2000/svg">
<path d="M252.871 461.54C260.038 463.207 280.371 464.34 284.371 451.54" stroke="#D1D4D8" stroke-width="3" stroke-linecap="round"/>
<path d="M263.371 433.54C275.371 445.04 294.371 463.54 304.371 448.54L310.371 438.54" stroke="#D1D4D8" stroke-width="3" stroke-linecap="round"/>
<path d="M263.371 402.54C277.038 415.54 318.971 446.74 337.371 435.54C340.704 433.373 347.471 426.44 347.871 416.04" stroke="#D1D4D8" stroke-width="3" stroke-linecap="round"/>
<path d="M296.371 385.04C313.204 398.207 350.371 421.74 364.371 410.54C378.371 399.34 363.871 383.873 354.871 377.54L294.371 328.54" stroke="#D1D4D8" stroke-width="3" stroke-linecap="round"/>
<path d="M122.371 337.54C129.871 341.479 138.146 351.697 140.871 361.04C144.371 373.04 154.205 383.373 158.371 386.54" stroke="#D1D4D8" stroke-width="3" stroke-linecap="round"/>
<path d="M272.371 270.54C262.371 266.54 234.371 258.44 212.371 262.04C190.371 265.64 192.371 258.54 181.871 252.54L122.371 216.04" stroke="#D1D4D8" stroke-width="3" stroke-linecap="round"/>
<path d="M352.371 267.54L374.371 256.04M371.871 397.04C381.071 394.64 396.371 381.04 402.871 374.54L428.371 361.04" stroke="#D1D4D8" stroke-width="3" stroke-linecap="round"/>
<path d="M354.371 321.04C339.704 329.873 302.971 340.74 273.371 317.54" stroke="#D1D4D8" stroke-width="3" stroke-linecap="round"/>
<path d="M273.371 317.54C262.371 333.04 236.571 362.64 221.371 357.04C206.171 351.44 213.038 335.04 218.371 327.54C233.871 296.54 282.372 241.14 352.372 267.54" stroke="#D1D4D8" stroke-width="3" stroke-linecap="round"/>
<path d="M253.871 443.54C253.471 458.34 248.704 464.706 246.371 466.04C234.996 472.54 222.371 462.54 225.894 454.412C228.313 449.909 231.553 440.621 232.871 436.54C235.939 427.04 254.271 428.74 253.871 443.54Z" stroke="#D1D4D8" stroke-width="3" stroke-linecap="round"/>
<path d="M212.372 457.54C195.572 461.14 195.372 444.04 202.872 435.54C205.275 432.816 211.272 427.219 218.872 421.04C226.472 414.861 231.372 420.132 232.872 423.54C234.852 428.04 229.172 453.94 212.372 457.54Z" stroke="#D1D4D8" stroke-width="3" stroke-linecap="round"/>
<path d="M184.371 437.54C165.971 437.14 166.871 421.04 174.371 414.04C180.204 407.873 195.071 396.44 207.871 400.04C220.671 403.64 217.871 415.54 214.871 421.54C212.371 427.04 202.771 437.94 184.371 437.54Z" stroke="#D1D4D8" stroke-width="3" stroke-linecap="round"/>
<path d="M190.372 382.04C170.772 377.24 154.206 389.04 148.372 395.54C144.372 400.74 144.706 406.707 145.372 409.04C150.172 421.04 172.372 412.373 182.872 406.54C193.539 400.373 209.972 386.84 190.372 382.04Z" stroke="#D1D4D8" stroke-width="3" stroke-linecap="round"/>
<path d="M217.371 202.04C220.371 208.707 225.471 225.14 221.871 237.54" stroke="#D1D4D8" stroke-width="3" stroke-linecap="round"/>
<path d="M235.871 214.54C236.704 218.207 238.371 227.04 238.371 233.04" stroke="#D1D4D8" stroke-width="3" stroke-linecap="round"/>
<path d="M298.371 179.04L309.871 219.54" stroke="#D1D4D8" stroke-width="3" stroke-linecap="round"/>
<path d="M330.871 197.04L327.371 221.04" stroke="#D1D4D8" stroke-width="3" stroke-linecap="round"/>
<path d="M361.871 214.54L344.371 228.04" stroke="#D1D4D8" stroke-width="3" stroke-linecap="round"/>
<circle cx="15.8711" cy="258.54" r="15.5" fill="#D1D4D8"/>
<path d="M41.3456 259.864C67.567 257.165 108.711 260.357 113.574 280.64C118.437 300.923 99.8673 308.341 89.9747 309.515C52.3112 315.501 2.37109 312.684 2.37109 280.64" stroke="#D1D4D8" stroke-width="3" stroke-linecap="round"/>
<circle cx="31.8711" cy="287.54" r="4" stroke="#D1D4D8" stroke-width="3"/>
<path d="M61.8711 287.54C61.8711 289.629 59.9819 291.54 57.3711 291.54C54.7603 291.54 52.8711 289.629 52.8711 287.54C52.8711 285.451 54.7603 283.54 57.3711 283.54C59.9819 283.54 61.8711 285.451 61.8711 287.54Z" stroke="#D1D4D8" stroke-width="3"/>
<circle cx="82.8711" cy="287.54" r="4" stroke="#D1D4D8" stroke-width="3"/>
<circle cx="450.871" cy="445.54" r="14.5" fill="#D1D4D8"/>
<path d="M474.447 435.04C483.24 435.04 508.367 435.04 520.186 435.04C529.76 435.04 534.369 437.158 534.369 451.982C534.369 466.385 534.251 485.042 534.369 492.572C534.452 497.866 531.816 503.725 523.023 504.572C514.229 505.419 478.937 504.925 462.391 504.572C456.245 504.572 445.371 501.088 445.371 486.925L445.371 471.042" stroke="#D1D4D8" stroke-width="3" stroke-linecap="round"/>
<path d="M468.371 460.04L490.371 475.04" stroke="#D1D4D8" stroke-width="3" stroke-linecap="round"/>
<path d="M490.371 475.04L530.371 438.04" stroke="#D1D4D8" stroke-width="3" stroke-linecap="round"/>
<path d="M460.371 488.04L476.498 466.04M500.51 466.04L522.371 488.04" stroke="#D1D4D8" stroke-width="3" stroke-linecap="round"/>
<path d="M458.126 201.085L406.126 240.585C340.126 291.085 404.625 347.752 428.625 360.585L505.126 311.585" stroke="#D1D4D8" stroke-width="3" stroke-linecap="round"/>
<path d="M236.77 73.2822C244.27 72.2822 260.37 66.5822 264.77 51.7822" stroke="#D1D4D8" stroke-width="3" stroke-linecap="round"/>
<path d="M212.27 61.2822C217.27 61.4489 228.77 58.9822 234.77 47.7822" stroke="#D1D4D8" stroke-width="3" stroke-linecap="round"/>
<path d="M189.77 43.2822C197.77 41.6208 215.17 36.4463 220.77 29.04" stroke="#D1D4D8" stroke-width="3" stroke-linecap="round"/>
<path d="M262.117 98.4283C211.839 109.65 164.963 59.5984 146.363 31.165C145.654 30.0813 146.182 28.6435 147.41 28.2318L226.558 1.68837C227.297 1.44071 228.108 1.6432 228.652 2.20033C255.007 29.1754 303.972 41.0622 329.78 44.3079C331.605 44.5374 332.246 46.9102 330.766 48.0018L262.86 98.089C262.64 98.2517 262.384 98.3686 262.117 98.4283Z" stroke="#D1D4D8" stroke-width="3" stroke-linecap="round"/>
</svg>
