<svg width="516" height="546" viewBox="0 0 516 546" fill="none" xmlns="http://www.w3.org/2000/svg">
<path d="M334.429 445.155C336.237 432.699 350.315 413.515 392.169 436.435" stroke="#D1D4D8" stroke-width="3" stroke-linecap="round"/>
<path d="M364.408 362.244C366.043 351.61 367.223 329.494 358.857 326.106C350.491 322.717 347.271 332.893 346.706 338.405L340.092 377.038" stroke="#D1D4D8" stroke-width="3" stroke-linecap="round"/>
<path d="M380.219 372.424C382.561 363.221 385.933 337.124 376.483 331.803C374.711 330.873 370 329.61 365.335 331.996" stroke="#D1D4D8" stroke-width="3" stroke-linecap="round"/>
<path d="M393.83 364.789C395.924 356.688 399.368 343.788 390.318 343.092L383.221 343.092" stroke="#D1D4D8" stroke-width="3" stroke-linecap="round"/>
<path d="M396.562 351.135C403.167 349.739 404.971 359.854 404.971 364.789C405.931 374.059 404.971 400.983 392.167 436.434C389.887 444.818 386.378 464.672 390.588 477.021" stroke="#D1D4D8" stroke-width="3" stroke-linecap="round"/>
<path d="M319.377 394.933C320.083 400.309 324.089 420.649 331.088 429.422C338.087 438.195 334.477 439.066 334.429 445.154L331.088 504.584" stroke="#D1D4D8" stroke-width="3" stroke-linecap="round"/>
<path d="M340.499 378.54L250.944 439.632C249.523 440.601 247.58 440.18 246.689 438.709C240.819 429.023 233.995 417.772 226.565 405.534C185.468 337.837 125.853 239.957 106.863 209.981C84.4243 174.559 174.688 75.4871 224.536 28.4909C225.693 27.4007 227.464 27.4422 228.615 28.5384L262.019 60.3521" stroke="#D1D4D8" stroke-width="3" stroke-linecap="round"/>
<path d="M226.566 405.534L187.989 451.094C186.724 452.588 184.428 452.542 183.291 450.949C135.294 383.749 37.4416 253.103 3.87481 231.524C2.43775 230.6 1.90889 228.729 2.75446 227.245L106.23 45.5819C106.635 44.8713 107.309 44.3508 108.11 44.1845C120.985 41.5109 151.037 43.1241 178.123 69.717" stroke="#D1D4D8" stroke-width="3" stroke-linecap="round"/>
<path d="M340.5 378.04L307.104 379.905C305.609 379.989 304.29 378.998 303.996 377.529C294.347 329.312 268.877 227.705 239.906 187.188C214.602 151.8 200.069 134.712 194.089 128.656C192.889 127.441 192.752 125.464 193.895 124.196C209.025 107.407 233.635 83.0692 262.021 60.3524C294.408 34.4334 331.711 10.6252 365.457 2.55051C366.771 2.23619 368.117 2.8685 368.746 4.06388L395.764 55.4164" stroke="#D1D4D8" stroke-width="3" stroke-linecap="round"/>
<path d="M407.347 365.324C414.264 359.547 439.62 350.279 486.673 357.881C488.821 358.228 490.66 356.302 490.176 354.181C481.774 317.364 471.586 235.421 491.244 167.902C510.634 101.302 514.594 39.7007 514.174 13.2455C514.141 11.1828 512.056 9.83933 510.135 10.5921L395.763 55.4169L323.618 83.6919C322.46 84.1457 321.701 85.2176 321.715 86.4613C322.303 142.225 328.104 267.597 346.97 339.375" stroke="#D1D4D8" stroke-width="3" stroke-linecap="round"/>
<path d="M388.076 291.04C409.355 283.748 452.403 267.964 454.367 263.165" stroke="#D1D4D8" stroke-width="3" stroke-linecap="round"/>
<path d="M388.077 248.699C387.726 245.405 401.756 237.478 435.427 227.881" stroke="#D1D4D8" stroke-width="3" stroke-linecap="round"/>
<path d="M382.465 209.18C409.005 200.83 463.908 182.223 471.204 174.602" stroke="#D1D4D8" stroke-width="3" stroke-linecap="round"/>
<path d="M377.203 167.545L429.114 145.669" stroke="#D1D4D8" stroke-width="3" stroke-linecap="round"/>
<path d="M377.203 122.734C390.765 114.148 428.552 93.5892 471.203 80.04" stroke="#D1D4D8" stroke-width="3" stroke-linecap="round"/>
<path d="M300.219 164.408L323.394 154.567" stroke="#D1D4D8" stroke-width="3" stroke-linecap="round"/>
<path d="M280.203 134.182L321.638 112.04" stroke="#D1D4D8" stroke-width="3" stroke-linecap="round"/>
<path d="M312.859 196.04L326.203 190.065" stroke="#D1D4D8" stroke-width="3" stroke-linecap="round"/>
<path d="M256.762 318.04L271.203 301.668" stroke="#D1D4D8" stroke-width="3" stroke-linecap="round"/>
<path d="M235.98 288.431C241.029 279.839 253.028 261.539 269.09 254.294" stroke="#D1D4D8" stroke-width="3" stroke-linecap="round"/>
<path d="M208.859 244.54L242.673 206.919" stroke="#D1D4D8" stroke-width="3" stroke-linecap="round"/>
<path d="M184.203 213.538L224.709 171.04" stroke="#D1D4D8" stroke-width="3" stroke-linecap="round"/>
<path d="M97.2031 250.34L118.127 230.04" stroke="#D1D4D8" stroke-width="3" stroke-linecap="round"/>
<path d="M118.127 269.24L134.169 255.24" stroke="#D1D4D8" stroke-width="3" stroke-linecap="round"/>
<path d="M134.17 295.49L150.909 282.54" stroke="#D1D4D8" stroke-width="3" stroke-linecap="round"/>
<path d="M155.443 320.69L168.347 310.54" stroke="#D1D4D8" stroke-width="3" stroke-linecap="round"/>
<path d="M170.438 342.04L180.202 333.64" stroke="#D1D4D8" stroke-width="3" stroke-linecap="round"/>
</svg>
