<svg width="284" height="363" viewBox="0 0 284 363" fill="none" xmlns="http://www.w3.org/2000/svg">
<path d="M159.271 255.155C172.771 254.821 203.919 250.472 216.35 246.328C223.85 243.827 230.15 246.628 229.35 255.828C228.55 265.028 199.85 281.502 176.35 285.328C162.016 287.661 128.15 290.928 107.35 285.328C86.5496 279.728 62.6829 302.328 53.3496 314.328C47.3496 321.828 32.9496 341.728 23.3496 361.328" stroke="#D1D4D8" stroke-width="3" stroke-linecap="round"/>
<path d="M161.35 248.329C176.183 246.162 209.911 239.035 218.85 234.829C227.35 230.829 232.85 234.829 234.35 240.829C234.683 242.495 234.35 246.429 230.35 248.829" stroke="#D1D4D8" stroke-width="3" stroke-linecap="round"/>
<path d="M147.35 234.829C159.35 229.495 185.35 221.029 193.35 229.829" stroke="#D1D4D8" stroke-width="3" stroke-linecap="round"/>
<path d="M156.85 240.829C158.35 239.829 178.85 235.829 198.35 228.329C202.516 226.995 211.35 226.429 213.35 234.829" stroke="#D1D4D8" stroke-width="3" stroke-linecap="round"/>
<path d="M102.85 255.828C124.016 260.662 165.05 266.028 159.85 248.828C154.766 232.014 130.475 230.713 118.177 232.22C117.643 232.286 117.102 232.134 116.671 231.812C83.1273 206.745 37.2287 237.466 19.3496 257.828C12.6829 265.828 9.34961 270.328 2.34961 281.328" stroke="#D1D4D8" stroke-width="3" stroke-linecap="round"/>
<path d="M98.8499 87.4132V87.4132C98.2054 87.4103 97.9231 88.2149 98.4434 88.5952C111.753 98.3229 140.805 114.493 164.554 110.456C164.748 110.423 164.946 110.446 165.126 110.524L187.164 120.084" stroke="#D1D4D8" stroke-width="3" stroke-linecap="round"/>
<path d="M78.3497 51.4043C75.6831 52.2376 70.4498 56.0043 70.8498 64.4043C71.489 75.0602 79.5835 81.7977 83.5508 84.5845C88.5508 87.5845 92.6108 87.3352 96.8496 87.4043V87.4043C97.0031 87.4068 100.819 87.0497 100.965 87.0028C103.707 86.1211 106.789 83.7109 105.85 78.3991" stroke="#D1D4D8" stroke-width="3" stroke-linecap="round"/>
<path d="M87.3497 35.9043C83.5163 37.2376 76.3495 42.2043 78.3495 51.4043C80.3495 60.6043 81.8839 63.2511 82.5506 64.5845C84.9137 69.7046 88.7634 72.6594 90.4721 73.5445C90.5254 73.5721 90.5729 73.6014 90.6213 73.6368C92.9532 75.3424 98.9571 77.6891 105.85 78.3991C107.739 78.5937 113.963 78.762 115.35 78.9043C120.849 78.9043 124.35 76.7843 122.35 68.171" stroke="#D1D4D8" stroke-width="3" stroke-linecap="round"/>
<path d="M96.5448 18.4043C92.8502 18.4043 84.8502 22.4043 87.3502 35.9043C89.3502 46.7043 91.5511 51.5845 94.5511 55.0845C97.5511 58.5845 101.551 62.5845 107.551 64.4043L122.261 68.1484C122.32 68.1634 122.381 68.173 122.442 68.1771L125.628 68.3895C125.774 68.3992 125.92 68.3782 126.055 68.3216C129.074 67.0557 133.87 63.0521 130.35 56.4043" stroke="#D1D4D8" stroke-width="3" stroke-linecap="round"/>
<path d="M218.664 61.585L201.342 53.1441C201.035 52.9949 200.828 52.7096 200.783 52.3721C199.234 40.8344 190.056 17.4185 164.85 11.9047C139.25 6.30474 120.85 3.23807 114.85 2.40474C108.35 1.23807 95.5503 2.20474 96.3503 15.4047C96.4128 16.4368 96.4778 17.4369 96.5447 18.4048C97.3336 29.8161 100.051 33.585 103.551 38.9048C109.156 47.1606 114.945 50.7273 117.551 52.085C122.35 54.585 135.35 60.4048 136.35 47.9048V42.8634" stroke="#D1D4D8" stroke-width="3" stroke-linecap="round"/>
<path d="M164.851 11.9043C157.851 12.4043 134.95 16.0043 123.35 18.4043C111.75 20.8044 114.517 31.071 117.35 35.9043C122.982 43.8819 144.175 42.7573 149.101 39.5577C149.564 39.257 150.212 39.1835 150.651 39.517C163.201 49.0366 166.9 47.9043 183.551 47.9043" stroke="#D1D4D8" stroke-width="3" stroke-linecap="round"/>
<path d="M130.551 64.585L130.35 126.905" stroke="#D1D4D8" stroke-width="3" stroke-linecap="round"/>
<rect x="118.85" y="128.904" width="23" height="13" rx="6.5" stroke="#D1D4D8" stroke-width="3"/>
<path d="M130.35 142.404L130.35 178.404" stroke="#D1D4D8" stroke-width="3" stroke-linecap="round"/>
<path d="M243.679 151.628L186.678 119.628C179.345 106.461 173.978 77.528 207.178 65.1278C237.664 53.7414 266.664 68.085 280.664 76.0852" stroke="#D1D4D8" stroke-width="3" stroke-linecap="round"/>
<path d="M115.85 161.04H128.35C129.454 161.04 130.35 161.935 130.35 163.04V174.04C130.35 175.145 129.454 176.04 128.35 176.04H120.35C119.245 176.04 118.35 175.145 118.35 174.04V172.54C118.35 171.435 119.245 170.54 120.35 170.54H120.6C121.566 170.54 122.35 169.757 122.35 168.79C122.35 167.824 121.566 167.04 120.6 167.04H115.85C114.745 167.04 113.85 166.145 113.85 165.04V163.04C113.85 161.935 114.745 161.04 115.85 161.04Z" fill="#D1D4D8"/>
</svg>
