<svg width="402" height="391" viewBox="0 0 402 391" fill="none" xmlns="http://www.w3.org/2000/svg">
<path d="M100.865 318.894C88.3646 289.54 81.8646 271.54 51.3646 246.894C45.3646 242.54 40.1646 246.194 33.3646 257.394C24.8646 271.394 37.8646 377.894 74.8646 389.394" stroke="#D1D4D8" stroke-width="3" stroke-linecap="round"/>
<path d="M318.365 318.395C321.699 298.061 333.265 254.795 352.865 244.395C372.465 233.995 383.699 249.395 386.865 258.395C394.032 278.228 401.965 327.495 376.365 365.895" stroke="#D1D4D8" stroke-width="3" stroke-linecap="round"/>
<path d="M392.865 190.894C396.032 189.894 401.865 191.294 399.865 204.894C397.365 221.894 387.865 235.894 379.365 245.894" stroke="#D1D4D8" stroke-width="3" stroke-linecap="round"/>
<path d="M382.365 185.394C385.199 183.56 391.265 182.094 392.865 190.894C393.199 193.56 393.165 199.494 390.365 201.894" stroke="#D1D4D8" stroke-width="3" stroke-linecap="round"/>
<path d="M373.365 205.894L372.365 182.894C372.365 181.394 373.365 178.194 377.365 177.394C382.365 176.394 381.865 183.394 382.365 185.394C382.765 186.994 382.532 194.061 382.365 197.394" stroke="#D1D4D8" stroke-width="3" stroke-linecap="round"/>
<path d="M362.717 213.775L363.866 194.894C363.866 192.227 365.566 186.994 372.366 187.394" stroke="#D1D4D8" stroke-width="3" stroke-linecap="round"/>
<path d="M352.865 243.894C349.865 236.394 345.365 219.894 346.365 209.894C346.932 204.222 346.365 198.894 350.865 197.894C357.365 196.45 357.042 205.385 360.365 209.894C361.191 210.72 362.142 212.079 362.716 213.776C363.648 216.532 363.583 220.181 360.365 223.894" stroke="#D1D4D8" stroke-width="3" stroke-linecap="round"/>
<path d="M8.36495 205.394C3.86495 206.727 -2.83506 213.894 6.36494 231.894C15.5649 249.894 28.1983 255.727 33.3649 256.394" stroke="#D1D4D8" stroke-width="3" stroke-linecap="round"/>
<path d="M15.3656 190.894C10.6989 190.394 2.76553 192.594 8.36555 205.394L15.3656 219.394" stroke="#D1D4D8" stroke-width="3" stroke-linecap="round"/>
<path d="M31.3652 186.394C29.4406 183.052 24.8147 179.316 20.8652 180.394C18.3163 181.09 15.7574 183.05 15.3652 190.894C17.3652 196.394 16.3652 198.394 21.3652 204.894" stroke="#D1D4D8" stroke-width="3" stroke-linecap="round"/>
<path d="M41.6372 216.394C38.7131 212.561 39.4601 203.977 41.6372 196.394C44.3647 186.894 36.3648 183.394 31.3648 186.394C27.3648 188.794 29.5315 199.561 30.3648 204.894" stroke="#D1D4D8" stroke-width="3" stroke-linecap="round"/>
<path d="M50.8644 245.895V231.895L54.8643 220.895C56.1976 216.228 56.3643 203.895 48.8644 203.895C42.2629 203.895 41.6367 210.395 41.6367 216.395C41.8455 218.629 42.3355 220.76 42.8644 222.395" stroke="#D1D4D8" stroke-width="3" stroke-linecap="round"/>
<path d="M129.865 82.04C129.865 98.0563 116.881 111.04 100.865 111.04C84.849 111.04 71.8652 98.0563 71.8652 82.04C71.8652 66.0238 84.849 53.04 100.865 53.04C114.26 53.04 125.533 62.1211 128.865 74.4625" stroke="#D1D4D8" stroke-width="3" stroke-linecap="round"/>
<path d="M86.8652 78.04C87.5319 74.04 91.3652 65.34 101.365 62.54" stroke="#D1D4D8" stroke-width="3" stroke-linecap="round"/>
<path d="M237.471 6.73488C253.055 10.4322 262.691 26.0626 258.993 41.6462C255.296 57.2299 239.666 66.8656 224.082 63.1683C208.498 59.4709 198.863 43.8406 202.56 28.2569C205.652 15.2241 217.09 6.35141 229.867 5.95859" stroke="#D1D4D8" stroke-width="3" stroke-linecap="round"/>
<path d="M223.652 47.6495C219.914 46.0774 212.334 40.3392 211.918 29.9629" stroke="#D1D4D8" stroke-width="3" stroke-linecap="round"/>
<path d="M355.905 163.453C340.849 168.914 324.216 161.136 318.754 146.08C313.293 131.024 321.071 114.391 336.127 108.929C351.183 103.468 367.816 111.246 373.278 126.302C377.845 138.894 373.153 152.588 362.687 159.929" stroke="#D1D4D8" stroke-width="3" stroke-linecap="round"/>
<path d="M345.001 121.666C348.989 120.929 358.475 121.566 364.517 130.012" stroke="#D1D4D8" stroke-width="3" stroke-linecap="round"/>
<path d="M61.6662 151.54C59.4995 146.54 58.6662 133.64 72.6662 122.04" stroke="#D1D4D8" stroke-width="3" stroke-linecap="round"/>
<path d="M40.665 159.54C38.8316 150.04 38.965 128.04 54.165 116.04" stroke="#D1D4D8" stroke-width="3" stroke-linecap="round"/>
<path d="M161.865 52.0398C162.199 48.5398 165.665 41.9398 176.865 43.5398" stroke="#D1D4D8" stroke-width="3" stroke-linecap="round"/>
<path d="M150.863 40.54C151.863 36.7067 157.363 28.44 171.363 26.04" stroke="#D1D4D8" stroke-width="3" stroke-linecap="round"/>
<path d="M290.703 63.124C295.407 66.0656 305.124 74.0138 306.365 82.2733" stroke="#D1D4D8" stroke-width="3" stroke-linecap="round"/>
<path d="M299.527 49.0127C307.391 53.9656 324.227 68.1021 328.668 85.0242" stroke="#D1D4D8" stroke-width="3" stroke-linecap="round"/>
</svg>
