<svg width="765" height="480" viewBox="0 0 765 480" fill="none" xmlns="http://www.w3.org/2000/svg">
<path d="M492.677 129.54H438.747L436.203 153.54H494.203L492.677 129.54Z" fill="#D1D4D8"/>
<path d="M497.414 174.54H434.186L431.203 200.54H499.203L497.414 174.54Z" fill="#D1D4D8"/>
<path d="M501.15 222.54H428.624L425.203 250.54H503.203L501.15 222.54Z" fill="#D1D4D8"/>
<path d="M505.302 273.54H421.172L417.203 302.54H491.563L507.203 294.54L505.302 273.54Z" fill="#D1D4D8"/>
<path d="M412.203 345.04L441.203 109.54M492.203 109.54L507.203 292.04" stroke="#D1D4D8" stroke-width="3" stroke-linecap="round"/>
<path d="M431.703 109.54H504.203" stroke="#D1D4D8" stroke-width="3" stroke-linecap="round"/>
<path d="M431.703 64.54H504.203" stroke="#D1D4D8" stroke-width="3" stroke-linecap="round"/>
<path d="M442.203 75.54V94.54" stroke="#D1D4D8" stroke-width="3" stroke-linecap="round"/>
<path d="M491.203 75.54V94.54" stroke="#D1D4D8" stroke-width="3" stroke-linecap="round"/>
<circle cx="468.203" cy="84.54" r="9" fill="#D1D4D8"/>
<rect x="459.203" y="47.54" width="18" height="9" rx="4.5" fill="#D1D4D8"/>
<path d="M387.703 61.04L193.703 2.04004" stroke="#D1D4D8" stroke-width="3" stroke-linecap="round"/>
<path d="M379.203 88.54L21.7031 74.04" stroke="#D1D4D8" stroke-width="3" stroke-linecap="round"/>
<path d="M374.203 108.04L2.20312 222.04" stroke="#D1D4D8" stroke-width="3" stroke-linecap="round"/>
<path d="M393.703 137.54L99.2031 347.54" stroke="#D1D4D8" stroke-width="3" stroke-linecap="round"/>
<path d="M200.203 428.247C218.776 422.578 357.289 384.108 406.768 350.125" stroke="#D1D4D8" stroke-width="3" stroke-linecap="round"/>
<path d="M331.675 423.101C356.047 384.013 386.138 357.908 446.386 326.687C521.696 287.661 538.901 280.811 571.114 232.674" stroke="#D1D4D8" stroke-width="3" stroke-linecap="round"/>
<path d="M571.115 232.674C577.895 246.066 595.133 280.3 607.711 298.617M594.157 291.692C606.904 296.622 633.847 312.836 639.642 338.258C645.437 363.68 668.891 381.928 678.361 392.797" stroke="#D1D4D8" stroke-width="3" stroke-linecap="round"/>
<path d="M597.529 336.209C606.595 350.203 623.567 368.056 677.045 390.294" stroke="#D1D4D8" stroke-width="3" stroke-linecap="round"/>
<path d="M747.283 470.815C731.494 451.513 694.83 408.018 674.479 388.446" stroke="#D1D4D8" stroke-width="3" stroke-linecap="round"/>
<path d="M571.115 232.674C566.492 251.365 558.379 293.413 569.949 317.147" stroke="#D1D4D8" stroke-width="3" stroke-linecap="round"/>
<path d="M562.923 299.249C552.772 304.652 539.831 324.456 570.298 366.482" stroke="#D1D4D8" stroke-width="3" stroke-linecap="round"/>
<path d="M539.466 374.686C547.66 375.537 565.239 375.279 570.002 367.436" stroke="#D1D4D8" stroke-width="3" stroke-linecap="round"/>
<path d="M550.522 453.538L539.465 374.686" stroke="#D1D4D8" stroke-width="3" stroke-linecap="round"/>
</svg>
