<svg width="254" height="283" viewBox="0 0 254 283" fill="none" xmlns="http://www.w3.org/2000/svg">
<path d="M99.7656 266.54C108.432 279.207 131.766 292.54 152.266 265.04" stroke="#D1D4D8" stroke-width="3" stroke-linecap="round"/>
<path d="M95.7656 254.54C105.599 259.873 130.866 267.04 153.266 253.04" stroke="#D1D4D8" stroke-width="3" stroke-linecap="round"/>
<path d="M92.7656 243.04C103.432 249.207 131.366 257.84 157.766 243.04" stroke="#D1D4D8" stroke-width="3" stroke-linecap="round"/>
<path d="M82.7685 193.039C92.4215 203.532 93.0336 216.724 93.1784 227.887C93.2274 231.659 95.4065 235.105 98.9366 236.436C120.155 244.434 140.158 241.162 151.827 236.899C155.805 235.446 157.734 231.24 157.484 227.012C156.412 208.816 163.265 196.338 167.269 192.039C187.669 169.639 201.768 137.539 199.769 118.539C194.351 67.0396 135.767 29.2497 93.2703 56.5363C14.737 106.962 76.77 186.518 82.7685 193.039Z" stroke="#D1D4D8" stroke-width="3" stroke-linecap="round"/>
<path d="M93.7189 166.175C93.4131 155.255 94.0773 129.068 101.169 101.908C101.23 101.672 101.374 101.467 101.578 101.332C114.558 92.7731 134.747 85.1956 145.896 81.5926C146.855 81.2825 147.612 82.4516 146.979 83.2363C133.405 100.055 127.075 122.773 125.164 134.698C125.013 135.635 126.16 136.204 126.882 135.588C137.419 126.608 153.7 122.509 162.592 121.295C163.441 121.179 163.985 122.135 163.492 122.837C140.35 155.77 127.947 188.156 123.69 203.459C123.416 204.444 122.025 204.45 121.779 203.458C117.693 186.975 119 168.377 120.462 159.279C120.586 158.511 119.836 157.884 119.107 158.154L95.0565 167.062C94.4192 167.298 93.738 166.854 93.7189 166.175Z" stroke="#D1D4D8" stroke-width="3" stroke-linecap="round"/>
<path d="M42.2656 207.54L55.2656 197.54" stroke="#D1D4D8" stroke-width="3" stroke-linecap="round"/>
<path d="M42.2656 168.04L15.7656 180.54" stroke="#D1D4D8" stroke-width="3" stroke-linecap="round"/>
<path d="M12.7656 145.04C15.1656 145.04 27.7656 142.04 33.7656 140.54" stroke="#D1D4D8" stroke-width="3" stroke-linecap="round"/>
<path d="M33.7656 117.54L2.26562 114.04" stroke="#D1D4D8" stroke-width="3" stroke-linecap="round"/>
<path d="M37.7656 85.54L15.7656 75.04" stroke="#D1D4D8" stroke-width="3" stroke-linecap="round"/>
<path d="M58.7656 63.04L33.7656 39.04" stroke="#D1D4D8" stroke-width="3" stroke-linecap="round"/>
<path d="M75.7656 47.04L52.7656 8.54004" stroke="#D1D4D8" stroke-width="3" stroke-linecap="round"/>
<path d="M104.266 36.54L98.7656 8.54004" stroke="#D1D4D8" stroke-width="3" stroke-linecap="round"/>
<path d="M137.266 34.04V2.04004" stroke="#D1D4D8" stroke-width="3" stroke-linecap="round"/>
<path d="M169.266 39.04L178.266 21.54" stroke="#D1D4D8" stroke-width="3" stroke-linecap="round"/>
<path d="M198.266 63.04L224.766 39.04" stroke="#D1D4D8" stroke-width="3" stroke-linecap="round"/>
<path d="M218.766 89.04L237.266 83.54" stroke="#D1D4D8" stroke-width="3" stroke-linecap="round"/>
<path d="M218.766 121.54L251.766 117.54" stroke="#D1D4D8" stroke-width="3" stroke-linecap="round"/>
<path d="M221.266 148.04L239.766 153.54" stroke="#D1D4D8" stroke-width="3" stroke-linecap="round"/>
<path d="M212.266 171.04L232.266 182.54" stroke="#D1D4D8" stroke-width="3" stroke-linecap="round"/>
<path d="M198.266 194.04L212.266 207.54" stroke="#D1D4D8" stroke-width="3" stroke-linecap="round"/>
</svg>
