<svg width="298" height="174" viewBox="0 0 298 174" fill="none" xmlns="http://www.w3.org/2000/svg">
<path d="M18.1551 103.371C10.5828 101.955 -4.20658 104.488 4.64772 122.779C11.4008 136.729 21.8378 144.008 24.9082 147.04" stroke="#D1D4D8" stroke-width="3" stroke-linecap="round"/>
<path d="M113.917 121.288C108.32 120.227 97.3886 122.126 103.933 135.844C108.924 146.307 118.139 152.266 120.408 154.54" stroke="#D1D4D8" stroke-width="3" stroke-linecap="round"/>
<path d="M204.917 137.228C199.32 136.424 188.389 137.863 194.933 148.255C199.924 156.182 208.639 160.817 210.908 162.54" stroke="#D1D4D8" stroke-width="3" stroke-linecap="round"/>
<path d="M36.5597 165.212C19.8241 150.993 19.6627 114.831 21.9446 95.7835C22.097 94.5114 23.4049 93.75 24.6246 94.142C40.9439 99.387 60.4374 96.5963 70.2017 93.9849C71.4099 93.6618 72.6468 94.484 72.7847 95.727C77.7217 140.224 65.2048 160.119 58.1804 165.231C58.0967 165.292 58.0159 165.34 57.9228 165.385C53.9943 167.294 44.5338 169.856 36.8281 165.402C36.7332 165.347 36.6432 165.283 36.5597 165.212Z" stroke="#D1D4D8" stroke-width="3" stroke-linecap="round"/>
<path d="M129.563 163.117C112.955 152.899 112.666 127.032 114.891 113.152C115.076 112.004 116.221 111.304 117.352 111.573C133.859 115.49 153.701 113.392 163.438 111.477C164.566 111.255 165.669 112.007 165.839 113.144C170.656 145.307 158.033 159.604 151.059 163.191C147.215 164.579 137.614 166.518 129.816 163.247C129.729 163.21 129.644 163.166 129.563 163.117Z" stroke="#D1D4D8" stroke-width="3" stroke-linecap="round"/>
<path d="M220.685 169.602C204.077 161.752 203.666 141.794 205.844 130.917C206.055 129.862 207.098 129.22 208.156 129.418C224.797 132.532 244.893 130.856 254.606 129.354C255.668 129.19 256.689 129.878 256.888 130.934C261.57 155.769 249.009 166.822 242.059 169.602C238.193 170.687 228.507 172.206 220.685 169.602Z" stroke="#D1D4D8" stroke-width="3" stroke-linecap="round"/>
<ellipse cx="47.4082" cy="93.04" rx="26.5" ry="5" fill="#D1D4D8"/>
<ellipse cx="140.408" cy="111.04" rx="26.5" ry="5" fill="#D1D4D8"/>
<ellipse cx="231.408" cy="128.04" rx="26.5" ry="4" fill="#D1D4D8"/>
<path d="M53.3986 76.04C57.6391 72.0985 63.5759 59.7906 53.3986 42.0916C43.2214 24.3926 54.3562 8.01598 61.1957 2.04004" stroke="#D1D4D8" stroke-width="3" stroke-linecap="round"/>
<path d="M40.6767 58.8752C34.7947 50.4834 25.575 30.038 35.7522 15.3906" stroke="#D1D4D8" stroke-width="3" stroke-linecap="round"/>
<path d="M85.4082 166.041C97.0082 159.641 76.2415 160.873 64.9082 161.04L58.9082 167.041C71.4082 169.541 80.9082 168.041 85.4082 166.041Z" fill="#D1D4D8"/>
<path d="M176.408 165.244C188.008 158.844 167.242 160.076 155.908 160.243L149.908 166.244C162.408 168.744 171.908 167.244 176.408 165.244Z" fill="#D1D4D8"/>
<path d="M267.485 171.196C279.118 166.085 258.292 167.069 246.926 167.202L240.908 171.994C253.444 173.991 262.972 172.793 267.485 171.196Z" fill="#D1D4D8"/>
<path d="M155.99 99.04C153.174 83.9504 144.745 44.2562 121.908 46.54C101.909 48.54 114.197 85.456 148.277 56.756C160.408 46.54 158.786 19.6679 152.909 12.04" stroke="#D1D4D8" stroke-width="3" stroke-linecap="round"/>
<path d="M141.409 99.04L139.668 80.7578C139.539 79.4118 138.136 78.5669 136.843 78.9602C130.485 80.893 119.542 81.9792 111.909 75.04C104.409 68.2067 94.3088 50.94 113.909 36.54" stroke="#D1D4D8" stroke-width="3" stroke-linecap="round"/>
<path d="M213.909 119.04C213.409 113.373 222.009 98.6396 260.409 85.0396C308.409 68.0396 303.409 27.5396 270.409 29.0396" stroke="#D1D4D8" stroke-width="3" stroke-linecap="round"/>
<path d="M218.908 93.54C226.908 84.34 250.242 74.7067 260.908 71.04C271.242 66.7067 288.808 54.74 276.408 41.54" stroke="#D1D4D8" stroke-width="3" stroke-linecap="round"/>
</svg>
