<svg width="630" height="474" viewBox="0 0 630 474" fill="none" xmlns="http://www.w3.org/2000/svg">
<path d="M136.495 262.54C137.809 193.489 176.158 136.037 231.591 127.046C296.317 116.549 359.825 176.098 373.441 260.053C387.057 344.008 345.624 420.577 280.899 431.074C220.36 440.892 160.886 389.432 142.304 314.04" stroke="#D1D4D8" stroke-width="3" stroke-linecap="round"/>
<path d="M172.058 256.04C175.15 206.39 202.539 166.202 241.611 159.865C289.519 152.095 336.849 198.163 347.326 262.76C357.802 327.357 327.458 386.022 279.549 393.792C237.995 400.531 196.877 366.767 179.864 315.54" stroke="#D1D4D8" stroke-width="3" stroke-linecap="round"/>
<ellipse cx="268.689" cy="278.1" rx="44.301" ry="59.7332" transform="rotate(-9.21208 268.689 278.1)" fill="#D1D4D8"/>
<path d="M166.896 413.041C246.896 490.041 335.896 445.041 354.896 396.541C346.435 444.919 289.108 472.366 241.396 473.54C158.563 471.04 114.51 410.54 105.396 390.54C39.1557 245.184 140.063 142.874 190.396 128.541C95.8961 173.041 80.9159 330.284 166.896 413.041Z" fill="#D1D4D8"/>
<path d="M269.096 87.2174L277.055 66.016C277.408 65.0758 278.208 64.3745 279.186 64.1478L338.609 50.3762C341.496 49.707 343.502 53.1848 341.476 55.3488L326.789 71.0402C325.283 72.6494 325.968 75.279 328.068 75.9485L350.904 83.2286C353.595 84.0866 353.717 87.8488 351.087 88.8799L298.199 109.618C297.35 109.951 296.394 109.88 295.604 109.423L270.944 95.1838" stroke="#D1D4D8" stroke-width="3" stroke-linecap="round"/>
<path d="M92.5631 159.073L270.945 95.1838L302.598 83.7631" stroke="#D1D4D8" stroke-width="3" stroke-linecap="round"/>
<path d="M388.563 205.509L525.048 181.925L554.97 176.754" stroke="#D1D4D8" stroke-width="3" stroke-linecap="round"/>
<path d="M524.779 174.472L535.373 156.816C535.887 155.959 536.794 155.415 537.791 155.363L591.54 152.602C594.498 152.45 595.863 156.223 593.492 157.999L578.819 168.993C577.066 170.307 577.265 172.995 579.193 174.035L597.11 183.698C599.581 185.031 599.031 188.725 596.278 189.279L546.826 199.239C545.916 199.423 544.972 199.174 544.27 198.567L525.048 181.925" stroke="#D1D4D8" stroke-width="3" stroke-linecap="round"/>
<path d="M535.782 275.631L549.413 260.198C550.074 259.449 551.065 259.079 552.055 259.21L605.409 266.277C608.346 266.666 609.001 270.624 606.347 271.939L589.917 280.079C587.954 281.051 587.662 283.731 589.368 285.104L605.227 297.867C607.414 299.627 606.201 303.159 603.393 303.203L552.954 303.997C552.026 304.012 551.143 303.596 550.563 302.871L534.691 283.009" stroke="#D1D4D8" stroke-width="3" stroke-linecap="round"/>
<path d="M396.192 281.361L534.691 283.009L565.054 283.371" stroke="#D1D4D8" stroke-width="3" stroke-linecap="round"/>
<path d="M1.56284 316.509L138.048 292.925L167.97 287.754" stroke="#D1D4D8" stroke-width="3" stroke-linecap="round"/>
<path d="M137.779 285.472L148.373 267.816C148.887 266.959 149.794 266.415 150.791 266.363L204.54 263.602C207.498 263.45 208.863 267.223 206.492 268.999L191.819 279.993C190.066 281.307 190.265 283.995 192.193 285.035L210.11 294.698C212.581 296.031 212.031 299.725 209.278 300.279L159.826 310.239C158.916 310.423 157.972 310.174 157.27 309.567L138.048 292.925" stroke="#D1D4D8" stroke-width="3" stroke-linecap="round"/>
</svg>
