<svg width="414" height="282" viewBox="0 0 414 282" fill="none" xmlns="http://www.w3.org/2000/svg">
<path d="M228.83 16.4238C262.03 40.4238 259.997 141.424 254.83 188.924H265.83C281.83 88.9238 262.497 36.5905 250.83 22.9238L228.83 16.4238Z" fill="#D1D4D8"/>
<path d="M345.83 50.4238C378.969 71.0151 376.94 157.67 371.782 198.424H382.762C398.733 112.627 379.435 67.7262 367.79 56.0006L345.83 50.4238Z" fill="#D1D4D8"/>
<path d="M408.83 192.424C414.497 147.59 412.83 66.9238 366.83 54.9238" stroke="#D1D4D8" stroke-width="3" stroke-linecap="round"/>
<path d="M366.83 54.9238L180.33 2.92383" stroke="#D1D4D8" stroke-width="3" stroke-linecap="round"/>
<path d="M410.894 199.864L247.894 189.492C247.317 189.455 246.83 189.912 246.83 190.489V206.98C246.83 207.51 247.244 207.948 247.773 207.978L410.773 217.363C411.347 217.396 411.83 216.939 411.83 216.365V200.862C411.83 200.335 411.42 199.898 410.894 199.864Z" stroke="#D1D4D8" stroke-width="3" stroke-linecap="round"/>
<path d="M294.83 211.424V280.424" stroke="#D1D4D8" stroke-width="3" stroke-linecap="round"/>
<path d="M261.83 209.923V257.423" stroke="#D1D4D8" stroke-width="3" stroke-linecap="round"/>
<path d="M12.3371 235.853C34.3076 251.346 178.51 211.189 245.83 189.924L108.33 195.424C62.2768 201.12 -9.63337 220.36 12.3371 235.853Z" fill="#D1D4D8" stroke="#D1D4D8" stroke-width="3" stroke-linecap="round"/>
<path d="M246.83 206.424C208.216 226.644 107.819 267.706 16.8301 259.307" stroke="#D1D4D8" stroke-width="3" stroke-linecap="round"/>
<path d="M16.8301 258.924L8.83008 232.424" stroke="#D1D4D8" stroke-width="3" stroke-linecap="round"/>
<path d="M227.33 185.923C234.997 119.59 232.83 -9.87656 162.83 2.92344C148.163 5.42341 116.83 21.8233 108.83 67.4233" stroke="#D1D4D8" stroke-width="3" stroke-linecap="round"/>
<path d="M109.457 64.1357C118.35 21.0309 148.521 5.36238 162.83 2.92344C199.875 -3.85047 217.922 29.2196 225.568 71.6905C225.91 73.5938 224.362 75.2974 222.432 75.1659L112.157 67.6501C110.379 67.5289 109.097 65.8809 109.457 64.1357Z" fill="#D1D4D8"/>
<path d="M109.002 194.04L166.331 133.152" stroke="#D1D4D8" stroke-width="3" stroke-linecap="round"/>
<path d="M87.002 68.54L166.331 133.152L192.867 154.819C194.001 155.745 195.638 155.718 196.74 154.754L229.002 126.54" stroke="#D1D4D8" stroke-width="3" stroke-linecap="round"/>
<path d="M88.6961 67.6104L221.562 76.3071C222.653 76.3785 223.621 77.0201 224.033 78.0327C233.17 100.469 230.705 156.131 228.075 184.029C227.938 185.483 226.765 186.615 225.308 186.717L110.391 194.778C109.15 194.865 107.985 194.187 107.478 193.051C97.676 171.076 81.0392 119.211 85.5427 70.2797C85.6898 68.6805 87.0935 67.5055 88.6961 67.6104Z" stroke="#D1D4D8" stroke-width="3" stroke-linecap="round"/>
<path d="M90.8301 141.423C71.8277 141.423 70.4196 140.046 51.4253 136.853C49.946 136.604 48.5143 137.484 47.9756 138.884C41.4975 155.721 18.6791 183.72 5.32976 159.923C1.49643 153.09 -2.37024 133.423 12.8298 109.423C27.6919 85.9567 42.4903 96.5889 48.438 105.33C48.7023 105.719 48.8566 106.166 48.8968 106.635C49.5315 114.04 48.6873 126.401 43.2277 136.423C40.1185 142.131 35.5124 147.08 28.8301 149.923C10.0298 157.923 9.83008 136.423 15.8301 124.923C18.83 118.423 24.3301 112.423 32.3301 118.423C38.8301 124.423 33.3301 130.923 29.8301 135.423" stroke="#D1D4D8" stroke-width="3" stroke-linecap="round"/>
<path d="M19.3301 169.043L100.33 176.924" stroke="#D1D4D8" stroke-width="3" stroke-linecap="round"/>
<path d="M85.3304 105.923C66.8304 105.923 67.3304 105.923 36.8301 95.9229" stroke="#D1D4D8" stroke-width="3" stroke-linecap="round"/>
<path d="M29.8301 135.424L43.2277 136.424" stroke="#D1D4D8" stroke-width="3" stroke-linecap="round"/>
</svg>
