<svg width="317" height="236" viewBox="0 0 317 236" fill="none" xmlns="http://www.w3.org/2000/svg">
<path fill-rule="evenodd" clip-rule="evenodd" d="M67.0996 133.412C54.2586 140.103 32.8606 163.274 37.4348 210.54C37.7681 216.707 39.4346 232.04 63.9346 233.04H104.435C116.435 233.04 129.935 229.54 130.935 210.54C133.372 186.165 126.588 146.96 101.407 133.522C100.128 132.839 98.6834 132.54 97.2332 132.54H70.979C69.6302 132.54 68.2958 132.788 67.0996 133.412ZM82.4395 169.256V166.04C82.4395 165.212 83.111 164.54 83.9395 164.54C84.7679 164.54 85.4395 165.212 85.4395 166.04V169.236C88.2289 169.486 90.9837 170.401 92.9022 171.366C93.6423 171.738 93.9408 172.639 93.5687 173.38C93.1967 174.12 92.2951 174.418 91.5549 174.046C89.6177 173.072 86.6723 172.168 83.9814 172.17C83.9675 172.17 83.9535 172.171 83.9395 172.171C83.9294 172.171 83.9194 172.17 83.9094 172.17C82.3043 172.181 80.9234 172.517 79.8979 173.222C78.9104 173.9 78.1015 175.021 77.7958 176.942C77.6101 178.108 77.8221 179.025 78.2666 179.81C78.7296 180.627 79.4888 181.374 80.5011 182.082C81.5117 182.789 82.7011 183.407 83.9511 183.998C84.4095 184.214 84.8946 184.435 85.38 184.657C86.1539 185.01 86.9286 185.363 87.5973 185.699C90.9266 187.373 92.7941 189.906 93.1564 192.616C93.5163 195.309 92.3468 197.912 90.1476 199.57C88.6862 200.672 87.0759 201.374 85.4395 201.759V205.04C85.4395 205.868 84.7679 206.54 83.9395 206.54C83.111 206.54 82.4395 205.868 82.4395 205.04V202.129C80.0052 202.174 77.639 201.627 75.6909 200.737C74.9374 200.392 74.6058 199.502 74.9502 198.749C75.2946 197.996 76.1846 197.664 76.938 198.008C78.8623 198.888 81.3174 199.351 83.7143 199.029C83.7282 199.027 83.7422 199.025 83.7563 199.024C85.3827 198.799 86.9613 198.216 88.3414 197.175C89.7354 196.124 90.3897 194.561 90.1829 193.014C89.9785 191.485 88.889 189.706 86.2499 188.379C85.6147 188.06 84.9493 187.757 84.2304 187.43L84.2303 187.43L84.2302 187.43C83.7375 187.206 83.2195 186.97 82.6689 186.71C81.3755 186.098 80.0032 185.395 78.7817 184.54C77.5619 183.687 76.4186 182.633 75.6566 181.289C74.8761 179.912 74.5407 178.307 74.8331 176.47C75.2523 173.836 76.4556 171.947 78.1995 170.749C79.4724 169.875 80.9467 169.428 82.4395 169.256Z" fill="#D1D4D8"/>
<rect x="64.9355" y="120.54" width="37" height="10" rx="5" stroke="#D1D4D8" stroke-width="3"/>
<rect x="128.229" y="53.04" width="60" height="12" rx="6" fill="#D1D4D8"/>
<path d="M68.9355 115.54L57.9355 95.54" stroke="#D1D4D8" stroke-width="3" stroke-linecap="round"/>
<path d="M98.9355 115.54L109.436 95.04" stroke="#D1D4D8" stroke-width="3" stroke-linecap="round"/>
<path d="M57.4355 95.04C60.7689 95.7067 68.1355 95.94 70.9355 91.54C73.7355 87.14 77.4355 88.3734 78.9355 89.54L83.4355 93.54" stroke="#D1D4D8" stroke-width="3" stroke-linecap="round"/>
<path d="M109.436 94.6377C106.102 95.3044 98.7355 95.5377 95.9355 91.1377C93.1355 86.7377 89.4355 87.971 87.9355 89.1377L83.4355 93.54" stroke="#D1D4D8" stroke-width="3" stroke-linecap="round"/>
<path d="M131.936 50.04L113.436 14.54" stroke="#D1D4D8" stroke-width="3" stroke-linecap="round"/>
<path d="M185.436 50.04L203.436 14.04" stroke="#D1D4D8" stroke-width="3" stroke-linecap="round"/>
<path d="M113.436 14.4029C119.205 15.551 131.955 15.9529 136.801 8.37498C141.647 0.79705 148.051 2.92117 150.647 4.93046L158.436 11.8195" stroke="#D1D4D8" stroke-width="3" stroke-linecap="round"/>
<path d="M203.436 13.4029C197.666 14.551 184.916 14.9529 180.07 7.37498C175.224 -0.20295 168.82 1.92117 166.224 3.93046L158.436 11.5124" stroke="#D1D4D8" stroke-width="3" stroke-linecap="round"/>
<rect x="2.26227" y="226.346" width="49.2945" height="13.8004" rx="6.90019" transform="rotate(-61.5197 2.26227 226.346)" stroke="#D1D4D8" stroke-width="3"/>
<rect x="206.936" y="186.54" width="49.2945" height="13.8004" rx="6.90019" stroke="#D1D4D8" stroke-width="3"/>
<rect x="213.936" y="203.54" width="49.2945" height="13.8004" rx="6.90019" stroke="#D1D4D8" stroke-width="3"/>
<rect x="206.936" y="220.54" width="49.2945" height="13.8004" rx="6.90019" stroke="#D1D4D8" stroke-width="3"/>
<rect x="257.936" y="220.54" width="49.2945" height="13.8004" rx="6.90019" stroke="#D1D4D8" stroke-width="3"/>
<rect x="265.936" y="205.54" width="49.2945" height="13.8004" rx="6.90019" stroke="#D1D4D8" stroke-width="3"/>
<rect x="258.936" y="189.54" width="49.2945" height="13.8004" rx="6.90019" stroke="#D1D4D8" stroke-width="3"/>
<rect x="249.936" y="172.54" width="49.2945" height="13.8004" rx="6.90019" stroke="#D1D4D8" stroke-width="3"/>
<rect x="254.936" y="155.54" width="49.2945" height="13.8004" rx="6.90019" stroke="#D1D4D8" stroke-width="3"/>
<path d="M114.729 87.04C120.729 79.2067 125.936 72.54 136.436 69.04H181.436C200.769 79.2067 232.229 110.04 230.229 175.54" stroke="#D1D4D8" stroke-width="3" stroke-linecap="round"/>
<path d="M130.229 230.04H199.729" stroke="#D1D4D8" stroke-width="3" stroke-linecap="round"/>
<path d="M158.936 174.75V181.54" stroke="#D1D4D8" stroke-width="3" stroke-linecap="round"/>
<path d="M158.936 129.986V123.04" stroke="#D1D4D8" stroke-width="3" stroke-linecap="round"/>
<path d="M171.434 133.039C168.26 131.452 163.441 129.968 158.935 129.986C153.504 130.006 148.527 132.208 147.434 139.039C145.992 148.049 156.923 151.284 163.434 154.539C172.435 159.04 172.353 167.476 166.934 171.54C164.497 173.367 161.73 174.37 158.935 174.749C154.848 175.303 150.7 174.524 147.434 173.039" stroke="#D1D4D8" stroke-width="3" stroke-linecap="round"/>
</svg>
