<svg width="428" height="298" viewBox="0 0 428 298" fill="none" xmlns="http://www.w3.org/2000/svg">
<path d="M52.2305 2.04004L136.23 71.04" stroke="#D1D4D8" stroke-width="3" stroke-linecap="round"/>
<path d="M78.7305 80.04L116.23 98.04" stroke="#D1D4D8" stroke-width="3" stroke-linecap="round"/>
<path d="M2.23047 130.54C43.2355 130.54 66.2254 130.54 107.23 130.54" stroke="#D1D4D8" stroke-width="3" stroke-linecap="round"/>
<path d="M75.2305 184.54L116.23 172.04" stroke="#D1D4D8" stroke-width="3" stroke-linecap="round"/>
<path d="M30.7305 259.04L136.23 201.04" stroke="#D1D4D8" stroke-width="3" stroke-linecap="round"/>
<path d="M269.23 134.04C269.23 157.307 264.012 178.298 255.652 193.418C247.262 208.591 235.913 217.54 223.73 217.54C211.548 217.54 200.199 208.591 191.809 193.418C183.448 178.298 178.23 157.307 178.23 134.04C178.23 110.773 183.448 89.7822 191.809 74.6618C200.199 59.4891 211.548 50.54 223.73 50.54C235.913 50.54 247.262 59.4891 255.652 74.6618C264.012 89.7822 269.23 110.773 269.23 134.04Z" stroke="#D1D4D8" stroke-width="3"/>
<ellipse cx="219.73" cy="134.04" rx="8" ry="15" fill="#D1D4D8"/>
<path d="M406.73 149.04C409.93 139.44 408.064 125.373 406.73 119.54L422.23 125.04C428.63 132.64 424.897 140.207 422.23 143.04L406.73 149.04Z" fill="#D1D4D8"/>
<path d="M422.23 125.04L232.5 53.04" stroke="#D1D4D8" stroke-width="3" stroke-linecap="round"/>
<path d="M237.23 212.54L422.23 143.04" stroke="#D1D4D8" stroke-width="3" stroke-linecap="round"/>
<path d="M219.23 146.04L265.23 162.54" stroke="#D1D4D8" stroke-width="3" stroke-linecap="round"/>
<path d="M219.23 122.04L265.23 107.54" stroke="#D1D4D8" stroke-width="3" stroke-linecap="round"/>
<path d="M341.231 271.54C329.731 274.54 320.731 270.04 319.231 267.54C318.791 270.734 316.869 281.122 318.731 288.04C319.688 291.592 322.517 293.862 325.231 294.54C327.97 295.225 331.909 294.526 334.231 291.54C338.694 285.801 340.683 274.829 341.231 271.54Z" fill="#D1D4D8"/>
<path d="M328.231 179.04L318.731 270.04C318.02 280.54 314.231 292.04 324.231 295.04C336.441 298.703 337.731 287.54 340.231 276.04L350.731 221.04L360.731 166.54" stroke="#D1D4D8" stroke-width="3" stroke-linecap="round"/>
<path d="M422.23 125.04C424.73 127.873 428.23 135.44 422.23 143.04" stroke="#D1D4D8" stroke-width="3" stroke-linecap="round"/>
<path d="M405.73 119.04C407.564 124.873 409.23 138.04 405.73 149.04" stroke="#D1D4D8" stroke-width="3" stroke-linecap="round"/>
</svg>
