<svg width="279" height="258" viewBox="0 0 279 258" fill="none" xmlns="http://www.w3.org/2000/svg">
<path d="M91.9639 16.0965C116.605 3.4263 144.713 -0.837981 172.003 3.9539C199.293 8.7458 224.267 22.3309 243.118 42.6378C261.968 62.9447 273.66 88.8592 276.411 116.43C279.163 144 272.822 171.714 258.356 195.346C243.89 218.977 222.093 237.229 196.288 247.319C170.483 257.41 142.086 258.784 115.428 251.233C88.7689 243.682 65.3111 227.619 48.6309 205.495C31.9507 183.371 22.9634 156.399 23.0395 128.692L150.039 129.04L91.9639 16.0965Z" stroke="#D1D4D8" stroke-width="3"/>
<path d="M0.0390625 115.04C0.0390645 92.0798 6.38796 69.5709 18.3784 50.0205C30.3689 30.4701 47.53 14.6461 67.9498 4.31152L123.539 115.04H0.0390625Z" fill="#D1D4D8"/>
</svg>
