<svg width="309" height="130" viewBox="0 0 309 130" fill="none" xmlns="http://www.w3.org/2000/svg">
<path d="M2.30469 75.0131C28.8263 80.4526 16.3901 116.96 35.8284 126.675C59.0293 138.271 67.0183 72.9822 63.9994 45.2704C63.1342 33.1198 48.984 27.7153 47.0751 45.2704C45.0475 63.9179 68.1894 136.228 94.7112 108.325L112.42 87.8394C117.34 81.7774 127.04 73.3555 135.237 87.8394C143.434 102.323 156.496 97.5366 162.002 93.3327L179.305 80.7492" stroke="#D1D4D8" stroke-width="3" stroke-linecap="round"/>
<path d="M166.699 25.0654L305.133 1.61508C306.12 1.44787 306.713 2.67412 305.969 3.34411L241.432 61.465C241.359 61.5315 241.282 61.585 241.19 61.6229C235.577 63.9323 213.475 55.1714 202.065 50.0367C201.504 49.7843 200.849 50.0901 200.681 50.6821C197.947 60.3255 194.598 69.2753 192.96 73.2978C192.783 73.7326 192.3 73.9866 191.944 73.6807C188.631 70.8345 188.216 52.6574 188.459 42.6C188.471 42.0865 188.096 41.6503 187.59 41.5599C179.115 40.0455 167.45 32.4793 162.527 28.7616" stroke="#D1D4D8" stroke-width="3" stroke-linecap="round"/>
<path d="M201.527 50.04C216.043 43.1594 252.766 25.9265 283.527 12.04" stroke="#D1D4D8" stroke-width="3" stroke-linecap="round"/>
<path d="M192.527 74.04L219.527 58.04" stroke="#D1D4D8" stroke-width="3" stroke-linecap="round"/>
<path d="M198.527 36.04L235.527 24.04" stroke="#D1D4D8" stroke-width="3" stroke-linecap="round"/>
</svg>
