<svg width="160" height="255" viewBox="0 0 160 255" fill="none" xmlns="http://www.w3.org/2000/svg">
<path d="M23.3027 202.049C31.2595 186.498 59.3106 164.215 107.86 199.491" stroke="#D1D4D8" stroke-width="3" stroke-linecap="round"/>
<path d="M111.025 129.549C116.807 131.012 125.563 138.853 115.586 158.55C115.083 159.543 114.713 160.606 114.533 161.705C112.859 171.943 110.263 187.085 107.86 199.491C105.799 210.13 103.879 218.756 102.803 220.549" stroke="#D1D4D8" stroke-width="3" stroke-linecap="round"/>
<path d="M96.4746 119.548C102.551 118.852 112.375 120.225 111.025 129.548C110.759 131.389 110.056 133.541 108.803 136.048" stroke="#D1D4D8" stroke-width="3" stroke-linecap="round"/>
<path d="M81.3867 104.049C87.764 105.52 97.7245 110.429 96.4757 119.549C96.1687 121.791 95.1846 124.287 93.3037 127.049" stroke="#D1D4D8" stroke-width="3" stroke-linecap="round"/>
<path d="M45.3027 119.548C50.8027 104.382 67.4027 73.0484 89.8027 69.0484C112.203 65.0484 99.1361 83.7151 89.8027 93.5484C87.638 95.6299 84.3171 99.4249 81.3857 104.048C78.449 108.68 75.9033 114.144 75.3027 119.548" stroke="#D1D4D8" stroke-width="3" stroke-linecap="round"/>
<path d="M51.8024 102.048C41.8024 100.215 22.1024 102.648 23.3024 127.048C24.8024 157.548 29.8021 176.548 23.3024 202.048C18.1027 222.448 12.1361 244.215 9.80273 252.548" stroke="#D1D4D8" stroke-width="3" stroke-linecap="round"/>
<circle cx="113.803" cy="47.4951" r="27" fill="#D1D4D8"/>
<path d="M94.2656 91.04H113.266C137.842 91.04 157.766 71.1167 157.766 46.54V46.54C157.766 21.9634 137.842 2.04004 113.266 2.04004H46.2656C21.689 2.04004 1.76562 21.9634 1.76562 46.54V46.54C1.76562 71.1167 21.689 91.04 46.2656 91.04H59.6366" stroke="#D1D4D8" stroke-width="3" stroke-linecap="round"/>
</svg>
