<svg width="585" height="631" viewBox="0 0 585 631" fill="none" xmlns="http://www.w3.org/2000/svg">
<path fill-rule="evenodd" clip-rule="evenodd" d="M269.645 13.1543L273.453 14.4828C275.75 15.2843 276.994 17.7664 276.262 20.0865L269.806 40.5325C274.731 42.0102 278.67 43.7958 281.451 45.4475L286.255 37.2892L280.63 34.4117C280.052 34.1159 279.638 33.6258 279.427 33.0618C279.318 33.2174 279.211 33.3764 279.106 33.5391C278.359 34.7001 276.812 35.0355 275.651 34.2882C274.49 33.5409 274.154 31.9939 274.901 30.8329C277.902 26.1704 282.339 23.7483 286.719 22.6306C290.933 21.5549 295.199 21.6527 298.425 22.1379L300.348 9.15693C293.703 5.01721 287.185 4.90244 281.616 6.47146C276.565 7.89489 272.321 10.7064 269.645 13.1543ZM282.649 29.8457C284.253 28.7178 286.063 27.9582 287.955 27.4753C291.475 26.5769 295.159 26.6749 297.93 27.121C300.337 27.5084 302.913 25.963 303.313 23.264L305.346 9.53915C305.594 7.86547 304.878 6.12074 303.373 5.15458C295.23 -0.0763965 287.072 -0.260416 280.26 1.65887C273.533 3.55451 268.089 7.49855 265.038 10.6636C264.831 10.8784 264.67 11.1207 264.555 11.3782L249.454 6.10944C247.489 5.42381 245.31 6.17519 244.185 7.92634L239.846 14.6819L212.766 10.1201C211.218 9.85935 209.646 10.4239 208.618 11.6098L192.875 29.7684L187.497 30.1636L182.15 25.3843C180.447 23.8625 177.875 23.8573 176.166 25.3722L174.636 26.7281L172.142 19.8671C171.499 18.0972 169.775 16.8336 167.765 16.9395C161.602 17.2639 149.427 19.2469 141.096 25.6709C140.003 26.514 139.8 28.0838 140.643 29.1772C141.486 30.2706 143.056 30.4736 144.149 29.6305C151.091 24.2777 161.657 22.3365 167.582 21.9585L170.613 30.295L163.778 36.3549L155.976 28.8599C154.832 27.7608 153.194 27.3453 151.664 27.7664L121.138 36.1696C117.977 37.04 116.778 40.8911 118.887 43.4023L119.094 43.6489C116.624 42.8603 113.696 42.1122 110.686 41.6638C105.994 40.9648 100.58 40.9122 96.45 43.113C95.1967 43.7808 94.4134 45.0179 94.2726 46.3627C93.7884 50.9851 94.6205 60.298 101.34 68.0531C101.37 68.0872 101.4 68.1204 101.431 68.1526L92.7821 71.4721C91.8845 71.8167 91.1208 72.4396 90.6029 73.2497L79.6982 90.3091C78.3136 92.4753 79.022 95.3593 81.2528 96.6373L88.4803 100.778C87.9548 100.806 87.4338 101 87.001 101.366C81.1489 106.319 76.4523 114.632 73.9797 119.909C72.4625 123.147 75.156 126.377 78.3313 126.191C79.0324 126.149 79.724 126.115 80.4063 126.088C80.3111 126.162 80.2201 126.245 80.1342 126.335L69.3044 137.709C67.2098 139.908 67.8515 143.509 70.5771 144.85L85.5678 152.223C87.6526 153.249 90.0215 152.502 91.2722 150.774C91.7811 151.296 92.5128 151.592 93.2953 151.52L118.802 149.146C121.115 148.931 122.885 146.99 122.885 144.666V135.367C122.885 134.96 122.787 134.576 122.615 134.236C122.948 134.045 123.266 133.804 123.561 133.512L131.759 125.369C134.95 129.624 138.406 131.906 140.623 132.771C141.431 133.087 142.256 133.107 142.983 132.951C144.676 132.588 147.137 131.85 149.616 130.678C152.07 129.518 154.738 127.84 156.635 125.505C157.581 124.34 158.785 123.498 160.038 122.904C159.632 123.808 159.79 124.908 160.52 125.665L167.006 132.384C167.183 132.567 167.369 132.729 167.561 132.872C166.771 132.822 165.969 133.148 165.441 133.817L144.911 159.786L117.649 151.097C116.334 150.678 114.927 151.404 114.508 152.72C114.089 154.035 114.815 155.441 116.131 155.861L143.722 164.655C145.507 165.224 147.457 164.628 148.619 163.159L159.256 149.703C159.046 150.56 159.296 151.502 159.991 152.141C163.211 155.104 168.705 157.997 174.195 160.601C176.894 161.881 179.55 163.074 182.072 164.206C184.936 165.492 187.627 166.7 190.009 167.87C192.677 169.18 195.547 167.635 196.595 165.42C198.18 162.068 201.717 158.046 205.819 154.216C209.86 150.444 214.205 147.081 217.122 145.043C217.736 144.614 218.098 143.959 218.175 143.269H239.528C239.084 143.785 238.851 144.48 238.942 145.21C239.128 146.694 239.915 148.917 241.665 150.829C241.72 150.889 241.793 150.999 241.851 151.156C241.902 151.293 241.926 151.427 241.93 151.534C241.78 151.605 241.628 151.676 241.475 151.748C238.495 153.148 234.814 154.878 231.392 156.955C227.72 159.185 224.059 161.979 221.838 165.487C221.099 166.653 221.446 168.198 222.613 168.936C223.779 169.675 225.324 169.328 226.062 168.162C227.659 165.64 230.522 163.333 233.987 161.229C237.171 159.297 240.62 157.675 243.634 156.258C243.868 156.148 244.099 156.039 244.328 155.932C246.263 155.02 246.911 153.132 246.93 151.644C246.949 150.173 246.405 148.602 245.354 147.454C244.358 146.366 243.971 145.129 243.904 144.59C243.84 144.082 243.629 143.629 243.318 143.269H245.87C246.655 143.269 247.355 142.907 247.814 142.342C247.963 142.891 248.124 143.434 248.295 143.97C249.039 146.289 251.457 147.445 253.657 146.848C259.364 145.3 267.196 143.013 274.502 140.553C274.834 143.976 276.105 148.4 279.332 152.317C276.311 153.645 272.546 155.39 269.094 157.479C265.565 159.615 262.035 162.302 260.093 165.538C259.383 166.722 259.767 168.258 260.951 168.968C262.135 169.678 263.671 169.294 264.381 168.11C265.67 165.962 268.315 163.796 271.683 161.756C274.984 159.758 278.669 158.063 281.711 156.734C284.876 155.351 285.135 151.447 283.301 149.27C280.269 145.669 279.444 141.449 279.407 138.843C280.591 138.414 281.745 137.982 282.854 137.552L297.822 156.772C299.459 158.875 302.493 159.075 304.426 157.365C308.189 154.036 314.021 149.554 320.281 146.11C320.365 147.899 320.633 150.294 321.201 152.814C321.904 155.931 323.116 159.461 325.185 162.27C326.004 163.382 327.569 163.619 328.681 162.8C329.792 161.981 330.03 160.416 329.211 159.304C327.722 157.284 326.71 154.511 326.079 151.713C325.453 148.941 325.25 146.362 325.25 144.9C325.25 144.495 325.154 144.113 324.984 143.775C325.437 143.576 325.89 143.385 326.342 143.203C326.565 144.235 327.43 145.052 328.538 145.163C332.425 145.552 335.851 148.121 338.392 151.047C339.801 152.67 341.977 152.92 343.495 152.748C345.035 152.573 346.989 151.849 348.081 150.186C350.439 146.593 354.436 143.869 357.884 142.203C359.444 141.449 360.302 140.001 360.567 138.615C360.831 137.234 360.57 135.626 359.542 134.355C355.363 129.189 355.134 121.781 355.714 118.302C355.941 116.94 355.021 115.652 353.659 115.425C353.572 115.411 353.485 115.401 353.398 115.395L356.051 111.376C357.206 109.625 356.983 107.356 355.631 105.844C354.672 104.77 353.501 103.391 352.45 102.012C351.371 100.595 350.53 99.3211 350.124 98.4274C348.449 94.7427 344.334 87.747 335.14 87.747C332.451 87.747 330.635 87.1753 329.493 86.5721C329.422 86.5349 329.354 86.4975 329.289 86.4601C331.484 84.5483 333.388 82.8689 334.774 81.6352C336.214 80.3547 336.714 78.2475 335.851 76.4267C334.233 73.0127 331.608 68.4904 328.406 65.0185C326.503 62.9543 324.084 60.9365 321.339 60.039C323.637 59.0996 326.34 58.3429 329.513 57.8675C332.771 57.3792 334.92 53.3271 332.334 50.4223C328.204 45.7832 322.177 40.0267 315.511 35.7198C309.534 31.8578 302.64 28.9008 295.988 29.4568C295.869 28.7557 295.453 28.1099 294.792 27.7207C293.602 27.02 292.07 27.4165 291.369 28.6062L288.797 32.9732L282.907 29.9603C282.822 29.9168 282.736 29.8787 282.649 29.8457ZM293.67 34.5528L283.25 52.2449L295.546 59.9616C297.781 61.3642 298.335 64.3801 296.745 66.4856L295.877 67.6344C297.61 67.9525 299.536 68.375 301.338 68.8963C301.334 68.895 301.332 68.8942 301.332 68.8937C301.333 68.8886 301.548 68.9135 302.052 68.8104C302.592 68.7003 303.246 68.4884 303.911 68.1984C304.576 67.9085 305.181 67.5716 305.637 67.2479C306.079 66.9341 306.216 66.7497 306.22 66.7525C306.221 66.753 306.218 66.7588 306.212 66.7703C309.27 61.0009 315.844 55.0752 327.972 53.0494C324.071 48.7666 318.651 43.7015 312.798 39.9194C306.533 35.8717 300.256 33.6058 294.955 34.6398C294.51 34.7266 294.07 34.6896 293.67 34.5528ZM290.136 75.234L280.092 88.5305C280.493 88.9551 280.748 89.5214 280.773 90.1509C280.845 92.0347 280.297 94.7385 278.532 97.1891C276.712 99.7161 273.701 101.83 269.142 102.565C267.73 102.793 265.873 103.545 263.672 104.801C261.506 106.037 259.163 107.669 256.809 109.497C254.869 111.002 252.948 112.621 251.141 114.225C251.69 114.78 251.972 115.583 251.828 116.411C250.976 121.334 250.158 132.81 252.881 141.877C259.365 140.107 268.371 137.444 276.171 134.69C278.511 133.864 280.731 133.033 282.735 132.22C285.014 131.295 286.978 130.407 288.507 129.587C290.108 128.728 290.984 128.072 291.325 127.682C291.665 127.294 291.979 126.939 292.269 126.612C294.324 124.286 295.163 123.336 295.59 121.683C296.085 119.77 296.003 116.826 295.049 110.289C293.613 110.779 292.056 111.26 290.374 111.722C287.1 112.623 284.777 113.805 283.153 114.991C282.252 115.649 281.104 115.956 280.165 116.111C279.153 116.278 278.039 116.323 276.972 116.251C275.916 116.18 274.79 115.989 273.791 115.614C272.885 115.273 271.594 114.598 270.944 113.238L267.759 106.577C267.164 105.332 267.69 103.839 268.936 103.243C270.182 102.648 271.674 103.175 272.27 104.42L275.342 110.844C275.39 110.868 275.457 110.898 275.549 110.933C275.957 111.086 276.571 111.213 277.306 111.262C278.028 111.311 278.754 111.276 279.35 111.178C279.881 111.09 280.133 110.981 280.195 110.954C280.211 110.947 280.214 110.946 280.205 110.952C282.387 109.359 285.279 107.938 289.048 106.901C295.238 105.199 299.492 103.267 302.064 101.791C298.937 99.0108 296.479 94.461 294.616 89.9258C292.529 84.8425 291.015 79.336 290.136 75.234ZM275.24 110.785C275.241 110.785 275.245 110.788 275.252 110.794C275.244 110.788 275.24 110.785 275.24 110.785ZM299.831 108.46C300.242 111.171 300.546 113.459 300.719 115.427C301.026 115.374 301.348 115.377 301.672 115.447C303.659 115.873 306.113 116.96 308.668 118.308C310.731 119.397 312.98 120.722 315.285 122.166C318.391 118.695 323.287 113.843 327.611 111.376C327.61 111.376 327.618 111.372 327.631 111.361C327.641 111.354 327.653 111.343 327.669 111.329C327.706 111.294 327.753 111.243 327.803 111.174C327.906 111.032 327.994 110.854 328.047 110.673C328.086 110.542 328.097 110.443 328.098 110.381L316.749 97.0972C314.687 98.6275 312.496 99.3824 310.291 99.4977C308.915 99.5697 307.587 99.3905 306.331 99.044C306.896 99.8067 307.259 100.719 307.335 101.671C307.45 103.104 306.889 104.715 305.334 105.666C303.949 106.513 302.124 107.474 299.831 108.46ZM299.127 87.7463C300.602 89.722 303.086 92.1947 305.871 93.5408C307.293 94.2278 308.695 94.5744 310.03 94.5046C311.328 94.4366 312.718 93.9691 314.167 92.7696C317.476 90.0307 320.914 87.0992 323.974 84.4522C326.838 81.9747 329.367 79.7506 331.143 78.1732C329.639 75.078 327.354 71.2521 324.731 68.4082C321.847 65.281 319.343 64.1532 317.379 64.6951C316.424 64.9588 315.445 64.6305 314.833 63.9319C312.869 65.6161 311.523 67.4265 310.629 69.1122C310.121 70.0708 309.257 70.8101 308.531 71.3253C307.745 71.8836 306.828 72.3814 305.909 72.7818C304.991 73.1819 304.001 73.5157 303.053 73.7093C302.18 73.8875 301.034 74.0139 299.969 73.7053C298.245 73.2053 296.357 72.7986 294.682 72.4992C294.692 72.5398 294.701 72.5809 294.709 72.6224C295.444 76.4939 296.957 82.3867 299.127 87.7463ZM320.602 93.9093L331.998 107.249C333.312 108.786 333.239 110.743 332.844 112.085C332.441 113.455 331.515 114.905 330.089 115.719C329.936 115.806 329.782 115.897 329.627 115.992C331.15 116.273 332.817 116.63 334.49 117.064C337.643 117.882 341.042 119.027 343.519 120.573C343.555 120.595 343.618 120.625 343.706 120.644C343.792 120.663 343.873 120.665 343.935 120.658L351.679 108.923C350.703 107.821 349.541 106.444 348.473 105.042C347.351 103.57 346.222 101.927 345.572 100.496C344.069 97.1903 341.195 92.747 335.14 92.747C330.597 92.747 327.367 91.4317 325.382 89.8398C323.837 91.168 322.224 92.5424 320.602 93.9093ZM324.381 120.069C322.629 121.66 320.943 123.381 319.538 124.918C323.869 127.8 328.191 130.9 331.719 133.53C333.401 134.784 333.767 136.763 333.392 138.329C333.181 139.212 332.71 140.087 331.999 140.776C336.295 142.056 339.735 144.981 342.12 147.714C342.139 147.722 342.168 147.733 342.212 147.745C342.374 147.789 342.626 147.814 342.931 147.78C343.233 147.745 343.505 147.661 343.703 147.561C343.844 147.49 343.901 147.435 343.912 147.425C346.953 142.803 351.807 139.597 355.639 137.735C355.645 137.719 355.652 137.699 355.656 137.675C355.667 137.616 355.665 137.559 355.656 137.52C355.653 137.505 355.65 137.496 355.648 137.492C351.05 131.801 350.248 124.417 350.535 119.735L348.023 123.542C347.139 124.881 345.746 125.484 344.505 125.626C343.275 125.766 341.961 125.494 340.872 124.815C339.056 123.682 336.256 122.688 333.235 121.904C330.264 121.134 327.298 120.622 325.299 120.372C324.966 120.33 324.657 120.225 324.381 120.069ZM300.831 120.383C300.764 121.314 300.632 122.156 300.431 122.935C299.682 125.832 297.959 127.758 295.993 129.957C295.695 130.289 295.392 130.628 295.086 130.978C294.111 132.09 292.544 133.095 290.87 133.993C289.906 134.51 288.82 135.036 287.644 135.564L301.464 153.311C307.335 148.178 318.042 140.28 328.301 137.219C324.243 134.206 319.222 130.637 314.407 127.533C311.535 125.681 308.765 124.013 306.334 122.73C303.982 121.489 302.11 120.696 300.831 120.383ZM246.482 118.557C245.729 119.29 245.027 119.99 244.389 120.642C242.927 122.132 240.315 122.615 238.425 120.927C235.401 118.225 231.183 112.625 231.947 105.242C232.089 103.868 233.318 102.87 234.691 103.012C236.064 103.154 237.063 104.383 236.921 105.756C236.426 110.537 238.947 114.455 241.24 116.713C244.444 113.477 249.02 109.214 253.742 105.547C256.209 103.632 258.754 101.85 261.194 100.458C263.598 99.0862 266.065 97.997 268.346 97.6291C271.665 97.0937 273.472 95.6591 274.475 94.2672C274.574 94.1294 274.666 93.9906 274.752 93.8515C273.943 94.0371 273.079 94.0001 272.257 93.7117L249.173 85.6157C248.521 85.387 248.024 84.9155 247.746 84.3382C246.128 87.7734 245.013 90.857 244.332 93.3251C243.688 95.6607 241.271 97.24 238.758 96.5815L236.351 95.9504C236.384 95.9897 236.415 96.0303 236.446 96.072C237.265 97.1835 237.028 98.7486 235.917 99.5677C233.596 101.278 230.321 103.89 227.188 106.754C224.022 109.648 221.145 112.668 219.491 115.201C218.567 116.617 217.008 117.431 215.593 117.71C214.201 117.983 212.225 117.856 210.824 116.367L209.613 115.081V130.265C209.613 130.279 209.613 130.293 209.613 130.307V138.269H245.87C246.26 138.269 246.628 138.358 246.957 138.517C245.64 131.225 245.919 123.561 246.482 118.557ZM204.613 128.221V112.172C204.613 111.516 204.865 110.92 205.278 110.474L202.087 107.083L202.651 110.3C202.99 112.231 202.042 114.144 200.329 115.059C196.057 117.341 190.248 120.66 185.073 124.059C186.313 125.507 187.803 127.169 189.347 128.757C191.529 131 193.643 132.912 195.24 133.941C196.531 132.8 198.253 131.444 200.126 130.302C201.465 129.484 203.011 128.695 204.613 128.221ZM180.93 126.906C182.296 128.517 183.992 130.422 185.763 132.242C188.199 134.748 190.993 137.323 193.337 138.629C195.189 139.66 197.135 138.972 198.253 137.956C199.404 136.909 201.019 135.614 202.731 134.57C203.386 134.17 204.018 133.83 204.613 133.558V138.769C204.613 141.254 206.628 143.269 209.113 143.269H211.08C208.436 145.281 205.35 147.814 202.407 150.562C198.231 154.46 194.09 159.022 192.075 163.282C192.074 163.284 192.07 163.293 192.057 163.306C189.742 162.174 186.904 160.897 183.965 159.575C181.407 158.424 178.772 157.238 176.338 156.083C170.769 153.442 165.958 150.837 163.377 148.462C162.584 147.732 161.447 147.612 160.541 148.077L169.363 136.918C170.143 135.931 170.06 134.54 169.222 133.652C169.924 133.83 170.628 133.85 171.246 133.779C172.562 133.628 173.951 133.025 174.936 131.953C176.278 130.492 178.373 128.759 180.93 126.906ZM200.704 99.1997C201.279 99.2602 201.835 99.519 202.262 99.9727L214.357 112.826C214.415 112.83 214.507 112.827 214.628 112.804C214.806 112.769 214.982 112.699 215.121 112.614C215.265 112.527 215.309 112.461 215.304 112.468C217.313 109.391 220.571 106.028 223.815 103.063C227.093 100.067 230.506 97.3445 232.951 95.5427C233.139 95.4038 233.341 95.2952 233.55 95.2161L203.62 87.3709L199.469 92.8802C199.591 93.1083 199.68 93.3594 199.727 93.6281L200.704 99.1997ZM195.437 98.1129C193.909 99.5269 191.558 99.7261 189.796 98.4879L167.871 83.0777C166.741 82.2837 166.469 80.7244 167.263 79.5948C168.057 78.4651 169.616 78.193 170.746 78.987L192.276 94.1191L205.267 76.8764L199.379 79.0942C197.695 79.7285 195.796 79.2989 194.549 78.0018L179.578 62.4291C179.111 61.9435 178.88 61.3181 178.88 60.6938L167.284 68.564C167.635 69.1121 167.772 69.7955 167.613 70.4791L163.544 87.9224C163.217 89.3233 162.258 90.4373 161.017 90.9998C162.897 94.0911 164.927 97.8979 166.513 101.825C167.659 104.664 168.601 107.634 169.066 110.486C169.528 113.316 169.551 116.209 168.679 118.785C167.998 120.8 166.107 121.579 164.714 121.68C164.378 121.704 164.017 121.745 163.64 121.805C163.811 121.911 163.972 122.04 164.118 122.192L170.512 128.816C170.549 128.819 170.603 128.82 170.675 128.812C170.802 128.797 170.937 128.759 171.056 128.702C171.177 128.644 171.237 128.588 171.254 128.571C173.306 126.336 176.493 123.86 179.962 121.47C185.729 117.497 192.68 113.488 197.665 110.814L195.437 98.1129ZM155.236 91.2206L116.347 89.3932C113.095 89.2404 111.093 85.8087 112.502 82.9064C114.076 79.6657 116.017 75.5266 117.641 71.7461C118.491 69.7677 119.219 67.966 119.765 66.4717L94.7272 76.0812L84.1938 92.5598L112.949 109.034L119.151 102.605C119.162 102.594 119.172 102.583 119.183 102.572L129.069 92.3242C130.028 91.3306 131.61 91.3021 132.604 92.2608C133.598 93.2194 133.626 94.8021 132.667 95.7957L124.346 104.421C126.611 107.18 129.98 111.795 133.104 118.044C133.484 118.803 133.876 119.511 134.277 120.172C137.213 125.015 140.56 127.28 142.186 128.006C143.546 127.695 145.512 127.088 147.479 126.158C149.596 125.157 151.519 123.873 152.754 122.352C156.069 118.272 161.037 116.986 164.083 116.715C164.463 115.27 164.483 113.446 164.132 111.291C163.745 108.92 162.937 106.322 161.877 103.697C159.97 98.9737 157.337 94.3815 155.236 91.2206ZM120.849 108.046L116.277 112.786C114.845 114.27 112.589 114.591 110.801 113.566L90.8391 102.13C91.3615 103.142 91.1375 104.416 90.2311 105.183C85.5142 109.175 81.3954 116.076 78.9276 121.15C100.781 120.034 114.374 125.461 120.242 129.761L129.023 121.039C128.891 120.791 128.761 120.538 128.632 120.28C125.872 114.758 122.915 110.617 120.849 108.046ZM121.282 61.2227C121.979 59.2119 123.138 57.3497 124.287 55.824C125.125 54.7121 126.013 53.7062 126.834 52.8658L123.712 49.148C123.017 49.8197 121.964 50.0541 121.014 49.66C118.468 48.6026 114.277 47.2539 109.95 46.6093C105.737 45.9818 101.863 46.0946 99.206 47.3245C98.9212 51.1505 99.7643 58.5991 105.119 64.7788C105.55 65.2758 105.75 65.8943 105.728 66.5035L119.489 61.2222C120.09 60.9915 120.725 61.0084 121.282 61.2227ZM130.105 56.6787C129.512 57.3059 128.881 58.0364 128.281 58.8327C126.968 60.5748 125.987 62.3976 125.706 63.9906C125.316 66.1974 123.854 69.9516 122.235 73.7199C120.679 77.3416 118.851 81.2582 117.318 84.4333L158.769 86.3811L162.105 72.0789L161.181 72.7064C159.495 73.8504 157.252 73.7194 155.711 72.3871L138.833 57.7947H133.071C131.972 57.7947 130.92 57.393 130.105 56.6787ZM182.302 58.3718C182.625 58.4995 182.926 58.6971 183.183 58.9639L197.925 74.2991L217.413 66.9581L211.915 60.8699L209.496 61.3236C207.737 61.6534 205.951 60.9102 204.945 59.4308L200.28 52.5696C199.504 51.4278 199.8 49.8729 200.942 49.0966C202.084 48.3203 203.639 48.6166 204.415 49.7584L208.896 56.3489L211.269 55.9039C212.809 55.6151 214.388 56.1481 215.438 57.3109L221.615 64.1514C222.092 64.6793 222.416 65.2777 222.598 65.9011C222.761 65.7965 222.939 65.7093 223.13 65.643L243.532 58.5577L237.258 42.8374C233.47 43.2611 229.499 43.9512 225.367 44.967C224.834 45.7309 223.894 46.1652 222.913 46.0056C221.55 45.7838 220.625 44.4992 220.847 43.1364L222.562 32.6004L192.68 34.7962L195.754 37.5434C196.783 38.4635 196.872 40.0439 195.952 41.0733C195.032 42.1028 193.451 42.1914 192.422 41.2713L179.15 29.4089L167.395 39.8301L179.3 51.2677C180.044 51.9822 180.25 53.0462 179.907 53.9538L192.321 45.5284C192.859 45.1638 193.468 44.9198 194.109 44.8131L210.832 42.0253C212.194 41.7983 213.482 42.7183 213.709 44.0802C213.936 45.4422 213.016 46.7303 211.654 46.9573L195.039 49.727L182.302 58.3718ZM177.526 55.5702C176.917 55.56 176.31 55.3286 175.836 54.8733L152.717 32.6625L123.217 40.7835L133.304 52.7947H139.019C140.1 52.7947 141.144 53.1837 141.962 53.8906L158.691 68.3538L177.526 55.5702ZM226.494 39.5698C230.714 38.6363 234.776 38.0223 238.656 37.6706C248.784 36.7524 257.685 37.6216 264.964 39.2639L271.348 19.0438L248.179 10.9602L243.921 17.5901C243.916 17.692 243.906 17.7948 243.888 17.898C243.752 18.7086 243.239 19.362 242.559 19.7096L233.678 33.5371C232.932 34.6988 231.385 35.0357 230.224 34.2895C229.062 33.5433 228.725 31.9967 229.471 30.835L236.907 19.2573L212.212 15.0972L199.943 29.249L222.828 27.5674C225.728 27.3542 228.066 29.9074 227.599 32.7782L226.494 39.5698ZM242.471 42.4106L248.37 57.1903C249.321 59.5731 248.09 62.2676 245.666 63.1093L224.77 70.3663C223.769 70.7141 222.696 70.3879 222.047 69.6271C221.551 70.3928 220.812 71.0207 219.862 71.3785L214.008 73.5837L206.872 83.0545L239.613 91.6365C242.671 80.9028 252.731 60.7489 274.191 47.4042C267.259 44.4729 256.286 41.6966 242.471 42.4106ZM278.416 50.6849C278.371 50.7158 278.324 50.7455 278.276 50.7738C263.95 59.2478 254.825 70.9829 249.533 80.8001C249.952 80.7202 250.397 80.7462 250.828 80.8974L273.567 88.8726L292.427 63.9068L280.181 56.2216C278.297 55.0391 277.584 52.6834 278.416 50.6849ZM118.117 134.314C117.856 134.185 117.609 134.034 117.378 133.862C115.623 132.557 112.762 130.982 108.742 129.586C108.548 130.095 108.188 130.544 107.684 130.843C104.752 132.587 98.2405 137.975 93.4955 146.479L117.885 144.21V135.367C117.885 134.991 117.968 134.634 118.117 134.314ZM103.036 127.95C97.7977 126.73 91.2654 125.913 83.3772 126.01C83.4787 126.081 83.5762 126.16 83.6686 126.248C84.6686 127.201 84.7073 128.783 83.7552 129.783L73.3949 140.663L87.3554 147.531C91.7998 137.882 98.6117 131.21 103.036 127.95Z" fill="#D1D4D8"/>
<path d="M80.736 516.04L82.736 539.04C140.336 604.24 249.403 592.54 296.736 578.54C249.236 609.873 131.636 659.84 41.236 609.04C-49.164 558.24 29.9027 525.873 80.736 516.04Z" fill="#D1D4D8"/>
<path d="M541.059 395.212C552.507 435.821 553.847 475.053 546.829 505.626C539.796 536.261 524.486 557.833 502.946 563.905C481.407 569.977 457.084 559.578 435.086 537.127C413.132 514.721 393.784 480.566 382.336 439.957C370.888 399.347 369.548 360.116 376.566 329.542C383.599 298.907 398.909 277.336 420.449 271.264C441.988 265.192 466.311 275.59 488.309 298.041C510.263 320.447 529.611 354.602 541.059 395.212Z" stroke="#D1D4D8" stroke-width="3"/>
<path d="M417.522 315.333C399.356 358.166 386.422 458.433 480.022 516.833" stroke="#D1D4D8" stroke-width="3" stroke-linecap="round"/>
<path d="M406.018 277.833C393.352 280.833 365.521 291.333 360.518 312.333C354.092 339.309 295.125 457.126 427.172 570.035C427.398 570.228 427.644 570.388 427.918 570.502C439.871 575.465 477.183 581.154 500.518 565.333" stroke="#D1D4D8" stroke-width="3" stroke-linecap="round"/>
<path d="M338.736 555.54C294.881 589.594 144.73 613.88 83.8373 539.778C83.4461 539.302 83.2141 538.71 83.1726 538.095L57.2363 153.54" stroke="#D1D4D8" stroke-width="3" stroke-linecap="round"/>
<path d="M338.736 537.04C302.403 569.873 130.736 604.54 84.2363 537.04" stroke="#D1D4D8" stroke-width="3" stroke-linecap="round"/>
<path d="M358.236 202.54C266.078 249.19 126.06 218.207 63.5347 198.664C62.9668 198.487 62.3768 198.481 61.8186 198.687C55.2854 201.099 59.0833 206.178 62.2541 208.802C62.5394 209.038 62.8821 209.208 63.2372 209.313C261.67 268.006 366.322 218.442 367.736 208.541C368.736 201.54 362.078 200.81 358.236 202.54Z" fill="#D1D4D8"/>
<path d="M61.2363 170.04C75.5697 186.04 128.936 205.64 221.736 206.04" stroke="#D1D4D8" stroke-width="3" stroke-linecap="round"/>
<path d="M363.736 280.54L367.736 156.54" stroke="#D1D4D8" stroke-width="3" stroke-linecap="round"/>
<rect x="97.7363" y="248.54" width="23" height="267" rx="11.5" stroke="#D1D4D8" stroke-width="3"/>
<rect x="150.736" y="253.54" width="23" height="295" rx="11.5" stroke="#D1D4D8" stroke-width="3"/>
<rect x="203.736" y="258.54" width="23" height="295" rx="11.5" stroke="#D1D4D8" stroke-width="3"/>
<rect x="256.736" y="263.54" width="23" height="277" rx="11.5" stroke="#D1D4D8" stroke-width="3"/>
<rect x="310.736" y="251.54" width="23" height="264" rx="11.5" stroke="#D1D4D8" stroke-width="3"/>
<rect x="107.236" y="250.04" width="13" height="264" rx="6.5" fill="#D1D4D8"/>
<rect x="160.236" y="255.04" width="13" height="292" rx="6.5" fill="#D1D4D8"/>
<rect x="213.236" y="260.04" width="13" height="292" rx="6.5" fill="#D1D4D8"/>
<rect x="266.236" y="265.04" width="13" height="274" rx="6.5" fill="#D1D4D8"/>
<rect x="320.236" y="253.04" width="13" height="261" rx="6.5" fill="#D1D4D8"/>
<path d="M63.7363 137.746C58.2233 140.194 55.2363 142.815 55.2363 145.54C55.2363 159.071 128.885 170.04 219.736 170.04C310.587 170.04 384.236 159.071 384.236 145.54C384.236 140.87 375.463 136.505 360.236 132.791" stroke="#D1D4D8" stroke-width="3" stroke-linecap="round"/>
<path d="M466.236 364.04C480.903 376.54 505.836 411.34 488.236 450.54" stroke="#D1D4D8" stroke-width="3" stroke-linecap="round"/>
<path d="M464.736 393.04C465.57 404.707 465.636 420.54 475.236 430.54" stroke="#D1D4D8" stroke-width="3" stroke-linecap="round"/>
</svg>
