<svg width="429" height="465" viewBox="0 0 429 465" fill="none" xmlns="http://www.w3.org/2000/svg">
<path d="M25.7898 355.585C30.0398 343.585 28.2443 332.941 25.7897 318.399C22.7215 300.22 17.6079 259.405 43.517 233.338C64.2443 212.485 87.8352 201.784 97.0397 199.04" stroke="#D1D4D8" stroke-width="3" stroke-linecap="round"/>
<path d="M78.0391 355.085C79.5212 349.893 94.093 327.316 92.2403 312.085C91.5736 307.752 92.0403 297.785 101.24 292.585" stroke="#D1D4D8" stroke-width="3" stroke-linecap="round"/>
<path d="M69.7402 253.084C76.7402 241.584 95.7402 226.584 110.74 224.084C125.74 221.584 127.067 231.782 125.133 236.111C122.231 242.605 115.917 249.783 103.289 263.454C90.7785 276.999 83.9485 302.077 83.1521 314.039" stroke="#D1D4D8" stroke-width="3" stroke-linecap="round"/>
<path d="M317.634 212.615C307.913 204.272 283.736 189.507 264.797 197.186C263.082 197.872 259.514 201.095 258.965 208.501" stroke="#D1D4D8" stroke-width="3" stroke-linecap="round"/>
<path d="M297.24 284.585C278.24 263.085 267.24 246.085 269.74 224.585C271.134 212.602 278.035 207.66 284.354 213.644C292.74 221.585 299.24 231.585 308.37 235.586C310.16 236.419 315.84 238.085 324.24 238.085" stroke="#D1D4D8" stroke-width="3" stroke-linecap="round"/>
<path d="M367.039 332.612C366.124 328.955 364.226 317.252 365.323 307.927C366.696 296.27 365.453 252.27 346.24 239.585" stroke="#D1D4D8" stroke-width="3" stroke-linecap="round"/>
<path d="M364.24 216.585L245.904 208.064C245.682 208.048 245.447 208.072 245.233 208.131C227.283 213.088 234.946 223.017 241.277 228.212C241.578 228.459 241.946 228.604 242.334 228.639L269.24 231.085" stroke="#D1D4D8" stroke-width="3" stroke-linecap="round"/>
<path d="M363.741 240.585L324.225 237.995" stroke="#D1D4D8" stroke-width="3" stroke-linecap="round"/>
<ellipse cx="363.539" cy="228.54" rx="10.5" ry="14.5" fill="#D1D4D8"/>
<path d="M350.251 238.201C343.047 228.157 348.503 220.155 352.65 216.978C352.996 216.713 353.426 216.596 353.861 216.616L365.746 217.168C366.848 217.22 367.7 218.153 367.651 219.255L366.796 238.461C366.744 239.612 365.733 240.482 364.587 240.361L351.618 238.985C351.074 238.927 350.57 238.646 350.251 238.201Z" fill="#D1D4D8"/>
<path d="M227.031 214.349L232.803 212.517C234.184 212.079 235.558 213.208 235.396 214.647L234.846 219.531C234.684 220.968 233.098 221.764 231.849 221.034L226.626 217.982C225.13 217.107 225.379 214.873 227.031 214.349Z" fill="#D1D4D8"/>
<path d="M100.827 226.085L96.0391 94.0219C96.0385 74.5309 99.6646 41.4996 140.162 42.0468C180.659 42.5939 202.64 42.2747 208.569 42.0468" stroke="#D1D4D8" stroke-width="3" stroke-linecap="round"/>
<path d="M255.086 42.0469H323.151C341.963 42.3888 358.039 50.5954 358.039 82.0541C358.039 113.513 357.108 179.277 355.74 213.585" stroke="#D1D4D8" stroke-width="3" stroke-linecap="round"/>
<path d="M298.741 376.585C270.694 378.636 195.686 384.102 150.423 386.04C131.269 386.04 105.89 383.578 102.88 349.11L100.828 266.702" stroke="#D1D4D8" stroke-width="3" stroke-linecap="round"/>
<circle cx="231.539" cy="26.54" r="14" stroke="#D1D4D8" stroke-width="3"/>
<path d="M210.331 35.0032C212.785 42.1013 209.309 47.2882 201.47 48.9946C197.722 49.8107 192.473 49.8818 182.386 53.4308C169.776 57.867 167.39 70.4935 167.05 81.4136C166.777 90.1497 171.821 93.0163 180.682 93.3575C206.469 93.2438 261.701 94.04 276.447 94.04C291.783 94.04 294.013 88.2387 294.509 84.4849C296.963 65.9207 290.42 58.4785 284.626 55.8196C281.9 54.5683 273.925 51.4515 263.837 48.9946C253.749 46.5376 251.933 43.1932 252.931 38.4156C255.385 26.6765 253.954 17.1442 252.931 13.8454C251.795 9.29535 245.161 0.604741 227.712 2.24276C205.901 4.29029 207.264 26.1306 210.331 35.0032Z" stroke="#D1D4D8" stroke-width="3" stroke-linecap="round"/>
<path d="M329.741 211.085L331.039 84.5851C331.039 81.8542 329.492 77.0752 323.187 77.0752C316.7 77.0752 302.132 77.3028 295.531 77.0752" stroke="#D1D4D8" stroke-width="3" stroke-linecap="round"/>
<path d="M165.448 77.0755H134.037C130.623 76.7341 124.068 78.714 125.16 89.3644C126.253 100.015 131.534 265.164 134.037 346.407C133.924 350.504 135.745 358.56 143.939 358.014C150.173 357.598 247.18 352.135 305.24 349.585" stroke="#D1D4D8" stroke-width="3" stroke-linecap="round"/>
<path d="M339.241 212.585L341.04 86.9331C341.04 83.1707 339.401 77.6981 330.113 79.0663" stroke="#D1D4D8" stroke-width="3" stroke-linecap="round"/>
<path d="M127.976 78.04C124.562 78.04 116.709 78.04 117.05 86.9327C117.377 95.4792 120.464 182.997 121.489 223.585" stroke="#D1D4D8" stroke-width="3" stroke-linecap="round"/>
<path d="M121.488 243.243L124.561 349.958C124.903 353.721 126.269 359.193 142.658 357.825" stroke="#D1D4D8" stroke-width="3" stroke-linecap="round"/>
<path d="M161.039 136.04H225.039" stroke="#D1D4D8" stroke-width="3" stroke-linecap="round"/>
<path d="M161.469 158.745L299.641 158.061" stroke="#D1D4D8" stroke-width="3" stroke-linecap="round"/>
<path d="M161.809 181.66L270.226 180.634" stroke="#D1D4D8" stroke-width="3" stroke-linecap="round"/>
<path d="M162.852 217.249L216.19 214.834" stroke="#D1D4D8" stroke-width="3" stroke-linecap="round"/>
<path d="M343.24 215.085C340.74 219.752 335.239 226.085 341.239 238.085" stroke="#D1D4D8" stroke-width="3" stroke-linecap="round"/>
<path d="M263.741 270.682C260.407 274.649 258.541 285.985 277.741 299.585C287.241 305.751 306.941 324.485 309.741 350.085" stroke="#D1D4D8" stroke-width="3" stroke-linecap="round"/>
<path d="M258.74 230.585C256.953 233.935 256.169 240.382 261.74 246.558C264.485 249.6 268.771 252.577 275.24 255.085" stroke="#D1D4D8" stroke-width="3" stroke-linecap="round"/>
<path d="M261.741 246.558C258.166 251.728 254.908 262.33 263.741 270.682C266.028 272.845 273.627 276.857 277.741 278.585" stroke="#D1D4D8" stroke-width="3" stroke-linecap="round"/>
<path d="M331.174 437.592C320.507 412.759 305.574 358.992 331.174 342.593C363.174 322.093 404.674 368.592 419.174 408.592" stroke="#D1D4D8" stroke-width="3" stroke-linecap="round"/>
<path d="M5.03906 418.085C7.53906 394.752 24.9391 347.128 54.5391 353.128C84.1391 359.128 92.2057 412.628 92.5391 438.628" stroke="#D1D4D8" stroke-width="3" stroke-linecap="round"/>
</svg>
