<svg width="191" height="108" viewBox="0 0 191 108" fill="none" xmlns="http://www.w3.org/2000/svg">
<path d="M159.23 69.04C144.086 70.8489 118.001 77.328 134.811 88.7734C151.621 100.219 127.428 105.053 113.23 106.04" stroke="#D1D4D8" stroke-width="3" stroke-linecap="round"/>
<path d="M84.0638 88.54C79.594 88.915 77.3125 93.0713 76.7305 95.1025L87.7305 98.54L84.0638 88.54Z" fill="#D1D4D8"/>
<path d="M8.73111 34.04L2.73111 27.54C2.33111 13.14 16.2311 7.20671 23.2311 6.04004L30.7311 15.54C19.5311 16.74 11.5644 28.04 8.73111 34.04Z" fill="#D1D4D8"/>
<path d="M23.2305 6.04004L76.7305 65.04L87.7305 99.04" stroke="#D1D4D8" stroke-width="3" stroke-linecap="round"/>
<path d="M23.2305 6.04004C15.7305 6.04004 3.43047 11.34 2.23047 26.54" stroke="#D1D4D8" stroke-width="3" stroke-linecap="round"/>
<path d="M2.73047 27.04L55.2305 88.54L87.7305 99.04" stroke="#D1D4D8" stroke-width="3" stroke-linecap="round"/>
<path d="M55.7305 88.54C57.0638 82.3734 62.9305 70.24 75.7305 67.04" stroke="#D1D4D8" stroke-width="3" stroke-linecap="round"/>
<path fill-rule="evenodd" clip-rule="evenodd" d="M166.798 52.5253C161.916 48.2785 146.23 33.7517 146.23 22.4156C146.23 8.99028 155.03 0.0400391 168.23 0.0400391C181.43 0.0400391 190.23 11.2278 190.23 22.4156C190.23 31.908 174.393 47.8436 169.593 52.4553C168.81 53.2076 167.616 53.2373 166.798 52.5253ZM175.564 19.4322C175.564 23.5514 172.281 26.8908 168.23 26.8908C164.18 26.8908 160.897 23.5514 160.897 19.4322C160.897 15.313 164.18 11.9737 168.23 11.9737C172.281 11.9737 175.564 15.313 175.564 19.4322Z" fill="#D1D4D8"/>
</svg>
