<svg width="597" height="501" viewBox="0 0 597 501" fill="none" xmlns="http://www.w3.org/2000/svg">
<path d="M146.68 360.04C132.884 379.065 112.451 397.629 105.135 400.698L102 416.04C138.841 404.533 149.032 380.752 146.68 360.04Z" fill="#D1D4D8"/>
<path d="M87.6149 297.224C93.4815 341.629 86.6456 391.298 81.5527 414.585C81.2777 415.843 82.2301 417.04 83.5173 417.04H101.503C102.39 417.04 103.173 416.457 103.411 415.602C114.851 374.601 102.654 325.507 91.3271 296.106C90.4781 293.902 87.3056 294.882 87.6149 297.224Z" fill="#D1D4D8"/>
<path d="M107.863 364.726C128.727 368.533 156.545 357.74 172 335.23" stroke="#D1D4D8" stroke-width="3" stroke-linecap="round"/>
<path d="M11.654 316.619C-1.71445 339.69 43.2558 390.837 89.0891 368.533" stroke="#D1D4D8" stroke-width="3" stroke-linecap="round"/>
<path d="M33.0998 242.594C5.92487 246.437 -8.97678 283.7 11.6544 316.62C15.4094 322.611 31.7061 329.115 39.345 329.115" stroke="#D1D4D8" stroke-width="3" stroke-linecap="round"/>
<path d="M172 288.273C172 259.684 164.369 229.266 118.69 215.676C70.5818 201.363 44.4391 222.987 33.1002 242.594C27.7113 251.912 29.7967 260.858 33.1002 268.549" stroke="#D1D4D8" stroke-width="3" stroke-linecap="round"/>
<path d="M104 324.04C112.026 315.814 128.885 301.259 122.642 268.04" stroke="#D1D4D8" stroke-width="3" stroke-linecap="round"/>
<path d="M88 340.04C81.7037 338.096 66.0889 328.373 54 305.04" stroke="#D1D4D8" stroke-width="3" stroke-linecap="round"/>
<path d="M215.354 233.331L242.354 244.655C243.654 245.2 244.5 246.472 244.5 247.882V311.227C244.5 313.781 241.853 315.475 239.534 314.405L212.534 301.949C211.294 301.377 210.5 300.137 210.5 298.771V236.559C210.5 234.058 213.047 232.364 215.354 233.331Z" stroke="#D1D4D8" stroke-width="3"/>
<path d="M285.354 271.331L312.354 282.655C313.654 283.2 314.5 284.472 314.5 285.882V349.227C314.5 351.781 311.853 353.475 309.534 352.405L282.534 339.949C281.294 339.377 280.5 338.137 280.5 336.771V274.559C280.5 272.058 283.047 270.364 285.354 271.331Z" stroke="#D1D4D8" stroke-width="3"/>
<path d="M215.354 119.331L242.354 130.655C243.654 131.2 244.5 132.472 244.5 133.882V197.227C244.5 199.781 241.853 201.475 239.534 200.405L212.534 187.949C211.294 187.377 210.5 186.137 210.5 184.771V122.559C210.5 120.058 213.047 118.364 215.354 119.331Z" stroke="#D1D4D8" stroke-width="3"/>
<path d="M285.354 156.331L312.354 167.655C313.654 168.2 314.5 169.472 314.5 170.882V234.227C314.5 236.781 311.853 238.475 309.534 237.405L282.534 224.949C281.294 224.377 280.5 223.137 280.5 221.771V159.559C280.5 157.058 283.047 155.364 285.354 156.331Z" stroke="#D1D4D8" stroke-width="3"/>
<path d="M243 379.617V440.419C243 441.591 243.683 442.655 244.748 443.145L270.748 455.087C272.735 456 275 454.548 275 452.361V390.931C275 389.737 274.292 388.656 273.197 388.18L247.197 376.866C245.216 376.004 243 377.456 243 379.617Z" fill="#D1D4D8"/>
<path d="M350 493.04L173.676 406.28C172.65 405.775 172 404.731 172 403.588V45.04" stroke="#D1D4D8" stroke-width="3" stroke-linecap="round"/>
<path d="M345.648 495.157V131.048L164.651 47.7472C162.088 46.5676 162.422 42.8239 165.154 42.1175L327.001 0.26354C327.565 0.117698 328.16 0.1392 328.712 0.325418L491 55.0788V424.554C491 425.684 490.364 426.719 489.356 427.23L350.004 497.833C348.008 498.844 345.648 497.394 345.648 495.157Z" fill="#D1D4D8"/>
<path d="M597 402.972L489.781 374.04V424.867L388 478.04L597 402.972Z" fill="#D1D4D8"/>
</svg>
