<svg width="264" height="220" viewBox="0 0 264 220" fill="none" xmlns="http://www.w3.org/2000/svg">
<path d="M126.23 175.54H41.7305C30.6848 175.54 21.7305 166.586 21.7305 155.54V22.04C21.7305 10.9943 30.6848 2.04004 41.7305 2.04004H99.4462C104.751 2.04004 109.838 4.14718 113.588 7.8979L132.873 27.1822C136.623 30.9329 141.71 33.04 147.015 33.04H242.23C253.276 33.04 262.23 41.9943 262.23 53.04V155.54C262.23 166.586 253.276 175.54 242.23 175.54H241.23" stroke="#D1D4D8" stroke-width="3" stroke-linecap="round"/>
<path d="M22.2305 16.54H21.7305C10.6848 16.54 1.73047 25.4943 1.73047 36.54V155.54C1.73047 166.586 10.6848 175.54 21.7305 175.54H41.7305" stroke="#D1D4D8" stroke-width="3" stroke-linecap="round"/>
<path d="M126.23 4.54005H213.73C220.23 4.54005 233.13 4.44004 232.73 22.04" stroke="#D1D4D8" stroke-width="3" stroke-linecap="round"/>
<path d="M194.234 134.04C200.234 138.04 201.734 139.54 204.234 146.54" stroke="#D1D4D8" stroke-width="3" stroke-linecap="round"/>
<path d="M199.73 184.646L228.737 213.653C231.666 216.582 236.415 216.582 239.344 213.653V213.653C242.273 210.724 242.273 205.976 239.344 203.047L210.337 174.04" stroke="#D1D4D8" stroke-width="3" stroke-linecap="round"/>
<circle cx="182.73" cy="153.04" r="34.5" stroke="#D1D4D8" stroke-width="3"/>
</svg>
