<svg width="637" height="315" viewBox="0 0 637 315" fill="none" xmlns="http://www.w3.org/2000/svg">
<rect x="1.53906" y="250.54" width="71" height="62" rx="8.5" stroke="#D1D4D8" stroke-width="3"/>
<rect x="110.539" y="222.54" width="72" height="90" rx="8.5" stroke="#D1D4D8" stroke-width="3"/>
<rect x="222.539" y="184.54" width="69" height="128" rx="8.5" stroke="#D1D4D8" stroke-width="3"/>
<rect x="332.039" y="147.04" width="74" height="167" rx="10" fill="#D1D4D8"/>
<rect x="449.539" y="216.54" width="69" height="96" rx="8.5" stroke="#D1D4D8" stroke-width="3"/>
<rect x="563.539" y="255.54" width="71" height="57" rx="8.5" stroke="#D1D4D8" stroke-width="3"/>
<path d="M368.576 127.196C367.776 128.156 366.302 128.156 365.503 127.196L349.773 108.32C348.687 107.018 349.613 105.04 351.309 105.04H382.769C384.465 105.04 385.391 107.018 384.305 108.32L368.576 127.196Z" fill="#D1D4D8"/>
<path fill-rule="evenodd" clip-rule="evenodd" d="M289.039 0.0400391C283.516 0.0400391 279.039 4.51719 279.039 10.04V105.04C279.039 110.563 283.516 115.04 289.039 115.04H450.039C455.562 115.04 460.039 110.563 460.039 105.04V10.04C460.039 4.51719 455.562 0.0400391 450.039 0.0400391H289.039ZM335.039 53.04C331.725 53.04 329.039 55.7263 329.039 59.04C329.039 62.3537 331.725 65.04 335.039 65.04H434.039C437.353 65.04 440.039 62.3537 440.039 59.04C440.039 55.7263 437.353 53.04 434.039 53.04H335.039ZM302.039 59.54C302.039 61.473 303.606 63.04 305.539 63.04C307.472 63.04 309.039 61.473 309.039 59.54C309.039 57.607 307.472 56.04 305.539 56.04C303.606 56.04 302.039 57.607 302.039 59.54ZM305.539 53.04C301.949 53.04 299.039 55.9502 299.039 59.54C299.039 63.1299 301.949 66.04 305.539 66.04C309.129 66.04 312.039 63.1299 312.039 59.54C312.039 55.9502 309.129 53.04 305.539 53.04ZM335.539 82.04C331.949 82.04 329.039 84.9502 329.039 88.54C329.039 92.1299 331.949 95.04 335.539 95.04H374.539C378.129 95.04 381.039 92.1299 381.039 88.54C381.039 84.9502 378.129 82.04 374.539 82.04H335.539ZM299.039 28.04C299.039 24.7263 301.725 22.04 305.039 22.04H346.039C349.353 22.04 352.039 24.7263 352.039 28.04C352.039 31.3537 349.353 34.04 346.039 34.04H305.039C301.725 34.04 299.039 31.3537 299.039 28.04ZM305.539 82.04C301.949 82.04 299.039 84.9502 299.039 88.54C299.039 92.1299 301.949 95.04 305.539 95.04C309.129 95.04 312.039 92.1299 312.039 88.54C312.039 84.9502 309.129 82.04 305.539 82.04Z" fill="#D1D4D8"/>
</svg>
