<svg width="338" height="323" viewBox="0 0 338 323" fill="none" xmlns="http://www.w3.org/2000/svg">
<path d="M123.371 118.54V18.54" stroke="#D1D4D8" stroke-width="3" stroke-linecap="round"/>
<path d="M181.883 47.04V133.04" stroke="#D1D4D8" stroke-width="3" stroke-linecap="round"/>
<path d="M294.871 29.0342V157.585M250.416 57.8895L275.422 54.1663V78.3675" stroke="#D1D4D8" stroke-width="3" stroke-linecap="round"/>
<path d="M250.416 57.8893L275.422 54.166V78.3673" stroke="#D1D4D8" stroke-width="3" stroke-linecap="round"/>
<path d="M244.412 2.08218L124.351 18.2083C123.364 18.3409 123.157 19.6779 124.057 20.1035L180.77 46.9093C180.95 46.9945 181.152 47.0239 181.349 46.9936L293.977 29.6919C294.933 29.5451 295.144 28.2624 294.287 27.8163L245.007 2.18609C244.824 2.09105 244.616 2.05476 244.412 2.08218Z" stroke="#D1D4D8" stroke-width="3" stroke-linecap="round"/>
<path d="M295.871 127.54C301.867 125.611 309.371 133.04 305.371 140.04" stroke="#D1D4D8" stroke-width="3" stroke-linecap="round"/>
<path d="M330.474 158.27C336.23 154.797 336.71 149.107 336.23 146.695C334.072 138.014 326.157 132.227 313.925 138.014C310.287 139.736 303.795 141.795 295.871 143.935" stroke="#D1D4D8" stroke-width="3" stroke-linecap="round"/>
<path d="M228.189 167.424C247.616 166.942 292.441 160.649 310.328 154.653C321.121 151.036 330.187 155.087 329.036 168.398C327.885 181.709 286.584 205.545 252.766 211.08C232.14 214.456 183.404 219.182 153.472 211.08C123.54 202.978 89.1944 235.676 75.7633 253.039C67.129 263.89 46.4067 292.682 32.5918 321.04" stroke="#D1D4D8" stroke-width="3" stroke-linecap="round"/>
<path d="M146.996 168.398C177.455 175.391 236.504 183.156 229.021 158.27C221.655 133.774 186.264 132.035 168.687 134.287C168.151 134.356 167.612 134.201 167.181 133.874C118.885 97.1991 52.6165 141.77 26.8349 171.292C17.2413 182.866 12.4444 189.377 2.37109 205.292" stroke="#D1D4D8" stroke-width="3" stroke-linecap="round"/>
</svg>
