<svg width="357" height="419" viewBox="0 0 357 419" fill="none" xmlns="http://www.w3.org/2000/svg">
<circle cx="107.811" cy="109.541" r="15.5" transform="rotate(-45 107.811 109.541)" stroke="#D1D4D8" stroke-width="3"/>
<path d="M84.6543 61.5684L114.257 61.5684" stroke="#D1D4D8" stroke-width="3" stroke-linecap="round"/>
<path d="M59.8368 90.8868L59.8368 200.262C59.8368 202.914 60.8904 205.458 62.7658 207.333L116.155 260.722" stroke="#D1D4D8" stroke-width="3" stroke-linecap="round"/>
<path d="M273.155 297.75L348.933 221.972C352.838 218.066 352.838 211.735 348.933 207.83L249.689 108.586" stroke="#D1D4D8" stroke-width="3" stroke-linecap="round"/>
<path d="M135.002 279.733L191.502 336.733" stroke="#D1D4D8" stroke-width="3" stroke-linecap="round"/>
<circle r="14" transform="matrix(-1 0 0 1 231.156 388.887)" stroke="#D1D4D8" stroke-width="3"/>
<path d="M218.656 363.267C222.43 361.422 226.672 360.387 231.156 360.387C246.896 360.387 259.656 373.147 259.656 388.887C259.656 404.627 246.896 417.387 231.156 417.387C215.416 417.387 202.656 404.627 202.656 388.887C202.656 384.307 203.737 379.979 205.656 376.145" stroke="#D1D4D8" stroke-width="3" stroke-linecap="round"/>
<circle r="14" transform="matrix(-1 0 0 1 153.156 388.887)" stroke="#D1D4D8" stroke-width="3"/>
<path d="M165.656 363.267C161.882 361.422 157.64 360.387 153.156 360.387C137.416 360.387 124.656 373.147 124.656 388.887C124.656 404.627 137.416 417.387 153.156 417.387C168.896 417.387 181.656 404.627 181.656 388.887C181.656 384.204 180.527 379.785 178.525 375.887" stroke="#D1D4D8" stroke-width="3" stroke-linecap="round"/>
<path d="M178.656 375.887L228.156 327.887C233.156 321.887 243.756 304.587 246.156 283.387" stroke="#D1D4D8" stroke-width="3" stroke-linecap="round"/>
<path d="M178.002 349.233L153.002 324.233C148.002 318.233 137.402 300.933 135.002 279.733" stroke="#D1D4D8" stroke-width="3" stroke-linecap="round"/>
<path d="M166.156 362.887L246.156 283.387" stroke="#D1D4D8" stroke-width="3" stroke-linecap="round"/>
<path d="M205.656 375.887L192.656 362.887" stroke="#D1D4D8" stroke-width="3" stroke-linecap="round"/>
<path d="M218.156 362.887L205.656 350.387" stroke="#D1D4D8" stroke-width="3" stroke-linecap="round"/>
<circle r="2.5" transform="matrix(-1 0 0 1 192.002 349.733)" stroke="#D1D4D8" stroke-width="3"/>
<path d="M188.656 138.387L188.656 308.387" stroke="#D1D4D8" stroke-width="3" stroke-linecap="round" stroke-dasharray="10 10"/>
<path fill-rule="evenodd" clip-rule="evenodd" d="M200.518 11.2345L188.808 0.0400391L177.098 11.2345L161.69 6.22948L155.997 21.3962L139.944 23.5719L141.395 39.7069L127.875 48.6325L136.183 62.54L127.875 76.4476L141.395 85.3732L139.944 101.508L155.997 103.684L161.69 118.851L177.098 113.846L188.808 125.04L200.518 113.846L215.926 118.851L221.619 103.684L237.672 101.508L236.221 85.3732L249.741 76.4476L241.433 62.54L249.741 48.6325L236.221 39.7069L237.672 23.5719L221.619 21.3962L215.926 6.22948L200.518 11.2345ZM181.308 47.54C181.308 51.1299 178.398 54.04 174.808 54.04C171.218 54.04 168.308 51.1299 168.308 47.54C168.308 43.9502 171.218 41.04 174.808 41.04C178.398 41.04 181.308 43.9502 181.308 47.54ZM184.308 47.54C184.308 52.7867 180.055 57.04 174.808 57.04C169.561 57.04 165.308 52.7867 165.308 47.54C165.308 42.2933 169.561 38.04 174.808 38.04C180.055 38.04 184.308 42.2933 184.308 47.54ZM203.808 84.04C207.398 84.04 210.308 81.1299 210.308 77.54C210.308 73.9502 207.398 71.04 203.808 71.04C200.218 71.04 197.308 73.9502 197.308 77.54C197.308 81.1299 200.218 84.04 203.808 84.04ZM203.808 87.04C209.055 87.04 213.308 82.7867 213.308 77.54C213.308 72.2933 209.055 68.04 203.808 68.04C198.561 68.04 194.308 72.2933 194.308 77.54C194.308 82.7867 198.561 87.04 203.808 87.04ZM200.537 41.4906C200.88 40.7366 200.547 39.8471 199.793 39.504C199.039 39.1608 198.149 39.4938 197.806 40.2478L178.08 83.5888C177.736 84.3428 178.069 85.2322 178.823 85.5754C179.577 85.9186 180.467 85.5855 180.81 84.8315L200.537 41.4906Z" fill="#D1D4D8"/>
<path d="M96.6538 112.387C102.929 111.755 113.596 107.459 106.066 95.3299C96.6538 80.1682 44.9829 54.3952 32.7475 77.7992C24.3258 93.9085 43.1508 106.701 57.0219 112.387" stroke="#D1D4D8" stroke-width="3" stroke-linecap="round"/>
</svg>
