<svg width="297" height="245" viewBox="0 0 297 245" fill="none" xmlns="http://www.w3.org/2000/svg">
<path d="M181.307 219.542C174.217 226.64 168.105 232.758 163.894 236.973C152.917 247.961 141.391 241.551 137 236.973L66.971 169.52C56.6325 159.91 47.8941 150.424 8.81715 113.155C4.81715 109.151 -1.52131 98.9254 5.12484 90.0549C11.771 81.1844 49.1248 34.6141 66.971 12.4378C72.3843 4.59776 84.1481 -4.72991 99.1535 9.21785C112.077 21.23 156.384 62.8106 194.23 94.4241" stroke="#D1D4D8" stroke-width="3" stroke-linecap="round"/>
<path d="M66.2305 14.04C68.4346 54.4675 83.3078 119.547 160.23 144.04" stroke="#D1D4D8" stroke-width="3" stroke-linecap="round"/>
<path d="M263.903 135.067C263.108 139.732 262.299 141.695 261.658 147.5C260.823 155.062 260.273 162.994 260.412 169.735C260.657 181.567 263.025 189.732 269.699 185.793C283.094 177.887 290.324 171.405 292.239 164.794C295.458 153.676 295.474 132.389 277.427 118.472C255.638 101.669 231.077 102.125 211.742 118.472C192.554 134.693 187.307 160.667 188.358 174.141C189.508 188.881 200.56 220.537 236.623 221.031C272.686 221.525 292.225 202.179 295.23 193.12" stroke="#D1D4D8" stroke-width="3" stroke-linecap="round"/>
<path d="M261.658 147.5C258.124 138.565 230.999 128.164 220.757 147.5C210.193 167.443 218.263 184.244 225.132 187.538C233.905 191.745 246.801 193.945 260.412 169.734" stroke="#D1D4D8" stroke-width="3" stroke-linecap="round"/>
</svg>
