<svg width="624" height="396" viewBox="0 0 624 396" fill="none" xmlns="http://www.w3.org/2000/svg">
<rect x="1.53906" y="1.54004" width="620" height="392" rx="18.5" stroke="#D1D4D8" stroke-width="3"/>
<circle cx="65.0391" cy="65.04" r="15" fill="#D1D4D8"/>
<path d="M476.039 318.04H573.039M509.856 345.04H573.039" stroke="#D1D4D8" stroke-width="3" stroke-linecap="round"/>
<path d="M75.1016 247.843C96.7855 245.868 148.236 258.978 181.951 326.779C182.319 327.519 183.386 327.553 183.761 326.816C218.966 257.594 261.363 185.468 400.713 273.513C401.59 274.067 402.753 273.143 402.282 272.22C378.9 226.427 362.539 130.787 471.467 85.5319C472.345 85.1673 472.334 83.871 471.422 83.6044L435.612 73.1372C434.582 72.8363 434.679 71.3826 435.744 71.2545C462.613 68.0234 508.01 68.5311 493.859 85.721C478.528 104.344 474.758 116.119 478.496 135.562" stroke="#D1D4D8" stroke-width="3" stroke-linecap="round"/>
</svg>
