<svg width="672" height="502" viewBox="0 0 672 502" fill="none" xmlns="http://www.w3.org/2000/svg">
<path d="M243.498 361.567C225.627 377.861 232.09 436.066 239.536 453.932L270.437 470.04C288.521 413.226 265.836 341.2 243.498 361.567Z" fill="#D1D4D8"/>
<path d="M614.008 394.04C595.741 394.04 568.835 398.257 559.211 406.692L559.207 438.965L448.555 468.035C376.45 485.149 592.568 489.238 652.835 444.313C701.048 408.373 647.039 395.823 614.008 394.04Z" fill="#D1D4D8"/>
<path d="M321.631 500.04V285.043" stroke="#D1D4D8" stroke-width="3" stroke-linecap="round"/>
<path d="M244.567 119.04L158.129 247.194C157.044 248.803 157.749 251.003 159.567 251.682L188.308 262.412C189.481 262.85 190.259 263.97 190.259 265.222V427.922C190.259 429.029 190.868 430.045 191.843 430.567L320.602 499.489C321.264 499.843 322.034 499.937 322.762 499.751L555.744 440.096C557.072 439.756 558 438.56 558 437.189V259.105" stroke="#D1D4D8" stroke-width="3" stroke-linecap="round"/>
<path d="M247.382 235.058L259.661 232.026C261.868 231.482 264 233.152 264 235.424V279.193C264 281.343 262.08 282.984 259.957 282.651L247.678 280.722C245.975 280.454 244.721 278.987 244.721 277.264V238.456C244.721 236.846 245.819 235.444 247.382 235.058Z" stroke="#D1D4D8" stroke-width="3"/>
<path d="M317 56.928L357 35.04V102.432L317 107.04V56.928Z" fill="#D1D4D8"/>
<path d="M337.95 290.015L241.578 120.719C240.53 118.876 241.671 116.556 243.771 116.263L351.794 101.18C353.276 100.973 354.379 99.7051 354.379 98.2086L354.379 38.2176C354.379 36.733 355.465 35.4717 356.933 35.2509L404.585 28.0851C406.399 27.8123 408.031 29.2172 408.031 31.0518L408.031 89.928C408.031 91.7056 409.568 93.0934 411.336 92.9125L473.815 86.5218C474.929 86.4078 476.014 86.924 476.628 87.8604L580.857 246.711C582.044 248.521 580.983 250.955 578.848 251.315L341.057 291.489C339.815 291.699 338.574 291.11 337.95 290.015Z" fill="#D1D4D8"/>
<path d="M189.588 344.04C171.806 368.5 145.471 392.369 136.041 396.314L132 416.04C179.485 401.246 192.619 370.67 189.588 344.04Z" fill="#D1D4D8"/>
<path d="M112.895 257.25C121.752 316.723 112.351 384.802 105.549 415.61C105.271 416.866 106.229 418.04 107.515 418.04H132.019C132.908 418.04 133.69 417.456 133.931 416.601C149.577 360.981 131.771 293.786 116.6 256.101C115.718 253.909 112.547 254.913 112.895 257.25Z" fill="#D1D4D8"/>
<path d="M139.213 349.04C165.238 342.001 178.504 337.386 190.617 322.386" stroke="#D1D4D8" stroke-width="3" stroke-linecap="round"/>
<path d="M14.5128 287.062C-2.81443 316.785 55.4729 382.681 114.879 353.945" stroke="#D1D4D8" stroke-width="3" stroke-linecap="round"/>
<path d="M42.3095 225.131C38.0277 215.222 35.3247 203.697 42.3095 191.692C57.0061 166.432 90.8905 138.572 153.246 157.012C175.358 163.552 190.592 173.115 201 184.451" stroke="#D1D4D8" stroke-width="3" stroke-linecap="round"/>
<path d="M42.3094 191.692C7.08714 196.644 -12.2273 244.651 14.5133 287.063C19.3804 294.782 40.5029 303.162 50.4039 303.162" stroke="#D1D4D8" stroke-width="3" stroke-linecap="round"/>
<path d="M135 298.04C145.153 287.244 155.125 275.873 158 249.04" stroke="#D1D4D8" stroke-width="3" stroke-linecap="round"/>
<path d="M114 317.04C105.852 314.651 85.6444 302.707 70 274.04" stroke="#D1D4D8" stroke-width="3" stroke-linecap="round"/>
</svg>
