<svg width="89" height="170" viewBox="0 0 89 170" fill="none" xmlns="http://www.w3.org/2000/svg">
<path d="M18.0594 103.371C10.4871 101.955 -4.30229 104.488 4.55202 122.779C11.3051 136.729 21.7421 144.008 24.8125 147.04" stroke="#D1D4D8" stroke-width="3" stroke-linecap="round"/>
<path d="M36.464 165.212C19.7284 150.993 19.567 114.831 21.8489 95.7835C22.0013 94.5114 23.3092 93.75 24.5289 94.142C40.8482 99.387 60.3417 96.5963 70.106 93.9849C71.3142 93.6618 72.5511 94.484 72.689 95.727C77.626 140.224 65.1091 160.119 58.0847 165.231C58.001 165.292 57.9202 165.34 57.8271 165.385C53.8986 167.294 44.4381 169.856 36.7324 165.402C36.6375 165.347 36.5475 165.283 36.464 165.212Z" stroke="#D1D4D8" stroke-width="3" stroke-linecap="round"/>
<ellipse cx="47.3125" cy="93.04" rx="26.5" ry="5" fill="#D1D4D8"/>
<path d="M53.3029 76.04C57.5434 72.0985 63.4802 59.7906 53.3029 42.0916C43.1257 24.3926 54.2605 8.01598 61.1 2.04004" stroke="#D1D4D8" stroke-width="3" stroke-linecap="round"/>
<path d="M40.5829 58.8752C34.7009 50.4834 25.4812 30.038 35.6585 15.3906" stroke="#D1D4D8" stroke-width="3" stroke-linecap="round"/>
<path d="M85.3125 166.041C96.9125 159.641 76.1458 160.873 64.8125 161.04L58.8125 167.041C71.3125 169.541 80.8125 168.041 85.3125 166.041Z" fill="#D1D4D8"/>
</svg>
