<svg width="798" height="438" viewBox="0 0 798 438" fill="none" xmlns="http://www.w3.org/2000/svg">
<path d="M417.184 149.781L419.283 148.422L419.244 148.362L419.202 148.304L417.184 149.781ZM291.178 213.114L289.653 215.095L291.178 213.114ZM122.94 250.73C122.216 249.554 120.676 249.187 119.5 249.911C118.324 250.635 117.958 252.174 118.681 253.35L122.94 250.73ZM585.78 117.932C585.996 116.569 585.067 115.288 583.703 115.071C582.339 114.854 581.058 115.784 580.842 117.148L585.78 117.932ZM118.681 253.35C121.511 257.949 124.971 262.057 128.942 265.703L132.324 262.02C128.667 258.663 125.51 254.907 122.94 250.73L118.681 253.35ZM133.005 269.139C141.003 275.374 150.64 280.039 161.179 283.345L162.675 278.574C152.57 275.404 143.503 270.983 136.079 265.196L133.005 269.139ZM166.224 284.807C176.011 287.419 186.489 288.956 197.151 289.555L197.431 284.563C187.056 283.98 176.922 282.487 167.513 279.976L166.224 284.807ZM202.351 289.773C212.767 290.063 223.303 289.486 233.502 288.158L232.856 283.2C222.906 284.496 212.633 285.057 202.49 284.775L202.351 289.773ZM238.667 287.417C249.408 285.732 259.702 283.211 268.99 279.981L267.347 275.258C258.371 278.38 248.37 280.834 237.892 282.478L238.667 287.417ZM273.93 278.158C284.978 273.839 294.445 268.417 301.128 262.082L297.688 258.453C291.632 264.194 282.801 269.322 272.11 273.502L273.93 278.158ZM304.857 258.095C308.553 253.591 310.945 248.612 311.504 243.25C312.066 237.868 310.758 232.324 307.434 226.759L303.141 229.323C305.994 234.099 306.965 238.572 306.531 242.731C306.095 246.909 304.217 250.994 300.992 254.923L304.857 258.095ZM304.284 222.23C301.351 218.537 297.509 214.834 292.703 211.133L289.653 215.095C294.21 218.604 297.74 222.03 300.369 225.34L304.284 222.23ZM292.703 211.133C288.672 208.029 285.156 204.997 282.117 202.043L278.632 205.628C281.825 208.733 285.49 211.889 289.653 215.095L292.703 211.133ZM278.963 198.823C271.066 190.329 267.247 182.624 266.327 175.82L261.372 176.49C262.473 184.639 266.96 193.256 275.302 202.228L278.963 198.823ZM266.122 171.564C266.455 163.438 271.031 156.1 278.886 149.798L275.757 145.898C267.205 152.76 261.537 161.318 261.126 171.36L266.122 171.564ZM282.504 147.126C289.305 142.49 297.841 138.623 307.378 135.671L305.899 130.895C296.019 133.953 287 138.01 279.687 142.995L282.504 147.126ZM311.834 134.379C320.48 132.032 329.762 130.426 339.142 129.64L338.725 124.658C329.061 125.467 319.479 127.123 310.524 129.553L311.834 134.379ZM343.761 129.32C353.189 128.804 362.599 129.127 371.451 130.356L372.139 125.403C362.936 124.125 353.202 123.795 343.488 124.328L343.761 129.32ZM375.983 131.073C385.719 132.812 394.556 135.702 401.779 139.793L404.243 135.442C396.403 131.002 386.994 127.961 376.862 126.151L375.983 131.073ZM405.608 142.18C409.439 144.811 412.662 147.835 415.167 151.258L419.202 148.304C416.316 144.363 412.663 140.96 408.439 138.059L405.608 142.18ZM415.086 151.14C418.141 155.857 421.363 160.187 424.726 164.144L428.535 160.906C425.318 157.12 422.225 152.965 419.283 148.422L415.086 151.14ZM428.331 168.186C436.282 176.677 444.927 183.211 453.952 187.953L456.278 183.527C447.768 179.056 439.567 172.87 431.981 164.769L428.331 168.186ZM458.84 190.332C469.14 194.953 479.823 197.33 490.425 197.729L490.613 192.733C480.636 192.357 470.586 190.121 460.886 185.77L458.84 190.332ZM495.864 197.762C506.786 197.482 517.525 195.137 527.579 191.035L525.69 186.405C516.171 190.29 506.026 192.5 495.736 192.763L495.864 197.762ZM532.541 188.841C542.271 184.202 551.253 177.88 558.999 170.167L555.471 166.624C548.124 173.939 539.607 179.932 530.389 184.328L532.541 188.841ZM562.733 166.235C569.871 158.278 575.763 149.042 579.951 138.793L575.323 136.901C571.359 146.603 565.779 155.353 559.011 162.895L562.733 166.235ZM581.855 133.719C583.587 128.667 584.911 123.394 585.78 117.932L580.842 117.148C580.019 122.323 578.765 127.316 577.125 132.099L581.855 133.719Z" fill="#D1D4D8"/>
<path fill-rule="evenodd" clip-rule="evenodd" d="M580.656 86.1951C572.667 79.224 547 55.3781 547 36.7698C547 14.7319 561.4 0.0400391 583 0.0400391C604.6 0.0400391 619 18.4049 619 36.7698C619 52.3515 593.084 78.51 585.23 86.0802C583.948 87.3151 581.995 87.3638 580.656 86.1951ZM595 31.8725C595 38.6342 589.627 44.1157 583 44.1157C576.373 44.1157 571 38.6342 571 31.8725C571 25.1108 576.373 19.6292 583 19.6292C589.627 19.6292 595 25.1108 595 31.8725Z" fill="#D1D4D8"/>
<path d="M2.81055 379.077L96.1956 92.9796L194.9 50.04L285.921 81.995L387.581 50.04L478.602 81.995L584.99 50.04L676.011 81.995L794.811 405.04L645.276 366.594L511.109 405.04L387.581 379.077L251.049 392.058L121.611 353.612L2.81055 379.077Z" stroke="#D1D4D8" stroke-width="3"/>
<path d="M192.811 73.04L134.811 322.04" stroke="#D1D4D8" stroke-width="3"/>
<path d="M287.811 99.04L257.811 349.04" stroke="#D1D4D8" stroke-width="3"/>
<path d="M394.811 87.04V349.04" stroke="#D1D4D8" stroke-width="3"/>
<path d="M488.811 106.04L517.811 371.04" stroke="#D1D4D8" stroke-width="3"/>
<path d="M595.811 87.04L639.811 340.04" stroke="#D1D4D8" stroke-width="3"/>
<path d="M13.8105 411.54L20.9097 377.54L121.481 353.04L249.265 391.04L388.881 377.54L511.341 405.04L644.45 367.04L751.528 395.54L759.811 424.04L644.45 395.54L511.341 437.04L388.881 411.54L249.265 424.04L115.565 384.04L13.8105 411.54Z" fill="#D1D4D8"/>
</svg>
