<svg width="552" height="647" viewBox="0 0 552 647" fill="none" xmlns="http://www.w3.org/2000/svg">
<path d="M128.188 13.0639L54.6705 70.7054C12.8994 104.121 2.03863 145.055 2.03852 170.952V229.54V488.54C1.68175 495.604 5.02524 511.313 21.2534 517.636C127.631 553.279 347.738 627.406 377.146 638.767C406.553 650.128 423.373 643.501 428.107 638.767C448.849 623.983 488.465 595.555 513.539 576.54C551.039 547.04 549.499 534.54 549.499 525.04V442.54C547.881 347.401 545.593 221.679 542.56 176.799C539.219 127.345 514.156 119.158 496.612 110.804C397.753 76.5531 194.688 7.04914 173.301 3.03929C151.914 -0.970554 134.315 8.0516 128.188 13.0639Z" stroke="#D1D4D8" stroke-width="3" stroke-linecap="round"/>
<path d="M537.039 154.04C514.168 161.482 457.549 189.102 414.039 240.04" stroke="#D1D4D8" stroke-width="3" stroke-linecap="round"/>
<path d="M35.0391 90.04L351.383 192.882C378.093 202.079 415.82 220.641 419.827 268.133C423.833 315.624 421.496 536.526 419.827 641.04" stroke="#D1D4D8" stroke-width="3" stroke-linecap="round"/>
<path d="M2.03906 473.54C14.9385 478.83 275.843 564.251 392.203 602.791C407.235 607.77 427.277 608.448 444.815 594.473C457.137 584.655 482.478 565.925 507.539 547.04C514.352 541.93 544.508 518.798 549.539 515.04" stroke="#D1D4D8" stroke-width="3" stroke-linecap="round"/>
<path d="M56.0391 300.236V167.993C56.0391 161.145 62.7674 156.323 69.2524 158.524L259.252 222.997C263.31 224.373 266.039 228.182 266.039 232.466V363.192C266.039 370.01 259.366 374.829 252.894 372.684L104.039 323.362L62.8938 309.729C58.8017 308.373 56.0391 304.547 56.0391 300.236Z" stroke="#D1D4D8" stroke-width="3" stroke-linecap="round"/>
<path d="M379.539 283.04C379.539 305.065 364.121 322.54 345.539 322.54C326.957 322.54 311.539 305.065 311.539 283.04C311.539 261.015 326.957 243.54 345.539 243.54C364.121 243.54 379.539 261.015 379.539 283.04Z" stroke="#D1D4D8" stroke-width="3"/>
<rect x="340.539" y="263.54" width="10" height="39" rx="5" stroke="#D1D4D8" stroke-width="3"/>
<rect x="336.539" y="437.54" width="11" height="124" rx="5.5" stroke="#D1D4D8" stroke-width="3"/>
<rect x="271.539" y="415.54" width="11" height="124" rx="5.5" stroke="#D1D4D8" stroke-width="3"/>
<path d="M353.539 343.04C353.539 350.05 348.288 355.54 342.039 355.54C335.791 355.54 330.539 350.05 330.539 343.04C330.539 336.03 335.791 330.54 342.039 330.54C348.288 330.54 353.539 336.03 353.539 343.04Z" stroke="#D1D4D8" stroke-width="3"/>
<path d="M353.539 380.04C353.539 387.05 348.288 392.54 342.039 392.54C335.791 392.54 330.539 387.05 330.539 380.04C330.539 373.03 335.791 367.54 342.039 367.54C348.288 367.54 353.539 373.03 353.539 380.04Z" stroke="#D1D4D8" stroke-width="3"/>
<path d="M63.9805 422.54L62.9664 422.219C58.8075 420.905 55.9805 417.046 55.9805 412.685V397.801C55.9805 391.008 62.608 386.192 69.0688 388.29L201.069 431.152C205.19 432.49 207.98 436.33 207.98 440.663V457.655C207.98 464.337 201.553 469.139 195.145 467.244L171.206 460.165" stroke="#D1D4D8" stroke-width="3" stroke-linecap="round"/>
<path d="M139.492 517.04C148.836 486.993 172.306 456.111 182.039 446.095L76.923 411.04C56.9009 425.062 37.7131 463.901 31.0391 481.15" stroke="#D1D4D8" stroke-width="3" stroke-linecap="round"/>
<path d="M67.0391 407.04L194.039 448.04" stroke="#D1D4D8" stroke-width="3" stroke-linecap="round"/>
<path d="M294.707 508.526L264.215 498.666C257.195 496.396 250.218 502.249 251.233 509.556L251.447 511.097C251.965 514.825 254.532 517.947 258.091 519.174L288.679 529.726C295.734 532.159 302.871 526.288 301.845 518.897L301.535 516.665C301.008 512.867 298.355 509.705 294.707 508.526Z" fill="#D1D4D8"/>
<path d="M353.871 482.627L323.567 474.674C316.407 472.795 309.758 479.077 311.228 486.333L311.525 487.795C312.268 491.463 314.997 494.408 318.598 495.429L349.039 504.059C356.244 506.102 363.055 499.791 361.567 492.452L361.133 490.313C360.376 486.576 357.559 483.595 353.871 482.627Z" fill="#D1D4D8"/>
<path d="M87.0391 285.246L121.623 251.348C122.193 250.789 123.156 251.091 123.305 251.875L129.353 283.741C129.488 284.45 130.307 284.787 130.902 284.379L175.845 253.52C176.475 253.088 177.337 253.492 177.407 254.253L182.069 304.937C182.146 305.777 183.166 306.15 183.767 305.557L229.039 260.937" stroke="#D1D4D8" stroke-width="3" stroke-linecap="round"/>
<path d="M241.742 249.408C242.445 249.311 243.022 249.956 242.848 250.644L237.537 271.622C237.341 272.398 236.357 272.64 235.823 272.044L219.698 254.028C219.164 253.431 219.513 252.48 220.306 252.37L241.742 249.408Z" fill="#D1D4D8"/>
<path d="M446.039 534.202V399.727C446.039 396.267 447.827 393.054 450.767 391.23L514.767 351.517C521.428 347.383 530.039 352.174 530.039 360.014V486.853C530.039 490.023 528.536 493.006 525.987 494.892L461.987 542.241C455.386 547.125 446.039 542.413 446.039 534.202Z" stroke="#D1D4D8" stroke-width="3" stroke-linecap="round"/>
</svg>
