<svg width="842" height="314" viewBox="0 0 842 314" fill="none" xmlns="http://www.w3.org/2000/svg">
<path d="M137.5 290.582C159.9 248.582 161.5 187.997 159.5 162.954C119.5 96.9539 85.5 147.454 85.5 147.454C69 166.163 33.4 225.282 23 312.082" stroke="#D1D4D8" stroke-width="3" stroke-linecap="round"/>
<path d="M627.405 294.272C615.805 243.473 622.572 196.439 627.405 179.272C651.905 98.2722 706.456 115.911 706.456 147.41L711.956 232.91" stroke="#D1D4D8" stroke-width="3" stroke-linecap="round"/>
<path d="M183.5 38.2923C189.167 32.522 206.209 12.2313 196 3.48096C185.5 -5.51843 164 30.1485 160.5 40.9818C148.333 52.8151 129.8 71.6812 103 118.481" stroke="#D1D4D8" stroke-width="3" stroke-linecap="round"/>
<path d="M216 29.9943C208.779 29.6313 197.002 31.6078 183.5 38.2919C175.167 43.8551 156.7 59.3814 149.5 76.9814" stroke="#D1D4D8" stroke-width="3" stroke-linecap="round"/>
<path d="M265.5 33.4092C255.157 28.7339 236.193 24.7193 216 29.9944C201.375 33.8149 186.105 42.5083 173 59.3529" stroke="#D1D4D8" stroke-width="3" stroke-linecap="round"/>
<path d="M167 150.853C172.667 143.853 193.5 131.953 231.5 140.353C248 145.644 281.3 153.05 282.5 140.353C286 124.853 249.5 99.3531 231.5 107.353C213.5 115.353 212.5 94.3531 222 81.8531C231.5 69.3531 243 40.8531 261 61.3531C267 70.772 265.5 88.3527 278.5 96.9809C292.597 106.337 303.5 93.853 297 84.853C291.251 76.8931 289.022 77.1465 290.659 64.8587C290.873 63.253 291.153 61.4333 291.5 59.353C290.131 50.1585 282.915 37.9983 265.5 33.4093C251.112 29.618 225.5 35.9815 206 54.9815" stroke="#D1D4D8" stroke-width="3" stroke-linecap="round"/>
<path d="M496.02 54.4828C495.997 45.7329 500.457 32.8403 514.5 25.0695C534.5 12.5405 585.4 -2.81735 629 35.9826C672.6 74.7826 681.833 98.0571 681 104.844" stroke="#D1D4D8" stroke-width="3" stroke-linecap="round"/>
<path d="M496.02 54.4819C495.997 45.732 500.457 32.8394 514.5 25.0686C525.333 19.0737 562.5 11.2884 582.5 26.9815" stroke="#D1D4D8" stroke-width="3" stroke-linecap="round"/>
<path d="M622.949 158.343C623.282 147.343 616.949 131.043 590.949 139.843C558.449 150.843 499.949 146.843 499.449 121.343C499.049 100.943 535.616 101.843 553.949 104.843C565.949 106.51 585.249 103.443 566.449 77.843C542.949 45.843 530.674 48.481 520.5 67.981C514.5 79.481 514.5 82.481 505.5 82.481C490.83 82.481 489.782 68.8431 492.949 61.8431C493.684 59.5593 494.703 57.06 496.02 54.4814C504.862 37.1653 520.5 16.481 566.449 38.981" stroke="#D1D4D8" stroke-width="3" stroke-linecap="round"/>
<path d="M145.5 54.9821C136 44.3155 116.4 34.1824 92 54.9824C61.5 80.9824 85.5 160.482 28.5 144.982C23.3333 143.816 10.8 138.582 2 126.982" stroke="#D1D4D8" stroke-width="3" stroke-linecap="round"/>
<path d="M220.5 85.3542C247 83.9825 252 103.983 278 113.983" stroke="#D1D4D8" stroke-width="3" stroke-linecap="round"/>
<path d="M432.948 95.9824C426.448 97.4824 417.449 100.216 406.449 99.4824C398.949 98.9824 396.449 112.482 407.449 112.482C414.949 111.982 427.448 110.482 433.948 107.482" stroke="#D1D4D8" stroke-width="3" stroke-linecap="round"/>
<path d="M435 120.982C423 121.316 402 119.748 402 128.982C402 141.482 417.5 136.982 439.5 131.982" stroke="#D1D4D8" stroke-width="3" stroke-linecap="round"/>
<path d="M322 91.4815C325.333 86.8148 331.4 81.9659 337 93.1659C342.6 104.366 339.333 130.815 338 141.981C337 149.481 327 145.981 324.5 139.981" stroke="#D1D4D8" stroke-width="3" stroke-linecap="round"/>
<path d="M514.001 89.4819C498.433 73.9991 457.943 73.3654 433.697 80.3201C432.616 80.6302 431.824 81.5439 431.653 82.6554C427.384 110.382 435.936 134.291 441.566 144.339C442.096 145.285 443.125 145.819 444.208 145.753C470.125 144.192 489.99 132.676 498.081 126.022C498.942 125.314 499.247 124.165 499.097 123.061C497.674 112.65 508.341 106.824 514.959 104.763C515.889 104.474 516.675 103.807 516.963 102.877C518.94 96.5069 516.84 92.3052 514.001 89.4819Z" fill="#D1D4D8"/>
<path d="M517.5 94.9826C525.5 88.6493 547 77.4826 569 83.4826" stroke="#D1D4D8" stroke-width="3" stroke-linecap="round"/>
<path d="M673.5 80.9813C690.5 72.481 705 70.4815 730.5 87.9817C760.849 108.81 815.167 91.3151 840.5 77.4817" stroke="#D1D4D8" stroke-width="3" stroke-linecap="round"/>
<path d="M276.499 112.482C271.699 138.882 303.832 144.816 320.499 144.482C338.499 146.311 343.999 84.4824 313.499 88.9824C308.408 89.7335 303.926 90.9184 299.999 92.3809C294.499 100.482 287.289 98.801 283.499 102.446C279.58 106.216 277.371 109.934 276.499 112.482Z" fill="#D1D4D8"/>
<path d="M408.139 191.482L420.639 199.482" stroke="#D1D4D8" stroke-width="3" stroke-linecap="round"/>
<path d="M370.639 186.481C370.639 191.648 372.039 203.781 377.639 210.981" stroke="#D1D4D8" stroke-width="3" stroke-linecap="round"/>
<path d="M336.638 181.981C333.138 186.648 328.238 197.381 336.638 202.981" stroke="#D1D4D8" stroke-width="3" stroke-linecap="round"/>
<path d="M403.039 49.5181C404.303 42.8337 407.855 27.9134 411.96 21.7078" stroke="#D1D4D8" stroke-width="3" stroke-linecap="round"/>
<path d="M368.988 48.2318C367.273 44.068 365.096 33.3591 370.108 23.8342" stroke="#D1D4D8" stroke-width="3" stroke-linecap="round"/>
<path d="M337.409 55.0919C336.19 53.2325 334.08 46.9404 335.397 36.6474" stroke="#D1D4D8" stroke-width="3" stroke-linecap="round"/>
</svg>
