<svg width="279" height="183" viewBox="0 0 279 183" fill="none" xmlns="http://www.w3.org/2000/svg">
<path d="M0.00390625 150.073C0.00372535 135.073 25.5039 122.374 37.0039 123.041C34.5 162.5 44.8373 165.541 54.5039 167.041H181.004C181.004 168.041 182.504 181.541 171.004 182.073H63.0041C41.6708 183.406 0.00419922 174.364 0.00390625 150.073Z" fill="#D1D4D8"/>
<path d="M277.004 60.04V22.04C277.004 10.9943 268.05 2.04004 257.004 2.04004H58.0039C46.9582 2.04004 38.0039 10.9943 38.0039 22.04V147.04C38.0039 158.086 46.9582 167.04 58.0039 167.04H177.504" stroke="#D1D4D8" stroke-width="3" stroke-linecap="round"/>
<path d="M66.0039 125.04H114.004" stroke="#D1D4D8" stroke-width="3" stroke-linecap="round"/>
<path d="M130.004 125.04H137.004" stroke="#D1D4D8" stroke-width="3" stroke-linecap="round"/>
<path d="M214.004 115.54H272.004C273.937 115.54 275.504 117.107 275.504 119.04V155.04C275.504 162.496 269.46 168.54 262.004 168.54H224.004C216.548 168.54 210.504 162.496 210.504 155.04V119.04C210.504 117.107 212.071 115.54 214.004 115.54Z" stroke="#D1D4D8" stroke-width="3"/>
<path d="M261.5 105V115.5H224.5V105C224.5 94.7827 232.783 86.5 243 86.5C253.217 86.5 261.5 94.7827 261.5 105Z" stroke="#D1D4D8" stroke-width="3"/>
<circle cx="243.004" cy="136.04" r="7" fill="#D1D4D8"/>
<rect x="240.004" y="139.04" width="6" height="12" rx="3" fill="#D1D4D8"/>
<rect x="39" y="24" width="237" height="28" fill="#D1D4D8"/>
</svg>
