<svg width="404" height="375" viewBox="0 0 404 375" fill="none" xmlns="http://www.w3.org/2000/svg">
<path d="M60.2217 278.04V247.759V211.891C60.2217 203.181 61.4546 195.58 50.969 194.982C40.4834 194.384 35.4903 206.255 17.5149 202.156C8.02807 199.992 0.0390723 190.371 0.0390625 179.098C0.0390456 159.627 21.1714 147.879 41.4819 160.652C60.2217 172.437 60.2217 150.404 60.2217 143.23V96.04C60.2217 94.9355 61.1172 94.04 62.2217 94.04H131.124C145.105 95.0648 136.617 110.949 132.622 120.685C124.633 140.156 135.452 151.087 143.108 153.991C170.071 160.652 176.562 131.957 167.574 120.685C155.285 105.271 158.586 95.5772 164.578 95.5772H230.833C231.995 95.5772 232.916 96.5583 232.875 97.7195C232.569 106.292 232.984 126.454 232.984 146.305C232.984 172.949 256.951 164.238 256.951 164.751C256.951 165.263 292.865 155.183 295.898 183.197C297.895 201.643 278.422 213.428 256.951 206.767C239.775 201.438 236.979 207.792 236.979 213.428V278.04C236.979 279.145 236.083 280.04 234.979 280.04H161.208C160.51 280.04 159.854 279.668 159.506 279.064C150.452 263.349 159.059 256.109 164.079 243.66C170.071 228.801 163.522 216.425 153.593 213.428C140.611 209.51 117.643 216.503 127.13 243.66C134.445 264.601 134.12 280.04 122.137 280.04H62.2217C61.1172 280.04 60.2217 279.145 60.2217 278.04Z" fill="#D1D4D8"/>
<path d="M231.805 98.04H289.305C296.305 98.04 309.072 91.6603 304.805 66.0535C300.305 39.0517 321.775 39.2765 330.805 42.5509C335.471 44.2194 343.405 51.2556 337.805 66.0535C330.805 84.5508 335.305 99.0561 349.805 99.0561H399.805C400.909 99.0561 401.805 99.9515 401.805 101.056V275.521C401.805 276.633 400.918 277.532 399.806 277.522C390.241 277.436 349.301 277.099 341.805 277.54C333.305 278.04 334.78 287.315 339.805 299.04C347.305 316.54 339.554 337.893 314.305 333.54C299.805 331.04 293.805 315.54 299.805 299.04C305.805 282.54 298.805 277.54 292.305 277.54C279.099 277.54 248.206 277.373 235.039 277.54" stroke="#D1D4D8" stroke-width="3" stroke-linecap="round"/>
<path d="M239.539 334.04C242.706 339.54 249.239 351.44 250.039 355.04" stroke="#D1D4D8" stroke-width="3" stroke-linecap="round"/>
<path d="M227.04 337.04C225.373 341.54 224.54 354.94 234.54 372.54" stroke="#D1D4D8" stroke-width="3" stroke-linecap="round"/>
<path d="M208.039 334.04C201.539 340.04 188.239 354.04 187.039 362.04" stroke="#D1D4D8" stroke-width="3" stroke-linecap="round"/>
<path d="M229.039 40.54C235.539 34.54 248.839 20.54 250.039 12.54" stroke="#D1D4D8" stroke-width="3" stroke-linecap="round"/>
<path d="M210.038 37.54C211.705 33.04 212.538 19.64 202.538 2.04004" stroke="#D1D4D8" stroke-width="3" stroke-linecap="round"/>
<path d="M197.539 40.54C194.372 35.04 187.839 23.14 187.039 19.54" stroke="#D1D4D8" stroke-width="3" stroke-linecap="round"/>
</svg>
