<svg width="740" height="428" viewBox="0 0 740 428" fill="none" xmlns="http://www.w3.org/2000/svg">
<path d="M66.0724 139.079C64.5493 134.481 69.7997 130.62 73.7345 133.444L102.549 154.128C104.309 155.391 106.682 155.378 108.427 154.095L137.002 133.082C140.904 130.213 146.199 134.013 144.728 138.628L133.961 172.424C133.303 174.488 134.05 176.741 135.809 178.004L164.624 198.688C168.558 201.512 166.58 207.722 161.737 207.749L126.268 207.952C124.102 207.965 122.19 209.371 121.532 211.434L110.765 245.23C109.294 249.845 102.778 249.883 101.254 245.285L90.1007 211.614C89.4196 209.558 87.4919 208.174 85.3258 208.187L49.8568 208.39C45.0132 208.418 42.9639 202.231 46.8661 199.362L75.4418 178.349C77.1869 177.066 77.9072 174.805 77.2261 172.749L66.0724 139.079Z" fill="#D1D4D8"/>
<path d="M209.033 56.5231C208.971 51.6799 215.142 49.5861 218.039 53.4676L239.257 81.8911C240.553 83.627 242.819 84.331 244.87 83.6351L278.459 72.2392C283.046 70.683 286.945 75.9055 284.149 79.8605L263.673 108.823C262.422 110.592 262.453 112.965 263.749 114.7L284.966 143.124C287.864 147.005 284.102 152.327 279.476 150.89L245.604 140.366C243.535 139.723 241.288 140.486 240.038 142.255L219.562 171.217C216.766 175.172 210.542 173.239 210.479 168.395L210.021 132.929C209.993 130.763 208.573 128.861 206.505 128.219L172.632 117.695C168.007 116.258 167.923 109.741 172.509 108.185L206.099 96.7893C208.15 96.0934 209.52 94.1557 209.492 91.9898L209.033 56.5231Z" fill="#D1D4D8"/>
<path d="M369.184 19.4636C370.993 14.9706 377.495 15.4181 378.672 20.1165L387.29 54.523C387.817 56.6242 389.636 58.1475 391.797 58.2963L427.183 60.7315C432.015 61.064 433.599 67.3858 429.494 69.957L399.435 88.7862C397.599 89.9361 396.713 92.1372 397.239 94.2384L405.858 128.645C407.035 133.343 401.512 136.803 397.798 133.694L370.602 110.924C368.941 109.534 366.573 109.371 364.738 110.521L334.679 129.35C330.574 131.921 325.577 127.737 327.386 123.245L340.637 90.3431C341.446 88.3338 340.87 86.032 339.209 84.6414L312.013 61.872C308.299 58.7627 310.733 52.7175 315.566 53.05L350.951 55.4853C353.112 55.634 355.123 54.3743 355.933 52.365L369.184 19.4636Z" fill="#D1D4D8"/>
<path d="M672.647 130.62L661.513 164.297C660.629 166.97 661.567 169.909 663.837 171.576L692.425 192.572C695.158 194.579 693.726 198.91 690.335 198.893L654.866 198.71C652.05 198.696 649.545 200.496 648.661 203.17L637.527 236.847C636.463 240.066 631.901 240.042 630.87 236.812L620.083 203.023C619.226 200.34 616.74 198.514 613.924 198.5L578.455 198.317C575.064 198.3 573.677 193.954 576.43 191.975L605.233 171.275C607.519 169.631 608.488 166.702 607.631 164.02L596.844 130.23C595.813 127 599.517 124.338 602.25 126.345L630.838 147.341C633.108 149.008 636.192 149.023 638.479 147.38L667.281 126.679C670.035 124.701 673.711 127.401 672.647 130.62Z" stroke="#D1D4D8" stroke-width="3"/>
<path d="M532.135 51.0506L529.036 86.3845C528.79 89.1897 530.379 91.8343 532.97 92.9351L565.618 106.801C568.738 108.126 568.34 112.671 565.036 113.433L530.474 121.405C527.73 122.038 525.706 124.365 525.46 127.171L522.361 162.505C522.065 165.882 517.62 166.907 515.874 164.001L497.612 133.594C496.162 131.18 493.323 129.974 490.579 130.607L456.017 138.579C452.713 139.341 450.364 135.43 452.589 132.871L475.865 106.107C477.712 103.982 477.982 100.909 476.532 98.4949L458.27 68.0878C456.524 65.1812 459.518 61.7389 462.639 63.0643L495.286 76.93C497.878 78.0308 500.884 77.3375 502.732 75.2126L526.007 48.4481C528.232 45.8897 532.431 47.673 532.135 51.0506Z" stroke="#D1D4D8" stroke-width="3"/>
<path d="M523.857 162.635L527.131 125.301C527.223 124.249 526.98 123.195 526.436 122.29L500.054 78.3621C499.51 77.4569 498.694 76.747 497.722 76.3343L463.226 61.6836C458.768 59.7901 454.492 64.7077 456.985 68.86L475.247 99.2671C476.363 101.124 476.155 103.488 474.734 105.122L451.458 131.887C448.28 135.542 451.635 141.129 456.355 140.04L490.917 132.068C493.028 131.581 495.212 132.509 496.327 134.366L514.589 164.773C517.083 168.925 523.433 167.461 523.857 162.635Z" fill="#D1D4D8"/>
<path d="M228.772 410.695C241.589 393.98 252.687 355.871 256.272 339.085C260.18 320.136 275.773 284.345 349.773 335.585C364.772 350.585 359.273 370.085 334.273 410.695" stroke="#D1D4D8" stroke-width="3" stroke-linecap="round"/>
<path d="M285.09 259.487C285.09 268.857 284.271 290.085 277.771 308.585" stroke="#D1D4D8" stroke-width="3" stroke-linecap="round"/>
<path d="M363.533 161.236C360.945 159.828 349.147 161.236 336.576 166.45C323.468 171.886 313.895 175.488 297.647 193.988C293.604 198.59 280.302 218.846 283.647 241.488" stroke="#D1D4D8" stroke-width="3" stroke-linecap="round"/>
<path d="M334.205 211.818C350.073 203.428 380.898 188.304 391.635 177.92C402.663 175.785 429.897 179.353 427.149 164.73C426.576 161.683 416.987 154.126 402.733 151.562C392.476 149.717 385.038 148.996 376.517 153.575C371.686 156.171 369.77 157.093 363.532 161.236C358.691 163.369 355.741 165.836 351.788 168.553" stroke="#D1D4D8" stroke-width="3" stroke-linecap="round"/>
<path d="M356.463 337.533C369.463 321.533 392.963 296.533 402.463 279.033L417.963 252.533C428.463 235.664 432.957 221.911 436.97 214.454C438.753 211.14 439.863 208.623 442.333 203.697C444.575 199.226 446.547 194.711 444.982 191.007C443.784 188.171 438.786 183.207 428.377 186.041C417.967 188.875 410.869 197.665 408.62 201.707C406.369 205.055 396.592 217.188 393.915 219.851C387.693 226.038 357.042 251.695 337.925 236.664" stroke="#D1D4D8" stroke-width="3" stroke-linecap="round"/>
<path d="M240.146 272.987L459.146 164.487" stroke="#D1D4D8" stroke-width="10" stroke-linecap="round"/>
</svg>
