<svg width="523" height="322" viewBox="0 0 523 322" fill="none" xmlns="http://www.w3.org/2000/svg">
<path d="M496.027 272.535L236.027 277.535V243.035L466.027 238.535L522.213 258.705C523.057 259.015 523.106 260.185 522.29 260.565L496.027 272.535Z" fill="#D1D4D8"/>
<path d="M163.107 243.585L198.527 290.535V243.585H163.107Z" fill="#D1D4D8"/>
<path d="M1.52734 311.885C16.8373 304.735 54.1073 290.875 80.7043 292.705C84.4743 292.855 90.1683 294.435 82.7823 299.555C75.3953 304.665 71.7013 307.315 70.7783 308.005C66.9313 311.195 63.1574 317.955 78.8574 319.415C98.4794 321.245 153.879 301.385 263.527 315.995" stroke="#D1D4D8" stroke-width="3" stroke-linecap="round"/>
<path d="M201.027 292.535V122.035H233.527V286.535" stroke="#D1D4D8" stroke-width="3" stroke-linecap="round"/>
<path d="M201.027 5.04004V18.54H233.527V5.04004C233.527 3.38304 232.184 2.04004 230.527 2.04004H204.027C202.37 2.04004 201.027 3.38304 201.027 5.04004Z" stroke="#D1D4D8" stroke-width="3" stroke-linecap="round"/>
<path d="M175.195 21.2842L180.372 118.7C180.458 120.327 181.827 121.587 183.455 121.54L385.826 115.66C386.597 115.637 387.33 115.319 387.872 114.77L428.551 73.624C429.663 72.4995 429.711 70.7054 428.661 69.523L383.922 19.1332C383.353 18.492 382.537 18.125 381.679 18.125H178.191C176.472 18.125 175.104 19.5672 175.195 21.2842Z" stroke="#D1D4D8" stroke-width="3" stroke-linecap="round"/>
<path d="M341.758 290.123V269.125" stroke="#D1D4D8" stroke-width="3" stroke-linecap="round"/>
<path d="M360.527 280.791L349.077 290.123" stroke="#D1D4D8" stroke-width="3" stroke-linecap="round"/>
<path d="M334.117 290.123L325.527 276.458" stroke="#D1D4D8" stroke-width="3" stroke-linecap="round"/>
<path d="M395.758 221.123V200.125" stroke="#D1D4D8" stroke-width="3" stroke-linecap="round"/>
<path d="M414.527 211.791L403.077 221.123" stroke="#D1D4D8" stroke-width="3" stroke-linecap="round"/>
<path d="M388.117 221.123L379.527 207.458" stroke="#D1D4D8" stroke-width="3" stroke-linecap="round"/>
<path d="M89.7578 238.123V217.125" stroke="#D1D4D8" stroke-width="3" stroke-linecap="round"/>
<path d="M108.527 228.791L97.0774 238.123" stroke="#D1D4D8" stroke-width="3" stroke-linecap="round"/>
<path d="M82.1172 238.123L73.5272 224.458" stroke="#D1D4D8" stroke-width="3" stroke-linecap="round"/>
</svg>
