<svg width="414" height="346" viewBox="0 0 414 346" fill="none" xmlns="http://www.w3.org/2000/svg">
<g clip-path="url(#clip0_418_4058)">
<path d="M92.3066 151.551C85.2388 148.557 77.4661 146.9 69.3066 146.9C36.7218 146.9 10.3066 173.316 10.3066 205.9C10.3066 238.485 36.7218 264.9 69.3066 264.9C101.891 264.9 128.306 238.485 128.306 205.9C128.306 191.658 123.26 178.595 114.858 168.4" stroke="#D1D4D8" stroke-width="3" stroke-linecap="round"/>
<path d="M215.807 98.4004C224.307 126.567 259.407 188.5 331.807 210.9" stroke="#D1D4D8" stroke-width="3" stroke-linecap="round"/>
<path d="M331.807 218.4C333.974 248.567 337.007 313.1 331.807 329.9" stroke="#D1D4D8" stroke-width="3" stroke-linecap="round"/>
<path d="M334.807 336.9C347.974 344.734 375.007 349.7 377.807 306.9C380.607 264.1 375.641 210.067 372.807 188.4" stroke="#D1D4D8" stroke-width="3" stroke-linecap="round"/>
<path d="M381.307 199.9C394.807 184.4 434.807 128.9 388.307 47.9004" stroke="#D1D4D8" stroke-width="3" stroke-linecap="round"/>
<path d="M376.807 34.403C353.307 10.4005 340.807 1.31193 324.807 14.4032C318.807 19.3123 317.307 30.4025 326.307 44.4025" stroke="#D1D4D8" stroke-width="3" stroke-linecap="round"/>
<path d="M198.306 41.3991C196.306 28.3991 200.36 7.99158 217.806 3.39986C227.306 0.899468 240.306 12.0251 243.806 18.4004" stroke="#D1D4D8" stroke-width="3" stroke-linecap="round"/>
<path d="M261.307 75.9004C269.126 109.172 297.702 171.869 349.52 156.984C349.707 156.93 349.891 156.858 350.062 156.766C363.479 149.554 376.952 122.059 352.307 83.9004" stroke="#D1D4D8" stroke-width="3" stroke-linecap="round"/>
<path d="M264.307 84.4L324.307 47.9C333.851 40.6601 357.494 28.0272 376.571 34.6343C377.055 34.8021 377.481 35.1054 377.812 35.4967L386.884 46.2172C387.731 47.2184 387.832 48.6561 387.114 49.7541C374.743 68.685 365.767 73.2555 348.807 84.4" stroke="#D1D4D8" stroke-width="3" stroke-linecap="round"/>
<path d="M222.307 116.9L125.307 184.9" stroke="#D1D4D8" stroke-width="3" stroke-linecap="round"/>
<path d="M277.807 117.401C313.307 101.9 311.807 101.9 349.307 84.4014" stroke="#D1D4D8" stroke-width="3" stroke-linecap="round"/>
<path d="M128.807 195.901L234.307 139.901" stroke="#D1D4D8" stroke-width="3" stroke-linecap="round"/>
<path d="M290.109 95.4414L331.609 71.9414" stroke="#D1D4D8" stroke-width="3" stroke-linecap="round"/>
<path d="M214.307 89.4004C210.707 95.4004 204.307 99.4007 199.307 102.901L23.8071 239.401C17.3071 243.401 15.3073 240.4 14.3073 238.4C12.5044 234.795 17.3072 230.938 18.3071 229.901C80.9738 164.901 182.507 60.3004 193.307 47.9004" stroke="#D1D4D8" stroke-width="3" stroke-linecap="round"/>
<path d="M243.807 18.4004C249.483 25.8499 255.952 36.735 261.008 47.1093C261.206 47.5154 261.307 47.9608 261.307 48.4126V76.9004" stroke="#D1D4D8" stroke-width="3" stroke-linecap="round"/>
<path d="M110.109 154.941L192.609 78.4414" stroke="#D1D4D8" stroke-width="3" stroke-linecap="round"/>
<path d="M190.307 151.4L216.807 132.9" stroke="#D1D4D8" stroke-width="3" stroke-linecap="round"/>
<path d="M214.307 89.9C218.141 79.9003 232.607 57.4008 259.807 47.4004" stroke="#D1D4D8" stroke-width="3" stroke-linecap="round"/>
<path d="M193.807 47.4008C205.641 39.7341 233.807 25.9008 251.807 31.9008" stroke="#D1D4D8" stroke-width="3" stroke-linecap="round"/>
<path d="M40.8066 308.9C63.1742 308.9 81.3066 304.423 81.3066 298.9C81.3066 293.378 63.1742 288.9 40.8066 288.9C18.4391 288.9 0.306641 293.378 0.306641 298.9C0.306641 304.423 18.4391 308.9 40.8066 308.9Z" fill="#D1D4D8"/>
<path d="M16.3066 179.902C25.9733 172.735 44.3066 163.4 66.8066 179.902" stroke="#D1D4D8" stroke-width="3" stroke-linecap="round"/>
<path d="M79.3066 196.902C86.64 205.235 99.1066 229.502 90.3066 259.902" stroke="#D1D4D8" stroke-width="3" stroke-linecap="round"/>
</g>
<defs>
<clipPath id="clip0_418_4058">
<rect width="413" height="345" fill="white" transform="translate(0.158203 0.0400391)"/>
</clipPath>
</defs>
</svg>
