<svg width="464" height="366" viewBox="0 0 464 366" fill="none" xmlns="http://www.w3.org/2000/svg">
<path d="M288.399 152.294C301.944 235.812 260.67 311.283 197.097 321.594C133.524 331.904 70.5135 273.346 56.9684 189.827C43.4233 106.309 84.6973 30.8377 148.27 20.5274C211.843 10.2172 274.854 68.7754 288.399 152.294Z" stroke="#D1D4D8" stroke-width="3"/>
<path d="M262.282 155C267.474 187.013 262.54 217.498 250.437 240.897C238.334 264.296 219.123 280.52 195.747 284.311C172.37 288.102 149.016 278.781 130.139 260.407C111.261 242.033 96.9445 214.67 91.7526 182.657C86.5607 150.644 91.4952 120.159 103.598 96.7599C115.701 73.3611 134.912 57.137 158.288 53.3458C181.665 49.5546 205.018 58.8755 223.896 77.2499C242.774 95.624 257.09 122.987 262.282 155Z" stroke="#D1D4D8" stroke-width="3"/>
<ellipse cx="185.126" cy="170.1" rx="44.301" ry="59.7332" transform="rotate(-9.21208 185.126 170.1)" fill="#D1D4D8"/>
<path d="M83.3336 305.041C163.333 382.041 252.333 337.041 271.334 288.541C262.872 336.919 205.545 364.366 157.833 365.54C105.333 365.54 39.8331 322.04 21.8329 282.54C-44.4064 137.183 56.5002 34.874 106.834 20.541C12.3333 65.041 -2.64687 222.284 83.3336 305.041Z" fill="#D1D4D8"/>
<path d="M184.334 157.04L326.834 65.9312L355.334 48.04" stroke="#D1D4D8" stroke-width="3" stroke-linecap="round"/>
<path d="M323.334 58.54L326.602 36.131C326.747 35.1372 327.379 34.2819 328.287 33.8523L383.422 7.75815C386.101 6.49017 388.8 9.46191 387.281 12.0072L376.267 30.4631C375.137 32.3558 376.366 34.7796 378.561 34.9872L402.422 37.2443C405.234 37.5103 406.153 41.1604 403.803 42.7271L356.536 74.2389C355.776 74.7452 354.828 74.8782 353.958 74.6004L326.834 65.9312" stroke="#D1D4D8" stroke-width="3" stroke-linecap="round"/>
<path d="M189.833 167.54L368.215 103.652L399.868 92.2309" stroke="#D1D4D8" stroke-width="3" stroke-linecap="round"/>
<path d="M366.367 95.6851L374.326 74.4837C374.679 73.5435 375.479 72.8423 376.458 72.6156L435.88 58.844C438.768 58.1748 440.773 61.6526 438.748 63.8166L424.061 79.508C422.555 81.1171 423.24 83.7468 425.34 84.4163L448.175 91.6964C450.866 92.5543 450.988 96.3166 448.359 97.3476L395.471 118.086C394.621 118.419 393.666 118.347 392.876 117.891L368.215 103.652" stroke="#D1D4D8" stroke-width="3" stroke-linecap="round"/>
<path d="M329.048 147.002L339.642 129.346C340.156 128.489 341.063 127.945 342.061 127.894L395.809 125.133C398.768 124.981 400.133 128.753 397.762 130.53L383.088 141.523C381.335 142.837 381.535 145.525 383.463 146.565L401.379 156.228C403.851 157.561 403.3 161.255 400.548 161.81L351.095 171.77C350.185 171.953 349.241 171.705 348.539 171.097L329.318 154.455" stroke="#D1D4D8" stroke-width="3" stroke-linecap="round"/>
<path d="M192.832 178.04L329.318 154.455L359.24 149.284" stroke="#D1D4D8" stroke-width="3" stroke-linecap="round"/>
</svg>
