<svg width="534" height="380" viewBox="0 0 534 380" fill="none" xmlns="http://www.w3.org/2000/svg">
<path d="M116.067 338.547C71.8678 303.108 178.597 285.209 236.286 281.595C236.754 281.566 237.163 281.876 237.295 282.325C254.465 340.757 299.159 364.405 319.568 370.047C271.068 374.88 160.467 374.147 116.067 338.547Z" fill="#D1D4D8"/>
<circle cx="363.568" cy="245.547" r="117.5" stroke="#D1D4D8" stroke-width="3"/>
<circle cx="363.568" cy="245.547" r="132.5" stroke="#D1D4D8" stroke-width="3"/>
<circle cx="363.568" cy="147.547" r="6" fill="#D1D4D8"/>
<circle cx="363.568" cy="343.547" r="6" fill="#D1D4D8"/>
<circle cx="461.568" cy="245.547" r="6" fill="#D1D4D8"/>
<circle cx="265.568" cy="245.547" r="6" fill="#D1D4D8"/>
<circle cx="363.568" cy="246.547" r="13.5" stroke="#D1D4D8" stroke-width="3"/>
<path d="M313.568 246.547H351.568" stroke="#D1D4D8" stroke-width="3" stroke-linecap="round"/>
<path d="M150.568 152.047C146.068 151.38 135.968 149.447 131.568 147.047" stroke="#D1D4D8" stroke-width="3" stroke-linecap="round"/>
<path d="M256.068 168.047C242.568 169.214 212.168 169.647 186.568 160.047" stroke="#D1D4D8" stroke-width="3" stroke-linecap="round"/>
<path d="M230.568 238.047C196.068 238.88 122.768 237.147 91.5684 225.547" stroke="#D1D4D8" stroke-width="3" stroke-linecap="round"/>
<path d="M144.568 273.547C109.735 272.38 32.3684 267.547 1.56836 257.547" stroke="#D1D4D8" stroke-width="3" stroke-linecap="round"/>
<path d="M363.568 235.047V169.547" stroke="#D1D4D8" stroke-width="3" stroke-linecap="round"/>
<path d="M487.568 204.548C503.068 205.548 535.068 214.048 532.068 194.548C530.522 184.499 519.827 182.666 514.145 183.004C513.787 183.026 513.447 182.872 513.236 182.582C506.799 173.724 490.401 160.177 473.5 173.54" stroke="#D1D4D8" stroke-width="3" stroke-linecap="round"/>
<path d="M301.068 70.7882C305.068 54.4549 324.568 26.6882 370.568 46.2882L385.068 53.5469" stroke="#D1D4D8" stroke-width="3" stroke-linecap="round"/>
<path d="M370.568 46.2878C380.402 39.6212 404.568 32.488 416.568 57.288" stroke="#D1D4D8" stroke-width="3" stroke-linecap="round"/>
<path d="M280.568 72.2881H317.568" stroke="#D1D4D8" stroke-width="3" stroke-linecap="round"/>
<path d="M159.603 30.0821C158.229 21.5302 149.87 14.8678 139.566 14.8678C137.619 14.8678 135.673 15.1661 133.955 15.5638C128.689 7.50923 118.727 2.04004 107.278 2.04004C90.3321 2.04004 76.707 13.9728 76.707 28.5905" stroke="#D1D4D8" stroke-width="3" stroke-miterlimit="10" stroke-linecap="round" stroke-linejoin="round"/>
<path d="M159.603 30.0821C171.854 31.3748 181.357 40.4238 181.357 51.4617C181.357 63.3944 170.251 73.0401 156.512 73.0401L89.073 72.9406H82.2032C68.4636 72.9406 57.3574 63.295 57.3574 51.3622C57.3574 41.0205 65.7157 32.4687 76.8219 30.281C81.8597 29.2534 95.004 27.3376 107.278 27.8944M159.603 30.281C155.863 29.6512 145.978 30.1815 136.36 37.3412" stroke="#D1D4D8" stroke-width="3" stroke-miterlimit="10" stroke-linecap="round" stroke-linejoin="round"/>
</svg>
