<svg width="740" height="509" viewBox="0 0 740 509" fill="none" xmlns="http://www.w3.org/2000/svg">
<path d="M589.503 148.966C579.095 224.911 591.041 310.131 599.918 349.936C600.386 352.035 598.792 354.04 596.633 354.04H565.173C563.693 354.04 562.386 353.075 561.983 351.656C541.977 281.36 563.528 197.086 583.291 147.079C584.737 143.422 590.039 145.072 589.503 148.966Z" fill="#D1D4D8"/>
<path d="M720.924 181.04C743.7 220.416 667.086 307.708 589 269.642" stroke="#D1D4D8" stroke-width="3" stroke-linecap="round"/>
<path d="M684.702 56.04C731.274 62.5253 756.812 125.405 721.454 180.954C715.02 191.064 687.092 202.04 674 202.04" stroke="#D1D4D8" stroke-width="3" stroke-linecap="round"/>
<path d="M448 133.04C448 84.5485 460.985 32.9542 538.72 9.9034C620.591 -14.3748 665.08 22.3049 684.375 55.5603C693.546 71.366 689.998 86.5388 684.375 99.5848" stroke="#D1D4D8" stroke-width="3" stroke-linecap="round"/>
<path d="M563 195.04C549.356 181.085 520.695 156.393 531.308 100.04" stroke="#D1D4D8" stroke-width="3" stroke-linecap="round"/>
<path d="M589 222.04C599.555 218.817 625.733 202.706 646 164.04" stroke="#D1D4D8" stroke-width="3" stroke-linecap="round"/>
<path d="M639.843 380.183C631.733 357.555 585.532 348.322 559.043 346.058C556.176 345.814 553.762 348.078 553.762 350.925V405.505C553.762 408.242 551.519 410.459 548.753 410.459H459C584.865 422.429 650.692 410.459 639.843 380.183Z" fill="#D1D4D8"/>
<path d="M485.429 431.293C509.651 417.106 449.146 417.011 414.061 415.04L298 475.623C358.554 484.98 461.208 445.477 485.429 431.293Z" fill="#D1D4D8"/>
<path d="M484.234 204.04L551.144 258.12C552.318 259.07 553 260.495 553 261.998V404.04C553 406.802 550.748 409.04 547.969 409.04H444" stroke="#D1D4D8" stroke-width="3" stroke-linecap="round"/>
<path d="M472.96 198.173L412.727 277.079C410.705 279.727 406.722 279.687 404.754 276.999L346.98 198.092C344.555 194.781 346.907 190.106 350.997 190.106H410.886C413.641 190.106 415.874 187.862 415.874 185.092V172.054C415.874 169.285 418.107 167.04 420.861 167.04H443.227C445.982 167.04 448.214 169.285 448.214 172.054V185.092C448.214 187.862 450.449 190.106 453.202 190.106H469.004C473.138 190.106 475.477 194.875 472.96 198.173Z" fill="#D1D4D8"/>
<path d="M519 289.574V342.04C519 344.802 516.779 347.04 514.038 347.04H446.634C443.894 347.04 441.673 344.802 441.673 342.04V329.135C441.673 328.102 441.355 327.095 440.763 326.252L433.91 316.472C433.318 315.627 433 314.62 433 313.587V289.862C433 288.712 433.415 287.564 434.149 286.682C471.073 242.414 504.919 267.525 518.18 286.855C518.729 287.655 519 288.6 519 289.574Z" stroke="#D1D4D8" stroke-width="3"/>
<path d="M473 180.04V156.608C473 155.115 472.323 153.701 471.158 152.755L384 82.04" stroke="#D1D4D8" stroke-width="3" stroke-linecap="round"/>
<path d="M387.819 87.6535L312.589 177.251C311.563 178.472 310.016 179.133 308.422 179.029L174.693 170.307C170.795 170.053 168.673 165.641 170.912 162.443L216.535 97.2643C217.344 96.1078 218.602 95.3468 220.002 95.1666L337.637 79.9937C340.137 79.6716 342.008 77.5456 342.008 75.0273V64.0465C342.008 61.2813 344.252 59.04 347.021 59.04H362.991C365.76 59.04 368.004 61.2813 368.004 64.0465V74.4232C368.004 77.1884 370.249 79.4296 373.016 79.4296H383.977C388.235 79.4296 390.554 84.3943 387.819 87.6535Z" fill="#D1D4D8"/>
<path d="M103 441.146L168.829 472.04L171 369.385C171 348.549 158.088 326.778 140.617 324.262C124.471 321.939 103 337.913 103 369.385V441.146Z" fill="#D1D4D8"/>
<path d="M230 507.04V328.04" stroke="#D1D4D8" stroke-width="3" stroke-linecap="round"/>
<path d="M409 341.656V413.723C409 415.617 407.934 417.348 406.248 418.198L229.873 507.04L53.7491 418.198C52.064 417.348 51 415.617 51 413.726V328.04" stroke="#D1D4D8" stroke-width="3" stroke-linecap="round"/>
<path d="M231.68 338.84L425.773 347.035C429.96 347.211 432.498 342.469 430.029 339.08L357.393 239.39C356.825 238.609 356.042 238.01 355.139 237.664L314.104 221.94C312.167 221.199 310.889 219.339 310.889 217.264V192.603C310.889 189.971 308.85 187.787 306.224 187.606L262.958 184.648C260.065 184.451 257.611 186.745 257.611 189.645V196.787C257.611 200.267 254.153 202.686 250.886 201.49L116.749 152.363C112.212 150.701 108.188 155.798 110.854 159.829L227.718 336.599C228.604 337.938 230.077 338.771 231.68 338.84Z" fill="#D1D4D8"/>
<path d="M110.186 154.04L2.87862 311.223C0.612886 314.542 2.99211 319.04 7.01304 319.04H42.222C43.8287 319.04 45.3369 318.27 46.2779 316.968L116 220.618" stroke="#D1D4D8" stroke-width="3" stroke-linecap="round"/>
</svg>
