<svg width="191" height="164" viewBox="0 0 191 164" fill="none" xmlns="http://www.w3.org/2000/svg">
<path d="M52.0691 38.54L27.5691 19.54C22.7691 15.8176 29.9024 13.989 34.0691 13.54L125.569 2.04004C137.069 3.54004 162.469 7.34004 172.069 10.54C181.669 13.74 178.736 16.8734 176.069 18.04C146.069 23.54 83.1691 35.44 71.5691 39.04C59.9691 42.64 53.7358 40.2067 52.0691 38.54Z" stroke="#D1D4D8" stroke-width="3" stroke-linecap="round"/>
<path d="M175.068 11.54C178.568 12.7067 189.768 23.24 184.568 48.04C182.568 54.54 177.068 58.54 159.068 58.54H65.5683C61.2349 58.8734 51.2683 58.24 46.0683 53.04C40.8683 47.84 30.2349 36.8734 25.5683 32.04C24.5683 30.8734 23.5683 28.54 27.5683 28.54" stroke="#D1D4D8" stroke-width="3" stroke-linecap="round"/>
<path d="M27.5684 28.54V20.04" stroke="#D1D4D8" stroke-width="3" stroke-linecap="round"/>
<path d="M27.5684 31.54L48.0684 47.54C50.5684 49.54 55.0684 53.04 66.5684 52.54C77.8714 52.0486 138.902 50.8734 168.068 51.54C172.408 51.6392 178.068 49.54 179.068 39.54C180.363 26.595 178.068 18.54 173.068 18.54" stroke="#D1D4D8" stroke-width="3" stroke-linecap="round"/>
<path d="M28.5679 37.04L9.56793 38.54C6.90127 38.54 1.66793 39.84 2.06793 45.04C2.46793 50.24 2.2346 53.2067 2.06793 54.04C1.56793 56.54 4.06793 58.54 7.06793 61.04L31.0679 82.04" stroke="#D1D4D8" stroke-width="3" stroke-linecap="round"/>
<path d="M33.5684 58.04L31.0684 82.04" stroke="#D1D4D8" stroke-width="3" stroke-linecap="round"/>
<path d="M33.5684 58.04L6.56836 40.54" stroke="#D1D4D8" stroke-width="3" stroke-linecap="round"/>
<path d="M33.0684 58.54L50.0684 56.54" stroke="#D1D4D8" stroke-width="3" stroke-linecap="round"/>
<path d="M31.0684 82.04L172.068 85.04" stroke="#D1D4D8" stroke-width="3" stroke-linecap="round"/>
<path d="M173.068 57.54L172.068 84.54" stroke="#D1D4D8" stroke-width="3" stroke-linecap="round"/>
<circle cx="50.0684" cy="71.54" r="3" fill="#D1D4D8"/>
<circle cx="66.0684" cy="97.54" r="3" fill="#D1D4D8"/>
<circle cx="157.068" cy="70.54" r="3" fill="#D1D4D8"/>
<circle cx="175.068" cy="98.54" r="3" fill="#D1D4D8"/>
<path d="M17.0684 84.04L41.5684 107.54C45.0684 111.04 54.0684 112.04 74.0684 112.04C92.5767 112.04 157.735 110.207 188.068 110.54" stroke="#D1D4D8" stroke-width="3" stroke-linecap="round"/>
<path d="M188.568 85.04L188.068 110.54" stroke="#D1D4D8" stroke-width="3" stroke-linecap="round"/>
<path d="M188.568 85.04L173.068 78.04" stroke="#D1D4D8" stroke-width="3" stroke-linecap="round"/>
<path d="M20.0684 72.54C20.235 75.54 19.7684 81.94 16.5684 83.54" stroke="#D1D4D8" stroke-width="3" stroke-linecap="round"/>
<path d="M47.0684 83.54C48.4017 85.04 50.0684 89.54 48.5684 96.54C47.3971 102.006 45.5684 107.04 41.5684 106.54" stroke="#D1D4D8" stroke-width="3" stroke-linecap="round"/>
<path d="M188.568 85.54L170.068 85.04" stroke="#D1D4D8" stroke-width="3" stroke-linecap="round"/>
<path d="M30.0684 96.54L8.06836 109.04" stroke="#D1D4D8" stroke-width="3" stroke-linecap="round"/>
<path d="M8.06824 109.04C4.90157 115.207 -0.0317581 132.44 5.56824 154.04" stroke="#D1D4D8" stroke-width="3" stroke-linecap="round"/>
<path d="M6.06836 154.04L120.568 161.54C127.402 161.707 142.668 160.54 149.068 154.54C155.468 148.54 167.568 135.373 173.068 129.54" stroke="#D1D4D8" stroke-width="3" stroke-linecap="round"/>
<path d="M173.068 129.54L173.068 114.54" stroke="#D1D4D8" stroke-width="3" stroke-linecap="round"/>
<path d="M172.568 114.04L143.568 140.54C142.401 141.873 137.968 144.14 129.568 142.54C121.168 140.94 57.4014 125.207 26.5681 117.54C20.7348 116.207 11.0681 116.54 10.5681 129.04C9.90143 134.707 10.8681 146.24 20.0681 147.04C29.2681 147.84 92.5681 150.707 123.068 152.04C131.401 152.54 147.568 154.04 164.568 138.54" stroke="#D1D4D8" stroke-width="3" stroke-linecap="round"/>
</svg>
