<svg width="461" height="485" viewBox="0 0 461 485" fill="none" xmlns="http://www.w3.org/2000/svg">
<path d="M169.54 484.48L7 316.691L181.161 440.691L459.5 411.691L169.54 484.48Z" fill="#D1D4D8"/>
<path d="M179.914 396.191L184.373 241.601C184.446 239.082 186.383 237.01 188.892 236.768L454.021 211.219C456.958 210.936 459.501 213.245 459.501 216.196V404.791C459.501 407.307 457.631 409.431 455.136 409.751L205.661 441.712" stroke="#D1D4D8" stroke-width="3" stroke-linecap="round"/>
<path d="M184.5 237.691L15.9979 140.515C12.6646 138.593 8.5 140.999 8.5 144.847V312.193C8.5 313.766 9.24021 315.247 10.4981 316.191L94.75 379.441L181 444.191" stroke="#D1D4D8" stroke-width="3" stroke-linecap="round"/>
<rect x="288.389" y="258.033" width="85.379" height="35.3257" rx="17.6629" transform="rotate(-4.10101 288.389 258.033)" stroke="#D1D4D8" stroke-width="3"/>
<path d="M274 348.191L301 345.191" stroke="#D1D4D8" stroke-width="3" stroke-linecap="round"/>
<path d="M298.5 366.191L327.5 362.691" stroke="#D1D4D8" stroke-width="3" stroke-linecap="round"/>
<path d="M372 336.191L392 334.191" stroke="#D1D4D8" stroke-width="3" stroke-linecap="round"/>
<path d="M315 342.691L358 337.691" stroke="#D1D4D8" stroke-width="3" stroke-linecap="round"/>
<path d="M342.5 360.691L368.5 357.691" stroke="#D1D4D8" stroke-width="3" stroke-linecap="round"/>
<path d="M212.16 219.191L226.726 191.144C227.519 189.618 229.04 188.606 230.753 188.465L450.681 170.376C454.446 170.066 457.182 173.883 455.678 177.348L441 211.191" stroke="#D1D4D8" stroke-width="3" stroke-linecap="round"/>
<path d="M321.654 4.06257L365.265 150.37C366.164 153.386 364.086 156.473 360.953 156.775L198.778 172.423C197.051 172.59 195.534 173.639 194.77 175.196L170.914 223.775C169.618 226.415 166.334 227.371 163.823 225.84L149.728 217.245C148.62 216.569 147.818 215.489 147.492 214.232L97.9985 23.4671C97.2171 20.4554 99.3468 17.469 102.449 17.2267L316.473 0.506031C318.822 0.322488 320.981 1.80425 321.654 4.06257Z" fill="#D1D4D8"/>
<path d="M170 227.191L194.285 173.86C195.035 172.212 196.618 171.099 198.422 170.949L428.245 151.876C431.995 151.565 434.732 155.352 433.26 158.815L428 171.191" stroke="#D1D4D8" stroke-width="3" stroke-linecap="round"/>
<path d="M101 20.6914C92.9999 21.6914 51.9598 33.1051 62.5009 74.1914C73.6611 117.691 80.6609 148.191 85.1609 167.191" stroke="#D1D4D8" stroke-width="3" stroke-linecap="round"/>
<path d="M59.4995 150.691L39.7552 71.5959C37.5771 62.8707 43.5131 54.2032 52.4357 53.0803L59.4995 52.1914" stroke="#D1D4D8" stroke-width="3" stroke-linecap="round"/>
<path d="M36.6616 127.191L22.001 65.6914C20.5009 59.1914 19.501 47.1914 32.501 44.6914L69.5008 36.1914" stroke="#D1D4D8" stroke-width="3" stroke-linecap="round"/>
<path d="M23 144.191L3.55861 60.9315C1.61813 52.6212 6.99222 44.3686 15.3773 42.7822L74 31.6914" stroke="#D1D4D8" stroke-width="3" stroke-linecap="round"/>
<path d="M84.5 62.1914L102 128.191" stroke="#D1D4D8" stroke-width="3" stroke-linecap="round"/>
<path d="M108.66 155.191L116.66 184.691" stroke="#D1D4D8" stroke-width="3" stroke-linecap="round"/>
</svg>
