<svg width="692" height="478" viewBox="0 0 692 478" fill="none" xmlns="http://www.w3.org/2000/svg">
<path d="M672.909 142.179C636.916 151.866 600.923 206.604 585.926 233.512C608.422 230.821 656.412 218.06 680.408 182.541C704.404 147.022 685.407 140.833 672.909 142.179Z" fill="#D1D4D8"/>
<path d="M655.998 50.2643C620.206 53.8495 594.463 141.563 582.926 182.012C608.565 161.209 659.074 119.605 671.381 105.737C694.457 79.7344 690.611 46.7971 655.998 50.2643Z" fill="#D1D4D8"/>
<path d="M544.811 20.6545C525.837 52.1625 566.95 99.5033 585.925 131.012C585.925 111.173 585.926 69.6676 585.926 52.163C585.925 24.1559 558.511 -2.09662 544.811 20.6545Z" fill="#D1D4D8"/>
<path d="M588.926 200.012C562.303 163.044 505.427 98.9664 490.906 138.399C472.754 187.689 585.295 200.012 588.926 200.012Z" fill="#D1D4D8"/>
<path d="M588.926 254.012L582.926 116.012" stroke="#D1D4D8" stroke-width="3" stroke-linecap="round"/>
<path d="M555.426 328.012C563.926 308.012 571.014 268.627 572.431 255.012H610.174C611.851 288.132 629.044 335.633 637.432 359.601C662.592 416.254 640.927 452.57 624.851 462.012H564.043C558.504 458.678 547.126 448.512 545.926 434.512" stroke="#D1D4D8" stroke-width="3" stroke-linecap="round"/>
<path d="M365.584 65.6515C356.372 87.674 349.571 104.984 344.847 126.785" stroke="#D1D4D8" stroke-width="3" stroke-linecap="round"/>
<path d="M330.128 82.9079L364.039 63.1358C364.896 62.6364 365.989 62.8399 366.608 63.614L389.442 92.1506C390.065 92.9296 391.167 93.1301 392.025 92.6206L466.407 48.4379C477.96 39.7638 478.024 31.5737 473.865 26.0939C466.364 16.2088 443.55 12.2271 429.422 12.2527C428.577 12.2542 427.837 12.8035 427.569 13.6045L420.865 33.6868C420.67 34.2713 420.205 34.7383 419.623 34.94C379.834 48.7255 355.449 38.1492 346.838 25.1529C346.534 24.695 346.458 24.1313 346.6 23.6008L350.888 7.60079C351.2 6.43488 350.425 5.26015 349.226 5.12516C330.27 2.99194 296.221 3.80751 295.635 22.8719C295.044 42.102 316.09 69.91 327.672 82.5435C328.301 83.23 329.324 83.377 330.128 82.9079Z" fill="#D1D4D8"/>
<path d="M250.001 147.785C269.501 80.7852 280.978 46.8748 295.706 20.6158C300.528 10.6061 311.568 3.9478 323.323 3.40624C338.016 2.72929 450.057 6.34034 477.388 21.6866C502.907 36.0151 498.396 40.7076 489.308 116.049C483.221 166.511 462.734 229.336 449.501 267.785" stroke="#D1D4D8" stroke-width="3" stroke-linecap="round"/>
<path d="M495.228 65.6575C487.933 58.1982 471.091 50.4455 462.084 79.1084C450.824 114.937 425.611 194.957 423.22 205.042C419.328 221.459 416.871 264.794 435.706 239.534C450.775 219.325 470.205 133.103 476.361 91.9501" stroke="#D1D4D8" stroke-width="3" stroke-linecap="round"/>
<ellipse cx="368.789" cy="102.964" rx="5.64258" ry="9.02506" transform="rotate(15.0196 368.789 102.964)" fill="#D1D4D8"/>
<path d="M32 293.785H160.297C162.204 293.785 163.627 292.029 163.232 290.163L160.828 278.833C160.623 277.864 160.909 276.857 161.592 276.14L176.166 260.855C177.986 258.946 176.633 255.785 173.994 255.785H32C30.3431 255.785 29 257.128 29 258.785V290.785C29 292.442 30.3431 293.785 32 293.785Z" fill="#D1D4D8"/>
<path d="M160 366.785H51.5156C50.4936 366.785 49.636 366.015 49.527 364.998L42 294.785" stroke="#D1D4D8" stroke-width="3" stroke-linecap="round"/>
<path d="M78.5 425.785C78.5 433.75 85.1719 440.285 93.5 440.285C101.828 440.285 108.5 433.75 108.5 425.785C108.5 417.82 101.828 411.285 93.5 411.285C85.1719 411.285 78.5 417.82 78.5 425.785Z" stroke="#D1D4D8" stroke-width="3"/>
<path d="M160.655 398.907L162.37 370.907C162.44 369.757 161.526 368.785 160.374 368.785H1.99979C0.895218 368.785 -0.000213623 369.681 -0.000213623 370.785V398.785C-0.000213623 399.89 0.895218 400.785 1.99979 400.785H158.659C159.716 400.785 160.59 399.963 160.655 398.907Z" fill="#D1D4D8"/>
<path d="M158.5 401.785H16.266C15.0629 401.785 14.132 402.84 14.2815 404.034L22.1693 467.034C22.2946 468.034 23.1453 468.785 24.1538 468.785H184" stroke="#D1D4D8" stroke-width="3" stroke-linecap="round"/>
<path d="M443.926 303.012C444.141 332.027 448.049 392.582 461.965 402.678C468.086 407.856 479.554 404.879 481.616 389.087C483.677 373.296 474.958 344.108 470.341 331.488" stroke="#D1D4D8" stroke-width="3" stroke-linecap="round"/>
<path d="M479.926 364.871C483.545 374.754 487.904 396.746 490.402 404.359C493.363 413.382 506.241 425.996 513.353 414.269C517.519 407.399 512.682 369.059 507.308 351.012" stroke="#D1D4D8" stroke-width="3" stroke-linecap="round"/>
<path d="M512.949 416.056C512.596 425.23 516.168 443.309 532.006 436.522C546.828 430.17 537.653 379.947 530.242 355.012" stroke="#D1D4D8" stroke-width="3" stroke-linecap="round"/>
<path d="M538.426 427.704C541.62 433.055 553.773 438.711 560.407 427.704C565.566 419.144 556.598 374.559 548.245 356.012" stroke="#D1D4D8" stroke-width="3" stroke-linecap="round"/>
<path d="M526.426 261.456L513.054 274.351C512.653 274.737 512.109 274.939 511.554 274.908C491.112 273.747 471.476 271.779 465.143 271.042C464.674 270.987 464.249 270.767 463.928 270.422L452.294 257.927C451.54 257.116 451.588 255.846 452.402 255.094L455.995 251.777C456.792 251.042 458.028 251.075 458.784 251.851L475.931 269.449C476.251 269.777 476.674 269.986 477.13 270.039L484.219 270.873C484.665 270.926 485.111 270.771 485.429 270.453C485.986 269.896 486.005 268.999 485.472 268.419L464.778 245.926C464.031 245.114 464.082 243.851 464.893 243.102L468.455 239.814C469.267 239.065 470.533 239.116 471.282 239.928L492.074 262.49C492.821 263.3 494.083 263.354 494.896 262.609L497.962 259.799C498.772 259.056 498.831 257.799 498.094 256.983L477.253 233.925C476.518 233.111 476.574 231.858 477.38 231.114L480.956 227.813C481.768 227.064 483.033 227.115 483.782 227.926L505.086 251.005C505.829 251.81 507.08 251.868 507.894 251.135L509.966 249.271C510.776 248.541 510.853 247.297 510.138 246.473L489.713 222.94C488.999 222.116 489.075 220.872 489.886 220.142L493.319 217.052C493.39 216.989 493.457 216.917 493.521 216.847C495.536 214.642 498.949 217.316 500.426 218.956C507.092 225.623 521.626 240.456 526.426 246.456C531.226 252.456 528.426 258.956 526.426 261.456Z" fill="#D1D4D8"/>
<path d="M562.426 412.012C565.977 412.484 572.144 411.482 574.985 404.107C578.527 394.911 575.001 330.311 511.52 277.55C511.229 277.308 510.88 277.152 510.505 277.104C493.587 274.961 458.477 271.09 448.926 272.212" stroke="#D1D4D8" stroke-width="3" stroke-linecap="round"/>
<ellipse cx="338.877" cy="206.123" rx="14.5203" ry="19.0579" transform="rotate(41.2642 338.877 206.123)" fill="#D1D4D8"/>
<circle cx="338.5" cy="205.285" r="34" stroke="#D1D4D8" stroke-width="3"/>
<circle cx="338.5" cy="205.285" r="47" stroke="#D1D4D8" stroke-width="3"/>
<rect x="246.021" y="158.785" width="44" height="17" rx="8.5" transform="rotate(45 246.021 158.785)" fill="#D1D4D8"/>
<path d="M217.001 209.285C214.676 204.136 212.715 189.786 223.388 173.457C223.462 173.344 223.549 173.236 223.645 173.141L295.001 101.785C296.334 100.285 300.001 98.1846 304.001 101.785M329.001 116.785C351.501 130.118 400.701 165.985 417.501 202.785C419.501 207.166 421.501 213.785 413.501 223.285L394.001 245.285" stroke="#D1D4D8" stroke-width="3" stroke-linecap="round"/>
<path d="M215.5 193.785C214.08 196.782 207.734 205.751 209.601 216.876C209.78 217.945 209.155 219.006 208.199 219.518C205.587 220.916 202.747 223.974 204.024 229.236C204.247 230.153 203.927 231.141 203.181 231.72C199.733 234.392 194.003 240.436 190.778 249.478C190.595 249.991 190.229 250.412 189.74 250.652C176.684 257.056 154.162 273.417 162.336 290.943C162.44 291.166 162.509 291.4 162.532 291.645C164.99 318.806 182.729 377.374 234.5 397.285C299.5 422.285 368.925 426.012 467.425 405.012" stroke="#D1D4D8" stroke-width="3" stroke-linecap="round"/>
<path d="M171.5 328.285C164.333 339.785 156.3 371.965 171.5 389.965" stroke="#D1D4D8" stroke-width="3" stroke-linecap="round"/>
<path d="M164 376.285C160.5 384.118 158.025 411.165 166.425 429.965" stroke="#D1D4D8" stroke-width="3" stroke-linecap="round"/>
<path d="M161.425 413.465C155.425 428.298 149.399 460.885 174.999 467.285C206.999 475.285 489.499 483.785 564.999 461.785" stroke="#D1D4D8" stroke-width="3" stroke-linecap="round"/>
<path d="M456 271.785C442.262 263.178 396.932 243.164 377.894 247.197C377.627 247.254 377.396 247.363 377.174 247.523C367.248 254.648 339.687 264.238 305.805 247.437C305.606 247.338 305.428 247.211 305.272 247.052C291.262 232.821 254.395 205.807 217 209.785" stroke="#D1D4D8" stroke-width="3" stroke-linecap="round"/>
<path d="M191.5 247.785C208.667 266.452 283.2 305.985 444 314.785" stroke="#D1D4D8" stroke-width="3" stroke-linecap="round"/>
<path d="M307 261.785C359 271.285 319.735 311.832 304 339.285" stroke="#D1D4D8" stroke-width="3" stroke-linecap="round"/>
<path d="M393.5 270.285C357 261.785 354.5 300.785 347 323.285" stroke="#D1D4D8" stroke-width="3" stroke-linecap="round"/>
<ellipse cx="301.577" cy="267.187" rx="8" ry="12.5" transform="rotate(18.649 301.577 267.187)" fill="#D1D4D8"/>
<ellipse cx="394.577" cy="269.187" rx="8" ry="12.5" transform="rotate(18.649 394.577 269.187)" fill="#D1D4D8"/>
</svg>
