<svg width="445" height="263" viewBox="0 0 445 263" fill="none" xmlns="http://www.w3.org/2000/svg">
<path d="M52.5 18.9336V176.499C52.5 177.025 52.9078 177.461 53.4327 177.496L185.928 186.429C185.976 186.432 186.024 186.432 186.072 186.428L238.5 182.434" stroke="#D1D4D8" stroke-width="3" stroke-linecap="round"/>
<path d="M52.5 18.4336L184.877 2.07235C185.474 1.99864 186 2.46386 186 3.0648V184.434" stroke="#D1D4D8" stroke-width="3" stroke-linecap="round"/>
<path d="M212.4 3.43359L382.564 14.3734C383.09 14.4073 383.5 14.844 383.5 15.3714V81.4336" stroke="#D1D4D8" stroke-width="3" stroke-linecap="round"/>
<path d="M53 177.434H3C2.44772 177.434 2 177.881 2 178.434V237.573C2 238.068 2.36187 238.488 2.85117 238.562L150.351 260.761C150.956 260.852 151.5 260.383 151.5 259.772V202.434" stroke="#D1D4D8" stroke-width="3" stroke-linecap="round"/>
<path d="M151 260.934L269.5 249.934" stroke="#D1D4D8" stroke-width="3" stroke-linecap="round"/>
<path d="M221 257.934V132.934L275 257.934H221Z" fill="#D1D4D8" fill-opacity="0.3"/>
<path d="M370.926 197.738L292.936 35.4226C292.284 34.0653 293.309 32.5014 294.814 32.5579L330.303 33.8887C331.04 33.9163 331.702 34.3475 332.025 35.0106L410.375 195.651C410.749 196.419 410.595 197.339 409.991 197.942L394.052 213.881C393.697 214.236 393.221 214.445 392.719 214.465L361.179 215.744C359.42 215.815 358.433 213.743 359.598 212.422L370.623 199.928C371.154 199.325 371.274 198.463 370.926 197.738Z" fill="#D1D4D8"/>
<path d="M326.409 245.05L318.942 252.842C317.696 254.143 318.67 256.3 320.471 256.224L350.273 254.964C350.743 254.944 351.19 254.76 351.537 254.443L358.692 247.911C360.04 246.679 359.169 244.434 357.343 244.434H327.853C327.308 244.434 326.787 244.656 326.409 245.05Z" fill="#D1D4D8"/>
<path d="M101.5 29.6867V14.1846C101.5 13.1822 102.242 12.3347 103.236 12.2022L129.236 8.7355C130.435 8.57564 131.5 9.50838 131.5 10.718V26.6534C131.5 27.6683 130.74 28.5223 129.732 28.6399L103.732 31.6732C102.543 31.8119 101.5 30.8831 101.5 29.6867Z" fill="#D1D4D8"/>
<path d="M56.5 231.189V244.22C56.5 245.206 57.2188 246.045 58.1933 246.196L83.1933 250.076C84.4056 250.264 85.5 249.326 85.5 248.099V234.207C85.5 233.195 84.7442 232.342 83.7396 232.221L58.7396 229.204C57.5487 229.06 56.5 229.99 56.5 231.189Z" fill="#D1D4D8"/>
<path d="M103.5 162.934V178.588C103.5 179.631 104.3 180.498 105.339 180.582L132.339 182.759C133.503 182.853 134.5 181.934 134.5 180.766V162.934C134.5 161.829 133.605 160.934 132.5 160.934H105.5C104.395 160.934 103.5 161.829 103.5 162.934Z" fill="#D1D4D8"/>
<path d="M56.5 201.66V180.076C56.5 178.918 57.4816 178.001 58.6376 178.081L83.6376 179.805C84.6863 179.877 85.5 180.749 85.5 181.8V204.678C85.5 205.877 84.4513 206.807 83.2604 206.663L58.2604 203.646C57.2558 203.525 56.5 202.672 56.5 201.66Z" fill="#D1D4D8"/>
<path d="M274.929 257.124L202.753 91.515C202.599 91.1601 202.663 90.7478 202.918 90.4565L254.499 31.5766C254.972 31.036 255.844 31.1566 256.154 31.8054L336.188 199.779C336.374 200.169 336.288 200.635 335.974 200.934L276.535 257.449C276.032 257.928 275.207 257.761 274.929 257.124Z" stroke="#D1D4D8" stroke-width="3" stroke-linecap="round"/>
<path d="M276.5 257.934L383.63 252.951C383.869 252.94 384.096 252.843 384.27 252.68L443.058 197.264C443.731 196.63 443.257 195.501 442.333 195.537L354.901 198.934" stroke="#D1D4D8" stroke-width="3" stroke-linecap="round"/>
<path d="M255.5 30.9336L358.919 34.9113C359.278 34.9251 359.602 35.1303 359.768 35.449L443 195.434" stroke="#D1D4D8" stroke-width="3" stroke-linecap="round"/>
</svg>
