<svg width="1085" height="541" viewBox="0 0 1085 541" fill="none" xmlns="http://www.w3.org/2000/svg">
<path d="M490.871 116.149L486.162 53.522C486.074 52.3617 486.992 51.3721 488.156 51.3721H604.818C605.991 51.3721 606.913 52.3769 606.811 53.5455L601.36 116.149C598.899 129.311 589.226 133.115 584.697 133.372H509.072C495.742 132.755 491.383 121.633 490.871 116.149Z" fill="#D1D4D8"/>
<path d="M920.5 66.8721V2.37207" stroke="#D1D4D8" stroke-width="3" stroke-linecap="round"/>
<path d="M892 77.3721C892 66.3264 900.954 57.3721 912 57.3721H929C940.046 57.3721 949 66.3264 949 77.3721V92.3721H892V77.3721Z" fill="#D1D4D8"/>
<path d="M872 204.372C872 215.418 880.954 224.372 892 224.372H949C960.046 224.372 969 215.418 969 204.372V189.372H872V204.372Z" fill="#D1D4D8"/>
<path d="M872.813 189.667C855.187 184.187 851.849 167.576 852.503 156.993C852.652 154.59 854.745 152.872 857.153 152.872H988.263C990.92 152.872 993.137 154.962 993.096 157.618C992.701 183.274 976.841 189.872 968.5 189.872H874.206C873.737 189.872 873.261 189.806 872.813 189.667Z" stroke="#D1D4D8" stroke-width="3"/>
<path d="M947.351 28.8983C941.004 20.4349 944.167 12.5332 947.567 8.39497C948.418 7.35945 949.754 6.91101 951.092 6.98016L1028.04 10.9554C1034.14 11.2702 1034.46 20.1501 1028.41 20.9098L951.552 30.5519C949.95 30.7528 948.319 30.1897 947.351 28.8983Z" fill="#D1D4D8"/>
<path d="M893.149 28.8983C899.496 20.4349 896.333 12.5332 892.933 8.39497C892.082 7.35945 890.746 6.91101 889.408 6.98016L812.459 10.9554C806.364 11.2702 806.039 20.1501 812.095 20.9098L888.948 30.5519C890.55 30.7528 892.181 30.1897 893.149 28.8983Z" fill="#D1D4D8"/>
<path d="M165 66.8721V2.37207" stroke="#D1D4D8" stroke-width="3" stroke-linecap="round"/>
<path d="M136 77.3721C136 66.3264 144.954 57.3721 156 57.3721H173C184.046 57.3721 193 66.3264 193 77.3721V92.3721H136V77.3721Z" fill="#D1D4D8"/>
<path d="M116 204.372C116 215.418 124.954 224.372 136 224.372H193C204.046 224.372 213 215.418 213 204.372V189.372H116V204.372Z" fill="#D1D4D8"/>
<path d="M116.813 189.667C99.1867 184.187 95.8487 167.576 96.5033 156.993C96.652 154.59 98.7451 152.872 101.153 152.872H232.263C234.92 152.872 237.137 154.962 237.096 157.618C236.701 183.274 220.841 189.872 212.5 189.872H118.206C117.737 189.872 117.261 189.806 116.813 189.667Z" stroke="#D1D4D8" stroke-width="3"/>
<path d="M191.351 28.8983C185.004 20.4349 188.167 12.5332 191.567 8.39497C192.418 7.35945 193.754 6.91101 195.092 6.98016L272.041 10.9554C278.136 11.2702 278.461 20.1501 272.405 20.9098L195.552 30.5519C193.95 30.7528 192.319 30.1897 191.351 28.8983Z" fill="#D1D4D8"/>
<path d="M137.149 28.8983C143.496 20.4349 140.333 12.5332 136.933 8.39497C136.082 7.35945 134.746 6.91101 133.408 6.98016L56.4594 10.9554C50.3644 11.2702 50.0393 20.1501 56.0949 20.9098L132.948 30.5519C134.55 30.7528 136.181 30.1897 137.149 28.8983Z" fill="#D1D4D8"/>
<path d="M390.5 245.372L368.371 154.399C368.153 153.503 367.35 152.872 366.428 152.872H82.9634C82.6578 152.872 82.3459 152.798 82.0731 152.66C55.4635 139.232 66.7871 110.098 81.9192 106.016C82.2966 105.914 82.6434 105.722 82.9145 105.44L94.9089 92.9848C95.2859 92.5933 95.806 92.3721 96.3495 92.3721H224.461C225.112 92.3721 225.722 92.6888 226.096 93.2211L234.401 105.023C234.776 105.555 235.386 105.872 236.037 105.872H394.121C395.177 105.872 396.049 105.043 396.14 103.992C398.735 74.0178 417.125 56.7942 426.574 51.6012C426.858 51.4448 427.169 51.3721 427.494 51.3721H661.724C661.907 51.3721 662.091 51.3971 662.266 51.4483C684.072 57.8064 693.189 89.7295 695.296 106.583C695.424 107.601 696.28 108.372 697.306 108.372H846.613C847.178 108.372 847.716 108.133 848.095 107.715L861.405 93.029C861.784 92.6107 862.322 92.3721 862.886 92.3721H977.524C978.14 92.3721 978.721 92.6556 979.1 93.1408L990.399 107.603C990.778 108.089 991.36 108.372 991.975 108.372H1008.49C1008.82 108.372 1009.17 108.462 1009.46 108.627C1034.14 122.542 1023.12 146.475 1009.37 152.708C1009.13 152.819 1008.86 152.872 1008.59 152.872H730.954C730.087 152.872 729.319 153.43 729.051 154.255L701.77 238.372M668 270.654C659.863 271.591 652.208 269.983 647.144 267.931C647.047 267.892 646.953 267.843 646.863 267.789C557.182 213.266 475.302 244.863 445.265 267.67C445.083 267.808 444.888 267.908 444.671 267.977C438.107 270.063 432.234 271.035 427 271.157" stroke="#D1D4D8" stroke-width="3" stroke-linecap="round"/>
<path d="M432 228.872L345.677 335.535C345.254 336.058 345.122 336.758 345.326 337.398L368 408.872" stroke="#D1D4D8" stroke-width="3" stroke-linecap="round"/>
<path d="M665 228.872L751.323 335.535C751.746 336.058 751.878 336.758 751.674 337.398L729 408.872" stroke="#D1D4D8" stroke-width="3" stroke-linecap="round"/>
<rect x="396" y="364.372" width="287" height="34" fill="#D1D4D8"/>
<path d="M686 408.378V357.372C686 346.326 677.046 337.372 666 337.372H413C401.954 337.372 393 346.326 393 357.372V519.372C393 530.418 401.954 539.372 413 539.372H564.019" stroke="#D1D4D8" stroke-width="3" stroke-linecap="round"/>
<path d="M427 488.372H486" stroke="#D1D4D8" stroke-width="3" stroke-linecap="round"/>
<path d="M506 488.372H514" stroke="#D1D4D8" stroke-width="3" stroke-linecap="round"/>
<circle cx="637.5" cy="493.872" r="35.5" fill="#D1D4D8"/>
<path d="M664 462.185C667.463 461.01 671.18 460.372 675.047 460.372C693.799 460.372 709 475.371 709 493.872C709 512.374 693.799 527.372 675.047 527.372C671.18 527.372 667.463 526.734 664 525.559" stroke="#D1D4D8" stroke-width="3" stroke-linecap="round"/>
</svg>
