<svg width="442" height="503" viewBox="0 0 442 503" fill="none" xmlns="http://www.w3.org/2000/svg">
<path d="M292 118.812L319 67.8125" stroke="#D1D4D8" stroke-width="3" stroke-linecap="round"/>
<path d="M337 148.312L375.5 117.312" stroke="#D1D4D8" stroke-width="3" stroke-linecap="round"/>
<path d="M240.5 113.812L216.5 1.8125" stroke="#D1D4D8" stroke-width="3" stroke-linecap="round"/>
<path d="M200.5 118.312L171 74.8125" stroke="#D1D4D8" stroke-width="3" stroke-linecap="round"/>
<path d="M0 383.812L62 337.312L70 386.312L246.901 501.523L0 383.812Z" fill="#D1D4D8"/>
<path d="M174.5 319.983L230.5 289.523L321 345.295" stroke="#D1D4D8" stroke-width="3" stroke-linecap="round"/>
<path d="M174.5 319.983L261.132 377.146C261.752 377.556 262.549 377.587 263.2 377.227L321 345.295L436.999 281.67C438.341 280.934 438.393 279.025 437.093 278.217L224.458 146.118C223.863 145.749 223.119 145.717 222.496 146.034L49.5649 233.965C48.1977 234.66 48.0896 236.572 49.3699 237.417L174.5 319.983Z" stroke="#D1D4D8" stroke-width="3" stroke-linecap="round"/>
<path d="M223.5 145.523L230.5 289.523" stroke="#D1D4D8" stroke-width="3" stroke-linecap="round"/>
<path d="M262.142 377.812L247.863 498.143C247.671 499.763 249.393 500.919 250.819 500.128L394.882 420.198C395.328 419.95 395.663 419.541 395.818 419.055L440.001 280.023" stroke="#D1D4D8" stroke-width="3" stroke-linecap="round"/>
<path d="M249.402 500.523L71.001 385.023L48.4023 236.023" stroke="#D1D4D8" stroke-width="3" stroke-linecap="round"/>
<path d="M111.693 301.771L158 391.813L176 376.313C170.666 365.813 155.693 337.571 135.693 298.771C115.693 259.971 131 233.813 157.5 221.313L240 178.813C273.5 159.722 306.333 181.98 312.5 198.313L347 219.813L339 206.313L327.5 187.405C306.5 148.905 262.193 148.938 244.193 155.771C220.36 167.271 161.392 192.485 127.193 217.771C93.9996 242.313 101.693 282.938 111.693 301.771Z" fill="#D1D4D8"/>
<path d="M165.5 403.312C177.374 403.312 187 392.12 187 378.312C187 364.505 177.374 353.312 165.5 353.312C153.626 353.312 144 364.505 144 378.312C144 392.12 153.626 403.312 165.5 403.312Z" fill="#D1D4D8"/>
</svg>
