<svg width="415" height="375" viewBox="0 0 415 375" fill="none" xmlns="http://www.w3.org/2000/svg">
<path d="M74.2877 74.1701L101.823 26.4768C110.1 12.1406 128.425 7.21822 142.772 15.4774L223.088 61.7155M28.5884 155.716L16.2166 176.098C7.48582 190.482 12.2901 209.232 26.862 217.645L39.0782 224.698M190.588 313.716L271.492 359.256C285.819 367.321 303.968 362.351 312.189 348.113L339.291 301.17M388.588 215.716L398.823 198.017C407.121 183.667 402.209 165.306 387.853 157.018L375.578 149.931" stroke="#D1D4D8" stroke-width="3" stroke-linecap="round"/>
<rect x="37.0781" y="72.1699" width="340" height="230" rx="28.5" stroke="#D1D4D8" stroke-width="3"/>
<path d="M166.578 74.1699V120.216M166.578 299.67V195.216" stroke="#D1D4D8" stroke-width="3" stroke-linecap="round"/>
<circle cx="166.578" cy="155.67" r="20.5" stroke="#D1D4D8" stroke-width="3"/>
<path d="M39.5781 155.67H68.5884" stroke="#D1D4D8" stroke-width="3" stroke-linecap="round"/>
<path d="M264.09 155.67H375.08" stroke="#D1D4D8" stroke-width="3" stroke-linecap="round"/>
<path d="M100.407 121.734C121.578 110.17 144.911 127.836 153.078 139.669C141.878 151.269 145.411 165.003 150.078 169.669C121.078 140.67 96.9115 158.503 88.5781 171.169C82.5781 164.669 75.7264 135.216 100.407 121.734Z" fill="#D1D4D8"/>
<path d="M154.346 141.668C146.179 129.835 123.946 109.368 100.346 122.168C70.8457 138.168 85.8457 175.168 90.8457 180.668C95.8457 186.168 120.346 214.168 154.346 171.168" stroke="#D1D4D8" stroke-width="3" stroke-linecap="round"/>
<path d="M150.072 175.505C140.406 160.672 114.845 140.47 86.8447 173.67" stroke="#D1D4D8" stroke-width="3" stroke-linecap="round"/>
<path d="M128.573 223.505C128.573 210.505 137.927 211.269 146.573 202.005C156.372 191.505 153.259 176.48 167.346 175.17" stroke="#D1D4D8" stroke-width="3" stroke-linecap="round"/>
<path d="M205.845 223.505C205.845 210.505 196.491 211.269 187.845 202.005C178.046 191.505 181.159 176.48 167.072 175.17" stroke="#D1D4D8" stroke-width="3" stroke-linecap="round"/>
<path d="M232.517 121.734C211.346 110.17 188.012 127.836 179.846 139.669C191.046 151.269 187.512 165.003 182.846 169.669C211.846 140.67 236.012 158.503 244.346 171.169C250.346 164.669 257.197 135.216 232.517 121.734Z" fill="#D1D4D8"/>
<path d="M178.578 141.668C186.745 129.835 208.978 109.368 232.578 122.168C262.078 138.168 247.078 175.168 242.078 180.668C237.078 186.168 212.578 214.168 178.578 171.168" stroke="#D1D4D8" stroke-width="3" stroke-linecap="round"/>
<path d="M182.572 176.004C192.239 161.17 218.078 140.469 246.078 173.669" stroke="#D1D4D8" stroke-width="3" stroke-linecap="round"/>
</svg>
