<svg width="568" height="294" viewBox="0 0 568 294" fill="none" xmlns="http://www.w3.org/2000/svg">
<path d="M2 180.922C57.7173 114.5 140.579 -0.488115 195.582 1.65452C250.585 3.79716 270.586 31.6515 279.872 63.791C287.256 89.3466 274.081 87.3851 266.44 83.1526C266.346 83.1006 266.254 83.0382 266.17 82.9713C215.398 42.5527 190.815 69.0442 184.867 87.3601C174.581 141.64 218.44 166.737 258.443 190.921C286.383 207.812 285.755 234.75 282.367 248.081C281.975 249.624 279.966 249.878 278.977 248.63C209.042 160.447 125.245 237.65 62.6423 221.01C61.2909 220.651 59.942 221.685 59.9964 223.082C60.6978 241.095 59.424 275.939 49.1454 291.625" stroke="#D1D4D8" stroke-width="3" stroke-linecap="round"/>
<path d="M566 180.922C510.283 114.5 427.421 -0.488115 372.418 1.65452C317.415 3.79716 297.414 31.6515 288.128 63.791C280.744 89.3466 293.919 87.3851 301.56 83.1526C301.654 83.1006 301.746 83.0382 301.83 82.9713C352.602 42.5527 377.185 69.0442 383.133 87.3601C393.419 141.64 349.56 166.737 309.557 190.921C281.617 207.812 282.245 234.75 285.633 248.081C286.025 249.624 288.034 249.878 289.023 248.63C358.958 160.447 442.755 237.65 505.358 221.01C506.709 220.651 508.058 221.685 508.004 223.082C507.302 241.095 508.576 275.939 518.855 291.625" stroke="#D1D4D8" stroke-width="3" stroke-linecap="round"/>
</svg>
