<svg width="616" height="653" viewBox="0 0 616 653" fill="none" xmlns="http://www.w3.org/2000/svg">
<path d="M341.5 224.434C341.5 239.297 329.013 251.434 313.5 251.434C297.987 251.434 285.5 239.297 285.5 224.434C285.5 209.57 297.987 197.434 313.5 197.434C329.013 197.434 341.5 209.57 341.5 224.434Z" stroke="#D1D4D8" stroke-width="3"/>
<path d="M313 238.934V241.934" stroke="#D1D4D8" stroke-width="3" stroke-linecap="round"/>
<path d="M313 210.934V207.934" stroke="#D1D4D8" stroke-width="3" stroke-linecap="round"/>
<path d="M321 212.836C319.158 211.848 316.362 210.923 313.748 210.934C310.597 210.947 307.709 212.318 307.075 216.574C306.239 222.188 312.58 224.203 316.358 226.231C321.581 229.035 321.533 234.291 318.389 236.823C316.975 237.961 315.37 238.586 313.748 238.822C311.376 239.167 308.97 238.682 307.075 237.757" stroke="#D1D4D8" stroke-width="3" stroke-linecap="round"/>
<path d="M359.769 333.719C351.678 329.114 287.412 324.317 272 323.934C271.999 326.812 275.033 331.674 277.923 334.552C295.262 333.976 363 343.916 363 340.03L359.769 333.719Z" fill="#D1D4D8"/>
<path d="M356.256 329.02C335.759 318.816 294.002 314.905 272.112 314.056C269.857 313.969 267.806 315.486 268.112 317.721C268.811 322.827 272.636 329.063 275.381 332.994C276.313 334.329 277.856 335.062 279.484 335.049C298.321 334.905 332.575 338.498 355.096 341.433C359.356 341.988 362.356 337.285 360.027 333.676L358.109 330.704C357.646 329.986 357.021 329.401 356.256 329.02Z" stroke="#D1D4D8" stroke-width="3"/>
<path d="M375.349 149.843C377.54 163.452 375.431 194.878 349.47 211.705C344.952 213.217 335.668 213.519 334.682 202.632C339.201 192.184 346.348 169.309 338.79 161.39C329.342 151.492 311.268 146.131 296.891 163.04C293.057 167.851 286.786 183.496 292.372 207.581C289.771 213.354 281.445 222.428 268.958 212.53C253.348 200.157 257.456 140.357 271.833 132.934" stroke="#D1D4D8" stroke-width="3" stroke-linecap="round"/>
<path d="M248.578 169.544C239.839 172.418 217.447 175.045 219.085 162.565C220.724 150.084 254.724 122.331 271.519 110.015C280.258 103.857 303.388 92.6077 326 96.8774" stroke="#D1D4D8" stroke-width="3" stroke-linecap="round"/>
<path d="M215.866 149.934C209.57 148.986 199.359 144.977 208.885 136.527C218.412 128.077 241.05 124.746 252 123.934" stroke="#D1D4D8" stroke-width="3" stroke-linecap="round"/>
<path d="M452.962 97.692C429.631 118.674 376.078 155.127 348.507 133.09C314.043 105.544 349.707 42.5872 388.285 11.7395" stroke="#D1D4D8" stroke-width="3" stroke-linecap="round"/>
<path d="M30 398.74V639.127C30 645.641 37.025 650.934 45.8062 650.934H576.194C584.975 650.934 592 645.641 592 639.127V397.934" stroke="#D1D4D8" stroke-width="3" stroke-miterlimit="10" stroke-linecap="round"/>
<path d="M228.667 275.19L206.16 360.076C206.138 360.16 206.127 360.246 206.127 360.332V391.352C206.127 391.788 205.857 392.17 205.441 392.299C143.613 411.527 27.9201 400.374 0.656971 392.283C0.237368 392.159 0 391.786 0 391.348V360.508C0 360.308 0.059494 360.114 0.170853 359.949L57.8667 274.375C58.0526 274.099 58.3634 273.934 58.6959 273.934H227.7C228.357 273.934 228.835 274.555 228.667 275.19Z" fill="#D1D4D8"/>
<path d="M574.027 274.498L615.9 361.01C615.966 361.146 616 361.295 616 361.446V388.598C616 388.823 615.951 389.014 615.801 389.182C601.052 405.68 421.884 404.067 411.72 396.149C411.525 395.997 411.494 395.806 411.494 395.559V361.217L401.135 275.053C401.063 274.458 401.528 273.934 402.127 273.934H573.126C573.51 273.934 573.86 274.153 574.027 274.498Z" fill="#D1D4D8"/>
<path d="M402.65 276.822L412 360.148V394.586C412 394.974 411.809 395.313 411.454 395.473C374.502 412.05 229.411 415.936 206.254 392.034C206.079 391.853 206 391.625 206 391.374V360.276C206 360.191 206.011 360.106 206.032 360.024L227.675 276.682C227.789 276.241 228.187 275.934 228.643 275.934H401.657C402.166 275.934 402.594 276.316 402.65 276.822Z" stroke="#D1D4D8" stroke-width="3" stroke-linecap="round"/>
<rect x="255.5" y="456.434" width="259" height="144" rx="8.5" stroke="#D1D4D8" stroke-width="3"/>
<path d="M85 509.434C85 479.334 109.4 454.934 139.5 454.934V454.934C169.6 454.934 194 479.334 194 509.434V650.934H85V509.434Z" fill="#D1D4D8"/>
</svg>
