<svg width="597" height="825" viewBox="0 0 597 825" fill="none" xmlns="http://www.w3.org/2000/svg">
<path d="M372.23 274.434C372.23 293.192 356.804 308.434 337.73 308.434C318.657 308.434 303.23 293.192 303.23 274.434C303.23 255.676 318.657 240.434 337.73 240.434C356.804 240.434 372.23 255.676 372.23 274.434Z" stroke="#D1D4D8" stroke-width="3"/>
<path d="M337.73 290.934V294.934" stroke="#D1D4D8" stroke-width="3" stroke-linecap="round"/>
<path d="M337.73 257.934V253.934" stroke="#D1D4D8" stroke-width="3" stroke-linecap="round"/>
<path d="M346.73 260.176C344.494 259.011 341.099 257.921 337.924 257.934C334.098 257.949 330.592 259.566 329.822 264.582C328.806 271.197 336.507 273.572 341.094 275.963C347.435 279.267 347.378 285.461 343.56 288.446C341.843 289.788 339.894 290.524 337.924 290.802C335.045 291.209 332.123 290.637 329.822 289.547" stroke="#D1D4D8" stroke-width="3" stroke-linecap="round"/>
<path d="M146.68 684.934C132.884 703.958 112.451 722.523 105.135 725.591L102 740.934C138.841 729.427 149.032 705.646 146.68 684.934Z" fill="#D1D4D8"/>
<path d="M87.6149 622.117C93.4815 666.522 86.6456 716.192 81.5527 739.479C81.2777 740.736 82.2301 741.934 83.5173 741.934H101.503C102.39 741.934 103.173 741.351 103.411 740.496C114.851 699.495 102.654 650.401 91.3271 620.999C90.4781 618.795 87.3056 619.776 87.6149 622.117Z" fill="#D1D4D8"/>
<path d="M107.863 689.618C128.727 693.426 156.545 682.633 172 660.123" stroke="#D1D4D8" stroke-width="3" stroke-linecap="round"/>
<path d="M11.654 641.514C-1.71445 664.584 43.2558 715.732 89.0891 693.428" stroke="#D1D4D8" stroke-width="3" stroke-linecap="round"/>
<path d="M33.0998 567.486C5.92487 571.33 -8.97678 608.592 11.6544 641.512C15.4094 647.504 31.7061 654.008 39.345 654.008" stroke="#D1D4D8" stroke-width="3" stroke-linecap="round"/>
<path d="M172 613.167C172 584.577 164.369 554.159 118.69 540.569C70.5818 526.256 44.4391 547.881 33.1002 567.487C27.7113 576.805 29.7967 585.751 33.1002 593.442" stroke="#D1D4D8" stroke-width="3" stroke-linecap="round"/>
<path d="M104 648.934C112.026 640.708 128.885 626.153 122.642 592.934" stroke="#D1D4D8" stroke-width="3" stroke-linecap="round"/>
<path d="M88 664.934C81.7037 662.989 66.0889 653.267 54 629.934" stroke="#D1D4D8" stroke-width="3" stroke-linecap="round"/>
<path d="M215.354 558.225L242.354 569.548C243.654 570.093 244.5 571.366 244.5 572.776V636.121C244.5 638.675 241.853 640.369 239.534 639.299L212.534 626.843C211.294 626.271 210.5 625.03 210.5 623.665V561.452C210.5 558.951 213.047 557.258 215.354 558.225Z" stroke="#D1D4D8" stroke-width="3"/>
<path d="M285.354 596.225L312.354 607.548C313.654 608.093 314.5 609.366 314.5 610.776V674.121C314.5 676.675 311.853 678.369 309.534 677.299L282.534 664.843C281.294 664.271 280.5 663.03 280.5 661.665V599.452C280.5 596.951 283.047 595.258 285.354 596.225Z" stroke="#D1D4D8" stroke-width="3"/>
<path d="M215.354 444.225L242.354 455.548C243.654 456.093 244.5 457.366 244.5 458.776V522.121C244.5 524.675 241.853 526.369 239.534 525.299L212.534 512.843C211.294 512.271 210.5 511.03 210.5 509.665V447.452C210.5 444.951 213.047 443.258 215.354 444.225Z" stroke="#D1D4D8" stroke-width="3"/>
<path d="M285.354 481.225L312.354 492.548C313.654 493.093 314.5 494.366 314.5 495.776V559.121C314.5 561.675 311.853 563.369 309.534 562.299L282.534 549.843C281.294 549.271 280.5 548.03 280.5 546.665V484.452C280.5 481.951 283.047 480.258 285.354 481.225Z" stroke="#D1D4D8" stroke-width="3"/>
<path d="M243 704.511V765.312C243 766.484 243.683 767.549 244.748 768.038L270.748 779.98C272.735 780.893 275 779.441 275 777.254V715.824C275 714.63 274.292 713.55 273.197 713.074L247.197 701.76C245.216 700.898 243 702.35 243 704.511Z" fill="#D1D4D8"/>
<path d="M350 817.934L173.676 731.173C172.65 730.669 172 729.625 172 728.481V369.934" stroke="#D1D4D8" stroke-width="3" stroke-linecap="round"/>
<path d="M597 727.866L489.781 698.934V749.761L388 802.934L597 727.866Z" fill="#D1D4D8"/>
<path fill-rule="evenodd" clip-rule="evenodd" d="M345.648 820.05V455.94L164.651 372.64C162.088 371.46 162.422 367.716 165.154 367.01L327.001 325.156C327.565 325.01 328.159 325.032 328.711 325.218L491 379.971V749.446C491 750.577 490.364 751.611 489.356 752.122L350.004 822.726C348.008 823.737 345.648 822.287 345.648 820.05ZM374.544 380.498L374.155 379.899C373.912 379.525 373.614 379.264 373.292 379.106C364.82 374.955 351.829 371.988 338.379 369.972C324.999 367.966 311.43 366.938 301.969 366.556C301.405 366.533 300.978 366.724 300.774 366.902C300.681 366.983 300.651 367.044 300.641 367.07C300.635 367.088 300.616 367.14 300.639 367.265C300.957 369.022 301.765 371.005 302.774 372.955C316.169 373.382 362.002 376.881 374.544 380.498ZM302.17 361.56C300.483 361.492 298.764 362.02 297.486 363.135C296.146 364.305 295.347 366.1 295.719 368.155C296.581 372.92 299.882 378.242 302.15 381.507C303.589 383.576 305.935 384.645 308.304 384.634C324.114 384.556 352.352 387.453 371.748 389.929C378.096 390.739 382.599 383.724 379.082 378.307L378.349 377.177C377.662 376.119 376.703 375.21 375.492 374.616C366.288 370.106 352.648 367.055 339.121 365.027C325.524 362.989 311.771 361.948 302.17 361.56Z" fill="#D1D4D8"/>
<path d="M412.731 182.934C415.397 199.434 412.831 237.534 381.231 257.934C375.731 259.767 364.431 260.134 363.231 246.934C368.731 234.267 377.431 206.534 368.231 196.934C356.731 184.934 334.731 178.434 317.231 198.934C312.564 204.767 304.931 223.734 311.731 252.934C308.564 259.934 298.43 270.934 283.23 258.934C264.23 243.934 269.23 171.434 286.73 162.434" stroke="#D1D4D8" stroke-width="3" stroke-linecap="round"/>
<path d="M258.23 206.433C247.564 209.933 220.231 213.133 222.231 197.933C224.231 182.733 265.731 148.933 286.232 133.933C296.898 126.433 325.132 112.733 352.732 117.933" stroke="#D1D4D8" stroke-width="3" stroke-linecap="round"/>
<path d="M219.231 183.434C211.564 182.267 199.131 177.334 210.731 166.934C222.331 156.534 249.897 152.434 263.23 151.434" stroke="#D1D4D8" stroke-width="3" stroke-linecap="round"/>
<path d="M508.061 119.096C479.57 144.719 414.169 189.237 380.499 162.325C338.411 128.685 381.965 51.8016 429.077 14.13" stroke="#D1D4D8" stroke-width="3" stroke-linecap="round"/>
</svg>
