<svg width="291" height="397" viewBox="0 0 291 397" fill="none" xmlns="http://www.w3.org/2000/svg">
<ellipse cx="146" cy="388.309" rx="101" ry="8" fill="#D1D4D8"/>
<path d="M229.912 277.074C206.558 301.591 177.858 320.754 145.5 332.309C62.2137 302.719 2 222.966 2 129.687V49.9346L145.5 2.30859L289 49.9346V129.405C289 158.15 283.091 185.767 272.68 211.13C272.962 211.13 254.673 254.811 229.912 277.074Z" stroke="#D1D4D8" stroke-width="3" stroke-miterlimit="10" stroke-linecap="round" stroke-linejoin="round"/>
<path d="M116 116.309V101.121C116 84.8086 129.08 71.3086 145.5 71.3086C161.642 71.3086 175 84.5273 175 101.121V116.309" stroke="#D1D4D8" stroke-width="3" stroke-miterlimit="10" stroke-linecap="round" stroke-linejoin="round"/>
<path fill-rule="evenodd" clip-rule="evenodd" d="M87 205.426C87 211.933 92.3182 217.309 98.756 217.309H192.244C198.682 217.309 203.72 211.933 204 205.426V128.191C204 121.684 198.682 116.309 192.244 116.309H98.756C92.3182 116.309 87 121.684 87 128.191V205.426ZM166 167.309C166 178.354 156.822 187.309 145.5 187.309C134.178 187.309 125 178.354 125 167.309C125 156.263 134.178 147.309 145.5 147.309C156.822 147.309 166 156.263 166 167.309Z" fill="#D1D4D8"/>
</svg>
