<svg width="721" height="397" viewBox="0 0 721 397" fill="none" xmlns="http://www.w3.org/2000/svg">
<path d="M413.275 217.009C419.511 223.261 433.48 231.714 439.467 215.508C445.453 199.302 399.556 180.745 375.858 173.492C337.626 162.611 249.879 153.441 201.618 202.569C200.76 203.442 200.911 204.871 201.982 205.462C207.295 208.395 218.581 212.735 233.675 213.257" stroke="#D1D4D8" stroke-width="3" stroke-linecap="round"/>
<path d="M112.38 202.666C98.7494 208.473 83.9916 211.32 70.5859 211.32C50.6464 211.32 31.3826 205.854 15.7238 196.631C14.372 195.834 13.3581 197.314 14.4846 198.339C28.9043 211.434 48.0553 219.404 69.3468 219.404C84.4423 219.404 102.016 214.508 114.183 205.513C116.098 204.032 114.295 201.755 112.38 202.666Z" fill="#D1D4D8"/>
<path d="M104.655 197.79C103.629 198.593 103.857 199.625 104.998 199.511C108.876 199.052 117.773 198.019 119.37 200.084C120.967 202.15 117.659 210.411 116.176 214.197C115.72 215.344 116.747 215.803 117.659 215C124.275 209.493 125.986 197.79 124.503 196.183C123.135 194.233 111.614 192.856 104.655 197.79Z" fill="#D1D4D8"/>
<path d="M102.043 176.551C99.4854 172.71 96.6727 169.893 96.6727 162.978V140.185C96.6727 130.453 97.4395 121.49 90.2799 114.831C84.6539 109.453 75.1927 107.404 68.0327 107.404C53.9684 107.404 38.6257 112.526 35.3014 129.685C35.0457 131.478 36.3243 132.502 37.3471 132.758L51.667 134.295C53.2013 134.295 53.9684 132.758 54.2242 131.734C55.5027 125.843 60.3613 123.026 66.2427 123.026C69.3112 123.026 72.6355 124.307 74.6812 126.868C76.7269 129.941 76.4712 134.039 76.4712 137.624V139.417C67.777 140.441 56.7813 141.209 48.5985 144.539C39.3928 148.636 33 156.575 33 168.612C33 183.978 42.4614 191.404 54.9913 191.404C65.4755 191.404 71.1012 189.1 79.2841 180.648C81.8412 184.49 82.8642 186.282 87.7228 190.38C89.0014 190.892 90.0237 190.892 91.3023 190.124C94.1156 187.563 99.741 182.953 102.554 180.392C103.321 179.368 103.066 177.832 102.043 176.551ZM73.4027 169.893C71.1012 173.99 67.5212 176.551 63.1741 176.551C57.5485 176.551 54.4799 172.197 54.4799 165.795C54.4799 153.246 65.7313 150.941 76.4712 150.941V154.014C75.9598 160.161 76.2155 165.027 73.4027 169.893Z" fill="#D1D4D8"/>
<path d="M658.644 85.0351L641.378 40.074C637.419 29.7625 625.849 24.6133 615.538 28.5731L390.988 114.803C380.554 118.81 375.429 130.59 379.61 140.955L394.5 177.87M594.562 244.344L460.338 295.887C449.968 299.87 438.339 294.638 434.44 284.236L412.002 224.37" stroke="#D1D4D8" stroke-width="3" stroke-linecap="round"/>
<path d="M454.539 245.24L507.2 225.018" stroke="#D1D4D8" stroke-width="3" stroke-linecap="round"/>
<path d="M524.754 218.277L532.434 215.328" stroke="#D1D4D8" stroke-width="3" stroke-linecap="round"/>
<rect x="384.562" y="144.967" width="273.824" height="32.9059" transform="rotate(-21.0074 384.562 144.967)" fill="#D1D4D8"/>
<circle cx="645.346" cy="178.262" r="34.0811" transform="rotate(-21.0074 645.346 178.262)" fill="#D1D4D8"/>
<path d="M657.498 140.852C660.216 138.594 663.348 136.732 666.836 135.392C683.751 128.896 702.651 137.138 709.049 153.801C715.448 170.463 706.923 189.237 690.008 195.732C686.519 197.072 682.946 197.785 679.415 197.926" stroke="#D1D4D8" stroke-width="3" stroke-linecap="round"/>
<path d="M295.5 364.404C299.9 362.404 362.333 337.238 393 324.904" stroke="#D1D4D8" stroke-width="3" stroke-linecap="round"/>
<path d="M280 140.904L324.5 125.904" stroke="#D1D4D8" stroke-width="3" stroke-linecap="round"/>
<path d="M242 348.871V355.871" stroke="#D1D4D8" stroke-width="3" stroke-linecap="round"/>
<path d="M242 300.871V293.871" stroke="#D1D4D8" stroke-width="3" stroke-linecap="round"/>
<path d="M256 304.133C252.58 302.438 247.387 300.853 242.531 300.871C236.679 300.893 231.318 303.245 230.14 310.541C228.586 320.164 240.363 323.618 247.38 327.095C257.078 331.902 256.99 340.912 251.151 345.252C248.525 347.204 245.544 348.275 242.531 348.68C238.128 349.272 233.659 348.44 230.14 346.854" stroke="#D1D4D8" stroke-width="3" stroke-linecap="round"/>
<path d="M175.5 302.404L255.5 270.404" stroke="#D1D4D8" stroke-width="3" stroke-linecap="round"/>
<path d="M13.041 300.491L2.26695 378.831C2.11864 379.909 2.86004 380.908 3.93518 381.079L85.679 394.036C86.896 394.229 87.9962 393.286 87.9921 392.054L87.6154 280.065C87.6109 278.734 86.3307 277.778 85.0528 278.153L14.4598 298.844C13.7038 299.066 13.1483 299.711 13.041 300.491Z" stroke="#D1D4D8" stroke-width="3"/>
<path d="M96.3426 284.747L88.7071 277.111C88.0771 276.481 87 276.928 87 277.819V395.184C87 395.816 87.5773 396.289 88.1961 396.165L105.122 392.78C105.622 392.68 105.966 392.22 105.922 391.712L96.6317 285.367C96.6112 285.133 96.5089 284.913 96.3426 284.747Z" fill="#D1D4D8"/>
<path d="M97 286.404H107.366C108.353 286.404 109.193 287.125 109.343 288.101L124.653 387.752C124.837 388.948 123.925 390.031 122.715 390.055L104.863 390.404" stroke="#D1D4D8" stroke-width="3" stroke-linecap="round"/>
<path d="M49 288.404C50.7333 280.446 57.28 264.926 69.6 266.518C76.2 267.37 80 275.074 80 278.854" stroke="#D1D4D8" stroke-width="3" stroke-linecap="round"/>
<path d="M33 293.404C34.8744 284.256 42.2684 264.363 56.0742 263.429C65.7693 262.774 69.0656 275.081 67.7083 283.256" stroke="#D1D4D8" stroke-width="3" stroke-linecap="round"/>
<path d="M284 198.871C281.762 198.871 239.873 200.319 216.139 235.285C215.507 236.217 215.79 237.492 216.798 237.992C225.935 242.52 247.376 247.226 273.385 235.515" stroke="#D1D4D8" stroke-width="3" stroke-linecap="round"/>
<path d="M320 203.871C304.056 210.007 270.669 229.223 260.87 258.063C260.416 259.399 261.51 260.697 262.899 260.448C271.985 258.823 290.99 253.121 313.165 239.591" stroke="#D1D4D8" stroke-width="3" stroke-linecap="round"/>
<path d="M344.186 213.871C334.25 222.727 313.038 245.502 304.206 268.491C303.644 269.954 304.964 271.387 306.477 270.977C318.902 267.604 340.243 260.082 348 250.78" stroke="#D1D4D8" stroke-width="3" stroke-linecap="round"/>
<path d="M361.658 230.43C354.026 240.533 339.033 260.973 332.995 271.178C332.137 272.627 333.425 274.228 335.039 273.751C357.818 267.021 399.926 248.061 414 216.871" stroke="#D1D4D8" stroke-width="3" stroke-linecap="round"/>
<path d="M413 203.871C394.621 193.509 346.09 173.94 299 178.567" stroke="#D1D4D8" stroke-width="3" stroke-linecap="round"/>
<path d="M471.948 82.2912C453.833 52.3694 404.65 1.81962 351.166 35.3723C350.024 36.0884 349.922 37.7285 350.971 38.5745L368.742 52.9087" stroke="#D1D4D8" stroke-width="3" stroke-linecap="round"/>
<path d="M399.479 65.1225C393.476 60.8253 377.917 54.1934 361.576 60.0389C360.228 60.5211 359.932 62.2458 360.979 63.2229L370.894 72.4817" stroke="#D1D4D8" stroke-width="3" stroke-linecap="round"/>
<path d="M406.845 82.1823C399.481 77.2179 381.09 69.9035 364.238 78.4291C363.054 79.0281 362.881 80.6128 363.848 81.5208L376.096 93.0157" stroke="#D1D4D8" stroke-width="3" stroke-linecap="round"/>
<path d="M411.519 95.4485C401.835 92.1005 378.866 88.677 362.07 100.625C361.095 101.319 361.024 102.718 361.875 103.559L378.988 120.465" stroke="#D1D4D8" stroke-width="3" stroke-linecap="round"/>
</svg>
