<svg width="416" height="265" viewBox="0 0 416 265" fill="none" xmlns="http://www.w3.org/2000/svg">
<path d="M71.3392 123.117H160.566C161.262 123.117 161.738 123.804 161.422 124.424C157.542 132.027 143.531 143.414 136.689 146.532C136.561 146.591 136.427 146.617 136.286 146.616L43.9227 146.132C42.9697 146.128 42.5632 144.919 43.3195 144.339L70.7308 123.324C70.9054 123.19 71.1192 123.117 71.3392 123.117Z" fill="#D1D4D8"/>
<path d="M135 144.273C141.833 142.939 158.6 134.873 171 113.273C186.5 86.2726 206 -1.38379 300 53.6162" stroke="#D1D4D8" stroke-width="3" stroke-linecap="round"/>
<path d="M45 146.117L317 147.117" stroke="#D1D4D8" stroke-width="3" stroke-linecap="round"/>
<path d="M328 85.1282C337.667 83.1282 358.9 71.3282 366.5 40.1282C374.1 8.92817 401.333 1.79484 414 2.12817" stroke="#D1D4D8" stroke-width="3" stroke-linecap="round"/>
<path d="M215.001 146.617C203.245 125.76 237.298 122.43 253.507 123.418C254.41 123.473 254.953 122.388 254.385 121.684C243.008 107.583 240.99 94.0942 243.501 82.6175C250.501 50.6177 281.335 49.9505 298.001 53.1172C320.801 60.7172 327.501 81.6172 328.001 91.1172C328.168 98.6172 328.401 116.417 328.001 127.617C327.601 138.817 327.501 144.117 317.001 147.117" stroke="#D1D4D8" stroke-width="3" stroke-linecap="round"/>
<path d="M137.5 103.117C138 101.117 144 46.1172 187 24.1172" stroke="#D1D4D8" stroke-width="3" stroke-linecap="round"/>
<path d="M122.501 93.1172C120.334 83.1172 118.901 57.9172 130.501 37.1172" stroke="#D1D4D8" stroke-width="3" stroke-linecap="round"/>
<rect x="147" y="163.117" width="68" height="24" rx="12" fill="#D1D4D8"/>
<path d="M45.5 146.117V261.617C45.5 262.169 45.9477 262.617 46.5 262.617H316C316.552 262.617 317 262.169 317 261.617V147.617" stroke="#D1D4D8" stroke-width="3" stroke-linecap="round"/>
<path d="M317.5 147.117L361 189.617" stroke="#D1D4D8" stroke-width="3" stroke-linecap="round"/>
<path d="M44.5 146.617L2 190.117" stroke="#D1D4D8" stroke-width="3" stroke-linecap="round"/>
<path d="M108.5 105.617C103.5 92.1172 81.2 64.1172 32 60.1172" stroke="#D1D4D8" stroke-width="3" stroke-linecap="round"/>
</svg>
