<svg width="436" height="399" viewBox="0 0 436 399" fill="none" xmlns="http://www.w3.org/2000/svg">
<path d="M72.1531 317.84C67.3801 331.155 65.6157 360.74 96.742 372.571" stroke="#D1D4D8" stroke-width="3" stroke-linecap="round"/>
<path d="M375.905 181.371C389.029 186.644 412.321 204.973 400.494 236.101" stroke="#D1D4D8" stroke-width="3" stroke-linecap="round"/>
<path d="M49.4951 313.767C44.0293 331.063 43.4259 370.967 84.7391 392.214" stroke="#D1D4D8" stroke-width="3" stroke-linecap="round"/>
<path d="M385.173 162.955C401.734 170.355 431.969 196.405 420.417 241.402" stroke="#D1D4D8" stroke-width="3" stroke-linecap="round"/>
<path d="M265.925 345.057C285.338 336.335 294.795 314.563 288.595 294.745C287.77 292.11 284.778 290.988 282.259 292.12L215.5 322.113C212.981 323.245 211.832 326.227 213.255 328.593C223.954 346.39 246.512 353.779 265.925 345.057Z" fill="#D1D4D8"/>
<path d="M126.765 36.7719C117.04 41.141 111.645 51.1857 112.733 61.2408C113.118 64.8017 117.462 65.6224 120.294 63.4292C129.668 56.1683 141.977 51.628 150.839 49.7804C154.39 49.0403 156.717 45.0709 154.261 42.4028C147.456 35.01 136.434 32.4277 126.765 36.7719Z" fill="#D1D4D8"/>
<path d="M295.031 135.535C298.914 144.179 300.25 148.488 307.635 164.926C316.265 184.134 323.124 192.988 357.677 204.803C378.219 211.827 382.996 231.348 369.574 240.12C369.551 240.135 369.526 240.149 369.501 240.16L117.894 353.2C117.85 353.22 117.803 353.234 117.755 353.241C104.002 355.304 88.6767 341.897 99.2834 320.893C109.909 299.851 112.331 278.429 103.816 256.497C97.3623 239.872 81.6859 202.273 75.7384 185.062C56.7553 116.59 109.116 75.6236 137.669 63.6991C168.855 49.6881 195.151 49.623 204.4 51.3418C228.272 53.8179 245.418 63.2549 258.668 76.5352" stroke="#D1D4D8" stroke-width="3" stroke-linecap="round"/>
<path d="M203.483 97.1094L341.906 73.5963C342.893 73.4286 343.487 74.6546 342.743 75.3249L278.233 133.475C278.159 133.542 278.082 133.595 277.991 133.633C272.379 135.945 250.273 127.194 238.861 122.065C238.299 121.812 237.644 122.119 237.477 122.711C234.748 132.355 231.402 141.307 229.766 145.33C229.59 145.765 229.107 146.019 228.751 145.713C225.436 142.869 225.012 124.692 225.251 114.634C225.263 114.121 224.887 113.685 224.382 113.594C215.906 112.084 204.238 104.523 199.313 100.807" stroke="#D1D4D8" stroke-width="3" stroke-linecap="round"/>
<path d="M238.322 122.066C252.835 115.179 289.549 97.9296 320.305 84.0292" stroke="#D1D4D8" stroke-width="3" stroke-linecap="round"/>
<path d="M229.333 146.072L256.326 130.06" stroke="#D1D4D8" stroke-width="3" stroke-linecap="round"/>
<path d="M235.316 108.068L272.311 96.0516" stroke="#D1D4D8" stroke-width="3" stroke-linecap="round"/>
</svg>
