<svg width="308" height="340" viewBox="0 0 308 340" fill="none" xmlns="http://www.w3.org/2000/svg">
<path d="M153.593 339.933C174.876 339.933 192.425 323.949 194.89 303.331C195.218 300.589 192.948 298.34 190.187 298.34H117C114.239 298.34 111.968 300.589 112.296 303.331C114.762 323.949 132.311 339.933 153.593 339.933Z" fill="#D1D4D8"/>
<path d="M154 0.339844C143.339 0.339844 134.301 7.29135 131.173 16.909C130.065 20.315 133.691 22.8439 137.173 22.0038C148.699 19.2225 161.788 20.1252 170.629 22.0718C174.17 22.8516 177.92 20.1847 176.773 16.7444C173.595 7.21212 164.6 0.339844 154 0.339844Z" fill="#D1D4D8"/>
<path d="M46.684 114.693C57.4289 44.4559 121.98 28.5454 152.912 29.3698C187.1 29.3698 211.113 40.0867 218.846 45.4452C262.8 70.9398 266.465 112.54 266.465 154.263V191.36C266.465 212.418 269.094 223.305 295.77 248.243C311.629 263.068 307.986 282.832 292.149 285.333C292.121 285.338 292.093 285.34 292.065 285.34H16.2319C16.1834 285.34 16.135 285.333 16.0882 285.32C2.69783 281.565 -5.78725 263.056 12.4958 248.243C30.8109 233.404 41.7997 214.855 43.021 191.36C43.9468 173.551 45.056 132.829 46.684 114.693Z" stroke="#D1D4D8" stroke-width="3" stroke-linecap="round"/>
</svg>
