<svg width="458" height="279" viewBox="0 0 458 279" fill="none" xmlns="http://www.w3.org/2000/svg">
<path d="M149 231.488C149 249.97 133.798 264.988 115 264.988C96.2022 264.988 81 249.97 81 231.488C81 213.007 96.2022 197.988 115 197.988C133.798 197.988 149 213.007 149 231.488Z" stroke="#D1D4D8" stroke-width="3"/>
<path d="M108.223 245.797L106.468 249.392" stroke="#D1D4D8" stroke-width="3" stroke-linecap="round"/>
<path d="M122.256 217.04L124.449 212.547" stroke="#D1D4D8" stroke-width="3" stroke-linecap="round"/>
<path d="M128.492 222.502C127.096 220.564 124.688 218.213 121.997 216.913C118.754 215.347 115.101 215.309 112.316 219.362C108.644 224.708 114.147 229.957 117.011 233.934C120.969 239.431 118.286 244.805 113.788 245.83C111.765 246.291 109.803 246.128 108.019 245.557C105.41 244.723 103.182 243.019 101.7 241.119" stroke="#D1D4D8" stroke-width="3" stroke-linecap="round"/>
<path d="M295 243.488C295 261.97 279.798 276.988 261 276.988C242.202 276.988 227 261.97 227 243.488C227 225.007 242.202 209.988 261 209.988C279.798 209.988 295 225.007 295 243.488Z" stroke="#D1D4D8" stroke-width="3"/>
<path d="M372 243.488C372 261.97 356.798 276.988 338 276.988C319.202 276.988 304 261.97 304 243.488C304 225.007 319.202 209.988 338 209.988C356.798 209.988 372 225.007 372 243.488Z" stroke="#D1D4D8" stroke-width="3"/>
<path d="M449 243.488C449 261.97 433.798 276.988 415 276.988C396.202 276.988 381 261.97 381 243.488C381 225.007 396.202 209.988 415 209.988C433.798 209.988 449 225.007 449 243.488Z" stroke="#D1D4D8" stroke-width="3"/>
<path d="M74 190.488C72 190.155 65.1 186.288 53.5 173.488" stroke="#D1D4D8" stroke-width="3" stroke-linecap="round"/>
<path d="M62 214.988C47.6667 208.655 15.6 188.788 2 159.988" stroke="#D1D4D8" stroke-width="3" stroke-linecap="round"/>
<path d="M66.5 254.988C56.6667 252.322 32.8 241.688 16 220.488" stroke="#D1D4D8" stroke-width="3" stroke-linecap="round"/>
<path d="M126 197.988L186 30.9883" stroke="#D1D4D8" stroke-width="3" stroke-linecap="round"/>
<path d="M261 30.9883V208.488" stroke="#D1D4D8" stroke-width="3" stroke-linecap="round"/>
<path d="M336.5 30.9883V208.488" stroke="#D1D4D8" stroke-width="3" stroke-linecap="round"/>
<path d="M414.5 30.9883V208.488" stroke="#D1D4D8" stroke-width="3" stroke-linecap="round"/>
<path d="M120.5 0.488281H427.5C444.069 0.488281 457.5 13.9197 457.5 30.4883V31.4883H150.5C133.931 31.4883 120.5 18.0568 120.5 1.48828V0.488281Z" fill="#D1D4D8"/>
</svg>
