<svg width="257" height="286" viewBox="0 0 257 286" fill="none" xmlns="http://www.w3.org/2000/svg">
<path d="M40 44.6172L24 32.6172" stroke="#D1D4D8" stroke-width="3" stroke-linecap="round"/>
<path d="M56 32.6172L36 4.61719" stroke="#D1D4D8" stroke-width="3" stroke-linecap="round"/>
<path d="M75 27.6172L67 1.61719" stroke="#D1D4D8" stroke-width="3" stroke-linecap="round"/>
<path d="M19.7106 114.581L93.2751 188.118C93.9117 188.755 94.8949 188.887 95.6774 188.443L132.573 167.471C133.372 167.017 134.377 167.165 135.01 167.831L163.083 197.331C163.734 198.016 164.775 198.151 165.579 197.656L251.59 144.746C252.995 143.882 254.782 144.993 254.63 146.635L242 282.54C241.895 283.672 240.867 284.489 239.739 284.336L3.92241 252.295C2.85136 252.15 2.08973 251.18 2.20262 250.105L16.3075 115.787C16.4832 114.114 18.5207 113.392 19.7106 114.581Z" stroke="#D1D4D8" stroke-width="3" stroke-linecap="round"/>
<path d="M25 234.617L76 201.617" stroke="#D1D4D8" stroke-width="3" stroke-linecap="round"/>
<path d="M180 214.617L221 259.617" stroke="#D1D4D8" stroke-width="3" stroke-linecap="round"/>
<path d="M51 88.6172L17 112.531L49.4545 142.617L51 88.6172Z" fill="#D1D4D8"/>
<path d="M224.837 111.617L221 163.617L254 142.662L224.837 111.617Z" fill="#D1D4D8"/>
<path d="M180 57.6172L109 49.0318L148.791 25.6172L180 57.6172Z" fill="#D1D4D8"/>
<path d="M49 142.969L53.5343 48.7155C53.5892 47.5737 54.5883 46.7101 55.726 46.821L227.076 63.5243C228.149 63.6288 228.946 64.565 228.878 65.6408L222.82 161.617" stroke="#D1D4D8" stroke-width="3" stroke-linecap="round"/>
<path d="M69 161.284L74.2536 95.718C74.3451 94.576 75.3754 93.7441 76.5111 93.8952L201.095 110.475C202.159 110.616 202.922 111.573 202.823 112.642L196.803 177.617" stroke="#D1D4D8" stroke-width="3" stroke-linecap="round"/>
<path d="M105 138.617L163 145.617" stroke="#D1D4D8" stroke-width="3" stroke-linecap="round"/>
<path d="M91 160.617L170 169.617" stroke="#D1D4D8" stroke-width="3" stroke-linecap="round"/>
</svg>
