<svg width="925" height="582" viewBox="0 0 925 582" fill="none" xmlns="http://www.w3.org/2000/svg">
<path d="M471.498 15.9973L561.023 124.159C561.662 124.931 560.896 126.057 559.944 125.748L477.342 98.9184C477.247 98.8877 477.162 98.8477 477.084 98.787C472.277 95.0812 468.814 71.56 467.555 59.1109C467.493 58.4988 466.901 58.0843 466.304 58.235C456.586 60.6895 447.16 62.2633 442.858 62.8566C442.393 62.9207 441.932 62.6295 442.019 62.1681C442.827 57.8754 458.361 48.4274 467.192 43.6093C467.643 43.3633 467.833 42.8199 467.659 42.3368C464.733 34.2402 465.453 20.3552 466.211 14.2328" stroke="#D1D4D8" stroke-width="3" stroke-linecap="round"/>
<path d="M467.284 58.6475C480.501 67.7784 513.787 90.9644 541.193 110.662" stroke="#D1D4D8" stroke-width="3" stroke-linecap="round"/>
<path d="M441.999 62.8525L469.355 78.2352" stroke="#D1D4D8" stroke-width="3" stroke-linecap="round"/>
<path d="M477.908 49.0488L506.801 75.0918" stroke="#D1D4D8" stroke-width="3" stroke-linecap="round"/>
<path d="M587 545.872H836.5C837.605 545.872 838.5 544.977 838.5 543.872V289.372" stroke="#D1D4D8" stroke-width="3" stroke-linecap="round"/>
<path d="M153.062 353.117L144.768 413.33C144.619 414.409 145.361 415.408 146.436 415.578L209.179 425.508C210.396 425.7 211.496 424.758 211.492 423.526L211.202 337.535C211.198 336.203 209.918 335.248 208.641 335.622L154.482 351.47C153.726 351.691 153.17 352.336 153.062 353.117Z" stroke="#D1D4D8" stroke-width="3"/>
<path d="M217.9 339.875L211.9 333.875V427.375L225.4 424.375L217.9 339.875Z" fill="#D1D4D8"/>
<path d="M217.5 341.875H225.726C226.706 341.875 227.541 342.585 227.7 343.551L240.126 419.291C240.323 420.494 239.408 421.592 238.189 421.614L223.959 421.875" stroke="#D1D4D8" stroke-width="3" stroke-linecap="round"/>
<path d="M180.5 343.875C181.898 337.725 187.177 325.733 197.113 326.963C202.435 327.622 205.5 333.574 205.5 336.495" stroke="#D1D4D8" stroke-width="3" stroke-linecap="round"/>
<path d="M168.5 346.875C169.946 339.861 175.65 324.61 186.3 323.894C193.779 323.392 196.322 332.827 195.275 339.095" stroke="#D1D4D8" stroke-width="3" stroke-linecap="round"/>
<path d="M253.5 363.371C366 376.372 253.5 63.3716 415.5 56.873" stroke="#D1D4D8" stroke-width="3" stroke-linecap="round" stroke-dasharray="10 17"/>
<path d="M521 429.231V477.324C521 477.683 521.097 478.035 521.28 478.344L542.78 514.599C543.817 516.348 546.5 515.612 546.5 513.579V457.055C546.5 456.612 546.353 456.182 546.083 455.832L524.583 428.008C523.416 426.499 521 427.324 521 429.231Z" fill="#D1D4D8"/>
<path d="M565 288.872V545.405C565 547.452 562.291 548.177 561.268 546.405L507.268 452.836C507.092 452.532 507 452.187 507 451.836V259.372" stroke="#D1D4D8" stroke-width="3" stroke-linecap="round"/>
<path d="M622.987 246.726L565.632 286.328C564.031 287.434 564.791 289.942 566.736 289.974L835.231 294.36C835.726 294.368 836.206 294.192 836.579 293.867L886.982 249.879C888.374 248.664 887.515 246.372 885.667 246.372H624.123C623.717 246.372 623.321 246.496 622.987 246.726Z" fill="#D1D4D8"/>
<path d="M481.059 246.662L564.472 289.982C566.281 290.921 568.172 288.869 567.087 287.143L508.726 194.231C508.577 193.994 508.38 193.791 508.148 193.635L429.539 140.77C427.818 139.612 425.69 141.517 426.651 143.356L480.208 245.814C480.398 246.177 480.695 246.473 481.059 246.662Z" fill="#D1D4D8"/>
<path d="M562.5 93.8721H721.603C722.442 93.8721 723.192 94.3957 723.481 95.1833L758.514 190.683C758.992 191.989 758.026 193.372 756.636 193.372H509.904C509.061 193.372 508.309 192.844 508.023 192.052L485 128.372" stroke="#D1D4D8" stroke-width="3" stroke-linecap="round"/>
<path d="M799 241.372L759.668 194.27C759.006 193.478 759.056 192.312 759.783 191.579L826.104 124.778C826.877 123.999 828.133 123.989 828.919 124.754L921.918 215.332C922.765 216.157 922.716 217.533 921.811 218.294L904.5 232.872" stroke="#D1D4D8" stroke-width="3" stroke-linecap="round"/>
<path d="M290.5 302.372H66C64.8954 302.372 64 303.268 64 304.372V444.872C64 445.977 64.8954 446.872 66 446.872H322C323.105 446.872 324 445.977 324 444.872V314.372" stroke="#D1D4D8" stroke-width="3" stroke-linecap="round"/>
<path d="M285 276.872H93L40.5 276.872C39.3954 276.872 38.5 277.767 38.5 278.872V467.872C38.5 468.977 39.3954 469.872 40.5 469.872H347.5C348.605 469.872 349.5 468.977 349.5 467.872V278.872C349.5 277.768 348.605 276.872 347.5 276.872H336.5" stroke="#D1D4D8" stroke-width="3" stroke-linecap="round"/>
<path d="M39 468.372L2.12631 558.616C1.58873 559.931 2.55647 561.372 3.97772 561.372H380.154C381.539 561.372 382.505 559.998 382.035 558.694L349.5 468.372" stroke="#D1D4D8" stroke-width="3" stroke-linecap="round"/>
<path d="M105 493.372L283.5 492.372" stroke="#D1D4D8" stroke-width="3" stroke-linecap="round"/>
<path d="M76.5 513.372L313 514.372" stroke="#D1D4D8" stroke-width="3" stroke-linecap="round"/>
<path d="M2 560.872V577.872C2 578.977 2.89543 579.872 4 579.872H358.5" stroke="#D1D4D8" stroke-width="3" stroke-linecap="round"/>
<path d="M149.992 528.615C150.299 527.863 151.031 527.372 151.843 527.372H234.738C235.509 527.372 236.211 527.815 236.543 528.511L245.134 546.511C245.768 547.838 244.8 549.372 243.329 549.372H144.479C143.057 549.372 142.09 547.931 142.628 546.615L149.992 528.615Z" fill="#D1D4D8"/>
<path fill-rule="evenodd" clip-rule="evenodd" d="M192 254.372C228.175 254.372 257.5 225.047 257.5 188.872C257.5 152.697 228.175 123.372 192 123.372C155.825 123.372 126.5 152.697 126.5 188.872C126.5 225.047 155.825 254.372 192 254.372ZM224.443 171.446C226.141 169.269 225.752 166.127 223.574 164.429C221.396 162.731 218.255 163.12 216.557 165.298L186.883 203.359L166.57 187.556C164.391 185.86 161.249 186.253 159.554 188.432C157.858 190.612 158.25 193.753 160.43 195.449L183.108 213.092C186.157 215.464 190.552 214.917 192.927 211.871L224.443 171.446Z" fill="#D1D4D8"/>
</svg>
