<svg width="308" height="340" viewBox="0 0 308 340" fill="none" xmlns="http://www.w3.org/2000/svg">
<path d="M154.97 339.181C176.252 339.017 193.678 322.899 195.985 302.262C196.292 299.518 194.004 297.286 191.243 297.307L118.058 297.87C115.297 297.891 113.044 300.157 113.393 302.897C116.017 323.495 133.689 339.344 154.97 339.181Z" fill="#D1D4D8"/>
<path d="M151.773 0.958173C141.112 1.04009 132.128 8.06083 129.073 17.7022C127.991 21.1167 131.637 23.6176 135.112 22.7507C146.617 19.881 159.712 20.6831 168.568 22.5617C172.115 23.3142 175.845 20.6186 174.671 17.1872C171.42 7.67968 162.373 0.876725 151.773 0.958173Z" fill="#D1D4D8"/>
<path d="M266.004 159.13C266.077 168.607 265.564 173.089 265.702 191.109C265.864 212.165 268.576 223.032 295.443 247.764C311.415 262.468 307.925 282.258 292.107 284.881C292.079 284.886 292.051 284.889 292.023 284.889L16.1985 287.008C16.15 287.008 16.1015 287.002 16.0546 286.99C2.63579 283.337 -5.99126 264.894 12.1774 249.941C30.378 234.962 41.2239 216.329 42.2647 192.826C43.0536 175.01 43.8499 134.281 45.3385 116.132C55.5434 45.8147 119.97 29.4087 150.908 29.9954C185.095 29.7327 209.19 40.2648 216.963 45.5637C237.816 57.4456 249.708 72.9895 256.486 90.4817" stroke="#D1D4D8" stroke-width="3" stroke-linecap="round"/>
<path d="M208.99 124.482H240.458C240.903 124.482 241.126 125.018 240.814 125.334L209.833 156.631C209.521 156.946 209.744 157.482 210.189 157.482H241.657" stroke="#D1D4D8" stroke-width="3" stroke-linecap="round"/>
<path d="M272.99 98.4824H304.458C304.903 98.4824 305.126 99.0185 304.814 99.3342L273.833 130.631C273.521 130.946 273.744 131.482 274.189 131.482H305.657" stroke="#D1D4D8" stroke-width="3" stroke-linecap="round"/>
</svg>
