<svg width="492" height="334" viewBox="0 0 492 334" fill="none" xmlns="http://www.w3.org/2000/svg">
<path d="M71.6571 45.7263L328.605 2.20004C329.592 2.03283 330.186 3.25908 329.442 3.92907L208.746 112.626C208.672 112.692 208.596 112.745 208.505 112.785C198.239 117.253 156.4 100.547 135.668 91.1542C135.107 90.9003 134.467 91.2134 134.301 91.8059C129.092 110.382 122.559 127.715 119.608 134.885C119.43 135.319 118.961 135.58 118.55 135.353C111.872 131.671 111.119 95.9692 111.619 77.1488C111.633 76.6353 111.262 76.2097 110.755 76.1299C95.1439 73.6747 73.1829 59.4458 64 52.5111" stroke="#D1D4D8" stroke-width="3" stroke-linecap="round"/>
<path d="M136 91.625C162.554 78.9501 229.729 47.2052 286 21.625" stroke="#D1D4D8" stroke-width="3" stroke-linecap="round"/>
<path d="M119 135.625L168 106.625" stroke="#D1D4D8" stroke-width="3" stroke-linecap="round"/>
<path d="M129 65.625L198 43.625" stroke="#D1D4D8" stroke-width="3" stroke-linecap="round"/>
<path d="M353.286 198.271L196.355 171.204C195.372 171.034 194.774 172.252 195.51 172.926L268.841 240.169C268.915 240.236 268.992 240.291 269.084 240.33C275.421 243.021 300.584 232.848 313.451 226.944C314.014 226.685 314.672 226.994 314.838 227.592C317.959 238.833 321.806 249.28 323.649 253.877C323.825 254.316 324.305 254.574 324.675 254.279C328.509 251.222 328.975 229.931 328.691 218.306C328.678 217.793 329.053 217.361 329.558 217.272C339.145 215.58 352.413 206.819 358 202.524" stroke="#D1D4D8" stroke-width="3" stroke-linecap="round"/>
<path d="M313 225.625C296.714 217.839 255.513 198.339 221 182.625" stroke="#D1D4D8" stroke-width="3" stroke-linecap="round"/>
<path d="M325 254.625L295 235.625" stroke="#D1D4D8" stroke-width="3" stroke-linecap="round"/>
<path d="M318 210.625L276 195.625" stroke="#D1D4D8" stroke-width="3" stroke-linecap="round"/>
<path d="M2 178.625C16.7222 167.002 54.3333 141.931 87 134.625" stroke="#D1D4D8" stroke-width="3" stroke-linecap="round"/>
<path d="M78 211.625C82.7222 202.05 100.333 178.846 133 162.625" stroke="#D1D4D8" stroke-width="3" stroke-linecap="round"/>
<path d="M104.867 152.625C79.1137 163.251 23.2399 196.918 5.7723 246.58C-16.0621 308.658 171.205 169.403 163.649 230.642C163.649 243.225 131.945 268.827 130.898 293.558C129.887 317.454 157.771 343.891 209 325.436" stroke="#D1D4D8" stroke-width="3" stroke-linecap="round"/>
<path d="M341.792 281.139C357.221 289.476 399.342 298.384 444.391 267.324" stroke="#D1D4D8" stroke-width="3" stroke-linecap="round"/>
<path d="M364.641 262.023C390.361 258.183 451.476 235.217 490.168 174.075" stroke="#D1D4D8" stroke-width="3" stroke-linecap="round"/>
</svg>
