<svg width="470" height="611" viewBox="0 0 470 611" fill="none" xmlns="http://www.w3.org/2000/svg">
<path d="M370.26 519.953L351.26 500.953" stroke="#D1D4D8" stroke-width="3" stroke-linecap="round"/>
<rect x="382.045" y="497.574" width="96.8261" height="51.6126" rx="25.8063" transform="rotate(42.7654 382.045 497.574)" fill="#D1D4D8"/>
<path d="M24.5 419.074C24.5 423.479 23.7397 427.396 22.5689 430.156C21.9823 431.538 21.3221 432.561 20.6657 433.215C20.0152 433.864 19.4538 434.074 19 434.074C18.5462 434.074 17.9848 433.864 17.3343 433.215C16.6779 432.561 16.0177 431.538 15.4311 430.156C14.2603 427.396 13.5 423.479 13.5 419.074C13.5 414.669 14.2603 410.753 15.4311 407.993C16.0177 406.61 16.6779 405.588 17.3343 404.933C17.9848 404.285 18.5462 404.074 19 404.074C19.4538 404.074 20.0152 404.285 20.6657 404.933C21.3221 405.588 21.9823 406.61 22.5689 407.993C23.7397 410.753 24.5 414.669 24.5 419.074Z" stroke="#D1D4D8" stroke-width="3"/>
<path d="M324 267.074C310.4 259.874 261.833 256.908 248.5 256.574C248.499 259.074 251 263.574 253.5 266.074C268.5 265.574 313 272.074 323 272.074L324 267.074Z" fill="#D1D4D8"/>
<path d="M321.392 262.503C303.716 253.841 268.131 250.469 249.07 249.7C246.819 249.609 244.778 251.135 245.179 253.352C245.935 257.529 248.934 262.457 251.203 265.722C252.129 267.054 253.669 267.783 255.292 267.775C271.286 267.697 299.672 270.616 319.065 273.09C323.33 273.635 326.327 268.916 323.986 265.31L323.252 264.18C322.787 263.464 322.159 262.878 321.392 262.503Z" stroke="#D1D4D8" stroke-width="3"/>
<path d="M411 320.075C419.833 320.575 438.4 317.475 442 301.075C445.6 284.675 440.833 284.242 438 286.075C435.921 287.421 435 291.075 441 299.075" stroke="#D1D4D8" stroke-width="3" stroke-linecap="round"/>
<path d="M451.5 307.574C454.5 307.241 459 304.249 459 294.574C459 280.574 467.5 293.575 467.5 302.075C467.5 309.074 460 317.074 449.5 314.574" stroke="#D1D4D8" stroke-width="3" stroke-linecap="round"/>
<path d="M417.5 331.08C428.833 333.08 454.2 324.575 453 288.575C452.65 278.073 443 273.575 434.5 277.576C424.5 283.075 428.6 301.078 437 307.078" stroke="#D1D4D8" stroke-width="3" stroke-linecap="round"/>
<path d="M58.5 419.574C58.5 433.999 55.1872 446.985 49.9078 456.312C44.6029 465.684 37.5065 471.074 30 471.074C22.4935 471.074 15.3971 465.684 10.0922 456.312C4.8128 446.985 1.5 433.999 1.5 419.574C1.5 405.149 4.8128 392.163 10.0922 382.836C15.3971 373.464 22.4935 368.074 30 368.074C37.5065 368.074 44.6029 373.464 49.9078 382.836C55.1872 392.163 58.5 405.149 58.5 419.574Z" stroke="#D1D4D8" stroke-width="3"/>
<path d="M42.5 425.074C42.5 429.479 41.7397 433.396 40.5689 436.156C39.9823 437.538 39.3221 438.561 38.6657 439.215C38.0152 439.864 37.4538 440.074 37 440.074C36.5462 440.074 35.9848 439.864 35.3343 439.215C34.6779 438.561 34.0177 437.538 33.4311 436.156C32.2603 433.396 31.5 429.479 31.5 425.074C31.5 420.669 32.2603 416.753 33.4311 413.993C34.0177 412.61 34.6779 411.588 35.3343 410.933C35.9848 410.285 36.5462 410.074 37 410.074C37.4538 410.074 38.0152 410.285 38.6657 410.933C39.3221 411.588 39.9823 412.61 40.5689 413.993C41.7397 416.753 42.5 420.669 42.5 425.074Z" stroke="#D1D4D8" stroke-width="3"/>
<path d="M91 388.574C96.5 401.408 103.9 434.174 89.5 462.574" stroke="#D1D4D8" stroke-width="3" stroke-linecap="round"/>
<path d="M79.5 366.574L33 369.074" stroke="#D1D4D8" stroke-width="3" stroke-linecap="round"/>
<path d="M26 469.574C31 472.408 44.5 479.074 60.5 479.074C76.5 479.074 83.1667 479.741 84.5 480.074" stroke="#D1D4D8" stroke-width="3" stroke-linecap="round"/>
<path d="M58 479.574C64.5 492.574 84.7 522.774 113.5 539.574" stroke="#D1D4D8" stroke-width="3" stroke-linecap="round"/>
<path d="M102 532.574C101.5 550.741 103.3 589.474 114.5 599.074C125.7 608.674 154.167 603.074 167 599.074" stroke="#D1D4D8" stroke-width="3" stroke-linecap="round"/>
<path d="M160.5 543.074C159.333 562.408 160.8 602.174 176 606.574C191.2 610.974 217 608.408 228 606.574C229.667 606.574 233.7 604.374 236.5 595.574C239.3 586.774 242 557.908 243 544.574" stroke="#D1D4D8" stroke-width="3" stroke-linecap="round"/>
<path d="M133 549.074C138 552.074 149.1 557.574 159.5 555.574" stroke="#D1D4D8" stroke-width="3" stroke-linecap="round"/>
<path d="M241 567.574C258.833 569.074 298.3 569.874 317.5 559.074" stroke="#D1D4D8" stroke-width="3" stroke-linecap="round"/>
<path d="M284 568.074C285.167 575.408 289 589.574 295 591.574C302.5 594.074 321.5 596.074 326.5 591.074" stroke="#D1D4D8" stroke-width="3" stroke-linecap="round"/>
<path d="M317.5 548.574C318.333 564.408 322.9 596.474 334.5 598.074C349 600.074 371.5 600.574 386.5 587.074C398.5 576.274 396.5 537.241 394 519.074" stroke="#D1D4D8" stroke-width="3" stroke-linecap="round"/>
<path d="M395.5 531.575C420.167 502.075 459.2 421.175 418 333.575C376.8 245.975 271.833 235.409 224.5 241.075" stroke="#D1D4D8" stroke-width="3" stroke-linecap="round"/>
<path d="M200 244.074C165.667 251.074 92 283.774 60 366.574" stroke="#D1D4D8" stroke-width="3" stroke-linecap="round"/>
<circle cx="132" cy="340.574" r="15" fill="#D1D4D8"/>
<ellipse cx="85.5" cy="321.574" rx="12.5" ry="13" fill="#D1D4D8"/>
<path d="M132.499 267.075C129.832 260.742 126.299 248.941 127.499 242.941" stroke="#D1D4D8" stroke-width="3" stroke-linecap="round"/>
<path d="M126 232.941C126.5 230.774 128.9 228.141 134.5 234.941C140.1 241.741 147.5 252.441 150.5 256.94" stroke="#D1D4D8" stroke-width="3" stroke-linecap="round"/>
<path d="M123.999 281.073C118.832 263.073 111.599 225.873 123.999 221.073C136.399 216.273 158.166 241.073 167.499 254.073" stroke="#D1D4D8" stroke-width="3" stroke-linecap="round"/>
<path d="M173.5 284.075C185 263.075 210.6 224.575 221 238.575C231.4 252.575 230.667 301.742 229 324.575" stroke="#D1D4D8" stroke-width="3" stroke-linecap="round"/>
<path d="M212.5 308.574C217.167 294.741 223.7 264.974 212.5 256.574C209.167 254.241 199.6 257.174 188 287.574" stroke="#D1D4D8" stroke-width="3" stroke-linecap="round"/>
<rect x="216.5" y="422.074" width="59" height="17" rx="8.5" stroke="#D1D4D8" stroke-width="3"/>
<rect x="225.5" y="442.074" width="58" height="17" rx="8.5" stroke="#D1D4D8" stroke-width="3"/>
<rect x="216.5" y="462.074" width="59" height="17" rx="8.5" stroke="#D1D4D8" stroke-width="3"/>
<rect x="276.5" y="462.074" width="59" height="17" rx="8.5" stroke="#D1D4D8" stroke-width="3"/>
<rect x="286.5" y="445.074" width="58" height="16" rx="8" stroke="#D1D4D8" stroke-width="3"/>
<rect x="277.5" y="426.074" width="59" height="17" rx="8.5" stroke="#D1D4D8" stroke-width="3"/>
<rect x="267.5" y="406.074" width="58" height="17" rx="8.5" stroke="#D1D4D8" stroke-width="3"/>
<rect x="273.5" y="386.074" width="58" height="17" rx="8.5" stroke="#D1D4D8" stroke-width="3"/>
<path d="M367.668 477.203H194.668C203.365 496.36 233.125 533.948 282.586 531.044C332.047 528.14 359.916 493.94 367.668 477.203Z" fill="#D1D4D8"/>
<circle cx="281" cy="432.574" r="98.5" fill="#D1D4D8" fill-opacity="0.1" stroke="#D1D4D8" stroke-width="3"/>
<path d="M289.5 187.574L291.477 191.097" stroke="#D1D4D8" stroke-width="3" stroke-linecap="round"/>
<path d="M275.61 163.097L273.633 159.574" stroke="#D1D4D8" stroke-width="3" stroke-linecap="round"/>
<path d="M280.637 162.426C279.079 162.183 276.991 162.309 275.461 163.179C273.618 164.229 272.585 166.359 274.265 170.227C276.482 175.328 281.177 174.971 284.374 175.47C288.792 176.16 291.3 180.693 290.675 183.906C290.394 185.351 289.753 186.417 288.915 187.154C287.69 188.232 286.043 188.607 284.484 188.436" stroke="#D1D4D8" stroke-width="3" stroke-linecap="round"/>
<path d="M468.499 82.0742C440.166 87.5742 376.799 104.574 349.999 128.574C316.499 158.574 301 169.074 294 159.574C287 150.074 302.349 130.763 310.999 121.574C319 113.074 310.5 85.5742 286 90.5742C261.5 95.5742 247.5 102.074 252 118.074C256.5 134.074 271.5 165.074 257 177.074C242.5 189.074 213.5 117.574 214.5 112.074C215.5 106.574 228 78.0742 257 61.5742" stroke="#D1D4D8" stroke-width="3" stroke-linecap="round"/>
<path d="M226.5 89.0742C205.333 103.241 167.301 126.074 160.501 120.074C152.001 112.574 163.501 94.5742 189.501 75.5742C210.301 60.3742 226.834 54.9076 232.501 54.0742" stroke="#D1D4D8" stroke-width="3" stroke-linecap="round"/>
<path d="M194 71.5742C179.333 70.5742 150 65.7742 150 54.5742C150 40.5742 205 49.5742 238 44.0742" stroke="#D1D4D8" stroke-width="3" stroke-linecap="round"/>
<path d="M180 45.5745C174.833 40.4078 170.5 30.9745 194.5 34.5745C224.5 39.0745 239.5 51.0747 307.5 45.5745C361.9 41.1743 403.833 14.4076 418 1.57422" stroke="#D1D4D8" stroke-width="3" stroke-linecap="round"/>
<path d="M297.215 168.207C301.735 177.617 304.096 186.887 304.311 194.231C304.418 197.905 303.987 201.024 303.078 203.418C302.173 205.803 300.832 207.385 299.147 208.194C297.462 209.004 295.389 209.061 292.962 208.277C290.524 207.49 287.82 205.877 285.02 203.496C279.422 198.738 273.663 191.1 269.143 181.69C264.624 172.28 262.262 163.01 262.047 155.667C261.94 151.993 262.372 148.874 263.281 146.479C264.186 144.095 265.526 142.513 267.211 141.703C268.897 140.894 270.97 140.836 273.397 141.621C275.834 142.408 278.538 144.021 281.339 146.401C286.936 151.16 292.696 158.798 297.215 168.207Z" stroke="#D1D4D8" stroke-width="3"/>
</svg>
