<svg width="327" height="383" viewBox="0 0 327 383" fill="none" xmlns="http://www.w3.org/2000/svg">
<path d="M2 372.503C18.072 364.821 57.1938 349.956 85.1056 351.905C89.0632 352.082 95.0396 353.773 87.2864 359.265C79.533 364.756 75.6563 367.607 74.6872 368.332C70.6491 371.762 66.6916 379.025 83.1674 380.603C103.762 382.552 161.913 361.229 277 376.915" stroke="#D1D4D8" stroke-width="3" stroke-linecap="round"/>
<path d="M107.747 320.698C90.3113 247.71 63.8482 101.641 94.0965 88.3562C95.4711 87.7542 96.9693 87.3611 98.3579 86.7828L213.335 38.8038" stroke="#D1D4D8" stroke-width="3" stroke-linecap="round"/>
<path d="M243.266 54.4453L250.823 89.4316" stroke="#D1D4D8" stroke-width="3" stroke-linecap="round"/>
<path d="M105.663 102.075C92.6625 126.557 112.866 229.778 129.175 297.633C132.722 312.424 148.824 320.178 162.813 314.097L270.885 267.109C281.931 262.303 287.966 250.336 285.261 238.651L256.877 116.859" stroke="#D1D4D8" stroke-width="3" stroke-linecap="round"/>
<path d="M128.573 103.55C133.847 97.1325 139.297 74.474 127.054 62.8898C124.945 60.871 122.288 59.1929 118.999 57.9931C96.7992 49.8754 82.6374 77.4543 95.99 86.9447" stroke="#D1D4D8" stroke-width="3" stroke-linecap="round"/>
<path d="M126.711 61.8812C128.603 49.4454 144.744 36.4574 164.203 47.2414C185.111 62.0214 174.607 83.756 165.073 91.3389" stroke="#D1D4D8" stroke-width="3" stroke-linecap="round"/>
<path d="M165.084 46.1731C169.051 36.3696 184.009 17.4655 203.742 25.2362C230.245 39.6953 214.988 68.1797 203.896 71.8256" stroke="#D1D4D8" stroke-width="3" stroke-linecap="round"/>
<path d="M203.517 23.8829C209.543 12.9938 224.577 2.46906 239.259 12.879C253.943 23.2912 249.285 50.8828 234.364 59.7154" stroke="#D1D4D8" stroke-width="3" stroke-linecap="round"/>
<path d="M134 153.73C156.336 147.23 205.207 130.33 222 114.73" stroke="#D1D4D8" stroke-width="3" stroke-linecap="round"/>
<path d="M144 187.73C164.847 184.487 213.757 164.866 233 157.73" stroke="#D1D4D8" stroke-width="3" stroke-linecap="round"/>
<path d="M150 224.73C173.528 221.155 223.668 209.55 236 191.73" stroke="#D1D4D8" stroke-width="3" stroke-linecap="round"/>
<path d="M161 262.73C172.774 261.147 191.886 255.764 207 243.73" stroke="#D1D4D8" stroke-width="3" stroke-linecap="round"/>
<rect x="220.669" y="222.897" width="38.0475" height="30.483" rx="3.5" transform="rotate(-20.8025 220.669 222.897)" stroke="#D1D4D8" stroke-width="3"/>
</svg>
