<svg width="445" height="436" viewBox="0 0 445 436" fill="none" xmlns="http://www.w3.org/2000/svg">
<path d="M52.5 191.932V349.497C52.5 350.023 52.9078 350.459 53.4327 350.495L185.928 359.427C185.976 359.43 186.024 359.43 186.072 359.426L238.5 355.432" stroke="#D1D4D8" stroke-width="3" stroke-linecap="round"/>
<path d="M52.5 191.432L184.877 175.07C185.474 174.997 186 175.462 186 176.063V357.432" stroke="#D1D4D8" stroke-width="3" stroke-linecap="round"/>
<path d="M212.4 176.432L382.564 187.371C383.09 187.405 383.5 187.842 383.5 188.369V254.432" stroke="#D1D4D8" stroke-width="3" stroke-linecap="round"/>
<path d="M53 350.432H3C2.44772 350.432 2 350.879 2 351.432V410.571C2 411.066 2.36187 411.486 2.85117 411.56L150.351 433.759C150.956 433.85 151.5 433.381 151.5 432.77V375.432" stroke="#D1D4D8" stroke-width="3" stroke-linecap="round"/>
<path d="M151 433.932L269.5 422.932" stroke="#D1D4D8" stroke-width="3" stroke-linecap="round"/>
<path d="M221 430.932V305.932L275 430.932H221Z" fill="#D1D4D8" fill-opacity="0.3"/>
<path d="M370.926 370.736L292.936 208.421C292.284 207.063 293.309 205.499 294.814 205.556L330.303 206.887C331.04 206.914 331.702 207.346 332.025 208.009L410.375 368.649C410.749 369.417 410.595 370.337 409.991 370.94L394.052 386.879C393.697 387.234 393.221 387.443 392.719 387.463L361.179 388.742C359.42 388.813 358.433 386.741 359.598 385.42L370.623 372.926C371.154 372.323 371.274 371.461 370.926 370.736Z" fill="#D1D4D8"/>
<path d="M326.409 418.048L318.942 425.84C317.696 427.141 318.67 429.298 320.471 429.222L350.273 427.962C350.743 427.943 351.19 427.758 351.537 427.441L358.692 420.909C360.04 419.677 359.169 417.432 357.343 417.432H327.853C327.308 417.432 326.787 417.654 326.409 418.048Z" fill="#D1D4D8"/>
<path d="M101.5 202.685V187.183C101.5 186.18 102.242 185.333 103.236 185.2L129.236 181.734C130.435 181.574 131.5 182.506 131.5 183.716V199.651C131.5 200.666 130.74 201.52 129.732 201.638L103.732 204.671C102.543 204.81 101.5 203.881 101.5 202.685Z" fill="#D1D4D8"/>
<path d="M56.5 404.188V417.218C56.5 418.204 57.2188 419.043 58.1933 419.194L83.1933 423.074C84.4056 423.262 85.5 422.324 85.5 421.097V407.205C85.5 406.193 84.7442 405.34 83.7396 405.219L58.7396 402.202C57.5487 402.058 56.5 402.988 56.5 404.188Z" fill="#D1D4D8"/>
<path d="M103.5 335.932V351.586C103.5 352.629 104.3 353.496 105.339 353.58L132.339 355.757C133.503 355.851 134.5 354.932 134.5 353.764V335.932C134.5 334.827 133.605 333.932 132.5 333.932H105.5C104.395 333.932 103.5 334.827 103.5 335.932Z" fill="#D1D4D8"/>
<path d="M56.5 374.659V353.074C56.5 351.916 57.4816 350.999 58.6376 351.079L83.6376 352.803C84.6863 352.876 85.5 353.747 85.5 354.798V377.676C85.5 378.875 84.4513 379.805 83.2604 379.661L58.2604 376.644C57.2558 376.523 56.5 375.67 56.5 374.659Z" fill="#D1D4D8"/>
<path d="M274.929 430.122L202.753 264.513C202.599 264.158 202.663 263.746 202.918 263.455L254.499 204.575C254.972 204.034 255.844 204.155 256.154 204.803L336.188 372.777C336.374 373.167 336.288 373.633 335.974 373.932L276.535 430.447C276.032 430.926 275.207 430.759 274.929 430.122Z" stroke="#D1D4D8" stroke-width="3" stroke-linecap="round"/>
<path d="M276.5 430.932L383.63 425.949C383.869 425.938 384.096 425.842 384.27 425.678L443.058 370.262C443.731 369.628 443.257 368.499 442.333 368.535L354.901 371.932" stroke="#D1D4D8" stroke-width="3" stroke-linecap="round"/>
<path d="M255.5 203.932L358.919 207.909C359.278 207.923 359.602 208.128 359.768 208.447L443 368.432" stroke="#D1D4D8" stroke-width="3" stroke-linecap="round"/>
<path fill-rule="evenodd" clip-rule="evenodd" d="M345 66.4336C345 102.608 315.675 131.934 279.5 131.934C243.325 131.934 214 102.608 214 66.4336C214 30.2589 243.325 0.933594 279.5 0.933594C315.675 0.933594 345 30.2589 345 66.4336ZM287 98.9316C287 103.35 283.642 106.932 279.5 106.932C275.358 106.932 272 103.35 272 98.9316C272 94.5134 275.358 90.9316 279.5 90.9316C283.642 90.9316 287 94.5134 287 98.9316ZM270.14 55.6109C269.551 45.9316 270.494 26.9317 279.332 26.9316C288.105 26.9316 289.478 46.1782 288.878 55.6109C288.171 66.7241 284.989 83.9316 279.332 83.9316C273.669 83.9316 270.73 65.2901 270.14 55.6109Z" fill="#D1D4D8"/>
</svg>
