<svg width="406" height="610" viewBox="0 0 406 610" fill="none" xmlns="http://www.w3.org/2000/svg">
<path d="M36.5 370.73C54.8333 359.564 107.8 338.53 173 343.73" stroke="#D1D4D8" stroke-width="3" stroke-linecap="round"/>
<path d="M166.499 363.73C151.999 373.064 147.001 400.23 199 400.23L243.251 394.264C243.414 394.242 243.578 394.259 243.732 394.318C258.325 399.896 277.821 417.31 250.781 454.842C250.608 455.082 250.542 455.395 250.609 455.683C253.852 469.547 247.928 487.616 235.218 496.087C235.075 496.182 234.962 496.303 234.883 496.454C231.035 503.751 220.369 520.904 206.501 521.702C205.95 521.733 205.504 522.177 205.447 522.727C204.512 531.728 191.306 544.803 175.5 546.73C155 549.23 59.5 513.23 2 477.23" stroke="#D1D4D8" stroke-width="3" stroke-linecap="round"/>
<path d="M246.5 378.23C260.833 379.897 286.5 390.23 274.5 418.23" stroke="#D1D4D8" stroke-width="3" stroke-linecap="round"/>
<path d="M16.5 593.73C35.3333 585.73 77.8 562.23 97 532.23" stroke="#D1D4D8" stroke-width="3" stroke-linecap="round"/>
<path d="M57 608.23L97.5 532.23" stroke="#D1D4D8" stroke-width="3" stroke-linecap="round"/>
<path d="M83.3611 607.73C82.0278 597.064 83.6611 567.83 100.861 536.23" stroke="#D1D4D8" stroke-width="3" stroke-linecap="round"/>
<path d="M176.5 388.23C184.167 374.397 184.8 336.03 190 297.23" stroke="#D1D4D8" stroke-width="3" stroke-linecap="round"/>
<path d="M179.5 391.23C185.667 379.064 202.5 351.83 220.5 340.23" stroke="#D1D4D8" stroke-width="3" stroke-linecap="round"/>
<path d="M180 389.23C187.167 381.897 216.4 367.83 242 354.23" stroke="#D1D4D8" stroke-width="3" stroke-linecap="round"/>
<path d="M158.5 271.23V278.23" stroke="#D1D4D8" stroke-width="3" stroke-linecap="round"/>
<path d="M158.5 222.23V215.23" stroke="#D1D4D8" stroke-width="3" stroke-linecap="round"/>
<path d="M171.5 225.56C168.211 223.83 163.218 222.212 158.549 222.231C152.923 222.253 147.767 224.654 146.634 232.102C145.14 241.925 156.465 245.451 163.211 249.001C172.537 253.908 172.452 263.105 166.838 267.536C164.313 269.529 161.446 270.622 158.549 271.036C154.315 271.64 150.018 270.79 146.634 269.171" stroke="#D1D4D8" stroke-width="3" stroke-linecap="round"/>
<path d="M193.5 196.73C175.167 202.064 132.9 207.43 110.5 186.23" stroke="#D1D4D8" stroke-width="3" stroke-linecap="round"/>
<path d="M191.5 285.23C174.5 288.397 134.7 290.03 123.5 271.23" stroke="#D1D4D8" stroke-width="3" stroke-linecap="round"/>
<path d="M208.5 186.23V289.628C208.5 289.998 208.307 290.333 207.978 290.504C189.755 299.937 148.712 311.811 125.696 285.952C125.569 285.81 125.485 285.63 125.456 285.441L103.5 142.23" stroke="#D1D4D8" stroke-width="3" stroke-linecap="round"/>
<path d="M196.997 179.732C170.164 187.065 114.097 190.832 104.497 147.232C94.8974 103.632 144 76.8961 182.997 75.7319C205.331 75.0653 247.497 84.3319 237.497 126.732C231.433 144.167 201.693 163.442 172.497 156.414M172.497 156.414C163.2 154.175 153.957 149.27 145.552 140.788C145.516 140.751 145.482 140.71 145.452 140.668C136.592 128.122 164.245 95.941 196.997 107.732C221.697 116.624 195.183 129.421 173.292 134.066C172.828 134.165 172.497 134.573 172.497 135.048V156.414Z" stroke="#D1D4D8" stroke-width="3" stroke-linecap="round"/>
<path d="M144.5 138.73L146 181.23" stroke="#D1D4D8" stroke-width="3" stroke-linecap="round"/>
<path d="M206.5 118.23V151.23" stroke="#D1D4D8" stroke-width="3" stroke-linecap="round"/>
<path d="M254.174 328.41L250.501 332.51" stroke="#D1D4D8" stroke-width="3" stroke-linecap="round"/>
<path d="M279.886 299.713L283.559 295.613" stroke="#D1D4D8" stroke-width="3" stroke-linecap="round"/>
<path d="M285.754 308.482C284.736 305.743 282.66 302.176 279.916 299.737C276.609 296.798 272.33 295.498 267.758 299.266C261.729 304.235 266.511 312.243 268.599 317.861C271.486 325.628 266.611 330.971 260.997 330.62C258.473 330.462 256.22 329.598 254.307 328.32C251.51 326.452 249.439 323.7 248.307 320.976" stroke="#D1D4D8" stroke-width="3" stroke-linecap="round"/>
<path d="M226 314.73C230.167 327.73 245.9 353.63 275.5 353.23" stroke="#D1D4D8" stroke-width="3" stroke-linecap="round"/>
<path d="M253 247.23C260.5 267.23 290.2 306.53 349 303.73" stroke="#D1D4D8" stroke-width="3" stroke-linecap="round"/>
<path d="M214.089 315.054C225.334 355.756 261.979 364.798 279.22 364.24C279.408 364.234 279.582 364.174 279.738 364.068L391.083 287.909C391.976 287.299 391.323 285.894 390.257 286.074C286.555 303.586 258.608 246.591 257.024 210.622C256.975 209.497 255.259 209.185 254.849 210.234L214.12 314.423C214.042 314.623 214.032 314.847 214.089 315.054Z" stroke="#D1D4D8" stroke-width="3" stroke-linecap="round"/>
<path d="M256 210.231C260 188.231 284 149.631 348 171.231C412 192.831 408.333 235.898 398.5 254.731C392.235 266.731 340.675 278.641 308 245.231C263.5 199.731 320.564 182.231 349.5 200.731C373.9 216.331 374.667 230.065 370 237.731C364.664 244.523 346.619 245.196 335.046 234.726C334.528 234.258 333.692 234.409 333.403 235.045L326.5 250.231" stroke="#D1D4D8" stroke-width="3" stroke-linecap="round"/>
<path d="M396.5 257.73L378.5 287.23" stroke="#D1D4D8" stroke-width="3" stroke-linecap="round"/>
<path d="M358 267.23L370 238.23" stroke="#D1D4D8" stroke-width="3" stroke-linecap="round"/>
<path d="M268.5 247.23L291 214.23" stroke="#D1D4D8" stroke-width="3" stroke-linecap="round"/>
<path d="M309.59 126.871L311.326 120.09" stroke="#D1D4D8" stroke-width="3" stroke-linecap="round"/>
<path d="M321.358 133.323C318.601 130.832 314.165 128.026 309.638 126.887C304.181 125.513 298.591 126.56 295.647 133.495C291.764 142.641 301.86 148.865 307.516 153.977C310.968 157.097 312.435 160.574 312.434 163.733" stroke="#D1D4D8" stroke-width="3" stroke-linecap="round"/>
<path d="M269 183.231C264.833 181.231 256.2 174.431 255 163.231V60.6131C255 59.5498 256.51 59.1723 257.037 60.0955C270.068 82.9008 307.03 117.018 367.5 96.2311C385 88.5644 413.9 64.8311 389.5 31.2311C365.1 -2.36892 317 -0.435584 296 4.73108C280.333 10.4374 257.6 29.9262 292 62.231C299 67.9656 310.975 75.0401 324 77.4692M324 77.4692C336.717 79.8409 350.434 77.7847 361.5 65.731C383.9 41.331 345 23.156 323.5 24.231C303.613 25.2253 277.299 37.7878 326.16 52.4802C326.627 52.6208 326.957 53.0857 326.898 53.5703L324 77.4692Z" stroke="#D1D4D8" stroke-width="3" stroke-linecap="round"/>
<path d="M298.5 37.7305L294.5 63.7305" stroke="#D1D4D8" stroke-width="3" stroke-linecap="round"/>
<path d="M269 97.2305C284 109.23 323.9 129.13 363.5 112.73" stroke="#D1D4D8" stroke-width="3" stroke-linecap="round"/>
<path d="M393 76.2305L345.5 169.23" stroke="#D1D4D8" stroke-width="3" stroke-linecap="round"/>
<path d="M366.5 57.7305L358.5 98.7305" stroke="#D1D4D8" stroke-width="3" stroke-linecap="round"/>
<path d="M237.5 126.73L235.5 244.23" stroke="#D1D4D8" stroke-width="3" stroke-linecap="round"/>
<path d="M274 30.7305L272.5 78.7305" stroke="#D1D4D8" stroke-width="3" stroke-linecap="round"/>
</svg>
