<svg width="192" height="109" viewBox="0 0 192 109" fill="none" xmlns="http://www.w3.org/2000/svg">
<path d="M160.23 69.04C145.086 70.8489 119.001 77.328 135.811 88.7734C152.621 100.219 128.428 105.053 114.23 106.04" stroke="black" stroke-width="5" stroke-linecap="round"/>
<path d="M85.0638 88.54C80.594 88.915 78.3125 93.0713 77.7305 95.1025L88.7305 98.54L85.0638 88.54Z" fill="black"/>
<path d="M9.73013 34.04L3.73013 27.54C3.33013 13.14 17.2301 7.20671 24.2301 6.04004L31.7301 15.54C20.5301 16.74 12.5635 28.04 9.73013 34.04Z" fill="black"/>
<path d="M24.2305 6.04004L77.7305 65.04L88.7305 99.04" stroke="black" stroke-width="5" stroke-linecap="round"/>
<path d="M24.2305 6.04004C16.7305 6.04004 4.43047 11.34 3.23047 26.54" stroke="black" stroke-width="5" stroke-linecap="round"/>
<path d="M3.73047 27.04L56.2305 88.54L88.7305 99.04" stroke="black" stroke-width="5" stroke-linecap="round"/>
<path d="M56.7305 88.54C58.0638 82.3734 63.9305 70.24 76.7305 67.04" stroke="black" stroke-width="5" stroke-linecap="round"/>
<path fill-rule="evenodd" clip-rule="evenodd" d="M167.798 52.5253C162.916 48.2785 147.23 33.7517 147.23 22.4156C147.23 8.99028 156.03 0.0400391 169.23 0.0400391C182.43 0.0400391 191.23 11.2278 191.23 22.4156C191.23 31.908 175.393 47.8436 170.593 52.4553C169.81 53.2076 168.616 53.2373 167.798 52.5253ZM176.564 19.4322C176.564 23.5514 173.281 26.8908 169.23 26.8908C165.18 26.8908 161.897 23.5514 161.897 19.4322C161.897 15.313 165.18 11.9737 169.23 11.9737C173.281 11.9737 176.564 15.313 176.564 19.4322Z" fill="black"/>
</svg>
