<svg width="268" height="222" viewBox="0 0 268 222" fill="none" xmlns="http://www.w3.org/2000/svg">
<path d="M128.23 177.54H43.7305C32.6848 177.54 23.7305 168.586 23.7305 157.54V24.04C23.7305 12.9943 32.6848 4.04004 43.7305 4.04004H101.446C106.751 4.04004 111.838 6.14718 115.588 9.8979L134.873 29.1822C138.623 32.9329 143.71 35.04 149.015 35.04H244.23C255.276 35.04 264.23 43.9943 264.23 55.04V157.54C264.23 168.586 255.276 177.54 244.23 177.54H243.23" stroke="black" stroke-width="7" stroke-linecap="round"/>
<path d="M24.2305 18.54H23.7305C12.6848 18.54 3.73047 27.4943 3.73047 38.54V157.54C3.73047 168.586 12.6848 177.54 23.7305 177.54H43.7305" stroke="black" stroke-width="7" stroke-linecap="round"/>
<path d="M128.23 6.54005H215.73C222.23 6.54005 235.13 6.44004 234.73 24.04" stroke="black" stroke-width="7" stroke-linecap="round"/>
<path d="M196.233 136.04C202.233 140.04 203.733 141.54 206.233 148.54" stroke="black" stroke-width="7" stroke-linecap="round"/>
<path d="M201.73 186.646L230.737 215.653C233.666 218.582 238.415 218.582 241.344 215.653V215.653C244.273 212.724 244.273 207.976 241.344 205.047L212.337 176.04" stroke="black" stroke-width="7" stroke-linecap="round"/>
<circle cx="184.73" cy="155.04" r="32.5" stroke="black" stroke-width="7"/>
</svg>
