<svg width="269" height="310" viewBox="0 0 269 310" fill="none" xmlns="http://www.w3.org/2000/svg">
<path d="M141.513 301.04C132.313 285.04 161.679 282.706 177.513 283.54V295.04L229.013 301.04C203.679 307.706 150.713 317.04 141.513 301.04Z" fill="black"/>
<path d="M254.512 279.54L235.012 299.54" stroke="black" stroke-width="5" stroke-linecap="round"/>
<path d="M230.512 238.54L180.012 235.04" stroke="black" stroke-width="5" stroke-linecap="round"/>
<path d="M200.512 222.04L254.512 224.54" stroke="black" stroke-width="5" stroke-linecap="round"/>
<path d="M179.012 235.04L176.512 293.04" stroke="black" stroke-width="5" stroke-linecap="round"/>
<path d="M254.512 225.54V278.54" stroke="black" stroke-width="5" stroke-linecap="round"/>
<path d="M235.012 257.04V299.54" stroke="black" stroke-width="5" stroke-linecap="round"/>
<path d="M179.012 235.04L200.512 222.04" stroke="black" stroke-width="5" stroke-linecap="round"/>
<path d="M235.012 299.54L176.012 293.54" stroke="black" stroke-width="5" stroke-linecap="round"/>
<path d="M0.767939 209.54C1.26794 195.54 57.2679 200.04 60.7679 200.54V209.54L77.7679 221.54C51.9346 222.207 0.367939 220.74 0.767939 209.54Z" fill="black"/>
<path d="M139.768 208.04V157.04" stroke="black" stroke-width="5" stroke-linecap="round"/>
<path d="M96.2676 221.04V165.04" stroke="black" stroke-width="5" stroke-linecap="round"/>
<path d="M60.2676 208.04V152.04" stroke="black" stroke-width="5" stroke-linecap="round"/>
<path d="M60.2676 152.04L99.7676 142.04" stroke="black" stroke-width="5" stroke-linecap="round"/>
<path d="M139.768 156.54L96.2676 164.54" stroke="black" stroke-width="5" stroke-linecap="round"/>
<path d="M96.2676 221.54L139.768 208.54" stroke="black" stroke-width="5" stroke-linecap="round"/>
<path d="M139.768 156.54L99.7676 142.04" stroke="black" stroke-width="5" stroke-linecap="round"/>
<path d="M60.2676 152.54L96.7676 164.54" stroke="black" stroke-width="5" stroke-linecap="round"/>
<path d="M105.768 113.54C106.268 99.5405 162.268 104.04 165.768 104.54V113.54L182.768 125.54C156.935 126.207 105.368 124.74 105.768 113.54Z" fill="black"/>
<path d="M244.768 112.04V61.04" stroke="black" stroke-width="5" stroke-linecap="round"/>
<path d="M201.268 125.04V69.04" stroke="black" stroke-width="5" stroke-linecap="round"/>
<path d="M165.268 112.04V56.04" stroke="black" stroke-width="5" stroke-linecap="round"/>
<path d="M201.268 125.54L244.768 112.54" stroke="black" stroke-width="5" stroke-linecap="round"/>
<path d="M244.768 60.54L201.268 68.54" stroke="black" stroke-width="5" stroke-linecap="round"/>
<path d="M165.268 56.04L204.768 46.04" stroke="black" stroke-width="5" stroke-linecap="round"/>
<path d="M244.768 60.54L204.768 46.04" stroke="black" stroke-width="5" stroke-linecap="round"/>
<path d="M165.268 56.54L201.768 68.54" stroke="black" stroke-width="5" stroke-linecap="round"/>
<path d="M229.201 9.39647L208.087 42.4706C207.405 43.5387 207.876 44.9636 209.06 45.4153L243.184 58.4366C244.097 58.7849 245.128 58.4227 245.622 57.58L265.555 23.6033C266.186 22.5282 265.69 21.1445 264.521 20.7142L231.577 8.59563C230.695 8.27122 229.707 8.60446 229.201 9.39647Z" stroke="black" stroke-width="5"/>
<path d="M171.309 3.04004L179.309 21.04" stroke="black" stroke-width="5" stroke-linecap="round"/>
<path d="M143.309 13.04L169.309 35.04" stroke="black" stroke-width="5" stroke-linecap="round"/>
<path d="M142.309 42.04L158.309 51.04" stroke="black" stroke-width="5" stroke-linecap="round"/>
</svg>
