<svg width="165" height="185" viewBox="0 0 165 185" fill="none" xmlns="http://www.w3.org/2000/svg">
<path d="M74.0568 4.20174L70.2501 17.4468C69.644 19.5558 70.4641 21.8638 72.4494 22.7984C80.3614 26.5233 87.7449 24.9559 92.2744 22.7727C94.1479 21.8697 94.8351 19.6764 94.2377 17.6844L90.2751 4.47097C89.9693 3.45129 89.3582 2.53281 88.4496 1.97806C82.9865 -1.35755 78.0789 0.252624 75.4817 2.05265C74.7535 2.55737 74.3015 3.35018 74.0568 4.20174Z" fill="black"/>
<path d="M55.2305 63.8121L62.3267 39.04C79.0029 48.6761 95.2946 43.0551 101.356 39.04L108.23 63.8121C86.9418 76.9026 64.0268 69.2665 55.2305 63.8121Z" fill="black"/>
<path d="M40.2305 108.623L48.8064 85.04C74.4902 99.06 104.66 90.8817 116.534 85.04L124.23 108.623C89.2231 127.489 53.6441 116.484 40.2305 108.623Z" fill="black"/>
<path d="M32.8065 125.638L37.6743 115.702C29.34 119.382 10.9456 127.758 4.04221 131.82C-2.86122 135.883 1.16578 141.167 4.04221 143.302C26.2423 155.077 71.8374 179.379 76.6167 182.382C81.396 185.385 86.8686 183.633 89.0075 182.382C108.552 172.152 149.944 150.279 159.148 144.626C168.353 138.974 162.983 133.292 159.148 131.158L127.065 115.04L131.933 124.313C134.145 131.158 128.761 135.132 126.622 137.119C95.9994 159.905 56.1867 147.938 40.1082 139.107C31.7887 134.161 31.774 128.067 32.8065 125.638Z" fill="black"/>
</svg>
