<svg width="340" height="325" viewBox="0 0 340 325" fill="none" xmlns="http://www.w3.org/2000/svg">
<path d="M124.371 119.54V19.54" stroke="black" stroke-width="5" stroke-linecap="round"/>
<path d="M182.882 48.04V134.04" stroke="black" stroke-width="5" stroke-linecap="round"/>
<path d="M295.871 30.0342V158.585M251.416 58.8895L276.422 55.1663V79.3675" stroke="black" stroke-width="5" stroke-linecap="round"/>
<path d="M251.416 58.8893L276.422 55.166V79.3673" stroke="black" stroke-width="5" stroke-linecap="round"/>
<path d="M245.412 3.08218L125.351 19.2083C124.364 19.3409 124.157 20.6779 125.057 21.1035L181.77 47.9093C181.95 47.9945 182.152 48.0239 182.349 47.9936L294.977 30.6919C295.933 30.5451 296.144 29.2624 295.287 28.8163L246.007 3.18609C245.824 3.09105 245.616 3.05476 245.412 3.08218Z" stroke="black" stroke-width="5" stroke-linecap="round"/>
<path d="M296.871 128.54C302.867 126.611 310.371 134.04 306.371 141.04" stroke="black" stroke-width="5" stroke-linecap="round"/>
<path d="M331.474 159.27C337.23 155.797 337.71 150.107 337.23 147.695C335.071 139.014 327.157 133.227 314.925 139.014C311.286 140.736 304.794 142.795 296.871 144.935" stroke="black" stroke-width="5" stroke-linecap="round"/>
<path d="M229.188 168.424C248.615 167.942 293.439 161.649 311.327 155.653C322.12 152.036 331.186 156.087 330.035 169.398C328.883 182.709 287.583 206.545 253.765 212.08C233.139 215.456 184.403 220.182 154.471 212.08C124.538 203.978 90.1932 236.676 76.762 254.039C68.1278 264.89 47.4054 293.682 33.5906 322.04" stroke="black" stroke-width="5" stroke-linecap="round"/>
<path d="M147.995 169.398C178.455 176.391 237.504 184.156 230.021 159.27C222.655 134.774 187.263 133.035 169.686 135.287C169.15 135.356 168.611 135.201 168.181 134.874C119.885 98.1991 53.616 142.77 27.8344 172.292C18.2408 183.866 13.4439 190.377 3.37061 206.292" stroke="black" stroke-width="5" stroke-linecap="round"/>
</svg>
