<svg width="357" height="420" viewBox="0 0 357 420" fill="none" xmlns="http://www.w3.org/2000/svg">
<circle cx="107.811" cy="109.541" r="14.5" transform="rotate(-45 107.811 109.541)" stroke="black" stroke-width="5"/>
<path d="M84.6562 61.5684L114.259 61.5684" stroke="black" stroke-width="5" stroke-linecap="round"/>
<path d="M59.8378 90.8868L59.8378 200.262C59.8378 202.914 60.8914 205.458 62.7667 207.333L116.156 260.722" stroke="black" stroke-width="5" stroke-linecap="round"/>
<path d="M273.156 297.75L348.934 221.972C352.839 218.066 352.839 211.735 348.934 207.83L249.69 108.586" stroke="black" stroke-width="5" stroke-linecap="round"/>
<path d="M135.002 279.733L191.502 336.733" stroke="black" stroke-width="5" stroke-linecap="round"/>
<circle r="13" transform="matrix(-1 0 0 1 231.156 388.887)" stroke="black" stroke-width="5"/>
<path d="M218.656 363.267C222.43 361.422 226.672 360.387 231.156 360.387C246.896 360.387 259.656 373.147 259.656 388.887C259.656 404.627 246.896 417.387 231.156 417.387C215.416 417.387 202.656 404.627 202.656 388.887C202.656 384.307 203.737 379.979 205.656 376.145" stroke="black" stroke-width="5" stroke-linecap="round"/>
<circle r="13" transform="matrix(-1 0 0 1 153.156 388.887)" stroke="black" stroke-width="5"/>
<path d="M165.656 363.267C161.882 361.422 157.64 360.387 153.156 360.387C137.416 360.387 124.656 373.147 124.656 388.887C124.656 404.627 137.416 417.387 153.156 417.387C168.896 417.387 181.656 404.627 181.656 388.887C181.656 384.204 180.527 379.785 178.525 375.887" stroke="black" stroke-width="5" stroke-linecap="round"/>
<path d="M178.656 375.887L228.156 327.887C233.156 321.887 243.756 304.587 246.156 283.387" stroke="black" stroke-width="5" stroke-linecap="round"/>
<path d="M178.002 349.233L153.002 324.233C148.002 318.233 137.402 300.933 135.002 279.733" stroke="black" stroke-width="5" stroke-linecap="round"/>
<path d="M166.156 362.887L246.156 283.387" stroke="black" stroke-width="5" stroke-linecap="round"/>
<path d="M205.656 375.887L192.656 362.887" stroke="black" stroke-width="5" stroke-linecap="round"/>
<path d="M218.156 362.887L205.656 350.387" stroke="black" stroke-width="5" stroke-linecap="round"/>
<circle r="3" transform="matrix(-1 0 0 1 192.002 349.733)" stroke="black" stroke-width="2"/>
<path d="M188.656 138.387L188.656 308.387" stroke="black" stroke-width="5" stroke-linecap="round" stroke-dasharray="10 10"/>
<path d="M188.811 0.0400391L200.521 11.2345L215.928 6.22948L221.622 21.3962L237.675 23.5719L236.224 39.7069L249.744 48.6325L241.436 62.54L249.744 76.4476L236.224 85.3732L237.675 101.508L221.622 103.684L215.928 118.851L200.521 113.846L188.811 125.04L177.1 113.846L161.693 118.851L155.999 103.684L139.946 101.508L141.397 85.3732L127.878 76.4476L136.186 62.54L127.878 48.6325L141.397 39.7069L139.946 23.5719L155.999 21.3962L161.693 6.22948L177.1 11.2345L188.811 0.0400391Z" fill="black"/>
<circle cx="174.811" cy="47.54" r="7" stroke="white" stroke-width="5"/>
<circle cx="203.811" cy="77.54" r="7" stroke="white" stroke-width="5"/>
<path d="M199.174 40.8692L179.447 84.2101" stroke="white" stroke-width="5" stroke-linecap="round"/>
<path d="M96.6538 112.387C102.929 111.755 113.596 107.459 106.066 95.3299C96.6538 80.1682 44.9829 54.3952 32.7475 77.7992C24.3258 93.9085 43.1508 106.701 57.0219 112.387" stroke="black" stroke-width="5" stroke-linecap="round"/>
</svg>
