<svg width="253" height="254" viewBox="0 0 253 254" fill="none" xmlns="http://www.w3.org/2000/svg">
<circle cx="126.304" cy="126.54" r="122" stroke="black" stroke-width="7"/>
<path d="M125.804 4.04004V249.54" stroke="black" stroke-width="7" stroke-linecap="round"/>
<path d="M23.8037 60.04H229.304" stroke="black" stroke-width="7" stroke-linecap="round"/>
<path d="M4.80371 127.04H248.804" stroke="black" stroke-width="7" stroke-linecap="round"/>
<path d="M23.8037 193.04H229.804" stroke="black" stroke-width="7" stroke-linecap="round"/>
<path d="M190.304 128.04C190.304 161.817 182.899 192.222 171.101 214.057C159.227 236.033 143.407 248.54 126.804 248.54C110.2 248.54 94.3805 236.033 82.5068 214.057C70.7086 192.222 63.3037 161.817 63.3037 128.04C63.3037 94.2635 70.7086 63.8581 82.5068 42.0226C94.3805 20.0473 110.2 7.54004 126.804 7.54004C143.407 7.54004 159.227 20.0473 171.101 42.0226C182.899 63.8581 190.304 94.2635 190.304 128.04Z" stroke="black" stroke-width="7"/>
</svg>
