<svg width="673" height="503" viewBox="0 0 673 503" fill="none" xmlns="http://www.w3.org/2000/svg">
<path d="M244.498 361.567C226.627 377.861 233.09 436.066 240.536 453.932L271.437 470.04C289.521 413.226 266.836 341.2 244.498 361.567Z" fill="black"/>
<path d="M615.008 394.04C596.741 394.04 569.835 398.257 560.211 406.692L560.207 438.965L449.555 468.035C377.45 485.149 593.568 489.238 653.835 444.313C702.048 408.373 648.039 395.823 615.008 394.04Z" fill="black"/>
<path d="M322.631 500.04V285.043" stroke="black" stroke-width="5" stroke-linecap="round"/>
<path d="M245.567 119.04L159.129 247.194C158.044 248.803 158.749 251.003 160.567 251.682L189.308 262.412C190.481 262.85 191.259 263.97 191.259 265.222V427.922C191.259 429.029 191.868 430.045 192.843 430.567L321.602 499.489C322.264 499.843 323.034 499.937 323.762 499.751L556.744 440.096C558.072 439.756 559 438.56 559 437.189V259.105" stroke="black" stroke-width="5" stroke-linecap="round"/>
<path d="M248.622 236.029L260.901 232.997C262.477 232.608 264 233.801 264 235.424V279.193C264 280.729 262.629 281.901 261.112 281.663L248.833 279.734C247.617 279.543 246.721 278.495 246.721 277.264V238.456C246.721 237.306 247.505 236.304 248.622 236.029Z" stroke="black" stroke-width="5"/>
<path d="M318 56.928L358 35.04V102.432L318 107.04V56.928Z" fill="black"/>
<path d="M338.95 290.015L242.578 120.719C241.53 118.876 242.671 116.556 244.771 116.263L352.794 101.18C354.276 100.973 355.379 99.7051 355.379 98.2086L355.379 38.2176C355.379 36.733 356.465 35.4717 357.933 35.2509L405.585 28.0851C407.399 27.8123 409.031 29.2172 409.031 31.0518L409.031 89.928C409.031 91.7056 410.568 93.0934 412.336 92.9125L474.815 86.5218C475.929 86.4078 477.014 86.924 477.628 87.8604L581.857 246.711C583.044 248.521 581.983 250.955 579.848 251.315L342.057 291.489C340.815 291.699 339.574 291.11 338.95 290.015Z" fill="black"/>
<path d="M190.588 344.04C172.806 368.5 146.471 392.369 137.041 396.314L133 416.04C180.485 401.246 193.619 370.67 190.588 344.04Z" fill="black"/>
<path d="M113.895 257.25C122.752 316.723 113.351 384.802 106.549 415.61C106.271 416.866 107.229 418.04 108.515 418.04H133.019C133.908 418.04 134.69 417.456 134.931 416.601C150.577 360.981 132.771 293.786 117.6 256.101C116.718 253.909 113.547 254.913 113.895 257.25Z" fill="black"/>
<path d="M140.213 349.04C166.238 342.001 179.504 337.386 191.617 322.386" stroke="black" stroke-width="5" stroke-linecap="round"/>
<path d="M15.5133 287.062C-1.81394 316.785 56.4733 382.681 115.879 353.945" stroke="black" stroke-width="5" stroke-linecap="round"/>
<path d="M43.3094 225.131C39.0277 215.222 36.3247 203.697 43.3094 191.692C58.006 166.432 91.8904 138.572 154.245 157.012C176.358 163.552 191.592 173.115 202 184.451" stroke="black" stroke-width="5" stroke-linecap="round"/>
<path d="M43.3094 191.692C8.08714 196.644 -11.2273 244.651 15.5133 287.063C20.3804 294.782 41.5029 303.162 51.4039 303.162" stroke="black" stroke-width="5" stroke-linecap="round"/>
<path d="M136 298.04C146.153 287.244 156.125 275.873 159 249.04" stroke="black" stroke-width="5" stroke-linecap="round"/>
<path d="M115 317.04C106.852 314.651 86.6444 302.707 71 274.04" stroke="black" stroke-width="5" stroke-linecap="round"/>
</svg>
