<svg width="404" height="392" viewBox="0 0 404 392" fill="none" xmlns="http://www.w3.org/2000/svg">
<path d="M101.864 318.894C89.3636 289.54 82.8636 271.54 52.3637 246.894C46.3636 242.54 41.1637 246.194 34.3637 257.394C25.8637 271.394 38.8637 377.894 75.8637 389.394" stroke="black" stroke-width="5" stroke-linecap="round"/>
<path d="M319.363 318.395C322.697 298.061 334.263 254.795 353.863 244.395C373.463 233.995 384.697 249.395 387.863 258.395C395.03 278.228 402.963 327.495 377.363 365.895" stroke="black" stroke-width="5" stroke-linecap="round"/>
<path d="M393.863 190.894C397.03 189.894 402.863 191.294 400.863 204.894C398.363 221.894 388.863 235.894 380.363 245.894" stroke="black" stroke-width="5" stroke-linecap="round"/>
<path d="M383.363 185.394C386.197 183.56 392.263 182.094 393.863 190.894C394.197 193.56 394.163 199.494 391.363 201.894" stroke="black" stroke-width="5" stroke-linecap="round"/>
<path d="M374.363 205.894L373.363 182.894C373.363 181.394 374.363 178.194 378.363 177.394C383.363 176.394 382.863 183.394 383.363 185.394C383.763 186.994 383.53 194.061 383.363 197.394" stroke="black" stroke-width="5" stroke-linecap="round"/>
<path d="M363.715 213.775L364.864 194.894C364.864 192.227 366.564 186.994 373.364 187.394" stroke="black" stroke-width="5" stroke-linecap="round"/>
<path d="M353.864 243.894C350.864 236.394 346.364 219.894 347.364 209.894C347.931 204.222 347.364 198.894 351.864 197.894C358.364 196.45 358.041 205.385 361.364 209.894C362.19 210.72 363.141 212.079 363.715 213.776C364.647 216.532 364.582 220.181 361.364 223.894" stroke="black" stroke-width="5" stroke-linecap="round"/>
<path d="M9.36398 205.394C4.86397 206.727 -1.83603 213.894 7.36397 231.894C16.564 249.894 29.1973 255.727 34.364 256.394" stroke="black" stroke-width="5" stroke-linecap="round"/>
<path d="M16.3636 190.894C11.6969 190.394 3.76358 192.594 9.3636 205.394L16.3636 219.394" stroke="black" stroke-width="5" stroke-linecap="round"/>
<path d="M32.3643 186.394C30.4397 183.052 25.8137 179.316 21.8642 180.394C19.3154 181.09 16.7565 183.05 16.3643 190.894C18.3642 196.394 17.3642 198.394 22.3642 204.894" stroke="black" stroke-width="5" stroke-linecap="round"/>
<path d="M42.6362 216.394C39.7121 212.561 40.4591 203.977 42.6362 196.394C45.3638 186.894 37.3638 183.394 32.3638 186.394C28.3638 188.794 30.5305 199.561 31.3638 204.894" stroke="black" stroke-width="5" stroke-linecap="round"/>
<path d="M51.8644 245.895V231.895L55.8643 220.895C57.1976 216.228 57.3643 203.895 49.8644 203.895C43.2629 203.895 42.6367 210.395 42.6367 216.395C42.8455 218.629 43.3355 220.76 43.8644 222.395" stroke="black" stroke-width="5" stroke-linecap="round"/>
<path d="M130.863 82.04C130.863 98.0563 117.88 111.04 101.863 111.04C85.847 111.04 72.8633 98.0563 72.8633 82.04C72.8633 66.0238 85.847 53.04 101.863 53.04C115.258 53.04 126.531 62.1211 129.863 74.4625" stroke="black" stroke-width="5" stroke-linecap="round"/>
<path d="M87.8633 78.04C88.5299 74.04 92.3633 65.34 102.363 62.54" stroke="black" stroke-width="5" stroke-linecap="round"/>
<path d="M238.469 6.73488C254.053 10.4322 263.689 26.0626 259.991 41.6462C256.294 57.2299 240.664 66.8656 225.08 63.1683C209.496 59.4709 199.861 43.8406 203.558 28.2569C206.65 15.2241 218.088 6.35141 230.865 5.95859" stroke="black" stroke-width="5" stroke-linecap="round"/>
<path d="M224.652 47.6495C220.914 46.0774 213.334 40.3392 212.918 29.9629" stroke="black" stroke-width="5" stroke-linecap="round"/>
<path d="M356.903 163.453C341.847 168.914 325.214 161.136 319.752 146.08C314.291 131.024 322.069 114.391 337.125 108.929C352.181 103.468 368.814 111.246 374.276 126.302C378.843 138.894 374.151 152.588 363.685 159.929" stroke="black" stroke-width="5" stroke-linecap="round"/>
<path d="M346.001 121.666C349.989 120.929 359.475 121.566 365.517 130.012" stroke="black" stroke-width="5" stroke-linecap="round"/>
<path d="M62.6652 151.54C60.4985 146.54 59.6652 133.64 73.6652 122.04" stroke="black" stroke-width="5" stroke-linecap="round"/>
<path d="M41.665 159.54C39.8316 150.04 39.965 128.04 55.165 116.04" stroke="black" stroke-width="5" stroke-linecap="round"/>
<path d="M162.863 52.0398C163.197 48.5398 166.663 41.9398 177.863 43.5398" stroke="black" stroke-width="5" stroke-linecap="round"/>
<path d="M151.863 40.54C152.863 36.7067 158.363 28.44 172.363 26.04" stroke="black" stroke-width="5" stroke-linecap="round"/>
<path d="M291.702 63.124C296.406 66.0656 306.123 74.0138 307.364 82.2733" stroke="black" stroke-width="5" stroke-linecap="round"/>
<path d="M300.526 49.0127C308.39 53.9656 325.226 68.1021 329.667 85.0242" stroke="black" stroke-width="5" stroke-linecap="round"/>
</svg>
