<svg width="554" height="649" viewBox="0 0 554 649" fill="none" xmlns="http://www.w3.org/2000/svg">
<path d="M129.188 14.0639L55.6701 71.7054C13.899 105.121 3.03821 146.055 3.0381 171.952V230.54V489.54C2.68133 496.604 6.02481 512.313 22.2529 518.636C128.631 554.279 348.738 628.406 378.145 639.767C407.552 651.128 424.372 644.501 429.106 639.767C449.849 624.983 489.465 596.555 514.538 577.54C552.038 548.04 550.499 535.54 550.499 526.04V443.54C548.881 348.401 546.592 222.679 543.56 177.799C540.218 128.345 515.156 120.158 497.611 111.804C398.752 77.5531 195.688 8.04914 174.301 4.03929C152.914 0.0294459 135.314 9.0516 129.188 14.0639Z" stroke="black" stroke-width="5" stroke-linecap="round"/>
<path d="M538.038 155.04C515.167 162.482 458.548 190.102 415.038 241.04" stroke="black" stroke-width="5" stroke-linecap="round"/>
<path d="M36.0381 91.04L352.382 193.882C379.092 203.079 416.819 221.641 420.826 269.133C424.832 316.624 422.495 537.526 420.826 642.04" stroke="black" stroke-width="5" stroke-linecap="round"/>
<path d="M3.03809 474.54C15.9375 479.83 276.842 565.251 393.202 603.791C408.234 608.77 428.276 609.448 445.814 595.473C458.136 585.655 483.477 566.925 508.538 548.04C515.351 542.93 545.507 519.798 550.538 516.04" stroke="black" stroke-width="5" stroke-linecap="round"/>
<path d="M57.0381 301.236V168.993C57.0381 162.145 63.7664 157.323 70.2514 159.524L260.251 223.997C264.309 225.373 267.038 229.182 267.038 233.466V364.192C267.038 371.01 260.365 375.829 253.893 373.684L105.038 324.362L63.8928 310.729C59.8007 309.373 57.0381 305.547 57.0381 301.236Z" stroke="black" stroke-width="5" stroke-linecap="round"/>
<path d="M379.538 284.04C379.538 305.653 364.438 322.54 346.538 322.54C328.639 322.54 313.538 305.653 313.538 284.04C313.538 262.427 328.639 245.54 346.538 245.54C364.438 245.54 379.538 262.427 379.538 284.04Z" stroke="black" stroke-width="5"/>
<rect x="342.538" y="265.54" width="8" height="37" rx="4" stroke="black" stroke-width="5"/>
<rect x="338.538" y="439.54" width="9" height="122" rx="4.5" stroke="black" stroke-width="5"/>
<rect x="273.538" y="417.54" width="9" height="122" rx="4.5" stroke="black" stroke-width="5"/>
<path d="M353.538 344.04C353.538 350.569 348.666 355.54 343.038 355.54C337.41 355.54 332.538 350.569 332.538 344.04C332.538 337.511 337.41 332.54 343.038 332.54C348.666 332.54 353.538 337.511 353.538 344.04Z" stroke="black" stroke-width="5"/>
<path d="M353.538 381.04C353.538 387.569 348.666 392.54 343.038 392.54C337.41 392.54 332.538 387.569 332.538 381.04C332.538 374.511 337.41 369.54 343.038 369.54C348.666 369.54 353.538 374.511 353.538 381.04Z" stroke="black" stroke-width="5"/>
<path d="M64.9797 423.54L63.9657 423.219C59.8068 421.905 56.9797 418.046 56.9797 413.685V398.801C56.9797 392.008 63.6073 387.192 70.0681 389.29L202.068 432.152C206.189 433.49 208.98 437.33 208.98 441.663V458.655C208.98 465.337 202.552 470.139 196.144 468.244L172.206 461.165" stroke="black" stroke-width="5" stroke-linecap="round"/>
<path d="M140.491 518.04C149.835 487.993 173.305 457.111 183.038 447.095L77.9221 412.04C57.9 426.062 38.7121 464.901 32.0381 482.15" stroke="black" stroke-width="5" stroke-linecap="round"/>
<path d="M68.0381 408.04L195.038 449.04" stroke="black" stroke-width="5" stroke-linecap="round"/>
<path d="M295.706 509.526L265.214 499.666C258.194 497.396 251.217 503.249 252.232 510.556L252.446 512.097C252.964 515.825 255.531 518.947 259.09 520.174L289.678 530.726C296.733 533.159 303.87 527.288 302.844 519.897L302.534 517.665C302.007 513.867 299.354 510.705 295.706 509.526Z" fill="black"/>
<path d="M354.87 483.627L324.566 475.674C317.406 473.795 310.757 480.077 312.227 487.333L312.524 488.795C313.267 492.463 315.996 495.408 319.597 496.429L350.038 505.059C357.243 507.102 364.054 500.791 362.566 493.452L362.132 491.313C361.375 487.576 358.558 484.595 354.87 483.627Z" fill="black"/>
<path d="M88.0381 286.246L122.622 252.348C123.192 251.789 124.155 252.091 124.304 252.875L130.352 284.741C130.487 285.45 131.306 285.787 131.901 285.379L176.844 254.52C177.474 254.088 178.336 254.492 178.406 255.253L183.068 305.937C183.145 306.777 184.165 307.15 184.766 306.557L230.038 261.937" stroke="black" stroke-width="5" stroke-linecap="round"/>
<path d="M242.741 250.408C243.444 250.311 244.021 250.956 243.847 251.644L238.537 272.622C238.34 273.398 237.356 273.64 236.822 273.044L220.697 255.028C220.163 254.431 220.512 253.48 221.305 253.37L242.741 250.408Z" fill="black"/>
<path d="M447.038 535.202V400.727C447.038 397.267 448.826 394.054 451.766 392.23L515.766 352.517C522.427 348.383 531.038 353.174 531.038 361.014V487.853C531.038 491.023 529.535 494.006 526.986 495.892L462.986 543.241C456.385 548.125 447.038 543.413 447.038 535.202Z" stroke="black" stroke-width="5" stroke-linecap="round"/>
</svg>
