<svg width="800" height="438" viewBox="0 0 800 438" fill="none" xmlns="http://www.w3.org/2000/svg">
<path d="M418.184 149.781L422.381 147.063L422.303 146.943L422.218 146.828L418.184 149.781ZM292.178 213.114L289.127 217.076L292.178 213.114ZM126.068 249.42C124.621 247.068 121.541 246.334 119.19 247.782C116.838 249.229 116.105 252.309 117.552 254.661L126.068 249.42ZM589.248 118.325C589.682 115.598 587.822 113.035 585.095 112.602C582.368 112.169 579.806 114.028 579.372 116.755L589.248 118.325ZM117.552 254.661C120.511 259.469 124.122 263.754 128.251 267.545L135.014 260.179C131.515 256.966 128.509 253.386 126.068 249.42L117.552 254.661ZM132.467 271.111C140.752 277.569 150.674 282.356 161.43 285.73L164.423 276.189C154.534 273.087 145.753 268.788 138.616 263.224L132.467 271.111ZM166.579 287.222C176.555 289.885 187.205 291.444 198.01 292.051L198.571 282.066C188.339 281.492 178.377 280.021 169.158 277.561L166.579 287.222ZM203.281 292.272C213.834 292.565 224.5 291.982 234.824 290.638L233.533 280.721C223.707 282.001 213.565 282.554 203.56 282.276L203.281 292.272ZM240.054 289.887C250.927 288.181 261.367 285.626 270.81 282.342L267.526 272.897C258.705 275.965 248.851 278.385 238.504 280.008L240.054 289.887ZM275.84 280.487C287.067 276.097 296.851 270.529 303.847 263.896L296.967 256.639C291.225 262.083 282.712 267.063 272.199 271.173L275.84 280.487ZM307.789 259.681C311.721 254.89 314.369 249.464 314.99 243.509C315.616 237.516 314.14 231.437 310.58 225.477L301.995 230.605C304.612 234.986 305.415 238.925 305.044 242.471C304.67 246.058 303.048 249.695 300.059 253.337L307.789 259.681ZM307.242 220.675C304.156 216.79 300.159 212.948 295.228 209.152L289.127 217.076C293.56 220.489 296.934 223.776 299.411 226.895L307.242 220.675ZM295.228 209.152C291.263 206.099 287.821 203.13 284.859 200.251L277.889 207.42C281.159 210.6 284.898 213.819 289.127 217.076L295.228 209.152ZM281.794 197.12C274.119 188.866 270.633 181.617 269.804 175.486L259.894 176.825C261.086 185.646 265.906 194.719 274.47 203.93L281.794 197.12ZM269.619 171.667C269.913 164.498 273.944 157.77 281.45 151.748L275.192 143.948C266.291 151.089 260.078 160.258 259.628 171.258L269.619 171.667ZM284.911 149.192C291.457 144.73 299.751 140.958 309.116 138.06L306.16 128.507C296.107 131.618 286.848 135.769 279.279 140.929L284.911 149.192ZM313.488 136.791C321.98 134.487 331.112 132.905 340.35 132.131L339.515 122.166C329.71 122.988 319.978 124.668 310.869 127.14L313.488 136.791ZM344.898 131.816C354.182 131.308 363.431 131.627 372.107 132.832L373.482 122.927C364.104 121.625 354.208 121.291 344.351 121.831L344.898 131.816ZM376.543 133.534C386.08 135.238 394.631 138.052 401.546 141.968L406.474 133.266C398.327 128.653 388.632 125.535 378.301 123.69L376.543 133.534ZM405.193 144.241C408.827 146.737 411.834 149.571 414.149 152.734L422.218 146.828C419.143 142.626 415.274 139.034 410.854 135.998L405.193 144.241ZM413.987 152.499C417.099 157.303 420.384 161.721 423.82 165.763L431.44 159.286C428.295 155.587 425.266 151.519 422.381 147.063L413.987 152.499ZM427.506 169.895C435.639 178.581 444.505 185.288 453.789 190.166L458.441 181.314C450.189 176.978 442.209 170.966 434.805 163.06L427.506 169.895ZM458.816 192.612C469.417 197.369 480.416 199.816 491.33 200.227L491.707 190.234C482.042 189.87 472.309 187.706 462.909 183.489L458.816 192.612ZM496.927 200.261C508.165 199.973 519.202 197.561 529.523 193.349L525.745 184.091C516.493 187.866 506.646 190.009 496.672 190.264L496.927 200.261ZM534.617 191.098C544.602 186.336 553.816 179.851 561.762 171.939L554.707 164.852C547.56 171.968 539.275 177.797 530.312 182.072L534.617 191.098ZM565.593 167.904C572.917 159.741 578.965 150.261 583.265 139.739L574.008 135.956C570.156 145.383 564.732 153.89 558.15 161.226L565.593 167.904ZM585.22 134.53C586.998 129.342 588.357 123.93 589.248 118.325L579.372 116.755C578.572 121.787 577.353 126.64 575.76 131.288L585.22 134.53Z" fill="black"/>
<path fill-rule="evenodd" clip-rule="evenodd" d="M581.656 86.1951C573.667 79.224 548 55.3781 548 36.7698C548 14.7319 562.4 0.0400391 584 0.0400391C605.6 0.0400391 620 18.4049 620 36.7698C620 52.3515 594.084 78.51 586.23 86.0802C584.948 87.3151 582.995 87.3638 581.656 86.1951ZM596 31.8725C596 38.6342 590.627 44.1157 584 44.1157C577.373 44.1157 572 38.6342 572 31.8725C572 25.1108 577.373 19.6292 584 19.6292C590.627 19.6292 596 25.1108 596 31.8725Z" fill="black"/>
<path d="M3.81006 379.077L97.1951 92.9796L195.9 50.04L286.921 81.995L388.58 50.04L479.601 81.995L585.989 50.04L677.01 81.995L795.81 405.04L646.276 366.594L512.109 405.04L388.58 379.077L252.049 392.058L122.61 353.612L3.81006 379.077Z" stroke="black" stroke-width="5"/>
<path d="M193.81 73.04L135.81 322.04" stroke="black" stroke-width="5"/>
<path d="M288.81 99.04L258.81 349.04" stroke="black" stroke-width="5"/>
<path d="M395.81 87.04V349.04" stroke="black" stroke-width="5"/>
<path d="M489.81 106.04L518.81 371.04" stroke="black" stroke-width="5"/>
<path d="M596.81 87.04L640.81 340.04" stroke="black" stroke-width="5"/>
<path d="M14.8101 411.54L21.9092 377.54L122.48 353.04L250.264 391.04L389.881 377.54L512.341 405.04L645.449 367.04L752.528 395.54L760.81 424.04L645.449 395.54L512.341 437.04L389.881 411.54L250.264 424.04L116.564 384.04L14.8101 411.54Z" fill="black"/>
</svg>
