<svg width="631" height="474" viewBox="0 0 631 474" fill="none" xmlns="http://www.w3.org/2000/svg">
<path d="M137.495 262.54C138.81 193.489 177.158 136.037 232.591 127.046C297.317 116.549 360.825 176.098 374.441 260.053C388.057 344.008 346.624 420.577 281.899 431.074C221.36 440.892 161.886 389.432 143.304 314.04" stroke="black" stroke-width="5" stroke-linecap="round"/>
<path d="M173.058 256.04C176.149 206.39 203.539 166.202 242.611 159.865C290.519 152.095 337.849 198.163 348.325 262.76C358.802 327.357 328.457 386.022 280.549 393.792C238.995 400.531 197.876 366.767 180.863 315.54" stroke="black" stroke-width="5" stroke-linecap="round"/>
<ellipse cx="269.689" cy="278.1" rx="44.301" ry="59.7332" transform="rotate(-9.21208 269.689 278.1)" fill="black"/>
<path d="M167.896 413.041C247.895 490.041 336.895 445.041 355.896 396.541C347.435 444.919 290.108 472.366 242.395 473.54C159.562 471.04 115.509 410.54 106.395 390.54C40.1553 245.184 141.063 142.874 191.396 128.541C96.8957 173.041 81.9155 330.284 167.896 413.041Z" fill="black"/>
<path d="M270.096 87.2174L278.055 66.016C278.408 65.0758 279.208 64.3745 280.187 64.1478L339.609 50.3762C342.497 49.707 344.502 53.1848 342.477 55.3488L327.79 71.0402C326.284 72.6494 326.969 75.279 329.069 75.9485L351.904 83.2286C354.595 84.0866 354.717 87.8488 352.088 88.8799L299.2 109.618C298.35 109.951 297.395 109.88 296.605 109.423L271.944 95.1838" stroke="black" stroke-width="5" stroke-linecap="round"/>
<path d="M93.5625 159.073L271.944 95.1838L303.597 83.7631" stroke="black" stroke-width="5" stroke-linecap="round"/>
<path d="M389.562 205.509L526.048 181.925L555.97 176.754" stroke="black" stroke-width="5" stroke-linecap="round"/>
<path d="M525.778 174.472L536.372 156.816C536.886 155.959 537.793 155.415 538.791 155.363L592.539 152.602C595.498 152.45 596.863 156.223 594.492 157.999L579.818 168.993C578.065 170.307 578.265 172.995 580.193 174.035L598.109 183.698C600.581 185.031 600.03 188.725 597.278 189.279L547.825 199.239C546.915 199.423 545.971 199.174 545.269 198.567L526.048 181.925" stroke="black" stroke-width="5" stroke-linecap="round"/>
<path d="M536.782 275.631L550.413 260.198C551.074 259.449 552.065 259.079 553.055 259.21L606.409 266.277C609.346 266.666 610.001 270.624 607.347 271.939L590.917 280.079C588.954 281.051 588.662 283.731 590.368 285.104L606.227 297.867C608.414 299.627 607.201 303.159 604.393 303.203L553.954 303.997C553.026 304.012 552.143 303.596 551.563 302.871L535.691 283.009" stroke="black" stroke-width="5" stroke-linecap="round"/>
<path d="M397.193 281.361L535.691 283.009L566.054 283.371" stroke="black" stroke-width="5" stroke-linecap="round"/>
<path d="M2.56244 316.509L139.048 292.925L168.97 287.754" stroke="black" stroke-width="5" stroke-linecap="round"/>
<path d="M138.778 285.472L149.372 267.816C149.886 266.959 150.793 266.415 151.791 266.363L205.539 263.602C208.498 263.45 209.863 267.223 207.492 268.999L192.818 279.993C191.065 281.307 191.265 283.995 193.193 285.035L211.109 294.698C213.581 296.031 213.03 299.725 210.278 300.279L160.825 310.239C159.915 310.423 158.971 310.174 158.269 309.567L139.048 292.925" stroke="black" stroke-width="5" stroke-linecap="round"/>
</svg>
