<svg width="300" height="175" viewBox="0 0 300 175" fill="none" xmlns="http://www.w3.org/2000/svg">
<path d="M19.0687 104.371C11.4964 102.955 -3.29301 105.488 5.5613 123.779C12.3144 137.729 22.7513 145.008 25.8218 148.04" stroke="black" stroke-width="5" stroke-linecap="round"/>
<path d="M114.83 122.288C109.233 121.227 98.3022 123.126 104.847 136.844C109.838 147.307 119.052 153.266 121.322 155.54" stroke="black" stroke-width="5" stroke-linecap="round"/>
<path d="M205.83 138.228C200.233 137.424 189.302 138.863 195.847 149.255C200.838 157.182 209.552 161.817 211.822 163.54" stroke="black" stroke-width="5" stroke-linecap="round"/>
<path d="M37.4733 166.212C20.7376 151.993 20.5763 115.831 22.8582 96.7835C23.0106 95.5114 24.3185 94.75 25.5382 95.142C41.8575 100.387 61.351 97.5963 71.1153 94.9849C72.3235 94.6618 73.5603 95.484 73.6983 96.727C78.6353 141.224 66.1184 161.119 59.094 166.231C59.0103 166.292 58.9295 166.34 58.8364 166.385C54.9079 168.294 45.4474 170.856 37.7417 166.402C37.6468 166.347 37.5568 166.283 37.4733 166.212Z" stroke="black" stroke-width="5" stroke-linecap="round"/>
<path d="M130.477 164.117C113.869 153.899 113.58 128.032 115.805 114.152C115.989 113.004 117.134 112.304 118.266 112.573C134.772 116.49 154.615 114.392 164.352 112.477C165.479 112.255 166.582 113.007 166.753 114.144C171.57 146.307 158.947 160.604 151.973 164.191C148.128 165.579 138.528 167.518 130.729 164.247C130.642 164.21 130.557 164.166 130.477 164.117Z" stroke="black" stroke-width="5" stroke-linecap="round"/>
<path d="M221.599 170.602C204.99 162.752 204.579 142.794 206.757 131.917C206.969 130.862 208.012 130.22 209.07 130.418C225.71 133.532 245.807 131.856 255.52 130.354C256.582 130.19 257.603 130.878 257.802 131.934C262.483 156.769 249.923 167.822 242.973 170.602C239.107 171.687 229.42 173.206 221.599 170.602Z" stroke="black" stroke-width="5" stroke-linecap="round"/>
<ellipse cx="48.3218" cy="94.04" rx="26.5" ry="5" fill="black"/>
<ellipse cx="141.322" cy="112.04" rx="26.5" ry="5" fill="black"/>
<ellipse cx="232.322" cy="129.04" rx="26.5" ry="4" fill="black"/>
<path d="M54.3127 77.04C58.5532 73.0985 64.4899 60.7906 54.3127 43.0916C44.1355 25.3926 55.2702 9.01598 62.1098 3.04004" stroke="black" stroke-width="5" stroke-linecap="round"/>
<path d="M41.5912 59.8752C35.7092 51.4834 26.4895 31.038 36.6668 16.3906" stroke="black" stroke-width="5" stroke-linecap="round"/>
<path d="M86.3218 167.041C97.9218 160.641 77.1551 161.873 65.8218 162.04L59.8218 168.041C72.3218 170.541 81.8218 169.041 86.3218 167.041Z" fill="black"/>
<path d="M177.322 166.244C188.922 159.844 168.155 161.076 156.822 161.243L150.822 167.244C163.322 169.744 172.822 168.244 177.322 166.244Z" fill="black"/>
<path d="M268.398 172.196C280.032 167.085 259.205 168.069 247.839 168.202L241.822 172.994C254.358 174.991 263.885 173.793 268.398 172.196Z" fill="black"/>
<path d="M156.904 100.04C154.088 84.9504 145.659 45.2562 122.822 47.54C102.823 49.54 115.111 86.456 149.191 57.756C161.322 47.54 159.7 20.6679 153.823 13.04" stroke="black" stroke-width="5" stroke-linecap="round"/>
<path d="M142.322 100.04L140.581 81.7578C140.453 80.4118 139.05 79.5669 137.756 79.9602C131.398 81.893 120.455 82.9792 112.822 76.04C105.322 69.2067 95.2219 51.94 114.822 37.54" stroke="black" stroke-width="5" stroke-linecap="round"/>
<path d="M214.822 120.04C214.322 114.373 222.922 99.6396 261.322 86.0396C309.322 69.0396 304.322 28.5396 271.322 30.0396" stroke="black" stroke-width="5" stroke-linecap="round"/>
<path d="M219.822 94.54C227.822 85.34 251.155 75.7067 261.822 72.04C272.155 67.7067 289.722 55.74 277.322 42.54" stroke="black" stroke-width="5" stroke-linecap="round"/>
</svg>
