<svg width="823" height="699" viewBox="0 0 823 699" fill="none" xmlns="http://www.w3.org/2000/svg">
<path d="M187.449 439.762L153.791 308.021L591.723 196.132L598.143 221.262" stroke="black" stroke-width="3"/>
<path d="M203.418 502.261L229.043 602.559L238.5 600.143" stroke="black" stroke-width="3"/>
<path d="M391.5 583.54L410 579.04" stroke="black" stroke-width="3" stroke-linecap="round"/>
<path d="M439.5 572.04L592.25 535.243" stroke="black" stroke-width="3" stroke-linecap="round"/>
<path d="M380.5 586.04L242.676 618.42L211.5 487.54" stroke="black" stroke-width="3" stroke-linecap="round"/>
<path d="M200.482 441.541L172.137 322.718L611.801 217.837L653.812 393.948" stroke="black" stroke-width="3" stroke-linecap="round"/>
<path d="M64.5432 268.826C60.1576 269.767 55.9718 271.146 52.0136 272.874L54.1386 282.781C48.8632 285.318 44.1299 288.587 40.0019 292.512L31.4946 287.01C28.4144 290.16 25.7316 293.656 23.3481 297.341C20.9645 301.026 18.8767 304.907 17.2675 309.008L25.7748 314.51C23.8874 319.885 22.8472 325.542 22.6975 331.394L12.7908 333.519C12.8374 337.838 13.2966 342.221 14.2373 346.607C15.1781 350.992 16.5569 355.178 18.2857 359.136L28.1924 357.011C30.7289 362.287 33.9979 367.02 37.9237 371.148L32.4215 379.655C35.5711 382.736 39.0667 385.418 42.7521 387.802C46.4374 390.185 50.3178 392.273 54.4189 393.882L59.921 385.375C65.296 387.263 70.9537 388.303 76.8053 388.453L78.9303 398.359C83.2492 398.313 87.6323 397.853 92.0179 396.913C96.4035 395.972 100.589 394.593 104.548 392.864L102.423 382.958C107.698 380.421 112.431 377.152 116.559 373.226L125.067 378.728C128.147 375.579 130.83 372.083 133.213 368.398C135.597 364.713 137.684 360.832 139.294 356.731L130.786 351.229C132.674 345.854 133.714 340.196 133.864 334.345L143.77 332.22C143.724 327.901 143.265 323.518 142.324 319.132C141.383 314.746 140.004 310.561 138.275 306.602L128.369 308.727C125.832 303.452 122.563 298.719 118.637 294.591L124.14 286.083C120.99 283.003 117.494 280.32 113.809 277.937C110.124 275.553 106.243 273.465 102.142 271.856L96.6401 280.364C91.2651 278.476 85.6075 277.436 79.7559 277.286L77.6309 267.38C73.3119 267.426 68.9288 267.885 64.5432 268.826V268.826ZM71.4119 300.848C89.0878 297.056 106.511 308.325 110.302 326.001C114.094 343.677 102.825 361.099 85.1493 364.891C67.4733 368.682 50.0505 357.414 46.259 339.738C42.4675 322.062 53.736 304.639 71.4119 300.848Z" fill="black"/>
<path d="M319.584 352.789C315.221 353.83 311.068 355.304 307.151 357.123L309.502 366.978C304.286 369.635 299.628 373.011 295.591 377.03L286.96 371.724C283.953 374.943 281.351 378.499 279.052 382.238C276.753 385.977 274.755 389.904 273.24 394.041L281.871 399.347C280.107 404.764 279.196 410.444 279.18 416.297L269.325 418.648C269.47 422.965 270.03 427.337 271.07 431.7C272.111 436.063 273.585 440.216 275.404 444.133L285.26 441.782C287.916 446.998 291.293 451.656 295.312 455.693L290.006 464.324C293.225 467.331 296.781 469.933 300.52 472.232C304.259 474.531 308.186 476.529 312.323 478.044L317.629 469.413C323.046 471.177 328.725 472.088 334.579 472.104L336.93 481.959C341.247 481.814 345.618 481.254 349.981 480.214C354.344 479.173 358.497 477.699 362.415 475.88L360.064 466.024C365.28 463.368 369.937 459.991 373.974 455.972L382.605 461.278C385.613 458.059 388.215 454.503 390.513 450.764C392.812 447.025 394.811 443.098 396.326 438.961L387.695 433.655C389.459 428.238 390.369 422.559 390.385 416.705L400.241 414.354C400.095 410.037 399.536 405.666 398.495 401.303C397.454 396.94 395.98 392.787 394.161 388.869L384.306 391.22C381.649 386.004 378.273 381.347 374.254 377.31L379.56 368.679C376.341 365.671 372.785 363.069 369.046 360.771C365.307 358.472 361.38 356.473 357.243 354.958L351.937 363.589C346.52 361.825 340.84 360.915 334.987 360.899L332.636 351.043C328.319 351.189 323.947 351.748 319.584 352.789V352.789ZM327.184 384.645C344.768 380.45 362.444 391.317 366.639 408.902C370.834 426.487 359.967 444.163 342.382 448.357C324.797 452.552 307.121 441.685 302.927 424.1C298.732 406.516 309.599 388.84 327.184 384.645Z" stroke="black" stroke-width="5" stroke-linecap="round" stroke-linejoin="round"/>
<path d="M354.594 498.435C352.496 498.936 350.499 499.644 348.615 500.519L349.745 505.259C347.237 506.536 344.997 508.16 343.056 510.093L338.905 507.541C337.459 509.089 336.207 510.8 335.102 512.598C333.996 514.396 333.035 516.284 332.307 518.274L336.457 520.826C335.609 523.431 335.171 526.162 335.163 528.977L330.424 530.108C330.494 532.184 330.763 534.286 331.263 536.384C331.764 538.483 332.473 540.48 333.347 542.364L338.087 541.233C339.365 543.742 340.988 545.982 342.921 547.923L340.369 552.074C341.918 553.52 343.628 554.772 345.426 555.877C347.224 556.982 349.113 557.944 351.102 558.672L353.654 554.521C356.259 555.37 358.99 555.808 361.806 555.815L362.936 560.555C365.012 560.485 367.114 560.216 369.213 559.716C371.311 559.215 373.308 558.506 375.192 557.631L374.062 552.892C376.57 551.614 378.81 549.99 380.751 548.057L384.902 550.609C386.348 549.061 387.6 547.351 388.705 545.553C389.811 543.755 390.772 541.866 391.5 539.877L387.35 537.325C388.198 534.72 388.636 531.988 388.644 529.173L393.383 528.043C393.313 525.967 393.044 523.864 392.544 521.766C392.043 519.668 391.334 517.671 390.46 515.787L385.72 516.917C384.442 514.409 382.819 512.169 380.886 510.227L383.438 506.077C381.889 504.63 380.179 503.379 378.381 502.273C376.583 501.168 374.694 500.207 372.705 499.478L370.153 503.629C367.548 502.781 364.817 502.343 362.002 502.335L360.871 497.596C358.795 497.665 356.693 497.934 354.594 498.435V498.435ZM358.249 513.755C366.706 511.738 375.206 516.964 377.224 525.421C379.241 533.877 374.015 542.378 365.558 544.395C357.101 546.413 348.601 541.187 346.583 532.73C344.566 524.273 349.792 515.772 358.249 513.755Z" stroke="black" stroke-opacity="0.7" stroke-width="3" stroke-linecap="round" stroke-linejoin="round"/>
<path d="M595.977 485.096L617.772 434.435C638.061 387.278 695.468 369.101 739.201 395.988C783.01 422.922 792.647 482.495 759.564 521.867L724.086 564.09C699.84 592.946 658.119 599.695 626.012 579.956C593.839 560.176 581.051 519.787 595.977 485.096Z" stroke="black" stroke-width="5"/>
<path d="M609.345 459.003L618.032 437.328C637.113 389.716 694.472 370.759 738.168 397.623C781.952 424.541 790.858 484.445 756.8 522.937L741.326 540.425C715.992 569.056 673.745 575.338 641.176 555.315C608.53 535.244 595.089 494.575 609.345 459.003Z" fill="black"/>
<circle cx="334.728" cy="416.037" r="15.5" transform="rotate(-13.417 334.728 416.037)" stroke="black" stroke-width="2"/>
<circle cx="334.728" cy="416.037" r="22.5" transform="rotate(-13.417 334.728 416.037)" stroke="black" stroke-width="2"/>
<path d="M312.171 315.014C312.043 314.477 311.504 314.145 310.967 314.273C310.429 314.402 310.098 314.941 310.226 315.478L312.171 315.014ZM371.02 570.327C371.148 570.865 371.687 571.196 372.224 571.068C372.762 570.94 373.093 570.401 372.965 569.863L371.02 570.327ZM310.226 315.478L311.608 321.27L313.553 320.806L312.171 315.014L310.226 315.478ZM314.371 332.854L317.134 344.438L319.08 343.974L316.316 332.39L314.371 332.854ZM319.898 356.022L322.661 367.606L324.606 367.142L321.843 355.558L319.898 356.022ZM325.424 379.19L328.188 390.774L330.133 390.31L327.37 378.726L325.424 379.19ZM330.951 402.359L333.714 413.943L335.66 413.479L332.897 401.894L330.951 402.359ZM336.478 425.527L339.241 437.111L341.187 436.647L338.423 425.063L336.478 425.527ZM342.004 448.695L344.768 460.279L346.713 459.815L343.95 448.231L342.004 448.695ZM347.531 471.863L350.294 483.447L352.24 482.983L349.477 471.399L347.531 471.863ZM353.058 495.031L355.821 506.615L357.767 506.151L355.003 494.567L353.058 495.031ZM358.585 518.199L361.348 529.783L363.293 529.319L360.53 517.735L358.585 518.199ZM364.111 541.367L366.875 552.951L368.82 552.487L366.057 540.903L364.111 541.367ZM369.638 564.535L371.02 570.327L372.965 569.863L371.583 564.071L369.638 564.535Z" fill="black"/>
<path d="M421.668 282.725C421.54 282.188 421 281.856 420.463 281.984C419.926 282.112 419.594 282.652 419.723 283.189L421.668 282.725ZM462.881 464.113C463.01 464.65 463.549 464.981 464.086 464.853C464.623 464.725 464.955 464.186 464.827 463.649L462.881 464.113ZM419.723 283.189L421.071 288.843L423.017 288.379L421.668 282.725L419.723 283.189ZM423.769 300.151L426.466 311.458L428.412 310.994L425.714 299.687L423.769 300.151ZM429.164 322.766L431.861 334.074L433.806 333.61L431.109 322.302L429.164 322.766ZM434.558 345.382L437.256 356.689L439.201 356.225L436.504 344.917L434.558 345.382ZM439.953 367.997L442.651 379.305L444.596 378.841L441.899 367.533L439.953 367.997ZM445.348 390.612L448.046 401.92L449.991 401.456L447.294 390.148L445.348 390.612ZM450.743 413.228L453.44 424.536L455.386 424.071L452.688 412.764L450.743 413.228ZM456.138 435.843L458.835 447.151L460.781 446.687L458.083 435.379L456.138 435.843ZM461.533 458.459L462.881 464.113L464.827 463.649L463.478 457.995L461.533 458.459Z" fill="black"/>
<path d="M487.972 271.811C487.844 271.274 487.304 270.942 486.767 271.07C486.23 271.198 485.898 271.738 486.026 272.275L487.972 271.811ZM535.218 478.489C535.346 479.026 535.886 479.358 536.423 479.23C536.96 479.101 537.292 478.562 537.163 478.025L535.218 478.489ZM486.026 272.275L487.393 278.003L489.338 277.539L487.972 271.811L486.026 272.275ZM490.126 289.459L492.858 300.916L494.804 300.452L492.071 288.995L490.126 289.459ZM495.591 312.372L498.324 323.828L500.27 323.364L497.537 311.908L495.591 312.372ZM501.057 335.285L503.79 346.741L505.735 346.277L503.003 334.821L501.057 335.285ZM506.523 358.197L509.256 369.654L511.201 369.19L508.468 357.733L506.523 358.197ZM511.989 381.11L514.721 392.566L516.667 392.102L513.934 380.646L511.989 381.11ZM517.454 404.023L520.187 415.479L522.133 415.015L519.4 403.559L517.454 404.023ZM522.92 426.935L525.653 438.392L527.598 437.928L524.866 426.471L522.92 426.935ZM528.386 449.848L531.119 461.304L533.064 460.84L530.331 449.384L528.386 449.848ZM533.852 472.761L535.218 478.489L537.163 478.025L535.797 472.297L533.852 472.761Z" fill="black"/>
<path d="M559.989 276.459C559.861 275.922 559.321 275.591 558.784 275.719C558.247 275.847 557.915 276.386 558.043 276.923L559.989 276.459ZM597.258 441.311C597.386 441.848 597.925 442.18 598.462 442.052C599 441.923 599.331 441.384 599.203 440.847L597.258 441.311ZM558.043 276.923L559.444 282.794L561.389 282.33L559.989 276.459L558.043 276.923ZM562.245 294.536L565.046 306.278L566.991 305.814L564.19 294.072L562.245 294.536ZM567.847 318.02L570.648 329.762L572.593 329.298L569.792 317.556L567.847 318.02ZM573.449 341.504L576.25 353.246L578.195 352.782L575.394 341.04L573.449 341.504ZM579.051 364.988L581.852 376.73L583.797 376.266L580.996 364.524L579.051 364.988ZM584.653 388.472L587.454 400.214L589.399 399.75L586.598 388.008L584.653 388.472ZM590.255 411.956L593.056 423.698L595.001 423.234L592.2 411.492L590.255 411.956ZM595.857 435.44L597.258 441.311L599.203 440.847L597.802 434.976L595.857 435.44Z" fill="black"/>
<path d="M299.994 544.092C299.456 544.22 299.125 544.759 299.253 545.296C299.381 545.834 299.92 546.165 300.458 546.037L299.994 544.092ZM420.101 517.497C420.638 517.369 420.969 516.829 420.841 516.292C420.713 515.755 420.174 515.423 419.637 515.551L420.101 517.497ZM300.458 546.037L306.44 544.61L305.976 542.665L299.994 544.092L300.458 546.037ZM318.404 541.756L330.368 538.902L329.904 536.957L317.94 539.811L318.404 541.756ZM342.333 536.048L354.297 533.194L353.833 531.249L341.869 534.103L342.333 536.048ZM366.261 530.34L378.226 527.486L377.761 525.54L365.797 528.394L366.261 530.34ZM390.19 524.632L402.154 521.778L401.69 519.832L389.726 522.686L390.19 524.632ZM414.118 518.924L420.101 517.497L419.637 515.551L413.654 516.978L414.118 518.924Z" fill="black"/>
<path d="M237.828 438.639C237.291 438.767 236.959 439.306 237.087 439.843C237.216 440.381 237.755 440.712 238.292 440.584L237.828 438.639ZM605.975 352.874C606.513 352.746 606.844 352.207 606.716 351.67C606.588 351.132 606.049 350.801 605.511 350.929L605.975 352.874ZM238.292 440.584L244.037 439.214L243.573 437.268L237.828 438.639L238.292 440.584ZM255.527 436.473L267.017 433.732L266.553 431.786L255.063 434.527L255.527 436.473ZM278.507 430.991L289.998 428.25L289.533 426.304L278.043 429.045L278.507 430.991ZM301.488 425.509L312.978 422.768L312.514 420.823L301.024 423.564L301.488 425.509ZM324.468 420.027L335.958 417.286L335.494 415.341L324.004 418.082L324.468 420.027ZM347.448 414.545L358.938 411.804L358.474 409.859L346.984 412.6L347.448 414.545ZM370.428 409.063L381.918 406.322L381.454 404.377L369.964 407.118L370.428 409.063ZM393.408 403.581L404.899 400.841L404.435 398.895L392.944 401.636L393.408 403.581ZM416.389 398.1L427.879 395.359L427.415 393.413L415.925 396.154L416.389 398.1ZM439.369 392.618L450.859 389.877L450.395 387.931L438.905 390.672L439.369 392.618ZM462.349 387.136L473.839 384.395L473.375 382.45L461.885 385.19L462.349 387.136ZM485.329 381.654L496.819 378.913L496.355 376.968L484.865 379.709L485.329 381.654ZM508.31 376.172L519.8 373.431L519.336 371.486L507.845 374.227L508.31 376.172ZM531.29 370.69L542.78 367.949L542.316 366.004L530.826 368.745L531.29 370.69ZM554.27 365.208L565.76 362.468L565.296 360.522L553.806 363.263L554.27 365.208ZM577.25 359.727L588.74 356.986L588.276 355.04L576.786 357.781L577.25 359.727ZM600.23 354.245L605.975 352.874L605.511 350.929L599.766 352.299L600.23 354.245Z" fill="black"/>
<path d="M303.242 557.71L315.887 554.693" stroke="black" stroke-width="3" stroke-linecap="round"/>
<path d="M439.555 512.855L523.207 492.9" stroke="black" stroke-width="3" stroke-linecap="round"/>
<path d="M442.339 524.528L519.183 506.197" stroke="black" stroke-width="3" stroke-linecap="round"/>
<path d="M443.963 531.338L485.79 521.36" stroke="black" stroke-width="3" stroke-linecap="round"/>
<path d="M304.866 564.519L331.129 558.254" stroke="black" stroke-width="3" stroke-linecap="round"/>
<path d="M454.71 356.163L468.783 333.273" stroke="black" stroke-opacity="0.6" stroke-width="3" stroke-linecap="round"/>
<path d="M447.379 394.818L499.967 309.282" stroke="black" stroke-opacity="0.6" stroke-width="3" stroke-linecap="round"/>
<path d="M460.17 400.745L477.251 372.948M510.751 318.948L493.235 346.962" stroke="black" stroke-opacity="0.6" stroke-width="3" stroke-linecap="round"/>
<path d="M469.751 411.893L482.868 390.558M526.042 320.332L513.235 341.163" stroke="black" stroke-opacity="0.6" stroke-width="3" stroke-linecap="round"/>
<path d="M475.134 429.867L492.83 401.084M543.251 318.449L526.751 345.948" stroke="black" stroke-opacity="0.6" stroke-width="3" stroke-linecap="round"/>
<path d="M492.246 428.766L505.46 407.272M550.251 334.949L537.751 354.449" stroke="black" stroke-opacity="0.6" stroke-width="3" stroke-linecap="round"/>
<path d="M507.875 430.074L521.639 407.411M557.751 347.949L543.251 372.449" stroke="black" stroke-opacity="0.6" stroke-width="3" stroke-linecap="round"/>
<path d="M519.061 438.611L571.751 351.949" stroke="black" stroke-opacity="0.6" stroke-width="3" stroke-linecap="round"/>
<path d="M548.764 417.029L564.751 390.948" stroke="black" stroke-opacity="0.6" stroke-width="3" stroke-linecap="round"/>
<path d="M495.004 311.073C490.641 312.114 486.488 313.588 482.57 315.407L484.921 325.262C479.705 327.919 475.048 331.295 471.011 335.315L462.38 330.008C459.372 333.228 456.77 336.784 454.472 340.522C452.173 344.261 450.174 348.188 448.659 352.325L457.29 357.631C455.526 363.048 454.616 368.728 454.6 374.582L444.744 376.933C444.89 381.249 445.449 385.621 446.49 389.984C447.531 394.347 449.005 398.5 450.824 402.418L460.679 400.067C463.336 405.283 466.712 409.94 470.731 413.977L465.425 422.608C468.644 425.615 472.2 428.217 475.939 430.516C479.678 432.815 483.605 434.813 487.742 436.328L493.048 427.697C498.465 429.461 504.145 430.372 509.998 430.388L512.349 440.243C516.666 440.098 521.038 439.539 525.401 438.498C529.764 437.457 533.917 435.983 537.834 434.164L535.483 424.308C540.699 421.652 545.357 418.275 549.394 414.256L558.025 419.563C561.032 416.343 563.634 412.787 565.933 409.048C568.232 405.31 570.23 401.382 571.745 397.246L563.114 391.939C564.878 386.523 565.789 380.843 565.805 374.989L575.66 372.638C575.515 368.321 574.955 363.95 573.915 359.587C572.874 355.224 571.4 351.071 569.581 347.153L559.725 349.504C557.069 344.288 553.692 339.631 549.673 335.594L554.979 326.963C551.76 323.955 548.204 321.353 544.465 319.055C540.726 316.756 536.799 314.758 532.662 313.243L527.356 321.873C521.939 320.109 516.259 319.199 510.406 319.183L508.055 309.328C503.738 309.473 499.367 310.032 495.004 311.073V311.073ZM502.603 342.929C520.188 338.735 537.864 349.602 542.058 367.186C546.253 384.771 535.386 402.447 517.801 406.642C500.217 410.836 482.541 399.969 478.346 382.385C474.151 364.8 485.018 347.124 502.603 342.929Z" stroke="black" stroke-width="5" stroke-linecap="round" stroke-linejoin="round"/>
<path d="M218.739 375.854L365.131 340.932" stroke="black" stroke-width="3" stroke-linecap="round"/>
<path d="M304.209 490.655L394.671 469.076" stroke="black" stroke-width="3" stroke-linecap="round"/>
<path d="M422.393 462.463L569.758 427.309" stroke="black" stroke-width="3" stroke-linecap="round"/>
<path d="M452.304 320.652L541.793 299.305" stroke="black" stroke-width="3" stroke-linecap="round"/>
<path d="M456.975 599.274C452.975 594.774 448.475 588.274 447.475 581.274C446.787 576.456 441.642 573.107 438.475 573.274" stroke="black" stroke-width="5" stroke-linecap="round"/>
<path d="M438.975 581.274C438.975 577.607 439.275 570.374 430.475 570.774" stroke="black" stroke-width="5" stroke-linecap="round"/>
<path d="M432.475 577.774C431.142 573.941 427.366 566.674 420.566 570.274" stroke="black" stroke-width="5" stroke-linecap="round"/>
<path d="M426.975 582.274C424.809 580.941 421.975 575.474 419.975 568.274C417.975 561.074 407.475 554.941 402.475 552.774C399.809 551.607 394.475 550.974 394.475 557.774C394.475 563.774 409.175 568.974 409.975 577.774C410.775 586.574 410.309 590.441 409.975 591.274C409.142 592.941 406.175 594.974 400.975 589.774C395.775 584.574 388.975 583.274 385.475 584.274C382.475 585.274 378.275 588.674 385.475 594.274C390.825 598.435 408.375 606.174 423.975 625.774" stroke="black" stroke-width="5" stroke-linecap="round"/>
<path d="M594.834 677.085C554.034 638.285 496.834 603.04 472.242 603.04C427.296 603.04 428.395 625.123 434.636 636.351C434.707 636.479 434.787 636.589 434.885 636.697C447.473 650.609 477.927 681.694 500.242 696.04" stroke="black" stroke-width="5" stroke-linecap="round"/>
<path d="M46.5 666.886C56.1 653.286 81.1667 615.638 92 597.386C99.4189 584.886 104.982 570.988 107 561.54C111 542.814 122.5 509.04 157.5 555.54C165.779 566.54 173.834 576.585 140.334 641.586" stroke="black" stroke-width="5" stroke-linecap="round"/>
<path d="M171.096 545.136C178.413 536.131 191.64 522.06 196.987 512.21L205.711 497.295C211.62 487.801 214.15 480.06 216.408 475.863C217.412 473.998 218.037 472.581 219.427 469.809C220.689 467.292 221.799 464.751 220.918 462.667C220.244 461.07 217.43 458.276 211.572 459.871C205.713 461.466 201.718 466.414 200.452 468.688C199.185 470.573 193.683 477.402 192.175 478.901C188.674 482.383 171.422 496.824 160.663 488.363" stroke="black" stroke-width="5" stroke-linecap="round"/>
<path d="M158.569 474.379C167.5 469.657 184.849 461.145 190.893 455.3C197.1 454.099 212.428 456.107 210.881 447.876C210.559 446.162 205.162 441.908 197.139 440.465C191.366 439.426 187.18 439.021 182.384 441.598C179.665 443.059 178.586 443.578 175.076 445.91C172.351 447.11 170.69 448.499 168.465 450.028C166.179 451.599 162.869 454.098 158.237 458.467" stroke="black" stroke-width="5" stroke-linecap="round"/>
<path d="M175.076 445.91C173.619 445.118 167.324 445.169 159.903 448.845C151.797 452.859 150.412 454.38 147.273 456.451C144.134 458.522 137.856 462.664 135.399 464.662C131.05 468.198 127.087 472.183 125.523 474.194C122.768 478.448 124.303 481.666 128.443 489.587" stroke="black" stroke-width="5" stroke-linecap="round"/>
<path d="M130.926 504.293C130.926 509.567 129.728 522.06 126.07 532.473" stroke="black" stroke-width="5" stroke-linecap="round"/>
<path d="M203.498 464.665L132.893 503.242C124.363 506.579 118.429 494.886 127.38 490.938L158.52 474.336M213.319 459.165L226.377 452.105L220.193 442.218L211.354 446.683" stroke="black" stroke-width="5" stroke-linecap="round"/>
<path d="M228.138 451.147L235.5 440.252" stroke="black" stroke-width="5" stroke-linecap="round"/>
<path d="M221.947 441.297L235.5 440.252" stroke="black" stroke-width="5" stroke-linecap="round"/>
<path d="M255.636 232.937C257.081 248 235.686 250.915 234.763 233.677L232.669 98.1757L231.924 61.7168C231.901 60.5965 232.803 59.676 233.923 59.676L251.882 59.6759M255.636 232.937L253.169 98.177L251.882 59.6759M255.636 232.937L283.07 232.937C284.213 232.937 285.123 231.982 285.068 230.84L278.669 98.177L276.971 61.5832C276.921 60.5159 276.042 59.6759 274.973 59.6759L251.882 59.6759" stroke="black" stroke-width="5" stroke-linecap="round"/>
<rect x="279.415" y="114.177" width="228" height="142" rx="7.5" transform="rotate(-30 279.415 114.177)" stroke="black" stroke-width="5"/>
<ellipse cx="309.218" cy="121.797" rx="5.5" ry="6" transform="rotate(-30 309.218 121.797)" fill="black"/>
<path d="M489.653 127.319L520.829 109.319M505.522 129.704L525.829 117.98" stroke="black" stroke-width="5" stroke-linecap="round"/>
<path d="M346.476 179.184C353.031 174.559 371.677 169.275 394.789 184.081C395.485 184.527 396.414 184.009 396.372 183.183C394.936 154.935 396.001 125.02 454.271 126.528C455.307 126.555 455.809 125.109 454.965 124.506C439.263 113.274 419.383 86.8467 443.416 53.9468C443.976 53.1795 443.29 52.0815 442.367 52.3066L433.347 54.5067C432.305 54.7609 431.699 53.4908 432.58 52.8793C440.879 47.121 453.038 40.8876 451.791 48.3669C450.308 57.2657 451.289 61.7844 456.136 67.3829" stroke="black" stroke-width="5" stroke-linecap="round"/>
</svg>
