<svg width="285" height="269" viewBox="0 0 285 269" fill="none" xmlns="http://www.w3.org/2000/svg">
<path d="M91.963 21.0965C116.604 8.4263 144.712 4.16202 172.002 8.9539C199.292 13.7458 224.266 27.3309 243.117 47.6378C261.967 67.9447 273.659 93.8592 276.41 121.43C279.162 149 272.821 176.714 258.355 200.346C243.889 223.977 222.092 242.229 196.287 252.319C170.482 262.41 142.085 263.784 115.427 256.233C88.768 248.682 65.3102 232.619 48.63 210.495C31.9498 188.371 22.9625 161.399 23.0386 133.692L150.038 134.04L91.963 21.0965Z" stroke="black" stroke-width="14"/>
<path d="M0.0380859 120.04C0.0380879 97.0798 6.38698 74.5709 18.3774 55.0205C30.3679 35.4701 47.529 19.6461 67.9488 9.31152L123.538 120.04H0.0380859Z" fill="black"/>
</svg>
