<svg width="345" height="258" viewBox="0 0 345 258" fill="none" xmlns="http://www.w3.org/2000/svg">
<path d="M156.304 119.818V221.04L4.30371 197.066V28.04" stroke="black" stroke-width="7" stroke-miterlimit="10" stroke-linecap="round" stroke-linejoin="round"/>
<path d="M4.30371 28.04L156.304 52.1444V84.04" stroke="black" stroke-width="7" stroke-miterlimit="10" stroke-linecap="round" stroke-linejoin="round"/>
<path d="M256.304 25.04V106.04" stroke="black" stroke-width="7" stroke-miterlimit="10" stroke-linecap="round" stroke-linejoin="round"/>
<path d="M156.304 221.04L195.804 207.54" stroke="black" stroke-width="7" stroke-miterlimit="10" stroke-linecap="round" stroke-linejoin="round"/>
<path d="M156.304 52.04L256.304 25.04" stroke="black" stroke-width="7" stroke-miterlimit="10" stroke-linecap="round" stroke-linejoin="round"/>
<path d="M4.30371 28.04L103.07 4.04004L256.304 24.8885" stroke="black" stroke-width="7" stroke-miterlimit="10" stroke-linecap="round" stroke-linejoin="round"/>
<path d="M193.304 42.04V84.04" stroke="black" stroke-width="7" stroke-miterlimit="10" stroke-linecap="round" stroke-linejoin="round"/>
<path d="M205.304 80.04L193.304 84.04" stroke="black" stroke-width="7" stroke-miterlimit="10" stroke-linecap="round" stroke-linejoin="round"/>
<path d="M230.304 73.04L220.304 76.04" stroke="black" stroke-width="7" stroke-miterlimit="10" stroke-linecap="round" stroke-linejoin="round"/>
<path d="M230.304 33.04V72.04" stroke="black" stroke-width="7" stroke-miterlimit="10" stroke-linecap="round" stroke-linejoin="round"/>
<path d="M94.3037 156.04V182.04" stroke="black" stroke-width="7" stroke-miterlimit="10" stroke-linecap="round" stroke-linejoin="round"/>
<path d="M112.304 158.04V185.04" stroke="black" stroke-width="7" stroke-miterlimit="10" stroke-linecap="round" stroke-linejoin="round"/>
<path d="M278.804 257.04C314.978 257.04 344.304 227.491 344.304 191.04C344.304 154.589 314.978 125.04 278.804 125.04C242.629 125.04 213.304 154.589 213.304 191.04C213.304 227.491 242.629 257.04 278.804 257.04Z" fill="black"/>
<path d="M274.459 172.04H290.56C300.893 172.04 309.304 180.566 309.304 191.04C309.304 201.514 300.893 210.04 290.56 210.04H247.304" stroke="white" stroke-width="7" stroke-miterlimit="10" stroke-linecap="round" stroke-linejoin="round"/>
<path d="M285.304 182.04L274.304 171.664L285.304 161.04" stroke="white" stroke-width="7" stroke-miterlimit="10" stroke-linecap="round" stroke-linejoin="round"/>
</svg>
