<svg width="740" height="428" viewBox="0 0 740 428" fill="none" xmlns="http://www.w3.org/2000/svg">
<path d="M66.0719 139.079C64.5488 134.481 69.7992 130.62 73.734 133.444L102.548 154.128C104.308 155.391 106.681 155.378 108.426 154.095L137.002 133.082C140.904 130.213 146.198 134.013 144.728 138.628L133.96 172.424C133.303 174.488 134.049 176.741 135.809 178.004L164.623 198.688C168.558 201.512 166.58 207.722 161.736 207.749L126.267 207.952C124.101 207.965 122.189 209.371 121.532 211.434L110.764 245.23C109.294 249.845 102.777 249.883 101.254 245.285L90.1003 211.614C89.4191 209.558 87.4914 208.174 85.3253 208.187L49.8563 208.39C45.0127 208.418 42.9634 202.231 46.8656 199.362L75.4413 178.349C77.1864 177.066 77.9067 174.805 77.2256 172.749L66.0719 139.079Z" fill="black"/>
<path d="M209.033 56.5231C208.97 51.6799 215.142 49.5861 218.039 53.4676L239.257 81.8911C240.552 83.627 242.819 84.331 244.87 83.6351L278.459 72.2392C283.046 70.683 286.944 75.9055 284.148 79.8605L263.672 108.823C262.422 110.592 262.453 112.965 263.748 114.7L284.966 143.124C287.863 147.005 284.101 152.327 279.476 150.89L245.603 140.366C243.535 139.723 241.288 140.486 240.037 142.255L219.561 171.217C216.765 175.172 210.542 173.239 210.479 168.395L210.02 132.929C209.992 130.763 208.573 128.861 206.504 128.219L172.632 117.695C168.006 116.258 167.922 109.741 172.509 108.185L206.098 96.7893C208.149 96.0934 209.519 94.1557 209.491 91.9898L209.033 56.5231Z" fill="black"/>
<path d="M369.183 19.4636C370.993 14.9706 377.494 15.4181 378.671 20.1165L387.29 54.523C387.816 56.6242 389.636 58.1475 391.797 58.2963L427.183 60.7315C432.015 61.064 433.598 67.3858 429.494 69.957L399.434 88.7862C397.599 89.9361 396.712 92.1372 397.239 94.2384L405.857 128.645C407.034 133.343 401.511 136.803 397.798 133.694L370.601 110.924C368.94 109.534 366.573 109.371 364.737 110.521L334.678 129.35C330.573 131.921 325.576 127.737 327.386 123.245L340.637 90.3431C341.446 88.3338 340.869 86.032 339.208 84.6414L312.012 61.872C308.298 58.7627 310.733 52.7175 315.565 53.05L350.951 55.4853C353.112 55.634 355.123 54.3743 355.932 52.365L369.183 19.4636Z" fill="black"/>
<path d="M671.696 130.306L660.562 163.983C659.542 167.068 660.625 170.459 663.244 172.382L691.831 193.378C693.783 194.811 692.761 197.905 690.339 197.893L654.87 197.71C651.62 197.694 648.73 199.771 647.71 202.856L636.576 236.533C635.816 238.832 632.557 238.815 631.821 236.508L621.034 202.719C620.046 199.624 617.177 197.517 613.928 197.5L578.459 197.317C576.037 197.305 575.046 194.201 577.012 192.787L605.815 172.087C608.453 170.19 609.57 166.811 608.582 163.716L597.795 129.926C597.059 127.619 599.705 125.717 601.657 127.151L630.245 148.147C632.863 150.07 636.423 150.088 639.061 148.192L667.864 127.491C669.83 126.078 672.456 128.007 671.696 130.306Z" stroke="black" stroke-width="5"/>
<path d="M531.138 50.9632L528.04 86.2972C527.756 89.534 529.588 92.5854 532.579 93.8556L565.226 107.721C567.455 108.668 567.171 111.914 564.811 112.458L530.249 120.43C527.083 121.161 524.747 123.846 524.463 127.083L521.364 162.417C521.153 164.83 517.978 165.562 516.731 163.486L498.469 133.079C496.796 130.293 493.52 128.902 490.354 129.632L455.791 137.604C453.432 138.148 451.754 135.355 453.343 133.528L476.619 106.763C478.751 104.311 479.062 100.765 477.389 97.98L459.127 67.5729C457.88 65.4968 460.018 63.038 462.247 63.9847L494.894 77.8504C497.885 79.1206 501.354 78.3206 503.486 75.8688L526.761 49.1043C528.35 47.2769 531.35 48.5507 531.138 50.9632Z" stroke="black" stroke-width="5"/>
<path d="M523.855 162.635L527.129 125.301C527.221 124.249 526.978 123.195 526.435 122.29L500.052 78.3621C499.508 77.4569 498.692 76.747 497.72 76.3343L463.225 61.6836C458.767 59.7901 454.49 64.7077 456.984 68.86L475.246 99.2671C476.361 101.124 476.154 103.488 474.733 105.122L451.457 131.887C448.279 135.542 451.634 141.129 456.354 140.04L490.916 132.068C493.026 131.581 495.211 132.509 496.326 134.366L514.588 164.773C517.082 168.925 523.432 167.461 523.855 162.635Z" fill="black"/>
<path d="M228.771 410.695C241.588 393.98 252.685 355.871 256.271 339.085C260.179 320.136 275.771 284.345 349.771 335.585C364.771 350.585 359.271 370.085 334.271 410.695" stroke="black" stroke-width="7" stroke-linecap="round"/>
<path d="M285.09 259.487C285.09 268.857 284.271 290.085 277.771 308.585" stroke="black" stroke-width="7" stroke-linecap="round"/>
<path d="M363.533 161.236C360.945 159.828 349.146 161.236 336.576 166.45C323.468 171.886 313.895 175.488 297.646 193.988C293.604 198.59 280.302 218.846 283.646 241.488" stroke="black" stroke-width="7" stroke-linecap="round"/>
<path d="M334.205 211.818C350.073 203.428 380.898 188.304 391.635 177.92C402.663 175.785 429.897 179.353 427.149 164.73C426.576 161.683 416.987 154.126 402.733 151.562C392.476 149.717 385.038 148.996 376.517 153.575C371.686 156.171 369.77 157.093 363.532 161.236C358.691 163.369 355.741 165.836 351.788 168.553" stroke="black" stroke-width="7" stroke-linecap="round"/>
<path d="M356.463 337.533C369.463 321.533 392.963 296.533 402.463 279.033L417.963 252.533C428.463 235.664 432.957 221.911 436.969 214.454C438.752 211.14 439.863 208.623 442.332 203.697C444.574 199.226 446.546 194.711 444.981 191.007C443.783 188.171 438.785 183.207 428.376 186.041C417.967 188.875 410.868 197.665 408.62 201.707C406.368 205.055 396.592 217.188 393.914 219.851C387.692 226.038 357.041 251.695 337.925 236.664" stroke="black" stroke-width="7" stroke-linecap="round"/>
<path d="M240.146 272.987L459.146 164.487" stroke="black" stroke-width="20" stroke-linecap="round"/>
</svg>
