<svg width="595" height="504" viewBox="0 0 595 504" fill="none" xmlns="http://www.w3.org/2000/svg">
<g clip-path="url(#clip0_292_4467)">
<path d="M179.779 309.029V358.927C179.779 360.026 180.38 361.037 181.346 361.562L201.745 372.66C203.731 373.74 206.152 372.319 206.179 370.059L206.758 320.198C206.771 319.076 206.156 318.04 205.165 317.513L184.186 306.379C182.188 305.318 179.779 306.767 179.779 309.029Z" fill="black"/>
<path d="M256.779 130.771V193.874" stroke="black" stroke-width="5" stroke-linecap="round"/>
<path d="M241.767 393.04L147.779 340.455V65.04" stroke="black" stroke-width="5" stroke-linecap="round"/>
<path d="M361.779 68.04V140.04" stroke="black" stroke-width="5" stroke-linecap="round"/>
<path d="M364.285 70.4172L259.011 131.162C258.071 131.704 256.912 131.697 255.979 131.143L144.273 64.7853C142.282 63.6024 142.325 60.7049 144.351 59.5821L250.295 0.864335C251.218 0.353079 252.341 0.363764 253.254 0.892473L364.29 65.2229C366.287 66.3798 366.284 69.2638 364.285 70.4172Z" fill="black"/>
<path d="M164.279 106.766C164.279 104.834 166.377 103.632 168.043 104.609L189.043 116.916C189.809 117.365 190.279 118.186 190.279 119.073V172.639C190.279 174.534 188.253 175.74 186.587 174.837L165.587 163.445C164.781 163.007 164.279 162.164 164.279 161.247V106.766Z" stroke="black" stroke-width="5"/>
<path d="M164.279 189.819C164.279 187.881 166.388 186.68 168.055 187.669L189.055 200.124C189.814 200.575 190.279 201.392 190.279 202.275V256.591C190.279 258.492 188.242 259.697 186.576 258.782L165.576 247.253C164.776 246.814 164.279 245.974 164.279 245.062V189.819Z" stroke="black" stroke-width="5"/>
<path d="M208.279 130.68C208.279 128.757 210.358 127.554 212.025 128.512L234.025 141.153C234.801 141.599 235.279 142.425 235.279 143.32V197.717C235.279 199.604 233.271 200.81 231.605 199.925L209.605 188.224C208.789 187.79 208.279 186.941 208.279 186.017V130.68Z" stroke="black" stroke-width="5"/>
<path d="M207.279 213.68C207.279 211.757 209.358 210.554 211.025 211.512L233.025 224.153C233.801 224.599 234.279 225.425 234.279 226.32V280.717C234.279 282.604 232.271 283.81 230.605 282.925L208.605 271.224C207.789 270.79 207.279 269.941 207.279 269.017V213.68Z" stroke="black" stroke-width="5"/>
<path d="M274.779 429.874V468.34C274.779 469.423 275.364 470.422 276.308 470.954L293.308 480.523C295.308 481.649 297.779 480.204 297.779 477.909V438.295C297.779 437.154 297.133 436.113 296.111 435.606L279.111 427.186C277.117 426.198 274.779 427.649 274.779 429.874Z" fill="black"/>
<path d="M329.067 500.04V282.102" stroke="black" stroke-width="5" stroke-linecap="round"/>
<path d="M242.779 233.04V449.429L329.067 500.04L410.779 449.429V235.658" stroke="black" stroke-width="5" stroke-linecap="round"/>
<path d="M414.321 237.548L332.345 285.152C331.402 285.7 330.236 285.693 329.299 285.133L242.237 233.083C240.255 231.899 240.299 229.013 242.315 227.888L324.811 181.874C325.738 181.357 326.868 181.368 327.784 181.902L414.326 232.362C416.313 233.521 416.31 236.393 414.321 237.548Z" fill="black"/>
<path d="M256.279 266.704C256.279 264.779 258.363 263.576 260.03 264.54L275.03 273.208C275.803 273.654 276.279 274.479 276.279 275.372V315.695C276.279 317.584 274.265 318.79 272.6 317.9L257.6 309.876C256.787 309.441 256.279 308.594 256.279 307.672V266.704Z" stroke="black" stroke-width="5"/>
<path d="M256.279 332.886C256.279 330.941 258.402 329.741 260.069 330.744L274.069 339.171C274.82 339.623 275.279 340.436 275.279 341.313V381.53C275.279 383.438 273.229 384.643 271.562 383.714L257.562 375.914C256.77 375.472 256.279 374.636 256.279 373.73V332.886Z" stroke="black" stroke-width="5"/>
<path d="M291.279 285.77C291.279 283.838 293.378 282.636 295.044 283.614L310.044 292.413C310.809 292.862 311.279 293.682 311.279 294.569V335.635C311.279 337.531 309.252 338.737 307.586 337.832L292.586 329.687C291.781 329.25 291.279 328.407 291.279 327.49V285.77Z" stroke="black" stroke-width="5"/>
<path d="M291.279 350.77C291.279 348.838 293.378 347.636 295.044 348.614L310.044 357.413C310.809 357.862 311.279 358.682 311.279 359.569V400.635C311.279 402.531 309.252 403.737 307.586 402.832L292.586 394.687C291.781 394.25 291.279 393.407 291.279 392.49V350.77Z" stroke="black" stroke-width="5"/>
<path d="M397.279 272.817C397.279 270.879 395.171 269.678 393.504 270.666L379.504 278.966C378.745 279.416 378.279 280.233 378.279 281.116V320.593C378.279 322.493 380.316 323.699 381.982 322.785L395.982 315.102C396.782 314.663 397.279 313.823 397.279 312.91V272.817Z" stroke="black" stroke-width="5"/>
<path d="M397.279 338.085C397.279 336.119 395.114 334.922 393.45 335.968L380.45 344.134C379.721 344.591 379.279 345.391 379.279 346.251V386.349C379.279 388.277 381.369 389.48 383.036 388.51L396.036 380.952C396.806 380.505 397.279 379.681 397.279 378.791V338.085Z" stroke="black" stroke-width="5"/>
<path d="M363.279 290.77C363.279 288.838 361.181 287.636 359.514 288.614L344.514 297.413C343.749 297.862 343.279 298.682 343.279 299.569V340.635C343.279 342.531 345.306 343.737 346.972 342.832L361.972 334.687C362.778 334.25 363.279 333.407 363.279 332.49V290.77Z" stroke="black" stroke-width="5"/>
<path d="M363.279 356.77C363.279 354.838 361.181 353.636 359.514 354.614L344.514 363.413C343.749 363.862 343.279 364.682 343.279 365.569V406.635C343.279 408.531 345.306 409.737 346.972 408.832L361.972 400.687C362.778 400.25 363.279 399.407 363.279 398.49V356.77Z" stroke="black" stroke-width="5"/>
<path d="M397.279 402.085C397.279 400.119 395.114 398.922 393.45 399.968L380.45 408.134C379.721 408.591 379.279 409.391 379.279 410.251V450.349C379.279 452.277 381.369 453.48 383.036 452.51L396.036 444.952C396.806 444.505 397.279 443.681 397.279 442.791V402.085Z" stroke="black" stroke-width="5"/>
<path d="M363.279 419.77C363.279 417.838 361.181 416.636 359.514 417.614L344.514 426.413C343.749 426.862 343.279 427.682 343.279 428.569V469.635C343.279 471.531 345.306 472.737 346.972 471.832L361.972 463.687C362.778 463.25 363.279 462.407 363.279 461.49V419.77Z" stroke="black" stroke-width="5"/>
<path d="M458.339 455.04V221.615" stroke="black" stroke-width="5" stroke-linecap="round"/>
<path d="M552 167.04V397.894L458.56 455.04L425 434.656" stroke="black" stroke-width="5" stroke-linecap="round"/>
<path d="M556.308 169.524L462.302 224.16C461.366 224.704 460.21 224.701 459.276 224.153L366.196 169.517C364.219 168.357 364.221 165.497 366.2 164.34L459.281 109.921C460.212 109.376 461.364 109.374 462.298 109.914L556.303 164.334C558.297 165.488 558.3 168.366 556.308 169.524Z" fill="black"/>
<path d="M536.279 195.56C536.279 193.651 534.227 192.446 532.56 193.377L513.56 203.99C512.769 204.431 512.279 205.266 512.279 206.172V252.826C512.279 254.699 514.263 255.907 515.927 255.047L534.927 245.224C535.758 244.794 536.279 243.938 536.279 243.003V195.56Z" stroke="black" stroke-width="5"/>
<path d="M536.279 270.11C536.279 268.142 534.109 266.945 532.445 267.996L516.445 278.099C515.719 278.557 515.279 279.355 515.279 280.213V327.326C515.279 329.257 517.374 330.459 519.041 329.485L535.041 320.133C535.808 319.685 536.279 318.863 536.279 317.975V270.11Z" stroke="black" stroke-width="5"/>
<path d="M496.279 217.768C496.279 215.836 494.181 214.634 492.515 215.611L474.515 226.165C473.749 226.613 473.279 227.434 473.279 228.321V275.638C473.279 277.533 475.306 278.739 476.972 277.835L494.972 268.066C495.778 267.629 496.279 266.785 496.279 265.869V217.768Z" stroke="black" stroke-width="5"/>
<path d="M496.279 290.827C496.279 288.888 494.169 287.687 492.502 288.677L474.502 299.372C473.744 299.822 473.279 300.639 473.279 301.521V349.584C473.279 351.485 475.318 352.691 476.984 351.775L494.984 341.875C495.783 341.436 496.279 340.597 496.279 339.685V290.827Z" stroke="black" stroke-width="5"/>
<path d="M536.279 342.046C536.279 340.084 534.123 338.887 532.457 339.924L516.457 349.892C515.725 350.348 515.279 351.151 515.279 352.014V398.385C515.279 400.309 517.362 401.512 519.028 400.551L535.028 391.324C535.802 390.877 536.279 390.052 536.279 389.158V342.046Z" stroke="black" stroke-width="5"/>
<path d="M496.279 362.768C496.279 360.836 494.181 359.634 492.515 360.611L474.515 371.165C473.749 371.613 473.279 372.434 473.279 373.321V420.638C473.279 422.533 475.306 423.739 476.972 422.835L494.972 413.066C495.778 412.629 496.279 411.785 496.279 410.869V362.768Z" stroke="black" stroke-width="5"/>
<path d="M368.779 168.04V189.04" stroke="black" stroke-width="5" stroke-linecap="round"/>
<path d="M127.248 304.04C115.671 320.126 96.5501 337.121 90.4105 339.716L87.7793 352.04C118.696 342.959 130.537 322.202 127.248 304.04Z" fill="black"/>
<path d="M74.9102 252.602C79.6407 289.417 73.8012 330.055 69.3599 349.574C69.0722 350.838 70.0295 352.04 71.3259 352.04H86.8591C87.7362 352.04 88.513 351.47 88.7579 350.627C98.6045 316.766 88.4785 276.428 78.6289 251.456C77.7665 249.269 74.6106 250.27 74.9102 252.602Z" fill="black"/>
<path d="M92.4519 308.154C110.125 311.378 133.688 302.24 146.779 283.183" stroke="black" stroke-width="5" stroke-linecap="round"/>
<path d="M10.9571 267.426C-0.366822 286.958 37.7257 330.261 76.5492 311.378" stroke="black" stroke-width="5" stroke-linecap="round"/>
<path d="M29.1227 204.754C6.1039 208.008 -6.51868 239.555 10.9571 267.426C14.1379 272.499 27.9421 278.005 34.4127 278.005" stroke="black" stroke-width="5" stroke-linecap="round"/>
<path d="M146.78 243.427C146.78 219.223 140.316 193.471 101.623 181.965C60.8721 169.847 38.7277 188.155 29.123 204.754C24.5583 212.643 26.3248 220.217 29.123 226.728" stroke="black" stroke-width="5" stroke-linecap="round"/>
<path d="M88.7793 273.04C96.0028 266.136 111.176 253.92 105.557 226.04" stroke="black" stroke-width="5" stroke-linecap="round"/>
<path d="M75.7793 286.04C70.4089 284.429 57.0904 276.373 46.7793 257.04" stroke="black" stroke-width="5" stroke-linecap="round"/>
<path d="M412.876 450.846L366.431 477.617C365.502 478.153 364.845 479.189 365.275 480.172C368.679 487.941 396.418 485.911 413.726 481.04C474.212 464.017 438.048 453.212 414.691 450.466C414.058 450.391 413.428 450.528 412.876 450.846Z" fill="black"/>
<path d="M565.668 422.658C624.357 405.922 580.17 377.343 555.748 372.553C553.993 372.209 552.455 373.604 552.455 375.392V395.703C552.455 396.728 551.931 397.683 551.066 398.233L518.168 419.178C517.303 419.729 516.701 420.722 517.083 421.674C520.295 429.682 548.252 427.625 565.668 422.658Z" fill="black"/>
<path d="M242.779 449.04V392.647L200.718 369.04C193.269 391.117 191.254 438.024 242.779 449.04Z" fill="black"/>
</g>
<defs>
<clipPath id="clip0_292_4467">
<rect width="595" height="503" fill="white" transform="translate(0 0.0400391)"/>
</clipPath>
</defs>
</svg>
