<svg width="164" height="259" viewBox="0 0 164 259" fill="none" xmlns="http://www.w3.org/2000/svg">
<path d="M25.3018 204.049C33.2586 188.498 61.3096 166.215 109.859 201.491" stroke="black" stroke-width="7" stroke-linecap="round"/>
<path d="M113.024 131.549C118.806 133.012 127.562 140.853 117.585 160.55C117.082 161.543 116.712 162.606 116.532 163.705C114.858 173.943 112.262 189.085 109.859 201.491C107.798 212.13 105.878 220.756 104.802 222.549" stroke="black" stroke-width="7" stroke-linecap="round"/>
<path d="M98.4736 121.548C104.55 120.852 114.374 122.225 113.024 131.548C112.758 133.389 112.055 135.541 110.802 138.048" stroke="black" stroke-width="7" stroke-linecap="round"/>
<path d="M83.3848 106.049C89.762 107.52 99.7226 112.429 98.4737 121.549C98.1668 123.791 97.1827 126.287 95.3018 129.049" stroke="black" stroke-width="7" stroke-linecap="round"/>
<path d="M47.3018 121.548C52.8018 106.382 69.4018 75.0484 91.8018 71.0484C114.202 67.0484 101.135 85.7151 91.8018 95.5484C89.6371 97.6299 86.3161 101.425 83.3848 106.048C80.4481 110.68 77.9023 116.144 77.3018 121.548" stroke="black" stroke-width="7" stroke-linecap="round"/>
<path d="M53.8014 104.048C43.8014 102.215 24.1014 104.648 25.3014 129.048C26.8014 159.548 31.8011 178.548 25.3014 204.048C20.1017 224.448 14.1351 246.215 11.8018 254.548" stroke="black" stroke-width="7" stroke-linecap="round"/>
<circle cx="115.802" cy="49.4951" r="27" fill="black"/>
<path d="M96.2646 93.04H115.265C139.841 93.04 159.765 73.1167 159.765 48.54V48.54C159.765 23.9634 139.841 4.04004 115.265 4.04004H48.2646C23.688 4.04004 3.76465 23.9634 3.76465 48.54V48.54C3.76465 73.1167 23.688 93.04 48.2646 93.04H61.6356" stroke="black" stroke-width="7" stroke-linecap="round"/>
</svg>
