<svg width="1035" height="469" viewBox="0 0 1035 469" fill="none" xmlns="http://www.w3.org/2000/svg">
<path d="M414.208 443.67C409.634 396.404 431.032 373.233 443.873 366.542C445.069 365.919 446.404 365.67 447.752 365.67H474.007C475.457 365.67 476.901 365.97 478.181 366.652C503.362 380.09 510.146 419.295 507.708 443.67C506.708 462.67 493.208 466.17 481.208 466.17H440.708C416.208 465.17 414.542 449.837 414.208 443.67Z" fill="#D1D4D8"/>
<path d="M469 405.837C466.895 404.779 463.7 403.789 460.712 403.801C457.11 403.815 453.811 405.283 453.086 409.837C452.13 415.843 459.378 418 463.695 420.17C469.663 423.17 469.609 428.794 466.016 431.504C464.4 432.722 462.565 433.391 460.712 433.643C458.002 434.013 455.252 433.493 453.086 432.503" stroke="#1E2022" stroke-width="7" stroke-linecap="round"/>
<path d="M460.711 433.644V438.171" stroke="#1E2022" stroke-width="7" stroke-linecap="round"/>
<path d="M460.711 403.801V399.17" stroke="#1E2022" stroke-width="7" stroke-linecap="round"/>
<rect x="442.707" y="354.67" width="35" height="8" rx="4" stroke="#D1D4D8" stroke-width="5"/>
<rect x="505" y="286.17" width="60" height="12" rx="6" fill="#D1D4D8"/>
<path d="M445.707 348.67L434.707 328.67" stroke="#D1D4D8" stroke-width="5" stroke-linecap="round"/>
<path d="M475.707 348.67L486.207 328.17" stroke="#D1D4D8" stroke-width="5" stroke-linecap="round"/>
<path d="M434.207 328.17C437.54 328.837 444.907 329.07 447.707 324.67C450.507 320.27 454.207 321.504 455.707 322.67L460.207 326.67" stroke="#D1D4D8" stroke-width="5" stroke-linecap="round"/>
<path d="M486.207 327.768C482.874 328.435 475.507 328.668 472.707 324.268C469.907 319.868 466.207 321.101 464.707 322.268L460.207 326.67" stroke="#D1D4D8" stroke-width="5" stroke-linecap="round"/>
<path d="M508.707 283.17L490.207 247.67" stroke="#D1D4D8" stroke-width="5" stroke-linecap="round"/>
<path d="M562.207 283.17L580.207 247.17" stroke="#D1D4D8" stroke-width="5" stroke-linecap="round"/>
<path d="M490.207 247.533C495.976 248.681 508.726 249.083 513.572 241.505C518.419 233.927 524.822 236.052 527.419 238.061L535.207 244.95" stroke="#D1D4D8" stroke-width="5" stroke-linecap="round"/>
<path d="M580.207 246.533C574.438 247.681 561.688 248.083 556.842 240.505C551.995 232.927 545.592 235.052 542.995 237.061L535.207 244.643" stroke="#D1D4D8" stroke-width="5" stroke-linecap="round"/>
<rect x="379.034" y="459.477" width="49.2945" height="13.8004" rx="6.90019" transform="rotate(-61.5197 379.034 459.477)" stroke="#D1D4D8" stroke-width="3"/>
<rect x="583.707" y="419.67" width="49.2945" height="13.8004" rx="6.90019" stroke="#D1D4D8" stroke-width="3"/>
<rect x="590.707" y="436.67" width="49.2945" height="13.8004" rx="6.90019" stroke="#D1D4D8" stroke-width="3"/>
<rect x="583.707" y="453.67" width="49.2945" height="13.8004" rx="6.90019" stroke="#D1D4D8" stroke-width="3"/>
<rect x="634.707" y="453.67" width="49.2945" height="13.8004" rx="6.90019" stroke="#D1D4D8" stroke-width="3"/>
<rect x="642.707" y="438.67" width="49.2945" height="13.8004" rx="6.90019" stroke="#D1D4D8" stroke-width="3"/>
<rect x="635.707" y="422.67" width="49.2945" height="13.8004" rx="6.90019" stroke="#D1D4D8" stroke-width="3"/>
<rect x="626.707" y="405.67" width="49.2945" height="13.8004" rx="6.90019" stroke="#D1D4D8" stroke-width="3"/>
<rect x="631.707" y="388.67" width="49.2945" height="13.8004" rx="6.90019" stroke="#D1D4D8" stroke-width="3"/>
<path d="M491.5 320.17C497.5 312.337 502.707 305.67 513.207 302.17H558.207C577.54 312.337 609 343.17 607 408.67" stroke="#D1D4D8" stroke-width="5" stroke-linecap="round"/>
<path d="M507 463.17H576.5" stroke="#D1D4D8" stroke-width="5" stroke-linecap="round"/>
<path d="M535.707 407.88V414.67" stroke="#D1D4D8" stroke-width="7" stroke-linecap="round"/>
<path d="M535.707 363.116V356.17" stroke="#D1D4D8" stroke-width="7" stroke-linecap="round"/>
<path d="M548.208 366.17C545.034 364.583 540.214 363.099 535.708 363.116C530.277 363.137 525.301 365.338 524.208 372.17C522.766 381.18 533.696 384.414 540.207 387.67C549.208 392.17 549.126 400.606 543.708 404.67C541.27 406.498 538.503 407.501 535.708 407.88C531.621 408.434 527.474 407.654 524.208 406.17" stroke="#D1D4D8" stroke-width="7" stroke-linecap="round"/>
<path d="M992 329.329C1002.17 328.496 1024.1 330.529 1030.5 345.329C1038.5 363.829 1025 432.67 1001.5 399.329C998.83 395.829 992 378.17 999 366.17" stroke="#D1D4D8" stroke-width="3" stroke-linecap="round"/>
<path d="M928.641 179.063C933.231 169.957 946.421 152.312 962.381 154.58C982.341 157.415 1034 204.87 993.301 207.506C988.921 207.953 970.291 204.562 963.711 192.327" stroke="#D1D4D8" stroke-width="3" stroke-linecap="round"/>
<path d="M419.15 97.1796C398.44 69.3766 401.64 46.0696 405.83 37.8926C391.7 63.4146 365.49 68.6206 354.15 68.0326L359.76 82.6026C345.85 93.2286 329.95 75.3036 323.73 65.0126C314.14 49.1356 319.6 18.8756 359.18 5.29463C398.75 -8.28637 435.53 8.71862 448.97 18.9186C469.64 -3.24538 507.84 -1.08638 524.36 2.76362C541.46 6.78562 583.42 24.9376 589.68 70.2066C598.11 131.283 534.5 153.994 522.41 154.922C480.62 158.129 445.05 131.935 419.15 97.1796Z" fill="#D1D4D8"/>
<path d="M368.759 120.619C372.519 125.082 376.899 128.135 380.839 129.538C384.859 130.964 387.919 130.557 389.749 129.026C391.569 127.495 392.499 124.542 391.779 120.345C391.079 116.216 388.819 111.374 385.069 106.911C381.319 102.448 376.939 99.3951 372.989 97.9921C368.979 96.5661 365.909 96.9731 364.089 98.5041C362.269 100.035 361.339 102.988 362.049 107.185C362.759 111.314 365.009 116.156 368.759 120.619Z" stroke="#D1D4D8" stroke-width="3"/>
<path d="M383.631 120.221C382.721 121.651 379.901 121.484 377.331 119.849C374.751 118.214 373.401 115.73 374.311 114.301C375.221 112.871 378.041 113.038 380.611 114.673C383.191 116.308 384.541 118.792 383.631 120.221Z" fill="#D1D4D8"/>
<path d="M417.549 94.771L387.699 109.757" stroke="#D1D4D8" stroke-width="3" stroke-linecap="round"/>
<path d="M357.089 84.9575C357.649 91.1295 357.079 105.724 353.409 115.959C349.649 126.427 353.669 134.348 361.729 136.87L374.359 140.88C389.419 174.448 409.569 193.768 454.249 181.031" stroke="#D1D4D8" stroke-width="3" stroke-linecap="round"/>
<path d="M423.541 130.157C422.731 130.845 421.511 130.739 420.821 129.921C420.131 129.104 420.241 127.884 421.061 127.196C421.871 126.509 423.091 126.615 423.781 127.432C424.471 128.25 424.361 129.47 423.541 130.157Z" fill="#D1D4D8"/>
<path d="M438.739 141.633C437.759 142.458 436.409 142.464 435.719 141.646C435.039 140.829 435.269 139.497 436.259 138.672C437.239 137.847 438.589 137.842 439.279 138.659C439.959 139.477 439.729 140.809 438.739 141.633Z" fill="#D1D4D8"/>
<path d="M422.831 147.943C421.851 148.768 420.501 148.774 419.811 147.956C419.131 147.139 419.361 145.807 420.351 144.982C421.331 144.158 422.681 144.152 423.371 144.969C424.051 145.787 423.821 147.119 422.831 147.943Z" fill="#D1D4D8"/>
<path d="M407.98 155.225C409.89 157.425 411.96 163.135 404.92 168.371" stroke="#D1D4D8" stroke-width="3" stroke-linecap="round"/>
<path d="M469.999 207.17C459.409 215.679 440.849 248.695 447.359 314.684" stroke="#D1D4D8" stroke-width="3" stroke-linecap="round"/>
<path d="M349.37 335.764C346.65 333.116 341.63 325.362 343.3 315.524C344.98 305.687 351.08 306.038 353.92 307.443L369.42 314.684C381.5 320.554 412.88 327.997 447.36 314.684C450.06 313.643 452.77 312.475 455.5 311.17" stroke="#D1D4D8" stroke-width="3" stroke-linecap="round"/>
<path d="M285.771 354.27C281.061 353.869 272.801 352.441 268.931 349.578C266.221 349.175 261.01 349.576 261.84 354.403C262.09 355.859 263.501 357.031 265.531 357.965C270.241 360.127 278.261 361.013 282.931 361.188" stroke="#D1D4D8" stroke-width="3" stroke-linecap="round"/>
<path d="M282.931 361.187C278.261 361.012 270.241 360.126 265.531 357.964C263.521 359.935 262.281 364.439 273.381 366.688L276.701 367.28L282.461 368.31" stroke="#D1D4D8" stroke-width="3" stroke-linecap="round"/>
<path d="M277.5 368.67C281.483 373.815 296.472 381.307 324.64 370.312C324.874 370.22 325.129 370.17 325.38 370.17H423" stroke="#D1D4D8" stroke-width="3" stroke-linecap="round"/>
<path d="M285.77 354.27C281.06 353.869 272.8 352.441 268.93 349.578C267.66 348.636 266.859 347.538 266.829 346.271C266.679 341.152 271.72 341.186 274.26 341.843C281.53 343.417 296.979 345.726 300.569 342.376C305.069 338.187 299.189 338.664 296.479 331.562C293.769 324.459 301.129 323.032 301.709 326.368C302.169 329.037 306.169 330.987 308.099 331.628C315.689 334.347 322.12 344.633 325.16 349.699C369 329.171 380.999 354.403 423.999 334.671" stroke="#D1D4D8" stroke-width="3" stroke-linecap="round"/>
<path d="M509.771 181.95C509.121 174.933 505.491 162.48 496.171 168.805C484.511 176.712 466.191 205.657 470.831 211.927" stroke="#D1D4D8" stroke-width="3" stroke-linecap="round"/>
<path d="M326 306.67C324.07 306.2 321.85 305.503 320.13 304.67C313.58 303.503 300.5 303.07 300.5 310.67C300.5 320.17 318 312.17 324 321.17C330 330.17 339.5 328.67 345 329.67" stroke="#D1D4D8" stroke-width="3" stroke-linecap="round"/>
<path d="M348 306.671C345.5 302.504 337.2 294.971 324 298.171C314.94 300.368 316.35 302.847 320.13 304.671C321.85 305.504 324.07 306.201 326 306.671" stroke="#D1D4D8" stroke-width="3" stroke-linecap="round"/>
<path d="M319 304.17L363.5 261.17" stroke="#D1D4D8" stroke-width="3" stroke-linecap="round"/>
<path d="M507.5 172.67C517.67 169.17 544.2 175.27 569 227.67C585.33 262.17 607 276.17 619.5 277.67" stroke="#D1D4D8" stroke-width="3" stroke-linecap="round"/>
<path d="M914 185.671C894.8 190.871 866.33 236.671 837 281.671L905 293.671C923.83 260.504 932.47 238.911 938 224.171C945.5 204.171 938 179.171 914 185.671Z" fill="#D1D4D8"/>
<path d="M756.499 260.17C681.629 238.193 636.789 258.736 620.619 274.318C618.539 276.319 617.959 279.31 618.539 282.137C623.529 306.766 618.819 338.64 614.069 358.986C612.699 364.858 617.069 370.67 623.099 370.67H969.499C971.449 370.67 973.389 370.059 974.539 368.491C977.999 363.797 982.499 352.727 982.499 332.67C983.999 316.67 964.999 306.67 948.499 302.17C908.989 291.395 836.899 283.77 756.499 260.17Z" fill="#D1D4D8"/>
<path d="M0.00159244 374.431C0.345738 364.348 38.89 367.589 41.2991 367.949V374.431L53 383.073C35.2191 383.553 -0.273724 382.497 0.00159244 374.431Z" fill="#D1D4D8"/>
<path d="M96 373.17V338.17" stroke="#D1D4D8" stroke-width="3" stroke-linecap="round"/>
<path d="M66 382.17V343.17" stroke="#D1D4D8" stroke-width="3" stroke-linecap="round"/>
<path d="M41 373.17V334.17" stroke="#D1D4D8" stroke-width="3" stroke-linecap="round"/>
<path d="M41 334.17L68 327.17" stroke="#D1D4D8" stroke-width="3" stroke-linecap="round"/>
<path d="M96 337.17L66 343.17" stroke="#D1D4D8" stroke-width="3" stroke-linecap="round"/>
<path d="M66 382.17L96 373.17" stroke="#D1D4D8" stroke-width="3" stroke-linecap="round"/>
<path d="M96 337.17L68 327.17" stroke="#D1D4D8" stroke-width="3" stroke-linecap="round"/>
<path d="M41 335.17L66 343.17" stroke="#D1D4D8" stroke-width="3" stroke-linecap="round"/>
<path d="M27.0016 288.977C27.3457 279.525 65.89 282.563 68.2991 282.901V288.977L80 297.079C62.2191 297.529 26.7263 296.539 27.0016 288.977Z" fill="#D1D4D8"/>
<path d="M123 288.17V252.17" stroke="#D1D4D8" stroke-width="3" stroke-linecap="round"/>
<path d="M93 297.17V258.17" stroke="#D1D4D8" stroke-width="3" stroke-linecap="round"/>
<path d="M68 288.17V249.17" stroke="#D1D4D8" stroke-width="3" stroke-linecap="round"/>
<path d="M93 297.17L123 288.17" stroke="#D1D4D8" stroke-width="3" stroke-linecap="round"/>
<path d="M123 252.17L93 258.17" stroke="#D1D4D8" stroke-width="3" stroke-linecap="round"/>
<path d="M68 249.17L95 242.17" stroke="#D1D4D8" stroke-width="3" stroke-linecap="round"/>
<path d="M123 252.17L95 242.17" stroke="#D1D4D8" stroke-width="3" stroke-linecap="round"/>
<path d="M68 249.17L93 258.17" stroke="#D1D4D8" stroke-width="3" stroke-linecap="round"/>
<path d="M111.446 217.498L97.3612 239.129C96.6628 240.202 97.1377 241.645 98.3365 242.093L121.039 250.586C121.943 250.925 122.96 250.569 123.456 249.74L136.753 227.519C137.399 226.439 136.899 225.038 135.715 224.611L113.801 216.708C112.928 216.393 111.953 216.72 111.446 217.498Z" stroke="#D1D4D8" stroke-width="3"/>
<path d="M72 212.17L78 225.17" stroke="#D1D4D8" stroke-width="3" stroke-linecap="round"/>
<path d="M53 219.17L71 234.17" stroke="#D1D4D8" stroke-width="3" stroke-linecap="round"/>
<path d="M52 239.17L63 245.17" stroke="#D1D4D8" stroke-width="3" stroke-linecap="round"/>
<path d="M269.205 341.477C272.006 341.477 269.893 341.477 239.038 341.477C200.47 341.477 203.907 321.23 197.797 314.736C192.124 308.706 188.088 312.731 173.181 326.325C171.436 327.916 168.633 327.251 167.794 325.044L159.973 304.469C159.517 303.271 159.784 301.923 160.64 300.969C170.354 290.133 181.639 273.715 202.379 280.354C221.472 286.467 215.362 309.77 232.928 309.77C258.589 309.77 273.024 316.646 273.024 304.421C270.733 273.478 308.537 278.826 305.864 302.893" stroke="#D1D4D8" stroke-width="3" stroke-linecap="round"/>
<path d="M178.5 295.67C179.167 299.504 180.1 307.77 178.5 310.17" stroke="#D1D4D8" stroke-width="3" stroke-linecap="round"/>
<path d="M192.5 290.17V303.17" stroke="#D1D4D8" stroke-width="3" stroke-linecap="round"/>
<path d="M204.501 296.17C203.001 297.67 200.601 302.17 203.001 308.17" stroke="#D1D4D8" stroke-width="3" stroke-linecap="round"/>
<path d="M212.5 305.17C211 307.67 208.2 313.27 209 315.67" stroke="#D1D4D8" stroke-width="3" stroke-linecap="round"/>
<path d="M220.5 315.17L215 324.17" stroke="#D1D4D8" stroke-width="3" stroke-linecap="round"/>
<path d="M234 318.67L227.5 328.67" stroke="#D1D4D8" stroke-width="3" stroke-linecap="round"/>
<path d="M244 318.17L240.5 331.67" stroke="#D1D4D8" stroke-width="3" stroke-linecap="round"/>
<path d="M254 320.67V331.67" stroke="#D1D4D8" stroke-width="3" stroke-linecap="round"/>
<path d="M265.5 319.67V331.17" stroke="#D1D4D8" stroke-width="3" stroke-linecap="round"/>
<path d="M276.5 316.67L278 329.17" stroke="#D1D4D8" stroke-width="3" stroke-linecap="round"/>
<path d="M285 297.17L287 314.67" stroke="#D1D4D8" stroke-width="3" stroke-linecap="round"/>
<path d="M295.5 299.17L294 307.67" stroke="#D1D4D8" stroke-width="3" stroke-linecap="round"/>
</svg>
