<svg width="2022" height="944" viewBox="0 0 2022 944" fill="none" xmlns="http://www.w3.org/2000/svg">
<path d="M324.7 898.984C387.681 877.191 350.155 698.477 320.972 633.778C276.995 674.95 198.32 657.19 192.268 640.64C190.449 650.402 184.624 694.127 159.106 732.81C133.588 771.493 100.483 791.611 94.633 808.405C80.381 849.268 111.6 870.38 127.209 875.147C182.045 887.679 228.33 825.886 244.618 793.423C267.964 889.313 307.734 903.751 324.7 898.984Z" fill="#D1D4D8"/>
<path d="M336.889 888.778C336.422 895.908 339.638 919.823 358.196 906.715C362.773 902.116 373.591 894.573 380.19 901.196C386.788 907.819 373.77 920.053 366.443 925.342C358.883 931.322 340.326 941.485 326.579 934.31C312.833 927.136 313.053 908.325 314.895 899.816" stroke="#D1D4D8" stroke-width="3" stroke-linecap="round"/>
<path d="M112 864.856C107.214 867.123 97.6408 873.424 97.6408 880.495C103.111 888.201 111.863 907.148 103.111 921.291C94.3586 935.434 78.4951 903.16 71.6574 885.254C68.2385 875.055 67.8282 852.481 93.5381 843.778" stroke="#D1D4D8" stroke-width="3" stroke-linecap="round"/>
<path d="M316 929.778C313.08 935.342 301.604 943.531 279 931.781" stroke="#D1D4D8" stroke-width="3" stroke-linecap="round"/>
<path d="M301 919.778C294.488 925.946 277.065 936.093 255 927.417" stroke="#D1D4D8" stroke-width="3" stroke-linecap="round"/>
<path d="M270 915.778C261.759 925.138 238.822 940.247 213 925.807" stroke="#D1D4D8" stroke-width="3" stroke-linecap="round"/>
<path d="M234 910.778C231.956 919.233 204.295 937.269 110 941.778" stroke="#D1D4D8" stroke-width="3" stroke-linecap="round"/>
<path d="M240.395 568.778C203 557.988 173.577 523.921 163.54 508.237C152.329 491.375 161.326 453.677 287 437.778" stroke="#D1D4D8" stroke-width="3" stroke-linecap="round"/>
<path d="M241 568.778C243.234 565.668 249.106 560.045 256 559.778" stroke="#D1D4D8" stroke-width="3" stroke-linecap="round"/>
<path d="M256 559.778C255.789 550.956 248.294 528.205 220 507.778" stroke="#D1D4D8" stroke-width="3" stroke-linecap="round"/>
<path d="M254 502.778C256.935 498.225 266.418 482.014 279 479.778" stroke="#D1D4D8" stroke-width="3" stroke-linecap="round"/>
<path d="M281.159 572.778C287.646 572.48 301.194 571.586 303.491 570.392C306.362 568.902 307 568.902 307 565.919C307 562.937 281.159 568.007 281.159 558.464C283.499 556.277 287.285 551.366 283.712 549.219C280.139 547.072 272.652 553.295 269.356 556.675C265.953 560.054 258.318 565.383 255 559.657" stroke="#D1D4D8" stroke-width="3" stroke-linecap="round"/>
<path d="M241 568.778C243.841 577.023 254.067 591.82 272.248 585.058C290.429 578.296 291.186 574.726 289.292 573.787" stroke="#D1D4D8" stroke-width="3" stroke-linecap="round"/>
<path d="M367 559.778C371.294 558.633 380.68 553.307 383.87 541.159C387.06 529.011 382.745 528.952 380.189 530.44" stroke="#D1D4D8" stroke-width="3" stroke-linecap="round"/>
<path d="M350 551.778C351.413 544.675 356.391 530.971 365 532.977" stroke="#D1D4D8" stroke-width="3" stroke-linecap="round"/>
<path d="M353.603 540.14C347.878 535.36 344.372 546.324 343.334 552.404C336.863 554.416 334.414 563.933 334 568.441C348.977 570.001 359.62 565.915 366.36 561.062C370.487 558.091 373.151 554.832 374.451 552.404C377.666 543.704 382.354 525.549 375.384 522.531C368.414 519.512 366.464 526.304 366.36 530.077C367.107 538.631 362.73 548.106 360.449 551.775" stroke="#D1D4D8" stroke-width="3" stroke-linecap="round"/>
<path d="M205.414 576.778C192.628 594.15 175.964 641.46 205.414 651.495C247.236 663.908 333.704 666.344 345 576.778" stroke="#D1D4D8" stroke-width="3" stroke-linecap="round"/>
<path d="M340 445.778C345.374 442.497 385.802 445.66 393.662 395.206C407.119 395.362 414.436 384.426 404.168 379.746C393.223 374.146 394.044 363.865 396.027 357.808C399.18 349.864 399.371 341.523 398.691 339.778" stroke="#D1D4D8" stroke-width="3" stroke-linecap="round"/>
<path d="M382.027 377.117C383.546 377.135 384.799 375.302 384.825 373.024C384.852 370.745 383.642 368.884 382.123 368.866C380.604 368.848 379.351 370.681 379.325 372.96C379.298 375.238 380.508 377.099 382.027 377.117Z" fill="#D1D4D8"/>
<path d="M374 359.778C376.361 357.67 382.468 354.585 388 359.116" stroke="#D1D4D8" stroke-width="3" stroke-linecap="round"/>
<path d="M359 406.778C363.255 412.874 367.926 414.605 377 410.672" stroke="#D1D4D8" stroke-width="3" stroke-linecap="round"/>
<path d="M325.653 362.778C324.817 364.847 324.118 369.543 328 371.778" stroke="#D1D4D8" stroke-width="3" stroke-linecap="round"/>
<path d="M278.993 341.079C273.81 369.687 290.028 391.223 301.785 407.778C314.342 400.934 334.922 384.66 327.029 382.903C318.733 381.057 309.983 358.228 318.039 351.244C327.491 343.051 336.012 355.448 337.636 364.848L345.249 351.566C343.096 342.276 342.252 325.979 356.098 335.115C369.943 344.251 390.252 341.858 398.676 339.519C415.286 327.525 441.092 299.549 411.437 283.595C386.771 270.325 354.675 287.101 335.082 302.176C321.817 298.643 286.061 302.072 278.993 341.079Z" fill="#D1D4D8"/>
<path d="M302 405.778C308.25 413.101 311.354 419.182 310.968 431.778" stroke="#D1D4D8" stroke-width="3" stroke-linecap="round"/>
<path d="M295.389 448.02C293.245 440.572 291.99 426.369 304.111 429.129C319.262 432.58 350.144 447.505 347.882 455.778" stroke="#D1D4D8" stroke-width="3" stroke-linecap="round"/>
<path d="M329 556.778L293 558.778" stroke="#D1D4D8" stroke-width="3" stroke-linecap="round"/>
<path d="M207 562.721L10.2245 570.579C7.46772 570.689 5.14277 568.545 5.02925 565.789L2.20584 497.223C2.09218 494.462 4.23861 492.133 6.99896 492.021L160.905 485.778" stroke="#D1D4D8" stroke-width="3" stroke-linecap="round"/>
<path d="M388.325 552.778L522.159 548.516C524.857 548.43 527 546.218 527 543.518V480.009C527 477.159 524.621 474.886 521.774 475.015L269 486.439" stroke="#D1D4D8" stroke-width="3" stroke-linecap="round"/>
<path d="M24 514.778L30.8569 543.329C31.2207 544.844 33.1002 545.379 34.2079 544.284L40.8471 537.718C41.6058 536.968 42.8201 536.946 43.6061 537.667L51.1376 544.583C52.2344 545.59 54.0077 545.089 54.4143 543.656L60 523.978" stroke="#D1D4D8" stroke-width="3" stroke-linecap="round"/>
<path d="M73 513.778L79.8569 542.329C80.2207 543.844 82.1002 544.379 83.2079 543.284L89.8471 536.718C90.6058 535.968 91.8201 535.946 92.6061 536.667L100.138 543.583C101.234 544.59 103.008 544.089 103.414 542.656L109 522.978" stroke="#D1D4D8" stroke-width="3" stroke-linecap="round"/>
<path d="M123 512.778L129.857 541.329C130.221 542.844 132.1 543.379 133.208 542.284L139.847 535.718C140.606 534.968 141.82 534.946 142.606 535.667L150.138 542.583C151.234 543.59 153.008 543.089 153.414 541.656L159 521.978" stroke="#D1D4D8" stroke-width="3" stroke-linecap="round"/>
<circle cx="172" cy="541.778" r="3" fill="#D1D4D8"/>
<path d="M459 819.778V805.778" stroke="#D1D4D8" stroke-width="3" stroke-linecap="round"/>
<path d="M477 813.778L469 819.778" stroke="#D1D4D8" stroke-width="3" stroke-linecap="round"/>
<path d="M449 821.778L443 810.778" stroke="#D1D4D8" stroke-width="3" stroke-linecap="round"/>
<path d="M679 675.778C621.565 675.778 575 629.214 575 571.778C575 514.341 621.565 467.778 679 467.778C736.435 467.778 783 514.341 783 571.778C783 629.214 736.435 675.778 679 675.778Z" stroke="#D1D4D8" stroke-width="3"/>
<path d="M588 479.854C606.105 461.673 629.172 449.292 654.282 444.276C679.398 439.26 705.427 441.835 729.08 451.674C752.738 461.513 772.955 478.175 787.184 499.554C801.408 520.932 809 546.068 809 571.778" stroke="#D1D4D8" stroke-width="3" stroke-linecap="round"/>
<path d="M679 605.778C659.67 605.778 644 590.333 644 571.278C644 552.224 659.67 536.778 679 536.778C698.33 536.778 714 552.224 714 571.278C714 590.333 698.33 605.778 679 605.778Z" stroke="#D1D4D8" stroke-width="3"/>
<path d="M679 660.778C629.849 660.778 590 620.93 590 571.778C590 522.625 629.849 482.778 679 482.778C728.151 482.778 768 522.625 768 571.778C768 620.93 728.151 660.778 679 660.778Z" stroke="#D1D4D8" stroke-width="3"/>
<path d="M679.5 554.778C670.389 554.778 663 562.167 663 571.278C663 580.389 670.389 587.778 679.5 587.778C688.611 587.778 696 580.389 696 571.278C696 562.167 688.611 554.778 679.5 554.778Z" fill="#D1D4D8"/>
<path d="M822 350.521C814.498 347.806 801.501 352.514 796.681 364.949C789.648 383.099 766.908 390.778 758 390.778" stroke="#D1D4D8" stroke-width="3" stroke-linecap="round"/>
<path d="M747 416.778C787.832 418.483 813.921 422.568 836 428.778" stroke="#D1D4D8" stroke-width="3" stroke-linecap="round"/>
<path d="M765 361.778L680 568.778" stroke="#D1D4D8" stroke-width="3" stroke-linecap="round"/>
<path d="M842 231.778V678.821C842 690.936 855.05 700.778 871.362 700.778H1856.64C1872.95 700.778 1886 690.936 1886 678.821V230.278" stroke="#D1D4D8" stroke-width="3" stroke-miterlimit="10" stroke-linecap="round"/>
<path d="M1212.17 2.03425L1170.03 161.188C1170.01 161.272 1170 161.358 1170 161.444V219.911C1170 220.347 1169.73 220.728 1169.32 220.859C1054.15 257.034 837.321 235.936 787.648 220.842C787.23 220.715 787 220.345 787 219.907V161.619C787 161.421 787.059 161.226 787.17 161.061L894.776 1.21987C894.962 0.943838 895.273 0.77832 895.606 0.77832H1211.2C1211.86 0.77832 1212.34 1.39982 1212.17 2.03425Z" fill="#D1D4D8"/>
<path d="M1853.27 1.34314L1931.4 162.978C1931.47 163.114 1931.5 163.262 1931.5 163.413V214.431C1931.5 214.656 1931.45 214.843 1931.31 215.015C1905.08 246.052 1568.17 242.923 1551.71 228.004C1551.52 227.839 1551.5 227.661 1551.5 227.414V163.184L1532.13 1.89753C1532.06 1.30226 1532.53 0.77832 1533.13 0.77832H1852.37C1852.76 0.77832 1853.11 0.997762 1853.27 1.34314Z" fill="#D1D4D8"/>
<path d="M1534.1 4.16785L1551.5 160.709V225.643C1551.5 226.031 1551.31 226.367 1550.96 226.529C1483.18 257.756 1212.52 265.128 1170.25 220.082C1170.08 219.9 1170 219.675 1170 219.425V160.835C1170 160.751 1170.01 160.668 1170.03 160.586L1210.31 4.02917C1210.42 3.58724 1210.82 3.27832 1211.28 3.27832H1533.11C1533.62 3.27832 1534.04 3.66143 1534.1 4.16785Z" stroke="#D1D4D8" stroke-width="3" stroke-linecap="round"/>
<rect x="1259.5" y="337.278" width="485" height="271" rx="8.5" stroke="#D1D4D8" stroke-width="3"/>
<rect x="1005.5" y="147.278" width="717" height="130" rx="8.5" fill="#1E2022" stroke="#D1D4D8" stroke-width="3" stroke-dasharray="30 30"/>
<path d="M779 717.974C765.381 711.613 732.236 699.301 708.587 700.924C705.232 701.058 700.17 702.467 706.739 707.013C713.308 711.56 716.593 713.914 717.414 714.523C720.834 717.365 724.189 723.373 710.229 724.672C692.78 726.295 643.511 708.637 546 721.627" stroke="#D1D4D8" stroke-width="3" stroke-linecap="round"/>
<path d="M2011.88 528.87C1992.73 534.182 1971.98 565.022 1964 579.778C1975.97 578.303 2003.1 570.482 2015.87 551.004C2028.64 531.526 2018.53 528.132 2011.88 528.87Z" fill="#D1D4D8"/>
<path d="M2003.02 478.914C1983.91 480.843 1970.16 528.022 1964 549.778C1977.69 538.589 2004.66 516.211 2011.23 508.752C2023.56 494.766 2021.5 477.049 2003.02 478.914Z" fill="#D1D4D8"/>
<path d="M1941.29 458.298C1928.51 478.421 1956.21 508.655 1969 528.778C1969 516.108 1969 489.601 1969 478.421C1969 460.534 1950.53 443.768 1941.29 458.298Z" fill="#D1D4D8"/>
<path d="M1966 558.778C1951.62 538.796 1920.91 504.159 1913.07 525.474C1903.27 552.117 1964.04 558.778 1966 558.778Z" fill="#D1D4D8"/>
<path d="M1966 588.778L1964 513.778" stroke="#D1D4D8" stroke-width="3" stroke-linecap="round"/>
<path d="M1946.12 645.368C1950.97 633.577 1958.2 603.319 1959.71 588.778H1980.08C1980.99 606.698 1990.27 632.399 1994.8 645.368C2008.38 676.02 1996.68 695.67 1988 700.778H1955.18C1933.67 693.705 1939.33 661.873 1946.12 645.368Z" stroke="#D1D4D8" stroke-width="3"/>
<path d="M1912 754.778V742.778" stroke="#D1D4D8" stroke-width="3" stroke-linecap="round"/>
<path d="M1925 749.778L1919 754.778" stroke="#D1D4D8" stroke-width="3" stroke-linecap="round"/>
<path d="M1904 755.778L1899 747.778" stroke="#D1D4D8" stroke-width="3" stroke-linecap="round"/>
<path d="M1583 819.778V807.778" stroke="#D1D4D8" stroke-width="3" stroke-linecap="round"/>
<path d="M1596 814.778L1590 819.778" stroke="#D1D4D8" stroke-width="3" stroke-linecap="round"/>
<path d="M1575 820.778L1570 812.778" stroke="#D1D4D8" stroke-width="3" stroke-linecap="round"/>
<path d="M1472 831.602C1443.77 818.35 1375.06 792.7 1326.04 796.083C1319.08 796.362 1308.59 799.296 1322.21 808.768C1335.82 818.24 1342.63 823.145 1344.33 824.414C1351.42 830.334 1358.38 842.85 1329.44 845.556C1293.27 848.939 1191.14 812.151 989 839.213" stroke="#D1D4D8" stroke-width="3" stroke-linecap="round"/>
<path d="M945 435.778C945 380.55 990.772 335.778 1046 335.778V335.778C1101.23 335.778 1147 380.55 1147 435.778V700.778H945V435.778Z" fill="#D1D4D8"/>
</svg>
