<svg width="1331" height="1121" viewBox="0 0 1331 1121" fill="none" xmlns="http://www.w3.org/2000/svg">
<path d="M1316.35 714.469C1288.61 721.969 1258.56 765.508 1247 786.34C1264.34 784.257 1303.63 773.216 1322.12 745.717C1340.62 718.219 1325.98 713.428 1316.35 714.469Z" fill="#D1D4D8"/>
<path d="M1303.05 642.535C1275.59 645.305 1255.85 713.084 1247 744.34C1266.67 728.265 1305.41 696.116 1314.84 685.4C1332.54 665.307 1329.59 639.856 1303.05 642.535Z" fill="#D1D4D8"/>
<path d="M1219.72 620.022C1205.28 644.381 1236.56 680.98 1251 705.34C1251 690.002 1251 657.914 1251 644.381C1251 622.729 1230.14 602.433 1219.72 620.022Z" fill="#D1D4D8"/>
<path d="M1251 757.34C1230.5 728.865 1186.71 679.508 1175.52 709.881C1161.55 747.848 1248.2 757.34 1251 757.34Z" fill="#D1D4D8"/>
<path d="M1251 799.34L1247 692.34" stroke="#D1D4D8" stroke-width="3" stroke-linecap="round"/>
<path d="M1221.73 882.182C1228.65 865.338 1238.95 822.112 1241.11 801.34H1270.16C1271.46 826.94 1284.69 863.656 1291.15 882.182C1310.52 925.971 1293.84 954.042 1281.46 961.34H1234.65C1203.98 951.235 1212.05 905.761 1221.73 882.182Z" stroke="#D1D4D8" stroke-width="3"/>
<path d="M141.52 731.467C114.112 738.863 84.4199 781.797 73 802.34C90.1299 800.286 128.958 789.398 147.23 762.282C165.501 735.165 151.036 730.44 141.52 731.467Z" fill="#D1D4D8"/>
<path d="M129.045 658.539C101.594 661.364 81.8493 730.471 73 762.34C92.6651 745.95 131.405 713.171 140.844 702.245C158.543 681.758 155.593 655.807 129.045 658.539Z" fill="#D1D4D8"/>
<path d="M43.0354 637.022C27.3613 661.381 61.3246 697.98 76.9996 722.34C76.9996 707.002 77.0002 674.914 76.9999 661.381C76.9995 639.729 54.3533 619.433 43.0354 637.022Z" fill="#D1D4D8"/>
<path d="M77 776.34C56.5005 747.865 12.7061 698.508 1.5245 728.881C-12.4524 766.848 74.2046 776.34 77 776.34Z" fill="#D1D4D8"/>
<path d="M77 815.34L73 709.34" stroke="#D1D4D8" stroke-width="3" stroke-linecap="round"/>
<path d="M44.034 900.182C51.1926 883.338 61.8475 840.112 64.0742 819.34H94.135C95.471 844.94 109.164 881.656 115.845 900.182C135.884 943.971 118.629 972.042 105.825 979.34H57.3941C25.6639 969.235 34.0133 923.761 44.034 900.182Z" stroke="#D1D4D8" stroke-width="3"/>
<path d="M158 837.34V984.023C158 984.549 158.407 984.985 158.932 985.021L281.379 993.335C281.428 993.338 281.476 993.338 281.524 993.334L330 989.614" stroke="#D1D4D8" stroke-width="3" stroke-linecap="round"/>
<path d="M158 837.619L280.878 822.478C281.474 822.405 282 822.87 282 823.471V991.34" stroke="#D1D4D8" stroke-width="3" stroke-linecap="round"/>
<path d="M306.639 823.34L461.068 833.755C461.593 833.79 462 834.226 462 834.753V895.34" stroke="#D1D4D8" stroke-width="3" stroke-linecap="round"/>
<path d="M159.395 985.34H114C113.448 985.34 113 985.788 113 986.34V1040C113 1040.49 113.362 1040.92 113.851 1040.99L247.851 1061.17C248.456 1061.26 249 1060.79 249 1060.18V1010.84" stroke="#D1D4D8" stroke-width="3" stroke-linecap="round"/>
<path d="M249 1061.34L358 1050.34" stroke="#D1D4D8" stroke-width="3" stroke-linecap="round"/>
<path d="M314 1059.34V944.34L362 1059.34H314Z" fill="#D1D4D8" fill-opacity="0.3"/>
<path d="M451.047 1002.46L377.483 853.346C376.813 851.988 377.836 850.407 379.349 850.462L412.64 851.678C413.37 851.705 414.028 852.128 414.355 852.781L488.345 1000.53C488.735 1001.31 488.576 1002.25 487.952 1002.86L473.002 1017.42C472.648 1017.77 472.179 1017.97 471.685 1017.99L442.223 1019.15C440.452 1019.22 439.472 1017.12 440.662 1015.81L450.735 1004.69C451.286 1004.08 451.41 1003.2 451.047 1002.46Z" fill="#D1D4D8"/>
<path d="M410.924 1047.02L404.098 1054.81C402.935 1056.13 403.933 1058.2 405.694 1058.12L432.706 1056.88C433.203 1056.85 433.674 1056.64 434.026 1056.29L440.577 1049.76C441.839 1048.5 440.947 1046.34 439.165 1046.34H412.428C411.852 1046.34 411.304 1046.59 410.924 1047.02Z" fill="#D1D4D8"/>
<path d="M202 848.101V833.843C202 832.837 202.747 831.988 203.744 831.859L228.744 828.631C229.94 828.477 231 829.408 231 830.615V845.276C231 846.294 230.236 847.15 229.225 847.264L204.225 850.089C203.039 850.222 202 849.295 202 848.101Z" fill="#D1D4D8"/>
<path d="M161 1034.58V1045.64C161 1046.63 161.727 1047.47 162.709 1047.61L185.709 1051C186.916 1051.18 188 1050.24 188 1049.02V1037.22C188 1036.2 187.238 1035.35 186.228 1035.23L163.228 1032.6C162.041 1032.46 161 1033.39 161 1034.58Z" fill="#D1D4D8"/>
<path d="M204 970.34V985.117C204 986.155 204.795 987.021 205.83 987.109L229.83 989.155C230.998 989.254 232 988.334 232 987.162V970.34C232 969.235 231.105 968.34 230 968.34H206C204.895 968.34 204 969.235 204 970.34Z" fill="#D1D4D8"/>
<path d="M161 1005.53V987.472C161 986.317 161.975 985.402 163.127 985.476L186.127 986.944C187.18 987.012 188 987.885 188 988.94V1008.1C188 1009.3 186.963 1010.22 185.778 1010.09L162.778 1007.52C161.766 1007.41 161 1006.55 161 1005.53Z" fill="#D1D4D8"/>
<path d="M362.437 1058.03L296.252 905.643C296.098 905.289 296.162 904.878 296.416 904.587L343.647 850.488C344.12 849.946 344.994 850.067 345.303 850.717L418.69 1005.27C418.875 1005.66 418.789 1006.12 418.477 1006.42L364.044 1058.35C363.541 1058.83 362.714 1058.66 362.437 1058.03Z" stroke="#D1D4D8" stroke-width="3" stroke-linecap="round"/>
<path d="M365 1059.34L462.875 1054.72C463.116 1054.71 463.345 1054.61 463.52 1054.44L517.067 1003.19C517.735 1002.55 517.251 1001.42 516.327 1001.47L436.138 1005.34" stroke="#D1D4D8" stroke-width="3" stroke-linecap="round"/>
<path d="M345 849.34L440.376 853.014C440.736 853.027 441.06 853.233 441.225 853.552L518 1001.34" stroke="#D1D4D8" stroke-width="3" stroke-linecap="round"/>
<path d="M554 695.595C555.975 698.607 563.508 703.271 577.84 697.836C592.172 692.4 597.918 683.907 599 680.34" stroke="#D1D4D8" stroke-width="3" stroke-linecap="round"/>
<path d="M541.614 688.34C540.257 691.011 540.267 696.13 551.158 695.237L554.386 694.887L560 694.28" stroke="#D1D4D8" stroke-width="3" stroke-linecap="round"/>
<path d="M540.672 679.34C537.67 679.781 532.244 682.098 534.56 687.84C535.258 689.572 537.107 690.546 539.544 691.005C545.186 692.069 553.985 690.38 559 688.973" stroke="#D1D4D8" stroke-width="3" stroke-linecap="round"/>
<path d="M597 664.989C592.742 661.084 583.853 653.222 575.868 652.662C573.843 652.569 569.503 651.795 568.346 649.445C566.9 646.507 560.246 649.724 564.73 655.6C569.214 661.475 574.711 659.517 571.528 664.553C568.983 668.581 553.592 670.428 546.215 670.848C543.611 670.894 538.78 672.163 540.284 676.863C540.657 678.027 541.711 678.837 543.179 679.381C547.641 681.033 555.928 680.223 560.535 679.381" stroke="#D1D4D8" stroke-width="3" stroke-linecap="round"/>
<path d="M577.054 536.31C571.626 503.403 578.776 479.041 593.992 467.702C592.194 512.349 622.269 533.935 634.143 541.399L623.966 550.898L602.159 563.11C601.367 558.474 602.428 546.069 601.48 540.381C600.801 536.31 593.338 539.024 577.054 536.31Z" fill="#D1D4D8"/>
<path d="M654.633 949.939C650.957 934.758 638.125 908.314 636.341 892.34L684.526 895.565C690.921 913.69 699.873 956.482 684.526 982.656C669.178 1008.83 630.096 1008 626.081 1001.55C623.85 996.479 619.922 984.867 636.341 982.656C656.864 979.891 658.65 966.528 654.633 949.939Z" fill="#D1D4D8"/>
<path d="M801.288 1000.64C759.104 995.133 733.184 927.117 726 892.721L762.59 884.34C767.726 921.396 785.087 950.188 791.2 958.443C807.249 978.164 843.472 1006.14 801.288 1000.64Z" fill="#D1D4D8"/>
<path d="M598.575 688.34C591.597 714.144 582.475 781.976 595.872 878.393C614.269 889.672 675.649 905.464 774 878.393C768.164 834.047 755.997 756.388 738.641 715.225" stroke="#D1D4D8" stroke-width="3" stroke-linecap="round"/>
<path d="M619 602.164C624.657 588.564 636.82 564.495 649.643 580.815C662.466 597.135 663.314 632.052 670.857 616.396L685 578.917" stroke="#D1D4D8" stroke-width="3" stroke-linecap="round"/>
<path d="M346 547.34V696.15C346 696.677 346.408 697.113 346.933 697.148L469.224 705.332C469.298 705.337 469.373 705.334 469.446 705.322L540 694.223" stroke="#D1D4D8" stroke-width="3" stroke-linecap="round"/>
<path d="M346 545.584L468.91 534.439C469.495 534.386 470 534.847 470 535.435V703.34" stroke="#D1D4D8" stroke-width="3" stroke-linecap="round"/>
<path d="M487.139 534.34L600.02 539.079C600.552 539.102 600.973 539.537 600.978 540.07L602 661.34" stroke="#D1D4D8" stroke-width="3" stroke-linecap="round"/>
<path d="M390 556.215V543.706C390 542.669 390.793 541.804 391.826 541.714L416.826 539.53C417.995 539.428 419 540.349 419 541.522V554.705C419 555.763 418.176 556.638 417.121 556.702L392.121 558.212C390.971 558.281 390 557.367 390 556.215Z" fill="#D1D4D8"/>
<path d="M393 682.34V697.111C393 698.152 393.799 699.019 394.836 699.105L419.836 701.162C421.001 701.258 422 700.338 422 699.169V682.34C422 681.235 421.105 680.34 420 680.34H395C393.895 680.34 393 681.235 393 682.34Z" fill="#D1D4D8"/>
<path d="M781.267 543.443C760.291 563.373 739.016 566.26 730.825 567.183C714.11 569.065 686.384 551.917 686.384 533.258C701.53 522.317 712.535 501.752 716.049 493.396C719.997 496.734 725.132 495.464 727.206 494.411C729.872 492.676 734.987 486.144 734.115 473.9C733.243 461.656 724.354 464.943 720.018 468.117L698.355 470.451C699.266 450.209 686.788 443.454 680.435 442.607C685.428 431.393 676.497 426.487 671.798 424.559C665.057 432.821 656.223 436.149 652.488 437.697C614.469 447.643 591.263 434.026 580.551 417.031C568.924 399.875 570.806 359.589 603.7 349.782C614.456 345.643 639.955 342.249 655.905 361.786C702.859 344.531 725.082 393.915 731.179 411.848L738.224 428.199C799.414 441.215 804.8 499.09 794.052 524.435C789.178 535.928 788.537 536.536 781.589 543.136L781.267 543.443Z" fill="#D1D4D8"/>
<path d="M642.653 556.603C632.137 557.281 603.514 569.556 600.802 609.587" stroke="#D1D4D8" stroke-width="3" stroke-linecap="round"/>
<path d="M669.113 556.602C716.268 548.8 729.591 586.689 734.802 604.159C744.328 634.302 734.802 699.148 602.653 679.695C595.034 678.574 591.303 668.334 606.228 658.522C621.838 648.261 638.458 641.815 658.476 637.744" stroke="#D1D4D8" stroke-width="3" stroke-linecap="round"/>
<path d="M599.796 687.733C612.597 700.149 656.091 718.586 727.655 693.008C729.172 689.763 729.961 668.942 727.655 662.232" stroke="#D1D4D8" stroke-width="3" stroke-linecap="round"/>
<path d="M698.516 470.814C696.054 484.83 683.955 494.127 671.761 491.984C659.567 489.842 651.361 476.979 653.823 462.963C656.285 448.948 668.384 439.651 680.578 441.793C692.772 443.935 700.978 456.799 698.516 470.814Z" stroke="#D1D4D8" stroke-width="3"/>
<path d="M639.339 468.92C636.876 482.936 624.778 492.232 612.583 490.09C600.389 487.948 592.183 475.085 594.645 461.069C597.107 447.053 609.206 437.757 621.4 439.899C633.595 442.041 641.801 454.904 639.339 468.92Z" stroke="#D1D4D8" stroke-width="3"/>
<path d="M639.562 463.654L654.244 464.562" stroke="#D1D4D8" stroke-width="3" stroke-linecap="round"/>
<path d="M647.776 477.96C643.473 489.011 634.674 498.234 644.402 505.232" stroke="#D1D4D8" stroke-width="3" stroke-linecap="round"/>
<path d="M634.202 519.822C637.148 523.078 645.366 527.637 654.669 519.822" stroke="#D1D4D8" stroke-width="3" stroke-linecap="round"/>
<circle cx="612.962" cy="474.854" r="6.1064" transform="rotate(9.96339 612.962 474.854)" fill="#D1D4D8"/>
<circle cx="669.956" cy="473.497" r="6.1064" transform="rotate(9.96339 669.956 473.497)" fill="#D1D4D8"/>
<path d="M725.488 476.496C726.235 478.517 726.959 483.178 723.879 485.659" stroke="#D1D4D8" stroke-width="3" stroke-linecap="round"/>
<path d="M600.78 436.307C592.017 453.03 584.136 493.888 619.129 529.128C654.122 564.369 691.635 531.318 706.017 510.387L716.189 492.81C720.414 496.543 729.679 499.902 732.943 483.473C736.206 467.044 729.766 464.811 726.138 465.748C724.171 466.189 719.862 468.14 718.356 472.41" stroke="#D1D4D8" stroke-width="3" stroke-linecap="round"/>
<path d="M698.322 469.836L722.357 467.446" stroke="#D1D4D8" stroke-width="3" stroke-linecap="round"/>
<path d="M676.706 458.291C680.5 458.832 688.057 461.871 687.926 469.702" stroke="#D1D4D8" stroke-width="3" stroke-linecap="round"/>
<path d="M604.41 461.352C607.305 460.079 614.385 458.562 619.54 462.674" stroke="#D1D4D8" stroke-width="3" stroke-linecap="round"/>
<path d="M675 556.34V540.34" stroke="#D1D4D8" stroke-width="3" stroke-linecap="round"/>
<path d="M640 543.34V557.34" stroke="#D1D4D8" stroke-width="3" stroke-linecap="round"/>
<path d="M612 841.34C628.887 851.232 670.644 864.659 736 849.55" stroke="#D1D4D8" stroke-width="3" stroke-linecap="round"/>
<path d="M624.717 714.34L639.895 875.34M610 798.989C630.543 803.83 681.103 810.608 719 798.989" stroke="#D1D4D8" stroke-width="3" stroke-linecap="round"/>
<path d="M610 756.34C625.956 759.358 666.894 763.584 703 756.34" stroke="#D1D4D8" stroke-width="3" stroke-linecap="round"/>
<path d="M725 819.34L736 875.34" stroke="#D1D4D8" stroke-width="3" stroke-linecap="round"/>
<path d="M671 743.34L693 875.34" stroke="#D1D4D8" stroke-width="3" stroke-linecap="round"/>
<path d="M527 699.34V894.119C527 900.869 532.485 906.34 539.248 906.34H1086.75C1093.52 906.34 1099 900.869 1099 894.119V76.5605C1099 69.811 1093.52 64.3398 1086.75 64.3398H539.248C532.485 64.3398 527 69.811 527 76.5605V531.84" stroke="#D1D4D8" stroke-width="3" stroke-linecap="round"/>
<path d="M803.952 269.505L1083.53 62.7539C1091.59 56.7943 1103 62.5499 1103 72.577V895.496C1103 899.414 1101.12 903.091 1097.95 905.389L818.372 1108C810.299 1113.85 799 1108.08 799 1098.1V279.328C799 275.453 800.839 271.808 803.952 269.505Z" fill="#D1D4D8"/>
<path d="M541.522 30.7346L536.452 2.33935" stroke="#D1D4D8" stroke-width="3" stroke-linecap="round"/>
<path d="M516.479 39.5217L483.23 8.5731" stroke="#D1D4D8" stroke-width="3" stroke-linecap="round"/>
<path d="M503.269 63.671L483.172 52.5654" stroke="#D1D4D8" stroke-width="3" stroke-linecap="round"/>
<path d="M224 172.34C225.693 176.937 232.177 186.373 244.568 187.332C260.058 188.531 262.089 192.369 261.497 208.92C260.904 225.471 262.682 233.267 278.933 228.949C295.185 224.632 318.462 202.324 314.568 225.471C314.032 228.869 312.029 237.801 308.305 246.34" stroke="#D1D4D8" stroke-width="3" stroke-linecap="round"/>
<path d="M490 1119.34V1105.34" stroke="#D1D4D8" stroke-width="3" stroke-linecap="round"/>
<path d="M477 1112.34L488 1119.34" stroke="#D1D4D8" stroke-width="3" stroke-linecap="round"/>
<path d="M497 1119.34L503 1110.34" stroke="#D1D4D8" stroke-width="3" stroke-linecap="round"/>
<path d="M1049 1118.34V1103.34" stroke="#D1D4D8" stroke-width="3" stroke-linecap="round"/>
<path d="M1037 1112.34L1044 1118.34" stroke="#D1D4D8" stroke-width="3" stroke-linecap="round"/>
<path d="M1056 1118.34L1060 1109.34" stroke="#D1D4D8" stroke-width="3" stroke-linecap="round"/>
</svg>
