<svg width="720" height="507" viewBox="0 0 720 507" fill="none" xmlns="http://www.w3.org/2000/svg">
<path d="M224.656 151.554C228.808 104.729 208.542 80.0995 197.89 73.6385C232.348 93.0585 266.305 80.4365 278.977 71.6985L282.86 92.5055C306.468 94.8875 312.092 62.8845 311.953 46.5855C311.738 21.4383 283.919 -9.61244 228.579 2.83896C173.239 15.2905 142.868 61.0679 134.599 82.4005C94.9773 71.5065 52.4141 101.152 36.0853 117.337C19.2009 134.137 -16.3464 184.926 8.6148 241.634C42.2915 318.143 131.872 299.144 146.493 291.618C197.015 265.616 219.467 210.085 224.656 151.554Z" fill="#D1D4D8"/>
<path d="M300.374 142.925C299.196 150.873 296.255 157.667 292.58 162.236C288.863 166.858 284.749 168.833 281.116 168.295C277.484 167.757 274.119 164.674 271.902 159.172C269.71 153.734 268.864 146.379 270.042 138.431C271.219 130.483 274.161 123.689 277.836 119.12C281.553 114.497 285.667 112.522 289.3 113.06C292.932 113.599 296.297 116.681 298.514 122.183C300.706 127.621 301.552 134.977 300.374 142.925Z" stroke="#D1D4D8" stroke-width="3"/>
<path d="M285.451 149.762C288.008 150.14 290.634 146.716 291.316 142.113C291.998 137.51 290.478 133.471 287.921 133.092C285.364 132.713 282.738 136.138 282.056 140.741C281.374 145.344 282.894 149.383 285.451 149.762Z" fill="#D1D4D8"/>
<path d="M224.795 147.633L268.074 143.708" stroke="#D1D4D8" stroke-width="3" stroke-linecap="round"/>
<path d="M287.624 93.3235C291.362 100.848 302.391 117.294 313.907 126.498C325.685 135.912 326.68 147.912 319.16 156.558L307.438 170.16C313.907 219.625 304.376 256.254 243.75 273.305" stroke="#D1D4D8" stroke-width="3" stroke-linecap="round"/>
<path d="M243.03 192.751C244.462 192.963 245.796 191.974 246.008 190.541C246.22 189.109 245.231 187.775 243.798 187.563C242.366 187.351 241.032 188.34 240.82 189.773C240.608 191.205 241.597 192.539 243.03 192.751Z" fill="#D1D4D8"/>
<path d="M233.634 216.806C235.353 217.061 236.919 216.106 237.131 214.673C237.343 213.24 236.121 211.872 234.402 211.617C232.683 211.362 231.117 212.318 230.905 213.751C230.693 215.183 231.915 216.551 233.634 216.806Z" fill="#D1D4D8"/>
<path d="M256.499 212.773C258.218 213.028 259.783 212.073 259.996 210.64C260.208 209.208 258.986 207.84 257.267 207.585C255.548 207.33 253.982 208.285 253.77 209.718C253.558 211.15 254.779 212.518 256.499 212.773Z" fill="#D1D4D8"/>
<path d="M313.703 311.258L335.643 287.892C339.613 283.472 349.936 278.672 359.464 294.839C368.993 311.005 365.524 328.098 362.599 334.624" stroke="#D1D4D8" stroke-width="3" stroke-linecap="round"/>
<path d="M397.797 220.029C389.714 229.183 407.274 241.645 412.24 248.915C419.313 246.881 438.217 250.545 434.428 262.623C441.375 254.783 465.999 235.288 470.42 229.567C479.752 217.49 467.094 207.955 458.419 198.419C452.636 192.062 444.528 179.35 429.372 192.062C418.005 201.597 405.88 210.875 397.797 220.029Z" stroke="#D1D4D8" stroke-width="3"/>
<path d="M429.566 272.807C431.761 269.75 432.928 267.062 433.341 265.199C435.448 261.395 436.707 252.617 424.492 249.35C405.53 244.278 408.691 256.324 412.483 256.957C425.124 258.479 430.403 269.426 429.566 272.807Z" stroke="#D1D4D8" stroke-width="3" stroke-linecap="round"/>
<path d="M365.713 321.623C367.609 315.283 377.216 300.575 400.476 292.46C416.142 286.994 425.041 279.113 429.568 272.806" stroke="#D1D4D8" stroke-width="3" stroke-linecap="round"/>
<path d="M399.212 274.074C393.523 270.904 379.239 267.227 367.609 277.878" stroke="#D1D4D8" stroke-width="3" stroke-linecap="round"/>
<path d="M417.542 274.075C412.064 264.354 397.948 247.701 385.307 258.859" stroke="#D1D4D8" stroke-width="3" stroke-linecap="round"/>
<path d="M353.703 277.879C358.759 262.814 369.504 243.16 404.899 240.624" stroke="#D1D4D8" stroke-width="3" stroke-linecap="round"/>
<path d="M146.702 301.624C73.2386 355.211 82.029 422.037 82.029 504.624" stroke="#D1D4D8" stroke-width="3" stroke-linecap="round"/>
<path d="M148.703 302.532L183.97 333.393C185.115 334.396 186.916 333.802 187.241 332.315L196.435 290.268C196.776 288.709 198.716 288.157 199.826 289.305L223.703 313.986" stroke="#D1D4D8" stroke-width="3" stroke-linecap="round"/>
<path d="M223.703 277.624C225.659 281.289 228.463 287.246 231.091 294.169C234.697 303.672 237.971 314.996 238.264 324.715" stroke="#D1D4D8" stroke-width="3" stroke-linecap="round"/>
<path d="M231.09 294.168L311.702 340.623" stroke="#D1D4D8" stroke-width="3" stroke-linecap="round"/>
<path d="M218.703 347.624C221.464 347.624 223.703 344.938 223.703 341.624C223.703 338.31 221.464 335.624 218.703 335.624C215.942 335.624 213.703 338.31 213.703 341.624C213.703 344.938 215.942 347.624 218.703 347.624Z" fill="#D1D4D8"/>
<path d="M225.703 376.624C228.464 376.624 230.703 373.938 230.703 370.624C230.703 367.31 228.464 364.624 225.703 364.624C222.942 364.624 220.703 367.31 220.703 370.624C220.703 373.938 222.942 376.624 225.703 376.624Z" fill="#D1D4D8"/>
<path d="M278.821 210.624C278.177 214.524 279.851 222.584 291.703 223.624" stroke="#D1D4D8" stroke-width="3" stroke-linecap="round"/>
<path d="M574.969 99.4998H607.969" stroke="#D1D4D8" stroke-width="3" stroke-linecap="round"/>
<path d="M618.969 99.4998H623.969" stroke="#D1D4D8" stroke-width="3" stroke-linecap="round"/>
<path d="M717.969 33.5H552.969V58.5H717.969V33.5Z" fill="#D1D4D8"/>
<path d="M429.574 226.591L427.789 228.376" stroke="#D1D4D8" stroke-width="3" stroke-linecap="round"/>
<path d="M443.785 213L442 214.785" stroke="#D1D4D8" stroke-width="3" stroke-linecap="round"/>
<path d="M443.821 218.914C443.404 217.662 442.527 216.006 441.338 214.826C439.905 213.404 438.019 212.675 435.936 214.183C433.189 216.172 435.212 219.895 436.067 222.462C437.25 226.01 435.012 228.206 432.519 227.85C431.398 227.69 430.407 227.226 429.573 226.591C428.353 225.662 427.468 224.367 427 223.119" stroke="#D1D4D8" stroke-width="3" stroke-linecap="round"/>
<path d="M494.318 135.72C505.778 136.834 527.557 146.416 522.997 175.826" stroke="#D1D4D8" stroke-width="3" stroke-linecap="round"/>
<path d="M490.828 146.404C499.601 147.377 516.232 154.542 512.568 175.416" stroke="#D1D4D8" stroke-width="3" stroke-linecap="round"/>
<path d="M489 157.315C494.453 157.834 504.667 161.958 501.899 174.296" stroke="#D1D4D8" stroke-width="3" stroke-linecap="round"/>
<path d="M710.969 19H559.969C555.827 19 552.469 22.3579 552.469 26.5V119.5C552.469 123.642 555.827 127 559.969 127H710.969C715.111 127 718.469 123.642 718.469 119.5V26.5C718.469 22.3579 715.111 19 710.969 19Z" stroke="#D1D4D8" stroke-width="3"/>
</svg>
