<svg width="896" height="847" viewBox="0 0 896 847" fill="none" xmlns="http://www.w3.org/2000/svg">
<path d="M403.625 103.213C405.89 128.758 417.481 173.812 445.625 175.558C475.272 177.397 487.625 117.927 487.625 102.6" stroke="#D1D4D8" stroke-width="3" stroke-linecap="round"/>
<path d="M409.125 102.1L400.625 100.6" stroke="#D1D4D8" stroke-width="3" stroke-linecap="round"/>
<path d="M491.053 100.6C499.899 102.873 506.855 112.752 485.625 131.6" stroke="#D1D4D8" stroke-width="3" stroke-linecap="round"/>
<path d="M399.587 100.6C391.754 101.633 383.509 113.62 407.625 131.6" stroke="#D1D4D8" stroke-width="3" stroke-linecap="round"/>
<circle cx="424.625" cy="105.6" r="5" fill="#D1D4D8"/>
<circle cx="465.625" cy="105.6" r="5" fill="#D1D4D8"/>
<circle cx="425.125" cy="105.1" r="17" stroke="#D1D4D8" stroke-width="3"/>
<circle cx="465.125" cy="105.1" r="17" stroke="#D1D4D8" stroke-width="3"/>
<path d="M441.625 103.6H448.625" stroke="#D1D4D8" stroke-width="3" stroke-linecap="round"/>
<path d="M438.126 114.6C436.476 123.599 436.292 138.541 452.626 130.313" stroke="#D1D4D8" stroke-width="3" stroke-linecap="round"/>
<path d="M434.625 145.6C437.958 147.863 446.625 151.033 454.625 145.6" stroke="#D1D4D8" stroke-width="3" stroke-linecap="round"/>
<path d="M480.625 100.6H490.625" stroke="#D1D4D8" stroke-width="3" stroke-linecap="round"/>
<path d="M398.601 50.7149C367.119 65.5391 381.795 91.4815 393.067 102.6C395.035 101.117 401.266 100.747 404.135 100.747C398.724 61.2154 419.097 50.7146 428.116 48.2439C453.326 43.9201 482.226 50.7149 487.145 70.4805C493.021 94.0924 493.206 101.982 497.774 102.6C515.131 88.7637 512.572 62.2448 509.122 50.7149C513.623 37.836 503.571 26.2138 497.774 19.2134C491.976 12.2131 476.077 -0.5525 447.792 0.683187C391.837 6.24226 395.527 40.8321 398.601 50.7149Z" fill="#D1D4D8"/>
<path d="M414.625 80.5996C417.125 79.845 424.625 78.7885 434.625 80.5996" stroke="#D1D4D8" stroke-width="3" stroke-linecap="round"/>
<path d="M456.625 81.5996C459 80.845 466.125 79.7885 475.625 81.5996" stroke="#D1D4D8" stroke-width="3" stroke-linecap="round"/>
<path d="M361.271 778.6C314.18 755.054 333.182 524.674 361.076 405.431C361.19 404.943 361.643 404.636 362.141 404.685L518.51 420.025C518.959 420.069 519.319 420.385 519.395 420.83C533.604 504.637 562.227 682.402 555.271 731.6C548.625 778.6 538.771 775.526 507.271 778.6C439.692 785.193 436.248 623.751 437.641 531.313C437.659 530.141 436.203 529.944 435.969 531.093C426.071 579.723 437.771 672.011 437.771 716.6C437.771 763.6 420.271 808.1 361.271 778.6Z" fill="#D1D4D8"/>
<path d="M382.97 797.1V808.6C364.47 816.6 332.07 834.7 350.47 843.1C368.87 851.5 400.804 833.6 414.471 823.6V792.6" stroke="#D1D4D8" stroke-width="3" stroke-linecap="round"/>
<path d="M500 787.6V817.1C509 824.933 535.5 839.9 569.5 837.1C612 833.6 543 825.6 524 790.1" stroke="#D1D4D8" stroke-width="3" stroke-linecap="round"/>
<path d="M517 415.468V255.512C517 253.702 518.593 252.307 520.392 252.497C588.864 259.723 659.889 218.308 672.5 206.6C679.5 200.101 735.5 137.101 658.5 164.598C581.88 191.958 504.59 195.114 471.993 190.482C470.541 190.275 469.5 189.023 469.5 187.556V161.968" stroke="#D1D4D8" stroke-width="3" stroke-linecap="round"/>
<path d="M423.5 163.968V186.134C423.5 187.567 422.52 188.797 421.11 189.05C381.741 196.105 291.655 195.635 227 139.6C216.833 131.934 189.008 135.94 218 188.6C241.875 231.967 325.111 251.907 370.983 249.346C372.834 249.243 374.364 250.782 374.215 252.631L362.504 397.968" stroke="#D1D4D8" stroke-width="3" stroke-linecap="round"/>
<path d="M727.001 163.1C722.001 172.1 733.664 173.423 739.501 174.813C742.168 175.659 745.801 179.526 739.001 188.225" stroke="#D1D4D8" stroke-width="3" stroke-linecap="round"/>
<path d="M735.999 165.6C732.499 165.1 728.594 163.832 726.999 163.1C724.951 162.161 723.656 159.063 724.499 156.814C726.723 150.884 736.499 155.696 743.999 158.314" stroke="#D1D4D8" stroke-width="3" stroke-linecap="round"/>
<path d="M750 151.814C742 148.48 723 141.313 727 154.079" stroke="#D1D4D8" stroke-width="3" stroke-linecap="round"/>
<path d="M731.5 146.1C730.5 143.1 729.8 135.713 751 141.313C762.5 144.351 762 153.687 762 158.313C762 174.884 746.667 185.159 739 188.225C725.891 193.388 707.118 198.859 699 194.313" stroke="#D1D4D8" stroke-width="3" stroke-linecap="round"/>
<path d="M702.5 156.814C706.167 151.98 715.4 141.514 723 138.314C735.667 131.313 759 122.113 751 141.313" stroke="#D1D4D8" stroke-width="3" stroke-linecap="round"/>
<path d="M174.003 139.843C179.003 148.843 167.34 150.166 161.503 151.556C158.836 152.402 155.203 156.269 162.003 164.968" stroke="#D1D4D8" stroke-width="3" stroke-linecap="round"/>
<path d="M165.002 142.342C168.502 141.842 172.408 140.574 174.002 139.842C176.051 138.903 177.346 135.805 176.502 133.556C174.279 127.626 164.502 132.438 157.002 135.056" stroke="#D1D4D8" stroke-width="3" stroke-linecap="round"/>
<path d="M151.002 128.557C159.002 125.224 178.002 118.057 174.002 130.822" stroke="#D1D4D8" stroke-width="3" stroke-linecap="round"/>
<path d="M169.504 122.843C170.504 119.843 171.204 112.456 150.004 118.056C138.504 121.094 139.004 130.43 139.004 135.056C139.004 151.627 154.337 161.902 162.004 164.968C175.113 170.131 193.886 175.603 202.004 171.056" stroke="#D1D4D8" stroke-width="3" stroke-linecap="round"/>
<path d="M198.504 133.557C194.837 128.723 185.604 118.257 178.004 115.057C165.337 108.057 142.004 98.8562 150.004 118.056" stroke="#D1D4D8" stroke-width="3" stroke-linecap="round"/>
<ellipse cx="168" cy="777.1" rx="93" ry="10.5" fill="#D1D4D8"/>
<ellipse cx="732" cy="802.1" rx="93" ry="10.5" fill="#D1D4D8"/>
<path d="M416 202.6C416 212.062 419.581 227.791 428.495 236.233C429.321 237.015 430.626 236.834 431.296 235.915L445.796 216.03C446.638 214.875 448.384 214.951 449.123 216.174L460.86 235.601C461.495 236.651 462.913 236.889 463.804 236.045C469.286 230.854 477.85 220.232 478.568 209.1" stroke="#D1D4D8" stroke-width="3" stroke-linecap="round"/>
<circle cx="446.5" cy="278.1" r="3.5" fill="#D1D4D8"/>
<circle cx="446.5" cy="307.1" r="3.5" fill="#D1D4D8"/>
<circle cx="446.5" cy="336.1" r="3.5" fill="#D1D4D8"/>
<circle cx="446.5" cy="365.1" r="3.5" fill="#D1D4D8"/>
<path d="M29 275.099C25.1046 263.024 10.1447 244.594 2.59203 236.249C2.25309 235.875 2.23226 235.326 2.56374 234.945C19.517 215.455 64.5585 179.793 114 188.099" stroke="#D1D4D8" stroke-width="3" stroke-linecap="round"/>
<path d="M115.5 202.1C116.833 221.266 131 255.2 177 237.6C185.775 233.212 196.451 223.311 196.979 210.584C197.002 210.038 197.418 209.591 197.963 209.594C217.794 209.697 263.103 223.023 293.793 276.24C293.924 276.467 293.966 276.733 293.895 276.986C291.036 287.238 278.686 307.912 250.977 312.03C250.679 312.075 250.377 311.985 250.155 311.781C240.212 302.638 219.562 288.976 213.556 304.946C213.52 305.044 213.498 305.148 213.494 305.252C211.806 348.636 200.362 434.899 168 434.1C135.64 433.301 79.9722 420.465 56.0891 414.123C56.0273 414.107 55.9695 414.098 55.9058 414.093C48.5572 413.529 35.8302 405.175 42.9996 376.1C51.9996 339.6 72.9995 271.6 51.4995 267.1" stroke="#D1D4D8" stroke-width="3" stroke-linecap="round"/>
<path d="M128 196.1C140.5 195.1 169.8 197 187 212.6" stroke="#D1D4D8" stroke-width="3" stroke-linecap="round"/>
<path d="M158.5 197.1L162 154.6" stroke="#D1D4D8" stroke-width="3" stroke-linecap="round"/>
<path d="M741.808 209.6C716.475 239.433 662.608 306.1 649.808 334.1C637.008 362.1 633.808 434.433 633.808 467.1C636.475 496.433 637.308 554.1 631.808 583.6C629.141 600.1 627.408 633.2 641.808 633.6C656.208 634 663.475 633.766 665.308 633.6C668.141 633.266 673.508 630.5 672.308 622.1" stroke="#D1D4D8" stroke-width="3" stroke-linecap="round"/>
<path d="M685.809 351.6C686.975 357.933 687.509 371.1 680.309 373.1C671.309 375.6 684.809 413.6 680.309 430.6C675.809 447.6 678.309 515.1 673.309 524.6C668.309 534.1 652.809 621.6 698.809 626.1C744.809 630.6 752.449 624.117 788.309 628.6C816.309 632.1 841.309 630.6 844.309 626.1" stroke="#D1D4D8" stroke-width="3" stroke-linecap="round"/>
<ellipse cx="767" cy="327.1" rx="3" ry="5.5" fill="#D1D4D8"/>
<ellipse cx="766" cy="380.1" rx="3" ry="5.5" fill="#D1D4D8"/>
<ellipse cx="772" cy="439.1" rx="3" ry="5.5" fill="#D1D4D8"/>
<ellipse cx="778" cy="507.1" rx="3" ry="5.5" fill="#D1D4D8"/>
<ellipse cx="775" cy="563.1" rx="3" ry="5.5" fill="#D1D4D8"/>
<path d="M826.809 369.6C825.809 394.433 825.809 450.2 833.809 474.6C843.809 505.1 838.809 528.6 839.809 560.1C840.809 591.6 836.809 636.1 859.809 640.1C882.809 644.1 891.809 638.1 891.309 609.1C890.809 580.1 907.309 372.6 859.809 324.1C812.309 275.6 788.809 231.1 741.809 209.1" stroke="#D1D4D8" stroke-width="3" stroke-linecap="round"/>
<path d="M708.809 252.1L722.998 281.897C723.343 282.621 724.357 282.665 724.763 281.973L745.075 247.35C745.429 246.746 746.278 246.684 746.717 247.229L764.309 269.1" stroke="#D1D4D8" stroke-width="3" stroke-linecap="round"/>
<path d="M779.902 269.6L787.809 242.6" stroke="#D1D4D8" stroke-width="3" stroke-linecap="round"/>
<path d="M738.5 178.6L741.808 227.1" stroke="#D1D4D8" stroke-width="3" stroke-linecap="round"/>
<path d="M750.5 287.1C748.333 324.766 746.4 409.4 756 446.6C765.6 483.8 760 558.433 756 591.1" stroke="#D1D4D8" stroke-width="3" stroke-linecap="round"/>
<path d="M719.402 236.6C727.402 229.6 751.402 222.6 773.402 229.6" stroke="#D1D4D8" stroke-width="3" stroke-linecap="round"/>
</svg>
