<svg width="1215" height="1197" viewBox="0 0 1215 1197" fill="none" xmlns="http://www.w3.org/2000/svg">
<path d="M1200.35 714.469C1172.61 721.969 1142.56 765.508 1131 786.34C1148.34 784.257 1187.63 773.216 1206.12 745.717C1224.62 718.219 1209.98 713.428 1200.35 714.469Z" fill="#D1D4D8"/>
<path d="M1187.05 642.535C1159.59 645.305 1139.85 713.084 1131 744.34C1150.67 728.265 1189.41 696.116 1198.84 685.4C1216.54 665.307 1213.59 639.856 1187.05 642.535Z" fill="#D1D4D8"/>
<path d="M1103.72 620.022C1089.28 644.381 1120.56 680.98 1135 705.34C1135 690.002 1135 657.914 1135 644.381C1135 622.729 1114.14 602.433 1103.72 620.022Z" fill="#D1D4D8"/>
<path d="M1135 757.34C1114.5 728.865 1070.71 679.508 1059.52 709.881C1045.55 747.848 1132.2 757.34 1135 757.34Z" fill="#D1D4D8"/>
<path d="M1135 799.34L1131 692.34" stroke="#D1D4D8" stroke-width="3" stroke-linecap="round"/>
<path d="M1105.73 882.182C1112.65 865.338 1122.95 822.112 1125.11 801.34H1154.16C1155.46 826.94 1168.69 863.656 1175.15 882.182C1194.52 925.971 1177.84 954.042 1165.46 961.34H1118.65C1087.98 951.235 1096.05 905.761 1105.73 882.182Z" stroke="#D1D4D8" stroke-width="3"/>
<path d="M278 779.34V698.84" stroke="#D1D4D8" stroke-width="3" stroke-linecap="round"/>
<path d="M438 695.595C439.975 698.607 447.508 703.271 461.84 697.836C476.172 692.4 481.918 683.907 483 680.34" stroke="#D1D4D8" stroke-width="3" stroke-linecap="round"/>
<path d="M425.614 688.34C424.257 691.011 424.267 696.13 435.158 695.237L438.386 694.887L444 694.28" stroke="#D1D4D8" stroke-width="3" stroke-linecap="round"/>
<path d="M424.672 679.34C421.67 679.781 416.244 682.098 418.56 687.84C419.258 689.572 421.107 690.546 423.544 691.005C429.186 692.069 437.985 690.38 443 688.973" stroke="#D1D4D8" stroke-width="3" stroke-linecap="round"/>
<path d="M481 664.989C476.742 661.084 467.853 653.222 459.868 652.662C457.843 652.569 453.503 651.795 452.346 649.445C450.9 646.507 444.246 649.724 448.73 655.6C453.214 661.475 458.711 659.517 455.528 664.553C452.983 668.581 437.592 670.428 430.215 670.848C427.611 670.894 422.78 672.163 424.284 676.863C424.657 678.027 425.711 678.837 427.179 679.381C431.641 681.033 439.928 680.223 444.535 679.381" stroke="#D1D4D8" stroke-width="3" stroke-linecap="round"/>
<path d="M461.001 547.839C455.572 514.932 462.777 479.04 477.993 467.702C476.196 512.349 506.271 533.935 518.145 541.399L507.967 550.898L484.5 562.839C484.5 557.839 484.782 555.806 484 550.339C483.5 546.839 478.5 548.339 461.001 547.839Z" fill="#D1D4D8"/>
<path d="M538.633 949.939C534.957 934.758 522.125 908.314 520.341 892.34L568.526 895.565C574.921 913.69 583.873 956.482 568.526 982.656C553.178 1008.83 514.096 1008 510.081 1001.55C507.85 996.479 503.922 984.867 520.341 982.656C540.864 979.891 542.65 966.528 538.633 949.939Z" fill="#D1D4D8"/>
<path d="M685.288 1000.64C643.104 995.133 617.184 927.117 610 892.721L646.59 884.34C651.726 921.396 669.087 950.188 675.2 958.443C691.249 978.164 727.472 1006.14 685.288 1000.64Z" fill="#D1D4D8"/>
<path d="M482.575 688.34C475.597 714.144 466.475 781.976 479.872 878.393C498.269 889.672 559.649 905.464 658 878.393C652.164 834.047 639.997 756.388 622.641 715.225" stroke="#D1D4D8" stroke-width="3" stroke-linecap="round"/>
<path d="M503 602.164C508.657 588.564 520.82 564.495 533.643 580.815C546.466 597.135 547.314 632.052 554.857 616.396L569 578.917" stroke="#D1D4D8" stroke-width="3" stroke-linecap="round"/>
<path d="M665.267 543.443C644.291 563.373 623.016 566.26 614.825 567.183C598.11 569.065 570.384 551.917 570.384 533.258C585.53 522.317 596.535 501.752 600.049 493.396C603.997 496.734 609.132 495.464 611.206 494.411C613.872 492.676 618.987 486.144 618.115 473.9C617.243 461.656 608.354 464.943 604.018 468.117L582.355 470.451C583.266 450.209 570.788 443.454 564.435 442.607C569.428 431.393 560.497 426.487 555.798 424.559C549.057 432.821 540.223 436.149 536.488 437.697C498.469 447.643 475.263 434.026 464.551 417.031C452.924 399.875 454.806 359.589 487.7 349.782C498.456 345.643 523.955 342.249 539.905 361.786C586.859 344.531 609.082 393.915 615.179 411.848L622.224 428.199C683.414 441.215 688.8 499.09 678.052 524.435C673.178 535.928 672.537 536.536 665.589 543.136L665.267 543.443Z" fill="#D1D4D8"/>
<path d="M526.653 556.605C516.137 557.283 487.514 569.558 484.802 609.589" stroke="#D1D4D8" stroke-width="3" stroke-linecap="round"/>
<path d="M553.113 556.602C600.268 548.8 613.591 586.689 618.802 604.159C628.328 634.302 618.802 699.148 486.653 679.695C479.034 678.574 475.303 668.334 490.228 658.522C505.838 648.261 522.458 641.815 542.476 637.744" stroke="#D1D4D8" stroke-width="3" stroke-linecap="round"/>
<path d="M483.796 687.735C496.597 700.151 540.091 718.588 611.655 693.01C613.172 689.765 613.961 668.944 611.655 662.234" stroke="#D1D4D8" stroke-width="3" stroke-linecap="round"/>
<path d="M582.516 470.816C580.054 484.832 567.955 494.129 555.761 491.986C543.567 489.844 535.361 476.981 537.823 462.965C540.285 448.95 552.384 439.653 564.578 441.795C576.772 443.937 584.978 456.801 582.516 470.816Z" stroke="#D1D4D8" stroke-width="3"/>
<path d="M523.339 468.922C520.876 482.938 508.778 492.234 496.583 490.092C484.389 487.95 476.183 475.086 478.645 461.071C481.107 447.055 493.206 437.759 505.4 439.901C517.595 442.043 525.801 454.906 523.339 468.922Z" stroke="#D1D4D8" stroke-width="3"/>
<path d="M523.562 463.654L538.244 464.562" stroke="#D1D4D8" stroke-width="3" stroke-linecap="round"/>
<path d="M531.776 477.958C527.473 489.009 518.674 498.232 528.402 505.23" stroke="#D1D4D8" stroke-width="3" stroke-linecap="round"/>
<circle cx="496.962" cy="474.852" r="6.1064" transform="rotate(9.96339 496.962 474.852)" fill="#D1D4D8"/>
<circle cx="553.956" cy="473.497" r="6.1064" transform="rotate(9.96339 553.956 473.497)" fill="#D1D4D8"/>
<path d="M609.488 476.496C610.235 478.517 610.959 483.178 607.879 485.659" stroke="#D1D4D8" stroke-width="3" stroke-linecap="round"/>
<path d="M554.4 539.34C518.8 554.94 493.9 519.84 481.9 493.34C541.9 512.14 572.9 493.34 603.9 471.84C599.5 511.04 568.4 533.173 554.4 539.34Z" fill="#D1D4D8"/>
<path d="M484.78 436.307C476.017 453.03 468.136 493.888 503.129 529.128C538.122 564.369 575.635 531.318 590.017 510.387L600.189 492.81C604.414 496.543 613.679 499.902 616.943 483.473C620.206 467.044 613.766 464.811 610.138 465.748C608.171 466.189 603.862 468.14 602.356 472.41" stroke="#D1D4D8" stroke-width="3" stroke-linecap="round"/>
<path d="M582.322 469.836L606.357 467.446" stroke="#D1D4D8" stroke-width="3" stroke-linecap="round"/>
<path d="M560.706 458.291C564.5 458.832 572.057 461.871 571.926 469.702" stroke="#D1D4D8" stroke-width="3" stroke-linecap="round"/>
<path d="M488.41 461.352C491.305 460.079 498.385 458.562 503.54 462.674" stroke="#D1D4D8" stroke-width="3" stroke-linecap="round"/>
<path d="M559 556.34V540.34" stroke="#D1D4D8" stroke-width="3" stroke-linecap="round"/>
<path d="M524 543.34V557.34" stroke="#D1D4D8" stroke-width="3" stroke-linecap="round"/>
<path d="M496 841.34C512.887 851.232 554.644 864.659 620 849.55" stroke="#D1D4D8" stroke-width="3" stroke-linecap="round"/>
<path d="M508.717 714.34L523.895 875.34M494 798.989C514.543 803.83 565.103 810.608 603 798.989" stroke="#D1D4D8" stroke-width="3" stroke-linecap="round"/>
<path d="M494 756.34C509.956 759.358 550.894 763.584 587 756.34" stroke="#D1D4D8" stroke-width="3" stroke-linecap="round"/>
<path d="M609 819.34L620 875.34" stroke="#D1D4D8" stroke-width="3" stroke-linecap="round"/>
<path d="M555 743.34L577 875.34" stroke="#D1D4D8" stroke-width="3" stroke-linecap="round"/>
<path d="M411 699.34V894.119C411 900.869 416.485 906.34 423.248 906.34H970.752C977.516 906.34 983 900.869 983 894.119V76.5605C983 69.811 977.516 64.3398 970.752 64.3398H423.248C416.485 64.3398 411 69.811 411 76.5605V531.84" stroke="#D1D4D8" stroke-width="3" stroke-linecap="round"/>
<path d="M687.952 269.505L967.534 62.7539C975.593 56.7943 987 62.5499 987 72.577V895.496C987 899.414 985.123 903.091 981.954 905.389L702.372 1108C694.299 1113.85 683 1108.08 683 1098.1V279.328C683 275.453 684.839 271.808 687.952 269.505Z" fill="#D1D4D8"/>
<path d="M425.522 30.7366L420.452 2.3413" stroke="#D1D4D8" stroke-width="3" stroke-linecap="round"/>
<path d="M400.479 39.5217L367.23 8.5731" stroke="#D1D4D8" stroke-width="3" stroke-linecap="round"/>
<path d="M387.269 63.6691L367.172 52.5635" stroke="#D1D4D8" stroke-width="3" stroke-linecap="round"/>
<path d="M108 172.34C109.693 176.937 116.177 186.373 128.568 187.332C144.058 188.531 146.089 192.369 145.497 208.92C144.904 225.471 146.682 233.267 162.933 228.949C179.185 224.632 202.462 202.324 198.568 225.471C198.032 228.869 196.029 237.801 192.305 246.34" stroke="#D1D4D8" stroke-width="3" stroke-linecap="round"/>
<path d="M374 1119.34V1105.34" stroke="#D1D4D8" stroke-width="3" stroke-linecap="round"/>
<path d="M361 1112.34L372 1119.34" stroke="#D1D4D8" stroke-width="3" stroke-linecap="round"/>
<path d="M381 1119.34L387 1110.34" stroke="#D1D4D8" stroke-width="3" stroke-linecap="round"/>
<path d="M933 1118.34V1103.34" stroke="#D1D4D8" stroke-width="3" stroke-linecap="round"/>
<path d="M921 1112.34L928 1118.34" stroke="#D1D4D8" stroke-width="3" stroke-linecap="round"/>
<path d="M940 1118.34L944 1109.34" stroke="#D1D4D8" stroke-width="3" stroke-linecap="round"/>
<path d="M160 1186.19C178.001 1177.71 221.817 1161.29 253.078 1163.46C257.511 1163.64 264.204 1165.52 255.521 1171.58C246.837 1177.64 242.495 1180.78 241.41 1181.59C236.887 1185.38 232.454 1193.39 250.908 1195.12C273.973 1197.28 339.102 1173.74 468 1191.06" stroke="#D1D4D8" stroke-width="3" stroke-linecap="round"/>
<path d="M16 1025.26V1009.26" stroke="#D1D4D8" stroke-width="3" stroke-linecap="round"/>
<path d="M2 1018.26L10 1025.26" stroke="#D1D4D8" stroke-width="3" stroke-linecap="round"/>
<path d="M22 1025.26L28 1015.26" stroke="#D1D4D8" stroke-width="3" stroke-linecap="round"/>
<path d="M341 1118.26V1095.26" stroke="#D1D4D8" stroke-width="3" stroke-linecap="round"/>
<path d="M320 1108.26L333 1118.26" stroke="#D1D4D8" stroke-width="3" stroke-linecap="round"/>
<path d="M349 1118.26L359 1103.26" stroke="#D1D4D8" stroke-width="3" stroke-linecap="round"/>
<path d="M482.256 550.262L482.256 664.34M336 667.911L392.195 671.262L431 669.83" stroke="#D1D4D8" stroke-width="3" stroke-linecap="round"/>
<path d="M482 550.262H391C390.448 550.262 390 550.709 390 551.262V599.262" stroke="#D1D4D8" stroke-width="3" stroke-linecap="round"/>
<path d="M376 550.262H301C300.448 550.262 300 550.709 300 551.262V617.262" stroke="#D1D4D8" stroke-width="3" stroke-linecap="round"/>
<path d="M450 566.132V557.088C450 556.054 449.211 555.19 448.181 555.096L430.181 553.46C429.01 553.354 428 554.276 428 555.452V565.001C428 566.056 428.821 566.93 429.875 566.997L447.875 568.128C449.026 568.201 450 567.286 450 566.132Z" fill="#D1D4D8"/>
<path d="M447 657.262V667.609C447 668.647 446.206 669.512 445.173 669.602L428.173 671.074C427.004 671.175 426 670.254 426 669.081V657.262C426 656.157 426.895 655.262 428 655.262H445C446.105 655.262 447 656.157 447 657.262Z" fill="#D1D4D8"/>
<path d="M392 671.262V647.262" stroke="#D1D4D8" stroke-width="3" stroke-linecap="round"/>
<path d="M284 616.262C284 583.35 275.18 567.306 263 551.262" stroke="#D1D4D8" stroke-width="3" stroke-linecap="round"/>
<path d="M144.812 747.262C137.768 661.217 142.833 602.988 172.946 556.27C182.039 542.163 202.35 529.419 216 534.338" stroke="#D1D4D8" stroke-width="3" stroke-linecap="round"/>
<path d="M262.868 526.287C269.596 521.116 319.758 520.929 323.203 451.824C341.223 450.165 344.611 439.255 335.089 429.525C321.865 416.011 323.675 408.359 325.478 399.917C328.582 388.771 327.669 377.501 326.516 375.244" stroke="#D1D4D8" stroke-width="3" stroke-linecap="round"/>
<path d="M304.738 430.755C306.696 431.314 308.993 429.281 309.869 426.214C310.745 423.147 309.868 420.206 307.911 419.647C305.954 419.089 303.656 421.122 302.781 424.19C301.905 427.257 302.781 430.197 304.738 430.755Z" fill="#D1D4D8"/>
<path d="M291.327 419.714C290.965 415.309 292.714 406.357 302.602 405.776" stroke="#D1D4D8" stroke-width="3" stroke-linecap="round"/>
<path d="M231.501 416.128C230.515 419.069 230.106 425.553 236.364 427.97" stroke="#D1D4D8" stroke-width="3" stroke-linecap="round"/>
<path d="M165.165 393.877C162.143 432.914 187.047 459.475 205.233 479.994C221.244 469.066 246.782 444.385 235.875 443.141C224.411 441.833 209.414 412.491 219.326 402.009C230.956 389.711 244.19 405.115 247.692 417.475L256.128 398.621C251.928 386.483 248.52 364.779 268.495 375.069C288.47 385.36 315.573 379.304 326.628 374.991C347.398 356.599 378.366 315.514 336.085 298.313C300.918 284.006 259.893 310.975 235.523 333.91C217.111 331.041 169.284 340.653 165.165 393.877Z" fill="#D1D4D8"/>
<path d="M206.211 477.301C215.324 486.211 220.189 493.89 221.431 510.716" stroke="#D1D4D8" stroke-width="3" stroke-linecap="round"/>
<path d="M241.723 576.262C249.344 634.635 268.369 639.883 276.93 635.211C294.05 627.379 331.769 614.518 345.686 625.73C359.603 636.943 342.924 652.113 332.845 658.297C299.434 682.069 226.895 721.04 204.032 686.741C181.168 652.443 179.594 609.241 181.665 591.927" stroke="#D1D4D8" stroke-width="3" stroke-linecap="round"/>
<path d="M217.272 534.525C213.233 527.802 208.287 514.239 220.819 513.774C236.483 513.194 271.983 527.102 271.946 535.784" stroke="#D1D4D8" stroke-width="3" stroke-linecap="round"/>
<path d="M391.674 633.262C393.037 637.482 390.851 647.249 370.826 649.616C363.25 650.512 362.112 650.386 355 649.782" stroke="#D1D4D8" stroke-width="3" stroke-linecap="round"/>
<path d="M394.696 621.262C398.056 622.215 401.078 625.907 391.898 633.615C389.89 635.301 387.299 637.178 384 639.262" stroke="#D1D4D8" stroke-width="3" stroke-linecap="round"/>
<path d="M392.823 612.262C396.213 612.222 399.494 614.214 394.263 621.18C391.999 624.196 388.138 628.143 382 633.262" stroke="#D1D4D8" stroke-width="3" stroke-linecap="round"/>
<path d="M350 617.799C365.968 601.016 372.787 600.169 369.581 613.919C366.375 627.668 378.271 615.853 384.452 609.055C386.935 606.23 392.465 601.685 394.712 606.112C395.486 607.636 394.633 609.841 392.938 612.263C389.705 616.879 383.406 622.285 379.456 625.262" stroke="#D1D4D8" stroke-width="3" stroke-linecap="round"/>
<path d="M262.119 961.063C287.486 866.283 288.227 830.277 284.127 751.286C238.35 782.271 165.429 757.428 142.393 746.262C129.146 825.334 137.698 975.997 156.919 1068.25C164.313 1080.32 180.248 1074.11 187.29 1069.51L196.094 1005.45L206.218 1061.55C211.852 1070.93 228.52 1069.09 236.149 1067L262.119 961.063Z" fill="#D1D4D8"/>
<path d="M142.203 1090.72C140.12 1084.46 154.601 1088.11 161.172 1090.72C161.172 1096.38 175.057 1100.77 182 1102.26C155.221 1100.4 143.319 1094.07 142.203 1090.72Z" fill="#D1D4D8"/>
<path d="M201.317 1085.5C196.896 1081.4 204.632 1080.86 209.422 1081.47C210.895 1093.2 212 1089.9 219 1093.93C217.895 1095.76 205.737 1089.61 201.317 1085.5Z" fill="#D1D4D8"/>
<path d="M236.737 1074.56C239.063 1077.6 246.333 1083.68 253.313 1083.68C259.286 1083.68 261.601 1090.62 255.058 1094.08C244.152 1098.43 219.026 1096.43 211 1086.71V1073.26" stroke="#D1D4D8" stroke-width="3" stroke-linecap="round"/>
<path d="M185.455 1078.26C187.52 1080.04 192.801 1083.75 197.403 1084.46C203.156 1085.34 211.169 1091.99 206.696 1099.94C202.714 1107.01 193.863 1105.54 188.552 1103.92L167.753 1096.4C165.54 1095.51 162 1094.19 162 1088.88C162 1083.57 162 1081.36 162 1080.92" stroke="#D1D4D8" stroke-width="3" stroke-linecap="round"/>
<path d="M342.818 438.191C320.379 442.108 295.198 450.388 245.34 412.143C243.768 417.905 239.325 432.747 234.121 446.021C227.616 462.614 271.69 526.609 301.939 512.73C326.658 501.388 343.05 484.409 342.818 438.191Z" fill="#D1D4D8"/>
</svg>
