<svg width="1048" height="877" viewBox="0 0 1048 877" fill="none" xmlns="http://www.w3.org/2000/svg">
<path d="M313.268 598.645C321.925 577.792 340.538 540.886 360.16 565.91C379.783 590.934 381.082 644.474 392.625 620.469L414.268 563.001" stroke="#D1D4D8" stroke-width="3" stroke-linecap="round"/>
<path d="M83.7298 508.45C128.192 550.347 183.232 557.344 200.527 559.292C184.769 532.073 140.789 464.312 159.699 419.616C152.536 407.917 140.359 376.639 159.699 352.285C167.662 342.257 197.662 329.364 219.15 347.271L258.792 354.336C256.868 311.595 283.213 297.332 296.627 295.544C286.085 271.867 304.941 261.508 314.863 257.438C329.096 274.882 347.748 281.91 355.635 285.178C435.909 306.178 484.907 277.427 507.522 241.544C532.072 205.32 528.099 120.259 458.646 99.552C435.936 90.8131 382.098 83.6478 348.42 124.898C249.28 88.4652 202.359 192.736 189.487 230.6L174.61 265.124C45.4139 292.606 31.9275 415.749 56.736 468.318C65.8652 487.663 72.3118 497.691 83.7298 508.45Z" fill="#D1D4D8"/>
<path d="M496.388 546.975C564.668 422.496 511.278 372.476 479.151 348.536C482.947 442.803 419.445 488.382 394.375 504.14L415.864 524.196C443.276 544.968 472.643 577.917 496.388 546.975Z" fill="#D1D4D8"/>
<path d="M256.805 355.395C262.133 385.721 288.409 406.158 315.227 401.447C342.044 396.736 359.782 368.567 354.455 338.241C349.127 307.914 322.851 287.478 296.033 292.189C269.216 296.9 251.478 325.068 256.805 355.395Z" stroke="#D1D4D8" stroke-width="3"/>
<path d="M381.751 351.395C387.078 381.721 413.354 402.158 440.172 397.447C466.99 392.736 484.728 364.567 479.4 334.241C474.073 303.914 447.796 283.478 420.979 288.189C394.161 292.9 376.423 321.068 381.751 351.395Z" stroke="#D1D4D8" stroke-width="3"/>
<path d="M382.923 339.983L353.135 342.067" stroke="#D1D4D8" stroke-width="3" stroke-linecap="round"/>
<path d="M365.581 370.188C374.666 393.522 393.244 412.995 372.705 427.772" stroke="#D1D4D8" stroke-width="3" stroke-linecap="round"/>
<path d="M394.24 458.579C388.02 465.454 365.5 455.016 351.025 458.579" stroke="#D1D4D8" stroke-width="3" stroke-linecap="round"/>
<circle r="12.8931" transform="matrix(-0.984918 0.173019 0.173019 0.984918 439.089 363.633)" fill="#D1D4D8"/>
<circle r="12.8931" transform="matrix(-0.984918 0.173019 0.173019 0.984918 318.753 360.765)" fill="#D1D4D8"/>
<path d="M464.809 282.248C483.31 317.556 499.951 403.824 426.066 478.231C352.181 552.638 270.718 485.517 242.61 438.66L222.727 406.01" stroke="#D1D4D8" stroke-width="3" stroke-linecap="round"/>
<path d="M304.496 328.661C296.485 329.803 280.53 336.22 280.807 352.754" stroke="#D1D4D8" stroke-width="3" stroke-linecap="round"/>
<path d="M457.145 335.125C451.032 332.438 436.084 329.235 425.199 337.916" stroke="#D1D4D8" stroke-width="3" stroke-linecap="round"/>
<path d="M414.268 516.516C461.512 544.418 557.152 616.964 573.268 692.516" stroke="#D1D4D8" stroke-width="3" stroke-linecap="round"/>
<path d="M198.691 416.631C211.809 415.671 244.317 400.781 229.459 365.472C212.286 324.661 166.224 346.024 159.336 356.825C152.897 366.923 144.31 390.694 160.768 419.516" stroke="#D1D4D8" stroke-width="3" stroke-linecap="round"/>
<path d="M241.657 487.951C252.358 478.96 280.752 465.584 295.161 492.21C310.142 519.894 280.893 552.546 259.492 550.417C238.09 548.287 216.688 533.382 210.268 500.729" stroke="#D1D4D8" stroke-width="3" stroke-linecap="round"/>
<path d="M210.268 499.516C214.914 488.537 226.019 469.872 233.268 483.047" stroke="#D1D4D8" stroke-width="3" stroke-linecap="round"/>
<path d="M242.268 482.516C241.688 477.329 239.918 471.429 236.483 467.389C229.923 459.674 217.288 458.742 195.268 482.516" stroke="#D1D4D8" stroke-width="3" stroke-linecap="round"/>
<path d="M236.03 467.516C236.772 460.982 235.925 452.988 231.35 448.661C225.607 443.23 213.99 443.578 192.268 459.846" stroke="#D1D4D8" stroke-width="3" stroke-linecap="round"/>
<path d="M231.268 449.365C230.437 439.817 222.037 423.873 195.085 436.476C168.134 449.078 181.944 418.336 192.218 401.39C196.28 395.184 203.974 381.77 202.254 377.76C200.533 373.75 190.068 380.385 185.05 384.204C170.236 396.139 145.052 431.751 162.829 478.724C180.606 525.697 198.908 554.148 205.838 562.502C208.705 565.605 211.859 575.391 201.537 589.712C188.634 607.613 78.9627 779.466 195.085 799.516" stroke="#D1D4D8" stroke-width="3" stroke-linecap="round"/>
<path d="M284.937 557.516C295.469 586.916 314.379 651.452 259.803 677.267C234.669 690.891 208.424 660.44 241.132 637.111C266.266 619.184 290.107 658.48 284.937 709.535C282.25 736.067 245.666 774.965 225.334 764.033C197.328 748.974 223.898 712.404 246.159 729.613C268.42 746.823 268.42 789.848 261.957 830.004C260.521 840.282 252.622 858.687 232.515 850.082C207.381 839.326 220.307 779.091 300.735 786.979M508.268 808.491C439.329 813.654 435.978 848.887 442.92 865.857C447.613 877.331 470.495 880.486 474.516 855.818C478.538 831.151 452.255 807.888 424.249 808.491C416.648 808.655 409.724 809.124 403.424 809.852M321.56 791.999L333.05 797.018C353.156 804.189 392.494 813.985 385.471 842.911C379.726 866.574 359.353 871.365 350.284 858.687C346.694 853.667 338.973 829.158 371.827 817.465" stroke="#D1D4D8" stroke-width="3" stroke-linecap="round"/>
<path d="M393.089 791.516C393.089 792.93 358.993 824.056 376.041 825.471C389.679 826.602 405.875 806.135 412.268 795.76" stroke="#D1D4D8" stroke-width="3" stroke-linecap="round"/>
<path d="M332.268 821.781C333.692 823.221 347.939 836.998 384.268 785.516" stroke="#D1D4D8" stroke-width="3" stroke-linecap="round"/>
<path d="M352.691 768.516C339.593 782.463 315.825 812.344 325.541 820.288C327.264 821.695 329.46 821.832 331.972 821.007C343.628 817.179 362.058 792.643 371.268 778.444" stroke="#D1D4D8" stroke-width="3" stroke-linecap="round"/>
<path d="M459.268 796.018C437.302 769.231 369.016 720.678 328.904 755.837C312.907 771.383 288.793 801.04 300.253 812.52C305.984 816.825 314.579 814.673 318.16 801.04C323.183 781.923 341.013 776.884 349.369 773.057" stroke="#D1D4D8" stroke-width="3" stroke-linecap="round"/>
<path d="M563.749 737.201L566.165 744.485C566.301 744.894 566.683 745.17 567.114 745.17H602.322C602.726 745.17 603.091 744.927 603.246 744.553L606.322 737.133C606.477 736.759 606.841 736.516 607.246 736.516H615.78C616.268 736.516 616.685 736.874 616.77 737.354C623.79 776.673 649.942 799.395 662.738 806.197C663.07 806.373 663.268 806.709 663.268 807.085V848.025C663.268 848.577 662.82 849.025 662.268 849.025H655.656C655.104 849.025 654.656 849.472 654.656 850.025V854.516C654.656 855.068 654.209 855.516 653.656 855.516H625.518C624.965 855.516 624.518 855.068 624.518 854.516V850.025C624.518 849.472 624.07 849.025 623.518 849.025H545.865C545.313 849.025 544.865 849.472 544.865 850.025V854.516C544.865 855.068 544.417 855.516 543.865 855.516H516.444C515.891 855.516 515.444 855.068 515.444 854.516V850.025C515.444 849.472 514.996 849.025 514.444 849.025H509.268C508.715 849.025 508.268 848.577 508.268 848.025V807.149C508.268 806.741 508.515 806.375 508.891 806.216C534.018 795.575 549.282 756.399 554.011 737.266C554.122 736.817 554.52 736.516 554.982 736.516H562.8C563.231 736.516 563.614 736.792 563.749 737.201Z" stroke="#D1D4D8" stroke-width="3" stroke-linecap="round"/>
<path d="M622.768 783.516C622.768 801.312 606.587 816.016 586.268 816.016C565.948 816.016 549.768 801.312 549.768 783.516C549.768 765.719 565.948 751.016 586.268 751.016C606.587 751.016 622.768 765.719 622.768 783.516Z" stroke="#D1D4D8" stroke-width="3"/>
<ellipse cx="586.268" cy="783.516" rx="15" ry="12" fill="#D1D4D8"/>
<circle cx="605.268" cy="771.516" r="4" fill="#D1D4D8"/>
<circle cx="593.768" cy="764.016" r="4.5" fill="#D1D4D8"/>
<circle cx="580.768" cy="763.016" r="4.5" fill="#D1D4D8"/>
<circle cx="569.268" cy="768.516" r="4" fill="#D1D4D8"/>
<ellipse cx="562.268" cy="777.016" rx="4" ry="4.5" fill="#D1D4D8"/>
<circle cx="562.268" cy="788.516" r="4" fill="#D1D4D8"/>
<circle cx="569.268" cy="798.516" r="4" fill="#D1D4D8"/>
<circle cx="580.768" cy="804.016" r="4.5" fill="#D1D4D8"/>
<circle cx="593.768" cy="803.016" r="4.5" fill="#D1D4D8"/>
<circle cx="605.268" cy="795.516" r="4" fill="#D1D4D8"/>
<path d="M508.268 807.516C531.709 821.853 595.527 841.926 663.268 807.516" stroke="#D1D4D8" stroke-width="3" stroke-linecap="round"/>
<path d="M317.268 667.516C351.469 666.569 419.011 660.277 444.268 645.516" stroke="#D1D4D8" stroke-width="3" stroke-linecap="round"/>
<path d="M310.268 713.804C353.09 718.509 441.019 720.438 487.268 690.516" stroke="#D1D4D8" stroke-width="3" stroke-linecap="round"/>
<path d="M854.983 363.516C855.259 352.008 852.253 324.944 838.026 308.754C820.241 288.516 819 276.214 819 238.516" stroke="#D1D4D8" stroke-width="3" stroke-linecap="round"/>
<path d="M862 249.516C855.726 248.376 845.061 240.781 852.589 219.516" stroke="#D1D4D8" stroke-width="3" stroke-linecap="round"/>
<path d="M947 249.516C961.798 240.907 985.549 219.757 962.168 204.029C958.962 201.716 951.439 200.328 947 213.281" stroke="#D1D4D8" stroke-width="3" stroke-linecap="round"/>
<path d="M958 216.516C957.747 220.578 955.193 228.866 947 229.516" stroke="#D1D4D8" stroke-width="3" stroke-linecap="round"/>
<path d="M911 192.516C907.923 191.006 900.015 188.893 893 192.516" stroke="#D1D4D8" stroke-width="3" stroke-linecap="round"/>
<path d="M840 196.516C836.41 195.006 827.185 192.893 819 196.516" stroke="#D1D4D8" stroke-width="3" stroke-linecap="round"/>
<path d="M933.64 103.858C1022.77 113.143 995.537 180.832 970.778 213.516C965.721 202.31 955.765 201.91 951.419 203.11C947.31 140.037 908.091 148.548 888.995 160.688C849.17 159.087 839.214 174.962 839.214 183.1C821.952 172.192 807.334 184.998 806.148 187.8C761.899 57.1711 873.06 77.8443 933.64 103.858Z" fill="#D1D4D8"/>
<circle r="28.5" transform="matrix(-1 0 0 1 899 207.516)" stroke="#D1D4D8" stroke-width="3"/>
<ellipse rx="7" ry="8.5" transform="matrix(-1 0 0 1 900 213.016)" fill="#D1D4D8"/>
<path d="M797.5 207.516C797.5 223.21 810.661 236.016 827 236.016C843.339 236.016 856.5 223.21 856.5 207.516C856.5 191.821 843.339 179.016 827 179.016C810.661 179.016 797.5 191.821 797.5 207.516Z" stroke="#D1D4D8" stroke-width="3"/>
<ellipse rx="8" ry="8.5" transform="matrix(-1 0 0 1 826 213.016)" fill="#D1D4D8"/>
<path d="M855 207.516H870" stroke="#D1D4D8" stroke-width="3" stroke-linecap="round"/>
<path d="M928 203.516L948 208.516" stroke="#D1D4D8" stroke-width="3" stroke-linecap="round"/>
<path d="M812 312.516C805.912 309.248 794.233 298.873 796.226 283.516" stroke="#D1D4D8" stroke-width="3" stroke-linecap="round"/>
<path d="M751.08 245.224L755.866 269.516L739.115 252.392C723.162 268.002 669.848 267.442 645.39 259.958C620.663 252.392 612.288 231.286 621.86 211.375C631.431 191.464 687.267 176.331 731.537 187.083C766.953 195.685 759.322 229.428 751.08 245.224Z" stroke="#D1D4D8" stroke-width="3" stroke-linecap="round"/>
<path d="M723 235.516L705 239.516" stroke="#D1D4D8" stroke-width="3" stroke-linecap="round"/>
<path d="M724 218.516L649 228.516" stroke="#D1D4D8" stroke-width="3" stroke-linecap="round"/>
<path d="M723.366 203.345L676.048 208.92" stroke="#D1D4D8" stroke-width="3" stroke-linecap="round"/>
<path d="M634 157.171C657.63 67.5837 739.362 1.51562 836.558 1.51562C952.23 1.51562 1046 95.0881 1046 210.516C1046 325.943 952.23 419.516 836.558 419.516C766.085 419.516 703.742 384.783 665.781 331.537" stroke="#D1D4D8" stroke-width="3"/>
<path d="M884.995 288.516C882.662 292.516 876.702 301.216 869.502 298.016C867.175 296.981 865.586 295.251 865 292.516C863.826 287.03 865.463 277.674 868.579 273.528C868.82 273.207 869.25 273.1 869.629 273.232C884.051 278.248 885.981 286.216 884.995 288.516Z" fill="#D1D4D8"/>
<path d="M851.5 267.516C865.5 270.349 891.6 279.016 884 291.016C876.4 303.016 863.833 301.016 858 296.016" stroke="#D1D4D8" stroke-width="3" stroke-linecap="round"/>
</svg>
