<svg width="1612" height="924" viewBox="0 0 1612 924" fill="none" xmlns="http://www.w3.org/2000/svg">
<path d="M512.99 60.9653C458.858 80.1424 408.634 147.425 388.579 181.399C387.833 182.663 388.686 184.246 390.149 184.361L455.783 189.518C456.53 189.576 457.236 189.226 457.641 188.595C477.674 157.384 536.234 120.298 565.791 104.085C567.062 103.388 567.203 101.614 566.055 100.729L514.852 61.2699C514.32 60.8599 513.623 60.7411 512.99 60.9653Z" stroke="#D1D4D8" stroke-width="3" stroke-linecap="round"/>
<path d="M1073.5 276.113C1073.5 290.447 1061.66 302.113 1047 302.113C1032.34 302.113 1020.5 290.447 1020.5 276.113C1020.5 261.779 1032.34 250.113 1047 250.113C1061.66 250.113 1073.5 261.779 1073.5 276.113Z" stroke="#D1D4D8" stroke-width="3"/>
<path d="M1047 288.613V292.613" stroke="#D1D4D8" stroke-width="3" stroke-linecap="round"/>
<path d="M1047 263.613V259.613" stroke="#D1D4D8" stroke-width="3" stroke-linecap="round"/>
<path d="M1054 265.312C1052.29 264.429 1049.69 263.604 1047.27 263.613C1044.34 263.625 1041.66 264.85 1041.07 268.65C1040.29 273.662 1046.18 275.461 1049.69 277.272C1054.54 279.775 1054.49 284.468 1051.58 286.728C1050.26 287.745 1048.77 288.303 1047.27 288.514C1045.06 288.822 1042.83 288.389 1041.07 287.563" stroke="#D1D4D8" stroke-width="3" stroke-linecap="round"/>
<path d="M583.5 283.113C583.5 299.66 569.867 313.113 553 313.113C536.133 313.113 522.5 299.66 522.5 283.113C522.5 266.567 536.133 253.113 553 253.113C569.867 253.113 583.5 266.567 583.5 283.113Z" stroke="#D1D4D8" stroke-width="3"/>
<path d="M553 297.613V301.613" stroke="#D1D4D8" stroke-width="3" stroke-linecap="round"/>
<path d="M553 268.613V264.613" stroke="#D1D4D8" stroke-width="3" stroke-linecap="round"/>
<path d="M561 270.584C559.027 269.56 556.031 268.602 553.23 268.613C549.854 268.627 546.76 270.047 546.081 274.455C545.184 280.269 551.979 282.356 556.027 284.457C561.622 287.361 561.571 292.804 558.203 295.427C556.688 296.606 554.967 297.253 553.23 297.498C550.689 297.855 548.111 297.353 546.081 296.394" stroke="#D1D4D8" stroke-width="3" stroke-linecap="round"/>
<path d="M483.295 138.895L486.279 141.558" stroke="#D1D4D8" stroke-width="3" stroke-linecap="round"/>
<path d="M461.662 119.582L458.678 116.918" stroke="#D1D4D8" stroke-width="3" stroke-linecap="round"/>
<path d="M468.459 114.927C466.381 115.717 463.672 117.314 461.815 119.411C459.576 121.939 458.576 125.193 461.412 128.635C465.152 133.176 471.234 129.497 475.497 127.876C481.389 125.636 485.416 129.299 485.129 133.558C485 135.474 484.337 137.188 483.362 138.647C481.937 140.781 479.845 142.369 477.778 143.246" stroke="#D1D4D8" stroke-width="3" stroke-linecap="round"/>
<path d="M761.838 81.0195L760.983 83.6142" stroke="#D1D4D8" stroke-width="3" stroke-linecap="round"/>
<path d="M768.036 62.2079L768.891 59.6133" stroke="#D1D4D8" stroke-width="3" stroke-linecap="round"/>
<path d="M775.43 64.6214C773.721 63.6773 770.999 62.631 768.26 62.2407C764.959 61.7704 761.633 62.253 760.028 65.0159C757.91 68.6599 764.101 70.9778 767.607 72.9148C772.452 75.5924 771.239 79.1161 767.388 80.3392C765.656 80.8893 763.838 81.065 762.088 80.9771C759.529 80.8485 757.118 80.1565 755.339 79.2469" stroke="#D1D4D8" stroke-width="3" stroke-linecap="round"/>
<path d="M1034.95 86.6094L1032.47 87.7574" stroke="#D1D4D8" stroke-width="3" stroke-linecap="round"/>
<path d="M1052.92 78.2848L1055.4 77.1367" stroke="#D1D4D8" stroke-width="3" stroke-linecap="round"/>
<path d="M1056.21 85.3349C1055.73 83.4419 1054.63 80.7392 1053.05 78.4722C1051.14 75.7401 1048.51 73.6409 1045.4 74.3554C1041.29 75.2976 1043.83 81.4031 1044.81 85.2863C1046.16 90.6543 1042.76 92.1754 1039.23 90.1982C1037.65 89.3089 1036.28 88.1007 1035.15 86.7626C1033.49 84.8063 1032.35 82.5725 1031.8 80.6522" stroke="#D1D4D8" stroke-width="3" stroke-linecap="round"/>
<path d="M1246.8 348.75L1242.53 350.73" stroke="#D1D4D8" stroke-width="3" stroke-linecap="round"/>
<path d="M1277.8 334.394L1282.07 332.414" stroke="#D1D4D8" stroke-width="3" stroke-linecap="round"/>
<path d="M1283.47 346.552C1282.64 343.287 1280.75 338.626 1278.02 334.717C1274.72 330.005 1270.2 326.385 1264.83 327.618C1257.74 329.242 1262.12 339.771 1263.81 346.468C1266.14 355.725 1260.27 358.348 1254.2 354.939C1251.46 353.405 1249.1 351.321 1247.15 349.014C1244.3 345.64 1242.33 341.788 1241.38 338.477" stroke="#D1D4D8" stroke-width="3" stroke-linecap="round"/>
<path d="M1175.8 312.75L1171.53 314.73" stroke="#D1D4D8" stroke-width="3" stroke-linecap="round"/>
<path d="M1170.39 302.473C1171.33 305.784 1173.3 309.637 1176.16 313.01C1178.11 315.318 1180.47 317.401 1183.2 318.935C1189.28 322.345 1195.15 319.721 1192.81 310.464C1191.12 303.768 1186.87 293.515 1193.83 291.614C1197.5 290.612 1199.5 291.112 1202 293.613" stroke="#D1D4D8" stroke-width="3" stroke-linecap="round"/>
<path d="M1131.78 361.195L1127.5 363.175" stroke="#D1D4D8" stroke-width="3" stroke-linecap="round"/>
<path d="M1126.35 350.922C1127.3 354.234 1129.27 358.086 1132.12 361.459C1134.07 363.767 1136.44 365.851 1139.17 367.384C1145.25 370.794 1151.12 368.171 1148.78 358.914C1147.09 352.217 1142.83 341.964 1149.8 340.063C1153.47 339.062 1155.47 339.561 1157.97 342.063" stroke="#D1D4D8" stroke-width="3" stroke-linecap="round"/>
<path d="M957.5 144.113C957.5 154.573 948.804 163.113 938 163.113C927.196 163.113 918.5 154.573 918.5 144.113C918.5 133.654 927.196 125.113 938 125.113C948.804 125.113 957.5 133.654 957.5 144.113Z" stroke="#D1D4D8" stroke-width="3"/>
<path d="M938 153.613V156.613" stroke="#D1D4D8" stroke-width="3" stroke-linecap="round"/>
<path d="M938 134.613V131.613" stroke="#D1D4D8" stroke-width="3" stroke-linecap="round"/>
<path d="M943 135.904C941.816 135.234 940.019 134.606 938.338 134.613C936.312 134.622 934.456 135.553 934.048 138.441C933.511 142.25 937.587 143.617 940.016 144.994C943.373 146.896 943.343 150.463 941.322 152.181C940.413 152.953 939.38 153.377 938.338 153.538C936.813 153.772 935.266 153.442 934.048 152.815" stroke="#D1D4D8" stroke-width="3" stroke-linecap="round"/>
<path d="M370.5 182.113C370.5 200.318 355.522 215.113 337 215.113C318.478 215.113 303.5 200.318 303.5 182.113C303.5 163.908 318.478 149.113 337 149.113C355.522 149.113 370.5 163.908 370.5 182.113Z" stroke="#D1D4D8" stroke-width="3"/>
<path d="M337 197.613V202.613" stroke="#D1D4D8" stroke-width="3" stroke-linecap="round"/>
<path d="M337 166.613V161.613" stroke="#D1D4D8" stroke-width="3" stroke-linecap="round"/>
<path d="M346 168.72C343.764 167.625 340.368 166.601 337.194 166.613C333.367 166.628 329.861 168.146 329.091 172.858C328.075 179.073 335.776 181.304 340.364 183.55C346.705 186.654 346.647 192.473 342.83 195.276C341.113 196.537 339.163 197.229 337.194 197.49C334.314 197.872 331.392 197.335 329.091 196.31" stroke="#D1D4D8" stroke-width="3" stroke-linecap="round"/>
<path d="M753.5 137.113C753.5 157.53 736.729 174.113 716 174.113C695.271 174.113 678.5 157.53 678.5 137.113C678.5 116.697 695.271 100.113 716 100.113C736.729 100.113 753.5 116.697 753.5 137.113Z" stroke="#D1D4D8" stroke-width="3"/>
<path d="M716 154.613V159.613" stroke="#D1D4D8" stroke-width="3" stroke-linecap="round"/>
<path d="M716 119.613V114.613" stroke="#D1D4D8" stroke-width="3" stroke-linecap="round"/>
<path d="M726 121.992C723.501 120.756 719.706 119.6 716.158 119.613C711.881 119.63 707.963 121.344 707.102 126.664C705.967 133.681 714.573 136.2 719.7 138.735C726.788 142.24 726.723 148.809 722.457 151.974C720.538 153.398 718.359 154.179 716.158 154.474C712.94 154.906 709.674 154.299 707.102 153.142" stroke="#D1D4D8" stroke-width="3" stroke-linecap="round"/>
<path d="M179.638 681.613L117.5 687.613L190.375 699.613L254.638 693.613L179.638 681.613Z" fill="#D1D4D8" stroke="#D1D4D8" stroke-width="3" stroke-linecap="round"/>
<path d="M100 686.781L191.613 700.66M100 686.781V817.063C100 817.283 100.143 817.477 100.353 817.541L191.613 845.613M100 686.781L176.5 682.113M191.613 700.66L281.512 693.154C281.783 693.131 282.023 693.329 282.051 693.6L295.454 820.675C295.48 820.926 295.316 821.157 295.071 821.214L191.613 845.613M191.613 700.66V845.613" stroke="#D1D4D8" stroke-width="3" stroke-linecap="round"/>
<path d="M289.97 894.123C279.57 907.723 315.97 924.123 335.97 919.623C313.97 907.623 316.137 898.123 316.97 894.123C312.304 888.456 300.37 880.523 289.97 894.123Z" fill="#D1D4D8" stroke="#D1D4D8" stroke-width="3" stroke-linecap="round"/>
<path d="M324.012 870.786C319.475 880.986 313.124 903.134 324.012 910.128C337.621 918.871 342.157 923.242 358.035 921.056C373.912 918.871 378.449 916.685 369.376 910.128C360.303 903.571 351.51 892.841 353.778 866.613" stroke="#D1D4D8" stroke-width="3" stroke-linecap="round"/>
<path d="M310.705 848.135C289.5 807.613 288.5 744.113 282.023 691.998C223.154 695.497 186.619 692.307 168.318 674.312C143.136 649.55 149.797 622.421 149.797 598.309C172.749 614.4 165.216 593.613 258 593.613C344.562 598.413 369.591 724.613 371.285 787.113C373.047 814.23 370.428 838.687 358.147 848.135C333.477 867.112 316.189 858.613 310.705 848.135Z" fill="#D1D4D8" stroke="#D1D4D8" stroke-width="3" stroke-linecap="round"/>
<path d="M215.5 427.389V435.308C215.522 435.303 215.543 435.298 215.565 435.293C216.645 435.052 218.009 434.901 219.548 434.825C222.637 434.672 226.616 434.81 230.843 435.231C238.594 436.003 247.476 437.754 253.31 440.59C264.889 418.328 266.07 402.601 263.143 391.457C260.575 381.676 254.786 375.197 249.592 370.793C249.503 403.739 228.016 421.999 215.5 427.389Z" fill="#D1D4D8" stroke="#D1D4D8" stroke-width="3"/>
<path d="M146.072 365.183L160.98 366.784C160.992 359.467 163.25 354.334 166.282 350.893C168.867 347.96 171.961 346.318 174.542 345.585C173.992 343.874 173.82 342.295 173.967 340.843C174.162 338.913 174.91 337.306 175.917 335.994C177.892 333.422 180.878 331.963 182.777 331.187L183.803 330.767L184.505 331.625C189.276 337.454 195.462 339.986 198.6 341.271C198.727 341.323 198.85 341.373 198.966 341.422C228.169 349.004 245.637 338.546 253.639 325.888L253.652 325.867L253.666 325.846C257.949 319.547 259.84 308.765 257.463 298.584C255.105 288.485 248.604 279.195 236.325 275.545L236.269 275.528L236.215 275.507C232.194 273.965 225.326 272.537 217.973 273.349C210.653 274.157 202.923 277.174 196.97 284.443L196.294 285.268L195.293 284.901C186.356 281.627 178.685 281.54 172.129 283.389C165.555 285.243 159.992 289.073 155.345 293.799C146.021 303.281 140.558 316.188 138.194 323.121L138.175 323.177L138.151 323.232L132.625 336.016L132.318 336.727L131.559 336.888C108.068 341.87 95.413 355.375 89.5926 369.984C83.7333 384.691 84.79 400.548 88.8448 410.081L87.4645 410.668L88.8448 410.081C90.7674 414.601 91.7939 416.825 92.981 418.569C94.1564 420.296 95.5129 421.59 98.2697 424.201L98.27 424.201L98.5228 424.44C98.5228 424.44 98.5229 424.441 98.5229 424.441C106.58 432.073 114.017 435.797 120.186 437.712C125.199 439.269 129.367 439.639 132.541 439.921C133.264 439.986 133.936 440.045 134.554 440.113C156.937 440.108 167.358 437.963 175.759 435.077L170.73 420.091C159.707 411.981 152.755 399.599 149.564 392.573C148.164 393.389 146.618 393.88 145.089 393.933C142.944 394.008 140.829 393.21 139.379 391.281C137.199 389.111 133.473 382.352 134.174 372.544C134.531 367.539 136.284 364.591 139.127 363.691C141.607 362.907 144.237 363.94 146.072 365.183Z" fill="#D1D4D8" stroke="#D1D4D8" stroke-width="3"/>
<path d="M161.357 369.274C163.369 380.631 173.231 388.085 183.088 386.368C192.945 384.651 199.655 374.31 197.643 362.953C195.631 351.596 185.769 344.142 175.912 345.859C166.055 347.576 159.345 357.917 161.357 369.274Z" stroke="#D1D4D8" stroke-width="3"/>
<path d="M214.299 369.274C215.985 380.631 224.247 388.085 232.506 386.368C240.765 384.651 246.386 374.31 244.701 362.953C243.015 351.596 234.753 344.142 226.494 345.859C218.235 347.576 212.614 357.917 214.299 369.274Z" stroke="#D1D4D8" stroke-width="3"/>
<path d="M212 365.613L198 367.613" stroke="#D1D4D8" stroke-width="3" stroke-linecap="round"/>
<path d="M212 410.613C208.909 415.407 201.182 418.925 195 410.613" stroke="#D1D4D8" stroke-width="3" stroke-linecap="round"/>
<path d="M206 382.613C210.27 391.886 211.633 396.522 207.544 399.613" stroke="#D1D4D8" stroke-width="3" stroke-linecap="round"/>
<path d="M230.701 377.335C231.087 379.537 233.186 381.008 235.388 380.621C237.589 380.235 239.061 378.136 238.674 375.934C238.287 373.733 236.189 372.261 233.987 372.648C231.785 373.035 230.314 375.133 230.701 377.335Z" fill="#D1D4D8" stroke="#D1D4D8" stroke-width="3"/>
<path d="M184.38 378.718C184.767 380.92 186.866 382.391 189.067 382.004C191.269 381.617 192.74 379.519 192.354 377.317C191.967 375.116 189.868 373.644 187.667 374.031C185.465 374.418 183.994 376.516 184.38 378.718Z" fill="#D1D4D8" stroke="#D1D4D8" stroke-width="3"/>
<path d="M143.732 377.469C144.267 378.192 145.501 379.859 146.157 380.746" stroke="#D1D4D8" stroke-width="3" stroke-linecap="round"/>
<path d="M239.029 339.613C251.992 367.029 253.401 389.359 226.368 417.323C199.336 445.288 170.357 419.061 159.246 402.451L152 391.685" stroke="#D1D4D8" stroke-width="3" stroke-linecap="round"/>
<path d="M159.896 366.152L147.931 366.557" stroke="#D1D4D8" stroke-width="3" stroke-linecap="round"/>
<path d="M290.012 506.613C299.185 517.208 310.089 556.469 282 583.613" stroke="#D1D4D8" stroke-width="3" stroke-linecap="round"/>
<path d="M274.5 474.113C274.5 446.113 237.868 435.269 214.43 439.375C207.622 444.459 190.25 451.575 175.219 439.375C163.51 440.715 138.132 446.927 130.29 461.056C110.412 493.973 100.065 580.679 162.966 603.961" stroke="#D1D4D8" stroke-width="3" stroke-linecap="round"/>
<path d="M164 506.613C172.024 519.145 174.763 538.014 174.071 549.931C174.048 550.329 174.509 550.579 174.829 550.34C192.991 536.801 234.438 539.339 244.11 546.361C251.968 552.066 246.242 559.829 241.602 564.783C228.816 578.429 209.228 591.658 196.5 597.613" stroke="#D1D4D8" stroke-width="3" stroke-linecap="round"/>
<path d="M292.185 512.527L292.188 512.563C293.345 508.905 294.573 504.178 295.156 499.71C295.549 496.692 295.636 493.884 295.256 491.635C294.871 489.361 294.062 487.94 292.927 487.253C286.571 483.407 279.097 482.926 276.219 483.163C274.56 483.357 272.598 483.668 270.89 484.79C269.249 485.869 267.669 487.819 267.055 491.677C265.687 500.275 261.686 509.253 260.211 512.023C259.653 513.344 259.127 514.886 258.809 516.357C258.477 517.891 258.409 519.175 258.622 520.034C258.723 520.441 258.868 520.674 259.003 520.808C259.123 520.927 259.317 521.049 259.695 521.095C260.55 521.2 262.156 520.885 264.865 519.433L264.938 519.394L265.015 519.363C266.182 518.896 268.035 517.614 270.178 515.683C272.283 513.787 274.55 511.371 276.545 508.77L276.545 508.77C279.007 505.561 282.422 504.622 285.376 504.969C286.837 505.14 288.207 505.626 289.325 506.32C290.424 507.003 291.384 507.956 291.854 509.122L291.94 509.337L291.958 509.568L292.185 512.527Z" fill="#D1D4D8" stroke="#D1D4D8" stroke-width="3"/>
<path d="M274 475.7C276.502 475.33 279.527 476.08 281.3 479.182C281.683 479.852 281.933 480.655 282 481.613" stroke="#D1D4D8" stroke-width="3" stroke-linecap="round"/>
<path d="M261.734 509.613C259.257 507.92 258.126 505.379 256.003 501.055C253.88 495.218 252.651 491.831 251.333 486.946C251.05 485.378 250.036 481.119 253.88 480.675C257.276 480.284 257.701 483.027 258.126 484.987C259.399 491.831 265.036 490.607 265.036 485.903C265.036 481.2 265.036 477.435 263.597 471.795C262.839 468.823 260.905 462.613 267.867 462.613C272.868 462.613 273.264 467.195 274 475.033" stroke="#D1D4D8" stroke-width="3" stroke-linecap="round"/>
<path d="M290 535.613C278.313 555.076 269.026 549.882 254 559.613" stroke="#D1D4D8" stroke-width="3" stroke-linecap="round"/>
<path d="M239 537.613C240.385 530.18 247.307 525.579 250.423 512.129C251.493 507.508 252.846 503.28 257 503.634" stroke="#D1D4D8" stroke-width="3" stroke-linecap="round"/>
<path d="M393 815.157C396.99 828.701 408.802 854.887 424.125 851.275C439.448 847.663 462.432 834.721 472.009 828.701C481.586 821.177 488.769 807.934 440.884 815.157C437.692 815.157 431.307 812.449 431.307 801.613" stroke="#D1D4D8" stroke-width="3" stroke-linecap="round"/>
<path d="M110.834 650.712C89.7006 656.441 66.8057 689.7 58 705.613C71.2086 704.022 101.148 695.588 115.237 674.582C129.326 653.577 118.173 649.916 110.834 650.712Z" fill="#D1D4D8" stroke="#D1D4D8" stroke-width="3"/>
<path d="M101.276 594.766C80.0786 596.939 64.833 650.099 58 674.613C73.1844 662.006 103.098 636.791 110.386 628.386C124.052 612.627 121.775 592.665 101.276 594.766Z" fill="#D1D4D8" stroke="#D1D4D8" stroke-width="3"/>
<path d="M35.9735 577.77C24.4241 596.569 49.4497 624.814 60.9997 643.613C60.9997 631.777 61.0002 607.013 61 596.569C60.9996 579.859 44.313 564.196 35.9735 577.77Z" fill="#D1D4D8" stroke="#D1D4D8" stroke-width="3"/>
<path d="M61 684.613C45.2926 662.632 11.7358 624.532 3.16813 647.979C-7.54148 677.286 58.8581 684.613 61 684.613Z" fill="#D1D4D8" stroke="#D1D4D8" stroke-width="3"/>
<path d="M61 714.613L58 634.613" stroke="#D1D4D8" stroke-width="3" stroke-linecap="round"/>
<path d="M36.8257 780.761C42.2344 767.812 50.2848 734.582 51.9672 718.613H74.6798C75.6892 738.293 86.0351 766.519 91.083 780.761C106.224 814.424 93.186 836.003 83.5123 841.613H46.92C22.946 833.845 29.2545 798.887 36.8257 780.761Z" stroke="#D1D4D8" stroke-width="3"/>
<path d="M171 522.613C172.568 516.087 175.235 500.75 173.353 491.613" stroke="#D1D4D8" stroke-width="3" stroke-linecap="round"/>
<path d="M279 522.613C282.836 520.243 293.387 515.502 290.509 506.613" stroke="#D1D4D8" stroke-width="3" stroke-linecap="round"/>
<path d="M282 531.613C284.333 530.724 289 527.613 291 525.613" stroke="#D1D4D8" stroke-width="3" stroke-linecap="round"/>
<path d="M269 588.113C273.333 578.28 276 570.113 278.5 549.113" stroke="#D1D4D8" stroke-width="3" stroke-linecap="round"/>
<path d="M395.579 628.615C365.234 570.82 280.674 582.27 257 594.717C317.051 600.88 332.332 642.642 334.753 662.124C343.792 739.4 367.573 784.695 378.334 797.682C387.211 804.176 425.576 803.713 427.564 787.942C434.827 730.309 413.053 661.896 395.579 628.615Z" fill="#D1D4D8" stroke="#D1D4D8" stroke-width="3"/>
<path d="M456.087 884.684C457.546 875.194 427.546 878.836 410.323 882.208C408.833 882.499 407.474 883.455 407.235 884.953C406.73 888.112 408.306 891.108 409.837 893.01C410.552 893.898 411.647 894.344 412.786 894.403C427.653 895.173 454.62 894.232 456.087 884.684Z" fill="#D1D4D8" stroke="#D1D4D8" stroke-width="3"/>
<path d="M1155.68 726.613C1141.88 745.638 1121.45 764.202 1114.14 767.271L1111 782.613C1147.84 771.106 1158.03 747.326 1155.68 726.613Z" fill="#D1D4D8" stroke="#D1D4D8" stroke-width="3"/>
<path d="M1096.61 663.797C1102.48 708.202 1095.65 757.872 1090.55 781.159C1090.28 782.416 1091.23 783.613 1092.52 783.613H1110.5C1111.39 783.613 1112.17 783.03 1112.41 782.176C1123.85 741.174 1111.65 692.08 1100.33 662.679C1099.48 660.475 1096.31 661.455 1096.61 663.797Z" fill="#D1D4D8" stroke="#D1D4D8" stroke-width="3"/>
<path d="M1116.86 731.3C1137.73 735.108 1165.55 724.314 1181 701.805" stroke="#D1D4D8" stroke-width="3" stroke-linecap="round"/>
<path d="M1020.65 683.191C1007.29 706.262 1052.26 757.409 1098.09 735.105" stroke="#D1D4D8" stroke-width="3" stroke-linecap="round"/>
<path d="M1042.1 609.168C1014.92 613.012 1000.02 650.274 1020.65 683.194C1024.41 689.186 1040.71 695.689 1048.34 695.689" stroke="#D1D4D8" stroke-width="3" stroke-linecap="round"/>
<path d="M1181 654.846C1181 626.257 1173.37 595.839 1127.69 582.249C1079.58 567.936 1053.44 589.56 1042.1 609.167C1036.71 618.485 1038.8 627.431 1042.1 635.122" stroke="#D1D4D8" stroke-width="3" stroke-linecap="round"/>
<path d="M1113 690.613C1121.03 682.388 1137.88 667.833 1131.64 634.613" stroke="#D1D4D8" stroke-width="3" stroke-linecap="round"/>
<path d="M1097 706.613C1090.7 704.669 1075.09 694.947 1063 671.613" stroke="#D1D4D8" stroke-width="3" stroke-linecap="round"/>
<path d="M1224.35 599.904L1251.35 611.228C1252.65 611.773 1253.5 613.046 1253.5 614.456V677.8C1253.5 680.354 1250.85 682.048 1248.53 680.978L1221.53 668.523C1220.29 667.951 1219.5 666.71 1219.5 665.345V603.132C1219.5 600.631 1222.05 598.937 1224.35 599.904Z" stroke="#D1D4D8" stroke-width="3"/>
<path d="M1294.35 637.904L1321.35 649.228C1322.65 649.773 1323.5 651.046 1323.5 652.456V715.8C1323.5 718.354 1320.85 720.048 1318.53 718.978L1291.53 706.523C1290.29 705.951 1289.5 704.71 1289.5 703.345V641.132C1289.5 638.631 1292.05 636.937 1294.35 637.904Z" stroke="#D1D4D8" stroke-width="3"/>
<path d="M1224.35 485.904L1251.35 497.228C1252.65 497.773 1253.5 499.046 1253.5 500.456V563.8C1253.5 566.354 1250.85 568.048 1248.53 566.978L1221.53 554.523C1220.29 553.951 1219.5 552.71 1219.5 551.345V489.132C1219.5 486.631 1222.05 484.937 1224.35 485.904Z" stroke="#D1D4D8" stroke-width="3"/>
<path d="M1294.35 522.904L1321.35 534.228C1322.65 534.773 1323.5 536.046 1323.5 537.456V600.8C1323.5 603.354 1320.85 605.048 1318.53 603.978L1291.53 591.523C1290.29 590.951 1289.5 589.71 1289.5 588.345V526.132C1289.5 523.631 1292.05 521.937 1294.35 522.904Z" stroke="#D1D4D8" stroke-width="3"/>
<path d="M1252 746.19V806.992C1252 808.164 1252.68 809.229 1253.75 809.718L1279.75 821.66C1281.74 822.573 1284 821.121 1284 818.934V757.504C1284 756.31 1283.29 755.23 1282.2 754.753L1256.2 743.44C1254.22 742.577 1252 744.03 1252 746.19Z" fill="#D1D4D8" stroke="#D1D4D8" stroke-width="3" stroke-linecap="round"/>
<path d="M1359 859.613L1182.68 772.853C1181.65 772.348 1181 771.304 1181 770.161V411.613" stroke="#D1D4D8" stroke-width="3" stroke-linecap="round"/>
<path d="M1354.65 861.73V497.621L1173.65 414.32C1171.09 413.141 1171.42 409.397 1174.15 408.691L1336 366.837C1336.57 366.691 1337.16 366.712 1337.71 366.899L1500 421.652V791.127C1500 792.257 1499.36 793.292 1498.36 793.803L1359 864.406C1357.01 865.417 1354.65 863.967 1354.65 861.73Z" fill="#D1D4D8"/>
<path d="M1354.65 497.621V861.73C1354.65 863.967 1357.01 865.417 1359 864.406L1498.36 793.803C1499.36 793.292 1500 792.257 1500 791.127V421.652M1354.65 497.621L1500 421.652M1354.65 497.621L1173.65 414.32C1171.09 413.141 1171.42 409.397 1174.15 408.691L1336 366.837C1336.57 366.691 1337.16 366.712 1337.71 366.899L1500 421.652" stroke="#D1D4D8" stroke-width="3" stroke-linecap="round"/>
<path d="M1606 769.546L1498.78 740.613V791.44L1397 844.613L1606 769.546Z" fill="#D1D4D8" stroke="#D1D4D8" stroke-width="3"/>
<path d="M1111.5 473.113C1111.5 490.213 1097.42 504.113 1080 504.113C1062.58 504.113 1048.5 490.213 1048.5 473.113C1048.5 456.014 1062.58 442.113 1080 442.113C1097.42 442.113 1111.5 456.014 1111.5 473.113Z" stroke="#D1D4D8" stroke-width="3"/>
<path d="M1080 487.613V492.613" stroke="#D1D4D8" stroke-width="3" stroke-linecap="round"/>
<path d="M1080 458.613V453.613" stroke="#D1D4D8" stroke-width="3" stroke-linecap="round"/>
<path d="M1088 460.584C1085.9 459.56 1082.7 458.602 1079.71 458.613C1076.11 458.627 1072.81 460.047 1072.09 464.455C1071.13 470.269 1078.38 472.356 1082.7 474.457C1088.66 477.361 1088.61 482.804 1085.02 485.427C1083.4 486.606 1081.57 487.253 1079.71 487.498C1077 487.855 1074.25 487.353 1072.09 486.394" stroke="#D1D4D8" stroke-width="3" stroke-linecap="round"/>
<path d="M1309 374.113C1308.18 341.224 1309.84 264.673 1322.77 217.228C1323.12 215.922 1322.13 214.651 1320.78 214.695C1289.23 215.726 1226.92 220.689 1207.58 233.229C1207.19 233.48 1206.94 233.83 1206.81 234.274C1201.54 253.319 1196.24 311.331 1216 397.113" stroke="#D1D4D8" stroke-width="3" stroke-linecap="round"/>
<path d="M678.109 58.8946L652.991 109.131C652.22 110.674 653.656 112.404 655.326 111.972C741.106 89.8158 806.886 100.263 830.458 108.73C831.124 108.969 831.838 108.842 832.39 108.399L892.365 60.2296C893.55 59.2774 893.287 57.4091 891.871 56.8568C820.902 29.1914 721.509 45.7422 679.313 57.878C678.777 58.0319 678.358 58.3964 678.109 58.8946Z" stroke="#D1D4D8" stroke-width="3" stroke-linecap="round"/>
<path d="M1047.5 146.118C1027.01 105.997 977.051 57.7302 952.306 36.5684C951.216 35.6367 951.419 33.8932 952.697 33.2444L1014.77 1.7362C1015.51 1.36104 1016.41 1.48673 1017.03 2.04489C1081.59 60.8551 1112.98 123.543 1121.65 150.352C1122.08 151.685 1121 152.993 1119.61 152.88L1049.12 147.204C1048.43 147.148 1047.82 146.741 1047.5 146.118Z" stroke="#D1D4D8" stroke-width="3" stroke-linecap="round"/>
<path d="M1212.5 228.613L1200.21 182.292C1199.86 180.974 1198.32 180.384 1197.19 181.139C1172.5 197.537 1124.95 232.484 1113.39 253.879C1113.13 254.357 1113.09 254.877 1113.27 255.39C1122.45 281.41 1152.92 345.569 1204 400.613" stroke="#D1D4D8" stroke-width="3" stroke-linecap="round"/>
<path d="M1129.5 291.613C1112.65 298.674 1072.16 313.832 1040.61 319.947C1039.05 320.249 1038.42 322.142 1039.52 323.289C1066.22 351.312 1127.83 404.368 1180.5 412.113" stroke="#D1D4D8" stroke-width="3" stroke-linecap="round"/>
</svg>
