<svg width="1036" height="1188" viewBox="0 0 1036 1188" fill="none" xmlns="http://www.w3.org/2000/svg">
<path d="M967.447 674.971C978.642 628.105 995.634 534.314 976.212 525.783C975.329 525.397 974.367 525.144 973.475 524.773L899.648 493.965" stroke="#D1D4D8" stroke-width="3" stroke-linecap="round"/>
<path d="M880.43 504.012L869.5 548.021" stroke="#D1D4D8" stroke-width="3" stroke-linecap="round"/>
<path d="M968.786 534.591C977.133 550.311 964.161 616.59 953.689 660.16C951.411 669.658 941.072 674.637 932.09 670.732L862.696 640.561C855.603 637.475 851.728 629.791 853.465 622.288L864.001 575.018" stroke="#D1D4D8" stroke-width="3" stroke-linecap="round"/>
<path d="M954.074 535.539C950.688 531.418 947.188 516.869 955.049 509.431C956.403 508.135 958.11 507.057 960.221 506.287C974.476 501.074 983.57 518.783 974.996 524.877" stroke="#D1D4D8" stroke-width="3" stroke-linecap="round"/>
<path d="M955.271 508.786C954.056 500.801 943.692 492.461 931.197 499.385C917.771 508.876 924.516 522.832 930.638 527.701" stroke="#D1D4D8" stroke-width="3" stroke-linecap="round"/>
<path d="M930.63 498.699C928.083 492.405 918.478 480.266 905.807 485.256C888.79 494.54 898.586 512.83 905.708 515.171" stroke="#D1D4D8" stroke-width="3" stroke-linecap="round"/>
<path d="M905.952 484.386C902.083 477.394 892.43 470.636 883.002 477.32C873.574 484.006 876.565 501.723 886.145 507.394" stroke="#D1D4D8" stroke-width="3" stroke-linecap="round"/>
<path d="M950.412 567.52C936.198 563.353 905.098 552.52 894.412 542.52" stroke="#D1D4D8" stroke-width="3" stroke-linecap="round"/>
<path d="M944.412 589.52C931.061 587.465 899.736 575.038 887.412 570.52" stroke="#D1D4D8" stroke-width="3" stroke-linecap="round"/>
<path d="M940.412 613.52C925.365 611.245 893.299 603.86 885.412 592.52" stroke="#D1D4D8" stroke-width="3" stroke-linecap="round"/>
<path d="M933.412 637.52C925.734 636.52 913.269 633.12 903.412 625.52" stroke="#D1D4D8" stroke-width="3" stroke-linecap="round"/>
<rect x="-1.93494" y="0.869494" width="23.3568" height="18.4996" rx="3.5" transform="matrix(-0.93481 -0.355148 -0.355148 0.93481 892.745 610.987)" stroke="#D1D4D8" stroke-width="3"/>
<path d="M215.499 267.63L129.813 304.885C115.824 310.966 99.722 303.212 96.1747 288.42C79.8656 220.566 59.6627 117.344 72.6627 92.8624L189 47.019" stroke="#D1D4D8" stroke-width="3" stroke-linecap="round"/>
<path d="M208 55.0195L244.24 195.019" stroke="#D1D4D8" stroke-width="3" stroke-linecap="round"/>
<path d="M101 144.52C123.336 138.02 172.207 121.12 189 105.52" stroke="#D1D4D8" stroke-width="3" stroke-linecap="round"/>
<path d="M111 178.52C131.847 175.276 180.757 155.655 200 148.52" stroke="#D1D4D8" stroke-width="3" stroke-linecap="round"/>
<path d="M117 215.52C140.528 211.945 190.668 200.34 203 182.52" stroke="#D1D4D8" stroke-width="3" stroke-linecap="round"/>
<path d="M128 253.52C139.774 251.936 158.886 246.553 174 234.52" stroke="#D1D4D8" stroke-width="3" stroke-linecap="round"/>
<rect x="187.669" y="213.686" width="38.0475" height="30.483" rx="3.5" transform="rotate(-20.8025 187.669 213.686)" stroke="#D1D4D8" stroke-width="3"/>
<path d="M736 1125.1C725.846 1148.6 681.176 1193.31 667.463 1171.85C661.19 1162.03 667.463 1154.99 679.902 1140.43C692.866 1125.26 693.1 1116.16 686.759 1111.31C683.199 1108.24 674.572 1100.58 671.528 1097.52" stroke="#D1D4D8" stroke-width="3" stroke-linecap="round"/>
<path d="M559.529 1108.65C567.385 1137.64 542.372 1155.75 517.624 1157.21C486.692 1159.02 468.09 1152.8 474.136 1142.43C478.984 1134.13 493.663 1134.68 501.205 1135.26C515.196 1136.33 521.951 1122.59 512.748 1103.52" stroke="#D1D4D8" stroke-width="3" stroke-linecap="round"/>
<path d="M600.991 1151.18C601.641 1136.47 566.013 1141.98 547.68 1145.62C543.277 1154.52 528.6 1156.49 527 1158.71C548.214 1161.4 600.332 1165.89 600.991 1151.18Z" fill="#D1D4D8"/>
<path d="M763.202 1182.54C774.929 1171.73 726.418 1168.01 700.696 1167.52C696.989 1172.93 682.69 1176.79 676 1178.04C700.177 1184.05 751.476 1193.36 763.202 1182.54Z" fill="#D1D4D8"/>
<path d="M233 344.52C226.135 334.267 212.564 310.92 213.197 299.563C212.669 295.882 212.881 288.52 217.95 288.52C223.02 288.52 224.815 295.882 225.079 299.563" stroke="#D1D4D8" stroke-width="3" stroke-linecap="round"/>
<path d="M361 611.02C300.71 572.147 262.39 485.418 248.106 434.646C241.467 407.673 225.259 371.974 251.28 337.068C277.3 302.162 301.26 327.284 309.98 344.208L327.267 373.02" stroke="#D1D4D8" stroke-width="3" stroke-linecap="round"/>
<path d="M395.499 712.02C382.001 831.02 411.569 1074.94 486.763 1089.15C561.967 1103.36 591.034 1065.21 596.172 1044.36C602.079 1071.13 626.222 1115.4 675.531 1078.34C724.84 1041.27 721.249 981.539 713.289 956.31L620.5 698.52C532.919 759.554 437.182 732.347 395.499 712.02Z" fill="#D1D4D8"/>
<path d="M223.481 289.519C225.276 281.082 227.788 261.2 223.481 249.176C219.175 237.153 225.276 233.092 228.865 232.565C232.711 232.037 240.094 235.887 238.863 255.505" stroke="#D1D4D8" stroke-width="3" stroke-linecap="round"/>
<path d="M235.501 235.742C233.659 225.986 232.511 207.153 244.512 206.52C258.407 209.684 259.776 243.172 258.723 259.52" stroke="#D1D4D8" stroke-width="3" stroke-linecap="round"/>
<path d="M256 220.88C262.19 219.384 271.16 221.95 273.03 239.971C273.49 244.321 273.43 249.57 272.69 255.881" stroke="#D1D4D8" stroke-width="3" stroke-linecap="round"/>
<path d="M273.031 239.97C277.951 235.728 287.321 232.97 285.411 255.88C283.031 284.517 280.641 281.335 287.001 319.518" stroke="#D1D4D8" stroke-width="3" stroke-linecap="round"/>
<path d="M443.5 467.018C476.3 476.618 504.166 459.018 514 449.018C568 415.418 606.166 463.018 618.5 491.018C683.5 541.018 782.786 553.697 798.823 581.035C814.86 608.374 793.708 625.411 781.127 630.513C753.413 642.023 669.5 647.518 618.5 606.018C612.333 619.185 603.7 653.818 618.5 687.018" stroke="#D1D4D8" stroke-width="3" stroke-linecap="round"/>
<path d="M815.615 614.761C825.955 620.153 838.566 625.591 852.5 628.479" stroke="#D1D4D8" stroke-width="3" stroke-linecap="round"/>
<path d="M811.096 577.19C820.444 570.703 841.672 559.319 855.713 557.544C863.677 556.537 870.812 554.079 873.604 559.951C877.637 568.434 865.271 570.804 860.13 576.793C859.257 578.188 857.692 579.925 855.544 581.249C852.055 583.397 847.026 584.458 840.914 581.203" stroke="#D1D4D8" stroke-width="3" stroke-linecap="round"/>
<path d="M811.096 577.19C820.444 570.702 845.5 556.019 869.001 556.018" stroke="#D1D4D8" stroke-width="3" stroke-linecap="round"/>
<path d="M380.762 525.52C313.591 455.69 334.668 364.659 354.677 343.52C363.823 411.354 418.036 438.288 444 443.276V467.503C435.997 461.802 392.196 505.568 380.762 525.52Z" fill="#D1D4D8"/>
<path d="M397.502 715.52C397.502 703.02 403.115 666.561 387.518 637.443C385.923 633.159 383.53 629.094 381.659 624.66C344.775 537.306 405.501 492.52 440.001 467.02" stroke="#D1D4D8" stroke-width="3" stroke-linecap="round"/>
<path d="M356.322 295.52C347.585 322.953 346.53 386.406 408.3 430.109C470.071 473.811 517.626 414.265 533.684 379.028L544.309 349.94C551.628 354.434 566.411 357.035 566.977 331.495C567.544 305.954 557.295 304.3 552.101 306.664C549.268 307.847 543.318 311.914 542.184 318.724" stroke="#D1D4D8" stroke-width="3" stroke-linecap="round"/>
<path d="M656.39 408.123C630.057 443.694 603.724 447.962 591.625 451.52C554.5 423.52 526.5 440.02 513.55 448.17L510.703 416.156C530.63 395.667 541.781 363.511 544.865 349.994C551.697 353.978 559.099 350.706 561.945 348.571C565.504 345.252 571.482 334.058 566.927 315.846C562.372 297.634 549.846 304.939 544.153 310.866L512.126 320.115C508.141 289.381 487.55 282.509 477.752 282.913C482.307 264.701 467.552 259.674 459.96 258.013C451.989 272.242 439.558 279.594 434.338 282.913C379.679 307.955 341.105 293.586 320.466 270.819C298.403 248.053 290.574 186.873 337.547 163.394C352.659 154.314 390.186 142.456 419.393 167.663C485.581 129.246 532.142 197.755 546.076 223.154L561.022 245.919C656.675 249.334 673.946 334.135 670.624 376.109C669.523 390.02 665 396.492 656.39 408.123Z" fill="#D1D4D8"/>
<path d="M512 321.02C512 342.104 496.646 358.52 478.5 358.52C460.354 358.52 445 342.104 445 321.02C445 299.936 460.354 283.52 478.5 283.52C496.646 283.52 512 299.936 512 321.02Z" stroke="#D1D4D8" stroke-width="3"/>
<path d="M422 334.02C422 355.104 406.646 371.52 388.5 371.52C370.354 371.52 355 355.104 355 334.02C355 312.936 370.354 296.52 388.5 296.52C406.646 296.52 422 312.936 422 334.02Z" stroke="#D1D4D8" stroke-width="3"/>
<path d="M422 325.52L444 323.52" stroke="#D1D4D8" stroke-width="3" stroke-linecap="round"/>
<path d="M438.083 345.52C434.889 363.316 425.177 379.547 440 387.52" stroke="#D1D4D8" stroke-width="3" stroke-linecap="round"/>
<path d="M381 360.52C387.076 360.52 392 355.594 392 349.52C392 343.445 387.076 338.52 381 338.52C374.925 338.52 370 343.445 370 349.52C370 355.594 374.925 360.52 381 360.52Z" fill="#D1D4D8"/>
<path d="M471.5 344.52C477.3 344.52 482 339.818 482 334.02C482 328.221 477.3 323.52 471.5 323.52C465.701 323.52 461 328.221 461 334.02C461 339.818 465.701 344.52 471.5 344.52Z" fill="#D1D4D8"/>
<path d="M555 322.52C555.754 325.32 556.811 332.04 555 336.52" stroke="#D1D4D8" stroke-width="3" stroke-linecap="round"/>
<path d="M512 319.52L548 310.52" stroke="#D1D4D8" stroke-width="3" stroke-linecap="round"/>
<path d="M471 313.53C476.881 313.33 489.117 316.048 491 328.52" stroke="#D1D4D8" stroke-width="3" stroke-linecap="round"/>
<path d="M369 331.52C373 329.619 383.201 326.671 392 330.094" stroke="#D1D4D8" stroke-width="3" stroke-linecap="round"/>
<path d="M435 413.053C441.261 417.716 456.426 422.738 467 405.52" stroke="#D1D4D8" stroke-width="3" stroke-linecap="round"/>
<path d="M72 60.5195C68.5625 48.9091 61.55 20.8545 61 1.51953" stroke="#D1D4D8" stroke-width="3" stroke-linecap="round"/>
<path d="M59 67.5195C53.8889 59.1805 42.9697 39.028 36 26.5195" stroke="#D1D4D8" stroke-width="3" stroke-linecap="round"/>
<path d="M43 76.5195C34.9885 74.2118 15.5724 69.1811 2 67.5195" stroke="#D1D4D8" stroke-width="3" stroke-linecap="round"/>
<path d="M43 376.52C52.3642 366.81 72.8741 344.616 80 333.52" stroke="#D1D4D8" stroke-width="3" stroke-linecap="round"/>
<path d="M92 342.52C86.5122 357.408 73.4293 388.253 65 392.52" stroke="#D1D4D8" stroke-width="3" stroke-linecap="round"/>
<path d="M113 345.52L121 378.52" stroke="#D1D4D8" stroke-width="3" stroke-linecap="round"/>
</svg>
