<svg width="1320" height="1354" viewBox="0 0 1320 1354" fill="none" xmlns="http://www.w3.org/2000/svg">
<path d="M457 1110.52C496.167 1152.52 607 1227.62 737 1192.02" stroke="#D1D4D8" stroke-width="3" stroke-linecap="round"/>
<path d="M435 44.5195L419 32.5195" stroke="#D1D4D8" stroke-width="3" stroke-linecap="round"/>
<path d="M451 32.5195L431 4.51953" stroke="#D1D4D8" stroke-width="3" stroke-linecap="round"/>
<path d="M470 27.5195L462 1.51953" stroke="#D1D4D8" stroke-width="3" stroke-linecap="round"/>
<path d="M414.711 114.484L488.275 188.021C488.912 188.657 489.895 188.79 490.677 188.345L527.573 167.373C528.372 166.919 529.377 167.067 530.01 167.733L558.083 197.234C558.734 197.918 559.775 198.053 560.579 197.559L646.59 144.648C647.995 143.785 649.782 144.895 649.63 146.537L637 282.442C636.895 283.575 635.867 284.392 634.739 284.239L398.922 252.198C397.851 252.052 397.09 251.082 397.203 250.007L411.308 115.689C411.483 114.016 413.521 113.294 414.711 114.484Z" stroke="#D1D4D8" stroke-width="3" stroke-linecap="round"/>
<path d="M420 234.52L471 201.52" stroke="#D1D4D8" stroke-width="3" stroke-linecap="round"/>
<path d="M575 214.52L616 259.52" stroke="#D1D4D8" stroke-width="3" stroke-linecap="round"/>
<path d="M446 88.5195L412 112.434L444.455 142.52L446 88.5195Z" fill="#D1D4D8"/>
<path d="M619.837 111.52L616 163.52L649 142.564L619.837 111.52Z" fill="#D1D4D8"/>
<path d="M575 57.5195L504 48.9342L543.791 25.5195L575 57.5195Z" fill="#D1D4D8"/>
<path d="M444 142.871L448.534 48.6178C448.589 47.476 449.588 46.6124 450.726 46.7233L622.076 63.4266C623.149 63.5312 623.946 64.4673 623.878 65.5432L617.82 161.52" stroke="#D1D4D8" stroke-width="3" stroke-linecap="round"/>
<path d="M464 161.186L469.254 95.6203C469.345 94.4783 470.375 93.6464 471.511 93.7975L596.095 110.377C597.159 110.519 597.922 111.475 597.823 112.544L591.803 177.52" stroke="#D1D4D8" stroke-width="3" stroke-linecap="round"/>
<path d="M500 138.52L558 145.52" stroke="#D1D4D8" stroke-width="3" stroke-linecap="round"/>
<path d="M486 160.52L565 169.52" stroke="#D1D4D8" stroke-width="3" stroke-linecap="round"/>
<path d="M991.359 1184.04C1030.78 1158.79 1089.69 1160.74 1118.36 1174.39C1139.09 1184.26 1201.04 1220.71 1154.22 1298.3C1153.99 1298.67 1153.88 1299.13 1153.93 1299.56L1159.06 1349.49C1159.2 1350.89 1157.9 1351.99 1156.54 1351.62L1106.85 1338.03C1106.53 1337.94 1106.2 1337.93 1105.88 1338C1058.83 1348.93 957.788 1354.51 952.359 1266.39C951.097 1245.9 954.834 1229.06 962.017 1215.39" stroke="#D1D4D8" stroke-width="3" stroke-linecap="round"/>
<circle cx="1018.86" cy="1254.39" r="12.5" stroke="#D1D4D8" stroke-width="3"/>
<circle cx="1057.86" cy="1254.39" r="12.5" stroke="#D1D4D8" stroke-width="3"/>
<circle cx="1096.86" cy="1254.39" r="12.5" stroke="#D1D4D8" stroke-width="3"/>
<path d="M944.862 1310.89L904.559 1327.1C903.134 1327.68 901.622 1326.5 901.831 1324.97L906.778 1289C906.832 1288.6 906.772 1288.21 906.594 1287.85C890.83 1255.81 873.522 1190.44 938.36 1154.89C1000.36 1120.89 1050.36 1147.89 1080.36 1163.89" stroke="#D1D4D8" stroke-width="3" stroke-linecap="round"/>
<path d="M1195.9 995.135C1230.74 944.402 1289.03 818.453 1243.46 720.52" stroke="#D1D4D8" stroke-width="15" stroke-linecap="round"/>
<path d="M158.1 602.821C158.416 546.214 184.85 416.247 288.049 349.24" stroke="#D1D4D8" stroke-width="15" stroke-linecap="round"/>
<path d="M537 1232.02C560 1250.52 620.4 1261.62 650 1258.02" stroke="#D1D4D8" stroke-width="7" stroke-linecap="round"/>
<path d="M1289.79 945.593C1298.58 928.887 1315.59 886.574 1313.31 850.973" stroke="#D1D4D8" stroke-width="7" stroke-linecap="round"/>
<path d="M109.023 510.267C116.073 467.184 118.126 418.245 183.897 378.52" stroke="#D1D4D8" stroke-width="7" stroke-linecap="round"/>
<path d="M802 709.52C805.218 718.466 817.544 736.826 841.102 738.693C870.55 741.027 874.412 748.495 873.285 780.703C872.159 812.91 889.772 830.235 915 810.52C974.5 764.02 946.5 875.52 924 940.52" stroke="#D1D4D8" stroke-width="5" stroke-linecap="round"/>
<path d="M582 348.203C461.42 410.552 379 536.41 379 681.519C379 888.626 546.894 1056.52 754 1056.52C938.176 1056.52 1091.34 923.746 1123 748.696C1131.35 702.519 1127.6 634.119 1108 576.519" stroke="#D1D4D8" stroke-width="5" stroke-linecap="round"/>
<path d="M855.001 322.006C821.094 311.93 785.179 306.52 748.001 306.52C696.652 306.52 647.715 316.84 603.148 335.52" stroke="#D1D4D8" stroke-width="5" stroke-linecap="round"/>
<path d="M723 1030.52C714.988 1054.52 688 1046.85 680 1039.52C656.5 1017.02 624.548 965.054 629.048 941.553C633.548 918.053 622.548 893.054 600.048 878.554C582.048 866.954 580.881 851.053 582.548 844.553C584.215 834.053 589.448 806.854 597.048 782.054C604.648 757.254 641.548 769.72 659.048 779.054C666.881 803.22 691.148 850.153 725.548 844.553C759.948 838.953 781.548 858.22 788.048 868.553C792.048 882.387 790.248 916.353 751.048 941.553C702.048 973.053 733.837 998.057 723 1030.52Z" fill="#D1D4D8"/>
<path d="M1048 854.519C1032 868.519 1031.33 843.352 1033 829.019C1036.5 809.019 1054.5 805.02 1060 786.519C1062.14 779.331 1072.5 776.52 1076 786.519C1080.67 799.867 1068 837.019 1048 854.519Z" fill="#D1D4D8"/>
<path d="M517 676.52C509 689.52 469.5 662.02 467 659.02C455.5 648.52 432.683 624.45 430 603.52C427.5 584.021 416 550.021 404.5 532.021C430 488.021 437 466.355 460 443.022C500 408.222 535.333 427.187 547 440.02C555.833 454.02 582.9 476.62 620.5 455.02C658.1 433.42 669.833 464.02 671 482.02C670 501.353 657.4 540.52 615 542.52C562 545.02 561.5 573.02 558.5 597.52C556.1 617.12 541.167 614.02 534 610.02C526.833 603.687 508.6 594.82 493 610.02C477.4 625.22 494.5 645.353 505 653.52C512.333 659.853 523.472 666.003 517 676.52Z" fill="#D1D4D8"/>
<path d="M695 410.522C730.2 415.722 719.777 439.521 715.5 452.022C705.1 482.422 749.263 478.021 756.5 465.521C765.667 449.688 787.6 418.421 802 420.021C816.4 421.621 825.333 410.688 828 405.022C833.6 361.022 787.333 363.688 763.5 370.522C753 376.688 726.3 387.122 703.5 379.522C680.7 371.922 663.667 373.689 658 375.522C614.5 402.522 651 404.022 695 410.522Z" fill="#D1D4D8"/>
<path d="M720.182 577.609L858.606 554.096C859.593 553.929 860.186 555.155 859.443 555.825L794.933 613.975C794.859 614.042 794.782 614.095 794.69 614.133C789.078 616.445 766.973 607.694 755.56 602.565C754.999 602.312 754.344 602.619 754.176 603.211C751.447 612.855 748.101 621.807 746.466 625.83C746.289 626.265 745.806 626.519 745.45 626.213C742.135 623.369 741.712 605.192 741.95 595.134C741.962 594.621 741.587 594.185 741.081 594.094C732.605 592.584 720.937 585.023 716.013 581.307" stroke="#D1D4D8" stroke-width="3" stroke-linecap="round"/>
<path d="M755.021 602.566C769.534 595.679 806.249 578.43 837.004 564.529" stroke="#D1D4D8" stroke-width="3" stroke-linecap="round"/>
<path d="M746.033 626.57L773.025 610.558" stroke="#D1D4D8" stroke-width="3" stroke-linecap="round"/>
<path d="M752.017 588.57L789.012 576.554" stroke="#D1D4D8" stroke-width="3" stroke-linecap="round"/>
<path d="M561.263 715.252C587.608 709.011 591.711 747.359 613.433 747.98C639.36 748.721 619.097 686.144 604.683 662.284C598.779 651.629 583.669 652.69 589.334 669.415C595.352 687.181 646.806 743.008 659.103 706.529L666.531 680.489C668.44 672.918 673.688 661.194 687.225 670.875C700.761 680.557 710.59 670.713 713.812 664.58L724.202 645.878" stroke="#D1D4D8" stroke-width="3" stroke-linecap="round"/>
<path d="M923.534 348.854C935.639 392.51 941.692 396.379 959.3 415.72C959.3 396.605 962.57 364.521 962.57 351.161C1020.22 351.161 1068.88 327.524 1086 315.706C1085.39 355.786 1122.8 381.992 1122.8 381.992C1122.8 381.992 1117.43 398.178 1114.37 434.404C1111.91 463.384 1118.97 457.783 1122.8 451.36C1133.84 415.597 1151.93 425.154 1159.6 434.404C1253.68 280.882 1109 251.219 1081.4 254.045C1060.55 236.163 1031.47 222.15 1011.02 220.095C937.29 212.682 903.905 278.066 923.534 348.854Z" fill="#D1D4D8"/>
<path d="M1122 477.638C1112.03 537.914 1045.14 581.255 996.867 532.429C948.594 483.602 958.254 394.226 963.412 352.52" stroke="#D1D4D8" stroke-width="3" stroke-linecap="round"/>
<path d="M1160.95 429.52C1166.97 444.756 1161.33 478.52 1122 478.52" stroke="#D1D4D8" stroke-width="3" stroke-linecap="round"/>
<path d="M1143.69 439.52C1144.66 442.408 1143.89 449.253 1133 453.52" stroke="#D1D4D8" stroke-width="3" stroke-linecap="round"/>
<path d="M965 470.52C952.268 465.065 943.291 444.866 946.745 412.52" stroke="#D1D4D8" stroke-width="3" stroke-linecap="round"/>
<path d="M1037 505.845C1025.21 509.043 1025.95 500.242 1017 492.52" stroke="#D1D4D8" stroke-width="3" stroke-linecap="round"/>
<ellipse rx="7.5" ry="8.5" transform="matrix(-1 0 0 1 999.5 429.02)" fill="#D1D4D8"/>
<ellipse rx="8.5" ry="8" transform="matrix(-1 0 0 1 1072.5 429.52)" fill="#D1D4D8"/>
<path d="M1091 412.52C1089.22 407.028 1081.52 396.868 1065 400.163" stroke="#D1D4D8" stroke-width="3" stroke-linecap="round"/>
<path d="M1014 401.52C1010.21 399.256 999.909 396.086 989 401.52" stroke="#D1D4D8" stroke-width="3" stroke-linecap="round"/>
<path d="M1041.03 425.52C1042.43 436.349 1043.38 458.311 1036 459.52" stroke="#D1D4D8" stroke-width="3" stroke-linecap="round"/>
<path d="M951 510.113C954.479 519.667 964.175 540.263 975.12 546.214" stroke="#D1D4D8" stroke-width="3" stroke-linecap="round"/>
<path d="M197.454 838.572C244.496 845.366 261.483 902.808 264.096 930.68C277.53 974.906 276.34 1011.63 266.871 1039.12C265.293 1046.09 269.062 1058.33 296.764 1051.53C324.467 1044.74 312.663 997.312 303.298 974.448C298.071 962.428 296.764 940.261 296.764 930.68C306.696 801.598 227.726 787.619 187 796.764C199.545 805.126 199.196 828.12 197.454 838.572Z" fill="#D1D4D8"/>
<path d="M32.8592 868.663C53.1503 764.054 174.898 768.629 211.552 800.666C252.79 852.97 147.406 982.425 118.606 970.003C98.1837 954.312 82.8588 962.811 78.6781 970.003C59.8271 1002.43 86.5327 1020.56 102.242 1025.58C98.0528 1048.07 151.988 1072.65 144.133 1089.65C102.241 1142.61 -26.0499 1056.31 4.71405 1030.15C29.3252 1009.23 27.9931 982.427 27.6235 970.003C25.6592 903.969 27.6235 898.739 32.8592 868.663Z" fill="#D1D4D8"/>
<path d="M214 1010.52C237.771 1005.38 225.225 995.091 219.943 974.52" stroke="#333333" stroke-width="5" stroke-linecap="round"/>
<ellipse cx="249.003" cy="953.926" rx="5.98134" ry="8.97201" transform="rotate(11.0109 249.003 953.926)" fill="#D1D4D8"/>
<ellipse cx="182.281" cy="970.781" rx="5.90198" ry="8.85297" transform="rotate(8.55426 182.281 970.781)" fill="#D1D4D8"/>
<path d="M93 980.52C90.7361 984.52 87.5667 994.12 93 1000.52" stroke="#333333" stroke-width="5" stroke-linecap="round"/>
<path d="M138 1082.41C192.238 1082.41 222.297 1118.16 270 1039.52" stroke="#333333" stroke-width="5" stroke-linecap="round"/>
<path d="M208 1047C220.683 1050.91 230.829 1047 234 1038.52" stroke="#333333" stroke-width="5" stroke-linecap="round"/>
<path d="M206.5 971.52C206.5 987.55 195.034 1000.02 181.5 1000.02C167.966 1000.02 156.5 987.55 156.5 971.52C156.5 955.489 167.966 943.02 181.5 943.02C195.034 943.02 206.5 955.489 206.5 971.52Z" stroke="#333333" stroke-width="5"/>
<path d="M273.5 954.52C273.5 970.55 262.034 983.02 248.5 983.02C234.966 983.02 223.5 970.55 223.5 954.52C223.5 938.489 234.966 926.02 248.5 926.02C262.034 926.02 273.5 938.489 273.5 954.52Z" stroke="#333333" stroke-width="5"/>
<path d="M223 957.998C218.929 957.136 209.629 956.835 205 962.52" stroke="#333333" stroke-width="5" stroke-linecap="round"/>
<path d="M157.421 961.761L137.172 962.414" stroke="#333333" stroke-width="5" stroke-linecap="round"/>
</svg>
