<svg width="667" height="1313" viewBox="0 0 667 1313" fill="none" xmlns="http://www.w3.org/2000/svg">
<path d="M500.5 525.02L380.5 506.52" stroke="#D1D4D8" stroke-width="3" stroke-linecap="round"/>
<path d="M385 495.52C414.4 490.861 477.902 487.286 504.656 508.53C505.914 509.53 507.883 508.89 508.228 507.32C513.231 484.538 531.886 440.326 573.5 419.52" stroke="#D1D4D8" stroke-width="3" stroke-linecap="round"/>
<path d="M508 508.02C524 485.853 562.1 440.52 596.5 434.52" stroke="#D1D4D8" stroke-width="3" stroke-linecap="round"/>
<path d="M518 521.02L604.584 453.784C605.838 452.81 607.673 453.617 607.804 455.199L619.414 595.973C619.468 596.628 619.196 597.268 618.687 597.685L597.5 615.02" stroke="#D1D4D8" stroke-width="3" stroke-linecap="round"/>
<path d="M377 515.02L402.238 645.661C402.396 646.479 403.043 647.113 403.863 647.253L506.661 664.876C507.197 664.968 507.665 665.275 508 665.704C511.635 670.351 521.406 676.638 535.5 669.02" stroke="#D1D4D8" stroke-width="3" stroke-linecap="round"/>
<path d="M502.5 642.02C504 646.02 510 652.82 522 648.02" stroke="#D1D4D8" stroke-width="3" stroke-linecap="round"/>
<path d="M497.5 619.02C505 630.52 527.5 629.02 533 615.02" stroke="#D1D4D8" stroke-width="3" stroke-linecap="round"/>
<path d="M495 590.52C501.5 598.02 517.5 606.02 530.5 588.02" stroke="#D1D4D8" stroke-width="3" stroke-linecap="round"/>
<path d="M493.5 566.02C499 573.52 519.5 575.52 525.5 562.52" stroke="#D1D4D8" stroke-width="3" stroke-linecap="round"/>
<path d="M491.5 535.52C493 543.186 504.781 553.879 518.5 547.02C524.5 544.02 526.6 536.92 523 528.52" stroke="#D1D4D8" stroke-width="3" stroke-linecap="round"/>
<path d="M612.795 609.418C615.795 626.418 614.395 663.818 584.795 677.418C555.195 691.018 536.795 665.085 531.295 650.418C530.462 647.085 530.895 641.718 539.295 646.918C545.059 650.486 552.408 655.985 558.015 660.377C559.656 661.663 562.011 659.904 561.213 657.977L543.795 615.918" stroke="#D1D4D8" stroke-width="3" stroke-linecap="round"/>
<path d="M574.295 652.919L553.295 613.419C551.295 609.086 549.095 600.319 556.295 599.919C563.495 599.519 576.628 622.419 582.295 633.919" stroke="#D1D4D8" stroke-width="3" stroke-linecap="round"/>
<path d="M582.294 633.919L572.794 595.919C571.794 591.919 571.594 585.219 578.794 590.419C585.994 595.619 594.794 625.586 598.294 639.919" stroke="#D1D4D8" stroke-width="3" stroke-linecap="round"/>
<path d="M253.43 1031.52H11.8919C9.63629 1031.52 9.10616 1028.37 11.2377 1027.63L51.6821 1013.63C51.8926 1013.56 52.1137 1013.52 52.3364 1013.52H275.985C277.998 1013.52 278.75 1016.16 277.04 1017.22L254.484 1031.22C254.168 1031.42 253.802 1031.52 253.43 1031.52Z" fill="#D1D4D8"/>
<path d="M29 1051.52C71.8333 1102.85 164.7 1218.32 193.5 1269.52" stroke="#D1D4D8" stroke-width="3" stroke-linecap="round"/>
<path d="M49.5 1273.02C83.1667 1220.52 167.2 1102.52 234 1050.52" stroke="#D1D4D8" stroke-width="3" stroke-linecap="round"/>
<path d="M91.5 1050.52C103.333 1062.02 130.3 1089.22 143.5 1106.02" stroke="#D1D4D8" stroke-width="3" stroke-linecap="round"/>
<path d="M177.5 1143.52C189.833 1159.19 215.8 1194.02 221 1208.02" stroke="#D1D4D8" stroke-width="3" stroke-linecap="round"/>
<path d="M598 400.891L605.336 384.52" stroke="#D1D4D8" stroke-width="3" stroke-linecap="round"/>
<path d="M617.453 408.097L632.779 390.77" stroke="#D1D4D8" stroke-width="3" stroke-linecap="round"/>
<path d="M634.087 421.599L665 393.109" stroke="#D1D4D8" stroke-width="3" stroke-linecap="round"/>
<path d="M360.985 1199.52C362.656 1213.42 359.314 1235.05 343.714 1242.2C324.21 1251.13 274.221 1281.4 322.215 1287.86C360.61 1293.02 391.538 1266.85 402.21 1253.12C405.876 1237.23 408.485 1218.87 402.21 1199.52" stroke="#D1D4D8" stroke-width="3" stroke-linecap="round"/>
<path d="M436.764 1173.13C265.544 1280.5 292.133 891.104 303.857 701.894C428.18 740.666 528.85 715.813 551.155 680.52C557.486 703.045 577.095 864.309 578.75 910.172L578.819 912.001C581.515 986.56 587.641 1156.5 491.033 1191.02C467.004 1199.61 449.478 1191.9 436.764 1173.13Z" fill="#D1D4D8"/>
<path d="M452.45 1200.01C451.542 1209.92 451.765 1233.03 455.416 1245.95C464.638 1278.64 492.527 1313.22 559.961 1310.35C569.046 1308.19 581.765 1299.07 559.961 1279.9C551.99 1272.9 543.351 1266.49 535.226 1259.88C515.548 1243.84 498.989 1226.56 502.932 1196.52" stroke="#D1D4D8" stroke-width="3" stroke-linecap="round"/>
<path d="M293.5 517.02C278.5 585.52 299.966 680.067 305.94 702.291C366.253 720.071 499.698 740.518 551 680.067" stroke="#D1D4D8" stroke-width="3" stroke-linecap="round"/>
<path d="M357 409.52L358.887 406.659C370.26 389.499 392.19 382.647 411.383 390.264C428.604 397.097 448.29 392.336 460.428 378.403L476 360.52" stroke="#D1D4D8" stroke-width="3" stroke-linecap="round"/>
<path d="M465.093 318.63C469.468 306.354 465.467 298.093 461.587 296.52C438.199 317.295 402.727 309.582 389.587 296.991C384.906 301.146 387.629 313.438 389.587 317.214C414.914 344.412 450.965 329.177 465.093 318.63Z" fill="#D1D4D8"/>
<path d="M534.015 116.756C523.115 155.992 517.649 159.468 501.795 176.851C501.795 159.673 498.84 130.838 498.84 118.83C446.889 118.83 403.052 97.5877 387.609 86.965C388.173 122.986 354.45 146.538 354.45 146.538C354.45 146.538 359.284 161.085 362.052 193.642C364.273 219.689 357.901 214.656 354.45 208.882C344.507 176.74 328.209 185.33 321.291 193.642C236.522 55.6684 366.887 29.0089 391.76 31.5487C410.552 15.478 436.758 2.88389 455.174 1.03659C521.629 -5.62535 551.696 53.1376 534.015 116.756Z" fill="#D1D4D8"/>
<path d="M355 233.435C363.991 288.311 424.314 327.772 467.851 283.317C511.388 238.863 502.671 157.491 498.021 119.52" stroke="#D1D4D8" stroke-width="3" stroke-linecap="round"/>
<path d="M320.794 189.52C315.514 202.891 320.469 232.52 355 232.52" stroke="#D1D4D8" stroke-width="3" stroke-linecap="round"/>
<path d="M338.193 197.52C337.581 199.995 338.071 205.863 345 209.52" stroke="#D1D4D8" stroke-width="3" stroke-linecap="round"/>
<path d="M498 225.52C509.387 220.724 517.426 202.962 514.333 174.52" stroke="#D1D4D8" stroke-width="3" stroke-linecap="round"/>
<path d="M432 258.846C442.62 262.043 441.949 253.242 450 245.52" stroke="#D1D4D8" stroke-width="3" stroke-linecap="round"/>
<path d="M466.5 196.52C470.642 196.52 474 192.938 474 188.52C474 184.101 470.642 180.52 466.5 180.52C462.358 180.52 459 184.101 459 188.52C459 192.938 462.358 196.52 466.5 196.52Z" fill="#D1D4D8"/>
<path d="M400.5 196.52C405.194 196.52 409 193.386 409 189.52C409 185.654 405.194 182.52 400.5 182.52C395.806 182.52 392 185.654 392 189.52C392 193.386 395.806 196.52 400.5 196.52Z" fill="#D1D4D8"/>
<path d="M384 172.52C385.646 168.295 392.76 160.48 408 163.015" stroke="#D1D4D8" stroke-width="3" stroke-linecap="round"/>
<path d="M454 163.52C457.634 161.256 467.526 158.086 478 163.52" stroke="#D1D4D8" stroke-width="3" stroke-linecap="round"/>
<path d="M428.799 186.52C427.648 196.075 426.848 215.453 433 216.52" stroke="#D1D4D8" stroke-width="3" stroke-linecap="round"/>
<path d="M474 322.52C513.042 338.023 540.264 365.043 565.352 406.52" stroke="#D1D4D8" stroke-width="3" stroke-linecap="round"/>
<path d="M51.4853 1012.83C60.6108 994.55 55.4392 965.542 50.7366 952.276C50.263 950.941 51.2173 949.491 52.6344 949.465L267.203 945.546C268.077 945.53 268.863 946.086 269.125 946.921C277.721 974.352 270.751 1002.76 265.686 1014.83C265.381 1015.56 264.665 1016.02 263.878 1016.02H53.3444C51.7602 1016.02 50.7777 1014.25 51.4853 1012.83Z" stroke="#D1D4D8" stroke-width="3" stroke-linecap="round"/>
<path d="M90.6719 949.02C94.3385 961.52 96.5 995.52 84.5 1015.52" stroke="#D1D4D8" stroke-width="3" stroke-linecap="round"/>
<path d="M105.672 938.52C99.5052 927.02 90.8718 901.42 105.672 887.02" stroke="#D1D4D8" stroke-width="3" stroke-linecap="round"/>
<path d="M69.6724 947.52C59.958 936.159 44.648 908.597 60.0915 888.263C60.4496 887.791 61.0144 887.513 61.6064 887.501L263.672 883.52" stroke="#D1D4D8" stroke-width="3" stroke-linecap="round"/>
<path d="M261.172 891.52C259.005 898.353 255.972 917.02 261.172 937.02" stroke="#D1D4D8" stroke-width="3" stroke-linecap="round"/>
<path d="M272.172 888.02C275.097 878.756 279.164 856.655 272.688 840.726C272.388 839.987 271.656 839.527 270.859 839.538L59.0221 842.487C57.7899 842.504 56.8651 843.615 57.053 844.833C58.4804 854.088 59.974 870.681 56.6719 878.02" stroke="#D1D4D8" stroke-width="3" stroke-linecap="round"/>
<path d="M111.5 842.52C115.167 848.853 120.572 865.62 114.172 886.02" stroke="#D1D4D8" stroke-width="3" stroke-linecap="round"/>
<path d="M106.172 835.52C108.005 830.52 110.572 817.42 106.172 805.02" stroke="#D1D4D8" stroke-width="3" stroke-linecap="round"/>
<path d="M60.1719 836.02C60.9309 830.858 60.9709 818.671 55.8328 808.076C55.1596 806.687 56.1078 804.984 57.6504 804.956L271.304 801.045C272.129 801.029 272.882 801.52 273.166 802.294C275.754 809.326 278.684 823.129 272.672 831.02" stroke="#D1D4D8" stroke-width="3" stroke-linecap="round"/>
<path d="M268.173 797.52C266.728 792.222 256.007 755.849 270.854 727.712C271.593 726.311 270.585 724.567 269.001 724.603L54.2863 729.494C53.5935 729.51 52.9562 729.879 52.6257 730.488C46.5207 741.741 38.8042 770.401 53.1718 803.02" stroke="#D1D4D8" stroke-width="3" stroke-linecap="round"/>
<path d="M96.1719 728.52C92.0052 742.186 86.8719 774.22 99.6719 793.02" stroke="#D1D4D8" stroke-width="3" stroke-linecap="round"/>
<path d="M60.1719 729.52C62.7314 726.48 67.0105 716.102 64.5209 698.296C64.3528 697.093 65.2547 695.99 66.4683 695.957L266.189 690.56C267.07 690.536 267.867 691.085 268.087 691.938C269.688 698.136 270.423 710.685 262.672 721.02" stroke="#D1D4D8" stroke-width="3" stroke-linecap="round"/>
<path d="M231.499 668.393C222.833 673.726 208.1 686.293 220.5 687.893H255C263 681.559 276.9 664.993 268.5 649.393C258 629.893 186.5 637.893 127 686.393" stroke="#D1D4D8" stroke-width="3" stroke-linecap="round"/>
<path d="M219.5 674.891C213.833 675.724 201 679.291 195 686.891" stroke="#D1D4D8" stroke-width="3" stroke-linecap="round"/>
<path d="M266 625.538C239.72 618.724 197.333 642.702 173.883 636.607C172.825 636.332 172.263 635.245 172.606 634.207C203.69 540.182 256.762 360.231 373.5 316.02" stroke="#D1D4D8" stroke-width="3" stroke-linecap="round"/>
<path d="M85.1719 696.52C87.6719 700.52 91.1719 712.32 85.1719 727.52" stroke="#D1D4D8" stroke-width="3" stroke-linecap="round"/>
</svg>
