<svg width="1239" height="841" viewBox="0 0 1239 841" fill="none" xmlns="http://www.w3.org/2000/svg">
<path d="M253 120.422C239.724 165.453 215.284 259.696 223.738 276.422" stroke="#D1D4D8" stroke-width="3" stroke-linecap="round"/>
<path d="M228.271 132.991L251.201 118.745C252.04 118.224 253.133 118.392 253.775 119.142L270.027 138.108C270.674 138.862 271.776 139.028 272.615 138.497L324.224 105.849C332.265 99.4537 332.132 93.6518 329.049 89.8614C323.56 83.1132 307.573 80.762 297.481 81.0147C296.637 81.0359 295.918 81.6068 295.674 82.4144L291.538 96.1203C291.36 96.7105 290.91 97.1907 290.333 97.4076C262.656 107.813 245.198 101.055 238.678 92.1679C238.352 91.7228 238.257 91.1553 238.384 90.6182L240.876 80.091C241.154 78.9149 240.34 77.762 239.134 77.6736C225.472 76.6714 202 78.1609 202 91.46C202 104.929 217.232 123.869 225.822 132.707C226.468 133.372 227.483 133.481 228.271 132.991Z" fill="#D1D4D8"/>
<path d="M164.261 234.581C170.733 165.638 191.497 108.669 201.474 89.6073C204.71 82.3586 212.477 77.3651 220.89 76.7208C231.407 75.9154 311.793 76.0343 331.721 86.3857C350.328 96.0505 347.092 96.0506 342.238 150.013C338.355 193.183 322.823 250.689 315.542 274.046C310.688 286.932 281.402 297.886 251.632 286.932C214.418 273.24 225.744 280.489 191.766 274.046C164.584 268.891 163.127 246.662 164.261 234.581Z" stroke="#D1D4D8" stroke-width="3"/>
<path d="M345 117.491C339.712 111.824 327.71 106.156 321.999 128.827C314.861 157.166 298.872 220.46 297.41 228.418C295.03 241.373 294.239 275.379 306.929 255.137C317.081 238.944 328.873 170.93 332.31 138.543" stroke="#D1D4D8" stroke-width="3" stroke-linecap="round"/>
<ellipse cx="258.45" cy="140.509" rx="4.0355" ry="6.4546" transform="rotate(13.2587 258.45 140.509)" fill="#D1D4D8"/>
<ellipse cx="249.334" cy="173.536" rx="4.0355" ry="6.4546" transform="rotate(13.2587 249.334 173.536)" fill="#D1D4D8"/>
<ellipse cx="241.266" cy="212.263" rx="4.0355" ry="6.4546" transform="rotate(13.2587 241.266 212.263)" fill="#D1D4D8"/>
<ellipse cx="234.811" cy="252.607" rx="4.0355" ry="6.4546" transform="rotate(13.2587 234.811 252.607)" fill="#D1D4D8"/>
<path fill-rule="evenodd" clip-rule="evenodd" d="M55.1557 110.196C53.6122 109.758 51.9976 110.612 51.491 112.135L47.8471 123.084C47.4985 124.132 46.603 124.903 45.5157 125.093L34.147 127.074C32.5664 127.35 31.4824 128.82 31.6865 130.411L33.1543 141.857C33.2947 142.952 32.8225 144.036 31.9251 144.678L22.542 151.396C21.2375 152.33 20.8987 154.125 21.773 155.47L28.0618 165.146C28.6634 166.072 28.7081 167.253 28.1783 168.221L22.6392 178.345C21.8692 179.753 22.3428 181.517 23.7141 182.349L33.5784 188.338C34.5219 188.911 35.0746 189.956 35.0174 191.058L34.4195 202.583C34.3364 204.185 35.5285 205.569 37.1254 205.724L48.6114 206.84C49.71 206.947 50.6612 207.648 51.088 208.666L55.5496 219.309C56.1699 220.789 57.8444 221.518 59.3504 220.965L70.1832 216.987C71.2193 216.607 72.3807 216.826 73.2069 217.558L81.8444 225.211C83.0452 226.275 84.8705 226.206 85.9874 225.054L94.0214 216.77C94.7898 215.977 95.9313 215.671 96.9932 215.972L108.096 219.119C109.639 219.557 111.254 218.703 111.761 217.18L115.404 206.231C115.753 205.183 116.649 204.412 117.736 204.223L129.105 202.241C130.685 201.966 131.769 200.495 131.565 198.904L130.097 187.458C129.957 186.363 130.429 185.279 131.326 184.637L140.71 177.919C142.014 176.985 142.353 175.19 141.479 173.845L135.19 164.169C134.588 163.243 134.543 162.062 135.073 161.094L140.612 150.97C141.382 149.563 140.909 147.798 139.537 146.966L129.673 140.977C128.73 140.404 128.177 139.359 128.234 138.257L128.832 126.732C128.915 125.13 127.723 123.746 126.126 123.591L114.64 122.475C113.542 122.368 112.59 121.667 112.164 120.649L107.702 110.006C107.082 108.526 105.407 107.797 103.901 108.35L93.0683 112.328C92.0322 112.708 90.8708 112.489 90.0447 111.757L81.4072 104.104C80.2064 103.04 78.381 103.109 77.2641 104.261L69.2301 112.545C68.4617 113.338 67.3203 113.644 66.2583 113.343L55.1557 110.196ZM66.2137 155.842C67.376 158.039 66.5374 160.762 64.3406 161.924C62.1439 163.086 59.4208 162.248 58.2585 160.051C57.0962 157.854 57.9348 155.131 60.1316 153.969C62.3283 152.806 65.0514 153.645 66.2137 155.842ZM70.6332 153.503C73.0869 158.141 71.3165 163.89 66.6789 166.343C62.0414 168.797 56.2927 167.027 53.839 162.389C51.3853 157.752 53.1557 152.003 57.7933 149.549C62.4308 147.096 68.1795 148.866 70.6332 153.503ZM104.004 174.879C106.201 173.716 107.039 170.993 105.877 168.797C104.715 166.6 101.992 165.761 99.7948 166.924C97.5981 168.086 96.7595 170.809 97.9218 173.006C99.0841 175.202 101.807 176.041 104.004 174.879ZM106.342 179.298C110.98 176.845 112.75 171.096 110.296 166.458C107.843 161.821 102.094 160.05 97.4565 162.504C92.8189 164.958 91.0485 170.706 93.5023 175.344C95.956 179.982 101.705 181.752 106.342 179.298ZM83.1468 140.507C83.0646 139.129 81.8807 138.078 80.5025 138.16C79.1242 138.243 78.0735 139.426 78.1556 140.805L80.9885 188.339C81.0706 189.718 82.2545 190.768 83.6328 190.686C85.011 190.604 86.0618 189.42 85.9796 188.042L83.1468 140.507Z" fill="#D1D4D8"/>
<path d="M469.5 94.9219C469.5 118.102 450.488 136.922 427 136.922C403.512 136.922 384.5 118.102 384.5 94.9219C384.5 71.742 403.512 52.9219 427 52.9219C450.488 52.9219 469.5 71.742 469.5 94.9219Z" stroke="#D1D4D8" stroke-width="3"/>
<path d="M427 114.422V120.422" stroke="#D1D4D8" stroke-width="3" stroke-linecap="round"/>
<path d="M427 75.4219V69.4219" stroke="#D1D4D8" stroke-width="3" stroke-linecap="round"/>
<path d="M438 78.072C435.238 76.695 431.043 75.407 427.122 75.422C422.395 75.44 418.064 77.3506 417.113 83.2786C415.858 91.0971 425.37 93.9039 431.037 96.729C438.871 100.634 438.8 107.955 434.084 111.481C431.963 113.068 429.554 113.938 427.122 114.267C423.565 114.748 419.955 114.071 417.113 112.783" stroke="#D1D4D8" stroke-width="3" stroke-linecap="round"/>
<path d="M142.762 402.794C119.548 412.298 120.695 444.537 124.345 460.49C124.498 461.16 125.006 461.691 125.66 461.901C177.257 478.442 217.493 453.123 231.988 437.606C232.435 437.128 232.596 436.473 232.428 435.839C230.311 427.892 224.087 413.828 220.219 407.763C207.37 389.961 172.44 390.643 142.762 402.794Z" stroke="#D1D4D8" stroke-width="3" stroke-linecap="round"/>
<path d="M233.039 437.131C255.211 440.932 278.512 450.869 271.541 467.132C264.041 484.632 192.794 517.712 139.05 508.651C114.213 504.919 76.0408 487.961 124.041 461.631" stroke="#D1D4D8" stroke-width="3" stroke-linecap="round"/>
<path d="M1201.66 723.477C1214.18 736.209 1230.23 764.032 1194.29 773.477" stroke="#D1D4D8" stroke-width="3" stroke-linecap="round"/>
<path d="M1202.29 750.477C1200.15 739.326 1191.38 718.296 1172.46 711.543C1169.35 710.433 1165.96 709.709 1162.29 709.477" stroke="#D1D4D8" stroke-width="3" stroke-linecap="round"/>
<path d="M1180.38 646.477C1155.5 663.033 1114.64 706.601 1150.24 748.42C1185.85 790.238 1199.78 793.904 1202.29 790.51" stroke="#D1D4D8" stroke-width="3" stroke-linecap="round"/>
<path d="M1208.29 679.477L1172.29 711.477" stroke="#D1D4D8" stroke-width="3" stroke-linecap="round"/>
<path d="M1172.29 643.477C1174.5 643.726 1177.32 644.532 1180.48 646.08C1189.18 650.331 1200.49 660.182 1208.9 679.464C1211.31 684.995 1213.49 691.303 1215.29 698.477" stroke="#D1D4D8" stroke-width="3" stroke-linecap="round"/>
<path d="M1176.29 633.477C1192.03 635.477 1224.46 644.677 1228.29 665.477" stroke="#D1D4D8" stroke-width="3" stroke-linecap="round"/>
<path d="M1182.29 622.73C1190.13 620.532 1209.31 618.005 1223.29 625.477" stroke="#D1D4D8" stroke-width="3" stroke-linecap="round"/>
<path d="M568.283 139.391L631.562 227.78" stroke="#D1D4D8" stroke-width="3" stroke-linecap="round"/>
<path d="M573.691 221.594L605.255 248.686" stroke="#D1D4D8" stroke-width="3" stroke-linecap="round"/>
<path d="M595.5 284.891L504.5 251.391" stroke="#D1D4D8" stroke-width="3" stroke-linecap="round"/>
<path d="M543.266 321.626L586.104 320.164" stroke="#D1D4D8" stroke-width="3" stroke-linecap="round"/>
<path d="M481 382.07L597.917 353.352" stroke="#D1D4D8" stroke-width="3" stroke-linecap="round"/>
<path d="M721.759 320.739C715.772 343.082 705.372 361.847 693.521 374.144C681.601 386.514 668.678 391.926 657.423 388.91C646.167 385.894 637.682 374.746 633.544 358.074C629.43 341.498 629.805 320.047 635.792 297.704C641.778 275.361 652.179 256.596 664.03 244.299C675.95 231.929 688.872 226.517 700.128 229.533C711.383 232.548 719.868 243.697 724.007 260.369C728.121 276.945 727.746 298.396 721.759 320.739Z" stroke="#D1D4D8" stroke-width="3"/>
<path d="M671.029 322.673C675.297 323.817 680.495 318.257 682.639 310.255C684.783 302.253 683.062 294.839 678.794 293.696C674.526 292.552 669.328 298.112 667.184 306.114C665.04 314.116 666.762 321.53 671.029 322.673Z" fill="#D1D4D8"/>
<path d="M851.658 371.073C857.234 362.628 859.072 348.558 859.293 342.578L872.842 351.903C877.057 360.9 871.492 367.243 868.183 369.289L851.658 371.073Z" fill="#D1D4D8"/>
<path d="M671.498 388.54L868.182 369.289M872.841 351.903L706.63 232.309L872.841 351.903Z" stroke="#D1D4D8" stroke-width="3" stroke-linecap="round"/>
<path d="M671.324 319.646L711.486 347.489M677.536 296.464L725.721 294.363L677.536 296.464Z" stroke="#D1D4D8" stroke-width="3" stroke-linecap="round"/>
<path d="M882.471 642.922L841.737 683.993C808.448 713.863 786.471 690.891 772.97 678.6C758.971 658.891 736.971 634.27 736.971 551.891C736.971 500.391 749.471 475.299 799.971 494.299" stroke="#D1D4D8" stroke-width="3" stroke-linecap="round"/>
<path d="M872.842 351.902C874.524 355.286 875.946 363.501 868.184 369.289" stroke="#D1D4D8" stroke-width="3" stroke-linecap="round"/>
<path d="M858.456 341.836C858.717 347.945 856.919 361.094 850.691 370.813" stroke="#D1D4D8" stroke-width="3" stroke-linecap="round"/>
<path d="M966.471 432.891C931.971 432.891 853.971 450.891 821.971 524.391" stroke="#D1D4D8" stroke-width="3" stroke-linecap="round"/>
<path d="M733.193 435.613C730.912 438.536 728.438 445.685 735.296 452.259C735.804 452.746 736.363 453.23 736.978 453.709C745.884 460.651 750.268 454.337 751.346 450.312" stroke="#D1D4D8" stroke-width="3" stroke-linecap="round"/>
<path d="M760.399 437.775C763.086 444.747 757.87 446.571 754.926 446.611C754.228 446.53 753.388 446.399 752.445 446.21C747.286 445.175 739.058 442.42 734.228 436.924C733.831 436.472 733.488 436.035 733.193 435.611C729.245 429.934 734.066 426.741 737.204 425.816" stroke="#D1D4D8" stroke-width="3" stroke-linecap="round"/>
<path d="M742.371 414.262C739.462 414.173 734.08 415.457 735.825 421.308C737.57 427.159 752.299 434.522 759.446 437.472C759.757 437.59 760.076 437.693 760.399 437.778C763.325 438.55 766.582 437.886 767.631 433.971C769.113 428.439 762.532 424.668 761.008 423.915" stroke="#D1D4D8" stroke-width="3" stroke-linecap="round"/>
<path d="M763.675 402.367C760.636 402.76 757.158 406.211 762.794 411.448C768.431 416.686 765.585 420.996 763.458 422.496C760.278 424.06 751.481 423.532 741.734 408.911C731.986 394.29 754.818 392.919 767.453 394.062" stroke="#D1D4D8" stroke-width="3" stroke-linecap="round"/>
<path d="M788.097 421.336C783.788 415.523 774.761 406.582 773.125 417.325C771.489 428.067 777.646 434.583 780.929 436.498" stroke="#D1D4D8" stroke-width="3" stroke-linecap="round"/>
<path d="M776.961 470.633C774.796 467.12 772.268 456.849 779.472 443.871" stroke="#D1D4D8" stroke-width="3" stroke-linecap="round"/>
<path d="M776.071 379.289L763.666 410.13" stroke="#D1D4D8" stroke-width="3" stroke-linecap="round"/>
<path d="M786.934 425.684L810.699 375.629" stroke="#D1D4D8" stroke-width="3" stroke-linecap="round"/>
<path d="M743.342 464.731C740.883 473.907 733.301 484.817 742.184 490.303C753.03 497.001 757.165 486.552 762.556 476.091L777.764 444.449" stroke="#D1D4D8" stroke-width="3" stroke-linecap="round"/>
<path d="M795.971 413.891C801.304 432.724 801.471 471.299 801.471 547.799" stroke="#D1D4D8" stroke-width="3" stroke-linecap="round"/>
<path d="M1127.53 612.891C1151.97 671.391 1118.47 722.891 1127.53 820.391C1066.86 838.391 932.626 859.091 881.026 797.891C878.692 787.224 881.026 726.891 881.026 687.891" stroke="#D1D4D8" stroke-width="3" stroke-linecap="round"/>
<path d="M1076.02 525.391L1067.99 513.065C1060.17 501.053 1044.94 496.257 1031.64 501.619L1012.5 509.335C1000.56 514.149 986.882 510.81 978.504 501.036L956.523 475.391" stroke="#D1D4D8" stroke-width="3" stroke-linecap="round"/>
<path d="M965.524 434.806C961.024 421.806 965.123 413.057 969.123 411.391C993.123 433.391 1029.52 425.224 1043.02 411.891C1047.82 416.291 1045.02 429.306 1043.02 433.306C1017.02 462.106 980.024 445.972 965.524 434.806Z" fill="#D1D4D8"/>
<path d="M896.582 230.411C907.582 269.911 913.082 273.411 929.082 290.911C929.082 273.616 932.053 244.587 932.053 232.499C984.442 232.499 1028.66 211.112 1044.21 200.419C1043.66 236.683 1077.65 260.394 1077.65 260.394C1077.65 260.394 1072.78 275.039 1069.99 307.816C1067.76 334.037 1074.17 328.97 1077.65 323.158C1087.68 290.8 1104.13 299.447 1111.09 307.816C1196.58 168.911 1065.11 142.072 1040.03 144.629C1021.09 128.45 994.659 115.771 976.082 113.911C909.082 107.204 878.745 166.363 896.582 230.411Z" fill="#D1D4D8"/>
<path d="M1076.48 347.879C1067.48 402.824 1007.07 442.334 963.481 397.824C919.889 353.315 928.612 271.843 933.269 233.824" stroke="#D1D4D8" stroke-width="3" stroke-linecap="round"/>
<path d="M1112.08 304.41C1117.58 317.91 1112.42 347.825 1076.48 347.825" stroke="#D1D4D8" stroke-width="3" stroke-linecap="round"/>
<path d="M1096.23 311.824C1097.02 314.713 1096.39 321.558 1087.48 325.824" stroke="#D1D4D8" stroke-width="3" stroke-linecap="round"/>
<path d="M934.481 340.824C922.751 335.934 914.481 317.824 917.662 288.824" stroke="#D1D4D8" stroke-width="3" stroke-linecap="round"/>
<path d="M960.799 305.649C957.468 304.311 956.166 299.743 957.892 295.447C959.618 291.152 963.718 288.754 967.049 290.092C970.38 291.431 971.681 295.998 969.955 300.294C968.229 304.59 964.13 306.987 960.799 305.649Z" fill="#D1D4D8"/>
<path d="M1021.96 307.373C1018.58 306.163 1017.01 301.927 1018.45 297.912C1019.88 293.897 1023.79 291.623 1027.17 292.833C1030.55 294.043 1032.12 298.278 1030.68 302.294C1029.25 306.309 1025.34 308.583 1021.96 307.373Z" fill="#D1D4D8"/>
<path d="M1048.48 287.828C1046.9 283.181 1040.09 274.585 1025.48 277.373" stroke="#D1D4D8" stroke-width="3" stroke-linecap="round"/>
<path d="M978.48 278.828C974.995 275.81 965.516 271.584 955.48 278.828" stroke="#D1D4D8" stroke-width="3" stroke-linecap="round"/>
<path d="M987.277 300.477C986.112 310.351 978.47 331.477 991.47 331.477" stroke="#D1D4D8" stroke-width="3" stroke-linecap="round"/>
<path d="M1044.47 429.391C1143.97 429.391 1268.47 533.891 1229.66 664.391" stroke="#D1D4D8" stroke-width="3" stroke-linecap="round"/>
<path d="M1118.79 573.977C1123.29 578.81 1133.29 592.177 1137.29 606.977C1141.29 621.777 1152.62 632.143 1157.79 635.477" stroke="#D1D4D8" stroke-width="3" stroke-linecap="round"/>
<path d="M339.221 435.631C340.372 469.4 373.521 485.928 391.96 490.601C392.812 490.817 393.004 491.959 392.276 492.453C359.196 514.913 345.825 522.59 351.221 572.131C355.621 612.531 297.054 615.964 267.221 612.631C234.721 610.631 158.721 606.431 114.721 605.631C70.7207 604.831 50.3874 555.298 45.7207 530.631C43.7207 512.298 38.4207 456.331 33.2207 379.131C26.7207 282.631 165.221 294.131 262.221 310.131C359.221 326.131 337.721 391.631 339.221 435.631Z" stroke="#D1D4D8" stroke-width="3" stroke-linecap="round"/>
<path d="M81.0006 90.9233C80.1672 59.09 102.799 0.822905 175.999 2.42291C267.499 4.42291 372.499 7.4229 400.499 59.4229" stroke="#D1D4D8" stroke-width="3" stroke-linecap="round"/>
<path d="M77.9999 230.422C74.9999 251.922 76.7993 299.622 83.9993 308.422" stroke="#D1D4D8" stroke-width="3" stroke-linecap="round"/>
<path d="M346 400.922C366.167 407.422 407.3 408.522 410.5 360.922C413.412 317.604 430.624 297.502 441.108 291.347C441.956 290.85 441.849 289.269 440.955 288.861C433.566 285.487 423.409 275.227 425.5 252.922C428.5 220.922 432.5 161.422 425.5 135.422" stroke="#D1D4D8" stroke-width="3" stroke-linecap="round"/>
<path d="M1003.71 367.21C1003 371.186 1001.34 374.485 999.359 376.623C997.359 378.785 995.308 379.516 993.635 379.216C991.961 378.917 990.292 377.52 989.166 374.798C988.053 372.107 987.641 368.437 988.353 364.461C989.064 360.485 990.724 357.186 992.702 355.048C994.702 352.886 996.753 352.155 998.426 352.455C1000.1 352.754 1001.77 354.151 1002.9 356.873C1004.01 359.564 1004.42 363.234 1003.71 367.21Z" stroke="#D1D4D8" stroke-width="3"/>
</svg>
