<svg width="1259" height="1290" viewBox="0 0 1259 1290" fill="none" xmlns="http://www.w3.org/2000/svg">
<path d="M1014.67 392.818C1022.69 421.738 1026.71 424.301 1038.38 437.113C1038.38 424.451 1040.55 403.196 1040.55 394.346C1078.77 394.346 1111.03 378.688 1122.39 370.859C1121.98 397.41 1146.78 414.77 1146.78 414.77C1146.78 414.77 1143.23 425.492 1141.19 449.49C1139.57 468.688 1144.24 464.978 1146.78 460.723C1154.1 437.032 1166.1 443.363 1171.18 449.49C1233.56 347.79 1137.64 328.14 1119.34 330.012C1105.51 318.166 1086.23 308.883 1072.67 307.522C1023.79 302.611 1001.66 345.925 1014.67 392.818Z" fill="#D1D4D8"/>
<path d="M1146 478.553C1139.4 518.737 1095.07 547.631 1063.09 515.08C1031.11 482.529 1037.51 422.945 1040.92 395.141" stroke="#D1D4D8" stroke-width="3" stroke-linecap="round"/>
<path d="M1172.6 446.141C1176.71 456.402 1172.86 479.141 1146 479.141" stroke="#D1D4D8" stroke-width="3" stroke-linecap="round"/>
<path d="M1160.8 453.141C1161.42 454.998 1160.93 459.398 1154 462.141" stroke="#D1D4D8" stroke-width="3" stroke-linecap="round"/>
<path d="M1042 474.141C1033.96 470.473 1028.29 456.891 1030.47 435.141" stroke="#D1D4D8" stroke-width="3" stroke-linecap="round"/>
<path d="M1090 496.707C1082.33 498.763 1082.82 493.105 1077 488.141" stroke="#D1D4D8" stroke-width="3" stroke-linecap="round"/>
<ellipse rx="5" ry="6" transform="matrix(-1 0 0 1 1065 446.141)" fill="#D1D4D8"/>
<circle r="5.5" transform="matrix(-1 0 0 1 1113.5 446.641)" fill="#D1D4D8"/>
<path d="M1126 435.141C1124.83 431.339 1119.8 424.305 1109 426.586" stroke="#D1D4D8" stroke-width="3" stroke-linecap="round"/>
<path d="M1075 428.141C1072.42 426.631 1065.42 424.518 1058 428.141" stroke="#D1D4D8" stroke-width="3" stroke-linecap="round"/>
<path d="M1092.35 444.141C1093.29 451.148 1093.92 465.358 1089 466.141" stroke="#D1D4D8" stroke-width="3" stroke-linecap="round"/>
<path d="M815.986 904.141C816.216 894.566 813.711 872.049 801.855 858.579C787.034 841.741 786 831.506 786 800.141" stroke="#D1D4D8" stroke-width="3" stroke-linecap="round"/>
<path d="M822 810.141C816.772 809.153 807.884 802.571 814.158 784.141" stroke="#D1D4D8" stroke-width="3" stroke-linecap="round"/>
<path d="M893 810.141C905.43 802.814 925.381 784.814 905.741 771.429C903.048 769.46 896.729 768.279 893 779.302" stroke="#D1D4D8" stroke-width="3" stroke-linecap="round"/>
<path d="M902 782.141C901.793 785.266 899.703 791.641 893 792.141" stroke="#D1D4D8" stroke-width="3" stroke-linecap="round"/>
<path d="M863 762.141C860.436 760.631 853.846 758.518 848 762.141" stroke="#D1D4D8" stroke-width="3" stroke-linecap="round"/>
<path d="M804 765.141C800.923 764.386 793.015 763.33 786 765.141" stroke="#D1D4D8" stroke-width="3" stroke-linecap="round"/>
<path d="M881.815 687.334C956.166 695.108 933.448 751.777 912.795 779.141C908.576 769.759 900.271 769.424 896.646 770.429C893.218 717.624 860.503 724.749 844.574 734.913C811.353 733.572 803.048 746.863 803.048 753.676C788.648 744.544 776.454 755.266 775.465 757.611C738.554 648.248 831.281 665.555 881.815 687.334Z" fill="#D1D4D8"/>
<path d="M829.5 774.641C829.5 787.924 840.049 798.641 853 798.641C865.951 798.641 876.5 787.924 876.5 774.641C876.5 761.358 865.951 750.641 853 750.641C840.049 750.641 829.5 761.358 829.5 774.641Z" stroke="#D1D4D8" stroke-width="3"/>
<ellipse rx="5.5" ry="7" transform="matrix(-1 0 0 1 853.5 779.141)" fill="#D1D4D8"/>
<circle r="24" transform="matrix(-1 0 0 1 792.5 774.641)" stroke="#D1D4D8" stroke-width="3"/>
<circle r="7" transform="matrix(-1 0 0 1 792 779.141)" fill="#D1D4D8"/>
<path d="M816 774.141H829" stroke="#D1D4D8" stroke-width="3" stroke-linecap="round"/>
<path d="M877 771.141L894 775.141" stroke="#D1D4D8" stroke-width="3" stroke-linecap="round"/>
<path d="M812 831.141C815.843 834.914 826.824 840.196 840 831.141" stroke="#D1D4D8" stroke-width="3" stroke-linecap="round"/>
<path d="M639.086 95.3956C607.971 99.9073 596.736 138.054 595.007 156.564C586.122 185.934 586.909 210.321 593.172 228.578C594.216 233.205 591.723 241.332 573.4 236.82C555.077 232.309 562.884 200.813 569.078 185.63C572.536 177.647 573.4 162.927 573.4 156.564C566.831 70.8414 619.063 61.5577 646 67.6312C637.703 73.1841 637.933 88.4545 639.086 95.3956Z" fill="#D1D4D8"/>
<path d="M748.143 115.813C734.647 46.1806 653.665 49.226 629.284 70.551C601.855 105.367 671.952 191.538 691.108 183.269C704.692 172.824 714.886 178.482 717.667 183.269C730.206 204.855 712.442 216.925 701.993 220.262C704.779 235.233 668.904 251.596 674.128 262.912C701.993 298.163 787.327 240.716 766.864 223.308C750.494 209.382 751.38 191.539 751.626 183.269C752.933 139.314 751.626 135.833 748.143 115.813Z" fill="#D1D4D8"/>
<path d="M628 210.141C612.719 206.712 620.784 199.855 624.18 186.141" stroke="#D1D4D8" stroke-width="3" stroke-linecap="round"/>
<ellipse rx="3.97019" ry="5.95529" transform="matrix(-0.981591 0.190995 0.190995 0.981591 604.76 172.401)" fill="#D1D4D8"/>
<ellipse rx="3.91752" ry="5.87628" transform="matrix(-0.988875 0.148746 0.148746 0.988875 649.049 183.589)" fill="#D1D4D8"/>
<path d="M708 190.141C709.509 192.741 711.622 198.981 708 203.141" stroke="#D1D4D8" stroke-width="3" stroke-linecap="round"/>
<path d="M678 257.737C642.252 257.737 622.441 281.567 591 229.141" stroke="#D1D4D8" stroke-width="3" stroke-linecap="round"/>
<path d="M632 234.075C623.707 236.814 617.073 234.075 615 228.141" stroke="#D1D4D8" stroke-width="3" stroke-linecap="round"/>
<path d="M632.5 184.141C632.5 195.094 640.284 203.641 649.5 203.641C658.716 203.641 666.5 195.094 666.5 184.141C666.5 173.187 658.716 164.641 649.5 164.641C640.284 164.641 632.5 173.187 632.5 184.141Z" stroke="#D1D4D8" stroke-width="3"/>
<path d="M588.5 172.641C588.5 183.323 596.065 191.641 605 191.641C613.935 191.641 621.5 183.323 621.5 172.641C621.5 161.958 613.935 153.641 605 153.641C596.065 153.641 588.5 161.958 588.5 172.641Z" stroke="#D1D4D8" stroke-width="3"/>
<path d="M622 175.427C624.714 174.911 630.914 174.73 634 178.141" stroke="#D1D4D8" stroke-width="3" stroke-linecap="round"/>
<path d="M665.55 177.602L678.99 178.035" stroke="#D1D4D8" stroke-width="3" stroke-linecap="round"/>
<path d="M184.326 371.399C213.323 373.184 213.581 344.797 210.086 330.382C175.208 315.689 194.051 280.218 202.879 293.506C209.941 304.136 218.719 304.201 222.227 302.904C236.984 300.022 230.249 278.176 225.036 267.613L250.435 244.889C257.006 247.518 274.893 245.595 293.886 216.871C312.881 188.148 294.065 165.771 282.284 158.173C269.253 151.343 230.666 144.613 180.572 172.329C130.476 200.045 125.641 253.02 129.485 276.043C135.683 307.084 155.328 369.614 184.326 371.399Z" fill="#D1D4D8"/>
<path d="M246.69 247.195C266.579 271.106 302.345 331.077 286.291 379.679C281.511 390.794 266.725 413.692 233.578 418.591" stroke="#D1D4D8" stroke-width="3" stroke-linecap="round"/>
<path d="M180.625 378.32C184.161 397.682 184.814 401.262 185.663 423.234" stroke="#D1D4D8" stroke-width="3" stroke-linecap="round"/>
<path d="M271.262 285.004C286.982 296.203 312.64 320.74 289.494 329.297" stroke="#D1D4D8" stroke-width="3" stroke-linecap="round"/>
<path d="M254.869 269.918C250.989 271.658 243.26 277.703 243.376 287.959" stroke="#D1D4D8" stroke-width="3" stroke-linecap="round"/>
<path d="M212.462 306.973C210.612 310.263 209.068 317.194 217.687 318.605" stroke="#D1D4D8" stroke-width="3" stroke-linecap="round"/>
<path d="M287.263 365.527C283.335 362.994 275.495 355.855 275.553 347.559" stroke="#D1D4D8" stroke-width="3" stroke-linecap="round"/>
<path d="M241.538 325.877C239.867 325.479 238.834 323.802 239.232 322.132C239.63 320.461 241.308 319.429 242.979 319.827C244.651 320.224 245.683 321.901 245.285 323.572C244.887 325.242 243.21 326.274 241.538 325.877Z" fill="#D1D4D8"/>
<path d="M259.522 295.632C257.42 296.076 255.212 294.053 254.59 291.113C253.968 288.172 255.166 285.429 257.268 284.984C259.369 284.54 261.577 286.563 262.199 289.503C262.822 292.444 261.623 295.187 259.522 295.632Z" fill="#D1D4D8"/>
<path d="M251.556 344.244C249.884 343.846 248.852 342.169 249.25 340.499C249.648 338.828 251.325 337.796 252.997 338.194C254.668 338.592 255.701 340.268 255.303 341.939C254.905 343.61 253.227 344.642 251.556 344.244Z" fill="#D1D4D8"/>
<path d="M232.388 350.869C230.716 350.471 229.684 348.794 230.082 347.124C230.48 345.453 232.157 344.421 233.829 344.819C235.5 345.217 236.533 346.893 236.135 348.564C235.737 350.235 234.059 351.267 232.388 350.869Z" fill="#D1D4D8"/>
<path d="M101.487 639.223C113.309 667.208 160.857 663.321 183.153 657.88L191.708 654.77V664.099L176.153 667.208C167.857 669.798 150.953 680.424 149.709 702.19C148.153 729.398 155.153 802.472 158.264 821.906C160.753 837.454 172.784 843.413 178.486 844.45C187.197 861.241 222.042 856.628 238.375 852.224C239.62 864.04 250.302 862.847 255.486 860.775C256.108 865.128 262.486 865.18 265.597 864.662C284.886 943.021 280.375 1086.47 275.708 1148.4C276.746 1165.25 271.353 1198 241.486 1194.27C211.62 1190.54 159.042 1195.82 136.487 1198.93C99.7754 1205.77 88.005 1182.61 86.7088 1170.17C56.8421 1180.74 39.5235 1168.87 34.5977 1161.62C43.3088 903.531 82.8199 705.817 101.487 639.223Z" fill="#D1D4D8"/>
<path d="M137.667 1289.01C234.111 1292.9 280 1273.56 280 1260.25C280 1254.81 283.111 1249.37 261.333 1241.59C270.667 1254.29 267.244 1278.44 178.889 1273.46C164.629 1274.24 132.533 1270.51 118.222 1249.37H111.222C41.2222 1231.49 0 1246.16 0 1259.47C0 1272.78 57.5556 1285.78 137.667 1289.01Z" fill="#D1D4D8"/>
<path d="M188.598 1210.93C188.598 1214.3 189.376 1221.66 192.487 1224.15C196.376 1227.26 266.376 1219.48 264.82 1254.47C265.598 1259.39 257.82 1266.9 239.154 1269.24C212.899 1272.52 137.639 1282.09 119.592 1249.03L110.043 1213.27" stroke="#D1D4D8" stroke-width="3" stroke-linecap="round"/>
<path d="M119.592 1249.03C67.4982 1254 60.9277 1212.23 64.1541 1190.72" stroke="#D1D4D8" stroke-width="3" stroke-linecap="round"/>
<path d="M131.443 484.086C67.6656 513.626 -10.1122 651.999 69.9989 714.967" stroke="#D1D4D8" stroke-width="3" stroke-linecap="round"/>
<path d="M208.044 479.859C234.489 493.334 290.955 562.572 305.266 731.729C306.304 751.941 297.178 792.365 252.378 792.365C207.578 792.365 190.155 671.871 184.711 612.013" stroke="#D1D4D8" stroke-width="3" stroke-linecap="round"/>
<path d="M103.82 647.77C111.598 607.087 129.643 511.885 152.043 481.412C153.339 463.532 158.666 432.778 180.444 435.11C196.777 435.11 238.376 445.031 238.376 476.748V503.956" stroke="#D1D4D8" stroke-width="3" stroke-linecap="round"/>
<path d="M284.266 786.145C285.043 797.286 289.555 820.66 301.377 825.013C316.155 830.455 303.71 852.222 295.932 857.663" stroke="#D1D4D8" stroke-width="3" stroke-linecap="round"/>
<path d="M295.931 825.016C297.747 837.454 296.865 862.33 278.82 862.33" stroke="#D1D4D8" stroke-width="3" stroke-linecap="round"/>
<path d="M278.822 837.453C280.378 845.745 278.978 862.329 260.934 862.329" stroke="#D1D4D8" stroke-width="3" stroke-linecap="round"/>
<path d="M260.933 837.453C263.266 847.04 263.421 864.972 245.377 859.997" stroke="#D1D4D8" stroke-width="3" stroke-linecap="round"/>
<path d="M237.598 797.805C241.227 810.76 246.62 839.006 239.153 848.334" stroke="#D1D4D8" stroke-width="3" stroke-linecap="round"/>
<path d="M299.82 663.32C324.449 662.803 375.265 665.497 381.487 680.423C387.709 695.348 397.561 738.466 401.709 758.16C407.154 784.591 408.398 838.696 369.82 843.672C331.243 848.647 309.931 849.891 305.265 849.891" stroke="#D1D4D8" stroke-width="3" stroke-linecap="round"/>
<path d="M188.599 664.098C173.303 664.875 147.377 669.539 149.71 718.514C152.211 771.006 152.043 846.781 180.821 844.449" stroke="#D1D4D8" stroke-width="3" stroke-linecap="round"/>
<path d="M237.598 850.668C220.746 856.627 185.02 861.551 176.931 833.565C168.842 805.58 164.746 734.839 163.709 702.966C163.191 693.896 167.909 675.136 190.931 672.648" stroke="#D1D4D8" stroke-width="3" stroke-linecap="round"/>
<path d="M297.488 647.771C315.895 645.957 353.799 647.149 358.155 666.428" stroke="#D1D4D8" stroke-width="3" stroke-linecap="round"/>
<path d="M687 787.641C687 697.342 759.978 624.141 850 624.141C940.022 624.141 1013 697.342 1013 787.641C1013 877.939 940.022 951.141 850 951.141C823.801 951.141 799.047 944.941 777.114 933.924" stroke="#D1D4D8" stroke-width="3" stroke-linecap="round"/>
<path d="M666 329.141C756.022 329.141 829 255.939 829 165.641C829 75.3421 756.022 2.14062 666 2.14062C575.978 2.14061 503 75.3421 503 165.641C503 191.92 509.181 216.75 520.164 238.75" stroke="#D1D4D8" stroke-width="3" stroke-linecap="round"/>
<path d="M947 337.86C973.545 283.545 1029.28 246.141 1093.73 246.141C1183.9 246.141 1257 319.342 1257 409.641C1257 499.939 1183.9 573.141 1093.73 573.141C1029.28 573.141 973.545 535.737 947 481.421" stroke="#D1D4D8" stroke-width="3" stroke-linecap="round"/>
<path d="M476.268 452.324C497.002 463.426 549.323 466.14 595 390.201C595.875 388.746 598.092 388.896 598.7 390.482C614.386 431.391 651.065 491.807 750.548 461.61C793.603 448.542 815.817 408.382 774.405 402.221C718.049 393.836 716.105 538.115 793.534 577.863" stroke="#D1D4D8" stroke-width="3" stroke-linecap="round"/>
</svg>
