<svg width="823" height="909" viewBox="0 0 823 909" fill="none" xmlns="http://www.w3.org/2000/svg">
<path d="M327.525 303.605C373.045 220.621 337.455 187.276 316.035 171.316C318.565 234.159 273.925 267.131 251.285 275.761L255.135 297.687C256.815 285.927 307.405 292.515 327.525 303.605Z" fill="#D1D4D8"/>
<path d="M52.4253 277.925C81.9553 305.978 107.265 305.58 118.795 306.879C157.945 297.712 170.005 298.892 185.715 303.475L182.565 258.975C161.245 243.574 149.175 219.242 144.225 207.48C138.665 212.179 131.445 210.391 128.525 208.91C124.765 206.466 117.565 197.272 118.795 180.038C120.025 162.804 132.535 167.431 138.645 171.898L169.135 175.184C167.855 146.691 185.415 137.183 194.355 135.99C187.325 120.206 199.895 113.3 206.515 110.587C216.005 122.216 228.435 126.901 233.695 129.08C287.205 143.079 319.875 123.913 334.945 99.9914C351.315 75.8434 348.665 19.1374 302.365 5.33263C287.225 -0.493173 251.335 -5.26988 228.885 22.2294C162.795 -2.05838 131.515 67.4534 122.935 92.6954L113.015 115.711C26.8854 134.032 19.3053 215.494 34.4353 251.171C41.2953 267.346 42.1954 268.203 51.9754 277.494L52.4253 277.925Z" fill="#D1D4D8"/>
<path d="M169.286 175.63C172.726 195.187 189.586 208.084 206.496 205.112C223.416 202.141 234.866 184.27 231.436 164.713C227.996 145.156 211.136 132.259 194.226 135.23C177.306 138.202 165.856 156.073 169.286 175.63Z" stroke="#D1D4D8" stroke-width="3"/>
<path d="M252.586 172.961C256.016 192.519 272.876 205.416 289.796 202.444C306.706 199.473 318.166 181.602 314.726 162.045C311.296 142.488 294.436 129.591 277.516 132.562C260.606 135.533 249.146 153.404 252.586 172.961Z" stroke="#D1D4D8" stroke-width="3"/>
<path d="M251.887 165.617L231.227 166.896" stroke="#D1D4D8" stroke-width="3" stroke-linecap="round"/>
<path d="M240.324 185.754C246.384 201.309 258.764 214.291 245.074 224.142" stroke="#D1D4D8" stroke-width="3" stroke-linecap="round"/>
<path d="M296.553 199.335C291.211 200.273 286.119 196.703 285.181 191.361C284.242 186.019 287.812 180.927 293.155 179.988C298.497 179.05 303.589 182.62 304.527 187.962C305.466 193.305 301.896 198.396 296.553 199.335Z" fill="#D1D4D8"/>
<path d="M214.553 201.776C209.211 202.715 204.119 199.145 203.181 193.802C202.242 188.46 205.812 183.368 211.155 182.43C216.497 181.491 221.589 185.061 222.527 190.404C223.466 195.746 219.896 200.838 214.553 201.776Z" fill="#D1D4D8"/>
<path d="M130.934 183.695C129.884 186.539 128.864 193.1 133.204 196.593" stroke="#D1D4D8" stroke-width="3" stroke-linecap="round"/>
<path d="M306.476 127.125C318.816 150.663 329.906 208.174 280.646 257.777C231.396 307.381 178.596 260.859 158.346 231.397L144.026 206.656C138.086 211.911 125.046 216.64 120.446 193.514C115.856 170.389 124.916 167.245 130.026 168.564C132.796 169.186 138.866 171.932 140.976 177.941" stroke="#D1D4D8" stroke-width="3" stroke-linecap="round"/>
<path d="M169.176 174.317L135.346 170.953" stroke="#D1D4D8" stroke-width="3" stroke-linecap="round"/>
<path d="M205.447 168.816C200.097 169.577 189.467 173.855 189.647 184.877" stroke="#D1D4D8" stroke-width="3" stroke-linecap="round"/>
<path d="M301.364 162.377C297.294 160.586 287.324 158.45 280.074 164.238" stroke="#D1D4D8" stroke-width="3" stroke-linecap="round"/>
<path d="M249.436 250.977C245.906 247.153 234.966 241.243 219.436 248.196" stroke="#D1D4D8" stroke-width="3" stroke-linecap="round"/>
<path d="M183.565 303.975C136.065 293.975 46.2651 309.475 9.06507 447.475C-37.4349 619.975 158.065 650.975 231.565 598.975C245.235 585.975 251.565 556.975 201.565 544.975C139.065 529.975 116.855 540.475 92.5651 447.475" stroke="#D1D4D8" stroke-width="3" stroke-linecap="round"/>
<path d="M367.354 877.977C348.086 867.572 353.568 844.885 359.211 833.7C359.519 833.091 360.344 833.003 360.822 833.491C381.647 854.729 407.023 844.057 417.554 835.717C417.752 835.56 417.985 835.485 418.237 835.505C432.74 836.612 463.753 844.274 474.854 866.477C488.854 894.477 392.354 891.477 367.354 877.977Z" fill="#D1D4D8"/>
<path d="M298.856 907.977C223.256 904.377 217.022 865.143 223.356 845.977C252.956 879.177 284.689 864.143 296.855 852.477C310.855 857.677 325.919 866.655 330.855 871.477C352.355 892.477 333.355 911.477 298.856 907.977Z" fill="#D1D4D8"/>
<path d="M103.566 482.976C116.566 446.976 149.066 404.476 198.066 407.976C237.266 410.776 251.866 423.476 258.066 438.976C264.866 455.976 265.566 465.476 273.566 533.976" stroke="#D1D4D8" stroke-width="3" stroke-linecap="round"/>
<path d="M315.066 718.477C324.566 752.31 332.966 827.377 290.566 856.977C237.566 893.977 176.566 811.977 151.066 675.477" stroke="#D1D4D8" stroke-width="3" stroke-linecap="round"/>
<path d="M261.066 444.476C269.896 428.643 302.666 397.978 345.066 419.977C363.226 429.403 393.066 469.477 403.066 543.477" stroke="#D1D4D8" stroke-width="3" stroke-linecap="round"/>
<path d="M328.066 300.977C378.566 323.977 406.066 352.477 434.066 439.977C454.736 492.81 480.466 605.477 418.066 633.477C399.566 640.644 366.866 638.877 390.066 582.477C395.416 569.477 406.066 559.977 402.566 540.477" stroke="#D1D4D8" stroke-width="3" stroke-linecap="round"/>
<path d="M328.836 639.383C321.236 638.299 308.646 635.759 300.886 632.181C296.806 630.304 294.066 628.142 294.066 625.755C294.066 618.817 304.976 620.799 310.426 622.657C323.836 626.993 348.746 633.774 334.566 618.907C320.386 604.04 330.476 600.613 364.566 610.854L376.206 615.377" stroke="#D1D4D8" stroke-width="3" stroke-linecap="round"/>
<path d="M300.885 632.18C295.965 634.432 292.665 639.16 305.205 644.337C310.635 646.579 319.035 648.905 331.565 651.151" stroke="#D1D4D8" stroke-width="3" stroke-linecap="round"/>
<path d="M317.926 657.937C319.066 664.141 329.156 674.987 358.836 664.781C370.066 660.92 371.566 660.012 381.066 654.57C385.626 651.488 393.896 644.971 394.936 639.062" stroke="#D1D4D8" stroke-width="3" stroke-linecap="round"/>
<path d="M305.205 644.336C301.225 647.725 299.675 654.311 317.925 657.935C321.915 658.727 326.855 659.378 332.925 659.823" stroke="#D1D4D8" stroke-width="3" stroke-linecap="round"/>
<path d="M312.756 601.852C310.846 608.554 303.856 621.374 291.196 619.034C275.376 616.109 242.106 608.643 232.066 607.1" stroke="#D1D4D8" stroke-width="3" stroke-linecap="round"/>
<path d="M332.396 575.219C337.486 583.649 334.846 589.061 321.576 597.025C318.576 598.824 315.606 600.431 312.756 601.853C302.996 606.727 294.616 609.434 291.016 610.288" stroke="#D1D4D8" stroke-width="3" stroke-linecap="round"/>
<path d="M326.945 561.006C332.585 559.014 341.195 559.247 332.395 575.218C332.055 575.835 330.945 577.06 326.425 580.734L303.025 596.372" stroke="#D1D4D8" stroke-width="3" stroke-linecap="round"/>
<path d="M244.566 564.602C248.516 553.302 259.426 540.467 272.736 535.344C285.066 530.602 291.016 537.602 286.566 542.161C274.566 552.102 275.426 565.995 283.596 566.141C291.776 566.287 307.846 552.148 314.866 545.06C318.356 541.031 326.246 536.08 329.826 548.513C331.026 552.66 329.666 556.944 326.946 561.008C321.516 569.129 310.656 576.372 303.896 579.89" stroke="#D1D4D8" stroke-width="3" stroke-linecap="round"/>
<path d="M192.725 302.035C204.655 308.691 231.285 318.01 242.295 302.035C256.065 282.066 268.465 305.75 262.955 321.075C257.445 336.4 210.695 361.908 179.295 305.958" stroke="#D1D4D8" stroke-width="3" stroke-linecap="round"/>
<path d="M213.565 338.215C203.895 343.049 185.465 358.415 189.065 381.215" stroke="#D1D4D8" stroke-width="3" stroke-linecap="round"/>
<path d="M223.806 368.715C209.196 388.149 192.556 392.146 186.066 391.715" stroke="#D1D4D8" stroke-width="3" stroke-linecap="round"/>
<path d="M237.566 339.715C246.066 346.882 260.066 366.115 254.066 391.715" stroke="#D1D4D8" stroke-width="3" stroke-linecap="round"/>
<path d="M220.065 342.215C218.985 348.267 219.215 358.538 223.805 368.715C227.675 377.317 234.655 385.852 246.565 391.715" stroke="#D1D4D8" stroke-width="3" stroke-linecap="round"/>
<path d="M427.066 632.977C444.066 748.977 452.566 827.977 400.566 843.977C348.566 859.977 328.566 771.977 315.066 718.477L304.066 668.977" stroke="#D1D4D8" stroke-width="3" stroke-linecap="round"/>
<path d="M25.5658 569.477C14.3958 668.31 37.9658 862.077 221.566 846.477" stroke="#D1D4D8" stroke-width="3" stroke-linecap="round"/>
<path d="M744.355 371.447C732.747 365.729 719.272 360.961 704.139 357.124C633.139 339.124 495.639 415.624 514.639 504.124C529.592 573.774 600.612 578.164 635.92 571.465C636.916 571.276 637.88 571.848 638.201 572.81L650.202 608.812C650.813 610.647 653.415 610.631 654.004 608.788L667.325 567.105C667.522 566.489 667.98 566.015 668.594 565.814C700.653 555.309 767.526 522.939 786.139 474.624C799.73 439.344 793.921 411.591 772.87 390.977" stroke="#D1D4D8" stroke-width="3" stroke-linecap="round"/>
<path fill-rule="evenodd" clip-rule="evenodd" d="M822.855 393.977C822.855 430.151 793.53 459.477 757.355 459.477C721.181 459.477 691.855 430.151 691.855 393.977C691.855 357.802 721.181 328.477 757.355 328.477C793.53 328.477 822.855 357.802 822.855 393.977ZM764.855 426.475C764.855 430.893 761.498 434.475 757.355 434.475C753.213 434.475 749.855 430.893 749.855 426.475C749.855 422.056 753.213 418.475 757.355 418.475C761.498 418.475 764.855 422.056 764.855 426.475ZM747.996 383.154C747.407 373.475 748.349 354.475 757.188 354.475C765.96 354.475 767.334 373.721 766.733 383.154C766.026 394.267 762.844 411.475 757.188 411.475C751.524 411.475 748.585 392.833 747.996 383.154Z" fill="#D1D4D8"/>
<circle cx="653.355" cy="527.977" r="16" stroke="#D1D4D8" stroke-width="3"/>
<path d="M608.986 494.542L619.824 512.883C620.551 514.114 622.306 514.201 623.213 513.096C643.873 487.953 670.582 497.592 683.38 506.945C684.417 507.703 685.903 507.38 686.477 506.232L696.858 485.469C697.168 484.85 697.141 484.11 696.745 483.545C681.901 462.373 623.232 473.359 609.055 492.469C608.603 493.079 608.6 493.888 608.986 494.542Z" stroke="#D1D4D8" stroke-width="3" stroke-linecap="round"/>
<path d="M702.234 471.126C662.414 450.757 619.8 467.954 601.59 480.267C600.638 480.91 599.335 480.662 598.716 479.694L589.28 464.924C588.748 464.092 588.917 462.982 589.668 462.34C637.332 421.639 692.504 436.455 716.075 449.926C717.061 450.489 717.331 451.764 716.701 452.709L704.865 470.462C704.293 471.321 703.152 471.595 702.234 471.126Z" stroke="#D1D4D8" stroke-width="3" stroke-linecap="round"/>
<path d="M559.622 438.545L574.566 451.828C575.307 452.487 576.429 452.492 577.198 451.865C629.86 408.942 695.145 422.967 723.13 436.14C724.108 436.6 725.261 436.216 725.771 435.263L735.521 417.035C735.997 416.144 735.72 415.025 734.885 414.456C671.519 371.3 593.056 409.544 559.683 435.527C558.707 436.287 558.698 437.723 559.622 438.545Z" stroke="#D1D4D8" stroke-width="3" stroke-linecap="round"/>
<path d="M642.634 719.893L616.725 770.769C616.239 771.723 616.584 772.892 617.542 773.371C637.828 783.497 686.65 787.459 713.295 792.194C714.217 792.357 715.115 791.863 715.49 791.005C723.776 772.023 735.29 754.431 741.528 745.912C742.378 744.751 741.808 743.084 740.413 742.73C714.89 736.266 667.527 724.477 644.881 718.855C643.977 718.631 643.056 719.064 642.634 719.893Z" stroke="#D1D4D8" stroke-width="3" stroke-linecap="round"/>
<path d="M616.855 771.977C616.147 772.685 615.909 778.151 615.864 781.708C615.854 782.483 616.283 783.178 616.987 783.504C638.971 793.676 687.531 811.879 718.761 809.249C720.074 809.138 720.862 807.777 720.36 806.559L714.355 791.977" stroke="#D1D4D8" stroke-width="3" stroke-linecap="round"/>
<path d="M721.855 809.477C730.355 799.31 746.455 772.277 742.855 745.477" stroke="#D1D4D8" stroke-width="3" stroke-linecap="round"/>
<ellipse cx="707.855" cy="765.477" rx="3.5" ry="4.5" fill="#D1D4D8"/>
<path d="M700.117 756.231C697.257 759.515 695.701 764.654 695.077 768.055C694.922 768.902 694.286 769.59 693.442 769.759L689.679 770.512C688.464 770.755 687.318 769.843 687.355 768.604C687.684 757.335 692.787 752.259 696.046 750.783C696.551 750.555 697.127 750.635 697.606 750.914L699.774 752.179C701.123 752.966 701.142 755.053 700.117 756.231Z" stroke="#D1D4D8" stroke-width="3" stroke-linecap="round"/>
<path d="M686.286 750.837C681.855 754.889 679.742 763.539 679.044 769.14C678.915 770.176 678.051 770.977 677.007 770.977H669.355C668.251 770.977 667.351 770.077 667.392 768.973C667.967 753.285 675.235 745.221 679.764 742.545C680.416 742.159 681.225 742.281 681.81 742.762L686.565 746.678C687.779 747.678 687.447 749.776 686.286 750.837Z" stroke="#D1D4D8" stroke-width="3" stroke-linecap="round"/>
<path d="M669.867 742.925C663.859 747.979 659.821 760.477 658.162 768.008C657.97 768.878 657.244 769.53 656.356 769.607L648.132 770.322C647.119 770.41 646.196 769.725 646.038 768.721C643.261 751.097 653.589 738.066 660.198 732.84C660.876 732.304 661.823 732.327 662.515 732.846L670.133 738.56C671.456 739.552 671.132 741.861 669.867 742.925Z" stroke="#D1D4D8" stroke-width="3" stroke-linecap="round"/>
</svg>
