<svg width="1512" height="1088" viewBox="0 0 1512 1088" fill="none" xmlns="http://www.w3.org/2000/svg">
<path d="M55 231.777V678.82C55 690.935 68.05 700.777 84.3625 700.777H847M1099 230.277V382.777" stroke="#D1D4D8" stroke-width="3" stroke-miterlimit="10" stroke-linecap="round"/>
<path d="M425.168 2.03327L383.033 161.187C383.011 161.271 383 161.357 383 161.443V219.91C383 220.346 382.731 220.727 382.315 220.858C267.145 257.033 50.3211 235.935 0.648198 220.841C0.22957 220.714 0 220.344 0 219.906V161.619C0 161.42 0.0593494 161.225 0.17046 161.06L107.776 1.2189C107.962 0.942862 108.273 0.777344 108.606 0.777344H424.201C424.857 0.777344 425.336 1.39884 425.168 2.03327Z" fill="#D1D4D8"/>
<path d="M1066.27 1.34216L1144.4 162.977C1144.47 163.113 1144.5 163.261 1144.5 163.412V214.43C1144.5 214.655 1144.45 214.842 1144.31 215.014C1118.08 246.051 781.174 242.922 764.707 228.003C764.525 227.838 764.5 227.66 764.5 227.413V163.183L745.134 1.89656C745.063 1.30128 745.528 0.777344 746.127 0.777344H1065.37C1065.76 0.777344 1066.11 0.996785 1066.27 1.34216Z" fill="#D1D4D8"/>
<path d="M747.099 4.16687L764.5 160.708V225.642C764.5 226.03 764.312 226.366 763.96 226.528C696.183 257.755 425.517 265.127 383.249 220.081C383.078 219.899 383 219.674 383 219.424V160.834C383 160.75 383.011 160.667 383.032 160.585L423.307 4.0282C423.421 3.58626 423.819 3.27734 424.276 3.27734H746.105C746.615 3.27734 747.043 3.66046 747.099 4.16687Z" stroke="#D1D4D8" stroke-width="3" stroke-linecap="round"/>
<path d="M959 394.777V345.777C959 340.254 954.523 335.777 949 335.777H481C475.477 335.777 471 340.254 471 345.777V599.777C471 605.3 475.477 609.777 481 609.777H870" stroke="#D1D4D8" stroke-width="3"/>
<path d="M158 435.777C158 380.549 203.772 335.777 259 335.777V335.777C314.228 335.777 360 380.549 360 435.777V700.777H158V435.777Z" fill="#D1D4D8"/>
<path d="M617.542 411.947L615.967 386.062" stroke="#D1D4D8" stroke-width="3" stroke-linecap="round"/>
<path d="M587.17 422.131L563.619 396.84" stroke="#D1D4D8" stroke-width="3" stroke-linecap="round"/>
<path d="M578.769 444.699L553.001 442.153" stroke="#D1D4D8" stroke-width="3" stroke-linecap="round"/>
<path d="M848.482 538.436C835.492 544.767 810.045 547.746 798.945 548.444C792.997 556.332 783.099 561.14 778.894 562.558C794.439 572.313 841.75 560.609 863.463 553.538C858.61 550.101 851.453 542.038 848.482 538.436Z" fill="#D1D4D8"/>
<path d="M889.23 435.616C915.824 411.738 979.203 371.719 1019.97 402.663C1060.73 433.607 1015.49 498.337 991.658 520.392C986.231 525.893 979.557 531.703 972.001 537.232" stroke="#D1D4D8" stroke-width="3" stroke-linecap="round"/>
<path d="M847.18 485.627C837.316 504.153 833.371 534.917 866.217 554.828C885.728 566.655 907.765 566.263 928.501 559.818" stroke="#D1D4D8" stroke-width="3" stroke-linecap="round"/>
<path d="M911.203 456.771L907.21 453.555C904.74 451.565 904.732 447.797 907.231 445.843C942.801 418.046 971.709 410.554 979.077 411.459C1009.26 414.93 1005.81 441.449 1000.31 454.275C1003.55 442.72 999.28 424.604 979.48 422.995C965.848 421.887 933.076 444.962 917.41 456.851C915.565 458.252 913.008 458.225 911.203 456.771Z" fill="#D1D4D8"/>
<path d="M905.231 448.927C929.409 427.868 960.414 415.058 970.564 412.19C975.572 410.996 989.723 409.615 999.934 420.418C1007.35 428.263 1005.95 441.154 1002.5 450.777" stroke="#D1D4D8" stroke-width="3" stroke-linecap="round"/>
<path d="M880.921 489.367C874.351 502.931 869.348 530.677 901.888 533.147C911.703 533.892 922.476 530.098 933.214 523.777" stroke="#D1D4D8" stroke-width="3" stroke-linecap="round"/>
<path d="M738.249 485.225L753.697 470.86C712.67 452.719 671.29 450.542 655.728 451.721C645.039 452.188 622.963 458.95 620.171 482.261C617.379 505.572 642.968 521.361 653.907 524.944C627.91 504.68 633.614 478.758 656.38 471.635C674.592 465.937 718.548 478.321 738.249 485.225Z" fill="#D1D4D8"/>
<path d="M921.032 529.683C940.91 508.77 940.53 474.913 907.716 451.18C900.039 445.222 875.436 435.179 838.441 442.677C801.447 450.175 778.819 459.032 772.129 462.524C752.021 470.045 714.774 495.992 726.646 539.612" stroke="#D1D4D8" stroke-width="3" stroke-linecap="round"/>
<path d="M744.129 573.588C751.049 579.161 772.065 588.302 802.849 586.404C839.307 584.156 866.964 579.961 888.517 564.191" stroke="#D1D4D8" stroke-width="3" stroke-linecap="round"/>
<path d="M892.393 529.97C885.567 527.642 881.64 522.631 880.53 520.416C882.597 521.687 888.403 520.856 895.092 507.36C901.781 493.864 888.753 481.179 881.403 476.524C886.395 475.015 894.076 478.862 897.292 480.975C917.565 502.025 902.473 522.409 892.393 529.97Z" fill="#D1D4D8"/>
<path d="M889.101 530.604C900.06 524.847 915.971 506.977 901.51 486.31C885.963 464.088 819.833 478.832 789.228 488.604C770.173 494.689 752.343 514.618 765.918 536.595" stroke="#D1D4D8" stroke-width="3"/>
<path d="M806.715 483.636C814.782 503.032 819.559 548.884 770.053 566.311C725.696 581.925 643.115 563.463 610.898 535.744C597.839 524.508 574.454 497.908 595.752 461.92C617.05 425.931 674.162 432.253 701.393 436.994C720.207 440.27 751.531 447.821 775.827 460.444" stroke="#D1D4D8" stroke-width="3" stroke-linecap="round"/>
<path d="M775.88 497.326C779.827 507.951 780.733 530.048 757.481 538.904C734.23 547.76 670.201 533.51 646.204 522.787C633.744 517.219 609.331 498.11 622.311 470.918C637.395 439.316 693.072 452.491 721.709 460.86C729.207 463.134 744.507 468.078 753.428 471.823" stroke="#D1D4D8" stroke-width="3" stroke-linecap="round"/>
<path d="M1415.4 242.695L1405.06 218.91" stroke="#D1D4D8" stroke-width="3" stroke-linecap="round"/>
<path d="M1447.09 237.998L1456.61 204.777" stroke="#D1D4D8" stroke-width="3" stroke-linecap="round"/>
<path d="M1470.58 251.715L1492.39 237.761" stroke="#D1D4D8" stroke-width="3" stroke-linecap="round"/>
<path d="M1266.93 460.156C1281.38 459.908 1305.41 451.023 1315.62 446.612C1324.49 450.945 1335.5 450.742 1339.89 450.099C1330.46 465.842 1282.98 476.865 1260.42 480.409C1263.19 475.145 1265.91 464.714 1266.93 460.156Z" fill="#D1D4D8"/>
<path d="M1183.99 386.994C1158.59 380.212 1111.51 374.671 1079.5 390.534" stroke="#D1D4D8" stroke-width="3" stroke-linecap="round"/>
<path d="M1244.14 412.499C1261.33 424.538 1278.8 450.168 1258.55 482.809C1231.85 525.859 1166.74 520.862 1131.14 509C1101.69 500.661 1038.12 467.163 1049.56 424.778" stroke="#D1D4D8" stroke-width="3" stroke-linecap="round"/>
<path d="M1171.48 416.647L1174.94 409.165C1175.74 407.426 1174.73 405.387 1172.85 405C1144.62 399.179 1123.78 399.34 1109.8 401.397C1107.37 401.753 1106.55 404.73 1108.37 406.371L1115.12 412.456C1115.69 412.966 1116.42 413.241 1117.18 413.233C1134.42 413.05 1155.8 416.09 1168.2 418.348C1169.55 418.595 1170.91 417.899 1171.48 416.647Z" fill="#D1D4D8"/>
<path d="M1087.5 448.277C1085.9 441.877 1087.5 434.944 1088.5 432.277L1077.5 427.277C1076.7 438.477 1083.83 445.944 1087.5 448.277Z" fill="#D1D4D8"/>
<path d="M1215.76 431.132C1227.77 440.243 1244.81 462.702 1216.93 479.66C1189.05 496.617 1129.18 473.885 1102.73 460.399C1092.16 455.009 1076.05 442.449 1077.7 427.276" stroke="#D1D4D8" stroke-width="3" stroke-linecap="round"/>
<path d="M1175.76 406.115C1147.31 398.975 1116.9 400.578 1104 402.47" stroke="#D1D4D8" stroke-width="3" stroke-linecap="round"/>
<path d="M1341.04 362.745L1320.76 356.947C1349.1 322.175 1385 301.469 1399.4 295.463C1409.14 291.033 1431.88 287.048 1444.94 306.559C1458 326.069 1442.35 351.745 1434.23 359.899C1448.21 330.049 1431.37 309.533 1407.85 313.508C1389.03 316.688 1355.47 347.658 1341.04 362.745Z" fill="#D1D4D8"/>
<path d="M1198.3 485.255C1171.1 475.631 1156.08 445.282 1174.57 409.25C1178.71 400.457 1196.08 380.35 1232.45 370.257C1268.82 360.164 1293.01 357.797 1300.55 357.875C1321.89 355.46 1366.85 361.695 1376.05 405.956" stroke="#D1D4D8" stroke-width="3" stroke-linecap="round"/>
<path d="M1375.87 444.167C1372.23 452.272 1357.65 469.949 1329.35 482.217C1295.84 496.746 1269.28 505.549 1242.92 501.268" stroke="#D1D4D8" stroke-width="3" stroke-linecap="round"/>
<path d="M1223.95 472.522C1228.98 467.352 1230.2 461.105 1230.19 458.627C1228.92 460.697 1223.37 462.589 1211.29 453.594C1199.21 444.599 1205.07 427.386 1209.51 419.903C1204.37 420.822 1199.27 427.734 1197.37 431.075C1188.84 459.03 1211.54 470.354 1223.95 472.522Z" fill="#D1D4D8"/>
<path d="M1227.17 471.595C1214.79 471.433 1192.51 462.721 1196.03 437.744C1199.81 410.888 1265.43 394.04 1297.14 388.872C1316.88 385.654 1341.81 395.331 1339.68 421.074" stroke="#D1D4D8" stroke-width="3"/>
<path d="M1279.3 392.375C1280.91 413.32 1297.44 456.353 1349.47 449.435C1396.08 443.237 1461.31 389.334 1477.46 350.019C1484 334.083 1492.78 299.771 1457.48 277.354C1422.18 254.936 1374.14 286.47 1352.02 303.044C1336.74 314.495 1312.25 335.43 1296.32 357.697" stroke="#D1D4D8" stroke-width="3" stroke-linecap="round"/>
<path d="M1312.99 390.593C1314.29 401.853 1323.51 421.957 1348.24 419.307C1372.98 416.656 1423.59 374.92 1440.11 354.481C1448.69 343.868 1461.79 315.766 1437.89 297.417C1410.11 276.091 1366.47 313.081 1344.74 333.527C1339.09 338.953 1327.69 350.298 1321.44 357.682" stroke="#D1D4D8" stroke-width="3" stroke-linecap="round"/>
<path d="M1114.5 464.777C1100.81 435.755 1080.23 424.807 1064.54 423.859C1053.93 423.422 1044.45 424.755 1036 427.525" stroke="#D1D4D8" stroke-width="3" stroke-linecap="round"/>
<path d="M969.151 582.777C967.966 547.064 972.236 485.85 1002.5 450.777" stroke="#D1D4D8" stroke-width="3" stroke-linecap="round"/>
<path d="M1129 534.802C1128.74 525.067 1127.95 516.071 1126.71 507.777" stroke="#D1D4D8" stroke-width="3" stroke-linecap="round"/>
<path d="M1159 535.798C1158.74 529.524 1158.24 522.79 1157.43 515.777" stroke="#D1D4D8" stroke-width="3" stroke-linecap="round"/>
<path d="M928.112 592.777C926.77 547.031 936.006 455.559 983.5 411.777M1150.5 478.777C1137.18 429.255 1105.72 380.941 1037.25 387.352C1026.53 388.356 1016.81 391.064 1008 395.161" stroke="#D1D4D8" stroke-width="3" stroke-linecap="round"/>
<path d="M990 566.277L1108 535.277" stroke="#D1D4D8" stroke-width="3" stroke-linecap="round"/>
<path d="M914.158 588.777C900.492 591.277 870.058 601.777 857.658 623.777" stroke="#D1D4D8" stroke-width="3" stroke-linecap="round"/>
<path d="M855.659 622.278C890.859 601.478 902.159 640.945 906.159 658.278V896.278C906.159 948.278 921.159 945.778 936.052 958.933C894.052 944.433 872.159 924.278 864.551 914.433C843.878 887.677 846.052 691.433 845.052 669.933C844.252 652.733 852.992 628.112 855.659 622.278Z" fill="#D1D4D8"/>
<path d="M1162.66 559.514L944.002 623.278C922.668 629.5 908 649.056 908 671.279V913.244C908 948.932 944.313 973.13 977.249 959.39L1195.91 868.179C1214.53 860.411 1226.66 842.21 1226.66 822.033V607.515C1226.66 574.183 1194.66 550.183 1162.66 559.514Z" stroke="#D1D4D8" stroke-width="3" stroke-linecap="round"/>
<path d="M1078.53 713.403C1102.26 674.61 1077.4 655.484 1062 650.769C1113.88 642.283 1104.81 690.336 1093.79 715.424L1126 799.777L1100.25 787.677C1097.51 786.386 1095.49 783.917 1094.78 780.965L1078.53 713.403Z" fill="#D1D4D8"/>
<path d="M1041 823.777L1063.75 721.867C1034.26 715.276 1033.78 653.476 1063.75 649.364C1111.78 642.773 1106.3 693.474 1093.66 715.276L1124 799.441L1041 823.777Z" stroke="#D1D4D8" stroke-width="3"/>
<path d="M858.659 1065.85C833.059 1055.85 852.659 1043.35 865.659 1038.35L1089.16 968.853C1106.83 963.853 1148.66 957.453 1174.66 971.853C1207.16 989.853 1171.16 998.853 1164.66 1003.85C1158.16 1008.85 1021.16 1065.85 974.159 1081.35C927.159 1096.85 890.659 1078.35 858.659 1065.85Z" fill="#D1D4D8"/>
</svg>
