<svg width="767" height="532" viewBox="0 0 767 532" fill="none" xmlns="http://www.w3.org/2000/svg">
<path d="M656.228 140.247C655.002 136.334 650.457 130.461 647.873 127.461C647.55 127.087 647.54 126.535 647.866 126.163C653.73 119.457 668.323 107.902 684.309 110.666" stroke="#D1D4D8" stroke-width="3" stroke-linecap="round"/>
<path d="M685.366 115.247C685.814 121.69 690.571 133.099 706.019 127.182C708.815 125.782 712.185 122.714 712.675 118.749C712.741 118.208 713.166 117.758 713.711 117.783C720.638 118.094 735.124 122.8 745.102 139.935C745.234 140.162 745.274 140.434 745.197 140.685C744.118 144.169 740.033 150.701 731.176 152.156C730.878 152.205 730.574 152.108 730.349 151.907C726.952 148.861 720.351 144.632 718.333 149.724C718.295 149.821 718.274 149.924 718.27 150.028C717.689 164.646 713.839 193.513 702.996 193.245C692.157 192.977 673.528 188.682 665.475 186.545C665.414 186.528 665.355 186.519 665.291 186.513C662.815 186.281 658.633 183.438 661.02 173.745C664.042 161.474 671.094 138.612 663.874 137.1" stroke="#D1D4D8" stroke-width="3" stroke-linecap="round"/>
<path d="M561.309 116.247C554.885 138.473 543.059 184.991 547.149 193.247" stroke="#D1D4D8" stroke-width="3" stroke-linecap="round"/>
<path d="M549.996 121.739L560.009 115.672C560.838 115.169 561.908 115.334 562.548 116.062L569.502 123.978C570.146 124.71 571.225 124.872 572.055 124.36L596.947 109.001C600.936 105.907 600.87 103.1 599.341 101.266C596.742 98.1491 589.397 96.9708 584.38 96.9763C583.541 96.9772 582.819 97.5442 582.571 98.346L580.88 103.812C580.697 104.402 580.249 104.878 579.667 105.085C566.591 109.74 558.195 106.812 554.793 102.744C554.432 102.312 554.337 101.727 554.47 101.179L555.314 97.6993C555.601 96.5184 554.779 95.3562 553.565 95.2998C546.701 94.9807 536.309 95.9601 536.309 102.039C536.309 108.29 543.26 116.976 547.588 121.449C548.221 122.102 549.218 122.21 549.996 121.739Z" fill="#D1D4D8"/>
<path d="M517.438 172.958C520.638 138.647 530.906 110.295 535.84 100.809C537.44 97.2011 541.281 94.716 545.441 94.3953C550.642 93.9945 590.393 94.0537 600.248 99.2053C609.449 104.015 607.849 104.015 605.448 130.871C603.528 152.355 595.847 180.975 592.247 192.599C589.846 199.012 575.365 204.463 560.643 199.012C542.241 192.198 547.841 195.805 531.039 192.599C517.598 190.034 516.877 178.971 517.438 172.958Z" stroke="#D1D4D8" stroke-width="3"/>
<path d="M607.309 114.764C604.611 111.949 598.487 109.135 595.573 120.394C591.932 134.468 583.774 165.903 583.028 169.855C581.814 176.289 581.41 193.178 587.885 183.125C593.064 175.083 599.08 141.304 600.834 125.219" stroke="#D1D4D8" stroke-width="3" stroke-linecap="round"/>
<ellipse cx="565.015" cy="127.278" rx="1.99558" ry="3.19184" transform="rotate(13.2587 565.015 127.278)" fill="#D1D4D8"/>
<ellipse cx="560.507" cy="143.61" rx="1.99558" ry="3.19184" transform="rotate(13.2587 560.507 143.61)" fill="#D1D4D8"/>
<ellipse cx="556.517" cy="162.761" rx="1.99558" ry="3.19184" transform="rotate(13.2587 556.517 162.761)" fill="#D1D4D8"/>
<ellipse cx="553.326" cy="182.71" rx="1.99558" ry="3.19184" transform="rotate(13.2587 553.326 182.71)" fill="#D1D4D8"/>
<path d="M417.8 109.91C407.889 113.968 408.088 127.46 409.579 134.647C409.719 135.32 410.225 135.856 410.882 136.058C432.794 142.8 449.953 132.406 456.582 125.628C457.041 125.159 457.21 124.487 457.024 123.858C455.972 120.3 453.432 114.618 451.822 112.093C446.178 104.273 430.835 104.573 417.8 109.91Z" stroke="#D1D4D8" stroke-width="3" stroke-linecap="round"/>
<path d="M457.453 124.993C467.191 126.662 477.426 131.027 474.364 138.17C471.07 145.857 439.776 160.386 416.17 156.407C405.26 154.768 388.494 147.319 409.577 135.754" stroke="#D1D4D8" stroke-width="3" stroke-linecap="round"/>
<path d="M379.285 336.246L384.545 318.553C384.699 318.037 385.054 317.605 385.53 317.354L463.058 276.475C464.628 275.647 466.418 277.122 465.906 278.821L415.592 445.729C415.4 446.365 414.905 446.864 414.271 447.062L337.078 471.067C335.509 471.555 334.054 470.048 334.596 468.497L354.785 410.746" stroke="#D1D4D8" stroke-width="3" stroke-linecap="round"/>
<path d="M224.657 152.177C228.808 105.352 208.542 80.7234 197.89 74.2614C232.348 93.6814 266.306 81.0604 278.977 72.3224L282.86 93.1294C306.469 95.5104 312.092 63.5084 311.953 47.2084C311.738 22.0614 283.919 -8.98862 228.579 3.46238C173.24 15.9144 142.868 61.6914 134.599 83.0234C94.9771 72.1304 52.4141 101.776 36.0853 117.961C19.2009 134.761 -16.3464 185.55 8.61479 242.258C42.2915 318.766 131.872 299.767 146.494 292.242C197.015 266.24 219.468 210.709 224.657 152.177Z" fill="#D1D4D8"/>
<path d="M300.372 143.548C299.195 151.496 296.253 158.291 292.578 162.86C288.861 167.482 284.747 169.457 281.114 168.919C277.482 168.381 274.117 165.298 271.9 159.796C269.708 154.358 268.862 147.003 270.04 139.055C271.217 131.107 274.159 124.312 277.834 119.743C281.551 115.121 285.665 113.146 289.298 113.684C292.93 114.222 296.295 117.305 298.512 122.807C300.704 128.245 301.55 135.6 300.372 143.548Z" stroke="#D1D4D8" stroke-width="3"/>
<path d="M285.229 151.879C288.244 152.326 291.34 148.288 292.144 142.861C292.948 137.434 291.156 132.673 288.141 132.226C285.126 131.779 282.03 135.817 281.226 141.244C280.422 146.671 282.214 151.432 285.229 151.879Z" fill="#D1D4D8"/>
<path d="M224.795 148.257L269.046 143.331" stroke="#D1D4D8" stroke-width="3" stroke-linecap="round"/>
<path d="M287.622 93.9463C291.36 101.472 302.389 117.917 313.905 127.122C325.683 136.536 326.678 148.536 319.158 157.182L307.436 170.784C313.905 220.249 304.374 256.877 243.748 273.928" stroke="#D1D4D8" stroke-width="3" stroke-linecap="round"/>
<path d="M243.028 193.373C244.461 193.585 245.795 192.596 246.007 191.163C246.219 189.731 245.23 188.397 243.797 188.185C242.365 187.973 241.031 188.962 240.819 190.395C240.607 191.827 241.596 193.161 243.028 193.373Z" fill="#D1D4D8"/>
<path d="M233.633 217.429C235.352 217.684 236.918 216.729 237.13 215.297C237.343 213.864 236.121 212.496 234.402 212.241C232.683 211.987 231.117 212.942 230.905 214.374C230.692 215.807 231.914 217.175 233.633 217.429Z" fill="#D1D4D8"/>
<path d="M256.498 213.395C258.218 213.65 259.783 212.695 259.996 211.262C260.208 209.83 258.986 208.462 257.267 208.207C255.548 207.953 253.982 208.907 253.77 210.34C253.558 211.773 254.779 213.141 256.498 213.395Z" fill="#D1D4D8"/>
<path d="M146.701 302.246C73.2389 355.833 82.0289 422.659 82.0289 505.246" stroke="#D1D4D8" stroke-width="3" stroke-linecap="round"/>
<path d="M148.701 303.155L183.969 334.017C185.114 335.019 186.914 334.426 187.24 332.939L196.434 290.891C196.775 289.332 198.715 288.781 199.825 289.928L223.701 314.61" stroke="#D1D4D8" stroke-width="3" stroke-linecap="round"/>
<path d="M223.701 278.246C225.658 281.912 228.462 287.869 231.089 294.792C234.696 304.294 237.969 315.618 238.262 325.337" stroke="#D1D4D8" stroke-width="3" stroke-linecap="round"/>
<path d="M179.701 363.756C191.746 380.071 259.576 425.252 308.389 375.679L321.701 361.246" stroke="#D1D4D8" stroke-width="3" stroke-linecap="round"/>
<path d="M212.701 523.246C228.372 519.194 302.701 478.491 324.35 440.67" stroke="#D1D4D8" stroke-width="3" stroke-linecap="round"/>
<path d="M318.545 391.503C323.914 410.776 325.425 427.045 324.349 440.67C336.292 432.476 347.7 426.172 347.7 400.328C347.7 382.048 334.39 366.289 322.348 361.246" stroke="#D1D4D8" stroke-width="3" stroke-linecap="round"/>
<path d="M218.701 348.246C221.463 348.246 223.701 345.56 223.701 342.246C223.701 338.932 221.463 336.246 218.701 336.246C215.94 336.246 213.701 338.932 213.701 342.246C213.701 345.56 215.94 348.246 218.701 348.246Z" fill="#D1D4D8"/>
<path d="M225.701 377.246C228.463 377.246 230.701 374.56 230.701 371.246C230.701 367.932 228.463 365.246 225.701 365.246C222.94 365.246 220.701 367.932 220.701 371.246C220.701 374.56 222.94 377.246 225.701 377.246Z" fill="#D1D4D8"/>
<path d="M278.819 211.246C278.175 215.146 279.85 223.206 291.701 224.246" stroke="#D1D4D8" stroke-width="3" stroke-linecap="round"/>
<path d="M286.785 480.746C290.785 489.413 297.585 511.446 292.785 530.246" stroke="#D1D4D8" stroke-width="3" stroke-linecap="round"/>
<path d="M235.785 307.246C245.118 315.58 265.385 340.846 271.785 375.246" stroke="#D1D4D8" stroke-width="3" stroke-linecap="round"/>
<path d="M268.785 363.746C275.118 368.413 293.985 374.946 318.785 363.746" stroke="#D1D4D8" stroke-width="3" stroke-linecap="round"/>
<path d="M404.109 349.581C406.411 346.368 407.567 343.443 406.518 341.423C403.467 335.551 395.964 341.578 392.594 345.326C384.207 354.343 368.065 370.016 372.416 351.778C376.766 333.539 367.513 334.662 345.846 356.925" stroke="#D1D4D8" stroke-width="3" stroke-linecap="round"/>
<path d="M402.348 378.177C404.203 383.881 401.227 397.083 373.953 400.282C363.634 401.492 362.083 401.322 352.398 400.505" stroke="#D1D4D8" stroke-width="3" stroke-linecap="round"/>
<path d="M385.809 366.765C391.168 362.816 399.715 355.647 404.102 349.523C408.866 349.468 413.479 352.153 406.127 361.537C402.944 365.6 397.518 370.918 388.89 377.814" stroke="#D1D4D8" stroke-width="3" stroke-linecap="round"/>
<path d="M388.898 377.872C397.526 370.976 402.952 365.658 406.135 361.595C410.68 362.876 414.769 367.831 402.349 378.177C399.633 380.439 396.127 382.96 391.664 385.756" stroke="#D1D4D8" stroke-width="3" stroke-linecap="round"/>
<path d="M492.309 66.2466C489.839 115.642 486.394 215.787 492.095 225.915C492.235 226.163 492.458 226.26 492.741 226.285C531.883 229.734 612.208 236.212 628.979 235.302C629.481 235.275 629.825 234.894 629.849 234.392C631.847 192.607 636.034 104.699 637.273 77.5292C637.295 77.0518 636.998 76.6704 636.533 76.5581C606.734 69.3509 536.166 56.3849 485.809 60.7466" stroke="#D1D4D8" stroke-width="3" stroke-linecap="round"/>
<path d="M637.809 81.7466C674.459 82.0753 750.263 84.1867 764.254 89.9985C764.618 90.1499 764.801 90.5006 764.789 90.895L760.841 219.201C760.823 219.771 760.358 220.212 759.789 220.169C724.381 217.494 651.032 213.077 632.809 216.247" stroke="#D1D4D8" stroke-width="3" stroke-linecap="round"/>
<path d="M489.809 214.746C470.642 213.08 429.009 209.946 415.809 210.746C402.957 211.525 382.111 208.26 372.56 206.395C372.115 206.308 371.791 205.95 371.764 205.497C369.3 164.433 365.935 81.3914 371.579 67.7537C371.72 67.4117 372.026 67.2412 372.396 67.2324C407.093 66.4058 476.092 65.7804 490.809 71.7466" stroke="#D1D4D8" stroke-width="3" stroke-linecap="round"/>
<path d="M398.309 210.247L400.743 271.591C400.773 272.343 401.591 272.794 402.243 272.418L432.557 254.892C432.721 254.797 432.899 254.75 433.088 254.758C472.751 256.438 566.45 261.664 626.309 269.247C686.309 276.847 708.975 238.08 712.809 217.747" stroke="#D1D4D8" stroke-width="3" stroke-linecap="round"/>
<path d="M721.309 83.7466C723.809 64.7466 727.908 39.2467 674.308 35.2467C620.739 31.249 503.444 27.9172 451.399 26.7487C451.336 26.7473 451.279 26.7405 451.217 26.7274C431.695 22.5858 395.122 24.5095 404.308 65.2467" stroke="#D1D4D8" stroke-width="3" stroke-linecap="round"/>
</svg>
