<svg width="1096" height="1854" viewBox="0 0 1096 1854" fill="none" xmlns="http://www.w3.org/2000/svg">
<path d="M232 1851.52L336.628 1480.97C336.872 1480.11 337.658 1479.52 338.553 1479.52H492.707C493.494 1479.52 494.208 1479.98 494.531 1480.69L576 1661.52" stroke="#D1D4D8" stroke-width="3" stroke-linecap="round"/>
<path d="M57.9654 963.516C47.724 973.701 34.5948 995.96 64 1003.52" stroke="#D1D4D8" stroke-width="3" stroke-linecap="round"/>
<path d="M57 985.516C58.8141 976.541 66.2687 959.614 82.3559 954.179C84.9999 953.286 87.8766 952.703 91 952.516" stroke="#D1D4D8" stroke-width="3" stroke-linecap="round"/>
<path d="M74.9292 902.516C95.2855 915.761 128.717 950.615 99.5817 984.07C70.4469 1017.52 59.054 1020.46 57 1017.74" stroke="#D1D4D8" stroke-width="3" stroke-linecap="round"/>
<path d="M53 927.516L82 954.516" stroke="#D1D4D8" stroke-width="3" stroke-linecap="round"/>
<path d="M82 899.516C80.2033 899.716 77.9089 900.36 75.3333 901.598C68.2522 904.999 59.0422 912.88 52.1978 928.306C50.2356 932.731 48.4667 937.777 47 943.516" stroke="#D1D4D8" stroke-width="3" stroke-linecap="round"/>
<path d="M80 891.516C66.6842 893.078 39.2421 900.266 36 916.516" stroke="#D1D4D8" stroke-width="3" stroke-linecap="round"/>
<path d="M74 882.769C67.6878 880.571 52.2525 878.044 41 885.516" stroke="#D1D4D8" stroke-width="3" stroke-linecap="round"/>
<path d="M221.264 676.64C221.796 679.893 223.036 682.592 224.513 684.342C226.007 686.11 227.54 686.708 228.79 686.463C230.04 686.218 231.287 685.075 232.129 682.848C232.96 680.647 233.268 677.644 232.736 674.391C232.205 671.138 230.965 668.439 229.487 666.69C227.993 664.921 226.46 664.323 225.21 664.568C223.96 664.813 222.712 665.956 221.871 668.183C221.04 670.385 220.732 673.387 221.264 676.64Z" stroke="#D1D4D8" stroke-width="3"/>
<path d="M550.798 565.755C551.776 568.56 551.814 574.621 544.918 577.844C544.407 578.083 543.859 578.306 543.269 578.512C534.725 581.487 533.023 575.568 533.241 572.236" stroke="#D1D4D8" stroke-width="3" stroke-linecap="round"/>
<path d="M529.599 560.393C525.766 564.991 529.255 567.718 531.478 568.506C532.029 568.624 532.7 568.741 533.464 568.84C537.644 569.382 544.596 569.41 549.676 566.483C550.093 566.242 550.466 565.998 550.799 565.753C555.256 562.461 552.419 558.798 550.277 557.288" stroke="#D1D4D8" stroke-width="3" stroke-linecap="round"/>
<path d="M549.332 547.192C551.562 547.873 555.315 550.232 552.486 554.223C549.656 558.213 536.585 560.009 530.403 560.408C530.137 560.417 529.868 560.413 529.601 560.395C527.183 560.227 524.882 558.885 525.094 555.645C525.393 551.066 531.357 549.899 532.707 549.719" stroke="#D1D4D8" stroke-width="3" stroke-linecap="round"/>
<path d="M536.227 532.683C538.432 533.764 540.182 537.277 534.558 539.8C528.933 542.324 529.983 546.326 531.211 548.012C533.221 550.017 540.032 551.881 551.19 543.295C562.35 534.711 545.379 527.794 535.498 525.41" stroke="#D1D4D8" stroke-width="3" stroke-linecap="round"/>
<path d="M512.815 540.787C517.58 537.485 526.731 533.024 525.207 541.597C523.684 550.168 517.335 553.528 514.351 554.136" stroke="#D1D4D8" stroke-width="3" stroke-linecap="round"/>
<path d="M508.579 581.061C511.126 578.952 515.687 571.81 513.561 560.108" stroke="#D1D4D8" stroke-width="3" stroke-linecap="round"/>
<path d="M534.238 538.578L464.778 27.5821C460.769 -4.86744 437.936 -0.861683 439.94 13.5611L512.85 544.763" stroke="#D1D4D8" stroke-width="3" stroke-linecap="round"/>
<path d="M514.448 560.387L525.785 639.587C527.183 648.912 529.973 657.137 536.082 655.73C542.192 654.324 542.892 644.915 542.09 637.303L537.584 582.821" stroke="#D1D4D8" stroke-width="3" stroke-linecap="round"/>
<path d="M508.756 533.109C499.862 546.026 479.597 615.661 446.747 656.523C416.094 697.311 333.635 769.432 249.027 731.615" stroke="#D1D4D8" stroke-width="3" stroke-linecap="round"/>
<path d="M116.629 1040.56C85.0961 1175.34 111.265 1405.29 164.5 1431.9C231.198 1465.24 250.537 1421.46 250.537 1368.33C250.537 1317.93 239.346 1230.2 250.537 1175.24C268.278 1170.44 267.664 1167.88 315.364 1175.24C363.064 1182.59 369.787 1209.92 369.787 1239.6C369.787 1281.18 358.342 1353.94 386.194 1368.33C421.009 1386.32 451.021 1369.93 481.834 1218.41C506.485 1097.2 381.125 1038.64 315.364 1024.52C296.655 1045.87 230.715 1078.98 116.629 1040.56Z" fill="#D1D4D8"/>
<path d="M118.269 874.069C98.7675 921.046 125.492 962.401 118.269 1040.7C166.667 1055.15 273.752 1071.77 314.916 1022.63C316.778 1014.06 325.361 909.803 314.916 833.516" stroke="#D1D4D8" stroke-width="3" stroke-linecap="round"/>
<path d="M159 805.516L165.451 795.408C171.739 785.558 183.974 781.626 194.657 786.023L210.03 792.35C219.621 796.297 230.611 793.559 237.342 785.545L255 764.516" stroke="#D1D4D8" stroke-width="3" stroke-linecap="round"/>
<path d="M247.421 731.942C251.037 721.712 247.743 714.827 244.528 713.516C225.238 730.829 195.981 724.402 185.13 713.909C181.272 717.372 183.523 727.614 185.13 730.762C206.028 753.426 235.766 740.729 247.421 731.942Z" fill="#D1D4D8"/>
<path d="M301.986 569.378C293.206 601.061 288.817 603.869 276.046 617.906C276.046 604.033 273.675 580.749 273.675 571.053C231.86 571.053 196.57 553.899 184.153 545.322C184.598 574.409 157.463 593.428 157.463 593.428C157.463 593.428 161.355 605.175 163.579 631.465C165.358 652.497 160.243 648.433 157.463 643.771C149.456 617.817 136.333 624.752 130.773 631.465C62.5397 520.049 167.471 498.521 187.488 500.572C202.612 487.595 223.705 477.425 238.533 475.933C292.009 470.554 316.223 518.005 301.986 569.378Z" fill="#D1D4D8"/>
<path d="M159 663.02C166.093 707.102 213.698 738.8 248.052 703.091C282.405 667.382 275.531 602.018 271.861 571.516" stroke="#D1D4D8" stroke-width="3" stroke-linecap="round"/>
<path d="M129.547 627.516C124.996 638.399 129.266 662.516 159 662.516" stroke="#D1D4D8" stroke-width="3" stroke-linecap="round"/>
<path d="M142.195 633.516C141.577 635.786 142.072 641.164 149 644.516" stroke="#D1D4D8" stroke-width="3" stroke-linecap="round"/>
<path d="M272 657.516C281.381 653.566 287.996 638.939 285.451 615.516" stroke="#D1D4D8" stroke-width="3" stroke-linecap="round"/>
<path d="M251.137 628.874C253.806 627.802 254.848 624.142 253.466 620.701C252.083 617.259 248.798 615.338 246.129 616.41C243.46 617.482 242.418 621.142 243.801 624.584C245.183 628.025 248.468 629.946 251.137 628.874Z" fill="#D1D4D8"/>
<path d="M202.132 630.254C204.84 629.285 206.102 625.891 204.95 622.674C203.799 619.457 200.67 617.635 197.962 618.604C195.254 619.573 193.992 622.967 195.144 626.184C196.296 629.401 199.424 631.224 202.132 630.254Z" fill="#D1D4D8"/>
<path d="M181 614.516C182.236 610.713 187.565 603.68 199 605.961" stroke="#D1D4D8" stroke-width="3" stroke-linecap="round"/>
<path d="M238 607.516C240.576 605.252 247.582 602.082 255 607.516" stroke="#D1D4D8" stroke-width="3" stroke-linecap="round"/>
<path d="M230.363 625.516C231.297 633.16 237.425 649.516 227 649.516" stroke="#D1D4D8" stroke-width="3" stroke-linecap="round"/>
<path d="M183 728.516C103.901 728.516 4.92693 812.116 35.7805 916.516" stroke="#D1D4D8" stroke-width="3" stroke-linecap="round"/>
<path d="M125 844.516C121.308 848.367 113.103 859.016 109.821 870.808C106.538 882.6 97.2393 890.86 93 893.516" stroke="#D1D4D8" stroke-width="3" stroke-linecap="round"/>
<path d="M804.221 405.698C701.054 420.416 535.077 369.407 489.976 355.495C489.232 355.265 488.76 354.647 488.655 353.876L444.551 30.5578C444.327 28.9105 446.131 27.7402 447.581 28.5531C535.342 77.747 598.32 58.3419 768.599 61.8257C940.007 65.3326 1042.96 145.122 1073.76 185.389C1074.17 185.921 1074.27 186.566 1074.02 187.189C1064.45 211.416 1010.19 260.89 985.972 278.526C985.064 279.188 984.871 280.43 985.538 281.333C1025.88 335.971 1075.16 422.67 1093.8 469.75C1094.51 471.556 1092.42 473.099 1090.8 472.024C968.866 391.02 889.073 396.994 804.221 405.698Z" fill="#D1D4D8"/>
<path d="M194.141 1457.52C195.488 1468.53 196.645 1493.93 184.059 1499.59C146.947 1502.35 136.054 1525.55 162.853 1527.52C191.723 1527.52 223.051 1527 231.66 1516.11C234.612 1503.53 232.464 1472.85 227.397 1457.52" stroke="#D1D4D8" stroke-width="3" stroke-linecap="round"/>
<path d="M379.455 1388.32C378.738 1396.27 376.576 1446.46 379.452 1456.82C386.727 1483.06 411.087 1479.15 464.312 1476.86C471.483 1475.12 484.271 1462.83 464.312 1452.42C451.205 1448.01 442.871 1450.12 436.464 1444.81C420.935 1431.95 416.194 1409.62 419.294 1385.52" stroke="#D1D4D8" stroke-width="3" stroke-linecap="round"/>
<path d="M519 613.516C509.276 681.687 454.743 821.761 316 833.516" stroke="#D1D4D8" stroke-width="3" stroke-linecap="round"/>
<path d="M322.5 1529.52H128.739C127.941 1529.52 127.218 1529.99 126.902 1530.72L2 1820.52" stroke="#D1D4D8" stroke-width="3" stroke-linecap="round"/>
<path d="M485.5 1812.52L637 1564.52L861.5 1851.02" stroke="#D1D4D8" stroke-width="3" stroke-linecap="round"/>
</svg>
