<svg width="962" height="816" viewBox="0 0 962 816" fill="none" xmlns="http://www.w3.org/2000/svg">
<path d="M900.314 14.6657C898.481 8.33233 889.826 -4.20236 877.814 6.66567C867.314 16.1658 884.314 29.6657 886.314 39.6657C887.462 45.4044 883.481 52.3324 882.314 55.6657" stroke="#D1D4D8" stroke-width="3" stroke-linecap="round"/>
<path d="M889.814 155.164C889.814 140.764 903.692 120.164 907.815 107.664C912.981 91.9974 918.015 60.3641 896.815 59.1641C875.615 57.9641 865.981 74.3308 863.815 82.6641C859.981 93.9974 849.514 119.764 838.314 132.164C824.927 146.986 822.513 170.037 858.613 173.338C861.434 173.596 863.815 171.312 863.815 168.48V164.664" stroke="#D1D4D8" stroke-width="3" stroke-linecap="round"/>
<ellipse rx="63.5" ry="9.5" transform="matrix(-1 0 0 1 867.314 702.164)" fill="#D1D4D8"/>
<path d="M912.315 117.164C916.815 135.997 927.315 175.864 933.315 184.664C940.815 195.664 992.315 309.664 928.315 577.664" stroke="#D1D4D8" stroke-width="3" stroke-linecap="round"/>
<path d="M924.814 591.164C901.814 594.664 856.714 594.464 860.314 565.664C864.814 529.664 869.314 488.164 864.814 459.664C860.314 431.164 848.814 382.664 869.314 199.164" stroke="#D1D4D8" stroke-width="3" stroke-linecap="round"/>
<path d="M935.814 536.664C926.981 542.331 902.014 551.964 872.814 545.164" stroke="#D1D4D8" stroke-width="3" stroke-linecap="round"/>
<path d="M853.314 557.164C846.814 554.831 830.214 550.864 815.814 553.664C801.544 556.439 802.463 529.651 804.752 515.544C804.794 515.286 804.851 515.057 804.931 514.809C808.489 503.831 816.358 466.127 820.314 399.664C824.314 332.464 836.314 218.664 841.814 170.164" stroke="#D1D4D8" stroke-width="3" stroke-linecap="round"/>
<path d="M732.129 14.6657C730.296 8.33233 721.641 -4.20236 709.629 6.66567C699.129 16.1658 716.129 29.6657 718.129 39.6657C719.277 45.4044 715.296 52.3324 714.129 55.6657" stroke="#D1D4D8" stroke-width="3" stroke-linecap="round"/>
<path d="M721.629 155.164C721.629 140.764 735.507 120.164 739.629 107.664C744.796 91.9974 749.829 60.3641 728.629 59.1641C707.429 57.9641 697.796 74.3308 695.629 82.6641C691.796 93.9974 681.329 119.764 670.129 132.164C656.742 146.986 654.327 170.037 690.428 173.338C693.248 173.596 695.629 171.312 695.629 168.48V164.664" stroke="#D1D4D8" stroke-width="3" stroke-linecap="round"/>
<ellipse rx="63.5" ry="9.5" transform="matrix(-1 0 0 1 699.129 702.164)" fill="#D1D4D8"/>
<path d="M744.129 117.164C748.629 135.997 759.129 175.864 765.129 184.664C772.629 195.664 824.129 309.664 760.129 577.664" stroke="#D1D4D8" stroke-width="3" stroke-linecap="round"/>
<path d="M756.629 591.166C733.629 594.666 688.529 594.466 692.129 565.666C696.629 529.666 698.814 488.436 696.629 459.666C693 411.891 696.629 408.391 701 256.891" stroke="#D1D4D8" stroke-width="3" stroke-linecap="round"/>
<path d="M767.629 536.664C758.796 542.331 733.829 551.964 704.629 545.164" stroke="#D1D4D8" stroke-width="3" stroke-linecap="round"/>
<path d="M685.129 557.166C678.629 554.832 662.029 550.866 647.629 553.666C633.358 556.441 634.278 529.653 636.566 515.546C636.608 515.288 636.658 515.084 636.734 514.835C640.352 503.023 651.539 420.429 655.5 353.891" stroke="#D1D4D8" stroke-width="3" stroke-linecap="round"/>
<path d="M92.3145 17.6657C90.4811 11.3323 81.8264 -1.20236 69.8145 9.66567C59.3145 19.1658 76.3145 32.6657 78.3145 42.6657C79.4622 48.4044 75.4811 55.3324 74.3145 58.6657" stroke="#D1D4D8" stroke-width="3" stroke-linecap="round"/>
<path d="M696.43 231.168C696.43 234.64 695.13 241.485 689.93 241.085" stroke="#D1D4D8" stroke-width="3" stroke-linecap="round"/>
<path d="M720.93 219.086L728.93 225.836C731.43 227.945 733.43 231.169 733.43 235.086C733.43 237.235 732.437 238.697 731.049 239.621C727.275 242.134 723.995 238.817 722.261 234.627V234.627C720.02 229.211 712.498 229.484 706.948 231.37C703.807 232.438 700.177 232.69 696.43 231.169C694.61 230.429 692.762 229.272 690.93 227.586" stroke="#D1D4D8" stroke-width="3" stroke-linecap="round"/>
<path d="M731.43 214.492C734.175 216.36 737.992 218.504 740.147 221.369C740.726 222.138 740.944 222.391 741.11 223.339V223.339C742.195 229.567 733.885 230.014 729.054 225.937L728.93 225.833L720.93 219.083" stroke="#D1D4D8" stroke-width="3" stroke-linecap="round"/>
<path d="M716.43 199.086C722.03 198.286 733.43 200.753 738.43 202.086C746.93 204.586 751.03 212.486 745.43 216.086C741.942 218.328 736.332 216.807 731.43 214.495C728.462 213.095 725.752 211.406 723.93 210.086" stroke="#D1D4D8" stroke-width="3" stroke-linecap="round"/>
<path d="M662.93 225.584C665.096 211.084 676.63 182.784 705.43 185.584C717.272 186.735 725.406 188.264 730.867 189.816C737.768 191.777 745.592 201.663 738.43 202.084V202.084" stroke="#D1D4D8" stroke-width="3" stroke-linecap="round"/>
<path d="M257.642 797.505C249.246 790.187 286.554 790.729 304.968 790.391C307.62 794.05 309.572 794.117 314.359 794.964C316.569 800.553 266.039 804.822 257.642 797.505Z" fill="#D1D4D8"/>
<path d="M539.037 246.391C537.023 252.319 535.522 271.583 543.43 287.391" stroke="#D1D4D8" stroke-width="3" stroke-linecap="round"/>
<path d="M534.43 292.36C549.936 286.756 579.465 279.898 579.465 299.284V302.648C579.465 304.92 582.038 306.206 583.817 304.815C608.711 285.363 643.43 253.891 659.93 229.891C661.096 228.225 664.93 225.691 670.93 228.891C678.43 232.891 688.43 234.891 689.43 248.391C690.43 261.891 678.43 297.391 644.93 335.391C618.13 365.791 616.551 371.891 611.93 385.391C605.596 403.891 592.33 452.591 589.93 499.391" stroke="#D1D4D8" stroke-width="3" stroke-linecap="round"/>
<path d="M603.24 142.391C618.302 154.406 641.68 180.341 618.957 190.892C617.625 191.51 616.89 193.006 617.269 194.432C621.74 211.207 621.033 245.844 586.352 269.3C585.836 269.649 585.438 270.167 585.251 270.764L578.43 292.391" stroke="#D1D4D8" stroke-width="3" stroke-linecap="round"/>
<path d="M587.53 230.391C586.984 233.091 588.402 238.671 598.43 239.391" stroke="#D1D4D8" stroke-width="3" stroke-linecap="round"/>
<path d="M614.43 168.891C614.43 174.003 612.839 178.499 610.435 181.64C608.031 184.779 604.987 186.391 601.93 186.391C598.873 186.391 595.828 184.779 593.424 181.64C591.02 178.499 589.43 174.003 589.43 168.891C589.43 163.778 591.02 159.282 593.424 156.141C595.828 153.002 598.873 151.391 601.93 151.391C604.987 151.391 608.031 153.002 610.435 156.141C612.839 159.282 614.43 163.778 614.43 168.891Z" stroke="#D1D4D8" stroke-width="3" stroke-linecap="round"/>
<path d="M557.43 184.391L587.43 174.391" stroke="#D1D4D8" stroke-width="3" stroke-linecap="round"/>
<path d="M581.43 163.391C582.219 160.28 585.125 153.124 590.43 149.391" stroke="#D1D4D8" stroke-width="3" stroke-linecap="round"/>
<path d="M604.43 172.391C606.639 172.391 608.43 170.824 608.43 168.891C608.43 166.958 606.639 165.391 604.43 165.391C602.221 165.391 600.43 166.958 600.43 168.891C600.43 170.824 602.221 172.391 604.43 172.391Z" fill="#D1D4D8"/>
<path d="M534.43 291.391L418.43 425.391" stroke="#D1D4D8" stroke-width="3" stroke-linecap="round"/>
<path d="M418.43 425.811C426.956 424.643 449.12 425.21 469.58 436.822C495.155 451.338 522.233 476.866 589.43 499.391" stroke="#D1D4D8" stroke-width="3" stroke-linecap="round"/>
<path d="M589.43 499.391L567.43 514.391" stroke="#D1D4D8" stroke-width="3" stroke-linecap="round"/>
<path d="M418.535 425.391C416.836 430.542 415.148 442.555 429.43 457.391" stroke="#D1D4D8" stroke-width="3" stroke-linecap="round"/>
<path d="M502.43 328.391C484.12 343.765 437.692 376.2 398.457 382.946C389.303 386.747 373.544 397.426 383.745 409.725C393.946 422.026 400.747 437.004 402.872 442.954C404.507 448.411 408.576 456.017 418.385 438.56" stroke="#D1D4D8" stroke-width="3" stroke-linecap="round"/>
<path d="M386.43 414.391C378.704 418.946 360.688 427.652 350.431 426.031C340.173 424.412 333.335 428.731 331.198 431.094C330.047 432.949 329.324 436.762 335.636 437.167C341.948 437.572 349.444 437.335 352.403 437.167" stroke="#D1D4D8" stroke-width="3" stroke-linecap="round"/>
<path d="M361.43 430.391C357.883 434.268 345.824 443.08 325.962 447.31C322.078 448.014 316.842 452.067 323.935 456.826C330.016 460.528 346.837 457.144 355.35 452.067" stroke="#D1D4D8" stroke-width="3" stroke-linecap="round"/>
<path d="M355.008 451.391C348.834 454.59 337.721 463.108 342.661 471.592C344.244 473.276 350.924 473.41 364.982 460.481L375.43 451.391" stroke="#D1D4D8" stroke-width="3" stroke-linecap="round"/>
<path d="M376.968 451.583L365.986 460.756C362.825 469.08 358 489.296 370.978 478.083C380.462 468.401 378.465 460.146 382.458 457.698C386.452 455.253 395.436 445.808 399.43 441.391" stroke="#D1D4D8" stroke-width="3" stroke-linecap="round"/>
<path d="M376.439 435.391C375.109 439.94 374.044 450.511 380.43 456.391" stroke="#D1D4D8" stroke-width="3" stroke-linecap="round"/>
<path d="M497.43 771.391C503.634 769.736 516.14 761.363 516.531 741.108C516.924 720.853 525.185 686.003 529.266 671.109L569.43 492.391" stroke="#D1D4D8" stroke-width="3" stroke-linecap="round"/>
<path d="M584.93 202.391C585.758 202.391 586.43 201.719 586.43 200.891C586.43 200.062 585.758 199.391 584.93 199.391C584.101 199.391 583.43 200.062 583.43 200.891C583.43 201.719 584.101 202.391 584.93 202.391Z" fill="#D1D4D8"/>
<path d="M591.43 209.391C591.982 209.391 592.43 208.719 592.43 207.891C592.43 207.062 591.982 206.391 591.43 206.391C590.877 206.391 590.43 207.062 590.43 207.891C590.43 208.719 590.877 209.391 591.43 209.391Z" fill="#D1D4D8"/>
<path d="M576.93 212.391C577.758 212.391 578.43 211.719 578.43 210.891C578.43 210.062 577.758 209.391 576.93 209.391C576.101 209.391 575.43 210.062 575.43 210.891C575.43 211.719 576.101 212.391 576.93 212.391Z" fill="#D1D4D8"/>
<path d="M430.58 188.552C454.635 143.605 490.552 137.953 505.505 140.745C536.558 92.9389 579.443 77.1679 605.568 91.4608C626.469 102.895 609.348 131.71 598.175 144.689L587.331 128.918C579.838 143.506 558.413 138.117 547.896 134.832C556.933 153.888 571.359 203.142 540.995 247.695C510.632 292.249 472.479 293.037 453.254 280.223C435.509 267.574 406.525 233.501 430.58 188.552Z" fill="#D1D4D8"/>
<path d="M600.43 335.391C606.381 341.145 617.171 356.902 614.93 375.891" stroke="#D1D4D8" stroke-width="3" stroke-linecap="round"/>
<path d="M416.43 777.391C419.952 782.579 431.682 792.371 450.43 790.037" stroke="#D1D4D8" stroke-width="3" stroke-linecap="round"/>
<path d="M446.221 429.391C439.964 447.227 410.649 483.892 384.464 529.972C367.008 558.875 325.375 623.418 298.499 650.372C294.876 655.491 291.483 667.118 306.898 672.667C318.755 677.622 324.091 689.117 325.672 701.405C327.648 716.765 352.845 728.16 369.643 716.765C383.031 707.681 421.53 642.254 450.615 605.284C458.02 595.87 464.815 588.301 470.43 583.979" stroke="#D1D4D8" stroke-width="3" stroke-linecap="round"/>
<path d="M449.334 604.391L416.43 777.391C433.154 772.929 479.097 764.502 507.43 764.502" stroke="#D1D4D8" stroke-width="3" stroke-linecap="round"/>
<path d="M287.316 762.36C260.615 709.925 285.366 675.031 298.752 666.391C319.504 673.003 320.065 695.046 323.43 705.516L315.663 727.061C310.466 736.328 313.498 754.455 315.663 762.36C324.64 798.983 311.091 802.504 304.442 792.696L287.316 762.36Z" fill="#D1D4D8"/>
<path d="M431.92 811.543C422.625 804.272 441.008 801.453 459.662 800.391C466.16 806.13 509.324 808.09 511.43 809.418C491.572 815.794 440.065 817.913 431.92 811.543Z" fill="#D1D4D8"/>
<path d="M522.352 808.429C453.379 817.973 439.064 790.44 440.528 774.344C452.39 769.344 485.009 767.526 500.386 766.391C495.992 776.843 501.484 775.479 505.328 778.32C510.271 781.729 524 785.895 531.688 786.273C566.285 787.978 539.193 805.968 522.352 808.429Z" fill="#D1D4D8"/>
<ellipse rx="63.5" ry="9.5" transform="matrix(-1 0 0 1 63.5 701.891)" fill="#D1D4D8"/>
<path d="M101 84.8912C100.226 99.6097 92.8249 98.9508 88.8763 96.6244C88.6226 96.4749 88.3742 96.2721 88.158 96.0721C63.56 73.3126 70.0092 118.935 72.0002 128.391C74.0004 137.891 71 149.891 64 150.891C57 151.891 45.5 146.891 50.5 139.891C55.5 132.891 54.5 118.391 55.5 103.391C56.5 88.3912 64.0002 78.3912 72.0002 72.3912C80.0002 66.3912 102 65.8912 101 84.8912Z" stroke="#D1D4D8" stroke-width="3" stroke-linecap="round"/>
<path d="M88.5003 106.391C89.167 127.391 92.7003 173.291 101.5 188.891C112.5 208.391 130.5 375.891 116 402.891C105.23 422.946 91.0389 473.292 83.995 500.934C83.2112 504.01 79.7988 505.61 76.7949 504.583C71.8359 502.889 65.6115 501.52 61.5 502.891C55.5 504.891 48 498.724 45 495.391" stroke="#D1D4D8" stroke-width="3" stroke-linecap="round"/>
<path d="M41.9999 502.391C38.9999 499.391 34.4999 488.691 40.4999 469.891C47.9999 446.391 60.9999 363.391 57.9999 342.891C55.5999 326.491 60.6666 208.391 63.5 151.391" stroke="#D1D4D8" stroke-width="3" stroke-linecap="round"/>
<path d="M55.5 149.891C51.6667 219.391 42.2 362.691 35 379.891C27.8 397.091 27.3333 441.391 28 461.391C27.8333 466.391 28.8333 470.891 28 475.891" stroke="#D1D4D8" stroke-width="3" stroke-linecap="round"/>
<path d="M99.9996 445.391C101.666 460.557 107 479.891 102.5 499.891C97.2195 523.356 104.5 599.391 104.5 601.891" stroke="#D1D4D8" stroke-width="3" stroke-linecap="round"/>
<path d="M92 602.391C87.3333 600.057 74.1 596.791 58.5 602.391C39 609.391 38 574.891 45 554.891C50.6 538.891 48.6667 519.224 47 511.391" stroke="#D1D4D8" stroke-width="3" stroke-linecap="round"/>
<path d="M62.3627 516.391C62.5143 527.856 63.1805 552.464 64.6361 559.167C67.8335 573.891 62.8174 580.776 60.9987 587.391" stroke="#D1D4D8" stroke-width="3" stroke-linecap="round"/>
<path d="M76.9996 522.391C79.9996 540.891 84.4996 579.791 78.4996 587.391" stroke="#D1D4D8" stroke-width="3" stroke-linecap="round"/>
<path d="M236.314 17.6657C234.481 11.3323 225.826 -1.20236 213.814 9.66567C203.314 19.1658 220.314 32.6657 222.314 42.6657C223.462 48.4044 219.481 55.3324 218.314 58.6657" stroke="#D1D4D8" stroke-width="3" stroke-linecap="round"/>
<ellipse rx="63.5" ry="9.5" transform="matrix(-1 0 0 1 207.5 701.891)" fill="#D1D4D8"/>
<path d="M245 84.8912C244.226 99.6097 236.825 98.9508 232.876 96.6244C232.623 96.4749 232.374 96.2721 232.158 96.0721C207.56 73.3126 214.009 118.935 216 128.391C218 137.891 215 149.891 208 150.891C201 151.891 189.5 146.891 194.5 139.891C199.5 132.891 198.5 118.391 199.5 103.391C200.5 88.3912 208 78.3912 216 72.3912C224 66.3912 246 65.8912 245 84.8912Z" stroke="#D1D4D8" stroke-width="3" stroke-linecap="round"/>
<path d="M232.5 106.391C233.167 127.391 236.7 173.291 245.5 188.891C256.5 208.391 274.5 375.891 260 402.891C249.23 422.946 235.039 473.292 227.995 500.934C227.211 504.01 223.799 505.61 220.795 504.583C215.836 502.889 209.611 501.52 205.5 502.891C199.5 504.891 192 498.724 189 495.391" stroke="#D1D4D8" stroke-width="3" stroke-linecap="round"/>
<path d="M186 502.391C183 499.391 178.5 488.691 184.5 469.891C192 446.391 205 363.391 202 342.891C199.6 326.491 204.667 208.391 207.5 151.391" stroke="#D1D4D8" stroke-width="3" stroke-linecap="round"/>
<path d="M199.5 149.891C195.667 219.391 186.2 362.691 179 379.891C171.8 397.091 171.333 441.391 172 461.391C171.833 466.391 172.833 470.891 172 475.891" stroke="#D1D4D8" stroke-width="3" stroke-linecap="round"/>
<path d="M244 445.391C245.666 460.557 251 479.891 246.5 499.891C241.219 523.356 248.5 599.391 248.5 601.891" stroke="#D1D4D8" stroke-width="3" stroke-linecap="round"/>
<path d="M236 602.391C231.333 600.057 218.1 596.791 202.5 602.391C183 609.391 182 574.891 189 554.891C194.6 538.891 192.667 519.224 191 511.391" stroke="#D1D4D8" stroke-width="3" stroke-linecap="round"/>
<path d="M206.363 516.391C206.514 527.856 207.181 552.464 208.636 559.167C211.833 573.891 206.817 580.776 204.999 587.391" stroke="#D1D4D8" stroke-width="3" stroke-linecap="round"/>
<path d="M221 522.391C224 540.891 228.5 579.791 222.5 587.391" stroke="#D1D4D8" stroke-width="3" stroke-linecap="round"/>
<path d="M33.9995 14.3907L936 14.3906" stroke="#D1D4D8" stroke-width="3" stroke-linecap="round"/>
</svg>
