<svg width="569" height="704" viewBox="0 0 569 704" fill="none" xmlns="http://www.w3.org/2000/svg">
<path d="M179.638 461.516L117.5 467.516L190.375 479.516L254.638 473.516L179.638 461.516Z" fill="#D1D4D8" stroke="#D1D4D8" stroke-width="3" stroke-linecap="round"/>
<path d="M100 466.684L191.613 480.562M100 466.684V596.966C100 597.185 100.143 597.379 100.353 597.444L191.613 625.516M100 466.684L176.5 462.016M191.613 480.562L281.512 473.056C281.783 473.034 282.023 473.232 282.051 473.502L295.454 600.578C295.48 600.828 295.316 601.059 295.071 601.117L191.613 625.516M191.613 480.562V625.516" stroke="#D1D4D8" stroke-width="3" stroke-linecap="round"/>
<path d="M289.97 674.025C279.57 687.625 315.97 704.025 335.97 699.525C313.97 687.525 316.137 678.025 316.97 674.025C312.304 668.358 300.37 660.425 289.97 674.025Z" fill="#D1D4D8" stroke="#D1D4D8" stroke-width="3" stroke-linecap="round"/>
<path d="M324.012 650.689C319.475 660.888 313.124 683.036 324.012 690.03C337.621 698.773 342.157 703.144 358.035 700.959C373.912 698.773 378.449 696.587 369.376 690.03C360.303 683.473 351.51 672.743 353.778 646.516" stroke="#D1D4D8" stroke-width="3" stroke-linecap="round"/>
<path d="M310.705 628.037C289.5 587.516 288.5 524.016 282.023 471.901C223.154 475.4 186.619 472.209 168.318 454.214C143.136 429.452 149.797 402.323 149.797 378.211C172.749 394.303 165.216 373.515 258 373.516C344.562 378.316 369.591 504.516 371.285 567.016C373.047 594.132 370.428 618.59 358.147 628.037C333.477 647.015 316.189 638.516 310.705 628.037Z" fill="#D1D4D8" stroke="#D1D4D8" stroke-width="3" stroke-linecap="round"/>
<path d="M215.5 207.292V215.21C215.522 215.205 215.543 215.2 215.565 215.196C216.645 214.954 218.009 214.804 219.548 214.727C222.637 214.574 226.616 214.712 230.843 215.133C238.594 215.905 247.476 217.657 253.31 220.492C264.889 198.23 266.07 182.504 263.143 171.359C260.575 161.578 254.786 155.099 249.592 150.696C249.503 183.642 228.016 201.901 215.5 207.292Z" fill="#D1D4D8" stroke="#D1D4D8" stroke-width="3"/>
<path d="M146.072 145.085L160.98 146.687C160.992 139.369 163.25 134.237 166.282 130.796C168.867 127.862 171.961 126.22 174.542 125.488C173.992 123.776 173.82 122.197 173.967 120.746C174.162 118.816 174.91 117.209 175.917 115.897C177.892 113.325 180.878 111.865 182.777 111.089L183.803 110.67L184.505 111.528C189.276 117.357 195.462 119.889 198.6 121.174C198.727 121.226 198.85 121.276 198.966 121.324C228.169 128.907 245.637 118.448 253.639 105.79L253.652 105.769L253.666 105.748C257.949 99.4493 259.84 88.6673 257.463 78.4866C255.105 68.3871 248.604 59.097 236.325 55.4471L236.269 55.4306L236.215 55.4098C232.194 53.8669 225.326 52.4389 217.973 53.2512C210.653 54.0598 202.923 57.0761 196.97 64.3455L196.294 65.1703L195.293 64.8035C186.356 61.5291 178.685 61.4428 172.129 63.2914C165.555 65.1451 159.992 68.9756 155.345 73.7012C146.021 83.1829 140.558 96.0906 138.194 103.023L138.175 103.079L138.151 103.134L132.625 115.918L132.318 116.63L131.559 116.791C108.068 121.772 95.413 135.277 89.5926 149.887C83.7333 164.594 84.79 180.45 88.8448 189.983L87.4645 190.57L88.8448 189.983C90.7674 194.503 91.7939 196.727 92.981 198.471C94.1564 200.198 95.5129 201.492 98.2697 204.103L98.27 204.103L98.5228 204.343C98.5228 204.343 98.5229 204.343 98.5229 204.343C106.58 211.975 114.017 215.699 120.186 217.614C125.199 219.171 129.367 219.541 132.541 219.824C133.264 219.888 133.936 219.948 134.554 220.016C156.937 220.01 167.358 217.865 175.759 214.979L170.73 199.994C159.707 191.883 152.755 179.502 149.564 172.475C148.164 173.291 146.618 173.782 145.089 173.835C142.944 173.91 140.829 173.113 139.379 171.183C137.199 169.013 133.473 162.255 134.174 152.447C134.531 147.441 136.284 144.493 139.127 143.594C141.607 142.809 144.237 143.843 146.072 145.085Z" fill="#D1D4D8" stroke="#D1D4D8" stroke-width="3"/>
<path d="M161.357 149.176C163.369 160.533 173.231 167.987 183.088 166.27C192.945 164.553 199.655 154.212 197.643 142.855C195.631 131.498 185.769 124.044 175.912 125.761C166.055 127.479 159.345 137.819 161.357 149.176Z" stroke="#D1D4D8" stroke-width="3"/>
<path d="M214.299 149.176C215.985 160.533 224.247 167.987 232.506 166.27C240.765 164.553 246.386 154.212 244.701 142.855C243.015 131.498 234.753 124.044 226.494 125.761C218.235 127.479 212.614 137.819 214.299 149.176Z" stroke="#D1D4D8" stroke-width="3"/>
<path d="M212 145.516L198 147.516" stroke="#D1D4D8" stroke-width="3" stroke-linecap="round"/>
<path d="M212 190.516C208.909 195.309 201.182 198.827 195 190.516" stroke="#D1D4D8" stroke-width="3" stroke-linecap="round"/>
<path d="M206 162.516C210.27 171.788 211.633 176.425 207.544 179.516" stroke="#D1D4D8" stroke-width="3" stroke-linecap="round"/>
<path d="M230.701 157.24C231.087 159.442 233.186 160.913 235.388 160.526C237.589 160.139 239.061 158.041 238.674 155.839C238.287 153.638 236.189 152.166 233.987 152.553C231.785 152.94 230.314 155.038 230.701 157.24Z" fill="#D1D4D8" stroke="#D1D4D8" stroke-width="3"/>
<path d="M184.38 158.618C184.767 160.82 186.866 162.291 189.067 161.904C191.269 161.517 192.74 159.419 192.354 157.217C191.967 155.015 189.868 153.544 187.667 153.931C185.465 154.318 183.994 156.416 184.38 158.618Z" fill="#D1D4D8" stroke="#D1D4D8" stroke-width="3"/>
<path d="M143.732 157.37C144.267 158.093 145.501 159.76 146.157 160.648" stroke="#D1D4D8" stroke-width="3" stroke-linecap="round"/>
<path d="M239.029 119.516C251.992 146.931 253.401 169.262 226.368 197.226C199.336 225.19 170.357 198.963 159.246 182.354L152 171.588" stroke="#D1D4D8" stroke-width="3" stroke-linecap="round"/>
<path d="M159.896 146.056L147.931 146.46" stroke="#D1D4D8" stroke-width="3" stroke-linecap="round"/>
<path d="M290.012 286.516C299.185 297.11 310.089 336.371 282 363.516" stroke="#D1D4D8" stroke-width="3" stroke-linecap="round"/>
<path d="M274.5 254.016C274.5 226.016 237.868 215.173 214.43 219.279C207.622 224.362 190.25 231.478 175.219 219.279C163.51 220.618 138.132 226.83 130.29 240.96C110.412 273.876 100.065 360.582 162.966 383.864" stroke="#D1D4D8" stroke-width="3" stroke-linecap="round"/>
<path d="M164 286.516C172.024 299.048 174.763 317.917 174.071 329.833C174.048 330.232 174.509 330.481 174.829 330.242C192.991 316.703 234.438 319.242 244.11 326.264C251.968 331.968 246.242 339.731 241.602 344.685C228.816 358.331 209.228 371.56 196.5 377.516" stroke="#D1D4D8" stroke-width="3" stroke-linecap="round"/>
<path d="M292.185 292.429L292.188 292.465C293.345 288.807 294.573 284.08 295.156 279.612C295.549 276.594 295.636 273.786 295.256 271.538C294.871 269.263 294.062 267.842 292.927 267.155C286.571 263.309 279.097 262.828 276.219 263.066C274.56 263.26 272.598 263.57 270.89 264.693C269.249 265.772 267.669 267.722 267.055 271.58C265.687 280.177 261.686 289.155 260.211 291.925C259.653 293.247 259.127 294.789 258.809 296.26C258.477 297.793 258.409 299.077 258.622 299.936C258.723 300.343 258.868 300.576 259.003 300.71C259.123 300.829 259.317 300.951 259.695 300.997C260.55 301.102 262.156 300.787 264.865 299.336L264.938 299.296L265.015 299.265C266.182 298.798 268.035 297.516 270.178 295.586C272.283 293.689 274.55 291.273 276.545 288.672L276.545 288.672C279.007 285.464 282.422 284.524 285.376 284.871C286.837 285.042 288.207 285.528 289.325 286.222C290.424 286.906 291.384 287.858 291.854 289.025L291.94 289.239L291.958 289.47L292.185 292.429Z" fill="#D1D4D8" stroke="#D1D4D8" stroke-width="3"/>
<path d="M274 255.602C276.502 255.232 279.527 255.983 281.3 259.085C281.683 259.754 281.933 260.557 282 261.516" stroke="#D1D4D8" stroke-width="3" stroke-linecap="round"/>
<path d="M261.734 289.516C259.257 287.822 258.126 285.282 256.003 280.957C253.88 275.12 252.651 271.733 251.333 266.848C251.05 265.28 250.036 261.021 253.88 260.578C257.276 260.186 257.701 262.929 258.126 264.889C259.399 271.733 265.036 270.509 265.036 265.805C265.036 261.102 265.036 257.337 263.597 251.697C262.839 248.725 260.905 242.516 267.867 242.516C272.868 242.516 273.264 247.097 274 254.935" stroke="#D1D4D8" stroke-width="3" stroke-linecap="round"/>
<path d="M290 315.516C278.313 334.979 269.026 329.784 254 339.516" stroke="#D1D4D8" stroke-width="3" stroke-linecap="round"/>
<path d="M239 317.516C240.385 310.083 247.307 305.481 250.423 292.031C251.493 287.411 252.846 283.183 257 283.536" stroke="#D1D4D8" stroke-width="3" stroke-linecap="round"/>
<path d="M393 595.06C396.99 608.604 408.802 634.789 424.125 631.177C439.448 627.565 462.432 614.623 472.009 608.604C481.586 601.079 488.769 587.836 440.884 595.06C437.692 595.06 431.307 592.351 431.307 581.516" stroke="#D1D4D8" stroke-width="3" stroke-linecap="round"/>
<path d="M110.834 430.614C89.7006 436.343 66.8057 469.602 58 485.516C71.2086 483.924 101.148 475.49 115.237 454.485C129.326 433.479 118.173 429.819 110.834 430.614Z" fill="#D1D4D8" stroke="#D1D4D8" stroke-width="3"/>
<path d="M101.276 374.669C80.0786 376.842 64.833 430.001 58 454.516C73.1844 441.908 103.098 416.693 110.386 408.288C124.052 392.529 121.775 372.567 101.276 374.669Z" fill="#D1D4D8" stroke="#D1D4D8" stroke-width="3"/>
<path d="M35.9735 357.672C24.4241 376.471 49.4497 404.716 60.9997 423.516C60.9997 411.679 61.0002 386.915 61 376.471C60.9996 359.761 44.313 344.098 35.9735 357.672Z" fill="#D1D4D8" stroke="#D1D4D8" stroke-width="3"/>
<path d="M61 464.516C45.2926 442.535 11.7358 404.435 3.16813 427.881C-7.54148 457.189 58.8581 464.516 61 464.516Z" fill="#D1D4D8" stroke="#D1D4D8" stroke-width="3"/>
<path d="M61 494.516L58 414.516" stroke="#D1D4D8" stroke-width="3" stroke-linecap="round"/>
<path d="M36.8257 560.663C42.2344 547.714 50.2848 514.484 51.9672 498.516H74.6798C75.6892 518.196 86.0351 546.421 91.083 560.663C106.224 594.326 93.186 615.905 83.5123 621.516H46.92C22.946 613.747 29.2545 578.789 36.8257 560.663Z" stroke="#D1D4D8" stroke-width="3"/>
<path d="M171 302.516C172.568 295.989 175.235 280.652 173.353 271.516" stroke="#D1D4D8" stroke-width="3" stroke-linecap="round"/>
<path d="M279 302.516C282.836 300.145 293.387 295.405 290.509 286.516" stroke="#D1D4D8" stroke-width="3" stroke-linecap="round"/>
<path d="M282 311.516C284.333 310.627 289 307.516 291 305.516" stroke="#D1D4D8" stroke-width="3" stroke-linecap="round"/>
<path d="M269 368.016C273.333 358.182 276 350.016 278.5 329.016" stroke="#D1D4D8" stroke-width="3" stroke-linecap="round"/>
<path d="M395.579 408.518C365.234 350.723 280.674 362.173 257 374.619C317.051 380.783 332.332 422.545 334.753 442.026C343.792 519.303 367.573 564.597 378.334 577.585C387.211 584.079 425.576 583.615 427.564 567.844C434.827 510.211 413.053 441.799 395.579 408.518Z" fill="#D1D4D8" stroke="#D1D4D8" stroke-width="3"/>
<path d="M456.087 664.587C457.546 655.097 427.546 658.739 410.323 662.11C408.833 662.402 407.474 663.357 407.235 664.856C406.73 668.014 408.306 671.01 409.837 672.912C410.552 673.801 411.647 674.246 412.786 674.305C427.653 675.075 454.62 674.135 456.087 664.587Z" fill="#D1D4D8" stroke="#D1D4D8" stroke-width="3"/>
<path d="M521 15.6C538.826 23.3333 559.364 39.411 564.5 68.5157C571.7 109.316 563.167 161.182 558 182.016C555.667 190.349 546.1 208.216 526.5 213.016C506.9 217.816 440.667 212.349 410 209.016C400.929 207.324 378.467 215.307 365.934 229.743C365.224 230.562 363.538 229.859 363.633 228.78C364.399 220.017 363.767 204.778 353 201.516C336.5 196.516 274.5 187.016 270 126.016C265.5 65.0157 248.5 0.0157182 318 2.01572C360.665 3.24349 423.723 6.12001 468 8.29567" stroke="#D1D4D8" stroke-width="3" stroke-linecap="round"/>
<path d="M307 4.01562V56.5156C307 57.0679 306.552 57.5156 306 57.5156H266" stroke="#D1D4D8" stroke-width="3" stroke-linecap="round"/>
<path d="M348.5 3.51562V58.048C348.5 58.5875 348.928 59.0297 349.467 59.0474L377.5 59.9687" stroke="#D1D4D8" stroke-width="3" stroke-linecap="round"/>
<path d="M561.5 66.016L519.5 64.6357" stroke="#D1D4D8" stroke-width="3" stroke-linecap="round"/>
<path d="M268 98.5156H329.534C330.352 98.5156 330.824 99.4437 330.342 100.105L284.5 163.016" stroke="#D1D4D8" stroke-width="3" stroke-linecap="round"/>
<path d="M323 190.516L381.686 111.439C381.883 111.174 382.197 111.023 382.526 111.035L461.412 113.975C461.998 113.997 462.439 114.515 462.368 115.096L450.5 212.016" stroke="#D1D4D8" stroke-width="3" stroke-linecap="round"/>
<path d="M479 214.516L488.403 118.996C488.457 118.452 488.937 118.052 489.482 118.097L566.5 124.516" stroke="#D1D4D8" stroke-width="3" stroke-linecap="round"/>
<path d="M453 59.5156H505" stroke="#D1D4D8" stroke-width="3" stroke-miterlimit="10" stroke-linecap="round" stroke-linejoin="round"/>
<path d="M470 71.5156H487" stroke="#D1D4D8" stroke-width="3" stroke-miterlimit="10" stroke-linecap="round" stroke-linejoin="round"/>
<path d="M496 71.5156H500" stroke="#D1D4D8" stroke-width="3" stroke-miterlimit="10" stroke-linecap="round" stroke-linejoin="round"/>
<path d="M494 86.5156V95.5156H484" stroke="#D1D4D8" stroke-width="3" stroke-miterlimit="10" stroke-linecap="round" stroke-linejoin="round"/>
<path d="M478 31.5156H418V95.5156H456.5" stroke="#D1D4D8" stroke-width="3" stroke-miterlimit="10" stroke-linecap="round" stroke-linejoin="round"/>
<path d="M495.586 41.9985L495.586 41.9985C497.389 40.4205 501.172 36.9434 504.493 32.8293C506.153 30.7726 507.671 28.5892 508.768 26.4322C509.871 24.2625 510.5 22.2147 510.5 20.4029C510.5 15.6673 508.963 11.842 506.39 9.2079C503.819 6.57693 500.099 5.01562 495.5 5.01562C486.556 5.01562 480.5 12.6545 480.5 20.4029C480.5 21.825 481.106 23.6573 482.235 25.7712C483.348 27.8534 484.887 30.0601 486.567 32.1912C489.926 36.4512 493.74 40.2742 495.521 41.9959L495.521 41.996C495.533 42.0081 495.542 42.0121 495.545 42.0135C495.549 42.0152 495.552 42.0156 495.554 42.0156C495.556 42.0157 495.559 42.0154 495.562 42.0141C495.565 42.013 495.574 42.0096 495.586 41.9985ZM495.5 25.2803C491.601 25.2803 488.5 22.0555 488.5 18.1512C488.5 14.247 491.601 11.0222 495.5 11.0222C499.399 11.0222 502.5 14.247 502.5 18.1512C502.5 22.0555 499.399 25.2803 495.5 25.2803Z" fill="#D1D4D8" stroke="#D1D4D8" stroke-width="3"/>
<path d="M385 71.5156V95.5156H390.5" stroke="#D1D4D8" stroke-width="3" stroke-linecap="round"/>
<path d="M418 71.5156V95.5156H416" stroke="#D1D4D8" stroke-width="3" stroke-linecap="round"/>
<path d="M384.054 71.0156H418V52.0156H404.5C393.683 52.0156 384.822 60.3941 384.054 71.0156Z" stroke="#D1D4D8" stroke-width="3"/>
<circle r="6.5" transform="matrix(-1 0 0 1 470 95.5156)" stroke="#D1D4D8" stroke-width="3"/>
<circle r="6.5" transform="matrix(-1 0 0 1 403 95.5156)" stroke="#D1D4D8" stroke-width="3"/>
</svg>
