<svg width="560" height="545" viewBox="0 0 560 545" fill="none" xmlns="http://www.w3.org/2000/svg">
<path d="M239.668 319.482C242.22 321.339 248.886 321.071 255.135 305.151" stroke="#D1D4D8" stroke-width="3" stroke-linecap="round"/>
<path d="M236.014 300.311C235.921 305.077 235.527 309.698 231.78 320.465C232.641 322.96 236.924 323.346 239.667 319.483C241.406 317.034 243.561 312.596 246.199 305.256" stroke="#D1D4D8" stroke-width="3" stroke-linecap="round"/>
<path d="M227.035 277.635C223.361 294.96 221.81 312.792 221.494 319.543C221.324 323.163 224.387 327.251 227.965 325.276C228.881 324.733 230.926 323.011 231.781 320.465C235.528 309.698 235.921 305.077 236.014 300.311" stroke="#D1D4D8" stroke-width="3" stroke-linecap="round"/>
<path d="M209.926 285.423C213.447 282.689 219.576 279.335 227.034 277.635C235.939 275.605 250 277.246 259.5 284.746" stroke="#D1D4D8" stroke-width="3" stroke-linecap="round"/>
<path d="M83 456.246H116" stroke="#D1D4D8" stroke-width="3" stroke-linecap="round"/>
<path d="M140 456.246H150" stroke="#D1D4D8" stroke-width="3" stroke-linecap="round"/>
<path d="M109.397 333.246H355V374.246H92L109.397 333.246Z" fill="#D1D4D8"/>
<path d="M2 333.246H23L18.4348 374.246H2V333.246Z" fill="#D1D4D8"/>
<path d="M55.7227 518.838C60.8581 531.956 82.3999 550.023 107.694 540.654C132.988 531.286 134.042 526.342 131.408 525.04" stroke="#D1D4D8" stroke-width="3" stroke-linecap="round"/>
<path d="M120.43 525.041C129.359 524.607 147.707 522.58 151.169 521.571C154 520.746 156.5 520.246 156 515.065C155.592 510.839 121.89 517.798 120.476 505.069C120.416 504.537 120.646 504.014 121.013 503.625C124.225 500.22 128.573 493.717 123.943 490.777C119.366 487.871 110.124 495.506 105.207 500.542C104.589 501.174 103.634 501.363 102.879 500.903C97.4953 497.62 90.3815 489.449 85.8145 474.746" stroke="#D1D4D8" stroke-width="3" stroke-linecap="round"/>
<path d="M104.182 213.246C-23.0257 301.603 23.0662 435.417 55.7232 518.838C67.2657 515.974 89.4434 503.146 85.8145 474.746C81.6494 461.337 79.6025 442.496 82.9176 416.974C90.1693 361.146 119.358 305.319 132.5 285.246" stroke="#D1D4D8" stroke-width="3" stroke-linecap="round"/>
<path d="M169.817 208.46C176.431 204.389 226.19 208.313 235.864 145.722C252.426 145.916 261.432 132.349 248.795 126.544C235.323 119.597 236.334 106.842 238.775 99.3275C242.655 89.4722 242.89 79.125 242.053 76.9609" stroke="#D1D4D8" stroke-width="3" stroke-linecap="round"/>
<ellipse cx="221.322" cy="118.015" rx="3.40314" ry="5.10471" transform="rotate(0.671186 221.322 118.015)" fill="#D1D4D8"/>
<path d="M212.024 102.46C214.787 99.5067 221.933 95.186 228.407 101.533" stroke="#D1D4D8" stroke-width="3" stroke-linecap="round"/>
<path d="M193.254 159.977C198.333 167.792 203.908 170.011 214.739 164.968" stroke="#D1D4D8" stroke-width="3" stroke-linecap="round"/>
<path d="M151.678 105.2C150.501 107.784 149.516 113.649 154.985 116.441" stroke="#D1D4D8" stroke-width="3" stroke-linecap="round"/>
<path d="M93.3842 78.6655C86.9405 113.921 107.103 140.46 121.719 160.862C137.33 152.427 162.916 132.372 153.103 130.207C142.789 127.932 131.911 99.7983 141.927 91.1923C153.679 81.0953 164.271 96.3726 166.29 107.957L175.755 91.5886C173.079 80.1401 172.029 60.0577 189.242 71.3159C206.455 82.5742 231.704 79.6251 242.177 76.7433C262.827 61.9627 294.91 27.4862 258.041 7.8253C227.376 -8.52713 187.473 12.1467 163.116 30.7234C146.623 26.3695 102.17 30.5961 93.3842 78.6655Z" fill="#D1D4D8"/>
<path d="M122.867 158.5C130.321 167.474 134.025 174.926 133.564 190.363" stroke="#D1D4D8" stroke-width="3" stroke-linecap="round"/>
<path d="M114.573 211.03C111.963 201.926 110.433 184.562 125.194 187.936C143.646 192.155 181.253 210.4 178.498 220.515" stroke="#D1D4D8" stroke-width="3" stroke-linecap="round"/>
<path d="M189 227.246C207.711 233.795 219.858 246.034 222.983 259.867C223.294 261.24 224.889 262.124 226.274 261.874C233.502 260.57 248.828 262.626 254 271.246" stroke="#D1D4D8" stroke-width="3" stroke-linecap="round"/>
<path d="M59 525.246H32C15.4315 525.246 2 511.815 2 495.246V315.246C2 298.678 15.4315 285.246 32 285.246H38.5" stroke="#D1D4D8" stroke-width="3" stroke-linecap="round"/>
<path d="M134 525.246H326C342.569 525.246 356 511.815 356 495.246V315.246C356 298.678 342.569 285.246 326 285.246H260" stroke="#D1D4D8" stroke-width="3" stroke-linecap="round"/>
<path d="M132.5 285.246H210.5" stroke="#D1D4D8" stroke-width="3" stroke-linecap="round"/>
<rect x="370.793" y="334.246" width="60" height="12" rx="6" fill="#D1D4D8"/>
<path d="M374.5 329.246L356 293.746" stroke="#D1D4D8" stroke-width="3" stroke-linecap="round"/>
<path d="M428 328.246L446 292.246" stroke="#D1D4D8" stroke-width="3" stroke-linecap="round"/>
<path d="M356 292.609C361.769 293.757 374.519 294.159 379.365 286.581C384.212 279.003 390.615 281.127 393.212 283.137L401 290.026" stroke="#D1D4D8" stroke-width="3" stroke-linecap="round"/>
<path d="M446 291.609C440.231 292.757 427.481 293.159 422.635 285.581C417.788 278.003 411.385 280.127 408.788 282.137L401 289.719" stroke="#D1D4D8" stroke-width="3" stroke-linecap="round"/>
<rect x="449.5" y="469.746" width="49.2945" height="13.8004" rx="6.90019" stroke="#D1D4D8" stroke-width="3"/>
<rect x="456.5" y="486.746" width="49.2945" height="13.8004" rx="6.90019" stroke="#D1D4D8" stroke-width="3"/>
<rect x="449.5" y="503.746" width="49.2945" height="13.8004" rx="6.90019" stroke="#D1D4D8" stroke-width="3"/>
<rect x="500.5" y="503.746" width="49.2945" height="13.8004" rx="6.90019" stroke="#D1D4D8" stroke-width="3"/>
<rect x="508.5" y="488.746" width="49.2945" height="13.8004" rx="6.90019" stroke="#D1D4D8" stroke-width="3"/>
<rect x="501.5" y="472.746" width="49.2945" height="13.8004" rx="6.90019" stroke="#D1D4D8" stroke-width="3"/>
<rect x="492.5" y="455.746" width="49.2945" height="13.8004" rx="6.90019" stroke="#D1D4D8" stroke-width="3"/>
<rect x="497.5" y="438.746" width="49.2945" height="13.8004" rx="6.90019" stroke="#D1D4D8" stroke-width="3"/>
<path d="M357.293 370.246C363.293 362.413 368.5 355.746 379 352.246H424C443.333 362.413 474.793 393.246 472.793 458.746" stroke="#D1D4D8" stroke-width="3" stroke-linecap="round"/>
<path d="M351.5 513.246H432.5" stroke="#D1D4D8" stroke-width="3" stroke-linecap="round"/>
<path d="M401.5 457.956V464.747" stroke="#D1D4D8" stroke-width="3" stroke-linecap="round"/>
<path d="M401.5 413.192V406.246" stroke="#D1D4D8" stroke-width="3" stroke-linecap="round"/>
<path d="M414.001 416.245C410.826 414.659 406.007 413.174 401.501 413.192C396.07 413.212 391.094 415.414 390.001 422.245C388.559 431.255 399.489 434.49 406 437.745C415.001 442.246 414.919 450.682 409.501 454.746C407.063 456.574 404.296 457.576 401.501 457.955C397.414 458.509 393.267 457.73 390.001 456.245" stroke="#D1D4D8" stroke-width="3" stroke-linecap="round"/>
<path d="M374.657 256.227C371.527 250.779 363.838 239.784 358.125 239.384" stroke="#D1D4D8" stroke-width="3" stroke-linecap="round"/>
<path d="M402.523 249.744C402.459 242.178 402.768 226.579 404.523 224.714" stroke="#D1D4D8" stroke-width="3" stroke-linecap="round"/>
<path d="M430.236 256.414C431.985 250.947 439.018 240.016 453.16 240.028" stroke="#D1D4D8" stroke-width="3" stroke-linecap="round"/>
</svg>
