<svg width="1226" height="750" viewBox="0 0 1226 750" fill="none" xmlns="http://www.w3.org/2000/svg">
<path fill-rule="evenodd" clip-rule="evenodd" d="M971.033 257C947.289 236.247 871 165.258 871 109.861C871 44.2536 913.8 0.515625 978 0.515625C1042.2 0.515625 1085 55.1881 1085 109.861C1085 156.248 1007.97 234.122 984.627 256.658C980.819 260.334 975.013 260.48 971.033 257ZM1013.67 95.2812C1013.67 115.411 997.698 131.73 978 131.73C958.302 131.73 942.333 115.411 942.333 95.2812C942.333 75.1515 958.302 58.8329 978 58.8329C997.698 58.8329 1013.67 75.1515 1013.67 95.2812Z" fill="#D1D4D8"/>
<path d="M833.5 390.516V548.081C833.5 548.607 833.908 549.043 834.433 549.079L966.928 558.011C966.976 558.014 967.024 558.014 967.072 558.01L1019.5 554.016" stroke="#D1D4D8" stroke-width="3" stroke-linecap="round"/>
<path d="M833.5 390.016L965.877 373.654C966.474 373.581 967 374.046 967 374.647V556.016" stroke="#D1D4D8" stroke-width="3" stroke-linecap="round"/>
<path d="M990.639 373.016L1163.58 385.946C1164.1 385.985 1164.5 386.42 1164.5 386.944V453.016" stroke="#D1D4D8" stroke-width="3" stroke-linecap="round"/>
<path d="M834 549.016H784C783.448 549.016 783 549.463 783 550.016V609.155C783 609.65 783.362 610.07 783.851 610.144L931.351 632.343C931.956 632.434 932.5 631.965 932.5 631.354V576.016" stroke="#D1D4D8" stroke-width="3" stroke-linecap="round"/>
<path d="M932 632.516L1050.5 621.516" stroke="#D1D4D8" stroke-width="3" stroke-linecap="round"/>
<path d="M1002 629.516V504.516L1056 629.516H1002Z" fill="#D1D4D8" fill-opacity="0.3"/>
<path d="M1151.93 569.32L1073.94 407.005C1073.28 405.647 1074.31 404.083 1075.81 404.14L1111.3 405.471C1112.04 405.498 1112.7 405.93 1113.03 406.593L1191.37 567.233C1191.75 568.001 1191.59 568.921 1190.99 569.524L1175.05 585.463C1174.7 585.818 1174.22 586.027 1173.72 586.047L1142.18 587.326C1140.42 587.397 1139.43 585.325 1140.6 584.004L1151.62 571.51C1152.15 570.907 1152.27 570.045 1151.93 569.32Z" fill="#D1D4D8"/>
<path d="M1107.41 616.632L1099.94 624.424C1098.7 625.725 1099.67 627.882 1101.47 627.806L1131.27 626.546C1131.74 626.526 1132.19 626.342 1132.54 626.025L1139.69 619.493C1141.04 618.261 1140.17 616.016 1138.34 616.016H1108.85C1108.31 616.016 1107.79 616.238 1107.41 616.632Z" fill="#D1D4D8"/>
<path d="M882.5 401.269V385.767C882.5 384.764 883.242 383.917 884.236 383.784L910.236 380.318C911.435 380.158 912.5 381.09 912.5 382.3V398.235C912.5 399.25 911.74 400.104 910.732 400.222L884.732 403.255C883.543 403.394 882.5 402.465 882.5 401.269Z" fill="#D1D4D8"/>
<path d="M837.5 602.772V615.802C837.5 616.788 838.219 617.627 839.193 617.778L864.193 621.658C865.406 621.846 866.5 620.908 866.5 619.681V605.789C866.5 604.777 865.744 603.924 864.74 603.803L839.74 600.786C838.549 600.642 837.5 601.572 837.5 602.772Z" fill="#D1D4D8"/>
<path d="M884.5 534.516V550.17C884.5 551.213 885.3 552.08 886.339 552.164L913.339 554.341C914.503 554.435 915.5 553.516 915.5 552.348V534.516C915.5 533.411 914.605 532.516 913.5 532.516H886.5C885.395 532.516 884.5 533.411 884.5 534.516Z" fill="#D1D4D8"/>
<path d="M837.5 573.242V551.658C837.5 550.5 838.482 549.583 839.638 549.663L864.638 551.387C865.686 551.46 866.5 552.331 866.5 553.382V576.26C866.5 577.459 865.451 578.389 864.26 578.245L839.26 575.228C838.256 575.107 837.5 574.254 837.5 573.242Z" fill="#D1D4D8"/>
<path d="M1055.93 628.706L983.753 463.097C983.599 462.742 983.663 462.33 983.918 462.039L1035.5 403.159C1035.97 402.618 1036.84 402.739 1037.15 403.387L1117.19 571.361C1117.37 571.751 1117.29 572.217 1116.97 572.516L1057.54 629.031C1057.03 629.51 1056.21 629.343 1055.93 628.706Z" stroke="#D1D4D8" stroke-width="3" stroke-linecap="round"/>
<path d="M1057.5 629.516L1164.63 624.533C1164.87 624.522 1165.1 624.426 1165.27 624.262L1224.04 568.863C1224.71 568.227 1224.24 567.095 1223.31 567.137L1137.14 571.016" stroke="#D1D4D8" stroke-width="3" stroke-linecap="round"/>
<path d="M1036.5 402.516L1139.92 406.493C1140.28 406.507 1140.6 406.712 1140.77 407.031L1224 567.016" stroke="#D1D4D8" stroke-width="3" stroke-linecap="round"/>
<path d="M811.694 698.034L812.617 696.852L811.694 698.034ZM654 722.515L653.308 723.846L654 722.515ZM397.959 729.329C397.322 728.8 396.376 728.887 395.847 729.524C395.317 730.161 395.404 731.106 396.041 731.636L397.959 729.329ZM979.134 682.497C979.676 681.871 979.608 680.923 978.982 680.381C978.355 679.839 977.408 679.907 976.866 680.534L979.134 682.497ZM396.041 731.636C399.497 734.51 404.027 736.937 409.381 738.983L410.452 736.181C405.287 734.207 401.08 731.925 397.959 729.329L396.041 731.636ZM423.871 743.239C432.627 745.215 442.657 746.629 453.51 747.573L453.77 744.585C443.007 743.648 433.118 742.25 424.531 740.313L423.871 743.239ZM468.453 748.562C478.035 749.014 488.065 749.168 498.292 749.072L498.264 746.072C488.085 746.168 478.111 746.015 468.595 745.565L468.453 748.562ZM513.216 748.764C523.152 748.451 533.159 747.93 543.016 747.243L542.807 744.25C532.986 744.935 523.016 745.454 513.122 745.765L513.216 748.764ZM557.891 746.072C568.165 745.172 578.142 744.109 587.553 742.932L587.181 739.955C577.807 741.127 567.867 742.187 557.629 743.084L557.891 746.072ZM602.348 740.921C613.48 739.28 623.461 737.499 631.728 735.682L631.084 732.752C622.903 734.55 612.994 736.32 601.911 737.953L602.348 740.921ZM646.343 731.861C648.613 731.126 650.567 730.388 652.156 729.651C653.725 728.923 655.028 728.156 655.922 727.33C656.787 726.532 657.582 725.371 657.267 723.962C656.976 722.661 655.858 721.791 654.692 721.185L653.308 723.846C654.292 724.358 654.352 724.675 654.339 724.616C654.302 724.449 654.473 724.585 653.888 725.126C653.332 725.638 652.358 726.25 650.894 726.929C649.451 727.599 647.619 728.295 645.419 729.007L646.343 731.861ZM654.692 721.185C649.359 718.411 644.993 715.723 641.503 713.135L639.716 715.544C643.363 718.249 647.871 721.019 653.308 723.846L654.692 721.185ZM631.458 702.296C630.473 700.218 630.153 698.297 630.358 696.513C630.563 694.726 631.307 692.979 632.601 691.273C635.218 687.823 640.011 684.644 646.643 681.916L645.502 679.142C638.672 681.951 633.302 685.385 630.211 689.46C628.651 691.517 627.655 693.76 627.377 696.17C627.1 698.584 627.555 701.067 628.747 703.581L631.458 702.296ZM661.289 677.34C670.305 675.203 680.764 673.714 691.989 672.979L691.793 669.985C680.434 670.729 669.805 672.238 660.597 674.421L661.289 677.34ZM707.511 672.454C717.672 672.423 728.159 672.987 738.535 674.209L738.886 671.23C728.386 669.993 717.778 669.422 707.502 669.454L707.511 672.454ZM753.891 676.532C764.381 678.488 774.502 681.177 783.775 684.661L784.83 681.853C775.365 678.296 765.071 675.565 754.441 673.583L753.891 676.532ZM797.851 690.943C802.555 693.431 806.89 696.186 810.771 699.216L812.617 696.852C808.579 693.698 804.091 690.85 799.253 688.291L797.851 690.943ZM810.771 699.216C814.605 702.21 818.976 704.721 823.756 706.796L824.951 704.044C820.366 702.054 816.222 699.667 812.617 696.852L810.771 699.216ZM837.93 711.465C847.046 713.67 857.045 714.787 867.382 715.011L867.447 712.012C857.275 711.791 847.498 710.693 838.635 708.549L837.93 711.465ZM882.194 714.753C892.028 714.217 901.958 712.983 911.552 711.201L911.004 708.251C901.528 710.011 891.727 711.229 882.031 711.757L882.194 714.753ZM925.996 708.046C936.241 705.461 945.808 702.278 954.086 698.7L952.896 695.946C944.788 699.451 935.377 702.585 925.262 705.137L925.996 708.046ZM967.365 691.938C972.258 688.958 976.286 685.788 979.134 682.497L976.866 680.534C974.29 683.511 970.539 686.492 965.805 689.375L967.365 691.938Z" fill="#D1D4D8"/>
<path d="M129.937 398.516C122.458 404.477 113.217 405.754 118.617 413.298C125.754 421.522 130.513 431.537 132 435.516" stroke="#D1D4D8" stroke-width="3" stroke-linecap="round"/>
<path d="M122 416.516C116.62 419.487 104.073 425.164 96.9292 424.107C89.7857 423.052 85.0233 425.868 83.5351 427.409C82.7337 428.619 82.23 431.106 86.626 431.37C91.022 431.634 96.2423 431.48 98.3028 431.37" stroke="#D1D4D8" stroke-width="3" stroke-linecap="round"/>
<path d="M104 428.516C101.664 430.87 93.7231 436.22 80.6432 438.788C78.0852 439.216 74.6372 441.676 79.3087 444.566C83.3126 446.813 94.3903 444.759 99.996 441.676" stroke="#D1D4D8" stroke-width="3" stroke-linecap="round"/>
<path d="M99.585 442.516C95.2269 444.496 87.3823 449.769 90.8688 455.021C91.9863 456.064 96.7018 456.147 106.625 448.143L114 442.516" stroke="#D1D4D8" stroke-width="3" stroke-linecap="round"/>
<path d="M114.823 441.396L107.403 447.587C105.267 453.206 102.007 466.852 110.776 459.283C117.184 452.747 115.835 447.175 118.533 445.523C121.231 443.872 127.302 437.498 130 434.516" stroke="#D1D4D8" stroke-width="3" stroke-linecap="round"/>
<path d="M114.606 430.516C113.807 433.332 113.169 439.876 117 443.516" stroke="#D1D4D8" stroke-width="3" stroke-linecap="round"/>
<path d="M245.733 184.523C260.365 157.208 254.451 137.032 249.664 130.359C265.531 151.048 289.384 152.181 299.327 150.162L296.299 163.781C309.995 171.333 321.685 153.385 325.817 143.468C332.193 128.166 323.36 102.143 286.587 95.3745C249.814 88.6061 219.557 108.503 209.025 119.297C187.821 102.441 154.346 109.403 140.259 114.991C125.676 120.808 90.9839 142.404 91.446 183.243C92.0693 238.342 151.296 249.999 162.107 249.219C199.465 246.526 227.444 218.667 245.733 184.523Z" fill="#D1D4D8"/>
<path d="M293.872 198.88C291.101 203.394 287.56 206.753 284.15 208.572C280.701 210.412 277.696 210.545 275.632 209.279C273.569 208.013 272.327 205.274 272.406 201.364C272.484 197.5 273.874 192.822 276.645 188.308C279.415 183.794 282.956 180.436 286.366 178.617C289.816 176.776 292.821 176.643 294.884 177.909C296.947 179.175 298.19 181.914 298.11 185.824C298.032 189.688 296.642 194.366 293.872 198.88Z" stroke="#D1D4D8" stroke-width="3"/>
<path d="M280.587 202.099C282.039 202.99 284.517 201.594 286.122 198.979C287.726 196.365 287.849 193.523 286.397 192.632C284.945 191.74 282.467 193.137 280.862 195.752C279.258 198.366 279.135 201.208 280.587 202.099Z" fill="#D1D4D8"/>
<path d="M246.832 182.181L274.087 190.999" stroke="#D1D4D8" stroke-width="3" stroke-linecap="round"/>
<path d="M298.975 165.508C299.294 171.038 301.726 183.862 306.327 192.422C311.032 201.176 308.531 208.709 301.735 212.005L291.109 217.219C282.233 248.883 266.978 268.624 225.81 263.277" stroke="#D1D4D8" stroke-width="3" stroke-linecap="round"/>
<path d="M246.215 214.254C247.028 214.753 248.093 214.498 248.592 213.684C249.091 212.871 248.836 211.806 248.022 211.307C247.209 210.808 246.144 211.062 245.645 211.876C245.146 212.69 245.401 213.754 246.215 214.254Z" fill="#D1D4D8"/>
<path d="M234.295 226.406C235.271 227.005 236.467 226.832 236.967 226.018C237.466 225.204 237.079 224.059 236.103 223.459C235.126 222.86 233.93 223.034 233.43 223.848C232.931 224.661 233.318 225.807 234.295 226.406Z" fill="#D1D4D8"/>
<path d="M249.201 229.876C250.177 230.475 251.373 230.301 251.873 229.487C252.372 228.674 251.985 227.528 251.009 226.929C250.033 226.33 248.836 226.504 248.337 227.318C247.838 228.131 248.224 229.276 249.201 229.876Z" fill="#D1D4D8"/>
<path d="M361.136 302.351C362.669 300.281 363.439 298.398 362.74 297.097C360.709 293.315 355.713 297.196 353.469 299.61C347.884 305.418 337.136 315.512 340.033 303.766C342.93 292.019 336.768 292.742 322.341 307.081L308 315.516" stroke="#D1D4D8" stroke-width="3" stroke-linecap="round"/>
<path d="M359.709 321.516C360.927 325.239 358.973 333.858 341.057 335.947C334.278 336.736 333.26 336.625 326.898 336.092H316" stroke="#D1D4D8" stroke-width="3" stroke-linecap="round"/>
<path d="M348 314.095C351.77 311.443 357.783 306.629 360.869 302.516C364.221 302.479 367.466 304.282 362.294 310.584C360.055 313.313 356.237 316.884 350.168 321.516" stroke="#D1D4D8" stroke-width="3" stroke-linecap="round"/>
<path d="M351 321.295C356.962 316.728 360.712 313.206 362.911 310.516C366.052 311.364 368.878 314.645 360.295 321.497C358.418 322.995 355.996 324.664 352.911 326.516" stroke="#D1D4D8" stroke-width="3" stroke-linecap="round"/>
<path d="M178 275.516C129.402 310.888 135.217 355 135.217 409.516" stroke="#D1D4D8" stroke-width="3" stroke-linecap="round"/>
<path d="M178 276.087L203.37 297.186C204.137 297.852 205.345 297.457 205.562 296.47L211.724 268.561C211.953 267.526 213.253 267.159 213.997 267.921L230 284.304" stroke="#D1D4D8" stroke-width="3" stroke-linecap="round"/>
<path d="M200 316.211C207.973 327.235 252.875 357.763 285.187 324.268L294 314.516" stroke="#D1D4D8" stroke-width="3" stroke-linecap="round"/>
<path d="M222 421.516C232.246 418.817 280.846 391.706 295 366.516" stroke="#D1D4D8" stroke-width="3" stroke-linecap="round"/>
<path d="M292 334.325C295.498 346.944 296.483 357.595 295.782 366.516C303.565 361.15 311 357.024 311 340.103C311 328.134 302.326 317.817 294.478 314.516" stroke="#D1D4D8" stroke-width="3" stroke-linecap="round"/>
<path d="M226.5 305.516C228.433 305.516 230 303.725 230 301.516C230 299.306 228.433 297.516 226.5 297.516C224.567 297.516 223 299.306 223 301.516C223 303.725 224.567 305.516 226.5 305.516Z" fill="#D1D4D8"/>
<path d="M230.5 325.516C232.433 325.516 234 323.501 234 321.016C234 318.53 232.433 316.516 230.5 316.516C228.567 316.516 227 318.53 227 321.016C227 323.501 228.567 325.516 230.5 325.516Z" fill="#D1D4D8"/>
<path d="M263.29 234.347C261.891 236.545 260.821 241.865 267.737 245.561" stroke="#D1D4D8" stroke-width="3" stroke-linecap="round"/>
<path d="M272.371 693.671C339.305 670.506 294.009 527.175 262.995 458.404C211.063 472.303 156.723 448.27 136.051 434.516C134.118 444.892 123.501 475.923 96.3816 517.04C69.2619 558.157 34.0783 579.541 27.861 597.393C12.7144 640.827 45.8927 663.267 62.4819 668.335C120.76 681.654 169.951 615.974 187.262 581.467C212.073 683.392 254.34 698.738 272.371 693.671Z" fill="#D1D4D8"/>
<path d="M368.067 259.547C377.678 265.799 361.27 288.363 353.261 300.385L343.577 309.244C333.955 311.168 329.141 302.419 328 297.409L347.463 261.35C350.321 258.144 358.445 253.295 368.067 259.547Z" fill="#D1D4D8"/>
<path d="M397 271.516H383" stroke="#D1D4D8" stroke-width="3" stroke-linecap="round"/>
<path d="M383 238.516L378 250.516" stroke="#D1D4D8" stroke-width="3" stroke-linecap="round"/>
<path d="M397 249.516C396.3 249.882 387.375 257.002 383 260.516" stroke="#D1D4D8" stroke-width="3" stroke-linecap="round"/>
<path d="M284.235 682.516C283.741 690.09 287.146 715.501 306.795 701.574C311.642 696.687 323.097 688.673 330.083 695.71C337.07 702.746 323.286 715.745 315.528 721.365C307.523 727.718 287.874 738.517 273.319 730.894C258.764 723.27 258.997 703.284 260.948 694.244" stroke="#D1D4D8" stroke-width="3" stroke-linecap="round"/>
<path d="M46 656.895C40.9857 659.302 30.957 665.991 30.957 673.499C36.6877 681.681 45.8567 701.797 36.6877 716.813C27.5186 731.829 10.8996 697.563 3.73628 678.552C0.154613 667.723 -0.275186 643.756 26.659 634.516" stroke="#D1D4D8" stroke-width="3" stroke-linecap="round"/>
<path d="M270.523 402.516C271.584 411.676 271.564 434.299 263 451.516" stroke="#D1D4D8" stroke-width="3" stroke-linecap="round"/>
<path d="M236 278.516C240.667 280.96 267 293.516 267 326.516" stroke="#D1D4D8" stroke-width="3" stroke-linecap="round"/>
</svg>
