<svg width="1213" height="1313" viewBox="0 0 1213 1313" fill="none" xmlns="http://www.w3.org/2000/svg">
<path d="M162 537.652C184.965 520.973 235.514 490.549 253.893 502.275C276.858 516.931 262.196 518.952 250.466 515.92" stroke="#D1D4D8" stroke-width="3" stroke-linecap="round"/>
<path d="M229.457 516.406C241.288 514.634 265.156 514.859 265.947 529.947C266.394 538.745 263.97 537.282 259.533 534.534C256.352 532.569 252.139 529.947 247.203 529.947H226" stroke="#D1D4D8" stroke-width="3" stroke-linecap="round"/>
<path d="M226 530.652H247.331C252.296 530.652 256.535 533.329 259.736 535.336C262.867 541.015 265.185 551.488 249.321 547.932C233.456 544.378 227.159 545.464 226 546.452" stroke="#D1D4D8" stroke-width="3" stroke-linecap="round"/>
<path d="M249.594 547.652C254.841 553.647 260.893 564.936 243.199 562.139C225.505 559.342 211.583 567.967 206.834 572.628C198.81 577.956 179.796 584.615 168 568.633" stroke="#D1D4D8" stroke-width="3" stroke-linecap="round"/>
<path d="M79.6972 563.024C162.843 516.926 162.929 560.341 155.904 586.816C145.513 613.582 93.9679 643.066 70.8273 646.593C38.1842 654.094 -19.6162 645.205 10.3607 549.64C47.8404 430.186 64.7942 342.948 190 319.652" stroke="#D1D4D8" stroke-width="3" stroke-linecap="round"/>
<path d="M125 459.652C125 504.764 122.36 503.701 103 544.652" stroke="#D1D4D8" stroke-width="3" stroke-linecap="round"/>
<path d="M295 483.652V470.652" stroke="#D1D4D8" stroke-width="3" stroke-linecap="round"/>
<path d="M310 482.652L315 466.652" stroke="#D1D4D8" stroke-width="3" stroke-linecap="round"/>
<path d="M325 486.652L337 458.652" stroke="#D1D4D8" stroke-width="3" stroke-linecap="round"/>
<path d="M159.985 1199.65C161.656 1213.55 158.314 1235.19 142.714 1242.33C123.21 1251.26 73.2215 1281.54 121.215 1287.99C159.61 1293.15 190.538 1266.98 201.21 1253.25C204.876 1237.37 207.485 1219.01 201.21 1199.65" stroke="#D1D4D8" stroke-width="3" stroke-linecap="round"/>
<path d="M235.764 1173.26C64.5444 1280.63 91.1326 891.237 102.857 702.027C227.18 740.799 327.85 715.946 350.155 680.652C356.486 703.178 376.095 864.442 377.75 910.304L377.819 912.133C380.515 986.692 386.641 1156.63 290.033 1191.16C266.004 1199.74 248.478 1192.03 235.764 1173.26Z" fill="#D1D4D8"/>
<path d="M251.45 1200.15C250.542 1210.05 250.765 1233.16 254.416 1246.08C263.638 1278.77 291.527 1313.35 358.961 1310.49C368.046 1308.32 380.765 1299.2 358.961 1280.03C350.99 1273.03 342.351 1266.63 334.226 1260.01C314.548 1243.98 297.989 1226.69 301.932 1196.65" stroke="#D1D4D8" stroke-width="3" stroke-linecap="round"/>
<path d="M94 643.652C97.4816 682.669 98.9665 680.2 104.94 702.424C165.253 720.204 298.698 740.65 350 680.2" stroke="#D1D4D8" stroke-width="3" stroke-linecap="round"/>
<path d="M156 409.652L157.887 406.792C169.26 389.632 191.19 382.78 210.383 390.397C227.604 397.23 247.29 392.469 259.428 378.536L275 360.652" stroke="#D1D4D8" stroke-width="3" stroke-linecap="round"/>
<path d="M264.093 318.763C268.468 306.487 264.467 298.226 260.587 296.652C237.199 317.428 201.727 309.715 188.587 297.124C183.906 301.279 186.629 313.571 188.587 317.347C213.914 344.544 249.965 329.31 264.093 318.763Z" fill="#D1D4D8"/>
<path d="M333.015 116.889C322.115 156.125 316.649 159.601 300.795 176.984C300.795 159.806 297.84 130.971 297.84 118.962C245.889 118.962 202.052 97.7205 186.609 87.0978C187.173 123.119 153.45 146.671 153.45 146.671C153.45 146.671 158.284 161.218 161.052 193.775C163.273 219.822 156.901 214.788 153.45 209.015C143.507 176.873 127.209 185.463 120.291 193.775C35.5221 55.8012 165.887 29.1417 190.76 31.6815C209.552 15.6108 235.758 3.0167 254.174 1.1694C320.629 -5.49254 350.696 53.2704 333.015 116.889Z" fill="#D1D4D8"/>
<path d="M154 233.567C162.991 288.444 223.314 327.905 266.851 283.45C310.388 238.996 301.671 157.624 297.021 119.652" stroke="#D1D4D8" stroke-width="3" stroke-linecap="round"/>
<path d="M119.794 189.652C114.514 203.024 119.469 232.652 154 232.652" stroke="#D1D4D8" stroke-width="3" stroke-linecap="round"/>
<path d="M137.193 197.652C136.581 200.128 137.071 205.996 144 209.652" stroke="#D1D4D8" stroke-width="3" stroke-linecap="round"/>
<path d="M297 225.652C308.387 220.857 316.426 203.095 313.333 174.652" stroke="#D1D4D8" stroke-width="3" stroke-linecap="round"/>
<path d="M231 258.978C241.62 262.176 240.949 253.375 249 245.652" stroke="#D1D4D8" stroke-width="3" stroke-linecap="round"/>
<path d="M265.5 196.652C269.642 196.652 273 193.071 273 188.652C273 184.234 269.642 180.652 265.5 180.652C261.358 180.652 258 184.234 258 188.652C258 193.071 261.358 196.652 265.5 196.652Z" fill="#D1D4D8"/>
<path d="M199.5 196.652C204.194 196.652 208 193.518 208 189.652C208 185.786 204.194 182.652 199.5 182.652C194.806 182.652 191 185.786 191 189.652C191 193.518 194.806 196.652 199.5 196.652Z" fill="#D1D4D8"/>
<path d="M183 172.652C184.646 168.427 191.76 160.612 207 163.147" stroke="#D1D4D8" stroke-width="3" stroke-linecap="round"/>
<path d="M253 163.652C256.634 161.389 266.526 158.219 277 163.652" stroke="#D1D4D8" stroke-width="3" stroke-linecap="round"/>
<path d="M227.799 186.652C226.648 196.207 225.848 215.586 232 216.652" stroke="#D1D4D8" stroke-width="3" stroke-linecap="round"/>
<path d="M213.788 505.652L187.995 462.318C185.98 458.932 187.124 454.544 190.538 452.585C193.867 450.678 198.1 451.787 200.063 455.078L227 500.153" stroke="#D1D4D8" stroke-width="3" stroke-linecap="round"/>
<path d="M220 656.652C233.715 612.317 265.649 526.245 285.932 528.704C286.854 528.817 287.775 529.079 288.696 529.209L365 539.898" stroke="#D1D4D8" stroke-width="3" stroke-linecap="round"/>
<path d="M376 557.652L369 578.652" stroke="#D1D4D8" stroke-width="3" stroke-linecap="round"/>
<path d="M287.767 539.652C273.135 548.586 251.368 609.883 238.671 651.132C235.899 660.121 242.025 669.321 251.386 670.492L323.703 679.532C331.095 680.454 338.077 675.987 340.319 668.917L346 650.951" stroke="#D1D4D8" stroke-width="3" stroke-linecap="round"/>
<path d="M299.493 547.652C304.321 545.898 314.36 535.557 311.494 525.535C311.008 523.796 310.122 522.066 308.75 520.392C299.493 509.078 283.55 520.393 287.666 529.65" stroke="#D1D4D8" stroke-width="3" stroke-linecap="round"/>
<path d="M311 525.814C315.925 519.792 329.236 517.041 336.194 528.91C342.665 543.363 330.228 551.62 322.765 552.652" stroke="#D1D4D8" stroke-width="3" stroke-linecap="round"/>
<path d="M337 528.619C342.199 524.652 356.115 519.304 364.169 529.656C373.718 545.7 356.625 556.052 349.574 554.498" stroke="#D1D4D8" stroke-width="3" stroke-linecap="round"/>
<path d="M364 529.695C370.637 525.799 382.429 524.104 386.963 534.269C391.497 544.436 380.326 557.652 369.603 557.652" stroke="#D1D4D8" stroke-width="3" stroke-linecap="round"/>
<path d="M326.116 613.652C323.387 617.383 323.954 627.006 348 635.652" stroke="#D1D4D8" stroke-width="3" stroke-linecap="round"/>
<path d="M389 593.82C363.008 588.815 336.332 586.959 326.225 586.656C320.805 586.496 314.785 591.124 317.812 596.364C318.65 597.705 321.283 600.687 325.097 601.888C341.291 607.163 348.199 607.632 355.33 607.652" stroke="#D1D4D8" stroke-width="3" stroke-linecap="round"/>
<path d="M355 607.433C347.867 607.412 340.955 606.943 324.756 601.652C321.061 602.989 320.581 609.349 326.432 613.32C330.127 615.837 336.816 618.924 347.866 622.652" stroke="#D1D4D8" stroke-width="3" stroke-linecap="round"/>
<path d="M265 319.652C345.825 351.748 410.277 446.057 402.337 575.425C401.179 593.694 391.723 631.517 363.169 636.652" stroke="#D1D4D8" stroke-width="3" stroke-linecap="round"/>
<path d="M486.519 714.256C479.808 723.101 511.786 760.653 555.218 755.297C609.509 748.603 628.11 745.421 650.333 751.536C658.284 753.723 671.514 760.092 687.729 751.387C703.373 742.988 710.126 719.817 698.099 709.59" stroke="#D1D4D8" stroke-width="3" stroke-linecap="round"/>
<path d="M545.725 743.631C513.995 747.779 479.943 724.9 484.152 712.349C486.869 704.246 514.246 700.91 530.347 698.651C530.75 698.594 531.157 698.665 531.523 698.845C569.451 717.422 618.717 689.435 617.027 674.202C615.725 662.468 624.208 660.292 629.161 660.67C629.572 660.702 629.97 660.9 630.276 661.176C664.36 691.847 674.592 651.541 678.037 649.485C680.323 648.12 684.187 648.767 686.701 649.516C687.537 649.765 688.046 650.589 687.997 651.46C686.236 682.791 694.686 701.354 699.93 707.814C700.448 708.451 700.607 709.319 700.217 710.042C695.122 719.493 678.529 734.897 647.416 729.227C606.814 721.828 585.388 738.445 545.725 743.631Z" fill="#D1D4D8"/>
<path d="M612.325 680.99C582.804 706.113 552.442 703.631 537.133 698.003C535.421 697.373 535.672 695.069 537.424 694.564C605.228 675.034 599.794 648.449 621.724 638.392C638.014 630.922 635.159 645.066 630.828 655.265C630.242 656.644 628.033 657.067 626.536 656.998C624.605 656.909 621.769 657.664 617.941 660.368C611.371 665.008 613.452 674.081 612.987 679.739C612.947 680.226 612.696 680.673 612.325 680.99Z" fill="#D1D4D8"/>
<path d="M822 575.152C822 582.152 826.5 586.152 831 586.152H895.72C895.906 586.152 896.094 586.127 896.27 586.069C901.602 584.312 901.672 577.12 902 575.152" stroke="#D1D4D8" stroke-width="3" stroke-linecap="round"/>
<path d="M821.501 555.652C815.843 564.138 818.189 573.595 820.313 577.337C820.433 577.548 820.6 577.73 820.796 577.873C829.275 584.068 840.979 580.483 846 577.652C853.981 573.152 867 569.152 879.019 576.152C887.295 580.972 899.52 582.109 902.816 579.32C902.944 579.212 903.045 579.077 903.128 578.932C909.322 568.203 903.642 557.29 900 553.152C896.333 548.985 895 542.152 896.501 533.152C897.938 524.535 896 516.985 895 511.652C894.232 504.791 890.378 491.774 881.029 491.108C879.923 491.029 879.125 492.04 879.227 493.145C880.588 507.871 879.283 534.478 864.001 537.152C848.755 539.82 837.444 509.711 833.095 492.159C832.78 490.888 831.359 490.24 830.303 491.014C820.012 498.551 819.407 516.904 820.5 525.652C820.5 533.652 826.501 548.152 821.501 555.652Z" fill="#D1D4D8"/>
<path d="M755.461 615.749L758.648 592.249C758.85 590.762 760.12 589.652 761.621 589.652H987C988.657 589.652 990 590.995 990 592.652V616.152C990 617.809 988.657 619.152 987 619.152H758.434C756.617 619.152 755.217 617.55 755.461 615.749Z" fill="#D1D4D8"/>
<path d="M768 619.652L764.633 673.528C764.561 674.679 765.475 675.652 766.629 675.652H972.703C973.725 675.652 974.583 674.882 974.691 673.865L980.5 619.652" stroke="#D1D4D8" stroke-width="3" stroke-linecap="round"/>
<circle cx="872.5" cy="636.152" r="11" stroke="#D1D4D8" stroke-width="3"/>
<circle cx="891.5" cy="721.152" r="11" stroke="#D1D4D8" stroke-width="3"/>
<path d="M863.498 530.652C853.769 532.369 841.998 506.652 837.498 488.152C835.675 480.652 843.148 472.653 856.498 472.652C868.498 472.652 875.914 474.652 875.498 483.652C873.998 516.152 871.998 529.152 863.498 530.652Z" fill="#D1D4D8"/>
<path d="M774.99 700.252L779.173 679.752C779.363 678.821 780.183 678.152 781.133 678.152H1009.5C1010.6 678.152 1011.5 679.048 1011.5 680.152V700.652C1011.5 701.757 1010.6 702.652 1009.5 702.652H776.949C775.684 702.652 774.737 701.492 774.99 700.252Z" fill="#D1D4D8"/>
<path d="M782.305 752.886L788.767 704.886C788.9 703.893 789.747 703.152 790.749 703.152H999.734C1000.94 703.152 1001.87 704.207 1001.72 705.4L995.719 753.4C995.594 754.401 994.743 755.152 993.734 755.152H784.287C783.077 755.152 782.144 754.085 782.305 752.886Z" stroke="#D1D4D8" stroke-width="3"/>
<path d="M624 792.652V1234.15" stroke="#D1D4D8" stroke-width="3" stroke-linecap="round"/>
<path d="M674 792.652V1149.65" stroke="#D1D4D8" stroke-width="3" stroke-linecap="round"/>
<path d="M1106.5 760.652H443.5C442.395 760.652 441.5 761.548 441.5 762.652V789.152C441.5 790.257 442.395 791.152 443.5 791.152H1211.5" stroke="#D1D4D8" stroke-width="3" stroke-linecap="round"/>
</svg>
