<svg width="1285" height="1313" viewBox="0 0 1285 1313" fill="none" xmlns="http://www.w3.org/2000/svg">
<path d="M686 672.257C690.667 672.091 703.3 670.557 716.5 665.757C733 659.757 745.5 662.757 733 676.257" stroke="#D1D4D8" stroke-width="3" stroke-linecap="round"/>
<path d="M816.225 702.879C815.935 707.492 821.084 713.426 846 707.758" stroke="#D1D4D8" stroke-width="3" stroke-linecap="round"/>
<path d="M809.029 693.517C805.17 694.56 801.345 693.466 799.916 692.787C794.544 690.003 797.122 682.861 801.776 680.077C808.684 676.137 825 667.659 835 665.259" stroke="#D1D4D8" stroke-width="3" stroke-linecap="round"/>
<path d="M830.5 685.757C825.5 688.757 818.5 692.257 808.613 693.502C806.219 696.618 809.242 702.235 816.31 702.429C820.779 702.559 828.077 701.557 839.396 698.746" stroke="#D1D4D8" stroke-width="3" stroke-linecap="round"/>
<circle cx="1014.44" cy="185.917" r="15.5" transform="rotate(-72.883 1014.44 185.917)" stroke="#D1D4D8" stroke-width="3"/>
<path d="M971.541 154.344L997.707 140.499" stroke="#D1D4D8" stroke-width="3" stroke-linecap="round"/>
<path d="M1139.4 118.721L1273.63 160.056C1278.87 161.671 1281.83 167.211 1280.27 172.469L1229.05 344.349C1227.47 349.668 1221.85 352.679 1216.55 351.057L1020.66 291.215C1018.11 290.437 1015.98 288.673 1014.73 286.316L963.676 189.499" stroke="#D1D4D8" stroke-width="3" stroke-linecap="round"/>
<path fill-rule="evenodd" clip-rule="evenodd" d="M1037.59 52.0297C1036.05 51.5921 1034.43 52.4464 1033.92 53.9687L1030.28 64.9183C1029.93 65.9656 1029.04 66.737 1027.95 66.9265L1016.58 68.908C1015 69.1835 1013.92 70.6537 1014.12 72.245L1015.59 83.6914C1015.73 84.7862 1015.26 85.8697 1014.36 86.5122L1004.98 93.2302C1003.67 94.1642 1003.33 95.9592 1004.21 97.3044L1010.5 106.98C1011.1 107.906 1011.14 109.087 1010.61 110.055L1005.07 120.179C1004.3 121.586 1004.78 123.351 1006.15 124.183L1016.01 130.172C1016.96 130.745 1017.51 131.79 1017.45 132.892L1016.85 144.417C1016.77 146.019 1017.96 147.403 1019.56 147.558L1031.04 148.674C1032.14 148.781 1033.09 149.482 1033.52 150.5L1037.98 161.143C1038.6 162.623 1040.28 163.352 1041.78 162.799L1052.62 158.821C1053.65 158.441 1054.81 158.66 1055.64 159.392L1064.28 167.045C1065.48 168.109 1067.3 168.04 1068.42 166.888L1076.46 158.604C1077.22 157.811 1078.36 157.505 1079.43 157.806L1090.53 160.953C1092.07 161.391 1093.69 160.537 1094.19 159.014L1097.84 148.065C1098.19 147.017 1099.08 146.246 1100.17 146.057L1111.54 144.075C1113.12 143.8 1114.2 142.329 1114 140.738L1112.53 129.292C1112.39 128.197 1112.86 127.113 1113.76 126.471L1123.14 119.753C1124.45 118.819 1124.79 117.024 1123.91 115.679L1117.62 106.003C1117.02 105.077 1116.98 103.896 1117.51 102.928L1123.05 92.8041C1123.82 91.3966 1123.34 89.6324 1121.97 88.7998L1112.11 82.8106C1111.16 82.2378 1110.61 81.1931 1110.67 80.0908L1111.27 68.5662C1111.35 66.9641 1110.16 65.58 1108.56 65.4249L1097.07 64.3088C1095.98 64.2021 1095.02 63.5007 1094.6 62.4827L1090.14 51.84C1089.52 50.3604 1087.84 49.6307 1086.33 50.1837L1075.5 54.1618C1074.47 54.5423 1073.3 54.3231 1072.48 53.5911L1063.84 45.9382C1062.64 44.8742 1060.81 44.9434 1059.7 46.0951L1051.66 54.3793C1050.9 55.1717 1049.75 55.4781 1048.69 55.1771L1037.59 52.0297ZM1048.65 97.6758C1049.81 99.8726 1048.97 102.596 1046.77 103.758C1044.58 104.92 1041.85 104.082 1040.69 101.885C1039.53 99.6881 1040.37 96.965 1042.57 95.8027C1044.76 94.6405 1047.48 95.4791 1048.65 97.6758ZM1053.07 95.3375C1055.52 99.9751 1053.75 105.724 1049.11 108.177C1044.47 110.631 1038.73 108.861 1036.27 104.223C1033.82 99.5856 1035.59 93.8369 1040.23 91.3832C1044.86 88.9295 1050.61 90.6999 1053.07 95.3375ZM1086.44 116.713C1088.63 115.55 1089.47 112.827 1088.31 110.631C1087.15 108.434 1084.43 107.595 1082.23 108.758C1080.03 109.92 1079.19 112.643 1080.36 114.84C1081.52 117.036 1084.24 117.875 1086.44 116.713ZM1088.78 121.132C1093.41 118.678 1095.18 112.93 1092.73 108.292C1090.28 103.655 1084.53 101.884 1079.89 104.338C1075.25 106.792 1073.48 112.54 1075.94 117.178C1078.39 121.816 1084.14 123.586 1088.78 121.132ZM1065.58 82.3413C1065.5 80.963 1064.31 79.9123 1062.94 79.9944C1061.56 80.0766 1060.51 81.2605 1060.59 82.6387L1063.42 130.173C1063.5 131.552 1064.69 132.602 1066.07 132.52C1067.44 132.438 1068.5 131.254 1068.41 129.876L1065.58 82.3413Z" fill="#D1D4D8"/>
<path fill-rule="evenodd" clip-rule="evenodd" d="M179.125 614.08C176.553 613.351 173.862 614.774 173.017 617.311L167.671 633.376C167.09 635.122 165.598 636.407 163.786 636.723L147.106 639.631C144.472 640.09 142.665 642.54 143.005 645.192L145.159 661.986C145.392 663.811 144.606 665.616 143.11 666.687L129.343 676.544C127.169 678.1 126.605 681.092 128.062 683.334L137.288 697.53C138.291 699.072 138.366 701.041 137.483 702.655L129.356 717.508C128.072 719.854 128.862 722.794 131.147 724.182L145.62 732.969C147.192 733.924 148.114 735.665 148.018 737.502L147.141 754.41C147.002 757.081 148.989 759.387 151.651 759.646L168.502 761.283C170.333 761.461 171.919 762.63 172.63 764.327L179.176 779.941C180.21 782.407 183.001 783.623 185.511 782.702L201.404 776.865C203.131 776.231 205.067 776.596 206.444 777.816L219.116 789.045C221.118 790.818 224.16 790.703 226.021 788.783L237.808 776.629C239.089 775.308 240.992 774.797 242.761 775.299L259.051 779.917C261.623 780.646 264.314 779.222 265.159 776.685L270.505 760.62C271.086 758.875 272.578 757.589 274.39 757.273L291.07 754.366C293.704 753.907 295.511 751.457 295.171 748.804L293.017 732.011C292.784 730.186 293.57 728.38 295.066 727.309L308.833 717.453C311.007 715.896 311.571 712.905 310.114 710.663L300.888 696.467C299.885 694.924 299.81 692.956 300.693 691.342L308.82 676.489C310.104 674.143 309.314 671.203 307.029 669.815L292.556 661.028C290.984 660.073 290.062 658.332 290.158 656.495L291.035 639.586C291.174 636.916 289.187 634.609 286.525 634.351L269.674 632.713C267.843 632.536 266.257 631.367 265.546 629.67L259 614.055C257.966 611.589 255.175 610.373 252.665 611.295L236.772 617.131C235.045 617.766 233.109 617.4 231.732 616.18L219.06 604.952C217.058 603.179 214.016 603.294 212.155 605.214L200.368 617.368C199.087 618.689 197.184 619.199 195.415 618.698L179.125 614.08ZM197.911 682.332C200.36 686.961 198.593 692.7 193.963 695.149C189.334 697.598 183.595 695.831 181.146 691.202C178.697 686.572 180.464 680.834 185.093 678.385C189.723 675.935 195.461 677.702 197.911 682.332ZM202.33 679.993C206.071 687.064 203.372 695.828 196.302 699.569C189.231 703.309 180.467 700.61 176.727 693.54C172.986 686.47 175.685 677.706 182.755 673.965C189.825 670.224 198.589 672.923 202.33 679.993ZM254.43 714.899C259.059 712.45 260.827 706.711 258.377 702.082C255.928 697.452 250.189 695.685 245.56 698.134C240.931 700.584 239.163 706.322 241.613 710.952C244.062 715.581 249.801 717.348 254.43 714.899ZM256.768 719.318C263.839 715.578 266.538 706.814 262.797 699.743C259.056 692.673 250.292 689.974 243.222 693.715C236.152 697.456 233.452 706.22 237.193 713.29C240.934 720.36 249.698 723.059 256.768 719.318ZM220.097 660.258C220.014 658.88 218.831 657.829 217.452 657.911C216.074 657.993 215.023 659.177 215.105 660.556L219.424 733.024C219.506 734.403 220.69 735.453 222.069 735.371C223.447 735.289 224.498 734.105 224.415 732.727L220.097 660.258Z" fill="#D1D4D8"/>
<path d="M1005.91 193.65C1011.16 190.157 1018.58 181.371 1006.26 174.171C990.845 165.172 933.12 166.556 933.25 192.965C933.34 211.142 955.962 213.646 970.882 212.185" stroke="#D1D4D8" stroke-width="3" stroke-linecap="round"/>
<path d="M273 246.758C258.5 198.758 214.7 90.8578 155.5 43.2578" stroke="#D1D4D8" stroke-width="3" stroke-linecap="round"/>
<path d="M301 134.258C303.667 100.591 318.7 27.0578 357.5 2.25781" stroke="#D1D4D8" stroke-width="3" stroke-linecap="round"/>
<path d="M309 246.758C314 215.591 336.3 146.958 385.5 121.758" stroke="#D1D4D8" stroke-width="3" stroke-linecap="round"/>
<path d="M324 275.757C348.5 268.424 405.1 255.957 435.5 264.757" stroke="#D1D4D8" stroke-width="3" stroke-linecap="round"/>
<path d="M335.5 312.258C357.667 317.424 404 337.658 412 377.258" stroke="#D1D4D8" stroke-width="3" stroke-linecap="round"/>
<path d="M276.5 342.258C272.833 375.424 269.1 447.158 283.5 468.758" stroke="#D1D4D8" stroke-width="3" stroke-linecap="round"/>
<path d="M187 468.758C186.833 436.758 198.6 362.958 247 323.758" stroke="#D1D4D8" stroke-width="3" stroke-linecap="round"/>
<path d="M142.501 424.258C130.834 435.924 107.701 473.158 108.501 528.758" stroke="#D1D4D8" stroke-width="3" stroke-linecap="round"/>
<path d="M86 353.257C102 326.757 155.3 276.257 240.5 286.257" stroke="#D1D4D8" stroke-width="3" stroke-linecap="round"/>
<path d="M2 287.758C11 273.758 37.9 244.958 73.5 241.758" stroke="#D1D4D8" stroke-width="3" stroke-linecap="round"/>
<path d="M102.5 197.757C134.833 196.757 207.7 205.057 240.5 246.257" stroke="#D1D4D8" stroke-width="3" stroke-linecap="round"/>
<ellipse cx="283" cy="295.258" rx="10" ry="7" fill="#D1D4D8"/>
<path d="M509 670.258L414.525 852.283C413.977 853.338 414.465 854.635 415.572 855.067L582.767 920.385C583.929 920.84 585.219 920.13 585.458 918.904L620.231 740.141C620.392 739.311 620.015 738.47 619.288 738.039L529.5 684.758" stroke="#D1D4D8" stroke-width="3" stroke-linecap="round"/>
<path d="M414 853.258L395.734 824.417C395.292 823.718 395.324 822.82 395.817 822.156L466.5 726.758" stroke="#D1D4D8" stroke-width="3" stroke-linecap="round"/>
<path d="M1057 840.258L1076.49 875.433C1077.04 876.428 1076.65 877.682 1075.63 878.191L910.729 960.643C909.585 961.215 908.205 960.581 907.894 959.341L857.323 757.547C857.127 756.766 857.419 755.944 858.063 755.461L911 715.758" stroke="#D1D4D8" stroke-width="3" stroke-linecap="round"/>
<path d="M1077 876.758L1093.04 840.294C1093.33 839.651 1093.25 838.907 1092.85 838.334L1079 818.758" stroke="#D1D4D8" stroke-width="3" stroke-linecap="round"/>
<path d="M986.5 637.758L915.768 728.275C915.298 728.876 915.211 729.693 915.545 730.38L989.911 883.515C990.47 884.666 991.951 885.003 992.953 884.208L1112.88 789.041C1113.77 788.339 1113.9 787.044 1113.17 786.182L1002 654.758" stroke="#D1D4D8" stroke-width="3" stroke-linecap="round"/>
<path d="M1114 787.758L1122.22 752.93C1122.39 752.209 1122.15 751.453 1121.59 750.965L1031 671.758" stroke="#D1D4D8" stroke-width="3" stroke-linecap="round"/>
<path d="M967 662.259C962 646.425 942.1 615.959 890.5 618.759" stroke="#D1D4D8" stroke-width="3" stroke-linecap="round"/>
<path d="M880.5 691.758C882.5 700.258 888.1 719.058 894.5 726.258" stroke="#D1D4D8" stroke-width="3" stroke-linecap="round"/>
<path d="M913 684.258C915.333 689.758 921.3 701.958 926.5 706.758" stroke="#D1D4D8" stroke-width="3" stroke-linecap="round"/>
<path d="M686.001 489.758C618.216 526.731 498.373 618.726 560.866 691.102C560.953 691.203 561.048 691.294 561.153 691.375C579.376 705.395 627.43 731.288 676.652 725.009C677.692 724.876 678.441 723.949 678.373 722.903C677.322 706.879 677.338 687.102 686.001 670.258C689.895 662.686 630 652.258 615.5 644.758" stroke="#D1D4D8" stroke-width="3" stroke-linecap="round"/>
<path d="M556 699.258C568.167 678.258 584.5 641.158 618.5 646.758" stroke="#D1D4D8" stroke-width="3" stroke-linecap="round"/>
<path d="M613.5 717.758C612.667 721.091 610.4 728.058 608 729.258" stroke="#D1D4D8" stroke-width="3" stroke-linecap="round"/>
<path d="M765.678 479.581C757.394 484.212 738.914 490.694 731.267 479.581C721.709 465.69 713.106 482.166 716.929 492.827C720.753 503.487 753.204 521.232 775 482.311" stroke="#D1D4D8" stroke-width="3" stroke-linecap="round"/>
<path d="M770 542.237C765.527 542.536 754.066 539.759 744 526.258" stroke="#D1D4D8" stroke-width="3" stroke-linecap="round"/>
<path d="M746.623 508.258C747.384 512.415 747.217 519.469 743.996 526.46C741.274 532.368 736.369 538.231 728 542.258" stroke="#D1D4D8" stroke-width="3" stroke-linecap="round"/>
<path d="M734 506.258C728.318 511.219 718.959 524.535 722.97 542.258" stroke="#D1D4D8" stroke-width="3" stroke-linecap="round"/>
<path d="M751 505.258C757.584 508.63 770.139 519.351 767.687 535.258" stroke="#D1D4D8" stroke-width="3" stroke-linecap="round"/>
<path d="M756.244 305.703C788.84 310.399 800.61 350.098 802.421 369.361C811.73 399.926 810.905 425.306 804.344 444.306C803.25 449.121 805.862 457.579 825.057 452.884C844.253 448.188 836.074 415.411 829.585 399.61C825.963 391.303 825.057 375.983 825.057 369.361C831.939 280.15 777.22 270.488 749 276.809C757.692 282.588 757.451 298.48 756.244 305.703Z" fill="#D1D4D8"/>
<path d="M641.749 326.363C655.796 253.843 740.083 257.015 765.459 279.224C794.008 315.485 721.05 405.229 701.112 396.618C686.973 385.739 676.364 391.632 673.469 396.618C660.419 419.099 678.907 431.669 689.783 435.144C686.883 450.736 724.222 467.779 718.785 479.563C689.783 516.277 600.965 456.447 622.264 438.317C639.302 423.813 638.38 405.23 638.124 396.618C636.764 350.84 638.124 347.213 641.749 326.363Z" fill="#D1D4D8"/>
<path d="M767 425.258C783.979 421.686 775.018 414.544 771.245 400.258" stroke="#D1D4D8" stroke-width="3" stroke-linecap="round"/>
<ellipse cx="791.558" cy="385.544" rx="4.14903" ry="6.22354" transform="rotate(11.0109 791.558 385.544)" fill="#D1D4D8"/>
<ellipse cx="745.276" cy="397.234" rx="4.09398" ry="6.14097" transform="rotate(8.55426 745.276 397.234)" fill="#D1D4D8"/>
<path d="M683 404.258C681.491 407.058 679.378 413.778 683 418.258" stroke="#D1D4D8" stroke-width="3" stroke-linecap="round"/>
<path d="M715 474.695C752.391 474.695 773.114 499.226 806 445.258" stroke="#D1D4D8" stroke-width="3" stroke-linecap="round"/>
<path d="M755 450.192C769.5 457.258 777.829 450.192 781 444.258" stroke="#D1D4D8" stroke-width="3" stroke-linecap="round"/>
<path d="M762.5 397.758C762.5 408.983 754.496 417.758 745 417.758C735.504 417.758 727.5 408.983 727.5 397.758C727.5 386.532 735.504 377.758 745 377.758C754.496 377.758 762.5 386.532 762.5 397.758Z" stroke="#D1D4D8" stroke-width="3"/>
<path d="M808.5 385.758C808.5 396.983 800.496 405.758 791 405.758C781.504 405.758 773.5 396.983 773.5 385.758C773.5 374.532 781.504 365.758 791 365.758C800.496 365.758 808.5 374.532 808.5 385.758Z" stroke="#D1D4D8" stroke-width="3"/>
<path d="M774 388.545C771.06 388.028 764.343 387.847 761 391.258" stroke="#D1D4D8" stroke-width="3" stroke-linecap="round"/>
<path d="M728.03 390.979L713.984 391.432" stroke="#D1D4D8" stroke-width="3" stroke-linecap="round"/>
<path d="M777 479.258C844 507.758 965.9 548.158 975.5 631.758C975.829 642.129 959.897 668.697 893.974 692.861C892.742 693.312 891.388 692.481 891.198 691.183C889.426 679.082 881.673 657.26 861.67 647.723C860.55 647.189 860.107 645.801 860.834 644.795C868.338 634.421 889.789 613.744 926.5 600.258" stroke="#D1D4D8" stroke-width="3" stroke-linecap="round"/>
<path d="M632.5 649.758V593.462C632.5 592.48 633.213 591.643 634.182 591.487L808.98 563.342C809.321 563.287 809.67 563.321 809.994 563.441L870.196 585.774C870.98 586.065 871.5 586.813 871.5 587.649V630.758" stroke="#D1D4D8" stroke-width="3" stroke-linecap="round"/>
<path d="M631.5 724.258V742.481C631.5 743.259 631.952 743.967 632.659 744.295L683.659 767.941C684.984 768.555 686.5 767.587 686.5 766.126V724.258" stroke="#D1D4D8" stroke-width="3" stroke-linecap="round"/>
<path d="M686.5 769.258L873.899 731.084C874.831 730.894 875.5 730.075 875.5 729.124V699.258" stroke="#D1D4D8" stroke-width="3" stroke-linecap="round"/>
<path d="M686.5 666.758V622.008C686.5 621.243 686.064 620.545 685.376 620.21L646.5 601.258" stroke="#D1D4D8" stroke-width="3" stroke-linecap="round"/>
<path d="M686.5 620.758L855 591.758" stroke="#D1D4D8" stroke-width="3" stroke-linecap="round"/>
<path d="M637.5 748.758C637.167 763.258 637.7 800.458 630.5 833.258" stroke="#D1D4D8" stroke-width="3" stroke-linecap="round"/>
<path d="M867 748.758L865 733.758" stroke="#D1D4D8" stroke-width="3" stroke-linecap="round"/>
<path d="M870 813.759C886.493 925.519 899.784 1153.24 825.528 1179.1C751.263 1204.97 715.923 1170.71 707.532 1150.35C705.599 1178.4 687.794 1226.97 632.049 1196.9C576.303 1166.82 570.873 1105.72 575.127 1078.92L628.218 831.694C671.992 853.643 728 854.061 748.5 846.259C802.1 825.859 851.833 816.592 870 813.759Z" fill="#D1D4D8"/>
<path d="M601.985 1209.26C603.656 1223.15 600.314 1244.79 584.714 1251.94C565.21 1260.87 515.221 1291.14 563.215 1297.59C601.61 1302.75 632.538 1276.58 643.21 1262.85C646.876 1246.97 649.485 1228.61 643.21 1209.26" stroke="#D1D4D8" stroke-width="3" stroke-linecap="round"/>
<path d="M755.45 1200.75C754.542 1210.65 754.765 1233.77 758.416 1246.69C767.638 1279.37 795.527 1313.95 862.961 1311.09C872.046 1308.93 884.765 1299.81 862.961 1280.64C854.99 1273.64 846.351 1267.23 838.226 1260.61C818.548 1244.58 801.989 1227.3 805.932 1197.26" stroke="#D1D4D8" stroke-width="3" stroke-linecap="round"/>
<path d="M830 710.258C832.833 715.591 844.4 722.058 868 705.258" stroke="#D1D4D8" stroke-width="3" stroke-linecap="round"/>
<path d="M754.534 697.28C757.284 700.996 756.186 708.774 732.189 717.555" stroke="#D1D4D8" stroke-width="3" stroke-linecap="round"/>
<path d="M752.086 686.298C755.337 685.334 757.573 682.976 758.282 681.916C760.844 677.779 755.683 674.167 751.055 674.319C748.558 674.044 739.55 674.438 723.494 678.222" stroke="#D1D4D8" stroke-width="3" stroke-linecap="round"/>
<path d="M737.5 690.229C745 689.229 749.5 687.229 755.825 685.273C759.528 686.589 760.043 692.946 754.214 696.95C750.534 699.488 743.862 702.612 732.833 706.402" stroke="#D1D4D8" stroke-width="3" stroke-linecap="round"/>
<path d="M746.981 710.958C747.5 716.975 742.5 736.229 691.001 723.728" stroke="#D1D4D8" stroke-width="3" stroke-linecap="round"/>
<path d="M827.494 665.757C822.995 665.757 807.993 666.756 809.998 657.256C812.002 647.755 829.997 654.257 844.004 657.256" stroke="#D1D4D8" stroke-width="3" stroke-linecap="round"/>
</svg>
