<svg width="527" height="718" viewBox="0 0 527 718" fill="none" xmlns="http://www.w3.org/2000/svg">
<path d="M132 485.971L150 488.507V530.714C150 531.357 149.402 531.833 148.775 531.688L132.775 527.997C132.321 527.892 132 527.488 132 527.023V485.971Z" fill="#D1D4D8"/>
<path d="M177.638 475.971L115.5 481.971L188.375 493.971L252.638 487.971L177.638 475.971Z" fill="#D1D4D8"/>
<path d="M98 481.139L189.613 495.017M98 481.139V611.421C98 611.64 98.1432 611.834 98.353 611.899L189.613 639.971M98 481.139L174.5 476.471M189.613 495.017L279.512 487.511C279.783 487.489 280.023 487.687 280.051 487.957L293.454 615.033C293.48 615.283 293.316 615.514 293.071 615.572L189.613 639.971M189.613 495.017V639.971" stroke="#D1D4D8" stroke-width="3" stroke-linecap="round"/>
<path d="M287.97 688.48C277.57 702.08 313.97 718.48 333.97 713.98C311.97 701.98 314.137 692.48 314.97 688.48C310.304 682.813 298.37 674.88 287.97 688.48Z" fill="#D1D4D8"/>
<path d="M322.012 665.144C317.475 675.343 311.124 697.491 322.012 704.485C335.621 713.228 340.157 717.599 356.035 715.414C371.912 713.228 376.449 711.042 367.376 704.485C358.303 697.929 349.51 687.198 351.778 660.971" stroke="#D1D4D8" stroke-width="3" stroke-linecap="round"/>
<path d="M308.705 642.492C287.5 601.971 286.5 538.471 280.023 486.356C221.154 489.855 184.619 486.665 166.318 468.669C141.136 443.908 147.797 416.778 147.797 392.666C170.749 408.758 163.216 387.971 256 387.971C342.562 392.771 367.591 518.971 369.285 581.471C371.047 608.587 368.428 633.045 356.147 642.492C331.477 661.47 314.189 652.971 308.705 642.492Z" fill="#D1D4D8"/>
<path d="M251.94 236.971C276.616 190.624 257.644 170.884 246.034 161.971C247.406 197.068 224.271 215.922 212 220.743V231.971C214.17 229.125 241.034 230.777 251.94 236.971Z" fill="#D1D4D8"/>
<path d="M95.4912 219.887C111.941 235.47 126.047 235.249 132.471 235.971C156.275 235.971 166.771 233.565 175.651 230.357L170 213.518C158.121 204.963 150.958 191.183 148.202 184.65C145.106 187.26 140.753 187.75 138.514 184.65C136.716 182.939 132.986 176.582 133.67 167.008C134.353 157.435 140.126 158.509 143.527 160.99L160.517 162.816C159.802 146.988 169.589 141.706 174.571 141.043C170.655 132.276 177.659 128.439 181.345 126.933C186.631 133.392 193.559 135.994 196.489 137.205C226.307 144.981 244.507 134.335 252.907 121.047C262.026 107.632 260.55 76.1324 234.752 68.4644C226.317 65.228 206.319 62.5746 193.809 77.8502C156.984 64.3585 139.555 102.972 134.774 116.994L129.248 129.778C81.2585 139.956 77.0349 185.207 85.4645 205.025C89.2861 214.011 89.7889 214.486 95.2383 219.647L95.4912 219.887Z" fill="#D1D4D8"/>
<path d="M159.357 163.631C161.369 174.988 171.231 182.442 181.088 180.725C190.945 179.008 197.655 168.667 195.643 157.31C193.631 145.953 183.769 138.499 173.912 140.216C164.055 141.934 157.345 152.274 159.357 163.631Z" stroke="#D1D4D8" stroke-width="3"/>
<path d="M212.299 163.631C213.985 174.988 222.247 182.442 230.506 180.725C238.765 179.008 244.386 168.667 242.701 157.31C241.015 145.953 232.753 138.499 224.494 140.216C216.235 141.934 210.614 152.274 212.299 163.631Z" stroke="#D1D4D8" stroke-width="3"/>
<path d="M210 159.971L196 161.971" stroke="#D1D4D8" stroke-width="3" stroke-linecap="round"/>
<path d="M210 204.971C206.909 209.764 199.182 213.282 193 204.971" stroke="#D1D4D8" stroke-width="3" stroke-linecap="round"/>
<path d="M204 176.971C208.27 186.243 209.633 190.88 205.544 193.971" stroke="#D1D4D8" stroke-width="3" stroke-linecap="round"/>
<path d="M233.647 176.459C230.629 176.989 227.753 174.972 227.223 171.955C226.693 168.937 228.71 166.061 231.727 165.531C234.745 165.001 237.621 167.017 238.151 170.035C238.681 173.053 236.665 175.929 233.647 176.459Z" fill="#D1D4D8"/>
<path d="M187.327 177.837C184.309 178.367 181.433 176.35 180.903 173.332C180.373 170.315 182.389 167.439 185.407 166.909C188.425 166.378 191.301 168.395 191.831 171.413C192.361 174.43 190.344 177.306 187.327 177.837Z" fill="#D1D4D8"/>
<path d="M141.732 171.825C142.267 172.548 143.501 174.215 144.157 175.103" stroke="#D1D4D8" stroke-width="3" stroke-linecap="round"/>
<path d="M237.029 133.971C249.992 161.386 251.401 183.717 224.368 211.681C197.336 239.645 168.357 213.418 157.246 196.809L150 186.043" stroke="#D1D4D8" stroke-width="3" stroke-linecap="round"/>
<path d="M157.896 160.511L145.931 160.915" stroke="#D1D4D8" stroke-width="3" stroke-linecap="round"/>
<path d="M288.012 300.971C297.185 311.565 308.089 350.826 280 377.971" stroke="#D1D4D8" stroke-width="3" stroke-linecap="round"/>
<path d="M272.5 268.471C272.5 240.471 235.868 229.628 212.43 233.734C205.622 238.817 188.25 245.933 173.219 233.734C161.51 235.073 136.132 241.285 128.29 255.415C108.412 288.331 98.0649 375.037 160.966 398.319" stroke="#D1D4D8" stroke-width="3" stroke-linecap="round"/>
<path d="M162 300.971C170.024 313.503 172.763 332.372 172.071 344.288C172.048 344.687 172.509 344.936 172.829 344.698C190.991 331.158 232.438 333.697 242.11 340.719C249.968 346.423 244.242 354.186 239.602 359.14C226.816 372.786 207.228 386.015 194.5 391.971" stroke="#D1D4D8" stroke-width="3" stroke-linecap="round"/>
<path d="M291.704 280.327C298.422 284.392 293.244 303.257 290.444 310.814L288.008 309.958L288.69 306.999L288.462 304.04C287.203 300.914 279.934 298.568 275.735 304.04C271.631 309.39 266.417 313.973 263.573 315.113C252.489 321.054 254.476 311.335 256.856 305.733C258.255 303.127 262.23 294.242 263.573 285.799C264.917 277.357 270.711 276.419 274.07 276.028C277.149 275.768 284.986 276.262 291.704 280.327Z" fill="#D1D4D8"/>
<path d="M272 270.057C274.502 269.687 277.527 270.438 279.3 273.54C279.683 274.209 279.933 275.012 280 275.971" stroke="#D1D4D8" stroke-width="3" stroke-linecap="round"/>
<path d="M259.734 303.971C257.257 302.277 256.126 299.737 254.003 295.412C251.88 289.575 250.651 286.188 249.333 281.303C249.05 279.735 248.036 275.476 251.88 275.033C255.276 274.641 255.701 277.384 256.126 279.344C257.399 286.188 263.036 284.964 263.036 280.261C263.036 275.557 263.036 271.793 261.597 266.152C260.839 263.181 258.905 256.971 265.867 256.971C270.868 256.971 271.264 261.552 272 269.39" stroke="#D1D4D8" stroke-width="3" stroke-linecap="round"/>
<path d="M288 329.971C276.313 349.434 267.026 344.239 252 353.971" stroke="#D1D4D8" stroke-width="3" stroke-linecap="round"/>
<path d="M237 331.971C238.385 324.538 245.307 319.936 248.423 306.486C249.493 301.866 250.846 297.638 255 297.991" stroke="#D1D4D8" stroke-width="3" stroke-linecap="round"/>
<path d="M391 609.515C394.99 623.059 406.802 649.244 422.125 645.632C437.448 642.021 460.432 629.078 470.009 623.059C479.586 615.534 486.769 602.291 438.884 609.515C435.692 609.515 429.307 606.806 429.307 595.971" stroke="#D1D4D8" stroke-width="3" stroke-linecap="round"/>
<path d="M108.834 445.07C87.7006 450.798 64.8057 484.057 56 499.971C69.2086 498.379 99.1481 489.945 113.237 468.94C127.326 447.934 116.173 444.274 108.834 445.07Z" fill="#D1D4D8"/>
<path d="M99.2756 389.124C78.0786 391.297 62.833 444.456 56 468.971C71.1844 456.363 101.098 431.148 108.386 422.744C122.052 406.984 119.775 387.022 99.2756 389.124Z" fill="#D1D4D8"/>
<path d="M33.9735 372.127C22.4241 390.926 47.4497 419.172 58.9997 437.971C58.9997 426.134 59.0002 401.37 59 390.926C58.9996 374.216 42.313 358.553 33.9735 372.127Z" fill="#D1D4D8"/>
<path d="M59 478.971C43.2926 456.99 9.73581 418.89 1.16813 442.336C-9.54148 471.644 56.8581 478.971 59 478.971Z" fill="#D1D4D8"/>
<path d="M59 508.971L56 428.971" stroke="#D1D4D8" stroke-width="3" stroke-linecap="round"/>
<path d="M34.8257 575.118C40.2344 562.169 48.2848 528.939 49.9672 512.971H72.6798C73.6892 532.651 84.0351 560.876 89.083 575.118C104.224 608.781 91.186 630.36 81.5123 635.971H44.92C20.946 628.202 27.2545 593.244 34.8257 575.118Z" stroke="#D1D4D8" stroke-width="3"/>
<path d="M169 316.971C170.568 310.444 173.235 295.108 171.353 285.971" stroke="#D1D4D8" stroke-width="3" stroke-linecap="round"/>
<path d="M277 316.971C280.836 314.6 291.387 309.86 288.509 300.971" stroke="#D1D4D8" stroke-width="3" stroke-linecap="round"/>
<path d="M280 325.971C282.333 325.082 287 321.971 289 319.971" stroke="#D1D4D8" stroke-width="3" stroke-linecap="round"/>
<path d="M351 115.971V96.9707H414.256C415.047 104.571 417.419 111.221 419 115.971H351Z" fill="#D1D4D8" stroke="#D1D4D8" stroke-width="3" stroke-linecap="round"/>
<path d="M408.496 81.9707H353.278C352.02 81.9707 351 82.9908 351 84.2492V150.692C351 151.951 352.02 152.971 353.278 152.971H440" stroke="#D1D4D8" stroke-width="3" stroke-linecap="round"/>
<path d="M468.703 31.4512L442.642 4.62188C442.142 4.10795 441.331 4.06663 440.782 4.52717L400.647 38.2051C400.061 38.6966 399.992 39.5729 400.494 40.1497L418.715 61.0906" stroke="#D1D4D8" stroke-width="3" stroke-linecap="round"/>
<path d="M366 130.971H388" stroke="#D1D4D8" stroke-width="3" stroke-linecap="round"/>
<path fill-rule="evenodd" clip-rule="evenodd" d="M425.165 74.0213C423.678 93.0433 431.577 136.025 475.058 158.869C475.179 158.933 475.318 158.943 475.444 158.888C493.492 151.085 528.69 123.37 526.937 74.0176C526.93 73.8146 526.782 73.6353 526.585 73.5868C525.094 73.2204 523.671 72.8771 522.308 72.548C503.888 68.102 496.285 66.267 475.602 45.3267C475.417 45.1387 475.11 45.1314 474.934 45.3279C467.451 53.6523 447.693 70.346 425.554 73.6183C425.344 73.6494 425.182 73.8095 425.165 74.0213ZM492.029 89.4317C492.836 88.3112 492.581 86.7489 491.461 85.9421C490.34 85.1353 488.778 85.3897 487.971 86.5102L471.987 108.711L464.02 97.788C463.206 96.6725 461.642 96.4278 460.527 97.2415C459.411 98.0551 459.167 99.619 459.98 100.735L469.61 113.936C470.795 115.561 473.221 115.553 474.396 113.921L492.029 89.4317Z" fill="#D1D4D8"/>
<mask id="path-42-inside-1_188_282" fill="white">
<rect x="440.182" y="17.4648" width="14.726" height="10.415" rx="0.911393" transform="rotate(46.4826 440.182 17.4648)"/>
</mask>
<rect x="440.182" y="17.4648" width="14.726" height="10.415" rx="0.911393" transform="rotate(46.4826 440.182 17.4648)" fill="#D1D4D8" stroke="#D1D4D8" stroke-width="6" mask="url(#path-42-inside-1_188_282)"/>
<path d="M267 382.471C271.333 372.637 274 364.471 276.5 343.471" stroke="#D1D4D8" stroke-width="5" stroke-linecap="round"/>
<path d="M393.579 422.973C363.234 365.178 278.674 376.628 255 389.074C315.051 395.238 330.332 437 332.753 456.481C341.792 533.758 365.573 579.052 376.334 592.04C385.211 598.534 423.576 598.07 425.564 582.299C432.827 524.666 411.053 456.254 393.579 422.973Z" fill="#D1D4D8" stroke="#D1D4D8" stroke-width="3"/>
<path d="M454.087 679.042C455.546 669.552 425.546 673.194 408.323 676.565C406.833 676.857 405.474 677.812 405.235 679.311C404.73 682.469 406.306 685.465 407.837 687.367C408.552 688.256 409.647 688.701 410.786 688.76C425.653 689.53 452.62 688.59 454.087 679.042Z" fill="#D1D4D8"/>
</svg>
