<svg width="924" height="808" viewBox="0 0 924 808" fill="none" xmlns="http://www.w3.org/2000/svg">
<path d="M838.271 98.4323C830.676 100.62 822.448 113.319 819.283 119.395C824.03 118.787 834.79 115.567 839.853 107.546C844.916 99.5259 840.908 98.1285 838.271 98.4323Z" fill="#D1D4D8"/>
<path d="M834.891 78.45C827.246 79.2377 821.748 98.5081 819.283 107.395C824.76 102.824 835.548 93.684 838.177 90.6372C843.105 84.9245 842.284 77.6883 834.891 78.45Z" fill="#D1D4D8"/>
<path d="M809.664 69.646C804.302 77.854 815.921 90.1864 821.283 98.3945C821.283 93.2265 821.283 82.4141 821.283 77.8541C821.283 70.5581 813.536 63.7192 809.664 69.646Z" fill="#D1D4D8"/>
<path d="M820.283 110.395C814.426 102.401 801.914 88.5469 798.719 97.0728C794.725 107.73 819.485 110.395 820.283 110.395Z" fill="#D1D4D8"/>
<path d="M820.283 122.395L819.283 92.3945" stroke="#D1D4D8" stroke-width="3" stroke-linecap="round"/>
<path d="M811.793 145.637C813.781 140.794 816.741 128.366 817.359 122.395H825.71C826.081 129.755 829.884 140.31 831.74 145.637C837.307 158.226 832.513 166.296 828.957 168.395H815.504C806.69 165.489 809.009 152.416 811.793 145.637Z" stroke="#D1D4D8" stroke-width="3"/>
<path d="M755.283 198.573C767.57 201.12 761.809 218.208 770.814 222.755C781.562 228.183 785.264 197.623 783.865 184.651C783.464 178.964 776.909 176.434 776.024 184.651C775.085 193.38 785.806 227.227 798.093 214.166L806.297 204.577C808.576 201.74 813.07 197.798 816.868 204.577C820.665 211.357 826.716 209.116 829.267 207.149L837.283 201.258" stroke="#D1D4D8" stroke-width="3" stroke-linecap="round"/>
<path d="M521.283 102.359H672.783" stroke="#D1D4D8" stroke-width="3" stroke-linecap="round"/>
<path d="M521.288 154.856L641.283 154.856" stroke="#D1D4D8" stroke-width="3" stroke-linecap="round"/>
<path d="M521.287 178.442L622.783 178.442" stroke="#D1D4D8" stroke-width="3" stroke-linecap="round"/>
<path d="M427.277 201.734L673.784 201.734" stroke="#D1D4D8" stroke-width="3" stroke-linecap="round"/>
<path d="M426.286 220.807L539.283 220.807" stroke="#D1D4D8" stroke-width="3" stroke-linecap="round"/>
<path d="M521.769 129.847L590.386 128.642" stroke="#D1D4D8" stroke-width="3" stroke-linecap="round"/>
<rect x="423.817" y="93.5082" width="68.9465" height="87.4889" rx="3.5" transform="rotate(-1.31232 423.817 93.5082)" stroke="#D1D4D8" stroke-width="3"/>
<path d="M787.283 39.8945V12.3945C787.283 6.87168 782.806 2.39453 777.283 2.39453H398.283C392.76 2.39453 388.283 6.87169 388.283 12.3945V297.395C388.283 302.917 392.76 307.395 398.283 307.395H777.283C782.806 307.395 787.283 302.917 787.283 297.395V291.895" stroke="#D1D4D8" stroke-width="3" stroke-linecap="round"/>
<rect x="407.783" y="21.8945" width="360" height="26" rx="13" stroke="#D1D4D8" stroke-width="3"/>
<circle cx="428.283" cy="34.3945" r="4.5" stroke="#D1D4D8" stroke-width="3"/>
<circle cx="446.283" cy="34.3945" r="4.5" stroke="#D1D4D8" stroke-width="3"/>
<circle cx="463.283" cy="34.3945" r="4.5" stroke="#D1D4D8" stroke-width="3"/>
<path d="M289.063 407.136C291.853 398.952 289.313 393.444 286.823 392.395C271.923 406.245 249.314 401.104 240.929 392.71C237.948 395.48 239.687 403.673 240.929 406.192C257.077 424.323 280.053 414.166 289.063 407.136Z" fill="#D1D4D8"/>
<path d="M332.163 280.52C325.333 305.204 321.923 307.391 311.983 318.327C311.983 307.519 310.143 289.379 310.143 281.825C277.623 281.825 250.171 268.461 240.513 261.778C240.859 284.44 219.754 299.256 219.754 299.256C219.754 299.256 222.781 308.408 224.511 328.891C225.895 345.276 221.917 342.11 219.754 338.478C213.526 318.257 203.32 323.661 198.995 328.891C145.925 242.089 227.538 225.317 243.107 226.915C254.871 216.805 271.273 208.882 282.813 207.72C324.403 203.529 343.233 240.497 332.163 280.52Z" fill="#D1D4D8"/>
<path d="M220.283 353.358C225.908 387.544 263.664 412.126 290.913 384.433C318.153 356.74 312.703 306.049 309.793 282.395" stroke="#D1D4D8" stroke-width="3" stroke-linecap="round"/>
<path d="M197.783 325.895C194.407 334.291 198.222 353.395 220.283 353.395" stroke="#D1D4D8" stroke-width="3" stroke-linecap="round"/>
<path d="M208.423 332.395C207.981 334.046 208.334 337.957 213.283 340.395" stroke="#D1D4D8" stroke-width="3" stroke-linecap="round"/>
<path d="M309.783 348.895C317.153 345.791 320.853 334.799 318.853 316.395" stroke="#D1D4D8" stroke-width="3" stroke-linecap="round"/>
<path d="M271.283 368.962C278.363 371.018 277.913 365.36 283.283 360.395" stroke="#D1D4D8" stroke-width="3" stroke-linecap="round"/>
<path d="M291.423 336.59C293.733 336.812 295.893 333.935 296.253 330.165C296.613 326.395 295.043 323.159 292.743 322.938C290.433 322.716 288.273 325.593 287.913 329.363C287.553 333.133 289.123 336.369 291.423 336.59Z" fill="#D1D4D8"/>
<path d="M249.41 336.618C251.728 336.9 253.972 334.122 254.423 330.413C254.874 326.704 253.36 323.47 251.042 323.188C248.725 322.906 246.48 325.684 246.029 329.393C245.578 333.101 247.092 336.336 249.41 336.618Z" fill="#D1D4D8"/>
<path d="M238.283 316.395C239.244 313.438 243.389 307.967 252.283 309.741" stroke="#D1D4D8" stroke-width="3" stroke-linecap="round"/>
<path d="M281.283 310.395C283.403 308.886 289.173 306.772 295.283 310.395" stroke="#D1D4D8" stroke-width="3" stroke-linecap="round"/>
<path d="M273.803 322.395C274.493 328.447 274.973 340.719 271.283 341.395" stroke="#D1D4D8" stroke-width="3" stroke-linecap="round"/>
<path d="M439.184 494.984C417.684 471.484 360.284 416.984 302.684 386.984" stroke="#D1D4D8" stroke-width="3" stroke-linecap="round"/>
<path d="M524.684 684.484C395.884 878.084 170.683 800.984 89.6827 723.484C37.6827 669.651 -32.3173 550.484 21.1827 433.484C59.7947 349.044 134.655 338.679 191.784 348.703" stroke="#D1D4D8" stroke-width="3" stroke-linecap="round"/>
<path d="M460.684 559.485C391.884 545.485 324.684 583.985 299.684 604.985C349.684 616.985 388.854 641.318 402.184 651.985C409.384 647.585 425.354 644.151 432.444 642.985C474.644 664.625 563.134 703.298 608.184 722.485C623.284 726.893 645.284 682.393 633.184 668.985L460.684 559.485Z" fill="#D1D4D8"/>
<path d="M120.182 426.988C118.015 446.488 118.782 496.788 139.182 541.988" stroke="#D1D4D8" stroke-width="3" stroke-linecap="round"/>
<path d="M104.682 555.984C114.016 570.65 147.982 606.284 209.182 631.484" stroke="#D1D4D8" stroke-width="3" stroke-linecap="round"/>
<path d="M266.182 652.484C278.353 655.817 308.583 660.484 332.183 652.484" stroke="#D1D4D8" stroke-width="3" stroke-linecap="round"/>
<path d="M209.182 595.485C244.849 592.652 334.683 600.785 408.683 655.985" stroke="#D1D4D8" stroke-width="3" stroke-linecap="round"/>
<path d="M229.682 454.484C231.849 461.818 230.792 482.882 234.682 494.984C239.182 508.984 261.849 514.818 273.683 516.984C294.183 520.738 316.783 519.484 339.183 527.484" stroke="#D1D4D8" stroke-width="3" stroke-linecap="round"/>
<path d="M234.682 404.394C211.283 401.894 178.926 409.894 172.182 445.486C164.982 483.486 182.015 529.153 191.182 550.486C198.487 567.486 246.182 581.686 326.183 562.486" stroke="#D1D4D8" stroke-width="3" stroke-linecap="round"/>
<path d="M326.184 562.484C330.354 555.817 339.184 539.484 339.184 527.484" stroke="#D1D4D8" stroke-width="3" stroke-linecap="round"/>
<path d="M293.783 406.395C326.783 406.395 352.583 420.387 372.183 451.987C391.783 483.587 417.683 508.487 428.183 516.987" stroke="#D1D4D8" stroke-width="3" stroke-linecap="round"/>
<path d="M362.684 465.984C366.014 472.984 369.934 483.17 372.184 494.984C374.184 505.484 379.684 518.984 381.684 522.984" stroke="#D1D4D8" stroke-width="3" stroke-linecap="round"/>
<path d="M213.182 569.984C214.682 575.15 218.682 585.984 224.682 593.984" stroke="#D1D4D8" stroke-width="3" stroke-linecap="round"/>
<path d="M513.184 555.484L449.684 557.484L460.684 559.484L560.684 622.984C553.084 580.984 525.854 560.317 513.184 555.484Z" fill="#D1D4D8"/>
<path d="M566.684 761.984L524.184 687.984L525.684 685.984L608.184 721.984V730.484C604.784 750.892 577.284 773.392 566.684 761.984Z" fill="#D1D4D8"/>
<path d="M339.184 527.485C344.014 529.485 355.984 532.194 365.184 528.594C374.384 524.994 388.014 524.761 393.684 525.094C398.354 526.094 407.884 530.894 408.684 542.094C409.184 546.594 401.814 547.594 400.194 543.094" stroke="#D1D4D8" stroke-width="3" stroke-linecap="round"/>
<path d="M382.184 534.594C387.714 534.594 397.794 536.403 400.194 543.094C400.614 544.271 400.804 545.599 400.684 547.094C399.184 551.985 390.854 548.61 387.684 545.985C386.144 543.818 381.224 541.538 378.684 540.985" stroke="#D1D4D8" stroke-width="3" stroke-linecap="round"/>
<path d="M378.684 540.984C381.224 541.537 386.144 543.817 387.684 545.984C388.464 547.083 387.624 548.503 386.684 549.984C383.684 553.484 378.694 551.194 371.684 548.984C365.684 547.093 360.014 552.817 359.184 555.984" stroke="#D1D4D8" stroke-width="3" stroke-linecap="round"/>
<path d="M328.184 558.984C329.014 559.15 331.884 559.684 336.684 560.484" stroke="#D1D4D8" stroke-width="3" stroke-linecap="round"/>
<path d="M335.684 559.984C338.084 559.984 395.354 550.484 423.684 545.484H531.684C537.514 545.817 551.184 544.284 559.184 535.484" stroke="#D1D4D8" stroke-width="3" stroke-linecap="round"/>
<path d="M559.183 535.989C568.683 511.656 590.183 456.888 598.183 434.488C606.183 412.088 593.183 407.155 585.683 407.488C569.183 407.155 529.383 406.688 502.183 407.488C474.983 408.288 467.183 421.488 463.683 429.488L425.683 535.489C424.853 538.156 424.383 543.489 429.183 545.489" stroke="#D1D4D8" stroke-width="3" stroke-linecap="round"/>
<path d="M559.184 535.484C555.354 544.984 543.184 559.484 513.684 557.984" stroke="#D1D4D8" stroke-width="3" stroke-linecap="round"/>
<path d="M335.684 559.984C335.354 565.15 340.684 573.484 366.184 570.484" stroke="#D1D4D8" stroke-width="3" stroke-linecap="round"/>
<path d="M382.184 675.984C399.354 675.984 438.584 671.884 458.184 655.484" stroke="#D1D4D8" stroke-width="3" stroke-linecap="round"/>
<path d="M629.104 717.359C636.694 725.017 654.834 739.429 677.284 723.395C722.784 690.895 699.784 677.394 673.784 693.893C668.284 697.384 660.384 703.093 652.784 699.893" stroke="#D1D4D8" stroke-width="3" stroke-linecap="round"/>
<path d="M590.283 765.571C596.213 779.43 607.813 798.197 626.813 792.891C663.783 782.568 680.293 745.428 646.813 760.576C637.203 764.923 630.783 769.07 618.283 756.781" stroke="#D1D4D8" stroke-width="3" stroke-linecap="round"/>
<rect x="725.783" y="56.8945" width="196" height="232" rx="8.5" stroke="#D1D4D8" stroke-width="3"/>
<path d="M747.783 236.395H903.283" stroke="#D1D4D8" stroke-width="3" stroke-linecap="round"/>
<rect x="792.283" y="253.395" width="65" height="16" rx="8" fill="#D1D4D8"/>
</svg>
