<svg width="1916" height="805" viewBox="0 0 1916 805" fill="none" xmlns="http://www.w3.org/2000/svg">
<path d="M371.277 753.341C444.362 728.188 400.815 521.929 366.95 447.258C315.917 494.775 224.619 474.278 217.596 455.177C215.486 466.444 208.726 516.908 179.114 561.554C149.502 606.199 111.085 629.418 104.296 648.801C87.7573 695.962 123.985 720.328 142.099 725.83C205.733 740.293 259.444 668.977 278.346 631.509C305.438 742.179 351.588 758.843 371.277 753.341Z" fill="#D1D4D8"/>
<path d="M385.672 742.258C385.129 750.427 388.866 777.83 410.425 762.811C415.743 757.541 428.311 748.898 435.977 756.487C443.642 764.075 428.519 778.094 420.007 784.154C411.224 791.006 389.664 802.651 373.694 794.43C357.724 786.209 357.98 764.656 360.12 754.906" stroke="#D1D4D8" stroke-width="3" stroke-linecap="round"/>
<path d="M125.08 713.979C119.61 716.638 108.67 724.027 108.67 732.32C114.921 741.359 124.924 763.581 114.921 780.168C104.919 796.755 86.7888 758.903 78.9742 737.903C75.0669 725.941 74.5981 699.465 103.981 689.258" stroke="#D1D4D8" stroke-width="3" stroke-linecap="round"/>
<path d="M361.08 789.258C357.687 795.517 344.349 804.73 318.08 791.511" stroke="#D1D4D8" stroke-width="3" stroke-linecap="round"/>
<path d="M343.08 778.258C335.577 784.986 315.503 796.055 290.08 786.591" stroke="#D1D4D8" stroke-width="3" stroke-linecap="round"/>
<path d="M308.08 773.258C298.538 784.372 271.979 802.315 242.08 785.166" stroke="#D1D4D8" stroke-width="3" stroke-linecap="round"/>
<path d="M266.08 767.258C263.723 777.076 231.823 798.021 123.08 803.258" stroke="#D1D4D8" stroke-width="3" stroke-linecap="round"/>
<path d="M274.136 372.258C230.852 359.737 196.795 320.21 185.178 302.011C172.201 282.446 182.615 238.705 328.08 220.258" stroke="#D1D4D8" stroke-width="3" stroke-linecap="round"/>
<path d="M273.08 372.258C275.761 368.456 282.808 361.584 291.08 361.258" stroke="#D1D4D8" stroke-width="3" stroke-linecap="round"/>
<path d="M291.08 361.258C290.846 351.078 282.518 324.827 251.08 301.258" stroke="#D1D4D8" stroke-width="3" stroke-linecap="round"/>
<path d="M290.08 295.258C293.31 290 303.234 278.839 317.08 276.258" stroke="#D1D4D8" stroke-width="3" stroke-linecap="round"/>
<path d="M321.264 376.258C328.749 375.91 344.38 374.866 347.031 373.474C350.344 371.735 351.08 371.735 351.08 368.255C351.08 364.776 321.264 370.691 321.264 359.558C323.964 357.006 328.332 351.277 324.209 348.772C320.086 346.267 311.448 353.527 307.645 357.47C303.719 361.413 294.909 367.63 291.08 360.949" stroke="#D1D4D8" stroke-width="3" stroke-linecap="round"/>
<path d="M274.08 372.258C277.327 381.418 289.014 397.86 309.792 390.346C330.57 382.833 331.436 378.867 329.271 377.823" stroke="#D1D4D8" stroke-width="3" stroke-linecap="round"/>
<path d="M420.08 362.258C425.09 360.883 436.04 354.492 439.762 339.914C443.483 325.338 438.449 325.266 435.467 327.052" stroke="#D1D4D8" stroke-width="3" stroke-linecap="round"/>
<path d="M401.08 351.258C402.587 343.407 407.897 328.261 417.08 330.477" stroke="#D1D4D8" stroke-width="3" stroke-linecap="round"/>
<path d="M404.732 338.354C398.116 332.862 394.065 345.459 392.866 352.444C385.388 354.756 382.559 365.691 382.08 370.87C399.387 372.663 411.685 367.969 419.474 362.393C424.243 358.979 427.321 355.234 428.823 352.444C432.539 342.449 437.956 321.59 429.901 318.122C421.847 314.654 419.594 322.457 419.474 326.792C420.337 336.62 415.279 347.507 412.643 351.722" stroke="#D1D4D8" stroke-width="3" stroke-linecap="round"/>
<path d="M234.019 381.258C219.266 401.203 200.038 455.522 234.019 467.043C282.275 481.296 382.046 484.093 395.08 381.258" stroke="#D1D4D8" stroke-width="3" stroke-linecap="round"/>
<path d="M441.84 347.975L555.648 341.079C561.241 340.741 566.02 345.062 566.245 350.66L568.024 394.985C568.25 400.612 573.075 404.943 578.693 404.561L607.124 402.631C612.53 402.264 616.661 397.657 616.438 392.243L615.372 366.311C615.147 360.834 619.372 356.198 624.846 355.913L632.168 355.533C637.664 355.248 642.358 359.457 642.671 364.951L643.423 378.162C643.731 383.573 648.293 387.754 653.711 387.589L664.534 387.26C670.181 387.088 674.565 382.276 674.211 376.637L672.218 344.922C671.868 339.366 676.124 334.594 681.684 334.308L698.05 333.466C703.582 333.181 707.829 328.453 707.52 322.922L705.365 284.304C705.056 278.766 700.299 274.537 694.762 274.88L568.436 282.709L256.08 303.838" stroke="#D1D4D8" stroke-width="3" stroke-linecap="round"/>
<path d="M389.08 230.258C395.311 226.45 442.184 230.12 451.297 171.575C466.899 171.756 475.382 159.066 463.478 153.635C450.787 147.137 451.74 135.208 454.039 128.179C457.694 118.96 457.916 109.282 457.127 107.258" stroke="#D1D4D8" stroke-width="3" stroke-linecap="round"/>
<path d="M437.399 150.448C439.155 150.468 440.603 148.35 440.634 145.716C440.665 143.083 439.267 140.931 437.511 140.91C435.755 140.89 434.307 143.008 434.276 145.642C434.245 148.275 435.644 150.427 437.399 150.448Z" fill="#D1D4D8"/>
<path d="M429.08 131.258C431.61 128.446 438.153 124.334 444.08 130.375" stroke="#D1D4D8" stroke-width="3" stroke-linecap="round"/>
<path d="M411.08 185.258C416.044 192.37 421.494 194.389 432.08 189.8" stroke="#D1D4D8" stroke-width="3" stroke-linecap="round"/>
<path d="M372.95 133.258C371.836 135.786 370.904 141.526 376.08 144.258" stroke="#D1D4D8" stroke-width="3" stroke-linecap="round"/>
<path d="M318.236 109.217C312.206 142.261 331.071 167.136 344.748 186.258C359.355 178.353 383.296 159.555 374.114 157.526C364.463 155.393 354.285 129.025 363.656 120.959C374.652 111.495 384.563 125.814 386.453 136.671L395.309 121.33C392.804 110.6 391.822 91.7769 407.928 102.329C424.034 112.881 447.659 110.117 457.459 107.416C476.781 93.5624 506.799 61.2485 472.302 42.8209C443.61 27.4942 406.273 46.8713 383.482 64.2827C368.05 60.2019 326.457 64.1634 318.236 109.217Z" fill="#D1D4D8"/>
<path d="M346.08 183.258C352.33 191.707 355.434 198.723 355.048 213.258" stroke="#D1D4D8" stroke-width="3" stroke-linecap="round"/>
<path d="M337.649 232.637C335.228 224.362 333.809 208.58 347.502 211.648C364.617 215.482 399.503 232.065 396.947 241.258" stroke="#D1D4D8" stroke-width="3" stroke-linecap="round"/>
<path d="M397.08 255.258C410.215 266.525 413.134 273.737 415.08 287.258" stroke="#D1D4D8" stroke-width="3" stroke-linecap="round"/>
<path d="M6.97701 343.673C8.47665 373.377 18.0329 399.789 32.1927 418.481C46.3582 437.18 65.0154 448.031 84.7799 447.033C104.544 446.036 122.014 433.361 134.224 413.33C146.429 393.307 153.277 366.067 151.777 336.363C150.278 306.659 140.721 280.247 126.562 261.555C112.396 242.855 93.7388 232.005 73.9743 233.002C54.2098 234 36.7403 246.675 24.5302 266.706C12.3249 286.729 5.47737 313.969 6.97701 343.673Z" stroke="#D1D4D8" stroke-width="3"/>
<path d="M37.088 341.927C37.9677 359.352 43.5733 374.819 51.847 385.74C60.1264 396.67 70.962 402.926 82.3645 402.35C93.767 401.774 103.917 394.459 111.054 382.751C118.186 371.052 122.205 355.099 121.325 337.674C120.446 320.249 114.84 304.783 106.566 293.861C98.2868 282.931 87.4513 276.675 76.0488 277.251C64.6462 277.827 54.4958 285.142 47.3593 296.85C40.2277 308.549 36.2083 324.502 37.088 341.927Z" stroke="#D1D4D8" stroke-width="3"/>
<path d="M189.08 313.258L147.08 316.258" stroke="#D1D4D8" stroke-width="3" stroke-linecap="round"/>
<path d="M383.08 357.258L324.08 361.258" stroke="#D1D4D8" stroke-width="3" stroke-linecap="round"/>
<path d="M253.08 366.258L148.08 371.258" stroke="#D1D4D8" stroke-width="3" stroke-linecap="round"/>
<path d="M844.149 468.258H860.5C871.27 468.258 880 459.527 880 448.758V448.758C880 437.988 871.27 429.258 860.5 429.258H813" stroke="#D1D4D8" stroke-width="3" stroke-linecap="round"/>
<rect x="856.5" y="391.758" width="121" height="36" rx="18" stroke="#D1D4D8" stroke-width="3"/>
<path d="M811.509 429.258H835.5C846.27 429.258 855 420.527 855 409.758V409.758C855 398.988 846.27 390.258 835.5 390.258H788" stroke="#D1D4D8" stroke-width="3" stroke-linecap="round"/>
<rect x="897.5" y="469.758" width="118" height="38" rx="18.5" stroke="#D1D4D8" stroke-width="3"/>
<path d="M904 509.258H980.687C992.232 509.258 1001.38 519.006 1000.65 530.528L1000.22 537.258" stroke="#D1D4D8" stroke-width="3" stroke-linecap="round"/>
<path d="M1002.37 537.258L1000.91 528.565C998.863 516.369 1008.27 505.258 1020.63 505.258H1109.74C1115.96 505.258 1121 510.299 1121 516.517V516.517" stroke="#D1D4D8" stroke-width="3"/>
<rect x="1018.5" y="468.758" width="119" height="35" rx="17.5" stroke="#D1D4D8" stroke-width="3"/>
<path d="M1187 469.258H1159C1147.95 469.258 1139 478.212 1139 489.258V505.258" stroke="#D1D4D8" stroke-width="3"/>
<rect x="1001.5" y="430.758" width="120" height="37" rx="18.5" stroke="#D1D4D8" stroke-width="3"/>
<path d="M1223 429.258H1141C1129.95 429.258 1121 438.212 1121 449.258V449.258C1121 460.304 1129.95 469.258 1141 469.258H1188.4" stroke="#D1D4D8" stroke-width="3" stroke-linecap="round"/>
<rect x="980.5" y="391.758" width="119" height="36" rx="18" stroke="#D1D4D8" stroke-width="3"/>
<rect x="1102.5" y="391.758" width="118" height="36" rx="18" stroke="#D1D4D8" stroke-width="3"/>
<rect x="1095.5" y="351.758" width="118" height="37" rx="18.5" stroke="#D1D4D8" stroke-width="3"/>
<rect x="879.5" y="430.758" width="121" height="36" rx="18" stroke="#D1D4D8" stroke-width="3"/>
<circle cx="1017" cy="289.258" r="250.5" stroke="#D1D4D8" stroke-width="3"/>
<circle cx="1017" cy="289.258" r="287.5" stroke="#D1D4D8" stroke-width="3"/>
<circle cx="1685" cy="289.258" r="199.5" stroke="#D1D4D8" stroke-width="3"/>
<circle cx="1685" cy="289.258" r="76.5" stroke="#D1D4D8" stroke-width="3"/>
<circle cx="1685" cy="289.258" r="27" fill="#D1D4D8"/>
<circle cx="1685.5" cy="288.758" r="229" stroke="#D1D4D8" stroke-width="3"/>
<rect x="1859" y="247.258" width="37" height="84" rx="18.5" fill="#D1D4D8"/>
<path d="M1636 335.258L1731 241.258" stroke="#D1D4D8" stroke-width="3" stroke-linecap="round"/>
<path d="M1636 241.258L1731 335.258" stroke="#D1D4D8" stroke-width="3" stroke-linecap="round"/>
<rect width="44" height="504" rx="20" transform="matrix(-1 0 0 1 1269 37.2578)" fill="#D1D4D8"/>
<rect width="18" height="156" rx="9" transform="matrix(-1 0 0 1 1290 211.258)" fill="#D1D4D8"/>
<path d="M950 285.258V387.258C950 388.362 950.895 389.258 952 389.258H1084C1085.1 389.258 1086 388.362 1086 387.258V285.258" stroke="#D1D4D8" stroke-width="3" stroke-linecap="round"/>
<rect x="934" y="254.258" width="167" height="32" rx="2" fill="#D1D4D8"/>
<rect x="1003" y="286.258" width="31" height="100" fill="#D1D4D8"/>
<path d="M981.093 230.991C994.53 221.721 1011.79 237.993 1017.84 250.528C1018.46 251.807 1017.45 253.2 1016.03 253.147L987.711 252.086C974.472 252.086 975.074 234.947 981.093 230.991Z" stroke="#D1D4D8" stroke-width="3" stroke-linecap="round"/>
<path d="M1056 230.991C1042.88 221.718 1026.03 238.001 1020.13 250.538C1019.53 251.817 1020.53 253.199 1021.95 253.145L1049.54 252.086C1062.47 252.086 1061.88 234.947 1056 230.991Z" stroke="#D1D4D8" stroke-width="3" stroke-linecap="round"/>
</svg>
