<svg width="1378" height="730" viewBox="0 0 1378 730" fill="none" xmlns="http://www.w3.org/2000/svg">
<path d="M722.329 457.964C714.162 485.964 699.129 544.564 704.329 554.964" stroke="black" stroke-width="5" stroke-linecap="round"/>
<path d="M707.609 465.62L720.797 457.378C721.638 456.853 722.736 457.022 723.379 457.777L732.632 468.639C733.279 469.398 734.387 469.565 735.228 469.029L766.76 448.964C771.76 444.964 771.677 441.334 769.76 438.964C766.443 434.86 756.957 433.356 750.665 433.421C749.821 433.429 749.098 434.003 748.856 434.812L746.541 442.528C746.364 443.118 745.918 443.599 745.34 443.813C728.595 450.037 717.928 446.056 713.759 440.662C713.423 440.227 713.332 439.661 713.457 439.126L714.739 433.68C715.015 432.505 714.199 431.354 712.994 431.284C704.412 430.782 690.76 431.918 690.76 439.963C690.76 448.172 699.751 459.629 705.153 465.325C705.794 466.001 706.82 466.114 707.609 465.62Z" fill="black"/>
<path d="M667.76 528.964C671.76 486.164 684.594 450.797 690.76 438.964C692.76 434.464 697.56 431.364 702.76 430.964C709.26 430.464 758.944 430.538 771.26 436.964C782.76 442.964 780.76 442.964 777.76 476.464C775.36 503.264 765.76 538.964 761.26 553.464C758.26 561.464 740.16 568.264 721.76 561.464C698.76 552.964 705.76 557.464 684.76 553.464C667.96 550.264 667.059 536.464 667.76 528.964Z" stroke="black" stroke-width="5"/>
<path d="M779.762 456.464C776.428 452.964 768.862 449.464 765.262 463.464C760.762 480.964 750.682 520.049 749.76 524.964C748.26 532.964 747.761 553.964 755.761 541.464C762.161 531.464 769.595 489.464 771.762 469.464" stroke="black" stroke-width="5" stroke-linecap="round"/>
<ellipse cx="725.829" cy="470.464" rx="2.50085" ry="4" transform="rotate(13.2587 725.829 470.464)" fill="black"/>
<ellipse cx="720.18" cy="490.931" rx="2.50085" ry="4" transform="rotate(13.2587 720.18 490.931)" fill="black"/>
<ellipse cx="715.18" cy="514.931" rx="2.50085" ry="4" transform="rotate(13.2587 715.18 514.931)" fill="black"/>
<ellipse cx="711.18" cy="539.931" rx="2.50085" ry="4" transform="rotate(13.2587 711.18 539.931)" fill="black"/>
<path d="M590.329 457.964C582.162 485.964 567.129 544.564 572.329 554.964" stroke="black" stroke-width="5" stroke-linecap="round" stroke-dasharray="10 10"/>
<path d="M575.609 465.62L588.797 457.378C589.638 456.853 590.736 457.022 591.379 457.777L600.632 468.639C601.279 469.398 602.387 469.565 603.228 469.029L634.76 448.964C639.76 444.964 639.677 441.334 637.76 438.964C634.443 434.86 624.957 433.356 618.665 433.421C617.821 433.429 617.098 434.003 616.856 434.812L614.541 442.528C614.364 443.118 613.918 443.599 613.34 443.813C596.595 450.037 585.928 446.056 581.759 440.662C581.423 440.227 581.332 439.661 581.457 439.126L582.739 433.68C583.015 432.505 582.199 431.354 580.994 431.284C572.412 430.782 558.76 431.918 558.76 439.963C558.76 448.172 567.751 459.629 573.153 465.325C573.794 466.001 574.82 466.114 575.609 465.62Z" stroke="black" stroke-width="5" stroke-linecap="round" stroke-dasharray="10 10"/>
<path d="M535.76 528.964C539.76 486.164 552.594 450.797 558.76 438.964C560.76 434.464 565.56 431.364 570.76 430.964C577.26 430.464 626.944 430.538 639.26 436.964C650.76 442.964 648.76 442.964 645.76 476.464C643.36 503.264 633.76 538.964 629.26 553.464C626.26 561.464 608.16 568.264 589.76 561.464C566.76 552.964 573.76 557.464 552.76 553.464C535.96 550.264 535.059 536.464 535.76 528.964Z" stroke="black" stroke-width="5" stroke-dasharray="10 10"/>
<path d="M210.225 183.852C194.375 188.123 177.203 212.916 170.599 224.778C180.506 223.592 202.96 217.305 213.527 201.646C224.094 185.987 215.729 183.259 210.225 183.852Z" fill="black"/>
<path d="M202.524 142.889C186.887 144.465 175.64 183.005 170.599 200.778C181.801 191.638 203.868 173.357 209.245 167.264C219.326 155.838 217.646 141.366 202.524 142.889Z" fill="black"/>
<path d="M155.723 130.555C147.473 144.323 165.349 165.01 173.599 178.778C173.599 170.109 173.599 151.972 173.599 144.323C173.599 132.085 161.68 120.613 155.723 130.555Z" fill="black"/>
<path d="M173.599 208.778C161.885 192.293 136.86 163.718 130.47 181.302C122.483 203.283 172.002 208.778 173.599 208.778Z" fill="black"/>
<path d="M173.599 231.778L170.599 171.778" stroke="black" stroke-width="5" stroke-linecap="round"/>
<path d="M156.518 279.252C160.415 269.777 166.216 245.463 167.428 233.778H183.795C184.522 248.178 191.977 268.831 195.615 279.252C206.525 303.884 197.13 319.673 190.159 323.778H163.791C146.516 318.094 151.062 292.515 156.518 279.252Z" stroke="black" stroke-width="5"/>
<path d="M553.981 295.633C549.318 301.778 571.536 327.868 601.712 324.147C639.432 319.496 652.356 317.285 667.796 321.534C673.32 323.054 682.512 327.479 693.778 321.43C704.647 315.595 709.339 299.496 700.983 292.391" stroke="black" stroke-width="5" stroke-linecap="round"/>
<path d="M595.115 316.04C573.069 318.922 549.41 303.027 552.335 294.306C554.212 288.708 573.031 286.385 584.241 284.815C584.645 284.759 585.053 284.83 585.42 285.008C611.749 297.746 645.826 278.363 644.654 267.802C643.766 259.801 649.427 258.197 652.89 258.388C653.302 258.411 653.7 258.61 654.008 258.885C677.57 279.945 684.655 252.055 687.043 250.629C688.506 249.756 690.898 250.068 692.632 250.529C693.475 250.754 693.984 251.576 693.939 252.448C692.845 273.445 698.368 286.099 701.997 290.83C702.497 291.482 702.657 292.357 702.25 293.07C698.486 299.658 686.987 309.9 665.768 306.033C637.559 300.892 622.672 312.438 595.115 316.04Z" fill="black"/>
<path d="M641.21 272.669C621.67 289.19 601.628 288.354 590.629 284.847C588.892 284.293 589.089 282.033 590.838 281.513C636.378 267.987 632.844 249.835 647.918 242.922C658.749 237.955 657.398 246.742 654.624 253.717C654.07 255.11 651.744 255.686 650.261 255.905C648.999 256.092 647.351 256.734 645.29 258.19C640.814 261.351 642.117 267.474 641.865 271.417C641.834 271.904 641.582 272.354 641.21 272.669Z" fill="black"/>
<path d="M699.287 184.874L702.474 161.374C702.675 159.887 703.945 158.777 705.446 158.777H930.826C932.483 158.777 933.826 160.12 933.826 161.777V185.277C933.826 186.934 932.483 188.277 930.826 188.277H702.26C700.443 188.277 699.043 186.675 699.287 184.874Z" fill="black"/>
<path d="M711.826 188.777L708.458 242.653C708.387 243.804 709.301 244.777 710.455 244.777H916.529C917.551 244.777 918.408 244.007 918.517 242.99L924.326 188.777" stroke="black" stroke-width="5" stroke-linecap="round"/>
<circle cx="816.326" cy="205.277" r="10" stroke="black" stroke-width="5"/>
<path d="M924.599 89.7783H909.599H763.079C761.571 89.7783 760.297 90.8981 760.104 92.3939L758.036 108.394C757.805 110.188 759.202 111.778 761.012 111.778H880.599" stroke="black" stroke-width="5" stroke-linecap="round" stroke-dasharray="10 10"/>
<path d="M767.078 112.778L764.721 153.663C764.655 154.811 765.568 155.778 766.718 155.778H894.599" stroke="black" stroke-width="5" stroke-linecap="round" stroke-dasharray="10 10"/>
<circle cx="835.326" cy="287.277" r="10" stroke="black" stroke-width="5"/>
<path d="M718.815 269.377L722.999 248.877C723.189 247.946 724.008 247.277 724.959 247.277H953.326C954.43 247.277 955.326 248.173 955.326 249.277V269.777C955.326 270.882 954.43 271.777 953.326 271.777H720.775C719.51 271.777 718.562 270.617 718.815 269.377Z" fill="black"/>
<path d="M726.131 322.011L732.592 274.011C732.726 273.018 733.573 272.277 734.574 272.277H943.56C944.763 272.277 945.694 273.332 945.545 274.525L939.545 322.525C939.42 323.526 938.569 324.277 937.56 324.277H728.113C726.902 324.277 725.969 323.21 726.131 322.011Z" stroke="black" stroke-width="5"/>
<path d="M784.599 559.778V437.778C784.599 436.674 785.495 435.778 786.599 435.778H938.599C939.704 435.778 940.599 436.674 940.599 437.778V559.778C940.599 560.883 939.704 561.778 938.599 561.778H786.599C785.495 561.778 784.599 560.883 784.599 559.778Z" stroke="black" stroke-width="5" stroke-linecap="round"/>
<rect x="879.099" y="532.278" width="43" height="19" rx="2" fill="black"/>
<path d="M837.599 481.278V438.278C837.599 437.174 838.495 436.278 839.599 436.278H872.099C873.204 436.278 874.099 437.174 874.099 438.278V481.278C874.099 482.383 873.204 483.278 872.099 483.278H839.599C838.495 483.278 837.599 482.383 837.599 481.278Z" fill="black"/>
<path d="M3.09912 632.278H200.099" stroke="black" stroke-width="5" stroke-linecap="round"/>
<path d="M627.599 632.278H1043.6" stroke="black" stroke-width="5" stroke-linecap="round"/>
<path d="M394.843 371.553C293.515 352.73 283.832 488.252 291.748 560.042C291.859 561.051 292.71 561.778 293.725 561.778H439.276C456.863 561.778 450.853 517.129 442.083 496.199C435.067 479.456 435.535 476.293 433.664 433.876C431.793 391.459 410.278 374.42 394.843 371.553Z" stroke="black" stroke-width="5" stroke-linecap="round"/>
<rect x="370.331" y="403.354" width="38.2825" height="38.2825" rx="5" transform="rotate(45 370.331 403.354)" fill="black"/>
<path d="M353.599 371.778C353.913 363.491 359.212 348.54 378.529 351.061C392.641 352.902 396.404 364.412 395.463 369.937" stroke="black" stroke-width="5" stroke-linecap="round"/>
<path d="M317.767 502.778C313.9 517.086 310.435 545.893 327.511 546.656C344.588 547.419 385.361 544.43 403.613 542.84C416.142 541.749 413.915 524.145 412.43 502.778" stroke="black" stroke-width="5" stroke-linecap="round"/>
<path d="M308.986 502.778H420.864C423.896 502.778 426.263 500.086 425.484 497.156C423.06 488.033 417.606 480.105 406.786 477.531C393.761 474.434 337.342 470.921 320.608 477.531C309.4 480.864 304.995 491.237 304.625 498.687C304.506 501.073 306.597 502.778 308.986 502.778Z" fill="black"/>
<path d="M325.065 502.778C324.263 508.588 323.647 518.778 330.84 518.778C337.096 518.778 337.096 508.431 336.133 502.778" stroke="black" stroke-width="5" stroke-linecap="round"/>
<path d="M218.843 371.553C118.749 352.959 108.081 484.973 115.466 557.391C115.724 559.916 117.859 561.778 120.398 561.778H263.276C280.863 561.778 274.853 517.129 266.083 496.199C259.067 479.456 259.535 476.293 257.664 433.876C255.793 391.459 234.278 374.42 218.843 371.553Z" stroke="black" stroke-width="5" stroke-linecap="round" stroke-dasharray="10 10"/>
<path d="M176.599 371.778C176.913 363.491 182.212 348.54 201.529 351.061C215.641 352.902 219.404 364.412 218.463 369.937" stroke="black" stroke-width="5" stroke-linecap="round" stroke-dasharray="10 15"/>
<path d="M140.799 502.778C136.893 517.086 133.393 545.893 150.642 546.656C167.891 547.419 209.076 544.43 227.512 542.84C240.168 541.749 237.918 524.145 236.418 502.778" stroke="black" stroke-width="5" stroke-linecap="round" stroke-dasharray="10 10"/>
<path d="M131.982 502.778H244.858C247.892 502.778 250.26 500.082 249.474 497.151C247.029 488.03 241.53 480.104 230.623 477.531C217.491 474.434 160.611 470.921 143.739 477.531C132.436 480.865 127.996 491.243 127.625 498.694C127.506 501.077 129.596 502.778 131.982 502.778Z" stroke="black" stroke-width="5" stroke-linecap="round" stroke-dasharray="10 16"/>
<path d="M937.169 145.555C937.169 149.027 938.469 155.872 943.669 155.472" stroke="black" stroke-width="5" stroke-linecap="round"/>
<path d="M912.669 133.472L904.669 140.222C902.169 142.331 900.169 145.554 900.169 149.472C900.169 151.621 901.162 153.083 902.55 154.007C906.325 156.519 909.604 153.203 911.338 149.013V149.013C913.579 143.597 921.101 143.869 926.651 145.756C929.792 146.824 933.422 147.076 937.169 145.554C938.989 144.815 940.837 143.658 942.669 141.972" stroke="black" stroke-width="5" stroke-linecap="round"/>
<path d="M902.169 128.881C899.424 130.749 895.607 132.893 893.452 135.758C892.874 136.527 892.655 136.78 892.49 137.728V137.728C891.404 143.956 899.714 144.403 904.546 140.326L904.669 140.222L912.669 133.472" stroke="black" stroke-width="5" stroke-linecap="round"/>
<path d="M917.169 113.472C911.569 112.672 900.169 115.138 895.169 116.472C886.669 118.972 882.569 126.872 888.169 130.472C891.658 132.714 897.267 131.193 902.169 128.881C905.138 127.481 907.847 125.792 909.669 124.472" stroke="black" stroke-width="5" stroke-linecap="round"/>
<path d="M970.669 139.972C968.503 125.472 956.969 97.1717 928.169 99.9717C916.327 101.123 908.193 102.652 902.732 104.204C895.831 106.165 888.007 116.05 895.169 116.472V116.472" stroke="black" stroke-width="5" stroke-linecap="round"/>
<path d="M1375.96 711.893C1384.35 704.575 1347.05 705.117 1328.63 704.778C1325.98 708.437 1324.03 708.505 1319.24 709.352C1317.03 714.941 1367.56 719.209 1375.96 711.893Z" fill="black"/>
<path d="M1094.56 160.778C1096.58 166.707 1098.08 185.971 1090.17 201.778" stroke="black" stroke-width="5" stroke-linecap="round"/>
<path d="M1099.17 206.747C1083.66 201.143 1054.13 194.285 1054.13 213.671V217.035C1054.13 219.306 1051.56 220.593 1049.78 219.202C1024.89 199.75 990.169 168.278 973.669 144.278C972.503 142.612 968.669 140.078 962.669 143.278C955.169 147.278 945.169 149.278 944.169 162.778C943.169 176.278 955.169 211.778 988.669 249.778C1015.47 280.178 1017.05 286.278 1021.67 299.778C1028 318.278 1041.27 366.978 1043.67 413.778" stroke="black" stroke-width="5" stroke-linecap="round"/>
<path d="M1030.36 56.7783C1015.3 68.7937 991.92 94.7289 1014.64 105.28C1015.97 105.898 1016.71 107.394 1016.33 108.82C1011.86 125.594 1012.57 160.232 1047.25 183.688C1047.76 184.037 1048.16 184.555 1048.35 185.151L1055.17 206.778" stroke="black" stroke-width="5" stroke-linecap="round"/>
<path d="M1046.07 144.778C1046.61 147.478 1045.2 153.058 1035.17 153.778" stroke="black" stroke-width="5" stroke-linecap="round"/>
<path d="M1019.17 83.2783C1019.17 88.391 1020.76 92.8872 1023.16 96.0278C1025.57 99.167 1028.61 100.778 1031.67 100.778C1034.73 100.778 1037.77 99.167 1040.17 96.0278C1042.58 92.8872 1044.17 88.391 1044.17 83.2783C1044.17 78.1656 1042.58 73.6695 1040.17 70.5289C1037.77 67.3897 1034.73 65.7783 1031.67 65.7783C1028.61 65.7783 1025.57 67.3897 1023.16 70.5289C1020.76 73.6695 1019.17 78.1656 1019.17 83.2783Z" stroke="black" stroke-width="5" stroke-linecap="round"/>
<path d="M1076.17 98.7783L1046.17 88.7783" stroke="black" stroke-width="5" stroke-linecap="round"/>
<path d="M1052.17 77.7783C1051.38 74.6678 1048.47 67.5112 1043.17 63.7783" stroke="black" stroke-width="5" stroke-linecap="round"/>
<path d="M1029.17 86.7783C1026.96 86.7783 1025.17 85.2113 1025.17 83.2783C1025.17 81.3453 1026.96 79.7783 1029.17 79.7783C1031.38 79.7783 1033.17 81.3453 1033.17 83.2783C1033.17 85.2113 1031.38 86.7783 1029.17 86.7783Z" fill="black"/>
<path d="M1099.17 205.778L1215.17 339.778" stroke="black" stroke-width="5" stroke-linecap="round"/>
<path d="M1215.17 340.198C1206.64 339.031 1184.48 339.597 1164.02 351.21C1138.44 365.725 1111.37 391.254 1044.17 413.778" stroke="black" stroke-width="5" stroke-linecap="round"/>
<path d="M1044.17 413.778L1066.17 428.778" stroke="black" stroke-width="5" stroke-linecap="round"/>
<path d="M1215.06 339.778C1216.76 344.929 1218.45 356.943 1204.17 371.778" stroke="black" stroke-width="5" stroke-linecap="round"/>
<path d="M1131.17 242.778C1149.48 258.153 1195.91 290.588 1235.14 297.333C1244.3 301.135 1260.06 311.814 1249.85 324.113C1239.65 336.414 1232.85 351.391 1230.73 357.342C1229.09 362.798 1225.02 370.405 1215.21 352.947" stroke="black" stroke-width="5" stroke-linecap="round"/>
<path d="M1247.17 328.778C1254.9 333.334 1272.91 342.039 1283.17 340.419C1293.43 338.8 1300.26 343.119 1302.4 345.481C1303.55 347.337 1304.28 351.15 1297.96 351.555C1291.65 351.96 1284.15 351.723 1281.2 351.555" stroke="black" stroke-width="5" stroke-linecap="round"/>
<path d="M1272.17 344.778C1275.72 348.655 1287.78 357.467 1307.64 361.697C1311.52 362.402 1316.76 366.455 1309.66 371.214C1303.58 374.915 1286.76 371.531 1278.25 366.455" stroke="black" stroke-width="5" stroke-linecap="round"/>
<path d="M1278.59 365.778C1284.76 368.978 1295.88 377.496 1290.94 385.98C1289.36 387.664 1282.68 387.798 1268.62 374.869L1258.17 365.778" stroke="black" stroke-width="5" stroke-linecap="round"/>
<path d="M1256.63 365.971L1267.61 375.144C1270.77 383.468 1275.6 403.683 1262.62 392.471C1253.14 382.788 1255.13 374.533 1251.14 372.086C1247.15 369.64 1238.16 360.196 1234.17 355.778" stroke="black" stroke-width="5" stroke-linecap="round"/>
<path d="M1257.16 349.778C1258.49 354.328 1259.55 364.898 1253.17 370.778" stroke="black" stroke-width="5" stroke-linecap="round"/>
<path d="M1136.17 685.778C1129.97 684.123 1117.46 675.751 1117.07 655.496C1116.68 635.241 1108.41 600.391 1104.33 585.497L1064.17 406.778" stroke="black" stroke-width="5" stroke-linecap="round"/>
<path d="M1048.67 116.778C1047.84 116.778 1047.17 116.107 1047.17 115.278C1047.17 114.45 1047.84 113.778 1048.67 113.778C1049.5 113.778 1050.17 114.45 1050.17 115.278C1050.17 116.107 1049.5 116.778 1048.67 116.778Z" fill="black"/>
<path d="M1042.17 123.778C1041.62 123.778 1041.17 123.107 1041.17 122.278C1041.17 121.45 1041.62 120.778 1042.17 120.778C1042.72 120.778 1043.17 121.45 1043.17 122.278C1043.17 123.107 1042.72 123.778 1042.17 123.778Z" fill="black"/>
<path d="M1056.67 126.778C1055.84 126.778 1055.17 126.107 1055.17 125.278C1055.17 124.45 1055.84 123.778 1056.67 123.778C1057.5 123.778 1058.17 124.45 1058.17 125.278C1058.17 126.107 1057.5 126.778 1056.67 126.778Z" fill="black"/>
<path d="M1203.02 102.94C1178.96 57.9923 1143.05 52.341 1128.09 55.1332C1097.04 7.32657 1054.16 -8.44443 1028.03 5.84846C1007.13 17.2822 1024.25 46.0977 1035.42 59.0766L1046.27 43.3056C1053.76 57.8938 1075.19 52.5051 1085.7 49.2194C1076.67 68.2761 1062.24 117.529 1092.6 162.083C1122.97 206.637 1161.12 207.424 1180.35 194.611C1198.09 181.962 1227.07 147.889 1203.02 102.94Z" fill="black"/>
<path d="M1033.17 249.778C1027.22 255.532 1016.43 271.289 1018.67 290.278" stroke="black" stroke-width="5" stroke-linecap="round"/>
<path d="M1217.17 691.778C1213.65 696.967 1201.92 706.759 1183.17 704.425" stroke="black" stroke-width="5" stroke-linecap="round"/>
<path d="M1187.38 343.778C1193.64 361.615 1222.95 398.28 1249.13 444.36C1266.59 473.262 1308.22 537.806 1335.1 564.76C1338.72 569.879 1342.12 581.506 1326.7 587.055C1314.84 592.01 1309.51 603.505 1307.93 615.793C1305.95 631.153 1280.75 642.548 1263.96 631.153C1250.57 622.069 1212.07 556.642 1182.98 519.671C1175.58 510.258 1168.78 502.689 1163.17 498.366" stroke="black" stroke-width="5" stroke-linecap="round"/>
<path d="M1184.27 518.778L1217.17 691.778C1200.44 687.316 1154.5 678.889 1126.17 678.889" stroke="black" stroke-width="5" stroke-linecap="round"/>
<path d="M1346.28 676.748C1372.98 624.313 1348.23 589.419 1334.85 580.778C1314.1 587.391 1313.53 609.433 1310.17 619.904L1317.94 641.449C1323.13 650.716 1320.1 668.843 1317.94 676.748C1308.96 713.371 1322.51 716.891 1329.16 707.084L1346.28 676.748Z" fill="black"/>
<path d="M1201.68 725.93C1210.97 718.659 1192.59 715.841 1173.94 714.778C1167.44 720.518 1124.28 722.477 1122.17 723.806C1142.03 730.182 1193.53 732.301 1201.68 725.93Z" fill="black"/>
<path d="M1111.25 722.817C1180.22 732.361 1194.54 704.827 1193.07 688.731C1181.21 683.732 1148.59 681.914 1133.21 680.778C1137.61 691.231 1132.12 689.867 1128.27 692.708C1123.33 696.117 1109.6 700.283 1101.91 700.661C1067.31 702.366 1094.41 720.355 1111.25 722.817Z" fill="black"/>
<path d="M58.5991 328.778L984.599 328.778" stroke="black" stroke-width="5" stroke-linecap="round"/>
<path d="M58.5991 566.778L984.599 566.778" stroke="black" stroke-width="5" stroke-linecap="round"/>
<path d="M57.0991 283.778V628.778" stroke="black" stroke-width="5" stroke-linecap="round"/>
<path d="M985.599 283.778V628.778" stroke="black" stroke-width="5" stroke-linecap="round"/>
</svg>
