<svg width="1670" height="1092" viewBox="0 0 1670 1092" fill="none" xmlns="http://www.w3.org/2000/svg">
<path fill-rule="evenodd" clip-rule="evenodd" d="M1555.13 706.742C1531.39 685.989 1455.1 615 1455.1 559.603C1455.1 493.996 1497.9 450.258 1562.1 450.258C1626.3 450.258 1669.1 504.93 1669.1 559.603C1669.1 605.99 1592.07 683.864 1568.73 706.4C1564.92 710.077 1559.11 710.222 1555.13 706.742ZM1597.77 545.023C1597.77 565.153 1581.8 581.472 1562.1 581.472C1542.4 581.472 1526.43 565.153 1526.43 545.023C1526.43 524.894 1542.4 508.575 1562.1 508.575C1581.8 508.575 1597.77 524.894 1597.77 545.023Z" fill="black"/>
<path d="M1395.79 791.339L1398.87 787.398L1395.79 791.339ZM1238.1 815.82L1235.79 820.256L1238.1 815.82ZM984.296 819.943C982.173 818.177 979.021 818.467 977.255 820.59C975.489 822.713 975.779 825.866 977.902 827.632L984.296 819.943ZM1565.88 778.092C1567.69 776.004 1567.46 772.846 1565.37 771.039C1563.28 769.232 1560.13 769.46 1558.32 771.548L1565.88 778.092ZM977.902 827.632C981.749 830.831 986.657 833.427 992.23 835.557L995.8 826.216C990.855 824.326 987.025 822.213 984.296 819.943L977.902 827.632ZM1007.2 839.958C1016.15 841.978 1026.35 843.412 1037.31 844.365L1038.17 834.402C1027.51 833.475 1017.79 832.096 1009.4 830.203L1007.2 839.958ZM1052.39 845.363C1062.04 845.819 1072.14 845.973 1082.42 845.877L1082.33 835.877C1072.21 835.972 1062.3 835.82 1052.86 835.374L1052.39 845.363ZM1097.43 845.567C1107.41 845.252 1117.46 844.729 1127.36 844.039L1126.66 834.063C1116.88 834.745 1106.96 835.262 1097.11 835.572L1097.43 845.567ZM1142.3 842.864C1152.61 841.96 1162.63 840.892 1172.09 839.709L1170.85 829.786C1161.52 830.953 1151.62 832.009 1141.42 832.902L1142.3 842.864ZM1186.96 837.688C1198.15 836.039 1208.21 834.244 1216.58 832.405L1214.43 822.638C1206.35 824.414 1196.53 826.17 1185.5 827.795L1186.96 837.688ZM1231.52 828.496C1233.87 827.734 1235.97 826.947 1237.73 826.13C1239.42 825.347 1241.11 824.397 1242.4 823.207C1243.59 822.109 1245.51 819.753 1244.78 816.504C1244.14 813.617 1241.79 812.101 1240.41 811.384L1235.79 820.256C1236.56 820.657 1235.39 820.329 1235.02 818.684C1234.57 816.677 1235.87 815.618 1235.61 815.858C1235.45 816.006 1234.86 816.436 1233.52 817.059C1232.25 817.649 1230.56 818.296 1228.44 818.982L1231.52 828.496ZM1240.41 811.384C1235.19 808.674 1230.99 806.08 1227.69 803.628L1221.73 811.66C1225.56 814.501 1230.23 817.366 1235.79 820.256L1240.41 811.384ZM1218.72 794.101C1217.98 792.532 1217.81 791.266 1217.93 790.217C1218.06 789.157 1218.51 787.989 1219.49 786.693C1221.55 783.971 1225.67 781.091 1232.07 778.458L1228.27 769.21C1221.21 772.114 1215.16 775.846 1211.52 780.649C1209.65 783.116 1208.36 785.939 1208 789.075C1207.64 792.224 1208.25 795.363 1209.68 798.386L1218.72 794.101ZM1246.2 774.05C1254.99 771.966 1265.25 770.501 1276.32 769.776L1275.66 759.798C1264.15 760.552 1253.32 762.084 1243.89 764.32L1246.2 774.05ZM1291.62 769.259C1301.65 769.228 1311.99 769.785 1322.22 770.99L1323.39 761.059C1312.75 759.804 1302 759.226 1291.59 759.259L1291.62 769.259ZM1337.35 773.278C1347.67 775.203 1357.59 777.842 1366.64 781.242L1370.16 771.881C1360.47 768.241 1349.97 765.46 1339.18 763.447L1337.35 773.278ZM1380.31 787.341C1384.86 789.747 1389.02 792.392 1392.72 795.28L1398.87 787.398C1394.65 784.1 1389.98 781.143 1384.99 778.502L1380.31 787.341ZM1392.72 795.28C1396.82 798.483 1401.45 801.137 1406.46 803.311L1410.44 794.138C1406.09 792.247 1402.21 790.004 1398.87 787.398L1392.72 795.28ZM1421.21 808.172C1430.62 810.448 1440.87 811.586 1451.41 811.815L1451.62 801.817C1441.64 801.601 1432.12 800.524 1423.56 798.452L1421.21 808.172ZM1466.48 811.552C1476.48 811.007 1486.56 809.754 1496.29 807.947L1494.46 798.115C1485.13 799.849 1475.48 801.047 1465.94 801.567L1466.48 811.552ZM1510.95 804.744C1521.35 802.121 1531.1 798.881 1539.57 795.218L1535.61 786.038C1527.7 789.457 1518.47 792.534 1508.5 795.048L1510.95 804.744ZM1553.28 788.232C1558.36 785.14 1562.71 781.75 1565.88 778.092L1558.32 771.548C1556.06 774.158 1552.63 776.92 1548.08 779.691L1553.28 788.232Z" fill="black"/>
<path d="M147.779 951.258C133.983 970.282 113.551 988.847 106.235 991.915L103.099 1007.26C139.941 995.751 150.131 971.97 147.779 951.258Z" fill="black"/>
<path d="M88.7141 888.441C94.5806 932.846 87.7447 982.516 82.6519 1005.8C82.3768 1007.06 83.3293 1008.26 84.6165 1008.26H102.602C103.489 1008.26 104.272 1007.67 104.51 1006.82C115.95 965.819 103.754 916.725 92.4262 887.324C91.5772 885.12 88.4047 886.1 88.7141 888.441Z" fill="black"/>
<path d="M108.963 955.944C129.826 959.752 157.645 948.959 173.099 926.449" stroke="black" stroke-width="5" stroke-linecap="round"/>
<path d="M12.7535 907.838C-0.614965 930.908 44.3553 982.056 90.1886 959.752" stroke="black" stroke-width="5" stroke-linecap="round"/>
<path d="M34.199 833.811C7.02399 837.654 -7.87766 874.917 12.7535 907.836C16.5086 913.828 32.8052 920.332 40.4441 920.332" stroke="black" stroke-width="5" stroke-linecap="round"/>
<path d="M173.099 879.491C173.099 850.902 165.468 820.484 119.789 806.894C71.6806 792.581 45.5378 814.205 34.199 833.811C28.81 843.13 30.8955 852.076 34.199 859.767" stroke="black" stroke-width="5" stroke-linecap="round"/>
<path d="M105.099 915.258C113.125 907.032 129.984 892.477 123.741 859.258" stroke="black" stroke-width="5" stroke-linecap="round"/>
<path d="M89.0991 931.258C82.8028 929.313 67.188 919.591 55.0991 896.258" stroke="black" stroke-width="5" stroke-linecap="round"/>
<path d="M212.599 827.777C212.599 825.99 214.419 824.78 216.066 825.471L243.066 836.795C243.995 837.184 244.599 838.093 244.599 839.1V902.445C244.599 904.269 242.708 905.479 241.052 904.715L214.052 892.259L213.005 894.529L214.052 892.259C213.166 891.851 212.599 890.964 212.599 889.989V827.777Z" stroke="black" stroke-width="5"/>
<path d="M282.599 865.777C282.599 863.99 284.419 862.78 286.066 863.471L313.066 874.795C313.995 875.184 314.599 876.093 314.599 877.1V940.445C314.599 942.269 312.708 943.479 311.052 942.715L284.052 930.259L283.005 932.529L284.052 930.259C283.166 929.851 282.599 928.964 282.599 927.989V865.777Z" stroke="black" stroke-width="5"/>
<path d="M212.599 713.777C212.599 711.99 214.419 710.78 216.066 711.471L243.066 722.795C243.995 723.184 244.599 724.093 244.599 725.1V788.445C244.599 790.269 242.708 791.479 241.052 790.715L214.052 778.259L213.005 780.529L214.052 778.259C213.166 777.851 212.599 776.964 212.599 775.989V713.777Z" stroke="black" stroke-width="5"/>
<path d="M282.599 750.777C282.599 748.99 284.419 747.78 286.066 748.471L313.066 759.795C313.995 760.184 314.599 761.093 314.599 762.1V825.445C314.599 827.269 312.708 828.479 311.052 827.715L284.052 815.259L283.005 817.529L284.052 815.259C283.166 814.851 282.599 813.964 282.599 812.989V750.777Z" stroke="black" stroke-width="5"/>
<path d="M244.099 970.835V1031.64C244.099 1032.81 244.782 1033.87 245.847 1034.36L271.847 1046.3C273.834 1047.22 276.099 1045.77 276.099 1043.58V982.149C276.099 980.955 275.391 979.874 274.296 979.398L248.296 968.084C246.315 967.222 244.099 968.674 244.099 970.835Z" fill="black"/>
<path d="M351.099 1084.26L174.775 997.497C173.749 996.993 173.099 995.949 173.099 994.806V636.258" stroke="black" stroke-width="5" stroke-linecap="round"/>
<path d="M346.747 1086.37V722.266L165.75 638.965C163.187 637.785 163.521 634.042 166.253 633.335L328.101 591.481C328.665 591.335 329.259 591.357 329.811 591.543L492.099 646.297V1015.77C492.099 1016.9 491.464 1017.94 490.455 1018.45L351.103 1089.05C349.108 1090.06 346.747 1088.61 346.747 1086.37Z" fill="black"/>
<path d="M598.099 994.19L490.88 965.258V1016.08L389.099 1069.26L598.099 994.19Z" fill="black"/>
<path d="M865.645 598.258L754.651 627.311C753.119 627.712 752.639 629.651 753.807 630.72L838.778 708.547C839.264 708.992 839.937 709.169 840.579 709.021L957.69 681.976C959.198 681.628 959.756 679.773 958.691 678.651L886.645 602.723" stroke="black" stroke-width="5" stroke-linecap="round"/>
<path d="M960.08 680.258L980.921 567.775C981.034 567.169 980.86 566.546 980.452 566.084L907.895 484.183C906.813 482.963 904.804 483.48 904.446 485.071L881.099 588.997" stroke="black" stroke-width="5" stroke-linecap="round"/>
<path d="M752.099 630.258L786.229 521.332C786.426 520.703 786.92 520.212 787.55 520.018L907.099 483.258" stroke="black" stroke-width="5" stroke-linecap="round"/>
<path d="M862.041 500.632L836.53 604.497C836.375 605.128 836.536 605.794 836.961 606.285L868.892 643.074C869.887 644.22 869.293 646.013 867.81 646.339L837.412 653.01C836.713 653.163 835.986 652.932 835.504 652.402L802.842 616.507C802.38 615.999 802.211 615.289 802.394 614.626L832.187 507.244C832.372 506.577 832.888 506.054 833.551 505.859L859.536 498.236C861.015 497.802 862.409 499.135 862.041 500.632Z" fill="black"/>
<path d="M830.099 554.258L842.099 355.258" stroke="black" stroke-width="5" stroke-linecap="round"/>
<path d="M830.099 554.258L786.099 374.258" stroke="black" stroke-width="5" stroke-linecap="round"/>
<path d="M827.099 554.258L730.099 430.258" stroke="black" stroke-width="5" stroke-linecap="round"/>
<path d="M828.099 554.258L658.099 446.258" stroke="black" stroke-width="5" stroke-linecap="round"/>
<path d="M671.099 412.258L770.099 504.258" stroke="black" stroke-width="5" stroke-linecap="round"/>
<path d="M805.099 364.258L819.099 479.258" stroke="black" stroke-width="5" stroke-linecap="round"/>
<path d="M797.099 493.258L754.099 385.258" stroke="black" stroke-width="5" stroke-linecap="round"/>
<path d="M585.354 247.837C480.077 216.389 442.951 278.904 439.136 314.408C436.609 430.325 563.801 443.165 623.629 431.92C624.35 431.785 625.061 432.054 625.528 432.619L640.025 450.175C641.074 451.446 643.123 450.974 643.511 449.372L646.849 435.58C646.959 435.122 647.228 434.718 647.608 434.439L655.377 428.73C656.788 427.693 656.279 425.472 654.557 425.152L636.418 421.787C634.679 421.464 634.097 419.094 635.342 417.839C641.911 411.216 649.999 397.751 647.02 379.078" stroke="black" stroke-width="5" stroke-linecap="round"/>
<path d="M708.509 422.412V411.947C708.509 410.639 707.282 409.624 705.975 409.575C678.604 408.548 541.561 326.713 597.306 214.199C633.527 141.091 721.218 174.148 742.823 206.571C779.623 255.241 750.303 377.819 722.768 402.966C721.93 403.731 721.828 405 722.561 405.867L731.924 416.937C733.096 418.323 731.949 420.587 730.137 420.67C723.553 420.969 716.057 422.836 711.204 424.357C709.882 424.771 708.509 423.797 708.509 422.412Z" stroke="black" stroke-width="5" stroke-linecap="round"/>
<path d="M761.751 344.197C764.936 346.038 770.874 348.461 775.237 349.147C776.667 349.372 777.828 350.843 777.408 352.229L773.321 365.695C772.806 367.392 774.591 368.87 776.162 368.048L784.238 363.824C784.894 363.48 785.686 363.528 786.297 363.947L791.689 367.648C793.131 368.639 795.06 367.43 794.798 365.7L792.595 351.184C792.434 350.122 793.112 349.131 794.161 348.9C827.025 341.693 895.947 303.565 889.702 206.9C887.771 177.026 850.871 123.378 771.936 137.616C757.295 140.257 724.83 155.16 712.099 179.568" stroke="black" stroke-width="5" stroke-linecap="round"/>
<path d="M835.099 330.959V343.775C835.099 345.048 836.274 345.998 837.519 345.73L842.942 344.567C843.606 344.424 844.297 344.628 844.777 345.109L849.5 349.838C850.76 351.099 852.915 350.207 852.915 348.425V332.801C852.915 331.76 853.688 330.898 854.724 330.79C886.447 327.479 952.114 303.018 975.084 229.02C998.499 153.585 947.935 127.081 919.726 123.258" stroke="black" stroke-width="5" stroke-linecap="round"/>
<path d="M879.448 178.258C904.251 159.205 955.731 95.474 903.615 35.9931C850.195 -24.9774 726.815 22.02 756.703 139.516" stroke="black" stroke-width="5" stroke-linecap="round"/>
<path d="M765.099 53.7812C722.221 44.602 638.503 55.4463 646.654 172.258" stroke="black" stroke-width="5" stroke-linecap="round"/>
<path d="M729.099 51.0151C706.213 18.7592 632.476 -26.6529 573.344 30.643C517.182 85.0622 566.357 164.973 608.315 194.258" stroke="black" stroke-width="5" stroke-linecap="round"/>
<path d="M548.099 103.584C497.379 98.4979 410.268 153.046 477.726 254.258" stroke="black" stroke-width="5" stroke-linecap="round"/>
</svg>
