<svg width="2024" height="945" viewBox="0 0 2024 945" fill="none" xmlns="http://www.w3.org/2000/svg">
<path d="M325.8 898.984C388.78 877.191 351.254 698.477 322.071 633.778C278.094 674.95 199.419 657.19 193.367 640.64C191.548 650.402 185.723 694.127 160.205 732.81C134.687 771.493 101.582 791.611 95.7321 808.405C81.4801 849.268 112.699 870.38 128.308 875.147C183.144 887.679 229.429 825.886 245.717 793.423C269.063 889.313 308.833 903.751 325.8 898.984Z" fill="black"/>
<path d="M337.988 888.778C337.521 895.908 340.737 919.823 359.295 906.715C363.872 902.116 374.691 894.573 381.289 901.196C387.887 907.819 374.869 920.053 367.543 925.342C359.982 931.322 341.425 941.485 327.678 934.31C313.932 927.136 314.152 908.325 315.994 899.816" stroke="black" stroke-width="5" stroke-linecap="round"/>
<path d="M113.099 864.856C108.313 867.123 98.7399 873.424 98.7399 880.495C104.21 888.201 112.962 907.148 104.21 921.291C95.4578 935.434 79.5942 903.16 72.7565 885.254C69.3376 875.055 68.9274 852.481 94.6372 843.778" stroke="black" stroke-width="5" stroke-linecap="round"/>
<path d="M317.099 929.778C314.179 935.342 302.703 943.531 280.099 931.781" stroke="black" stroke-width="5" stroke-linecap="round"/>
<path d="M302.099 919.778C295.587 925.946 278.164 936.093 256.099 927.417" stroke="black" stroke-width="5" stroke-linecap="round"/>
<path d="M271.099 915.778C262.858 925.138 239.921 940.247 214.099 925.807" stroke="black" stroke-width="5" stroke-linecap="round"/>
<path d="M235.099 910.778C233.055 919.233 205.394 937.269 111.099 941.778" stroke="black" stroke-width="5" stroke-linecap="round"/>
<path d="M241.494 568.778C204.099 557.988 174.676 523.921 164.639 508.237C153.428 491.375 162.425 453.677 288.099 437.778" stroke="black" stroke-width="5" stroke-linecap="round"/>
<path d="M242.099 568.778C244.333 565.668 250.205 560.045 257.099 559.778" stroke="black" stroke-width="5" stroke-linecap="round"/>
<path d="M257.099 559.778C256.888 550.956 249.393 528.205 221.099 507.778" stroke="black" stroke-width="5" stroke-linecap="round"/>
<path d="M255.099 502.778C258.034 498.225 267.517 482.014 280.099 479.778" stroke="black" stroke-width="5" stroke-linecap="round"/>
<path d="M282.258 572.778C288.746 572.48 302.293 571.586 304.59 570.392C307.461 568.902 308.099 568.902 308.099 565.919C308.099 562.937 282.258 568.007 282.258 558.464C284.599 556.277 288.384 551.366 284.811 549.219C281.238 547.072 273.751 553.295 270.455 556.675C267.053 560.054 259.417 565.383 256.099 559.657" stroke="black" stroke-width="5" stroke-linecap="round"/>
<path d="M242.099 568.778C244.94 577.023 255.167 591.82 273.347 585.058C291.528 578.296 292.286 574.726 290.391 573.787" stroke="black" stroke-width="5" stroke-linecap="round"/>
<path d="M368.099 559.778C372.393 558.633 381.779 553.307 384.969 541.159C388.159 529.011 383.844 528.952 381.288 530.44" stroke="black" stroke-width="5" stroke-linecap="round"/>
<path d="M351.099 551.778C352.512 544.675 357.49 530.971 366.099 532.977" stroke="black" stroke-width="5" stroke-linecap="round"/>
<path d="M354.702 540.14C348.977 535.36 345.471 546.324 344.433 552.404C337.962 554.416 335.513 563.933 335.099 568.441C350.076 570.001 360.719 565.915 367.46 561.062C371.586 558.091 374.25 554.832 375.55 552.404C378.765 543.704 383.453 525.549 376.483 522.531C369.513 519.512 367.563 526.304 367.46 530.077C368.206 538.631 363.829 548.106 361.548 551.775" stroke="black" stroke-width="5" stroke-linecap="round"/>
<path d="M206.513 576.778C193.727 594.15 177.063 641.46 206.513 651.495C248.335 663.908 334.803 666.344 346.099 576.778" stroke="black" stroke-width="5" stroke-linecap="round"/>
<path d="M341.099 445.778C346.473 442.497 386.901 445.66 394.761 395.206C408.218 395.362 415.535 384.426 405.268 379.746C394.322 374.146 395.143 363.865 397.126 357.808C400.279 349.864 400.47 341.523 399.79 339.778" stroke="black" stroke-width="5" stroke-linecap="round"/>
<path d="M383.126 377.117C384.645 377.135 385.898 375.302 385.925 373.024C385.951 370.745 384.742 368.884 383.223 368.866C381.704 368.848 380.451 370.681 380.424 372.96C380.397 375.238 381.607 377.099 383.126 377.117Z" fill="black"/>
<path d="M375.099 359.778C377.46 357.67 383.567 354.585 389.099 359.116" stroke="black" stroke-width="5" stroke-linecap="round"/>
<path d="M360.099 406.778C364.354 412.874 369.025 414.605 378.099 410.672" stroke="black" stroke-width="5" stroke-linecap="round"/>
<path d="M326.752 362.778C325.916 364.847 325.217 369.543 329.099 371.778" stroke="black" stroke-width="5" stroke-linecap="round"/>
<path d="M280.093 341.079C274.909 369.687 291.127 391.223 302.884 407.778C315.441 400.934 336.021 384.66 328.128 382.903C319.832 381.057 311.082 358.228 319.138 351.244C328.591 343.051 337.111 355.448 338.735 364.848L346.348 351.566C344.195 342.276 343.351 325.979 357.197 335.115C371.042 344.251 391.351 341.858 399.775 339.519C416.385 327.525 442.191 299.549 412.536 283.595C387.87 270.325 355.774 287.101 336.181 302.176C322.916 298.643 287.16 302.072 280.093 341.079Z" fill="black"/>
<path d="M303.099 405.778C309.349 413.101 312.453 419.182 312.067 431.778" stroke="black" stroke-width="5" stroke-linecap="round"/>
<path d="M296.488 448.02C294.345 440.572 293.089 426.369 305.21 429.129C320.361 432.58 351.244 447.505 348.981 455.778" stroke="black" stroke-width="5" stroke-linecap="round"/>
<path d="M330.099 556.778L294.099 558.778" stroke="black" stroke-width="5" stroke-linecap="round"/>
<path d="M208.099 562.721L11.3236 570.579C8.56684 570.689 6.24189 568.545 6.12837 565.789L3.30496 497.223C3.1913 494.462 5.33773 492.133 8.09808 492.021L162.004 485.778" stroke="black" stroke-width="5" stroke-linecap="round"/>
<path d="M389.424 552.778L523.258 548.516C525.956 548.43 528.099 546.218 528.099 543.518V480.009C528.099 477.159 525.72 474.886 522.873 475.015L270.099 486.439" stroke="black" stroke-width="5" stroke-linecap="round"/>
<path d="M25.0991 514.778L31.956 543.329C32.3199 544.844 34.1993 545.379 35.307 544.284L41.9462 537.718C42.705 536.968 43.9192 536.946 44.7052 537.667L52.2367 544.583C53.3335 545.59 55.1068 545.089 55.5134 543.656L61.0991 523.978" stroke="black" stroke-width="7" stroke-linecap="round"/>
<path d="M74.0991 513.778L80.956 542.329C81.3199 543.844 83.1993 544.379 84.307 543.284L90.9462 536.718C91.705 535.968 92.9192 535.946 93.7052 536.667L101.237 543.583C102.333 544.59 104.107 544.089 104.513 542.656L110.099 522.978" stroke="black" stroke-width="7" stroke-linecap="round"/>
<path d="M124.099 512.778L130.956 541.329C131.32 542.844 133.199 543.379 134.307 542.284L140.946 535.718C141.705 534.968 142.919 534.946 143.705 535.667L151.237 542.583C152.333 543.59 154.107 543.089 154.513 541.656L160.099 521.978" stroke="black" stroke-width="7" stroke-linecap="round"/>
<circle cx="173.099" cy="541.778" r="3" fill="black"/>
<path d="M460.099 819.778V805.778" stroke="black" stroke-width="5" stroke-linecap="round"/>
<path d="M478.099 813.778L470.099 819.778" stroke="black" stroke-width="5" stroke-linecap="round"/>
<path d="M450.099 821.778L444.099 810.778" stroke="black" stroke-width="5" stroke-linecap="round"/>
<path d="M680.099 675.778C622.664 675.778 576.099 629.214 576.099 571.778C576.099 514.341 622.664 467.778 680.099 467.778C737.534 467.778 784.099 514.341 784.099 571.778C784.099 629.214 737.534 675.778 680.099 675.778Z" stroke="black" stroke-width="10"/>
<path d="M589.099 479.854C607.205 461.673 630.271 449.292 655.382 444.276C680.497 439.26 706.527 441.835 730.18 451.674C753.837 461.513 774.054 478.175 788.283 499.554C802.507 520.932 810.099 546.068 810.099 571.778" stroke="black" stroke-width="15" stroke-linecap="round"/>
<path d="M680.099 605.778C660.769 605.778 645.099 590.333 645.099 571.278C645.099 552.224 660.769 536.778 680.099 536.778C699.43 536.778 715.099 552.224 715.099 571.278C715.099 590.333 699.43 605.778 680.099 605.778Z" stroke="black" stroke-width="10"/>
<path d="M680.099 660.778C630.948 660.778 591.099 620.93 591.099 571.778C591.099 522.625 630.948 482.778 680.099 482.778C729.25 482.778 769.099 522.625 769.099 571.778C769.099 620.93 729.25 660.778 680.099 660.778Z" stroke="black" stroke-width="5"/>
<path d="M680.599 554.778C671.488 554.778 664.099 562.167 664.099 571.278C664.099 580.389 671.488 587.778 680.599 587.778C689.71 587.778 697.099 580.389 697.099 571.278C697.099 562.167 689.71 554.778 680.599 554.778Z" fill="black"/>
<path d="M823.099 350.521C815.597 347.806 802.6 352.514 797.78 364.949C790.747 383.099 768.008 390.778 759.099 390.778" stroke="black" stroke-width="10" stroke-linecap="round"/>
<path d="M748.099 416.778C788.931 418.483 815.02 422.568 837.099 428.778" stroke="black" stroke-width="10" stroke-linecap="round"/>
<path d="M766.099 361.778L681.099 568.778" stroke="black" stroke-width="10" stroke-linecap="round"/>
<path d="M843.099 231.778V678.821C843.099 690.936 856.149 700.778 872.462 700.778H1857.74C1874.05 700.778 1887.1 690.936 1887.1 678.821V230.278" stroke="black" stroke-width="5" stroke-miterlimit="10" stroke-linecap="round"/>
<path d="M1213.27 2.03425L1171.13 161.188C1171.11 161.272 1171.1 161.358 1171.1 161.444V219.911C1171.1 220.347 1170.83 220.728 1170.41 220.859C1055.24 257.034 838.42 235.936 788.747 220.842C788.329 220.715 788.099 220.345 788.099 219.907V161.619C788.099 161.421 788.158 161.226 788.27 161.061L895.875 1.21987C896.061 0.943838 896.372 0.77832 896.705 0.77832H1212.3C1212.96 0.77832 1213.43 1.39982 1213.27 2.03425Z" fill="black"/>
<path d="M1854.37 1.34314L1932.5 162.978C1932.57 163.114 1932.6 163.262 1932.6 163.413V214.431C1932.6 214.656 1932.55 214.843 1932.41 215.015C1906.18 246.052 1569.27 242.923 1552.81 228.004C1552.62 227.839 1552.6 227.661 1552.6 227.414V163.184L1533.23 1.89753C1533.16 1.30226 1533.63 0.77832 1534.23 0.77832H1853.47C1853.86 0.77832 1854.21 0.997762 1854.37 1.34314Z" fill="black"/>
<path d="M1535.2 4.16785L1552.6 160.709V225.643C1552.6 226.031 1552.41 226.367 1552.06 226.529C1484.28 257.756 1213.62 265.128 1171.35 220.082C1171.18 219.9 1171.1 219.675 1171.1 219.425V160.835C1171.1 160.751 1171.11 160.668 1171.13 160.586L1211.41 4.02917C1211.52 3.58724 1211.92 3.27832 1212.37 3.27832H1534.2C1534.71 3.27832 1535.14 3.66143 1535.2 4.16785Z" stroke="black" stroke-width="5" stroke-linecap="round"/>
<rect x="1261.6" y="338.278" width="483" height="269" rx="7.5" stroke="black" stroke-width="5"/>
<rect x="1007.6" y="148.278" width="715" height="128" rx="7.5" fill="white" stroke="black" stroke-width="5" stroke-dasharray="30 30"/>
<path d="M780.099 717.974C766.48 711.613 733.335 699.301 709.686 700.924C706.332 701.058 701.269 702.467 707.838 707.013C714.407 711.56 717.692 713.914 718.513 714.523C721.933 717.365 725.288 723.373 711.328 724.672C693.879 726.295 644.61 708.637 547.099 721.627" stroke="black" stroke-width="5" stroke-linecap="round"/>
<path d="M2012.98 528.87C1993.83 534.182 1973.08 565.022 1965.1 579.778C1977.07 578.303 2004.2 570.482 2016.97 551.004C2029.74 531.526 2019.63 528.132 2012.98 528.87Z" fill="black"/>
<path d="M2004.12 478.914C1985.01 480.843 1971.26 528.022 1965.1 549.778C1978.79 538.589 2005.76 516.211 2012.33 508.752C2024.65 494.766 2022.6 477.049 2004.12 478.914Z" fill="black"/>
<path d="M1942.39 458.298C1929.6 478.421 1957.31 508.655 1970.1 528.778C1970.1 516.108 1970.1 489.601 1970.1 478.421C1970.1 460.534 1951.62 443.768 1942.39 458.298Z" fill="black"/>
<path d="M1967.1 558.778C1952.72 538.796 1922.01 504.159 1914.17 525.474C1904.37 552.117 1965.14 558.778 1967.1 558.778Z" fill="black"/>
<path d="M1967.1 588.778L1965.1 513.778" stroke="black" stroke-width="5" stroke-linecap="round"/>
<path d="M1947.22 645.368C1952.07 633.577 1959.3 603.319 1960.8 588.778H1981.18C1982.09 606.698 1991.37 632.399 1995.89 645.368C2009.48 676.02 1997.78 695.67 1989.1 700.778H1956.28C1934.77 693.705 1940.43 661.873 1947.22 645.368Z" stroke="black" stroke-width="5"/>
<path d="M1913.1 754.778V742.778" stroke="black" stroke-width="5" stroke-linecap="round"/>
<path d="M1926.1 749.778L1920.1 754.778" stroke="black" stroke-width="5" stroke-linecap="round"/>
<path d="M1905.1 755.778L1900.1 747.778" stroke="black" stroke-width="5" stroke-linecap="round"/>
<path d="M1584.1 819.778V807.778" stroke="black" stroke-width="5" stroke-linecap="round"/>
<path d="M1597.1 814.778L1591.1 819.778" stroke="black" stroke-width="5" stroke-linecap="round"/>
<path d="M1576.1 820.778L1571.1 812.778" stroke="black" stroke-width="5" stroke-linecap="round"/>
<path d="M1473.1 831.602C1444.87 818.35 1376.16 792.7 1327.14 796.083C1320.18 796.362 1309.69 799.296 1323.31 808.768C1336.92 818.24 1343.73 823.145 1345.43 824.414C1352.52 830.334 1359.48 842.85 1330.54 845.556C1294.37 848.939 1192.24 812.151 990.099 839.213" stroke="black" stroke-width="5" stroke-linecap="round"/>
<path d="M946.099 435.778C946.099 380.55 991.871 335.778 1047.1 335.778C1102.33 335.778 1148.1 380.55 1148.1 435.778V700.778H946.099V435.778Z" fill="black"/>
</svg>
