<svg width="722" height="508" viewBox="0 0 722 508" fill="none" xmlns="http://www.w3.org/2000/svg">
<path d="M224.755 151.554C228.907 104.729 208.641 80.0995 197.989 73.6385C232.447 93.0585 266.404 80.4365 279.076 71.6985L282.959 92.5055C306.567 94.8875 312.191 62.8845 312.052 46.5855C311.837 21.4383 284.018 -9.61244 228.678 2.83896C173.338 15.2905 142.967 61.0679 134.698 82.4005C95.0764 71.5065 52.5132 101.152 36.1844 117.337C19.3 134.137 -16.2473 184.926 8.71392 241.634C42.3906 318.143 131.971 299.144 146.592 291.618C197.114 265.616 219.566 210.085 224.755 151.554Z" fill="black"/>
<path d="M300.472 142.925C299.294 150.873 296.353 157.667 292.678 162.236C288.961 166.858 284.847 168.833 281.214 168.295C277.582 167.757 274.217 164.674 272 159.172C269.808 153.734 268.962 146.379 270.14 138.431C271.317 130.483 274.259 123.689 277.934 119.12C281.651 114.497 285.765 112.522 289.398 113.06C293.03 113.599 296.395 116.681 298.612 122.183C300.804 127.621 301.65 134.977 300.472 142.925Z" stroke="black" stroke-width="5"/>
<path d="M285.55 149.762C288.107 150.14 290.733 146.716 291.415 142.113C292.097 137.51 290.577 133.471 288.02 133.092C285.463 132.713 282.837 136.138 282.155 140.741C281.473 145.344 282.993 149.383 285.55 149.762Z" fill="black"/>
<path d="M224.895 147.633L268.174 143.708" stroke="black" stroke-width="5" stroke-linecap="round"/>
<path d="M287.722 93.3235C291.46 100.848 302.489 117.294 314.005 126.498C325.783 135.912 326.778 147.912 319.258 156.558L307.536 170.16C314.005 219.625 304.474 256.254 243.848 273.305" stroke="black" stroke-width="5" stroke-linecap="round"/>
<path d="M243.129 192.751C244.561 192.963 245.895 191.974 246.107 190.541C246.319 189.109 245.33 187.775 243.897 187.563C242.465 187.351 241.131 188.34 240.919 189.773C240.707 191.205 241.696 192.539 243.129 192.751Z" fill="black"/>
<path d="M233.733 216.806C235.452 217.061 237.018 216.106 237.23 214.673C237.442 213.24 236.22 211.872 234.501 211.617C232.782 211.362 231.216 212.318 231.004 213.751C230.792 215.183 232.014 216.551 233.733 216.806Z" fill="black"/>
<path d="M256.598 212.773C258.317 213.028 259.882 212.073 260.095 210.64C260.307 209.208 259.085 207.84 257.366 207.585C255.647 207.33 254.081 208.285 253.869 209.718C253.657 211.15 254.878 212.518 256.598 212.773Z" fill="black"/>
<path d="M313.802 311.258L335.742 287.892C339.712 283.472 350.035 278.672 359.563 294.839C369.092 311.005 365.623 328.098 362.698 334.624" stroke="black" stroke-width="5" stroke-linecap="round"/>
<path d="M397.896 220.029C389.813 229.183 407.373 241.645 412.339 248.915C419.412 246.881 438.316 250.545 434.527 262.623C441.474 254.783 466.098 235.288 470.519 229.567C479.851 217.49 467.193 207.955 458.518 198.419C452.735 192.062 444.627 179.35 429.471 192.062C418.104 201.597 405.979 210.875 397.896 220.029Z" stroke="black" stroke-width="5"/>
<path d="M429.666 272.807C431.861 269.75 433.028 267.062 433.441 265.199C435.548 261.395 436.807 252.617 424.592 249.35C405.63 244.278 408.791 256.324 412.583 256.957C425.224 258.479 430.503 269.426 429.666 272.807Z" stroke="black" stroke-width="5" stroke-linecap="round"/>
<path d="M365.812 321.623C367.708 315.283 377.315 300.575 400.575 292.46C416.241 286.994 425.14 279.113 429.667 272.806" stroke="black" stroke-width="5" stroke-linecap="round"/>
<path d="M399.311 274.074C393.622 270.904 379.338 267.227 367.708 277.878" stroke="black" stroke-width="5" stroke-linecap="round"/>
<path d="M417.641 274.075C412.163 264.354 398.047 247.701 385.406 258.859" stroke="black" stroke-width="5" stroke-linecap="round"/>
<path d="M353.802 277.879C358.858 262.814 369.603 243.16 404.998 240.624" stroke="black" stroke-width="5" stroke-linecap="round"/>
<path d="M146.801 301.624C73.3384 355.211 82.1288 422.037 82.1288 504.624" stroke="black" stroke-width="5" stroke-linecap="round"/>
<path d="M148.802 302.532L184.069 333.393C185.214 334.396 187.015 333.802 187.34 332.315L196.534 290.268C196.875 288.709 198.815 288.157 199.925 289.305L223.802 313.986" stroke="black" stroke-width="5" stroke-linecap="round"/>
<path d="M223.802 277.624C225.758 281.289 228.562 287.246 231.19 294.169C234.796 303.672 238.07 314.996 238.363 324.715" stroke="black" stroke-width="5" stroke-linecap="round"/>
<path d="M231.189 294.168L311.801 340.623" stroke="black" stroke-width="5" stroke-linecap="round"/>
<path d="M218.802 347.624C221.563 347.624 223.802 344.938 223.802 341.624C223.802 338.31 221.563 335.624 218.802 335.624C216.041 335.624 213.802 338.31 213.802 341.624C213.802 344.938 216.041 347.624 218.802 347.624Z" fill="black"/>
<path d="M225.802 376.624C228.563 376.624 230.802 373.938 230.802 370.624C230.802 367.31 228.563 364.624 225.802 364.624C223.041 364.624 220.802 367.31 220.802 370.624C220.802 373.938 223.041 376.624 225.802 376.624Z" fill="black"/>
<path d="M278.92 210.624C278.276 214.524 279.95 222.584 291.802 223.624" stroke="black" stroke-width="5" stroke-linecap="round"/>
<path d="M575.067 99.4998H608.067" stroke="black" stroke-width="7" stroke-linecap="round"/>
<path d="M619.067 99.4998H624.067" stroke="black" stroke-width="7" stroke-linecap="round"/>
<path d="M718.067 33.5H553.067V58.5H718.067V33.5Z" fill="black"/>
<path d="M429.672 226.591L427.887 228.376" stroke="black" stroke-width="5" stroke-linecap="round"/>
<path d="M443.884 213L442.099 214.785" stroke="black" stroke-width="5" stroke-linecap="round"/>
<path d="M443.92 218.914C443.503 217.662 442.626 216.006 441.437 214.826C440.004 213.404 438.118 212.675 436.035 214.183C433.288 216.172 435.311 219.895 436.166 222.462C437.349 226.01 435.111 228.206 432.618 227.85C431.497 227.69 430.506 227.226 429.672 226.591C428.452 225.662 427.567 224.367 427.099 223.119" stroke="black" stroke-width="5" stroke-linecap="round"/>
<path d="M494.417 135.72C505.877 136.834 527.656 146.416 523.096 175.826" stroke="black" stroke-width="5" stroke-linecap="round"/>
<path d="M490.928 146.404C499.701 147.377 516.332 154.542 512.668 175.416" stroke="black" stroke-width="5" stroke-linecap="round"/>
<path d="M489.099 157.315C494.552 157.834 504.766 161.958 501.998 174.296" stroke="black" stroke-width="5" stroke-linecap="round"/>
<path d="M711.067 19H560.067C555.925 19 552.567 22.3579 552.567 26.5V119.5C552.567 123.642 555.925 127 560.067 127H711.067C715.209 127 718.567 123.642 718.567 119.5V26.5C718.567 22.3579 715.209 19 711.067 19Z" stroke="black" stroke-width="5"/>
</svg>
