<svg width="1332" height="1123" viewBox="0 0 1332 1123" fill="none" xmlns="http://www.w3.org/2000/svg">
<path d="M1316.44 715.469C1288.71 722.969 1258.66 766.508 1247.1 787.34C1264.44 785.257 1303.73 774.216 1322.22 746.717C1340.72 719.219 1326.08 714.428 1316.44 715.469Z" fill="black"/>
<path d="M1303.14 643.535C1275.69 646.305 1255.95 714.084 1247.1 745.34C1266.76 729.265 1305.5 697.116 1314.94 686.4C1332.64 666.307 1329.69 640.856 1303.14 643.535Z" fill="black"/>
<path d="M1219.82 621.022C1205.38 645.381 1236.66 681.98 1251.1 706.34C1251.1 691.002 1251.1 658.914 1251.1 645.381C1251.1 623.729 1230.24 603.433 1219.82 621.022Z" fill="black"/>
<path d="M1251.1 758.34C1230.6 729.865 1186.81 680.508 1175.62 710.881C1161.65 748.848 1248.3 758.34 1251.1 758.34Z" fill="black"/>
<path d="M1251.1 800.34L1247.1 693.34" stroke="black" stroke-width="5" stroke-linecap="round"/>
<path d="M1221.83 883.182C1228.75 866.338 1239.05 823.112 1241.2 802.34H1270.26C1271.55 827.94 1284.79 864.656 1291.25 883.182C1310.62 926.971 1293.94 955.042 1281.56 962.34H1234.75C1204.07 952.235 1212.15 906.761 1221.83 883.182Z" stroke="black" stroke-width="5"/>
<path d="M141.619 732.467C114.211 739.863 84.5191 782.797 73.0991 803.34C90.229 801.286 129.057 790.398 147.329 763.282C165.601 736.165 151.135 731.44 141.619 732.467Z" fill="black"/>
<path d="M129.145 659.539C101.693 662.364 81.9484 731.471 73.0991 763.34C92.7642 746.95 131.504 714.171 140.944 703.245C158.642 682.758 155.692 656.807 129.145 659.539Z" fill="black"/>
<path d="M43.1346 638.022C27.4604 662.381 61.4237 698.98 77.0987 723.34C77.0987 708.002 77.0994 675.914 77.0991 662.381C77.0986 640.729 54.4525 620.433 43.1346 638.022Z" fill="black"/>
<path d="M77.0991 777.34C56.5996 748.865 12.8052 699.508 1.62362 729.881C-12.3533 767.848 74.3037 777.34 77.0991 777.34Z" fill="black"/>
<path d="M77.0991 816.34L73.0991 710.34" stroke="black" stroke-width="5" stroke-linecap="round"/>
<path d="M44.1332 901.182C51.2917 884.338 61.9466 841.112 64.1733 820.34H94.2341C95.5701 845.94 109.263 882.656 115.944 901.182C135.984 944.971 118.728 973.042 105.924 980.34H57.4933C25.763 970.235 34.1124 924.761 44.1332 901.182Z" stroke="black" stroke-width="5"/>
<path d="M158.099 838.34V985.023C158.099 985.549 158.507 985.985 159.031 986.021L281.479 994.335C281.527 994.338 281.575 994.338 281.623 994.334L330.099 990.614" stroke="black" stroke-width="5" stroke-linecap="round"/>
<path d="M158.099 838.619L280.977 823.478C281.573 823.405 282.099 823.87 282.099 824.471V992.34" stroke="black" stroke-width="5" stroke-linecap="round"/>
<path d="M306.737 824.34L461.166 834.755C461.691 834.79 462.099 835.226 462.099 835.753V896.34" stroke="black" stroke-width="5" stroke-linecap="round"/>
<path d="M159.494 986.34H114.099C113.547 986.34 113.099 986.788 113.099 987.34V1041C113.099 1041.49 113.461 1041.92 113.95 1041.99L247.95 1062.17C248.555 1062.26 249.099 1061.79 249.099 1061.18V1011.84" stroke="black" stroke-width="5" stroke-linecap="round"/>
<path d="M249.099 1062.34L358.099 1051.34" stroke="black" stroke-width="5" stroke-linecap="round"/>
<path d="M314.099 1060.34V945.34L362.099 1060.34H314.099Z" fill="black" fill-opacity="0.3"/>
<path d="M451.146 1003.46L377.582 854.346C376.912 852.988 377.935 851.407 379.449 851.462L412.739 852.678C413.469 852.705 414.127 853.128 414.454 853.781L488.444 1001.53C488.834 1002.31 488.675 1003.25 488.051 1003.86L473.101 1018.42C472.747 1018.77 472.278 1018.97 471.784 1018.99L442.322 1020.15C440.551 1020.22 439.571 1018.12 440.761 1016.81L450.835 1005.69C451.386 1005.08 451.509 1004.2 451.146 1003.46Z" fill="black"/>
<path d="M411.023 1048.02L404.197 1055.81C403.035 1057.13 404.032 1059.2 405.793 1059.12L432.805 1057.88C433.302 1057.85 433.773 1057.64 434.125 1057.29L440.677 1050.76C441.938 1049.5 441.047 1047.34 439.264 1047.34H412.527C411.951 1047.34 411.403 1047.59 411.023 1048.02Z" fill="black"/>
<path d="M202.099 849.101V834.843C202.099 833.837 202.846 832.988 203.843 832.859L228.843 829.631C230.039 829.477 231.099 830.408 231.099 831.615V846.276C231.099 847.294 230.335 848.15 229.324 848.264L204.324 851.089C203.138 851.222 202.099 850.295 202.099 849.101Z" fill="black"/>
<path d="M161.099 1035.58V1046.64C161.099 1047.63 161.826 1048.47 162.808 1048.61L185.808 1052C187.015 1052.18 188.099 1051.24 188.099 1050.02V1038.22C188.099 1037.2 187.337 1036.35 186.327 1036.23L163.327 1033.6C162.14 1033.46 161.099 1034.39 161.099 1035.58Z" fill="black"/>
<path d="M204.099 971.34V986.117C204.099 987.155 204.894 988.021 205.929 988.109L229.929 990.155C231.097 990.254 232.099 989.334 232.099 988.162V971.34C232.099 970.235 231.204 969.34 230.099 969.34H206.099C204.995 969.34 204.099 970.235 204.099 971.34Z" fill="black"/>
<path d="M161.099 1006.53V988.472C161.099 987.317 162.074 986.402 163.227 986.476L186.227 987.944C187.28 988.012 188.099 988.885 188.099 989.94V1009.1C188.099 1010.3 187.062 1011.22 185.877 1011.09L162.877 1008.52C161.865 1008.41 161.099 1007.55 161.099 1006.53Z" fill="black"/>
<path d="M362.536 1059.03L296.351 906.643C296.197 906.289 296.261 905.878 296.515 905.587L343.746 851.488C344.219 850.946 345.093 851.067 345.402 851.717L418.789 1006.27C418.974 1006.66 418.888 1007.12 418.576 1007.42L364.143 1059.35C363.64 1059.83 362.813 1059.66 362.536 1059.03Z" stroke="black" stroke-width="5" stroke-linecap="round"/>
<path d="M365.099 1060.34L462.975 1055.72C463.216 1055.71 463.444 1055.61 463.619 1055.44L517.166 1004.19C517.834 1003.55 517.35 1002.42 516.426 1002.47L436.237 1006.34" stroke="black" stroke-width="5" stroke-linecap="round"/>
<path d="M345.099 850.34L440.476 854.014C440.835 854.027 441.159 854.233 441.324 854.552L518.099 1002.34" stroke="black" stroke-width="5" stroke-linecap="round"/>
<path d="M554.099 696.595C556.074 699.607 563.607 704.271 577.939 698.836C592.272 693.4 598.018 684.907 599.099 681.34" stroke="black" stroke-width="5" stroke-linecap="round"/>
<path d="M541.713 689.34C540.356 692.011 540.366 697.13 551.257 696.237L554.485 695.887L560.099 695.28" stroke="black" stroke-width="5" stroke-linecap="round"/>
<path d="M540.771 680.34C537.769 680.781 532.343 683.098 534.659 688.84C535.357 690.572 537.206 691.546 539.643 692.005C545.285 693.069 554.084 691.38 559.099 689.973" stroke="black" stroke-width="5" stroke-linecap="round"/>
<path d="M597.099 665.989C592.841 662.084 583.952 654.222 575.967 653.662C573.942 653.569 569.602 652.795 568.445 650.445C566.999 647.507 560.345 650.724 564.829 656.6C569.313 662.475 574.81 660.517 571.628 665.553C569.082 669.581 553.691 671.428 546.314 671.848C543.71 671.894 538.879 673.163 540.383 677.863C540.756 679.027 541.81 679.837 543.278 680.381C547.74 682.033 556.027 681.223 560.634 680.381" stroke="black" stroke-width="5" stroke-linecap="round"/>
<path d="M577.154 537.31C571.726 504.403 578.876 480.041 594.092 468.702C592.294 513.349 622.369 534.935 634.243 542.399L624.066 551.898L602.259 564.11C601.467 559.474 602.528 547.069 601.58 541.381C600.902 537.31 593.438 540.024 577.154 537.31Z" fill="black"/>
<path d="M654.732 950.939C651.057 935.758 638.224 909.314 636.44 893.34L684.625 896.565C691.02 914.69 699.972 957.482 684.625 983.656C669.277 1009.83 630.195 1009 626.18 1002.55C623.95 997.479 620.022 985.867 636.44 983.656C656.963 980.891 658.749 967.528 654.732 950.939Z" fill="black"/>
<path d="M801.387 1001.64C759.203 996.133 733.283 928.117 726.099 893.721L762.689 885.34C767.825 922.396 785.186 951.188 791.3 959.443C807.348 979.164 843.571 1007.14 801.387 1001.64Z" fill="black"/>
<path d="M598.674 689.34C591.696 715.144 582.574 782.976 595.972 879.393C614.368 890.672 675.748 906.464 774.099 879.393C768.263 835.047 756.096 757.388 738.74 716.225" stroke="black" stroke-width="5" stroke-linecap="round"/>
<path d="M619.099 603.164C624.756 589.564 636.919 565.495 649.742 581.815C662.565 598.135 663.413 633.052 670.956 617.396L685.099 579.917" stroke="black" stroke-width="5" stroke-linecap="round"/>
<path d="M346.099 548.34V697.15C346.099 697.677 346.507 698.113 347.032 698.148L469.323 706.332C469.397 706.337 469.472 706.334 469.545 706.322L540.099 695.223" stroke="black" stroke-width="5" stroke-linecap="round"/>
<path d="M346.099 546.584L469.009 535.439C469.594 535.386 470.099 535.847 470.099 536.435V704.34" stroke="black" stroke-width="5" stroke-linecap="round"/>
<path d="M487.237 535.34L600.118 540.079C600.651 540.102 601.072 540.537 601.076 541.07L602.099 662.34" stroke="black" stroke-width="5" stroke-linecap="round"/>
<path d="M390.099 557.215V544.706C390.099 543.669 390.892 542.804 391.925 542.714L416.925 540.53C418.094 540.428 419.099 541.349 419.099 542.522V555.705C419.099 556.763 418.276 557.638 417.22 557.702L392.22 559.212C391.07 559.281 390.099 558.367 390.099 557.215Z" fill="black"/>
<path d="M393.099 683.34V698.111C393.099 699.152 393.898 700.019 394.935 700.105L419.935 702.162C421.1 702.258 422.099 701.338 422.099 700.169V683.34C422.099 682.235 421.204 681.34 420.099 681.34H395.099C393.995 681.34 393.099 682.235 393.099 683.34Z" fill="black"/>
<path d="M781.366 544.443C760.39 564.373 739.115 567.26 730.924 568.183C714.209 570.065 686.483 552.917 686.483 534.258C701.629 523.317 712.634 502.752 716.148 494.396C720.096 497.734 725.231 496.464 727.305 495.411C729.971 493.676 735.086 487.144 734.214 474.9C733.343 462.656 724.453 465.943 720.117 469.117L698.454 471.451C699.365 451.209 686.887 444.454 680.534 443.607C685.527 432.393 676.597 427.487 671.897 425.559C665.156 433.821 656.322 437.149 652.587 438.697C614.568 448.643 591.362 435.026 580.651 418.031C569.023 400.875 570.905 360.589 603.799 350.782C614.555 346.643 640.054 343.249 656.004 362.786C702.958 345.531 725.181 394.915 731.278 412.848L738.323 429.199C799.513 442.215 804.899 500.09 794.151 525.435C789.277 536.928 788.636 537.536 781.688 544.136L781.366 544.443Z" fill="black"/>
<path d="M642.752 557.603C632.236 558.281 603.613 570.556 600.901 610.587" stroke="black" stroke-width="5" stroke-linecap="round"/>
<path d="M669.213 557.602C716.368 549.8 729.69 587.689 734.901 605.159C744.427 635.302 734.901 700.148 602.753 680.695C595.134 679.574 591.403 669.334 606.328 659.522C621.937 649.261 638.557 642.815 658.576 638.744" stroke="black" stroke-width="5" stroke-linecap="round"/>
<path d="M599.896 688.733C612.697 701.149 656.191 719.586 727.755 694.008C729.272 690.763 730.062 669.942 727.755 663.232" stroke="black" stroke-width="5" stroke-linecap="round"/>
<path d="M697.63 471.641C695.246 485.217 683.585 494.029 672.033 492C660.482 489.97 652.522 477.712 654.907 464.136C657.292 450.561 668.952 441.749 680.504 443.778C692.056 445.808 700.015 458.066 697.63 471.641Z" stroke="black" stroke-width="5"/>
<path d="M638.453 469.747C636.068 483.323 624.407 492.134 612.856 490.105C601.304 488.076 593.345 475.817 595.729 462.242C598.114 448.666 609.775 439.854 621.327 441.884C632.878 443.913 640.838 456.171 638.453 469.747Z" stroke="black" stroke-width="5"/>
<path d="M639.661 464.654L654.343 465.562" stroke="black" stroke-width="5" stroke-linecap="round"/>
<path d="M647.875 478.96C643.572 490.011 634.773 499.234 644.501 506.232" stroke="black" stroke-width="5" stroke-linecap="round"/>
<path d="M634.301 520.822C637.247 524.078 645.465 528.637 654.768 520.822" stroke="black" stroke-width="5" stroke-linecap="round"/>
<circle cx="613.061" cy="475.854" r="6.1064" transform="rotate(9.96339 613.061 475.854)" fill="black"/>
<circle cx="670.054" cy="474.497" r="6.1064" transform="rotate(9.96339 670.054 474.497)" fill="black"/>
<path d="M725.587 477.496C726.334 479.517 727.058 484.178 723.977 486.659" stroke="black" stroke-width="5" stroke-linecap="round"/>
<path d="M600.879 437.307C592.116 454.03 584.235 494.888 619.228 530.128C654.221 565.369 691.734 532.318 706.116 511.387L716.288 493.81C720.513 497.543 729.778 500.902 733.042 484.473C736.306 468.044 729.865 465.811 726.237 466.748C724.271 467.189 719.961 469.14 718.455 473.41" stroke="black" stroke-width="5" stroke-linecap="round"/>
<path d="M698.421 470.836L722.456 468.446" stroke="black" stroke-width="5" stroke-linecap="round"/>
<path d="M676.806 459.291C680.6 459.832 688.156 462.871 688.025 470.702" stroke="black" stroke-width="5" stroke-linecap="round"/>
<path d="M604.508 462.352C607.404 461.079 614.483 459.562 619.638 463.674" stroke="black" stroke-width="5" stroke-linecap="round"/>
<path d="M675.099 557.34V541.34" stroke="black" stroke-width="5" stroke-linecap="round"/>
<path d="M640.099 544.34V558.34" stroke="black" stroke-width="5" stroke-linecap="round"/>
<path d="M612.099 842.34C628.986 852.232 670.744 865.659 736.099 850.55" stroke="black" stroke-width="5" stroke-linecap="round"/>
<path d="M624.816 715.34L639.994 876.34M610.099 799.989C630.642 804.83 681.202 811.608 719.099 799.989" stroke="black" stroke-width="5" stroke-linecap="round"/>
<path d="M610.099 757.34C626.055 760.358 666.993 764.584 703.099 757.34" stroke="black" stroke-width="5" stroke-linecap="round"/>
<path d="M725.099 820.34L736.099 876.34" stroke="black" stroke-width="5" stroke-linecap="round"/>
<path d="M671.099 744.34L693.099 876.34" stroke="black" stroke-width="5" stroke-linecap="round"/>
<path d="M527.099 700.34V895.119C527.099 901.869 532.584 907.34 539.348 907.34H1086.85C1093.62 907.34 1099.1 901.869 1099.1 895.119V77.5605C1099.1 70.811 1093.62 65.3398 1086.85 65.3398H539.348C532.584 65.3398 527.099 70.811 527.099 77.5605V532.84" stroke="black" stroke-width="10" stroke-linecap="round"/>
<path d="M804.051 270.505L1083.63 63.7539C1091.69 57.7943 1103.1 63.5499 1103.1 73.577V896.496C1103.1 900.414 1101.22 904.091 1098.05 906.389L818.471 1109C810.398 1114.85 799.099 1109.08 799.099 1099.1V280.328C799.099 276.453 800.938 272.808 804.051 270.505Z" fill="black"/>
<path d="M541.62 31.7346L536.55 3.33935" stroke="black" stroke-width="5" stroke-linecap="round"/>
<path d="M516.579 40.5217L483.33 9.5731" stroke="black" stroke-width="5" stroke-linecap="round"/>
<path d="M503.369 64.671L483.272 53.5654" stroke="black" stroke-width="5" stroke-linecap="round"/>
<path d="M224.099 173.34C225.792 177.937 232.276 187.373 244.667 188.332C260.157 189.531 262.189 193.369 261.596 209.92C261.004 226.471 262.781 234.267 279.033 229.949C295.284 225.632 318.561 203.324 314.667 226.471C314.131 229.869 312.128 238.801 308.404 247.34" stroke="black" stroke-width="5" stroke-linecap="round"/>
<path d="M490.099 1120.34V1106.34" stroke="black" stroke-width="5" stroke-linecap="round"/>
<path d="M477.099 1113.34L488.099 1120.34" stroke="black" stroke-width="5" stroke-linecap="round"/>
<path d="M497.099 1120.34L503.099 1111.34" stroke="black" stroke-width="5" stroke-linecap="round"/>
<path d="M1049.1 1119.34V1104.34" stroke="black" stroke-width="5" stroke-linecap="round"/>
<path d="M1037.1 1113.34L1044.1 1119.34" stroke="black" stroke-width="5" stroke-linecap="round"/>
<path d="M1056.1 1119.34L1060.1 1110.34" stroke="black" stroke-width="5" stroke-linecap="round"/>
</svg>
