<svg width="1217" height="1199" viewBox="0 0 1217 1199" fill="none" xmlns="http://www.w3.org/2000/svg">
<path d="M1201.44 715.469C1173.71 722.969 1143.66 766.508 1132.1 787.34C1149.44 785.257 1188.73 774.216 1207.22 746.717C1225.72 719.219 1211.08 714.428 1201.44 715.469Z" fill="black"/>
<path d="M1188.14 643.535C1160.69 646.305 1140.95 714.084 1132.1 745.34C1151.76 729.265 1190.5 697.116 1199.94 686.4C1217.64 666.307 1214.69 640.856 1188.14 643.535Z" fill="black"/>
<path d="M1104.82 621.022C1090.38 645.381 1121.66 681.98 1136.1 706.34C1136.1 691.002 1136.1 658.914 1136.1 645.381C1136.1 623.729 1115.24 603.433 1104.82 621.022Z" fill="black"/>
<path d="M1136.1 758.34C1115.6 729.865 1071.81 680.508 1060.62 710.881C1046.65 748.848 1133.3 758.34 1136.1 758.34Z" fill="black"/>
<path d="M1136.1 800.34L1132.1 693.34" stroke="black" stroke-width="5" stroke-linecap="round"/>
<path d="M1106.83 883.182C1113.75 866.338 1124.05 823.112 1126.2 802.34H1155.26C1156.55 827.94 1169.79 864.656 1176.25 883.182C1195.62 926.971 1178.94 955.042 1166.56 962.34H1119.75C1089.07 952.235 1097.15 906.761 1106.83 883.182Z" stroke="black" stroke-width="5"/>
<path d="M279.099 780.34V699.84" stroke="black" stroke-width="5" stroke-linecap="round"/>
<path d="M439.099 696.595C441.074 699.607 448.607 704.271 462.939 698.836C477.272 693.4 483.018 684.907 484.099 681.34" stroke="black" stroke-width="5" stroke-linecap="round"/>
<path d="M426.713 689.34C425.356 692.011 425.366 697.13 436.257 696.237L439.485 695.887L445.099 695.28" stroke="black" stroke-width="5" stroke-linecap="round"/>
<path d="M425.771 680.34C422.769 680.781 417.343 683.098 419.659 688.84C420.357 690.572 422.206 691.546 424.643 692.005C430.285 693.069 439.084 691.38 444.099 689.973" stroke="black" stroke-width="5" stroke-linecap="round"/>
<path d="M482.099 665.989C477.841 662.084 468.952 654.222 460.967 653.662C458.942 653.569 454.602 652.795 453.445 650.445C451.999 647.507 445.345 650.724 449.829 656.6C454.313 662.475 459.81 660.517 456.628 665.553C454.082 669.581 438.691 671.428 431.314 671.848C428.71 671.894 423.879 673.163 425.383 677.863C425.756 679.027 426.81 679.837 428.278 680.381C432.74 682.033 441.027 681.223 445.634 680.381" stroke="black" stroke-width="5" stroke-linecap="round"/>
<path d="M462.099 548.839C456.67 515.932 463.876 480.04 479.092 468.702C477.294 513.349 507.37 534.935 519.243 542.399L509.066 551.898L485.599 563.839C485.599 558.839 485.88 556.806 485.099 551.339C484.599 547.839 479.599 549.339 462.099 548.839Z" fill="black"/>
<path d="M539.732 950.939C536.057 935.758 523.224 909.314 521.44 893.34L569.625 896.565C576.02 914.69 584.972 957.482 569.625 983.656C554.277 1009.83 515.195 1009 511.18 1002.55C508.95 997.479 505.022 985.867 521.44 983.656C541.963 980.891 543.749 967.528 539.732 950.939Z" fill="black"/>
<path d="M686.387 1001.64C644.203 996.133 618.283 928.117 611.099 893.721L647.689 885.34C652.825 922.396 670.186 951.188 676.3 959.443C692.348 979.164 728.571 1007.14 686.387 1001.64Z" fill="black"/>
<path d="M483.674 689.34C476.696 715.144 467.574 782.976 480.972 879.393C499.368 890.672 560.748 906.464 659.099 879.393C653.263 835.047 641.096 757.388 623.74 716.225" stroke="black" stroke-width="5" stroke-linecap="round"/>
<path d="M504.099 603.164C509.756 589.564 521.919 565.495 534.742 581.815C547.565 598.135 548.413 633.052 555.956 617.396L570.099 579.917" stroke="black" stroke-width="5" stroke-linecap="round"/>
<path d="M666.366 544.443C645.39 564.373 624.115 567.26 615.924 568.183C599.209 570.065 571.483 552.917 571.483 534.258C586.629 523.317 597.634 502.752 601.148 494.396C605.096 497.734 610.231 496.464 612.305 495.411C614.971 493.676 620.086 487.144 619.214 474.9C618.343 462.656 609.453 465.943 605.117 469.117L583.454 471.451C584.365 451.209 571.887 444.454 565.534 443.607C570.527 432.393 561.597 427.487 556.897 425.559C550.156 433.821 541.322 437.149 537.587 438.697C499.568 448.643 476.362 435.026 465.651 418.031C454.023 400.875 455.905 360.589 488.799 350.782C499.555 346.643 525.054 343.249 541.004 362.786C587.958 345.531 610.181 394.915 616.278 412.848L623.323 429.199C684.513 442.215 689.899 500.09 679.151 525.435C674.277 536.928 673.636 537.536 666.688 544.136L666.366 544.443Z" fill="black"/>
<path d="M527.752 557.605C517.236 558.283 488.613 570.558 485.901 610.589" stroke="black" stroke-width="5" stroke-linecap="round"/>
<path d="M554.213 557.602C601.368 549.8 614.69 587.689 619.901 605.159C629.427 635.302 619.901 700.148 487.753 680.695C480.134 679.574 476.403 669.334 491.328 659.522C506.937 649.261 523.557 642.815 543.576 638.744" stroke="black" stroke-width="5" stroke-linecap="round"/>
<path d="M484.896 688.735C497.697 701.151 541.191 719.588 612.755 694.01C614.272 690.765 615.062 669.944 612.755 663.234" stroke="black" stroke-width="5" stroke-linecap="round"/>
<path d="M582.63 471.643C580.246 485.219 568.585 494.031 557.033 492.001C545.482 489.972 537.522 477.714 539.907 464.138C542.292 450.563 553.952 441.751 565.504 443.78C577.056 445.81 585.015 458.068 582.63 471.643Z" stroke="black" stroke-width="5"/>
<path d="M523.453 469.749C521.068 483.325 509.407 492.136 497.856 490.107C486.304 488.078 478.345 475.819 480.729 462.244C483.114 448.668 494.775 439.856 506.327 441.886C517.878 443.915 525.838 456.173 523.453 469.749Z" stroke="black" stroke-width="5"/>
<path d="M524.661 464.654L539.343 465.562" stroke="black" stroke-width="5" stroke-linecap="round"/>
<path d="M532.875 478.958C528.572 490.009 519.773 499.232 529.501 506.23" stroke="black" stroke-width="5" stroke-linecap="round"/>
<circle cx="498.061" cy="475.852" r="6.1064" transform="rotate(9.96339 498.061 475.852)" fill="black"/>
<circle cx="555.054" cy="474.497" r="6.1064" transform="rotate(9.96339 555.054 474.497)" fill="black"/>
<path d="M610.587 477.496C611.334 479.517 612.058 484.178 608.977 486.659" stroke="black" stroke-width="5" stroke-linecap="round"/>
<path d="M555.5 540.34C519.9 555.94 495 520.84 483 494.34C543 513.14 574 494.34 605 472.84C600.6 512.04 569.5 534.173 555.5 540.34Z" fill="black"/>
<path d="M485.879 437.307C477.116 454.03 469.235 494.888 504.228 530.128C539.221 565.369 576.734 532.318 591.116 511.387L601.288 493.81C605.513 497.543 614.778 500.902 618.042 484.473C621.306 468.044 614.865 465.811 611.237 466.748C609.271 467.189 604.961 469.14 603.455 473.41" stroke="black" stroke-width="5" stroke-linecap="round"/>
<path d="M583.421 470.836L607.456 468.446" stroke="black" stroke-width="5" stroke-linecap="round"/>
<path d="M561.806 459.291C565.6 459.832 573.156 462.871 573.025 470.702" stroke="black" stroke-width="5" stroke-linecap="round"/>
<path d="M489.508 462.352C492.404 461.079 499.483 459.562 504.638 463.674" stroke="black" stroke-width="5" stroke-linecap="round"/>
<path d="M560.099 557.34V541.34" stroke="black" stroke-width="5" stroke-linecap="round"/>
<path d="M525.099 544.34V558.34" stroke="black" stroke-width="5" stroke-linecap="round"/>
<path d="M497.099 842.34C513.986 852.232 555.744 865.659 621.099 850.55" stroke="black" stroke-width="5" stroke-linecap="round"/>
<path d="M509.816 715.34L524.994 876.34M495.099 799.989C515.642 804.83 566.202 811.608 604.099 799.989" stroke="black" stroke-width="5" stroke-linecap="round"/>
<path d="M495.099 757.34C511.055 760.358 551.993 764.584 588.099 757.34" stroke="black" stroke-width="5" stroke-linecap="round"/>
<path d="M610.099 820.34L621.099 876.34" stroke="black" stroke-width="5" stroke-linecap="round"/>
<path d="M556.099 744.34L578.099 876.34" stroke="black" stroke-width="5" stroke-linecap="round"/>
<path d="M412.099 700.34V895.119C412.099 901.869 417.584 907.34 424.348 907.34H971.851C978.616 907.34 984.099 901.869 984.099 895.119V77.5605C984.099 70.811 978.616 65.3398 971.851 65.3398H424.348C417.584 65.3398 412.099 70.811 412.099 77.5605V532.84" stroke="black" stroke-width="10" stroke-linecap="round"/>
<path d="M689.051 270.505L968.633 63.7539C976.692 57.7943 988.099 63.5499 988.099 73.577V896.496C988.099 900.414 986.223 904.091 983.053 906.389L703.471 1109C695.398 1114.85 684.099 1109.08 684.099 1099.1V280.328C684.099 276.453 685.938 272.808 689.051 270.505Z" fill="black"/>
<path d="M426.62 31.7366L421.55 3.3413" stroke="black" stroke-width="5" stroke-linecap="round"/>
<path d="M401.579 40.5217L368.33 9.5731" stroke="black" stroke-width="5" stroke-linecap="round"/>
<path d="M388.369 64.6691L368.272 53.5635" stroke="black" stroke-width="5" stroke-linecap="round"/>
<path d="M109.099 173.34C110.792 177.937 117.276 187.373 129.667 188.332C145.157 189.531 147.189 193.369 146.596 209.92C146.004 226.471 147.781 234.267 164.033 229.949C180.284 225.632 203.561 203.324 199.667 226.471C199.131 229.869 197.128 238.801 193.404 247.34" stroke="black" stroke-width="5" stroke-linecap="round"/>
<path d="M375.099 1120.34V1106.34" stroke="black" stroke-width="5" stroke-linecap="round"/>
<path d="M362.099 1113.34L373.099 1120.34" stroke="black" stroke-width="5" stroke-linecap="round"/>
<path d="M382.099 1120.34L388.099 1111.34" stroke="black" stroke-width="5" stroke-linecap="round"/>
<path d="M934.099 1119.34V1104.34" stroke="black" stroke-width="5" stroke-linecap="round"/>
<path d="M922.099 1113.34L929.099 1119.34" stroke="black" stroke-width="5" stroke-linecap="round"/>
<path d="M941.099 1119.34L945.099 1110.34" stroke="black" stroke-width="5" stroke-linecap="round"/>
<path d="M161.099 1187.19C179.1 1178.71 222.916 1162.29 254.178 1164.46C258.61 1164.64 265.303 1166.52 256.62 1172.58C247.936 1178.64 243.594 1181.78 242.509 1182.59C237.986 1186.38 233.553 1194.39 252.007 1196.12C275.073 1198.28 340.201 1174.74 469.099 1192.06" stroke="black" stroke-width="5" stroke-linecap="round"/>
<path d="M17.0991 1026.26V1010.26" stroke="black" stroke-width="5" stroke-linecap="round"/>
<path d="M3.09912 1019.26L11.0991 1026.26" stroke="black" stroke-width="5" stroke-linecap="round"/>
<path d="M23.0991 1026.26L29.0991 1016.26" stroke="black" stroke-width="5" stroke-linecap="round"/>
<path d="M342.099 1119.26V1096.26" stroke="black" stroke-width="5" stroke-linecap="round"/>
<path d="M321.099 1109.26L334.099 1119.26" stroke="black" stroke-width="5" stroke-linecap="round"/>
<path d="M350.099 1119.26L360.099 1104.26" stroke="black" stroke-width="5" stroke-linecap="round"/>
<path d="M483.355 551.262L483.355 665.34M337.099 668.911L393.294 672.262L432.099 670.83" stroke="black" stroke-width="5" stroke-linecap="round"/>
<path d="M483.099 551.262H392.099C391.547 551.262 391.099 551.709 391.099 552.262V600.262" stroke="black" stroke-width="5" stroke-linecap="round"/>
<path d="M377.099 551.262H302.099C301.547 551.262 301.099 551.709 301.099 552.262V618.262" stroke="black" stroke-width="5" stroke-linecap="round"/>
<path d="M451.099 567.132V558.088C451.099 557.054 450.31 556.19 449.28 556.096L431.28 554.46C430.109 554.354 429.099 555.276 429.099 556.452V566.001C429.099 567.056 429.92 567.93 430.974 567.997L448.974 569.128C450.125 569.201 451.099 568.286 451.099 567.132Z" fill="black"/>
<path d="M448.099 658.262V668.609C448.099 669.647 447.305 670.512 446.272 670.602L429.272 672.074C428.103 672.175 427.099 671.254 427.099 670.081V658.262C427.099 657.157 427.995 656.262 429.099 656.262H446.099C447.204 656.262 448.099 657.157 448.099 658.262Z" fill="black"/>
<path d="M393.099 672.262V648.262" stroke="black" stroke-width="5" stroke-linecap="round"/>
<path d="M285.099 617.262C285.099 584.35 276.279 568.306 264.099 552.262" stroke="black" stroke-width="5" stroke-linecap="round"/>
<path d="M145.911 748.262C138.867 662.217 143.932 603.988 174.046 557.27C183.138 543.163 203.449 530.419 217.099 535.338" stroke="black" stroke-width="5" stroke-linecap="round"/>
<path d="M263.967 527.287C270.694 522.116 320.856 521.929 324.302 452.824C342.321 451.165 345.709 440.255 336.188 430.525C322.963 417.011 324.773 409.359 326.577 400.917C329.681 389.771 328.767 378.501 327.615 376.244" stroke="black" stroke-width="5" stroke-linecap="round"/>
<path d="M305.838 431.755C307.795 432.314 310.092 430.281 310.968 427.214C311.844 424.147 310.967 421.206 309.011 420.647C307.053 420.089 304.756 422.122 303.88 425.19C303.004 428.257 303.88 431.197 305.838 431.755Z" fill="black"/>
<path d="M292.426 420.714C292.064 416.309 293.813 407.357 303.701 406.776" stroke="black" stroke-width="5" stroke-linecap="round"/>
<path d="M232.601 417.128C231.614 420.069 231.205 426.553 237.464 428.97" stroke="black" stroke-width="5" stroke-linecap="round"/>
<path d="M166.263 394.877C163.242 433.914 188.146 460.475 206.332 480.994C222.343 470.066 247.88 445.385 236.974 444.141C225.509 442.833 210.512 413.491 220.425 403.009C232.054 390.711 245.289 406.115 248.79 418.475L257.227 399.621C253.026 387.483 249.619 365.779 269.594 376.069C289.568 386.36 316.672 380.304 327.726 375.991C348.496 357.599 379.465 316.514 337.184 299.313C302.017 285.006 260.992 311.975 236.622 334.91C218.209 332.041 170.383 341.653 166.263 394.877Z" fill="black"/>
<path d="M207.31 478.301C216.423 487.211 221.289 494.89 222.53 511.716" stroke="black" stroke-width="5" stroke-linecap="round"/>
<path d="M242.822 577.262C250.443 635.635 269.469 640.883 278.029 636.211C295.149 628.379 332.868 615.518 346.785 626.73C360.702 637.943 344.024 653.113 333.945 659.297C300.533 683.069 227.994 722.04 205.131 687.741C182.267 653.443 180.693 610.241 182.764 592.927" stroke="black" stroke-width="5" stroke-linecap="round"/>
<path d="M218.372 535.525C214.332 528.802 209.387 515.239 221.919 514.774C237.583 514.194 273.082 528.102 273.046 536.784" stroke="black" stroke-width="5" stroke-linecap="round"/>
<path d="M392.774 634.262C394.136 638.482 391.951 648.249 371.925 650.616C364.349 651.512 363.211 651.386 356.099 650.782" stroke="black" stroke-width="5" stroke-linecap="round"/>
<path d="M395.795 622.262C399.155 623.215 402.177 626.907 392.997 634.615C390.989 636.301 388.398 638.178 385.099 640.262" stroke="black" stroke-width="5" stroke-linecap="round"/>
<path d="M393.922 613.262C397.312 613.222 400.593 615.214 395.362 622.18C393.098 625.196 389.238 629.143 383.099 634.262" stroke="black" stroke-width="5" stroke-linecap="round"/>
<path d="M351.099 618.799C367.067 602.016 373.886 601.169 370.68 614.919C367.474 628.668 379.37 616.853 385.551 610.055C388.034 607.23 393.564 602.685 395.811 607.112C396.585 608.636 395.733 610.841 394.037 613.263C390.804 617.879 384.505 623.285 380.555 626.262" stroke="black" stroke-width="5" stroke-linecap="round"/>
<path d="M263.218 962.063C288.585 867.283 289.326 831.277 285.226 752.286C239.449 783.271 166.528 758.428 143.492 747.262C130.245 826.334 138.797 976.997 158.018 1069.25C165.413 1081.32 181.347 1075.11 188.389 1070.51L197.193 1006.45L207.317 1062.55C212.951 1071.93 229.619 1070.09 237.248 1068L263.218 962.063Z" fill="black"/>
<path d="M143.302 1091.72C141.219 1085.46 155.7 1089.11 162.271 1091.72C162.271 1097.38 176.156 1101.77 183.099 1103.26C156.32 1101.4 144.418 1095.07 143.302 1091.72Z" fill="black"/>
<path d="M202.416 1086.5C197.995 1082.4 205.731 1081.86 210.521 1082.47C211.994 1094.2 213.099 1090.9 220.099 1094.93C218.994 1096.76 206.837 1090.61 202.416 1086.5Z" fill="black"/>
<path d="M237.836 1075.56C240.162 1078.6 247.432 1084.68 254.412 1084.68C260.385 1084.68 262.7 1091.62 256.157 1095.08C245.251 1099.43 220.125 1097.43 212.099 1087.71V1074.26" stroke="black" stroke-width="5" stroke-linecap="round"/>
<path d="M186.554 1079.26C188.619 1081.04 193.9 1084.75 198.502 1085.46C204.255 1086.34 212.268 1092.99 207.796 1100.94C203.813 1108.01 194.962 1106.54 189.651 1104.92L168.852 1097.4C166.639 1096.51 163.099 1095.19 163.099 1089.88C163.099 1084.57 163.099 1082.36 163.099 1081.92" stroke="black" stroke-width="5" stroke-linecap="round"/>
<path d="M343.917 439.191C321.479 443.108 296.298 451.388 246.439 413.143C244.868 418.905 240.424 433.747 235.22 447.021C228.715 463.614 272.79 527.609 303.039 513.73C327.758 502.388 344.149 485.409 343.917 439.191Z" fill="black"/>
</svg>
