<svg width="1315" height="1113" viewBox="0 0 1315 1113" fill="none" xmlns="http://www.w3.org/2000/svg">
<path d="M68.3206 782.113L84.26 847.951C84.692 849.735 86.964 850.72 89.3653 850.139L234.407 815.024C236.809 814.442 238.379 812.528 237.947 810.743L221.954 744.685" stroke="black" stroke-width="5" stroke-miterlimit="10" stroke-linecap="round"/>
<path d="M114.553 736.242L114.048 759.89C114.046 759.976 114.055 760.062 114.076 760.146L115.981 768.018C116.084 768.441 115.908 768.879 115.531 769.098C100.107 778.061 69.3517 782.567 60.6431 782.375C60.2057 782.366 59.8427 782.055 59.7398 781.63L57.8762 773.933C57.8294 773.739 57.8414 773.536 57.9106 773.35L67.7839 746.727C67.8995 746.415 68.1628 746.181 68.4862 746.103L113.318 735.249C113.956 735.095 114.567 735.586 114.553 736.242Z" fill="black"/>
<path d="M209.411 712.564L226.214 732.928C226.31 733.045 226.379 733.182 226.414 733.329L228.111 740.336C228.164 740.556 228.158 740.773 228.026 740.956C224.1 746.388 178.079 757.169 172.965 756.277C172.721 756.234 172.571 756.022 172.513 755.781L170.309 746.676L162.058 724.602C161.848 724.04 162.177 723.421 162.76 723.28L208.404 712.229C208.776 712.139 209.167 712.269 209.411 712.564Z" fill="black"/>
<path d="M164.13 726.287L171.53 745.515L173.458 753.479C173.554 753.877 173.417 754.283 173.074 754.505C162.909 761.087 123.427 771.574 114.855 767.741C114.601 767.628 114.444 767.401 114.379 767.131L112.634 759.926C112.611 759.83 112.602 759.732 112.608 759.634L113.802 738.307C113.827 737.867 114.137 737.494 114.565 737.391L162.961 725.674C163.45 725.556 163.95 725.818 164.13 726.287Z" stroke="black" stroke-width="5" stroke-linecap="round"/>
<rect x="136.381" y="784.589" width="69.0363" height="36.4359" rx="7.5" transform="rotate(-13.6095 136.381 784.589)" stroke="black" stroke-width="5"/>
<path d="M90.7889 808.886C88.7894 800.627 93.8636 792.311 102.123 790.311C110.382 788.312 118.698 793.386 120.697 801.645L130.053 840.289L100.145 847.53L90.7889 808.886Z" fill="black"/>
<path d="M854.565 232.726C828.795 196.018 833.799 165.995 839.523 155.572C820.301 188.064 786.209 193.843 771.565 192.671L778.28 211.716C759.9 224.952 739.984 201.194 732.324 187.66C720.506 166.78 728.691 127.846 780.379 111.721C832.067 95.5965 879.012 118.925 896.024 132.604C923.582 104.692 972.911 108.872 994.13 114.452C1016.1 120.274 1069.72 145.273 1076.13 204.041C1084.79 283.331 1001.67 310.388 985.997 311.148C931.827 313.777 886.776 278.611 854.565 232.726Z" fill="black"/>
<path d="M787.856 261.734C792.621 267.739 798.293 271.949 803.511 273.97C808.788 276.015 813.132 275.683 815.878 273.505C818.624 271.327 819.935 267.173 819.143 261.569C818.361 256.03 815.552 249.549 810.787 243.544C806.022 237.539 800.349 233.329 795.131 231.308C789.853 229.262 785.51 229.594 782.763 231.773C780.018 233.952 778.707 238.104 779.498 243.708C780.28 249.248 783.09 255.729 787.856 261.734Z" stroke="black" stroke-width="5"/>
<path d="M803.453 260.261C801.519 261.794 797.715 260.218 794.956 256.74C792.196 253.263 791.526 249.2 793.459 247.666C795.392 246.133 799.196 247.709 801.956 251.187C804.716 254.665 805.386 258.728 803.453 260.261Z" fill="black"/>
<path d="M852.58 229.553L814.93 246.966" stroke="black" stroke-width="5" stroke-linecap="round"/>
<path d="M774.734 214.665C775.233 222.667 773.961 241.519 768.832 254.62C763.586 268.02 768.488 278.41 778.829 281.965L795.008 287.609C813.257 331.567 838.609 357.283 896.862 342.435" stroke="black" stroke-width="5" stroke-linecap="round"/>
<path d="M859.027 275.534C857.944 276.393 856.37 276.212 855.511 275.129C854.653 274.047 854.834 272.473 855.917 271.614C857 270.755 858.575 270.936 859.433 272.019C860.292 273.101 860.111 274.675 859.027 275.534Z" fill="black"/>
<path d="M878.271 290.925C876.972 291.956 875.221 291.914 874.363 290.831C873.504 289.748 873.862 288.036 875.161 287.005C876.461 285.973 878.211 286.015 879.07 287.098C879.928 288.18 879.57 289.893 878.271 290.925Z" fill="black"/>
<path d="M857.445 298.506C856.145 299.537 854.396 299.495 853.536 298.412C852.678 297.33 853.036 295.617 854.335 294.586C855.634 293.554 857.385 293.596 858.243 294.679C859.102 295.761 858.745 297.474 857.445 298.506Z" fill="black"/>
<path d="M1011.56 313.218L996.575 355.356C996.089 356.725 994.312 357.071 993.349 355.984L966.091 325.271C965.08 324.132 963.207 324.577 962.818 326.05L954.436 357.732" stroke="black" stroke-width="5" stroke-linecap="round"/>
<path d="M937.486 327.462C937.565 331.425 938.007 337.692 939.045 344.68C940.472 354.273 943.023 365.227 947.31 373.454" stroke="black" stroke-width="5" stroke-linecap="round"/>
<path d="M974.282 383.4C971.982 384.688 968.865 383.496 967.32 380.738C965.775 377.979 966.388 374.699 968.688 373.411C970.987 372.123 974.104 373.315 975.649 376.074C977.194 378.833 976.581 382.113 974.282 383.4Z" fill="black"/>
<path d="M981.969 410.807C979.669 412.094 976.552 410.903 975.008 408.144C973.463 405.385 974.076 402.105 976.375 400.817C978.675 399.53 981.792 400.721 983.336 403.48C984.881 406.239 984.269 409.519 981.969 410.807Z" fill="black"/>
<path d="M837.968 307.383C840.361 310.298 842.822 317.756 833.52 324.272" stroke="black" stroke-width="5" stroke-linecap="round"/>
<path d="M1019.6 305.278C1040.1 312.778 1086.6 342.078 1108.6 399.278C1136.1 470.778 1192.6 471.278 1199.1 543.778" stroke="black" stroke-width="5" stroke-linecap="round"/>
<path d="M871.099 517.778C859.933 525.945 841.399 543.678 856.599 549.278" stroke="black" stroke-width="5" stroke-linecap="round"/>
<path d="M865.599 541.278C863.099 542.278 852.099 554.778 862.599 556.278C864.599 556.564 870.899 553.878 874.099 548.278" stroke="black" stroke-width="5" stroke-linecap="round"/>
<path d="M864.099 556.278C866.932 559.778 875.399 564.678 886.599 556.278" stroke="black" stroke-width="5" stroke-linecap="round"/>
<path d="M876.599 560.778C878.766 564.445 886.699 570.278 901.099 564.278C919.099 556.778 933.599 543.778 935.599 542.278" stroke="black" stroke-width="5" stroke-linecap="round"/>
<path d="M871.596 517.278C861.763 516.278 841.896 511.978 841.096 502.778C840.096 491.278 899.099 502.778 909.097 496.278" stroke="black" stroke-width="5" stroke-linecap="round"/>
<path d="M755.099 505.778C748.599 505.778 743.298 513.513 748.599 519.778C754.099 526.278 750.599 533.778 748.599 533.778C746.6 533.778 740.599 534.278 734.599 521.778" stroke="black" stroke-width="5" stroke-linecap="round"/>
<path d="M749.099 533.278C748.432 536.778 745.199 542.978 737.599 539.778C729.999 536.578 725.766 528.778 724.599 525.278" stroke="black" stroke-width="5" stroke-linecap="round"/>
<path d="M776.099 494.278C775.099 494.612 768.099 493.778 748.099 487.778C723.099 480.278 713.099 503.778 710.099 511.778C707.099 519.778 706.099 531.778 718.599 540.278C722.266 542.445 730.899 545.278 736.099 539.278" stroke="black" stroke-width="5" stroke-linecap="round"/>
<path d="M753.099 515.26C770.147 507.907 813.013 498.017 856.099 521.278" stroke="black" stroke-width="5" stroke-linecap="round"/>
<path d="M917.099 566.778C928.432 584.445 934.599 609.778 924.599 642.278" stroke="black" stroke-width="5" stroke-linecap="round"/>
<path d="M708.593 536.778C704.092 540.778 672.099 583.278 708.594 638.778" stroke="black" stroke-width="5" stroke-linecap="round"/>
<ellipse cx="771.909" cy="601.957" rx="10.2752" ry="22.5264" transform="rotate(40.8598 771.909 601.957)" fill="black"/>
<path d="M769.356 634.181C757.728 647.623 745.453 658.145 735.074 664.316C729.872 667.409 725.271 669.334 721.549 670.054C717.792 670.781 715.373 670.211 713.941 668.972C712.509 667.734 711.596 665.422 711.774 661.599C711.951 657.812 713.194 652.982 715.505 647.389C720.117 636.229 728.761 622.567 740.389 609.124C752.017 595.682 764.292 585.161 774.671 578.989C779.873 575.896 784.473 573.971 788.195 573.251C791.953 572.524 794.372 573.094 795.804 574.333C797.235 575.571 798.149 577.883 797.971 581.706C797.794 585.493 796.551 590.323 794.24 595.916C789.627 607.076 780.984 620.738 769.356 634.181Z" stroke="black" stroke-width="5"/>
<path d="M712.974 668.54L814.328 770.59C815.501 771.772 817.171 772.303 818.797 771.943C852.65 764.441 916.763 731.985 924.685 656.214C924.881 654.34 923.963 652.505 922.358 651.517L797.22 574.48" stroke="black" stroke-width="5" stroke-linecap="round"/>
<path d="M621.974 741.48L603.974 727.48" stroke="black" stroke-width="5" stroke-linecap="round"/>
<path d="M618.974 750.48L584.974 769.48" stroke="black" stroke-width="5" stroke-linecap="round"/>
<path d="M758.109 714.48L626.602 738.812C625.013 739.106 623.665 740.149 622.981 741.613L620.661 746.582C619.028 750.081 621.808 754.032 625.653 753.676L780.974 739.28" stroke="black" stroke-width="5" stroke-linecap="round"/>
<ellipse cx="591.603" cy="750.299" rx="7.88353" ry="27.8846" transform="rotate(29.2522 591.603 750.299)" fill="black"/>
<path d="M997.786 379.542C1004.94 397.524 1007.37 475.272 942.603 489.878L924.199 493.402" stroke="black" stroke-width="5" stroke-linecap="round"/>
<path d="M1110.4 486.622C1099.22 497.286 1028.78 537.047 987.223 535.55" stroke="black" stroke-width="5" stroke-linecap="round"/>
<path d="M950.308 506.082C963.22 520.141 975.642 529.56 987.225 535.55C974.566 541.105 963.71 547.18 942.768 534.164C927.955 524.957 921.893 506.23 923.875 493.926" stroke="black" stroke-width="5" stroke-linecap="round"/>
<path d="M794.099 505.778C789.099 497.278 781.699 479.478 792.099 476.278C805.099 472.278 917.099 434.278 935.099 365.278" stroke="black" stroke-width="5" stroke-linecap="round"/>
<path d="M897.599 473.278C906.932 468.112 930.799 460.878 951.599 473.278" stroke="black" stroke-width="5" stroke-linecap="round"/>
<path d="M1199.48 977.709C1187 993.897 1143.91 1019.66 1137.76 1000.33C1134.94 991.481 1141.14 987.277 1153.57 978.462C1166.51 969.284 1168.52 962.289 1164.65 957.278C1162.55 954.193 1157.51 946.553 1155.8 943.578" stroke="black" stroke-width="5" stroke-linecap="round"/>
<path d="M1058.37 917.171C1065.46 939.988 1046.45 955.186 1027.1 957.133C1002.93 959.563 988.154 955.204 992.557 946.758C996.087 940.005 1007.6 939.972 1013.53 940.196C1024.53 940.603 1029.38 929.458 1021.55 914.574" stroke="black" stroke-width="5" stroke-linecap="round"/>
<path d="M1092.87 949.958C1092.93 938.917 1065.2 944.172 1050.95 947.483C1047.77 954.295 1036.34 956.239 1035.15 957.954C1051.85 959.289 1092.8 960.999 1092.87 949.958Z" fill="black"/>
<path d="M1208.85 1027.62C1219.82 1021.53 1184.16 1009.2 1164.96 1003.81C1161.09 1007.28 1149.58 1007.48 1144.31 1007.14C1161.25 1016.51 1197.87 1033.71 1208.85 1027.62Z" fill="black"/>
<path d="M1031.6 559.278C1028.6 551.278 1026.18 544.778 1026.18 536.278" stroke="black" stroke-width="5" stroke-linecap="round"/>
<path d="M1031.25 551.591C1001.7 633.387 955.783 858.404 1007.87 889.29C1059.97 920.18 1091.88 899.748 1101.33 885.671C1098.5 907.128 1104.5 946.502 1151.18 932.35C1197.86 918.195 1211.3 872.922 1212.19 852.055L1201.1 539.778C1176.6 537.778 1151.2 557.178 1122.1 564.278C1065.33 578.13 1048.6 569.278 1031.25 551.591Z" fill="black"/>
<path d="M557.099 744.288C489.266 743.621 340.299 776.788 287.099 914.788" stroke="black" stroke-width="5" stroke-linecap="round" stroke-dasharray="10 20"/>
<path d="M557.099 778.278C523.266 785.945 445.599 850.778 406.099 964.278" stroke="black" stroke-width="5" stroke-linecap="round" stroke-dasharray="10 20"/>
<path d="M549.099 761.788C503.766 764.455 378.099 829.278 339.099 957.778" stroke="black" stroke-width="5" stroke-linecap="round" stroke-dasharray="10 20"/>
<path d="M191.099 1070.78L140.599 867.278" stroke="black" stroke-width="5" stroke-linecap="round"/>
<path d="M190.599 854.778L243.099 1068.78" stroke="black" stroke-width="5" stroke-linecap="round"/>
<path d="M99.0484 706.278L90.5401 668.605C90.2966 667.527 90.9737 666.455 92.052 666.213L143.209 654.703C144.263 654.466 145.314 655.108 145.585 656.153L155.099 692.904" stroke="black" stroke-width="5" stroke-linecap="round"/>
<rect x="3.10446" y="731.411" width="263" height="163" rx="2.5" transform="rotate(-13.2158 3.10446 731.411)" stroke="black" stroke-width="5"/>
<path d="M329.599 1108.78H414.099" stroke="black" stroke-width="5" stroke-linecap="round"/>
<path d="M247.099 1086.78C258.432 1078.28 287.599 1065.28 299.099 1103.78" stroke="black" stroke-width="5" stroke-linecap="round"/>
<path d="M162.599 1109.78C165.766 1102.45 176.599 1089.68 200.599 1097.28" stroke="black" stroke-width="5" stroke-linecap="round"/>
<path d="M199.099 1101.28C205.099 1089.28 224.599 1071.78 255.099 1092.78" stroke="black" stroke-width="5" stroke-linecap="round"/>
</svg>
