<svg width="1320" height="1356" viewBox="0 0 1320 1356" fill="none" xmlns="http://www.w3.org/2000/svg">
<path d="M457.099 1111.52C496.266 1153.52 607.099 1228.62 737.099 1193.02" stroke="black" stroke-width="15" stroke-linecap="round"/>
<path d="M435.099 45.5195L419.099 33.5195" stroke="black" stroke-width="5" stroke-linecap="round"/>
<path d="M451.099 33.5195L431.099 5.51953" stroke="black" stroke-width="5" stroke-linecap="round"/>
<path d="M470.099 28.5195L462.099 2.51953" stroke="black" stroke-width="5" stroke-linecap="round"/>
<path d="M414.81 115.484L488.374 189.021C489.011 189.657 489.994 189.79 490.777 189.345L527.672 168.373C528.471 167.919 529.476 168.067 530.109 168.733L558.182 198.234C558.833 198.918 559.874 199.053 560.678 198.559L646.689 145.648C648.094 144.785 649.881 145.895 649.729 147.537L637.099 283.442C636.994 284.575 635.966 285.392 634.838 285.239L399.022 253.198C397.95 253.052 397.189 252.082 397.302 251.007L411.407 116.689C411.582 115.016 413.62 114.294 414.81 115.484Z" stroke="black" stroke-width="5" stroke-linecap="round"/>
<path d="M420.099 235.52L471.099 202.52" stroke="black" stroke-width="5" stroke-linecap="round"/>
<path d="M575.099 215.52L616.099 260.52" stroke="black" stroke-width="5" stroke-linecap="round"/>
<path d="M446.099 89.5195L412.099 113.434L444.554 143.52L446.099 89.5195Z" fill="black"/>
<path d="M619.936 112.52L616.099 164.52L649.099 143.564L619.936 112.52Z" fill="black"/>
<path d="M575.099 58.5195L504.099 49.9342L543.89 26.5195L575.099 58.5195Z" fill="black"/>
<path d="M444.099 143.871L448.633 49.6178C448.688 48.476 449.687 47.6124 450.825 47.7233L622.175 64.4266C623.248 64.5312 624.045 65.4673 623.977 66.5432L617.919 162.52" stroke="black" stroke-width="5" stroke-linecap="round"/>
<path d="M464.099 162.186L469.353 96.6203C469.444 95.4783 470.475 94.6464 471.61 94.7975L596.194 111.377C597.258 111.519 598.021 112.475 597.922 113.544L591.903 178.52" stroke="black" stroke-width="5" stroke-linecap="round"/>
<path d="M500.099 139.52L558.099 146.52" stroke="black" stroke-width="5" stroke-linecap="round"/>
<path d="M486.099 161.52L565.099 170.52" stroke="black" stroke-width="5" stroke-linecap="round"/>
<path d="M991.459 1185.04C1030.88 1159.79 1089.79 1161.74 1118.46 1175.39C1139.19 1185.26 1201.14 1221.71 1154.32 1299.3C1154.09 1299.67 1153.98 1300.13 1154.03 1300.56L1159.16 1350.49C1159.3 1351.89 1158 1352.99 1156.64 1352.62L1106.95 1339.03C1106.63 1338.94 1106.3 1338.93 1105.98 1339C1058.93 1349.93 957.888 1355.51 952.46 1267.39C951.197 1246.9 954.934 1230.06 962.117 1216.39" stroke="black" stroke-width="5" stroke-linecap="round"/>
<circle cx="1018.96" cy="1255.39" r="11.5" stroke="black" stroke-width="5"/>
<circle cx="1057.96" cy="1255.39" r="11.5" stroke="black" stroke-width="5"/>
<circle cx="1096.96" cy="1255.39" r="11.5" stroke="black" stroke-width="5"/>
<path d="M944.961 1311.89L904.658 1328.1C903.233 1328.68 901.721 1327.5 901.93 1325.97L906.877 1290C906.932 1289.6 906.871 1289.21 906.693 1288.85C890.929 1256.81 873.621 1191.44 938.459 1155.89C1000.46 1121.89 1050.46 1148.89 1080.46 1164.89" stroke="black" stroke-width="5" stroke-linecap="round"/>
<path d="M1196 996.135C1230.84 945.402 1289.13 819.453 1243.56 721.52" stroke="black" stroke-width="15" stroke-linecap="round"/>
<path d="M158.2 603.821C158.517 547.214 184.95 417.247 288.149 350.24" stroke="black" stroke-width="15" stroke-linecap="round"/>
<path d="M537.099 1233.02C560.099 1251.52 620.499 1262.62 650.099 1259.02" stroke="black" stroke-width="7" stroke-linecap="round"/>
<path d="M1289.89 946.593C1298.68 929.887 1315.69 887.574 1313.41 851.973" stroke="black" stroke-width="7" stroke-linecap="round"/>
<path d="M109.122 511.267C116.172 468.184 118.225 419.245 183.997 379.52" stroke="black" stroke-width="7" stroke-linecap="round"/>
<path d="M802.099 710.52C805.317 719.466 817.643 737.826 841.201 739.693C870.649 742.027 874.511 749.495 873.384 781.703C872.258 813.91 889.872 831.235 915.099 811.52C974.599 765.02 946.599 876.52 924.099 941.52" stroke="black" stroke-width="5" stroke-linecap="round"/>
<path d="M582.1 349.203C461.519 411.552 379.1 537.41 379.1 682.519C379.1 889.626 546.993 1057.52 754.099 1057.52C938.275 1057.52 1091.44 924.746 1123.1 749.696C1131.45 703.519 1127.7 635.119 1108.1 577.519" stroke="black" stroke-width="5" stroke-linecap="round"/>
<path d="M855.1 323.006C821.193 312.93 785.278 307.52 748.1 307.52C696.752 307.52 647.814 317.84 603.248 336.52" stroke="black" stroke-width="5" stroke-linecap="round"/>
<path d="M723.099 1031.52C715.087 1055.52 688.099 1047.85 680.099 1040.52C656.599 1018.02 624.647 966.054 629.147 942.553C633.647 919.053 622.647 894.054 600.147 879.554C582.147 867.954 580.981 852.053 582.647 845.553C584.314 835.053 589.547 807.854 597.147 783.054C604.747 758.254 641.647 770.72 659.147 780.054C666.981 804.22 691.247 851.153 725.647 845.553C760.047 839.953 781.647 859.22 788.147 869.553C792.147 883.387 790.347 917.353 751.147 942.553C702.147 974.053 733.937 999.057 723.099 1031.52Z" fill="black"/>
<path d="M1048.1 855.519C1032.1 869.519 1031.43 844.352 1033.1 830.019C1036.6 810.019 1054.6 806.02 1060.1 787.519C1062.24 780.331 1072.6 777.52 1076.1 787.519C1080.77 800.867 1068.1 838.019 1048.1 855.519Z" fill="black"/>
<path d="M517.099 677.52C509.099 690.52 469.599 663.02 467.099 660.02C455.599 649.52 432.783 625.45 430.099 604.52C427.599 585.021 416.099 551.021 404.599 533.021C430.099 489.021 437.099 467.355 460.099 444.022C500.099 409.222 535.432 428.187 547.099 441.02C555.932 455.02 582.999 477.62 620.599 456.02C658.199 434.42 669.932 465.02 671.099 483.02C670.099 502.353 657.499 541.52 615.099 543.52C562.099 546.02 561.599 574.02 558.599 598.52C556.199 618.12 541.266 615.02 534.099 611.02C526.932 604.687 508.699 595.82 493.099 611.02C477.499 626.22 494.599 646.353 505.099 654.52C512.432 660.853 523.571 667.003 517.099 677.52Z" fill="black"/>
<path d="M695.099 411.522C730.299 416.722 719.876 440.521 715.599 453.022C705.199 483.422 749.362 479.021 756.599 466.521C765.766 450.688 787.699 419.421 802.099 421.021C816.499 422.621 825.432 411.688 828.099 406.022C833.699 362.022 787.432 364.688 763.599 371.522C753.099 377.688 726.399 388.122 703.599 380.522C680.799 372.922 663.766 374.689 658.099 376.522C614.599 403.522 651.099 405.022 695.099 411.522Z" fill="black"/>
<path d="M720.281 578.609L858.705 555.096C859.692 554.929 860.285 556.155 859.542 556.825L795.032 614.975C794.958 615.042 794.881 615.095 794.789 615.133C789.177 617.445 767.072 608.694 755.659 603.565C755.098 603.312 754.443 603.619 754.275 604.211C751.546 613.855 748.2 622.807 746.565 626.83C746.388 627.265 745.905 627.519 745.549 627.213C742.234 624.369 741.811 606.192 742.049 596.134C742.062 595.621 741.686 595.185 741.18 595.094C732.705 593.584 721.036 586.023 716.112 582.307" stroke="black" stroke-width="5" stroke-linecap="round"/>
<path d="M755.121 603.566C769.634 596.679 806.349 579.43 837.104 565.529" stroke="black" stroke-width="5" stroke-linecap="round"/>
<path d="M746.132 627.57L773.125 611.558" stroke="black" stroke-width="5" stroke-linecap="round"/>
<path d="M752.115 589.57L789.11 577.554" stroke="black" stroke-width="5" stroke-linecap="round"/>
<path d="M561.363 716.252C587.707 710.011 591.81 748.359 613.532 748.98C639.459 749.721 619.196 687.144 604.782 663.284C598.878 652.629 583.768 653.69 589.433 670.415C595.451 688.181 646.906 744.008 659.202 707.529L666.63 681.489C668.539 673.918 673.787 662.194 687.324 671.875C700.86 681.557 710.689 671.713 713.911 665.58L724.301 646.878" stroke="black" stroke-width="5" stroke-linecap="round"/>
<path d="M923.633 349.854C935.738 393.51 941.791 397.379 959.399 416.72C959.399 397.605 962.669 365.521 962.669 352.161C1020.32 352.161 1068.98 328.524 1086.1 316.706C1085.49 356.786 1122.9 382.992 1122.9 382.992C1122.9 382.992 1117.53 399.178 1114.47 435.404C1112.01 464.384 1119.07 458.783 1122.9 452.36C1133.94 416.597 1152.03 426.154 1159.7 435.404C1253.78 281.882 1109.1 252.219 1081.5 255.045C1060.65 237.163 1031.57 223.15 1011.12 221.095C937.389 213.682 904.005 279.066 923.633 349.854Z" fill="black"/>
<path d="M1122.1 478.638C1112.13 538.914 1045.24 582.255 996.966 533.429C948.693 484.602 958.353 395.226 963.511 353.52" stroke="black" stroke-width="5" stroke-linecap="round"/>
<path d="M1161.05 430.52C1167.07 445.756 1161.43 479.52 1122.1 479.52" stroke="black" stroke-width="5" stroke-linecap="round"/>
<path d="M1143.79 440.52C1144.76 443.408 1143.99 450.253 1133.1 454.52" stroke="black" stroke-width="5" stroke-linecap="round"/>
<path d="M965.099 471.52C952.367 466.065 943.39 445.866 946.844 413.52" stroke="black" stroke-width="5" stroke-linecap="round"/>
<path d="M1037.1 506.845C1025.3 510.043 1026.05 501.242 1017.1 493.52" stroke="black" stroke-width="5" stroke-linecap="round"/>
<ellipse rx="7.5" ry="8.5" transform="matrix(-1 0 0 1 999.599 430.02)" fill="black"/>
<ellipse rx="8.5" ry="8" transform="matrix(-1 0 0 1 1072.6 430.52)" fill="black"/>
<path d="M1091.1 413.52C1089.31 408.028 1081.62 397.868 1065.1 401.163" stroke="black" stroke-width="5" stroke-linecap="round"/>
<path d="M1014.1 402.52C1010.31 400.256 1000.01 397.086 989.099 402.52" stroke="black" stroke-width="5" stroke-linecap="round"/>
<path d="M1041.13 426.52C1042.53 437.349 1043.48 459.311 1036.1 460.52" stroke="black" stroke-width="5" stroke-linecap="round"/>
<path d="M951.099 511.113C954.579 520.667 964.274 541.263 975.219 547.214" stroke="black" stroke-width="5" stroke-linecap="round"/>
<path d="M197.553 839.572C244.595 846.366 261.582 903.808 264.196 931.68C277.629 975.906 276.439 1012.63 266.97 1040.12C265.392 1047.09 269.161 1059.33 296.864 1052.53C324.566 1045.74 312.762 998.312 303.397 975.448C298.17 963.428 296.864 941.261 296.864 931.68C306.795 802.598 227.825 788.619 187.099 797.764C199.644 806.126 199.295 829.12 197.553 839.572Z" fill="black"/>
<path d="M32.9584 869.663C53.2494 765.054 174.997 769.629 211.652 801.666C252.889 853.97 147.505 983.425 118.705 971.003C98.2829 955.312 82.9579 963.811 78.7772 971.003C59.9262 1003.43 86.6319 1021.56 102.341 1026.58C98.152 1049.07 152.087 1073.65 144.233 1090.65C102.341 1143.61 -25.9507 1057.31 4.81317 1031.15C29.4243 1010.23 28.0922 983.427 27.7227 971.003C25.7583 904.969 27.7227 899.739 32.9584 869.663Z" fill="black"/>
<path d="M214.099 1011.52C237.87 1006.38 225.324 996.091 220.042 975.52" stroke="black" stroke-width="5" stroke-linecap="round"/>
<ellipse cx="249.102" cy="954.926" rx="5.98134" ry="8.97201" transform="rotate(11.0109 249.102 954.926)" fill="black"/>
<ellipse cx="182.38" cy="971.781" rx="5.90198" ry="8.85297" transform="rotate(8.55426 182.38 971.781)" fill="black"/>
<path d="M93.0991 981.52C90.8353 985.52 87.6658 995.12 93.0991 1001.52" stroke="black" stroke-width="5" stroke-linecap="round"/>
<path d="M138.099 1083.41C192.337 1083.41 222.396 1119.16 270.099 1040.52" stroke="black" stroke-width="5" stroke-linecap="round"/>
<path d="M208.099 1048C220.782 1051.91 230.928 1048 234.099 1039.52" stroke="black" stroke-width="5" stroke-linecap="round"/>
<path d="M206.599 972.52C206.599 988.55 195.133 1001.02 181.599 1001.02C168.065 1001.02 156.599 988.55 156.599 972.52C156.599 956.489 168.065 944.02 181.599 944.02C195.133 944.02 206.599 956.489 206.599 972.52Z" stroke="black" stroke-width="5"/>
<path d="M273.599 955.52C273.599 971.55 262.133 984.02 248.599 984.02C235.065 984.02 223.599 971.55 223.599 955.52C223.599 939.489 235.065 927.02 248.599 927.02C262.133 927.02 273.599 939.489 273.599 955.52Z" stroke="black" stroke-width="5"/>
<path d="M223.099 958.998C219.028 958.136 209.728 957.835 205.099 963.52" stroke="black" stroke-width="5" stroke-linecap="round"/>
<path d="M157.52 962.761L137.271 963.414" stroke="black" stroke-width="5" stroke-linecap="round"/>
</svg>
