<svg width="360" height="559" viewBox="0 0 360 559" fill="none" xmlns="http://www.w3.org/2000/svg">
<path d="M114.546 412.52L122.577 400.194C130.403 388.182 145.635 383.386 158.931 388.747L178.068 396.464C190.008 401.278 203.687 397.938 212.065 388.164L234.046 362.52" stroke="black" stroke-width="5" stroke-linecap="round"/>
<path d="M225.046 321.934C229.546 308.934 225.447 300.186 221.447 298.52C197.447 320.52 161.046 312.353 147.546 299.02C142.746 303.42 145.546 316.434 147.546 320.434C173.546 349.234 210.546 333.101 225.046 321.934Z" fill="black"/>
<path d="M293.99 117.54C282.99 157.04 277.49 160.54 261.49 178.04C261.49 160.745 258.518 131.716 258.518 119.628C206.129 119.628 161.916 98.2413 146.358 87.5482C146.915 123.812 112.918 147.523 112.918 147.523C112.918 147.523 117.795 162.168 120.581 194.944C122.811 221.166 116.401 216.098 112.918 210.287C102.886 177.928 86.4447 186.576 79.4779 194.944C-6.00945 56.0401 125.457 29.2008 150.537 31.7579C169.486 15.5787 195.912 2.89975 214.49 1.04009C281.49 -5.66684 311.826 53.4922 293.99 117.54Z" fill="black"/>
<path d="M114.089 235.008C123.089 289.953 183.497 329.462 227.089 284.953C270.682 240.444 261.958 158.971 257.301 120.953" stroke="black" stroke-width="5" stroke-linecap="round"/>
<path d="M78.4898 191.539C72.9897 205.039 78.1498 234.954 114.09 234.954" stroke="black" stroke-width="5" stroke-linecap="round"/>
<path d="M94.3407 198.953C93.5454 201.842 94.1817 208.686 103.089 212.953" stroke="black" stroke-width="5" stroke-linecap="round"/>
<path d="M256.089 227.953C267.82 223.063 276.089 204.953 272.908 175.953" stroke="black" stroke-width="5" stroke-linecap="round"/>
<path d="M190.089 260.953C201.589 263.953 200.862 255.698 209.589 248.453" stroke="black" stroke-width="5" stroke-linecap="round"/>
<circle cx="224.638" cy="190.105" r="7.5" fill="black"/>
<circle cx="158.638" cy="191.105" r="7.5" fill="black"/>
<path d="M142.089 174.953C143.668 170.306 150.478 161.709 165.089 164.498" stroke="black" stroke-width="5" stroke-linecap="round"/>
<path d="M212.089 165.953C215.574 162.935 225.053 158.709 235.089 165.953" stroke="black" stroke-width="5" stroke-linecap="round"/>
<path d="M187.896 186.953C186.732 196.827 185.94 216.851 192.089 217.953" stroke="black" stroke-width="5" stroke-linecap="round"/>
<path d="M67.2047 451.133C62.8837 453.076 53.1695 450.633 48.8811 425.316" stroke="black" stroke-width="5" stroke-linecap="round"/>
<path d="M78.4929 455.005C76.4613 458.407 70.0477 457.658 67.2044 451.137C65.4019 447.003 63.5985 439.818 61.9801 428.219" stroke="black" stroke-width="5" stroke-linecap="round"/>
<path d="M78.4689 424.084C77.14 431.117 76.2965 438.029 78.4925 455.005C78.9661 459.009 81.4429 462.169 82.6221 463.248C87.2723 467.251 93.0314 462.185 93.8952 456.813L96.0984 435.02" stroke="black" stroke-width="5" stroke-linecap="round"/>
<path d="M357.099 409.02C337.304 371.905 287.633 321.762 230.383 325.389C229.233 325.462 228.154 325.961 227.297 326.732C212.688 339.871 178.269 356.397 145.757 327.057C144.7 326.104 143.309 325.575 141.894 325.727C109.759 329.182 42.6292 354.528 14.0991 431.52" stroke="black" stroke-width="5" stroke-linecap="round"/>
<path d="M105.099 438.52L167.621 437.13C170.374 437.069 172.658 439.245 172.73 441.997L175.468 546.051C175.541 548.8 173.38 551.091 170.632 551.18L10.6484 556.356C7.86821 556.446 5.54913 554.25 5.48787 551.469L3.20754 447.942C3.14739 445.211 5.28959 442.937 8.01896 442.835L43.0991 441.52" stroke="black" stroke-width="5" stroke-linecap="round"/>
<path d="M82.0991 487.52L151.099 485.02" stroke="black" stroke-width="5" stroke-linecap="round"/>
<path d="M82.5606 501.584L131.64 500.458" stroke="black" stroke-width="5" stroke-linecap="round"/>
<path d="M82.5851 515.007L151.202 513.802" stroke="black" stroke-width="5" stroke-linecap="round"/>
<rect x="18.1557" y="474.145" width="46.6413" height="53.5836" rx="2.5" transform="rotate(-1.31232 18.1557 474.145)" stroke="black" stroke-width="5"/>
</svg>
