<svg width="913" height="878" viewBox="0 0 913 878" fill="none" xmlns="http://www.w3.org/2000/svg">
<path d="M131.037 539.6C123.557 545.561 114.316 546.838 119.716 554.382C126.853 562.606 131.612 572.621 133.099 576.6" stroke="black" stroke-width="5" stroke-linecap="round"/>
<path d="M123.099 557.6C117.719 560.571 105.172 566.248 98.0283 565.191C90.8848 564.136 86.1224 566.952 84.6342 568.493C83.8328 569.703 83.3292 572.19 87.7251 572.454C92.1211 572.718 97.3414 572.564 99.402 572.454" stroke="black" stroke-width="5" stroke-linecap="round"/>
<path d="M105.099 569.6C102.763 571.954 94.8222 577.304 81.7424 579.872C79.1843 580.3 75.7364 582.76 80.4078 585.65C84.4117 587.897 95.4895 585.843 101.095 582.76" stroke="black" stroke-width="5" stroke-linecap="round"/>
<path d="M100.684 583.6C96.326 585.58 88.4815 590.853 91.968 596.105C93.0854 597.148 97.801 597.231 107.724 589.227L115.099 583.6" stroke="black" stroke-width="5" stroke-linecap="round"/>
<path d="M115.922 582.48L108.502 588.671C106.366 594.29 103.106 607.936 111.875 600.367C118.283 593.831 116.934 588.259 119.632 586.607C122.33 584.956 128.401 578.582 131.099 575.6" stroke="black" stroke-width="5" stroke-linecap="round"/>
<path d="M115.705 571.6C114.906 574.416 114.268 580.96 118.099 584.6" stroke="black" stroke-width="5" stroke-linecap="round"/>
<path d="M246.834 325.607C261.465 298.292 255.551 278.116 250.764 271.443C266.631 292.132 290.484 293.265 300.428 291.246L297.399 304.865C311.095 312.417 322.785 294.469 326.918 284.552C333.293 269.25 324.46 243.227 287.687 236.458C250.914 229.69 220.657 249.587 210.125 260.381C188.921 243.525 155.446 250.487 141.359 256.075C126.776 261.892 92.084 283.488 92.5461 324.327C93.1694 379.426 152.396 391.083 163.208 390.303C200.565 387.61 228.544 359.751 246.834 325.607Z" fill="black"/>
<path d="M294.971 339.964C292.2 344.478 288.66 347.837 285.249 349.656C281.8 351.496 278.795 351.629 276.731 350.363C274.669 349.097 273.426 346.358 273.505 342.448C273.583 338.584 274.973 333.906 277.744 329.392C280.514 324.878 284.055 321.52 287.465 319.701C290.915 317.86 293.92 317.727 295.984 318.993C298.046 320.259 299.289 322.998 299.21 326.908C299.132 330.772 297.741 335.45 294.971 339.964Z" stroke="black" stroke-width="5"/>
<path d="M281.686 343.183C283.139 344.074 285.616 342.677 287.221 340.063C288.825 337.449 288.949 334.607 287.496 333.716C286.044 332.824 283.566 334.221 281.962 336.836C280.357 339.45 280.234 342.292 281.686 343.183Z" fill="black"/>
<path d="M247.931 323.265L275.186 332.083" stroke="black" stroke-width="5" stroke-linecap="round"/>
<path d="M300.074 306.592C300.394 312.122 302.825 324.946 307.426 333.506C312.131 342.26 309.63 349.793 302.834 353.089L292.208 358.303C283.332 389.967 268.077 409.708 226.909 404.361" stroke="black" stroke-width="5" stroke-linecap="round"/>
<path d="M247.314 355.338C248.127 355.837 249.192 355.582 249.691 354.768C250.19 353.955 249.936 352.89 249.122 352.391C248.308 351.892 247.244 352.146 246.744 352.96C246.245 353.774 246.5 354.838 247.314 355.338Z" fill="black"/>
<path d="M235.394 367.49C236.37 368.089 237.567 367.916 238.066 367.102C238.565 366.288 238.178 365.143 237.202 364.543C236.225 363.944 235.029 364.118 234.53 364.932C234.031 365.745 234.418 366.891 235.394 367.49Z" fill="black"/>
<path d="M250.3 370.96C251.276 371.559 252.472 371.385 252.972 370.571C253.471 369.758 253.084 368.612 252.108 368.013C251.132 367.414 249.935 367.588 249.436 368.402C248.937 369.215 249.323 370.36 250.3 370.96Z" fill="black"/>
<path d="M362.235 443.435C363.768 441.365 364.538 439.482 363.839 438.181C361.808 434.399 356.812 438.28 354.568 440.694C348.983 446.502 338.235 456.596 341.132 444.85C344.029 433.103 337.868 433.826 323.44 448.165L309.099 456.6" stroke="black" stroke-width="5" stroke-linecap="round"/>
<path d="M360.808 462.6C362.027 466.323 360.072 474.942 342.156 477.031C335.378 477.82 334.359 477.709 327.997 477.176H317.099" stroke="black" stroke-width="5" stroke-linecap="round"/>
<path d="M349.099 455.179C352.869 452.527 358.882 447.713 361.968 443.6C365.32 443.563 368.565 445.366 363.393 451.668C361.154 454.397 357.337 457.968 351.267 462.6" stroke="black" stroke-width="5" stroke-linecap="round"/>
<path d="M352.099 462.379C358.061 457.812 361.811 454.29 364.011 451.6C367.151 452.448 369.977 455.729 361.394 462.581C359.517 464.079 357.095 465.748 354.011 467.6" stroke="black" stroke-width="5" stroke-linecap="round"/>
<path d="M179.099 416.6C130.501 451.972 136.316 496.084 136.316 550.6" stroke="black" stroke-width="5" stroke-linecap="round"/>
<path d="M179.099 417.171L204.469 438.27C205.237 438.936 206.444 438.541 206.661 437.554L212.823 409.645C213.052 408.61 214.352 408.243 215.096 409.005L231.099 425.388" stroke="black" stroke-width="5" stroke-linecap="round"/>
<path d="M201.099 457.295C209.072 468.319 253.974 498.847 286.286 465.352L295.099 455.6" stroke="black" stroke-width="5" stroke-linecap="round"/>
<path d="M223.099 562.6C233.345 559.901 281.945 532.79 296.099 507.6" stroke="black" stroke-width="5" stroke-linecap="round"/>
<path d="M293.099 475.409C296.597 488.028 297.582 498.679 296.881 507.6C304.664 502.234 312.099 498.108 312.099 481.187C312.099 469.218 303.425 458.901 295.577 455.6" stroke="black" stroke-width="5" stroke-linecap="round"/>
<path d="M227.599 446.6C229.532 446.6 231.099 444.809 231.099 442.6C231.099 440.39 229.532 438.6 227.599 438.6C225.666 438.6 224.099 440.39 224.099 442.6C224.099 444.809 225.666 446.6 227.599 446.6Z" fill="black"/>
<path d="M231.599 466.6C233.532 466.6 235.099 464.585 235.099 462.1C235.099 459.614 233.532 457.6 231.599 457.6C229.666 457.6 228.099 459.614 228.099 462.1C228.099 464.585 229.666 466.6 231.599 466.6Z" fill="black"/>
<path d="M264.39 375.431C262.99 377.629 261.92 382.949 268.836 386.645" stroke="black" stroke-width="5" stroke-linecap="round"/>
<path d="M273.47 834.755C340.404 811.59 295.109 668.259 264.094 599.488C212.163 613.387 157.822 589.354 137.151 575.6C135.218 585.976 124.6 617.007 97.4807 658.124C70.361 699.241 35.1775 720.625 28.9601 738.477C13.8135 781.911 46.9919 804.351 63.5811 809.419C121.86 822.738 171.05 757.058 188.361 722.551C213.172 824.476 255.439 839.822 273.47 834.755Z" fill="black"/>
<path d="M369.166 400.631C378.777 406.883 362.369 429.447 354.36 441.469L344.677 450.328C335.054 452.252 330.24 443.503 329.099 438.493L348.562 402.434C351.42 399.228 359.544 394.379 369.166 400.631Z" fill="black"/>
<path d="M398.099 412.6H384.099" stroke="black" stroke-width="5" stroke-linecap="round"/>
<path d="M384.099 379.6L379.099 391.6" stroke="black" stroke-width="5" stroke-linecap="round"/>
<path d="M398.099 390.6C397.399 390.966 388.474 398.086 384.099 401.6" stroke="black" stroke-width="5" stroke-linecap="round"/>
<path d="M285.335 823.6C284.84 831.174 288.245 856.585 307.895 842.658C312.741 837.771 324.196 829.757 331.182 836.794C338.169 843.83 324.385 856.829 316.627 862.449C308.622 868.802 288.973 879.601 274.418 871.978C259.864 864.354 260.096 844.368 262.047 835.328" stroke="black" stroke-width="5" stroke-linecap="round"/>
<path d="M47.0991 797.979C42.0848 800.386 32.0561 807.075 32.0561 814.583C37.7868 822.765 46.9559 842.881 37.7868 857.897C28.6177 872.913 11.9987 838.647 4.83541 819.636C1.25373 808.807 0.823935 784.84 27.7581 775.6" stroke="black" stroke-width="5" stroke-linecap="round"/>
<path d="M271.622 543.6C272.683 552.76 272.663 575.383 264.099 592.6" stroke="black" stroke-width="5" stroke-linecap="round"/>
<path d="M237.099 419.6C241.766 422.044 268.099 434.6 268.099 467.6" stroke="black" stroke-width="5" stroke-linecap="round"/>
<path d="M343.617 48.3463L330.368 144.11C330.219 145.19 330.961 146.19 332.038 146.36L432.78 162.234C433.996 162.426 435.095 161.483 435.091 160.252L434.628 23.2561C434.623 21.9258 433.345 20.9706 432.068 21.3427L345.039 46.7003C344.282 46.9208 343.725 47.5654 343.617 48.3463Z" stroke="black" stroke-width="5"/>
<path d="M445.099 28.0996L434.099 19.0996L433.099 164.6L456.099 160.1L445.099 28.0996Z" fill="black"/>
<path d="M445.099 30.5996H458.492C459.476 30.5996 460.315 31.3162 460.468 32.2889L479.743 154.852C479.931 156.05 479.018 157.139 477.805 157.162L454.928 157.6" stroke="black" stroke-width="5" stroke-linecap="round"/>
<path d="M387.099 33.5996C389.168 24.1939 396.982 5.85309 411.686 7.7339C419.564 8.74147 424.099 17.845 424.099 22.3128" stroke="black" stroke-width="5" stroke-linecap="round"/>
<path d="M367.099 39.5996C369.402 28.317 378.486 3.78241 395.447 2.63065C407.359 1.82183 411.408 17.0013 409.741 27.0834" stroke="black" stroke-width="5" stroke-linecap="round"/>
<path d="M677.099 633.1C719.099 619.6 750.099 599.1 786.599 553.6" stroke="black" stroke-width="5" stroke-linecap="round"/>
<path d="M527.599 188.1C541.457 187.901 561.874 188.272 583.099 189.823" stroke="black" stroke-width="5" stroke-linecap="round"/>
<path d="M755.099 283.634C730.284 280.809 700.614 279.1 665.599 279.1C518.599 279.1 560.099 253.6 587.599 248.6C624.599 242.267 691.499 223.5 665.099 207.1C655.014 200.835 637.65 196.511 618.099 193.587" stroke="black" stroke-width="5" stroke-linecap="round"/>
<path d="M872.613 449.1C893.456 408.588 897.52 367.512 870.718 331.1" stroke="black" stroke-width="5" stroke-linecap="round"/>
<path d="M464.099 498.599C488.679 490.045 516.636 479.388 546.099 467.1" stroke="black" stroke-width="5" stroke-linecap="round"/>
<path d="M603.599 206.1C633.099 210.6 624.099 217.732 607.599 217.599C586.932 217.433 536.099 223.099 498.099 247.099C450.599 277.099 514.599 312.599 579.099 311.599C630.509 310.802 683.21 320.858 703.377 326.042C703.531 326.081 703.677 326.141 703.817 326.216C741.447 346.504 715.966 377.011 666.599 407.759" stroke="black" stroke-width="5" stroke-linecap="round"/>
<path d="M597.099 287.6C592.266 286.6 584.099 286.599 580.099 286.6" stroke="black" stroke-width="5" stroke-linecap="round"/>
<path d="M549.599 281.6C545.266 281.1 536.199 279.7 534.599 278.1" stroke="black" stroke-width="5" stroke-linecap="round"/>
<path d="M519.599 270.6C518.432 267.1 516.799 259.5 519.599 257.1" stroke="black" stroke-width="5" stroke-linecap="round"/>
<path d="M542.599 247.1C545.099 245.766 551.299 243.1 556.099 243.1" stroke="black" stroke-width="4" stroke-linecap="round"/>
<path d="M576.099 236.6C579.266 236.1 585.699 235.1 586.099 235.1" stroke="black" stroke-width="3" stroke-linecap="round"/>
<path d="M601.099 231.1L610.099 229.1" stroke="black" stroke-width="3" stroke-linecap="round"/>
<path d="M622.099 226.1C625.099 226.1 631.199 225.7 631.599 224.1" stroke="black" stroke-width="2" stroke-linecap="round"/>
<path d="M640.099 219.1C640.766 217.6 641.599 214.3 639.599 213.1" stroke="black" stroke-width="2" stroke-linecap="round"/>
<path d="M635.599 208.6C634.599 208.1 631.599 206.9 627.599 206.1" stroke="black" stroke-linecap="round"/>
<path d="M650.099 292.6C646.432 291.433 637.099 289.3 629.099 290.1" stroke="black" stroke-width="5" stroke-linecap="round"/>
<path d="M701.099 299.099C696.432 298.266 685.899 296.699 681.099 297.099" stroke="black" stroke-width="5" stroke-linecap="round"/>
<path d="M756.099 310.1C749.099 308.1 733.399 304.1 726.599 304.1" stroke="black" stroke-width="5" stroke-linecap="round"/>
<path d="M782.099 323.1C787.932 327.266 799.399 338.7 798.599 351.1" stroke="black" stroke-width="7" stroke-linecap="round"/>
<path d="M790.099 379.6C789.432 386.933 785.199 403.3 773.599 410.1" stroke="black" stroke-width="7" stroke-linecap="round"/>
<path d="M711.099 462.6C700.099 470.6 681.499 486.1 675.099 488.1" stroke="black" stroke-width="7" stroke-linecap="round"/>
<path d="M621.099 523.1C602.932 536.1 578.099 551.1 570.099 553.1" stroke="black" stroke-width="10" stroke-linecap="round"/>
<ellipse rx="43" ry="32.5" transform="matrix(-1 0 0 1 795.099 491.1)" fill="black"/>
<path d="M744.1 420.099C709.369 432.833 727.69 462.726 742.494 477.538C743.106 478.15 742.736 479.217 741.875 479.305C725.066 481.033 696.274 487.799 700.099 503.1C703.681 517.426 727.839 520.261 743.144 519.86C744.235 519.831 744.731 521.521 743.822 522.125C728.165 532.536 718.237 552.453 731.099 562.1C754.431 579.599 773.046 551.354 779.601 533.67C779.978 532.653 781.69 532.787 781.902 533.852C785.207 550.491 795.268 576.463 815.599 576.1C836.724 575.722 836.681 546.856 833.673 530.011C833.504 529.068 834.639 528.401 835.383 529.005C857.082 546.623 879.337 551.016 886.099 543.6C908.716 518.794 876.635 500.281 854.631 491.399C853.571 490.971 853.906 489.233 855.049 489.241C882.022 489.415 922.103 484.641 906.599 463.6C891.419 442.997 854.955 450.51 833.803 458.544C832.728 458.952 831.456 457.102 832.156 456.19C843.382 441.576 848.027 414.921 835.6 405.6C811.291 387.366 790.747 427.303 784.249 449.289C783.997 450.143 782.835 450.291 782.384 449.524C772.136 432.138 759.968 414.282 744.1 420.099Z" stroke="black" stroke-width="5" stroke-linecap="round"/>
<ellipse rx="18" ry="13.5" transform="matrix(-1 0 0 1 785.099 261.1)" fill="black"/>
<path d="M826.099 274.296C824.926 269.382 818.996 265.466 813.375 262.807C812.342 262.318 812.722 260.381 813.865 260.341C824.696 259.963 837.444 257.537 831.652 249.707C826.118 242.226 813.826 243.639 804.898 246.341C803.798 246.674 802.051 244.318 802.563 243.288C805.643 237.093 806.294 228.783 801.943 225.532C792.245 218.287 783.979 233.08 780.874 242.416C780.593 243.259 779.42 243.404 778.96 242.644C774.822 235.805 769.93 229.285 763.656 231.576C749.83 236.625 756.096 248.147 762.072 254.573C762.662 255.207 762.279 256.294 761.419 256.405C754.305 257.322 743.739 260.173 745.244 266.171C746.53 271.297 754.162 272.893 760.348 273.137C761.44 273.18 762.053 275.149 761.236 275.874C756.107 280.425 753.498 287.238 758.216 290.763C766.899 297.25 774.022 288.653 777.42 281.487C777.885 280.507 779.83 280.659 780.117 281.704C781.96 288.427 786.115 296.731 793.574 296.598C801.73 296.453 802.345 286.196 801.402 279.096C801.276 278.147 802.446 277.454 803.213 278.028C805.91 280.044 808.597 281.577 811.099 282.643" stroke="black" stroke-width="5" stroke-linecap="round"/>
<ellipse rx="33" ry="21" transform="matrix(-1 0 0 1 596.099 421.6)" fill="black"/>
<path d="M525.6 390.599C531.97 375.409 554.671 389.032 566.399 398.995C566.799 399.335 567.15 399.205 567.015 398.698C565.614 393.462 553.778 367.576 566.099 362.1C586.7 352.945 593.408 376.679 594.095 389.529C594.098 389.578 594.106 389.637 594.117 389.684C595.186 394.295 602.674 368.1 615.599 368.1C631.638 368.1 630.177 385.458 625.074 396.696C624.667 397.593 625.646 398.623 626.548 398.226C639.142 392.691 660.669 387.07 665.099 401.1C669.132 413.871 654.858 420.713 643.569 423.463C642.47 423.731 642.419 425.703 643.509 426.007C656.664 429.668 674.233 438.011 670.099 451.1C665.618 465.292 637.253 455.018 620.894 446.81C619.98 446.352 618.929 447.437 619.375 448.357C626.02 462.082 627.779 484.803 612.1 485.6C588.5 486.8 584.6 463.1 585.6 451.1C585.725 449.6 577.8 482.2 556.6 474.6C535.6 467.072 549.825 446.168 559.815 436.378C560 436.196 560.331 436.165 560.114 436.308C558.04 437.674 535.172 445.158 525.6 439.6C504.394 427.287 525.326 415.474 540.748 411.071C541.748 410.785 541.797 409.211 540.827 408.836C529.197 404.349 522.881 396.037 525.6 390.599Z" stroke="black" stroke-width="5" stroke-linecap="round"/>
<ellipse cx="604.599" cy="182.1" rx="9.5" ry="5.5" fill="black"/>
<path d="M624.531 173.356C622.801 169.216 616.857 172.543 613.398 175.335C612.988 175.665 612.739 175.538 612.913 175.041C613.727 172.715 616.125 166.596 612.968 165.187C607.113 162.575 605.189 169.304 604.977 172.999C604.975 173.047 604.969 173.099 604.954 173.145C604.601 174.201 602.472 166.907 598.835 166.907C595.218 166.907 594.718 170.011 595.386 172.903C595.608 173.863 594.472 175.015 593.536 174.707C590.037 173.556 585.737 173.077 584.702 176.366C584.025 178.519 585.156 180.083 586.857 181.168C587.811 181.776 587.844 184.538 586.844 185.067C584.391 186.362 582.501 188.238 583.275 190.698C584.354 194.129 590.285 192.571 594.918 190.587C595.857 190.185 597.109 191.411 596.845 192.398C595.85 196.113 596.216 200.402 599.834 200.587C606.572 200.931 607.686 194.138 607.4 190.698C607.364 190.268 609.627 199.612 615.68 197.434C621.533 195.328 617.802 189.568 614.968 186.684C614.786 186.498 614.697 186.484 614.936 186.586C616.312 187.176 622.022 188.864 624.531 187.402C629.404 184.561 626.483 181.813 622.862 180.191C621.914 179.766 621.829 177.859 622.66 177.237C624.332 175.986 625.082 174.463 624.531 173.356Z" stroke="black" stroke-width="3" stroke-linecap="round"/>
<ellipse rx="20.5" ry="13.5" transform="matrix(-1 0 0 1 853.599 296.1)" fill="black"/>
<path d="M809.703 276.571C813.623 267.253 827.468 275.394 834.847 281.558C835.249 281.894 835.559 281.767 835.403 281.267C834.191 277.376 827.491 262.169 834.931 258.873C847.749 253.193 851.933 267.893 852.369 275.88C852.372 275.929 852.38 275.986 852.392 276.033C853.083 278.751 857.743 262.599 865.766 262.599C875.229 262.599 874.913 272.269 872.152 279.221C871.789 280.137 872.81 281.201 873.722 280.827C881.662 277.571 893.97 274.788 896.601 283.094C898.853 290.204 891.941 294.354 885.419 296.368C884.337 296.702 884.291 298.879 885.368 299.229C893.168 301.77 902.064 306.732 899.716 314.146C897.036 322.607 880.646 317.065 870.322 312.099C869.401 311.656 868.302 312.785 868.7 313.726C872.338 322.309 872.878 335.101 863.586 335.572C848.885 336.318 846.456 321.599 847.079 314.146C847.157 313.214 842.22 333.461 829.014 328.741C816.008 324.092 824.692 311.232 830.908 305.108C831.093 304.927 831.304 304.912 831.075 305.033C829.171 306.045 815.51 310.365 809.703 307.004C797.148 299.736 808.303 292.749 817.688 289.726C818.678 289.407 818.74 287.743 817.792 287.314C811.447 284.434 808.121 279.725 809.703 276.571Z" stroke="black" stroke-width="5" stroke-linecap="round"/>
</svg>
