<svg width="1640" height="1610" viewBox="0 0 1640 1610" fill="none" xmlns="http://www.w3.org/2000/svg">
<path d="M1057.06 396.26C1057.06 378.471 1065.49 369.577 1071.7 359.809C1088.6 333.229 1087.84 318.765 1081.15 275.111" stroke="black" stroke-width="5" stroke-linecap="round"/>
<path d="M1034.06 298.019C1041.57 295.505 1053.32 284.624 1040.26 261.209" stroke="black" stroke-width="5" stroke-linecap="round"/>
<path d="M929.069 268.006C921.491 253.566 912.865 256.561 909.499 259.864C884.747 282.609 916.595 303.201 935.613 310.653C937.977 319.705 945.161 339.588 954.988 346.704" stroke="black" stroke-width="5" stroke-linecap="round"/>
<path d="M917.037 274.031C918.024 278.524 922.384 287.328 931.925 286.607" stroke="black" stroke-width="5" stroke-linecap="round"/>
<path d="M966.915 237.906C970.169 235.983 978.781 232.668 987.198 234.794" stroke="black" stroke-width="5" stroke-linecap="round"/>
<path d="M1049.68 229.922C1053.56 227.902 1063.79 224.338 1073.65 226.244" stroke="black" stroke-width="5" stroke-linecap="round"/>
<path d="M1087.03 213.533C1093.54 69.7536 1005.61 107.44 929.691 145.126C893.645 163.02 883.265 167.519 856.502 181.174C847.861 208.429 879.808 252.091 900.922 272.566C904.788 258.693 916.249 256.461 921.496 257.078C915.049 183.322 961.986 186.206 986.26 196.867C1032.1 187.936 1046.45 204.546 1047.9 213.968C1065.96 198.271 1085.16 210.5 1087.03 213.533Z" fill="black"/>
<circle cx="983.435" cy="253.299" r="32.9443" transform="rotate(-8.72379 983.435 253.299)" stroke="black" stroke-width="5"/>
<ellipse cx="995.441" cy="258.714" rx="7.92832" ry="9.79381" transform="rotate(-28.616 995.441 258.714)" fill="black"/>
<path d="M1099.89 235.43C1102.65 253.384 1090.14 270.258 1071.87 273.061C1053.6 275.864 1036.6 263.519 1033.85 245.565C1031.09 227.611 1043.6 210.738 1061.87 207.935C1080.14 205.131 1097.14 217.477 1099.89 235.43Z" stroke="black" stroke-width="5"/>
<ellipse cx="1078.29" cy="246.726" rx="8.30093" ry="9.79381" transform="rotate(-23.092 1078.29 246.726)" fill="black"/>
<path d="M1032.92 245.474L1016.62 248.208" stroke="black" stroke-width="5" stroke-linecap="round"/>
<path d="M949.539 253.783L926.417 262.993" stroke="black" stroke-width="5" stroke-linecap="round"/>
<path d="M1052.56 322.504C1048.13 329.475 1034.08 340.438 1013.38 328.516" stroke="black" stroke-width="5" stroke-linecap="round"/>
<path d="M1074.23 134.717C1106.14 122.948 1118.85 108.745 1121.22 103.115C1144.39 42.9641 947.643 132.9 846.375 185.387C839.007 188.887 830.828 198.936 857.056 211.141" stroke="black" stroke-width="5" stroke-linecap="round"/>
<path d="M926.099 3.66398C948.876 0.586992 1028.24 8.94896 1064.1 87.1406" stroke="black" stroke-width="5" stroke-linecap="round"/>
<path d="M1036.1 96.8567C1022.81 66.5006 978.546 8.53145 907.78 19.5035C837.013 30.4756 838.25 119.167 847.715 162.141" stroke="black" stroke-width="5" stroke-linecap="round"/>
<path d="M524.927 327.32C538.13 313.988 541.75 299.889 546.13 277.988C550.13 257.988 547.131 231.988 535.131 224.488C521.934 233.288 506.963 229.488 501.127 226.488C473.923 211.688 443.459 217.322 431.627 221.988C398.827 232.388 356.627 222.322 339.627 215.988C332.127 227.988 328.13 290.988 344.422 344.111C351.341 335.799 367.639 327.209 377.581 359.352C381.032 365.125 387.404 370.158 385.183 344.111C382.416 311.555 377.581 297.008 377.581 297.008C377.581 297.008 411.304 273.455 410.74 237.434C426.184 248.057 470.02 269.299 521.971 269.299C521.971 281.307 524.927 310.142 524.927 327.32Z" fill="black"/>
<path d="M378.13 383.903C387.122 438.78 447.444 478.241 490.981 433.786C534.519 389.332 525.801 307.96 521.152 269.988" stroke="black" stroke-width="5" stroke-linecap="round"/>
<path d="M343.925 339.988C338.644 353.36 343.599 382.988 378.13 382.988" stroke="black" stroke-width="5" stroke-linecap="round"/>
<path d="M361.323 347.988C360.711 350.464 361.201 356.332 368.13 359.988" stroke="black" stroke-width="5" stroke-linecap="round"/>
<path d="M521.13 375.988C532.517 371.193 540.556 353.431 537.463 324.988" stroke="black" stroke-width="5" stroke-linecap="round"/>
<path d="M455.13 409.314C465.75 412.512 465.079 403.711 473.13 395.988" stroke="black" stroke-width="5" stroke-linecap="round"/>
<path d="M489.63 346.988C493.773 346.988 497.13 343.407 497.13 338.988C497.13 334.57 493.773 330.988 489.63 330.988C485.488 330.988 482.13 334.57 482.13 338.988C482.13 343.407 485.488 346.988 489.63 346.988Z" fill="black"/>
<path d="M423.63 346.988C428.325 346.988 432.13 343.854 432.13 339.988C432.13 336.122 428.325 332.988 423.63 332.988C418.936 332.988 415.13 336.122 415.13 339.988C415.13 343.854 418.936 346.988 423.63 346.988Z" fill="black"/>
<path d="M407.13 322.988C408.776 318.763 415.89 310.948 431.13 313.483" stroke="black" stroke-width="5" stroke-linecap="round"/>
<path d="M477.13 313.988C480.765 311.725 490.656 308.555 501.13 313.988" stroke="black" stroke-width="5" stroke-linecap="round"/>
<path d="M451.929 336.988C450.779 346.543 449.979 365.922 456.13 366.988" stroke="black" stroke-width="5" stroke-linecap="round"/>
<path d="M476.661 97.03C347.129 67.4539 335.34 180.303 338.428 214.713C338.495 215.46 338.967 216.044 339.671 216.304C356.02 222.348 396.147 231.42 435.16 222.335C475.105 213.034 489.63 222.335 506.489 228.148C512.974 230.086 527.629 232.153 534.372 224.919C542.802 215.876 553.123 114.488 476.661 97.03Z" stroke="black" stroke-width="5" stroke-linecap="round"/>
<path d="M391.63 191.987C414.964 189.487 469.63 187.187 501.63 197.987" stroke="black" stroke-width="5" stroke-linecap="round"/>
<path d="M435.629 102.988C432.963 116.655 428.429 148.588 431.629 166.988" stroke="black" stroke-width="5" stroke-linecap="round"/>
<path d="M457.13 104.488C460.797 117.322 467.03 147.788 462.63 166.988" stroke="black" stroke-width="5" stroke-linecap="round"/>
<path d="M399.599 482.141C307.599 518.141 244.599 673.641 286.099 738.641C298.192 757.582 328.099 776.641 361.599 779.641" stroke="black" stroke-width="5" stroke-linecap="round"/>
<path d="M369.099 1586.16C410.711 1566.54 512 1528.58 584.267 1533.59C594.513 1534 609.987 1538.36 589.914 1552.37C569.839 1566.39 559.802 1573.65 557.294 1575.53C546.838 1584.29 536.591 1602.8 579.249 1606.81C632.57 1611.82 783.126 1557.37 1081.1 1597.42" stroke="black" stroke-width="5" stroke-linecap="round"/>
<path d="M35.0991 1212.14V1176.14" stroke="black" stroke-width="5" stroke-linecap="round"/>
<path d="M3.09912 1196.14L22.0991 1212.14" stroke="black" stroke-width="5" stroke-linecap="round"/>
<path d="M48.0991 1212.14L63.0991 1189.14" stroke="black" stroke-width="5" stroke-linecap="round"/>
<path d="M787.099 1428.14V1375.14" stroke="black" stroke-width="5" stroke-linecap="round"/>
<path d="M739.099 1405.14L768.099 1428.14" stroke="black" stroke-width="5" stroke-linecap="round"/>
<path d="M807.099 1428.14L828.099 1394.14" stroke="black" stroke-width="5" stroke-linecap="round"/>
<path d="M376.101 1150.64C358.399 1129.93 322.433 878.141 331.1 774.141C339.599 778.141 352.599 782.141 362.105 780.141L374.605 788.141V813.641C458.605 866.441 564.939 858.974 607.605 848.641C643.105 1129.14 607.605 1150.64 564.102 1145.14C535.132 1141.48 502.101 1068.47 495.101 1029.14C495.434 1041.81 490.201 1083.14 468.601 1131.14C441.601 1191.14 399.604 1178.14 376.101 1150.64Z" fill="black"/>
<path d="M330.599 718.642C352.099 704.641 379.929 696.747 363.459 715.751C346.979 734.755 374.019 728.42 389.589 722.878C395.929 720.502 408.599 717.968 408.599 726.837C408.599 729.889 405.409 732.653 400.679 735.052C391.659 739.625 377.039 742.872 368.209 744.257" stroke="black" stroke-width="5" stroke-linecap="round"/>
<path d="M380.878 767.973C380.083 772.755 375.64 779.326 364.599 781.152" stroke="black" stroke-width="5" stroke-linecap="round"/>
<path d="M395.659 750.59C400.279 754.921 402.079 763.34 380.879 767.972C376.239 768.985 370.509 769.817 363.459 770.385" stroke="black" stroke-width="5" stroke-linecap="round"/>
<path d="M400.679 735.051C406.389 737.929 410.229 743.972 395.659 750.591C389.349 753.456 379.589 756.43 365.039 759.301" stroke="black" stroke-width="5" stroke-linecap="round"/>
<path d="M371.599 726.639V609.192C371.599 607.38 373.882 606.43 375.263 607.603C397.052 626.1 458.982 648.08 578.599 626.639C737.599 598.139 836.099 594.639 953.099 616.639C1046.7 634.239 1070.43 648.972 1070.6 654.139V733.139" stroke="black" stroke-width="5" stroke-linecap="round"/>
<path d="M816.099 811.641C779.599 815.474 692.599 826.741 636.599 841.141C566.599 859.141 511.599 863.141 439.099 841.141C381.099 823.541 375.6 816.141 375.599 811.641V788.641" stroke="black" stroke-width="5" stroke-linecap="round"/>
<path d="M389.132 1185.14C378.132 1197.47 349.932 1223.64 325.132 1229.64C294.132 1237.14 333.132 1258.14 384.132 1247.14C435.132 1236.14 439.632 1229.64 452.632 1185.14" stroke="black" stroke-width="5" stroke-linecap="round"/>
<path d="M571.132 1172.64C572.132 1191.31 580.532 1227.94 606.132 1225.14C638.132 1221.64 685.132 1205.14 703.632 1192.14C722.132 1179.14 725.632 1164.14 703.632 1162.64C681.632 1161.14 628.132 1188.64 617.132 1156.14" stroke="black" stroke-width="5" stroke-linecap="round"/>
<path d="M927.184 1192.14C930.35 1207.81 928.084 1239.94 893.684 1243.14C850.684 1247.14 793.184 1255.64 808.684 1234.14C824.184 1212.64 849.683 1230.14 871.683 1198.64" stroke="black" stroke-width="5" stroke-linecap="round"/>
<path d="M1046.57 1185.14C1044.41 1199.81 1048.57 1229.54 1082.57 1231.14C1125.07 1233.14 1194.07 1244.64 1191.07 1218.14C1186.57 1200.64 1124.87 1191.14 1114.07 1185.14" stroke="black" stroke-width="5" stroke-linecap="round"/>
<path d="M844.6 1074.14C847.6 1041.14 851.433 913.141 854.099 860.141C867.599 860.641 893.999 851.741 891.599 812.141C939.599 807.341 1030.43 843.807 1068.1 862.141V728.141H1113.6C1125.6 760.141 1138.6 906.807 1143.6 976.141C1147.43 1031.31 1142.9 1146.84 1094.1 1167.64C1045.3 1188.44 1000.1 1132.31 983.599 1101.64C973.933 1124.81 943.6 1171.74 899.6 1174.14C844.6 1177.14 841.599 1107.14 844.6 1074.14Z" fill="black"/>
<path d="M880.099 827.211C888.599 818.711 892.599 795.711 880.099 797.211" stroke="black" stroke-width="5" stroke-linecap="round"/>
<path d="M817.099 822.142C826.932 806.475 848.999 775.542 858.599 777.142C868.199 778.742 852.932 807.808 844.099 822.142" stroke="black" stroke-width="5" stroke-linecap="round"/>
<path d="M858.913 794.489C861.139 787.494 867.319 777.658 875.343 783.063C885.373 789.819 874.023 812.496 867.466 823.919" stroke="black" stroke-width="5" stroke-linecap="round"/>
<path d="M1114.09 717.141C1138.21 655.863 1116.99 545.229 1107.57 521.387C1107.1 520.202 1107.71 518.865 1108.94 518.548C1170.27 502.813 1292.11 451.609 1295.59 410.548C1301.59 339.748 1193.76 369.382 1139.09 393.048L1068.06 415.581C1067.19 415.856 1066.62 416.682 1066.67 417.591L1069.31 468.592C1069.4 470.453 1067.13 471.423 1065.85 470.064L1026.71 428.345C1025.61 427.166 1023.63 427.719 1023.3 429.301L1010.01 492.267C1009.66 493.958 1007.47 494.431 1006.44 493.038L963.085 433.997C962.509 433.213 961.488 432.943 960.605 433.35C933.785 445.713 852.628 461.769 828.099 598.641" stroke="black" stroke-width="5" stroke-linecap="round"/>
<path d="M1300.6 399.048C1307.23 398.563 1318.42 391.95 1321.36 376.466C1321.52 375.622 1322.17 374.947 1323.01 374.801C1339.4 371.959 1353.17 370.325 1355.6 362.548C1359.19 351.048 1330.43 355.715 1317.6 359.548" stroke="black" stroke-width="5" stroke-linecap="round"/>
<path d="M1279.1 369.047C1301.43 349.713 1359.1 318.047 1376.1 328.047C1390.84 336.718 1375.1 342.713 1359.6 347.546" stroke="black" stroke-width="5" stroke-linecap="round"/>
<path d="M1363.1 357.547C1370.27 363.214 1375.6 377.247 1339.6 388.047" stroke="black" stroke-width="5" stroke-linecap="round"/>
<path d="M1372.1 375.047C1378.1 380.714 1380.5 394.647 1342.1 405.047" stroke="black" stroke-width="5" stroke-linecap="round"/>
<path d="M889.099 813.141C892.599 827.641 885.599 859.641 856.099 859.641C822.099 859.641 814.099 840.641 792.099 814.641" stroke="black" stroke-width="5" stroke-linecap="round"/>
<path d="M928.099 601.734C929.599 595.401 932.999 582.434 934.599 581.234C936.599 579.734 945.599 596.652 947.099 608.652" stroke="black" stroke-width="5" stroke-linecap="round"/>
<path d="M517.599 660.141C518.266 688.474 517.599 756.141 509.599 800.141" stroke="black" stroke-width="5" stroke-linecap="round"/>
<path d="M637.1 660.141C634.433 688.474 630.7 752.741 637.1 783.141" stroke="black" stroke-width="5" stroke-linecap="round"/>
<path d="M758.099 648.141C763.099 673.141 770.099 735.141 758.099 783.141" stroke="black" stroke-width="5" stroke-linecap="round"/>
<path d="M920.6 660.141C917.933 685.807 914.2 743.341 920.6 768.141" stroke="black" stroke-width="5" stroke-linecap="round"/>
<path d="M1453.52 1235.29L1444.15 1267.3C1443.53 1269.43 1444.38 1271.74 1446.32 1272.81C1466.1 1283.74 1484.79 1278.33 1494.18 1272.82C1495.99 1271.75 1496.69 1269.55 1496.08 1267.53L1486.31 1235.55C1486 1234.53 1485.37 1233.62 1484.48 1233.03C1471.68 1224.42 1460.13 1228.98 1454.93 1233.09C1454.23 1233.64 1453.77 1234.43 1453.52 1235.29Z" fill="black"/>
<path d="M1415.1 1359.23L1429.69 1308.14C1463.99 1328.02 1497.5 1316.42 1509.96 1308.14L1524.1 1359.23C1480.32 1386.23 1433.19 1370.48 1415.1 1359.23Z" fill="black"/>
<path d="M1383.1 1451.69L1400.86 1403.14C1454.07 1432.01 1516.56 1415.17 1541.16 1403.14L1557.1 1451.69C1484.58 1490.54 1410.88 1467.88 1383.1 1451.69Z" fill="black"/>
<path d="M1368.24 1486.95L1378.27 1466.5C1361.09 1474.08 1323.18 1491.31 1308.96 1499.67C1294.73 1508.03 1303.03 1518.91 1308.96 1523.3C1354.71 1547.54 1448.68 1597.55 1458.53 1603.73C1468.38 1609.91 1479.66 1606.3 1484.07 1603.73C1524.35 1582.68 1609.65 1537.66 1628.62 1526.03C1647.59 1514.4 1636.53 1502.7 1628.62 1498.31L1562.5 1465.14L1572.53 1484.22C1577.09 1498.31 1566 1506.49 1561.59 1510.58C1498.48 1557.47 1416.42 1532.84 1383.29 1514.67C1366.14 1504.49 1366.11 1491.95 1368.24 1486.95Z" fill="black"/>
<path d="M378.099 561.141L379.986 558.28C391.359 541.12 413.289 534.268 432.482 541.885C449.703 548.718 469.389 543.957 481.527 530.024L497.099 512.141" stroke="black" stroke-width="5" stroke-linecap="round"/>
<path d="M486.192 470.252C490.567 457.976 486.567 449.714 482.686 448.141C459.298 468.916 423.826 461.204 410.686 448.612C406.005 452.767 408.728 465.059 410.686 468.836C436.013 496.033 472.065 480.798 486.192 470.252Z" fill="black"/>
<path d="M502.599 465.141C547.099 487.141 598.099 530.641 601.599 612.641" stroke="black" stroke-width="5" stroke-linecap="round"/>
</svg>
