<svg width="1260" height="1291" viewBox="0 0 1260 1291" fill="none" xmlns="http://www.w3.org/2000/svg">
<path d="M1014.77 393.818C1022.79 422.738 1026.81 425.301 1038.48 438.113C1038.48 425.451 1040.65 404.196 1040.65 395.346C1078.87 395.346 1111.13 379.688 1122.48 371.859C1122.08 398.41 1146.88 415.77 1146.88 415.77C1146.88 415.77 1143.32 426.492 1141.29 450.49C1139.67 469.688 1144.34 465.978 1146.88 461.723C1154.2 438.032 1166.2 444.363 1171.28 450.49C1233.66 348.79 1137.73 329.14 1119.44 331.012C1105.61 319.166 1086.33 309.883 1072.77 308.522C1023.89 303.611 1001.75 346.925 1014.77 393.818Z" fill="black"/>
<path d="M1146.1 479.553C1139.5 519.737 1095.17 548.631 1063.19 516.08C1031.2 483.529 1037.6 423.945 1041.02 396.141" stroke="black" stroke-width="5" stroke-linecap="round"/>
<path d="M1172.7 447.141C1176.81 457.402 1172.96 480.141 1146.1 480.141" stroke="black" stroke-width="5" stroke-linecap="round"/>
<path d="M1160.9 454.141C1161.52 455.998 1161.03 460.398 1154.1 463.141" stroke="black" stroke-width="5" stroke-linecap="round"/>
<path d="M1042.1 475.141C1034.06 471.473 1028.39 457.891 1030.57 436.141" stroke="black" stroke-width="5" stroke-linecap="round"/>
<path d="M1090.1 497.707C1082.43 499.763 1082.92 494.105 1077.1 489.141" stroke="black" stroke-width="5" stroke-linecap="round"/>
<ellipse rx="5" ry="6" transform="matrix(-1 0 0 1 1065.1 447.141)" fill="black"/>
<circle r="5.5" transform="matrix(-1 0 0 1 1113.6 447.641)" fill="black"/>
<path d="M1126.1 436.141C1124.93 432.339 1119.9 425.305 1109.1 427.586" stroke="black" stroke-width="5" stroke-linecap="round"/>
<path d="M1075.1 429.141C1072.52 427.631 1065.52 425.518 1058.1 429.141" stroke="black" stroke-width="5" stroke-linecap="round"/>
<path d="M1092.45 445.141C1093.39 452.148 1094.02 466.358 1089.1 467.141" stroke="black" stroke-width="5" stroke-linecap="round"/>
<path d="M816.085 905.141C816.315 895.566 813.81 873.049 801.954 859.579C787.133 842.741 786.099 832.506 786.099 801.141" stroke="black" stroke-width="5" stroke-linecap="round"/>
<path d="M822.099 811.141C816.871 810.153 807.983 803.571 814.257 785.141" stroke="black" stroke-width="5" stroke-linecap="round"/>
<path d="M893.099 811.141C905.529 803.814 925.48 785.814 905.84 772.429C903.147 770.46 896.828 769.279 893.099 780.302" stroke="black" stroke-width="5" stroke-linecap="round"/>
<path d="M902.099 783.141C901.892 786.266 899.803 792.641 893.099 793.141" stroke="black" stroke-width="5" stroke-linecap="round"/>
<path d="M863.099 763.141C860.535 761.631 853.945 759.518 848.099 763.141" stroke="black" stroke-width="5" stroke-linecap="round"/>
<path d="M804.099 766.141C801.022 765.386 793.115 764.33 786.099 766.141" stroke="black" stroke-width="5" stroke-linecap="round"/>
<path d="M881.914 688.334C956.265 696.108 933.547 752.777 912.894 780.141C908.675 770.759 900.37 770.424 896.745 771.429C893.317 718.624 860.602 725.749 844.673 735.913C811.452 734.572 803.147 747.863 803.147 754.676C788.747 745.544 776.553 756.266 775.565 758.611C738.653 649.248 831.38 666.555 881.914 688.334Z" fill="black"/>
<path d="M830.599 775.641C830.599 788.39 840.719 798.641 853.099 798.641C865.479 798.641 875.599 788.39 875.599 775.641C875.599 762.891 865.479 752.641 853.099 752.641C840.719 752.641 830.599 762.891 830.599 775.641Z" stroke="black" stroke-width="5"/>
<ellipse rx="5.5" ry="7" transform="matrix(-1 0 0 1 853.599 780.141)" fill="black"/>
<circle r="23" transform="matrix(-1 0 0 1 792.599 775.641)" stroke="black" stroke-width="5"/>
<circle r="7" transform="matrix(-1 0 0 1 792.099 780.141)" fill="black"/>
<path d="M816.099 775.141H829.099" stroke="black" stroke-width="5" stroke-linecap="round"/>
<path d="M877.099 772.141L894.099 776.141" stroke="black" stroke-width="5" stroke-linecap="round"/>
<path d="M812.099 832.141C815.942 835.914 826.923 841.196 840.099 832.141" stroke="black" stroke-width="5" stroke-linecap="round"/>
<path d="M639.185 96.3956C608.07 100.907 596.835 139.054 595.106 157.564C586.221 186.934 587.008 211.321 593.271 229.578C594.315 234.205 591.822 242.332 573.499 237.82C555.176 233.309 562.983 201.813 569.178 186.63C572.635 178.647 573.499 163.927 573.499 157.564C566.93 71.8414 619.162 62.5577 646.099 68.6312C637.802 74.1841 638.032 89.4545 639.185 96.3956Z" fill="black"/>
<path d="M748.243 116.813C734.746 47.1806 653.765 50.226 629.383 71.551C601.954 106.367 672.051 192.538 691.208 184.269C704.791 173.824 714.985 179.482 717.766 184.269C730.305 205.855 712.541 217.925 702.092 221.262C704.878 236.233 669.003 252.596 674.228 263.912C702.092 299.163 787.426 241.716 766.964 224.308C750.593 210.382 751.479 192.539 751.725 184.269C753.032 140.314 751.725 136.833 748.243 116.813Z" fill="black"/>
<path d="M628.099 211.141C612.818 207.712 620.883 200.855 624.279 187.141" stroke="black" stroke-width="5" stroke-linecap="round"/>
<ellipse rx="3.97019" ry="5.95529" transform="matrix(-0.981591 0.190995 0.190995 0.981591 604.859 173.401)" fill="black"/>
<ellipse rx="3.91752" ry="5.87628" transform="matrix(-0.988875 0.148746 0.148746 0.988875 649.148 184.589)" fill="black"/>
<path d="M708.099 191.141C709.608 193.741 711.721 199.981 708.099 204.141" stroke="black" stroke-width="5" stroke-linecap="round"/>
<path d="M678.099 258.737C642.352 258.737 622.54 282.567 591.099 230.141" stroke="black" stroke-width="5" stroke-linecap="round"/>
<path d="M632.099 235.075C623.806 237.814 617.172 235.075 615.099 229.141" stroke="black" stroke-width="5" stroke-linecap="round"/>
<path d="M633.599 185.141C633.599 195.665 641.051 203.641 649.599 203.641C658.147 203.641 665.599 195.665 665.599 185.141C665.599 174.616 658.147 166.641 649.599 166.641C641.051 166.641 633.599 174.616 633.599 185.141Z" stroke="black" stroke-width="5"/>
<path d="M589.599 173.641C589.599 183.897 596.834 191.641 605.099 191.641C613.364 191.641 620.599 183.897 620.599 173.641C620.599 163.384 613.364 155.641 605.099 155.641C596.834 155.641 589.599 163.384 589.599 173.641Z" stroke="black" stroke-width="5"/>
<path d="M622.099 176.427C624.813 175.911 631.013 175.73 634.099 179.141" stroke="black" stroke-width="5" stroke-linecap="round"/>
<path d="M665.649 178.602L679.089 179.035" stroke="black" stroke-width="5" stroke-linecap="round"/>
<path d="M184.425 372.399C213.422 374.184 213.68 345.797 210.185 331.382C175.308 316.689 194.15 281.218 202.978 294.506C210.04 305.136 218.818 305.201 222.326 303.904C237.083 301.022 230.348 279.176 225.135 268.613L250.534 245.889C257.105 248.518 274.992 246.595 293.986 217.871C312.98 189.148 294.164 166.771 282.383 159.173C269.352 152.343 230.765 145.613 180.671 173.329C130.576 201.045 125.74 254.02 129.584 277.043C135.782 308.084 155.428 370.614 184.425 372.399Z" fill="black"/>
<path d="M246.788 248.195C266.677 272.106 302.443 332.077 286.389 380.679C281.609 391.794 266.824 414.692 233.676 419.591" stroke="black" stroke-width="5" stroke-linecap="round"/>
<path d="M180.723 379.32C184.259 398.682 184.912 402.262 185.762 424.234" stroke="black" stroke-width="5" stroke-linecap="round"/>
<path d="M271.362 286.004C287.082 297.203 312.74 321.74 289.594 330.297" stroke="black" stroke-width="5" stroke-linecap="round"/>
<path d="M254.968 270.918C251.088 272.658 243.359 278.703 243.475 288.959" stroke="black" stroke-width="5" stroke-linecap="round"/>
<path d="M212.562 307.973C210.712 311.263 209.168 318.194 217.787 319.605" stroke="black" stroke-width="5" stroke-linecap="round"/>
<path d="M287.362 366.527C283.435 363.994 275.595 356.855 275.652 348.559" stroke="black" stroke-width="5" stroke-linecap="round"/>
<path d="M241.637 326.877C239.966 326.479 238.934 324.802 239.331 323.132C239.729 321.461 241.407 320.429 243.078 320.827C244.75 321.224 245.782 322.901 245.384 324.572C244.987 326.242 243.309 327.274 241.637 326.877Z" fill="black"/>
<path d="M259.621 296.632C257.519 297.076 255.311 295.053 254.689 292.113C254.067 289.172 255.265 286.429 257.367 285.984C259.468 285.54 261.676 287.563 262.298 290.503C262.921 293.444 261.722 296.187 259.621 296.632Z" fill="black"/>
<path d="M251.655 345.244C249.984 344.846 248.951 343.169 249.349 341.499C249.747 339.828 251.425 338.796 253.096 339.194C254.768 339.592 255.8 341.268 255.402 342.939C255.004 344.61 253.327 345.642 251.655 345.244Z" fill="black"/>
<path d="M232.488 351.869C230.817 351.471 229.784 349.794 230.182 348.124C230.58 346.453 232.258 345.421 233.929 345.819C235.601 346.217 236.633 347.893 236.235 349.564C235.837 351.235 234.16 352.267 232.488 351.869Z" fill="black"/>
<path d="M101.587 640.223C113.409 668.208 160.957 664.321 183.253 658.88L191.809 655.77V665.099L176.253 668.208C167.957 670.798 151.053 681.424 149.809 703.19C148.253 730.398 155.253 803.472 158.364 822.906C160.853 838.454 172.884 844.413 178.586 845.45C187.297 862.241 222.142 857.628 238.475 853.224C239.72 865.04 250.402 863.847 255.586 861.775C256.209 866.128 262.586 866.18 265.697 865.662C284.986 944.021 280.475 1087.47 275.809 1149.4C276.846 1166.25 271.453 1199 241.586 1195.27C211.72 1191.54 159.142 1196.82 136.587 1199.93C99.8755 1206.77 88.1051 1183.61 86.8089 1171.17C56.9422 1181.74 39.6236 1169.87 34.6978 1162.62C43.4089 904.531 82.92 706.817 101.587 640.223Z" fill="black"/>
<path d="M137.766 1290.01C234.21 1293.9 280.099 1274.56 280.099 1261.25C280.099 1255.81 283.21 1250.37 261.432 1242.59C270.766 1255.29 267.344 1279.44 178.988 1274.46C164.728 1275.24 132.632 1271.51 118.321 1250.37H111.321C41.3213 1232.49 0.0991211 1247.16 0.0991211 1260.47C0.0991211 1273.78 57.6547 1286.78 137.766 1290.01Z" fill="black"/>
<path d="M188.697 1211.93C188.697 1215.3 189.475 1222.66 192.586 1225.15C196.475 1228.26 266.475 1220.48 264.92 1255.47C265.697 1260.39 257.92 1267.9 239.253 1270.24C212.998 1273.52 137.738 1283.09 119.691 1250.03L110.142 1214.27" stroke="black" stroke-width="5" stroke-linecap="round"/>
<path d="M119.691 1250.03C67.5973 1255 61.0268 1213.23 64.2532 1191.72" stroke="black" stroke-width="5" stroke-linecap="round"/>
<path d="M131.543 485.086C67.7657 514.626 -10.0121 652.999 70.099 715.967" stroke="black" stroke-width="5" stroke-linecap="round"/>
<path d="M208.142 480.859C234.587 494.334 291.054 563.572 305.365 732.729C306.402 752.941 297.276 793.365 252.476 793.365C207.676 793.365 190.254 672.871 184.809 613.013" stroke="black" stroke-width="5" stroke-linecap="round"/>
<path d="M103.92 648.77C111.698 608.087 129.743 512.885 152.143 482.412C153.439 464.532 158.766 433.778 180.544 436.11C196.877 436.11 238.476 446.031 238.476 477.748V504.956" stroke="black" stroke-width="5" stroke-linecap="round"/>
<path d="M284.365 787.145C285.143 798.286 289.654 821.66 301.476 826.013C316.254 831.455 303.809 853.222 296.031 858.663" stroke="black" stroke-width="5" stroke-linecap="round"/>
<path d="M296.032 826.016C297.847 838.454 296.965 863.33 278.92 863.33" stroke="black" stroke-width="5" stroke-linecap="round"/>
<path d="M278.921 838.453C280.476 846.745 279.076 863.329 261.032 863.329" stroke="black" stroke-width="5" stroke-linecap="round"/>
<path d="M261.032 838.453C263.365 848.04 263.521 865.972 245.476 860.997" stroke="black" stroke-width="5" stroke-linecap="round"/>
<path d="M237.698 798.805C241.327 811.76 246.72 840.006 239.253 849.334" stroke="black" stroke-width="5" stroke-linecap="round"/>
<path d="M299.92 664.32C324.55 663.803 375.365 666.497 381.587 681.423C387.809 696.348 397.661 739.466 401.809 759.16C407.254 785.591 408.498 839.696 369.92 844.672C331.343 849.647 310.032 850.891 305.365 850.891" stroke="black" stroke-width="5" stroke-linecap="round"/>
<path d="M188.698 665.098C173.402 665.875 147.476 670.539 149.809 719.514C152.31 772.006 152.142 847.781 180.92 845.449" stroke="black" stroke-width="5" stroke-linecap="round"/>
<path d="M237.698 851.668C220.847 857.627 185.12 862.551 177.031 834.565C168.942 806.58 164.847 735.839 163.809 703.966C163.291 694.896 168.009 676.136 191.031 673.648" stroke="black" stroke-width="5" stroke-linecap="round"/>
<path d="M297.586 648.771C315.993 646.957 353.898 648.149 358.253 667.428" stroke="black" stroke-width="5" stroke-linecap="round"/>
<path d="M687.099 788.641C687.099 698.342 760.077 625.141 850.099 625.141C940.122 625.141 1013.1 698.342 1013.1 788.641C1013.1 878.939 940.122 952.141 850.099 952.141C823.901 952.141 799.146 945.941 777.213 934.924" stroke="black" stroke-width="5" stroke-linecap="round"/>
<path d="M666.099 330.141C756.122 330.141 829.099 256.939 829.099 166.641C829.099 76.3421 756.122 3.14062 666.099 3.14062C576.077 3.14061 503.099 76.3421 503.099 166.641C503.099 192.92 509.28 217.75 520.263 239.75" stroke="black" stroke-width="5" stroke-linecap="round"/>
<path d="M947.099 338.86C973.644 284.545 1029.38 247.141 1093.83 247.141C1184 247.141 1257.1 320.342 1257.1 410.641C1257.1 500.939 1184 574.141 1093.83 574.141C1029.38 574.141 973.644 536.737 947.099 482.421" stroke="black" stroke-width="5" stroke-linecap="round"/>
<path d="M476.367 453.324C497.101 464.426 549.422 467.14 595.099 391.201C595.974 389.746 598.191 389.896 598.8 391.482C614.485 432.391 651.164 492.807 750.648 462.61C793.702 449.542 815.917 409.382 774.504 403.221C718.148 394.836 716.204 539.115 793.634 578.863" stroke="black" stroke-width="5" stroke-linecap="round"/>
</svg>
