<svg width="863" height="827" viewBox="0 0 863 827" fill="none" xmlns="http://www.w3.org/2000/svg">
<path d="M396.599 521.844V679.409C396.599 679.935 397.007 680.371 397.532 680.407L530.027 689.339C530.075 689.342 530.123 689.342 530.171 689.338L582.599 685.344" stroke="black" stroke-width="7" stroke-linecap="round"/>
<path d="M396.599 521.344L528.976 504.983C529.573 504.909 530.099 505.374 530.099 505.975V687.344" stroke="black" stroke-width="7" stroke-linecap="round"/>
<path d="M556.5 506.344L726.663 517.284C727.19 517.317 727.599 517.754 727.599 518.282V584.344" stroke="black" stroke-width="7" stroke-linecap="round"/>
<path d="M397.099 680.344H347.099C346.547 680.344 346.099 680.791 346.099 681.344V740.483C346.099 740.978 346.461 741.398 346.95 741.472L494.45 763.671C495.055 763.762 495.599 763.294 495.599 762.682V705.344" stroke="black" stroke-width="7" stroke-linecap="round"/>
<path d="M495.099 763.844L613.599 752.844" stroke="black" stroke-width="7" stroke-linecap="round"/>
<path d="M565.099 760.844V635.844L619.099 760.844H565.099Z" fill="black" fill-opacity="0.3"/>
<path d="M715.025 700.649L637.035 538.333C636.383 536.975 637.408 535.412 638.913 535.468L674.402 536.799C675.139 536.826 675.801 537.258 676.124 537.921L754.474 698.562C754.848 699.329 754.694 700.249 754.09 700.852L738.152 716.791C737.796 717.147 737.32 717.355 736.818 717.375L705.278 718.654C703.519 718.725 702.532 716.653 703.697 715.332L714.722 702.838C715.254 702.235 715.373 701.373 715.025 700.649Z" fill="black"/>
<path d="M670.509 747.96L663.042 755.752C661.795 757.053 662.769 759.21 664.57 759.134L694.372 757.874C694.842 757.855 695.289 757.67 695.636 757.353L702.791 750.821C704.139 749.59 703.268 747.344 701.442 747.344H671.953C671.407 747.344 670.886 747.566 670.509 747.96Z" fill="black"/>
<path d="M445.599 532.597V517.095C445.599 516.092 446.341 515.245 447.335 515.112L473.335 511.646C474.534 511.486 475.599 512.419 475.599 513.628V529.564C475.599 530.578 474.839 531.432 473.831 531.55L447.831 534.583C446.643 534.722 445.599 533.793 445.599 532.597Z" fill="black"/>
<path d="M400.599 734.1V747.13C400.599 748.116 401.318 748.955 402.292 749.107L427.292 752.986C428.505 753.174 429.599 752.236 429.599 751.009V737.117C429.599 736.105 428.843 735.253 427.839 735.131L402.839 732.114C401.648 731.97 400.599 732.9 400.599 734.1Z" fill="black"/>
<path d="M447.599 665.844V681.499C447.599 682.541 448.399 683.408 449.438 683.492L476.438 685.669C477.603 685.763 478.599 684.844 478.599 683.676V665.844C478.599 664.739 477.704 663.844 476.599 663.844H449.599C448.495 663.844 447.599 664.739 447.599 665.844Z" fill="black"/>
<path d="M400.599 704.571V682.986C400.599 681.828 401.581 680.911 402.737 680.991L427.737 682.715C428.785 682.788 429.599 683.659 429.599 684.711V707.588C429.599 708.787 428.55 709.717 427.359 709.573L402.359 706.556C401.355 706.435 400.599 705.583 400.599 704.571Z" fill="black"/>
<path d="M619.028 760.034L546.853 594.425C546.698 594.07 546.762 593.658 547.017 593.367L598.598 534.487C599.071 533.946 599.944 534.067 600.253 534.716L680.287 702.689C680.473 703.079 680.387 703.545 680.073 703.844L620.634 760.36C620.131 760.838 619.306 760.671 619.028 760.034Z" stroke="black" stroke-width="7" stroke-linecap="round"/>
<path d="M620.599 760.844L727.729 755.861C727.968 755.85 728.195 755.754 728.369 755.59L787.157 700.174C787.83 699.54 787.356 698.411 786.432 698.447L699 701.844" stroke="black" stroke-width="7" stroke-linecap="round"/>
<path d="M599.599 533.844L703.019 537.821C703.378 537.835 703.701 538.04 703.867 538.359L787.099 698.344" stroke="black" stroke-width="7" stroke-linecap="round"/>
<path d="M556.322 392.817C582.843 398.256 570.407 434.763 589.846 444.478C613.046 456.074 621.035 390.786 618.016 363.074C617.151 350.923 603.001 345.519 601.092 363.074C599.065 381.722 622.206 454.031 648.728 426.129L666.437 405.643C671.357 399.581 681.057 391.159 689.255 405.643C697.451 420.126 710.513 415.34 716.019 411.136L733.322 398.553" stroke="black" stroke-width="5" stroke-linecap="round"/>
<path d="M720.493 342.869L858.927 319.419C859.914 319.252 860.507 320.478 859.763 321.148L795.227 379.269C795.153 379.335 795.076 379.389 794.984 379.427C789.372 381.736 767.27 372.975 755.859 367.84C755.298 367.588 754.643 367.894 754.475 368.486C751.742 378.129 748.392 387.079 746.755 391.101C746.578 391.536 746.095 391.79 745.739 391.484C742.425 388.638 742.01 370.461 742.253 360.404C742.266 359.89 741.89 359.454 741.384 359.364C732.91 357.849 721.245 350.283 716.322 346.565" stroke="black" stroke-width="5" stroke-linecap="round"/>
<path d="M755.322 367.844C769.838 360.963 806.56 343.73 837.322 329.844" stroke="black" stroke-width="5" stroke-linecap="round"/>
<path d="M746.322 391.844L773.322 375.844" stroke="black" stroke-width="5" stroke-linecap="round"/>
<path d="M752.322 353.844L789.322 341.844" stroke="black" stroke-width="5" stroke-linecap="round"/>
<path d="M222.099 307.844V12.8438C222.099 7.32091 226.576 2.84375 232.099 2.84375H520.099C525.622 2.84375 530.099 7.3209 530.099 12.8438V342.844C530.099 348.367 525.622 352.844 520.099 352.844H248.599" stroke="black" stroke-width="5" stroke-linecap="round"/>
<path d="M260.099 61.8438H340.099" stroke="black" stroke-width="7" stroke-linecap="round"/>
<path d="M371.099 62.3438H381.599" stroke="black" stroke-width="7" stroke-linecap="round"/>
<path d="M401.099 62.3438H411.599" stroke="black" stroke-width="7" stroke-linecap="round"/>
<path d="M431.099 62.3438H441.599" stroke="black" stroke-width="7" stroke-linecap="round"/>
<mask id="path-26-inside-1_70_2652" fill="white">
<rect x="466.099" y="47.8438" width="26" height="26" rx="2"/>
</mask>
<rect x="466.099" y="47.8438" width="26" height="26" rx="2" stroke="black" stroke-width="10" mask="url(#path-26-inside-1_70_2652)"/>
<path d="M260.099 108.844H340.099" stroke="black" stroke-width="7" stroke-linecap="round"/>
<path d="M371.099 109.344H381.599" stroke="black" stroke-width="7" stroke-linecap="round"/>
<path d="M401.099 109.344H411.599" stroke="black" stroke-width="7" stroke-linecap="round"/>
<path d="M431.099 109.344H441.599" stroke="black" stroke-width="7" stroke-linecap="round"/>
<mask id="path-31-inside-2_70_2652" fill="white">
<rect x="466.099" y="94.8438" width="26" height="26" rx="2"/>
</mask>
<rect x="466.099" y="94.8438" width="26" height="26" rx="2" stroke="black" stroke-width="10" mask="url(#path-31-inside-2_70_2652)"/>
<path d="M260.099 155.844H340.099" stroke="black" stroke-width="7" stroke-linecap="round"/>
<path d="M371.099 156.344H381.599" stroke="black" stroke-width="7" stroke-linecap="round"/>
<path d="M401.099 156.344H411.599" stroke="black" stroke-width="7" stroke-linecap="round"/>
<path d="M431.099 156.344H441.599" stroke="black" stroke-width="7" stroke-linecap="round"/>
<mask id="path-36-inside-3_70_2652" fill="white">
<rect x="466.099" y="141.844" width="26" height="26" rx="2"/>
</mask>
<rect x="466.099" y="141.844" width="26" height="26" rx="2" stroke="black" stroke-width="10" mask="url(#path-36-inside-3_70_2652)"/>
<path d="M260.099 202.844H340.099" stroke="black" stroke-width="7" stroke-linecap="round"/>
<path d="M371.099 203.344H381.599" stroke="black" stroke-width="7" stroke-linecap="round"/>
<path d="M401.099 203.344H411.599" stroke="black" stroke-width="7" stroke-linecap="round"/>
<path d="M431.099 203.344H441.599" stroke="black" stroke-width="7" stroke-linecap="round"/>
<mask id="path-41-inside-4_70_2652" fill="white">
<rect x="466.099" y="188.844" width="26" height="26" rx="2"/>
</mask>
<rect x="466.099" y="188.844" width="26" height="26" rx="2" stroke="black" stroke-width="10" mask="url(#path-41-inside-4_70_2652)"/>
<path d="M260.099 249.844L340.099 249.844" stroke="black" stroke-width="7" stroke-linecap="round"/>
<path d="M371.099 250.344H381.599" stroke="black" stroke-width="7" stroke-linecap="round"/>
<path d="M401.099 250.344H411.599" stroke="black" stroke-width="7" stroke-linecap="round"/>
<path d="M431.099 250.344H441.599" stroke="black" stroke-width="7" stroke-linecap="round"/>
<mask id="path-46-inside-5_70_2652" fill="white">
<rect x="466.099" y="235.844" width="26" height="26" rx="2"/>
</mask>
<rect x="466.099" y="235.844" width="26" height="26" rx="2" stroke="black" stroke-width="10" mask="url(#path-46-inside-5_70_2652)"/>
<path d="M260.599 296.845L340.101 296.845" stroke="black" stroke-width="7" stroke-linecap="round"/>
<path d="M371.099 297.344H381.599" stroke="black" stroke-width="7" stroke-linecap="round"/>
<path d="M401.099 297.344H411.599" stroke="black" stroke-width="7" stroke-linecap="round"/>
<path d="M431.099 297.344H441.599" stroke="black" stroke-width="7" stroke-linecap="round"/>
<mask id="path-51-inside-6_70_2652" fill="white">
<rect x="466.099" y="282.844" width="26" height="26" rx="2"/>
</mask>
<rect x="466.099" y="282.844" width="26" height="26" rx="2" stroke="black" stroke-width="10" mask="url(#path-51-inside-6_70_2652)"/>
<path d="M90.0991 401.844C102.686 392.626 130.391 375.813 140.463 382.293C153.05 390.392 145.014 391.509 138.585 389.834" stroke="black" stroke-width="5" stroke-linecap="round"/>
<path d="M127 389.274C133.507 388.262 146.635 388.39 147.07 397.012C147.316 402.039 145.983 401.203 143.542 399.633C141.793 398.51 139.475 397.012 136.761 397.012H125.099" stroke="black" stroke-width="5" stroke-linecap="round"/>
<path d="M125.099 397.844H136.95C139.708 397.844 142.063 399.331 143.841 400.446C145.581 403.601 146.869 409.419 138.055 407.444C129.242 405.469 125.743 406.073 125.099 406.621" stroke="black" stroke-width="5" stroke-linecap="round"/>
<path d="M138.179 406.844C141.013 410.131 144.283 416.322 134.724 414.788C125.165 413.254 117.644 417.984 115.078 420.54C110.744 423.462 100.472 427.114 94.0991 418.349" stroke="black" stroke-width="5" stroke-linecap="round"/>
<path d="M45.6673 414.995C91.2205 389.775 91.2674 413.527 87.419 428.012C81.7261 442.656 53.4858 458.787 40.8077 460.717C22.9235 464.821 -8.7438 459.958 7.67972 407.673C28.2138 342.318 37.5024 294.589 106.099 281.844" stroke="black" stroke-width="5" stroke-linecap="round"/>
<path d="M70.0991 358.844C70.0991 383.257 68.6591 382.682 58.0991 404.844" stroke="black" stroke-width="5" stroke-linecap="round"/>
<path d="M163.099 371.844V364.844" stroke="black" stroke-width="5" stroke-linecap="round"/>
<path d="M171.099 370.844L174.099 362.844" stroke="black" stroke-width="5" stroke-linecap="round"/>
<path d="M179.099 373.844L186.099 357.844" stroke="black" stroke-width="5" stroke-linecap="round"/>
<path d="M89.4276 762.844C90.3433 770.494 88.5118 782.407 79.9618 786.341C69.2719 791.259 41.8744 807.926 68.1786 811.478C89.222 814.319 106.173 799.911 112.022 792.352C114.031 783.608 115.461 773.499 112.022 762.844" stroke="black" stroke-width="5" stroke-linecap="round"/>
<path d="M130.696 749.15C36.976 807.848 51.5296 594.969 57.947 491.529C125.998 512.725 181.101 499.138 193.31 479.844C196.776 492.158 207.509 580.32 208.415 605.393L208.452 606.393C209.928 647.154 213.282 740.057 160.401 758.933C147.249 763.628 137.655 759.411 130.696 749.15Z" fill="black"/>
<path d="M139.347 763.744C138.847 769.129 138.97 781.699 140.978 788.726C146.05 806.503 161.389 825.311 198.478 823.753C203.474 822.577 210.47 817.617 198.478 807.19C194.094 803.383 189.342 799.9 184.873 796.301C174.05 787.581 164.943 778.182 167.112 761.844" stroke="black" stroke-width="5" stroke-linecap="round"/>
<path d="M53.0991 458.844C55.0031 480.632 55.8152 479.254 59.0818 491.664C92.0658 501.594 165.043 513.012 193.099 479.254" stroke="black" stroke-width="5" stroke-linecap="round"/>
<path d="M87.0991 331.844L88.1298 330.268C94.342 320.812 106.321 317.037 116.804 321.234C126.211 324.999 136.963 322.375 143.593 314.698L152.099 304.844" stroke="black" stroke-width="5" stroke-linecap="round"/>
<path d="M146.05 281.513C148.456 275.034 146.256 270.674 144.122 269.844C131.259 280.809 111.749 276.738 104.522 270.093C101.947 272.286 103.445 278.773 104.522 280.766C118.452 295.12 138.28 287.08 146.05 281.513Z" fill="black"/>
<path d="M184.363 171.146C178.382 192.514 175.382 194.407 166.682 203.874C166.682 194.519 165.06 178.815 165.06 172.276C136.55 172.276 112.494 160.707 104.019 154.922C104.328 174.539 85.8215 187.366 85.8215 187.366C85.8215 187.366 88.4747 195.288 89.9935 213.018C91.2122 227.204 87.7153 224.462 85.8215 221.318C80.3652 203.814 71.4214 208.492 67.6245 213.018C21.1052 137.878 92.6467 123.359 106.297 124.742C116.609 115.99 130.991 109.131 141.097 108.125C177.566 104.497 194.067 136.5 184.363 171.146Z" fill="black"/>
<path d="M86.0991 235.092C90.9923 265.079 123.821 286.643 147.515 262.35C171.208 238.059 166.464 193.593 163.934 172.844" stroke="black" stroke-width="5" stroke-linecap="round"/>
<path d="M67.0961 210.844C64.1623 218.307 66.915 234.844 86.0991 234.844" stroke="black" stroke-width="5" stroke-linecap="round"/>
<path d="M77.2095 215.844C76.8595 217.081 77.1395 220.015 81.0991 221.844" stroke="black" stroke-width="5" stroke-linecap="round"/>
<path d="M164.099 230.844C170.128 228.211 174.383 218.459 172.746 202.844" stroke="black" stroke-width="5" stroke-linecap="round"/>
<path d="M128.099 249.459C133.999 251.286 133.626 246.257 138.099 241.844" stroke="black" stroke-width="5" stroke-linecap="round"/>
<path d="M147.099 214.844C149.308 214.844 151.099 212.829 151.099 210.344C151.099 207.858 149.308 205.844 147.099 205.844C144.89 205.844 143.099 207.858 143.099 210.344C143.099 212.829 144.89 214.844 147.099 214.844Z" fill="black"/>
<path d="M111.099 214.844C113.861 214.844 116.099 213.053 116.099 210.844C116.099 208.635 113.861 206.844 111.099 206.844C108.338 206.844 106.099 208.635 106.099 210.844C106.099 213.053 108.338 214.844 111.099 214.844Z" fill="black"/>
<path d="M102.099 201.844C102.991 199.731 106.844 195.824 115.099 197.091" stroke="black" stroke-width="5" stroke-linecap="round"/>
<path d="M140.099 196.844C142.068 195.335 147.426 193.221 153.099 196.844" stroke="black" stroke-width="5" stroke-linecap="round"/>
<path d="M126.578 209.844C125.888 214.94 125.408 225.275 129.099 225.844" stroke="black" stroke-width="5" stroke-linecap="round"/>
<path d="M118.832 383.844L104.646 360.572C103.538 358.753 104.167 356.397 106.045 355.345C107.876 354.32 110.204 354.916 111.284 356.683L126.099 380.89" stroke="black" stroke-width="5" stroke-linecap="round"/>
<path d="M122.099 466.844C129.572 442.598 146.97 395.527 158.021 396.872C158.523 396.934 159.025 397.077 159.527 397.148L201.099 402.994" stroke="black" stroke-width="5" stroke-linecap="round"/>
<path d="M207.099 411.844L204.099 423.844" stroke="black" stroke-width="5" stroke-linecap="round"/>
<path d="M159.286 402.844C151.293 407.693 139.402 440.969 132.466 463.361C130.951 468.241 134.298 473.235 139.412 473.871L178.918 478.779C182.957 479.279 186.771 476.854 187.995 473.016L191.099 463.263" stroke="black" stroke-width="5" stroke-linecap="round"/>
<path d="M165.596 406.844C168.106 405.857 173.326 400.04 171.836 394.403C171.583 393.425 171.123 392.451 170.409 391.51C165.596 385.145 157.305 391.511 159.445 396.718" stroke="black" stroke-width="5" stroke-linecap="round"/>
<path d="M172.099 394.747C174.835 391.36 182.23 389.812 186.096 396.489C189.691 404.618 182.781 409.263 178.635 409.844" stroke="black" stroke-width="5" stroke-linecap="round"/>
<path d="M186.099 396.568C188.872 394.392 196.294 391.459 200.589 397.136C205.682 405.934 196.566 411.612 192.805 410.759" stroke="black" stroke-width="5" stroke-linecap="round"/>
<path d="M201.099 396.513C204.694 394.376 211.082 393.446 213.538 399.021C215.994 404.596 209.942 411.844 204.134 411.844" stroke="black" stroke-width="5" stroke-linecap="round"/>
<path d="M179.73 442.844C178.188 444.879 178.508 450.128 192.099 454.844" stroke="black" stroke-width="5" stroke-linecap="round"/>
<path d="M214.099 431.939C200.02 429.079 185.57 428.019 180.096 427.846C177.16 427.754 173.9 430.399 175.539 433.393C175.993 434.16 177.419 435.864 179.485 436.55C188.257 439.564 191.999 439.832 195.861 439.844" stroke="black" stroke-width="5" stroke-linecap="round"/>
<path d="M196.099 439.147C192.208 439.135 188.438 438.867 179.602 435.844C177.587 436.608 177.325 440.242 180.517 442.511C182.532 443.949 186.18 445.713 192.208 447.844" stroke="black" stroke-width="5" stroke-linecap="round"/>
<path d="M147.099 281.844C191.026 299.461 226.054 351.227 221.739 422.237C221.109 432.264 215.97 453.025 200.452 455.844" stroke="black" stroke-width="5" stroke-linecap="round"/>
</svg>
