<svg width="1512" height="1088" viewBox="0 0 1512 1088" fill="none" xmlns="http://www.w3.org/2000/svg">
<path d="M55.0991 231.777V678.82C55.0991 690.935 68.1491 700.777 84.4616 700.777H847.099M1099.1 230.277V382.777" stroke="black" stroke-width="5" stroke-miterlimit="10" stroke-linecap="round"/>
<path d="M425.267 2.03327L383.132 161.187C383.11 161.271 383.099 161.357 383.099 161.443V219.91C383.099 220.346 382.83 220.727 382.414 220.858C267.244 257.033 50.4202 235.935 0.74732 220.841C0.328691 220.714 0.0991211 220.344 0.0991211 219.906V161.619C0.0991211 161.42 0.158471 161.225 0.269581 161.06L107.875 1.2189C108.061 0.942862 108.372 0.777344 108.705 0.777344H424.3C424.956 0.777344 425.435 1.39884 425.267 2.03327Z" fill="black"/>
<path d="M1066.37 1.34216L1144.5 162.977C1144.57 163.113 1144.6 163.261 1144.6 163.412V214.43C1144.6 214.655 1144.55 214.842 1144.41 215.014C1118.18 246.051 781.273 242.922 764.807 228.003C764.624 227.838 764.599 227.66 764.599 227.413V163.183L745.234 1.89656C745.162 1.30128 745.627 0.777344 746.226 0.777344H1065.47C1065.86 0.777344 1066.21 0.996785 1066.37 1.34216Z" fill="black"/>
<path d="M747.198 4.16687L764.599 160.708V225.642C764.599 226.03 764.411 226.366 764.059 226.528C696.282 257.755 425.616 265.127 383.348 220.081C383.177 219.899 383.099 219.674 383.099 219.424V160.834C383.099 160.75 383.109 160.667 383.13 160.585L423.406 4.0282C423.52 3.58626 423.918 3.27734 424.374 3.27734H746.204C746.714 3.27734 747.142 3.66046 747.198 4.16687Z" stroke="black" stroke-width="5" stroke-linecap="round"/>
<path d="M959.099 394.777V345.777C959.099 340.254 954.622 335.777 949.099 335.777H481.099C475.576 335.777 471.099 340.254 471.099 345.777V599.777C471.099 605.3 475.576 609.777 481.099 609.777H870.099" stroke="black" stroke-width="5"/>
<path d="M158.099 435.777C158.099 380.549 203.871 335.777 259.099 335.777C314.328 335.777 360.099 380.549 360.099 435.777V700.777H158.099V435.777Z" fill="black"/>
<path d="M617.641 411.947L616.066 386.062" stroke="black" stroke-width="5" stroke-linecap="round"/>
<path d="M587.268 422.131L563.718 396.84" stroke="black" stroke-width="5" stroke-linecap="round"/>
<path d="M578.868 444.699L553.099 442.153" stroke="black" stroke-width="5" stroke-linecap="round"/>
<path d="M848.58 538.436C835.591 544.767 810.144 547.746 799.044 548.444C793.095 556.332 783.198 561.14 778.993 562.558C794.538 572.313 841.849 560.609 863.562 553.538C858.709 550.101 851.552 542.038 848.58 538.436Z" fill="black"/>
<path d="M889.329 435.616C915.923 411.738 979.302 371.719 1020.07 402.663C1060.83 433.607 1015.59 498.337 991.757 520.392C986.33 525.893 979.656 531.703 972.099 537.232" stroke="black" stroke-width="5" stroke-linecap="round"/>
<path d="M847.278 485.627C837.415 504.153 833.469 534.917 866.316 554.828C885.827 566.655 907.863 566.263 928.599 559.818" stroke="black" stroke-width="5" stroke-linecap="round"/>
<path d="M911.303 456.771L907.31 453.555C904.84 451.565 904.832 447.797 907.332 445.843C942.902 418.046 971.809 410.554 979.177 411.459C1009.36 414.93 1005.91 441.449 1000.41 454.275C1003.65 442.72 999.38 424.604 979.58 422.995C965.948 421.887 933.176 444.962 917.51 456.851C915.665 458.252 913.108 458.225 911.303 456.771Z" fill="black"/>
<path d="M905.331 448.927C929.508 427.868 960.514 415.058 970.664 412.19C975.672 410.996 989.822 409.615 1000.03 420.418C1007.45 428.263 1006.05 441.154 1002.6 450.777" stroke="black" stroke-width="5" stroke-linecap="round"/>
<path d="M881.02 489.367C874.45 502.931 869.447 530.677 901.987 533.147C911.803 533.892 922.575 530.098 933.313 523.777" stroke="black" stroke-width="5" stroke-linecap="round"/>
<path d="M738.348 485.225L753.796 470.86C712.768 452.719 671.388 450.542 655.827 451.721C645.138 452.188 623.062 458.95 620.27 482.261C617.478 505.572 643.067 521.361 654.006 524.944C628.009 504.68 633.713 478.758 656.479 471.635C674.691 465.937 718.647 478.321 738.348 485.225Z" fill="black"/>
<path d="M921.131 529.683C941.01 508.77 940.63 474.913 907.815 451.18C900.138 445.222 875.535 435.179 838.541 442.677C801.547 450.175 778.918 459.032 772.228 462.524C752.121 470.045 714.873 495.992 726.746 539.612" stroke="black" stroke-width="5" stroke-linecap="round"/>
<path d="M744.229 573.588C751.148 579.161 772.165 588.302 802.948 586.404C839.407 584.156 867.064 579.961 888.617 564.191" stroke="black" stroke-width="5" stroke-linecap="round"/>
<path d="M892.493 529.97C885.667 527.642 881.741 522.631 880.63 520.416C882.697 521.687 888.503 520.856 895.192 507.36C901.881 493.864 888.853 481.179 881.503 476.524C886.496 475.015 894.176 478.862 897.392 480.975C917.665 502.025 902.573 522.409 892.493 529.97Z" fill="black"/>
<path d="M889.2 530.604C900.159 524.847 916.069 506.977 901.609 486.31C886.061 464.088 819.932 478.832 789.327 488.604C770.272 494.689 752.442 514.618 766.016 536.595" stroke="black" stroke-width="5"/>
<path d="M806.815 483.636C814.882 503.032 819.659 548.884 770.152 566.311C725.796 581.925 643.215 563.463 610.998 535.744C597.938 524.508 574.553 497.908 595.852 461.92C617.15 425.931 674.262 432.253 701.493 436.994C720.306 440.27 751.631 447.821 775.926 460.444" stroke="black" stroke-width="5" stroke-linecap="round"/>
<path d="M775.979 497.326C779.925 507.951 780.831 530.048 757.58 538.904C734.329 547.76 670.299 533.51 646.302 522.787C633.842 517.219 609.43 498.11 622.409 470.918C637.494 439.316 693.17 452.491 721.808 460.86C729.306 463.134 744.606 468.078 753.526 471.823" stroke="black" stroke-width="5" stroke-linecap="round"/>
<path d="M1415.5 242.695L1405.16 218.91" stroke="black" stroke-width="5" stroke-linecap="round"/>
<path d="M1447.18 237.998L1456.71 204.777" stroke="black" stroke-width="5" stroke-linecap="round"/>
<path d="M1470.68 251.715L1492.49 237.761" stroke="black" stroke-width="5" stroke-linecap="round"/>
<path d="M1267.03 460.156C1281.47 459.908 1305.51 451.023 1315.72 446.612C1324.59 450.945 1335.6 450.742 1339.99 450.099C1330.56 465.842 1283.08 476.865 1260.52 480.409C1263.29 475.145 1266.01 464.714 1267.03 460.156Z" fill="black"/>
<path d="M1184.08 386.994C1158.69 380.212 1111.61 374.671 1079.6 390.534" stroke="black" stroke-width="5" stroke-linecap="round"/>
<path d="M1244.24 412.499C1261.43 424.538 1278.9 450.168 1258.65 482.809C1231.95 525.859 1166.84 520.862 1131.24 509C1101.79 500.661 1038.22 467.163 1049.66 424.778" stroke="black" stroke-width="5" stroke-linecap="round"/>
<path d="M1171.58 416.647L1175.04 409.165C1175.84 407.426 1174.82 405.387 1172.95 405C1144.72 399.179 1123.87 399.34 1109.89 401.397C1107.47 401.753 1106.65 404.73 1108.47 406.371L1115.22 412.456C1115.78 412.966 1116.52 413.241 1117.28 413.233C1134.52 413.05 1155.9 416.09 1168.3 418.348C1169.65 418.595 1171 417.899 1171.58 416.647Z" fill="black"/>
<path d="M1087.6 448.277C1086 441.877 1087.6 434.944 1088.6 432.277L1077.6 427.277C1076.8 438.477 1083.93 445.944 1087.6 448.277Z" fill="black"/>
<path d="M1215.86 431.132C1227.87 440.243 1244.91 462.702 1217.03 479.66C1189.15 496.617 1129.28 473.885 1102.83 460.399C1092.25 455.009 1076.15 442.449 1077.79 427.276" stroke="black" stroke-width="5" stroke-linecap="round"/>
<path d="M1175.86 406.115C1147.41 398.975 1117 400.578 1104.1 402.47" stroke="black" stroke-width="5" stroke-linecap="round"/>
<path d="M1341.14 362.745L1320.86 356.947C1349.2 322.175 1385.1 301.469 1399.5 295.463C1409.24 291.033 1431.98 287.048 1445.04 306.559C1458.1 326.069 1442.45 351.745 1434.33 359.899C1448.31 330.049 1431.47 309.533 1407.95 313.508C1389.13 316.688 1355.57 347.658 1341.14 362.745Z" fill="black"/>
<path d="M1198.4 485.255C1171.19 475.631 1156.18 445.282 1174.66 409.25C1178.8 400.457 1196.18 380.35 1232.55 370.257C1268.92 360.164 1293.11 357.797 1300.65 357.875C1321.99 355.46 1366.95 361.695 1376.15 405.956" stroke="black" stroke-width="5" stroke-linecap="round"/>
<path d="M1375.97 444.167C1372.33 452.272 1357.75 469.949 1329.45 482.217C1295.94 496.746 1269.38 505.549 1243.02 501.268" stroke="black" stroke-width="5" stroke-linecap="round"/>
<path d="M1224.05 472.522C1229.08 467.352 1230.3 461.105 1230.29 458.627C1229.02 460.697 1223.47 462.589 1211.39 453.594C1199.31 444.599 1205.17 427.386 1209.61 419.903C1204.47 420.822 1199.37 427.734 1197.47 431.075C1188.94 459.03 1211.64 470.354 1224.05 472.522Z" fill="black"/>
<path d="M1227.27 471.595C1214.89 471.433 1192.61 462.721 1196.13 437.744C1199.91 410.888 1265.53 394.04 1297.24 388.872C1316.98 385.654 1341.91 395.331 1339.78 421.074" stroke="black" stroke-width="5"/>
<path d="M1279.4 392.375C1281.01 413.32 1297.54 456.353 1349.57 449.435C1396.18 443.237 1461.41 389.334 1477.56 350.019C1484.1 334.083 1492.88 299.771 1457.58 277.354C1422.28 254.936 1374.24 286.47 1352.12 303.044C1336.84 314.495 1312.34 335.43 1296.41 357.697" stroke="black" stroke-width="5" stroke-linecap="round"/>
<path d="M1313.09 390.593C1314.39 401.853 1323.61 421.957 1348.34 419.307C1373.08 416.656 1423.69 374.92 1440.21 354.481C1448.8 343.868 1461.89 315.766 1437.99 297.417C1410.21 276.091 1366.57 313.081 1344.84 333.527C1339.19 338.953 1327.79 350.298 1321.54 357.682" stroke="black" stroke-width="5" stroke-linecap="round"/>
<path d="M1114.6 464.777C1100.91 435.755 1080.33 424.807 1064.64 423.859C1054.03 423.422 1044.55 424.755 1036.1 427.525" stroke="black" stroke-width="5" stroke-linecap="round"/>
<path d="M969.25 582.777C968.065 547.064 972.335 485.85 1002.6 450.777" stroke="black" stroke-width="5" stroke-linecap="round"/>
<path d="M1129.1 534.802C1128.84 525.067 1128.05 516.071 1126.81 507.777" stroke="black" stroke-width="5" stroke-linecap="round"/>
<path d="M1159.1 535.798C1158.84 529.524 1158.33 522.79 1157.53 515.777" stroke="black" stroke-width="5" stroke-linecap="round"/>
<path d="M928.211 592.777C926.87 547.031 936.105 455.559 983.599 411.777M1150.6 478.777C1137.28 429.255 1105.82 380.941 1037.35 387.352C1026.63 388.356 1016.91 391.064 1008.1 395.161" stroke="black" stroke-width="5" stroke-linecap="round"/>
<path d="M990.099 566.277L1108.1 535.277" stroke="black" stroke-width="5" stroke-linecap="round"/>
<path d="M914.258 588.777C900.591 591.277 870.158 601.777 857.758 623.777" stroke="black" stroke-width="5" stroke-linecap="round"/>
<path d="M855.758 622.278C890.958 601.478 902.258 640.945 906.258 658.278V896.278C906.258 948.278 921.258 945.778 936.151 958.933C894.151 944.433 872.258 924.278 864.65 914.433C843.977 887.677 846.151 691.433 845.151 669.933C844.351 652.733 853.091 628.112 855.758 622.278Z" fill="black"/>
<path d="M1162.76 559.514L944.101 623.278C922.767 629.5 908.099 649.056 908.099 671.279V913.244C908.099 948.932 944.412 973.13 977.349 959.39L1196.01 868.179C1214.63 860.411 1226.76 842.21 1226.76 822.033V607.515C1226.76 574.183 1194.76 550.183 1162.76 559.514Z" stroke="black" stroke-width="5" stroke-linecap="round"/>
<path d="M1078.63 713.403C1102.36 674.61 1077.5 655.484 1062.1 650.769C1113.98 642.283 1104.91 690.336 1093.89 715.424L1126.1 799.777L1100.35 787.677C1097.61 786.386 1095.59 783.917 1094.88 780.965L1078.63 713.403Z" fill="black"/>
<path d="M1041.1 823.777L1063.85 721.867C1034.36 715.276 1033.88 653.476 1063.85 649.364C1111.88 642.773 1106.4 693.474 1093.76 715.276L1124.1 799.441L1041.1 823.777Z" stroke="black" stroke-width="5"/>
<path d="M858.758 1065.85C833.158 1055.85 852.758 1043.35 865.758 1038.35L1089.26 968.853C1106.92 963.853 1148.76 957.453 1174.76 971.853C1207.26 989.853 1171.26 998.853 1164.76 1003.85C1158.26 1008.85 1021.26 1065.85 974.258 1081.35C927.258 1096.85 890.758 1078.35 858.758 1065.85Z" fill="black"/>
</svg>
