<svg width="1098" height="1855" viewBox="0 0 1098 1855" fill="none" xmlns="http://www.w3.org/2000/svg">
<path d="M233.099 1851.52L337.727 1480.97C337.971 1480.11 338.757 1479.52 339.652 1479.52H493.807C494.593 1479.52 495.307 1479.98 495.63 1480.69L577.099 1661.52" stroke="black" stroke-width="5" stroke-linecap="round"/>
<path d="M59.0645 963.516C48.8231 973.701 35.6939 995.96 65.0991 1003.52" stroke="black" stroke-width="5" stroke-linecap="round"/>
<path d="M58.0991 985.516C59.9132 976.541 67.3679 959.614 83.4551 954.179C86.099 953.286 88.9757 952.703 92.0991 952.516" stroke="black" stroke-width="5" stroke-linecap="round"/>
<path d="M76.0283 902.516C96.3846 915.761 129.816 950.615 100.681 984.07C71.546 1017.52 60.1531 1020.46 58.0991 1017.74" stroke="black" stroke-width="5" stroke-linecap="round"/>
<path d="M54.0991 927.516L83.0991 954.516" stroke="black" stroke-width="5" stroke-linecap="round"/>
<path d="M83.0991 899.516C81.3025 899.716 79.008 900.36 76.4325 901.598C69.3513 904.999 60.1414 912.88 53.2969 928.306C51.3347 932.731 49.5658 937.777 48.0991 943.516" stroke="black" stroke-width="5" stroke-linecap="round"/>
<path d="M81.0991 891.516C67.7833 893.078 40.3412 900.266 37.0991 916.516" stroke="black" stroke-width="5" stroke-linecap="round"/>
<path d="M75.0991 882.769C68.7869 880.571 53.3516 878.044 42.0991 885.516" stroke="black" stroke-width="5" stroke-linecap="round"/>
<path d="M222.363 676.64C222.895 679.893 224.135 682.592 225.612 684.342C227.106 686.11 228.639 686.708 229.889 686.463C231.14 686.218 232.387 685.075 233.228 682.848C234.059 680.647 234.367 677.644 233.835 674.391C233.304 671.138 232.064 668.439 230.586 666.69C229.092 664.921 227.559 664.323 226.309 664.568C225.059 664.813 223.811 665.956 222.97 668.183C222.139 670.385 221.831 673.387 222.363 676.64Z" stroke="black" stroke-width="5"/>
<path d="M551.897 565.755C552.876 568.56 552.913 574.621 546.017 577.844C545.507 578.083 544.958 578.306 544.368 578.512C535.824 581.487 534.123 575.568 534.341 572.236" stroke="black" stroke-width="5" stroke-linecap="round"/>
<path d="M530.699 560.393C526.865 564.991 530.354 567.718 532.577 568.506C533.128 568.624 533.799 568.741 534.563 568.84C538.744 569.382 545.696 569.41 550.775 566.483C551.192 566.242 551.565 565.998 551.898 565.753C556.355 562.461 553.519 558.798 551.376 557.288" stroke="black" stroke-width="5" stroke-linecap="round"/>
<path d="M550.431 547.192C552.661 547.873 556.415 550.232 553.585 554.223C550.755 558.213 537.684 560.009 531.502 560.408C531.236 560.417 530.967 560.413 530.7 560.395C528.282 560.227 525.981 558.885 526.193 555.645C526.492 551.066 532.456 549.899 533.806 549.719" stroke="black" stroke-width="5" stroke-linecap="round"/>
<path d="M537.326 532.683C539.531 533.764 541.281 537.277 535.657 539.8C530.032 542.324 531.082 546.326 532.31 548.012C534.32 550.017 541.131 551.881 552.289 543.295C563.449 534.711 546.478 527.794 536.597 525.41" stroke="black" stroke-width="5" stroke-linecap="round"/>
<path d="M513.914 540.787C518.679 537.485 527.83 533.024 526.306 541.597C524.783 550.168 518.434 553.528 515.45 554.136" stroke="black" stroke-width="5" stroke-linecap="round"/>
<path d="M509.678 581.061C512.225 578.952 516.786 571.81 514.66 560.108" stroke="black" stroke-width="5" stroke-linecap="round"/>
<path d="M535.337 538.578L465.877 27.5821C461.869 -4.86744 439.035 -0.861683 441.039 13.5611L513.95 544.763" stroke="black" stroke-width="5" stroke-linecap="round"/>
<path d="M515.547 560.387L526.884 639.587C528.282 648.912 531.072 657.137 537.181 655.73C543.291 654.324 543.991 644.915 543.189 637.303L538.684 582.821" stroke="black" stroke-width="5" stroke-linecap="round"/>
<path d="M509.855 533.109C500.962 546.026 480.696 615.661 447.847 656.523C417.193 697.311 334.734 769.432 250.126 731.615" stroke="black" stroke-width="5" stroke-linecap="round"/>
<path d="M117.728 1040.56C86.1952 1175.34 112.365 1405.29 165.599 1431.9C232.297 1465.24 251.636 1421.46 251.636 1368.33C251.636 1317.93 240.445 1230.2 251.636 1175.24C269.377 1170.44 268.763 1167.88 316.463 1175.24C364.163 1182.59 370.886 1209.92 370.886 1239.6C370.886 1281.18 359.441 1353.94 387.293 1368.33C422.108 1386.32 452.121 1369.93 482.934 1218.41C507.584 1097.2 382.224 1038.64 316.463 1024.52C297.754 1045.87 231.815 1078.98 117.728 1040.56Z" fill="black"/>
<path d="M119.369 874.069C99.8666 921.046 126.591 962.401 119.369 1040.7C167.766 1055.15 274.851 1071.77 316.015 1022.63C317.877 1014.06 326.46 909.803 316.015 833.516" stroke="black" stroke-width="5" stroke-linecap="round"/>
<path d="M160.099 805.516L166.55 795.408C172.838 785.558 185.074 781.626 195.756 786.023L211.129 792.35C220.721 796.297 231.71 793.559 238.441 785.545L256.099 764.516" stroke="black" stroke-width="5" stroke-linecap="round"/>
<path d="M248.52 731.942C252.137 721.712 248.842 714.827 245.627 713.516C226.337 730.829 197.08 724.402 186.229 713.909C182.371 717.372 184.622 727.614 186.229 730.762C207.127 753.426 236.865 740.729 248.52 731.942Z" fill="black"/>
<path d="M303.085 569.378C294.306 601.061 289.916 603.869 277.145 617.906C277.145 604.033 274.774 580.749 274.774 571.053C232.959 571.053 197.669 553.899 185.252 545.322C185.697 574.409 158.562 593.428 158.562 593.428C158.562 593.428 162.454 605.175 164.678 631.465C166.458 652.497 161.342 648.433 158.562 643.771C150.555 617.817 137.432 624.752 131.872 631.465C63.6388 520.049 168.57 498.521 188.587 500.572C203.711 487.595 224.804 477.425 239.632 475.933C293.108 470.554 317.322 518.005 303.085 569.378Z" fill="black"/>
<path d="M160.099 663.02C167.192 707.102 214.797 738.8 249.151 703.091C283.504 667.382 276.63 602.018 272.96 571.516" stroke="black" stroke-width="5" stroke-linecap="round"/>
<path d="M130.646 627.516C126.095 638.399 130.365 662.516 160.099 662.516" stroke="black" stroke-width="5" stroke-linecap="round"/>
<path d="M143.295 633.516C142.676 635.786 143.171 641.164 150.099 644.516" stroke="black" stroke-width="5" stroke-linecap="round"/>
<path d="M273.099 657.516C282.481 653.566 289.095 638.939 286.551 615.516" stroke="black" stroke-width="5" stroke-linecap="round"/>
<path d="M252.236 628.874C254.905 627.802 255.947 624.142 254.565 620.701C253.182 617.259 249.897 615.338 247.228 616.41C244.56 617.482 243.517 621.142 244.9 624.584C246.283 628.025 249.567 629.946 252.236 628.874Z" fill="black"/>
<path d="M203.232 630.254C205.939 629.285 207.201 625.891 206.049 622.674C204.898 619.457 201.769 617.635 199.061 618.604C196.353 619.573 195.091 622.967 196.243 626.184C197.395 629.401 200.524 631.224 203.232 630.254Z" fill="black"/>
<path d="M182.099 614.516C183.335 610.713 188.664 603.68 200.099 605.961" stroke="black" stroke-width="5" stroke-linecap="round"/>
<path d="M239.099 607.516C241.675 605.252 248.681 602.082 256.099 607.516" stroke="black" stroke-width="5" stroke-linecap="round"/>
<path d="M231.462 625.516C232.396 633.16 238.524 649.516 228.099 649.516" stroke="black" stroke-width="5" stroke-linecap="round"/>
<path d="M184.099 728.516C105 728.516 6.02605 812.116 36.8796 916.516" stroke="black" stroke-width="5" stroke-linecap="round"/>
<path d="M126.099 844.516C122.407 848.367 114.202 859.016 110.92 870.808C107.638 882.6 98.3384 890.86 94.0991 893.516" stroke="black" stroke-width="5" stroke-linecap="round"/>
<path d="M805.32 405.698C702.153 420.416 536.176 369.407 491.075 355.495C490.331 355.265 489.859 354.647 489.754 353.876L445.651 30.5578C445.426 28.9105 447.23 27.7402 448.68 28.5531C536.441 77.747 599.419 58.3419 769.698 61.8257C941.106 65.3326 1044.06 145.122 1074.86 185.389C1075.27 185.921 1075.37 186.566 1075.12 187.189C1065.55 211.416 1011.28 260.89 987.071 278.526C986.163 279.188 985.97 280.43 986.637 281.333C1026.98 335.971 1076.26 422.67 1094.9 469.75C1095.61 471.556 1093.51 473.099 1091.9 472.024C969.965 391.02 890.172 396.994 805.32 405.698Z" fill="black"/>
<path d="M195.24 1457.52C196.587 1468.53 197.744 1493.93 185.158 1499.59C148.046 1502.35 137.153 1525.55 163.952 1527.52C192.822 1527.52 224.15 1527 232.759 1516.11C235.712 1503.53 233.563 1472.85 228.496 1457.52" stroke="black" stroke-width="5" stroke-linecap="round"/>
<path d="M380.554 1388.32C379.837 1396.27 377.675 1446.46 380.551 1456.82C387.826 1483.06 412.186 1479.15 465.411 1476.86C472.582 1475.12 485.37 1462.83 465.411 1452.42C452.304 1448.01 443.97 1450.12 437.564 1444.81C422.034 1431.95 417.293 1409.62 420.393 1385.52" stroke="black" stroke-width="5" stroke-linecap="round"/>
<path d="M520.099 613.516C510.375 681.687 455.842 821.761 317.099 833.516" stroke="black" stroke-width="5" stroke-linecap="round"/>
<path d="M323.599 1529.52H129.838C129.04 1529.52 128.318 1529.99 128.002 1530.72L3.09912 1820.52" stroke="black" stroke-width="5" stroke-linecap="round"/>
<path d="M486.599 1812.52L638.099 1564.52L862.599 1851.02" stroke="black" stroke-width="5" stroke-linecap="round"/>
</svg>
