<svg width="758" height="1049" viewBox="0 0 758 1049" fill="none" xmlns="http://www.w3.org/2000/svg">
<path d="M270.988 309.035L290.396 288.418C293.908 284.518 303.04 280.283 311.469 294.548C319.899 308.812 316.83 323.894 314.242 329.652" stroke="black" stroke-width="5" stroke-linecap="round"/>
<path d="M373.486 274.652C375.41 272.053 376.434 269.768 376.796 268.184C378.643 264.95 379.747 257.487 369.037 254.709C352.411 250.397 355.183 260.639 358.508 261.177C369.591 262.471 374.22 271.778 373.486 274.652Z" stroke="black" stroke-width="5" stroke-linecap="round"/>
<path d="M316.988 318.652C318.651 312.938 327.076 299.681 347.475 292.367C361.213 287.44 369.018 280.337 372.988 274.652" stroke="black" stroke-width="5" stroke-linecap="round"/>
<path d="M346.988 276.431C341.947 273.746 329.292 270.632 318.988 279.652" stroke="black" stroke-width="5" stroke-linecap="round"/>
<path d="M362.988 276.652C358.06 267.92 345.36 252.962 333.988 262.985" stroke="black" stroke-width="5" stroke-linecap="round"/>
<path d="M305.988 279.652C310.531 266.308 320.185 248.899 351.988 246.652" stroke="black" stroke-width="5" stroke-linecap="round"/>
<path d="M484.705 186.975L509.82 164.914" stroke="black" stroke-width="5" stroke-linecap="round"/>
<path d="M474.441 181.139L498.469 145.598" stroke="black" stroke-width="5" stroke-linecap="round"/>
<path d="M460.988 173.417C466.093 166.48 476.815 147.816 478.869 128.652" stroke="black" stroke-width="5" stroke-linecap="round"/>
<path d="M410.647 326.711C412.949 323.498 414.105 320.573 413.056 318.553C410.005 312.681 402.502 318.708 399.132 322.456C390.745 331.473 374.603 347.146 378.954 328.908C383.304 310.669 374.051 311.792 352.384 334.055L330.846 347.152" stroke="black" stroke-width="5" stroke-linecap="round"/>
<path d="M408.886 355.309C410.741 361.013 407.765 374.215 380.491 377.414C370.172 378.624 368.621 378.454 358.936 377.637H342.346" stroke="black" stroke-width="5" stroke-linecap="round"/>
<path d="M392.346 343.895C397.705 339.946 406.252 332.777 410.639 326.653C415.403 326.598 420.016 329.283 412.664 338.667C409.481 342.73 404.055 348.048 395.427 354.944" stroke="black" stroke-width="5" stroke-linecap="round"/>
<path d="M395.434 355.004C404.062 348.108 409.488 342.79 412.671 338.727C417.216 340.008 421.305 344.963 408.885 355.309C406.169 357.571 402.663 360.092 398.2 362.888" stroke="black" stroke-width="5" stroke-linecap="round"/>
<path d="M166.988 347.075C179.032 363.391 246.863 408.572 295.675 358.999L308.988 344.566" stroke="black" stroke-width="5" stroke-linecap="round"/>
<path d="M199.988 506.568C215.659 502.516 289.988 461.813 311.636 423.992" stroke="black" stroke-width="5" stroke-linecap="round"/>
<path d="M305.833 374.823C311.201 394.096 312.712 410.365 311.636 423.99C323.579 415.795 334.988 409.492 334.988 383.648C334.988 365.367 321.678 349.609 309.635 344.566" stroke="black" stroke-width="5" stroke-linecap="round"/>
<path d="M393.345 304.652C395.345 311.152 392.844 318.052 382.844 319.652" stroke="black" stroke-width="5" stroke-linecap="round"/>
<path d="M372.346 314.652C372.346 305.152 378.346 300.952 388.346 296.152C398.346 291.352 448.178 274.319 471.845 264.652C462.845 282.152 438.345 313.652 412.345 299.652" stroke="black" stroke-width="5" stroke-linecap="round"/>
<path d="M412.346 299.652L404.846 310.652" stroke="black" stroke-width="5" stroke-linecap="round"/>
<path d="M397.845 291.652C391.846 283.152 387.144 266.452 444.344 235.652L420.346 283.652" stroke="black" stroke-width="5" stroke-linecap="round"/>
<path d="M233.432 505.02C236.009 505.02 238.098 502.932 238.098 500.356C238.098 497.78 236.009 495.691 233.432 495.691C230.854 495.691 228.765 497.78 228.765 500.356C228.765 502.932 230.854 505.02 233.432 505.02Z" fill="black"/>
<path d="M234.987 545.446C237.565 545.446 239.654 543.357 239.654 540.781C239.654 538.205 237.565 536.117 234.987 536.117C232.41 536.117 230.321 538.205 230.321 540.781C230.321 543.357 232.41 545.446 234.987 545.446Z" fill="black"/>
<path d="M44.689 983.884C55.0599 1007.72 100.689 1053.07 114.689 1031.3C121.096 1021.34 114.689 1014.2 101.988 999.432C88.7454 984.033 88.5059 974.815 94.9879 969.891C98.617 966.782 107.432 959.008 110.543 955.898" stroke="black" stroke-width="5" stroke-linecap="round"/>
<path d="M198.432 977.665C198.432 1007.98 227.311 1019.18 251.578 1014.2C281.911 1007.98 298.244 997.099 289.689 988.548C282.844 981.707 268.816 986.034 261.689 988.548C248.467 993.212 238.355 981.552 242.244 960.562" stroke="black" stroke-width="5" stroke-linecap="round"/>
<path d="M166.907 1029.89C162.527 1016.12 198.79 1012 217.649 1010.65C224.22 1017.94 239.08 1015.96 241.21 1017.64C221.134 1025.75 171.288 1043.66 166.907 1029.89Z" fill="black"/>
<path d="M17.4664 1042.97C5.64417 1031.77 54.5415 1027.94 80.4664 1027.42C84.1998 1033.02 98.6151 1037.01 105.355 1038.3C80.986 1044.52 29.2886 1054.16 17.4664 1042.97Z" fill="black"/>
<path d="M100.432 955.123C-19.7933 929.162 46.7674 772.054 76.3229 540.781C87.2103 637.953 243.545 635.621 276.212 585.092C271.545 773.994 303.434 852.509 269.212 917.031C244.461 963.696 182.028 955.062 161.577 923.109C147.86 938.335 130.405 961.595 100.432 955.123Z" fill="black"/>
<path d="M133.877 307.566C95.4963 378.328 69.321 489.473 81.7654 562.546C96.747 589.202 131.56 614.416 177.432 617.74C195.873 620.174 248.734 610.748 273.099 587.422C285.042 575.988 285.543 519.013 273.099 466.929" stroke="black" stroke-width="5" stroke-linecap="round"/>
<path d="M214.549 147.43C218.512 102.756 199.167 79.2569 188.999 73.0926C221.891 91.6208 254.306 79.5784 266.402 71.2417L270.109 91.0932C292.644 93.3658 298.013 62.8325 297.88 47.282C297.675 23.2897 271.12 -6.33506 218.294 5.54452C165.468 17.4242 136.477 61.0993 128.583 81.4522C90.7615 71.0585 50.132 99.3431 34.545 114.785C18.4277 130.813 -15.5046 179.27 8.32254 233.374C40.4692 306.369 125.98 288.242 139.937 281.062C188.164 256.254 209.596 203.273 214.549 147.43Z" fill="black"/>
<path d="M286.826 139.197C285.701 146.78 282.894 153.262 279.386 157.621C275.838 162.031 271.911 163.915 268.443 163.402C264.976 162.888 261.764 159.947 259.647 154.698C257.555 149.509 256.747 142.492 257.872 134.909C258.995 127.326 261.804 120.844 265.312 116.485C268.86 112.074 272.787 110.19 276.255 110.703C279.722 111.218 282.934 114.158 285.05 119.407C287.143 124.596 287.95 131.614 286.826 139.197Z" stroke="black" stroke-width="5"/>
<path d="M272.581 145.721C275.022 146.081 277.529 142.815 278.18 138.423C278.831 134.032 277.38 130.178 274.939 129.816C272.498 129.455 269.992 132.723 269.341 137.114C268.69 141.506 270.141 145.359 272.581 145.721Z" fill="black"/>
<path d="M214.681 143.69L255.994 139.945" stroke="black" stroke-width="5" stroke-linecap="round"/>
<path d="M274.655 91.875C278.223 99.0544 288.751 114.745 299.744 123.526C310.987 132.508 311.936 143.957 304.758 152.206L293.569 165.183C299.744 212.377 290.646 247.324 232.774 263.591" stroke="black" stroke-width="5" stroke-linecap="round"/>
<path d="M232.089 186.735C233.455 186.937 234.729 185.994 234.931 184.626C235.134 183.26 234.19 181.987 232.822 181.785C231.455 181.583 230.181 182.526 229.979 183.894C229.777 185.26 230.721 186.533 232.089 186.735Z" fill="black"/>
<path d="M223.119 209.684C224.759 209.928 226.254 209.017 226.457 207.649C226.659 206.282 225.493 204.978 223.852 204.735C222.211 204.491 220.716 205.402 220.514 206.77C220.311 208.136 221.478 209.441 223.119 209.684Z" fill="black"/>
<path d="M244.945 205.837C246.586 206.08 248.08 205.169 248.283 203.802C248.485 202.435 247.319 201.13 245.678 200.887C244.037 200.644 242.542 201.555 242.34 202.922C242.137 204.288 243.303 205.593 244.945 205.837Z" fill="black"/>
<path d="M142.045 291.476L175.71 320.92C176.803 321.877 178.522 321.31 178.833 319.891L187.609 279.775C187.934 278.288 189.786 277.761 190.846 278.857L213.638 302.404" stroke="black" stroke-width="5" stroke-linecap="round"/>
<path d="M213.638 267.711C215.505 271.208 218.182 276.891 220.691 283.496C224.133 292.563 227.258 303.367 227.538 312.639" stroke="black" stroke-width="5" stroke-linecap="round"/>
<path d="M208.865 334.496C211.501 334.496 213.638 331.933 213.638 328.771C213.638 325.61 211.501 323.047 208.865 323.047C206.23 323.047 204.092 325.61 204.092 328.771C204.092 331.933 206.23 334.496 208.865 334.496Z" fill="black"/>
<path d="M215.547 362.164C218.182 362.164 220.32 359.601 220.32 356.439C220.32 353.277 218.182 350.715 215.547 350.715C212.911 350.715 210.774 353.277 210.774 356.439C210.774 359.601 212.911 362.164 215.547 362.164Z" fill="black"/>
<path d="M266.251 203.785C265.636 207.506 267.234 215.196 278.548 216.188" stroke="black" stroke-width="5" stroke-linecap="round"/>
<path d="M224.099 290.465C240.432 302.125 263.766 324.669 263.766 362.761" stroke="black" stroke-width="5" stroke-linecap="round"/>
<path d="M576.041 350.501C598.023 287.599 551.308 188.302 533.881 152.96C533.381 151.945 533.842 150.765 534.872 150.298L574.756 132.211C575.5 131.874 576.374 132.021 576.961 132.59C611.82 166.388 637.191 213.729 647.248 236.995C647.937 238.588 650.199 238.65 650.955 237.088L701.201 133.279C701.648 132.355 702.721 131.92 703.686 132.271L753.724 150.51C754.716 150.871 755.26 151.928 754.957 152.938C750.342 168.305 738.356 204.652 722.988 241.152C706.988 279.152 703.488 318.652 714.488 350.652C750.114 454.292 720.858 586.235 702.182 655.434C702.054 655.908 701.754 656.305 701.341 656.571C655.954 685.699 605.071 668.931 584.589 656.521C584.189 656.279 583.905 655.903 583.757 655.46C564.417 597.332 555.488 556.886 555.488 489.652C555.488 431.588 568.455 392.751 575.959 350.812C575.978 350.706 576.005 350.602 576.041 350.501Z" stroke="black" stroke-width="5"/>
<path d="M547.076 41.1036C532.306 61.3784 550.206 88.2162 561.687 99.8787C562.169 100.369 562.879 100.554 563.547 100.389C616.146 87.3838 637.102 44.7128 641.294 23.8974C641.424 23.2548 641.217 22.6128 640.741 22.1623C634.768 16.509 622.088 7.80548 615.612 4.67365C595.331 -3.73351 565.958 15.1824 547.076 41.1036Z" stroke="black" stroke-width="5" stroke-linecap="round"/>
<path d="M660.988 85.6523H667.488C668.592 85.6523 669.488 86.5478 669.488 87.6523V106.314C669.488 106.538 669.522 106.754 669.599 106.964C672.255 114.275 681.533 129.949 698.488 136.652" stroke="black" stroke-width="5" stroke-linecap="round"/>
<path d="M639.911 23.8972C660.778 15.4931 701.667 3.02697 698.291 20.3955C694.071 42.1061 649.988 112.652 599.488 133.152" stroke="black" stroke-width="5" stroke-linecap="round"/>
<path d="M563.488 100.652C560.393 105.414 554.49 117.081 555.633 125.652" stroke="black" stroke-width="5" stroke-linecap="round"/>
<path d="M644.488 678.152V846.682C644.488 847.557 643.92 848.33 643.085 848.591L530.988 883.652" stroke="black" stroke-width="5" stroke-linecap="round"/>
<path d="M643.988 848.152L755.488 891.152" stroke="black" stroke-width="5" stroke-linecap="round"/>
</svg>
