<svg width="963" height="817" viewBox="0 0 963 817" fill="none" xmlns="http://www.w3.org/2000/svg">
<path d="M900.414 15.6657C898.58 9.33233 889.925 -3.20236 877.914 7.66567C867.414 17.1658 884.414 30.6657 886.414 40.6657C887.561 46.4044 883.58 53.3324 882.414 56.6657" stroke="black" stroke-width="5" stroke-linecap="round"/>
<path d="M889.914 156.164C889.914 141.764 903.792 121.164 907.914 108.664C913.081 92.9974 918.114 61.3641 896.914 60.1641C875.714 58.9641 866.081 75.3308 863.914 83.6641C860.08 94.9974 849.614 120.764 838.414 133.164C825.026 147.986 822.612 171.037 858.712 174.338C861.533 174.596 863.914 172.312 863.914 169.48V165.664" stroke="black" stroke-width="5" stroke-linecap="round"/>
<ellipse rx="63.5" ry="9.5" transform="matrix(-1 0 0 1 867.414 703.164)" fill="black"/>
<path d="M912.414 118.164C916.914 136.997 927.414 176.864 933.414 185.664C940.914 196.664 992.414 310.664 928.414 578.664" stroke="black" stroke-width="5" stroke-linecap="round"/>
<path d="M924.914 592.164C901.914 595.664 856.814 595.464 860.414 566.664C864.914 530.664 869.414 489.164 864.914 460.664C860.414 432.164 848.914 383.664 869.414 200.164" stroke="black" stroke-width="5" stroke-linecap="round"/>
<path d="M935.914 537.664C927.08 543.331 902.114 552.964 872.914 546.164" stroke="black" stroke-width="5" stroke-linecap="round"/>
<path d="M853.414 558.164C846.914 555.831 830.314 551.864 815.914 554.664C801.643 557.439 802.562 530.651 804.851 516.544C804.893 516.286 804.95 516.057 805.03 515.809C808.589 504.831 816.457 467.127 820.414 400.664C824.414 333.464 836.414 219.664 841.914 171.164" stroke="black" stroke-width="5" stroke-linecap="round"/>
<path d="M732.228 15.6657C730.395 9.33233 721.74 -3.20236 709.728 7.66567C699.228 17.1658 716.228 30.6657 718.228 40.6657C719.376 46.4044 715.395 53.3324 714.228 56.6657" stroke="black" stroke-width="5" stroke-linecap="round"/>
<path d="M721.728 156.164C721.728 141.764 735.606 121.164 739.728 108.664C744.895 92.9974 749.928 61.3641 728.728 60.1641C707.528 58.9641 697.895 75.3308 695.728 83.6641C691.895 94.9974 681.428 120.764 670.228 133.164C656.841 147.986 654.427 171.037 690.527 174.338C693.347 174.596 695.728 172.312 695.728 169.48V165.664" stroke="black" stroke-width="5" stroke-linecap="round"/>
<ellipse rx="63.5" ry="9.5" transform="matrix(-1 0 0 1 699.228 703.164)" fill="black"/>
<path d="M744.228 118.164C748.728 136.997 759.228 176.864 765.228 185.664C772.728 196.664 824.228 310.664 760.228 578.664" stroke="black" stroke-width="5" stroke-linecap="round"/>
<path d="M756.728 592.166C733.728 595.666 688.628 595.466 692.228 566.666C696.728 530.666 698.913 489.436 696.728 460.666C693.099 412.891 696.728 409.391 701.099 257.891" stroke="black" stroke-width="5" stroke-linecap="round"/>
<path d="M767.728 537.664C758.895 543.331 733.928 552.964 704.728 546.164" stroke="black" stroke-width="5" stroke-linecap="round"/>
<path d="M685.228 558.166C678.728 555.832 662.128 551.866 647.728 554.666C633.457 557.441 634.377 530.653 636.666 516.546C636.707 516.288 636.757 516.084 636.834 515.835C640.451 504.023 651.638 421.429 655.599 354.891" stroke="black" stroke-width="5" stroke-linecap="round"/>
<path d="M92.4136 18.6657C90.5802 12.3323 81.9255 -0.202363 69.9136 10.6657C59.4136 20.1658 76.4136 33.6657 78.4136 43.6657C79.5613 49.4044 75.5802 56.3324 74.4136 59.6657" stroke="black" stroke-width="5" stroke-linecap="round"/>
<path d="M696.529 232.168C696.529 235.64 695.229 242.485 690.029 242.085" stroke="black" stroke-width="5" stroke-linecap="round"/>
<path d="M721.029 220.086L729.029 226.836C731.529 228.945 733.529 232.169 733.529 236.086C733.529 238.235 732.536 239.697 731.148 240.621C727.374 243.134 724.094 239.817 722.36 235.627V235.627C720.119 230.211 712.597 230.484 707.047 232.37C703.906 233.438 700.276 233.69 696.529 232.169C694.709 231.429 692.861 230.272 691.029 228.586" stroke="black" stroke-width="5" stroke-linecap="round"/>
<path d="M731.529 215.492C734.274 217.36 738.091 219.504 740.246 222.369C740.825 223.138 741.043 223.391 741.209 224.339V224.339C742.294 230.567 733.985 231.014 729.153 226.937L729.029 226.833L721.029 220.083" stroke="black" stroke-width="5" stroke-linecap="round"/>
<path d="M716.529 200.086C722.129 199.286 733.529 201.753 738.529 203.086C747.029 205.586 751.129 213.486 745.529 217.086C742.041 219.328 736.431 217.807 731.529 215.495C728.561 214.095 725.852 212.406 724.029 211.086" stroke="black" stroke-width="5" stroke-linecap="round"/>
<path d="M663.029 226.584C665.195 212.084 676.729 183.784 705.529 186.584C717.371 187.735 725.505 189.264 730.966 190.816C737.867 192.777 745.691 202.663 738.529 203.084V203.084" stroke="black" stroke-width="5" stroke-linecap="round"/>
<path d="M257.741 798.505C249.345 791.187 286.653 791.729 305.067 791.391C307.719 795.05 309.671 795.117 314.458 795.964C316.668 801.553 266.138 805.822 257.741 798.505Z" fill="black"/>
<path d="M539.136 247.391C537.122 253.319 535.621 272.583 543.529 288.391" stroke="black" stroke-width="5" stroke-linecap="round"/>
<path d="M534.529 293.36C550.035 287.756 579.564 280.898 579.564 300.284V303.648C579.564 305.92 582.137 307.206 583.916 305.815C608.81 286.363 643.529 254.891 660.029 230.891C661.195 229.225 665.029 226.691 671.029 229.891C678.529 233.891 688.529 235.891 689.529 249.391C690.529 262.891 678.529 298.391 645.029 336.391C618.229 366.791 616.65 372.891 612.029 386.391C605.695 404.891 592.429 453.591 590.029 500.391" stroke="black" stroke-width="5" stroke-linecap="round"/>
<path d="M603.339 143.391C618.401 155.406 641.779 181.341 619.057 191.892C617.724 192.51 616.989 194.006 617.369 195.432C621.839 212.207 621.132 246.844 586.451 270.3C585.935 270.649 585.538 271.167 585.35 271.764L578.529 293.391" stroke="black" stroke-width="5" stroke-linecap="round"/>
<path d="M587.629 231.391C587.083 234.091 588.501 239.671 598.529 240.391" stroke="black" stroke-width="5" stroke-linecap="round"/>
<path d="M614.529 169.891C614.529 175.003 612.939 179.499 610.534 182.64C608.13 185.779 605.086 187.391 602.029 187.391C598.972 187.391 595.927 185.779 593.523 182.64C591.119 179.499 589.529 175.003 589.529 169.891C589.529 164.778 591.119 160.282 593.523 157.141C595.927 154.002 598.972 152.391 602.029 152.391C605.086 152.391 608.13 154.002 610.534 157.141C612.939 160.282 614.529 164.778 614.529 169.891Z" stroke="black" stroke-width="5" stroke-linecap="round"/>
<path d="M557.529 185.391L587.529 175.391" stroke="black" stroke-width="5" stroke-linecap="round"/>
<path d="M581.529 164.391C582.318 161.28 585.224 154.124 590.529 150.391" stroke="black" stroke-width="5" stroke-linecap="round"/>
<path d="M604.529 173.391C606.738 173.391 608.529 171.824 608.529 169.891C608.529 167.958 606.738 166.391 604.529 166.391C602.32 166.391 600.529 167.958 600.529 169.891C600.529 171.824 602.32 173.391 604.529 173.391Z" fill="black"/>
<path d="M534.529 292.391L418.529 426.391" stroke="black" stroke-width="5" stroke-linecap="round"/>
<path d="M418.529 426.811C427.055 425.643 449.219 426.21 469.679 437.822C495.254 452.338 522.333 477.866 589.529 500.391" stroke="black" stroke-width="5" stroke-linecap="round"/>
<path d="M589.529 500.391L567.529 515.391" stroke="black" stroke-width="5" stroke-linecap="round"/>
<path d="M418.634 426.391C416.935 431.542 415.248 443.555 429.529 458.391" stroke="black" stroke-width="5" stroke-linecap="round"/>
<path d="M502.529 329.391C484.219 344.765 437.792 377.2 398.556 383.946C389.402 387.747 373.643 398.426 383.844 410.725C394.045 423.026 400.846 438.004 402.971 443.954C404.606 449.411 408.676 457.017 418.484 439.56" stroke="black" stroke-width="5" stroke-linecap="round"/>
<path d="M386.529 415.391C378.803 419.946 360.787 428.652 350.53 427.031C340.272 425.412 333.434 429.731 331.297 432.094C330.146 433.949 329.423 437.762 335.735 438.167C342.048 438.572 349.543 438.335 352.502 438.167" stroke="black" stroke-width="5" stroke-linecap="round"/>
<path d="M361.529 431.391C357.982 435.268 345.923 444.08 326.061 448.31C322.177 449.014 316.941 453.067 324.035 457.826C330.115 461.528 346.936 458.144 355.449 453.067" stroke="black" stroke-width="5" stroke-linecap="round"/>
<path d="M355.107 452.391C348.934 455.59 337.82 464.108 342.76 472.592C344.343 474.276 351.023 474.41 365.081 461.481L375.529 452.391" stroke="black" stroke-width="5" stroke-linecap="round"/>
<path d="M377.067 452.583L366.085 461.756C362.924 470.08 358.099 490.296 371.077 479.083C380.561 469.401 378.564 461.146 382.558 458.698C386.551 456.253 395.536 446.808 399.529 442.391" stroke="black" stroke-width="5" stroke-linecap="round"/>
<path d="M376.538 436.391C375.208 440.94 374.143 451.511 380.529 457.391" stroke="black" stroke-width="5" stroke-linecap="round"/>
<path d="M497.529 772.391C503.733 770.736 516.239 762.363 516.631 742.108C517.023 721.853 525.284 687.003 529.365 672.109L569.529 493.391" stroke="black" stroke-width="5" stroke-linecap="round"/>
<path d="M585.029 203.391C585.857 203.391 586.529 202.719 586.529 201.891C586.529 201.062 585.857 200.391 585.029 200.391C584.2 200.391 583.529 201.062 583.529 201.891C583.529 202.719 584.2 203.391 585.029 203.391Z" fill="black"/>
<path d="M591.529 210.391C592.081 210.391 592.529 209.719 592.529 208.891C592.529 208.062 592.081 207.391 591.529 207.391C590.977 207.391 590.529 208.062 590.529 208.891C590.529 209.719 590.977 210.391 591.529 210.391Z" fill="black"/>
<path d="M577.029 213.391C577.857 213.391 578.529 212.719 578.529 211.891C578.529 211.062 577.857 210.391 577.029 210.391C576.2 210.391 575.529 211.062 575.529 211.891C575.529 212.719 576.2 213.391 577.029 213.391Z" fill="black"/>
<path d="M430.679 189.552C454.734 144.605 490.651 138.953 505.604 141.745C536.658 93.9389 579.542 78.1679 605.667 92.4608C626.568 103.895 609.447 132.71 598.274 145.689L587.43 129.918C579.937 144.506 558.512 139.117 547.995 135.832C557.032 154.888 571.458 204.142 541.094 248.695C510.731 293.249 472.578 294.037 453.353 281.223C435.608 268.574 406.624 234.501 430.679 189.552Z" fill="black"/>
<path d="M600.529 336.391C606.48 342.145 617.27 357.902 615.029 376.891" stroke="black" stroke-width="5" stroke-linecap="round"/>
<path d="M416.529 778.391C420.051 783.579 431.781 793.371 450.529 791.037" stroke="black" stroke-width="5" stroke-linecap="round"/>
<path d="M446.32 430.391C440.063 448.227 410.748 484.892 384.563 530.972C367.107 559.875 325.474 624.418 298.598 651.372C294.975 656.491 291.582 668.118 306.997 673.667C318.854 678.622 324.19 690.117 325.771 702.405C327.747 717.765 352.944 729.16 369.742 717.765C383.131 708.681 421.629 643.254 450.714 606.284C458.119 596.87 464.914 589.301 470.529 584.979" stroke="black" stroke-width="5" stroke-linecap="round"/>
<path d="M449.433 605.391L416.529 778.391C433.253 773.929 479.196 765.502 507.529 765.502" stroke="black" stroke-width="5" stroke-linecap="round"/>
<path d="M287.415 763.36C260.714 710.925 285.465 676.031 298.852 667.391C319.603 674.003 320.164 696.046 323.529 706.516L315.762 728.061C310.565 737.328 313.597 755.455 315.762 763.36C324.739 799.983 311.19 803.504 304.541 793.696L287.415 763.36Z" fill="black"/>
<path d="M432.019 812.543C422.724 805.272 441.107 802.453 459.761 801.391C466.259 807.13 509.423 809.09 511.529 810.418C491.671 816.794 440.164 818.913 432.019 812.543Z" fill="black"/>
<path d="M522.451 809.429C453.478 818.973 439.163 791.44 440.627 775.344C452.489 770.344 485.108 768.526 500.485 767.391C496.091 777.843 501.583 776.479 505.427 779.32C510.37 782.729 524.099 786.895 531.787 787.273C566.384 788.978 539.292 806.968 522.451 809.429Z" fill="black"/>
<ellipse rx="63.5" ry="9.5" transform="matrix(-1 0 0 1 63.5991 702.891)" fill="black"/>
<path d="M101.099 85.8912C100.325 100.61 92.924 99.9508 88.9754 97.6244C88.7217 97.4749 88.4733 97.2721 88.2571 97.0721C63.6591 74.3126 70.1083 119.935 72.0993 129.391C74.0995 138.891 71.0991 150.891 64.0991 151.891C57.0991 152.891 45.5991 147.891 50.5991 140.891C55.5991 133.891 54.5991 119.391 55.5991 104.391C56.5991 89.3912 64.0993 79.3912 72.0993 73.3912C80.0993 67.3912 102.099 66.8912 101.099 85.8912Z" stroke="black" stroke-width="5" stroke-linecap="round"/>
<path d="M88.5994 107.391C89.2661 128.391 92.7994 174.291 101.599 189.891C112.599 209.391 130.599 376.891 116.099 403.891C105.329 423.946 91.138 474.292 84.0942 501.934C83.3103 505.01 79.8979 506.61 76.894 505.583C71.9351 503.889 65.7106 502.52 61.5991 503.891C55.5991 505.891 48.0991 499.724 45.0991 496.391" stroke="black" stroke-width="5" stroke-linecap="round"/>
<path d="M42.099 503.391C39.099 500.391 34.599 489.691 40.599 470.891C48.099 447.391 61.099 364.391 58.099 343.891C55.699 327.491 60.7658 209.391 63.5991 152.391" stroke="black" stroke-width="5" stroke-linecap="round"/>
<path d="M55.5991 150.891C51.7658 220.391 42.2991 363.691 35.0991 380.891C27.8991 398.091 27.4325 442.391 28.0991 462.391C27.9325 467.391 28.9325 471.891 28.0991 476.891" stroke="black" stroke-width="5" stroke-linecap="round"/>
<path d="M100.099 446.391C101.765 461.557 107.099 480.891 102.599 500.891C97.3186 524.356 104.599 600.391 104.599 602.891" stroke="black" stroke-width="5" stroke-linecap="round"/>
<path d="M92.0991 603.391C87.4325 601.057 74.1991 597.791 58.5991 603.391C39.0991 610.391 38.0991 575.891 45.0991 555.891C50.6991 539.891 48.7658 520.224 47.0991 512.391" stroke="black" stroke-width="5" stroke-linecap="round"/>
<path d="M62.4619 517.391C62.6134 528.856 63.2797 553.464 64.7353 560.167C67.9326 574.891 62.9165 581.776 61.0978 588.391" stroke="black" stroke-width="5" stroke-linecap="round"/>
<path d="M77.0987 523.391C80.0987 541.891 84.5987 580.791 78.5987 588.391" stroke="black" stroke-width="5" stroke-linecap="round"/>
<path d="M236.414 18.6657C234.58 12.3323 225.925 -0.202363 213.914 10.6657C203.414 20.1658 220.414 33.6657 222.414 43.6657C223.561 49.4044 219.58 56.3324 218.414 59.6657" stroke="black" stroke-width="5" stroke-linecap="round"/>
<ellipse rx="63.5" ry="9.5" transform="matrix(-1 0 0 1 207.599 702.891)" fill="black"/>
<path d="M245.099 85.8912C244.325 100.61 236.924 99.9508 232.975 97.6244C232.722 97.4749 232.473 97.2721 232.257 97.0721C207.659 74.3126 214.108 119.935 216.099 129.391C218.1 138.891 215.099 150.891 208.099 151.891C201.099 152.891 189.599 147.891 194.599 140.891C199.599 133.891 198.599 119.391 199.599 104.391C200.599 89.3912 208.099 79.3912 216.099 73.3912C224.099 67.3912 246.099 66.8912 245.099 85.8912Z" stroke="black" stroke-width="5" stroke-linecap="round"/>
<path d="M232.599 107.391C233.266 128.391 236.799 174.291 245.599 189.891C256.599 209.391 274.599 376.891 260.099 403.891C249.329 423.946 235.138 474.292 228.094 501.934C227.31 505.01 223.898 506.61 220.894 505.583C215.935 503.889 209.711 502.52 205.599 503.891C199.599 505.891 192.099 499.724 189.099 496.391" stroke="black" stroke-width="5" stroke-linecap="round"/>
<path d="M186.099 503.391C183.099 500.391 178.599 489.691 184.599 470.891C192.099 447.391 205.099 364.391 202.099 343.891C199.699 327.491 204.766 209.391 207.599 152.391" stroke="black" stroke-width="5" stroke-linecap="round"/>
<path d="M199.599 150.891C195.766 220.391 186.299 363.691 179.099 380.891C171.899 398.091 171.432 442.391 172.099 462.391C171.932 467.391 172.932 471.891 172.099 476.891" stroke="black" stroke-width="5" stroke-linecap="round"/>
<path d="M244.099 446.391C245.765 461.557 251.099 480.891 246.599 500.891C241.319 524.356 248.599 600.391 248.599 602.891" stroke="black" stroke-width="5" stroke-linecap="round"/>
<path d="M236.099 603.391C231.432 601.057 218.199 597.791 202.599 603.391C183.099 610.391 182.099 575.891 189.099 555.891C194.699 539.891 192.766 520.224 191.099 512.391" stroke="black" stroke-width="5" stroke-linecap="round"/>
<path d="M206.462 517.391C206.613 528.856 207.28 553.464 208.735 560.167C211.933 574.891 206.917 581.776 205.098 588.391" stroke="black" stroke-width="5" stroke-linecap="round"/>
<path d="M221.099 523.391C224.099 541.891 228.599 580.791 222.599 588.391" stroke="black" stroke-width="5" stroke-linecap="round"/>
<path d="M34.0986 15.3907L936.099 15.3906" stroke="black" stroke-width="5" stroke-linecap="round"/>
</svg>
