<svg width="989" height="1095" viewBox="0 0 989 1095" fill="none" xmlns="http://www.w3.org/2000/svg">
<path d="M844.045 217.258C876.587 228.962 913.517 269.069 816.988 327.258" stroke="black" stroke-width="5" stroke-linecap="round"/>
<path d="M764.526 210.634C742.974 207.728 686.179 220.808 714.958 280.034C718.429 287.18 731.049 301.254 753.75 300.382C782.845 299.264 798.529 328.966 807.988 343.258" stroke="black" stroke-width="5" stroke-linecap="round"/>
<path d="M755.988 235.258C775.803 250.251 814.267 299.03 809.599 374.193C804.931 449.355 804.493 459.682 804.857 455.45" stroke="black" stroke-width="5" stroke-linecap="round"/>
<path d="M782.988 314.258V376.258" stroke="black" stroke-width="5" stroke-linecap="round"/>
<path d="M829.988 321.258V380.258" stroke="black" stroke-width="5" stroke-linecap="round"/>
<path d="M816.988 327.258C818.325 306.825 825.598 251.22 843.988 192.258" stroke="black" stroke-width="5" stroke-linecap="round"/>
<path d="M776.973 256.258C777.218 245.671 774.546 220.772 761.899 205.877C746.09 187.258 744.988 175.941 744.988 141.258" stroke="black" stroke-width="5" stroke-linecap="round"/>
<path d="M783.988 152.258C777.714 151.157 767.049 143.814 774.578 123.258" stroke="black" stroke-width="5" stroke-linecap="round"/>
<path d="M860.988 152.258C875.194 144.015 897.995 123.765 875.549 108.707C872.471 106.492 865.249 105.164 860.988 117.565" stroke="black" stroke-width="5" stroke-linecap="round"/>
<path d="M870.988 121.258C870.758 125.007 868.437 132.658 860.988 133.258" stroke="black" stroke-width="5" stroke-linecap="round"/>
<path d="M827.988 99.2578C825.253 97.7487 818.224 95.6355 811.988 99.2578" stroke="black" stroke-width="5" stroke-linecap="round"/>
<path d="M702.359 986.037C642.245 955.925 664.617 671.868 700.04 517.564C700.279 516.522 701.779 516.596 702.036 517.634C707.023 537.792 720.695 568.722 774.169 577.331C834.972 587.12 889.859 574.513 892.67 570.212C895.48 565.911 901.381 550.723 900.316 533.281C918.528 640.821 960.721 861.959 951.753 925.505C943.21 986.037 930.541 982.079 890.047 986.037C802.624 994.582 798.692 783.97 800.571 665.308C800.589 664.136 799.092 663.964 798.842 665.109C785.309 727.129 800.702 848.093 800.702 906.187C800.702 966.719 778.205 1024.03 702.359 986.037Z" fill="black"/>
<path d="M762.988 103.258C759.911 101.749 752.003 99.6355 744.988 103.258" stroke="black" stroke-width="5" stroke-linecap="round"/>
<path d="M849.561 17.9508C931.527 26.4439 906.482 88.3604 883.714 118.258C879.064 108.007 869.907 107.641 865.911 108.74C862.132 51.0448 826.066 58.8301 808.506 69.9347C771.883 68.4703 762.728 82.9916 762.728 90.4356C746.853 80.4574 733.41 92.1719 732.32 94.735C691.629 -24.7549 793.852 -5.84467 849.561 17.9508Z" fill="black"/>
<path d="M792.988 112.758C792.988 126.875 804.215 138.258 817.988 138.258C831.76 138.258 842.988 126.875 842.988 112.758C842.988 98.6399 831.76 87.2578 817.988 87.2578C804.215 87.2578 792.988 98.6399 792.988 112.758Z" stroke="black" stroke-width="5"/>
<path d="M815.871 123.771C812.932 125.615 808.883 124.455 806.829 121.18C804.775 117.905 805.492 113.755 808.432 111.911C811.372 110.067 815.421 111.227 817.475 114.502C819.529 117.777 818.811 121.927 815.871 123.771Z" fill="black"/>
<path d="M725.988 112.758C725.988 126.807 737.371 138.258 751.488 138.258C765.604 138.258 776.988 126.807 776.988 112.758C776.988 98.7079 765.604 87.2578 751.488 87.2578C737.371 87.2578 725.988 98.7079 725.988 112.758Z" stroke="black" stroke-width="5"/>
<path d="M744.924 121.836C746.545 125.946 750.775 128.128 754.371 126.709C757.967 125.291 759.568 120.808 757.947 116.699C756.326 112.588 752.096 110.407 748.5 111.826C744.904 113.244 743.302 117.726 744.924 121.836Z" fill="black"/>
<path d="M776.988 112.258H791.988" stroke="black" stroke-width="5" stroke-linecap="round"/>
<path d="M843.988 109.258L861.988 114.258" stroke="black" stroke-width="5" stroke-linecap="round"/>
<path d="M735.362 451.258C741.394 468.963 738.379 511.749 711.988 541.258" stroke="black" stroke-width="5" stroke-linecap="round"/>
<path d="M873.286 460.258C865.326 475.316 859.885 524.741 878.988 558.258" stroke="black" stroke-width="5" stroke-linecap="round"/>
<path d="M872.988 459.633C845.977 463.014 781.627 465.529 734.988 451.258" stroke="black" stroke-width="5" stroke-linecap="round"/>
<path d="M876.988 242.258C956.944 287.067 1042.39 404.298 878.778 553.258" stroke="black" stroke-width="5" stroke-linecap="round"/>
<path d="M889.988 465.258C905.267 442.868 905.532 438.688 906.988 410.258" stroke="black" stroke-width="5" stroke-linecap="round"/>
<path d="M898.988 534.258C898.988 553.708 897.292 560.313 893.649 571.479C847.135 582.525 745.381 592.175 710.988 540.883" stroke="black" stroke-width="5" stroke-linecap="round"/>
<path d="M673.988 324.258C699.321 404.857 675.073 470.14 711.988 541.258" stroke="black" stroke-width="5" stroke-linecap="round"/>
<path d="M787.758 180.15C787.293 182.863 786.211 185.096 784.944 186.526C783.659 187.978 782.406 188.398 781.452 188.219C780.499 188.042 779.463 187.193 778.74 185.366C778.027 183.565 777.753 181.079 778.218 178.366C778.683 175.652 779.766 173.42 781.032 171.989C782.317 170.539 783.571 170.118 784.524 170.296C785.478 170.475 786.513 171.323 787.237 173.15C787.95 174.951 788.223 177.436 787.758 180.15Z" stroke="black" stroke-width="5"/>
<path d="M574.176 233.787C574.741 205.547 592.818 145.57 631.796 114.756C642.633 109.41 664.644 109.126 665.988 150.757C659.205 167.861 654.507 194.655 651.709 217.69C647.284 254.12 621.882 296.903 599.173 295.209C576.465 293.514 573.047 253.555 574.176 233.787Z" stroke="black" stroke-width="5" stroke-linecap="round"/>
<path d="M631.988 115.258C650.344 100.399 686.885 75.6635 730.599 76.3627C734.867 75.9257 743.32 76.6249 742.978 82.918C742.551 90.7847 729.745 84.2292 710.108 94.7179" stroke="black" stroke-width="5" stroke-linecap="round"/>
<path d="M694.988 104.258C702.457 107.817 716.077 116.579 710.805 123.15C709.78 124.519 706.851 127.258 703.336 127.258" stroke="black" stroke-width="5" stroke-linecap="round"/>
<path d="M692.071 116.258C697.998 119.273 708.29 127.196 702.045 134.763C695.8 142.33 688.747 141.754 686 140.52C683.172 139.403 678.902 136.608 680.242 133.118C680.545 132.327 681.136 131.501 682.097 130.651C687.301 126.045 689.18 130.377 689.469 133.118" stroke="black" stroke-width="5" stroke-linecap="round"/>
<path d="M683.988 91.2959C694.984 90.8586 716.976 94.0096 716.976 110.114C717.119 111.864 716.034 115.103 710.55 114.053" stroke="black" stroke-width="5" stroke-linecap="round"/>
<path d="M665.988 150.258C669.936 140.52 674.59 133.989 679.988 133.258" stroke="black" stroke-width="5" stroke-linecap="round"/>
<path d="M597.988 306.258C611.674 316.216 645.834 333.848 672.988 324.711" stroke="black" stroke-width="5" stroke-linecap="round"/>
<path d="M650.988 225.258C657.906 221.598 682.393 215.377 724.988 219.768" stroke="black" stroke-width="5" stroke-linecap="round"/>
<path d="M385.988 323.758L364.988 294.758" stroke="black" stroke-width="5" stroke-linecap="round"/>
<path d="M407.488 322.758L410.488 267.258" stroke="black" stroke-width="5" stroke-linecap="round"/>
<path d="M429.488 328.258L446.488 300.758" stroke="black" stroke-width="5" stroke-linecap="round"/>
<path d="M378.988 386.533C380.352 381.819 385.495 373.671 392.988 374.291" stroke="black" stroke-width="5" stroke-linecap="round"/>
<ellipse cx="417.488" cy="1070.26" rx="63.5" ry="9.5" fill="black"/>
<path d="M379.988 453.258C380.762 467.977 388.163 467.318 392.112 464.992C392.365 464.842 392.614 464.639 392.83 464.439C417.428 441.68 410.979 487.302 408.988 496.758C406.988 506.258 409.988 518.258 416.988 519.258C423.988 520.258 435.488 515.258 430.488 508.258C425.488 501.258 426.488 486.758 425.488 471.758C424.488 456.758 416.988 446.758 408.988 440.758C400.988 434.758 378.988 434.258 379.988 453.258Z" stroke="black" stroke-width="5" stroke-linecap="round"/>
<path d="M392.488 474.758C391.821 495.758 388.288 541.658 379.488 557.258C368.488 576.758 350.488 744.258 364.988 771.258C375.758 791.314 389.949 841.659 396.993 869.301C397.777 872.377 401.189 873.977 404.193 872.95C409.152 871.256 415.377 869.887 419.488 871.258C425.488 873.258 432.988 867.091 435.988 863.758" stroke="black" stroke-width="5" stroke-linecap="round"/>
<path d="M438.988 870.758C441.988 867.758 446.488 857.058 440.488 838.258C432.988 814.758 419.988 731.758 422.988 711.258C425.388 694.858 420.321 576.758 417.488 519.758" stroke="black" stroke-width="5" stroke-linecap="round"/>
<path d="M425.488 518.258C429.321 587.758 438.788 731.058 445.988 748.258C453.188 765.458 453.655 809.758 452.988 829.758C453.155 834.758 452.155 839.258 452.988 844.258" stroke="black" stroke-width="5" stroke-linecap="round"/>
<path d="M380.988 813.758C379.322 828.924 373.988 848.258 378.488 868.258C383.769 891.723 376.488 967.758 376.488 970.258" stroke="black" stroke-width="5" stroke-linecap="round"/>
<path d="M388.988 970.758C393.655 968.424 406.888 965.158 422.488 970.758C441.988 977.758 442.988 943.258 435.988 923.258C430.388 907.258 432.321 887.591 433.988 879.758" stroke="black" stroke-width="5" stroke-linecap="round"/>
<path d="M418.625 884.758C418.474 896.224 417.808 920.831 416.352 927.534C413.155 942.258 418.171 949.143 419.989 955.758" stroke="black" stroke-width="5" stroke-linecap="round"/>
<path d="M403.988 890.758C400.988 909.258 396.488 948.158 402.488 955.758" stroke="black" stroke-width="5" stroke-linecap="round"/>
<path d="M402.988 420.258C404.321 426.091 406.988 438.858 406.988 449.258" stroke="black" stroke-width="5" stroke-linecap="round"/>
<path d="M233.433 551.625C236.01 551.625 238.099 549.537 238.099 546.961C238.099 544.385 236.01 542.297 233.433 542.297C230.855 542.297 228.766 544.385 228.766 546.961C228.766 549.537 230.855 551.625 233.433 551.625Z" fill="black"/>
<path d="M234.988 592.049C237.565 592.049 239.655 589.961 239.655 587.385C239.655 584.809 237.565 582.721 234.988 582.721C232.411 582.721 230.322 584.809 230.322 587.385C230.322 589.961 232.411 592.049 234.988 592.049Z" fill="black"/>
<path d="M44.6892 1030.49C55.0601 1054.33 100.689 1099.68 114.689 1077.91C121.097 1067.95 114.689 1060.81 101.988 1046.04C88.7457 1030.64 88.5061 1021.42 94.9881 1016.5C98.6172 1013.39 107.433 1005.61 110.544 1002.5" stroke="black" stroke-width="5" stroke-linecap="round"/>
<path d="M198.432 1024.27C198.432 1054.59 227.311 1065.78 251.578 1060.81C281.911 1054.59 298.245 1043.7 289.689 1035.15C282.845 1028.31 268.817 1032.64 261.689 1035.15C248.467 1039.82 238.356 1028.16 242.245 1007.17" stroke="black" stroke-width="5" stroke-linecap="round"/>
<path d="M166.908 1076.49C162.527 1062.72 198.79 1058.6 217.65 1057.25C224.221 1064.54 239.081 1062.56 241.21 1064.25C221.134 1072.35 171.288 1090.26 166.908 1076.49Z" fill="black"/>
<path d="M17.4669 1089.57C5.64466 1078.38 54.542 1074.54 80.4669 1074.02C84.2002 1079.62 98.6156 1083.61 105.356 1084.91C80.9865 1091.13 29.2891 1100.77 17.4669 1089.57Z" fill="black"/>
<path d="M100.432 1001.73C-19.7933 975.767 46.7674 818.659 76.3229 587.387C89.488 678.759 230.488 680.259 276.212 631.697C271.545 820.6 303.434 899.115 269.212 963.637C244.461 1010.3 182.028 1001.67 161.577 969.714C147.86 984.94 130.405 1008.2 100.432 1001.73Z" fill="black"/>
<path d="M133.877 354.172C95.4966 424.933 69.3212 536.078 81.7657 609.151C96.7472 635.808 131.561 661.021 177.432 664.345C195.873 666.78 248.734 657.353 273.099 634.027C285.043 622.594 285.543 565.618 273.099 513.534" stroke="black" stroke-width="5" stroke-linecap="round"/>
<path d="M214.549 194.036C218.512 149.361 199.167 125.862 188.999 119.698C221.891 138.226 254.306 126.184 266.402 117.847L270.109 137.699C292.644 139.971 298.013 109.438 297.88 93.8875C297.675 69.8951 271.12 40.2704 218.294 52.15C165.468 64.0297 136.477 107.705 128.583 128.058C90.7615 117.664 50.132 145.949 34.545 161.39C18.4277 177.419 -15.5046 225.875 8.32254 279.979C40.4692 352.974 125.98 334.848 139.937 327.668C188.164 302.86 209.596 249.879 214.549 194.036Z" fill="black"/>
<path d="M286.826 185.802C285.701 193.385 282.894 199.867 279.386 204.226C275.838 208.636 271.91 210.521 268.442 210.007C264.976 209.494 261.763 206.553 259.647 201.303C257.555 196.115 256.747 189.098 257.872 181.515C258.995 173.932 261.803 167.45 265.312 163.091C268.86 158.68 272.787 156.796 276.255 157.309C279.722 157.823 282.934 160.764 285.05 166.013C287.142 171.201 287.95 178.219 286.826 185.802Z" stroke="black" stroke-width="5"/>
<path d="M272.582 192.326C275.022 192.687 277.529 189.42 278.18 185.029C278.831 180.637 277.38 176.783 274.939 176.422C272.499 176.06 269.992 179.328 269.341 183.72C268.69 188.111 270.141 191.965 272.582 192.326Z" fill="black"/>
<path d="M214.681 190.296L255.994 186.551" stroke="black" stroke-width="5" stroke-linecap="round"/>
<path d="M274.655 138.479C278.223 145.658 288.751 161.349 299.744 170.13C310.987 179.112 311.936 190.561 304.758 198.81L293.569 211.787C299.744 258.98 290.646 293.927 232.774 310.195" stroke="black" stroke-width="5" stroke-linecap="round"/>
<path d="M232.088 233.34C233.455 233.543 234.729 232.599 234.931 231.232C235.133 229.866 234.189 228.593 232.821 228.391C231.454 228.188 230.181 229.132 229.979 230.499C229.776 231.865 230.72 233.138 232.088 233.34Z" fill="black"/>
<path d="M223.119 256.29C224.76 256.533 226.255 255.622 226.457 254.255C226.66 252.888 225.493 251.583 223.852 251.34C222.211 251.097 220.717 252.008 220.514 253.375C220.312 254.741 221.478 256.047 223.119 256.29Z" fill="black"/>
<path d="M244.945 252.442C246.586 252.685 248.08 251.774 248.283 250.407C248.485 249.041 247.319 247.736 245.678 247.492C244.037 247.249 242.542 248.16 242.34 249.527C242.137 250.894 243.303 252.199 244.945 252.442Z" fill="black"/>
<path d="M406.164 380.383C408.361 377.318 409.464 374.527 408.463 372.6C405.551 366.998 398.389 372.748 395.172 376.324C387.166 384.927 371.757 399.88 375.91 382.479C380.063 365.078 371.23 366.149 350.548 387.39L329.988 399.886" stroke="black" stroke-width="5" stroke-linecap="round"/>
<path d="M404.482 407.666C406.253 413.108 403.412 425.704 377.377 428.756C367.527 429.91 366.046 429.748 356.801 428.969H340.965" stroke="black" stroke-width="5" stroke-linecap="round"/>
<path d="M388.694 396.779C393.809 393.011 401.968 386.172 406.156 380.329C410.703 380.276 415.107 382.838 408.089 391.791C405.05 395.668 399.871 400.741 391.635 407.321" stroke="black" stroke-width="5" stroke-linecap="round"/>
<path d="M391.642 407.375C399.878 400.796 405.058 395.722 408.096 391.846C412.435 393.068 416.338 397.795 404.482 407.666C401.889 409.824 398.543 412.23 394.282 414.897" stroke="black" stroke-width="5" stroke-linecap="round"/>
<path d="M142.046 338.08L175.711 367.523C176.804 368.48 178.523 367.914 178.833 366.495L187.609 326.379C187.935 324.892 189.787 324.365 190.846 325.46L213.639 349.008" stroke="black" stroke-width="5" stroke-linecap="round"/>
<path d="M213.638 314.314C215.505 317.811 218.182 323.495 220.69 330.1C224.132 339.166 227.258 349.97 227.537 359.243" stroke="black" stroke-width="5" stroke-linecap="round"/>
<path d="M171.637 395.898C183.134 411.464 247.883 454.571 294.478 407.274L307.186 393.504" stroke="black" stroke-width="5" stroke-linecap="round"/>
<path d="M203.138 548.063C218.097 544.197 289.049 505.363 309.714 469.279" stroke="black" stroke-width="5" stroke-linecap="round"/>
<path d="M304.174 422.371C309.298 440.759 310.74 456.281 309.713 469.28C321.114 461.462 332.004 455.448 332.004 430.791C332.004 413.35 319.299 398.315 307.803 393.504" stroke="black" stroke-width="5" stroke-linecap="round"/>
<path d="M208.865 381.101C211.501 381.101 213.638 378.539 213.638 375.377C213.638 372.215 211.501 369.652 208.865 369.652C206.23 369.652 204.093 372.215 204.093 375.377C204.093 378.539 206.23 381.101 208.865 381.101Z" fill="black"/>
<path d="M215.547 408.769C218.183 408.769 220.32 406.207 220.32 403.045C220.32 399.883 218.183 397.32 215.547 397.32C212.912 397.32 210.774 399.883 210.774 403.045C210.774 406.207 212.912 408.769 215.547 408.769Z" fill="black"/>
<path d="M266.252 250.391C265.637 254.112 267.235 261.801 278.548 262.794" stroke="black" stroke-width="5" stroke-linecap="round"/>
<path d="M224.099 337.07C240.432 348.731 263.766 371.275 263.766 409.366" stroke="black" stroke-width="5" stroke-linecap="round"/>
<path d="M728.633 1012.07V1026.91C704.932 1037.24 663.424 1060.6 686.996 1071.44C710.569 1082.29 751.479 1059.18 768.988 1046.27V1006.26" stroke="black" stroke-width="5" stroke-linecap="round"/>
<path d="M879.988 1001.26V1038.54C891.469 1048.44 925.273 1067.36 968.645 1063.82C1022.86 1059.4 934.841 1049.29 910.603 1004.42" stroke="black" stroke-width="5" stroke-linecap="round"/>
</svg>
