<svg width="1370" height="1515" viewBox="0 0 1370 1515" fill="none" xmlns="http://www.w3.org/2000/svg">
<path d="M1046.1 618.625C1072.62 624.065 1060.18 660.572 1079.62 670.287C1102.82 681.883 1110.81 616.594 1107.79 588.883C1106.93 576.732 1092.78 571.328 1090.87 588.883C1088.84 607.53 1111.98 679.84 1138.51 651.937L1156.21 631.452C1161.13 625.39 1170.83 616.968 1179.03 631.452C1187.23 645.935 1200.29 641.149 1205.8 636.945L1223.1 624.361" stroke="black" stroke-width="5" stroke-linecap="round"/>
<path d="M1210.49 568.678L1348.93 545.227C1349.91 545.06 1350.51 546.286 1349.76 546.956L1285.23 605.077C1285.15 605.144 1285.08 605.197 1284.98 605.235C1279.37 607.545 1257.27 598.784 1245.86 593.649C1245.3 593.397 1244.64 593.702 1244.48 594.294C1241.74 603.938 1238.39 612.888 1236.75 616.91C1236.58 617.345 1236.09 617.599 1235.74 617.293C1232.43 614.447 1232.01 596.27 1232.25 586.212C1232.27 585.699 1231.89 585.263 1231.38 585.172C1222.91 583.658 1211.24 576.092 1206.32 572.374" stroke="black" stroke-width="5" stroke-linecap="round"/>
<path d="M1245.32 593.652C1259.84 586.772 1296.56 569.539 1327.32 555.652" stroke="black" stroke-width="5" stroke-linecap="round"/>
<path d="M1236.32 617.652L1263.32 601.652" stroke="black" stroke-width="5" stroke-linecap="round"/>
<path d="M1242.32 579.652L1279.32 567.652" stroke="black" stroke-width="5" stroke-linecap="round"/>
<path d="M598.099 1035.65V1346.04C598.099 1346.57 598.507 1347 599.032 1347.04L860.003 1364.65C860.051 1364.65 860.099 1364.65 860.147 1364.65L963.099 1356.8" stroke="black" stroke-width="7" stroke-linecap="round"/>
<path d="M598.099 1035.02L858.977 1002.79C859.573 1002.72 860.099 1003.18 860.099 1003.78V1360.65" stroke="black" stroke-width="7" stroke-linecap="round"/>
<path d="M912.099 1005.65L1246.16 1027.17C1246.69 1027.2 1247.1 1027.64 1247.1 1028.17V1158.65" stroke="black" stroke-width="7" stroke-linecap="round"/>
<path d="M599.052 1346.65H500.099C499.547 1346.65 499.099 1347.1 499.099 1347.65V1465.6C499.099 1466.09 499.461 1466.52 499.95 1466.59L790.95 1510.48C791.555 1510.57 792.099 1510.1 792.099 1509.49V1395.75" stroke="black" stroke-width="7" stroke-linecap="round"/>
<path d="M791.099 1510.65L1024.1 1488.65" stroke="black" stroke-width="7" stroke-linecap="round"/>
<path d="M929.099 1504.65V1259.65L1034.1 1504.65H929.099Z" fill="black" fill-opacity="0.3"/>
<path d="M1223.18 1388.11L1068.53 1065.64C1067.88 1064.28 1068.91 1062.72 1070.41 1062.78L1144.23 1065.55C1144.96 1065.58 1145.63 1066.01 1145.95 1066.67L1300.48 1384.1C1300.85 1384.86 1300.7 1385.78 1300.09 1386.39L1267.38 1419.16C1267.03 1419.51 1266.55 1419.72 1266.05 1419.74L1199.05 1422.46C1197.29 1422.53 1196.31 1420.46 1197.47 1419.14L1222.88 1390.29C1223.41 1389.69 1223.53 1388.83 1223.18 1388.11Z" fill="black"/>
<path d="M1136.02 1479.25L1117.63 1498.05C1116.36 1499.34 1117.33 1501.52 1119.14 1501.44L1182.87 1498.81C1183.34 1498.79 1183.78 1498.61 1184.12 1498.3L1202.19 1482.14C1203.56 1480.92 1202.7 1478.65 1200.86 1478.65H1137.45C1136.91 1478.65 1136.4 1478.87 1136.02 1479.25Z" fill="black"/>
<path d="M694.099 1059.41V1025.23C694.099 1024.23 694.842 1023.38 695.836 1023.25L750.836 1015.95C752.035 1015.79 753.099 1016.73 753.099 1017.94V1053.02C753.099 1054.04 752.338 1054.89 751.33 1055.01L696.33 1061.39C695.142 1061.53 694.099 1060.6 694.099 1059.41Z" fill="black"/>
<path d="M606.099 1449.91V1479.15C606.099 1480.13 606.819 1480.97 607.794 1481.12L660.794 1489.3C662.006 1489.48 663.099 1488.55 663.099 1487.32V1456.26C663.099 1455.25 662.343 1454.4 661.337 1454.28L608.337 1447.92C607.147 1447.78 606.099 1448.71 606.099 1449.91Z" fill="black"/>
<path d="M698.099 1316.65V1350.92C698.099 1351.96 698.9 1352.83 699.939 1352.91L756.939 1357.48C758.103 1357.57 759.099 1356.65 759.099 1355.49V1316.65C759.099 1315.55 758.204 1314.65 757.099 1314.65H700.099C698.995 1314.65 698.099 1315.55 698.099 1316.65Z" fill="black"/>
<path d="M606.099 1396V1349.8C606.099 1348.64 607.081 1347.72 608.237 1347.8L661.237 1351.45C662.285 1351.53 663.099 1352.4 663.099 1353.45V1402.4C663.099 1403.6 662.05 1404.53 660.859 1404.38L607.859 1397.99C606.855 1397.86 606.099 1397.01 606.099 1396Z" fill="black"/>
<path d="M1034.8 1504.34L892.353 1177.85C892.198 1177.49 892.262 1177.08 892.518 1176.79L995.121 1059.79C995.594 1059.25 996.466 1059.37 996.775 1060.02L1154.79 1391.29C1154.97 1391.68 1154.89 1392.14 1154.57 1392.44L1036.41 1504.67C1035.91 1505.15 1035.08 1504.98 1034.8 1504.34Z" stroke="black" stroke-width="7" stroke-linecap="round"/>
<path d="M1037.1 1504.65L1247.9 1494.91C1248.14 1494.9 1248.37 1494.8 1248.54 1494.64L1366.14 1384.48C1366.82 1383.85 1366.35 1382.72 1365.42 1382.76L1191.11 1389.48" stroke="black" stroke-width="7" stroke-linecap="round"/>
<path d="M996.099 1059.65L1199.64 1067.48C1199.99 1067.5 1200.32 1067.7 1200.48 1068.02L1364.1 1382.65" stroke="black" stroke-width="7" stroke-linecap="round"/>
<path d="M650.441 762.033L618.407 1027.6C618.251 1028.89 619.357 1029.99 620.651 1029.82L838.852 1001.38C839.85 1001.25 840.597 1000.4 840.593 999.39L839.608 708.309C839.604 706.979 838.326 706.023 837.049 706.395L651.867 760.352C651.098 760.576 650.537 761.238 650.441 762.033Z" stroke="black" stroke-width="5"/>
<path d="M860.584 724.637L840.513 704.567C839.253 703.307 837.099 704.199 837.099 705.981V1001.5C837.099 1002.66 838.086 1003.58 839.245 1003.5L883.076 1000.3C884.189 1000.22 885.02 999.243 884.923 998.131L861.162 725.878C861.122 725.409 860.917 724.97 860.584 724.637Z" fill="black"/>
<path d="M861.099 727.652H890.888C891.873 727.652 892.711 728.37 892.864 729.343L935.208 999.659C935.408 1000.93 934.368 1002.06 933.082 1001.96L882.599 998.152" stroke="black" stroke-width="5" stroke-linecap="round"/>
<path d="M740.599 734.223C744.932 714.223 761.299 675.224 792.099 679.223C808.599 681.366 818.099 700.723 818.099 710.223" stroke="black" stroke-width="5" stroke-linecap="round"/>
<path d="M698.599 745.722C703.432 722.222 722.499 671.12 758.099 668.721C783.099 667.036 791.599 698.653 788.099 719.652" stroke="black" stroke-width="5" stroke-linecap="round"/>
<path d="M163.099 537.652C186.064 520.973 236.613 490.549 254.992 502.275C277.957 516.931 263.295 518.952 251.565 515.92" stroke="black" stroke-width="5" stroke-linecap="round"/>
<path d="M230.556 516.406C242.387 514.634 266.255 514.859 267.047 529.947C267.494 538.745 265.069 537.282 260.632 534.534C257.451 532.569 253.238 529.947 248.302 529.947H227.099" stroke="black" stroke-width="5" stroke-linecap="round"/>
<path d="M227.099 530.652H248.43C253.396 530.652 257.634 533.329 260.835 535.336C263.966 541.015 266.284 551.488 250.42 547.932C234.556 544.378 228.258 545.464 227.099 546.452" stroke="black" stroke-width="5" stroke-linecap="round"/>
<path d="M250.694 547.652C255.94 553.647 261.992 564.936 244.298 562.139C226.605 559.342 212.682 567.967 207.933 572.628C199.909 577.956 180.895 584.615 169.099 568.633" stroke="black" stroke-width="5" stroke-linecap="round"/>
<path d="M80.7963 563.024C163.942 516.926 164.028 560.341 157.003 586.816C146.612 613.582 95.0671 643.066 71.9264 646.593C39.2833 654.094 -18.5171 645.205 11.4598 549.64C48.9395 430.186 65.8934 342.948 191.099 319.652" stroke="black" stroke-width="5" stroke-linecap="round"/>
<path d="M126.099 459.652C126.099 504.764 123.459 503.701 104.099 544.652" stroke="black" stroke-width="5" stroke-linecap="round"/>
<path d="M296.099 483.652V470.652" stroke="black" stroke-width="5" stroke-linecap="round"/>
<path d="M311.099 482.652L316.099 466.652" stroke="black" stroke-width="5" stroke-linecap="round"/>
<path d="M326.099 486.652L338.099 458.652" stroke="black" stroke-width="5" stroke-linecap="round"/>
<path d="M161.084 1199.65C162.755 1213.55 159.414 1235.19 143.813 1242.33C124.309 1251.26 74.3206 1281.54 122.314 1287.99C160.709 1293.15 191.637 1266.98 202.31 1253.25C205.975 1237.37 208.584 1219.01 202.31 1199.65" stroke="black" stroke-width="5" stroke-linecap="round"/>
<path d="M236.863 1173.26C65.6435 1280.63 92.2318 891.237 103.956 702.027C228.279 740.799 328.949 715.946 351.254 680.652C357.585 703.178 377.194 864.442 378.849 910.304L378.918 912.133C381.614 986.692 387.74 1156.63 291.132 1191.16C267.103 1199.74 249.577 1192.03 236.863 1173.26Z" fill="black"/>
<path d="M252.55 1200.15C251.641 1210.05 251.864 1233.16 255.515 1246.08C264.737 1278.77 292.626 1313.35 360.06 1310.49C369.145 1308.32 381.864 1299.2 360.06 1280.03C352.089 1273.03 343.45 1266.63 335.325 1260.01C315.647 1243.98 299.088 1226.69 303.031 1196.65" stroke="black" stroke-width="5" stroke-linecap="round"/>
<path d="M95.0991 643.652C98.5807 682.669 100.066 680.2 106.039 702.424C166.353 720.204 299.797 740.65 351.099 680.2" stroke="black" stroke-width="5" stroke-linecap="round"/>
<path d="M157.099 409.652L158.986 406.792C170.359 389.632 192.289 382.78 211.482 390.397C228.703 397.23 248.389 392.469 260.527 378.536L276.099 360.652" stroke="black" stroke-width="5" stroke-linecap="round"/>
<path d="M265.192 318.763C269.567 306.487 265.567 298.226 261.686 296.652C238.298 317.428 202.826 309.715 189.686 297.124C185.005 301.279 187.728 313.571 189.686 317.347C215.013 344.544 251.065 329.31 265.192 318.763Z" fill="black"/>
<path d="M334.114 116.889C323.215 156.125 317.748 159.601 301.894 176.984C301.894 159.806 298.939 130.971 298.939 118.962C246.988 118.962 203.152 97.7205 187.708 87.0978C188.272 123.119 154.549 146.671 154.549 146.671C154.549 146.671 159.384 161.218 162.151 193.775C164.372 219.822 158 214.788 154.549 209.015C144.606 176.873 128.309 185.463 121.39 193.775C36.6212 55.8012 166.986 29.1417 191.859 31.6815C210.651 15.6108 236.857 3.0167 255.273 1.1694C321.728 -5.49254 351.795 53.2704 334.114 116.889Z" fill="black"/>
<path d="M155.099 233.567C164.09 288.444 224.413 327.905 267.95 283.45C311.487 238.996 302.77 157.624 298.12 119.652" stroke="black" stroke-width="5" stroke-linecap="round"/>
<path d="M120.894 189.652C115.613 203.024 120.568 232.652 155.099 232.652" stroke="black" stroke-width="5" stroke-linecap="round"/>
<path d="M138.292 197.652C137.68 200.128 138.17 205.996 145.099 209.652" stroke="black" stroke-width="5" stroke-linecap="round"/>
<path d="M298.099 225.652C309.486 220.857 317.525 203.095 314.432 174.652" stroke="black" stroke-width="5" stroke-linecap="round"/>
<path d="M232.099 258.978C242.719 262.176 242.048 253.375 250.099 245.652" stroke="black" stroke-width="5" stroke-linecap="round"/>
<path d="M266.599 196.652C270.741 196.652 274.099 193.071 274.099 188.652C274.099 184.234 270.741 180.652 266.599 180.652C262.457 180.652 259.099 184.234 259.099 188.652C259.099 193.071 262.457 196.652 266.599 196.652Z" fill="black"/>
<path d="M200.599 196.652C205.294 196.652 209.099 193.518 209.099 189.652C209.099 185.786 205.294 182.652 200.599 182.652C195.905 182.652 192.099 185.786 192.099 189.652C192.099 193.518 195.905 196.652 200.599 196.652Z" fill="black"/>
<path d="M184.099 172.652C185.745 168.427 192.859 160.612 208.099 163.147" stroke="black" stroke-width="5" stroke-linecap="round"/>
<path d="M254.099 163.652C257.733 161.389 267.625 158.219 278.099 163.652" stroke="black" stroke-width="5" stroke-linecap="round"/>
<path d="M228.898 186.652C227.747 196.207 226.947 215.586 233.099 216.652" stroke="black" stroke-width="5" stroke-linecap="round"/>
<path d="M214.887 505.652L189.094 462.318C187.079 458.932 188.223 454.544 191.637 452.585C194.966 450.678 199.199 451.787 201.162 455.078L228.099 500.153" stroke="black" stroke-width="5" stroke-linecap="round"/>
<path d="M221.099 656.652C234.814 612.317 266.749 526.245 287.032 528.704C287.953 528.817 288.874 529.079 289.795 529.209L366.099 539.898" stroke="black" stroke-width="5" stroke-linecap="round"/>
<path d="M377.099 557.652L370.099 578.652" stroke="black" stroke-width="5" stroke-linecap="round"/>
<path d="M288.866 539.652C274.235 548.586 252.467 609.883 239.77 651.132C236.998 660.121 243.124 669.321 252.485 670.492L324.802 679.532C332.194 680.454 339.176 675.987 341.418 668.917L347.099 650.951" stroke="black" stroke-width="5" stroke-linecap="round"/>
<path d="M300.592 547.652C305.421 545.898 315.459 535.557 312.594 525.535C312.107 523.796 311.222 522.066 309.85 520.392C300.592 509.078 284.649 520.393 288.765 529.65" stroke="black" stroke-width="5" stroke-linecap="round"/>
<path d="M312.099 525.814C317.024 519.792 330.335 517.041 337.294 528.91C343.764 543.363 331.327 551.62 323.864 552.652" stroke="black" stroke-width="5" stroke-linecap="round"/>
<path d="M338.099 528.619C343.298 524.652 357.214 519.304 365.268 529.656C374.817 545.7 357.724 556.052 350.673 554.498" stroke="black" stroke-width="5" stroke-linecap="round"/>
<path d="M365.099 529.695C371.736 525.799 383.528 524.104 388.062 534.269C392.596 544.436 381.425 557.652 370.702 557.652" stroke="black" stroke-width="5" stroke-linecap="round"/>
<path d="M327.216 613.652C324.487 617.383 325.053 627.006 349.099 635.652" stroke="black" stroke-width="5" stroke-linecap="round"/>
<path d="M390.099 593.82C364.107 588.815 337.431 586.959 327.325 586.656C321.904 586.496 315.885 591.124 318.911 596.364C319.749 597.705 322.383 600.687 326.196 601.888C342.39 607.163 349.298 607.632 356.429 607.652" stroke="black" stroke-width="5" stroke-linecap="round"/>
<path d="M356.099 607.433C348.966 607.412 342.055 606.943 325.855 601.652C322.16 602.989 321.681 609.349 327.531 613.32C331.226 615.837 337.915 618.924 348.966 622.652" stroke="black" stroke-width="5" stroke-linecap="round"/>
<path d="M266.099 319.652C346.924 351.748 411.376 446.057 403.437 575.425C402.278 593.694 392.822 631.517 364.268 636.652" stroke="black" stroke-width="5" stroke-linecap="round"/>
</svg>
