<svg width="561" height="546" viewBox="0 0 561 546" fill="none" xmlns="http://www.w3.org/2000/svg">
<path d="M240.767 319.482C243.319 321.339 249.985 321.071 256.234 305.151" stroke="black" stroke-width="5" stroke-linecap="round"/>
<path d="M237.113 300.311C237.02 305.077 236.627 309.698 232.879 320.465C233.74 322.96 238.023 323.346 240.766 319.483C242.505 317.034 244.661 312.596 247.298 305.256" stroke="black" stroke-width="5" stroke-linecap="round"/>
<path d="M228.133 277.635C224.459 294.96 222.908 312.792 222.592 319.543C222.422 323.163 225.485 327.251 229.063 325.276C229.979 324.733 232.024 323.011 232.879 320.465C236.627 309.698 237.02 305.077 237.113 300.311" stroke="black" stroke-width="5" stroke-linecap="round"/>
<path d="M211.025 285.423C214.546 282.689 220.675 279.335 228.133 277.635C237.038 275.605 251.099 277.246 260.599 284.746" stroke="black" stroke-width="5" stroke-linecap="round"/>
<path d="M84.0991 456.246H117.099" stroke="black" stroke-width="7" stroke-linecap="round"/>
<path d="M141.099 456.246H151.099" stroke="black" stroke-width="7" stroke-linecap="round"/>
<path d="M110.496 333.246H356.099V374.246H93.0991L110.496 333.246Z" fill="black"/>
<path d="M3.09912 333.246H24.0991L19.5339 374.246H3.09912V333.246Z" fill="black"/>
<path d="M56.8223 518.838C61.9577 531.956 83.4995 550.023 108.794 540.654C134.088 531.286 135.142 526.342 132.507 525.04" stroke="black" stroke-width="5" stroke-linecap="round"/>
<path d="M121.529 525.041C130.458 524.607 148.806 522.58 152.268 521.571C155.099 520.746 157.599 520.246 157.099 515.065C156.691 510.839 122.989 517.798 121.575 505.069C121.516 504.537 121.745 504.014 122.112 503.625C125.324 500.22 129.673 493.717 125.042 490.777C120.465 487.871 111.224 495.506 106.306 500.542C105.688 501.174 104.734 501.363 103.979 500.903C98.5944 497.62 91.4806 489.449 86.9136 474.746" stroke="black" stroke-width="5" stroke-linecap="round"/>
<path d="M105.281 213.246C-21.9266 301.603 24.1653 435.417 56.8223 518.838C68.3648 515.974 90.5425 503.146 86.9136 474.746C82.7485 461.337 80.7016 442.496 84.0167 416.974C91.2684 361.146 120.457 305.319 133.599 285.246" stroke="black" stroke-width="5" stroke-linecap="round"/>
<path d="M170.915 208.46C177.529 204.389 227.288 208.313 236.962 145.722C253.525 145.916 262.53 132.349 249.893 126.544C236.421 119.597 237.432 106.842 239.873 99.3275C243.753 89.4722 243.988 79.125 243.151 76.9609" stroke="black" stroke-width="5" stroke-linecap="round"/>
<ellipse cx="222.421" cy="118.015" rx="3.40314" ry="5.10471" transform="rotate(0.671186 222.421 118.015)" fill="black"/>
<path d="M213.123 102.46C215.886 99.5067 223.032 95.186 229.507 101.533" stroke="black" stroke-width="5" stroke-linecap="round"/>
<path d="M194.353 159.977C199.431 167.792 205.007 170.011 215.837 164.968" stroke="black" stroke-width="5" stroke-linecap="round"/>
<path d="M152.777 105.2C151.601 107.784 150.615 113.649 156.085 116.441" stroke="black" stroke-width="5" stroke-linecap="round"/>
<path d="M94.4833 78.6655C88.0396 113.921 108.202 140.46 122.818 160.862C138.429 152.427 164.015 132.372 154.202 130.207C143.888 127.932 133.01 99.7983 143.026 91.1923C154.778 81.0953 165.37 96.3726 167.389 107.957L176.854 91.5886C174.178 80.1401 173.128 60.0577 190.341 71.3159C207.554 82.5742 232.803 79.6251 243.276 76.7433C263.926 61.9627 296.009 27.4862 259.14 7.8253C228.475 -8.52713 188.572 12.1467 164.215 30.7234C147.722 26.3695 103.269 30.5961 94.4833 78.6655Z" fill="black"/>
<path d="M123.965 158.5C131.42 167.474 135.123 174.926 134.662 190.363" stroke="black" stroke-width="5" stroke-linecap="round"/>
<path d="M115.671 211.03C113.062 201.926 111.532 184.562 126.293 187.936C144.744 192.155 182.352 210.4 179.597 220.515" stroke="black" stroke-width="5" stroke-linecap="round"/>
<path d="M190.099 227.246C208.811 233.795 220.957 246.034 224.083 259.867C224.393 261.24 225.988 262.124 227.373 261.874C234.601 260.57 249.927 262.626 255.099 271.246" stroke="black" stroke-width="5" stroke-linecap="round"/>
<path d="M60.0991 525.246H33.0991C16.5306 525.246 3.09912 511.815 3.09912 495.246V315.246C3.09912 298.678 16.5306 285.246 33.0991 285.246H39.5991" stroke="black" stroke-width="5" stroke-linecap="round"/>
<path d="M135.099 525.246H327.099C343.668 525.246 357.099 511.815 357.099 495.246V315.246C357.099 298.678 343.668 285.246 327.099 285.246H261.099" stroke="black" stroke-width="5" stroke-linecap="round"/>
<path d="M133.599 285.246H211.599" stroke="black" stroke-width="5" stroke-linecap="round"/>
<rect x="371.892" y="334.246" width="60" height="12" rx="6" fill="black"/>
<path d="M375.599 329.246L357.099 293.746" stroke="black" stroke-width="5" stroke-linecap="round"/>
<path d="M429.099 328.246L447.099 292.246" stroke="black" stroke-width="5" stroke-linecap="round"/>
<path d="M357.099 292.609C362.868 293.757 375.618 294.159 380.465 286.581C385.311 279.003 391.715 281.127 394.311 283.137L402.099 290.026" stroke="black" stroke-width="5" stroke-linecap="round"/>
<path d="M447.099 291.609C441.33 292.757 428.58 293.159 423.734 285.581C418.888 278.003 412.484 280.127 409.888 282.137L402.099 289.719" stroke="black" stroke-width="5" stroke-linecap="round"/>
<rect x="451.599" y="470.746" width="47.2945" height="11.8004" rx="5.90019" stroke="black" stroke-width="5"/>
<rect x="458.599" y="487.746" width="47.2945" height="11.8004" rx="5.90019" stroke="black" stroke-width="5"/>
<rect x="451.599" y="504.746" width="47.2945" height="11.8004" rx="5.90019" stroke="black" stroke-width="5"/>
<rect x="502.599" y="504.746" width="47.2945" height="11.8004" rx="5.90019" stroke="black" stroke-width="5"/>
<rect x="510.599" y="489.746" width="47.2945" height="11.8004" rx="5.90019" stroke="black" stroke-width="5"/>
<rect x="503.599" y="473.746" width="47.2945" height="11.8004" rx="5.90019" stroke="black" stroke-width="5"/>
<rect x="494.599" y="456.746" width="47.2945" height="11.8004" rx="5.90019" stroke="black" stroke-width="5"/>
<rect x="499.599" y="439.746" width="47.2945" height="11.8004" rx="5.90019" stroke="black" stroke-width="5"/>
<path d="M358.392 370.246C364.392 362.413 369.599 355.746 380.099 352.246H425.099C444.432 362.413 475.892 393.246 473.892 458.746" stroke="black" stroke-width="5" stroke-linecap="round"/>
<path d="M352.599 513.246H433.599" stroke="black" stroke-width="5" stroke-linecap="round"/>
<path d="M402.599 457.956V464.747" stroke="black" stroke-width="7" stroke-linecap="round"/>
<path d="M402.599 413.192V406.246" stroke="black" stroke-width="7" stroke-linecap="round"/>
<path d="M415.099 416.245C411.925 414.659 407.105 413.174 402.599 413.192C397.168 413.212 392.192 415.414 391.099 422.245C389.657 431.255 400.587 434.49 407.099 437.745C416.099 442.246 416.017 450.682 410.599 454.746C408.162 456.574 405.395 457.576 402.599 457.955C398.512 458.509 394.365 457.73 391.099 456.245" stroke="black" stroke-width="7" stroke-linecap="round"/>
<path d="M375.757 256.227C372.626 250.779 364.937 239.784 359.224 239.384" stroke="black" stroke-width="5" stroke-linecap="round"/>
<path d="M403.622 249.744C403.557 242.178 403.867 226.579 405.622 224.714" stroke="black" stroke-width="5" stroke-linecap="round"/>
<path d="M431.335 256.414C433.084 250.947 440.116 240.016 454.259 240.028" stroke="black" stroke-width="5" stroke-linecap="round"/>
</svg>
