<svg width="422" height="531" viewBox="0 0 422 531" fill="none" xmlns="http://www.w3.org/2000/svg">
<path d="M36.8511 2.84375C0.85593 156.105 -18.4547 409.229 42.2226 439.623C118.069 477.617 140.566 420.305 140.566 359.773C140.566 301.679 125.173 180.715 138.706 118.695C138.956 117.55 140.453 117.722 140.435 118.894C138.556 237.556 142.488 448.168 229.911 439.623C270.405 435.665 283.073 439.623 291.617 379.091C300.585 315.545 260.064 124.384 241.852 16.8438" stroke="black" stroke-width="5" stroke-linecap="round"/>
<path d="M68.4957 465.652V480.497C44.795 490.824 3.28687 514.188 26.8594 525.031C50.4319 535.874 91.3424 512.768 108.851 499.86V459.844" stroke="black" stroke-width="5" stroke-linecap="round"/>
<path d="M219.851 454.844V492.13C231.332 502.031 265.136 520.948 308.508 517.409C362.723 512.985 274.704 502.873 250.466 458.004" stroke="black" stroke-width="5" stroke-linecap="round"/>
<path d="M304.851 99.8433C324.043 145.52 327.734 227.385 327.412 263.969C327.397 265.687 329.408 266.615 330.723 265.511L339.215 258.377C339.622 258.036 339.876 257.56 339.918 257.03C343.63 210.475 327.393 130.602 318.56 99.0857C318.422 98.5921 318.098 98.1966 317.663 97.924C307.955 91.8294 310.43 85.6386 313.123 83.0537C313.272 82.9107 313.445 82.8012 313.635 82.7219C317.805 80.9875 326.364 79.3664 329.851 77.3433C335.969 73.7934 334.231 70.3221 321.851 72.3433C302.251 75.5433 302.351 92.01 304.851 99.8433Z" fill="black"/>
<path d="M348.468 195.498C350.896 165.874 345.504 115.867 342.177 92.1299C342.008 90.923 342.943 89.8438 344.162 89.8438H354.731C355.427 89.8438 356.071 90.1813 356.371 90.809C363.137 104.961 361.422 166.789 359.532 199.329C359.449 200.76 357.929 201.633 356.647 200.992L349.574 197.455C348.836 197.086 348.401 196.319 348.468 195.498Z" fill="black"/>
<path d="M399.851 221.844C393.036 226.165 378.43 229.327 356.53 234.799C356.412 234.829 356.293 234.87 356.183 234.921C350.843 237.404 350.414 240.301 346.851 245.844C342.57 252.502 331.503 270.02 314.08 271.712C312.735 271.843 311.782 273.162 312.456 274.333C315.841 280.21 325.149 286.237 343.382 276.107C343.684 275.939 344.035 275.83 344.375 275.893C346.785 276.343 349.441 279.891 343.851 287.344" stroke="black" stroke-width="5" stroke-linecap="round"/>
<path d="M412.351 239.344C400.351 260.01 370.251 303.244 345.851 310.844" stroke="black" stroke-width="5" stroke-linecap="round"/>
<path d="M331.566 312.233C323.232 311.233 306.066 306.133 304.066 293.733C301.566 278.233 321.564 293.733 330.564 293.733" stroke="black" stroke-width="5" stroke-linecap="round"/>
<path d="M397.851 492.843C405.518 503.193 415.939 497.838 420.755 493.414C421.146 493.055 421.351 492.545 421.351 492.015V478.751C421.351 477.033 419.272 476.051 417.831 476.988C413.259 479.962 406.846 482.53 402.851 478.843C396.351 472.844 394.351 470.844 382.351 465.844C370.351 460.844 368.351 466.343 367.851 453.843C367.469 444.294 355.202 442.8 348.291 443.265C347.693 443.306 347.091 443.107 346.746 442.617C345.578 440.96 344.622 437.914 347.351 434.844C350.494 431.308 346.016 330.857 343.487 279.587C343.419 278.221 342.033 277.361 340.76 277.862L330.713 281.809C329.902 282.127 329.388 282.897 329.445 283.766C331.443 314.56 334.931 393.536 333.883 431.724C333.864 432.434 333.46 433.043 332.872 433.441C322.776 440.275 321.854 462.569 337.851 453.843C350.794 446.783 356.142 452.607 357.288 456.608C357.333 456.765 357.351 456.921 357.352 457.085C357.418 464.658 360.583 479.239 372.851 478.843C388.351 478.343 387.851 479.343 397.851 492.843Z" fill="black"/>
<path d="M417.35 64.3439C410.735 63.8477 392.138 67.5859 370.356 86.4051C370.03 86.6863 369.63 86.8608 369.201 86.8954C356.445 87.9249 330.16 91.0538 319.688 95.9319C319.149 96.1831 318.533 96.2152 317.994 95.9636C311.822 93.0832 304.433 86.5544 318.54 80.476C318.739 80.3904 318.956 80.3361 319.172 80.3187C325.911 79.7733 338 77.5677 334.85 72.8438C331.154 67.2987 316.353 71.1488 307.816 78.474C306.793 79.3517 305.198 79.1281 304.883 77.8177C303.761 73.1584 304.974 65.4353 315.85 58.8438" stroke="black" stroke-width="5" stroke-linecap="round"/>
<path d="M306.85 66.3438C302.684 61.1771 299.55 50.0438 320.35 46.8438" stroke="black" stroke-width="5" stroke-linecap="round"/>
<path d="M310.851 37.8438C313.018 28.3438 321.851 25.3438 341.851 25.3438C367.59 25.3438 389.351 37.8438 399.851 25.8438" stroke="black" stroke-width="5" stroke-linecap="round"/>
<path d="M323.851 38.3421C317.351 36.8421 304.751 37.1421 306.351 50.3421" stroke="black" stroke-width="5" stroke-linecap="round"/>
</svg>
