<svg width="1216" height="1314" viewBox="0 0 1216 1314" fill="none" xmlns="http://www.w3.org/2000/svg">
<path d="M163.099 537.652C186.064 520.973 236.613 490.549 254.992 502.275C277.957 516.931 263.295 518.952 251.565 515.92" stroke="black" stroke-width="5" stroke-linecap="round"/>
<path d="M230.556 516.406C242.387 514.634 266.255 514.859 267.047 529.947C267.494 538.745 265.069 537.282 260.632 534.534C257.451 532.569 253.238 529.947 248.302 529.947H227.099" stroke="black" stroke-width="5" stroke-linecap="round"/>
<path d="M227.099 530.652H248.43C253.396 530.652 257.634 533.329 260.835 535.336C263.966 541.015 266.284 551.488 250.42 547.932C234.556 544.378 228.258 545.464 227.099 546.452" stroke="black" stroke-width="5" stroke-linecap="round"/>
<path d="M250.694 547.652C255.94 553.647 261.992 564.936 244.298 562.139C226.605 559.342 212.682 567.967 207.933 572.628C199.909 577.956 180.895 584.615 169.099 568.633" stroke="black" stroke-width="5" stroke-linecap="round"/>
<path d="M80.7963 563.024C163.942 516.926 164.028 560.341 157.003 586.816C146.612 613.582 95.0671 643.066 71.9264 646.593C39.2833 654.094 -18.5171 645.205 11.4598 549.64C48.9395 430.186 65.8934 342.948 191.099 319.652" stroke="black" stroke-width="5" stroke-linecap="round"/>
<path d="M126.099 459.652C126.099 504.764 123.459 503.701 104.099 544.652" stroke="black" stroke-width="5" stroke-linecap="round"/>
<path d="M296.099 483.652V470.652" stroke="black" stroke-width="5" stroke-linecap="round"/>
<path d="M311.099 482.652L316.099 466.652" stroke="black" stroke-width="5" stroke-linecap="round"/>
<path d="M326.099 486.652L338.099 458.652" stroke="black" stroke-width="5" stroke-linecap="round"/>
<path d="M161.084 1199.65C162.755 1213.55 159.414 1235.19 143.813 1242.33C124.309 1251.26 74.3206 1281.54 122.314 1287.99C160.709 1293.15 191.637 1266.98 202.31 1253.25C205.975 1237.37 208.584 1219.01 202.31 1199.65" stroke="black" stroke-width="5" stroke-linecap="round"/>
<path d="M236.863 1173.26C65.6435 1280.63 92.2318 891.237 103.956 702.027C228.279 740.799 328.949 715.946 351.254 680.652C357.585 703.178 377.194 864.442 378.849 910.304L378.918 912.133C381.614 986.692 387.74 1156.63 291.132 1191.16C267.103 1199.74 249.577 1192.03 236.863 1173.26Z" fill="black"/>
<path d="M252.55 1200.15C251.641 1210.05 251.864 1233.16 255.515 1246.08C264.737 1278.77 292.626 1313.35 360.06 1310.49C369.145 1308.32 381.864 1299.2 360.06 1280.03C352.089 1273.03 343.45 1266.63 335.325 1260.01C315.647 1243.98 299.088 1226.69 303.031 1196.65" stroke="black" stroke-width="5" stroke-linecap="round"/>
<path d="M95.0991 643.652C98.5807 682.669 100.066 680.2 106.039 702.424C166.353 720.204 299.797 740.65 351.099 680.2" stroke="black" stroke-width="5" stroke-linecap="round"/>
<path d="M157.099 409.652L158.986 406.792C170.359 389.632 192.289 382.78 211.482 390.397C228.703 397.23 248.389 392.469 260.527 378.536L276.099 360.652" stroke="black" stroke-width="5" stroke-linecap="round"/>
<path d="M265.192 318.763C269.567 306.487 265.567 298.226 261.686 296.652C238.298 317.428 202.826 309.715 189.686 297.124C185.005 301.279 187.728 313.571 189.686 317.347C215.013 344.544 251.065 329.31 265.192 318.763Z" fill="black"/>
<path d="M334.114 116.889C323.215 156.125 317.748 159.601 301.894 176.984C301.894 159.806 298.939 130.971 298.939 118.962C246.988 118.962 203.152 97.7205 187.708 87.0978C188.272 123.119 154.549 146.671 154.549 146.671C154.549 146.671 159.384 161.218 162.151 193.775C164.372 219.822 158 214.788 154.549 209.015C144.606 176.873 128.309 185.463 121.39 193.775C36.6212 55.8012 166.986 29.1417 191.859 31.6815C210.651 15.6108 236.857 3.0167 255.273 1.1694C321.728 -5.49254 351.795 53.2704 334.114 116.889Z" fill="black"/>
<path d="M155.099 233.567C164.09 288.444 224.413 327.905 267.95 283.45C311.487 238.996 302.77 157.624 298.12 119.652" stroke="black" stroke-width="5" stroke-linecap="round"/>
<path d="M120.894 189.652C115.613 203.024 120.568 232.652 155.099 232.652" stroke="black" stroke-width="5" stroke-linecap="round"/>
<path d="M138.292 197.652C137.68 200.128 138.17 205.996 145.099 209.652" stroke="black" stroke-width="5" stroke-linecap="round"/>
<path d="M298.099 225.652C309.486 220.857 317.525 203.095 314.432 174.652" stroke="black" stroke-width="5" stroke-linecap="round"/>
<path d="M232.099 258.978C242.719 262.176 242.048 253.375 250.099 245.652" stroke="black" stroke-width="5" stroke-linecap="round"/>
<path d="M266.599 196.652C270.741 196.652 274.099 193.071 274.099 188.652C274.099 184.234 270.741 180.652 266.599 180.652C262.457 180.652 259.099 184.234 259.099 188.652C259.099 193.071 262.457 196.652 266.599 196.652Z" fill="black"/>
<path d="M200.599 196.652C205.294 196.652 209.099 193.518 209.099 189.652C209.099 185.786 205.294 182.652 200.599 182.652C195.905 182.652 192.099 185.786 192.099 189.652C192.099 193.518 195.905 196.652 200.599 196.652Z" fill="black"/>
<path d="M184.099 172.652C185.745 168.427 192.859 160.612 208.099 163.147" stroke="black" stroke-width="5" stroke-linecap="round"/>
<path d="M254.099 163.652C257.733 161.389 267.625 158.219 278.099 163.652" stroke="black" stroke-width="5" stroke-linecap="round"/>
<path d="M228.898 186.652C227.747 196.207 226.947 215.586 233.099 216.652" stroke="black" stroke-width="5" stroke-linecap="round"/>
<path d="M214.887 505.652L189.094 462.318C187.079 458.932 188.223 454.544 191.637 452.585C194.966 450.678 199.199 451.787 201.162 455.078L228.099 500.153" stroke="black" stroke-width="5" stroke-linecap="round"/>
<path d="M221.099 656.652C234.814 612.317 266.749 526.245 287.032 528.704C287.953 528.817 288.874 529.079 289.795 529.209L366.099 539.898" stroke="black" stroke-width="5" stroke-linecap="round"/>
<path d="M377.099 557.652L370.099 578.652" stroke="black" stroke-width="5" stroke-linecap="round"/>
<path d="M288.866 539.652C274.235 548.586 252.467 609.883 239.77 651.132C236.998 660.121 243.124 669.321 252.485 670.492L324.802 679.532C332.194 680.454 339.176 675.987 341.418 668.917L347.099 650.951" stroke="black" stroke-width="5" stroke-linecap="round"/>
<path d="M300.592 547.652C305.421 545.898 315.459 535.557 312.594 525.535C312.107 523.796 311.222 522.066 309.85 520.392C300.592 509.078 284.649 520.393 288.765 529.65" stroke="black" stroke-width="5" stroke-linecap="round"/>
<path d="M312.099 525.814C317.024 519.792 330.335 517.041 337.294 528.91C343.764 543.363 331.327 551.62 323.864 552.652" stroke="black" stroke-width="5" stroke-linecap="round"/>
<path d="M338.099 528.619C343.298 524.652 357.214 519.304 365.268 529.656C374.817 545.7 357.724 556.052 350.673 554.498" stroke="black" stroke-width="5" stroke-linecap="round"/>
<path d="M365.099 529.695C371.736 525.799 383.528 524.104 388.062 534.269C392.596 544.436 381.425 557.652 370.702 557.652" stroke="black" stroke-width="5" stroke-linecap="round"/>
<path d="M327.216 613.652C324.487 617.383 325.053 627.006 349.099 635.652" stroke="black" stroke-width="5" stroke-linecap="round"/>
<path d="M390.099 593.82C364.107 588.815 337.431 586.959 327.325 586.656C321.904 586.496 315.885 591.124 318.911 596.364C319.749 597.705 322.383 600.687 326.196 601.888C342.39 607.163 349.298 607.632 356.429 607.652" stroke="black" stroke-width="5" stroke-linecap="round"/>
<path d="M356.099 607.433C348.966 607.412 342.055 606.943 325.855 601.652C322.16 602.989 321.681 609.349 327.531 613.32C331.226 615.837 337.915 618.924 348.966 622.652" stroke="black" stroke-width="5" stroke-linecap="round"/>
<path d="M266.099 319.652C346.924 351.748 411.376 446.057 403.437 575.425C402.278 593.694 392.822 631.517 364.268 636.652" stroke="black" stroke-width="5" stroke-linecap="round"/>
<path d="M487.618 714.256C480.908 723.101 512.886 760.653 556.318 755.297C610.608 748.603 629.21 745.421 651.433 751.536C659.383 753.723 672.614 760.092 688.829 751.387C704.472 742.988 711.226 719.817 699.199 709.59" stroke="black" stroke-width="5" stroke-linecap="round"/>
<path d="M546.824 743.631C515.094 747.779 481.042 724.9 485.251 712.349C487.968 704.246 515.345 700.91 531.446 698.651C531.849 698.594 532.256 698.665 532.622 698.845C570.55 717.422 619.816 689.435 618.126 674.202C616.824 662.468 625.307 660.292 630.26 660.67C630.671 660.702 631.069 660.9 631.375 661.176C665.459 691.847 675.691 651.541 679.136 649.485C681.422 648.12 685.286 648.767 687.8 649.516C688.636 649.765 689.145 650.589 689.096 651.46C687.335 682.791 695.785 701.354 701.029 707.814C701.547 708.451 701.706 709.319 701.316 710.042C696.221 719.493 679.628 734.897 648.515 729.227C607.913 721.828 586.487 738.445 546.824 743.631Z" fill="black"/>
<path d="M613.424 680.99C583.904 706.113 553.541 703.631 538.232 698.003C536.52 697.373 536.771 695.069 538.523 694.564C606.327 675.034 600.893 648.449 622.824 638.392C639.113 630.922 636.258 645.066 631.927 655.265C631.341 656.644 629.132 657.067 627.635 656.998C625.704 656.909 622.868 657.664 619.04 660.368C612.47 665.008 614.551 674.081 614.087 679.739C614.047 680.226 613.796 680.673 613.424 680.99Z" fill="black"/>
<path d="M823.099 575.152C823.099 582.152 827.599 586.152 832.099 586.152H896.819C897.005 586.152 897.193 586.127 897.369 586.069C902.701 584.312 902.771 577.12 903.099 575.152" stroke="black" stroke-width="5" stroke-linecap="round"/>
<path d="M822.599 555.652C816.941 564.138 819.287 573.595 821.412 577.337C821.532 577.548 821.698 577.73 821.895 577.873C830.373 584.068 842.077 580.483 847.098 577.652C855.079 573.152 868.098 569.152 880.117 576.152C888.393 580.972 900.618 582.109 903.915 579.32C904.042 579.212 904.143 579.077 904.226 578.932C910.42 568.203 904.74 557.29 901.098 553.152C897.431 548.985 896.098 542.152 897.599 533.152C899.036 524.535 897.098 516.985 896.098 511.652C895.33 504.791 891.477 491.774 882.128 491.108C881.021 491.029 880.223 492.04 880.325 493.145C881.686 507.871 880.381 534.478 865.099 537.152C849.853 539.82 838.542 509.711 834.193 492.159C833.878 490.888 832.457 490.24 831.401 491.014C821.111 498.551 820.505 516.904 821.598 525.652C821.598 533.652 827.599 548.152 822.599 555.652Z" fill="black"/>
<path d="M756.561 615.749L759.747 592.249C759.949 590.762 761.219 589.652 762.72 589.652H988.099C989.756 589.652 991.099 590.995 991.099 592.652V616.152C991.099 617.809 989.756 619.152 988.099 619.152H759.533C757.716 619.152 756.316 617.55 756.561 615.749Z" fill="black"/>
<path d="M769.099 619.652L765.732 673.528C765.66 674.679 766.574 675.652 767.728 675.652H973.802C974.824 675.652 975.682 674.882 975.791 673.865L981.599 619.652" stroke="black" stroke-width="5" stroke-linecap="round"/>
<circle cx="873.599" cy="636.152" r="10" stroke="black" stroke-width="5"/>
<circle cx="892.599" cy="721.152" r="10" stroke="black" stroke-width="5"/>
<path d="M864.598 530.652C854.869 532.369 843.098 506.652 838.598 488.152C836.775 480.652 844.248 472.653 857.598 472.652C869.598 472.652 877.014 474.652 876.598 483.652C875.098 516.152 873.098 529.152 864.598 530.652Z" fill="black"/>
<path d="M776.089 700.252L780.273 679.752C780.463 678.821 781.282 678.152 782.232 678.152H1010.6C1011.7 678.152 1012.6 679.048 1012.6 680.152V700.652C1012.6 701.757 1011.7 702.652 1010.6 702.652H778.049C776.783 702.652 775.836 701.492 776.089 700.252Z" fill="black"/>
<path d="M783.404 752.886L789.866 704.886C789.999 703.893 790.846 703.152 791.848 703.152H1000.83C1002.04 703.152 1002.97 704.207 1002.82 705.4L996.818 753.4C996.693 754.401 995.842 755.152 994.834 755.152H785.386C784.176 755.152 783.243 754.085 783.404 752.886Z" stroke="black" stroke-width="5"/>
<path d="M625.099 792.652V1234.15" stroke="black" stroke-width="5" stroke-linecap="round"/>
<path d="M675.099 792.652V1149.65" stroke="black" stroke-width="5" stroke-linecap="round"/>
<path d="M1107.6 760.652H444.599C443.495 760.652 442.599 761.548 442.599 762.652V789.152C442.599 790.257 443.495 791.152 444.599 791.152H1212.6" stroke="black" stroke-width="5" stroke-linecap="round"/>
</svg>
