<svg width="528" height="719" viewBox="0 0 528 719" fill="none" xmlns="http://www.w3.org/2000/svg">
<path d="M132.099 485.971L150.099 488.507V530.714C150.099 531.357 149.501 531.833 148.874 531.688L132.874 527.997C132.421 527.892 132.099 527.488 132.099 527.023V485.971Z" fill="black"/>
<path d="M177.737 475.971L115.599 481.971L188.474 493.971L252.737 487.971L177.737 475.971Z" fill="black"/>
<path d="M98.0991 481.139L189.712 495.017M98.0991 481.139V611.421C98.0991 611.64 98.2423 611.834 98.4521 611.899L189.712 639.971M98.0991 481.139L174.599 476.471M189.712 495.017L279.612 487.511C279.883 487.489 280.122 487.687 280.15 487.957L293.553 615.033C293.579 615.283 293.415 615.514 293.17 615.572L189.712 639.971M189.712 495.017V639.971" stroke="black" stroke-width="5" stroke-linecap="round"/>
<path d="M288.069 688.48C277.669 702.08 314.069 718.48 334.069 713.98C312.069 701.98 314.236 692.48 315.069 688.48C310.402 682.813 298.469 674.88 288.069 688.48Z" fill="black"/>
<path d="M322.111 665.144C317.574 675.343 311.223 697.491 322.111 704.485C335.72 713.228 340.256 717.599 356.134 715.414C372.011 713.228 376.548 711.042 367.475 704.485C358.402 697.929 349.609 687.198 351.877 660.971" stroke="black" stroke-width="5" stroke-linecap="round"/>
<path d="M308.804 642.492C287.599 601.971 286.599 538.471 280.122 486.356C221.253 489.855 184.718 486.665 166.417 468.669C141.235 443.908 147.897 416.778 147.896 392.666C170.848 408.758 163.315 387.971 256.099 387.971C342.661 392.771 367.69 518.971 369.384 581.471C371.146 608.587 368.527 633.045 356.246 642.492C331.576 661.47 314.288 652.971 308.804 642.492Z" fill="black"/>
<path d="M252.039 236.971C276.715 190.624 257.743 170.884 246.133 161.971C247.505 197.068 224.37 215.922 212.099 220.743V231.971C214.269 229.125 241.133 230.777 252.039 236.971Z" fill="black"/>
<path d="M95.5903 219.887C112.041 235.47 126.146 235.249 132.57 235.971C156.374 235.971 166.87 233.565 175.75 230.357L170.099 213.518C158.22 204.963 151.057 191.183 148.301 184.65C145.205 187.26 140.852 187.75 138.613 184.65C136.815 182.939 133.085 176.582 133.769 167.008C134.453 157.435 140.226 158.509 143.626 160.99L160.616 162.816C159.901 146.988 169.688 141.706 174.67 141.043C170.755 132.276 177.758 128.439 181.444 126.933C186.73 133.392 193.659 135.994 196.589 137.205C226.406 144.981 244.606 134.335 253.006 121.047C262.126 107.632 260.649 76.1324 234.852 68.4644C226.416 65.228 206.418 62.5746 193.908 77.8502C157.083 64.3585 139.655 102.972 134.873 116.994L129.347 129.778C81.3576 139.956 77.134 185.207 85.5636 205.025C89.3852 214.011 89.888 214.486 95.3374 219.647L95.5903 219.887Z" fill="black"/>
<path d="M159.456 163.631C161.468 174.988 171.33 182.442 181.187 180.725C191.044 179.008 197.754 168.667 195.742 157.31C193.73 145.953 183.868 138.499 174.011 140.216C164.154 141.934 157.444 152.274 159.456 163.631Z" stroke="black" stroke-width="5"/>
<path d="M212.398 163.631C214.084 174.988 222.347 182.442 230.605 180.725C238.864 179.008 244.485 168.667 242.8 157.31C241.115 145.953 232.852 138.499 224.593 140.216C216.334 141.934 210.713 152.274 212.398 163.631Z" stroke="black" stroke-width="5"/>
<path d="M210.099 159.971L196.099 161.971" stroke="black" stroke-width="5" stroke-linecap="round"/>
<path d="M210.099 204.971C207.008 209.764 199.281 213.282 193.099 204.971" stroke="black" stroke-width="5" stroke-linecap="round"/>
<path d="M204.099 176.971C208.37 186.243 209.733 190.88 205.643 193.971" stroke="black" stroke-width="5" stroke-linecap="round"/>
<path d="M233.747 176.459C230.73 176.989 227.853 174.972 227.323 171.955C226.793 168.937 228.81 166.061 231.828 165.531C234.845 165.001 237.721 167.017 238.251 170.035C238.781 173.053 236.765 175.929 233.747 176.459Z" fill="black"/>
<path d="M187.426 177.837C184.408 178.367 181.532 176.35 181.002 173.332C180.472 170.315 182.489 167.439 185.506 166.909C188.524 166.378 191.4 168.395 191.93 171.413C192.46 174.43 190.444 177.306 187.426 177.837Z" fill="black"/>
<path d="M141.831 171.825C142.366 172.548 143.6 174.215 144.256 175.103" stroke="black" stroke-width="5" stroke-linecap="round"/>
<path d="M237.128 133.971C250.091 161.386 251.5 183.717 224.468 211.681C197.435 239.645 168.456 213.418 157.345 196.809L150.099 186.043" stroke="black" stroke-width="5" stroke-linecap="round"/>
<path d="M157.996 160.511L146.03 160.915" stroke="black" stroke-width="5" stroke-linecap="round"/>
<path d="M288.111 300.971C297.284 311.565 308.188 350.826 280.099 377.971" stroke="black" stroke-width="5" stroke-linecap="round"/>
<path d="M272.599 268.471C272.599 240.471 235.967 229.628 212.529 233.734C205.721 238.817 188.349 245.933 173.318 233.734C161.609 235.073 136.231 241.285 128.389 255.415C108.511 288.331 98.164 375.037 161.065 398.319" stroke="black" stroke-width="5" stroke-linecap="round"/>
<path d="M162.099 300.971C170.123 313.503 172.863 332.372 172.17 344.288C172.147 344.687 172.608 344.936 172.928 344.698C191.09 331.158 232.538 333.697 242.209 340.719C250.067 346.423 244.342 354.186 239.702 359.14C226.915 372.786 207.327 386.015 194.599 391.971" stroke="black" stroke-width="5" stroke-linecap="round"/>
<path d="M291.803 280.327C298.521 284.392 293.343 303.257 290.543 310.814L288.108 309.958L288.789 306.999L288.562 304.04C287.303 300.914 280.033 298.568 275.835 304.04C271.73 309.39 266.517 313.973 263.672 315.113C252.588 321.054 254.575 311.335 256.955 305.733C258.354 303.127 262.329 294.242 263.672 285.799C265.016 277.357 270.81 276.419 274.169 276.028C277.248 275.768 285.085 276.262 291.803 280.327Z" fill="black"/>
<path d="M272.099 270.057C274.601 269.687 277.626 270.438 279.399 273.54C279.782 274.209 280.032 275.012 280.099 275.971" stroke="black" stroke-width="5" stroke-linecap="round"/>
<path d="M259.833 303.971C257.356 302.277 256.225 299.737 254.102 295.412C251.979 289.575 250.75 286.188 249.432 281.303C249.149 279.735 248.136 275.476 251.979 275.033C255.376 274.641 255.8 277.384 256.225 279.344C257.498 286.188 263.135 284.964 263.135 280.261C263.135 275.557 263.135 271.793 261.697 266.152C260.939 263.181 259.004 256.971 265.966 256.971C270.967 256.971 271.363 261.552 272.099 269.39" stroke="black" stroke-width="5" stroke-linecap="round"/>
<path d="M288.099 329.971C276.412 349.434 267.125 344.239 252.099 353.971" stroke="black" stroke-width="5" stroke-linecap="round"/>
<path d="M237.099 331.971C238.484 324.538 245.406 319.936 248.522 306.486C249.593 301.866 250.945 297.638 255.099 297.991" stroke="black" stroke-width="5" stroke-linecap="round"/>
<path d="M391.099 609.515C395.089 623.059 406.901 649.244 422.224 645.632C437.547 642.021 460.531 629.078 470.108 623.059C479.685 615.534 486.868 602.291 438.983 609.515C435.791 609.515 429.407 606.806 429.407 595.971" stroke="black" stroke-width="5" stroke-linecap="round"/>
<path d="M108.934 445.07C87.7998 450.798 64.9049 484.057 56.0991 499.971C69.3077 498.379 99.2472 489.945 113.336 468.94C127.426 447.934 116.272 444.274 108.934 445.07Z" fill="black"/>
<path d="M99.3747 389.124C78.1777 391.297 62.9321 444.456 56.0991 468.971C71.2835 456.363 101.197 431.148 108.485 422.744C122.151 406.984 119.874 387.022 99.3747 389.124Z" fill="black"/>
<path d="M34.0726 372.127C22.5232 390.926 47.5488 419.172 59.0988 437.971C59.0988 426.134 59.0993 401.37 59.0991 390.926C59.0987 374.216 42.4121 358.553 34.0726 372.127Z" fill="black"/>
<path d="M59.0991 478.971C43.3917 456.99 9.83493 418.89 1.26725 442.336C-9.44236 471.644 56.9572 478.971 59.0991 478.971Z" fill="black"/>
<path d="M59.0991 508.971L56.0991 428.971" stroke="black" stroke-width="5" stroke-linecap="round"/>
<path d="M34.9248 575.118C40.3335 562.169 48.3839 528.939 50.0663 512.971H72.7789C73.7883 532.651 84.1343 560.876 89.1821 575.118C104.323 608.781 91.2851 630.36 81.6114 635.971H45.0191C21.0452 628.202 27.3536 593.244 34.9248 575.118Z" stroke="black" stroke-width="5"/>
<path d="M169.099 316.971C170.668 310.444 173.334 295.108 171.452 285.971" stroke="black" stroke-width="5" stroke-linecap="round"/>
<path d="M277.099 316.971C280.936 314.6 291.486 309.86 288.608 300.971" stroke="black" stroke-width="5" stroke-linecap="round"/>
<path d="M280.099 325.971C282.432 325.082 287.099 321.971 289.099 319.971" stroke="black" stroke-width="5" stroke-linecap="round"/>
<path d="M351.099 115.971V96.9707H414.355C415.146 104.571 417.518 111.221 419.099 115.971H351.099Z" fill="black"/>
<path d="M408.595 81.9707H353.378C352.119 81.9707 351.099 82.9908 351.099 84.2492V150.692C351.099 151.951 352.119 152.971 353.378 152.971H440.099" stroke="black" stroke-width="5" stroke-linecap="round"/>
<path d="M468.803 31.4512L442.742 4.62188C442.242 4.10795 441.431 4.06663 440.882 4.52717L400.747 38.2051C400.161 38.6966 400.092 39.5729 400.594 40.1497L418.815 61.0906" stroke="black" stroke-width="5" stroke-linecap="round"/>
<path d="M366.099 130.971H388.099" stroke="black" stroke-width="5" stroke-linecap="round"/>
<path fill-rule="evenodd" clip-rule="evenodd" d="M425.265 74.0213C423.778 93.0433 431.676 136.025 475.157 158.869C475.278 158.933 475.417 158.943 475.543 158.888C493.591 151.085 528.789 123.37 527.036 74.0176C527.029 73.8146 526.881 73.6353 526.684 73.5868C525.193 73.2204 523.77 72.8771 522.407 72.548C503.987 68.102 496.384 66.267 475.702 45.3267C475.516 45.1387 475.209 45.1314 475.033 45.3279C467.55 53.6523 447.792 70.346 425.653 73.6183C425.443 73.6494 425.281 73.8095 425.265 74.0213ZM492.128 89.4317C492.935 88.3112 492.68 86.7489 491.56 85.9421C490.439 85.1353 488.877 85.3897 488.07 86.5102L472.086 108.711L464.119 97.788C463.305 96.6725 461.741 96.4278 460.626 97.2415C459.51 98.0551 459.266 99.619 460.079 100.735L469.709 113.936C470.894 115.561 473.32 115.553 474.495 113.921L492.128 89.4317Z" fill="black"/>
<rect x="440.28" y="17.4648" width="14.726" height="10.415" rx="0.911393" transform="rotate(46.4826 440.28 17.4648)" fill="black"/>
<path d="M267.099 382.471C271.432 372.637 274.099 364.471 276.599 343.471" stroke="black" stroke-width="5" stroke-linecap="round"/>
<path d="M393.678 422.973C363.333 365.178 278.773 376.628 255.099 389.074C315.15 395.238 330.431 437 332.852 456.481C341.891 533.758 365.672 579.052 376.433 592.04C385.31 598.534 423.675 598.07 425.663 582.299C432.926 524.666 411.152 456.254 393.678 422.973Z" fill="black"/>
<path d="M454.186 679.042C455.645 669.552 425.645 673.194 408.421 676.565C406.932 676.857 405.573 677.812 405.333 679.311C404.828 682.469 406.405 685.465 407.936 687.367C408.651 688.256 409.746 688.701 410.885 688.76C425.751 689.53 452.719 688.59 454.186 679.042Z" fill="black"/>
</svg>
