<svg width="1022" height="623" viewBox="0 0 1022 623" fill="none" xmlns="http://www.w3.org/2000/svg">
<path d="M938.806 332.774C909.808 334.559 909.55 306.172 913.046 291.757C947.923 277.064 929.08 241.593 920.252 254.881C913.19 265.511 904.412 265.576 900.904 264.279C886.147 261.397 892.882 239.551 898.095 228.988L872.696 206.264C866.125 208.893 848.238 206.97 829.245 178.246C810.25 149.523 829.066 127.146 840.848 119.548C853.878 112.718 892.466 105.988 942.559 133.704C992.655 161.42 997.49 214.395 993.647 237.418C987.448 268.459 967.803 330.989 938.806 332.774Z" fill="black"/>
<path d="M876.442 208.57C856.553 232.481 820.788 292.452 836.841 341.054C841.621 352.169 856.407 375.067 889.554 379.966" stroke="black" stroke-width="5" stroke-linecap="round"/>
<path d="M942.507 339.695C938.971 359.057 938.318 362.637 937.469 384.609" stroke="black" stroke-width="5" stroke-linecap="round"/>
<path d="M851.868 246.383C836.148 257.582 810.491 282.119 833.636 290.676" stroke="black" stroke-width="5" stroke-linecap="round"/>
<path d="M868.262 231.289C872.142 233.029 879.871 239.074 879.755 249.33" stroke="black" stroke-width="5" stroke-linecap="round"/>
<path d="M910.668 268.352C912.518 271.641 914.063 278.573 905.443 279.984" stroke="black" stroke-width="5" stroke-linecap="round"/>
<path d="M835.868 326.898C839.796 324.365 847.636 317.226 847.578 308.93" stroke="black" stroke-width="5" stroke-linecap="round"/>
<path d="M881.593 287.252C883.264 286.854 884.297 285.177 883.899 283.507C883.501 281.836 881.823 280.804 880.152 281.202C878.48 281.599 877.448 283.276 877.846 284.947C878.244 286.617 879.921 287.649 881.593 287.252Z" fill="black"/>
<path d="M863.61 257.007C865.711 257.451 867.919 255.428 868.541 252.488C869.164 249.547 867.965 246.804 865.864 246.359C863.762 245.915 861.554 247.938 860.932 250.878C860.309 253.819 861.508 256.562 863.61 257.007Z" fill="black"/>
<path d="M871.575 305.619C873.247 305.221 874.279 303.544 873.881 301.874C873.483 300.203 871.806 299.171 870.134 299.569C868.463 299.967 867.43 301.643 867.828 303.314C868.226 304.985 869.904 306.017 871.575 305.619Z" fill="black"/>
<path d="M890.742 312.244C892.414 311.846 893.446 310.169 893.048 308.499C892.65 306.828 890.973 305.796 889.301 306.194C887.63 306.592 886.597 308.268 886.995 309.939C887.393 311.61 889.071 312.642 890.742 312.244Z" fill="black"/>
<path d="M1019.31 609.145C1011.53 568.462 993.488 473.26 971.088 442.787C969.791 424.907 964.464 394.153 942.687 396.485C926.353 396.485 884.755 406.406 884.755 438.123V465.331" stroke="black" stroke-width="5" stroke-linecap="round"/>
<path d="M789.631 586.519C789.789 573.888 791.353 545.973 796.277 530.484C796.677 529.228 795.843 527.895 794.529 527.787C779.82 526.573 752.543 525.872 743.131 531.519C733.131 537.519 725.631 586.352 723.131 610.019" stroke="black" stroke-width="5" stroke-linecap="round"/>
<path d="M793.498 514.355C799.631 501.016 803.203 493.339 813.631 480.016C822.631 468.516 827.498 445.355 821.498 440.355C814.779 434.756 810.331 447.688 805.998 453.855C804.331 456.688 800.198 460.155 796.998 451.355C793.798 442.555 798.953 432.92 809.131 422.016C816.131 414.516 816.067 406.786 814.498 404.433C810.498 398.435 803.936 401.659 793.998 414.357C792.042 416.857 786.631 425.016 785.631 432.016" stroke="black" stroke-width="5" stroke-linecap="round"/>
<path d="M789.998 419.859C778.498 425.359 771.998 434.859 773.498 456.859" stroke="black" stroke-width="5" stroke-linecap="round"/>
<path d="M772.998 440.863C769.832 440.697 760.498 445.858 760.498 464.358C760.709 469.411 759.731 482.217 754.131 493.017C748.531 503.817 748.798 512.85 749.631 516.017" stroke="black" stroke-width="5" stroke-linecap="round"/>
<path d="M901.631 469.516C883.964 476.182 840.431 515.516 807.631 619.516" stroke="black" stroke-width="5" stroke-linecap="round"/>
<path d="M224.755 175.07C228.907 128.245 208.641 103.615 197.989 97.1541C232.447 116.574 266.404 103.952 279.076 95.2141L282.959 116.021C306.567 118.403 312.191 86.4001 312.052 70.1011C311.837 44.9539 284.018 13.9032 228.678 26.3546C173.338 38.8061 142.967 84.5835 134.698 105.916C95.0764 95.0221 52.5132 124.668 36.1844 140.853C19.3 157.653 -16.2473 208.442 8.71392 265.15C42.3906 341.659 131.971 322.66 146.592 315.134C197.114 289.132 219.566 233.601 224.755 175.07Z" fill="black"/>
<path d="M300.472 166.443C299.294 174.391 296.353 181.185 292.678 185.754C288.961 190.376 284.847 192.351 281.214 191.813C277.582 191.275 274.217 188.192 272 182.69C269.808 177.252 268.962 169.897 270.14 161.949C271.317 154.001 274.259 147.207 277.934 142.638C281.651 138.015 285.765 136.04 289.398 136.578C293.03 137.117 296.395 140.199 298.612 145.701C300.804 151.139 301.65 158.495 300.472 166.443Z" stroke="black" stroke-width="5"/>
<path d="M285.55 173.277C288.107 173.655 290.733 170.231 291.415 165.628C292.097 161.025 290.577 156.986 288.02 156.607C285.463 156.228 282.837 159.653 282.155 164.256C281.473 168.859 282.993 172.898 285.55 173.277Z" fill="black"/>
<path d="M224.895 171.152L268.174 167.227" stroke="black" stroke-width="5" stroke-linecap="round"/>
<path d="M285.278 114.516C289.016 122.041 302.489 140.81 314.005 150.014C325.783 159.428 326.778 171.428 319.258 180.074L307.536 193.676C314.005 243.141 304.474 279.77 243.848 296.821" stroke="black" stroke-width="5" stroke-linecap="round"/>
<path d="M243.129 216.263C244.561 216.475 245.895 215.486 246.107 214.053C246.319 212.621 245.33 211.287 243.897 211.075C242.465 210.863 241.131 211.852 240.919 213.285C240.707 214.717 241.696 216.051 243.129 216.263Z" fill="black"/>
<path d="M233.734 240.323C235.453 240.578 237.019 239.623 237.231 238.19C237.443 236.757 236.221 235.39 234.502 235.135C232.783 234.88 231.217 235.835 231.005 237.268C230.793 238.7 232.015 240.068 233.734 240.323Z" fill="black"/>
<path d="M256.598 236.292C258.317 236.547 259.882 235.592 260.095 234.159C260.307 232.727 259.085 231.359 257.366 231.104C255.647 230.849 254.081 231.804 253.869 233.237C253.657 234.669 254.878 236.037 256.598 236.292Z" fill="black"/>
<path d="M423.46 366.285C425.762 363.072 426.918 360.147 425.869 358.127C422.818 352.255 415.315 358.282 411.945 362.03C403.558 371.047 387.416 386.72 391.767 368.482C396.117 350.243 386.864 351.366 365.197 373.629L343.659 386.726" stroke="black" stroke-width="5" stroke-linecap="round"/>
<path d="M421.699 394.875C423.554 400.579 420.578 413.781 393.304 416.98C382.985 418.19 381.434 418.02 371.749 417.203H355.159" stroke="black" stroke-width="5" stroke-linecap="round"/>
<path d="M405.159 383.469C410.518 379.52 419.065 372.351 423.452 366.227C428.216 366.172 432.829 368.857 425.477 378.241C422.294 382.304 416.868 387.622 408.24 394.518" stroke="black" stroke-width="5" stroke-linecap="round"/>
<path d="M408.249 394.574C416.877 387.678 422.303 382.36 425.486 378.297C430.031 379.578 434.12 384.533 421.7 394.879C418.984 397.141 415.478 399.662 411.015 402.458" stroke="black" stroke-width="5" stroke-linecap="round"/>
<path d="M146.801 325.141C73.3384 378.728 82.1288 445.554 82.1288 528.141" stroke="black" stroke-width="5" stroke-linecap="round"/>
<path d="M148.802 326.049L184.069 356.91C185.214 357.913 187.015 357.319 187.34 355.832L196.534 313.785C196.875 312.226 198.815 311.674 199.925 312.822L223.802 337.503" stroke="black" stroke-width="5" stroke-linecap="round"/>
<path d="M223.802 301.141C225.758 304.806 228.562 310.763 231.19 317.686C234.796 327.189 238.07 338.513 238.363 348.232" stroke="black" stroke-width="5" stroke-linecap="round"/>
<path d="M231.189 317.688L297.099 353.019" stroke="black" stroke-width="5" stroke-linecap="round"/>
<path d="M179.802 386.65C191.846 402.966 259.677 448.147 308.489 398.574L321.802 384.141" stroke="black" stroke-width="5" stroke-linecap="round"/>
<path d="M212.802 546.138C228.473 542.086 302.802 501.383 324.45 463.562" stroke="black" stroke-width="5" stroke-linecap="round"/>
<path d="M318.646 414.398C324.014 433.671 325.525 449.94 324.449 463.565C336.392 455.37 347.801 449.067 347.801 423.223C347.801 404.942 334.491 389.184 322.448 384.141" stroke="black" stroke-width="5" stroke-linecap="round"/>
<path d="M218.802 371.141C221.563 371.141 223.802 368.455 223.802 365.141C223.802 361.827 221.563 359.141 218.802 359.141C216.041 359.141 213.802 361.827 213.802 365.141C213.802 368.455 216.041 371.141 218.802 371.141Z" fill="black"/>
<path d="M225.802 400.141C228.563 400.141 230.802 397.455 230.802 394.141C230.802 390.827 228.563 388.141 225.802 388.141C223.041 388.141 220.802 390.827 220.802 394.141C220.802 397.455 223.041 400.141 225.802 400.141Z" fill="black"/>
<path d="M278.92 234.141C278.276 238.041 279.95 246.101 291.802 247.141" stroke="black" stroke-width="5" stroke-linecap="round"/>
<path d="M401.608 369.015L392.234 352.835C392 352.431 392.076 351.919 392.419 351.602C398.667 345.826 411.987 333.794 420.854 326.734C421.3 326.378 421.947 326.467 422.271 326.936C427.265 334.186 437.306 351.709 442.101 370.767C442.16 371.004 442.133 371.251 442.016 371.466C439.076 376.832 436.599 380.016 430.599 383.516" stroke="black" stroke-width="5" stroke-linecap="round"/>
<path d="M431.278 210.628L442.058 218.869C442.924 219.532 444.161 219.378 444.839 218.523L460.278 199.062" stroke="black" stroke-width="5" stroke-linecap="round"/>
<path d="M588.278 159.628L599.058 167.869C599.924 168.532 601.161 168.378 601.839 167.523L617.278 148.062" stroke="black" stroke-width="5" stroke-linecap="round"/>
<path d="M692.278 110.628L703.058 118.869C703.924 119.532 705.161 119.378 705.839 118.523L721.278 99.0625" stroke="black" stroke-width="5" stroke-linecap="round"/>
<path d="M692.278 201.628L703.058 209.869C703.924 210.532 705.161 210.378 705.839 209.523L721.278 190.062" stroke="black" stroke-width="5" stroke-linecap="round"/>
<path d="M404.278 154.062L383.278 177.063" stroke="black" stroke-width="5" stroke-linecap="round"/>
<path d="M383.278 154.062L404.278 177.063" stroke="black" stroke-width="5" stroke-linecap="round"/>
<path d="M456.278 251.062L435.278 274.063" stroke="black" stroke-width="5" stroke-linecap="round"/>
<path d="M435.278 251.062L456.278 274.063" stroke="black" stroke-width="5" stroke-linecap="round"/>
<path d="M411.778 293.564C438.508 293.564 698.278 281.064 716.278 281.064C729.278 281.064 745.978 280.164 762.778 276.564C783.778 272.064 773.778 220.564 773.778 153.064C773.778 85.5636 763.778 82.063 753.778 81.0632C742.121 79.8978 462.278 100.563 412.778 96.0632C373.178 92.4632 370.198 119.564 369.778 136.064C369.111 162.23 368.178 222.364 369.778 253.564C371.778 292.564 383.278 293.564 411.778 293.564Z" stroke="black" stroke-width="5"/>
<path d="M340.278 81.5625L344.778 259.062C343.111 274.396 347.678 306.363 379.278 311.562C418.778 318.062 764.884 301.936 781.278 297.062C799.778 291.562 799.778 290.562 804.278 259.062C807.878 233.862 797.611 111.062 794.778 68.0625" stroke="black" stroke-width="5" stroke-linecap="round"/>
<path d="M797.278 71.5156L337.778 84.5156C334.278 25.0155 361.278 8.09561 412.278 7.56437C460.278 7.06438 700.778 -3.93563 755.778 2.56437C799.778 7.76437 802.278 50.5156 797.278 71.5156Z" fill="black"/>
<path d="M417.778 99.0625C420.444 153.729 424.178 269.163 417.778 293.562" stroke="black" stroke-width="5" stroke-linecap="round"/>
<path d="M469.778 290.062C471.778 239.062 475.178 131.362 472.778 98.5625" stroke="black" stroke-width="5" stroke-linecap="round"/>
<path d="M522.278 96.5625C523.778 148.396 526.378 258.562 522.778 288.562" stroke="black" stroke-width="5" stroke-linecap="round"/>
<path d="M572.778 286.062C577.444 232.229 583.978 120.763 572.778 93.5625" stroke="black" stroke-width="5" stroke-linecap="round"/>
<path d="M628.278 88.5625C627.611 142.396 625.378 256.663 621.778 283.062" stroke="black" stroke-width="5" stroke-linecap="round"/>
<path d="M683.778 280.062C680.611 225.396 676.178 109.862 683.778 85.0625" stroke="black" stroke-width="5" stroke-linecap="round"/>
<path d="M728.778 83.0625C732.444 141.062 738.978 261.663 735.778 280.062" stroke="black" stroke-width="5" stroke-linecap="round"/>
<path d="M371.278 235.062C462.111 234.062 670.178 230.162 775.778 222.562" stroke="black" stroke-width="5" stroke-linecap="round"/>
<path d="M370.278 190.061C428.611 187.894 562.478 182.261 631.278 177.061C700.078 171.861 754.611 171.894 773.278 172.561" stroke="black" stroke-width="5" stroke-linecap="round"/>
<path d="M773.278 128.062L370.778 145.562" stroke="black" stroke-width="5" stroke-linecap="round"/>
</svg>
