<svg width="1917" height="806" viewBox="0 0 1917 806" fill="none" xmlns="http://www.w3.org/2000/svg">
<path d="M371.376 753.341C444.461 728.188 400.914 521.929 367.049 447.258C316.016 494.775 224.718 474.278 217.695 455.177C215.584 466.444 208.824 516.908 179.212 561.554C149.6 606.199 111.183 629.418 104.395 648.801C87.8559 695.962 124.083 720.328 142.197 725.83C205.832 740.293 259.543 668.977 278.444 631.509C305.536 742.179 351.687 758.843 371.376 753.341Z" fill="black"/>
<path d="M385.77 742.258C385.227 750.427 388.964 777.83 410.524 762.811C415.842 757.541 428.41 748.898 436.076 756.487C443.741 764.075 428.618 778.094 420.106 784.154C411.322 791.006 389.763 802.651 373.793 794.43C357.823 786.209 358.078 764.656 360.218 754.906" stroke="black" stroke-width="5" stroke-linecap="round"/>
<path d="M125.179 713.979C119.708 716.638 108.768 724.027 108.768 732.32C115.02 741.359 125.022 763.581 115.02 780.168C105.017 796.755 86.8874 758.903 79.0728 737.903C75.1655 725.941 74.6967 699.465 104.079 689.258" stroke="black" stroke-width="5" stroke-linecap="round"/>
<path d="M361.179 789.258C357.786 795.517 344.448 804.73 318.179 791.511" stroke="black" stroke-width="5" stroke-linecap="round"/>
<path d="M343.179 778.258C335.676 784.986 315.601 796.055 290.179 786.591" stroke="black" stroke-width="5" stroke-linecap="round"/>
<path d="M308.179 773.258C298.637 784.372 272.078 802.315 242.179 785.166" stroke="black" stroke-width="5" stroke-linecap="round"/>
<path d="M266.179 767.258C263.822 777.076 231.922 798.021 123.179 803.258" stroke="black" stroke-width="5" stroke-linecap="round"/>
<path d="M274.235 372.258C230.95 359.737 196.894 320.21 185.276 302.011C172.3 282.446 182.713 238.705 328.179 220.258" stroke="black" stroke-width="5" stroke-linecap="round"/>
<path d="M273.179 372.258C275.86 368.456 282.906 361.584 291.179 361.258" stroke="black" stroke-width="5" stroke-linecap="round"/>
<path d="M291.179 361.258C290.944 351.078 282.617 324.827 251.179 301.258" stroke="black" stroke-width="5" stroke-linecap="round"/>
<path d="M290.179 295.258C293.409 290 303.332 278.839 317.179 276.258" stroke="black" stroke-width="5" stroke-linecap="round"/>
<path d="M321.362 376.258C328.848 375.91 344.479 374.866 347.13 373.474C350.443 371.735 351.179 371.735 351.179 368.255C351.179 364.776 321.362 370.691 321.362 359.558C324.063 357.006 328.431 351.277 324.308 348.772C320.185 346.267 311.547 353.527 307.744 357.47C303.817 361.413 295.007 367.63 291.179 360.949" stroke="black" stroke-width="5" stroke-linecap="round"/>
<path d="M274.179 372.258C277.425 381.418 289.113 397.86 309.89 390.346C330.669 382.833 331.535 378.867 329.37 377.823" stroke="black" stroke-width="5" stroke-linecap="round"/>
<path d="M420.179 362.258C425.189 360.883 436.139 354.492 439.86 339.914C443.582 325.338 438.548 325.266 435.566 327.052" stroke="black" stroke-width="5" stroke-linecap="round"/>
<path d="M401.179 351.258C402.686 343.407 407.996 328.261 417.179 330.477" stroke="black" stroke-width="5" stroke-linecap="round"/>
<path d="M404.831 338.354C398.215 332.862 394.164 345.459 392.965 352.444C385.487 354.756 382.658 365.691 382.179 370.87C399.485 372.663 411.784 367.969 419.573 362.393C424.342 358.979 427.419 355.234 428.922 352.444C432.637 342.449 438.054 321.59 430 318.122C421.946 314.654 419.693 322.457 419.573 326.792C420.436 336.62 415.378 347.507 412.742 351.722" stroke="black" stroke-width="5" stroke-linecap="round"/>
<path d="M234.118 381.258C219.364 401.203 200.137 455.522 234.118 467.043C282.374 481.296 382.145 484.093 395.179 381.258" stroke="black" stroke-width="5" stroke-linecap="round"/>
<path d="M441.939 347.975L555.747 341.079C561.339 340.741 566.119 345.062 566.344 350.66L568.123 394.985C568.348 400.612 573.174 404.943 578.792 404.561L607.223 402.631C612.629 402.264 616.759 397.657 616.537 392.243L615.471 366.311C615.246 360.834 619.471 356.198 624.944 355.913L632.267 355.533C637.763 355.248 642.456 359.457 642.769 364.951L643.522 378.162C643.83 383.573 648.392 387.754 653.809 387.589L664.633 387.26C670.28 387.088 674.664 382.276 674.309 376.637L672.316 344.922C671.967 339.366 676.223 334.594 681.783 334.308L698.149 333.466C703.681 333.181 707.928 328.453 707.619 322.922L705.464 284.304C705.155 278.766 700.397 274.537 694.861 274.88L568.535 282.709L256.179 303.838" stroke="black" stroke-width="5" stroke-linecap="round"/>
<path d="M389.179 230.258C395.409 226.45 442.283 230.12 451.396 171.575C466.997 171.756 475.481 159.066 463.577 153.635C450.886 147.137 451.838 135.208 454.138 128.179C457.793 118.96 458.014 109.282 457.226 107.258" stroke="black" stroke-width="5" stroke-linecap="round"/>
<path d="M437.498 150.448C439.254 150.468 440.702 148.35 440.733 145.716C440.764 143.083 439.366 140.931 437.61 140.91C435.854 140.89 434.406 143.008 434.375 145.642C434.344 148.275 435.742 150.427 437.498 150.448Z" fill="black"/>
<path d="M429.179 131.258C431.708 128.446 438.251 124.334 444.179 130.375" stroke="black" stroke-width="5" stroke-linecap="round"/>
<path d="M411.179 185.258C416.143 192.37 421.592 194.389 432.179 189.8" stroke="black" stroke-width="5" stroke-linecap="round"/>
<path d="M373.049 133.258C371.935 135.786 371.003 141.526 376.179 144.258" stroke="black" stroke-width="5" stroke-linecap="round"/>
<path d="M318.334 109.217C312.305 142.261 331.17 167.136 344.847 186.258C359.454 178.353 383.394 159.555 374.212 157.526C364.562 155.393 354.383 129.025 363.755 120.959C374.75 111.495 384.662 125.814 386.551 136.671L395.407 121.33C392.903 110.6 391.921 91.7769 408.027 102.329C424.133 112.881 447.758 110.117 457.557 107.416C476.879 93.5624 506.898 61.2485 472.401 42.8209C443.708 27.4942 406.372 46.8713 383.58 64.2827C368.149 60.2019 326.555 64.1634 318.334 109.217Z" fill="black"/>
<path d="M346.179 183.258C352.428 191.707 355.533 198.723 355.147 213.258" stroke="black" stroke-width="5" stroke-linecap="round"/>
<path d="M337.747 232.637C335.326 224.362 333.908 208.58 347.6 211.648C364.716 215.482 399.601 232.065 397.046 241.258" stroke="black" stroke-width="5" stroke-linecap="round"/>
<path d="M397.179 255.258C410.314 266.525 413.233 273.737 415.179 287.258" stroke="black" stroke-width="5" stroke-linecap="round"/>
<path d="M8.07437 343.623C9.56523 373.153 19.0649 399.365 33.0884 417.877C47.1213 436.402 65.4915 447.011 84.8281 446.035C104.165 445.059 121.373 432.653 133.469 412.809C145.557 392.979 152.368 365.943 150.877 336.413C149.386 306.883 139.887 280.671 125.863 262.159C111.83 243.634 93.46 233.025 74.1234 234.001C54.7868 234.977 37.5785 247.383 25.4827 267.226C13.3949 287.057 6.58351 314.092 8.07437 343.623Z" stroke="black" stroke-width="5"/>
<path d="M38.1853 341.876C39.0563 359.128 44.6054 374.395 52.7428 385.137C60.8895 395.891 71.4381 401.905 82.4127 401.351C93.3873 400.797 103.276 393.751 110.299 382.231C117.313 370.724 121.296 354.976 120.425 337.725C119.554 320.473 114.005 305.206 105.868 294.464C97.7209 283.71 87.1724 277.696 76.1978 278.25C65.2232 278.804 55.334 285.85 48.3118 297.37C41.2977 308.877 37.3144 324.625 38.1853 341.876Z" stroke="black" stroke-width="5"/>
<path d="M189.179 313.258L147.179 316.258" stroke="black" stroke-width="5" stroke-linecap="round"/>
<path d="M383.179 357.258L324.179 361.258" stroke="black" stroke-width="5" stroke-linecap="round"/>
<path d="M253.179 366.258L148.179 371.258" stroke="black" stroke-width="5" stroke-linecap="round"/>
<path d="M844.248 468.258H860.599C871.368 468.258 880.099 459.527 880.099 448.758V448.758C880.099 437.988 871.368 429.258 860.599 429.258H813.099" stroke="black" stroke-width="5" stroke-linecap="round"/>
<rect x="857.599" y="392.758" width="119" height="34" rx="17" stroke="black" stroke-width="5"/>
<path d="M811.607 429.258H835.599C846.368 429.258 855.099 420.527 855.099 409.758V409.758C855.099 398.988 846.368 390.258 835.599 390.258H788.099" stroke="black" stroke-width="5" stroke-linecap="round"/>
<rect x="898.599" y="470.758" width="116" height="36" rx="17.5" stroke="black" stroke-width="5"/>
<path d="M904.099 509.258H980.785C992.331 509.258 1001.48 519.006 1000.75 530.528L1000.32 537.258" stroke="black" stroke-width="5" stroke-linecap="round"/>
<path d="M1002.46 537.258L1001.01 528.565C998.962 516.369 1008.36 505.258 1020.73 505.258H1109.84C1116.06 505.258 1121.1 510.299 1121.1 516.517V516.517" stroke="black" stroke-width="5"/>
<rect x="1019.6" y="469.758" width="117" height="33" rx="16.5" stroke="black" stroke-width="5"/>
<path d="M1187.1 469.258H1159.1C1148.05 469.258 1139.1 478.212 1139.1 489.258V505.258" stroke="black" stroke-width="5"/>
<rect x="1002.6" y="431.758" width="118" height="35" rx="17.5" stroke="black" stroke-width="5"/>
<path d="M1223.1 429.258H1141.1C1130.05 429.258 1121.1 438.212 1121.1 449.258V449.258C1121.1 460.304 1130.05 469.258 1141.1 469.258H1188.5" stroke="black" stroke-width="5" stroke-linecap="round"/>
<rect x="981.599" y="392.758" width="117" height="34" rx="17" stroke="black" stroke-width="5"/>
<rect x="1103.6" y="392.758" width="116" height="34" rx="17" stroke="black" stroke-width="5"/>
<rect x="1096.6" y="352.758" width="116" height="35" rx="17.5" stroke="black" stroke-width="5"/>
<rect x="880.599" y="431.758" width="119" height="34" rx="17" stroke="black" stroke-width="5"/>
<circle cx="1017.1" cy="289.258" r="249.5" stroke="black" stroke-width="5"/>
<circle cx="1017.1" cy="289.258" r="286.5" stroke="black" stroke-width="5"/>
<circle cx="1685.1" cy="289.258" r="198.5" stroke="black" stroke-width="5"/>
<circle cx="1685.1" cy="289.258" r="70.5" stroke="black" stroke-width="15"/>
<circle cx="1685.1" cy="289.258" r="27" fill="black"/>
<circle cx="1685.6" cy="288.758" r="228" stroke="black" stroke-width="5"/>
<rect x="1859.1" y="247.258" width="37" height="84" rx="18.5" fill="black"/>
<path d="M1636.1 335.258L1731.1 241.258" stroke="black" stroke-width="10" stroke-linecap="round"/>
<path d="M1636.1 241.258L1731.1 335.258" stroke="black" stroke-width="10" stroke-linecap="round"/>
<rect width="44" height="504" rx="20" transform="matrix(-1 0 0 1 1269.1 37.2578)" fill="black"/>
<rect width="18" height="156" rx="9" transform="matrix(-1 0 0 1 1290.1 211.258)" fill="black"/>
<path d="M950.099 285.258V387.258C950.099 388.362 950.994 389.258 952.099 389.258H1084.1C1085.2 389.258 1086.1 388.362 1086.1 387.258V285.258" stroke="black" stroke-width="5" stroke-linecap="round"/>
<rect x="934.099" y="254.258" width="167" height="32" rx="2" fill="black"/>
<rect x="1003.1" y="286.258" width="31" height="100" fill="black"/>
<path d="M981.191 230.991C994.628 221.721 1011.89 237.993 1017.94 250.528C1018.56 251.807 1017.55 253.2 1016.13 253.147L987.81 252.086C974.571 252.086 975.173 234.947 981.191 230.991Z" stroke="black" stroke-width="5" stroke-linecap="round"/>
<path d="M1056.1 230.991C1042.98 221.718 1026.13 238.001 1020.23 250.538C1019.62 251.817 1020.63 253.199 1022.05 253.145L1049.64 252.086C1062.57 252.086 1061.98 234.947 1056.1 230.991Z" stroke="black" stroke-width="5" stroke-linecap="round"/>
</svg>
