<svg width="1668" height="1091" viewBox="0 0 1668 1091" fill="none" xmlns="http://www.w3.org/2000/svg">
<path fill-rule="evenodd" clip-rule="evenodd" d="M1554.03 705.742C1530.29 684.989 1454 614 1454 558.603C1454 492.996 1496.8 449.258 1561 449.258C1625.2 449.258 1668 503.93 1668 558.603C1668 604.99 1590.97 682.864 1567.63 705.4C1563.82 709.077 1558.01 709.222 1554.03 705.742ZM1596.67 544.023C1596.67 564.153 1580.7 580.472 1561 580.472C1541.3 580.472 1525.33 564.153 1525.33 544.023C1525.33 523.894 1541.3 507.575 1561 507.575C1580.7 507.575 1596.67 523.894 1596.67 544.023Z" fill="#D1D4D8"/>
<path d="M1394.69 790.339L1395.62 789.156L1394.69 790.339ZM1237 814.82L1236.31 816.151L1237 814.82ZM980.959 821.634C980.322 821.104 979.376 821.191 978.847 821.828C978.317 822.465 978.404 823.411 979.041 823.941L980.959 821.634ZM1562.13 774.802C1562.68 774.175 1562.61 773.228 1561.98 772.686C1561.36 772.144 1560.41 772.212 1559.87 772.839L1562.13 774.802ZM979.041 823.941C982.497 826.815 987.027 829.242 992.381 831.288L993.452 828.486C988.287 826.511 984.08 824.229 980.959 821.634L979.041 823.941ZM1006.87 835.544C1015.63 837.519 1025.66 838.934 1036.51 839.878L1036.77 836.889C1026.01 835.953 1016.12 834.555 1007.53 832.617L1006.87 835.544ZM1051.45 840.867C1061.03 841.319 1071.07 841.473 1081.29 841.377L1081.26 838.377C1071.08 838.472 1061.11 838.319 1051.59 837.87L1051.45 840.867ZM1096.22 841.068C1106.15 840.756 1116.16 840.234 1126.02 839.547L1125.81 836.555C1115.99 837.239 1106.02 837.758 1096.12 838.07L1096.22 841.068ZM1140.89 838.377C1151.17 837.477 1161.14 836.413 1170.55 835.236L1170.18 832.259C1160.81 833.432 1150.87 834.492 1140.63 835.389L1140.89 838.377ZM1185.35 833.226C1196.48 831.585 1206.46 829.804 1214.73 827.987L1214.08 825.057C1205.9 826.855 1195.99 828.624 1184.91 830.258L1185.35 833.226ZM1229.34 824.166C1231.61 823.431 1233.57 822.693 1235.16 821.955C1236.72 821.228 1238.03 820.46 1238.92 819.635C1239.79 818.837 1240.58 817.676 1240.27 816.267C1239.98 814.966 1238.86 814.096 1237.69 813.489L1236.31 816.151C1237.29 816.663 1237.35 816.98 1237.34 816.921C1237.3 816.754 1237.47 816.89 1236.89 817.43C1236.33 817.943 1235.36 818.555 1233.89 819.234C1232.45 819.904 1230.62 820.599 1228.42 821.312L1229.34 824.166ZM1237.69 813.489C1232.36 810.716 1227.99 808.028 1224.5 805.439L1222.72 807.849C1226.36 810.554 1230.87 813.324 1236.31 816.151L1237.69 813.489ZM1214.46 794.601C1213.47 792.523 1213.15 790.601 1213.36 788.818C1213.56 787.03 1214.31 785.283 1215.6 783.578C1218.22 780.127 1223.01 776.949 1229.64 774.221L1228.5 771.446C1221.67 774.256 1216.3 777.69 1213.21 781.765C1211.65 783.821 1210.65 786.065 1210.38 788.475C1210.1 790.889 1210.56 793.372 1211.75 795.886L1214.46 794.601ZM1244.29 769.645C1253.31 767.507 1263.76 766.019 1274.99 765.284L1274.79 762.29C1263.43 763.034 1252.81 764.542 1243.6 766.726L1244.29 769.645ZM1290.51 764.759C1300.67 764.727 1311.16 765.292 1321.53 766.514L1321.89 763.535C1311.39 762.297 1300.78 761.727 1290.5 761.759L1290.51 764.759ZM1336.89 768.837C1347.38 770.793 1357.5 773.482 1366.78 776.966L1367.83 774.158C1358.36 770.601 1348.07 767.87 1337.44 765.888L1336.89 768.837ZM1380.85 783.247C1385.55 785.736 1389.89 788.49 1393.77 791.521L1395.62 789.156C1391.58 786.003 1387.09 783.154 1382.25 780.595L1380.85 783.247ZM1393.77 791.521C1397.61 794.515 1401.98 797.026 1406.76 799.101L1407.95 796.349C1403.37 794.359 1399.22 791.971 1395.62 789.156L1393.77 791.521ZM1420.93 803.77C1430.05 805.975 1440.04 807.091 1450.38 807.316L1450.45 804.316C1440.28 804.096 1430.5 802.998 1421.64 800.854L1420.93 803.77ZM1465.19 807.057C1475.03 806.521 1484.96 805.288 1494.55 803.506L1494 800.556C1484.53 802.316 1474.73 803.533 1465.03 804.062L1465.19 807.057ZM1509 800.35C1519.24 797.766 1528.81 794.583 1537.09 791.005L1535.9 788.251C1527.79 791.755 1518.38 794.89 1508.26 797.441L1509 800.35ZM1550.37 784.242C1555.26 781.263 1559.29 778.093 1562.13 774.802L1559.87 772.839C1557.29 775.815 1553.54 778.797 1548.8 781.68L1550.37 784.242Z" fill="#D1D4D8"/>
<path d="M146.68 950.258C132.884 969.282 112.451 987.847 105.135 990.915L102 1006.26C138.841 994.751 149.032 970.97 146.68 950.258Z" fill="#D1D4D8"/>
<path d="M87.6149 887.441C93.4815 931.846 86.6456 981.516 81.5527 1004.8C81.2777 1006.06 82.2301 1007.26 83.5173 1007.26H101.503C102.39 1007.26 103.173 1006.67 103.411 1005.82C114.851 964.819 102.654 915.725 91.3271 886.324C90.4781 884.12 87.3056 885.1 87.6149 887.441Z" fill="#D1D4D8"/>
<path d="M107.863 954.944C128.727 958.752 156.545 947.959 172 925.449" stroke="#D1D4D8" stroke-width="3" stroke-linecap="round"/>
<path d="M11.654 906.838C-1.71445 929.908 43.2558 981.056 89.0891 958.752" stroke="#D1D4D8" stroke-width="3" stroke-linecap="round"/>
<path d="M33.0998 832.811C5.92487 836.654 -8.97678 873.917 11.6544 906.836C15.4094 912.828 31.7061 919.332 39.345 919.332" stroke="#D1D4D8" stroke-width="3" stroke-linecap="round"/>
<path d="M172 878.491C172 849.902 164.369 819.484 118.69 805.894C70.5818 791.581 44.4391 813.205 33.1002 832.811C27.7113 842.13 29.7967 851.076 33.1002 858.767" stroke="#D1D4D8" stroke-width="3" stroke-linecap="round"/>
<path d="M104 914.258C112.026 906.032 128.885 891.477 122.642 858.258" stroke="#D1D4D8" stroke-width="3" stroke-linecap="round"/>
<path d="M88 930.258C81.7037 928.313 66.0889 918.591 54 895.258" stroke="#D1D4D8" stroke-width="3" stroke-linecap="round"/>
<path d="M215.354 823.549L242.354 834.872C243.654 835.418 244.5 836.69 244.5 838.1V901.445C244.5 903.999 241.853 905.693 239.534 904.623L212.534 892.167C211.294 891.595 210.5 890.354 210.5 888.989V826.777C210.5 824.276 213.047 822.582 215.354 823.549Z" stroke="#D1D4D8" stroke-width="3"/>
<path d="M285.354 861.549L312.354 872.872C313.654 873.418 314.5 874.69 314.5 876.1V939.445C314.5 941.999 311.853 943.693 309.534 942.623L282.534 930.167C281.294 929.595 280.5 928.354 280.5 926.989V864.777C280.5 862.276 283.047 860.582 285.354 861.549Z" stroke="#D1D4D8" stroke-width="3"/>
<path d="M215.354 709.549L242.354 720.872C243.654 721.418 244.5 722.69 244.5 724.1V787.445C244.5 789.999 241.853 791.693 239.534 790.623L212.534 778.167C211.294 777.595 210.5 776.354 210.5 774.989V712.777C210.5 710.276 213.047 708.582 215.354 709.549Z" stroke="#D1D4D8" stroke-width="3"/>
<path d="M285.354 746.549L312.354 757.872C313.654 758.418 314.5 759.69 314.5 761.1V824.445C314.5 826.999 311.853 828.693 309.534 827.623L282.534 815.167C281.294 814.595 280.5 813.354 280.5 811.989V749.777C280.5 747.276 283.047 745.582 285.354 746.549Z" stroke="#D1D4D8" stroke-width="3"/>
<path d="M243 969.835V1030.64C243 1031.81 243.683 1032.87 244.748 1033.36L270.748 1045.3C272.735 1046.22 275 1044.77 275 1042.58V981.149C275 979.955 274.292 978.874 273.197 978.398L247.197 967.084C245.216 966.222 243 967.674 243 969.835Z" fill="#D1D4D8"/>
<path d="M350 1083.26L173.676 996.497C172.65 995.993 172 994.949 172 993.806V635.258" stroke="#D1D4D8" stroke-width="3" stroke-linecap="round"/>
<path d="M345.648 1085.37V721.266L164.651 637.965C162.088 636.785 162.422 633.042 165.154 632.335L327.001 590.481C327.565 590.335 328.16 590.357 328.712 590.543L491 645.297V1014.77C491 1015.9 490.364 1016.94 489.356 1017.45L350.004 1088.05C348.008 1089.06 345.648 1087.61 345.648 1085.37Z" fill="#D1D4D8"/>
<path d="M597 993.19L489.781 964.258V1015.08L388 1068.26L597 993.19Z" fill="#D1D4D8"/>
<path d="M864.545 597.258L753.552 626.311C752.02 626.712 751.539 628.651 752.708 629.72L837.679 707.547C838.164 707.992 838.838 708.169 839.48 708.021L956.591 680.976C958.098 680.628 958.657 678.773 957.592 677.651L885.545 601.723" stroke="#D1D4D8" stroke-width="3" stroke-linecap="round"/>
<path d="M958.981 679.258L979.822 566.775C979.934 566.169 979.761 565.546 979.353 565.084L906.796 483.183C905.714 481.963 903.705 482.48 903.347 484.071L880 587.997" stroke="#D1D4D8" stroke-width="3" stroke-linecap="round"/>
<path d="M751 629.258L785.13 520.332C785.327 519.703 785.821 519.212 786.45 519.018L906 482.258" stroke="#D1D4D8" stroke-width="3" stroke-linecap="round"/>
<path d="M860.942 499.632L835.431 603.497C835.276 604.128 835.437 604.794 835.862 605.285L867.793 642.074C868.788 643.22 868.194 645.013 866.711 645.339L836.313 652.01C835.614 652.163 834.887 651.932 834.405 651.402L801.743 615.507C801.281 614.999 801.111 614.289 801.295 613.626L831.088 506.244C831.273 505.577 831.789 505.054 832.452 504.859L858.437 497.236C859.916 496.802 861.31 498.135 860.942 499.632Z" fill="#D1D4D8"/>
<path d="M829 553.258L841 354.258" stroke="#D1D4D8" stroke-width="3" stroke-linecap="round"/>
<path d="M829 553.258L785 373.258" stroke="#D1D4D8" stroke-width="3" stroke-linecap="round"/>
<path d="M826 553.258L729 429.258" stroke="#D1D4D8" stroke-width="3" stroke-linecap="round"/>
<path d="M827 553.258L657 445.258" stroke="#D1D4D8" stroke-width="3" stroke-linecap="round"/>
<path d="M670 411.258L769 503.258" stroke="#D1D4D8" stroke-width="3" stroke-linecap="round"/>
<path d="M804 363.258L818 478.258" stroke="#D1D4D8" stroke-width="3" stroke-linecap="round"/>
<path d="M796 492.258L753 384.258" stroke="#D1D4D8" stroke-width="3" stroke-linecap="round"/>
<path d="M584.255 246.837C478.978 215.389 441.852 277.904 438.037 313.408C435.51 429.325 562.702 442.165 622.53 430.92C623.251 430.785 623.962 431.054 624.429 431.619L638.925 449.175C639.975 450.446 642.024 449.974 642.411 448.372L645.749 434.58C645.86 434.122 646.129 433.718 646.509 433.439L654.278 427.73C655.689 426.693 655.18 424.472 653.458 424.152L635.319 420.787C633.58 420.464 632.998 418.094 634.243 416.839C640.812 410.216 648.9 396.751 645.921 378.078" stroke="#D1D4D8" stroke-width="3" stroke-linecap="round"/>
<path d="M707.41 421.412V410.947C707.41 409.639 706.183 408.624 704.876 408.575C677.504 407.548 540.462 325.713 596.207 213.199C632.428 140.091 720.119 173.148 741.724 205.571C778.524 254.241 749.204 376.819 721.669 401.966C720.83 402.731 720.729 404 721.462 404.867L730.825 415.937C731.997 417.323 730.85 419.587 729.037 419.67C722.454 419.969 714.958 421.836 710.105 423.357C708.783 423.771 707.41 422.797 707.41 421.412Z" stroke="#D1D4D8" stroke-width="3" stroke-linecap="round"/>
<path d="M760.652 343.197C763.837 345.038 769.775 347.461 774.138 348.147C775.568 348.372 776.729 349.843 776.309 351.229L772.222 364.695C771.707 366.392 773.492 367.87 775.063 367.048L783.139 362.824C783.795 362.48 784.587 362.528 785.198 362.947L790.589 366.648C792.032 367.639 793.961 366.43 793.699 364.7L791.496 350.184C791.335 349.122 792.013 348.131 793.062 347.9C825.926 340.693 894.848 302.565 888.602 205.9C886.672 176.026 849.772 122.378 770.837 136.616C756.196 139.257 723.731 154.16 711 178.568" stroke="#D1D4D8" stroke-width="3" stroke-linecap="round"/>
<path d="M834 329.959V342.775C834 344.048 835.174 344.998 836.42 344.73L841.843 343.567C842.507 343.424 843.198 343.628 843.678 344.109L848.401 348.838C849.661 350.099 851.816 349.207 851.816 347.425V331.801C851.816 330.76 852.589 329.898 853.624 329.79C885.348 326.479 951.015 302.018 973.984 228.02C997.4 152.585 946.836 126.081 918.627 122.258" stroke="#D1D4D8" stroke-width="3" stroke-linecap="round"/>
<path d="M878.349 177.258C903.152 158.205 954.632 94.474 902.516 34.9931C849.096 -25.9774 725.716 21.02 755.604 138.516" stroke="#D1D4D8" stroke-width="3" stroke-linecap="round"/>
<path d="M764 52.7812C721.122 43.602 637.404 54.4463 645.555 171.258" stroke="#D1D4D8" stroke-width="3" stroke-linecap="round"/>
<path d="M728 50.0151C705.114 17.7592 631.377 -27.6529 572.245 29.643C516.083 84.0622 565.258 163.973 607.216 193.258" stroke="#D1D4D8" stroke-width="3" stroke-linecap="round"/>
<path d="M547 102.584C496.28 97.4979 409.169 152.046 476.627 253.258" stroke="#D1D4D8" stroke-width="3" stroke-linecap="round"/>
</svg>
