<svg width="1377" height="730" viewBox="0 0 1377 730" fill="none" xmlns="http://www.w3.org/2000/svg">
<path d="M721.229 457.964C713.062 485.964 698.029 544.564 703.229 554.964" stroke="#D1D4D8" stroke-width="3" stroke-linecap="round"/>
<path d="M706.509 465.62L719.697 457.378C720.537 456.853 721.636 457.022 722.279 457.777L731.532 468.639C732.179 469.398 733.286 469.565 734.128 469.029L765.66 448.964C770.66 444.964 770.577 441.334 768.66 438.964C765.343 434.86 755.857 433.356 749.565 433.421C748.721 433.429 747.998 434.003 747.756 434.812L745.441 442.528C745.264 443.118 744.818 443.599 744.24 443.813C727.495 450.037 716.828 446.056 712.659 440.662C712.323 440.227 712.231 439.661 712.357 439.126L713.639 433.68C713.915 432.505 713.099 431.354 711.894 431.284C703.311 430.782 689.66 431.918 689.66 439.963C689.66 448.172 698.651 459.629 704.053 465.325C704.694 466.001 705.72 466.114 706.509 465.62Z" fill="#D1D4D8"/>
<path d="M666.661 528.964C670.661 486.164 683.495 450.797 689.661 438.964C691.661 434.464 696.461 431.364 701.661 430.964C708.161 430.464 757.844 430.538 770.161 436.964C781.661 442.964 779.661 442.964 776.661 476.464C774.261 503.264 764.661 538.964 760.161 553.464C757.161 561.464 739.061 568.264 720.661 561.464C697.661 552.964 704.661 557.464 683.661 553.464C666.861 550.264 665.96 536.464 666.661 528.964Z" stroke="#D1D4D8" stroke-width="3"/>
<path d="M778.664 456.464C775.33 452.964 767.764 449.464 764.164 463.464C759.664 480.964 749.584 520.049 748.662 524.964C747.162 532.964 746.663 553.964 754.663 541.464C761.063 531.464 768.497 489.464 770.663 469.464" stroke="#D1D4D8" stroke-width="3" stroke-linecap="round"/>
<ellipse cx="724.73" cy="470.464" rx="2.50085" ry="4" transform="rotate(13.2587 724.73 470.464)" fill="#D1D4D8"/>
<ellipse cx="719.081" cy="490.931" rx="2.50085" ry="4" transform="rotate(13.2587 719.081 490.931)" fill="#D1D4D8"/>
<ellipse cx="714.081" cy="514.931" rx="2.50085" ry="4" transform="rotate(13.2587 714.081 514.931)" fill="#D1D4D8"/>
<ellipse cx="710.081" cy="539.931" rx="2.50085" ry="4" transform="rotate(13.2587 710.081 539.931)" fill="#D1D4D8"/>
<path d="M589.229 457.964C581.062 485.964 566.029 544.564 571.229 554.964" stroke="#D1D4D8" stroke-width="3" stroke-linecap="round" stroke-dasharray="10 10"/>
<path d="M574.509 465.62L587.697 457.378C588.537 456.853 589.636 457.022 590.279 457.777L599.532 468.639C600.179 469.398 601.286 469.565 602.128 469.029L633.66 448.964C638.66 444.964 638.577 441.334 636.66 438.964C633.343 434.86 623.857 433.356 617.565 433.421C616.721 433.429 615.998 434.003 615.756 434.812L613.441 442.528C613.264 443.118 612.818 443.599 612.24 443.813C595.495 450.037 584.828 446.056 580.659 440.662C580.323 440.227 580.231 439.661 580.357 439.126L581.639 433.68C581.915 432.505 581.099 431.354 579.894 431.284C571.311 430.782 557.66 431.918 557.66 439.963C557.66 448.172 566.651 459.629 572.053 465.325C572.694 466.001 573.72 466.114 574.509 465.62Z" stroke="#D1D4D8" stroke-width="3" stroke-linecap="round" stroke-dasharray="10 10"/>
<path d="M534.661 528.964C538.661 486.164 551.495 450.797 557.661 438.964C559.661 434.464 564.461 431.364 569.661 430.964C576.161 430.464 625.844 430.538 638.161 436.964C649.661 442.964 647.661 442.964 644.661 476.464C642.261 503.264 632.661 538.964 628.161 553.464C625.161 561.464 607.061 568.264 588.661 561.464C565.661 552.964 572.661 557.464 551.661 553.464C534.861 550.264 533.96 536.464 534.661 528.964Z" stroke="#D1D4D8" stroke-width="3" stroke-dasharray="10 10"/>
<path d="M209.126 183.852C193.275 188.123 176.104 212.916 169.5 224.778C179.406 223.592 201.861 217.305 212.428 201.646C222.995 185.987 214.629 183.259 209.126 183.852Z" fill="#D1D4D8"/>
<path d="M201.425 142.889C185.787 144.465 174.541 183.005 169.5 200.778C180.702 191.638 202.769 173.357 208.146 167.264C218.227 155.838 216.547 141.366 201.425 142.889Z" fill="#D1D4D8"/>
<path d="M154.624 130.555C146.374 144.323 164.25 165.01 172.5 178.778C172.5 170.109 172.5 151.972 172.5 144.323C172.5 132.085 160.581 120.613 154.624 130.555Z" fill="#D1D4D8"/>
<path d="M172.5 208.778C160.786 192.293 135.761 163.718 129.371 181.302C121.384 203.283 170.903 208.778 172.5 208.778Z" fill="#D1D4D8"/>
<path d="M172.5 231.778L169.5 171.778" stroke="#D1D4D8" stroke-width="3" stroke-linecap="round"/>
<path d="M155.419 279.252C159.316 269.777 165.117 245.463 166.329 233.778H182.696C183.423 248.178 190.878 268.831 194.516 279.252C205.426 303.884 196.031 319.673 189.06 323.778H162.692C145.417 318.094 149.963 292.515 155.419 279.252Z" stroke="#D1D4D8" stroke-width="3"/>
<path d="M552.882 295.633C548.219 301.778 570.437 327.868 600.613 324.147C638.333 319.496 651.257 317.285 666.697 321.534C672.221 323.054 681.413 327.479 692.679 321.43C703.548 315.595 708.24 299.496 699.884 292.391" stroke="#D1D4D8" stroke-width="3" stroke-linecap="round"/>
<path d="M594.016 316.04C571.97 318.922 548.311 303.027 551.235 294.306C553.113 288.708 571.931 286.385 583.142 284.815C583.546 284.759 583.954 284.83 584.321 285.008C610.649 297.746 644.727 278.363 643.555 267.802C642.667 259.801 648.328 258.197 651.791 258.388C652.203 258.411 652.601 258.61 652.908 258.885C676.471 279.945 683.556 252.055 685.944 250.629C687.407 249.756 689.799 250.068 691.533 250.529C692.376 250.754 692.885 251.576 692.84 252.448C691.746 273.445 697.269 286.099 700.898 290.83C701.398 291.482 701.558 292.357 701.15 293.07C697.387 299.658 685.888 309.9 664.669 306.033C636.459 300.892 621.573 312.438 594.016 316.04Z" fill="#D1D4D8"/>
<path d="M640.109 272.669C620.57 289.19 600.528 288.354 589.529 284.847C587.791 284.293 587.989 282.033 589.737 281.513C635.278 267.987 631.744 249.835 646.818 242.922C657.649 237.955 656.298 246.742 653.524 253.717C652.97 255.11 650.644 255.686 649.16 255.905C647.899 256.092 646.251 256.734 644.19 258.19C639.714 261.351 641.017 267.474 640.765 271.417C640.734 271.904 640.482 272.354 640.109 272.669Z" fill="#D1D4D8"/>
<path d="M698.188 184.874L701.374 161.374C701.576 159.887 702.846 158.777 704.347 158.777H929.727C931.383 158.777 932.727 160.12 932.727 161.777V185.277C932.727 186.934 931.383 188.277 929.727 188.277H701.161C699.344 188.277 697.944 186.675 698.188 184.874Z" fill="#D1D4D8"/>
<path d="M710.727 188.777L707.359 242.653C707.287 243.804 708.202 244.777 709.355 244.777H915.429C916.451 244.777 917.309 244.007 917.418 242.99L923.227 188.777" stroke="#D1D4D8" stroke-width="3" stroke-linecap="round"/>
<circle cx="815.227" cy="205.277" r="11" stroke="#D1D4D8" stroke-width="3"/>
<path d="M923.5 89.7783H908.5H761.98C760.472 89.7783 759.198 90.8981 759.005 92.3939L756.937 108.394C756.705 110.188 758.103 111.778 759.913 111.778H879.5" stroke="#D1D4D8" stroke-width="3" stroke-linecap="round" stroke-dasharray="10 10"/>
<path d="M765.979 112.778L763.622 153.663C763.556 154.811 764.469 155.778 765.619 155.778H893.5" stroke="#D1D4D8" stroke-width="3" stroke-linecap="round" stroke-dasharray="10 10"/>
<circle cx="834.227" cy="287.277" r="11" stroke="#D1D4D8" stroke-width="3"/>
<path d="M717.716 269.377L721.9 248.877C722.09 247.946 722.909 247.277 723.86 247.277H952.227C953.331 247.277 954.227 248.173 954.227 249.277V269.777C954.227 270.882 953.331 271.777 952.227 271.777H719.676C718.411 271.777 717.463 270.617 717.716 269.377Z" fill="#D1D4D8"/>
<path d="M725.032 322.011L731.493 274.011C731.627 273.018 732.474 272.277 733.475 272.277H942.461C943.664 272.277 944.595 273.332 944.446 274.525L938.446 322.525C938.32 323.526 937.47 324.277 936.461 324.277H727.014C725.803 324.277 724.87 323.21 725.032 322.011Z" stroke="#D1D4D8" stroke-width="3"/>
<path d="M783.5 559.778V437.778C783.5 436.674 784.395 435.778 785.5 435.778H937.5C938.605 435.778 939.5 436.674 939.5 437.778V559.778C939.5 560.883 938.605 561.778 937.5 561.778H785.5C784.395 561.778 783.5 560.883 783.5 559.778Z" stroke="#D1D4D8" stroke-width="3" stroke-linecap="round"/>
<rect x="878" y="532.278" width="43" height="19" rx="2" fill="#D1D4D8"/>
<path d="M836.5 481.278V438.278C836.5 437.174 837.395 436.278 838.5 436.278H871C872.105 436.278 873 437.174 873 438.278V481.278C873 482.383 872.105 483.278 871 483.278H838.5C837.395 483.278 836.5 482.383 836.5 481.278Z" fill="#D1D4D8"/>
<path d="M2 632.278H199" stroke="#D1D4D8" stroke-width="3" stroke-linecap="round"/>
<path d="M626.5 632.278H1042.5" stroke="#D1D4D8" stroke-width="3" stroke-linecap="round"/>
<path d="M393.743 371.553C292.416 352.73 282.733 488.252 290.648 560.042C290.76 561.051 291.611 561.778 292.626 561.778H438.177C455.764 561.778 449.753 517.129 440.984 496.199C433.968 479.456 434.436 476.293 432.565 433.876C430.694 391.459 409.179 374.42 393.743 371.553Z" stroke="#D1D4D8" stroke-width="3" stroke-linecap="round"/>
<rect x="369.23" y="403.354" width="38.2825" height="38.2825" rx="5" transform="rotate(45 369.23 403.354)" fill="#D1D4D8"/>
<path d="M352.5 371.778C352.814 363.491 358.113 348.54 377.43 351.061C391.542 352.902 395.305 364.412 394.364 369.937" stroke="#D1D4D8" stroke-width="3" stroke-linecap="round"/>
<path d="M316.668 502.778C312.801 517.086 309.336 545.893 326.412 546.656C343.489 547.419 384.262 544.43 402.514 542.84C415.043 541.749 412.816 524.145 411.331 502.778" stroke="#D1D4D8" stroke-width="3" stroke-linecap="round"/>
<path d="M307.887 502.778H419.765C422.797 502.778 425.164 500.086 424.385 497.156C421.961 488.033 416.507 480.105 405.687 477.531C392.661 474.434 336.243 470.921 319.508 477.531C308.301 480.864 303.896 491.237 303.526 498.687C303.407 501.073 305.498 502.778 307.887 502.778Z" fill="#D1D4D8"/>
<path d="M323.966 502.778C323.164 508.588 322.548 518.778 329.741 518.778C335.997 518.778 335.996 508.431 335.034 502.778" stroke="#D1D4D8" stroke-width="3" stroke-linecap="round"/>
<path d="M217.743 371.553C117.65 352.959 106.982 484.973 114.367 557.391C114.625 559.916 116.76 561.778 119.299 561.778H262.177C279.764 561.778 273.753 517.129 264.984 496.199C257.968 479.456 258.436 476.293 256.565 433.876C254.694 391.459 233.179 374.42 217.743 371.553Z" stroke="#D1D4D8" stroke-width="3" stroke-linecap="round" stroke-dasharray="10 10"/>
<path d="M175.5 371.778C175.814 363.491 181.113 348.54 200.43 351.061C214.542 352.902 218.305 364.412 217.364 369.937" stroke="#D1D4D8" stroke-width="3" stroke-linecap="round" stroke-dasharray="10 15"/>
<path d="M139.7 502.778C135.793 517.086 132.294 545.893 149.543 546.656C166.792 547.419 207.977 544.43 226.413 542.84C239.069 541.749 236.819 524.145 235.319 502.778" stroke="#D1D4D8" stroke-width="3" stroke-linecap="round" stroke-dasharray="10 10"/>
<path d="M130.883 502.778H243.758C246.793 502.778 249.16 500.082 248.375 497.151C245.93 488.03 240.431 480.104 229.524 477.531C216.392 474.434 159.512 470.921 142.64 477.531C131.337 480.865 126.897 491.243 126.526 498.694C126.407 501.077 128.497 502.778 130.883 502.778Z" stroke="#D1D4D8" stroke-width="3" stroke-linecap="round" stroke-dasharray="10 16"/>
<path d="M936.07 145.555C936.07 149.027 937.37 155.872 942.57 155.472" stroke="#D1D4D8" stroke-width="3" stroke-linecap="round"/>
<path d="M911.57 133.472L903.57 140.222C901.07 142.331 899.07 145.554 899.07 149.472C899.07 151.621 900.063 153.083 901.451 154.007C905.225 156.519 908.505 153.203 910.239 149.013V149.013C912.48 143.597 920.002 143.869 925.552 145.756C928.693 146.824 932.323 147.076 936.07 145.554C937.89 144.815 939.738 143.658 941.57 141.972" stroke="#D1D4D8" stroke-width="3" stroke-linecap="round"/>
<path d="M901.07 128.881C898.325 130.749 894.508 132.893 892.353 135.758C891.774 136.527 891.556 136.78 891.39 137.728V137.728C890.305 143.956 898.615 144.403 903.446 140.326L903.57 140.222L911.57 133.472" stroke="#D1D4D8" stroke-width="3" stroke-linecap="round"/>
<path d="M916.07 113.472C910.47 112.672 899.07 115.138 894.07 116.472C885.57 118.972 881.47 126.872 887.07 130.472C890.558 132.714 896.168 131.193 901.07 128.881C904.038 127.481 906.748 125.792 908.57 124.472" stroke="#D1D4D8" stroke-width="3" stroke-linecap="round"/>
<path d="M969.57 139.972C967.404 125.472 955.87 97.1717 927.07 99.9717C915.228 101.123 907.094 102.652 901.633 104.204C894.732 106.165 886.908 116.05 894.07 116.472V116.472" stroke="#D1D4D8" stroke-width="3" stroke-linecap="round"/>
<path d="M1374.86 711.893C1383.25 704.575 1345.95 705.117 1327.53 704.778C1324.88 708.437 1322.93 708.505 1318.14 709.352C1315.93 714.941 1366.46 719.209 1374.86 711.893Z" fill="#D1D4D8"/>
<path d="M1093.46 160.778C1095.48 166.707 1096.98 185.971 1089.07 201.778" stroke="#D1D4D8" stroke-width="3" stroke-linecap="round"/>
<path d="M1098.07 206.747C1082.56 201.143 1053.03 194.285 1053.03 213.671V217.035C1053.03 219.306 1050.46 220.593 1048.68 219.202C1023.79 199.75 989.07 168.278 972.57 144.278C971.404 142.612 967.57 140.078 961.57 143.278C954.07 147.278 944.07 149.278 943.07 162.778C942.07 176.278 954.07 211.778 987.57 249.778C1014.37 280.178 1015.95 286.278 1020.57 299.778C1026.9 318.278 1040.17 366.978 1042.57 413.778" stroke="#D1D4D8" stroke-width="3" stroke-linecap="round"/>
<path d="M1029.26 56.7783C1014.2 68.7937 990.82 94.7289 1013.54 105.28C1014.88 105.898 1015.61 107.394 1015.23 108.82C1010.76 125.594 1011.47 160.232 1046.15 183.688C1046.66 184.037 1047.06 184.555 1047.25 185.151L1054.07 206.778" stroke="#D1D4D8" stroke-width="3" stroke-linecap="round"/>
<path d="M1044.97 144.778C1045.52 147.478 1044.1 153.058 1034.07 153.778" stroke="#D1D4D8" stroke-width="3" stroke-linecap="round"/>
<path d="M1018.07 83.2783C1018.07 88.391 1019.66 92.8872 1022.06 96.0278C1024.47 99.167 1027.51 100.778 1030.57 100.778C1033.63 100.778 1036.67 99.167 1039.08 96.0278C1041.48 92.8872 1043.07 88.391 1043.07 83.2783C1043.07 78.1656 1041.48 73.6695 1039.08 70.5289C1036.67 67.3897 1033.63 65.7783 1030.57 65.7783C1027.51 65.7783 1024.47 67.3897 1022.06 70.5289C1019.66 73.6695 1018.07 78.1656 1018.07 83.2783Z" stroke="#D1D4D8" stroke-width="3" stroke-linecap="round"/>
<path d="M1075.07 98.7783L1045.07 88.7783" stroke="#D1D4D8" stroke-width="3" stroke-linecap="round"/>
<path d="M1051.07 77.7783C1050.28 74.6678 1047.38 67.5112 1042.07 63.7783" stroke="#D1D4D8" stroke-width="3" stroke-linecap="round"/>
<path d="M1028.07 86.7783C1025.86 86.7783 1024.07 85.2113 1024.07 83.2783C1024.07 81.3453 1025.86 79.7783 1028.07 79.7783C1030.28 79.7783 1032.07 81.3453 1032.07 83.2783C1032.07 85.2113 1030.28 86.7783 1028.07 86.7783Z" fill="#D1D4D8"/>
<path d="M1098.07 205.778L1214.07 339.778" stroke="#D1D4D8" stroke-width="3" stroke-linecap="round"/>
<path d="M1214.07 340.198C1205.54 339.031 1183.38 339.597 1162.92 351.21C1137.34 365.725 1110.27 391.254 1043.07 413.778" stroke="#D1D4D8" stroke-width="3" stroke-linecap="round"/>
<path d="M1043.07 413.778L1065.07 428.778" stroke="#D1D4D8" stroke-width="3" stroke-linecap="round"/>
<path d="M1213.96 339.778C1215.66 344.929 1217.35 356.943 1203.07 371.778" stroke="#D1D4D8" stroke-width="3" stroke-linecap="round"/>
<path d="M1130.07 242.778C1148.38 258.153 1194.81 290.588 1234.04 297.333C1243.2 301.135 1258.96 311.814 1248.76 324.113C1238.55 336.414 1231.75 351.391 1229.63 357.342C1227.99 362.798 1223.92 370.405 1214.11 352.947" stroke="#D1D4D8" stroke-width="3" stroke-linecap="round"/>
<path d="M1246.07 328.778C1253.8 333.334 1271.81 342.039 1282.07 340.419C1292.33 338.8 1299.17 343.119 1301.3 345.481C1302.45 347.337 1303.18 351.15 1296.86 351.555C1290.55 351.96 1283.06 351.723 1280.1 351.555" stroke="#D1D4D8" stroke-width="3" stroke-linecap="round"/>
<path d="M1271.07 344.778C1274.62 348.655 1286.68 357.467 1306.54 361.697C1310.42 362.402 1315.66 366.455 1308.56 371.214C1302.48 374.915 1285.66 371.531 1277.15 366.455" stroke="#D1D4D8" stroke-width="3" stroke-linecap="round"/>
<path d="M1277.49 365.778C1283.67 368.978 1294.78 377.496 1289.84 385.98C1288.26 387.664 1281.58 387.798 1267.52 374.869L1257.07 365.778" stroke="#D1D4D8" stroke-width="3" stroke-linecap="round"/>
<path d="M1255.53 365.971L1266.51 375.144C1269.68 383.468 1274.5 403.683 1261.52 392.471C1252.04 382.788 1254.03 374.533 1250.04 372.086C1246.05 369.64 1237.06 360.196 1233.07 355.778" stroke="#D1D4D8" stroke-width="3" stroke-linecap="round"/>
<path d="M1256.06 349.778C1257.39 354.328 1258.46 364.898 1252.07 370.778" stroke="#D1D4D8" stroke-width="3" stroke-linecap="round"/>
<path d="M1135.07 685.778C1128.87 684.123 1116.36 675.751 1115.97 655.496C1115.58 635.241 1107.31 600.391 1103.23 585.497L1063.07 406.778" stroke="#D1D4D8" stroke-width="3" stroke-linecap="round"/>
<path d="M1047.57 116.778C1046.74 116.778 1046.07 116.107 1046.07 115.278C1046.07 114.45 1046.74 113.778 1047.57 113.778C1048.4 113.778 1049.07 114.45 1049.07 115.278C1049.07 116.107 1048.4 116.778 1047.57 116.778Z" fill="#D1D4D8"/>
<path d="M1041.07 123.778C1040.52 123.778 1040.07 123.107 1040.07 122.278C1040.07 121.45 1040.52 120.778 1041.07 120.778C1041.62 120.778 1042.07 121.45 1042.07 122.278C1042.07 123.107 1041.62 123.778 1041.07 123.778Z" fill="#D1D4D8"/>
<path d="M1055.57 126.778C1054.74 126.778 1054.07 126.107 1054.07 125.278C1054.07 124.45 1054.74 123.778 1055.57 123.778C1056.4 123.778 1057.07 124.45 1057.07 125.278C1057.07 126.107 1056.4 126.778 1055.57 126.778Z" fill="#D1D4D8"/>
<path d="M1201.92 102.94C1177.87 57.9923 1141.95 52.341 1127 55.1332C1095.94 7.32657 1053.06 -8.44443 1026.93 5.84846C1006.03 17.2822 1023.15 46.0977 1034.33 59.0766L1045.17 43.3056C1052.66 57.8938 1074.09 52.5051 1084.6 49.2194C1075.57 68.2761 1061.14 117.529 1091.51 162.083C1121.87 206.637 1160.02 207.424 1179.25 194.611C1196.99 181.962 1225.97 147.889 1201.92 102.94Z" fill="#D1D4D8"/>
<path d="M1032.07 249.778C1026.12 255.532 1015.33 271.289 1017.57 290.278" stroke="#D1D4D8" stroke-width="3" stroke-linecap="round"/>
<path d="M1216.07 691.778C1212.55 696.967 1200.82 706.759 1182.07 704.425" stroke="#D1D4D8" stroke-width="3" stroke-linecap="round"/>
<path d="M1186.28 343.778C1192.54 361.615 1221.85 398.28 1248.04 444.36C1265.49 473.262 1307.12 537.806 1334 564.76C1337.62 569.879 1341.02 581.506 1325.6 587.055C1313.75 592.01 1308.41 603.505 1306.83 615.793C1304.85 631.153 1279.66 642.548 1262.86 631.153C1249.47 622.069 1210.97 556.642 1181.89 519.671C1174.48 510.258 1167.69 502.689 1162.07 498.366" stroke="#D1D4D8" stroke-width="3" stroke-linecap="round"/>
<path d="M1183.17 518.778L1216.07 691.778C1199.35 687.316 1153.4 678.889 1125.07 678.889" stroke="#D1D4D8" stroke-width="3" stroke-linecap="round"/>
<path d="M1345.18 676.748C1371.88 624.313 1347.13 589.419 1333.75 580.778C1313 587.391 1312.44 609.433 1309.07 619.904L1316.84 641.449C1322.03 650.716 1319 668.843 1316.84 676.748C1307.86 713.371 1321.41 716.891 1328.06 707.084L1345.18 676.748Z" fill="#D1D4D8"/>
<path d="M1200.58 725.93C1209.87 718.659 1191.49 715.841 1172.84 714.778C1166.34 720.518 1123.18 722.477 1121.07 723.806C1140.93 730.182 1192.43 732.301 1200.58 725.93Z" fill="#D1D4D8"/>
<path d="M1110.15 722.817C1179.12 732.361 1193.44 704.827 1191.97 688.731C1180.11 683.732 1147.49 681.914 1132.11 680.778C1136.51 691.231 1131.02 689.867 1127.17 692.708C1122.23 696.117 1108.5 700.283 1100.81 700.661C1066.22 702.366 1093.31 720.355 1110.15 722.817Z" fill="#D1D4D8"/>
<path d="M57.5 328.778L983.5 328.778" stroke="#D1D4D8" stroke-width="3" stroke-linecap="round"/>
<path d="M57.5 566.778L983.5 566.778" stroke="#D1D4D8" stroke-width="3" stroke-linecap="round"/>
<path d="M56 283.778V628.778" stroke="#D1D4D8" stroke-width="3" stroke-linecap="round"/>
<path d="M984.5 283.778V628.778" stroke="#D1D4D8" stroke-width="3" stroke-linecap="round"/>
</svg>
