<svg width="764" height="881" viewBox="0 0 764 881" fill="none" xmlns="http://www.w3.org/2000/svg">
<path d="M465 120.621C473.304 119.865 492.846 124.804 505.944 150.181C506.323 150.916 507.387 150.933 507.763 150.197C521.157 124 537.648 97.5518 589.418 129.315C590.302 129.857 591.457 128.857 591.026 127.914C582.688 109.677 578.414 75.4154 617.317 58.2776C618.186 57.8946 618.143 56.6004 617.231 56.3338L607.7 53.548C606.671 53.247 606.781 51.8415 607.85 51.7505C618.32 50.8584 632.679 51.5394 627.646 57.6528C621.691 64.8861 620.227 69.4594 621.679 77.0111" stroke="#D1D4D8" stroke-width="3" stroke-linecap="round"/>
<path fill-rule="evenodd" clip-rule="evenodd" d="M55.1557 389.618C53.6122 389.18 51.9976 390.034 51.491 391.557L47.8471 402.506C47.4985 403.554 46.603 404.325 45.5157 404.514L34.147 406.496C32.5664 406.771 31.4824 408.242 31.6865 409.833L33.1543 421.279C33.2947 422.374 32.8225 423.458 31.9251 424.1L22.542 430.818C21.2375 431.752 20.8987 433.547 21.773 434.892L28.0618 444.568C28.6634 445.494 28.7081 446.675 28.1783 447.643L22.6392 457.767C21.8692 459.174 22.3428 460.939 23.7141 461.771L33.5784 467.76C34.5219 468.333 35.0746 469.378 35.0174 470.48L34.4195 482.005C34.3364 483.607 35.5285 484.991 37.1254 485.146L48.6114 486.262C49.71 486.369 50.6612 487.07 51.088 488.088L55.5496 498.731C56.1699 500.211 57.8444 500.94 59.3504 500.387L70.1832 496.409C71.2193 496.029 72.3807 496.248 73.2069 496.98L81.8444 504.633C83.0452 505.697 84.8705 505.628 85.9874 504.476L94.0214 496.192C94.7898 495.399 95.9313 495.093 96.9932 495.394L108.096 498.541C109.639 498.979 111.254 498.125 111.761 496.602L115.404 485.653C115.753 484.605 116.649 483.834 117.736 483.644L129.105 481.663C130.685 481.387 131.769 479.917 131.565 478.326L130.097 466.88C129.957 465.785 130.429 464.701 131.326 464.059L140.71 457.341C142.014 456.407 142.353 454.612 141.479 453.267L135.19 443.591C134.588 442.665 134.543 441.484 135.073 440.516L140.612 430.392C141.382 428.984 140.909 427.22 139.537 426.388L129.673 420.399C128.73 419.826 128.177 418.781 128.234 417.679L128.832 406.154C128.915 404.552 127.723 403.168 126.126 403.013L114.64 401.897C113.542 401.79 112.59 401.089 112.164 400.071L107.702 389.428C107.082 387.948 105.407 387.219 103.901 387.772L93.0683 391.75C92.0322 392.13 90.8708 391.911 90.0447 391.179L81.4072 383.526C80.2064 382.462 78.381 382.531 77.2641 383.683L69.2301 391.967C68.4617 392.76 67.3203 393.066 66.2583 392.765L55.1557 389.618ZM66.2137 435.264C67.376 437.46 66.5374 440.183 64.3406 441.346C62.1439 442.508 59.4208 441.669 58.2585 439.473C57.0962 437.276 57.9348 434.553 60.1316 433.391C62.3283 432.228 65.0514 433.067 66.2137 435.264ZM70.6332 432.925C73.0869 437.563 71.3165 443.312 66.6789 445.765C62.0414 448.219 56.2927 446.449 53.839 441.811C51.3853 437.173 53.1557 431.425 57.7933 428.971C62.4308 426.517 68.1795 428.288 70.6332 432.925ZM104.004 454.301C106.201 453.138 107.039 450.415 105.877 448.218C104.715 446.022 101.992 445.183 99.7948 446.345C97.5981 447.508 96.7595 450.231 97.9218 452.428C99.0841 454.624 101.807 455.463 104.004 454.301ZM106.342 458.72C110.98 456.266 112.75 450.518 110.296 445.88C107.843 441.243 102.094 439.472 97.4565 441.926C92.8189 444.38 91.0485 450.128 93.5023 454.766C95.956 459.403 101.705 461.174 106.342 458.72ZM83.1468 419.929C83.0646 418.551 81.8807 417.5 80.5025 417.582C79.1242 417.664 78.0735 418.848 78.1556 420.227L80.9885 467.761C81.0706 469.14 82.2545 470.19 83.6328 470.108C85.011 470.026 86.0618 468.842 85.9796 467.464L83.1468 419.929Z" fill="#D1D4D8"/>
<path d="M762.5 275.844C762.5 305.931 737.888 330.344 707.5 330.344C677.112 330.344 652.5 305.931 652.5 275.844C652.5 245.757 677.112 221.344 707.5 221.344C737.888 221.344 762.5 245.757 762.5 275.844Z" stroke="#D1D4D8" stroke-width="3"/>
<path d="M708 300.844V308.844" stroke="#D1D4D8" stroke-width="3" stroke-linecap="round"/>
<path d="M708 250.844V242.844" stroke="#D1D4D8" stroke-width="3" stroke-linecap="round"/>
<path d="M722 254.241C718.448 252.476 713.056 250.825 708.013 250.844C701.936 250.867 696.368 253.316 695.145 260.917C693.532 270.94 705.762 274.539 713.048 278.161C723.12 283.167 723.028 292.553 716.965 297.074C714.238 299.107 711.141 300.223 708.013 300.645C703.44 301.261 698.799 300.394 695.145 298.742" stroke="#D1D4D8" stroke-width="3" stroke-linecap="round"/>
<path d="M407.5 155.846C398.833 127.013 400.416 68.3854 476 63.3463C551 58.3462 562.5 59.3452 575 61.3451" stroke="#D1D4D8" stroke-width="3" stroke-linecap="round"/>
<path d="M265 695.844C287.965 679.165 338.514 648.741 356.893 660.466C379.858 675.122 365.196 677.143 353.466 674.111" stroke="#D1D4D8" stroke-width="3" stroke-linecap="round"/>
<path d="M332.457 674.598C344.288 672.825 368.156 673.05 368.947 688.138C369.394 696.936 366.97 695.473 362.533 692.726C359.352 690.76 355.139 688.138 350.203 688.138H329" stroke="#D1D4D8" stroke-width="3" stroke-linecap="round"/>
<path d="M329 688.844H350.331C355.296 688.844 359.535 691.521 362.736 693.527C365.867 699.207 368.185 709.68 352.321 706.123C336.456 702.569 330.159 703.656 329 704.643" stroke="#D1D4D8" stroke-width="3" stroke-linecap="round"/>
<path d="M352.594 705.844C357.841 711.839 363.893 723.127 346.199 720.33C328.505 717.534 314.583 726.158 309.834 730.82C301.81 736.147 282.796 742.807 271 726.824" stroke="#D1D4D8" stroke-width="3" stroke-linecap="round"/>
<path d="M182.697 721.215C265.843 675.118 265.929 718.532 258.904 745.007C248.513 771.774 196.968 801.257 173.827 804.784C141.184 812.285 83.3838 803.397 113.361 707.832C150.84 588.377 167.794 501.14 293 477.844" stroke="#D1D4D8" stroke-width="3" stroke-linecap="round"/>
<path d="M228 617.844C228 662.955 225.36 661.892 206 702.844" stroke="#D1D4D8" stroke-width="3" stroke-linecap="round"/>
<path d="M398 641.844V628.844" stroke="#D1D4D8" stroke-width="3" stroke-linecap="round"/>
<path d="M413 640.844L418 624.844" stroke="#D1D4D8" stroke-width="3" stroke-linecap="round"/>
<path d="M428 644.844L440 616.844" stroke="#D1D4D8" stroke-width="3" stroke-linecap="round"/>
<path d="M197 801.844C200.482 840.861 201.966 838.391 207.94 860.615C268.253 878.396 401.698 898.842 453 838.392" stroke="#D1D4D8" stroke-width="3" stroke-linecap="round"/>
<path d="M259 567.844L260.887 564.983C272.26 547.823 294.19 540.971 313.383 548.588C330.604 555.421 350.29 550.66 362.428 536.727L378 518.844" stroke="#D1D4D8" stroke-width="3" stroke-linecap="round"/>
<path d="M367.093 476.955C371.468 464.679 367.467 456.417 363.587 454.844C340.199 475.619 304.727 467.907 291.587 455.315C286.906 459.471 289.629 471.762 291.587 475.539C316.914 502.736 352.965 487.501 367.093 476.955Z" fill="#D1D4D8"/>
<path d="M436.015 275.08C425.115 314.316 419.649 317.792 403.795 335.175C403.795 317.997 400.84 289.162 400.84 277.154C348.889 277.154 305.052 255.912 289.609 245.289C290.173 281.31 256.45 304.863 256.45 304.863C256.45 304.863 261.284 319.41 264.052 351.966C266.273 378.013 259.901 372.98 256.45 367.207C246.507 335.064 230.209 343.654 223.291 351.966C138.522 213.993 268.887 187.333 293.76 189.873C312.552 173.802 338.758 161.208 357.174 159.361C423.629 152.699 453.696 211.462 436.015 275.08Z" fill="#D1D4D8"/>
<path d="M257 391.759C265.991 446.635 326.314 486.096 369.851 441.641C413.388 397.187 404.671 315.815 400.021 277.844" stroke="#D1D4D8" stroke-width="3" stroke-linecap="round"/>
<path d="M222.794 347.844C217.514 361.215 222.469 390.844 257 390.844" stroke="#D1D4D8" stroke-width="3" stroke-linecap="round"/>
<path d="M240.193 355.844C239.581 358.319 240.071 364.187 247 367.844" stroke="#D1D4D8" stroke-width="3" stroke-linecap="round"/>
<path d="M400 383.844C411.387 379.048 419.426 361.286 416.333 332.844" stroke="#D1D4D8" stroke-width="3" stroke-linecap="round"/>
<path d="M334 417.17C344.62 420.367 343.949 411.566 352 403.844" stroke="#D1D4D8" stroke-width="3" stroke-linecap="round"/>
<path d="M368.5 354.844C372.642 354.844 376 351.262 376 346.844C376 342.425 372.642 338.844 368.5 338.844C364.358 338.844 361 342.425 361 346.844C361 351.262 364.358 354.844 368.5 354.844Z" fill="#D1D4D8"/>
<path d="M302.5 354.844C307.194 354.844 311 351.71 311 347.844C311 343.978 307.194 340.844 302.5 340.844C297.806 340.844 294 343.978 294 347.844C294 351.71 297.806 354.844 302.5 354.844Z" fill="#D1D4D8"/>
<path d="M286 330.844C287.646 326.619 294.76 318.804 310 321.339" stroke="#D1D4D8" stroke-width="3" stroke-linecap="round"/>
<path d="M356 321.844C359.634 319.58 369.526 316.41 380 321.844" stroke="#D1D4D8" stroke-width="3" stroke-linecap="round"/>
<path d="M330.799 344.844C329.648 354.399 328.848 373.777 335 374.844" stroke="#D1D4D8" stroke-width="3" stroke-linecap="round"/>
<path d="M316.788 663.844L290.995 620.51C288.98 617.123 290.124 612.735 293.538 610.776C296.867 608.869 301.1 609.979 303.063 613.269L330 658.344" stroke="#D1D4D8" stroke-width="3" stroke-linecap="round"/>
<path d="M323 814.844C336.715 770.508 368.649 684.436 388.932 686.895C389.854 687.008 390.775 687.271 391.696 687.4L468 698.089" stroke="#D1D4D8" stroke-width="3" stroke-linecap="round"/>
<path d="M479 715.844L472 736.844" stroke="#D1D4D8" stroke-width="3" stroke-linecap="round"/>
<path d="M390.767 697.844C376.135 706.777 354.368 768.074 341.671 809.323C338.899 818.313 345.025 827.512 354.386 828.683L426.703 837.724C434.095 838.646 441.077 834.178 443.319 827.108L449 809.143" stroke="#D1D4D8" stroke-width="3" stroke-linecap="round"/>
<path d="M402.493 705.844C407.321 704.09 417.36 693.748 414.494 683.727C414.008 681.988 413.122 680.258 411.75 678.583C402.493 667.269 386.55 678.585 390.666 687.842" stroke="#D1D4D8" stroke-width="3" stroke-linecap="round"/>
<path d="M414 684.006C418.925 677.984 432.236 675.232 439.194 687.102C445.665 701.554 433.228 709.812 425.765 710.844" stroke="#D1D4D8" stroke-width="3" stroke-linecap="round"/>
<path d="M440 686.811C445.199 682.843 459.115 677.495 467.169 687.847C476.718 703.892 459.625 714.244 452.574 712.69" stroke="#D1D4D8" stroke-width="3" stroke-linecap="round"/>
<path d="M467 687.887C473.637 683.99 485.429 682.295 489.963 692.46C494.497 702.628 483.326 715.844 472.603 715.844" stroke="#D1D4D8" stroke-width="3" stroke-linecap="round"/>
<path d="M429.116 771.844C426.387 775.574 426.954 785.197 451 793.844" stroke="#D1D4D8" stroke-width="3" stroke-linecap="round"/>
<path d="M492 752.011C466.008 747.006 439.332 745.151 429.225 744.848C423.805 744.687 417.785 749.315 420.812 754.555C421.65 755.896 424.283 758.878 428.097 760.079C444.291 765.355 451.199 765.823 458.33 765.844" stroke="#D1D4D8" stroke-width="3" stroke-linecap="round"/>
<path d="M458 765.624C450.867 765.604 443.955 765.134 427.756 759.844C424.061 761.18 423.581 767.541 429.432 771.512C433.127 774.029 439.816 777.116 450.866 780.844" stroke="#D1D4D8" stroke-width="3" stroke-linecap="round"/>
<path d="M368 477.844C448.825 509.939 513.277 604.248 505.337 733.617C504.179 751.885 494.723 789.709 466.169 794.844" stroke="#D1D4D8" stroke-width="3" stroke-linecap="round"/>
<path d="M437.5 292.843C453.167 288.509 488.2 284.043 503 300.843C521.5 321.843 512.5 328.343 533.5 300.843C550.3 278.843 618.167 275.343 650 276.343" stroke="#D1D4D8" stroke-width="3" stroke-linecap="round"/>
<path d="M730 220.341C728 215.508 726.232 197.843 730 184.341C736 162.841 755.5 83.8426 734.5 66.3412C707.34 43.7062 688.5 54.3419 646 58.8415" stroke="#D1D4D8" stroke-width="3" stroke-linecap="round"/>
<path d="M477.528 181.246L479.468 244.293C479.485 244.865 479.978 245.305 480.548 245.259L509.538 242.921C510.075 242.878 510.481 242.417 510.457 241.88L507.549 177.434C507.523 176.848 507 176.41 506.418 176.488L478.395 180.224C477.887 180.292 477.512 180.734 477.528 181.246Z" stroke="#D1D4D8" stroke-width="3" stroke-linecap="round"/>
<path d="M530.5 165.426V243.371C530.5 244.078 531.212 244.561 531.869 244.301L558.894 233.584C559.262 233.438 559.51 233.088 559.524 232.692L561.964 167.802C561.984 167.267 561.578 166.81 561.044 166.768L531.579 164.429C530.997 164.383 530.5 164.843 530.5 165.426Z" stroke="#D1D4D8" stroke-width="3" stroke-linecap="round"/>
<path d="M587 147.344V233.844C587 234.396 587.448 234.844 588 234.844H617C617.552 234.844 618 234.396 618 233.844V147.344C618 146.791 617.552 146.344 617 146.344H588C587.448 146.344 587 146.791 587 147.344Z" stroke="#D1D4D8" stroke-width="3" stroke-linecap="round"/>
<path d="M646.978 129.784L644.532 231.991C644.516 232.663 645.155 233.159 645.803 232.977L675.849 224.527C676.242 224.416 676.529 224.078 676.573 223.672L686.875 128.494C686.941 127.888 686.453 127.364 685.844 127.387L647.94 128.809C647.412 128.828 646.99 129.256 646.978 129.784Z" stroke="#D1D4D8" stroke-width="3" stroke-linecap="round"/>
<path d="M214.484 117.844C213.785 129.287 213.31 152.708 217 154.844" stroke="#D1D4D8" stroke-width="3" stroke-linecap="round"/>
<path d="M195 140.844L233 135.844" stroke="#D1D4D8" stroke-width="3" stroke-linecap="round"/>
<path d="M511.484 453.844C510.785 465.287 510.31 488.708 514 490.844" stroke="#D1D4D8" stroke-width="3" stroke-linecap="round"/>
<path d="M492 476.844L530 471.844" stroke="#D1D4D8" stroke-width="3" stroke-linecap="round"/>
<path d="M668.5 561.844C668.5 564.808 665.963 567.926 660.854 570.392C655.85 572.808 648.833 574.344 641 574.344C633.167 574.344 626.15 572.808 621.146 570.392C616.037 567.926 613.5 564.808 613.5 561.844C613.5 558.88 616.037 555.761 621.146 553.295C626.15 550.88 633.167 549.344 641 549.344C648.833 549.344 655.85 550.88 660.854 553.295C665.963 555.761 668.5 558.88 668.5 561.844Z" stroke="#D1D4D8" stroke-width="3"/>
<path d="M614 562.344V580.393C614 580.68 614.116 580.948 614.334 581.134C621.768 587.471 641.333 596.874 663 585.844" stroke="#D1D4D8" stroke-width="3" stroke-linecap="round"/>
<path d="M117.5 221.844C117.5 224.808 114.963 227.926 109.854 230.392C104.85 232.808 97.8329 234.344 90 234.344C82.1671 234.344 75.1495 232.808 70.146 230.392C65.0372 227.926 62.5 224.808 62.5 221.844C62.5 218.88 65.0372 215.761 70.146 213.295C75.1495 210.88 82.1671 209.344 90 209.344C97.8329 209.344 104.85 210.88 109.854 213.295C114.963 215.761 117.5 218.88 117.5 221.844Z" stroke="#D1D4D8" stroke-width="3"/>
<path d="M63 222.344V240.393C63 240.68 63.116 240.948 63.3341 241.134C70.7676 247.471 90.333 256.874 112 245.844" stroke="#D1D4D8" stroke-width="3" stroke-linecap="round"/>
<path d="M627.964 397.172C625.896 399.295 621.902 399.758 616.522 397.96C611.252 396.199 605.154 392.402 599.543 386.937C593.932 381.471 589.977 375.474 588.079 370.252C586.14 364.921 586.499 360.917 588.567 358.794C590.635 356.671 594.629 356.207 600.009 358.006C605.279 359.767 611.377 363.563 616.988 369.029C622.599 374.495 626.554 380.492 628.452 385.713C630.391 391.045 630.032 395.049 627.964 397.172Z" stroke="#D1D4D8" stroke-width="3"/>
<path d="M588.576 359.504L575.982 372.433C575.782 372.638 575.678 372.911 575.704 373.196C576.607 382.923 584.06 403.311 607.277 410.529" stroke="#D1D4D8" stroke-width="3" stroke-linecap="round"/>
</svg>
