<svg width="1728" height="1123" viewBox="0 0 1728 1123" fill="none" xmlns="http://www.w3.org/2000/svg">
<path d="M384.616 589.141C381.887 592.871 382.454 602.494 406.5 611.141" stroke="#D1D4D8" stroke-width="3" stroke-linecap="round"/>
<path d="M413.832 583.141C406.701 583.121 399.792 582.652 383.599 577.377C379.785 576.176 377.152 573.194 376.314 571.853C373.287 566.613 379.306 561.985 384.727 562.145C416.502 549.141 443 567.141 449.002 583.141C460.834 604.975 469.2 644.341 408 627.141" stroke="#D1D4D8" stroke-width="3" stroke-linecap="round"/>
<path d="M413.5 582.921C406.367 582.901 399.455 582.431 383.256 577.141C379.561 578.477 379.081 584.838 384.932 588.808C388.627 591.325 395.316 594.412 406.366 598.141" stroke="#D1D4D8" stroke-width="3" stroke-linecap="round"/>
<path d="M195.501 766.141C159.073 727.436 153.062 696.771 154.675 684.475C154.812 683.429 155.817 682.778 156.862 682.918C183.666 686.505 204.79 671.688 212.357 663.457C213.037 662.718 214.131 662.539 215.026 662.994C234.17 672.709 277.713 660.708 297.661 651.934C299.209 651.253 300.974 652.671 300.86 654.358C298.695 686.334 365.324 679.84 397.295 674.264C397.762 674.183 398.162 674.227 398.558 674.488C425.792 692.365 518.317 887.737 492 901.641C473.449 911.441 441.039 907.663 421.838 903.439C419.834 902.998 416.978 906.513 417.457 908.509C418.752 913.915 419.325 920.941 419.477 925.367C419.494 925.866 419.343 926.337 418.982 926.683C406.705 938.442 335.768 941.543 299.713 941.638C298.716 941.641 297.9 940.91 297.751 939.923C288.637 879.45 243.05 816.662 195.501 766.141Z" fill="#D1D4D8"/>
<path d="M662.883 651.48C563.693 651.48 566.455 824.907 591 932.141C600.499 973.641 633.985 1014.38 681.001 985.141C708.006 968.345 720.16 917.933 725.293 867.55C725.527 865.262 728.934 865.027 729.449 867.269C739.362 910.424 756.835 976.427 777.501 998.141C819.716 1042.5 857.691 1006.13 870.001 985.141C894.575 950.525 904.156 802.226 872.88 730.761C833.785 641.43 786.87 651.48 662.883 651.48Z" fill="#D1D4D8"/>
<path d="M617.52 993.141V1018.13C617.52 1018.46 617.445 1018.77 617.294 1019.05C601.498 1049.1 577.334 1107.7 605.402 1105.05C633.604 1102.39 661.218 1041.16 671.5 1010.87" stroke="#D1D4D8" stroke-width="3" stroke-linecap="round"/>
<path d="M795.5 1020.14C802.265 1054.54 821.206 1122.9 842.853 1121.11C864.5 1119.31 855.63 1053.05 848.49 1020.14" stroke="#D1D4D8" stroke-width="3" stroke-linecap="round"/>
<path d="M567.993 704.401C541.595 693.242 515.648 666.926 543.454 602.85C567.993 546.302 597.989 446.616 697.161 399.141M819.945 413.317C897.529 457.195 972.666 681.859 891.464 721.141" stroke="#D1D4D8" stroke-width="3" stroke-linecap="round"/>
<path d="M651.5 494.141L824.5 511.141" stroke="#D1D4D8" stroke-width="3" stroke-linecap="round"/>
<path d="M684.5 451.141L811.5 461.641" stroke="#D1D4D8" stroke-width="3" stroke-linecap="round"/>
<path d="M612.5 542.141L856.5 560.141" stroke="#D1D4D8" stroke-width="3" stroke-linecap="round"/>
<path d="M578.5 595.141H608.5" stroke="#D1D4D8" stroke-width="3" stroke-linecap="round"/>
<path d="M849.5 613.141H892.5" stroke="#D1D4D8" stroke-width="3" stroke-linecap="round"/>
<path d="M565.5 646.141H593.5" stroke="#D1D4D8" stroke-width="3" stroke-linecap="round"/>
<path d="M868.5 661.141H892.5" stroke="#D1D4D8" stroke-width="3" stroke-linecap="round"/>
<path d="M641.5 602.147C672.212 590.464 741.064 578.412 776.06 621.006C777.101 622.274 776.181 624.141 774.541 624.141H747.057" stroke="#D1D4D8" stroke-width="3" stroke-linecap="round"/>
<path d="M709.5 613.141C723.644 615.72 756.847 627.73 776.5 655.141" stroke="#D1D4D8" stroke-width="3" stroke-linecap="round"/>
<path d="M708.5 629.141C721.777 634.052 750.764 647.727 760.5 663.141" stroke="#D1D4D8" stroke-width="3" stroke-linecap="round"/>
<path d="M717.057 648.141C719.306 649.24 764.277 669.027 740.667 675.623C717.057 682.219 681.081 622.857 612.5 662.432" stroke="#D1D4D8" stroke-width="3" stroke-linecap="round"/>
<path d="M677.5 653.141C670.009 662.737 658.847 683.771 674.129 691.141" stroke="#D1D4D8" stroke-width="3" stroke-linecap="round"/>
<path d="M691.5 661.141C684.745 670.353 672.856 696.377 691.499 699.141" stroke="#D1D4D8" stroke-width="3" stroke-linecap="round"/>
<path d="M708.5 675.141C699.303 684.371 685.901 703.294 705.872 705.141" stroke="#D1D4D8" stroke-width="3" stroke-linecap="round"/>
<path d="M718.754 686.848C714.284 691.303 698.641 714.691 722.107 704.667C739.41 697.277 757.718 681.75 761.647 675.875C762.131 675.15 762.909 674.61 763.781 674.607C787.09 674.534 826.043 663.895 805.907 621.141" stroke="#D1D4D8" stroke-width="3" stroke-linecap="round"/>
<path d="M793.593 386.252C797.968 373.976 793.967 365.714 790.087 364.141C766.699 384.916 731.227 377.204 718.087 364.612C713.406 368.767 716.129 381.059 718.087 384.836C743.414 412.033 779.465 396.798 793.593 386.252Z" fill="#D1D4D8"/>
<path d="M830.296 244.472C843.499 231.141 847.12 217.041 851.5 195.141C855.499 175.141 852.501 149.141 840.501 141.641C827.304 150.441 812.332 146.641 806.496 143.641C779.293 128.841 748.828 134.474 736.996 139.141C704.196 149.541 661.996 139.474 644.996 133.141C637.496 145.141 633.5 208.141 649.792 261.264C656.711 252.951 673.008 244.362 682.951 276.504C686.402 282.277 692.774 287.311 690.553 261.264C687.786 228.707 682.951 214.16 682.951 214.16C682.951 214.16 716.674 190.607 716.11 154.587C731.554 165.209 775.39 186.451 827.341 186.451C827.341 198.459 830.296 227.294 830.296 244.472Z" fill="#D1D4D8"/>
<path d="M683.5 301.056C692.491 355.932 752.814 395.393 796.351 350.938C839.888 306.484 831.171 225.112 826.521 187.141" stroke="#D1D4D8" stroke-width="3" stroke-linecap="round"/>
<path d="M649.294 257.141C644.014 270.512 648.969 300.141 683.5 300.141" stroke="#D1D4D8" stroke-width="3" stroke-linecap="round"/>
<path d="M666.693 265.141C666.081 267.616 666.571 273.484 673.5 277.141" stroke="#D1D4D8" stroke-width="3" stroke-linecap="round"/>
<path d="M826.5 293.141C837.887 288.345 845.926 270.583 842.833 242.141" stroke="#D1D4D8" stroke-width="3" stroke-linecap="round"/>
<path d="M760.5 326.467C771.12 329.664 770.449 320.863 778.5 313.141" stroke="#D1D4D8" stroke-width="3" stroke-linecap="round"/>
<path d="M795 264.141C799.142 264.141 802.5 260.559 802.5 256.141C802.5 251.722 799.142 248.141 795 248.141C790.858 248.141 787.5 251.722 787.5 256.141C787.5 260.559 790.858 264.141 795 264.141Z" fill="#D1D4D8"/>
<path d="M729 264.141C733.694 264.141 737.5 261.007 737.5 257.141C737.5 253.275 733.694 250.141 729 250.141C724.306 250.141 720.5 253.275 720.5 257.141C720.5 261.007 724.306 264.141 729 264.141Z" fill="#D1D4D8"/>
<path d="M712.5 240.141C714.146 235.916 721.26 228.101 736.5 230.636" stroke="#D1D4D8" stroke-width="3" stroke-linecap="round"/>
<path d="M782.5 231.141C786.134 228.877 796.026 225.707 806.5 231.141" stroke="#D1D4D8" stroke-width="3" stroke-linecap="round"/>
<path d="M757.299 254.141C756.148 263.696 755.348 283.074 761.5 284.141" stroke="#D1D4D8" stroke-width="3" stroke-linecap="round"/>
<path d="M782.031 14.1823C652.499 -15.3937 640.709 97.4557 643.797 131.866C643.864 132.612 644.337 133.196 645.04 133.456C661.39 139.5 701.517 148.572 740.53 139.488C780.474 130.187 794.999 139.488 811.859 145.301C818.343 147.239 832.998 149.305 839.742 142.071C848.172 133.029 858.493 31.6408 782.031 14.1823Z" stroke="#D1D4D8" stroke-width="3" stroke-linecap="round"/>
<path d="M697 109.14C720.333 106.64 775 104.34 807 115.14" stroke="#D1D4D8" stroke-width="3" stroke-linecap="round"/>
<path d="M1245.11 362.024C1245.11 345.738 1252.82 337.596 1258.5 328.654C1273.98 304.321 1273.28 291.08 1267.15 251.116" stroke="#D1D4D8" stroke-width="3" stroke-linecap="round"/>
<path d="M1224.05 272.088C1230.92 269.787 1241.68 259.825 1229.72 238.391" stroke="#D1D4D8" stroke-width="3" stroke-linecap="round"/>
<path d="M1127.93 244.611C1121 231.391 1113.1 234.133 1110.02 237.157C1087.36 257.979 1116.51 276.83 1133.92 283.652C1136.09 291.939 1142.66 310.141 1151.66 316.655" stroke="#D1D4D8" stroke-width="3" stroke-linecap="round"/>
<path d="M1116.92 250.129C1117.82 254.241 1121.81 262.301 1130.55 261.641" stroke="#D1D4D8" stroke-width="3" stroke-linecap="round"/>
<path d="M1162.58 217.059C1165.56 215.298 1173.44 212.263 1181.15 214.21" stroke="#D1D4D8" stroke-width="3" stroke-linecap="round"/>
<path d="M1238.34 209.751C1241.9 207.901 1251.27 204.638 1260.29 206.383" stroke="#D1D4D8" stroke-width="3" stroke-linecap="round"/>
<path d="M1272.54 194.748C1278.5 63.1238 1198 97.6238 1128.5 132.124C1095.5 148.505 1086 152.624 1061.5 165.124C1053.59 190.075 1082.83 230.045 1102.16 248.79C1105.7 236.09 1116.19 234.046 1121 234.611C1115.1 167.09 1158.07 169.731 1180.29 179.491C1222.25 171.314 1235.39 186.521 1236.72 195.146C1253.24 180.776 1270.83 191.971 1272.54 194.748Z" fill="#D1D4D8"/>
<circle cx="1177.7" cy="231.151" r="30.9477" transform="rotate(-8.72379 1177.7 231.151)" stroke="#D1D4D8" stroke-width="3"/>
<ellipse cx="1188.69" cy="236.109" rx="7.25804" ry="8.96581" transform="rotate(-28.616 1188.69 236.109)" fill="#D1D4D8"/>
<path d="M1285.1 214.671C1287.68 231.547 1275.92 247.389 1258.78 250.02C1241.63 252.65 1225.66 241.065 1223.07 224.189C1220.48 207.313 1232.24 191.471 1249.39 188.84C1266.54 186.209 1282.51 197.795 1285.1 214.671Z" stroke="#D1D4D8" stroke-width="3"/>
<ellipse cx="1264.53" cy="225.134" rx="7.59913" ry="8.96581" transform="rotate(-23.092 1264.53 225.134)" fill="#D1D4D8"/>
<path d="M1223 223.987L1208.08 226.49" stroke="#D1D4D8" stroke-width="3" stroke-linecap="round"/>
<path d="M1146.67 231.594L1125.5 240.025" stroke="#D1D4D8" stroke-width="3" stroke-linecap="round"/>
<path d="M1240.98 294.501C1236.92 300.883 1224.06 310.919 1205.11 300.005" stroke="#D1D4D8" stroke-width="3" stroke-linecap="round"/>
<path d="M1167.56 720.877C1157.5 715.044 1151.08 696.972 1149.05 688.338C1149.02 688.191 1149 688.047 1149 687.896C1149.39 654.946 1234.1 616.57 1276.5 593.622C1309.7 575.654 1311.59 542.874 1308.25 527.687C1308.1 527.016 1308.28 526.333 1308.75 525.84C1320.42 513.8 1352.2 484.291 1392.5 456.122C1433.7 427.322 1470.67 458.455 1484 477.622C1512.33 512.789 1572 587.522 1584 605.122C1599 627.122 1595.5 664.622 1556 677.122C1524.87 686.974 1464.49 634.705 1432.42 587.733C1431.69 586.658 1430.13 586.584 1429.25 587.543C1392.53 627.529 1381.97 626.278 1360.74 641.264C1359.4 642.214 1359.49 644.207 1360.78 645.228C1367.52 650.549 1384.5 667.571 1410.5 699.622C1444.9 742.022 1454 845.122 1447 910.622C1443.13 946.814 1434.5 997.122 1396.5 983.622C1343.92 964.944 1326.74 814.559 1321.61 746.533C1321.54 745.667 1320.93 744.988 1320.09 744.753C1306.8 741.013 1283.66 727.953 1272.97 721.412C1272.66 721.219 1272.3 721.122 1271.93 721.122H1168.5C1168.17 721.122 1167.85 721.043 1167.56 720.877Z" fill="#D1D4D8"/>
<path d="M1382.5 997.121C1383 1006.79 1388.7 1028.62 1407.5 1038.62C1426.3 1048.62 1467.67 1058.45 1486 1062.12C1496.5 1066.12 1510.66 1048.21 1473 1025.62C1453 1013.62 1442.5 1006.12 1448 985.621" stroke="#D1D4D8" stroke-width="3" stroke-linecap="round"/>
<path d="M1565.76 681.752C1567.74 692.728 1573.62 715.749 1581.33 720.022L1659 720.022C1666.5 715.192 1673.5 693.642 1650 693.642C1635.83 694.475 1606.5 690.042 1602.5 665.642" stroke="#D1D4D8" stroke-width="3" stroke-linecap="round"/>
<path d="M1149 688.621C1129 664.121 1113.6 655.421 1124 572.621" stroke="#D1D4D8" stroke-width="3" stroke-linecap="round"/>
<path d="M1073 701.994C1064.33 707.328 1049.6 719.894 1062 721.494H1096.5C1104.5 715.161 1118.4 698.594 1110 682.994C1099.5 663.494 1028 671.494 968.5 719.994" stroke="#D1D4D8" stroke-width="3" stroke-linecap="round"/>
<path d="M1061 708.496C1055.33 709.329 1042.5 712.896 1036.5 720.496" stroke="#D1D4D8" stroke-width="3" stroke-linecap="round"/>
<path d="M1107.5 659.139C1081.22 652.326 1038.83 676.303 1015.38 670.209C1014.32 669.934 1013.76 668.849 1014.1 667.81C1044.58 574.053 1062.98 378.132 1164.38 366.293C1165.31 366.185 1166.19 366.716 1166.49 367.605C1184.3 422.101 1218.48 538.71 1216.5 581.121" stroke="#D1D4D8" stroke-width="3" stroke-linecap="round"/>
<path d="M1216 400.121C1233.5 450.288 1267.3 560.121 1262.5 598.121" stroke="#D1D4D8" stroke-width="3" stroke-linecap="round"/>
<path d="M1297.5 577.121L1244.6 396.378C1244.14 394.812 1245.62 393.395 1247.13 394.016C1273.55 404.875 1321.87 439.606 1329.5 504.121" stroke="#D1D4D8" stroke-width="3" stroke-linecap="round"/>
<path d="M1127 414.621L1141.32 431.183C1142.18 432.167 1143.72 432.09 1144.47 431.025L1156 414.621" stroke="#D1D4D8" stroke-width="3" stroke-linecap="round"/>
<path d="M1075.5 497.621L1089.82 514.183C1090.68 515.167 1092.22 515.09 1092.97 514.025L1104.5 497.621" stroke="#D1D4D8" stroke-width="3" stroke-linecap="round"/>
<path d="M1055.5 611.621L1069.82 628.183C1070.68 629.167 1072.22 629.09 1072.97 628.025L1084.5 611.621" stroke="#D1D4D8" stroke-width="3" stroke-linecap="round"/>
<path d="M1149.5 572.621L1163.82 589.183C1164.68 590.167 1166.22 590.09 1166.97 589.025L1178.5 572.621" stroke="#D1D4D8" stroke-width="3" stroke-linecap="round"/>
<path d="M1178.5 486.621L1192.96 497.917C1193.82 498.586 1195.05 498.449 1195.74 497.608L1199 493.621" stroke="#D1D4D8" stroke-width="3" stroke-linecap="round"/>
<path d="M1273 460.621L1288.1 471.279C1289.1 471.985 1290.49 471.635 1291.04 470.539L1296 460.621" stroke="#D1D4D8" stroke-width="3" stroke-linecap="round"/>
<path d="M1260.73 122.491C1289.93 111.691 1301.56 98.6574 1303.73 93.4907C1324.93 38.2907 1144.89 120.824 1052.23 168.991C1045.48 172.202 1038 181.424 1062 192.624" stroke="#D1D4D8" stroke-width="3" stroke-linecap="round"/>
<path d="M1125 2.62254C1145.83 -0.210796 1218.43 7.48902 1251.23 79.489" stroke="#D1D4D8" stroke-width="3" stroke-linecap="round"/>
<path d="M1226.23 87.9883C1214.06 60.3216 1173.53 7.48825 1108.73 17.4883C1043.93 27.4883 1045.06 108.322 1053.73 147.488" stroke="#D1D4D8" stroke-width="3" stroke-linecap="round"/>
<path d="M740.999 20.1406C738.332 33.8073 733.799 65.7406 736.999 84.1406" stroke="#D1D4D8" stroke-width="3" stroke-linecap="round"/>
<path d="M762.5 21.6406C766.167 34.474 772.4 64.9406 768 84.1406" stroke="#D1D4D8" stroke-width="3" stroke-linecap="round"/>
<path d="M270.5 453.141C280.5 455.807 304 459.541 318 453.141" stroke="#D1D4D8" stroke-width="3" stroke-linecap="round"/>
<path d="M127.473 558.521C-6.50874 503.388 125.067 361.356 208.451 296.567C208.814 296.285 209.25 296.147 209.71 296.157L270.997 297.605C271.887 297.626 272.661 298.215 272.823 299.09C276.877 321.04 252.21 376.424 238.677 399.497C238.263 400.203 238.323 401.071 238.839 401.707C250.092 415.58 268.254 421.542 277.007 422.99C277.633 423.093 278.189 423.465 278.443 424.047C282.139 432.515 276.529 446.446 272.64 453.512C272.258 454.206 271.491 454.588 270.709 454.466C258.051 452.491 245.223 442.923 239.215 437.312C238.501 436.646 237.437 436.539 236.649 437.115C201.217 463.039 151.469 527.369 129.893 557.874C129.357 558.632 128.33 558.874 127.473 558.521Z" fill="#D1D4D8"/>
<path d="M314.5 456.141V422.641C330.5 422.641 359.833 394.641 372.5 380.641C390 407.141 402 453.141 366 474.141C330 495.141 320.5 470.141 321 462.641C321.4 456.641 316.833 455.807 314.5 456.141Z" fill="#D1D4D8"/>
<path d="M391.5 326.141C361.1 333.341 343.333 311.641 338 300.641H397.5C402.3 312.641 397.5 324.141 391.5 326.141Z" fill="#D1D4D8"/>
<ellipse cx="304.977" cy="346.321" rx="5.96153" ry="7.13629" transform="rotate(30.7362 304.977 346.321)" fill="#D1D4D8"/>
<ellipse cx="346.272" cy="349.321" rx="5.96153" ry="7.13629" transform="rotate(30.7362 346.272 349.321)" fill="#D1D4D8"/>
<path d="M329.967 343.452C330.139 342.641 329.622 341.845 328.811 341.673C328.001 341.501 327.205 342.019 327.033 342.829L329.967 343.452ZM315.134 374.281C314.384 373.931 313.491 374.256 313.141 375.006C312.79 375.757 313.115 376.65 313.866 377L315.134 374.281ZM327.033 342.829C326.112 347.169 326.221 352.096 326.503 356.747C326.79 361.491 327.248 365.872 327.126 369.465C327.066 371.244 326.863 372.708 326.476 373.835C326.095 374.945 325.569 375.631 324.912 376.029C324.247 376.43 323.233 376.668 321.619 376.449C319.996 376.229 317.876 375.561 315.134 374.281L313.866 377C316.749 378.345 319.176 379.146 321.217 379.422C323.267 379.7 325.034 379.46 326.463 378.596C327.899 377.728 328.78 376.36 329.313 374.81C329.84 373.277 330.059 371.474 330.124 369.566C330.252 365.785 329.772 361.103 329.497 356.566C329.217 351.935 329.138 347.362 329.967 343.452L327.033 342.829Z" fill="#D1D4D8"/>
<path d="M293 391.141C295.667 394.974 303.3 402.341 312.5 401.141" stroke="#D1D4D8" stroke-width="3" stroke-linecap="round"/>
<path d="M207.5 296.141C213.5 296.141 341.667 298.807 405 300.141C426.167 301.141 464.5 297.841 448.5 276.641C442 271.141 422.5 261.141 396.5 265.141C398.5 231.307 382 160.241 300 146.641" stroke="#D1D4D8" stroke-width="3" stroke-linecap="round"/>
<path d="M378 268.641C383.833 244.474 376.4 186.241 300 146.641" stroke="#D1D4D8" stroke-width="3" stroke-linecap="round"/>
<path d="M341.002 272.642C344.835 240.808 322.5 173.642 264.502 173.642C233 171.245 190.702 196.642 195.502 272.642" stroke="#D1D4D8" stroke-width="3" stroke-linecap="round"/>
<path d="M135.498 557.141C132.498 559.641 59.4887 655.307 143 679.641C218.502 701.641 243.166 616.641 249.499 580.141" stroke="#D1D4D8" stroke-width="3" stroke-linecap="round"/>
<path d="M135.5 648.641L169 623.641" stroke="#D1D4D8" stroke-width="3" stroke-linecap="round"/>
<path d="M204.5 579.641L215.5 611.141" stroke="#D1D4D8" stroke-width="3" stroke-linecap="round"/>
<path d="M166 532.641L208.5 529.641" stroke="#D1D4D8" stroke-width="3" stroke-linecap="round"/>
<path d="M251 500.641V536.641" stroke="#D1D4D8" stroke-width="3" stroke-linecap="round"/>
<path d="M249 461.141L258 450.141" stroke="#D1D4D8" stroke-width="3" stroke-linecap="round"/>
<path d="M301.5 480.641C304.3 483.441 310.667 495.141 313.5 500.641" stroke="#D1D4D8" stroke-width="3" stroke-linecap="round"/>
<path d="M282.001 517.641C278.001 521.474 271.201 531.541 276.001 541.141C282.001 553.141 289.5 560.641 287 583.141" stroke="#D1D4D8" stroke-width="3" stroke-linecap="round"/>
<path d="M301.001 578.141L303.419 554.43C303.471 553.923 303.331 553.423 303.026 553.015C295.308 542.707 282.975 520.37 301.001 512.141C317.271 504.713 329.528 501.951 335.143 501.295C336.189 501.173 337.084 501.949 337.221 502.993C339.082 517.199 345.937 537.907 367.001 532.641C386.392 527.793 387.215 514.131 385.243 507.555C384.92 506.475 385.344 505.244 386.38 504.799C396.161 500.595 413.134 496.285 422.501 520.641C424.984 527.095 423.818 538.677 413.226 543.539C413.079 543.607 412.934 543.691 412.809 543.794C408.518 547.311 409.107 553.093 409.501 556.641" stroke="#D1D4D8" stroke-width="3" stroke-linecap="round"/>
<path d="M419 632.641C421.834 645.307 421.1 671.141 395.5 673.141C363.5 675.641 301.5 686.641 302.5 652.641" stroke="#D1D4D8" stroke-width="3" stroke-linecap="round"/>
<circle cx="380" cy="646.641" r="5.5" fill="#D1D4D8"/>
<circle cx="344" cy="615.641" r="5.5" fill="#D1D4D8"/>
<circle cx="352" cy="571.641" r="5.5" fill="#D1D4D8"/>
<path d="M350 478.641C354.667 480.807 375.5 493.141 385.5 516.641" stroke="#D1D4D8" stroke-width="3" stroke-linecap="round"/>
<path d="M237 402.141C274.833 430.474 359.2 451.741 394 322.141" stroke="#D1D4D8" stroke-width="3" stroke-linecap="round"/>
<path d="M380.501 941.641C378.167 947.474 379.501 959.141 403.501 959.141C433.501 959.141 474.5 970.141 457 991.641C442.5 1004.64 351.3 1002.84 338.5 961.641" stroke="#D1D4D8" stroke-width="3" stroke-linecap="round"/>
<path d="M465 972.641C492 974.974 538.4 972.141 508 942.141C491.5 930.641 445.2 930.041 444 913.641" stroke="#D1D4D8" stroke-width="3" stroke-linecap="round"/>
<path d="M256 598.139C258 596.139 291.5 574.639 309.5 580.639C327.5 586.639 298 589.139 276 604.139" stroke="#D1D4D8" stroke-width="3" stroke-linecap="round"/>
<path d="M275.5 622.641C279.5 621.141 306 605.641 316.5 603.141" stroke="#D1D4D8" stroke-width="3" stroke-linecap="round"/>
<path d="M283 642.642C291.167 636.142 309.4 623.242 317 623.642" stroke="#D1D4D8" stroke-width="3" stroke-linecap="round"/>
<path d="M312 638.141C299.333 651.474 262.2 675.241 215 663.641" stroke="#D1D4D8" stroke-width="3" stroke-linecap="round"/>
<path d="M4 753.141V722.641H164.5" stroke="#D1D4D8" stroke-width="3" stroke-linecap="round"/>
<path d="M440 722.641H577" stroke="#D1D4D8" stroke-width="3" stroke-linecap="round"/>
<path d="M880.5 723.141H1272.5" stroke="#D1D4D8" stroke-width="3" stroke-linecap="round"/>
<path d="M21 829.141V756.141H181.5" stroke="#D1D4D8" stroke-width="3" stroke-linecap="round"/>
<path d="M459.5 756.141H567" stroke="#D1D4D8" stroke-width="3" stroke-linecap="round"/>
<path d="M892.5 756.141H1313.5" stroke="#D1D4D8" stroke-width="3" stroke-linecap="round"/>
<path d="M2 844.141V874.141L268.5 871.141" stroke="#D1D4D8" stroke-width="3" stroke-linecap="round"/>
<path d="M503 871.141H569" stroke="#D1D4D8" stroke-width="3" stroke-linecap="round"/>
<path d="M903 871.141L1327.5 873.641" stroke="#D1D4D8" stroke-width="3" stroke-linecap="round"/>
<path d="M23 843.641H252" stroke="#D1D4D8" stroke-width="3" stroke-linecap="round"/>
<path d="M1724 753.641V723.141H1434.5" stroke="#D1D4D8" stroke-width="3" stroke-linecap="round"/>
<path d="M1707 829.641V756.641H1446.5" stroke="#D1D4D8" stroke-width="3" stroke-linecap="round"/>
<path d="M1726 844.641V874.641L1459.5 871.641" stroke="#D1D4D8" stroke-width="3" stroke-linecap="round"/>
<path d="M1705 844.141H1459" stroke="#D1D4D8" stroke-width="3" stroke-linecap="round"/>
<path d="M498.5 843.641H569.5" stroke="#D1D4D8" stroke-width="3" stroke-linecap="round"/>
<path d="M903.499 844.155L1322 844.155" stroke="#D1D4D8" stroke-width="3" stroke-linecap="round"/>
</svg>
