<svg width="1135" height="1229" viewBox="0 0 1135 1229" fill="none" xmlns="http://www.w3.org/2000/svg">
<path d="M742.5 783.652V941.217C742.5 941.744 742.908 942.18 743.433 942.215L875.928 951.148C875.976 951.151 876.024 951.151 876.072 951.147L928.5 947.152" stroke="#D1D4D8" stroke-width="3" stroke-linecap="round"/>
<path d="M742.5 783.152L874.877 766.791C875.474 766.717 876 767.183 876 767.784V949.152" stroke="#D1D4D8" stroke-width="3" stroke-linecap="round"/>
<path d="M902.4 768.152L1072.56 779.092C1073.09 779.126 1073.5 779.563 1073.5 780.09V846.152" stroke="#D1D4D8" stroke-width="3" stroke-linecap="round"/>
<path d="M743 942.152H693C692.448 942.152 692 942.6 692 943.152V1002.29C692 1002.79 692.362 1003.21 692.851 1003.28L840.351 1025.48C840.956 1025.57 841.5 1025.1 841.5 1024.49V967.152" stroke="#D1D4D8" stroke-width="3" stroke-linecap="round"/>
<path d="M841 1025.65L959.5 1014.65" stroke="#D1D4D8" stroke-width="3" stroke-linecap="round"/>
<path d="M911 1022.65V897.652L965 1022.65H911Z" fill="#D1D4D8" fill-opacity="0.3"/>
<path d="M1060.93 962.457L982.936 800.141C982.284 798.784 983.309 797.22 984.814 797.277L1020.3 798.607C1021.04 798.635 1021.7 799.066 1022.03 799.729L1100.37 960.37C1100.75 961.137 1100.59 962.057 1099.99 962.661L1084.05 978.6C1083.7 978.955 1083.22 979.164 1082.72 979.184L1051.18 980.463C1049.42 980.534 1048.43 978.461 1049.6 977.141L1060.62 964.647C1061.15 964.044 1061.27 963.182 1060.93 962.457Z" fill="#D1D4D8"/>
<path d="M1016.41 1009.77L1008.94 1017.56C1007.7 1018.86 1008.67 1021.02 1010.47 1020.94L1040.27 1019.68C1040.74 1019.66 1041.19 1019.48 1041.54 1019.16L1048.69 1012.63C1050.04 1011.4 1049.17 1009.15 1047.34 1009.15H1017.85C1017.31 1009.15 1016.79 1009.37 1016.41 1009.77Z" fill="#D1D4D8"/>
<path d="M791.5 794.405V778.903C791.5 777.901 792.242 777.053 793.236 776.921L819.236 773.454C820.435 773.294 821.5 774.227 821.5 775.437V791.372C821.5 792.387 820.74 793.241 819.732 793.359L793.732 796.392C792.543 796.531 791.5 795.602 791.5 794.405Z" fill="#D1D4D8"/>
<path d="M746.5 995.908V1008.94C746.5 1009.92 747.219 1010.76 748.193 1010.92L773.193 1014.79C774.406 1014.98 775.5 1014.04 775.5 1012.82V998.925C775.5 997.914 774.744 997.061 773.74 996.94L748.74 993.923C747.549 993.779 746.5 994.709 746.5 995.908Z" fill="#D1D4D8"/>
<path d="M793.5 927.652V943.307C793.5 944.349 794.3 945.217 795.339 945.301L822.339 947.478C823.503 947.572 824.5 946.653 824.5 945.485V927.652C824.5 926.548 823.605 925.652 822.5 925.652H795.5C794.395 925.652 793.5 926.548 793.5 927.652Z" fill="#D1D4D8"/>
<path d="M746.5 966.379V944.795C746.5 943.636 747.482 942.72 748.638 942.8L773.638 944.524C774.686 944.596 775.5 945.468 775.5 946.519V969.396C775.5 970.596 774.451 971.526 773.26 971.382L748.26 968.365C747.256 968.244 746.5 967.391 746.5 966.379Z" fill="#D1D4D8"/>
<path d="M964.929 1021.84L892.753 856.234C892.599 855.879 892.663 855.467 892.918 855.175L944.499 796.295C944.972 795.755 945.844 795.875 946.154 796.524L1026.19 964.497C1026.37 964.888 1026.29 965.354 1025.97 965.652L966.535 1022.17C966.032 1022.65 965.207 1022.48 964.929 1021.84Z" stroke="#D1D4D8" stroke-width="3" stroke-linecap="round"/>
<path d="M966.5 1022.65L1073.63 1017.67C1073.87 1017.66 1074.1 1017.56 1074.27 1017.4L1133.06 961.983C1133.73 961.349 1133.26 960.22 1132.33 960.256L1044.9 963.652" stroke="#D1D4D8" stroke-width="3" stroke-linecap="round"/>
<path d="M945.5 795.652L1048.92 799.63C1049.28 799.644 1049.6 799.849 1049.77 800.168L1133 960.152" stroke="#D1D4D8" stroke-width="3" stroke-linecap="round"/>
<path d="M215.133 1214.46C239.387 1203.06 298.425 1181 340.547 1183.91C346.519 1184.15 355.538 1186.68 343.838 1194.82C332.137 1202.97 326.287 1207.19 324.825 1208.28C318.731 1213.37 312.758 1224.13 337.622 1226.46C368.701 1229.37 456.455 1197.73 630.133 1221" stroke="#D1D4D8" stroke-width="3" stroke-linecap="round"/>
<path d="M20.7695 996.65V975.652" stroke="#D1D4D8" stroke-width="3" stroke-linecap="round"/>
<path d="M2 987.316L13.45 996.648" stroke="#D1D4D8" stroke-width="3" stroke-linecap="round"/>
<path d="M28.4102 996.649L37.0001 982.984" stroke="#D1D4D8" stroke-width="3" stroke-linecap="round"/>
<path d="M458.887 1122.65V1091.65" stroke="#D1D4D8" stroke-width="3" stroke-linecap="round"/>
<path d="M431 1108.88L448.011 1122.65" stroke="#D1D4D8" stroke-width="3" stroke-linecap="round"/>
<path d="M470.238 1122.65L483.001 1102.48" stroke="#D1D4D8" stroke-width="3" stroke-linecap="round"/>
<path d="M648.5 357.152L649.494 514.182C649.497 514.723 649.071 515.168 648.531 515.188L527.5 519.652L452 515.152" stroke="#D1D4D8" stroke-width="3" stroke-linecap="round"/>
<path d="M648.5 356.652H526.5C525.948 356.652 525.5 357.1 525.5 357.652V423.652" stroke="#D1D4D8" stroke-width="3" stroke-linecap="round"/>
<path d="M506.5 356.652H404C403.448 356.652 403 357.1 403 357.652V447.652" stroke="#D1D4D8" stroke-width="3" stroke-linecap="round"/>
<path d="M605.5 378.528V366.019C605.5 364.981 604.707 364.116 603.674 364.026L578.674 361.842C577.505 361.74 576.5 362.661 576.5 363.835V377.018C576.5 378.075 577.324 378.95 578.379 379.014L603.379 380.524C604.529 380.594 605.5 379.68 605.5 378.528Z" fill="#D1D4D8"/>
<path d="M602 500.652V515.424C602 516.465 601.201 517.332 600.164 517.417L575.164 519.474C573.999 519.57 573 518.65 573 517.481V500.652C573 499.548 573.895 498.652 575 498.652H600C601.105 498.652 602 499.548 602 500.652Z" fill="#D1D4D8"/>
<path d="M527 519.652V488.152" stroke="#D1D4D8" stroke-width="3" stroke-linecap="round"/>
<path d="M380 631.652C380 620.652 380 570.552 380 554.152" stroke="#D1D4D8" stroke-width="3" stroke-linecap="round"/>
<path d="M381.999 446.115C381.999 401.486 370.292 379.73 354.125 357.973" stroke="#D1D4D8" stroke-width="3" stroke-linecap="round"/>
<path d="M193.999 622.152C184.499 506.152 191.33 427.652 231.947 364.67C244.211 345.652 271.606 328.472 290.017 335.103" stroke="#D1D4D8" stroke-width="3" stroke-linecap="round"/>
<path d="M359.673 329.027C368.652 321.948 436.239 320.858 439.729 227.685C463.981 225.149 468.365 210.392 455.372 197.44C437.327 179.451 439.639 169.11 441.928 157.705C445.925 142.634 444.506 127.464 442.915 124.441" stroke="#D1D4D8" stroke-width="3" stroke-linecap="round"/>
<path d="M464.537 209.713C435.327 214.813 402.547 225.591 337.642 175.805C335.597 183.306 329.812 202.627 323.038 219.907C314.57 241.506 371.945 324.814 411.322 306.747C443.501 291.982 464.839 269.879 464.537 209.713Z" fill="#D1D4D8"/>
<path d="M414.498 199.603C417.145 200.323 420.206 197.546 421.335 193.398C422.465 189.25 421.234 185.303 418.588 184.583C415.941 183.862 412.88 186.64 411.751 190.789C410.622 194.936 411.851 198.883 414.498 199.603Z" fill="#D1D4D8"/>
<path d="M396.243 184.95C395.682 179.021 397.889 166.929 411.203 165.982" stroke="#D1D4D8" stroke-width="3" stroke-linecap="round"/>
<path d="M315.571 181.118C314.291 185.097 313.848 193.841 322.321 196.993" stroke="#D1D4D8" stroke-width="3" stroke-linecap="round"/>
<path d="M225.813 152.243C222.393 204.894 256.393 240.268 281.24 267.613C302.632 252.621 336.631 218.938 321.914 217.444C306.445 215.873 285.747 176.585 298.928 162.296C314.394 145.531 332.484 166.067 337.408 182.662L348.461 157.116C342.599 140.831 337.645 111.643 364.732 125.176C391.818 138.708 428.238 130.097 443.061 124.1C470.741 98.9706 511.784 43.0947 454.525 20.6219C406.901 1.9311 352.071 38.9555 319.617 70.2665C294.759 66.7078 230.475 80.4567 225.813 152.243Z" fill="#D1D4D8"/>
<path d="M282.514 263.965C294.941 275.819 301.626 286.085 303.579 308.737" stroke="#D1D4D8" stroke-width="3" stroke-linecap="round"/>
<path d="M324.798 391.652C335.064 470.267 360.692 477.336 372.223 471.044C395.285 460.496 446.095 443.174 464.842 458.275C483.589 473.376 461.122 493.807 447.545 502.135C402.538 534.151 304.823 586.635 274.025 540.443C243.226 494.251 241.106 436.067 243.896 412.749" stroke="#D1D4D8" stroke-width="3" stroke-linecap="round"/>
<path d="M291.024 335.935C288.111 325.775 286.404 306.396 302.878 310.162C323.47 314.87 364.826 345.355 361.751 356.643" stroke="#D1D4D8" stroke-width="3" stroke-linecap="round"/>
<path d="M527.147 468.992C529.003 474.696 526.026 487.897 498.752 491.096C488.433 492.307 486.883 492.137 477.197 491.32" stroke="#D1D4D8" stroke-width="3" stroke-linecap="round"/>
<path d="M530.932 452.41C535.478 453.69 539.566 458.645 527.146 468.992C524.43 471.254 520.924 473.774 516.461 476.571" stroke="#D1D4D8" stroke-width="3" stroke-linecap="round"/>
<path d="M528.908 440.395C533.672 440.34 538.284 443.025 530.932 452.409C527.749 456.472 522.323 461.79 513.695 468.686" stroke="#D1D4D8" stroke-width="3" stroke-linecap="round"/>
<path d="M470.645 447.738C492.312 425.476 501.566 424.353 497.215 442.591C492.865 460.829 509.007 445.157 517.394 436.14C520.764 432.392 528.267 426.364 531.317 432.236C532.367 434.257 531.21 437.182 528.909 440.395C524.522 446.518 515.975 453.688 510.615 457.637" stroke="#D1D4D8" stroke-width="3" stroke-linecap="round"/>
<path d="M352.84 910.536C387.001 782.626 387.999 734.034 382.478 627.433C320.831 669.248 222.63 635.721 191.609 620.652C173.77 727.364 185.287 930.69 211.17 1055.19C221.129 1071.47 242.587 1063.1 252.071 1056.89L263.926 970.434L277.56 1046.15C285.147 1058.81 307.593 1056.32 317.867 1053.5L352.84 910.536Z" fill="#D1D4D8"/>
<path d="M190.5 1085.87C187.699 1077.47 207.166 1082.37 215.999 1085.87C215.999 1093.47 234.666 1099.37 243.999 1101.37C207.999 1098.87 192 1090.37 190.5 1085.87Z" fill="#D1D4D8"/>
<path d="M270.787 1078.16C264.787 1072.56 275.287 1071.83 281.787 1072.66C283.787 1088.66 285.287 1084.16 294.787 1089.66C293.287 1092.16 276.787 1083.76 270.787 1078.16Z" fill="#D1D4D8"/>
<path d="M317.852 1063.18C321.002 1067.41 330.847 1075.86 340.299 1075.86C348.388 1075.86 351.523 1085.52 342.662 1090.34C327.894 1096.38 293.869 1093.6 283 1080.08V1061.37" stroke="#D1D4D8" stroke-width="3" stroke-linecap="round"/>
<path d="M248.613 1068.37C251.396 1070.8 258.514 1075.89 264.717 1076.86C272.471 1078.07 283.271 1087.18 277.243 1098.08C271.875 1107.77 259.945 1105.75 252.788 1103.53L224.754 1093.23C221.772 1092.01 217 1090.19 217 1082.92C217 1075.65 217 1072.62 217 1072.01" stroke="#D1D4D8" stroke-width="3" stroke-linecap="round"/>
</svg>
