<svg width="1208" height="1572" viewBox="0 0 1208 1572" fill="none" xmlns="http://www.w3.org/2000/svg">
<path d="M141.9 407.758H543.9V1290.76H161.9C150.855 1290.76 141.9 1281.8 141.9 1270.76V407.758Z" fill="#D1D4D8"/>
<path d="M140 419.758V1249.75C140 1272.1 147.612 1290.26 157.128 1290.26H731.872C741.388 1290.26 749 1272.1 749 1249.75V940.258M749 419.258V832.258" stroke="#D1D4D8" stroke-width="3" stroke-miterlimit="10" stroke-linecap="round"/>
<path d="M688.652 0.822019L832.9 298.723C832.966 298.859 833 299.008 833 299.159V393.466C833 393.692 832.952 393.877 832.809 394.051C785.672 451.461 161.059 445.581 133.123 417.964C132.948 417.79 132.925 417.62 132.925 417.373V298.93L97.1346 1.37723C97.063 0.781891 97.5279 0.257812 98.1275 0.257812H687.752C688.136 0.257812 688.485 0.476985 688.652 0.822019Z" fill="#D1D4D8"/>
<path d="M151.647 1105.4C122.588 1113.42 91.1079 1159.98 79 1182.26C97.1618 1180.03 138.329 1168.22 157.701 1138.81C177.074 1109.41 161.737 1104.28 151.647 1105.4Z" fill="#D1D4D8"/>
<path d="M137.883 1029.46C109.041 1032.37 88.2973 1103.47 79 1136.26C99.6608 1119.4 140.362 1085.67 150.28 1074.43C168.874 1053.35 165.775 1026.65 137.883 1029.46Z" fill="#D1D4D8"/>
<path d="M44.9912 998.61C25.6048 1029.06 67.612 1074.81 86.9995 1105.26C86.9995 1086.09 87.0003 1045.98 86.9999 1029.06C86.9993 1001.99 58.9897 976.624 44.9912 998.61Z" fill="#D1D4D8"/>
<path d="M82 1150.26C60.1693 1119.78 13.5311 1066.96 1.6235 1099.47C-13.261 1140.1 79.0231 1150.26 82 1150.26Z" fill="#D1D4D8"/>
<path d="M82 1195.26L79 1082.26" stroke="#D1D4D8" stroke-width="3" stroke-linecap="round"/>
<path d="M52.2348 1281.15C59.5524 1263.26 70.4441 1217.33 72.7203 1195.26H103.449C104.815 1222.46 118.812 1261.47 125.642 1281.15C146.126 1327.68 128.487 1357.5 115.399 1365.26H65.8918C33.4564 1354.52 41.9914 1306.21 52.2348 1281.15Z" stroke="#D1D4D8" stroke-width="3"/>
<path d="M306 1470.26V1452.26" stroke="#D1D4D8" stroke-width="3" stroke-linecap="round"/>
<path d="M326 1462.26L316 1470.26" stroke="#D1D4D8" stroke-width="3" stroke-linecap="round"/>
<path d="M294 1471.26L286 1459.26" stroke="#D1D4D8" stroke-width="3" stroke-linecap="round"/>
<path d="M1184 1521.32C1175.85 1540.12 1139.99 1575.89 1128.98 1558.72C1123.94 1550.86 1128.98 1545.24 1138.96 1533.58C1149.37 1521.45 1149.56 1514.17 1144.47 1510.29C1141.61 1507.84 1134.68 1501.71 1132.24 1499.26" stroke="#D1D4D8" stroke-width="3" stroke-linecap="round"/>
<path d="M1042.81 1507.44C1049.15 1531.06 1028.97 1545.81 1009 1547C984.047 1548.48 969.038 1543.41 973.917 1534.96C977.828 1528.2 989.671 1528.65 995.756 1529.12C1007.04 1529.99 1012.49 1518.8 1005.07 1503.26" stroke="#D1D4D8" stroke-width="3" stroke-linecap="round"/>
<path d="M1075.99 1541.99C1076.52 1530.22 1047.63 1534.62 1032.77 1537.54C1029.2 1544.66 1017.3 1546.24 1016 1548.01C1033.2 1550.16 1075.46 1553.75 1075.99 1541.99Z" fill="#D1D4D8"/>
<path d="M1206.55 1567.28C1216.03 1558.63 1176.79 1555.65 1155.98 1555.26C1152.98 1559.59 1141.41 1562.67 1136 1563.67C1155.56 1568.48 1197.06 1575.93 1206.55 1567.28Z" fill="#D1D4D8"/>
<path d="M879 1083.26C830.167 1057.46 784.565 1014.36 772.996 980.667C767.618 962.765 754.49 939.072 775.566 915.905C796.642 892.738 816.049 909.411 823.112 920.644L853.5 954.258" stroke="#D1D4D8" stroke-width="3" stroke-linecap="round"/>
<path d="M910.545 1189.12C899.685 1284.86 923.473 1481.11 983.968 1492.55C1044.47 1503.98 1067.85 1473.28 1071.99 1456.51C1076.74 1478.05 1096.16 1513.67 1135.83 1483.85C1175.5 1454.02 1172.61 1405.97 1166.21 1385.67L1091.56 1178.26C1021.1 1227.36 944.079 1205.47 910.545 1189.12Z" fill="#D1D4D8"/>
<path d="M1089.88 1103.48C1084.92 1114.07 1077.97 1141.93 1089.88 1168.63" stroke="#D1D4D8" stroke-width="3" stroke-linecap="round"/>
<path d="M949.118 991.678C975.5 999.399 997.915 985.243 1005.82 977.2C1045 954.757 1066.5 978.257 1079.5 988.257C1102.33 1008.26 1150.5 1054.76 1164.5 1078.76C1170.5 1086.42 1194 1122.26 1127.5 1170.76" stroke="#D1D4D8" stroke-width="3" stroke-linecap="round"/>
<path d="M898.946 1038.26C844.716 982.241 861.732 909.216 877.886 892.258C885.27 946.674 929.038 968.281 950 972.282V991.717C943.539 987.144 908.176 1022.25 898.946 1038.26Z" fill="#D1D4D8"/>
<path d="M911.919 1191.26C911.919 1181.2 916.42 1151.85 903.912 1128.42C902.633 1124.97 900.714 1121.7 899.214 1118.13C869.635 1047.83 918.333 1011.78 946 991.258" stroke="#D1D4D8" stroke-width="3" stroke-linecap="round"/>
<path d="M879.458 853.258C872.468 875.387 871.624 926.573 921.04 961.826C970.457 997.08 1008.5 949.046 1021.35 920.621L1029.85 897.157C1035.7 900.782 1047.53 902.88 1047.98 882.278C1048.44 861.675 1040.24 860.341 1036.08 862.247C1033.81 863.202 1029.05 866.482 1028.15 871.976" stroke="#D1D4D8" stroke-width="3" stroke-linecap="round"/>
<path d="M1120.25 944.279C1099.07 972.95 1077.89 976.391 1068.15 979.258C1038.29 956.689 1015.77 969.989 1005.36 976.558L1003.07 950.754C1019.09 934.24 1028.06 908.321 1030.54 897.426C1036.04 900.638 1041.99 898 1044.28 896.28C1047.14 893.604 1051.95 884.582 1048.29 869.902C1044.63 855.223 1034.55 861.111 1029.97 865.888L1004.21 873.343C1001 848.571 984.442 843.032 976.562 843.358C980.225 828.678 968.357 824.626 962.25 823.288C955.839 834.756 945.84 840.682 941.642 843.358C897.677 863.542 866.65 851.96 850.048 833.609C832.302 815.26 826.005 765.947 863.787 747.023C875.943 739.704 906.128 730.146 929.62 750.464C982.859 719.499 1020.31 774.718 1031.52 795.19L1043.54 813.54C1120.48 816.292 1134.37 884.644 1131.7 918.475C1130.81 929.688 1127.17 934.905 1120.25 944.279Z" fill="#D1D4D8"/>
<path d="M1004 874.258C1004 891.126 991.625 904.258 977 904.258C962.375 904.258 950 891.126 950 874.258C950 857.391 962.375 844.258 977 844.258C991.625 844.258 1004 857.391 1004 874.258Z" stroke="#D1D4D8" stroke-width="3"/>
<path d="M932 884.758C932 901.907 919.625 915.258 905 915.258C890.375 915.258 878 901.907 878 884.758C878 867.61 890.375 854.258 905 854.258C919.625 854.258 932 867.61 932 884.758Z" stroke="#D1D4D8" stroke-width="3"/>
<path d="M932 878.258L950 876.258" stroke="#D1D4D8" stroke-width="3" stroke-linecap="round"/>
<path d="M944.562 894.258C942.166 908.241 934.883 920.993 946 927.258" stroke="#D1D4D8" stroke-width="3" stroke-linecap="round"/>
<path d="M896 899.258C900.972 899.258 905 895.228 905 890.258C905 885.287 900.972 881.258 896 881.258C891.03 881.258 887 885.287 887 890.258C887 895.228 891.03 899.258 896 899.258Z" fill="#D1D4D8"/>
<path d="M968.5 886.258C973.195 886.258 977 882.452 977 877.758C977 873.064 973.195 869.258 968.5 869.258C963.806 869.258 960 873.064 960 877.758C960 882.452 963.806 886.258 968.5 886.258Z" fill="#D1D4D8"/>
<path d="M1039 875.258C1039.75 877.458 1040.81 882.738 1039 886.258" stroke="#D1D4D8" stroke-width="3" stroke-linecap="round"/>
<path d="M1004 873.258L1033 866.258" stroke="#D1D4D8" stroke-width="3" stroke-linecap="round"/>
<path d="M973.217 859.916C977.874 860.611 987.106 864.523 986.781 874.608" stroke="#D1D4D8" stroke-width="3" stroke-linecap="round"/>
<path d="M903.999 872.913C907.444 873.72 915.5 876.258 915.5 885.258" stroke="#D1D4D8" stroke-width="3" stroke-linecap="round"/>
<path d="M936 945.535C941.087 949.422 953.409 953.607 962 939.258" stroke="#D1D4D8" stroke-width="3" stroke-linecap="round"/>
<path d="M543.904 957.286V751.758C548.243 789.227 569.142 809.682 579.472 815.519C579.761 815.682 580.078 815.758 580.411 815.758H607.904C609.009 815.758 609.904 816.653 609.904 817.758V987.479C609.904 989.32 607.626 990.183 606.406 988.804L603.596 985.627C602.623 984.527 600.835 984.816 600.258 986.167L592.695 1003.89C591.948 1005.64 589.406 1005.45 588.922 1003.61L577.712 960.931C577.523 960.21 576.944 959.644 576.208 959.522C568.464 958.239 567.087 963.058 567.404 965.758V983.258C567.071 986.091 565.304 991.958 560.904 992.758C556.504 993.558 555.738 988.758 555.904 986.258C555.904 979.424 555.404 964.358 553.404 958.758C552.357 955.826 550.442 956.604 548.52 958.68C547.086 960.229 543.904 959.396 543.904 957.286Z" fill="#D1D4D8" fill-opacity="0.7"/>
<path d="M544.889 724.684C538.205 758.102 550.704 784.547 559.835 795.881C560.757 797.024 562.515 796.678 563.044 795.309L569.911 777.537C570.209 776.766 570.95 776.258 571.777 776.258H630.512C632.733 776.258 633.53 772.636 631.609 771.52C623.598 766.871 614.826 759.762 612.905 751.258C610.392 740.128 604.469 733 600.992 730.089C600.358 729.559 599.456 729.567 598.775 730.035L593.421 733.716C592.564 734.305 591.399 734.139 590.74 733.334L584.722 725.979C583.841 724.901 582.156 725.031 581.45 726.231L579.216 730.03C578.552 731.158 577.003 731.355 576.078 730.43L569.285 723.638C568.518 722.87 567.278 722.855 566.492 723.604L558.998 730.741C558.144 731.554 556.777 731.452 555.993 730.571C553.042 727.253 549.848 724.862 547.569 723.451C546.487 722.781 545.139 723.436 544.889 724.684Z" fill="#D1D4D8"/>
<path d="M561.904 795.758L576.624 813.941C577.615 815.165 579.565 814.818 580.072 813.327L586.517 794.397C586.755 793.696 586.587 792.921 586.08 792.382L570.904 776.258" stroke="#D1D4D8" stroke-width="3" stroke-linecap="round"/>
<path d="M586.404 792.758H654.972C656.768 792.758 657.654 790.574 656.365 789.323L643.486 776.823C643.113 776.46 642.613 776.258 642.093 776.258H572.404" stroke="#D1D4D8" stroke-width="3" stroke-linecap="round"/>
<path d="M578.904 815.258H617.904" stroke="#D1D4D8" stroke-width="3" stroke-linecap="round"/>
<path d="M656.904 791.758L649.904 812.258" stroke="#D1D4D8" stroke-width="3" stroke-linecap="round"/>
<path d="M702.404 850.257L628.804 803.014C628.541 802.845 628.233 802.738 627.921 802.713C617.294 801.851 616.629 809.885 617.737 814.616C617.836 815.036 618.089 815.398 618.432 815.66L649.404 839.257" stroke="#D1D4D8" stroke-width="3" stroke-linecap="round"/>
<path d="M663.404 849.258L692.404 870.758" stroke="#D1D4D8" stroke-width="3" stroke-linecap="round"/>
<path d="M739.404 904.258L756.858 915.409C757.213 915.636 757.63 915.749 758.049 915.702C763.73 915.063 773.335 910.137 771.525 894.686C771.457 894.102 771.117 893.577 770.62 893.265L736.404 871.758" stroke="#D1D4D8" stroke-width="3" stroke-linecap="round"/>
<path d="M771.405 894.258C765.239 893.925 753.805 897.658 757.405 915.258" stroke="#D1D4D8" stroke-width="3" stroke-linecap="round"/>
<path d="M733.499 864.257C723.499 867.424 705 864.257 704.126 853.758C702.864 838.611 739.126 852.424 756.626 858.757C763.293 861.59 776.9 869.957 780.5 882.757" stroke="#D1D4D8" stroke-width="3" stroke-linecap="round"/>
<path d="M710.405 874.257C712.318 870.048 709.808 867.639 708.128 866.854C707.981 866.785 707.822 866.745 707.661 866.725C696.191 865.29 685.49 874.309 687.385 890.098C687.398 890.203 687.418 890.304 687.448 890.404C689.886 898.623 699.619 915.167 719.5 916.757" stroke="#D1D4D8" stroke-width="3" stroke-linecap="round"/>
<path d="M723.404 880.258C720.404 874.258 713.904 868.258 704.904 880.258C703.57 881.925 701.304 887.058 702.904 894.258" stroke="#D1D4D8" stroke-width="3" stroke-linecap="round"/>
<path d="M722 900.758C720.167 890.258 717.708 878.157 728.908 881.757C740.108 885.357 738.241 898.924 735.908 905.257" stroke="#D1D4D8" stroke-width="3" stroke-linecap="round"/>
<path d="M664.31 1529.58C695.311 1531.08 693.811 1509.58 687.31 1508.08C682.91 1504.48 692.144 1503.58 697.311 1503.58C730.311 1505.74 798.511 1505.98 807.311 1489.58C816.111 1473.18 781.977 1463.74 763.811 1461.08V1470.58C718.811 1500.58 650.311 1485.24 626.311 1470.58V1441.08C605.977 1441.24 560.511 1441.88 549.311 1443.08C538.111 1444.28 536.901 1451.9 538.401 1454.26C541.901 1459.76 530.311 1481.58 510.31 1484.58C495.31 1487.74 468.21 1496.88 479.81 1508.08C494.31 1522.08 632.705 1528.05 664.31 1529.58Z" fill="#D1D4D8"/>
<path d="M634.811 1343.08C631.976 1343.89 629.533 1346.4 627.575 1349.22C626.357 1350.98 623.14 1350.26 623.087 1348.13L622.404 1320.82C622.364 1319.22 624.131 1318.2 625.547 1318.94C654.474 1334.14 716.526 1331.37 748.36 1327.57C749.997 1327.38 751.157 1329.13 750.349 1330.57L748.449 1333.94C748.061 1334.63 747.298 1335.02 746.507 1335C735.452 1334.77 732.136 1345.89 731.828 1352.11C731.813 1352.42 731.73 1352.73 731.581 1353C722.045 1370.48 711.779 1364.37 707.811 1359.08C702.144 1351.41 691.211 1340.38 692.811 1357.58C694.39 1374.56 695.287 1387.25 690.98 1390.46C690.869 1390.54 690.741 1390.61 690.611 1390.66C678.744 1395.2 672.802 1378.86 671.311 1370.08C669.952 1362.08 669.311 1352.08 662.811 1353.58C655.885 1355.18 658.24 1359.94 658.788 1363.91C658.804 1364.02 658.826 1364.13 658.859 1364.24C662.836 1377.38 665.957 1413.8 652.811 1418.58C639.611 1423.38 639.977 1379.91 641.811 1357.58C641.811 1352.08 640.411 1341.48 634.811 1343.08Z" fill="#D1D4D8"/>
<path d="M763.811 1471.08L769.311 1319.58" stroke="#D1D4D8" stroke-width="3" stroke-linecap="round"/>
<path d="M627.311 1470.58L621.811 1316.58" stroke="#D1D4D8" stroke-width="3" stroke-linecap="round"/>
<path d="M728.311 1304.08C766.311 1306.48 771.478 1315.41 769.311 1319.58C746.311 1338.58 622.811 1325.58 621.811 1316.08C620.811 1306.58 680.811 1301.08 728.311 1304.08Z" fill="#D1D4D8" fill-opacity="0.7"/>
<path d="M728.311 1304.08C766.311 1306.48 771.478 1315.41 769.311 1319.58C746.311 1338.58 622.811 1325.58 621.811 1316.08C620.811 1306.58 680.811 1301.08 728.311 1304.08Z" stroke="#D1D4D8" stroke-width="3" stroke-linecap="round"/>
<path d="M759.311 1351.58C759.311 1356.54 757.827 1360.97 755.502 1364.12C753.177 1367.28 750.087 1369.08 746.811 1369.08C743.534 1369.08 740.444 1367.28 738.119 1364.12C735.794 1360.97 734.311 1356.54 734.311 1351.58C734.311 1346.62 735.794 1342.19 738.119 1339.03C740.444 1335.88 743.534 1334.08 746.811 1334.08C750.087 1334.08 753.177 1335.88 755.502 1339.03C757.827 1342.19 759.311 1346.62 759.311 1351.58Z" stroke="#D1D4D8" stroke-width="3"/>
<path d="M747.311 1348.58C757.311 1362.58 773.547 1394.67 778.311 1406.58C782.311 1416.58 779.811 1427.58 776.811 1431.58C774.561 1434.58 767.811 1436.18 765.811 1428.58" stroke="#D1D4D8" stroke-width="3" stroke-linecap="round"/>
<path d="M1143.19 1178.34C1152.52 1187.51 1164.49 1207.54 1137.69 1214.34" stroke="#D1D4D8" stroke-width="3" stroke-linecap="round"/>
<path d="M1143.19 1197.84C1141.62 1189.68 1135.15 1174.29 1121.19 1169.35C1118.9 1168.54 1116.4 1168.01 1113.69 1167.84" stroke="#D1D4D8" stroke-width="3" stroke-linecap="round"/>
<path d="M1115.5 1108.26C1097.33 1120.45 1079.19 1165.54 1105.19 1196.34C1131.19 1227.14 1141.35 1229.84 1143.19 1227.34" stroke="#D1D4D8" stroke-width="3" stroke-linecap="round"/>
<path d="M1042 1049.26C1050 1064.42 1074.3 1095.16 1107.5 1096.76" stroke="#D1D4D8" stroke-width="3" stroke-linecap="round"/>
</svg>
