<svg width="1689" height="1418" viewBox="0 0 1689 1418" fill="none" xmlns="http://www.w3.org/2000/svg">
<path d="M904.26 960.705C899.821 988.897 884.868 1043.95 860.568 1038.65C836.622 992.988 878.212 763.669 905 663.716C976.2 698.516 911.582 902.772 904.26 960.705Z" fill="#D1D4D8"/>
<path d="M1049 988.217C1015.8 943.817 1062.83 837.383 1090.5 789.717L1106 834.717C1118.4 877.517 1109.5 902.717 1093.5 921.717L1049 988.217Z" fill="#D1D4D8"/>
<path d="M713.499 805.217C566.539 847.882 464.546 788.227 466.863 634.534C466.909 631.497 469.665 629.178 472.675 629.586C531.685 637.584 671.068 627.578 712.575 609.137C713.216 608.852 713.887 608.711 714.588 608.701C908.132 605.981 943.441 676.397 912.499 772.717C887.699 849.917 877.833 931.217 875.999 962.217C875.333 1001.38 861.999 1070.52 813.999 1033.72C767.908 998.38 782.365 856.33 796.721 781.636C797.467 777.756 793.656 774.568 789.966 775.979L713.499 805.217Z" fill="#D1D4D8"/>
<path d="M788 221.361L764 240.361" stroke="#D1D4D8" stroke-width="5" stroke-linecap="round"/>
<path d="M748.5 246.361C770.5 234.592 784 239.695 795.5 246.361C807.834 253.695 835.3 275.061 846.5 301.861" stroke="#D1D4D8" stroke-width="5" stroke-linecap="round"/>
<path d="M785.197 412.126C732.023 447.015 641.11 470.353 600.888 477.926C600.307 478.035 599.832 478.389 599.541 478.903L586.634 501.705C585.892 503.016 586.788 504.641 588.294 504.652C655.469 505.165 752.194 462.676 794.129 440.326C794.953 439.887 795.324 438.954 795.076 438.054L788.241 413.278C787.877 411.959 786.341 411.376 785.197 412.126Z" fill="#D1D4D8"/>
<path d="M803.999 300.861C780.5 303.86 763.951 329.751 775.999 374.865C799.5 462.86 805.499 468.865 831.499 505.365C852.299 534.565 932.833 575.865 970.499 592.865" stroke="#D1D4D8" stroke-width="5" stroke-linecap="round"/>
<path d="M971.5 592.861C975.667 590.194 984 581.361 984 567.361" stroke="#D1D4D8" stroke-width="5" stroke-linecap="round"/>
<path d="M846.5 300.861C853.167 352.361 870.3 459.561 885.5 476.361C900.7 493.161 957.833 543.694 984.5 566.861" stroke="#D1D4D8" stroke-width="5" stroke-linecap="round"/>
<path d="M788 221.361C802.667 228.694 834.5 248.761 842.5 272.361" stroke="#D1D4D8" stroke-width="5" stroke-linecap="round"/>
<path d="M842.5 272.361L843.5 294.361" stroke="#D1D4D8" stroke-width="5" stroke-linecap="round"/>
<path d="M1119 1398.58C1152.17 1382.91 1232.9 1352.58 1290.5 1356.58C1298.67 1356.91 1311 1360.38 1295 1371.58C1279 1382.78 1271 1388.58 1269 1390.08C1260.67 1397.08 1252.5 1411.88 1286.5 1415.08C1329 1419.08 1449 1375.58 1686.5 1407.58" stroke="#D1D4D8" stroke-width="5" stroke-linecap="round"/>
<path d="M3 1375.56C18.3122 1368.41 55.585 1354.56 82.177 1356.38C85.947 1356.54 91.641 1358.12 84.255 1363.23C76.868 1368.35 73.174 1371 72.251 1371.68C68.404 1374.88 64.633 1381.64 80.33 1383.1C99.952 1384.93 155.352 1365.06 265 1379.67" stroke="#D1D4D8" stroke-width="5" stroke-linecap="round"/>
<path d="M836.439 258.217C838.439 252.217 839.194 247.717 840.764 242.597C842.688 236.32 909.571 239.861 919.947 167.095C939.169 167.095 949.435 151.229 934.691 144.664C918.964 136.785 919.963 121.971 922.694 113.217C927.063 101.728 927.194 89.7168 926.194 87.2168" stroke="#D1D4D8" stroke-width="5" stroke-linecap="round"/>
<path d="M906 142.445C908.485 142.445 910.5 139.535 910.5 135.945C910.5 132.355 908.485 129.445 906 129.445C903.515 129.445 901.5 132.355 901.5 135.945C901.5 139.535 903.515 142.445 906 142.445Z" fill="#D1D4D8"/>
<path d="M891.693 117.216C894.86 113.751 903.093 108.64 910.693 115.917" stroke="#D1D4D8" stroke-width="5" stroke-linecap="round"/>
<path d="M870.693 184.217C876.693 193.217 883.193 195.717 895.693 189.717" stroke="#D1D4D8" stroke-width="5" stroke-linecap="round"/>
<path d="M821.703 121.217C820.373 124.231 819.307 131.052 825.693 134.217" stroke="#D1D4D8" stroke-width="5" stroke-linecap="round"/>
<path d="M753.695 91.2168C746.696 132.217 770.454 162.741 787.694 186.217C805.695 176.217 835.114 152.595 823.697 150.217C811.697 147.717 798.69 115.217 810.197 105.094C823.697 93.2168 836.197 110.802 838.697 124.217L849.458 105.094C846.197 91.8446 844.706 68.5541 864.834 81.3848C884.962 94.2155 914.222 90.45 926.336 86.9634C950.099 69.5304 986.86 29.0858 943.809 6.77147C908.001 -11.7879 861.977 12.7456 833.963 34.6342C814.765 29.8058 763.237 35.315 753.695 91.2168Z" fill="#D1D4D8"/>
<path d="M789.193 183.717C794.693 193.384 798.893 207.117 797.693 224.717" stroke="#D1D4D8" stroke-width="5" stroke-linecap="round"/>
<path d="M581.77 1411.59V1390.59" stroke="#D1D4D8" stroke-width="5" stroke-linecap="round"/>
<path d="M563 1402.26L574.45 1411.59" stroke="#D1D4D8" stroke-width="5" stroke-linecap="round"/>
<path d="M589.41 1411.59L598 1397.93" stroke="#D1D4D8" stroke-width="5" stroke-linecap="round"/>
<path d="M117.77 1249.21V1228.22" stroke="#D1D4D8" stroke-width="5" stroke-linecap="round"/>
<path d="M99 1239.88L110.45 1249.21" stroke="#D1D4D8" stroke-width="5" stroke-linecap="round"/>
<path d="M125.41 1249.22L134 1235.55" stroke="#D1D4D8" stroke-width="5" stroke-linecap="round"/>
<path d="M1455 1240.22V1210.22" stroke="#D1D4D8" stroke-width="5" stroke-linecap="round"/>
<path d="M1428 1227.22L1444 1240.22" stroke="#D1D4D8" stroke-width="5" stroke-linecap="round"/>
<path d="M1466 1240.22L1478 1220.22" stroke="#D1D4D8" stroke-width="5" stroke-linecap="round"/>
<rect x="572.693" y="133.605" width="28" height="58.3059" transform="rotate(34.0391 572.693 133.605)" fill="#D1D4D8"/>
<rect x="687.637" y="207.592" width="28" height="58.3059" transform="rotate(34.0391 687.637 207.592)" fill="#D1D4D8"/>
<rect x="533.427" y="109.202" width="255.877" height="332.799" rx="7.5" transform="rotate(32.6694 533.427 109.202)" stroke="#D1D4D8" stroke-width="5"/>
<path d="M501.5 158.092L717.5 296.592" stroke="#D1D4D8" stroke-width="5"/>
<path d="M581 328.717C545 329.517 523.333 304.883 517.5 292.217L527 275.717L589.5 312.717L581 328.717Z" fill="#D1D4D8"/>
<rect x="526.915" y="275.632" width="73" height="73" rx="2.5" transform="rotate(30 526.915 275.632)" stroke="#D1D4D8" stroke-width="5"/>
<path d="M984 567.218C986.833 569.384 993.8 572.418 999 567.218C1005.5 560.718 1022 535.218 1060.5 551.218C1067.83 557.384 1080.7 573.318 1073.5 587.718C1072.5 589.218 1070.2 591.318 1069 587.718" stroke="#D1D4D8" stroke-width="5" stroke-linecap="round"/>
<path d="M974 591.717C978 592.383 989.5 595.217 1003.5 601.217C1017.5 607.217 1026 607.383 1028.5 606.717" stroke="#D1D4D8" stroke-width="5" stroke-linecap="round"/>
<path d="M1264 907.218C1276.4 872.818 1241.33 864.217 1223 865.217C1227 892.416 1237.5 922.05 1242 932.217C1243.83 938.383 1251.6 941.618 1264 907.218Z" fill="#D1D4D8"/>
<path d="M1220.5 581.717C1220.5 616.217 1197.83 631.383 1180 637.217C1164.17 617.717 1142 569.117 1180 530.717C1193.5 534.717 1220.5 545.63 1220.5 581.717Z" fill="#D1D4D8"/>
<path d="M1180 637.217H1116H1092L1072 589.217C1075.2 584.817 1075.67 577.717 1075.5 574.717H1083.5C1085.9 540.717 1106.17 531.217 1116 530.717H1180C1193.5 534.717 1220.5 545.63 1220.5 581.717C1220.5 616.217 1197.83 631.383 1180 637.217Z" stroke="#D1D4D8" stroke-width="5"/>
<path d="M140 936.218C147.2 924.618 164.667 924.385 172.5 925.718C150.1 956.918 132.5 999.385 126.5 1016.72H98.5C88.5 994.318 102.667 988.051 111 987.718C117.667 975.384 132.8 947.818 140 936.218Z" fill="#D1D4D8"/>
<path d="M239 1162.22C251.745 1216.61 301.976 1257.22 362 1257.22C422.024 1257.22 472.255 1216.61 485 1162.22" stroke="#D1D4D8" stroke-width="5" stroke-linecap="square"/>
<path d="M516 1173.22C503.397 1237.95 439.244 1287.22 362 1287.22C284.756 1287.22 220.603 1237.95 208 1173.22" stroke="#D1D4D8" stroke-width="25" stroke-linecap="square"/>
<path d="M1106 834.717L1032.39 610.948C1031.6 608.536 1032.74 605.913 1035.04 604.847L1066.36 590.364C1068.9 589.186 1071.92 590.333 1073.04 592.908C1095.02 643.65 1139.33 748.714 1156 798.717C1171.78 846.049 1203.63 863.342 1221.14 867.037C1223.61 867.559 1225.54 869.62 1225.71 872.144C1227.21 894.306 1235.29 916.386 1241.87 930.35C1243.71 934.252 1240.27 939.064 1235.97 938.817C1149.79 933.881 1048.73 1063.49 1007.5 1131.72C991.9 1153.32 964 1160.38 952 1161.22H99.9764C98.4159 1161.22 96.9265 1160.49 96.0305 1159.21C81.2655 1138.16 94.6035 1127.81 106.183 1124.26C108.607 1123.51 110.385 1121.29 110.285 1118.76C105.234 990.113 199.682 880.717 250.925 839.17C252.737 837.7 253.258 835.21 252.412 833.035C243.485 810.074 258.501 800.07 270.474 797.058C273 796.423 274.899 794.201 274.992 791.598C275.61 774.233 283.633 767.077 288.378 765.41C288.788 765.265 289.202 765.217 289.637 765.217H437.5C455.085 765.217 463.187 776.653 465.977 785.022C466.762 787.378 468.841 789.217 471.324 789.217H659.5C715.304 792.361 743.824 826.006 751.603 843.306C751.877 843.915 752 844.56 752 845.228V853.574C752 855.745 750.611 857.65 748.576 858.407C717.846 869.835 658.331 911.1 641 996.217C623.065 1084.3 688.691 1117.81 724.117 1123.65C724.378 1123.7 724.633 1123.72 724.898 1123.72H943C953 1123.72 959.167 1118.38 961 1115.72L1093.5 924.217C1118.5 887.717 1111 854.217 1106 834.717Z" stroke="#D1D4D8" stroke-width="5" stroke-linecap="round"/>
<circle cx="1044" cy="586.217" r="28" fill="#D1D4D8"/>
<path d="M110 1121.22L724.5 1123.72" stroke="#D1D4D8" stroke-width="5" stroke-linecap="round"/>
<path d="M693 896.217C551.333 873.217 257.7 886.117 216.5 1121.72" stroke="#D1D4D8" stroke-width="5" stroke-linecap="round"/>
<path d="M650 962.717C556.348 947.45 405.236 965.831 378 1122.22" stroke="#D1D4D8" stroke-width="5" stroke-linecap="round"/>
<path d="M253 835.717H746.5" stroke="#D1D4D8" stroke-width="5" stroke-linecap="round"/>
<circle cx="1245" cy="1131.22" r="51" fill="#D1D4D8"/>
<circle cx="1245" cy="1131.22" r="123.5" stroke="#D1D4D8" stroke-width="5"/>
<circle cx="1245" cy="1131.22" r="143.5" stroke="#D1D4D8" stroke-width="25"/>
<path d="M1186.5 1101.22C1227.7 1041.22 1317 1039.55 1356.5 1046.22C1393 1050.72 1384 1014.22 1372 1003.22C1237.08 879.531 1121 1005.22 1094.5 1050.22C1068 1095.22 1030.5 1134.22 1008.5 1157.72C990.899 1176.52 1004.5 1185.22 1013.5 1187.22H1091.5C1147 1185.22 1151 1159.22 1159 1143.72C1165.4 1131.32 1180 1110.22 1186.5 1101.22Z" fill="#D1D4D8"/>
<path d="M515 493.717C509 513.217 474.5 556.717 469.5 633.217" stroke="#D1D4D8" stroke-width="5" stroke-linecap="round"/>
<path d="M800.501 1044.72C792.584 1064.67 783.981 1107.22 812.103 1119.35C812.684 1119.6 813.325 1119.72 813.958 1119.72H887.88C888.618 1119.72 889.346 1119.56 890.008 1119.23C901.997 1113.33 919.005 1100.72 898.001 1093.72C871.001 1084.72 850.001 1090.22 841.501 1063.22" stroke="#D1D4D8" stroke-width="5" stroke-linecap="round"/>
<path d="M909.236 1117.22C921.236 1111.55 939.836 1098.42 918.236 1091.22C891.236 1082.22 870.236 1087.72 861.736 1060.72" stroke="#D1D4D8" stroke-width="5" stroke-linecap="round"/>
<path d="M713 631.717C715.333 596.883 732 509.817 792 436.217" stroke="#D1D4D8" stroke-width="5" stroke-linecap="round"/>
<path d="M1264 520.21L1357.29 463.226" stroke="#D1D4D8" stroke-width="5" stroke-linecap="round"/>
<path d="M1266.5 568.217H1387" stroke="#D1D4D8" stroke-width="5" stroke-linecap="round"/>
<path d="M1266 612.217L1357 652.217" stroke="#D1D4D8" stroke-width="5" stroke-linecap="round"/>
</svg>
