<svg width="659" height="816" viewBox="0 0 659 816" fill="none" xmlns="http://www.w3.org/2000/svg">
<g clip-path="url(#clip0_188_23)">
<path d="M438.097 634.643C396.497 517.443 399.931 415.81 413.098 384.143C465.098 421.143 547.931 391.477 574.098 378.143C613.298 421.343 579.431 652.477 557.598 762.643C549.198 777.043 531.098 769.643 523.098 764.143L513.098 687.643L501.598 754.643C495.198 765.843 476.264 763.643 467.598 761.143L438.097 634.643Z" fill="#D1D4D8"/>
<path d="M415.599 383.643C417.593 376.095 423.599 361.143 412.695 340.643C411.58 337.627 409.907 334.765 408.599 331.643C382.813 270.143 431.599 236.143 439.599 226.643" stroke="#D1D4D8" stroke-width="3" stroke-linecap="round"/>
<path d="M412.695 340.643C396.291 349.643 367.099 358.643 330.099 347.143C293.099 335.643 280.099 229.143 288.599 215.143C295.399 203.943 300.599 200.289 306.599 204.643C337.099 229.289 343.599 247.289 356.099 276.643C360.489 286.955 364.599 292.143 369.099 287.143C379.566 270.429 409.5 234 445.5 222" stroke="#D1D4D8" stroke-width="3" stroke-linecap="round"/>
<path d="M439.6 226.643C441.423 224.478 443.29 223.046 445.089 222.143C449.604 219.879 453.693 220.952 455.6 222.143C463.6 226.143 483.8 229.043 500.6 208.643C512.567 197.095 544.1 186.7 574.5 237.5" stroke="#D1D4D8" stroke-width="3" stroke-linecap="round"/>
<path d="M573.6 276.143C576.933 255.81 588.5 212.543 608.1 202.143C627.7 191.743 638.933 207.143 642.1 216.143C649.266 235.977 657.2 285.243 631.6 323.643C599.6 371.643 549.1 354.643 529.6 302.643" stroke="#D1D4D8" stroke-width="3" stroke-linecap="round"/>
<path d="M648.1 148.643C651.266 147.643 657.1 149.043 655.1 162.643C652.6 179.643 643.1 193.643 634.6 203.643" stroke="#D1D4D8" stroke-width="3" stroke-linecap="round"/>
<path d="M637.6 143.143C640.433 141.31 646.5 139.843 648.1 148.643C648.433 151.31 648.4 157.243 645.6 159.643" stroke="#D1D4D8" stroke-width="3" stroke-linecap="round"/>
<path d="M628.6 163.643L627.6 140.643C627.6 139.143 628.6 135.943 632.6 135.143C637.6 134.143 637.1 141.143 637.6 143.143C638 144.743 637.766 151.81 637.6 155.143" stroke="#D1D4D8" stroke-width="3" stroke-linecap="round"/>
<path d="M617.949 171.525L619.098 152.643C619.098 149.977 620.798 144.743 627.598 145.143" stroke="#D1D4D8" stroke-width="3" stroke-linecap="round"/>
<path d="M608.099 201.643C605.099 194.143 600.599 177.643 601.599 167.643C602.166 161.971 601.599 156.643 606.099 155.643C612.599 154.199 612.276 163.134 615.599 167.643C616.424 168.469 617.376 169.828 617.95 171.525C618.881 174.281 618.817 177.93 615.599 181.643" stroke="#D1D4D8" stroke-width="3" stroke-linecap="round"/>
<path d="M306.099 203.643V189.643L310.099 178.643C311.432 173.977 311.599 161.643 304.099 161.643C297.497 161.643 296.871 168.143 296.871 174.143L298.099 180.143" stroke="#D1D4D8" stroke-width="3" stroke-linecap="round"/>
<path d="M296.871 174.143C293.947 170.31 294.694 161.726 296.871 154.143C299.599 144.643 291.599 141.143 286.599 144.143C282.599 146.543 284.766 157.31 285.599 162.643" stroke="#D1D4D8" stroke-width="3" stroke-linecap="round"/>
<path d="M285.6 162.643C284.767 157.31 282.6 146.543 286.6 144.143C284.675 140.801 280.049 137.065 276.1 138.143C273.551 138.839 270.992 140.799 270.6 148.643C272.6 154.143 271.6 156.143 276.6 162.643" stroke="#D1D4D8" stroke-width="3" stroke-linecap="round"/>
<path d="M276.6 162.643C271.6 156.143 272.6 154.143 270.6 148.643C265.933 148.143 258 150.343 263.6 163.143L270.6 177.143" stroke="#D1D4D8" stroke-width="3" stroke-linecap="round"/>
<path d="M263.599 163.143C259.099 164.477 252.399 171.643 261.599 189.643C270.799 207.643 283.432 213.477 288.599 214.143" stroke="#D1D4D8" stroke-width="3" stroke-linecap="round"/>
<path d="M403.749 249.289C358.549 192.889 375.249 149.123 389.249 134.289C395.649 181.889 433.582 200.789 451.749 204.289V221.289C446.149 217.289 417.415 238.289 403.749 249.289Z" fill="#D1D4D8"/>
<path d="M601.598 179.643C583.098 204.643 564.598 207.643 556.098 210.143C523.179 192.027 505.815 201.025 501.247 207.789L499.247 185.289C513.247 170.889 521.081 148.289 523.247 138.789C528.047 141.589 533.247 139.289 535.247 137.789C537.747 135.456 541.947 127.589 538.747 114.789C535.547 101.989 526.747 107.123 522.747 111.289L500.247 117.789C497.447 96.1894 482.981 91.3588 476.098 91.6434C479.298 78.8434 468.932 75.3101 463.598 74.1434C457.998 84.1434 449.265 89.3101 445.598 91.6434C407.198 109.243 380.098 99.1435 365.598 83.1434C350.098 67.1434 344.598 24.1435 377.598 7.64342C388.215 1.26141 414.579 -7.07339 435.098 10.6434C481.598 -16.3566 514.309 31.7922 524.098 49.6434L534.598 65.6434C601.798 68.0434 613.932 127.643 611.598 157.143C600.679 149.027 600.382 168.761 601.598 179.643Z" fill="#D1D4D8"/>
<path d="M499.6 118.143C499.6 133.043 488.829 144.643 476.1 144.643C463.371 144.643 452.6 133.043 452.6 118.143C452.6 103.244 463.371 91.6434 476.1 91.6434C488.829 91.6434 499.6 103.244 499.6 118.143Z" stroke="#D1D4D8" stroke-width="3"/>
<path d="M436.6 127.143C436.6 142.043 425.829 153.643 413.1 153.643C400.371 153.643 389.6 142.043 389.6 127.143C389.6 112.244 400.371 100.643 413.1 100.643C425.829 100.643 436.6 112.244 436.6 127.143Z" stroke="#D1D4D8" stroke-width="3"/>
<path d="M436.742 121.528L452.454 119.759" stroke="#D1D4D8" stroke-width="3" stroke-linecap="round"/>
<path d="M450.598 185.643C450.598 181.477 452.998 174.243 462.598 178.643" stroke="#D1D4D8" stroke-width="3" stroke-linecap="round"/>
<path d="M448.098 135.143C445.598 147.643 437.998 159.043 449.598 164.643" stroke="#D1D4D8" stroke-width="3" stroke-linecap="round"/>
<path d="M407.6 152.789C411.742 152.789 415.1 149.431 415.1 145.289C415.1 141.147 411.742 137.789 407.6 137.789C403.457 137.789 400.1 141.147 400.1 145.289C400.1 149.431 403.457 152.789 407.6 152.789Z" fill="#D1D4D8"/>
<path d="M469.6 143.789C473.742 143.789 477.1 140.431 477.1 136.289C477.1 132.147 473.742 128.789 469.6 128.789C465.457 128.789 462.1 132.147 462.1 136.289C462.1 140.431 465.457 143.789 469.6 143.789Z" fill="#D1D4D8"/>
<path d="M530.1 119.143C531.266 121.143 532.9 125.943 530.1 129.143" stroke="#D1D4D8" stroke-width="3" stroke-linecap="round"/>
<path d="M390.6 99.7894C384.433 119.123 383.688 163.843 427.288 194.643C470.888 225.443 504.454 183.477 515.788 158.643L523.288 138.143C528.454 141.31 538.888 143.143 539.288 125.143C539.688 107.143 532.454 105.977 528.788 107.643C526.788 108.477 522.588 111.343 521.788 116.143" stroke="#D1D4D8" stroke-width="3" stroke-linecap="round"/>
<path d="M500.1 117.143L525.1 110.143" stroke="#D1D4D8" stroke-width="3" stroke-linecap="round"/>
<path d="M472.1 117.796C476.217 117.663 484.782 119.475 486.1 127.789" stroke="#D1D4D8" stroke-width="3" stroke-linecap="round"/>
<path d="M399.1 125.628C401.928 123.743 409.141 120.82 415.363 124.214" stroke="#D1D4D8" stroke-width="3" stroke-linecap="round"/>
<path d="M292.098 412.789L319.098 361.789" stroke="#D1D4D8" stroke-width="3" stroke-linecap="round"/>
<path d="M337.098 442.289L375.598 411.289" stroke="#D1D4D8" stroke-width="3" stroke-linecap="round"/>
<path d="M240.598 407.789L216.598 295.789" stroke="#D1D4D8" stroke-width="3" stroke-linecap="round"/>
<path d="M200.598 412.289L171.098 368.789" stroke="#D1D4D8" stroke-width="3" stroke-linecap="round"/>
<path d="M0.0976562 677.789L62.0976 631.289L70.0976 680.289L246.999 795.5L0.0976562 677.789Z" fill="#D1D4D8"/>
<path d="M174.598 613.96L230.598 583.5L321.098 639.272" stroke="#D1D4D8" stroke-width="3" stroke-linecap="round"/>
<path d="M174.598 613.96L261.229 671.123C261.85 671.532 262.647 671.564 263.298 671.204L321.098 639.272L437.097 575.646C438.439 574.91 438.49 573.001 437.191 572.194L224.555 440.095C223.961 439.726 223.217 439.694 222.593 440.011L49.6626 527.942C48.2953 528.637 48.1873 530.549 49.4676 531.394L174.598 613.96Z" stroke="#D1D4D8" stroke-width="3" stroke-linecap="round"/>
<path d="M223.598 439.5L230.598 583.5" stroke="#D1D4D8" stroke-width="3" stroke-linecap="round"/>
<path d="M262.24 671.789L247.96 792.12C247.768 793.739 249.491 794.895 250.917 794.104L394.98 714.175C395.426 713.927 395.761 713.518 395.915 713.031L440.099 574" stroke="#D1D4D8" stroke-width="3" stroke-linecap="round"/>
<path d="M249.5 794.5L71.0986 679L48.5 530" stroke="#D1D4D8" stroke-width="3" stroke-linecap="round"/>
<path d="M111.791 595.747L158.098 685.789L176.098 670.289C170.764 659.789 155.791 631.547 135.791 592.747C115.791 553.947 131.098 527.789 157.598 515.289L240.098 472.789C273.598 453.698 306.431 475.956 312.598 492.289L347.098 513.789L339.098 500.289L327.598 481.381C306.598 442.881 262.291 442.914 244.291 449.747C220.458 461.247 161.49 486.461 127.291 511.747C94.0972 536.289 101.791 576.914 111.791 595.747Z" fill="#D1D4D8"/>
<path d="M165.598 697.289C177.472 697.289 187.098 686.096 187.098 672.289C187.098 658.482 177.472 647.289 165.598 647.289C153.724 647.289 144.098 658.482 144.098 672.289C144.098 686.096 153.724 697.289 165.598 697.289Z" fill="#D1D4D8"/>
<path d="M581.719 793.29C584.519 784.89 565.052 789.79 556.219 793.29C556.219 800.89 537.552 806.79 528.219 808.79C564.219 806.29 580.219 797.789 581.719 793.29Z" fill="#D1D4D8"/>
<path d="M511.719 783.289C519.719 778.789 508.719 775.956 502.219 776.789L501.219 785.289L511.719 783.289Z" fill="#D1D4D8"/>
<path d="M465.365 769.6C462.215 773.825 452.369 782.276 442.918 782.276C434.829 782.276 431.694 791.933 440.555 796.762C455.322 802.798 489.348 800.022 500.217 786.501V767.789" stroke="#D1D4D8" stroke-width="3" stroke-linecap="round"/>
<path d="M523.604 775.789C520.821 778.214 513.703 783.306 507.5 784.276C499.746 785.489 488.945 794.601 494.974 805.493C500.342 815.192 512.271 813.172 519.429 810.949L547.463 800.644C550.445 799.431 555.217 797.613 555.217 790.338C555.217 783.064 555.217 780.033 555.217 779.427" stroke="#D1D4D8" stroke-width="3" stroke-linecap="round"/>
<path d="M573.5 376C574.667 372.333 577.3 362.3 578.5 351.5" stroke="#D1D4D8" stroke-width="3" stroke-linecap="round"/>
</g>
<defs>
<clipPath id="clip0_188_23">
<rect width="659" height="816" fill="white"/>
</clipPath>
</defs>
</svg>
