<svg width="670" height="827" viewBox="0 0 670 827" fill="none" xmlns="http://www.w3.org/2000/svg">
<path d="M528.428 47.7174L515.179 143.481C515.03 144.561 515.772 145.561 516.849 145.731L617.591 161.605C618.807 161.797 619.906 160.854 619.902 159.623L619.439 22.6272C619.434 21.2969 618.156 20.3417 616.879 20.7138L529.85 46.0714C529.093 46.2919 528.536 46.9365 528.428 47.7174Z" stroke="#D1D4D8" stroke-width="3"/>
<path d="M629.91 27.4707L618.91 18.4707L617.91 163.971L640.91 159.471L629.91 27.4707Z" fill="#D1D4D8" stroke="#D1D4D8" stroke-width="3"/>
<path d="M629.91 29.9707H643.303C644.287 29.9707 645.126 30.6873 645.279 31.66L664.554 154.223C664.742 155.421 663.829 156.51 662.616 156.533L639.739 156.971" stroke="#D1D4D8" stroke-width="3" stroke-linecap="round"/>
<path d="M571.91 32.9707C573.979 23.565 581.793 5.22418 596.497 7.10499C604.375 8.11256 608.91 17.2161 608.91 21.6838" stroke="#D1D4D8" stroke-width="3" stroke-linecap="round"/>
<path d="M551.91 38.9707C554.213 27.6881 563.297 3.1535 580.258 2.00174C592.17 1.19292 596.219 16.3724 594.552 26.4545" stroke="#D1D4D8" stroke-width="3" stroke-linecap="round"/>
<path d="M194.41 635.625V596.697L209.41 598.81V639.085L194.41 635.625Z" fill="#D1D4D8" stroke="#D1D4D8" stroke-width="3"/>
<path d="M238.548 584.971L176.41 590.971L249.285 602.971L313.548 596.971L238.548 584.971Z" fill="#D1D4D8" stroke="#D1D4D8" stroke-width="3" stroke-linecap="round"/>
<path d="M158.91 590.139L250.523 604.017M158.91 590.139V720.421C158.91 720.64 159.053 720.834 159.263 720.899L250.523 748.971M158.91 590.139L235.41 585.471M250.523 604.017L340.423 596.511C340.694 596.489 340.933 596.687 340.961 596.957L354.364 724.033C354.39 724.283 354.227 724.514 353.981 724.572L250.523 748.971M250.523 604.017V748.971" stroke="#D1D4D8" stroke-width="3" stroke-linecap="round"/>
<path d="M348.88 797.48C338.48 811.08 374.88 827.48 394.88 822.98C372.88 810.98 375.047 801.48 375.88 797.48C371.214 791.813 359.28 783.88 348.88 797.48Z" fill="#D1D4D8" stroke="#D1D4D8" stroke-width="3" stroke-linecap="round"/>
<path d="M382.922 774.144C378.385 784.343 372.034 806.491 382.922 813.485C396.531 822.228 401.067 826.599 416.945 824.414C432.822 822.228 437.359 820.042 428.286 813.485C419.213 806.929 410.42 796.198 412.688 769.971" stroke="#D1D4D8" stroke-width="3" stroke-linecap="round"/>
<path d="M369.615 751.492C348.41 710.971 347.41 647.471 340.933 595.356C282.064 598.855 245.529 595.665 227.228 577.669C202.046 552.908 208.708 525.778 208.708 501.666C231.659 517.758 224.126 496.971 316.91 496.971C403.472 501.771 428.501 627.971 430.195 690.471C431.957 717.587 429.338 742.045 417.057 751.492C392.387 770.47 375.099 761.971 369.615 751.492Z" fill="#D1D4D8" stroke="#D1D4D8" stroke-width="3" stroke-linecap="round"/>
<path d="M274.41 330.747V338.665C274.432 338.66 274.453 338.655 274.475 338.651C275.555 338.409 276.919 338.259 278.458 338.182C281.547 338.029 285.527 338.168 289.753 338.588C297.505 339.36 306.386 341.112 312.22 343.947C323.799 321.685 324.98 305.959 322.053 294.814C319.485 285.033 313.696 278.554 308.502 274.151C308.413 307.097 286.927 325.356 274.41 330.747Z" fill="#D1D4D8" stroke="#D1D4D8" stroke-width="3"/>
<path d="M204.983 268.54L219.89 270.142C219.902 262.824 222.16 257.692 225.192 254.251C227.778 251.317 230.871 249.675 233.452 248.943C232.902 247.231 232.73 245.653 232.877 244.201C233.072 242.271 233.82 240.664 234.828 239.352C236.802 236.78 239.788 235.321 241.687 234.544L242.713 234.125L243.416 234.983C248.186 240.812 254.372 243.344 257.51 244.629C257.637 244.681 257.76 244.731 257.877 244.779C287.079 252.362 304.547 241.903 312.549 229.245L312.563 229.224L312.577 229.203C316.859 222.904 318.75 212.122 316.373 201.942C314.015 191.842 307.515 182.552 295.235 178.902L295.18 178.886L295.125 178.865C291.104 177.322 284.236 175.894 276.883 176.706C269.563 177.515 261.833 180.531 255.88 187.801L255.204 188.625L254.203 188.259C245.266 184.984 237.595 184.898 231.039 186.747C224.465 188.6 218.902 192.431 214.255 197.156C204.931 206.638 199.468 219.546 197.104 226.478L197.085 226.534L197.061 226.589L191.535 239.373L191.228 240.085L190.47 240.246C166.979 245.227 154.323 258.732 148.503 273.342C142.643 288.049 143.7 303.905 147.755 313.438L146.375 314.025L147.755 313.438C149.678 317.958 150.704 320.182 151.891 321.926C153.067 323.653 154.423 324.947 157.18 327.558L157.18 327.558L157.433 327.798C157.433 327.798 157.433 327.798 157.433 327.798C165.49 335.43 172.927 339.154 179.096 341.069C184.109 342.626 188.277 342.997 191.451 343.279C192.174 343.343 192.846 343.403 193.464 343.471C215.847 343.465 226.269 341.32 234.669 338.434L229.64 323.449C218.617 315.338 211.665 302.957 208.474 295.93C207.074 296.746 205.528 297.237 203.999 297.291C201.854 297.365 199.739 296.568 198.289 294.638C196.11 292.468 192.383 285.71 193.084 275.902C193.441 270.897 195.194 267.948 198.037 267.049C200.517 266.264 203.147 267.298 204.983 268.54Z" fill="#D1D4D8" stroke="#D1D4D8" stroke-width="3"/>
<path d="M220.267 272.631C222.279 283.988 232.141 291.442 241.998 289.725C251.855 288.008 258.565 277.667 256.553 266.31C254.541 254.953 244.679 247.499 234.822 249.216C224.965 250.934 218.255 261.274 220.267 272.631Z" stroke="#D1D4D8" stroke-width="3"/>
<path d="M273.209 272.631C274.895 283.988 283.158 291.442 291.416 289.725C299.675 288.008 305.296 277.667 303.611 266.31C301.926 254.953 293.663 247.499 285.404 249.216C277.145 250.934 271.524 261.274 273.209 272.631Z" stroke="#D1D4D8" stroke-width="3"/>
<path d="M270.91 268.971L256.91 270.971" stroke="#D1D4D8" stroke-width="3" stroke-linecap="round"/>
<path d="M270.91 313.971C267.819 318.764 260.092 322.282 253.91 313.971" stroke="#D1D4D8" stroke-width="3" stroke-linecap="round"/>
<path d="M264.91 285.971C269.181 295.243 270.544 299.88 266.454 302.971" stroke="#D1D4D8" stroke-width="3" stroke-linecap="round"/>
<path d="M289.613 280.695C290 282.897 292.098 284.368 294.3 283.981C296.501 283.595 297.973 281.496 297.586 279.294C297.199 277.093 295.101 275.621 292.899 276.008C290.697 276.395 289.226 278.493 289.613 280.695Z" fill="#D1D4D8" stroke="#D1D4D8" stroke-width="3"/>
<path d="M243.29 282.073C243.677 284.275 245.776 285.746 247.977 285.359C250.179 284.972 251.651 282.874 251.264 280.672C250.877 278.471 248.779 276.999 246.577 277.386C244.375 277.773 242.904 279.871 243.29 282.073Z" fill="#D1D4D8" stroke="#D1D4D8" stroke-width="3"/>
<path d="M202.645 280.825C203.179 281.548 204.413 283.215 205.069 284.103" stroke="#D1D4D8" stroke-width="3" stroke-linecap="round"/>
<path d="M297.939 242.971C310.902 270.386 312.311 292.717 285.279 320.681C258.246 348.645 229.267 322.418 218.156 305.809L210.91 295.043" stroke="#D1D4D8" stroke-width="3" stroke-linecap="round"/>
<path d="M218.809 269.511L206.843 269.915" stroke="#D1D4D8" stroke-width="3" stroke-linecap="round"/>
<path d="M348.922 409.971C358.095 420.565 368.999 459.826 340.91 486.971" stroke="#D1D4D8" stroke-width="3" stroke-linecap="round"/>
<path d="M333.41 377.471C333.41 349.471 296.778 338.628 273.34 342.734C266.533 347.817 249.16 354.933 234.129 342.734C222.42 344.073 197.042 350.285 189.2 364.415C169.322 397.331 158.975 484.037 221.876 507.319" stroke="#D1D4D8" stroke-width="3" stroke-linecap="round"/>
<path d="M222.91 409.971C230.934 422.503 233.674 441.372 232.981 453.288C232.958 453.687 233.419 453.936 233.739 453.698C251.902 440.158 293.349 442.697 303.02 449.719C310.878 455.423 305.153 463.186 300.513 468.14C287.726 481.786 268.138 495.015 255.41 500.971" stroke="#D1D4D8" stroke-width="3" stroke-linecap="round"/>
<path d="M351.096 415.884L351.098 415.92C352.255 412.262 353.483 407.536 354.066 403.067C354.459 400.049 354.546 397.241 354.166 394.993C353.781 392.718 352.973 391.297 351.837 390.61C345.481 386.764 338.008 386.283 335.13 386.521C333.47 386.715 331.508 387.025 329.8 388.148C328.159 389.227 326.579 391.177 325.965 395.035C324.597 403.632 320.596 412.61 319.121 415.38C318.563 416.702 318.038 418.244 317.719 419.715C317.387 421.248 317.319 422.532 317.532 423.391C317.633 423.798 317.778 424.032 317.913 424.165C318.034 424.284 318.228 424.406 318.605 424.452C319.461 424.557 321.067 424.242 323.775 422.791L323.848 422.751L323.926 422.72C325.092 422.253 326.945 420.972 329.088 419.041C331.193 417.144 333.46 414.728 335.455 412.127L335.455 412.127C337.917 408.919 341.332 407.98 344.286 408.326C345.747 408.497 347.117 408.983 348.235 409.678C349.335 410.361 350.294 411.313 350.764 412.48L350.85 412.695L350.868 412.925L351.096 415.884Z" fill="#D1D4D8" stroke="#D1D4D8" stroke-width="3"/>
<path d="M332.91 379.057C335.412 378.687 338.437 379.438 340.21 382.54C340.593 383.209 340.843 384.012 340.91 384.971" stroke="#D1D4D8" stroke-width="3" stroke-linecap="round"/>
<path d="M320.644 412.971C318.167 411.277 317.036 408.737 314.913 404.412C312.791 398.575 311.561 395.188 310.243 390.303C309.96 388.735 308.947 384.476 312.791 384.033C316.187 383.641 316.611 386.384 317.036 388.344C318.309 395.188 323.946 393.964 323.946 389.261C323.946 384.557 323.946 380.793 322.508 375.152C321.75 372.181 319.815 365.971 326.777 365.971C331.778 365.971 332.174 370.552 332.91 378.39" stroke="#D1D4D8" stroke-width="3" stroke-linecap="round"/>
<path d="M348.91 438.971C337.223 458.434 327.936 453.239 312.91 462.971" stroke="#D1D4D8" stroke-width="3" stroke-linecap="round"/>
<path d="M297.91 440.971C299.295 433.538 306.217 428.936 309.333 415.486C310.404 410.866 311.756 406.638 315.91 406.991" stroke="#D1D4D8" stroke-width="3" stroke-linecap="round"/>
<path d="M451.91 718.515C455.901 732.059 467.712 758.244 483.035 754.632C498.358 751.021 521.342 738.078 530.919 732.059C540.496 724.534 547.679 711.291 499.794 718.515C496.602 718.515 490.218 715.806 490.218 704.971" stroke="#D1D4D8" stroke-width="3" stroke-linecap="round"/>
<path d="M169.745 554.07C148.611 559.798 125.716 593.057 116.91 608.971C130.119 607.379 160.058 598.945 174.147 577.94C188.237 556.934 177.083 553.274 169.745 554.07Z" fill="#D1D4D8" stroke="#D1D4D8" stroke-width="3"/>
<path d="M160.186 498.124C138.989 500.297 123.743 553.456 116.91 577.971C132.095 565.363 162.008 540.148 169.296 531.744C182.962 515.984 180.685 496.022 160.186 498.124Z" fill="#D1D4D8" stroke="#D1D4D8" stroke-width="3"/>
<path d="M94.8836 481.127C83.3343 499.926 108.36 528.172 119.91 546.971C119.91 535.134 119.91 510.37 119.91 499.926C119.91 483.216 103.223 467.553 94.8836 481.127Z" fill="#D1D4D8" stroke="#D1D4D8" stroke-width="3"/>
<path d="M119.91 587.971C104.203 565.99 70.646 527.89 62.0783 551.336C51.3687 580.644 117.768 587.971 119.91 587.971Z" fill="#D1D4D8" stroke="#D1D4D8" stroke-width="3"/>
<path d="M119.91 617.971L116.91 537.971" stroke="#D1D4D8" stroke-width="3" stroke-linecap="round"/>
<path d="M95.7359 684.118C101.145 671.169 109.195 637.939 110.877 621.971H133.59C134.599 641.651 144.945 669.876 149.993 684.118C165.134 717.781 152.096 739.36 142.422 744.971H105.83C81.8562 737.202 88.1647 702.244 95.7359 684.118Z" stroke="#D1D4D8" stroke-width="3"/>
<path d="M229.91 425.971C231.479 419.444 234.145 404.108 232.263 394.971" stroke="#D1D4D8" stroke-width="3" stroke-linecap="round"/>
<path d="M337.91 425.971C341.747 423.6 352.297 418.86 349.419 409.971" stroke="#D1D4D8" stroke-width="3" stroke-linecap="round"/>
<path d="M340.91 434.971C343.243 434.082 347.91 430.971 349.91 428.971" stroke="#D1D4D8" stroke-width="3" stroke-linecap="round"/>
<path d="M327.91 491.471C332.243 481.637 334.91 473.471 337.41 452.471" stroke="#D1D4D8" stroke-width="3" stroke-linecap="round"/>
<path d="M454.489 531.973C424.144 474.178 339.584 485.628 315.91 498.074C375.961 504.238 391.242 546 393.663 565.481C402.702 642.758 426.483 688.052 437.244 701.04C446.121 707.534 484.486 707.07 486.474 691.299C493.738 633.666 471.963 565.254 454.489 531.973Z" fill="#D1D4D8" stroke="#D1D4D8" stroke-width="3"/>
<path d="M514.998 788.042C516.456 778.552 486.457 782.194 469.233 785.565C467.743 785.857 466.385 786.812 466.145 788.311C465.64 791.469 467.217 794.465 468.747 796.367C469.463 797.256 470.557 797.701 471.696 797.76C486.563 798.53 513.53 797.59 514.998 788.042Z" fill="#D1D4D8" stroke="#D1D4D8" stroke-width="3"/>
<path d="M11.5283 113.322C5.2484 117.784 -3.20798 130.179 16.0976 136.523C30.8218 141.361 43.3087 138.915 47.6227 138.814" stroke="#D1D4D8" stroke-width="3" stroke-linecap="round"/>
<path d="M68.7868 143.064C46.9318 145.217 20.8165 120.203 8.70573 105.325C7.8969 104.332 8.25831 102.862 9.38785 102.257C24.5002 94.1676 36.0402 78.211 40.9479 69.375C41.5552 68.2817 43.0059 67.9636 43.9956 68.7283C79.4229 96.1004 85.0303 118.927 83.8251 127.531C83.8108 127.633 83.7892 127.725 83.7571 127.823C82.3994 131.974 77.6672 140.557 69.1095 143.003C69.0042 143.033 68.8958 143.054 68.7868 143.064Z" stroke="#D1D4D8" stroke-width="3" stroke-linecap="round"/>
<path d="M41.6873 66.9576C41.6874 66.9575 41.6881 66.9597 41.689 66.9646C41.6877 66.9602 41.6872 66.9577 41.6873 66.9576ZM40.5585 67.5891C41.0593 67.3874 41.4304 67.2888 41.6855 67.2523C41.6578 67.5085 41.5719 67.8828 41.3874 68.3902C40.9439 69.61 40.0554 71.2671 38.7401 73.2666C36.1234 77.2446 31.9867 82.3245 26.9458 87.5405C21.9049 92.7565 16.9692 97.0641 13.0829 99.8151C11.1294 101.198 9.50362 102.142 8.29964 102.627C7.79886 102.829 7.42776 102.928 7.17266 102.964C7.20039 102.708 7.28629 102.334 7.47077 101.826C7.91429 100.606 8.80278 98.9493 10.1181 96.9498C12.7348 92.9718 16.8714 87.8919 21.9123 82.6759C26.9532 77.4599 31.8889 73.1523 35.7753 70.4013C37.7288 69.0185 39.3546 68.074 40.5585 67.5891ZM6.87819 102.976C6.8783 102.976 6.88075 102.976 6.88524 102.977C6.88033 102.977 6.87809 102.976 6.87819 102.976ZM7.17088 103.259C7.17077 103.259 7.17011 103.257 7.16918 103.252C7.17052 103.256 7.17098 103.259 7.17088 103.259ZM41.973 67.2391C41.9779 67.2398 41.9801 67.2404 41.98 67.2405C41.9799 67.2406 41.9774 67.2402 41.973 67.2391Z" fill="#D1D4D8" stroke="#D1D4D8" stroke-width="3"/>
<path d="M609.979 334.971C601.812 362.971 586.779 421.571 591.979 431.971" stroke="#D1D4D8" stroke-width="3" stroke-linecap="round"/>
<path d="M595.259 342.628L608.447 334.385C609.287 333.86 610.386 334.03 611.029 334.784L620.282 345.646C620.929 346.406 622.036 346.572 622.878 346.037L654.41 325.971C659.41 321.971 659.327 318.342 657.41 315.971C654.093 311.868 644.607 310.364 638.315 310.428C637.471 310.437 636.748 311.011 636.506 311.819L634.191 319.535C634.014 320.126 633.568 320.606 632.99 320.821C616.245 327.045 605.578 323.063 601.409 317.669C601.073 317.235 600.981 316.668 601.107 316.133L602.389 310.687C602.665 309.512 601.849 308.361 600.644 308.291C592.061 307.79 578.41 308.926 578.41 316.971C578.41 325.179 587.401 336.636 592.803 342.332C593.444 343.008 594.47 343.121 595.259 342.628Z" fill="#D1D4D8" stroke="#D1D4D8" stroke-width="3" stroke-linecap="round"/>
<path d="M555.411 405.971C559.411 363.171 572.245 327.804 578.411 315.971C580.411 311.471 585.211 308.371 590.411 307.971C596.911 307.471 646.594 307.545 658.911 313.971C670.411 319.971 668.411 319.971 665.411 353.471C663.011 380.271 653.411 415.971 648.911 430.471C645.911 438.471 627.811 445.271 609.411 438.471C586.411 429.971 593.411 434.471 572.411 430.471C555.611 427.271 554.71 413.471 555.411 405.971Z" stroke="#D1D4D8" stroke-width="3"/>
<path d="M667.414 333.471C664.08 329.971 656.514 326.471 652.914 340.471C648.414 357.971 638.334 397.057 637.412 401.971C635.912 409.971 635.413 430.971 643.413 418.471C649.813 408.471 657.247 366.471 659.413 346.471" stroke="#D1D4D8" stroke-width="3" stroke-linecap="round"/>
<mask id="path-52-inside-1_188_331" fill="white">
<ellipse cx="613.48" cy="347.471" rx="2.50085" ry="4" transform="rotate(13.2587 613.48 347.471)"/>
</mask>
<ellipse cx="613.48" cy="347.471" rx="2.50085" ry="4" transform="rotate(13.2587 613.48 347.471)" fill="#D1D4D8"/>
<path d="M612.994 347.356C612.849 347.972 612.589 348.352 612.441 348.498C612.372 348.566 612.387 348.526 612.516 348.477C612.662 348.422 612.929 348.368 613.25 348.444L611.874 354.284C613.916 354.765 615.633 353.781 616.663 352.761C617.729 351.705 618.472 350.267 618.834 348.732L612.994 347.356ZM613.25 348.444C613.572 348.52 613.787 348.687 613.893 348.802C613.986 348.903 613.982 348.945 613.95 348.854C613.884 348.657 613.821 348.201 613.966 347.585L608.125 346.209C607.764 347.744 607.787 349.363 608.269 350.783C608.735 352.156 609.832 353.803 611.874 354.284L613.25 348.444ZM613.966 347.585C614.11 346.97 614.371 346.59 614.518 346.444C614.587 346.376 614.573 346.415 614.444 346.464C614.298 346.52 614.031 346.573 613.709 346.498L615.085 340.657C613.043 340.176 611.326 341.16 610.296 342.181C609.23 343.236 608.487 344.674 608.125 346.209L613.966 347.585ZM613.709 346.498C613.387 346.422 613.172 346.255 613.066 346.14C612.973 346.038 612.978 345.996 613.009 346.088C613.076 346.285 613.139 346.741 612.994 347.356L618.834 348.732C619.196 347.197 619.173 345.579 618.69 344.159C618.224 342.786 617.127 341.139 615.085 340.657L613.709 346.498Z" fill="#D1D4D8" mask="url(#path-52-inside-1_188_331)"/>
<mask id="path-54-inside-2_188_331" fill="white">
<ellipse cx="607.831" cy="367.938" rx="2.50085" ry="4" transform="rotate(13.2587 607.831 367.938)"/>
</mask>
<ellipse cx="607.831" cy="367.938" rx="2.50085" ry="4" transform="rotate(13.2587 607.831 367.938)" fill="#D1D4D8"/>
<path d="M607.345 367.823C607.2 368.438 606.94 368.819 606.793 368.965C606.724 369.033 606.738 368.993 606.867 368.944C607.013 368.889 607.28 368.835 607.602 368.911L606.226 374.751C608.268 375.232 609.985 374.248 611.015 373.228C612.08 372.172 612.824 370.734 613.185 369.199L607.345 367.823ZM607.602 368.911C607.924 368.987 608.139 369.154 608.245 369.269C608.338 369.37 608.333 369.412 608.302 369.321C608.235 369.124 608.172 368.667 608.317 368.052L602.477 366.676C602.115 368.211 602.138 369.83 602.621 371.25C603.087 372.623 604.184 374.27 606.226 374.751L607.602 368.911ZM608.317 368.052C608.462 367.437 608.722 367.057 608.87 366.91C608.939 366.842 608.924 366.882 608.795 366.931C608.649 366.987 608.382 367.04 608.061 366.964L609.437 361.124C607.395 360.643 605.678 361.627 604.648 362.648C603.582 363.703 602.839 365.141 602.477 366.676L608.317 368.052ZM608.061 366.964C607.739 366.888 607.524 366.722 607.418 366.607C607.324 366.505 607.329 366.463 607.36 366.555C607.427 366.751 607.49 367.208 607.345 367.823L613.185 369.199C613.547 367.664 613.524 366.046 613.042 364.626C612.576 363.253 611.478 361.605 609.437 361.124L608.061 366.964Z" fill="#D1D4D8" mask="url(#path-54-inside-2_188_331)"/>
<mask id="path-56-inside-3_188_331" fill="white">
<ellipse cx="602.831" cy="391.938" rx="2.50085" ry="4" transform="rotate(13.2587 602.831 391.938)"/>
</mask>
<ellipse cx="602.831" cy="391.938" rx="2.50085" ry="4" transform="rotate(13.2587 602.831 391.938)" fill="#D1D4D8"/>
<path d="M602.345 391.823C602.2 392.438 601.94 392.819 601.793 392.965C601.724 393.033 601.738 392.993 601.867 392.944C602.013 392.889 602.28 392.835 602.602 392.911L601.226 398.751C603.268 399.232 604.985 398.248 606.015 397.228C607.08 396.172 607.824 394.734 608.185 393.199L602.345 391.823ZM602.602 392.911C602.924 392.987 603.139 393.154 603.245 393.269C603.338 393.37 603.333 393.412 603.302 393.321C603.235 393.124 603.172 392.667 603.317 392.052L597.477 390.676C597.115 392.211 597.138 393.83 597.621 395.25C598.087 396.623 599.184 398.27 601.226 398.751L602.602 392.911ZM603.317 392.052C603.462 391.437 603.722 391.057 603.87 390.91C603.939 390.842 603.924 390.882 603.795 390.931C603.649 390.987 603.382 391.04 603.061 390.964L604.437 385.124C602.395 384.643 600.678 385.627 599.648 386.648C598.582 387.703 597.839 389.141 597.477 390.676L603.317 392.052ZM603.061 390.964C602.739 390.888 602.524 390.722 602.418 390.607C602.324 390.505 602.329 390.463 602.36 390.555C602.427 390.751 602.49 391.208 602.345 391.823L608.185 393.199C608.547 391.664 608.524 390.046 608.042 388.626C607.576 387.253 606.478 385.605 604.437 385.124L603.061 390.964Z" fill="#D1D4D8" mask="url(#path-56-inside-3_188_331)"/>
<mask id="path-58-inside-4_188_331" fill="white">
<ellipse cx="598.831" cy="416.938" rx="2.50085" ry="4" transform="rotate(13.2587 598.831 416.938)"/>
</mask>
<ellipse cx="598.831" cy="416.938" rx="2.50085" ry="4" transform="rotate(13.2587 598.831 416.938)" fill="#D1D4D8"/>
<path d="M598.345 416.823C598.2 417.438 597.94 417.819 597.793 417.965C597.724 418.033 597.738 417.993 597.867 417.944C598.013 417.889 598.28 417.835 598.602 417.911L597.226 423.751C599.268 424.232 600.985 423.248 602.015 422.228C603.08 421.172 603.824 419.734 604.185 418.199L598.345 416.823ZM598.602 417.911C598.924 417.987 599.139 418.154 599.245 418.269C599.338 418.37 599.333 418.412 599.302 418.321C599.235 418.124 599.172 417.667 599.317 417.052L593.477 415.676C593.115 417.211 593.138 418.83 593.621 420.25C594.087 421.623 595.184 423.27 597.226 423.751L598.602 417.911ZM599.317 417.052C599.462 416.437 599.722 416.057 599.87 415.91C599.939 415.842 599.924 415.882 599.795 415.931C599.649 415.987 599.382 416.04 599.061 415.964L600.437 410.124C598.395 409.643 596.678 410.627 595.648 411.648C594.582 412.703 593.839 414.141 593.477 415.676L599.317 417.052ZM599.061 415.964C598.739 415.888 598.524 415.722 598.418 415.607C598.324 415.505 598.329 415.463 598.36 415.555C598.427 415.751 598.49 416.208 598.345 416.823L604.185 418.199C604.547 416.664 604.524 415.046 604.042 413.626C603.576 412.253 602.478 410.605 600.437 410.124L599.061 415.964Z" fill="#D1D4D8" mask="url(#path-58-inside-4_188_331)"/>
<path d="M356.41 379.971L362.41 353.471" stroke="#D1D4D8" stroke-width="3" stroke-linecap="round"/>
<path d="M364.41 388.971L403.41 367.471" stroke="#D1D4D8" stroke-width="3" stroke-linecap="round"/>
<path d="M367.91 400.971H393.41" stroke="#D1D4D8" stroke-width="3" stroke-linecap="round"/>
<path d="M359.91 232.471C372.743 229.138 401.81 227.971 415.41 249.971C432.41 277.471 433.41 285.471 454.91 280.471" stroke="#D1D4D8" stroke-width="3" stroke-linecap="round"/>
<path d="M470.139 218.664C485.305 220.497 519.839 218.164 536.639 194.164C553.439 170.164 566.972 168.497 571.639 170.664" stroke="#D1D4D8" stroke-width="3" stroke-linecap="round"/>
<path d="M213.91 143.971C215.243 133.971 212.71 111.571 191.91 101.971" stroke="#D1D4D8" stroke-width="3" stroke-linecap="round"/>
<path d="M21.4102 289.471C23.5768 277.471 36.2102 254.271 69.4102 257.471C102.61 260.671 121.243 247.471 126.41 240.471" stroke="#D1D4D8" stroke-width="3" stroke-linecap="round"/>
<path d="M148.817 145.971C143.471 147.87 134.509 154.343 141.431 165.039C148.302 175.655 154.493 166.707 156.786 160.786C156.82 160.698 156.841 160.609 156.85 160.514C157.168 156.976 156.38 150.596 150.716 152.327C144.976 154.08 147.058 158.61 148.817 160.655" stroke="#D1D4D8" stroke-width="3" stroke-linecap="round"/>
<path d="M390.817 118.971C385.471 120.87 376.509 127.343 383.431 138.039C390.302 148.655 396.493 139.707 398.786 133.786C398.82 133.698 398.841 133.609 398.85 133.514C399.168 129.976 398.38 123.596 392.716 125.327C386.976 127.08 389.058 131.61 390.817 133.655" stroke="#D1D4D8" stroke-width="3" stroke-linecap="round"/>
</svg>
