<svg width="1315" height="1112" viewBox="0 0 1315 1112" fill="none" xmlns="http://www.w3.org/2000/svg">
<path d="M68.2215 782.113L84.1609 847.951C84.5928 849.735 86.8649 850.72 89.2662 850.139L234.308 815.024C236.71 814.442 238.28 812.528 237.848 810.743L221.855 744.685" stroke="#D1D4D8" stroke-width="3" stroke-miterlimit="10" stroke-linecap="round"/>
<path d="M114.454 736.242L113.949 759.89C113.947 759.976 113.956 760.062 113.977 760.146L115.882 768.018C115.985 768.441 115.809 768.879 115.432 769.098C100.008 778.061 69.2526 782.567 60.544 782.375C60.1066 782.366 59.7436 782.055 59.6407 781.63L57.7771 773.933C57.7303 773.739 57.7422 773.536 57.8114 773.35L67.6847 746.727C67.8004 746.415 68.0637 746.181 68.387 746.103L113.219 735.249C113.857 735.095 114.468 735.586 114.454 736.242Z" fill="#D1D4D8"/>
<path d="M209.312 712.564L226.115 732.928C226.211 733.045 226.28 733.182 226.315 733.329L228.012 740.336C228.065 740.556 228.059 740.773 227.927 740.956C224.001 746.388 177.98 757.169 172.866 756.277C172.622 756.234 172.472 756.022 172.414 755.781L170.209 746.676L161.959 724.602C161.749 724.04 162.078 723.421 162.661 723.28L208.305 712.229C208.677 712.139 209.068 712.269 209.312 712.564Z" fill="#D1D4D8"/>
<path d="M164.031 726.287L171.431 745.515L173.359 753.479C173.455 753.877 173.318 754.283 172.975 754.505C162.81 761.087 123.327 771.574 114.756 767.741C114.502 767.628 114.345 767.401 114.28 767.131L112.535 759.926C112.512 759.83 112.503 759.732 112.509 759.634L113.703 738.307C113.728 737.867 114.038 737.494 114.466 737.391L162.862 725.674C163.351 725.556 163.851 725.818 164.031 726.287Z" stroke="#D1D4D8" stroke-width="3" stroke-linecap="round"/>
<rect x="135.075" y="783.852" width="71.0363" height="38.4359" rx="8.5" transform="rotate(-13.6095 135.075 783.852)" stroke="#D1D4D8" stroke-width="3"/>
<path d="M90.6907 808.886C88.6912 800.627 93.7655 792.311 102.024 790.311V790.311C110.283 788.312 118.599 793.386 120.599 801.645L129.955 840.289L100.046 847.53L90.6907 808.886Z" fill="#D1D4D8"/>
<path d="M854.465 232.726C828.695 196.018 833.699 165.995 839.423 155.572C820.201 188.064 786.109 193.843 771.465 192.671L778.18 211.716C759.8 224.952 739.884 201.194 732.224 187.66C720.406 166.78 728.591 127.846 780.279 111.721C831.967 95.5965 878.912 118.925 895.924 132.604C923.482 104.692 972.811 108.872 994.03 114.452C1016 120.274 1069.62 145.273 1076.03 204.041C1084.69 283.331 1001.57 310.388 985.897 311.148C931.727 313.777 886.676 278.611 854.465 232.726Z" fill="#D1D4D8"/>
<path d="M787.757 261.734C792.523 267.739 798.195 271.949 803.413 273.97C808.69 276.015 813.033 275.683 815.78 273.505C818.526 271.327 819.837 267.173 819.045 261.569C818.263 256.03 815.454 249.549 810.688 243.544C805.924 237.539 800.251 233.329 795.033 231.308C789.755 229.262 785.412 229.594 782.665 231.773C779.92 233.952 778.608 238.104 779.4 243.708C780.182 249.248 782.992 255.729 787.757 261.734Z" stroke="#D1D4D8" stroke-width="3"/>
<path d="M803.353 260.261C801.419 261.794 797.615 260.218 794.855 256.74C792.096 253.263 791.426 249.2 793.359 247.666C795.292 246.133 799.096 247.709 801.856 251.187C804.615 254.665 805.286 258.728 803.353 260.261Z" fill="#D1D4D8"/>
<path d="M852.482 229.553L814.831 246.966" stroke="#D1D4D8" stroke-width="3" stroke-linecap="round"/>
<path d="M774.635 214.665C775.134 222.667 773.862 241.519 768.733 254.62C763.487 268.02 768.389 278.41 778.73 281.965L794.909 287.609C813.158 331.567 838.51 357.283 896.763 342.435" stroke="#D1D4D8" stroke-width="3" stroke-linecap="round"/>
<path d="M858.927 275.534C857.844 276.393 856.27 276.212 855.411 275.129C854.553 274.047 854.734 272.473 855.817 271.614C856.9 270.755 858.474 270.936 859.333 272.019C860.192 273.101 860.01 274.675 858.927 275.534Z" fill="#D1D4D8"/>
<path d="M878.172 290.925C876.873 291.956 875.122 291.914 874.264 290.831C873.405 289.748 873.763 288.036 875.062 287.005C876.362 285.973 878.112 286.015 878.971 287.098C879.829 288.18 879.471 289.893 878.172 290.925Z" fill="#D1D4D8"/>
<path d="M857.346 298.506C856.046 299.537 854.297 299.495 853.437 298.412C852.579 297.33 852.936 295.617 854.236 294.586C855.535 293.554 857.286 293.596 858.144 294.679C859.003 295.761 858.646 297.474 857.346 298.506Z" fill="#D1D4D8"/>
<path d="M1011.46 313.218L996.475 355.356C995.989 356.725 994.212 357.071 993.248 355.984L965.991 325.271C964.98 324.132 963.107 324.577 962.718 326.05L954.336 357.732" stroke="#D1D4D8" stroke-width="3" stroke-linecap="round"/>
<path d="M937.387 327.462C937.466 331.425 937.908 337.692 938.946 344.68C940.372 354.273 942.924 365.227 947.211 373.454" stroke="#D1D4D8" stroke-width="3" stroke-linecap="round"/>
<path d="M974.183 383.4C971.884 384.688 968.767 383.496 967.222 380.738C965.677 377.979 966.29 374.699 968.59 373.411C970.889 372.123 974.006 373.315 975.551 376.074C977.096 378.833 976.483 382.113 974.183 383.4Z" fill="#D1D4D8"/>
<path d="M981.871 410.807C979.571 412.094 976.454 410.903 974.91 408.144C973.365 405.385 973.977 402.105 976.277 400.817C978.577 399.53 981.693 400.721 983.238 403.48C984.783 406.239 984.17 409.519 981.871 410.807Z" fill="#D1D4D8"/>
<path d="M837.869 307.383C840.262 310.298 842.723 317.756 833.421 324.272" stroke="#D1D4D8" stroke-width="3" stroke-linecap="round"/>
<path d="M1019.5 305.278C1040 312.778 1086.5 342.078 1108.5 399.278C1136 470.778 1192.5 471.278 1199 543.778" stroke="#D1D4D8" stroke-width="3" stroke-linecap="round"/>
<path d="M871.001 517.778C859.835 525.945 841.301 543.678 856.501 549.278" stroke="#D1D4D8" stroke-width="3" stroke-linecap="round"/>
<path d="M865.5 541.278C863 542.278 852 554.778 862.5 556.278C864.5 556.564 870.8 553.878 874 548.278" stroke="#D1D4D8" stroke-width="3" stroke-linecap="round"/>
<path d="M864 556.278C866.833 559.778 875.3 564.678 886.5 556.278" stroke="#D1D4D8" stroke-width="3" stroke-linecap="round"/>
<path d="M876.5 560.778C878.667 564.445 886.6 570.278 901 564.278C919 556.778 933.5 543.778 935.5 542.278" stroke="#D1D4D8" stroke-width="3" stroke-linecap="round"/>
<path d="M871.497 517.278C861.664 516.278 841.797 511.978 840.997 502.778C839.997 491.278 899 502.778 908.998 496.278" stroke="#D1D4D8" stroke-width="3" stroke-linecap="round"/>
<path d="M755 505.778C748.5 505.778 743.199 513.513 748.5 519.778C754 526.278 750.5 533.778 748.5 533.778C746.5 533.778 740.5 534.278 734.5 521.778" stroke="#D1D4D8" stroke-width="3" stroke-linecap="round"/>
<path d="M749 533.278C748.333 536.778 745.1 542.978 737.5 539.778C729.9 536.578 725.667 528.778 724.5 525.278" stroke="#D1D4D8" stroke-width="3" stroke-linecap="round"/>
<path d="M776.001 494.278C775.001 494.612 768.001 493.778 748.001 487.778C723.001 480.278 713.001 503.778 710.001 511.778C707.001 519.778 706.001 531.778 718.501 540.278C722.168 542.445 730.801 545.278 736.001 539.278" stroke="#D1D4D8" stroke-width="3" stroke-linecap="round"/>
<path d="M753 515.26C770.047 507.907 812.914 498.017 856 521.278" stroke="#D1D4D8" stroke-width="3" stroke-linecap="round"/>
<path d="M917 566.778C928.333 584.445 934.5 609.778 924.5 642.278" stroke="#D1D4D8" stroke-width="3" stroke-linecap="round"/>
<path d="M708.493 536.778C703.992 540.778 671.999 583.278 708.494 638.778" stroke="#D1D4D8" stroke-width="3" stroke-linecap="round"/>
<ellipse cx="771.81" cy="601.957" rx="10.2752" ry="22.5264" transform="rotate(40.8598 771.81 601.957)" fill="#D1D4D8"/>
<path d="M770.012 634.835C758.334 648.336 745.979 658.936 735.485 665.176C730.231 668.3 725.518 670.286 721.639 671.036C717.739 671.791 714.95 671.254 713.187 669.728C711.423 668.203 710.49 665.52 710.675 661.552C710.859 657.606 712.146 652.656 714.481 647.007C719.144 635.724 727.854 621.971 739.532 608.47C751.211 594.969 763.566 584.369 774.06 578.129C779.314 575.005 784.027 573.019 787.905 572.269C791.805 571.514 794.595 572.051 796.358 573.577C798.121 575.102 799.054 577.785 798.869 581.753C798.685 585.699 797.399 590.649 795.064 596.298C790.4 607.581 781.691 621.334 770.012 634.835Z" stroke="#D1D4D8" stroke-width="3"/>
<path d="M712.875 668.54L814.229 770.59C815.402 771.772 817.072 772.303 818.698 771.943C852.551 764.441 916.664 731.985 924.586 656.214C924.781 654.34 923.864 652.505 922.259 651.517L797.121 574.48" stroke="#D1D4D8" stroke-width="3" stroke-linecap="round"/>
<path d="M621.875 741.48L603.875 727.48" stroke="#D1D4D8" stroke-width="3" stroke-linecap="round"/>
<path d="M618.875 750.48L584.875 769.48" stroke="#D1D4D8" stroke-width="3" stroke-linecap="round"/>
<path d="M758.01 714.48L626.503 738.812C624.914 739.106 623.565 740.149 622.882 741.613L620.562 746.582C618.929 750.081 621.709 754.032 625.554 753.676L780.875 739.28" stroke="#D1D4D8" stroke-width="3" stroke-linecap="round"/>
<ellipse cx="591.504" cy="750.299" rx="7.88353" ry="27.8846" transform="rotate(29.2522 591.504 750.299)" fill="#D1D4D8"/>
<path d="M997.687 379.542C1004.84 397.524 1007.27 475.272 942.504 489.878L924.1 493.402" stroke="#D1D4D8" stroke-width="3" stroke-linecap="round"/>
<path d="M1110.3 486.622C1099.12 497.286 1028.68 537.047 987.123 535.55" stroke="#D1D4D8" stroke-width="3" stroke-linecap="round"/>
<path d="M950.209 506.082C963.121 520.141 975.543 529.56 987.125 535.55C974.467 541.105 963.61 547.18 942.669 534.164C927.855 524.957 921.793 506.23 923.776 493.926" stroke="#D1D4D8" stroke-width="3" stroke-linecap="round"/>
<path d="M793.999 505.778C788.999 497.278 781.599 479.478 791.999 476.278C804.999 472.278 916.999 434.278 934.999 365.278" stroke="#D1D4D8" stroke-width="3" stroke-linecap="round"/>
<path d="M897.5 473.278C906.833 468.112 930.7 460.878 951.5 473.278" stroke="#D1D4D8" stroke-width="3" stroke-linecap="round"/>
<path d="M1199.38 977.709C1186.9 993.897 1143.81 1019.66 1137.66 1000.33C1134.84 991.481 1141.04 987.277 1153.47 978.462C1166.41 969.284 1168.42 962.289 1164.55 957.278C1162.45 954.193 1157.41 946.553 1155.7 943.578" stroke="#D1D4D8" stroke-width="3" stroke-linecap="round"/>
<path d="M1058.27 917.171C1065.36 939.988 1046.35 955.186 1027.01 957.133C1002.83 959.563 988.056 955.204 992.459 946.758C995.989 940.005 1007.51 939.972 1013.43 940.196C1024.43 940.603 1029.28 929.458 1021.45 914.574" stroke="#D1D4D8" stroke-width="3" stroke-linecap="round"/>
<path d="M1092.77 949.958C1092.83 938.917 1065.1 944.172 1050.85 947.483C1047.67 954.295 1036.24 956.239 1035.05 957.954C1051.75 959.289 1092.7 960.999 1092.77 949.958Z" fill="#D1D4D8"/>
<path d="M1208.75 1027.62C1219.72 1021.53 1184.06 1009.2 1164.86 1003.81C1160.99 1007.28 1149.49 1007.48 1144.21 1007.14C1161.15 1016.51 1197.77 1033.71 1208.75 1027.62Z" fill="#D1D4D8"/>
<path d="M1031.5 559.278C1028.5 551.278 1026.08 544.778 1026.08 536.278" stroke="#D1D4D8" stroke-width="3" stroke-linecap="round"/>
<path d="M1031.15 551.591C1001.6 633.387 955.683 858.404 1007.77 889.29C1059.87 920.18 1091.78 899.748 1101.23 885.671C1098.4 907.128 1104.4 946.502 1151.08 932.35C1197.75 918.195 1211.2 872.922 1212.09 852.055L1201 539.778C1176.5 537.778 1151.1 557.178 1122 564.278C1065.23 578.13 1048.5 569.278 1031.15 551.591Z" fill="#D1D4D8"/>
<path d="M557 744.288C489.167 743.621 340.2 776.788 287 914.788" stroke="#D1D4D8" stroke-width="3" stroke-linecap="round" stroke-dasharray="10 20"/>
<path d="M557 778.278C523.167 785.945 445.5 850.778 406 964.278" stroke="#D1D4D8" stroke-width="3" stroke-linecap="round" stroke-dasharray="10 20"/>
<path d="M549 761.788C503.667 764.455 378 829.278 339 957.778" stroke="#D1D4D8" stroke-width="3" stroke-linecap="round" stroke-dasharray="10 20"/>
<path d="M191 1070.78L140.5 867.278" stroke="#D1D4D8" stroke-width="3" stroke-linecap="round"/>
<path d="M190.5 854.778L243 1068.78" stroke="#D1D4D8" stroke-width="3" stroke-linecap="round"/>
<path d="M98.9493 706.278L90.441 668.605C90.1975 667.527 90.8746 666.455 91.9528 666.213L143.11 654.703C144.164 654.466 145.215 655.108 145.485 656.153L155 692.904" stroke="#D1D4D8" stroke-width="3" stroke-linecap="round"/>
<rect x="1.8032" y="730.666" width="265" height="165" rx="3.5" transform="rotate(-13.2158 1.8032 730.666)" stroke="#D1D4D8" stroke-width="3"/>
<path d="M329.5 1108.78H414" stroke="#D1D4D8" stroke-width="3" stroke-linecap="round"/>
<path d="M247 1086.78C258.333 1078.28 287.5 1065.28 299 1103.78" stroke="#D1D4D8" stroke-width="3" stroke-linecap="round"/>
<path d="M162.5 1109.78C165.667 1102.45 176.5 1089.68 200.5 1097.28" stroke="#D1D4D8" stroke-width="3" stroke-linecap="round"/>
<path d="M199 1101.28C205 1089.28 224.5 1071.78 255 1092.78" stroke="#D1D4D8" stroke-width="3" stroke-linecap="round"/>
</svg>
