<svg width="1339" height="1034" viewBox="0 0 1339 1034" fill="none" xmlns="http://www.w3.org/2000/svg">
<path d="M179.638 791.613L117.5 797.613L190.375 809.613L254.638 803.613L179.638 791.613Z" fill="#D1D4D8" stroke="#D1D4D8" stroke-width="3" stroke-linecap="round"/>
<path d="M100 796.781L191.613 810.66M100 796.781V927.063C100 927.283 100.143 927.477 100.353 927.541L191.613 955.613M100 796.781L176.5 792.113M191.613 810.66L281.512 803.154C281.783 803.131 282.023 803.329 282.051 803.6L295.454 930.675C295.48 930.926 295.316 931.157 295.071 931.214L191.613 955.613M191.613 810.66V955.613" stroke="#D1D4D8" stroke-width="3" stroke-linecap="round"/>
<path d="M289.97 1004.12C279.57 1017.72 315.97 1034.12 335.97 1029.62C313.97 1017.62 316.137 1008.12 316.97 1004.12C312.304 998.456 300.37 990.523 289.97 1004.12Z" fill="#D1D4D8" stroke="#D1D4D8" stroke-width="3" stroke-linecap="round"/>
<path d="M324.012 980.786C319.475 990.986 313.124 1013.13 324.012 1020.13C337.621 1028.87 342.157 1033.24 358.035 1031.06C373.912 1028.87 378.449 1026.68 369.376 1020.13C360.303 1013.57 351.51 1002.84 353.778 976.613" stroke="#D1D4D8" stroke-width="3" stroke-linecap="round"/>
<path d="M310.705 958.135C289.5 917.613 288.5 854.113 282.023 801.998C223.154 805.497 186.619 802.307 168.318 784.312C143.136 759.55 149.797 732.421 149.797 708.309C172.749 724.4 165.216 703.613 258 703.613C344.562 708.413 369.591 834.613 371.285 897.113C373.047 924.23 370.428 948.687 358.147 958.135C333.477 977.112 316.189 968.613 310.705 958.135Z" fill="#D1D4D8" stroke="#D1D4D8" stroke-width="3" stroke-linecap="round"/>
<path d="M215.5 537.389V545.308C215.522 545.303 215.543 545.298 215.565 545.293C216.645 545.052 218.009 544.901 219.548 544.825C222.637 544.672 226.616 544.81 230.843 545.231C238.594 546.003 247.476 547.754 253.31 550.59C264.889 528.328 266.07 512.601 263.143 501.457C260.575 491.676 254.786 485.197 249.592 480.793C249.503 513.739 228.016 531.999 215.5 537.389Z" fill="#D1D4D8" stroke="#D1D4D8" stroke-width="3"/>
<path d="M146.072 475.183L160.98 476.784C160.992 469.467 163.25 464.334 166.282 460.893C168.867 457.96 171.961 456.318 174.542 455.585C173.992 453.874 173.82 452.295 173.967 450.843C174.162 448.913 174.91 447.306 175.917 445.994C177.892 443.422 180.878 441.963 182.777 441.187L183.803 440.767L184.505 441.625C189.276 447.454 195.462 449.986 198.6 451.271C198.727 451.323 198.85 451.373 198.966 451.422C228.169 459.004 245.637 448.546 253.639 435.888L253.652 435.867L253.666 435.846C257.949 429.547 259.84 418.765 257.463 408.584C255.105 398.485 248.604 389.195 236.325 385.545L236.269 385.528L236.215 385.507C232.194 383.965 225.326 382.537 217.973 383.349C210.653 384.157 202.923 387.174 196.97 394.443L196.294 395.268L195.293 394.901C186.356 391.627 178.685 391.54 172.129 393.389C165.555 395.243 159.992 399.073 155.345 403.799C146.021 413.281 140.558 426.188 138.194 433.121L138.175 433.177L138.151 433.232L132.625 446.016L132.318 446.727L131.559 446.888C108.068 451.87 95.413 465.375 89.5926 479.984C83.7333 494.691 84.79 510.548 88.8448 520.081L87.4645 520.668L88.8448 520.081C90.7674 524.601 91.7939 526.825 92.981 528.569C94.1564 530.296 95.5129 531.59 98.2697 534.201L98.27 534.201L98.5228 534.44C98.5228 534.44 98.5229 534.441 98.5229 534.441C106.58 542.073 114.017 545.797 120.186 547.712C125.199 549.269 129.367 549.639 132.541 549.921C133.264 549.986 133.936 550.045 134.554 550.113C156.937 550.108 167.358 547.963 175.759 545.077L170.73 530.091C159.707 521.981 152.755 509.599 149.564 502.573C148.164 503.389 146.618 503.88 145.089 503.933C142.944 504.008 140.829 503.21 139.379 501.281C137.199 499.111 133.473 492.352 134.174 482.544C134.531 477.539 136.284 474.591 139.127 473.691C141.607 472.907 144.237 473.94 146.072 475.183Z" fill="#D1D4D8" stroke="#D1D4D8" stroke-width="3"/>
<path d="M161.357 479.274C163.369 490.631 173.231 498.085 183.088 496.368C192.945 494.651 199.655 484.31 197.643 472.953C195.631 461.596 185.769 454.142 175.912 455.859C166.055 457.576 159.345 467.917 161.357 479.274Z" stroke="#D1D4D8" stroke-width="3"/>
<path d="M214.299 479.274C215.985 490.631 224.247 498.085 232.506 496.368C240.765 494.651 246.386 484.31 244.701 472.953C243.015 461.596 234.753 454.142 226.494 455.859C218.235 457.576 212.614 467.917 214.299 479.274Z" stroke="#D1D4D8" stroke-width="3"/>
<path d="M212 475.613L198 477.613" stroke="#D1D4D8" stroke-width="3" stroke-linecap="round"/>
<path d="M212 520.613C208.909 525.407 201.182 528.925 195 520.613" stroke="#D1D4D8" stroke-width="3" stroke-linecap="round"/>
<path d="M206 492.613C210.27 501.886 211.633 506.522 207.544 509.613" stroke="#D1D4D8" stroke-width="3" stroke-linecap="round"/>
<path d="M230.701 487.335C231.087 489.537 233.186 491.008 235.388 490.621C237.589 490.235 239.061 488.136 238.674 485.934C238.287 483.733 236.189 482.261 233.987 482.648C231.785 483.035 230.314 485.133 230.701 487.335Z" fill="#D1D4D8" stroke="#D1D4D8" stroke-width="3"/>
<path d="M184.38 488.718C184.767 490.92 186.866 492.391 189.067 492.004C191.269 491.617 192.74 489.519 192.354 487.317C191.967 485.116 189.868 483.644 187.667 484.031C185.465 484.418 183.994 486.516 184.38 488.718Z" fill="#D1D4D8" stroke="#D1D4D8" stroke-width="3"/>
<path d="M143.732 487.469C144.267 488.192 145.501 489.859 146.157 490.746" stroke="#D1D4D8" stroke-width="3" stroke-linecap="round"/>
<path d="M239.029 449.613C251.992 477.029 253.401 499.359 226.368 527.323C199.336 555.288 170.357 529.061 159.246 512.451L152 501.685" stroke="#D1D4D8" stroke-width="3" stroke-linecap="round"/>
<path d="M159.896 476.152L147.931 476.557" stroke="#D1D4D8" stroke-width="3" stroke-linecap="round"/>
<path d="M290.012 616.613C299.185 627.208 310.089 666.469 282 693.613" stroke="#D1D4D8" stroke-width="3" stroke-linecap="round"/>
<path d="M274.5 584.113C274.5 556.113 237.868 545.269 214.43 549.375C207.622 554.459 190.25 561.575 175.219 549.375C163.51 550.715 138.132 556.927 130.29 571.056C110.412 603.973 100.065 690.679 162.966 713.961" stroke="#D1D4D8" stroke-width="3" stroke-linecap="round"/>
<path d="M164 616.613C172.024 629.145 174.763 648.014 174.071 659.931C174.048 660.329 174.509 660.579 174.829 660.34C192.991 646.801 234.438 649.339 244.11 656.361C251.968 662.066 246.242 669.829 241.602 674.783C228.816 688.429 209.228 701.658 196.5 707.613" stroke="#D1D4D8" stroke-width="3" stroke-linecap="round"/>
<path d="M292.185 622.527L292.188 622.563C293.345 618.905 294.573 614.178 295.156 609.71C295.549 606.692 295.636 603.884 295.256 601.635C294.871 599.361 294.062 597.94 292.927 597.253C286.571 593.407 279.097 592.926 276.219 593.163C274.56 593.357 272.598 593.668 270.89 594.79C269.249 595.869 267.669 597.819 267.055 601.677C265.687 610.275 261.686 619.253 260.211 622.023C259.653 623.344 259.127 624.886 258.809 626.357C258.477 627.891 258.409 629.175 258.622 630.034C258.723 630.441 258.868 630.674 259.003 630.808C259.123 630.927 259.317 631.049 259.695 631.095C260.55 631.2 262.156 630.885 264.865 629.433L264.938 629.394L265.015 629.363C266.182 628.896 268.035 627.614 270.178 625.683C272.283 623.787 274.55 621.371 276.545 618.77L276.545 618.77C279.007 615.561 282.422 614.622 285.376 614.969C286.837 615.14 288.207 615.626 289.325 616.32C290.424 617.003 291.384 617.956 291.854 619.122L291.94 619.337L291.958 619.568L292.185 622.527Z" fill="#D1D4D8" stroke="#D1D4D8" stroke-width="3"/>
<path d="M274 585.7C276.502 585.33 279.527 586.08 281.3 589.182C281.683 589.852 281.933 590.655 282 591.613" stroke="#D1D4D8" stroke-width="3" stroke-linecap="round"/>
<path d="M261.734 619.613C259.257 617.92 258.126 615.379 256.003 611.055C253.88 605.218 252.651 601.831 251.333 596.946C251.05 595.378 250.036 591.119 253.88 590.675C257.276 590.284 257.701 593.027 258.126 594.987C259.399 601.831 265.036 600.607 265.036 595.903C265.036 591.2 265.036 587.435 263.597 581.795C262.839 578.823 260.905 572.613 267.867 572.613C272.868 572.613 273.264 577.195 274 585.033" stroke="#D1D4D8" stroke-width="3" stroke-linecap="round"/>
<path d="M290 645.613C278.313 665.076 269.026 659.882 254 669.613" stroke="#D1D4D8" stroke-width="3" stroke-linecap="round"/>
<path d="M239 647.613C240.385 640.18 247.307 635.579 250.423 622.129C251.493 617.508 252.846 613.28 257 613.634" stroke="#D1D4D8" stroke-width="3" stroke-linecap="round"/>
<path d="M393 925.157C396.99 938.701 408.802 964.887 424.125 961.275C439.448 957.663 462.432 944.721 472.009 938.701C481.586 931.177 488.769 917.934 440.884 925.157C437.692 925.157 431.307 922.449 431.307 911.613" stroke="#D1D4D8" stroke-width="3" stroke-linecap="round"/>
<path d="M110.834 760.712C89.7006 766.441 66.8057 799.7 58 815.613C71.2086 814.022 101.148 805.588 115.237 784.582C129.326 763.577 118.173 759.916 110.834 760.712Z" fill="#D1D4D8" stroke="#D1D4D8" stroke-width="3"/>
<path d="M101.276 704.766C80.0786 706.939 64.833 760.099 58 784.613C73.1844 772.006 103.098 746.791 110.386 738.386C124.052 722.627 121.775 702.665 101.276 704.766Z" fill="#D1D4D8" stroke="#D1D4D8" stroke-width="3"/>
<path d="M35.9735 687.77C24.4241 706.569 49.4497 734.814 60.9997 753.613C60.9997 741.777 61.0002 717.013 61 706.569C60.9996 689.859 44.313 674.196 35.9735 687.77Z" fill="#D1D4D8" stroke="#D1D4D8" stroke-width="3"/>
<path d="M61 794.613C45.2926 772.632 11.7358 734.532 3.16813 757.979C-7.54148 787.286 58.8581 794.613 61 794.613Z" fill="#D1D4D8" stroke="#D1D4D8" stroke-width="3"/>
<path d="M61 824.613L58 744.613" stroke="#D1D4D8" stroke-width="3" stroke-linecap="round"/>
<path d="M36.8257 890.761C42.2344 877.812 50.2848 844.582 51.9672 828.613H74.6798C75.6892 848.293 86.0351 876.519 91.083 890.761C106.224 924.424 93.186 946.003 83.5123 951.613H46.92C22.946 943.845 29.2545 908.887 36.8257 890.761Z" stroke="#D1D4D8" stroke-width="3"/>
<path d="M171 632.613C172.568 626.087 175.235 610.75 173.353 601.613" stroke="#D1D4D8" stroke-width="3" stroke-linecap="round"/>
<path d="M279 632.613C282.836 630.243 293.387 625.502 290.509 616.613" stroke="#D1D4D8" stroke-width="3" stroke-linecap="round"/>
<path d="M282 641.613C284.333 640.724 289 637.613 291 635.613" stroke="#D1D4D8" stroke-width="3" stroke-linecap="round"/>
<path d="M269 698.113C273.333 688.28 276 680.113 278.5 659.113" stroke="#D1D4D8" stroke-width="3" stroke-linecap="round"/>
<path d="M395.579 738.615C365.234 680.82 280.674 692.27 257 704.717C317.051 710.88 332.332 752.642 334.753 772.124C343.792 849.4 367.573 894.695 378.334 907.682C387.211 914.176 425.576 913.713 427.564 897.942C434.827 840.309 413.053 771.896 395.579 738.615Z" fill="#D1D4D8" stroke="#D1D4D8" stroke-width="3"/>
<path d="M456.087 994.684C457.546 985.194 427.546 988.836 410.323 992.208C408.833 992.499 407.474 993.455 407.235 994.953C406.73 998.112 408.306 1001.11 409.837 1003.01C410.552 1003.9 411.647 1004.34 412.786 1004.4C427.653 1005.17 454.62 1004.23 456.087 994.684Z" fill="#D1D4D8" stroke="#D1D4D8" stroke-width="3"/>
<path d="M984 658.613C987.218 667.56 999.544 685.92 1023.1 687.787C1052.55 690.121 1056.41 697.589 1055.29 729.796C1054.16 762.004 1071.77 779.329 1097 759.613C1156.5 713.113 1128.5 824.613 1106 889.613" stroke="#D1D4D8" stroke-width="3" stroke-linecap="round"/>
<path d="M764 297.297C643.42 359.646 561 485.504 561 630.613C561 837.72 728.894 1005.61 936 1005.61C1120.18 1005.61 1273.34 872.84 1305 697.789C1313.35 651.613 1309.6 583.213 1290 525.613" stroke="#D1D4D8" stroke-width="3" stroke-linecap="round"/>
<path d="M1037 271.1C1003.09 261.024 967.179 255.613 930.001 255.613C878.652 255.613 829.715 265.934 785.148 284.613" stroke="#D1D4D8" stroke-width="3" stroke-linecap="round"/>
<path d="M1082.04 156.555L1062.08 130.613" stroke="#D1D4D8" stroke-width="3" stroke-linecap="round"/>
<path d="M1067.04 202.677C1063.01 204.731 1045.86 218.224 1037.79 224.713" stroke="#D1D4D8" stroke-width="3" stroke-linecap="round"/>
<path d="M1064.33 178.665C1058.63 176.81 1040.4 170.884 1032 168.152" stroke="#D1D4D8" stroke-width="3" stroke-linecap="round"/>
<path d="M905 979.613C896.988 1003.61 870 995.947 862 988.613C838.5 966.113 806.548 914.147 811.048 890.647C815.548 867.147 804.548 842.147 782.048 827.647C764.048 816.047 762.881 800.147 764.548 793.647C766.215 783.147 771.448 755.947 779.048 731.147C786.648 706.347 823.548 718.814 841.048 728.147C848.881 752.314 873.148 799.247 907.548 793.647C941.948 788.047 963.548 807.314 970.048 817.647C974.048 831.48 972.248 865.447 933.048 890.647C884.048 922.147 915.837 947.151 905 979.613Z" fill="#D1D4D8" stroke="#D1D4D8" stroke-width="3" stroke-linecap="round"/>
<path d="M1230 803.613C1214 817.613 1213.33 792.446 1215 778.113C1218.5 758.113 1236.5 754.113 1242 735.613C1244.14 728.425 1254.5 725.613 1258 735.613C1262.67 748.961 1250 786.113 1230 803.613Z" fill="#D1D4D8" stroke="#D1D4D8" stroke-width="3" stroke-linecap="round"/>
<path d="M699 625.614C691 638.614 651.5 611.114 649 608.114C637.5 597.614 614.683 573.544 612 552.614C609.5 533.115 598 499.115 586.5 481.115C612 437.115 619 415.448 642 392.115C682 357.315 717.333 376.281 729 389.114C737.833 403.114 764.9 425.714 802.5 404.114C840.1 382.514 851.833 413.114 853 431.114C852 450.447 839.4 489.614 797 491.614C744 494.114 743.5 522.114 740.5 546.614C738.1 566.214 723.167 563.114 716 559.114C708.833 552.78 690.6 543.914 675 559.114C659.4 574.314 676.5 594.447 687 602.614C694.333 608.947 705.472 615.097 699 625.614Z" fill="#D1D4D8" stroke="#D1D4D8" stroke-width="3" stroke-linecap="round"/>
<path d="M877 359.616C912.2 364.816 901.777 388.615 897.5 401.116C887.1 431.516 931.263 427.115 938.5 414.615C947.667 398.782 969.6 367.515 984 369.115C998.4 370.715 1007.33 359.782 1010 354.115C1015.6 310.115 969.333 312.782 945.5 319.615C935 325.782 908.3 336.216 885.5 328.616C862.7 321.016 845.667 322.782 840 324.616C796.5 351.616 833 353.116 877 359.616Z" fill="#D1D4D8" stroke="#D1D4D8" stroke-width="3" stroke-linecap="round"/>
<path d="M1263.47 280.574L1269.15 281.056" stroke="#D1D4D8" stroke-width="3" stroke-linecap="round"/>
<path d="M1222.31 277.083L1216.63 276.602" stroke="#D1D4D8" stroke-width="3" stroke-linecap="round"/>
<path d="M1226.07 265.964C1224.38 268.642 1222.66 272.779 1222.34 276.757C1221.95 281.551 1223.59 286.113 1229.77 287.608C1237.91 289.58 1241.69 280.187 1245.16 274.694C1249.96 267.101 1257.68 267.828 1261 272.925C1262.49 275.218 1263.2 277.737 1263.34 280.234C1263.54 283.883 1262.51 287.482 1260.91 290.249" stroke="#D1D4D8" stroke-width="3" stroke-linecap="round"/>
<path d="M1169.9 246.153L1164.26 246.969" stroke="#D1D4D8" stroke-width="3" stroke-linecap="round"/>
<path d="M1171.04 234.474C1170 237.465 1169.26 241.884 1169.85 245.831C1170.56 250.589 1173.19 254.66 1179.55 254.719C1187.93 254.796 1188.14 246.222 1190.28 240.086" stroke="#D1D4D8" stroke-width="3" stroke-linecap="round"/>
<path d="M1320.83 355.613C1321.54 337.184 1320.4 299.608 1310.12 296.736C1297.26 293.146 1231.57 293.146 1186.58 296.736C1141.6 300.327 1100.18 298.172 1098.04 288.12C1096.79 282.247 1124.66 279.081 1150.17 277.613" stroke="#D1D4D8" stroke-width="3" stroke-linecap="round"/>
<path d="M1083 293.613C1084.67 302.443 1094.3 319.529 1119.46 317.238C1144.62 314.947 1232.41 311.511 1273.16 310.079C1281.98 309.602 1300.47 312.227 1303.9 326.545C1307.33 340.863 1307.23 352.556 1306.76 356.613" stroke="#D1D4D8" stroke-width="3" stroke-linecap="round" stroke-dasharray="21.89 21.89"/>
<path d="M1298.18 423.613C1300.55 433.125 1299.18 453.123 1274.69 457.02C1244.08 461.892 1210.62 457.02 1155.09 461.196C1110.67 464.537 1097.19 461.196 1096 459.108" stroke="#D1D4D8" stroke-width="3" stroke-linecap="round" stroke-dasharray="21.89 21.89"/>
<path d="M1320.95 416.79C1321.66 440.942 1315.24 467.936 1303.83 477.171C1292.42 486.405 1108.4 482.143 1096.99 477.171C1087.86 473.193 1083.68 460.359 1082.73 454.439C1074.27 402.205 1079.04 324.389 1082.6 286.005C1082.68 285.114 1083.03 284.29 1083.64 283.641C1095.03 271.676 1121.58 267.863 1144.78 267.613" stroke="#D1D4D8" stroke-width="3" stroke-linecap="round"/>
<path d="M1321.27 339.664C1324.59 339.187 1333.21 341.954 1335.49 353.971C1337.73 365.849 1337.62 393.385 1334.19 405.76C1334.11 406.05 1334 406.313 1333.85 406.573C1328.35 416.114 1305.85 428.483 1256.69 421.633C1254.93 421.388 1253.48 420.086 1253.1 418.346C1249.41 401.143 1246.47 369.925 1259.94 360.972C1260.53 360.579 1261.22 360.399 1261.93 360.379C1281.03 359.857 1319.15 357.901 1326.96 353.97" stroke="#D1D4D8" stroke-width="3" stroke-linecap="round"/>
<circle cx="1285.5" cy="392.113" r="15" fill="#D1D4D8" stroke="#D1D4D8" stroke-width="3"/>
<path d="M1329 363.613C1320.06 366.188 1294.9 371.187 1265.57 370.674C1265.31 370.67 1265.05 370.619 1264.79 370.662C1262.5 371.053 1259.32 378.996 1262.06 408.676C1262.22 410.432 1263.43 411.924 1265.14 412.343C1275.62 414.908 1295.97 416.973 1311.98 408.756" stroke="#D1D4D8" stroke-width="3" stroke-linecap="round" stroke-dasharray="21.89 21.89"/>
<path d="M1160.15 294.613L1100.22 190.379C1099 188.256 1099.76 185.546 1101.9 184.363L1206.26 126.811C1208.43 125.611 1211.17 126.46 1212.29 128.68L1239 181.896" stroke="#D1D4D8" stroke-width="3" stroke-linecap="round"/>
<path d="M1184 294.613C1186.95 274.508 1192.92 226.079 1193.97 188.562C1194.03 186.387 1195.65 184.572 1197.81 184.338C1230.97 180.758 1295.98 180.588 1321.64 205.721C1322.53 206.591 1322.94 207.821 1322.82 209.058C1320.74 230.088 1313.81 273.685 1301.05 294.613" stroke="#D1D4D8" stroke-width="3" stroke-linecap="round"/>
<path d="M902.182 526.703L1040.61 503.19C1041.59 503.022 1042.19 504.248 1041.44 504.919L976.933 563.069C976.859 563.135 976.782 563.189 976.69 563.227C971.078 565.539 948.973 556.788 937.56 551.658C936.999 551.406 936.344 551.712 936.176 552.304C933.447 561.949 930.101 570.9 928.466 574.924C928.289 575.359 927.806 575.613 927.45 575.307C924.135 572.462 923.712 554.285 923.95 544.228C923.962 543.714 923.587 543.278 923.081 543.188C914.605 541.678 902.937 534.117 898.013 530.401" stroke="#D1D4D8" stroke-width="3" stroke-linecap="round"/>
<path d="M937.021 551.66C951.534 544.773 988.249 527.523 1019 513.623" stroke="#D1D4D8" stroke-width="3" stroke-linecap="round"/>
<path d="M928.033 575.664L955.025 559.652" stroke="#D1D4D8" stroke-width="3" stroke-linecap="round"/>
<path d="M934.017 537.664L971.012 525.647" stroke="#D1D4D8" stroke-width="3" stroke-linecap="round"/>
<path d="M743.263 664.346C769.608 658.105 773.711 696.453 795.433 697.073C821.36 697.814 801.097 635.238 786.683 611.378C780.779 600.723 765.669 601.784 771.334 618.509C777.352 636.275 828.806 692.102 841.103 655.623L848.531 629.583C850.44 622.012 855.688 610.287 869.225 619.969C882.761 629.65 892.59 619.806 895.812 613.674L906.202 594.972" stroke="#D1D4D8" stroke-width="3" stroke-linecap="round"/>
<path d="M356 462.113C356 207.786 562.173 1.61328 816.5 1.61328C931.569 1.61328 1036.78 43.8185 1117.5 113.593" stroke="#D1D4D8" stroke-width="3" stroke-linecap="round"/>
</svg>
