<svg width="358" height="558" viewBox="0 0 358 558" fill="none" xmlns="http://www.w3.org/2000/svg">
<path d="M113.447 412.52L121.477 400.194C129.304 388.182 144.536 383.386 157.832 388.747L176.969 396.464C188.908 401.278 202.588 397.938 210.966 388.164L232.947 362.52" stroke="#D1D4D8" stroke-width="3" stroke-linecap="round"/>
<path d="M223.947 321.934C228.447 308.934 224.348 300.186 220.348 298.52C196.348 320.52 159.947 312.353 146.447 299.02C141.647 303.42 144.447 316.434 146.447 320.434C172.447 349.234 209.447 333.101 223.947 321.934Z" fill="#D1D4D8"/>
<path d="M292.891 117.54C281.891 157.04 276.391 160.54 260.391 178.04C260.391 160.745 257.419 131.716 257.419 119.628C205.03 119.628 160.817 98.2413 145.258 87.5482C145.816 123.812 111.819 147.523 111.819 147.523C111.819 147.523 116.696 162.168 119.482 194.944C121.712 221.166 115.302 216.098 111.819 210.287C101.787 177.928 85.3456 186.576 78.3788 194.944C-7.10857 56.0401 124.358 29.2008 149.438 31.7579C168.387 15.5787 194.813 2.89975 213.391 1.04009C280.391 -5.66684 310.727 53.4922 292.891 117.54Z" fill="#D1D4D8"/>
<path d="M112.99 235.008C121.99 289.953 182.398 329.462 225.99 284.953C269.582 240.444 260.859 158.971 256.202 120.953" stroke="#D1D4D8" stroke-width="3" stroke-linecap="round"/>
<path d="M77.3907 191.539C71.8906 205.039 77.0507 234.954 112.991 234.954" stroke="#D1D4D8" stroke-width="3" stroke-linecap="round"/>
<path d="M93.2416 198.953C92.4463 201.842 93.0826 208.686 101.99 212.953" stroke="#D1D4D8" stroke-width="3" stroke-linecap="round"/>
<path d="M254.99 227.953C266.721 223.063 274.99 204.953 271.809 175.953" stroke="#D1D4D8" stroke-width="3" stroke-linecap="round"/>
<path d="M188.99 260.953C200.49 263.953 199.763 255.698 208.49 248.453" stroke="#D1D4D8" stroke-width="3" stroke-linecap="round"/>
<circle cx="223.539" cy="190.105" r="7.5" fill="#D1D4D8"/>
<circle cx="157.539" cy="191.105" r="7.5" fill="#D1D4D8"/>
<path d="M140.99 174.953C142.569 170.306 149.378 161.709 163.99 164.498" stroke="#D1D4D8" stroke-width="3" stroke-linecap="round"/>
<path d="M210.99 165.953C214.475 162.935 223.954 158.709 233.99 165.953" stroke="#D1D4D8" stroke-width="3" stroke-linecap="round"/>
<path d="M186.797 186.953C185.633 196.827 184.841 216.851 190.99 217.953" stroke="#D1D4D8" stroke-width="3" stroke-linecap="round"/>
<path d="M66.1055 451.133C61.7845 453.076 52.0704 450.633 47.782 425.316" stroke="#D1D4D8" stroke-width="3" stroke-linecap="round"/>
<path d="M77.3938 455.005C75.3622 458.407 68.9486 457.658 66.1053 451.137C64.3028 447.003 62.4994 439.818 60.881 428.219" stroke="#D1D4D8" stroke-width="3" stroke-linecap="round"/>
<path d="M77.3698 424.084C76.0408 431.117 75.1974 438.029 77.3934 455.005C77.867 459.009 80.3438 462.169 81.523 463.248C86.1732 467.251 91.9323 462.185 92.7961 456.813L94.9993 435.02" stroke="#D1D4D8" stroke-width="3" stroke-linecap="round"/>
<path d="M356 409.02C336.205 371.905 286.534 321.762 229.284 325.389C228.134 325.462 227.055 325.961 226.198 326.732C211.589 339.871 177.17 356.397 144.657 327.057C143.601 326.104 142.21 325.575 140.795 325.727C108.66 329.182 41.5301 354.528 13 431.52" stroke="#D1D4D8" stroke-width="3" stroke-linecap="round"/>
<path d="M104 438.52L166.522 437.13C169.274 437.069 171.559 439.245 171.631 441.997L174.369 546.051C174.442 548.8 172.281 551.091 169.533 551.18L9.54923 556.356C6.76909 556.446 4.45001 554.25 4.38875 551.469L2.10842 447.942C2.04827 445.211 4.19047 442.937 6.91984 442.835L42 441.52" stroke="#D1D4D8" stroke-width="3" stroke-linecap="round"/>
<path d="M81 487.52L150 485.02" stroke="#D1D4D8" stroke-width="3" stroke-linecap="round"/>
<path d="M81.4615 501.584L130.54 500.458" stroke="#D1D4D8" stroke-width="3" stroke-linecap="round"/>
<path d="M81.486 515.007L150.102 513.802" stroke="#D1D4D8" stroke-width="3" stroke-linecap="round"/>
<rect x="16.034" y="473.168" width="48.6413" height="55.5836" rx="3.5" transform="rotate(-1.31232 16.034 473.168)" stroke="#D1D4D8" stroke-width="3"/>
</svg>
