<svg width="911" height="876" viewBox="0 0 911 876" fill="none" xmlns="http://www.w3.org/2000/svg">
<path d="M129.937 538.6C122.458 544.561 113.217 545.838 118.617 553.382C125.754 561.606 130.513 571.621 132 575.6" stroke="#D1D4D8" stroke-width="3" stroke-linecap="round"/>
<path d="M122 556.6C116.62 559.571 104.073 565.248 96.9292 564.191C89.7857 563.136 85.0233 565.952 83.5351 567.493C82.7337 568.703 82.23 571.19 86.626 571.454C91.022 571.718 96.2423 571.564 98.3028 571.454" stroke="#D1D4D8" stroke-width="3" stroke-linecap="round"/>
<path d="M104 568.6C101.664 570.954 93.7231 576.304 80.6432 578.872C78.0852 579.3 74.6372 581.76 79.3087 584.65C83.3126 586.897 94.3903 584.843 99.996 581.76" stroke="#D1D4D8" stroke-width="3" stroke-linecap="round"/>
<path d="M99.585 582.6C95.2269 584.58 87.3823 589.853 90.8688 595.105C91.9863 596.148 96.7018 596.231 106.625 588.227L114 582.6" stroke="#D1D4D8" stroke-width="3" stroke-linecap="round"/>
<path d="M114.823 581.48L107.403 587.671C105.267 593.29 102.007 606.936 110.776 599.367C117.184 592.831 115.835 587.259 118.533 585.607C121.231 583.956 127.302 577.582 130 574.6" stroke="#D1D4D8" stroke-width="3" stroke-linecap="round"/>
<path d="M114.606 570.6C113.807 573.416 113.169 579.96 117 583.6" stroke="#D1D4D8" stroke-width="3" stroke-linecap="round"/>
<path d="M245.733 324.607C260.365 297.292 254.451 277.116 249.664 270.443C265.531 291.132 289.384 292.265 299.327 290.246L296.299 303.865C309.995 311.417 321.685 293.469 325.817 283.552C332.193 268.25 323.36 242.227 286.587 235.458C249.814 228.69 219.557 248.587 209.025 259.381C187.821 242.525 154.346 249.487 140.259 255.075C125.676 260.892 90.9839 282.488 91.446 323.327C92.0693 378.426 151.296 390.083 162.107 389.303C199.465 386.61 227.444 358.751 245.733 324.607Z" fill="#D1D4D8"/>
<path d="M293.872 338.964C291.101 343.478 287.56 346.837 284.15 348.656C280.701 350.496 277.696 350.629 275.632 349.363C273.569 348.097 272.327 345.358 272.406 341.448C272.484 337.584 273.874 332.906 276.645 328.392C279.415 323.878 282.956 320.52 286.366 318.701C289.816 316.86 292.821 316.727 294.884 317.993C296.947 319.259 298.19 321.998 298.11 325.908C298.032 329.772 296.642 334.45 293.872 338.964Z" stroke="#D1D4D8" stroke-width="3"/>
<path d="M280.587 342.183C282.039 343.074 284.517 341.677 286.122 339.063C287.726 336.449 287.849 333.607 286.397 332.716C284.945 331.824 282.467 333.221 280.862 335.836C279.258 338.45 279.135 341.292 280.587 342.183Z" fill="#D1D4D8"/>
<path d="M246.832 322.265L274.087 331.083" stroke="#D1D4D8" stroke-width="3" stroke-linecap="round"/>
<path d="M298.975 305.592C299.294 311.122 301.726 323.946 306.327 332.506C311.032 341.26 308.531 348.793 301.735 352.089L291.109 357.303C282.233 388.967 266.978 408.708 225.81 403.361" stroke="#D1D4D8" stroke-width="3" stroke-linecap="round"/>
<path d="M246.215 354.338C247.028 354.837 248.093 354.582 248.592 353.768C249.091 352.955 248.836 351.89 248.022 351.391C247.209 350.892 246.144 351.146 245.645 351.96C245.146 352.774 245.401 353.838 246.215 354.338Z" fill="#D1D4D8"/>
<path d="M234.295 366.49C235.271 367.089 236.467 366.916 236.967 366.102C237.466 365.288 237.079 364.143 236.103 363.543C235.126 362.944 233.93 363.118 233.43 363.932C232.931 364.745 233.318 365.891 234.295 366.49Z" fill="#D1D4D8"/>
<path d="M249.201 369.96C250.177 370.559 251.373 370.385 251.873 369.571C252.372 368.758 251.985 367.612 251.009 367.013C250.033 366.414 248.836 366.588 248.337 367.402C247.838 368.215 248.224 369.36 249.201 369.96Z" fill="#D1D4D8"/>
<path d="M361.136 442.435C362.669 440.365 363.439 438.482 362.74 437.181C360.709 433.399 355.713 437.28 353.469 439.694C347.884 445.502 337.136 455.596 340.033 443.85C342.93 432.103 336.768 432.826 322.341 447.165L308 455.6" stroke="#D1D4D8" stroke-width="3" stroke-linecap="round"/>
<path d="M359.709 461.6C360.927 465.323 358.973 473.942 341.057 476.031C334.278 476.82 333.26 476.709 326.898 476.176H316" stroke="#D1D4D8" stroke-width="3" stroke-linecap="round"/>
<path d="M348 454.179C351.77 451.527 357.783 446.713 360.869 442.6C364.221 442.563 367.466 444.366 362.294 450.668C360.055 453.397 356.237 456.968 350.168 461.6" stroke="#D1D4D8" stroke-width="3" stroke-linecap="round"/>
<path d="M351 461.379C356.962 456.812 360.712 453.29 362.911 450.6C366.052 451.448 368.878 454.729 360.295 461.581C358.418 463.079 355.996 464.748 352.911 466.6" stroke="#D1D4D8" stroke-width="3" stroke-linecap="round"/>
<path d="M178 415.6C129.402 450.972 135.217 495.084 135.217 549.6" stroke="#D1D4D8" stroke-width="3" stroke-linecap="round"/>
<path d="M178 416.171L203.37 437.27C204.137 437.936 205.345 437.541 205.562 436.554L211.724 408.645C211.953 407.61 213.253 407.243 213.997 408.005L230 424.388" stroke="#D1D4D8" stroke-width="3" stroke-linecap="round"/>
<path d="M200 456.295C207.973 467.319 252.875 497.847 285.187 464.352L294 454.6" stroke="#D1D4D8" stroke-width="3" stroke-linecap="round"/>
<path d="M222 561.6C232.246 558.901 280.846 531.79 295 506.6" stroke="#D1D4D8" stroke-width="3" stroke-linecap="round"/>
<path d="M292 474.409C295.498 487.028 296.483 497.679 295.782 506.6C303.565 501.234 311 497.108 311 480.187C311 468.218 302.326 457.901 294.478 454.6" stroke="#D1D4D8" stroke-width="3" stroke-linecap="round"/>
<path d="M226.5 445.6C228.433 445.6 230 443.809 230 441.6C230 439.39 228.433 437.6 226.5 437.6C224.567 437.6 223 439.39 223 441.6C223 443.809 224.567 445.6 226.5 445.6Z" fill="#D1D4D8"/>
<path d="M230.5 465.6C232.433 465.6 234 463.585 234 461.1C234 458.614 232.433 456.6 230.5 456.6C228.567 456.6 227 458.614 227 461.1C227 463.585 228.567 465.6 230.5 465.6Z" fill="#D1D4D8"/>
<path d="M263.29 374.431C261.891 376.629 260.821 381.949 267.737 385.645" stroke="#D1D4D8" stroke-width="3" stroke-linecap="round"/>
<path d="M272.371 833.755C339.305 810.59 294.009 667.259 262.995 598.488C211.063 612.387 156.723 588.354 136.051 574.6C134.118 584.976 123.501 616.007 96.3816 657.124C69.2619 698.241 34.0783 719.625 27.861 737.477C12.7144 780.911 45.8927 803.351 62.4819 808.419C120.76 821.738 169.951 756.058 187.262 721.551C212.073 823.476 254.34 838.822 272.371 833.755Z" fill="#D1D4D8"/>
<path d="M368.067 399.631C377.678 405.883 361.27 428.447 353.261 440.469L343.577 449.328C333.955 451.252 329.141 442.503 328 437.493L347.463 401.434C350.321 398.228 358.445 393.379 368.067 399.631Z" fill="#D1D4D8"/>
<path d="M397 411.6H383" stroke="#D1D4D8" stroke-width="3" stroke-linecap="round"/>
<path d="M383 378.6L378 390.6" stroke="#D1D4D8" stroke-width="3" stroke-linecap="round"/>
<path d="M397 389.6C396.3 389.966 387.375 397.086 383 400.6" stroke="#D1D4D8" stroke-width="3" stroke-linecap="round"/>
<path d="M284.235 822.6C283.741 830.174 287.146 855.585 306.795 841.658C311.642 836.771 323.097 828.757 330.083 835.794C337.07 842.83 323.286 855.829 315.528 861.449C307.523 867.802 287.874 878.601 273.319 870.978C258.764 863.354 258.997 843.368 260.948 834.328" stroke="#D1D4D8" stroke-width="3" stroke-linecap="round"/>
<path d="M46 796.979C40.9857 799.386 30.957 806.075 30.957 813.583C36.6877 821.765 45.8567 841.881 36.6877 856.897C27.5186 871.913 10.8996 837.647 3.73628 818.636C0.154613 807.807 -0.275186 783.84 26.659 774.6" stroke="#D1D4D8" stroke-width="3" stroke-linecap="round"/>
<path d="M270.523 542.6C271.584 551.76 271.564 574.383 263 591.6" stroke="#D1D4D8" stroke-width="3" stroke-linecap="round"/>
<path d="M236 418.6C240.667 421.044 267 433.6 267 466.6" stroke="#D1D4D8" stroke-width="3" stroke-linecap="round"/>
<path d="M342.518 47.3463L329.269 143.11C329.12 144.19 329.862 145.19 330.939 145.36L431.681 161.234C432.897 161.426 433.996 160.483 433.992 159.252L433.528 22.2561C433.524 20.9258 432.246 19.9706 430.969 20.3427L343.94 45.7003C343.183 45.9208 342.626 46.5654 342.518 47.3463Z" stroke="#D1D4D8" stroke-width="3"/>
<path d="M444 27.0996L433 18.0996L432 163.6L455 159.1L444 27.0996Z" fill="#D1D4D8"/>
<path d="M444 29.5996H457.393C458.377 29.5996 459.215 30.3162 459.368 31.2889L478.644 153.852C478.832 155.05 477.919 156.139 476.706 156.162L453.829 156.6" stroke="#D1D4D8" stroke-width="3" stroke-linecap="round"/>
<path d="M386 32.5996C388.069 23.1939 395.883 4.85309 410.587 6.7339C418.465 7.74147 423 16.845 423 21.3128" stroke="#D1D4D8" stroke-width="3" stroke-linecap="round"/>
<path d="M366 38.5996C368.303 27.317 377.387 2.78241 394.348 1.63065C406.259 0.821828 410.309 16.0013 408.642 26.0834" stroke="#D1D4D8" stroke-width="3" stroke-linecap="round"/>
<path d="M676 632.1C718 618.6 749 598.1 785.5 552.6" stroke="#D1D4D8" stroke-width="3" stroke-linecap="round"/>
<path d="M526.5 187.1C540.358 186.901 560.775 187.272 582 188.823" stroke="#D1D4D8" stroke-width="3" stroke-linecap="round"/>
<path d="M754 282.634C729.185 279.809 699.515 278.1 664.5 278.1C517.5 278.1 559 252.6 586.5 247.6C623.5 241.267 690.4 222.5 664 206.1C653.914 199.835 636.551 195.511 617 192.587" stroke="#D1D4D8" stroke-width="3" stroke-linecap="round"/>
<path d="M871.513 448.1C892.355 407.588 896.42 366.512 869.618 330.1" stroke="#D1D4D8" stroke-width="3" stroke-linecap="round"/>
<path d="M463 497.599C487.58 489.045 515.537 478.388 545 466.1" stroke="#D1D4D8" stroke-width="3" stroke-linecap="round"/>
<path d="M602.5 205.1C632 209.6 623 216.732 606.5 216.599C585.833 216.433 535 222.099 497 246.099C449.5 276.099 513.5 311.599 578 310.599C629.41 309.802 682.111 319.858 702.278 325.042C702.432 325.081 702.578 325.141 702.718 325.216C740.348 345.504 714.867 376.011 665.5 406.759" stroke="#D1D4D8" stroke-width="3" stroke-linecap="round"/>
<path d="M596 286.6C591.167 285.6 583 285.599 579 285.6" stroke="#D1D4D8" stroke-width="3" stroke-linecap="round"/>
<path d="M548.5 280.6C544.167 280.1 535.1 278.7 533.5 277.1" stroke="#D1D4D8" stroke-width="3" stroke-linecap="round"/>
<path d="M518.5 269.6C517.333 266.1 515.7 258.5 518.5 256.1" stroke="#D1D4D8" stroke-width="3" stroke-linecap="round"/>
<path d="M541.5 246.1C544 244.766 550.2 242.1 555 242.1" stroke="#D1D4D8" stroke-width="3" stroke-linecap="round"/>
<path d="M575 235.6C578.167 235.1 584.6 234.1 585 234.1" stroke="#D1D4D8" stroke-width="3" stroke-linecap="round"/>
<path d="M600 230.1L609 228.1" stroke="#D1D4D8" stroke-width="3" stroke-linecap="round"/>
<path d="M621 225.1C624 225.1 630.1 224.7 630.5 223.1" stroke="#D1D4D8" stroke-width="3" stroke-linecap="round"/>
<path d="M639 218.1C639.667 216.6 640.5 213.3 638.5 212.1" stroke="#D1D4D8" stroke-width="3" stroke-linecap="round"/>
<path d="M634.5 207.6C633.5 207.1 630.5 205.9 626.5 205.1" stroke="#D1D4D8" stroke-width="3" stroke-linecap="round"/>
<path d="M649 291.6C645.333 290.433 636 288.3 628 289.1" stroke="#D1D4D8" stroke-width="3" stroke-linecap="round"/>
<path d="M700 298.099C695.333 297.266 684.8 295.699 680 296.099" stroke="#D1D4D8" stroke-width="3" stroke-linecap="round"/>
<path d="M755 309.1C748 307.1 732.3 303.1 725.5 303.1" stroke="#D1D4D8" stroke-width="3" stroke-linecap="round"/>
<path d="M780.999 322.1C786.833 326.266 798.299 337.7 797.499 350.1" stroke="#D1D4D8" stroke-width="3" stroke-linecap="round"/>
<path d="M789 378.6C788.333 385.933 784.1 402.3 772.5 409.1" stroke="#D1D4D8" stroke-width="3" stroke-linecap="round"/>
<path d="M710 461.6C699 469.6 680.4 485.1 674 487.1" stroke="#D1D4D8" stroke-width="3" stroke-linecap="round"/>
<path d="M620 522.1C601.833 535.1 577 550.1 569 552.1" stroke="#D1D4D8" stroke-width="3" stroke-linecap="round"/>
<ellipse rx="43" ry="32.5" transform="matrix(-1 0 0 1 794 490.1)" fill="#D1D4D8"/>
<path d="M743.001 419.099C708.27 431.833 726.591 461.726 741.395 476.538C742.007 477.15 741.637 478.217 740.776 478.305C723.967 480.033 695.175 486.799 699 502.1C702.582 516.426 726.74 519.261 742.045 518.86C743.136 518.831 743.632 520.521 742.723 521.125C727.066 531.536 717.138 551.453 730 561.1C753.332 578.599 771.947 550.354 778.502 532.67C778.879 531.653 780.591 531.787 780.803 532.852C784.108 549.491 794.169 575.463 814.5 575.1C835.624 574.722 835.582 545.856 832.574 529.011C832.405 528.068 833.54 527.401 834.284 528.005C855.983 545.623 878.238 550.016 885 542.6C907.617 517.794 875.536 499.281 853.532 490.399C852.472 489.971 852.807 488.233 853.95 488.241C880.923 488.415 921.004 483.641 905.5 462.6C890.319 441.997 853.856 449.51 832.704 457.544C831.629 457.952 830.357 456.102 831.057 455.19C842.283 440.576 846.928 413.921 834.501 404.6C810.192 386.366 789.648 426.303 783.15 448.289C782.898 449.143 781.736 449.291 781.285 448.524C771.037 431.138 758.868 413.282 743.001 419.099Z" stroke="#D1D4D8" stroke-width="3" stroke-linecap="round"/>
<ellipse rx="18" ry="13.5" transform="matrix(-1 0 0 1 784 260.1)" fill="#D1D4D8"/>
<path d="M825 273.296C823.827 268.382 817.897 264.466 812.276 261.807C811.243 261.318 811.623 259.381 812.766 259.341C823.597 258.963 836.345 256.537 830.553 248.707C825.019 241.226 812.727 242.639 803.799 245.341C802.699 245.674 800.952 243.318 801.464 242.288C804.544 236.093 805.195 227.783 800.844 224.532C791.146 217.287 782.88 232.08 779.775 241.416C779.494 242.259 778.321 242.404 777.861 241.644C773.723 234.805 768.831 228.285 762.557 230.576C748.731 235.625 754.997 247.147 760.973 253.573C761.563 254.207 761.18 255.294 760.32 255.405C753.206 256.322 742.639 259.173 744.145 265.171C745.431 270.297 753.063 271.893 759.249 272.137C760.341 272.18 760.954 274.149 760.136 274.874C755.008 279.425 752.399 286.238 757.116 289.763C765.8 296.25 772.922 287.653 776.321 280.487C776.786 279.507 778.731 279.659 779.018 280.704C780.861 287.427 785.016 295.731 792.475 295.598C800.631 295.453 801.246 285.196 800.303 278.096C800.177 277.147 801.347 276.454 802.114 277.028C804.81 279.044 807.497 280.577 810 281.643" stroke="#D1D4D8" stroke-width="3" stroke-linecap="round"/>
<ellipse rx="33" ry="21" transform="matrix(-1 0 0 1 595 420.6)" fill="#D1D4D8"/>
<path d="M524.501 389.599C530.871 374.409 553.571 388.032 565.3 397.995C565.7 398.335 566.051 398.205 565.916 397.698C564.515 392.462 552.678 366.576 565 361.1C585.601 351.945 592.309 375.679 592.996 388.529C592.999 388.578 593.007 388.637 593.018 388.684C594.087 393.295 601.575 367.1 614.5 367.1C630.538 367.1 629.078 384.458 623.975 395.696C623.568 396.593 624.547 397.623 625.449 397.226C638.043 391.691 659.569 386.07 664 400.1C668.033 412.871 653.759 419.713 642.47 422.463C641.371 422.731 641.32 424.703 642.41 425.007C655.564 428.668 673.133 437.011 669 450.1C664.519 464.292 636.154 454.018 619.795 445.81C618.881 445.352 617.83 446.437 618.276 447.357C624.921 461.082 626.68 483.803 611.001 484.6C587.401 485.8 583.501 462.1 584.501 450.1C584.626 448.6 576.701 481.2 555.501 473.6C534.501 466.072 548.726 445.168 558.716 435.378C558.901 435.196 559.232 435.165 559.015 435.308C556.941 436.674 534.073 444.158 524.501 438.6C503.295 426.287 524.227 414.474 539.649 410.071C540.649 409.785 540.698 408.211 539.728 407.836C528.098 403.349 521.782 395.037 524.501 389.599Z" stroke="#D1D4D8" stroke-width="3" stroke-linecap="round"/>
<ellipse cx="603.5" cy="181.1" rx="9.5" ry="5.5" fill="#D1D4D8"/>
<path d="M623.432 172.356C621.702 168.216 615.758 171.543 612.299 174.335C611.889 174.665 611.64 174.538 611.814 174.041C612.628 171.715 615.026 165.596 611.869 164.187C606.014 161.575 604.089 168.304 603.878 171.999C603.876 172.047 603.87 172.099 603.855 172.145C603.502 173.201 601.373 165.907 597.736 165.907C594.119 165.907 593.619 169.011 594.287 171.903C594.508 172.863 593.373 174.015 592.437 173.707C588.938 172.556 584.638 172.077 583.603 175.366C582.926 177.519 584.056 179.083 585.758 180.168C586.712 180.776 586.745 183.538 585.745 184.067C583.292 185.362 581.402 187.238 582.176 189.698C583.255 193.129 589.186 191.571 593.819 189.587C594.758 189.185 596.01 190.411 595.745 191.398C594.751 195.113 595.117 199.402 598.735 199.587C605.473 199.931 606.587 193.138 606.301 189.698C606.265 189.268 608.528 198.612 614.581 196.434C620.433 194.328 616.703 188.568 613.869 185.684C613.687 185.498 613.598 185.484 613.837 185.586C615.213 186.176 620.922 187.864 623.432 186.402C628.305 183.561 625.384 180.813 621.763 179.191C620.815 178.766 620.73 176.859 621.561 176.237C623.233 174.986 623.983 173.463 623.432 172.356Z" stroke="#D1D4D8" stroke-width="3" stroke-linecap="round"/>
<ellipse rx="20.5" ry="13.5" transform="matrix(-1 0 0 1 852.5 295.1)" fill="#D1D4D8"/>
<path d="M808.604 275.571C812.524 266.253 826.369 274.394 833.748 280.558C834.15 280.894 834.46 280.767 834.304 280.267C833.092 276.376 826.392 261.169 833.832 257.873C846.65 252.193 850.834 266.893 851.27 274.88C851.273 274.929 851.28 274.986 851.292 275.033C851.984 277.751 856.644 261.599 864.667 261.599C874.13 261.599 873.814 271.269 871.053 278.221C870.69 279.137 871.711 280.201 872.623 279.827C880.563 276.571 892.871 273.788 895.502 282.094C897.754 289.204 890.842 293.354 884.32 295.368C883.238 295.702 883.192 297.879 884.269 298.229C892.069 300.77 900.965 305.732 898.617 313.146C895.937 321.607 879.546 316.065 869.223 311.099C868.302 310.656 867.203 311.785 867.601 312.726C871.239 321.309 871.779 334.101 862.487 334.572C847.786 335.318 845.357 320.599 845.98 313.146C846.057 312.214 841.121 332.461 827.915 327.741C814.909 323.092 823.593 310.232 829.809 304.108C829.994 303.927 830.205 303.912 829.976 304.033C828.072 305.045 814.41 309.365 808.604 306.004C796.049 298.736 807.204 291.749 816.589 288.726C817.579 288.407 817.64 286.743 816.693 286.314C810.348 283.434 807.022 278.725 808.604 275.571Z" stroke="#D1D4D8" stroke-width="3" stroke-linecap="round"/>
</svg>
