<svg width="1638" height="1608" viewBox="0 0 1638 1608" fill="none" xmlns="http://www.w3.org/2000/svg">
<path d="M1055.97 395.26C1055.97 377.471 1064.39 368.577 1070.6 358.809C1087.5 332.229 1086.75 317.765 1080.05 274.111" stroke="#D1D4D8" stroke-width="3" stroke-linecap="round"/>
<path d="M1032.97 297.019C1040.47 294.505 1052.22 283.624 1039.16 260.209" stroke="#D1D4D8" stroke-width="3" stroke-linecap="round"/>
<path d="M927.97 267.006C920.392 252.566 911.766 255.561 908.4 258.864C883.648 281.609 915.496 302.201 934.514 309.653C936.878 318.705 944.062 338.588 953.888 345.704" stroke="#D1D4D8" stroke-width="3" stroke-linecap="round"/>
<path d="M915.938 273.031C916.925 277.524 921.285 286.328 930.826 285.607" stroke="#D1D4D8" stroke-width="3" stroke-linecap="round"/>
<path d="M965.816 236.906C969.07 234.983 977.682 231.668 986.099 233.794" stroke="#D1D4D8" stroke-width="3" stroke-linecap="round"/>
<path d="M1048.58 228.922C1052.46 226.902 1062.7 223.338 1072.55 225.244" stroke="#D1D4D8" stroke-width="3" stroke-linecap="round"/>
<path d="M1085.93 212.533C1092.44 68.7536 1004.51 106.44 928.592 144.126C892.546 162.02 882.166 166.519 855.403 180.174C846.762 207.429 878.709 251.091 899.823 271.566C903.689 257.693 915.149 255.461 920.396 256.078C913.95 182.322 960.887 185.206 985.161 195.867C1031 186.936 1045.35 203.546 1046.8 212.968C1064.86 197.271 1084.06 209.5 1085.93 212.533Z" fill="#D1D4D8"/>
<circle cx="982.336" cy="252.299" r="33.9443" transform="rotate(-8.72379 982.336 252.299)" stroke="#D1D4D8" stroke-width="3"/>
<ellipse cx="994.342" cy="257.714" rx="7.92832" ry="9.79381" transform="rotate(-28.616 994.342 257.714)" fill="#D1D4D8"/>
<path d="M1099.78 234.279C1102.62 252.79 1089.72 270.164 1070.92 273.049C1052.12 275.935 1034.6 263.229 1031.76 244.717C1028.92 226.205 1041.82 208.831 1060.62 205.946C1079.43 203.061 1096.94 215.767 1099.78 234.279Z" stroke="#D1D4D8" stroke-width="3"/>
<ellipse cx="1077.19" cy="245.726" rx="8.30093" ry="9.79381" transform="rotate(-23.092 1077.19 245.726)" fill="#D1D4D8"/>
<path d="M1031.82 244.474L1015.52 247.208" stroke="#D1D4D8" stroke-width="3" stroke-linecap="round"/>
<path d="M948.44 252.783L925.318 261.993" stroke="#D1D4D8" stroke-width="3" stroke-linecap="round"/>
<path d="M1051.46 321.504C1047.03 328.475 1032.98 339.438 1012.28 327.516" stroke="#D1D4D8" stroke-width="3" stroke-linecap="round"/>
<path d="M1073.13 133.717C1105.04 121.948 1117.75 107.745 1120.12 102.115C1143.29 41.9641 946.544 131.9 845.276 184.387C837.908 187.887 829.729 197.936 855.956 210.141" stroke="#D1D4D8" stroke-width="3" stroke-linecap="round"/>
<path d="M925 2.66398C947.777 -0.413008 1027.14 7.94896 1063 86.1406" stroke="#D1D4D8" stroke-width="3" stroke-linecap="round"/>
<path d="M1035 95.8567C1021.71 65.5006 977.447 7.53145 906.68 18.5035C835.913 29.4756 837.151 118.167 846.616 161.141" stroke="#D1D4D8" stroke-width="3" stroke-linecap="round"/>
<path d="M523.828 326.32C537.031 312.988 540.651 298.889 545.031 276.988C549.03 256.988 546.032 230.988 534.032 223.488C520.835 232.288 505.864 228.488 500.028 225.488C472.824 210.688 442.359 216.322 430.528 220.988C397.728 231.388 355.528 221.322 338.528 214.988C331.028 226.988 327.031 289.988 343.323 343.111C350.242 334.799 366.539 326.209 376.482 358.352C379.933 364.125 386.305 369.158 384.084 343.111C381.317 310.555 376.482 296.008 376.482 296.008C376.482 296.008 410.205 272.455 409.641 236.434C425.085 247.057 468.921 268.299 520.872 268.299C520.872 280.307 523.828 309.142 523.828 326.32Z" fill="#D1D4D8"/>
<path d="M377.031 382.903C386.022 437.78 446.345 477.241 489.882 432.786C533.419 388.332 524.702 306.96 520.052 268.988" stroke="#D1D4D8" stroke-width="3" stroke-linecap="round"/>
<path d="M342.826 338.988C337.545 352.36 342.5 381.988 377.031 381.988" stroke="#D1D4D8" stroke-width="3" stroke-linecap="round"/>
<path d="M360.224 346.988C359.612 349.464 360.102 355.332 367.031 358.988" stroke="#D1D4D8" stroke-width="3" stroke-linecap="round"/>
<path d="M520.031 374.988C531.418 370.193 539.457 352.431 536.364 323.988" stroke="#D1D4D8" stroke-width="3" stroke-linecap="round"/>
<path d="M454.031 408.314C464.651 411.512 463.98 402.711 472.031 394.988" stroke="#D1D4D8" stroke-width="3" stroke-linecap="round"/>
<path d="M488.531 345.988C492.673 345.988 496.031 342.407 496.031 337.988C496.031 333.57 492.673 329.988 488.531 329.988C484.389 329.988 481.031 333.57 481.031 337.988C481.031 342.407 484.389 345.988 488.531 345.988Z" fill="#D1D4D8"/>
<path d="M422.531 345.988C427.226 345.988 431.031 342.854 431.031 338.988C431.031 335.122 427.226 331.988 422.531 331.988C417.837 331.988 414.031 335.122 414.031 338.988C414.031 342.854 417.837 345.988 422.531 345.988Z" fill="#D1D4D8"/>
<path d="M406.031 321.988C407.677 317.763 414.791 309.948 430.031 312.483" stroke="#D1D4D8" stroke-width="3" stroke-linecap="round"/>
<path d="M476.031 312.988C479.666 310.725 489.557 307.555 500.031 312.988" stroke="#D1D4D8" stroke-width="3" stroke-linecap="round"/>
<path d="M450.83 335.988C449.68 345.543 448.879 364.922 455.031 365.988" stroke="#D1D4D8" stroke-width="3" stroke-linecap="round"/>
<path d="M475.562 96.03C346.03 66.4539 334.241 179.303 337.329 213.713C337.396 214.46 337.868 215.044 338.572 215.304C354.921 221.348 395.048 230.42 434.061 221.335C474.005 212.034 488.531 221.335 505.39 227.148C511.875 229.086 526.53 231.153 533.273 223.919C541.703 214.876 552.024 113.488 475.562 96.03Z" stroke="#D1D4D8" stroke-width="3" stroke-linecap="round"/>
<path d="M390.531 190.987C413.865 188.487 468.531 186.187 500.531 196.987" stroke="#D1D4D8" stroke-width="3" stroke-linecap="round"/>
<path d="M434.53 101.988C431.864 115.655 427.33 147.588 430.53 165.988" stroke="#D1D4D8" stroke-width="3" stroke-linecap="round"/>
<path d="M456.031 103.488C459.698 116.322 465.931 146.788 461.531 165.988" stroke="#D1D4D8" stroke-width="3" stroke-linecap="round"/>
<path d="M398.5 481.141C306.5 517.141 243.5 672.641 285 737.641C297.093 756.582 327 775.641 360.5 778.641" stroke="#D1D4D8" stroke-width="3" stroke-linecap="round"/>
<path d="M368 1585.16C409.612 1565.54 510.901 1527.58 583.168 1532.59C593.414 1533 608.888 1537.36 588.814 1551.37C568.74 1565.39 558.703 1572.65 556.195 1574.53C545.739 1583.29 535.492 1601.8 578.15 1605.81C631.471 1610.82 782.027 1556.37 1080 1596.42" stroke="#D1D4D8" stroke-width="3" stroke-linecap="round"/>
<path d="M34 1211.14V1175.14" stroke="#D1D4D8" stroke-width="3" stroke-linecap="round"/>
<path d="M2 1195.14L21 1211.14" stroke="#D1D4D8" stroke-width="3" stroke-linecap="round"/>
<path d="M47 1211.14L62 1188.14" stroke="#D1D4D8" stroke-width="3" stroke-linecap="round"/>
<path d="M786 1427.14V1374.14" stroke="#D1D4D8" stroke-width="3" stroke-linecap="round"/>
<path d="M738 1404.14L767 1427.14" stroke="#D1D4D8" stroke-width="3" stroke-linecap="round"/>
<path d="M806 1427.14L827 1393.14" stroke="#D1D4D8" stroke-width="3" stroke-linecap="round"/>
<path d="M375.002 1149.64C357.3 1128.93 321.334 877.141 330 773.141C338.5 777.141 351.5 781.141 361.006 779.141L373.506 787.141V812.641C457.506 865.441 563.839 857.974 606.506 847.641C642.006 1128.14 606.506 1149.64 563.002 1144.14C534.033 1140.48 501.001 1067.47 494.001 1028.14C494.335 1040.81 489.102 1082.14 467.501 1130.14C440.501 1190.14 398.505 1177.14 375.002 1149.64Z" fill="#D1D4D8"/>
<path d="M329.5 717.642C351 703.641 378.83 695.747 362.36 714.751C345.88 733.755 372.92 727.42 388.49 721.878C394.83 719.502 407.5 716.968 407.5 725.837C407.5 728.889 404.31 731.653 399.58 734.052C390.56 738.625 375.94 741.872 367.11 743.257" stroke="#D1D4D8" stroke-width="3" stroke-linecap="round"/>
<path d="M379.779 766.973C378.983 771.755 374.541 778.326 363.5 780.152" stroke="#D1D4D8" stroke-width="3" stroke-linecap="round"/>
<path d="M394.56 749.59C399.18 753.921 400.98 762.34 379.78 766.972C375.14 767.985 369.41 768.817 362.36 769.385" stroke="#D1D4D8" stroke-width="3" stroke-linecap="round"/>
<path d="M399.58 734.051C405.29 736.929 409.13 742.972 394.56 749.591C388.25 752.456 378.49 755.43 363.94 758.301" stroke="#D1D4D8" stroke-width="3" stroke-linecap="round"/>
<path d="M370.5 725.639V608.192C370.5 606.38 372.782 605.43 374.164 606.603C395.953 625.1 457.883 647.08 577.5 625.639C736.5 597.139 835 593.639 952 615.639C1045.6 633.239 1069.33 647.972 1069.5 653.139V732.139" stroke="#D1D4D8" stroke-width="3" stroke-linecap="round"/>
<path d="M815 810.641C778.5 814.474 691.5 825.741 635.5 840.141C565.5 858.141 510.5 862.141 438 840.141C380 822.541 374.5 815.141 374.5 810.641V787.641" stroke="#D1D4D8" stroke-width="3" stroke-linecap="round"/>
<path d="M388.033 1184.14C377.033 1196.47 348.833 1222.64 324.033 1228.64C293.033 1236.14 332.033 1257.14 383.033 1246.14C434.033 1235.14 438.533 1228.64 451.533 1184.14" stroke="#D1D4D8" stroke-width="3" stroke-linecap="round"/>
<path d="M570.033 1171.64C571.033 1190.31 579.433 1226.94 605.033 1224.14C637.033 1220.64 684.033 1204.14 702.533 1191.14C721.033 1178.14 724.533 1163.14 702.533 1161.64C680.533 1160.14 627.033 1187.64 616.033 1155.14" stroke="#D1D4D8" stroke-width="3" stroke-linecap="round"/>
<path d="M926.085 1191.14C929.251 1206.81 926.985 1238.94 892.585 1242.14C849.585 1246.14 792.085 1254.64 807.585 1233.14C823.085 1211.64 848.583 1229.14 870.584 1197.64" stroke="#D1D4D8" stroke-width="3" stroke-linecap="round"/>
<path d="M1045.47 1184.14C1043.31 1198.81 1047.47 1228.54 1081.47 1230.14C1123.97 1232.14 1192.97 1243.64 1189.97 1217.14C1185.47 1199.64 1123.77 1190.14 1112.97 1184.14" stroke="#D1D4D8" stroke-width="3" stroke-linecap="round"/>
<path d="M843.5 1073.14C846.501 1040.14 850.333 912.141 853 859.141C866.5 859.641 892.9 850.741 890.5 811.141C938.5 806.341 1029.33 842.807 1067 861.141V727.141H1112.5C1124.5 759.141 1137.5 905.807 1142.5 975.141C1146.33 1030.31 1141.8 1145.84 1093 1166.64C1044.2 1187.44 999 1131.31 982.5 1100.64C972.834 1123.81 942.5 1170.74 898.5 1173.14C843.5 1176.14 840.5 1106.14 843.5 1073.14Z" fill="#D1D4D8"/>
<path d="M879 826.211C887.5 817.711 891.5 794.711 879 796.211" stroke="#D1D4D8" stroke-width="3" stroke-linecap="round"/>
<path d="M816 821.142C825.833 805.475 847.9 774.542 857.5 776.142C867.1 777.742 851.833 806.808 843 821.142" stroke="#D1D4D8" stroke-width="3" stroke-linecap="round"/>
<path d="M857.814 793.489C860.04 786.494 866.22 776.658 874.244 782.063C884.274 788.819 872.924 811.496 866.367 822.919" stroke="#D1D4D8" stroke-width="3" stroke-linecap="round"/>
<path d="M1112.99 716.141C1137.12 654.863 1115.89 544.229 1106.47 520.387C1106 519.202 1106.61 517.865 1107.84 517.548C1169.17 501.813 1291.01 450.609 1294.49 409.548C1300.49 338.748 1192.66 368.382 1137.99 392.048L1066.96 414.581C1066.1 414.856 1065.52 415.682 1065.57 416.591L1068.21 467.592C1068.3 469.453 1066.03 470.423 1064.75 469.064L1025.61 427.345C1024.51 426.166 1022.53 426.719 1022.2 428.301L1008.91 491.267C1008.56 492.958 1006.37 493.431 1005.34 492.038L961.986 432.997C961.41 432.213 960.389 431.943 959.506 432.35C932.686 444.713 851.529 460.769 827 597.641" stroke="#D1D4D8" stroke-width="3" stroke-linecap="round"/>
<path d="M1299.5 398.048C1306.13 397.563 1317.32 390.95 1320.26 375.466C1320.42 374.622 1321.07 373.947 1321.92 373.801C1338.3 370.959 1352.07 369.325 1354.5 361.548C1358.09 350.048 1329.33 354.715 1316.5 358.548" stroke="#D1D4D8" stroke-width="3" stroke-linecap="round"/>
<path d="M1278 368.047C1300.33 348.713 1358 317.047 1375 327.047C1389.74 335.718 1374 341.713 1358.5 346.546" stroke="#D1D4D8" stroke-width="3" stroke-linecap="round"/>
<path d="M1362 356.547C1369.17 362.214 1374.5 376.247 1338.5 387.047" stroke="#D1D4D8" stroke-width="3" stroke-linecap="round"/>
<path d="M1371 374.047C1377 379.714 1379.4 393.647 1341 404.047" stroke="#D1D4D8" stroke-width="3" stroke-linecap="round"/>
<path d="M888 812.141C891.5 826.641 884.5 858.641 855 858.641C821 858.641 813 839.641 791 813.641" stroke="#D1D4D8" stroke-width="3" stroke-linecap="round"/>
<path d="M927 600.734C928.5 594.401 931.9 581.434 933.5 580.234C935.5 578.734 944.5 595.652 946 607.652" stroke="#D1D4D8" stroke-width="3" stroke-linecap="round"/>
<path d="M516.5 659.141C517.167 687.474 516.5 755.141 508.5 799.141" stroke="#D1D4D8" stroke-width="3" stroke-linecap="round"/>
<path d="M636.001 659.141C633.334 687.474 629.601 751.741 636.001 782.141" stroke="#D1D4D8" stroke-width="3" stroke-linecap="round"/>
<path d="M757 647.141C762 672.141 769 734.141 757 782.141" stroke="#D1D4D8" stroke-width="3" stroke-linecap="round"/>
<path d="M919.501 659.141C916.834 684.807 913.101 742.341 919.501 767.141" stroke="#D1D4D8" stroke-width="3" stroke-linecap="round"/>
<path d="M1452.42 1234.29L1443.05 1266.3C1442.43 1268.43 1443.28 1270.74 1445.22 1271.81C1465 1282.74 1483.69 1277.33 1493.08 1271.82C1494.9 1270.75 1495.59 1268.55 1494.98 1266.53L1485.21 1234.55C1484.9 1233.53 1484.27 1232.62 1483.38 1232.03C1470.58 1223.42 1459.03 1227.98 1453.83 1232.09C1453.13 1232.64 1452.67 1233.43 1452.42 1234.29Z" fill="#D1D4D8"/>
<path d="M1414 1358.23L1428.59 1307.14C1462.89 1327.02 1496.4 1315.42 1508.86 1307.14L1523 1358.23C1479.22 1385.23 1432.09 1369.48 1414 1358.23Z" fill="#D1D4D8"/>
<path d="M1382 1450.69L1399.76 1402.14C1452.97 1431.01 1515.46 1414.17 1540.06 1402.14L1556 1450.69C1483.48 1489.54 1409.79 1466.88 1382 1450.69Z" fill="#D1D4D8"/>
<path d="M1367.14 1485.95L1377.17 1465.5C1359.99 1473.08 1322.08 1490.31 1307.86 1498.67C1293.63 1507.03 1301.93 1517.91 1307.86 1522.3C1353.61 1546.54 1447.58 1596.55 1457.43 1602.73C1467.28 1608.91 1478.56 1605.3 1482.97 1602.73C1523.25 1581.68 1608.56 1536.66 1627.53 1525.03C1646.5 1513.4 1635.43 1501.7 1627.53 1497.31L1561.4 1464.14L1571.44 1483.22C1576 1497.31 1564.9 1505.49 1560.49 1509.58C1497.38 1556.47 1415.32 1531.84 1382.19 1513.67C1365.04 1503.49 1365.01 1490.95 1367.14 1485.95Z" fill="#D1D4D8"/>
<path d="M377 560.141L378.887 557.28C390.26 540.12 412.19 533.268 431.383 540.885C448.604 547.718 468.29 542.957 480.428 529.024L496 511.141" stroke="#D1D4D8" stroke-width="3" stroke-linecap="round"/>
<path d="M485.093 469.252C489.468 456.976 485.467 448.714 481.587 447.141C458.199 467.916 422.727 460.204 409.587 447.612C404.906 451.767 407.629 464.059 409.587 467.836C434.914 495.033 470.965 479.798 485.093 469.252Z" fill="#D1D4D8"/>
<path d="M501.5 464.141C546 486.141 597 529.641 600.5 611.641" stroke="#D1D4D8" stroke-width="3" stroke-linecap="round"/>
</svg>
