<svg width="862" height="825" viewBox="0 0 862 825" fill="none" xmlns="http://www.w3.org/2000/svg">
<path d="M395.5 520.844V678.409C395.5 678.935 395.908 679.371 396.433 679.407L528.928 688.339C528.976 688.342 529.024 688.342 529.072 688.338L581.5 684.344" stroke="#D1D4D8" stroke-width="3" stroke-linecap="round"/>
<path d="M395.5 520.344L527.877 503.983C528.474 503.909 529 504.374 529 504.975V686.344" stroke="#D1D4D8" stroke-width="3" stroke-linecap="round"/>
<path d="M555.4 505.344L725.564 516.284C726.09 516.317 726.5 516.754 726.5 517.282V583.344" stroke="#D1D4D8" stroke-width="3" stroke-linecap="round"/>
<path d="M396 679.344H346C345.448 679.344 345 679.791 345 680.344V739.483C345 739.978 345.362 740.398 345.851 740.472L493.351 762.671C493.956 762.762 494.5 762.294 494.5 761.682V704.344" stroke="#D1D4D8" stroke-width="3" stroke-linecap="round"/>
<path d="M494 762.844L612.5 751.844" stroke="#D1D4D8" stroke-width="3" stroke-linecap="round"/>
<path d="M564 759.844V634.844L618 759.844H564Z" fill="#D1D4D8" fill-opacity="0.3"/>
<path d="M713.926 699.649L635.936 537.333C635.284 535.975 636.309 534.412 637.814 534.468L673.303 535.799C674.04 535.826 674.702 536.258 675.025 536.921L753.375 697.562C753.749 698.329 753.595 699.249 752.991 699.852L737.052 715.791C736.697 716.147 736.221 716.355 735.719 716.375L704.179 717.654C702.42 717.725 701.433 715.653 702.598 714.332L713.623 701.838C714.154 701.235 714.274 700.373 713.926 699.649Z" fill="#D1D4D8"/>
<path d="M669.409 746.96L661.942 754.752C660.696 756.053 661.67 758.21 663.471 758.134L693.273 756.874C693.743 756.855 694.19 756.67 694.537 756.353L701.692 749.821C703.04 748.59 702.169 746.344 700.343 746.344H670.853C670.308 746.344 669.787 746.566 669.409 746.96Z" fill="#D1D4D8"/>
<path d="M444.5 531.597V516.095C444.5 515.092 445.242 514.245 446.236 514.112L472.236 510.646C473.435 510.486 474.5 511.419 474.5 512.628V528.564C474.5 529.578 473.74 530.432 472.732 530.55L446.732 533.583C445.543 533.722 444.5 532.793 444.5 531.597Z" fill="#D1D4D8"/>
<path d="M399.5 733.1V746.13C399.5 747.116 400.219 747.955 401.193 748.107L426.193 751.986C427.406 752.174 428.5 751.236 428.5 750.009V736.117C428.5 735.105 427.744 734.253 426.74 734.131L401.74 731.114C400.549 730.97 399.5 731.9 399.5 733.1Z" fill="#D1D4D8"/>
<path d="M446.5 664.844V680.499C446.5 681.541 447.3 682.408 448.339 682.492L475.339 684.669C476.503 684.763 477.5 683.844 477.5 682.676V664.844C477.5 663.739 476.605 662.844 475.5 662.844H448.5C447.395 662.844 446.5 663.739 446.5 664.844Z" fill="#D1D4D8"/>
<path d="M399.5 703.571V681.986C399.5 680.828 400.482 679.911 401.638 679.991L426.638 681.715C427.686 681.788 428.5 682.659 428.5 683.711V706.588C428.5 707.787 427.451 708.717 426.26 708.573L401.26 705.556C400.256 705.435 399.5 704.583 399.5 703.571Z" fill="#D1D4D8"/>
<path d="M617.929 759.034L545.753 593.425C545.599 593.07 545.663 592.658 545.918 592.367L597.499 533.487C597.972 532.946 598.844 533.067 599.154 533.716L679.188 701.689C679.374 702.079 679.288 702.545 678.974 702.844L619.535 759.36C619.032 759.838 618.207 759.671 617.929 759.034Z" stroke="#D1D4D8" stroke-width="3" stroke-linecap="round"/>
<path d="M619.5 759.844L726.63 754.861C726.869 754.85 727.096 754.754 727.27 754.59L786.058 699.174C786.731 698.54 786.257 697.411 785.333 697.447L697.901 700.844" stroke="#D1D4D8" stroke-width="3" stroke-linecap="round"/>
<path d="M598.5 532.844L701.919 536.821C702.278 536.835 702.602 537.04 702.768 537.359L786 697.344" stroke="#D1D4D8" stroke-width="3" stroke-linecap="round"/>
<path d="M555.223 391.817C581.744 397.256 569.308 433.763 588.746 443.478C611.947 455.074 619.936 389.786 616.917 362.074C616.052 349.923 601.902 344.519 599.993 362.074C597.965 380.722 621.107 453.031 647.629 425.129L665.338 404.643C670.258 398.581 679.958 390.159 688.155 404.643C696.352 419.126 709.414 414.34 714.92 410.136L732.223 397.553" stroke="#D1D4D8" stroke-width="3" stroke-linecap="round"/>
<path d="M719.394 341.869L857.828 318.419C858.815 318.252 859.408 319.478 858.664 320.148L794.128 378.269C794.054 378.335 793.977 378.389 793.885 378.427C788.272 380.736 766.171 371.975 754.76 366.84C754.199 366.588 753.544 366.894 753.376 367.486C750.643 377.129 747.293 386.079 745.656 390.101C745.479 390.536 744.996 390.79 744.639 390.484C741.326 387.638 740.911 369.461 741.154 359.404C741.166 358.89 740.791 358.454 740.285 358.364C731.81 356.849 720.146 349.283 715.223 345.565" stroke="#D1D4D8" stroke-width="3" stroke-linecap="round"/>
<path d="M754.223 366.844C768.739 359.963 805.461 342.73 836.223 328.844" stroke="#D1D4D8" stroke-width="3" stroke-linecap="round"/>
<path d="M745.223 390.844L772.223 374.844" stroke="#D1D4D8" stroke-width="3" stroke-linecap="round"/>
<path d="M751.223 352.844L788.223 340.844" stroke="#D1D4D8" stroke-width="3" stroke-linecap="round"/>
<path d="M221 306.844V11.8438C221 6.32091 225.477 1.84375 231 1.84375H519C524.523 1.84375 529 6.3209 529 11.8438V341.844C529 347.367 524.523 351.844 519 351.844H247.5" stroke="#D1D4D8" stroke-width="3" stroke-linecap="round"/>
<path d="M259 60.8438H339" stroke="#D1D4D8" stroke-width="3" stroke-linecap="round"/>
<path d="M370 61.3438H380.5" stroke="#D1D4D8" stroke-width="3" stroke-linecap="round"/>
<path d="M400 61.3438H410.5" stroke="#D1D4D8" stroke-width="3" stroke-linecap="round"/>
<path d="M430 61.3438H440.5" stroke="#D1D4D8" stroke-width="3" stroke-linecap="round"/>
<mask id="path-26-inside-1_188_2286" fill="white">
<rect x="465" y="46.8438" width="26" height="26" rx="2"/>
</mask>
<rect x="465" y="46.8438" width="26" height="26" rx="2" stroke="#D1D4D8" stroke-width="6" mask="url(#path-26-inside-1_188_2286)"/>
<path d="M259 107.844H339" stroke="#D1D4D8" stroke-width="3" stroke-linecap="round"/>
<path d="M370 108.344H380.5" stroke="#D1D4D8" stroke-width="3" stroke-linecap="round"/>
<path d="M400 108.344H410.5" stroke="#D1D4D8" stroke-width="3" stroke-linecap="round"/>
<path d="M430 108.344H440.5" stroke="#D1D4D8" stroke-width="3" stroke-linecap="round"/>
<mask id="path-31-inside-2_188_2286" fill="white">
<rect x="465" y="93.8438" width="26" height="26" rx="2"/>
</mask>
<rect x="465" y="93.8438" width="26" height="26" rx="2" stroke="#D1D4D8" stroke-width="6" mask="url(#path-31-inside-2_188_2286)"/>
<path d="M259 154.844H339" stroke="#D1D4D8" stroke-width="3" stroke-linecap="round"/>
<path d="M370 155.344H380.5" stroke="#D1D4D8" stroke-width="3" stroke-linecap="round"/>
<path d="M400 155.344H410.5" stroke="#D1D4D8" stroke-width="3" stroke-linecap="round"/>
<path d="M430 155.344H440.5" stroke="#D1D4D8" stroke-width="3" stroke-linecap="round"/>
<mask id="path-36-inside-3_188_2286" fill="white">
<rect x="465" y="140.844" width="26" height="26" rx="2"/>
</mask>
<rect x="465" y="140.844" width="26" height="26" rx="2" stroke="#D1D4D8" stroke-width="6" mask="url(#path-36-inside-3_188_2286)"/>
<path d="M259 201.844H339" stroke="#D1D4D8" stroke-width="3" stroke-linecap="round"/>
<path d="M370 202.344H380.5" stroke="#D1D4D8" stroke-width="3" stroke-linecap="round"/>
<path d="M400 202.344H410.5" stroke="#D1D4D8" stroke-width="3" stroke-linecap="round"/>
<path d="M430 202.344H440.5" stroke="#D1D4D8" stroke-width="3" stroke-linecap="round"/>
<mask id="path-41-inside-4_188_2286" fill="white">
<rect x="465" y="187.844" width="26" height="26" rx="2"/>
</mask>
<rect x="465" y="187.844" width="26" height="26" rx="2" stroke="#D1D4D8" stroke-width="6" mask="url(#path-41-inside-4_188_2286)"/>
<path d="M258.999 248.844L338.999 248.844" stroke="#D1D4D8" stroke-width="3" stroke-linecap="round"/>
<path d="M370 249.344H380.5" stroke="#D1D4D8" stroke-width="3" stroke-linecap="round"/>
<path d="M400 249.344H410.5" stroke="#D1D4D8" stroke-width="3" stroke-linecap="round"/>
<path d="M430 249.344H440.5" stroke="#D1D4D8" stroke-width="3" stroke-linecap="round"/>
<mask id="path-46-inside-5_188_2286" fill="white">
<rect x="465" y="234.844" width="26" height="26" rx="2"/>
</mask>
<rect x="465" y="234.844" width="26" height="26" rx="2" stroke="#D1D4D8" stroke-width="6" mask="url(#path-46-inside-5_188_2286)"/>
<path d="M259.499 295.845L339 295.845" stroke="#D1D4D8" stroke-width="3" stroke-linecap="round"/>
<path d="M370 296.344H380.5" stroke="#D1D4D8" stroke-width="3" stroke-linecap="round"/>
<path d="M400 296.344H410.5" stroke="#D1D4D8" stroke-width="3" stroke-linecap="round"/>
<path d="M430 296.344H440.5" stroke="#D1D4D8" stroke-width="3" stroke-linecap="round"/>
<mask id="path-51-inside-6_188_2286" fill="white">
<rect x="465" y="281.844" width="26" height="26" rx="2"/>
</mask>
<rect x="465" y="281.844" width="26" height="26" rx="2" stroke="#D1D4D8" stroke-width="6" mask="url(#path-51-inside-6_188_2286)"/>
<path d="M89 400.844C101.586 391.626 129.291 374.813 139.364 381.293C151.951 389.392 143.915 390.509 137.486 388.834" stroke="#D1D4D8" stroke-width="3" stroke-linecap="round"/>
<path d="M125.901 388.274C132.408 387.262 145.536 387.39 145.971 396.012C146.217 401.039 144.883 400.203 142.443 398.633C140.693 397.51 138.376 396.012 135.662 396.012H124" stroke="#D1D4D8" stroke-width="3" stroke-linecap="round"/>
<path d="M124 396.844H135.851C138.609 396.844 140.964 398.331 142.742 399.446C144.482 402.601 145.77 408.419 136.956 406.444C128.142 404.469 124.644 405.073 124 405.621" stroke="#D1D4D8" stroke-width="3" stroke-linecap="round"/>
<path d="M137.08 405.844C139.914 409.131 143.184 415.322 133.625 413.788C124.066 412.254 116.545 416.984 113.979 419.54C109.645 422.462 99.3725 426.114 93 417.349" stroke="#D1D4D8" stroke-width="3" stroke-linecap="round"/>
<path d="M44.5681 413.995C90.1214 388.775 90.1683 412.527 86.3199 427.012C80.6269 441.656 52.3867 457.787 39.7086 459.717C21.8243 463.821 -9.84293 458.958 6.5806 406.673C27.1147 341.318 36.4032 293.589 105 280.844" stroke="#D1D4D8" stroke-width="3" stroke-linecap="round"/>
<path d="M69 357.844C69 382.257 67.56 381.682 57 403.844" stroke="#D1D4D8" stroke-width="3" stroke-linecap="round"/>
<path d="M162 370.844V363.844" stroke="#D1D4D8" stroke-width="3" stroke-linecap="round"/>
<path d="M170 369.844L173 361.844" stroke="#D1D4D8" stroke-width="3" stroke-linecap="round"/>
<path d="M178 372.844L185 356.844" stroke="#D1D4D8" stroke-width="3" stroke-linecap="round"/>
<path d="M88.3284 761.844C89.2442 769.494 87.4127 781.407 78.8627 785.341C68.1728 790.259 40.7752 806.926 67.0795 810.478C88.1229 813.319 105.074 798.911 110.923 791.352C112.932 782.608 114.362 772.499 110.923 761.844" stroke="#D1D4D8" stroke-width="3" stroke-linecap="round"/>
<path d="M129.597 748.15C35.8769 806.848 50.4305 593.969 56.8479 490.529C124.898 511.725 180.002 498.138 192.211 478.844C195.677 491.158 206.41 579.32 207.316 604.393L207.353 605.393C208.829 646.154 212.183 739.057 159.302 757.933C146.15 762.628 136.556 758.411 129.597 748.15Z" fill="#D1D4D8"/>
<path d="M138.248 762.744C137.748 768.129 137.871 780.699 139.879 787.726C144.951 805.503 160.29 824.311 197.379 822.753C202.375 821.577 209.371 816.617 197.379 806.19C192.995 802.383 188.243 798.9 183.774 795.301C172.951 786.581 163.844 777.182 166.012 760.844" stroke="#D1D4D8" stroke-width="3" stroke-linecap="round"/>
<path d="M52 457.844C53.904 479.632 54.716 478.254 57.9827 490.664C90.9667 500.594 163.944 512.012 192 478.254" stroke="#D1D4D8" stroke-width="3" stroke-linecap="round"/>
<path d="M86 330.844L87.0307 329.268C93.2428 319.812 105.221 316.037 115.705 320.234C125.111 323.999 135.864 321.375 142.494 313.698L151 303.844" stroke="#D1D4D8" stroke-width="3" stroke-linecap="round"/>
<path d="M144.951 280.513C147.357 274.034 145.157 269.674 143.023 268.844C130.16 279.809 110.65 275.738 103.423 269.093C100.848 271.286 102.346 277.773 103.423 279.766C117.353 294.12 137.181 286.08 144.951 280.513Z" fill="#D1D4D8"/>
<path d="M183.264 170.146C177.283 191.514 174.283 193.407 165.583 202.874C165.583 193.519 163.961 177.815 163.961 171.276C135.451 171.276 111.395 159.707 102.919 153.922C103.229 173.539 84.7224 186.366 84.7224 186.366C84.7224 186.366 87.3756 194.288 88.8944 212.018C90.1131 226.204 86.6161 223.462 84.7224 220.318C79.2661 202.814 70.3223 207.492 66.5254 212.018C20.006 136.878 91.5475 122.359 105.198 123.742C115.51 114.99 129.892 108.131 139.998 107.125C176.467 103.497 192.967 135.5 183.264 170.146Z" fill="#D1D4D8"/>
<path d="M85 234.092C89.8931 264.079 122.722 285.643 146.416 261.35C170.109 237.059 165.365 192.593 162.835 171.844" stroke="#D1D4D8" stroke-width="3" stroke-linecap="round"/>
<path d="M65.9969 209.844C63.0631 217.307 65.8159 233.844 85 233.844" stroke="#D1D4D8" stroke-width="3" stroke-linecap="round"/>
<path d="M76.1103 214.844C75.7604 216.081 76.0404 219.015 80 220.844" stroke="#D1D4D8" stroke-width="3" stroke-linecap="round"/>
<path d="M163 229.844C169.028 227.211 173.284 217.459 171.647 201.844" stroke="#D1D4D8" stroke-width="3" stroke-linecap="round"/>
<path d="M127 248.459C132.9 250.286 132.527 245.257 137 240.844" stroke="#D1D4D8" stroke-width="3" stroke-linecap="round"/>
<path d="M146 213.844C148.209 213.844 150 211.829 150 209.344C150 206.858 148.209 204.844 146 204.844C143.791 204.844 142 206.858 142 209.344C142 211.829 143.791 213.844 146 213.844Z" fill="#D1D4D8"/>
<path d="M110 213.844C112.761 213.844 115 212.053 115 209.844C115 207.635 112.761 205.844 110 205.844C107.239 205.844 105 207.635 105 209.844C105 212.053 107.239 213.844 110 213.844Z" fill="#D1D4D8"/>
<path d="M101 200.844C101.891 198.731 105.745 194.824 114 196.091" stroke="#D1D4D8" stroke-width="3" stroke-linecap="round"/>
<path d="M139 195.844C140.969 194.335 146.326 192.221 152 195.844" stroke="#D1D4D8" stroke-width="3" stroke-linecap="round"/>
<path d="M125.479 208.844C124.789 213.94 124.309 224.275 128 224.844" stroke="#D1D4D8" stroke-width="3" stroke-linecap="round"/>
<path d="M117.733 382.844L103.547 359.572C102.439 357.753 103.068 355.397 104.946 354.345C106.777 353.32 109.105 353.916 110.185 355.683L125 379.89" stroke="#D1D4D8" stroke-width="3" stroke-linecap="round"/>
<path d="M121 465.844C128.472 441.598 145.871 394.527 156.922 395.872C157.424 395.934 157.926 396.077 158.427 396.148L200 401.994" stroke="#D1D4D8" stroke-width="3" stroke-linecap="round"/>
<path d="M206 410.844L203 422.844" stroke="#D1D4D8" stroke-width="3" stroke-linecap="round"/>
<path d="M158.187 401.844C150.194 406.693 138.303 439.969 131.367 462.361C129.852 467.241 133.199 472.235 138.312 472.871L177.819 477.779C181.858 478.279 185.672 475.854 186.896 472.016L190 462.263" stroke="#D1D4D8" stroke-width="3" stroke-linecap="round"/>
<path d="M164.496 405.844C167.007 404.857 172.227 399.04 170.737 393.403C170.484 392.425 170.024 391.451 169.31 390.51C164.497 384.145 156.206 390.511 158.346 395.718" stroke="#D1D4D8" stroke-width="3" stroke-linecap="round"/>
<path d="M171 393.747C173.736 390.36 181.131 388.812 184.997 395.489C188.592 403.618 181.682 408.263 177.536 408.844" stroke="#D1D4D8" stroke-width="3" stroke-linecap="round"/>
<path d="M185 395.568C187.773 393.392 195.195 390.459 199.49 396.136C204.583 404.934 195.467 410.612 191.706 409.759" stroke="#D1D4D8" stroke-width="3" stroke-linecap="round"/>
<path d="M200 395.513C203.595 393.376 209.983 392.446 212.438 398.021C214.894 403.596 208.843 410.844 203.035 410.844" stroke="#D1D4D8" stroke-width="3" stroke-linecap="round"/>
<path d="M178.631 441.844C177.089 443.879 177.409 449.128 191 453.844" stroke="#D1D4D8" stroke-width="3" stroke-linecap="round"/>
<path d="M213 430.939C198.921 428.079 184.471 427.019 178.997 426.846C176.061 426.754 172.8 429.399 174.44 432.393C174.894 433.16 176.32 434.864 178.386 435.55C187.157 438.564 190.9 438.832 194.762 438.844" stroke="#D1D4D8" stroke-width="3" stroke-linecap="round"/>
<path d="M195 438.147C191.109 438.135 187.339 437.867 178.503 434.844C176.488 435.608 176.226 439.242 179.417 441.511C181.433 442.949 185.081 444.713 191.109 446.844" stroke="#D1D4D8" stroke-width="3" stroke-linecap="round"/>
<path d="M146 280.844C189.927 298.461 224.955 350.227 220.64 421.237C220.01 431.264 214.871 452.025 199.353 454.844" stroke="#D1D4D8" stroke-width="3" stroke-linecap="round"/>
</svg>
