<svg width="988" height="1095" viewBox="0 0 988 1095" fill="none" xmlns="http://www.w3.org/2000/svg">
<path d="M843.946 217.258C876.488 228.962 913.417 269.069 816.889 327.258" stroke="#D1D4D8" stroke-width="3" stroke-linecap="round"/>
<path d="M764.427 210.634C742.875 207.728 686.08 220.808 714.858 280.034C718.33 287.18 730.95 301.254 753.65 300.382C782.745 299.264 798.43 328.966 807.889 343.258" stroke="#D1D4D8" stroke-width="3" stroke-linecap="round"/>
<path d="M755.889 235.258C775.704 250.251 814.167 299.03 809.499 374.193C804.831 449.355 804.393 459.682 804.758 455.45" stroke="#D1D4D8" stroke-width="3" stroke-linecap="round"/>
<path d="M782.889 314.258V376.258" stroke="#D1D4D8" stroke-width="3" stroke-linecap="round"/>
<path d="M829.889 321.258V380.258" stroke="#D1D4D8" stroke-width="3" stroke-linecap="round"/>
<path d="M816.889 327.258C818.226 306.825 825.499 251.22 843.889 192.258" stroke="#D1D4D8" stroke-width="3" stroke-linecap="round"/>
<path d="M776.874 256.258C777.119 245.671 774.447 220.772 761.8 205.877C745.991 187.258 744.889 175.941 744.889 141.258" stroke="#D1D4D8" stroke-width="3" stroke-linecap="round"/>
<path d="M783.889 152.258C777.615 151.157 766.949 143.814 774.478 123.258" stroke="#D1D4D8" stroke-width="3" stroke-linecap="round"/>
<path d="M860.889 152.258C875.094 144.015 897.896 123.765 875.45 108.707C872.372 106.492 865.15 105.164 860.889 117.565" stroke="#D1D4D8" stroke-width="3" stroke-linecap="round"/>
<path d="M870.889 121.258C870.659 125.007 868.337 132.658 860.889 133.258" stroke="#D1D4D8" stroke-width="3" stroke-linecap="round"/>
<path d="M827.889 99.2578C825.154 97.7487 818.124 95.6355 811.889 99.2578" stroke="#D1D4D8" stroke-width="3" stroke-linecap="round"/>
<path d="M702.259 986.037C642.146 955.925 664.518 671.868 699.94 517.564C700.179 516.522 701.68 516.596 701.936 517.634C706.923 537.792 720.596 568.722 774.069 577.331C834.873 587.12 889.759 574.513 892.57 570.212C895.381 565.911 901.282 550.723 900.217 533.281C918.429 640.821 960.622 861.959 951.653 925.505C943.11 986.037 930.442 982.079 889.948 986.037C802.524 994.582 798.593 783.97 800.471 665.308C800.49 664.136 798.993 663.964 798.743 665.109C785.21 727.129 800.603 848.093 800.603 906.187C800.603 966.719 778.106 1024.03 702.259 986.037Z" fill="#D1D4D8"/>
<path d="M762.889 103.258C759.812 101.749 751.904 99.6355 744.889 103.258" stroke="#D1D4D8" stroke-width="3" stroke-linecap="round"/>
<path d="M849.462 17.9508C931.428 26.4439 906.382 88.3604 883.615 118.258C878.964 108.007 869.808 107.641 865.811 108.74C862.033 51.0448 825.967 58.8301 808.407 69.9347C771.784 68.4703 762.628 82.9916 762.628 90.4356C746.754 80.4574 733.311 92.1719 732.221 94.735C691.529 -24.7549 793.753 -5.84467 849.462 17.9508Z" fill="#D1D4D8"/>
<path d="M792.889 112.758C792.889 126.875 804.115 138.258 817.889 138.258C831.661 138.258 842.889 126.875 842.889 112.758C842.889 98.6399 831.661 87.2578 817.889 87.2578C804.115 87.2578 792.889 98.6399 792.889 112.758Z" stroke="#D1D4D8" stroke-width="3"/>
<path d="M815.772 123.771C812.832 125.615 808.783 124.455 806.729 121.18C804.675 117.905 805.393 113.755 808.333 111.911C811.273 110.067 815.321 111.227 817.376 114.502C819.43 117.777 818.712 121.927 815.772 123.771Z" fill="#D1D4D8"/>
<path d="M725.889 112.758C725.889 126.807 737.271 138.258 751.389 138.258C765.505 138.258 776.889 126.807 776.889 112.758C776.889 98.7079 765.505 87.2578 751.389 87.2578C737.271 87.2578 725.889 98.7079 725.889 112.758Z" stroke="#D1D4D8" stroke-width="3"/>
<path d="M744.824 121.836C746.445 125.946 750.675 128.128 754.272 126.709C757.868 125.291 759.469 120.808 757.848 116.699C756.226 112.588 751.996 110.407 748.4 111.826C744.804 113.244 743.203 117.726 744.824 121.836Z" fill="#D1D4D8"/>
<path d="M776.889 112.258H791.889" stroke="#D1D4D8" stroke-width="3" stroke-linecap="round"/>
<path d="M843.889 109.258L861.889 114.258" stroke="#D1D4D8" stroke-width="3" stroke-linecap="round"/>
<path d="M735.263 451.258C741.295 468.963 738.28 511.749 711.889 541.258" stroke="#D1D4D8" stroke-width="3" stroke-linecap="round"/>
<path d="M873.186 460.258C865.227 475.316 859.785 524.741 878.889 558.258" stroke="#D1D4D8" stroke-width="3" stroke-linecap="round"/>
<path d="M872.889 459.633C845.878 463.014 781.527 465.529 734.889 451.258" stroke="#D1D4D8" stroke-width="3" stroke-linecap="round"/>
<path d="M876.889 242.258C956.845 287.067 1042.29 404.298 878.679 553.258" stroke="#D1D4D8" stroke-width="3" stroke-linecap="round"/>
<path d="M889.889 465.258C905.167 442.868 905.433 438.688 906.889 410.258" stroke="#D1D4D8" stroke-width="3" stroke-linecap="round"/>
<path d="M898.889 534.258C898.889 553.708 897.193 560.313 893.55 571.479C847.035 582.525 745.282 592.175 710.889 540.883" stroke="#D1D4D8" stroke-width="3" stroke-linecap="round"/>
<path d="M673.889 324.258C699.221 404.857 674.974 470.14 711.889 541.258" stroke="#D1D4D8" stroke-width="3" stroke-linecap="round"/>
<path d="M787.658 180.15C787.194 182.863 786.112 185.096 784.845 186.526C783.559 187.978 782.306 188.398 781.353 188.219C780.399 188.042 779.364 187.193 778.64 185.366C777.928 183.565 777.653 181.079 778.119 178.366C778.584 175.652 779.666 173.42 780.933 171.989C782.218 170.539 783.472 170.118 784.425 170.296C785.379 170.475 786.414 171.323 787.138 173.15C787.85 174.951 788.124 177.436 787.658 180.15Z" stroke="#D1D4D8" stroke-width="3"/>
<path d="M574.077 233.787C574.642 205.547 592.719 145.57 631.697 114.756C642.534 109.41 664.545 109.126 665.889 150.757C659.105 167.861 654.408 194.655 651.61 217.69C647.184 254.12 621.783 296.903 599.074 295.209C576.365 293.514 572.947 253.555 574.077 233.787Z" stroke="#D1D4D8" stroke-width="3" stroke-linecap="round"/>
<path d="M631.889 115.258C650.245 100.399 686.786 75.6635 730.5 76.3627C734.768 75.9257 743.221 76.6249 742.879 82.918C742.452 90.7847 729.645 84.2292 710.008 94.7179" stroke="#D1D4D8" stroke-width="3" stroke-linecap="round"/>
<path d="M694.889 104.258C702.358 107.817 715.978 116.579 710.705 123.15C709.68 124.519 706.751 127.258 703.236 127.258" stroke="#D1D4D8" stroke-width="3" stroke-linecap="round"/>
<path d="M691.972 116.258C697.898 119.273 708.19 127.196 701.946 134.763C695.701 142.33 688.647 141.754 685.9 140.52C683.072 139.403 678.802 136.608 680.142 133.118C680.446 132.327 681.036 131.501 681.997 130.651C687.201 126.045 689.081 130.377 689.37 133.118" stroke="#D1D4D8" stroke-width="3" stroke-linecap="round"/>
<path d="M683.889 91.2959C694.885 90.8586 716.877 94.0096 716.877 110.114C717.02 111.864 715.934 115.103 710.451 114.053" stroke="#D1D4D8" stroke-width="3" stroke-linecap="round"/>
<path d="M665.889 150.258C669.836 140.52 674.491 133.989 679.889 133.258" stroke="#D1D4D8" stroke-width="3" stroke-linecap="round"/>
<path d="M597.889 306.258C611.575 316.216 645.735 333.848 672.889 324.711" stroke="#D1D4D8" stroke-width="3" stroke-linecap="round"/>
<path d="M650.889 225.258C657.807 221.598 682.294 215.377 724.889 219.768" stroke="#D1D4D8" stroke-width="3" stroke-linecap="round"/>
<path d="M385.889 323.758L364.889 294.758" stroke="#D1D4D8" stroke-width="3" stroke-linecap="round"/>
<path d="M407.389 322.758L410.389 267.258" stroke="#D1D4D8" stroke-width="3" stroke-linecap="round"/>
<path d="M429.389 328.258L446.389 300.758" stroke="#D1D4D8" stroke-width="3" stroke-linecap="round"/>
<path d="M378.889 386.533C380.253 381.819 385.396 373.671 392.889 374.291" stroke="#D1D4D8" stroke-width="3" stroke-linecap="round"/>
<ellipse cx="417.389" cy="1070.26" rx="63.5" ry="9.5" fill="#D1D4D8"/>
<path d="M379.888 453.258C380.663 467.977 388.064 467.318 392.012 464.992C392.266 464.842 392.514 464.639 392.731 464.439C417.329 441.68 410.879 487.302 408.888 496.758C406.888 506.258 409.889 518.258 416.889 519.258C423.889 520.258 435.389 515.258 430.389 508.258C425.389 501.258 426.389 486.758 425.389 471.758C424.389 456.758 416.888 446.758 408.888 440.758C400.888 434.758 378.888 434.258 379.888 453.258Z" stroke="#D1D4D8" stroke-width="3" stroke-linecap="round"/>
<path d="M392.388 474.758C391.722 495.758 388.188 541.658 379.388 557.258C368.388 576.758 350.388 744.258 364.888 771.258C375.659 791.314 389.85 841.659 396.894 869.301C397.678 872.377 401.09 873.977 404.094 872.95C409.053 871.256 415.277 869.887 419.389 871.258C425.389 873.258 432.889 867.091 435.889 863.758" stroke="#D1D4D8" stroke-width="3" stroke-linecap="round"/>
<path d="M438.889 870.758C441.889 867.758 446.389 857.058 440.389 838.258C432.889 814.758 419.889 731.758 422.889 711.258C425.289 694.858 420.222 576.758 417.389 519.758" stroke="#D1D4D8" stroke-width="3" stroke-linecap="round"/>
<path d="M425.389 518.258C429.222 587.758 438.689 731.058 445.889 748.258C453.089 765.458 453.555 809.758 452.889 829.758C453.055 834.758 452.055 839.258 452.889 844.258" stroke="#D1D4D8" stroke-width="3" stroke-linecap="round"/>
<path d="M380.889 813.758C379.222 828.924 373.889 848.258 378.389 868.258C383.669 891.723 376.389 967.758 376.389 970.258" stroke="#D1D4D8" stroke-width="3" stroke-linecap="round"/>
<path d="M388.889 970.758C393.555 968.424 406.789 965.158 422.389 970.758C441.889 977.758 442.889 943.258 435.889 923.258C430.289 907.258 432.222 887.591 433.889 879.758" stroke="#D1D4D8" stroke-width="3" stroke-linecap="round"/>
<path d="M418.526 884.758C418.374 896.224 417.708 920.831 416.253 927.534C413.055 942.258 418.071 949.143 419.89 955.758" stroke="#D1D4D8" stroke-width="3" stroke-linecap="round"/>
<path d="M403.889 890.758C400.889 909.258 396.389 948.158 402.389 955.758" stroke="#D1D4D8" stroke-width="3" stroke-linecap="round"/>
<path d="M402.889 420.258C404.222 426.091 406.889 438.858 406.889 449.258" stroke="#D1D4D8" stroke-width="3" stroke-linecap="round"/>
<path d="M233.333 551.625C235.91 551.625 237.999 549.537 237.999 546.961C237.999 544.385 235.91 542.297 233.333 542.297C230.755 542.297 228.666 544.385 228.666 546.961C228.666 549.537 230.755 551.625 233.333 551.625Z" fill="#D1D4D8"/>
<path d="M234.889 592.049C237.467 592.049 239.556 589.961 239.556 587.385C239.556 584.809 237.467 582.721 234.889 582.721C232.312 582.721 230.223 584.809 230.223 587.385C230.223 589.961 232.312 592.049 234.889 592.049Z" fill="#D1D4D8"/>
<path d="M44.5898 1030.49C54.9607 1054.33 100.59 1099.68 114.59 1077.91C120.997 1067.95 114.59 1060.81 101.889 1046.04C88.6463 1030.64 88.4067 1021.42 94.8887 1016.5C98.5179 1013.39 107.333 1005.61 110.444 1002.5" stroke="#D1D4D8" stroke-width="3" stroke-linecap="round"/>
<path d="M198.334 1024.27C198.334 1054.59 227.213 1065.78 251.48 1060.81C281.813 1054.59 298.146 1043.7 289.591 1035.15C282.746 1028.31 268.718 1032.64 261.591 1035.15C248.368 1039.82 238.257 1028.16 242.146 1007.17" stroke="#D1D4D8" stroke-width="3" stroke-linecap="round"/>
<path d="M166.809 1076.49C162.429 1062.72 198.692 1058.6 217.551 1057.25C224.122 1064.54 238.982 1062.56 241.112 1064.25C221.036 1072.35 171.189 1090.26 166.809 1076.49Z" fill="#D1D4D8"/>
<path d="M17.3673 1089.57C5.54505 1078.38 54.4424 1074.54 80.3673 1074.02C84.1006 1079.62 98.516 1083.61 105.256 1084.91C80.8869 1091.13 29.1895 1100.77 17.3673 1089.57Z" fill="#D1D4D8"/>
<path d="M100.332 1001.73C-19.8934 975.767 46.6673 818.659 76.2228 587.387C89.3879 678.759 230.388 680.259 276.112 631.697C271.445 820.6 303.334 899.115 269.112 963.637C244.361 1010.3 181.927 1001.67 161.477 969.714C147.76 984.94 130.305 1008.2 100.332 1001.73Z" fill="#D1D4D8"/>
<path d="M133.778 354.172C95.3982 424.933 69.2229 536.078 81.6673 609.151C96.6489 635.808 131.462 661.021 177.334 664.345C195.775 666.78 248.636 657.353 273.001 634.027C284.944 622.594 285.445 565.618 273.001 513.534" stroke="#D1D4D8" stroke-width="3" stroke-linecap="round"/>
<path d="M214.45 194.036C218.413 149.361 199.068 125.862 188.9 119.698C221.792 138.226 254.207 126.184 266.303 117.847L270.01 137.699C292.545 139.971 297.913 109.438 297.781 93.8875C297.576 69.8951 271.02 40.2704 218.195 52.15C165.369 64.0297 136.378 107.705 128.484 128.058C90.6623 117.664 50.0328 145.949 34.4459 161.39C18.3286 177.419 -15.6038 225.875 8.22341 279.979C40.3701 352.974 125.881 334.848 139.838 327.668C188.065 302.86 209.497 249.879 214.45 194.036Z" fill="#D1D4D8"/>
<path d="M286.726 185.802C285.601 193.385 282.794 199.867 279.286 204.226C275.738 208.636 271.811 210.521 268.343 210.007C264.876 209.494 261.664 206.553 259.547 201.303C257.455 196.115 256.647 189.098 257.772 181.515C258.895 173.932 261.704 167.45 265.212 163.091C268.76 158.68 272.687 156.796 276.155 157.309C279.622 157.823 282.834 160.764 284.95 166.013C287.043 171.201 287.85 178.219 286.726 185.802Z" stroke="#D1D4D8" stroke-width="3"/>
<path d="M272.482 192.326C274.923 192.687 277.43 189.42 278.081 185.029C278.732 180.637 277.281 176.783 274.84 176.422C272.399 176.06 269.893 179.328 269.242 183.72C268.591 188.111 270.041 191.965 272.482 192.326Z" fill="#D1D4D8"/>
<path d="M214.582 190.296L255.895 186.551" stroke="#D1D4D8" stroke-width="3" stroke-linecap="round"/>
<path d="M274.557 138.479C278.125 145.658 288.653 161.349 299.645 170.13C310.888 179.112 311.838 190.561 304.66 198.81L293.47 211.787C299.645 258.98 290.547 293.927 232.676 310.195" stroke="#D1D4D8" stroke-width="3" stroke-linecap="round"/>
<path d="M231.988 233.34C233.355 233.543 234.629 232.599 234.831 231.232C235.034 229.866 234.089 228.593 232.722 228.391C231.355 228.188 230.081 229.132 229.879 230.499C229.677 231.865 230.621 233.138 231.988 233.34Z" fill="#D1D4D8"/>
<path d="M223.02 256.29C224.661 256.533 226.156 255.622 226.358 254.255C226.561 252.888 225.394 251.583 223.753 251.34C222.113 251.097 220.618 252.008 220.415 253.375C220.213 254.741 221.379 256.047 223.02 256.29Z" fill="#D1D4D8"/>
<path d="M244.847 252.442C246.488 252.685 247.981 251.774 248.185 250.407C248.387 249.041 247.221 247.736 245.58 247.492C243.939 247.249 242.444 248.16 242.242 249.527C242.039 250.894 243.205 252.199 244.847 252.442Z" fill="#D1D4D8"/>
<path d="M406.064 380.383C408.262 377.318 409.365 374.527 408.364 372.6C405.451 366.998 398.289 372.748 395.072 376.324C387.066 384.927 371.658 399.88 375.811 382.479C379.963 365.078 371.131 366.149 350.448 387.39L329.889 399.886" stroke="#D1D4D8" stroke-width="3" stroke-linecap="round"/>
<path d="M404.382 407.666C406.153 413.108 403.312 425.704 377.277 428.756C367.427 429.91 365.947 429.748 356.702 428.969H340.865" stroke="#D1D4D8" stroke-width="3" stroke-linecap="round"/>
<path d="M388.594 396.779C393.709 393.011 401.868 386.172 406.056 380.329C410.603 380.276 415.007 382.838 407.989 391.791C404.95 395.668 399.771 400.741 391.535 407.321" stroke="#D1D4D8" stroke-width="3" stroke-linecap="round"/>
<path d="M391.543 407.375C399.779 400.796 404.958 395.722 407.997 391.846C412.335 393.068 416.239 397.795 404.383 407.666C401.79 409.824 398.444 412.23 394.183 414.897" stroke="#D1D4D8" stroke-width="3" stroke-linecap="round"/>
<path d="M141.947 338.08L175.612 367.523C176.705 368.48 178.424 367.914 178.734 366.495L187.511 326.379C187.836 324.892 189.688 324.365 190.748 325.46L213.54 349.008" stroke="#D1D4D8" stroke-width="3" stroke-linecap="round"/>
<path d="M213.539 314.314C215.406 317.811 218.083 323.495 220.591 330.1C224.034 339.166 227.159 349.97 227.438 359.243" stroke="#D1D4D8" stroke-width="3" stroke-linecap="round"/>
<path d="M171.539 395.898C183.036 411.464 247.785 454.571 294.38 407.274L307.088 393.504" stroke="#D1D4D8" stroke-width="3" stroke-linecap="round"/>
<path d="M203.039 548.063C217.998 544.197 288.95 505.363 309.615 469.279" stroke="#D1D4D8" stroke-width="3" stroke-linecap="round"/>
<path d="M304.074 422.371C309.198 440.759 310.641 456.281 309.614 469.28C321.014 461.462 331.905 455.448 331.905 430.791C331.905 413.35 319.199 398.315 307.703 393.504" stroke="#D1D4D8" stroke-width="3" stroke-linecap="round"/>
<path d="M208.767 381.101C211.403 381.101 213.54 378.539 213.54 375.377C213.54 372.215 211.403 369.652 208.767 369.652C206.131 369.652 203.994 372.215 203.994 375.377C203.994 378.539 206.131 381.101 208.767 381.101Z" fill="#D1D4D8"/>
<path d="M215.449 408.769C218.084 408.769 220.221 406.207 220.221 403.045C220.221 399.883 218.084 397.32 215.449 397.32C212.813 397.32 210.676 399.883 210.676 403.045C210.676 406.207 212.813 408.769 215.449 408.769Z" fill="#D1D4D8"/>
<path d="M266.152 250.391C265.537 254.112 267.135 261.801 278.449 262.794" stroke="#D1D4D8" stroke-width="3" stroke-linecap="round"/>
<path d="M224 337.07C240.333 348.731 263.667 371.275 263.667 409.366" stroke="#D1D4D8" stroke-width="3" stroke-linecap="round"/>
<path d="M728.533 1012.07V1026.91C704.833 1037.24 663.324 1060.6 686.897 1071.44C710.47 1082.29 751.38 1059.18 768.889 1046.27V1006.26" stroke="#D1D4D8" stroke-width="3" stroke-linecap="round"/>
<path d="M879.889 1001.26V1038.54C891.369 1048.44 925.174 1067.36 968.546 1063.82C1022.76 1059.4 934.741 1049.29 910.504 1004.42" stroke="#D1D4D8" stroke-width="3" stroke-linecap="round"/>
</svg>
