<svg width="2102" height="1338" viewBox="0 0 2102 1338" fill="none" xmlns="http://www.w3.org/2000/svg">
<path d="M1469.68 827.571C1431.03 787.815 1463.97 676.212 1485.27 625.38L1506.44 668.009C1524.24 708.856 1518.66 734.993 1505.24 755.895L1469.68 827.571Z" fill="#D1D4D8"/>
<path d="M1532 1277.7C1565.17 1262.03 1645.9 1231.7 1703.5 1235.7C1711.67 1236.03 1724 1239.5 1708 1250.7C1692 1261.9 1684 1267.7 1682 1269.2C1673.67 1276.2 1665.5 1291 1699.5 1294.2C1742 1298.2 1862 1254.7 2099.5 1286.7" stroke="#D1D4D8" stroke-width="5" stroke-linecap="round"/>
<path d="M1319.77 1200.34V1179.34" stroke="#D1D4D8" stroke-width="5" stroke-linecap="round"/>
<path d="M1301 1191.01L1312.45 1200.34" stroke="#D1D4D8" stroke-width="5" stroke-linecap="round"/>
<path d="M1327.41 1200.34L1336 1186.67" stroke="#D1D4D8" stroke-width="5" stroke-linecap="round"/>
<path d="M1868 1119.34V1089.34" stroke="#D1D4D8" stroke-width="5" stroke-linecap="round"/>
<path d="M1841 1106.34L1857 1119.34" stroke="#D1D4D8" stroke-width="5" stroke-linecap="round"/>
<path d="M1879 1119.34L1891 1099.34" stroke="#D1D4D8" stroke-width="5" stroke-linecap="round"/>
<path d="M1672.46 719.563C1680.32 683.853 1644.44 679.838 1626.39 683.191C1633.86 709.649 1648.09 737.684 1653.86 747.187C1656.47 753.066 1664.59 755.274 1672.46 719.563Z" fill="#D1D4D8"/>
<path d="M1587.41 402.372C1591.85 436.585 1571.32 454.544 1554.39 462.625C1536.18 445.326 1507.94 399.984 1540.68 357.011C1554.58 359.24 1582.76 366.586 1587.41 402.372Z" fill="#D1D4D8"/>
<path d="M1554.39 462.626L1490.92 470.866L1467.12 473.956L1441.11 428.931C1443.72 424.156 1443.27 417.055 1442.71 414.101L1450.65 413.071C1448.65 379.045 1467.52 367.015 1477.21 365.253L1540.68 357.012C1554.58 359.241 1582.76 366.587 1587.41 402.373C1591.85 436.586 1571.33 454.545 1554.39 462.626Z" stroke="#D1D4D8" stroke-width="5"/>
<path d="M1506.44 668.009L1404.63 455.58C1403.53 453.291 1404.33 450.542 1406.47 449.189L1435.66 430.795C1438.04 429.299 1441.18 430.047 1442.61 432.457C1470.95 479.945 1528.42 578.43 1551.39 625.871C1573.13 670.777 1606.94 683.826 1624.78 685.235C1627.3 685.435 1629.48 687.23 1629.97 689.711C1634.31 711.495 1645.17 732.351 1653.49 745.351C1655.82 748.984 1653.03 754.199 1648.73 754.508C1562.64 760.708 1479.1 902.247 1447 975.219C1434.31 998.648 1407.55 1009.25 1395.76 1011.62L550.827 1121.32C549.28 1121.53 547.709 1120.99 546.656 1119.84C529.303 1100.87 541.198 1088.89 552.224 1083.87C554.532 1082.82 556.009 1080.39 555.584 1077.89C534.011 950.967 613.587 830.321 659.053 782.522C660.662 780.831 660.857 778.295 659.739 776.247C647.93 754.627 661.532 742.772 673.018 738.244C675.441 737.289 677.038 734.841 676.795 732.247C675.172 714.948 682.207 706.818 686.697 704.554C687.086 704.358 687.49 704.256 687.921 704.2L834.554 685.162C851.992 682.898 861.5 693.195 865.344 701.136C866.426 703.37 868.724 704.927 871.186 704.607L1057.8 680.378C1113.54 676.31 1146.15 706.003 1156.1 722.158C1156.45 722.726 1156.65 723.351 1156.74 724.012L1157.81 732.289C1158.09 734.442 1156.96 736.51 1155.04 737.523C1126.04 752.813 1072.33 801.397 1066.1 888.037C1059.66 977.694 1129.05 1002.48 1164.94 1003.71C1165.2 1003.72 1165.46 1003.71 1165.72 1003.67L1382.01 975.591C1391.92 974.303 1397.35 968.22 1398.83 965.34L1505.57 758.373C1525.66 718.958 1513.91 686.703 1506.44 668.009Z" stroke="#D1D4D8" stroke-width="5" stroke-linecap="round"/>
<circle cx="1412.96" cy="429.56" r="28" transform="rotate(-7.3978 1412.96 429.56)" fill="#D1D4D8"/>
<path d="M555.617 1080.37L1165.32 1003.72" stroke="#D1D4D8" stroke-width="5" stroke-linecap="round"/>
<path d="M1104.79 782.174C961.345 777.606 671.817 828.206 661.295 1067.15" stroke="#D1D4D8" stroke-width="5" stroke-linecap="round"/>
<path d="M1070.71 853.657C975.876 850.575 828.388 888.26 821.515 1046.85" stroke="#D1D4D8" stroke-width="5" stroke-linecap="round"/>
<path d="M660.666 778.832L1150.06 715.29" stroke="#D1D4D8" stroke-width="5" stroke-linecap="round"/>
<circle cx="1682.46" cy="944.144" r="51" transform="rotate(-7.3978 1682.46 944.144)" fill="#D1D4D8"/>
<circle cx="1682.46" cy="944.144" r="123.5" transform="rotate(-7.3978 1682.46 944.144)" stroke="#D1D4D8" stroke-width="5"/>
<circle cx="1682.46" cy="944.145" r="143.5" transform="rotate(-7.3978 1682.46 944.145)" stroke="#D1D4D8" stroke-width="25"/>
<path d="M1620.58 921.925C1653.71 857.12 1742.05 843.969 1782.08 845.494C1818.86 845.257 1805.23 810.22 1791.92 800.856C1642.19 695.574 1543.26 835.158 1522.78 883.195C1502.29 931.233 1470.13 974.737 1451.34 1000.87C1436.3 1021.78 1450.91 1028.66 1460.09 1029.48L1537.44 1019.44C1592.22 1010.31 1592.84 984.013 1598.78 967.612C1603.53 954.491 1615.29 931.687 1620.58 921.925Z" fill="#D1D4D8"/>
<path d="M64 1044.34V1233.61C64 1234.13 64.4077 1234.57 64.9327 1234.6L223.985 1245.34C224.032 1245.34 224.08 1245.34 224.128 1245.33L287 1240.54" stroke="#D1D4D8" stroke-width="7" stroke-linecap="round"/>
<path d="M64 1044.05L222.878 1024.48C223.474 1024.4 224 1024.87 224 1025.47V1242.34" stroke="#D1D4D8" stroke-width="7" stroke-linecap="round"/>
<path d="M256 1026.34L459.064 1039.4C459.59 1039.43 460 1039.87 460 1040.39V1119.34" stroke="#D1D4D8" stroke-width="7" stroke-linecap="round"/>
<path d="M65.0635 1234.34H5C4.44771 1234.34 4 1234.79 4 1235.34V1306.53C4 1307.03 4.36186 1307.45 4.85114 1307.52L181.851 1334.17C182.456 1334.26 183 1333.79 183 1333.18V1264.28" stroke="#D1D4D8" stroke-width="7" stroke-linecap="round"/>
<path d="M182 1334.34L324 1321.34" stroke="#D1D4D8" stroke-width="7" stroke-linecap="round"/>
<path d="M266 1330.34V1181.34L331 1330.34H266Z" fill="#D1D4D8" fill-opacity="0.3"/>
<path d="M445.155 1258.85L351.441 1064.33C350.787 1062.97 351.812 1061.41 353.317 1061.46L396.67 1063.09C397.407 1063.11 398.068 1063.54 398.392 1064.21L492.372 1256.38C492.747 1257.15 492.593 1258.07 491.987 1258.67L472.611 1278C472.256 1278.35 471.78 1278.56 471.279 1278.58L432.469 1280.15C430.709 1280.22 429.723 1278.15 430.891 1276.83L444.851 1261.05C445.385 1260.44 445.505 1259.58 445.155 1258.85Z" fill="#D1D4D8"/>
<path d="M392.107 1314.99L382.252 1325.78C381.051 1327.09 382.038 1329.21 383.818 1329.13L420.546 1327.5C421.031 1327.48 421.491 1327.28 421.841 1326.94L431.404 1317.78C432.706 1316.54 431.823 1314.34 430.021 1314.34H393.584C393.022 1314.34 392.486 1314.58 392.107 1314.99Z" fill="#D1D4D8"/>
<path d="M123 1058.09V1038.86C123 1037.86 123.743 1037.01 124.738 1036.88L156.738 1032.64C157.936 1032.48 159 1033.41 159 1034.62V1054.39C159 1055.4 158.239 1056.26 157.23 1056.37L125.23 1060.08C124.042 1060.22 123 1059.29 123 1058.09Z" fill="#D1D4D8"/>
<path d="M69 1298.59V1314.38C69 1315.37 69.7248 1316.22 70.7043 1316.36L101.704 1321C102.913 1321.18 104 1320.24 104 1319.02V1302.19C104 1301.18 103.239 1300.32 102.231 1300.2L71.231 1296.6C70.0429 1296.46 69 1297.39 69 1298.59Z" fill="#D1D4D8"/>
<path d="M125 1216.34V1236.43C125 1237.47 125.798 1238.34 126.835 1238.42L159.835 1241.16C161 1241.26 162 1240.34 162 1239.17V1216.34C162 1215.24 161.105 1214.34 160 1214.34H127C125.895 1214.34 125 1215.24 125 1216.34Z" fill="#D1D4D8"/>
<path d="M69 1263.46V1237.48C69 1236.32 69.9791 1235.41 71.1337 1235.48L102.134 1237.56C103.184 1237.63 104 1238.5 104 1239.56V1267.09C104 1268.29 102.956 1269.22 101.767 1269.08L70.7671 1265.44C69.7595 1265.33 69 1264.47 69 1263.46Z" fill="#D1D4D8"/>
<path d="M330.593 1330.03L244.252 1131.36C244.098 1131.01 244.162 1130.6 244.416 1130.3L306.281 1059.49C306.755 1058.95 307.629 1059.07 307.937 1059.72L403.689 1261.24C403.875 1261.63 403.789 1262.09 403.476 1262.39L332.201 1330.35C331.697 1330.83 330.87 1330.66 330.593 1330.03Z" stroke="#D1D4D8" stroke-width="7" stroke-linecap="round"/>
<path d="M332 1330.34L460.506 1324.44C460.742 1324.43 460.968 1324.33 461.141 1324.17L532.03 1258.17C532.708 1257.54 532.236 1256.41 531.31 1256.44L425.988 1260.48" stroke="#D1D4D8" stroke-width="7" stroke-linecap="round"/>
<path d="M307 1059.34L431.22 1064.11C431.579 1064.12 431.902 1064.33 432.068 1064.64L532 1256.34" stroke="#D1D4D8" stroke-width="7" stroke-linecap="round"/>
<path d="M561.547 893.045C567.194 880.614 584.485 878.134 592.425 878.447C574.228 912.272 562.243 956.651 558.525 974.613L530.758 978.218C517.957 957.292 531.199 949.253 539.42 947.85C544.443 934.761 555.901 905.475 561.547 893.045Z" fill="#D1D4D8"/>
<path d="M315 266.34C319.289 262.065 330.268 222.727 410 214.34" stroke="#D1D4D8" stroke-width="5" stroke-linecap="round"/>
<path d="M464 214.34C475.746 217.709 511.898 224.641 527.766 242.641C574.792 295.974 588.149 394.824 526.424 496.34" stroke="#D1D4D8" stroke-width="5" stroke-linecap="round"/>
<path d="M296 343.687C310.183 349.006 333.57 346.704 349 333.34" stroke="#D1D4D8" stroke-width="5" stroke-linecap="round"/>
<path d="M392.274 814.34C393.414 823.864 391.127 838.694 380.478 843.592C367.166 849.714 333.034 870.463 365.801 874.884C392.015 878.422 413.129 860.49 420.413 851.075C422.911 840.19 424.7 827.605 420.413 814.34" stroke="#D1D4D8" stroke-width="5" stroke-linecap="round"/>
<path d="M443.496 796.815C326.949 869.719 345.051 605.326 353.026 476.853C437.653 503.179 506.182 486.303 521.363 462.34C525.674 477.635 539.033 587.132 540.153 618.272C541.954 668.225 546.745 785.333 480.442 808.966C464.088 814.798 452.159 809.56 443.496 796.815Z" fill="#D1D4D8"/>
<path d="M454.301 814.7C453.695 821.391 453.843 836.998 456.272 845.725C462.417 867.807 481.018 891.163 525.974 889.227C532.031 887.77 540.51 881.606 525.974 868.656C520.664 863.929 514.896 859.605 509.485 855.134C496.369 844.309 485.332 832.634 487.95 812.34" stroke="#D1D4D8" stroke-width="5" stroke-linecap="round"/>
<path d="M351.349 353.784C345.964 403.364 350.979 461.714 355.018 476.892C395.853 489.034 486.221 502.997 520.957 461.714C522.526 454.518 528.059 381.778 518.635 344.34" stroke="#D1D4D8" stroke-width="5" stroke-linecap="round"/>
<path d="M389 278.34L394.443 269.958C399.744 261.79 410.074 258.529 419.082 262.175L432.055 267.422C440.149 270.695 449.421 268.425 455.101 261.778L470 244.34" stroke="#D1D4D8" stroke-width="5" stroke-linecap="round"/>
<path d="M463.684 217.309C466.698 208.443 463.952 202.476 461.273 201.34C445.198 216.344 420.817 210.774 411.775 201.681C408.56 204.682 410.436 213.558 411.775 216.286C429.19 235.929 453.972 224.925 463.684 217.309Z" fill="#D1D4D8"/>
<path d="M245.058 287.581C240.033 261.376 245.035 202.386 275.179 166.214C284.193 159.133 304.58 154.523 314.009 192.725C311.071 209.87 311.974 235.555 313.902 257.392C316.951 291.928 301.768 336.478 280.345 339.398C258.921 342.318 247.894 306.07 245.058 287.581Z" stroke="#D1D4D8" stroke-width="5" stroke-linecap="round"/>
<path d="M275.285 166.276C289.325 149.251 318.205 119.739 358.577 111.813C362.422 110.582 370.337 109.559 371.232 115.315C372.351 122.509 359.303 119.091 343.244 132.416" stroke="#D1D4D8" stroke-width="5" stroke-linecap="round"/>
<path d="M331.807 144.264C339.078 146.197 352.788 151.846 349.462 158.976C348.834 160.448 346.805 163.557 343.716 164.214" stroke="#D1D4D8" stroke-width="5" stroke-linecap="round"/>
<path d="M330.758 155.103C336.83 156.825 347.921 162.383 343.708 170.84C339.494 179.298 332.879 180.129 330.098 179.488C327.266 178.974 322.764 177.139 323.289 173.54C323.407 172.724 323.784 171.819 324.496 170.818C328.353 165.395 330.965 169.168 331.789 171.732" stroke="#D1D4D8" stroke-width="5" stroke-linecap="round"/>
<path d="M319.115 134.507C329.184 131.95 350.101 130.496 353.216 145.139C353.686 146.702 353.31 149.86 348.043 149.982" stroke="#D1D4D8" stroke-width="5" stroke-linecap="round"/>
<path d="M313.941 192.404C315.682 182.375 318.734 175.248 323.655 173.476" stroke="#D1D4D8" stroke-width="5" stroke-linecap="round"/>
<path d="M510.614 79.4682C503.209 106.178 499.506 108.545 488.735 120.378C488.735 108.683 486.736 89.0539 486.736 80.8801C451.467 80.8801 421.705 66.4188 411.231 59.1881C411.608 83.7093 388.719 99.7425 388.719 99.7425C388.719 99.7425 392.004 109.645 393.876 131.809C395.377 149.54 391.062 146.113 388.719 142.183C381.967 120.303 370.9 126.15 366.208 131.809C308.656 37.8825 397.161 19.734 414.045 21.463C426.801 10.5227 444.587 1.94934 457.095 0.691839C502.199 -3.84334 522.624 36.1597 510.614 79.4682Z" fill="#D1D4D8"/>
<path d="M389 158.905C395.053 195.79 435.684 222.313 465.001 192.433C494.319 162.554 488.454 107.862 485.32 82.3398" stroke="#D1D4D8" stroke-width="5" stroke-linecap="round"/>
<path d="M365.247 129.34C361.578 138.357 365.02 158.34 389 158.34" stroke="#D1D4D8" stroke-width="5" stroke-linecap="round"/>
<path d="M376.166 134.34C375.64 136.403 376.06 141.293 382 144.34" stroke="#D1D4D8" stroke-width="5" stroke-linecap="round"/>
<path d="M485 154.34C493.041 151.048 498.71 138.859 496.53 119.34" stroke="#D1D4D8" stroke-width="5" stroke-linecap="round"/>
<path d="M440 176.34C444.674 166.307 447.732 172.556 454 167.34" stroke="#D1D4D8" stroke-width="5" stroke-linecap="round"/>
<path d="M463 139.34C465.761 139.34 468 137.101 468 134.34C468 131.578 465.761 129.34 463 129.34C460.239 129.34 458 131.578 458 134.34C458 137.101 460.239 139.34 463 139.34Z" fill="#D1D4D8"/>
<path d="M418.5 140.34C421.538 140.34 424 138.101 424 135.34C424 132.578 421.538 130.34 418.5 130.34C415.462 130.34 413 132.578 413 135.34C413 138.101 415.462 140.34 418.5 140.34Z" fill="#D1D4D8"/>
<path d="M408 118.34C409.099 115.383 413.837 109.912 424 111.686" stroke="#D1D4D8" stroke-width="5" stroke-linecap="round"/>
<path d="M455 112.34C457.428 110.076 464.016 106.906 471 112.34" stroke="#D1D4D8" stroke-width="5" stroke-linecap="round"/>
<path d="M438.648 126.34C437.712 133.029 437.08 146.593 442 147.34" stroke="#D1D4D8" stroke-width="5" stroke-linecap="round"/>
</svg>
