<svg width="757" height="1048" viewBox="0 0 757 1048" fill="none" xmlns="http://www.w3.org/2000/svg">
<path d="M270.889 308.035L290.297 287.418C293.809 283.518 302.941 279.283 311.37 293.548C319.799 307.812 316.731 322.894 314.143 328.652" stroke="#D1D4D8" stroke-width="3" stroke-linecap="round"/>
<path d="M373.387 273.652C375.311 271.053 376.335 268.768 376.697 267.184C378.544 263.95 379.648 256.487 368.938 253.709C352.312 249.397 355.084 259.639 358.408 260.177C369.492 261.471 374.121 270.778 373.387 273.652Z" stroke="#D1D4D8" stroke-width="3" stroke-linecap="round"/>
<path d="M316.889 317.652C318.551 311.938 326.977 298.681 347.375 291.367C361.114 286.44 368.919 279.337 372.889 273.652" stroke="#D1D4D8" stroke-width="3" stroke-linecap="round"/>
<path d="M346.889 275.431C341.848 272.746 329.193 269.632 318.889 278.652" stroke="#D1D4D8" stroke-width="3" stroke-linecap="round"/>
<path d="M362.889 275.652C357.96 266.92 345.261 251.962 333.889 261.985" stroke="#D1D4D8" stroke-width="3" stroke-linecap="round"/>
<path d="M305.889 278.652C310.432 265.308 320.086 247.899 351.889 245.652" stroke="#D1D4D8" stroke-width="3" stroke-linecap="round"/>
<path d="M484.605 185.975L509.72 163.914" stroke="#D1D4D8" stroke-width="3" stroke-linecap="round"/>
<path d="M474.342 180.139L498.37 144.598" stroke="#D1D4D8" stroke-width="3" stroke-linecap="round"/>
<path d="M460.889 172.417C465.994 165.48 476.716 146.816 478.77 127.652" stroke="#D1D4D8" stroke-width="3" stroke-linecap="round"/>
<path d="M410.547 325.711C412.849 322.498 414.005 319.573 412.956 317.553C409.905 311.681 402.402 317.708 399.032 321.456C390.645 330.473 374.503 346.146 378.854 327.908C383.204 309.669 373.951 310.792 352.284 333.055L330.746 346.152" stroke="#D1D4D8" stroke-width="3" stroke-linecap="round"/>
<path d="M408.786 354.309C410.641 360.013 407.665 373.215 380.391 376.414C370.072 377.624 368.521 377.454 358.836 376.637H342.246" stroke="#D1D4D8" stroke-width="3" stroke-linecap="round"/>
<path d="M392.246 342.895C397.605 338.946 406.152 331.777 410.539 325.653C415.303 325.598 419.916 328.283 412.564 337.667C409.381 341.73 403.955 347.048 395.327 353.944" stroke="#D1D4D8" stroke-width="3" stroke-linecap="round"/>
<path d="M395.336 354.004C403.964 347.108 409.39 341.79 412.573 337.727C417.118 339.008 421.207 343.963 408.787 354.309C406.071 356.571 402.565 359.092 398.102 361.888" stroke="#D1D4D8" stroke-width="3" stroke-linecap="round"/>
<path d="M166.889 346.075C178.933 362.391 246.764 407.572 295.576 357.999L308.889 343.566" stroke="#D1D4D8" stroke-width="3" stroke-linecap="round"/>
<path d="M199.889 505.568C215.56 501.516 289.889 460.813 311.537 422.992" stroke="#D1D4D8" stroke-width="3" stroke-linecap="round"/>
<path d="M305.734 373.823C311.102 393.096 312.613 409.365 311.537 422.99C323.48 414.795 334.889 408.492 334.889 382.648C334.889 364.367 321.579 348.609 309.536 343.566" stroke="#D1D4D8" stroke-width="3" stroke-linecap="round"/>
<path d="M393.247 303.652C395.247 310.152 392.746 317.052 382.746 318.652" stroke="#D1D4D8" stroke-width="3" stroke-linecap="round"/>
<path d="M372.246 313.652C372.246 304.152 378.246 299.952 388.246 295.152C398.246 290.352 448.078 273.319 471.745 263.652C462.745 281.152 438.245 312.652 412.245 298.652" stroke="#D1D4D8" stroke-width="3" stroke-linecap="round"/>
<path d="M412.246 298.652L404.746 309.652" stroke="#D1D4D8" stroke-width="3" stroke-linecap="round"/>
<path d="M397.747 290.652C391.748 282.152 387.046 265.452 444.246 234.652L420.248 282.652" stroke="#D1D4D8" stroke-width="3" stroke-linecap="round"/>
<path d="M233.333 504.02C235.91 504.02 237.999 501.932 237.999 499.356C237.999 496.78 235.91 494.691 233.333 494.691C230.755 494.691 228.666 496.78 228.666 499.356C228.666 501.932 230.755 504.02 233.333 504.02Z" fill="#D1D4D8"/>
<path d="M234.889 544.446C237.467 544.446 239.556 542.357 239.556 539.781C239.556 537.205 237.467 535.117 234.889 535.117C232.312 535.117 230.223 537.205 230.223 539.781C230.223 542.357 232.312 544.446 234.889 544.446Z" fill="#D1D4D8"/>
<path d="M44.5898 982.884C54.9607 1006.72 100.59 1052.07 114.59 1030.3C120.997 1020.34 114.59 1013.2 101.889 998.432C88.6463 983.033 88.4067 973.815 94.8887 968.891C98.5179 965.782 107.333 958.008 110.444 954.898" stroke="#D1D4D8" stroke-width="3" stroke-linecap="round"/>
<path d="M198.332 976.665C198.332 1006.98 227.211 1018.18 251.478 1013.2C281.811 1006.98 298.144 996.099 289.589 987.548C282.744 980.707 268.716 985.034 261.589 987.548C248.366 992.212 238.255 980.552 242.144 959.562" stroke="#D1D4D8" stroke-width="3" stroke-linecap="round"/>
<path d="M166.809 1028.89C162.429 1015.12 198.692 1011 217.551 1009.65C224.122 1016.94 238.982 1014.96 241.112 1016.64C221.036 1024.75 171.189 1042.66 166.809 1028.89Z" fill="#D1D4D8"/>
<path d="M17.3673 1041.97C5.54505 1030.77 54.4424 1026.94 80.3673 1026.42C84.1006 1032.02 98.516 1036.01 105.256 1037.3C80.8869 1043.52 29.1895 1053.16 17.3673 1041.97Z" fill="#D1D4D8"/>
<path d="M100.332 954.123C-19.8934 928.162 46.6673 771.054 76.2228 539.781C87.1102 636.953 243.445 634.621 276.112 584.092C271.445 772.994 303.334 851.509 269.112 916.031C244.361 962.696 181.928 954.062 161.477 922.109C147.76 937.335 130.305 960.595 100.332 954.123Z" fill="#D1D4D8"/>
<path d="M133.778 306.566C95.3982 377.328 69.2229 488.473 81.6673 561.546C96.6489 588.202 131.462 613.416 177.334 616.74C195.775 619.174 248.636 609.748 273.001 586.422C284.944 574.988 285.445 518.013 273.001 465.929" stroke="#D1D4D8" stroke-width="3" stroke-linecap="round"/>
<path d="M214.45 146.43C218.413 101.756 199.068 78.2569 188.9 72.0926C221.792 90.6208 254.207 78.5784 266.303 70.2417L270.01 90.0932C292.545 92.3658 297.913 61.8325 297.781 46.282C297.576 22.2897 271.02 -7.33506 218.195 4.54452C165.369 16.4242 136.378 60.0993 128.484 80.4522C90.6623 70.0585 50.0328 98.3431 34.4459 113.785C18.3286 129.813 -15.6038 178.27 8.22341 232.374C40.3701 305.369 125.881 287.242 139.838 280.062C188.065 255.254 209.497 202.273 214.45 146.43Z" fill="#D1D4D8"/>
<path d="M286.728 138.197C285.603 145.78 282.796 152.262 279.288 156.621C275.74 161.031 271.813 162.915 268.345 162.402C264.878 161.888 261.665 158.947 259.549 153.698C257.457 148.509 256.649 141.492 257.774 133.909C258.897 126.326 261.706 119.844 265.214 115.485C268.762 111.074 272.689 109.19 276.157 109.703C279.624 110.218 282.836 113.158 284.952 118.407C287.045 123.596 287.852 130.614 286.728 138.197Z" stroke="#D1D4D8" stroke-width="3"/>
<path d="M272.482 144.721C274.923 145.081 277.43 141.815 278.081 137.423C278.732 133.032 277.281 129.178 274.84 128.816C272.399 128.455 269.893 131.723 269.242 136.114C268.591 140.506 270.041 144.359 272.482 144.721Z" fill="#D1D4D8"/>
<path d="M214.582 142.69L255.895 138.945" stroke="#D1D4D8" stroke-width="3" stroke-linecap="round"/>
<path d="M274.557 90.875C278.125 98.0544 288.653 113.745 299.645 122.526C310.888 131.508 311.838 142.957 304.66 151.206L293.47 164.183C299.645 211.377 290.547 246.324 232.676 262.591" stroke="#D1D4D8" stroke-width="3" stroke-linecap="round"/>
<path d="M231.988 185.735C233.355 185.937 234.629 184.994 234.831 183.626C235.034 182.26 234.089 180.987 232.722 180.785C231.355 180.583 230.081 181.526 229.879 182.894C229.677 184.26 230.621 185.533 231.988 185.735Z" fill="#D1D4D8"/>
<path d="M223.018 208.684C224.659 208.928 226.154 208.017 226.357 206.649C226.559 205.282 225.392 203.978 223.752 203.735C222.111 203.491 220.616 204.402 220.413 205.77C220.211 207.136 221.378 208.441 223.018 208.684Z" fill="#D1D4D8"/>
<path d="M244.847 204.837C246.488 205.08 247.981 204.169 248.185 202.802C248.387 201.435 247.221 200.13 245.58 199.887C243.939 199.644 242.444 200.555 242.242 201.922C242.039 203.288 243.205 204.593 244.847 204.837Z" fill="#D1D4D8"/>
<path d="M141.945 290.476L175.61 319.92C176.703 320.877 178.422 320.31 178.732 318.891L187.509 278.775C187.834 277.288 189.686 276.761 190.746 277.857L213.538 301.404" stroke="#D1D4D8" stroke-width="3" stroke-linecap="round"/>
<path d="M213.539 266.711C215.406 270.208 218.083 275.891 220.591 282.496C224.034 291.563 227.159 302.367 227.438 311.639" stroke="#D1D4D8" stroke-width="3" stroke-linecap="round"/>
<path d="M208.765 333.496C211.401 333.496 213.538 330.933 213.538 327.771C213.538 324.61 211.401 322.047 208.765 322.047C206.129 322.047 203.992 324.61 203.992 327.771C203.992 330.933 206.129 333.496 208.765 333.496Z" fill="#D1D4D8"/>
<path d="M215.449 361.164C218.084 361.164 220.221 358.601 220.221 355.439C220.221 352.277 218.084 349.715 215.449 349.715C212.813 349.715 210.676 352.277 210.676 355.439C210.676 358.601 212.813 361.164 215.449 361.164Z" fill="#D1D4D8"/>
<path d="M266.152 202.785C265.537 206.506 267.135 214.196 278.449 215.188" stroke="#D1D4D8" stroke-width="3" stroke-linecap="round"/>
<path d="M224 289.465C240.333 301.125 263.667 323.669 263.667 361.761" stroke="#D1D4D8" stroke-width="3" stroke-linecap="round"/>
<path d="M575.942 349.501C597.924 286.599 551.209 187.302 533.782 151.96C533.282 150.945 533.743 149.765 534.773 149.298L574.657 131.211C575.401 130.874 576.275 131.021 576.862 131.59C611.721 165.388 637.091 212.729 647.149 235.995C647.837 237.588 650.1 237.65 650.856 236.088L701.101 132.279C701.549 131.355 702.622 130.92 703.586 131.271L753.625 149.51C754.617 149.871 755.161 150.928 754.858 151.938C750.243 167.305 738.257 203.652 722.889 240.152C706.889 278.152 703.389 317.652 714.389 349.652C750.015 453.292 720.759 585.235 702.083 654.434C701.955 654.908 701.655 655.305 701.242 655.571C655.855 684.699 604.972 667.931 584.49 655.521C584.09 655.279 583.806 654.903 583.658 654.46C564.318 596.332 555.389 555.886 555.389 488.652C555.389 430.588 568.356 391.751 575.86 349.812C575.879 349.706 575.906 349.602 575.942 349.501Z" stroke="#D1D4D8" stroke-width="3"/>
<path d="M546.977 40.1036C532.207 60.3784 550.106 87.2162 561.588 98.8787C562.07 99.3686 562.78 99.5543 563.447 99.3893C616.047 86.3838 637.003 43.7128 641.195 22.8974C641.325 22.2548 641.118 21.6128 640.642 21.1623C634.669 15.509 621.989 6.80548 615.513 3.67365C595.232 -4.73351 565.859 14.1824 546.977 40.1036Z" stroke="#D1D4D8" stroke-width="3" stroke-linecap="round"/>
<path d="M660.889 84.6523H667.389C668.493 84.6523 669.389 85.5478 669.389 86.6523V105.314C669.389 105.538 669.423 105.754 669.5 105.964C672.156 113.275 681.434 128.949 698.389 135.652" stroke="#D1D4D8" stroke-width="3" stroke-linecap="round"/>
<path d="M639.812 22.8972C660.678 14.4931 701.568 2.02697 698.192 19.3955C693.972 41.1061 649.889 111.652 599.389 132.152" stroke="#D1D4D8" stroke-width="3" stroke-linecap="round"/>
<path d="M563.389 99.6523C560.294 104.414 554.391 116.081 555.533 124.652" stroke="#D1D4D8" stroke-width="3" stroke-linecap="round"/>
<path d="M644.389 677.152V845.682C644.389 846.557 643.82 847.33 642.986 847.591L530.889 882.652" stroke="#D1D4D8" stroke-width="3" stroke-linecap="round"/>
<path d="M643.889 847.152L755.389 890.152" stroke="#D1D4D8" stroke-width="3" stroke-linecap="round"/>
</svg>
