<svg width="1471" height="1423" viewBox="0 0 1471 1423" fill="none" xmlns="http://www.w3.org/2000/svg">
<path d="M1237.5 1288.68C1359.55 1288.68 1458.5 1189.73 1458.5 1067.68C1458.5 945.625 1359.55 846.68 1237.5 846.68C1115.45 846.68 1016.5 945.625 1016.5 1067.68C1016.5 1189.73 1115.45 1288.68 1237.5 1288.68Z" stroke="#D1D4D8" stroke-width="25"/>
<path d="M1430.89 874.286C1392.64 836.036 1343.91 809.988 1290.86 799.435C1237.8 788.882 1182.81 794.298 1132.84 814.999C1082.86 835.699 1040.15 870.754 1010.09 915.731C980.04 960.708 964 1013.59 964 1067.68" stroke="#D1D4D8" stroke-width="25" stroke-linecap="round"/>
<path d="M1237.5 1141.68C1278.37 1141.68 1311.5 1108.55 1311.5 1067.68C1311.5 1026.81 1278.37 993.68 1237.5 993.68C1196.63 993.68 1163.5 1026.81 1163.5 1067.68C1163.5 1108.55 1196.63 1141.68 1237.5 1141.68Z" stroke="#D1D4D8" stroke-width="15"/>
<path d="M1237.5 1266.68C1347.4 1266.68 1436.5 1177.58 1436.5 1067.68C1436.5 957.775 1347.4 868.68 1237.5 868.68C1127.6 868.68 1038.5 957.775 1038.5 1067.68C1038.5 1177.58 1127.6 1266.68 1237.5 1266.68Z" stroke="#D1D4D8" stroke-width="5"/>
<path d="M1237.5 1033.18C1256.55 1033.18 1272 1048.63 1272 1067.68C1272 1086.73 1256.55 1102.18 1237.5 1102.18C1218.45 1102.18 1203 1086.73 1203 1067.68C1203 1048.63 1218.45 1033.18 1237.5 1033.18Z" fill="#D1D4D8"/>
<path d="M929 599.862C945 594.028 972.72 604.143 983 630.862C998 669.862 1046.5 686.362 1065.5 686.362" stroke="#D1D4D8" stroke-width="25" stroke-linecap="square"/>
<path d="M438.5 1289.36C560.555 1289.36 659.5 1190.41 659.5 1068.36C659.5 946.308 560.555 847.363 438.5 847.363C316.445 847.363 217.5 946.308 217.5 1068.36C217.5 1190.41 316.445 1289.36 438.5 1289.36Z" stroke="#D1D4D8" stroke-width="25"/>
<path d="M630 873.076C591.75 834.827 544.911 810.672 491.857 800.119C438.803 789.566 383.812 794.982 333.836 815.683C283.86 836.383 241.146 871.438 211.093 916.415C181.04 961.392 165 1014.27 165 1068.36" stroke="#D1D4D8" stroke-width="25" stroke-linecap="round"/>
<path d="M438.5 1142.36C479.369 1142.36 512.5 1109.23 512.5 1068.36C512.5 1027.49 479.369 994.363 438.5 994.363C397.631 994.363 364.5 1027.49 364.5 1068.36C364.5 1109.23 397.631 1142.36 438.5 1142.36Z" stroke="#D1D4D8" stroke-width="15"/>
<path d="M438.5 1267.36C548.405 1267.36 637.5 1178.26 637.5 1068.36C637.5 958.458 548.405 869.363 438.5 869.363C328.595 869.363 239.5 958.458 239.5 1068.36C239.5 1178.26 328.595 1267.36 438.5 1267.36Z" stroke="#D1D4D8" stroke-width="5"/>
<path d="M438.5 1033.86C457.554 1033.86 473 1049.31 473 1068.36C473 1087.41 457.554 1102.86 438.5 1102.86C419.446 1102.86 404 1087.41 404 1068.36C404 1049.31 419.446 1033.86 438.5 1033.86Z" fill="#D1D4D8"/>
<path d="M454.5 1045.36L660.5 845.363" stroke="#D1D4D8" stroke-width="25" stroke-linecap="square"/>
<path d="M753.5 1071.86L599 701.363" stroke="#D1D4D8" stroke-width="25" stroke-linecap="square"/>
<path d="M454.5 1071.86H753.5H774H1202" stroke="#D1D4D8" stroke-width="25" stroke-linecap="square"/>
<path d="M675 221.863L651 240.863" stroke="#D1D4D8" stroke-width="5" stroke-linecap="round"/>
<path d="M525.999 611.863C508.036 553.891 504.896 494.291 513.026 439.595M635.499 246.863C657.499 235.094 670.999 240.197 682.499 246.863C694.833 254.197 722.299 275.563 733.499 302.363" stroke="#D1D4D8" stroke-width="5" stroke-linecap="round"/>
<path d="M525.999 611.863C523.665 596.196 553.297 562.463 690.497 548.863" stroke="#D1D4D8" stroke-width="5" stroke-linecap="round"/>
<path d="M691.5 548.863C678.666 530.029 653.499 487.263 681.499 438.863" stroke="#D1D4D8" stroke-width="5" stroke-linecap="round"/>
<path d="M672.197 412.628C619.023 447.517 528.11 470.855 487.888 478.428C487.307 478.537 486.832 478.891 486.541 479.405L473.634 502.207C472.892 503.518 473.788 505.143 475.294 505.154C542.469 505.667 639.194 463.178 681.129 440.828C681.953 440.389 682.324 439.456 682.076 438.556L675.241 413.78C674.877 412.461 673.341 411.878 672.197 412.628Z" fill="#D1D4D8"/>
<path d="M690.999 301.363C667.5 304.362 650.951 330.253 662.999 375.367C686.5 463.362 692.499 469.367 718.499 505.867C739.299 535.067 819.833 576.367 857.499 593.367" stroke="#D1D4D8" stroke-width="5" stroke-linecap="round"/>
<path d="M858.5 593.363C862.667 590.696 871 581.863 871 567.863" stroke="#D1D4D8" stroke-width="5" stroke-linecap="round"/>
<path d="M733.5 301.363C740.167 352.863 757.3 460.063 772.5 476.863C787.7 493.663 844.833 544.196 871.5 567.363" stroke="#D1D4D8" stroke-width="5" stroke-linecap="round"/>
<path d="M675 221.863C689.667 229.196 721.5 249.263 729.5 272.863" stroke="#D1D4D8" stroke-width="5" stroke-linecap="round"/>
<path d="M729.5 272.863L730.5 294.863" stroke="#D1D4D8" stroke-width="5" stroke-linecap="round"/>
<path d="M831.5 936.363L889.5 785.363L851.5 795.363L815 805.863C837.4 857.063 817 911.363 812 936.363C816.8 939.163 827 937.529 831.5 936.363Z" fill="#D1D4D8"/>
<path d="M537.501 693.863C519.101 670.663 540.334 654.196 553.001 648.863C566.501 662.363 580.001 666.863 587.001 668.863L609.001 698.363C564.201 705.963 542.26 699.863 537.501 693.863Z" fill="#D1D4D8"/>
<path d="M586.5 668.863C543.7 656.463 532.667 617.363 532.5 599.363C560.9 565.763 651 552.363 692.5 549.863L868 625.363L891 636.363C928.6 661.163 910.333 728.029 896.5 758.363L813.5 780.363C815 765.696 821.075 731.941 823.5 718.363C826 704.363 818 702.863 814 701.363L745.795 681.363C772.51 730.341 801.857 783.693 814 804.363C832.8 836.363 828.167 876.363 823.5 892.363L759 1129.36C725.8 1142.56 704.833 1125.19 698.5 1114.86L729 859.363L586.5 668.863Z" fill="#D1D4D8"/>
<path d="M908.5 624.075C913.333 623.671 922.6 619.563 921 606.363C920.5 601.863 912 592.363 898.5 588.863L873.5 569.363" stroke="#D1D4D8" stroke-width="5" stroke-linecap="round"/>
<path d="M900 627.07C902.351 627.881 906.169 627.813 908.5 624.075C909.804 621.983 910.644 618.742 910.5 613.863" stroke="#D1D4D8" stroke-width="5" stroke-linecap="round"/>
<path d="M890.5 632.875C893.236 632.763 897.638 631.327 900 627.07C901.235 624.844 901.912 621.846 901.5 617.863" stroke="#D1D4D8" stroke-width="5" stroke-linecap="round"/>
<path d="M860 593.363C865.167 600.196 872.4 613.863 880 617.863C878.667 622.863 882.1 634.163 886.5 635.363C888.377 635.874 889.653 634.706 890.5 632.875C891.638 630.413 892 626.752 892 624.363" stroke="#D1D4D8" stroke-width="5" stroke-linecap="round"/>
<path d="M701 1115.36C700 1120.69 691.373 1134.74 685.939 1148.71C680.439 1162.86 679.939 1179.36 690 1180.36L803.5 1179.36C814 1179.36 814.5 1164.86 804.5 1162.86C783 1159.36 748.7 1156.26 741.5 1133.86" stroke="#D1D4D8" stroke-width="5" stroke-linecap="round"/>
<path d="M787.5 1180.86H701.5C695.701 1180.86 691 1185.56 691 1191.36C691 1197.16 695.701 1201.86 701.5 1201.86H787.5C793.299 1201.86 798 1197.16 798 1191.36C798 1185.56 793.299 1180.86 787.5 1180.86Z" fill="#D1D4D8"/>
<path d="M798.344 984.744L854.64 1000.01C860.237 1001.52 863.544 1007.29 862.026 1012.89C860.509 1018.49 854.741 1021.79 849.144 1020.27L792.848 1005.01L798.344 984.744Z" fill="#D1D4D8"/>
<path d="M825.5 936.863C824 947.094 824.5 971.941 852.5 977.863C861.167 979.696 876.453 982.954 877.496 988.863C879.173 998.364 867.667 1000.53 860.5 999.864L812 987.363L799.5 983.363" stroke="#D1D4D8" stroke-width="5" stroke-linecap="round"/>
<path d="M1087.83 741.363C938.099 747.363 739.555 813.529 659 845.863" stroke="#D1D4D8" stroke-width="25" stroke-linecap="round"/>
<path d="M1049 624.719L1230.5 1062.68" stroke="#D1D4D8" stroke-width="25" stroke-linecap="round"/>
<path d="M756 1147.86C786.928 1147.86 812 1122.79 812 1091.86C812 1060.93 786.928 1035.86 756 1035.86C725.072 1035.86 700 1060.93 700 1091.86C700 1122.79 725.072 1147.86 756 1147.86Z" fill="#D1D4D8"/>
<path d="M526.5 612.363C527.5 612.863 531 612.363 534.5 608.863" stroke="#D1D4D8" stroke-width="5" stroke-linecap="round"/>
<path d="M857 1403.45C890.17 1387.78 970.9 1357.45 1028.5 1361.45C1036.67 1361.78 1049 1365.25 1033 1376.45C1017 1387.65 1009 1393.45 1007 1394.95C998.67 1401.95 990.5 1416.75 1024.5 1419.95C1067 1423.95 1187 1380.45 1424.5 1412.45" stroke="#D1D4D8" stroke-width="5" stroke-linecap="round"/>
<path d="M3 1373.2C18.3122 1366.05 55.585 1352.2 82.177 1354.02C85.947 1354.18 91.641 1355.76 84.255 1360.87C76.868 1365.99 73.174 1368.64 72.251 1369.32C68.404 1372.52 64.633 1379.28 80.33 1380.74C99.952 1382.57 155.352 1362.7 265 1377.31" stroke="#D1D4D8" stroke-width="5" stroke-linecap="round"/>
<path d="M723.439 258.719C725.439 252.719 726.194 248.219 727.764 243.099C729.688 236.822 796.571 240.363 806.947 167.597C826.169 167.597 836.435 151.731 821.691 145.166C805.964 137.287 806.963 122.473 809.694 113.719C814.063 102.23 814.194 90.2188 813.194 87.7188" stroke="#D1D4D8" stroke-width="5" stroke-linecap="round"/>
<path d="M793 142.947C795.485 142.947 797.5 140.037 797.5 136.447C797.5 132.857 795.485 129.947 793 129.947C790.515 129.947 788.5 132.857 788.5 136.447C788.5 140.037 790.515 142.947 793 142.947Z" fill="#D1D4D8"/>
<path d="M778.693 117.718C781.86 114.253 790.093 109.142 797.693 116.419" stroke="#D1D4D8" stroke-width="5" stroke-linecap="round"/>
<path d="M757.693 184.719C763.693 193.719 770.193 196.219 782.693 190.219" stroke="#D1D4D8" stroke-width="5" stroke-linecap="round"/>
<path d="M708.703 121.719C707.373 124.733 706.307 131.554 712.693 134.719" stroke="#D1D4D8" stroke-width="5" stroke-linecap="round"/>
<path d="M640.695 91.7188C633.696 132.719 657.454 163.243 674.694 186.719C692.695 176.719 722.114 153.097 710.697 150.719C698.697 148.219 685.69 115.719 697.197 105.596C710.697 93.7187 723.197 111.304 725.697 124.719L736.458 105.596C733.197 92.3465 731.706 69.056 751.834 81.8867C771.962 94.7174 801.222 90.9519 813.336 87.4653C837.099 70.0323 873.86 29.5877 830.809 7.27342C795.001 -11.286 748.977 13.2476 720.963 35.1362C701.765 30.3078 650.237 35.817 640.695 91.7188Z" fill="#D1D4D8"/>
<path d="M676.193 184.219C681.693 193.886 685.893 207.619 684.693 225.219" stroke="#D1D4D8" stroke-width="5" stroke-linecap="round"/>
<path d="M468.77 1412.09V1391.09" stroke="#D1D4D8" stroke-width="5" stroke-linecap="round"/>
<path d="M450 1402.76L461.45 1412.09" stroke="#D1D4D8" stroke-width="5" stroke-linecap="round"/>
<path d="M476.41 1412.09L485 1398.43" stroke="#D1D4D8" stroke-width="5" stroke-linecap="round"/>
<path d="M117.77 1212.72V1191.72" stroke="#D1D4D8" stroke-width="5" stroke-linecap="round"/>
<path d="M99 1203.38L110.45 1212.72" stroke="#D1D4D8" stroke-width="5" stroke-linecap="round"/>
<path d="M125.41 1212.72L134 1199.05" stroke="#D1D4D8" stroke-width="5" stroke-linecap="round"/>
<path d="M989 1180.72V1150.72" stroke="#D1D4D8" stroke-width="5" stroke-linecap="round"/>
<path d="M962 1167.72L978 1180.72" stroke="#D1D4D8" stroke-width="5" stroke-linecap="round"/>
<path d="M1000 1180.72L1012 1160.72" stroke="#D1D4D8" stroke-width="5" stroke-linecap="round"/>
<rect x="459.693" y="134.105" width="28" height="58.3059" transform="rotate(34.0391 459.693 134.105)" fill="#D1D4D8"/>
<rect x="574.637" y="208.094" width="28" height="58.3059" transform="rotate(34.0391 574.637 208.094)" fill="#D1D4D8"/>
<rect x="420.427" y="109.704" width="255.877" height="332.799" rx="7.5" transform="rotate(32.6694 420.427 109.704)" stroke="#D1D4D8" stroke-width="5"/>
<path d="M388.5 158.594L604.5 297.094" stroke="#D1D4D8" stroke-width="5"/>
<path d="M468 329.219C432 330.019 410.333 305.385 404.5 292.719L414 276.219L476.5 313.219L468 329.219Z" fill="#D1D4D8"/>
<rect x="413.915" y="276.134" width="73" height="73" rx="2.5" transform="rotate(30 413.915 276.134)" stroke="#D1D4D8" stroke-width="5"/>
</svg>
