<svg width="421" height="529" viewBox="0 0 421 529" fill="none" xmlns="http://www.w3.org/2000/svg">
<path d="M35.752 1.84375C-0.243191 155.105 -19.5539 408.229 41.1235 438.623C116.97 476.617 139.467 419.305 139.467 358.773C139.467 300.679 124.074 179.715 137.607 117.695C137.857 116.55 139.354 116.722 139.336 117.894C137.457 236.556 141.389 447.168 228.812 438.623C269.306 434.665 281.974 438.623 290.517 378.091C299.486 314.545 258.965 123.384 240.753 15.8438" stroke="#D1D4D8" stroke-width="3" stroke-linecap="round"/>
<path d="M67.3965 464.652V479.497C43.6959 489.824 2.18775 513.188 25.7603 524.031C49.3328 534.874 90.2433 511.768 107.752 498.86V458.844" stroke="#D1D4D8" stroke-width="3" stroke-linecap="round"/>
<path d="M218.752 453.844V491.13C230.233 501.031 264.037 519.948 307.409 516.409C361.624 511.985 273.604 501.873 249.367 457.004" stroke="#D1D4D8" stroke-width="3" stroke-linecap="round"/>
<path d="M303.752 98.8433C322.944 144.52 326.635 226.385 326.313 262.969C326.298 264.687 328.309 265.615 329.624 264.511L338.116 257.377C338.523 257.036 338.777 256.56 338.819 256.03C342.53 209.475 326.294 129.602 317.461 98.0857C317.323 97.5921 316.998 97.1966 316.564 96.924C306.856 90.8294 309.331 84.6386 312.024 82.0537C312.172 81.9107 312.346 81.8012 312.536 81.7219C316.706 79.9875 325.265 78.3664 328.752 76.3433C334.87 72.7934 333.132 69.3221 320.752 71.3433C301.152 74.5433 301.252 91.01 303.752 98.8433Z" fill="#D1D4D8"/>
<path d="M347.369 194.498C349.797 164.874 344.405 114.867 341.078 91.1299C340.909 89.923 341.844 88.8438 343.063 88.8438H353.632C354.328 88.8438 354.972 89.1813 355.272 89.809C362.038 103.961 360.323 165.789 358.433 198.329C358.349 199.76 356.83 200.633 355.548 199.992L348.474 196.455C347.737 196.086 347.302 195.319 347.369 194.498Z" fill="#D1D4D8"/>
<path d="M398.752 220.844C391.937 225.165 377.331 228.327 355.43 233.799C355.313 233.829 355.194 233.87 355.084 233.921C349.743 236.404 349.315 239.301 345.752 244.844C341.471 251.502 330.404 269.02 312.981 270.712C311.635 270.843 310.683 272.162 311.357 273.333C314.742 279.21 324.05 285.237 342.283 275.107C342.585 274.939 342.936 274.83 343.275 274.893C345.686 275.343 348.342 278.891 342.752 286.344" stroke="#D1D4D8" stroke-width="3" stroke-linecap="round"/>
<path d="M411.252 238.344C399.252 259.01 369.152 302.244 344.752 309.844" stroke="#D1D4D8" stroke-width="3" stroke-linecap="round"/>
<path d="M330.466 311.233C322.133 310.233 304.966 305.133 302.966 292.733C300.466 277.233 320.465 292.733 329.465 292.733" stroke="#D1D4D8" stroke-width="3" stroke-linecap="round"/>
<path d="M396.752 491.843C404.418 502.193 414.84 496.838 419.656 492.414C420.047 492.055 420.252 491.545 420.252 491.015V477.751C420.252 476.033 418.173 475.051 416.732 475.988C412.16 478.962 405.746 481.53 401.752 477.843C395.252 471.844 393.252 469.844 381.252 464.844C369.252 459.844 367.252 465.343 366.752 452.843C366.37 443.294 354.102 441.8 347.192 442.265C346.594 442.306 345.992 442.107 345.647 441.617C344.479 439.96 343.523 436.914 346.252 433.844C349.395 430.308 344.917 329.857 342.388 278.587C342.32 277.221 340.934 276.361 339.661 276.862L329.614 280.809C328.803 281.127 328.289 281.897 328.346 282.766C330.344 313.56 333.832 392.536 332.784 430.724C332.765 431.434 332.361 432.043 331.773 432.441C321.677 439.275 320.755 461.569 336.752 452.843C349.695 445.783 355.043 451.607 356.189 455.608C356.234 455.765 356.252 455.921 356.253 456.085C356.319 463.658 359.484 478.239 371.752 477.843C387.252 477.343 386.752 478.343 396.752 491.843Z" fill="#D1D4D8"/>
<path d="M416.251 63.3439C409.636 62.8477 391.039 66.5859 369.257 85.4051C368.931 85.6863 368.531 85.8608 368.102 85.8954C355.346 86.9249 329.061 90.0538 318.589 94.9319C318.05 95.1831 317.434 95.2152 316.895 94.9636C310.723 92.0832 303.334 85.5544 317.441 79.476C317.64 79.3904 317.857 79.3361 318.073 79.3187C324.811 78.7733 336.901 76.5677 333.751 71.8438C330.055 66.2987 315.254 70.1488 306.716 77.474C305.693 78.3517 304.099 78.1281 303.784 76.8177C302.662 72.1584 303.875 64.4353 314.751 57.8438" stroke="#D1D4D8" stroke-width="3" stroke-linecap="round"/>
<path d="M305.751 65.3438C301.585 60.1771 298.451 49.0438 319.251 45.8438" stroke="#D1D4D8" stroke-width="3" stroke-linecap="round"/>
<path d="M309.752 36.8438C311.919 27.3438 320.752 24.3438 340.752 24.3438C366.491 24.3438 388.252 36.8438 398.752 24.8438" stroke="#D1D4D8" stroke-width="3" stroke-linecap="round"/>
<path d="M322.752 37.3421C316.252 35.8421 303.652 36.1421 305.252 49.3421" stroke="#D1D4D8" stroke-width="3" stroke-linecap="round"/>
</svg>
