<svg width="1367" height="1513" viewBox="0 0 1367 1513" fill="none" xmlns="http://www.w3.org/2000/svg">
<path d="M1045 618.625C1071.52 624.065 1059.09 660.572 1078.52 670.287C1101.72 681.883 1109.71 616.594 1106.69 588.883C1105.83 576.732 1091.68 571.328 1089.77 588.883C1087.74 607.53 1110.88 679.84 1137.41 651.937L1155.11 631.452C1160.04 625.39 1169.74 616.968 1177.93 631.452C1186.13 645.935 1199.19 641.149 1204.7 636.945L1222 624.361" stroke="#D1D4D8" stroke-width="3" stroke-linecap="round"/>
<path d="M1209.39 568.678L1347.83 545.227C1348.82 545.06 1349.41 546.286 1348.66 546.956L1284.13 605.077C1284.05 605.144 1283.98 605.197 1283.88 605.235C1278.27 607.545 1256.17 598.784 1244.76 593.649C1244.2 593.397 1243.54 593.702 1243.38 594.294C1240.64 603.938 1237.29 612.888 1235.66 616.91C1235.48 617.345 1235 617.599 1234.64 617.293C1231.33 614.447 1230.91 596.27 1231.15 586.212C1231.17 585.699 1230.79 585.263 1230.29 585.172C1221.81 583.658 1210.15 576.092 1205.22 572.374" stroke="#D1D4D8" stroke-width="3" stroke-linecap="round"/>
<path d="M1244.22 593.652C1258.74 586.772 1295.46 569.539 1326.22 555.652" stroke="#D1D4D8" stroke-width="3" stroke-linecap="round"/>
<path d="M1235.22 617.652L1262.22 601.652" stroke="#D1D4D8" stroke-width="3" stroke-linecap="round"/>
<path d="M1241.22 579.652L1278.22 567.652" stroke="#D1D4D8" stroke-width="3" stroke-linecap="round"/>
<path d="M597 1035.65V1346.04C597 1346.57 597.408 1347 597.933 1347.04L858.904 1364.65C858.952 1364.65 859 1364.65 859.047 1364.65L962 1356.8" stroke="#D1D4D8" stroke-width="3" stroke-linecap="round"/>
<path d="M597 1035.02L857.877 1002.79C858.474 1002.72 859 1003.18 859 1003.78V1360.65" stroke="#D1D4D8" stroke-width="3" stroke-linecap="round"/>
<path d="M911 1005.65L1245.06 1027.17C1245.59 1027.2 1246 1027.64 1246 1028.17V1158.65" stroke="#D1D4D8" stroke-width="3" stroke-linecap="round"/>
<path d="M597.953 1346.65H499C498.448 1346.65 498 1347.1 498 1347.65V1465.6C498 1466.09 498.362 1466.52 498.851 1466.59L789.851 1510.48C790.456 1510.57 791 1510.1 791 1509.49V1395.75" stroke="#D1D4D8" stroke-width="3" stroke-linecap="round"/>
<path d="M790 1510.65L1023 1488.65" stroke="#D1D4D8" stroke-width="3" stroke-linecap="round"/>
<path d="M928 1504.65V1259.65L1033 1504.65H928Z" fill="#D1D4D8" fill-opacity="0.3"/>
<path d="M1222.08 1388.11L1067.43 1065.64C1066.78 1064.28 1067.81 1062.72 1069.31 1062.78L1143.13 1065.55C1143.87 1065.58 1144.53 1066.01 1144.85 1066.67L1299.38 1384.1C1299.75 1384.86 1299.6 1385.78 1298.99 1386.39L1266.28 1419.16C1265.93 1419.51 1265.45 1419.72 1264.95 1419.74L1197.95 1422.46C1196.2 1422.53 1195.21 1420.46 1196.37 1419.14L1221.78 1390.29C1222.31 1389.69 1222.43 1388.83 1222.08 1388.11Z" fill="#D1D4D8"/>
<path d="M1134.92 1479.25L1116.53 1498.05C1115.26 1499.34 1116.23 1501.52 1118.04 1501.44L1181.77 1498.81C1182.24 1498.79 1182.68 1498.61 1183.02 1498.3L1201.1 1482.14C1202.46 1480.92 1201.6 1478.65 1199.76 1478.65H1136.35C1135.81 1478.65 1135.3 1478.87 1134.92 1479.25Z" fill="#D1D4D8"/>
<path d="M693 1059.41V1025.23C693 1024.23 693.743 1023.38 694.737 1023.25L749.737 1015.95C750.935 1015.79 752 1016.73 752 1017.94V1053.02C752 1054.04 751.239 1054.89 750.231 1055.01L695.231 1061.39C694.043 1061.53 693 1060.6 693 1059.41Z" fill="#D1D4D8"/>
<path d="M605 1449.91V1479.15C605 1480.13 605.72 1480.97 606.695 1481.12L659.695 1489.3C660.907 1489.48 662 1488.55 662 1487.32V1456.26C662 1455.25 661.243 1454.4 660.238 1454.28L607.238 1447.92C606.048 1447.78 605 1448.71 605 1449.91Z" fill="#D1D4D8"/>
<path d="M697 1316.65V1350.92C697 1351.96 697.801 1352.83 698.84 1352.91L755.84 1357.48C757.004 1357.57 758 1356.65 758 1355.49V1316.65C758 1315.55 757.105 1314.65 756 1314.65H699C697.895 1314.65 697 1315.55 697 1316.65Z" fill="#D1D4D8"/>
<path d="M605 1396V1349.8C605 1348.64 605.982 1347.72 607.138 1347.8L660.138 1351.45C661.186 1351.53 662 1352.4 662 1353.45V1402.4C662 1403.6 660.951 1404.53 659.76 1404.38L606.76 1397.99C605.756 1397.86 605 1397.01 605 1396Z" fill="#D1D4D8"/>
<path d="M1033.71 1504.34L891.254 1177.85C891.099 1177.49 891.163 1177.08 891.419 1176.79L994.021 1059.79C994.495 1059.25 995.367 1059.37 995.676 1060.02L1153.69 1391.29C1153.87 1391.68 1153.79 1392.14 1153.47 1392.44L1035.31 1504.67C1034.81 1505.15 1033.98 1504.98 1033.71 1504.34Z" stroke="#D1D4D8" stroke-width="3" stroke-linecap="round"/>
<path d="M1036 1504.65L1246.8 1494.91C1247.04 1494.9 1247.27 1494.8 1247.44 1494.64L1365.04 1384.48C1365.72 1383.85 1365.25 1382.72 1364.32 1382.76L1190.01 1389.48" stroke="#D1D4D8" stroke-width="3" stroke-linecap="round"/>
<path d="M995 1059.65L1198.54 1067.48C1198.9 1067.5 1199.22 1067.7 1199.39 1068.02L1363 1382.65" stroke="#D1D4D8" stroke-width="3" stroke-linecap="round"/>
<path d="M649.342 762.033L617.308 1027.6C617.152 1028.89 618.258 1029.99 619.552 1029.82L837.753 1001.38C838.751 1001.25 839.497 1000.4 839.494 999.39L838.509 708.309C838.504 706.979 837.227 706.023 835.95 706.395L650.768 760.352C649.999 760.576 649.438 761.238 649.342 762.033Z" stroke="#D1D4D8" stroke-width="3"/>
<path d="M859.485 724.637L839.414 704.567C838.154 703.307 836 704.199 836 705.981V1001.5C836 1002.66 836.987 1003.58 838.145 1003.5L881.977 1000.3C883.089 1000.22 883.921 999.243 883.824 998.131L860.063 725.878C860.022 725.409 859.818 724.97 859.485 724.637Z" fill="#D1D4D8"/>
<path d="M860 727.652H889.789C890.774 727.652 891.612 728.37 891.765 729.343L934.109 999.659C934.309 1000.93 933.269 1002.06 931.983 1001.96L881.5 998.152" stroke="#D1D4D8" stroke-width="3" stroke-linecap="round"/>
<path d="M739.5 734.223C743.833 714.223 760.2 675.224 791 679.223C807.5 681.366 817 700.723 817 710.223" stroke="#D1D4D8" stroke-width="3" stroke-linecap="round"/>
<path d="M697.5 745.722C702.333 722.222 721.4 671.12 757 668.721C782 667.036 790.5 698.653 787 719.652" stroke="#D1D4D8" stroke-width="3" stroke-linecap="round"/>
<path d="M162 537.652C184.965 520.973 235.514 490.549 253.893 502.275C276.858 516.931 262.196 518.952 250.466 515.92" stroke="#D1D4D8" stroke-width="3" stroke-linecap="round"/>
<path d="M229.457 516.406C241.288 514.634 265.156 514.859 265.947 529.947C266.394 538.745 263.97 537.282 259.533 534.534C256.352 532.569 252.139 529.947 247.203 529.947H226" stroke="#D1D4D8" stroke-width="3" stroke-linecap="round"/>
<path d="M226 530.652H247.331C252.296 530.652 256.535 533.329 259.736 535.336C262.867 541.015 265.185 551.488 249.321 547.932C233.456 544.378 227.159 545.464 226 546.452" stroke="#D1D4D8" stroke-width="3" stroke-linecap="round"/>
<path d="M249.594 547.652C254.841 553.647 260.893 564.936 243.199 562.139C225.505 559.342 211.583 567.967 206.834 572.628C198.81 577.956 179.796 584.615 168 568.633" stroke="#D1D4D8" stroke-width="3" stroke-linecap="round"/>
<path d="M79.6972 563.024C162.843 516.926 162.929 560.341 155.904 586.816C145.513 613.582 93.9679 643.066 70.8273 646.593C38.1842 654.094 -19.6162 645.205 10.3607 549.64C47.8404 430.186 64.7942 342.948 190 319.652" stroke="#D1D4D8" stroke-width="3" stroke-linecap="round"/>
<path d="M125 459.652C125 504.764 122.36 503.701 103 544.652" stroke="#D1D4D8" stroke-width="3" stroke-linecap="round"/>
<path d="M295 483.652V470.652" stroke="#D1D4D8" stroke-width="3" stroke-linecap="round"/>
<path d="M310 482.652L315 466.652" stroke="#D1D4D8" stroke-width="3" stroke-linecap="round"/>
<path d="M325 486.652L337 458.652" stroke="#D1D4D8" stroke-width="3" stroke-linecap="round"/>
<path d="M159.985 1199.65C161.656 1213.55 158.314 1235.19 142.714 1242.33C123.21 1251.26 73.2215 1281.54 121.215 1287.99C159.61 1293.15 190.538 1266.98 201.21 1253.25C204.876 1237.37 207.485 1219.01 201.21 1199.65" stroke="#D1D4D8" stroke-width="3" stroke-linecap="round"/>
<path d="M235.764 1173.26C64.5444 1280.63 91.1326 891.237 102.857 702.027C227.18 740.799 327.85 715.946 350.155 680.652C356.486 703.178 376.095 864.442 377.75 910.304L377.819 912.133C380.515 986.692 386.641 1156.63 290.033 1191.16C266.004 1199.74 248.478 1192.03 235.764 1173.26Z" fill="#D1D4D8"/>
<path d="M251.45 1200.15C250.542 1210.05 250.765 1233.16 254.416 1246.08C263.638 1278.77 291.527 1313.35 358.961 1310.49C368.046 1308.32 380.765 1299.2 358.961 1280.03C350.99 1273.03 342.351 1266.63 334.226 1260.01C314.548 1243.98 297.989 1226.69 301.932 1196.65" stroke="#D1D4D8" stroke-width="3" stroke-linecap="round"/>
<path d="M94 643.652C97.4816 682.669 98.9665 680.2 104.94 702.424C165.253 720.204 298.698 740.65 350 680.2" stroke="#D1D4D8" stroke-width="3" stroke-linecap="round"/>
<path d="M156 409.652L157.887 406.792C169.26 389.632 191.19 382.78 210.383 390.397C227.604 397.23 247.29 392.469 259.428 378.536L275 360.652" stroke="#D1D4D8" stroke-width="3" stroke-linecap="round"/>
<path d="M264.093 318.763C268.468 306.487 264.467 298.226 260.587 296.652C237.199 317.428 201.727 309.715 188.587 297.124C183.906 301.279 186.629 313.571 188.587 317.347C213.914 344.544 249.965 329.31 264.093 318.763Z" fill="#D1D4D8"/>
<path d="M333.015 116.889C322.115 156.125 316.649 159.601 300.795 176.984C300.795 159.806 297.84 130.971 297.84 118.962C245.889 118.962 202.052 97.7205 186.609 87.0978C187.173 123.119 153.45 146.671 153.45 146.671C153.45 146.671 158.284 161.218 161.052 193.775C163.273 219.822 156.901 214.788 153.45 209.015C143.507 176.873 127.209 185.463 120.291 193.775C35.5221 55.8012 165.887 29.1417 190.76 31.6815C209.552 15.6108 235.758 3.0167 254.174 1.1694C320.629 -5.49254 350.696 53.2704 333.015 116.889Z" fill="#D1D4D8"/>
<path d="M154 233.567C162.991 288.444 223.314 327.905 266.851 283.45C310.388 238.996 301.671 157.624 297.021 119.652" stroke="#D1D4D8" stroke-width="3" stroke-linecap="round"/>
<path d="M119.794 189.652C114.514 203.024 119.469 232.652 154 232.652" stroke="#D1D4D8" stroke-width="3" stroke-linecap="round"/>
<path d="M137.193 197.652C136.581 200.128 137.071 205.996 144 209.652" stroke="#D1D4D8" stroke-width="3" stroke-linecap="round"/>
<path d="M297 225.652C308.387 220.857 316.426 203.095 313.333 174.652" stroke="#D1D4D8" stroke-width="3" stroke-linecap="round"/>
<path d="M231 258.978C241.62 262.176 240.949 253.375 249 245.652" stroke="#D1D4D8" stroke-width="3" stroke-linecap="round"/>
<path d="M265.5 196.652C269.642 196.652 273 193.071 273 188.652C273 184.234 269.642 180.652 265.5 180.652C261.358 180.652 258 184.234 258 188.652C258 193.071 261.358 196.652 265.5 196.652Z" fill="#D1D4D8"/>
<path d="M199.5 196.652C204.194 196.652 208 193.518 208 189.652C208 185.786 204.194 182.652 199.5 182.652C194.806 182.652 191 185.786 191 189.652C191 193.518 194.806 196.652 199.5 196.652Z" fill="#D1D4D8"/>
<path d="M183 172.652C184.646 168.427 191.76 160.612 207 163.147" stroke="#D1D4D8" stroke-width="3" stroke-linecap="round"/>
<path d="M253 163.652C256.634 161.389 266.526 158.219 277 163.652" stroke="#D1D4D8" stroke-width="3" stroke-linecap="round"/>
<path d="M227.799 186.652C226.648 196.207 225.848 215.586 232 216.652" stroke="#D1D4D8" stroke-width="3" stroke-linecap="round"/>
<path d="M213.788 505.652L187.995 462.318C185.98 458.932 187.124 454.544 190.538 452.585C193.867 450.678 198.1 451.787 200.063 455.078L227 500.153" stroke="#D1D4D8" stroke-width="3" stroke-linecap="round"/>
<path d="M220 656.652C233.715 612.317 265.649 526.245 285.932 528.704C286.854 528.817 287.775 529.079 288.696 529.209L365 539.898" stroke="#D1D4D8" stroke-width="3" stroke-linecap="round"/>
<path d="M376 557.652L369 578.652" stroke="#D1D4D8" stroke-width="3" stroke-linecap="round"/>
<path d="M287.767 539.652C273.135 548.586 251.368 609.883 238.671 651.132C235.899 660.121 242.025 669.321 251.386 670.492L323.703 679.532C331.095 680.454 338.077 675.987 340.319 668.917L346 650.951" stroke="#D1D4D8" stroke-width="3" stroke-linecap="round"/>
<path d="M299.493 547.652C304.321 545.898 314.36 535.557 311.494 525.535C311.008 523.796 310.122 522.066 308.75 520.392C299.493 509.078 283.55 520.393 287.666 529.65" stroke="#D1D4D8" stroke-width="3" stroke-linecap="round"/>
<path d="M311 525.814C315.925 519.792 329.236 517.041 336.194 528.91C342.665 543.363 330.228 551.62 322.765 552.652" stroke="#D1D4D8" stroke-width="3" stroke-linecap="round"/>
<path d="M337 528.619C342.199 524.652 356.115 519.304 364.169 529.656C373.718 545.7 356.625 556.052 349.574 554.498" stroke="#D1D4D8" stroke-width="3" stroke-linecap="round"/>
<path d="M364 529.695C370.637 525.799 382.429 524.104 386.963 534.269C391.497 544.436 380.326 557.652 369.603 557.652" stroke="#D1D4D8" stroke-width="3" stroke-linecap="round"/>
<path d="M326.116 613.652C323.387 617.383 323.954 627.006 348 635.652" stroke="#D1D4D8" stroke-width="3" stroke-linecap="round"/>
<path d="M389 593.82C363.008 588.815 336.332 586.959 326.225 586.656C320.805 586.496 314.785 591.124 317.812 596.364C318.65 597.705 321.283 600.687 325.097 601.888C341.291 607.163 348.199 607.632 355.33 607.652" stroke="#D1D4D8" stroke-width="3" stroke-linecap="round"/>
<path d="M355 607.433C347.867 607.412 340.955 606.943 324.756 601.652C321.061 602.989 320.581 609.349 326.432 613.32C330.127 615.837 336.816 618.924 347.866 622.652" stroke="#D1D4D8" stroke-width="3" stroke-linecap="round"/>
<path d="M265 319.652C345.825 351.748 410.277 446.057 402.337 575.425C401.179 593.694 391.723 631.517 363.169 636.652" stroke="#D1D4D8" stroke-width="3" stroke-linecap="round"/>
</svg>
