<svg width="2098" height="848" viewBox="0 0 2098 848" fill="none" xmlns="http://www.w3.org/2000/svg">
<path d="M52.5 565.777V723.342C52.5 723.869 52.9078 724.305 53.4327 724.34L185.928 733.273C185.976 733.276 186.024 733.276 186.072 733.272L238.5 729.277" stroke="#D1D4D8" stroke-width="3" stroke-linecap="round"/>
<path d="M52.5 565.277L184.877 548.916C185.474 548.842 186 549.308 186 549.909V731.277" stroke="#D1D4D8" stroke-width="3" stroke-linecap="round"/>
<path d="M212.4 550.277L382.564 561.217C383.09 561.251 383.5 561.688 383.5 562.215V628.277" stroke="#D1D4D8" stroke-width="3" stroke-linecap="round"/>
<path d="M53 724.277H3C2.44772 724.277 2 724.725 2 725.277V784.417C2 784.911 2.36187 785.332 2.85117 785.405L150.351 807.604C150.956 807.695 151.5 807.227 151.5 806.616V749.277" stroke="#D1D4D8" stroke-width="3" stroke-linecap="round"/>
<path d="M151 807.777L269.5 796.777" stroke="#D1D4D8" stroke-width="3" stroke-linecap="round"/>
<path d="M221 804.777V679.777L275 804.777H221Z" fill="#D1D4D8" fill-opacity="0.3"/>
<path d="M370.926 744.582L292.936 582.266C292.284 580.909 293.309 579.345 294.814 579.402L330.303 580.732C331.04 580.76 331.702 581.191 332.025 581.854L410.375 742.495C410.749 743.262 410.595 744.182 409.991 744.786L394.052 760.725C393.697 761.08 393.221 761.289 392.719 761.309L361.179 762.588C359.42 762.659 358.433 760.586 359.598 759.266L370.623 746.772C371.154 746.169 371.274 745.307 370.926 744.582Z" fill="#D1D4D8"/>
<path d="M326.409 791.894L318.942 799.685C317.696 800.986 318.67 803.143 320.471 803.067L350.273 801.808C350.743 801.788 351.19 801.604 351.537 801.287L358.692 794.754C360.04 793.523 359.169 791.277 357.343 791.277H327.853C327.308 791.277 326.787 791.5 326.409 791.894Z" fill="#D1D4D8"/>
<path d="M101.5 576.53V561.028C101.5 560.026 102.242 559.178 103.236 559.046L129.236 555.579C130.435 555.419 131.5 556.352 131.5 557.562V573.497C131.5 574.512 130.74 575.366 129.732 575.484L103.732 578.517C102.543 578.656 101.5 577.727 101.5 576.53Z" fill="#D1D4D8"/>
<path d="M56.5 778.033V791.064C56.5 792.05 57.2188 792.889 58.1933 793.04L83.1933 796.919C84.4056 797.108 85.5 796.17 85.5 794.943V781.05C85.5 780.039 84.7442 779.186 83.7396 779.065L58.7396 776.048C57.5487 775.904 56.5 776.834 56.5 778.033Z" fill="#D1D4D8"/>
<path d="M103.5 709.777V725.432C103.5 726.474 104.3 727.342 105.339 727.426L132.339 729.603C133.503 729.697 134.5 728.778 134.5 727.61V709.777C134.5 708.673 133.605 707.777 132.5 707.777H105.5C104.395 707.777 103.5 708.673 103.5 709.777Z" fill="#D1D4D8"/>
<path d="M56.5 748.504V726.92C56.5 725.761 57.4816 724.845 58.6376 724.925L83.6376 726.649C84.6863 726.721 85.5 727.593 85.5 728.644V751.521C85.5 752.721 84.4513 753.651 83.2604 753.507L58.2604 750.49C57.2558 750.369 56.5 749.516 56.5 748.504Z" fill="#D1D4D8"/>
<path d="M274.929 803.968L202.753 638.359C202.599 638.004 202.663 637.592 202.918 637.3L254.499 578.42C254.972 577.88 255.844 578 256.154 578.649L336.188 746.622C336.374 747.013 336.288 747.479 335.974 747.777L276.535 804.293C276.032 804.771 275.207 804.604 274.929 803.968Z" stroke="#D1D4D8" stroke-width="3" stroke-linecap="round"/>
<path d="M276.5 804.777L383.63 799.795C383.869 799.783 384.096 799.687 384.27 799.523L443.058 744.108C443.731 743.474 443.257 742.345 442.333 742.381L354.901 745.777" stroke="#D1D4D8" stroke-width="3" stroke-linecap="round"/>
<path d="M255.5 577.777L358.919 581.755C359.278 581.769 359.602 581.974 359.768 582.293L443 742.277" stroke="#D1D4D8" stroke-width="3" stroke-linecap="round"/>
<path d="M755 675.777C697.565 675.777 651 629.213 651 571.777C651 514.34 697.565 467.777 755 467.777C812.435 467.777 859 514.34 859 571.777C859 629.213 812.435 675.777 755 675.777Z" stroke="#D1D4D8" stroke-width="3"/>
<path d="M664 479.853C682.105 461.672 705.172 449.291 730.282 444.275C755.398 439.259 781.427 441.834 805.08 451.673C828.738 461.512 848.955 478.174 863.184 499.553C877.408 520.931 885 546.067 885 571.777" stroke="#D1D4D8" stroke-width="3" stroke-linecap="round"/>
<path d="M755 605.777C735.67 605.777 720 590.332 720 571.277C720 552.223 735.67 536.777 755 536.777C774.33 536.777 790 552.223 790 571.277C790 590.332 774.33 605.777 755 605.777Z" stroke="#D1D4D8" stroke-width="3"/>
<path d="M755 660.777C705.849 660.777 666 620.929 666 571.777C666 522.624 705.849 482.777 755 482.777C804.151 482.777 844 522.624 844 571.777C844 620.929 804.151 660.777 755 660.777Z" stroke="#D1D4D8" stroke-width="3"/>
<path d="M755.5 554.777C746.389 554.777 739 562.166 739 571.277C739 580.388 746.389 587.777 755.5 587.777C764.611 587.777 772 580.388 772 571.277C772 562.166 764.611 554.777 755.5 554.777Z" fill="#D1D4D8"/>
<path d="M898 350.52C890.498 347.805 877.501 352.513 872.681 364.948C865.648 383.098 842.908 390.777 834 390.777" stroke="#D1D4D8" stroke-width="3" stroke-linecap="round"/>
<path d="M823 416.777C863.832 418.482 889.921 422.567 912 428.777" stroke="#D1D4D8" stroke-width="3" stroke-linecap="round"/>
<path d="M841 361.777L756 568.777" stroke="#D1D4D8" stroke-width="3" stroke-linecap="round"/>
<path d="M918 231.777V678.82C918 690.935 931.05 700.777 947.362 700.777H1932.64C1948.95 700.777 1962 690.935 1962 678.82V230.277" stroke="#D1D4D8" stroke-width="3" stroke-miterlimit="10" stroke-linecap="round"/>
<path d="M1288.17 2.03327L1246.03 161.187C1246.01 161.271 1246 161.357 1246 161.443V219.91C1246 220.346 1245.73 220.727 1245.32 220.858C1130.15 257.033 913.321 235.935 863.648 220.841C863.23 220.714 863 220.344 863 219.906V161.619C863 161.42 863.059 161.225 863.17 161.06L970.776 1.2189C970.962 0.942862 971.273 0.777344 971.606 0.777344H1287.2C1287.86 0.777344 1288.34 1.39884 1288.17 2.03327Z" fill="#D1D4D8"/>
<path d="M1929.27 1.34216L2007.4 162.977C2007.47 163.113 2007.5 163.261 2007.5 163.412V214.43C2007.5 214.655 2007.45 214.842 2007.31 215.014C1981.08 246.051 1644.17 242.922 1627.71 228.003C1627.52 227.838 1627.5 227.66 1627.5 227.413V163.183L1608.13 1.89656C1608.06 1.30128 1608.53 0.777344 1609.13 0.777344H1928.37C1928.76 0.777344 1929.11 0.996785 1929.27 1.34216Z" fill="#D1D4D8"/>
<path d="M1610.1 4.16687L1627.5 160.708V225.642C1627.5 226.03 1627.31 226.366 1626.96 226.528C1559.18 257.755 1288.52 265.127 1246.25 220.081C1246.08 219.899 1246 219.674 1246 219.424V160.834C1246 160.75 1246.01 160.667 1246.03 160.585L1286.31 4.0282C1286.42 3.58626 1286.82 3.27734 1287.28 3.27734H1609.11C1609.62 3.27734 1610.04 3.66046 1610.1 4.16687Z" stroke="#D1D4D8" stroke-width="3" stroke-linecap="round"/>
<rect x="1335.5" y="337.277" width="485" height="271" rx="8.5" stroke="#D1D4D8" stroke-width="3"/>
<path d="M855 717.973C841.381 711.612 808.236 699.3 784.587 700.923C781.232 701.057 776.17 702.466 782.739 707.012C789.308 711.559 792.593 713.913 793.414 714.522C796.834 717.364 800.189 723.372 786.229 724.671C768.78 726.294 719.511 708.636 622 721.626" stroke="#D1D4D8" stroke-width="3" stroke-linecap="round"/>
<path d="M2087.88 528.869C2068.73 534.181 2047.98 565.021 2040 579.777C2051.97 578.302 2079.1 570.481 2091.87 551.003C2104.64 531.525 2094.53 528.131 2087.88 528.869Z" fill="#D1D4D8"/>
<path d="M2079.02 478.913C2059.91 480.842 2046.16 528.021 2040 549.777C2053.69 538.588 2080.66 516.21 2087.23 508.751C2099.56 494.765 2097.5 477.048 2079.02 478.913Z" fill="#D1D4D8"/>
<path d="M2017.29 458.297C2004.51 478.42 2032.21 508.654 2045 528.777C2045 516.107 2045 489.6 2045 478.42C2045 460.533 2026.53 443.767 2017.29 458.297Z" fill="#D1D4D8"/>
<path d="M2042 558.777C2027.62 538.795 1996.91 504.158 1989.07 525.473C1979.27 552.116 2040.04 558.777 2042 558.777Z" fill="#D1D4D8"/>
<path d="M2042 588.777L2040 513.777" stroke="#D1D4D8" stroke-width="3" stroke-linecap="round"/>
<path d="M2022.12 645.367C2026.97 633.576 2034.2 603.318 2035.71 588.777H2056.08C2056.99 606.697 2066.27 632.398 2070.8 645.367C2084.38 676.019 2072.68 695.669 2064 700.777H2031.18C2009.67 693.704 2015.33 661.872 2022.12 645.367Z" stroke="#D1D4D8" stroke-width="3"/>
<path d="M1988 754.777V742.777" stroke="#D1D4D8" stroke-width="3" stroke-linecap="round"/>
<path d="M2001 749.777L1995 754.777" stroke="#D1D4D8" stroke-width="3" stroke-linecap="round"/>
<path d="M1980 755.777L1975 747.777" stroke="#D1D4D8" stroke-width="3" stroke-linecap="round"/>
<path d="M1659 819.777V807.777" stroke="#D1D4D8" stroke-width="3" stroke-linecap="round"/>
<path d="M1672 814.777L1666 819.777" stroke="#D1D4D8" stroke-width="3" stroke-linecap="round"/>
<path d="M1651 820.777L1646 812.777" stroke="#D1D4D8" stroke-width="3" stroke-linecap="round"/>
<path d="M1548 831.601C1519.77 818.349 1451.06 792.699 1402.04 796.082C1395.08 796.361 1384.59 799.295 1398.21 808.767C1411.82 818.239 1418.63 823.144 1420.33 824.413C1427.42 830.333 1434.38 842.849 1405.44 845.555C1369.27 848.938 1267.14 812.15 1065 839.212" stroke="#D1D4D8" stroke-width="3" stroke-linecap="round"/>
<path d="M1021 435.777C1021 380.549 1066.77 335.777 1122 335.777V335.777C1177.23 335.777 1223 380.549 1223 435.777V700.777H1021V435.777Z" fill="#D1D4D8"/>
<path d="M553.343 208.219C561.146 208.981 573.732 220.019 579.999 226.4C580.527 226.939 580.691 227.727 580.439 228.438L577.24 237.476C576.626 239.211 573.91 239.392 572.773 237.945C566.834 230.384 554.736 223.36 547.151 219.734C546.014 219.19 545.621 217.757 546.344 216.725L551.758 209.006C552.123 208.486 552.711 208.157 553.343 208.219Z" fill="#D1D4D8"/>
<path d="M533.993 233.964C548.261 237.743 563.605 251.565 569.493 258.004L561.927 275.29C557.257 266.619 533.758 254.231 522.593 249.121L533.993 233.964Z" fill="#D1D4D8"/>
<path d="M354.655 329.054C347.708 335.911 343.318 369.041 341.991 384.749L324.566 377.264C322.267 362.253 330.424 335.942 334.79 324.662L354.655 329.054Z" fill="#D1D4D8"/>
<path d="M315.735 321.831C310.174 333.166 306.717 358.219 305.683 369.328L289.46 363.579C288.213 354.112 294.026 330.732 297.089 320.225L315.735 321.831Z" fill="#D1D4D8"/>
<path d="M559.025 198.439C573.468 181.266 591.277 203.321 580.89 230.252L544.423 319.306C499.71 430.46 432.995 421.594 395.784 404.979C362.006 391.871 290.575 364.293 275.074 358.842C255.699 352.028 251.113 328.045 267.854 322.343C284.596 316.642 344.62 323.233 396.543 339.441C438.081 352.407 460.134 338.097 476.341 318.517L559.025 198.439Z" stroke="#D1D4D8" stroke-width="3" stroke-linecap="round"/>
<path d="M548.31 360.041C558.738 361.076 584.01 356.269 601.676 328.755" stroke="#D1D4D8" stroke-width="3" stroke-linecap="round"/>
<path d="M332.136 297.151C327.42 287.689 309.723 268.701 276.66 268.447" stroke="#D1D4D8" stroke-width="3" stroke-linecap="round"/>
<path d="M556.492 344.232C569.783 336.181 598.171 309.422 605.393 266.794" stroke="#D1D4D8" stroke-width="3" stroke-linecap="round"/>
<path d="M314.461 298.215C300.62 291.361 262.95 281.822 223 298.498" stroke="#D1D4D8" stroke-width="3" stroke-linecap="round"/>
<path d="M352.973 387.877C353.68 376.86 356.379 352.055 361.517 340.973" stroke="#D1D4D8" stroke-width="3" stroke-linecap="round"/>
<path d="M277.75 359.003C277.123 350.244 276.46 332.041 284.743 321.082" stroke="#D1D4D8" stroke-width="3" stroke-linecap="round"/>
<path d="M554.095 292.2C548.21 286.738 533.021 274.811 519.341 270.796" stroke="#D1D4D8" stroke-width="3" stroke-linecap="round"/>
</svg>
