<svg width="994" height="1068" viewBox="0 0 994 1068" fill="none" xmlns="http://www.w3.org/2000/svg">
<path d="M7.18233 320.703L145.606 297.19C146.593 297.022 147.186 298.248 146.443 298.919L81.9325 357.069C81.8587 357.135 81.7817 357.189 81.6897 357.227C76.0784 359.539 53.9726 350.788 42.5597 345.658C41.9985 345.406 41.3435 345.712 41.176 346.304C38.447 355.949 35.1011 364.9 33.4657 368.924C33.2889 369.359 32.8061 369.613 32.4498 369.307C29.1349 366.462 28.7117 348.285 28.9503 338.228C28.9624 337.714 28.5867 337.278 28.0809 337.188C19.6055 335.678 7.93732 328.117 3.01258 324.401" stroke="#D1D4D8" stroke-width="5" stroke-linecap="round"/>
<path d="M42.0231 345.66C56.536 338.773 93.2506 321.523 124.006 307.623" stroke="#D1D4D8" stroke-width="5" stroke-linecap="round"/>
<path d="M33.0327 369.668L60.0254 353.656" stroke="#D1D4D8" stroke-width="5" stroke-linecap="round"/>
<path d="M39.0152 331.664L76.0098 319.647" stroke="#D1D4D8" stroke-width="5" stroke-linecap="round"/>
<path d="M519.911 568.031L500.266 711.205C500.118 712.283 500.859 713.281 501.934 713.452L651.678 737.244C652.895 737.438 653.996 736.495 653.992 735.262L653.304 530.276C653.3 528.944 652.019 527.988 650.74 528.364L521.329 566.384C520.573 566.606 520.018 567.251 519.911 568.031Z" stroke="#D1D4D8" stroke-width="3"/>
<path d="M668.167 541.999L655.424 529.083C654.168 527.81 652 528.7 652 530.488V736.167C652 737.431 653.158 738.378 654.397 738.127L683.252 732.278C684.248 732.077 684.934 731.159 684.847 730.147L668.736 543.232C668.696 542.767 668.494 542.331 668.167 541.999Z" fill="#D1D4D8"/>
<path d="M669 544.613H689.295C690.281 544.613 691.119 545.331 691.271 546.304L719.646 727.644C719.833 728.842 718.92 729.929 717.708 729.953L683.322 730.613" stroke="#D1D4D8" stroke-width="3" stroke-linecap="round"/>
<path d="M554 556.613C557.427 534.353 570.948 485.947 596.193 483.675C613.921 482.079 619.949 512.027 617.467 531.919" stroke="#D1D4D8" stroke-width="3" stroke-linecap="round"/>
<path d="M334 506.613C337.218 515.56 349.544 533.92 373.102 535.787C402.55 538.121 406.412 545.589 405.285 577.796C404.159 610.004 421.772 627.329 447 607.613C506.5 561.113 478.5 672.613 456 737.613" stroke="#D1D4D8" stroke-width="3" stroke-linecap="round"/>
<path d="M313 288.297C192.42 350.646 110 476.504 110 621.613C110 828.72 277.894 996.613 485 996.613C669.176 996.613 822.341 863.84 854 688.789C862.352 642.613 858.6 574.213 839 516.613" stroke="#D1D4D8" stroke-width="3" stroke-linecap="round"/>
<path d="M586.001 262.1C552.094 252.024 516.179 246.613 479.001 246.613C427.652 246.613 378.715 256.934 334.148 275.613" stroke="#D1D4D8" stroke-width="3" stroke-linecap="round"/>
<path d="M327.122 1011.83L298.553 1027.8" stroke="#D1D4D8" stroke-width="3" stroke-linecap="round"/>
<path d="M370.572 1033.38C372.017 1037.67 382.872 1056.59 388.119 1065.52" stroke="#D1D4D8" stroke-width="3" stroke-linecap="round"/>
<path d="M346.421 1032.56C343.756 1037.94 335.241 1055.11 331.316 1063.02" stroke="#D1D4D8" stroke-width="3" stroke-linecap="round"/>
<path d="M454 970.613C445.988 994.613 419 986.947 411 979.613C387.5 957.113 355.548 905.147 360.048 881.647C364.548 858.147 353.548 833.147 331.048 818.647C313.048 807.047 311.881 791.147 313.548 784.647C315.215 774.147 320.448 746.947 328.048 722.147C335.648 697.347 372.548 709.814 390.048 719.147C397.881 743.314 422.148 790.247 456.548 784.647C490.948 779.047 512.548 798.314 519.048 808.647C523.048 822.48 521.248 856.447 482.048 881.647C433.048 913.147 464.837 938.151 454 970.613Z" fill="#D1D4D8"/>
<path d="M779 794.613C763 808.613 762.333 783.446 764 769.113C767.5 749.113 785.5 745.113 791 726.613C793.136 719.425 803.5 716.613 807 726.613C811.672 739.961 799 777.113 779 794.613Z" fill="#D1D4D8"/>
<path d="M248 616.614C240 629.614 200.5 602.114 198 599.114C186.5 588.614 163.683 564.544 161 543.614C158.5 524.115 147 490.115 135.5 472.115C161 428.115 168 406.448 191 383.115C231 348.315 266.333 367.281 278 380.114C286.833 394.114 313.9 416.714 351.5 395.114C389.1 373.514 400.833 404.114 402 422.114C401 441.447 388.4 480.614 346 482.614C293 485.114 292.5 513.114 289.5 537.614C287.1 557.214 272.167 554.114 265 550.114C257.833 543.78 239.6 534.914 224 550.114C208.4 565.314 225.5 585.447 236 593.614C243.333 599.947 254.472 606.097 248 616.614Z" fill="#D1D4D8"/>
<path d="M426 350.616C461.2 355.816 450.777 379.615 446.5 392.116C436.1 422.516 480.263 418.115 487.5 405.615C496.667 389.782 518.6 358.515 533 360.115C547.4 361.715 556.333 350.782 559 345.115C564.6 301.115 518.333 303.782 494.5 310.615C484 316.782 457.3 327.216 434.5 319.616C411.7 312.016 394.667 313.782 389 315.616C345.5 342.616 382 344.116 426 350.616Z" fill="#D1D4D8"/>
<path d="M232 420.615C226.5 356.282 218.999 185.613 422.5 241.115" stroke="#D1D4D8" stroke-width="3" stroke-linecap="round"/>
<path d="M498 887.613C577.667 939.447 731.6 1021.91 710 937.113" stroke="#D1D4D8" stroke-width="3" stroke-linecap="round"/>
<path d="M697 388.359C705.229 368.714 722.92 333.948 741.571 357.521C760.223 381.095 761.457 431.531 772.429 408.917L793 354.78" stroke="#D1D4D8" stroke-width="3" stroke-linecap="round"/>
<path d="M935.479 302.124C904.564 331.498 873.207 335.754 861.135 337.113C836.5 339.888 795.635 314.613 795.635 287.113C817.958 270.987 834.178 240.678 839.358 228.362C845.176 233.282 852.744 231.41 855.801 229.858C859.731 227.3 867.27 217.673 865.985 199.627C864.7 181.581 851.597 186.426 845.207 191.104L813.278 194.545C814.621 164.709 796.231 154.754 786.868 153.505C794.226 136.978 781.064 129.746 774.138 126.906C764.203 139.082 751.182 143.988 745.677 146.269C689.642 160.928 655.439 140.859 639.653 115.81C622.516 90.525 625.289 31.1483 673.771 16.6937C689.623 10.5936 727.205 5.5919 750.713 34.3867C819.917 8.95464 852.671 81.7404 861.656 108.171L872.041 132.27C962.226 151.454 970.164 236.753 954.322 274.11C947.14 291.047 946.195 291.945 935.955 301.672L935.479 302.124Z" fill="#D1D4D8"/>
<path d="M768.684 320.111C837.184 320.111 859.314 365.863 866.995 391.611C881.034 436.038 866.995 531.611 672.226 502.941C660.997 501.288 655.497 486.196 677.495 471.736C700.501 456.612 724.997 447.112 754.501 441.112" stroke="#D1D4D8" stroke-width="3" stroke-linecap="round"/>
<path d="M734.183 320.113C691.183 330.521 659.498 374.934 672.185 471.737" stroke="#D1D4D8" stroke-width="3" stroke-linecap="round"/>
<path d="M602.561 520.147C605.301 523.616 615.753 528.989 635.64 522.728C655.526 516.467 663.499 506.683 665 502.574" stroke="#D1D4D8" stroke-width="3" stroke-linecap="round"/>
<path d="M584.749 512.117C582.857 515.394 582.87 521.674 598.059 520.578L602.561 520.149L610.39 519.404" stroke="#D1D4D8" stroke-width="3" stroke-linecap="round"/>
<path d="M586.122 500.031C582.467 500.488 575.863 502.888 578.681 508.836C579.532 510.631 581.782 511.64 584.749 512.116C591.617 513.218 602.328 511.468 608.433 510.01" stroke="#D1D4D8" stroke-width="3" stroke-linecap="round"/>
<path d="M658.951 479.901C653.189 474.438 641.16 463.441 630.356 462.659C627.615 462.528 621.743 461.446 620.177 458.158C618.22 454.049 609.216 458.55 615.284 466.768C621.352 474.986 628.79 472.246 624.484 479.29C621.039 484.926 600.213 487.508 590.23 488.095C586.707 488.161 580.169 489.935 582.205 496.509C582.709 498.137 584.135 499.271 586.122 500.031C592.16 502.342 603.373 501.209 609.608 500.031" stroke="#D1D4D8" stroke-width="3" stroke-linecap="round"/>
<path d="M647.425 329.015C599.763 242.122 637.031 207.206 659.457 190.495C656.808 256.298 701.135 288.114 718.635 299.114L703.635 313.114C684.5 327.614 664 350.614 647.425 329.015Z" fill="#D1D4D8"/>
<path d="M814.217 195.203C810.533 216.173 792.389 230.219 773.96 226.981C755.531 223.744 743.261 204.355 746.945 183.385C750.629 162.415 768.772 148.369 787.201 151.607C805.63 154.844 817.901 174.233 814.217 195.203Z" stroke="#D1D4D8" stroke-width="3"/>
<path d="M726.998 192.41C723.314 213.38 705.171 227.426 686.742 224.189C668.313 220.951 656.042 201.562 659.726 180.592C663.41 159.622 681.554 145.576 699.983 148.814C718.412 152.051 730.682 171.44 726.998 192.41Z" stroke="#D1D4D8" stroke-width="3"/>
<path d="M726.628 184.526L748.267 185.865" stroke="#D1D4D8" stroke-width="3" stroke-linecap="round"/>
<path d="M738.734 205.61C732.392 221.898 719.424 235.491 733.761 245.806" stroke="#D1D4D8" stroke-width="3" stroke-linecap="round"/>
<path d="M718.726 267.312C723.068 272.112 735.18 278.83 748.892 267.312" stroke="#D1D4D8" stroke-width="3" stroke-linecap="round"/>
<ellipse cx="689.715" cy="202.381" rx="7.41908" ry="9" transform="rotate(-16.8961 689.715 202.381)" fill="#D1D4D8"/>
<ellipse cx="774.675" cy="204.429" rx="7.19079" ry="9" transform="rotate(-18.5025 774.675 204.429)" fill="#D1D4D8"/>
<path d="M853.27 203.453C854.371 206.431 855.438 213.301 850.897 216.958" stroke="#D1D4D8" stroke-width="3" stroke-linecap="round"/>
<path d="M669.466 144.224C656.551 168.871 644.935 229.09 696.51 281.029C748.085 332.969 803.374 284.256 824.571 253.407L839.563 227.5C845.79 233.003 859.445 237.954 864.256 213.74C869.066 189.525 859.574 186.234 854.227 187.615C851.328 188.266 844.976 191.141 842.757 197.433" stroke="#D1D4D8" stroke-width="3" stroke-linecap="round"/>
<path d="M813.23 193.637L848.653 190.115" stroke="#D1D4D8" stroke-width="3" stroke-linecap="round"/>
<path d="M781.371 176.622C786.964 177.419 798.101 181.898 797.908 193.44" stroke="#D1D4D8" stroke-width="3" stroke-linecap="round"/>
<path d="M674.816 181.133C679.084 179.257 689.518 177.021 697.116 183.081" stroke="#D1D4D8" stroke-width="3" stroke-linecap="round"/>
<path d="M777 320.416V296.613" stroke="#D1D4D8" stroke-width="3" stroke-linecap="round"/>
<path d="M725.004 301.48L724.999 322.612" stroke="#D1D4D8" stroke-width="3" stroke-linecap="round"/>
</svg>
