<svg width="1021" height="622" viewBox="0 0 1021 622" fill="none" xmlns="http://www.w3.org/2000/svg">
<path d="M938.706 332.774C909.709 334.559 909.45 306.172 912.946 291.757C947.823 277.064 928.98 241.593 920.153 254.881C913.09 265.511 904.312 265.576 900.805 264.279C886.047 261.397 892.783 239.551 897.995 228.988L872.596 206.264C866.025 208.893 848.138 206.97 829.145 178.246C810.15 149.523 828.966 127.146 840.748 119.548C853.779 112.718 892.366 105.988 942.459 133.704C992.555 161.42 997.391 214.395 993.547 237.418C987.348 268.459 967.703 330.989 938.706 332.774Z" fill="#D1D4D8"/>
<path d="M876.343 208.57C856.454 232.481 820.689 292.452 836.742 341.054C841.522 352.169 856.308 375.067 889.455 379.966" stroke="#D1D4D8" stroke-width="3" stroke-linecap="round"/>
<path d="M942.408 339.695C938.872 359.057 938.219 362.637 937.37 384.609" stroke="#D1D4D8" stroke-width="3" stroke-linecap="round"/>
<path d="M851.77 246.383C836.049 257.582 810.392 282.119 833.537 290.676" stroke="#D1D4D8" stroke-width="3" stroke-linecap="round"/>
<path d="M868.163 231.289C872.042 233.029 879.772 239.074 879.655 249.33" stroke="#D1D4D8" stroke-width="3" stroke-linecap="round"/>
<path d="M910.569 268.352C912.419 271.641 913.964 278.573 905.344 279.984" stroke="#D1D4D8" stroke-width="3" stroke-linecap="round"/>
<path d="M835.768 326.898C839.696 324.365 847.536 317.226 847.478 308.93" stroke="#D1D4D8" stroke-width="3" stroke-linecap="round"/>
<path d="M881.493 287.252C883.164 286.854 884.197 285.177 883.799 283.507C883.401 281.836 881.723 280.804 880.052 281.202C878.38 281.599 877.348 283.276 877.746 284.947C878.144 286.617 879.821 287.649 881.493 287.252Z" fill="#D1D4D8"/>
<path d="M863.51 257.007C865.611 257.451 867.819 255.428 868.441 252.488C869.064 249.547 867.865 246.804 865.764 246.359C863.662 245.915 861.454 247.938 860.832 250.878C860.21 253.819 861.408 256.562 863.51 257.007Z" fill="#D1D4D8"/>
<path d="M871.475 305.619C873.147 305.221 874.179 303.544 873.781 301.874C873.383 300.203 871.706 299.171 870.034 299.569C868.363 299.967 867.33 301.643 867.728 303.314C868.126 304.985 869.804 306.017 871.475 305.619Z" fill="#D1D4D8"/>
<path d="M890.643 312.244C892.315 311.846 893.347 310.169 892.949 308.499C892.551 306.828 890.874 305.796 889.202 306.194C887.531 306.592 886.498 308.268 886.896 309.939C887.294 311.61 888.972 312.642 890.643 312.244Z" fill="#D1D4D8"/>
<path d="M1019.21 609.145C1011.43 568.462 993.389 473.26 970.989 442.787C969.692 424.907 964.365 394.153 942.588 396.485C926.254 396.485 884.656 406.406 884.656 438.123V465.331" stroke="#D1D4D8" stroke-width="3" stroke-linecap="round"/>
<path d="M789.531 586.519C789.689 573.888 791.253 545.973 796.178 530.484C796.577 529.228 795.743 527.895 794.429 527.787C779.72 526.573 752.443 525.872 743.031 531.519C733.031 537.519 725.531 586.352 723.031 610.019" stroke="#D1D4D8" stroke-width="3" stroke-linecap="round"/>
<path d="M793.399 514.355C799.531 501.016 803.104 493.339 813.531 480.016C822.531 468.516 827.399 445.355 821.399 440.355C814.679 434.756 810.232 447.688 805.899 453.855C804.232 456.688 800.099 460.155 796.899 451.355C793.699 442.555 798.854 432.92 809.031 422.016C816.031 414.516 815.968 406.786 814.399 404.433C810.398 398.435 803.836 401.659 793.898 414.357C791.942 416.857 786.531 425.016 785.531 432.016" stroke="#D1D4D8" stroke-width="3" stroke-linecap="round"/>
<path d="M789.898 419.859C778.398 425.359 771.898 434.859 773.398 456.859" stroke="#D1D4D8" stroke-width="3" stroke-linecap="round"/>
<path d="M772.898 440.863C769.732 440.697 760.398 445.858 760.398 464.358C760.609 469.411 759.631 482.217 754.031 493.017C748.431 503.817 748.698 512.85 749.531 516.017" stroke="#D1D4D8" stroke-width="3" stroke-linecap="round"/>
<path d="M901.531 469.516C883.865 476.182 840.331 515.516 807.531 619.516" stroke="#D1D4D8" stroke-width="3" stroke-linecap="round"/>
<path d="M224.656 175.07C228.808 128.245 208.542 103.615 197.89 97.1541C232.348 116.574 266.305 103.952 278.977 95.2141L282.86 116.021C306.468 118.403 312.092 86.4001 311.953 70.1011C311.738 44.9539 283.919 13.9032 228.579 26.3546C173.239 38.8061 142.868 84.5835 134.599 105.916C94.9773 95.0221 52.4141 124.668 36.0853 140.853C19.2009 157.653 -16.3464 208.442 8.6148 265.15C42.2915 341.659 131.872 322.66 146.493 315.134C197.015 289.132 219.467 233.601 224.656 175.07Z" fill="#D1D4D8"/>
<path d="M300.374 166.443C299.196 174.391 296.255 181.185 292.58 185.754C288.863 190.376 284.749 192.351 281.116 191.813C277.484 191.275 274.119 188.192 271.902 182.69C269.71 177.252 268.864 169.897 270.042 161.949C271.219 154.001 274.161 147.207 277.836 142.638C281.553 138.015 285.667 136.04 289.3 136.578C292.932 137.117 296.297 140.199 298.514 145.701C300.706 151.139 301.552 158.495 300.374 166.443Z" stroke="#D1D4D8" stroke-width="3"/>
<path d="M285.451 173.277C288.008 173.655 290.634 170.231 291.316 165.628C291.998 161.025 290.478 156.986 287.921 156.607C285.364 156.228 282.738 159.653 282.056 164.256C281.374 168.859 282.894 172.898 285.451 173.277Z" fill="#D1D4D8"/>
<path d="M224.795 171.152L268.074 167.227" stroke="#D1D4D8" stroke-width="3" stroke-linecap="round"/>
<path d="M285.179 114.516C288.917 122.041 302.391 140.81 313.907 150.014C325.685 159.428 326.68 171.428 319.16 180.074L307.438 193.676C313.907 243.141 304.376 279.77 243.75 296.821" stroke="#D1D4D8" stroke-width="3" stroke-linecap="round"/>
<path d="M243.03 216.263C244.462 216.475 245.796 215.486 246.008 214.053C246.22 212.621 245.231 211.287 243.798 211.075C242.366 210.863 241.032 211.852 240.82 213.285C240.608 214.717 241.597 216.051 243.03 216.263Z" fill="#D1D4D8"/>
<path d="M233.634 240.323C235.353 240.578 236.919 239.623 237.131 238.19C237.343 236.757 236.121 235.39 234.402 235.135C232.683 234.88 231.117 235.835 230.905 237.268C230.693 238.7 231.915 240.068 233.634 240.323Z" fill="#D1D4D8"/>
<path d="M256.499 236.292C258.218 236.547 259.783 235.592 259.996 234.159C260.208 232.727 258.986 231.359 257.267 231.104C255.548 230.849 253.982 231.804 253.77 233.237C253.558 234.669 254.779 236.037 256.499 236.292Z" fill="#D1D4D8"/>
<path d="M423.362 366.285C425.664 363.072 426.82 360.147 425.771 358.127C422.72 352.255 415.217 358.282 411.847 362.03C403.46 371.047 387.318 386.72 391.669 368.482C396.019 350.243 386.766 351.366 365.099 373.629L343.561 386.726" stroke="#D1D4D8" stroke-width="3" stroke-linecap="round"/>
<path d="M421.601 394.875C423.456 400.579 420.48 413.781 393.206 416.98C382.887 418.19 381.336 418.02 371.651 417.203H355.061" stroke="#D1D4D8" stroke-width="3" stroke-linecap="round"/>
<path d="M405.061 383.469C410.42 379.52 418.967 372.351 423.354 366.227C428.118 366.172 432.731 368.857 425.379 378.241C422.196 382.304 416.77 387.622 408.142 394.518" stroke="#D1D4D8" stroke-width="3" stroke-linecap="round"/>
<path d="M408.148 394.574C416.776 387.678 422.202 382.36 425.385 378.297C429.93 379.578 434.019 384.533 421.599 394.879C418.883 397.141 415.377 399.662 410.914 402.458" stroke="#D1D4D8" stroke-width="3" stroke-linecap="round"/>
<path d="M146.702 325.141C73.2386 378.728 82.029 445.554 82.029 528.141" stroke="#D1D4D8" stroke-width="3" stroke-linecap="round"/>
<path d="M148.703 326.049L183.97 356.91C185.115 357.913 186.916 357.319 187.241 355.832L196.435 313.785C196.776 312.226 198.716 311.674 199.826 312.822L223.703 337.503" stroke="#D1D4D8" stroke-width="3" stroke-linecap="round"/>
<path d="M223.703 301.141C225.659 304.806 228.463 310.763 231.091 317.686C234.697 327.189 237.971 338.513 238.264 348.232" stroke="#D1D4D8" stroke-width="3" stroke-linecap="round"/>
<path d="M231.09 317.688L297 353.019" stroke="#D1D4D8" stroke-width="3" stroke-linecap="round"/>
<path d="M179.703 386.65C191.747 402.966 259.578 448.147 308.39 398.574L321.703 384.141" stroke="#D1D4D8" stroke-width="3" stroke-linecap="round"/>
<path d="M212.703 546.138C228.374 542.086 302.703 501.383 324.351 463.562" stroke="#D1D4D8" stroke-width="3" stroke-linecap="round"/>
<path d="M318.547 414.398C323.915 433.671 325.426 449.94 324.35 463.565C336.293 455.37 347.702 449.067 347.702 423.223C347.702 404.942 334.392 389.184 322.349 384.141" stroke="#D1D4D8" stroke-width="3" stroke-linecap="round"/>
<path d="M218.703 371.141C221.464 371.141 223.703 368.455 223.703 365.141C223.703 361.827 221.464 359.141 218.703 359.141C215.942 359.141 213.703 361.827 213.703 365.141C213.703 368.455 215.942 371.141 218.703 371.141Z" fill="#D1D4D8"/>
<path d="M225.703 400.141C228.464 400.141 230.703 397.455 230.703 394.141C230.703 390.827 228.464 388.141 225.703 388.141C222.942 388.141 220.703 390.827 220.703 394.141C220.703 397.455 222.942 400.141 225.703 400.141Z" fill="#D1D4D8"/>
<path d="M278.821 234.141C278.177 238.041 279.851 246.101 291.703 247.141" stroke="#D1D4D8" stroke-width="3" stroke-linecap="round"/>
<path d="M401.509 369.015L392.135 352.835C391.901 352.431 391.977 351.919 392.32 351.602C398.568 345.826 411.888 333.794 420.755 326.734C421.201 326.378 421.848 326.467 422.172 326.936C427.166 334.186 437.207 351.709 442.002 370.767C442.061 371.004 442.034 371.251 441.917 371.466C438.977 376.832 436.5 380.016 430.5 383.516" stroke="#D1D4D8" stroke-width="3" stroke-linecap="round"/>
<path d="M431.18 210.628L441.959 218.869C442.826 219.532 444.063 219.378 444.741 218.523L460.18 199.062" stroke="#D1D4D8" stroke-width="3" stroke-linecap="round"/>
<path d="M588.18 159.628L598.959 167.869C599.826 168.532 601.063 168.378 601.741 167.523L617.18 148.062" stroke="#D1D4D8" stroke-width="3" stroke-linecap="round"/>
<path d="M692.18 110.628L702.959 118.869C703.826 119.532 705.063 119.378 705.741 118.523L721.18 99.0625" stroke="#D1D4D8" stroke-width="3" stroke-linecap="round"/>
<path d="M692.18 201.628L702.959 209.869C703.826 210.532 705.063 210.378 705.741 209.523L721.18 190.062" stroke="#D1D4D8" stroke-width="3" stroke-linecap="round"/>
<path d="M404.18 154.062L383.18 177.063" stroke="#D1D4D8" stroke-width="3" stroke-linecap="round"/>
<path d="M383.18 154.062L404.18 177.063" stroke="#D1D4D8" stroke-width="3" stroke-linecap="round"/>
<path d="M456.18 251.062L435.18 274.063" stroke="#D1D4D8" stroke-width="3" stroke-linecap="round"/>
<path d="M435.18 251.062L456.18 274.063" stroke="#D1D4D8" stroke-width="3" stroke-linecap="round"/>
<path d="M411.678 293.564C438.408 293.564 698.178 281.064 716.178 281.064C729.178 281.064 745.878 280.164 762.678 276.564C783.678 272.064 773.678 220.564 773.678 153.064C773.678 85.5636 763.678 82.063 753.678 81.0632C742.021 79.8978 462.179 100.563 412.678 96.0632C373.078 92.4632 370.099 119.564 369.678 136.064C369.012 162.23 368.078 222.364 369.678 253.564C371.678 292.564 383.178 293.564 411.678 293.564Z" stroke="#D1D4D8" stroke-width="3"/>
<path d="M340.18 81.5625L344.68 259.062C343.013 274.396 347.58 306.363 379.18 311.562C418.68 318.062 764.786 301.936 781.18 297.062C799.68 291.562 799.68 290.562 804.18 259.062C807.78 233.862 797.513 111.062 794.68 68.0625" stroke="#D1D4D8" stroke-width="3" stroke-linecap="round"/>
<path d="M797.179 71.5156L337.679 84.5156C334.179 25.0155 361.179 8.09561 412.18 7.56437C460.18 7.06438 700.68 -3.93563 755.68 2.56437C799.68 7.76437 802.179 50.5156 797.179 71.5156Z" fill="#D1D4D8"/>
<path d="M417.68 99.0625C420.346 153.729 424.08 269.163 417.68 293.562" stroke="#D1D4D8" stroke-width="3" stroke-linecap="round"/>
<path d="M469.68 290.062C471.68 239.062 475.08 131.362 472.68 98.5625" stroke="#D1D4D8" stroke-width="3" stroke-linecap="round"/>
<path d="M522.18 96.5625C523.68 148.396 526.28 258.562 522.68 288.562" stroke="#D1D4D8" stroke-width="3" stroke-linecap="round"/>
<path d="M572.68 286.062C577.346 232.229 583.88 120.763 572.68 93.5625" stroke="#D1D4D8" stroke-width="3" stroke-linecap="round"/>
<path d="M628.18 88.5625C627.513 142.396 625.28 256.663 621.68 283.062" stroke="#D1D4D8" stroke-width="3" stroke-linecap="round"/>
<path d="M683.679 280.062C680.512 225.396 676.079 109.862 683.679 85.0625" stroke="#D1D4D8" stroke-width="3" stroke-linecap="round"/>
<path d="M728.68 83.0625C732.346 141.062 738.88 261.663 735.68 280.062" stroke="#D1D4D8" stroke-width="3" stroke-linecap="round"/>
<path d="M371.18 235.062C462.013 234.062 670.08 230.162 775.68 222.562" stroke="#D1D4D8" stroke-width="3" stroke-linecap="round"/>
<path d="M370.18 190.061C428.513 187.894 562.38 182.261 631.18 177.061C699.98 171.861 754.513 171.894 773.18 172.561" stroke="#D1D4D8" stroke-width="3" stroke-linecap="round"/>
<path d="M773.18 128.062L370.68 145.562" stroke="#D1D4D8" stroke-width="3" stroke-linecap="round"/>
</svg>
