<svg width="295" height="399" viewBox="0 0 295 399" fill="none" xmlns="http://www.w3.org/2000/svg">
<ellipse cx="143.099" cy="390.309" rx="101" ry="8" fill="black"/>
<path d="M232.011 279.074C208.657 303.591 179.957 322.754 147.599 334.309C64.3128 304.719 4.09912 224.966 4.09912 131.687V51.9346L147.599 4.30859L291.099 51.9346V131.405C291.099 160.15 285.19 187.767 274.78 213.13C275.061 213.13 256.772 256.811 232.011 279.074Z" stroke="black" stroke-width="7" stroke-miterlimit="10" stroke-linecap="round" stroke-linejoin="round"/>
<path d="M147.599 230.309C192.61 230.309 229.099 194.044 229.099 149.309C229.099 104.574 192.61 68.3086 147.599 68.3086C102.588 68.3086 66.0991 104.574 66.0991 149.309C66.0991 194.044 102.588 230.309 147.599 230.309Z" stroke="black" stroke-width="7" stroke-miterlimit="10"/>
<path fill-rule="evenodd" clip-rule="evenodd" d="M203.858 207.915C189.23 221.789 169.416 230.309 147.6 230.309C125.422 230.309 105.314 221.505 90.6196 207.222C99.721 184.979 121.58 169.309 147.1 169.309C172.883 169.309 194.93 185.305 203.858 207.915Z" fill="black"/>
<path d="M147.599 142.309C160.578 142.309 171.099 132.011 171.099 119.309C171.099 106.606 160.578 96.3086 147.599 96.3086C134.62 96.3086 124.099 106.606 124.099 119.309C124.099 132.011 134.62 142.309 147.599 142.309Z" fill="black"/>
</svg>
