<svg width="693" height="479" viewBox="0 0 693 479" fill="none" xmlns="http://www.w3.org/2000/svg">
<path d="M673.009 142.179C637.015 151.866 601.022 206.604 586.025 233.512C608.521 230.821 656.512 218.06 680.507 182.541C704.503 147.022 685.506 140.833 673.009 142.179Z" fill="black"/>
<path d="M656.097 50.2643C620.305 53.8495 594.563 141.563 583.025 182.012C608.664 161.209 659.173 119.605 671.48 105.737C694.556 79.7344 690.71 46.7971 656.097 50.2643Z" fill="black"/>
<path d="M544.91 20.6545C525.936 52.1625 567.049 99.5033 586.024 131.012C586.024 111.173 586.025 69.6676 586.025 52.163C586.024 24.1559 558.611 -2.09662 544.91 20.6545Z" fill="black"/>
<path d="M589.025 200.012C562.402 163.044 505.526 98.9664 491.005 138.399C472.853 187.689 585.395 200.012 589.025 200.012Z" fill="black"/>
<path d="M589.025 254.012L583.025 116.012" stroke="black" stroke-width="5" stroke-linecap="round"/>
<path d="M555.525 328.012C564.025 308.012 571.113 268.627 572.53 255.012H610.273C611.95 288.132 629.143 335.633 637.531 359.601C662.691 416.254 641.026 452.57 624.95 462.012H564.143C558.603 458.678 547.225 448.512 546.025 434.512" stroke="black" stroke-width="5" stroke-linecap="round"/>
<path d="M365.683 65.6515C356.471 87.674 349.67 104.984 344.946 126.785" stroke="black" stroke-width="5" stroke-linecap="round"/>
<path d="M330.228 82.9079L364.139 63.1358C364.996 62.6364 366.089 62.8399 366.708 63.614L389.542 92.1506C390.165 92.9296 391.267 93.1301 392.125 92.6206L466.506 48.4379C478.06 39.7638 478.124 31.5737 473.965 26.0939C466.463 16.2088 443.649 12.2271 429.522 12.2527C428.677 12.2542 427.937 12.8035 427.669 13.6045L420.965 33.6868C420.77 34.2713 420.305 34.7383 419.722 34.94C379.934 48.7255 355.549 38.1492 346.937 25.1529C346.634 24.695 346.558 24.1313 346.7 23.6008L350.987 7.60079C351.3 6.43488 350.525 5.26015 349.325 5.12516C330.37 2.99194 296.321 3.80751 295.735 22.8719C295.144 42.102 316.19 69.91 327.771 82.5435C328.401 83.23 329.423 83.377 330.228 82.9079Z" fill="black"/>
<path d="M250.099 147.785C269.599 80.7852 281.077 46.8748 295.804 20.6158C300.627 10.6061 311.666 3.9478 323.421 3.40624C338.115 2.72929 450.155 6.34034 477.486 21.6866C503.005 36.0151 498.495 40.7076 489.407 116.049C483.32 166.511 462.832 229.336 449.599 267.785" stroke="black" stroke-width="5" stroke-linecap="round"/>
<path d="M495.327 65.6575C488.032 58.1982 471.19 50.4455 462.183 79.1084C450.923 114.937 425.709 194.957 423.319 205.042C419.427 221.459 416.97 264.794 435.805 239.534C450.873 219.325 470.304 133.103 476.46 91.9501" stroke="black" stroke-width="5" stroke-linecap="round"/>
<ellipse cx="368.888" cy="102.964" rx="5.64258" ry="9.02506" transform="rotate(15.0196 368.888 102.964)" fill="black"/>
<path d="M32.0993 293.785H160.396C162.304 293.785 163.727 292.029 163.331 290.163L160.928 278.833C160.722 277.864 161.008 276.857 161.691 276.14L176.265 260.855C178.086 258.946 176.732 255.785 174.094 255.785H32.0993C30.4425 255.785 29.0993 257.128 29.0993 258.785V290.785C29.0993 292.442 30.4425 293.785 32.0993 293.785Z" fill="black"/>
<path d="M160.099 366.785H51.615C50.5929 366.785 49.7353 366.015 49.6264 364.998L42.0993 294.785" stroke="black" stroke-width="5" stroke-linecap="round"/>
<path d="M79.5993 425.785C79.5993 433.169 85.7943 439.285 93.5993 439.285C101.404 439.285 107.599 433.169 107.599 425.785C107.599 418.401 101.404 412.285 93.5993 412.285C85.7943 412.285 79.5993 418.401 79.5993 425.785Z" stroke="black" stroke-width="5"/>
<path d="M160.754 398.907L162.469 370.907C162.54 369.757 161.626 368.785 160.473 368.785H2.09912C0.994553 368.785 0.0991211 369.681 0.0991211 370.785V398.785C0.0991211 399.89 0.994553 400.785 2.09912 400.785H158.758C159.815 400.785 160.69 399.963 160.754 398.907Z" fill="black"/>
<path d="M158.599 401.785H16.3654C15.1622 401.785 14.2314 402.84 14.3808 404.034L22.2686 467.034C22.3939 468.034 23.2447 468.785 24.2531 468.785H184.099" stroke="black" stroke-width="5" stroke-linecap="round"/>
<path d="M444.025 303.012C444.24 332.027 448.148 392.582 462.064 402.678C468.185 407.856 479.653 404.879 481.715 389.087C483.776 373.296 475.057 344.108 470.44 331.488" stroke="black" stroke-width="5" stroke-linecap="round"/>
<path d="M480.025 364.871C483.644 374.754 488.003 396.746 490.501 404.359C493.462 413.382 506.34 425.996 513.452 414.269C517.618 407.399 512.781 369.059 507.407 351.012" stroke="black" stroke-width="5" stroke-linecap="round"/>
<path d="M513.048 416.056C512.695 425.23 516.267 443.309 532.105 436.522C546.927 430.17 537.752 379.947 530.341 355.012" stroke="black" stroke-width="5" stroke-linecap="round"/>
<path d="M538.525 427.704C541.719 433.055 553.872 438.711 560.506 427.704C565.665 419.144 556.698 374.559 548.344 356.012" stroke="black" stroke-width="5" stroke-linecap="round"/>
<path d="M526.525 261.456L513.153 274.351C512.752 274.737 512.209 274.939 511.653 274.908C491.211 273.747 471.575 271.779 465.242 271.042C464.774 270.987 464.349 270.767 464.027 270.422L452.394 257.927C451.639 257.116 451.687 255.846 452.501 255.094L456.094 251.777C456.891 251.042 458.127 251.075 458.883 251.851L476.03 269.449C476.35 269.777 476.773 269.986 477.229 270.039L484.318 270.873C484.764 270.926 485.21 270.771 485.528 270.453C486.085 269.896 486.104 268.999 485.571 268.419L464.877 245.926C464.13 245.114 464.181 243.851 464.992 243.102L468.554 239.814C469.366 239.065 470.632 239.116 471.381 239.928L492.173 262.49C492.92 263.3 494.183 263.354 494.995 262.609L498.061 259.799C498.871 259.056 498.93 257.799 498.193 256.983L477.352 233.925C476.617 233.111 476.674 231.858 477.479 231.114L481.055 227.813C481.867 227.064 483.132 227.115 483.881 227.926L505.185 251.005C505.928 251.81 507.179 251.868 507.993 251.135L510.065 249.271C510.875 248.541 510.952 247.297 510.237 246.473L489.812 222.94C489.098 222.116 489.174 220.872 489.985 220.142L493.418 217.052C493.489 216.989 493.556 216.917 493.621 216.847C495.635 214.642 499.049 217.316 500.525 218.956C507.192 225.623 521.725 240.456 526.525 246.456C531.325 252.456 528.525 258.956 526.525 261.456Z" fill="black"/>
<path d="M562.525 412.012C566.076 412.484 572.243 411.482 575.084 404.107C578.626 394.911 575.1 330.311 511.619 277.55C511.328 277.308 510.98 277.152 510.604 277.104C493.686 274.961 458.576 271.09 449.025 272.212" stroke="black" stroke-width="5" stroke-linecap="round"/>
<ellipse cx="338.976" cy="206.123" rx="14.5203" ry="19.0579" transform="rotate(41.2642 338.976 206.123)" fill="black"/>
<circle cx="338.599" cy="205.285" r="33" stroke="black" stroke-width="5"/>
<circle cx="338.599" cy="205.285" r="46" stroke="black" stroke-width="5"/>
<rect x="246.12" y="158.785" width="44" height="17" rx="8.5" transform="rotate(45 246.12 158.785)" fill="black"/>
<path d="M217.099 209.285C214.774 204.136 212.813 189.786 223.486 173.457C223.56 173.344 223.647 173.236 223.743 173.141L295.099 101.785C296.433 100.285 300.099 98.1846 304.099 101.785M329.099 116.785C351.599 130.118 400.799 165.985 417.599 202.785C419.599 207.166 421.599 213.785 413.599 223.285L394.099 245.285" stroke="black" stroke-width="5" stroke-linecap="round"/>
<path d="M215.599 193.785C214.18 196.782 207.834 205.751 209.701 216.876C209.88 217.945 209.254 219.006 208.298 219.518C205.687 220.916 202.846 223.974 204.124 229.236C204.347 230.153 204.027 231.141 203.281 231.72C199.833 234.392 194.103 240.436 190.878 249.478C190.695 249.991 190.329 250.412 189.84 250.652C176.784 257.056 154.262 273.417 162.436 290.943C162.54 291.166 162.609 291.4 162.631 291.645C165.09 318.806 182.829 377.374 234.599 397.285C299.599 422.285 369.025 426.012 467.525 405.012" stroke="black" stroke-width="5" stroke-linecap="round"/>
<path d="M171.6 328.285C164.433 339.785 156.4 371.965 171.6 389.965" stroke="black" stroke-width="5" stroke-linecap="round"/>
<path d="M164.099 376.285C160.599 384.118 158.125 411.165 166.525 429.965" stroke="black" stroke-width="5" stroke-linecap="round"/>
<path d="M161.525 413.465C155.525 428.298 149.499 460.885 175.099 467.285C207.099 475.285 489.599 483.785 565.099 461.785" stroke="black" stroke-width="5" stroke-linecap="round"/>
<path d="M456.099 271.785C442.362 263.178 397.032 243.164 377.993 247.197C377.726 247.254 377.495 247.363 377.274 247.523C367.347 254.648 339.787 264.238 305.905 247.437C305.705 247.338 305.527 247.211 305.371 247.052C291.362 232.821 254.494 205.807 217.099 209.785" stroke="black" stroke-width="5" stroke-linecap="round"/>
<path d="M191.599 247.785C208.766 266.452 283.299 305.985 444.099 314.785" stroke="black" stroke-width="5" stroke-linecap="round"/>
<path d="M307.099 261.785C359.099 271.285 319.834 311.832 304.099 339.285" stroke="black" stroke-width="5" stroke-linecap="round"/>
<path d="M393.599 270.285C357.099 261.785 354.599 300.785 347.099 323.285" stroke="black" stroke-width="5" stroke-linecap="round"/>
<ellipse cx="301.676" cy="267.187" rx="8" ry="12.5" transform="rotate(18.649 301.676 267.187)" fill="black"/>
<ellipse cx="394.676" cy="269.187" rx="8" ry="12.5" transform="rotate(18.649 394.676 269.187)" fill="black"/>
</svg>
