<svg width="449" height="267" viewBox="0 0 449 267" fill="none" xmlns="http://www.w3.org/2000/svg">
<path d="M54.5991 20.9336V178.499C54.5991 179.025 55.0069 179.461 55.5319 179.496L188.027 188.429C188.075 188.432 188.123 188.432 188.171 188.428L240.599 184.434" stroke="black" stroke-width="7" stroke-linecap="round"/>
<path d="M54.5991 20.4336L186.976 4.07235C187.573 3.99864 188.099 4.46386 188.099 5.0648V186.434" stroke="black" stroke-width="7" stroke-linecap="round"/>
<path d="M214.5 5.43359L384.663 16.3734C385.19 16.4073 385.599 16.844 385.599 17.3714V83.4336" stroke="black" stroke-width="7" stroke-linecap="round"/>
<path d="M55.0991 179.434H5.09912C4.54684 179.434 4.09912 179.881 4.09912 180.434V239.573C4.09912 240.068 4.461 240.488 4.9503 240.562L152.45 262.761C153.055 262.852 153.599 262.383 153.599 261.772V204.434" stroke="black" stroke-width="7" stroke-linecap="round"/>
<path d="M153.099 262.934L271.599 251.934" stroke="black" stroke-width="7" stroke-linecap="round"/>
<path d="M223.099 259.934V134.934L277.099 259.934H223.099Z" fill="black" fill-opacity="0.3"/>
<path d="M373.025 199.738L295.035 37.4226C294.383 36.0653 295.408 34.5014 296.913 34.5579L332.402 35.8887C333.139 35.9163 333.801 36.3475 334.124 37.0106L412.474 197.651C412.848 198.419 412.694 199.339 412.09 199.942L396.152 215.881C395.796 216.236 395.32 216.445 394.818 216.465L363.278 217.744C361.519 217.815 360.532 215.743 361.697 214.422L372.722 201.928C373.254 201.325 373.373 200.463 373.025 199.738Z" fill="black"/>
<path d="M328.509 247.05L321.042 254.842C319.795 256.143 320.769 258.3 322.57 258.224L352.372 256.964C352.842 256.944 353.289 256.76 353.636 256.443L360.791 249.911C362.139 248.679 361.268 246.434 359.442 246.434H329.953C329.407 246.434 328.886 246.656 328.509 247.05Z" fill="black"/>
<path d="M103.599 31.6867V16.1846C103.599 15.1822 104.341 14.3347 105.335 14.2022L131.335 10.7355C132.534 10.5756 133.599 11.5084 133.599 12.718V28.6534C133.599 29.6683 132.839 30.5223 131.831 30.6399L105.831 33.6732C104.643 33.8119 103.599 32.8831 103.599 31.6867Z" fill="black"/>
<path d="M58.5991 233.189V246.22C58.5991 247.206 59.3179 248.045 60.2924 248.196L85.2924 252.076C86.5048 252.264 87.5991 251.326 87.5991 250.099V236.207C87.5991 235.195 86.8434 234.342 85.8388 234.221L60.8388 231.204C59.6478 231.06 58.5991 231.99 58.5991 233.189Z" fill="black"/>
<path d="M105.599 164.934V180.588C105.599 181.631 106.399 182.498 107.438 182.582L134.438 184.759C135.603 184.853 136.599 183.934 136.599 182.766V164.934C136.599 163.829 135.704 162.934 134.599 162.934H107.599C106.495 162.934 105.599 163.829 105.599 164.934Z" fill="black"/>
<path d="M58.5991 203.66V182.076C58.5991 180.918 59.5807 180.001 60.7367 180.081L85.7367 181.805C86.7854 181.877 87.5991 182.749 87.5991 183.8V206.678C87.5991 207.877 86.5504 208.807 85.3595 208.663L60.3595 205.646C59.3549 205.525 58.5991 204.672 58.5991 203.66Z" fill="black"/>
<path d="M277.028 259.124L204.853 93.515C204.698 93.1601 204.762 92.7478 205.017 92.4565L256.598 33.5766C257.071 33.036 257.944 33.1566 258.253 33.8054L338.287 201.779C338.473 202.169 338.387 202.635 338.073 202.934L278.634 259.449C278.131 259.928 277.306 259.761 277.028 259.124Z" stroke="black" stroke-width="7" stroke-linecap="round"/>
<path d="M278.599 259.934L385.729 254.951C385.968 254.94 386.195 254.843 386.369 254.68L445.157 199.264C445.83 198.63 445.356 197.501 444.432 197.537L357 200.934" stroke="black" stroke-width="7" stroke-linecap="round"/>
<path d="M257.599 32.9336L361.019 36.9113C361.378 36.9251 361.701 37.1303 361.867 37.449L445.099 197.434" stroke="black" stroke-width="7" stroke-linecap="round"/>
</svg>
