<svg width="1085" height="549" viewBox="0 0 1085 549" fill="none" xmlns="http://www.w3.org/2000/svg">
<path d="M490.97 122.149L486.261 59.522C486.174 58.3617 487.091 57.3721 488.255 57.3721H604.917C606.09 57.3721 607.012 58.3769 606.91 59.5455L601.459 122.149C598.998 135.311 589.325 139.115 584.796 139.372H509.171C495.841 138.755 491.483 127.633 490.97 122.149Z" fill="black"/>
<path d="M920.599 72.8721V8.37207" stroke="black" stroke-width="15" stroke-linecap="round"/>
<path d="M892.099 83.3721C892.099 72.3264 901.053 63.3721 912.099 63.3721H929.099C940.145 63.3721 949.099 72.3264 949.099 83.3721V98.3721H892.099V83.3721Z" fill="black"/>
<path d="M872.099 210.372C872.099 221.418 881.053 230.372 892.099 230.372H949.099C960.145 230.372 969.099 221.418 969.099 210.372V195.372H872.099V210.372Z" fill="black"/>
<path d="M872.912 195.667C855.286 190.187 851.948 173.576 852.602 162.993C852.751 160.59 854.844 158.872 857.252 158.872H988.362C991.019 158.872 993.236 160.962 993.196 163.618C992.8 189.274 976.94 195.872 968.599 195.872H874.305C873.836 195.872 873.36 195.806 872.912 195.667Z" stroke="black" stroke-width="5"/>
<path d="M947.45 34.8983C941.103 26.4349 944.266 18.5332 947.666 14.395C948.517 13.3595 949.853 12.911 951.191 12.9802L1028.14 16.9554C1034.23 17.2702 1034.56 26.1501 1028.5 26.9098L951.651 36.5519C950.049 36.7528 948.418 36.1897 947.45 34.8983Z" fill="black"/>
<path d="M893.248 34.8983C899.596 26.4349 896.432 18.5332 893.032 14.395C892.181 13.3595 890.845 12.911 889.507 12.9802L812.559 16.9554C806.464 17.2702 806.138 26.1501 812.194 26.9098L889.047 36.5519C890.649 36.7528 892.28 36.1897 893.248 34.8983Z" fill="black"/>
<path d="M165.099 72.8721V8.37207" stroke="black" stroke-width="15" stroke-linecap="round"/>
<path d="M136.099 83.3721C136.099 72.3264 145.053 63.3721 156.099 63.3721H173.099C184.145 63.3721 193.099 72.3264 193.099 83.3721V98.3721H136.099V83.3721Z" fill="black"/>
<path d="M116.099 210.372C116.099 221.418 125.053 230.372 136.099 230.372H193.099C204.145 230.372 213.099 221.418 213.099 210.372V195.372H116.099V210.372Z" fill="black"/>
<path d="M116.912 195.667C99.2858 190.187 95.9478 173.576 96.6024 162.993C96.7511 160.59 98.8442 158.872 101.252 158.872H232.362C235.019 158.872 237.236 160.962 237.196 163.618C236.8 189.274 220.94 195.872 212.599 195.872H118.305C117.836 195.872 117.36 195.806 116.912 195.667Z" stroke="black" stroke-width="5"/>
<path d="M191.45 34.8983C185.103 26.4349 188.266 18.5332 191.666 14.395C192.517 13.3595 193.853 12.911 195.191 12.9802L272.14 16.9554C278.235 17.2702 278.56 26.1501 272.504 26.9098L195.651 36.5519C194.049 36.7528 192.418 36.1897 191.45 34.8983Z" fill="black"/>
<path d="M137.248 34.8983C143.596 26.4349 140.432 18.5332 137.032 14.395C136.181 13.3595 134.845 12.911 133.507 12.9802L56.5585 16.9554C50.4635 17.2702 50.1384 26.1501 56.194 26.9098L133.047 36.5519C134.649 36.7528 136.28 36.1897 137.248 34.8983Z" fill="black"/>
<path d="M390.599 251.372L368.47 160.399C368.252 159.503 367.45 158.872 366.527 158.872H83.0625C82.7569 158.872 82.4451 158.798 82.1723 158.66C55.5627 145.232 66.8862 116.098 82.0183 112.016C82.3957 111.914 82.7425 111.722 83.0136 111.44L95.008 98.9848C95.385 98.5933 95.9051 98.3721 96.4486 98.3721H224.56C225.211 98.3721 225.821 98.6888 226.195 99.2211L234.501 111.023C234.875 111.555 235.485 111.872 236.136 111.872H394.221C395.276 111.872 396.148 111.043 396.239 109.992C398.834 80.0178 417.224 62.7942 426.673 57.6012C426.958 57.4448 427.269 57.3721 427.593 57.3721H661.824C662.006 57.3721 662.19 57.3971 662.365 57.4483C684.171 63.8064 693.288 95.7295 695.395 112.583C695.523 113.601 696.379 114.372 697.405 114.372H846.712C847.277 114.372 847.815 114.133 848.194 113.715L861.504 99.029C861.883 98.6107 862.421 98.3721 862.986 98.3721H977.624C978.239 98.3721 978.821 98.6556 979.2 99.1408L990.498 113.603C990.877 114.089 991.459 114.372 992.074 114.372H1008.59C1008.92 114.372 1009.26 114.462 1009.56 114.627C1034.24 128.542 1023.22 152.475 1009.47 158.708C1009.23 158.819 1008.96 158.872 1008.69 158.872H731.053C730.186 158.872 729.418 159.43 729.15 160.255L701.869 244.372M668.099 276.654C659.962 277.591 652.308 275.983 647.243 273.931C647.146 273.892 647.052 273.843 646.963 273.789C557.281 219.266 475.401 250.863 445.364 273.67C445.182 273.808 444.987 273.908 444.77 273.977C438.206 276.063 432.333 277.035 427.099 277.157" stroke="black" stroke-width="5" stroke-linecap="round"/>
<path d="M432.099 234.872L345.776 341.535C345.354 342.058 345.221 342.758 345.425 343.398L368.099 414.872" stroke="black" stroke-width="25" stroke-linecap="round"/>
<path d="M665.099 234.872L751.422 341.535C751.845 342.058 751.977 342.758 751.774 343.398L729.099 414.872" stroke="black" stroke-width="25" stroke-linecap="round"/>
<rect x="396.099" y="370.372" width="287" height="34" fill="black"/>
<path d="M686.099 414.378V363.372C686.099 352.326 677.145 343.372 666.099 343.372H413.099C402.053 343.372 393.099 352.326 393.099 363.372V525.372C393.099 536.418 402.053 545.372 413.099 545.372H564.118" stroke="black" stroke-width="7" stroke-linecap="round"/>
<path d="M427.099 494.372H486.099" stroke="black" stroke-width="7" stroke-linecap="round"/>
<path d="M506.099 494.372H514.099" stroke="black" stroke-width="7" stroke-linecap="round"/>
<circle cx="637.599" cy="499.872" r="35.5" fill="black"/>
<path d="M664.099 468.185C667.562 467.01 671.279 466.372 675.146 466.372C693.898 466.372 709.099 481.371 709.099 499.872C709.099 518.374 693.898 533.372 675.146 533.372C671.279 533.372 667.562 532.734 664.099 531.559" stroke="black" stroke-width="5" stroke-linecap="round"/>
</svg>
