<svg width="647" height="558" viewBox="0 0 647 558" fill="none" xmlns="http://www.w3.org/2000/svg">
<path d="M574.894 142.578C546.871 142.578 541.93 168.713 543.715 182.502C543.878 183.768 543.062 184.972 541.851 185.372C535.595 187.44 526.835 193.841 529.264 207.602C531.934 222.731 549.104 223.721 557.713 221.998C558.135 221.913 558.514 221.7 558.818 221.395L600.736 179.478C600.996 179.218 601.189 178.904 601.292 178.552C605.2 165.167 600.785 142.578 574.894 142.578Z" stroke="black" stroke-width="7" stroke-linecap="round"/>
<path d="M637.71 204.065C637.71 232.088 611.575 237.029 597.785 235.244C596.52 235.081 595.316 235.896 594.916 237.108C592.848 243.364 586.446 252.124 572.686 249.695C557.556 247.025 556.567 229.855 558.29 221.246C558.374 220.824 558.588 220.445 558.892 220.14L600.81 178.223C601.069 177.963 601.383 177.77 601.736 177.667C615.121 173.759 637.71 178.174 637.71 204.065Z" stroke="black" stroke-width="7" stroke-linecap="round"/>
<path d="M604.202 169.956C609.146 166.153 618.348 153.529 615.61 133.451" stroke="black" stroke-width="7" stroke-linecap="round"/>
<path d="M606.483 175.018C610.286 170.074 622.91 160.872 642.988 163.61" stroke="black" stroke-width="7" stroke-linecap="round"/>
<path d="M243.722 29.262C269.059 41.2325 262.362 66.9735 254.858 78.6792C254.17 79.7533 254.393 81.1904 255.317 82.0699C260.091 86.612 265.276 96.142 257.203 107.546C248.326 120.085 232.378 113.646 225.33 108.41C224.985 108.153 224.733 107.798 224.588 107.393L204.594 51.5866C204.47 51.2406 204.429 50.8742 204.486 50.5113C206.671 36.7397 220.312 18.202 243.722 29.262Z" stroke="black" stroke-width="7" stroke-linecap="round"/>
<path d="M160.659 58.0238C148.688 83.3609 170.208 98.9926 183.438 103.27C184.652 103.662 185.392 104.914 185.237 106.18C184.434 112.721 186.48 123.375 199.959 127.058C214.779 131.107 223.009 116.004 225.128 107.484C225.232 107.067 225.201 106.633 225.056 106.228L205.062 50.4211C204.938 50.0751 204.737 49.7661 204.462 49.5223C194.029 40.2711 171.719 34.6141 160.659 58.0238Z" stroke="black" stroke-width="7" stroke-linecap="round"/>
<path d="M205.525 41.4965C202.68 35.9467 199.753 20.6011 210.805 3.6173" stroke="black" stroke-width="7" stroke-linecap="round"/>
<path d="M201.299 45.0993C199.973 39.0054 192.489 25.2922 173.166 19.1911" stroke="black" stroke-width="7" stroke-linecap="round"/>
<path d="M392.671 349.717C393.812 320.437 391.987 260.737 375.56 256.174C355.026 250.471 250.076 250.471 178.208 256.174C106.34 261.878 40.1757 258.456 36.7534 242.485C34.0156 229.709 118.508 224.994 161.096 224.233C211.575 223.792 318.835 226.236 344.046 239.542" stroke="black" stroke-width="7" stroke-linecap="round"/>
<path d="M12.7974 250.471C15.4591 264.54 30.8214 291.766 70.9762 288.116C111.131 284.465 251.217 278.99 316.24 276.708C330.309 275.948 359.817 280.131 365.293 302.946C370.768 325.761 370.616 344.393 369.856 350.858" stroke="black" stroke-width="7" stroke-linecap="round" stroke-dasharray="22.82 22.82"/>
<path d="M357.307 458.09C361.109 473.68 358.904 506.458 319.662 512.846C270.609 520.832 216.993 512.846 128.014 519.691C56.8303 525.167 35.2318 519.691 33.3306 516.269" stroke="black" stroke-width="7" stroke-linecap="round" stroke-dasharray="22.82 22.82"/>
<path d="M371.424 255.518C284.201 187.548 37.252 197.201 12.1553 234.84C11.7911 235.386 11.6279 235.953 11.567 236.607C5.87003 297.816 -1.9599 423.856 11.6572 508.283C13.1779 517.789 19.8698 538.399 34.4715 544.787C52.7237 552.772 347.04 559.617 365.292 544.787C383.545 529.957 393.812 486.608 392.671 447.822" stroke="black" stroke-width="7" stroke-linecap="round"/>
<path d="M393.812 324.617C399.135 323.857 412.976 328.27 416.627 347.435C420.25 366.455 420.052 410.645 414.473 430.267C414.388 430.569 414.277 430.84 414.123 431.114C405.443 446.464 368.924 466.596 288.507 455.115C286.672 454.853 285.151 453.498 284.744 451.69C278.616 424.422 273.241 372.364 295.878 358.271C296.503 357.882 297.209 357.692 297.945 357.672C328.402 356.865 390.315 353.745 402.938 347.434" stroke="black" stroke-width="7" stroke-linecap="round"/>
<circle cx="336.773" cy="407.896" r="26.2375" fill="black"/>
<path d="M406.361 362.266C391.953 366.436 351.382 374.539 304.102 373.681C303.83 373.676 303.558 373.63 303.287 373.642C299.544 373.808 294.063 386.477 298.832 436.791C299.006 438.619 300.265 440.197 302.04 440.667C318.352 444.987 352.394 448.997 378.982 435.274" stroke="black" stroke-width="7" stroke-linecap="round" stroke-dasharray="22.82 22.82"/>
</svg>
