<svg width="443" height="505" viewBox="0 0 443 505" fill="none" xmlns="http://www.w3.org/2000/svg">
<path d="M292.099 119.812L319.099 68.8125" stroke="black" stroke-width="5" stroke-linecap="round"/>
<path d="M337.099 149.312L375.599 118.312" stroke="black" stroke-width="5" stroke-linecap="round"/>
<path d="M240.599 114.812L216.599 2.8125" stroke="black" stroke-width="5" stroke-linecap="round"/>
<path d="M200.599 119.312L171.099 75.8125" stroke="black" stroke-width="5" stroke-linecap="round"/>
<path d="M0.0991211 384.812L62.0991 338.312L70.0991 387.312L247 502.523L0.0991211 384.812Z" fill="black"/>
<path d="M174.599 320.983L230.599 290.523L321.099 346.295" stroke="black" stroke-width="5" stroke-linecap="round"/>
<path d="M174.6 320.983L261.231 378.146C261.852 378.556 262.648 378.587 263.299 378.227L321.1 346.295L437.098 282.67C438.44 281.934 438.492 280.025 437.192 279.217L224.557 147.118C223.963 146.749 223.219 146.717 222.595 147.034L49.664 234.965C48.2968 235.66 48.1888 237.572 49.469 238.417L174.6 320.983Z" stroke="black" stroke-width="5" stroke-linecap="round"/>
<path d="M223.599 146.523L230.599 290.523" stroke="black" stroke-width="5" stroke-linecap="round"/>
<path d="M262.24 378.812L247.961 499.143C247.769 500.763 249.491 501.919 250.917 501.128L394.98 421.198C395.426 420.95 395.761 420.541 395.916 420.055L440.099 281.023" stroke="black" stroke-width="5" stroke-linecap="round"/>
<path d="M249.5 501.523L71.0991 386.023L48.5005 237.023" stroke="black" stroke-width="5" stroke-linecap="round"/>
<path d="M111.792 302.771L158.099 392.813L176.099 377.313C170.765 366.813 155.792 338.571 135.792 299.771C115.792 260.971 131.099 234.813 157.599 222.313L240.099 179.813C273.599 160.722 306.432 182.98 312.599 199.313L347.099 220.813L339.099 207.313L327.599 188.405C306.599 149.905 262.292 149.938 244.292 156.771C220.459 168.271 161.491 193.485 127.292 218.771C94.0987 243.313 101.792 283.938 111.792 302.771Z" fill="black"/>
<path d="M165.599 404.312C177.473 404.312 187.099 393.12 187.099 379.312C187.099 365.505 177.473 354.312 165.599 354.312C153.725 354.312 144.099 365.505 144.099 379.312C144.099 393.12 153.725 404.312 165.599 404.312Z" fill="black"/>
</svg>
