<svg width="639" height="503" viewBox="0 0 639 503" fill="none" xmlns="http://www.w3.org/2000/svg">
<path d="M111.099 466.504L149.099 466.504C160.145 466.504 169.099 457.55 169.099 446.504L169.099 247.504C169.099 236.458 160.145 227.504 149.099 227.504L24.0991 227.504C13.0534 227.504 4.09912 236.458 4.09912 247.504L4.09913 367.004" stroke="black" stroke-width="7" stroke-linecap="round"/>
<path d="M46.0991 255.504L46.0991 303.504" stroke="black" stroke-width="7" stroke-linecap="round"/>
<path d="M46.0991 319.504L46.0991 326.504" stroke="black" stroke-width="7" stroke-linecap="round"/>
<rect x="147.099" y="230.504" width="233" height="28" transform="rotate(90 147.099 230.504)" fill="black"/>
<circle cx="41.1011" cy="427.504" r="29" transform="rotate(90 41.1011 427.504)" fill="black"/>
<path d="M67.1127 448.568C68.0774 451.416 68.6011 454.472 68.6011 457.651C68.6011 473.07 56.2889 485.568 41.1011 485.568C25.9132 485.568 13.6011 473.07 13.6011 457.651C13.6011 454.472 14.1248 451.416 15.0895 448.568" stroke="black" stroke-width="5" stroke-linecap="round"/>
<path d="M614.515 310.004C614.515 314.308 615.26 318.086 616.367 320.695C616.922 322.004 617.52 322.903 618.056 323.437C618.581 323.961 618.903 324.004 619.015 324.004C619.127 324.004 619.449 323.961 619.975 323.437C620.511 322.903 621.108 322.004 621.663 320.695C622.77 318.086 623.515 314.308 623.515 310.004C623.515 305.7 622.77 301.922 621.663 299.313C621.108 298.004 620.511 297.105 619.975 296.571C619.449 296.047 619.127 296.004 619.015 296.004C618.903 296.004 618.581 296.047 618.056 296.571C617.52 297.105 616.922 298.004 616.367 299.313C615.26 301.922 614.515 305.7 614.515 310.004Z" stroke="black" stroke-width="5"/>
<path d="M227.015 211.005C218.182 211.505 199.615 208.405 196.015 192.005C192.415 175.605 197.182 175.171 200.015 177.005C202.094 178.35 203.015 182.005 197.015 190.005" stroke="black" stroke-width="5" stroke-linecap="round"/>
<path d="M186.515 198.504C183.515 198.171 179.015 195.179 179.015 185.504C179.015 171.504 170.515 184.504 170.515 193.005C170.515 200.004 178.015 208.004 188.515 205.504" stroke="black" stroke-width="5" stroke-linecap="round"/>
<path d="M220.515 222.01C209.182 224.01 183.815 215.505 185.015 179.505C185.365 169.002 195.015 164.505 203.515 168.505C213.515 174.005 209.415 192.008 201.015 198.008" stroke="black" stroke-width="5" stroke-linecap="round"/>
<path d="M580.515 310.504C580.515 324.789 583.798 337.598 588.978 346.749C594.2 355.975 601.027 361.004 608.015 361.004C615.003 361.004 621.83 355.975 627.053 346.749C632.232 337.598 635.515 324.789 635.515 310.504C635.515 296.219 632.232 283.41 627.053 274.259C621.83 265.033 615.003 260.004 608.015 260.004C601.027 260.004 594.2 265.033 588.978 274.259C583.798 283.41 580.515 296.219 580.515 310.504Z" stroke="black" stroke-width="5"/>
<path d="M596.515 316.004C596.515 320.308 597.26 324.086 598.367 326.695C598.922 328.004 599.52 328.903 600.056 329.437C600.581 329.961 600.903 330.004 601.015 330.004C601.127 330.004 601.449 329.961 601.975 329.437C602.511 328.903 603.108 328.004 603.663 326.695C604.77 324.086 605.515 320.308 605.515 316.004C605.515 311.7 604.77 307.922 603.663 305.313C603.108 304.004 602.511 303.105 601.975 302.571C601.449 302.047 601.127 302.004 601.015 302.004C600.903 302.004 600.581 302.047 600.056 302.571C599.52 303.105 598.922 304.004 598.367 305.313C597.26 307.922 596.515 311.7 596.515 316.004Z" stroke="black" stroke-width="5"/>
<path d="M547.015 279.504C541.515 292.337 534.115 325.104 548.515 353.504" stroke="black" stroke-width="5" stroke-linecap="round"/>
<path d="M558.515 257.504L605.015 260.004" stroke="black" stroke-width="5" stroke-linecap="round"/>
<path d="M612.015 360.504C607.015 363.337 593.515 370.004 577.515 370.004C561.515 370.004 554.848 370.671 553.515 371.004" stroke="black" stroke-width="5" stroke-linecap="round"/>
<path d="M580.015 370.504C573.515 383.504 553.315 413.704 524.515 430.504" stroke="black" stroke-width="5" stroke-linecap="round"/>
<path d="M536.015 423.504C536.515 441.671 534.715 480.404 523.515 490.004C512.315 499.604 483.848 494.004 471.015 490.004" stroke="black" stroke-width="5" stroke-linecap="round"/>
<path d="M477.515 434.004C478.682 453.337 477.215 493.104 462.015 497.504C446.815 501.904 421.015 499.337 410.015 497.504C408.348 497.504 404.315 495.304 401.515 486.504C398.715 477.704 396.015 448.837 395.015 435.504" stroke="black" stroke-width="5" stroke-linecap="round"/>
<path d="M505.015 440.004C500.015 443.004 488.915 448.504 478.515 446.504" stroke="black" stroke-width="5" stroke-linecap="round"/>
<path d="M397.015 458.504C379.182 460.004 339.715 460.804 320.515 450.004" stroke="black" stroke-width="5" stroke-linecap="round"/>
<path d="M354.015 459.004C352.848 466.337 349.015 480.504 343.015 482.504C335.515 485.004 316.515 487.004 311.515 482.004" stroke="black" stroke-width="5" stroke-linecap="round"/>
<path d="M320.515 439.504C319.682 455.337 315.115 487.404 303.515 489.004C289.015 491.004 266.515 491.504 251.515 478.004C239.515 467.204 241.515 428.171 244.015 410.004" stroke="black" stroke-width="5" stroke-linecap="round"/>
<path d="M242.515 422.504C217.848 393.004 178.815 312.104 220.015 224.504C242.019 177.719 282.212 152.906 322.099 140.805" stroke="black" stroke-width="5" stroke-linecap="round"/>
<path d="M413.515 132.005C405.251 131.016 395.231 130.521 384.099 130.845" stroke="black" stroke-width="5" stroke-linecap="round"/>
<path d="M438.015 135.004C472.348 142.004 546.015 174.704 578.015 257.504" stroke="black" stroke-width="5" stroke-linecap="round"/>
<circle r="15" transform="matrix(-1 0 0 1 506.015 231.504)" fill="black"/>
<ellipse rx="12.5" ry="13" transform="matrix(-1 0 0 1 552.515 212.504)" fill="black"/>
<path d="M505.514 158.005C508.181 151.672 511.714 139.871 510.514 133.871" stroke="black" stroke-width="5" stroke-linecap="round"/>
<path d="M512.015 123.871C511.515 121.704 509.115 119.071 503.515 125.871C497.915 132.671 490.515 143.37 487.515 147.87" stroke="black" stroke-width="5" stroke-linecap="round"/>
<path d="M514.014 172.003C519.181 154.003 526.414 116.803 514.014 112.003C501.614 107.203 479.847 132.003 470.514 145.003" stroke="black" stroke-width="5" stroke-linecap="round"/>
<path d="M464.515 175.005C453.015 154.005 427.415 115.505 417.015 129.505C406.615 143.505 407.348 192.672 409.015 215.505" stroke="black" stroke-width="5" stroke-linecap="round"/>
<path d="M425.515 199.504C420.848 185.671 414.315 155.904 425.515 147.504C428.848 145.171 438.415 148.104 450.015 178.504" stroke="black" stroke-width="5" stroke-linecap="round"/>
<path d="M429.63 43.9402C402.783 66.0173 387.805 112.135 383.599 133.004C383.599 76.0816 393.254 50.8415 399.92 42.9101C400.932 41.7056 400.757 39.6402 399.276 39.1084C388.667 35.2989 363.493 30.0892 349.28 27.4111C348.11 27.1906 347.396 26.0071 347.78 24.8802C351.153 14.9829 356.949 6.02982 360.404 1.50773C361.057 0.653285 362.267 0.520747 363.133 1.15814C377.482 11.7193 411.358 30.7673 429.351 40.5201C430.637 41.2172 430.76 43.011 429.63 43.9402Z" fill="black"/>
<path d="M324.099 150.401C321.372 151.33 318.86 152.337 316.633 153.428C315.866 153.803 315.228 154.393 314.763 155.109L314.03 156.239C311.688 159.846 314.685 164.564 318.951 164.02C338.343 161.545 366.729 158.626 382.723 158.705C384.346 158.713 385.886 157.984 386.812 156.651C389.081 153.386 392.08 148.459 392.836 144.281C393.237 142.065 391.192 140.539 388.941 140.63C387.574 140.685 386.123 140.753 384.599 140.836" stroke="black" stroke-width="5" stroke-linecap="round"/>
<path d="M314.015 158.004C327.615 150.804 376.182 147.837 389.515 147.504C389.516 150.004 387.015 154.504 384.515 157.004C369.515 156.504 325.015 163.004 315.015 163.004L314.015 158.004Z" fill="black"/>
<path d="M385.099 148.003C382.205 121.956 381.451 65.8481 400.436 42.8867C401.381 41.7432 400.95 39.9512 399.536 39.5007C383.569 34.4133 351.324 26.1061 327.122 26.4685C326.219 26.482 325.457 27.0917 325.257 27.9718C319.958 51.2473 313.071 106.739 325.599 154.503" stroke="black" stroke-width="5" stroke-linecap="round"/>
</svg>
