<svg width="737" height="686" viewBox="0 0 737 686" fill="none" xmlns="http://www.w3.org/2000/svg">
<ellipse cx="465.807" cy="486.353" rx="14.5203" ry="19.0579" transform="rotate(41.2642 465.807 486.353)" fill="black"/>
<circle cx="465.43" cy="485.515" r="33" stroke="black" stroke-width="5"/>
<circle cx="465.43" cy="485.515" r="46" stroke="black" stroke-width="5"/>
<rect x="372.952" y="439.015" width="44" height="17" rx="8.5" transform="rotate(45 372.952 439.015)" fill="black"/>
<path d="M343.93 486.515C341.605 481.367 339.644 467.016 350.317 450.688C350.391 450.574 350.478 450.467 350.574 450.371L421.93 379.015C423.247 377.534 426.838 375.468 430.779 378.882C430.879 378.968 430.976 379.042 431.09 379.11C453.779 392.588 527.67 443.302 544.43 480.015C546.43 484.396 548.43 491.015 540.43 500.515L520.93 522.515" stroke="black" stroke-width="5" stroke-linecap="round"/>
<path d="M187.099 368.103V343.813C187.099 332.767 178.145 323.812 167.099 323.812H24.0991C13.0534 323.812 4.09912 332.767 4.09912 343.812V429.812C4.09912 440.858 13.0534 449.812 24.0991 449.812H110.913" stroke="black" stroke-width="7" stroke-linecap="round"/>
<path d="M25.0991 417.812H62.0991" stroke="black" stroke-width="7" stroke-linecap="round"/>
<path d="M74.0991 417.812H80.0991" stroke="black" stroke-width="7" stroke-linecap="round"/>
<rect x="6.09912" y="340.812" width="178" height="21" fill="black"/>
<circle cx="157.099" cy="421.812" r="22" fill="black"/>
<path d="M173.099 401.949C175.254 401.212 177.566 400.812 179.973 400.812C191.641 400.812 201.099 410.215 201.099 421.812C201.099 433.41 191.641 442.812 179.973 442.812C177.566 442.812 175.254 442.413 173.099 441.676" stroke="black" stroke-width="5" stroke-linecap="round"/>
<path d="M597.617 153.559L584.368 249.323C584.219 250.403 584.961 251.403 586.038 251.573L686.78 267.447C687.996 267.639 689.095 266.696 689.091 265.465L688.628 128.469C688.623 127.139 687.345 126.183 686.068 126.556L599.039 151.913C598.282 152.134 597.725 152.778 597.617 153.559Z" stroke="black" stroke-width="5"/>
<path d="M699.099 133.312L688.099 124.312L687.099 269.812L710.099 265.312L699.099 133.312Z" fill="black"/>
<path d="M699.099 135.812H712.492C713.476 135.812 714.315 136.529 714.468 137.502L733.743 260.065C733.931 261.263 733.018 262.352 731.805 262.375L708.928 262.812" stroke="black" stroke-width="5" stroke-linecap="round"/>
<path d="M641.099 138.813C643.168 129.407 650.982 111.066 665.686 112.947C673.564 113.954 678.099 123.058 678.099 127.526" stroke="black" stroke-width="5" stroke-linecap="round"/>
<path d="M621.099 144.812C623.402 133.53 632.486 108.995 649.447 107.844C661.359 107.035 665.408 122.214 663.741 132.296" stroke="black" stroke-width="5" stroke-linecap="round"/>
<path d="M188.627 153.557C182.348 158.018 173.891 170.413 193.197 176.757C207.921 181.596 220.408 179.149 224.722 179.048" stroke="black" stroke-width="5" stroke-linecap="round"/>
<path d="M245.886 183.299C224.031 185.451 197.916 160.437 185.805 145.56C184.996 144.566 185.357 143.096 186.487 142.492C201.599 134.402 213.139 118.445 218.047 109.609C218.654 108.516 220.105 108.198 221.095 108.963C256.522 136.335 262.129 159.161 260.924 167.765C260.91 167.867 260.888 167.959 260.856 168.057C259.499 172.209 254.766 180.792 246.209 183.238C246.103 183.268 245.995 183.288 245.886 183.299Z" stroke="black" stroke-width="5" stroke-linecap="round"/>
<ellipse cx="201.528" cy="125.343" rx="26.5" ry="5" transform="rotate(-45.978 201.528 125.343)" fill="black"/>
<path d="M411.829 29.998C403.662 57.998 388.629 116.598 393.829 126.998" stroke="black" stroke-width="5" stroke-linecap="round"/>
<path d="M397.109 37.6544L410.297 29.4123C411.138 28.8868 412.236 29.0566 412.879 29.8113L422.132 40.6731C422.779 41.4326 423.887 41.5991 424.728 41.0635L456.26 20.9977C461.26 16.9977 461.177 13.3686 459.26 10.9977C455.943 6.89461 446.457 5.39037 440.165 5.45472C439.321 5.46336 438.598 6.03736 438.356 6.84623L436.041 14.5623C435.864 15.1526 435.418 15.6328 434.84 15.8475C418.095 22.0714 407.428 18.0898 403.259 12.6961C402.923 12.2616 402.832 11.6948 402.957 11.1602L404.239 5.71422C404.515 4.53925 403.699 3.38805 402.494 3.3177C393.912 2.81662 380.26 3.95251 380.26 11.9976C380.26 20.2061 389.251 31.6627 394.653 37.3591C395.294 38.0349 396.32 38.148 397.109 37.6544Z" fill="black"/>
<path d="M357.26 100.998C361.26 58.1981 374.094 22.8314 380.26 10.9981C382.26 6.49805 387.06 3.39807 392.26 2.99807C398.76 2.49807 448.444 2.57188 460.76 8.99807C472.26 14.998 470.26 14.9981 467.26 48.4981C464.86 75.2981 455.26 110.998 450.76 125.498C447.76 133.498 429.66 140.298 411.26 133.498C388.26 124.998 395.26 129.498 374.26 125.498C357.46 122.298 356.559 108.498 357.26 100.998Z" stroke="black" stroke-width="5"/>
<path d="M469.262 28.4977C465.928 24.9977 458.362 21.4977 454.762 35.4977C450.262 52.9977 440.182 92.0834 439.26 96.9977C437.76 104.998 437.261 125.998 445.261 113.498C451.661 103.498 459.095 61.4977 461.262 41.4977" stroke="black" stroke-width="5" stroke-linecap="round"/>
<ellipse cx="415.329" cy="42.4982" rx="2.50085" ry="4" transform="rotate(13.2587 415.329 42.4982)" fill="black"/>
<ellipse cx="409.68" cy="62.965" rx="2.50085" ry="4" transform="rotate(13.2587 409.68 62.965)" fill="black"/>
<ellipse cx="404.68" cy="86.965" rx="2.50085" ry="4" transform="rotate(13.2587 404.68 86.965)" fill="black"/>
<ellipse cx="400.68" cy="111.965" rx="2.50085" ry="4" transform="rotate(13.2587 400.68 111.965)" fill="black"/>
<path d="M510.099 289.313C522.932 285.979 551.999 284.813 565.599 306.813C582.599 334.313 583.599 342.313 605.099 337.313" stroke="black" stroke-width="5" stroke-linecap="round"/>
<path d="M376.01 231.205C377.344 221.205 374.81 198.805 354.01 189.205" stroke="black" stroke-width="5" stroke-linecap="round"/>
<path d="M231.099 344.812C233.266 332.812 245.899 309.612 279.099 312.812C312.299 316.012 330.932 302.812 336.099 295.812" stroke="black" stroke-width="5" stroke-linecap="round"/>
<path d="M310.917 233.205C305.571 235.105 296.609 241.577 303.531 252.273C310.402 262.89 316.594 253.941 318.886 248.021C318.921 247.932 318.942 247.843 318.95 247.749C319.268 244.21 318.481 237.831 312.817 239.561C307.076 241.314 309.158 245.844 310.917 247.889" stroke="black" stroke-width="5" stroke-linecap="round"/>
<path d="M490.006 188.812C484.66 190.712 475.698 197.185 482.62 207.88C489.491 218.497 495.682 209.548 497.975 203.628C498.009 203.54 498.03 203.451 498.039 203.356C498.357 199.817 497.569 193.438 491.905 195.168C486.165 196.922 488.247 201.451 490.006 203.497" stroke="black" stroke-width="5" stroke-linecap="round"/>
<path d="M193.099 566.102L255.099 519.602L263.099 568.602L440 683.813L193.099 566.102Z" fill="black"/>
<path d="M367.6 502.273L454.231 559.435C454.852 559.845 455.648 559.876 456.299 559.517L514.1 527.584L630.098 463.959C631.44 463.223 631.492 461.314 630.192 460.506L417.557 328.407C416.963 328.038 416.219 328.006 415.595 328.323L242.664 416.254C241.297 416.949 241.189 418.861 242.469 419.706L367.6 502.273Z" stroke="black" stroke-width="5" stroke-linecap="round"/>
<path d="M416.599 327.812L420.599 379.102" stroke="black" stroke-width="5" stroke-linecap="round"/>
<path d="M455.24 560.102L440.961 680.432C440.769 682.052 442.491 683.208 443.917 682.417L587.98 602.487C588.426 602.239 588.761 601.83 588.916 601.344L633.099 462.312" stroke="black" stroke-width="5" stroke-linecap="round"/>
<path d="M442.5 682.812L264.099 567.312L241.5 418.312" stroke="black" stroke-width="5" stroke-linecap="round"/>
<path d="M304.792 484.06L351.099 574.102L369.099 558.602C363.765 548.102 348.792 519.86 328.792 481.06C308.792 442.26 324.099 416.102 350.599 403.602L433.099 361.102C466.599 342.011 499.432 364.269 505.599 380.602L540.099 402.102L532.099 388.602L520.599 369.694C499.599 331.194 455.292 331.227 437.292 338.06C413.459 349.56 354.491 374.774 320.292 400.06C287.099 424.602 294.792 465.227 304.792 484.06Z" fill="black"/>
<path d="M358.599 585.602C370.473 585.602 380.099 574.409 380.099 560.602C380.099 546.794 370.473 535.602 358.599 535.602C346.725 535.602 337.099 546.794 337.099 560.602C337.099 574.409 346.725 585.602 358.599 585.602Z" fill="black"/>
</svg>
