<svg width="415" height="375" viewBox="0 0 415 375" fill="none" xmlns="http://www.w3.org/2000/svg">
<path d="M74.3873 74.1701L101.923 26.4768C110.2 12.1406 128.525 7.21822 142.872 15.4774L223.188 61.7155M28.688 155.716L16.3162 176.098C7.58543 190.482 12.3897 209.232 26.9616 217.645L39.1778 224.698M190.688 313.716L271.592 359.256C285.919 367.321 304.068 362.351 312.288 348.113L339.391 301.17M388.688 215.716L398.923 198.017C407.221 183.667 402.308 165.306 387.952 157.018L375.678 149.931" stroke="black" stroke-width="7" stroke-linecap="round"/>
<rect x="39.1777" y="74.1699" width="336" height="226" rx="26.5" stroke="black" stroke-width="7"/>
<path d="M166.678 74.1699V120.216M166.678 299.67V195.216" stroke="black" stroke-width="7" stroke-linecap="round"/>
<circle cx="166.678" cy="155.67" r="18.5" stroke="black" stroke-width="7"/>
<path d="M39.6777 155.67H68.688" stroke="black" stroke-width="7" stroke-linecap="round"/>
<path d="M264.188 155.67H375.178" stroke="black" stroke-width="7" stroke-linecap="round"/>
<path d="M100.507 121.734C121.678 110.17 145.011 127.836 153.178 139.669C141.978 151.269 145.511 165.003 150.178 169.669C121.178 140.67 97.0111 158.503 88.6777 171.169C82.6777 164.669 75.826 135.216 100.507 121.734Z" fill="black"/>
<path d="M154.444 141.668C146.278 129.835 124.044 109.368 100.444 122.168C70.9443 138.168 85.9443 175.168 90.9443 180.668C95.9443 186.168 120.444 214.168 154.444 171.168" stroke="black" stroke-width="7" stroke-linecap="round"/>
<path d="M150.172 175.505C140.505 160.672 114.944 140.47 86.9443 173.67" stroke="black" stroke-width="7" stroke-linecap="round"/>
<path d="M128.672 223.505C128.672 210.505 138.026 211.269 146.672 202.005C156.471 191.505 153.358 176.48 167.444 175.17" stroke="black" stroke-width="7" stroke-linecap="round"/>
<path d="M205.944 223.505C205.944 210.505 196.59 211.269 187.944 202.005C178.146 191.505 181.258 176.48 167.172 175.17" stroke="black" stroke-width="7" stroke-linecap="round"/>
<path d="M232.615 121.734C211.444 110.17 188.111 127.836 179.944 139.669C191.144 151.269 187.611 165.003 182.944 169.669C211.944 140.67 236.111 158.503 244.444 171.169C250.444 164.669 257.296 135.216 232.615 121.734Z" fill="black"/>
<path d="M178.678 141.668C186.844 129.835 209.078 109.368 232.678 122.168C262.178 138.168 247.178 175.168 242.178 180.668C237.178 186.168 212.678 214.168 178.678 171.168" stroke="black" stroke-width="7" stroke-linecap="round"/>
<path d="M182.672 176.004C192.339 161.17 218.178 140.469 246.178 173.669" stroke="black" stroke-width="7" stroke-linecap="round"/>
</svg>
