<svg width="570" height="296" viewBox="0 0 570 296" fill="none" xmlns="http://www.w3.org/2000/svg">
<path d="M3.09912 181.922C58.8165 115.5 141.678 0.511885 196.681 2.65452C251.684 4.79716 271.685 32.6515 280.972 64.791C288.355 90.3466 275.181 88.3851 267.539 84.1526C267.445 84.1006 267.353 84.0382 267.269 83.9713C216.497 43.5527 191.914 70.0442 185.966 88.3601C175.68 142.64 219.54 167.737 259.542 191.921C287.482 208.812 286.855 235.75 283.467 249.081C283.074 250.624 281.065 250.878 280.076 249.63C210.141 161.447 126.345 238.65 63.7414 222.01C62.39 221.651 61.0412 222.685 61.0956 224.082C61.7969 242.095 60.5231 276.939 50.2446 292.625" stroke="black" stroke-width="5" stroke-linecap="round"/>
<path d="M567.099 181.922C511.382 115.5 428.52 0.511885 373.517 2.65452C318.514 4.79716 298.513 32.6515 289.227 64.791C281.843 90.3466 295.018 88.3851 302.659 84.1526C302.753 84.1006 302.845 84.0382 302.929 83.9713C353.701 43.5527 378.284 70.0442 384.232 88.3601C394.518 142.64 350.659 167.737 310.656 191.921C282.717 208.812 283.344 235.75 286.732 249.081C287.124 250.624 289.133 250.878 290.122 249.63C360.057 161.447 443.854 238.65 506.457 222.01C507.808 221.651 509.157 222.685 509.103 224.082C508.401 242.095 509.675 276.939 519.954 292.625" stroke="black" stroke-width="5" stroke-linecap="round"/>
</svg>
