<svg width="599" height="825" viewBox="0 0 599 825" fill="none" xmlns="http://www.w3.org/2000/svg">
<path d="M372.33 274.434C372.33 292.626 357.364 307.434 338.83 307.434C320.295 307.434 305.33 292.626 305.33 274.434C305.33 256.241 320.295 241.434 338.83 241.434C357.364 241.434 372.33 256.241 372.33 274.434Z" stroke="black" stroke-width="5"/>
<path d="M338.83 290.934V294.934" stroke="black" stroke-width="5" stroke-linecap="round"/>
<path d="M338.83 257.934V253.934" stroke="black" stroke-width="5" stroke-linecap="round"/>
<path d="M347.83 260.176C345.593 259.011 342.198 257.921 339.023 257.934C335.197 257.949 331.691 259.566 330.921 264.582C329.905 271.197 337.606 273.572 342.193 275.963C348.535 279.267 348.477 285.461 344.659 288.446C342.942 289.788 340.993 290.524 339.023 290.802C336.144 291.209 333.222 290.637 330.921 289.547" stroke="black" stroke-width="5" stroke-linecap="round"/>
<path d="M147.779 684.934C133.983 703.958 113.551 722.523 106.235 725.591L103.099 740.934C139.941 729.427 150.131 705.646 147.779 684.934Z" fill="black"/>
<path d="M88.7141 622.117C94.5806 666.522 87.7447 716.192 82.6519 739.479C82.3768 740.736 83.3293 741.934 84.6165 741.934H102.602C103.489 741.934 104.272 741.351 104.51 740.496C115.95 699.495 103.754 650.401 92.4262 620.999C91.5772 618.795 88.4047 619.776 88.7141 622.117Z" fill="black"/>
<path d="M108.963 689.62C129.826 693.428 157.645 682.635 173.099 660.125" stroke="black" stroke-width="5" stroke-linecap="round"/>
<path d="M12.7535 641.514C-0.614965 664.584 44.3553 715.732 90.1886 693.428" stroke="black" stroke-width="5" stroke-linecap="round"/>
<path d="M34.199 567.486C7.02399 571.33 -7.87766 608.592 12.7535 641.512C16.5086 647.504 32.8052 654.008 40.4441 654.008" stroke="black" stroke-width="5" stroke-linecap="round"/>
<path d="M173.099 613.167C173.099 584.577 165.468 554.159 119.789 540.569C71.6806 526.256 45.5378 547.881 34.199 567.487C28.81 576.805 30.8955 585.751 34.199 593.442" stroke="black" stroke-width="5" stroke-linecap="round"/>
<path d="M105.099 648.934C113.125 640.708 129.984 626.153 123.741 592.934" stroke="black" stroke-width="5" stroke-linecap="round"/>
<path d="M89.0991 664.934C82.8028 662.989 67.188 653.267 55.0991 629.934" stroke="black" stroke-width="5" stroke-linecap="round"/>
<path d="M212.599 561.452C212.599 559.666 214.419 558.456 216.066 559.147L243.066 570.47C243.995 570.86 244.599 571.769 244.599 572.776V636.121C244.599 637.945 242.708 639.155 241.052 638.391L214.052 625.935L213.005 628.205L214.052 625.935C213.166 625.526 212.599 624.64 212.599 623.665V561.452Z" stroke="black" stroke-width="5"/>
<path d="M282.599 599.452C282.599 597.666 284.419 596.456 286.066 597.147L313.066 608.47C313.995 608.86 314.599 609.769 314.599 610.776V674.121C314.599 675.945 312.708 677.155 311.052 676.391L284.052 663.935L283.005 666.205L284.052 663.935C283.166 663.526 282.599 662.64 282.599 661.665V599.452Z" stroke="black" stroke-width="5"/>
<path d="M212.599 447.452C212.599 445.666 214.419 444.456 216.066 445.147L243.066 456.47C243.995 456.86 244.599 457.769 244.599 458.776V522.121C244.599 523.945 242.708 525.155 241.052 524.391L214.052 511.935L213.005 514.205L214.052 511.935C213.166 511.526 212.599 510.64 212.599 509.665V447.452Z" stroke="black" stroke-width="5"/>
<path d="M282.599 484.452C282.599 482.666 284.419 481.456 286.066 482.147L313.066 493.47C313.995 493.86 314.599 494.769 314.599 495.776V559.121C314.599 560.945 312.708 562.155 311.052 561.391L284.052 548.935L283.005 551.205L284.052 548.935C283.166 548.526 282.599 547.64 282.599 546.665V484.452Z" stroke="black" stroke-width="5"/>
<path d="M244.099 704.511V765.312C244.099 766.484 244.782 767.549 245.847 768.038L271.847 779.98C273.834 780.893 276.099 779.441 276.099 777.254V715.824C276.099 714.63 275.391 713.55 274.296 713.074L248.296 701.76C246.315 700.898 244.099 702.35 244.099 704.511Z" fill="black"/>
<path d="M351.099 817.934L174.775 731.173C173.749 730.669 173.099 729.625 173.099 728.481V369.934" stroke="black" stroke-width="5" stroke-linecap="round"/>
<path d="M598.099 727.866L490.88 698.934V749.761L389.099 802.934L598.099 727.866Z" fill="black"/>
<path fill-rule="evenodd" clip-rule="evenodd" d="M346.747 820.052V455.942L165.75 372.642C163.187 371.462 163.521 367.718 166.253 367.012L328.101 325.158C328.665 325.012 329.259 325.034 329.811 325.22L492.099 379.973V749.448C492.099 750.579 491.464 751.613 490.455 752.124L351.103 822.728C349.108 823.739 346.747 822.289 346.747 820.052ZM375.643 380.5L375.254 379.901C375.011 379.527 374.714 379.266 374.391 379.108C365.92 374.956 352.929 371.99 339.479 369.974C326.098 367.968 312.529 366.94 303.068 366.558C302.504 366.535 302.078 366.726 301.873 366.904C301.78 366.985 301.751 367.046 301.741 367.072C301.734 367.089 301.715 367.142 301.738 367.267C302.056 369.024 302.865 371.007 303.874 372.957C317.269 373.384 363.101 376.883 375.643 380.5ZM303.27 361.562C301.583 361.494 299.863 362.022 298.585 363.137C297.245 364.307 296.446 366.102 296.818 368.157C297.68 372.922 300.981 378.244 303.25 381.509C304.688 383.578 307.035 384.647 309.403 384.636C325.214 384.558 353.451 387.455 372.847 389.931C379.195 390.741 383.698 383.726 380.182 378.309L379.448 377.179C378.761 376.121 377.802 375.212 376.592 374.618C367.387 370.107 353.747 367.057 340.22 365.029C326.624 362.991 312.87 361.95 303.27 361.562Z" fill="black"/>
<path d="M413.83 182.934C416.497 199.434 413.93 237.534 382.33 257.934C376.83 259.767 365.53 260.134 364.33 246.934C369.83 234.267 378.53 206.534 369.33 196.934C357.83 184.934 335.83 178.434 318.33 198.934C313.663 204.767 306.03 223.734 312.83 252.934C309.663 259.934 299.529 270.934 284.329 258.934C265.329 243.934 270.329 171.434 287.829 162.434" stroke="black" stroke-width="5" stroke-linecap="round"/>
<path d="M259.329 206.433C248.663 209.933 221.33 213.133 223.33 197.933C225.33 182.733 266.831 148.933 287.331 133.933C297.997 126.433 326.231 112.733 353.831 117.933" stroke="black" stroke-width="5" stroke-linecap="round"/>
<path d="M220.33 183.434C212.664 182.267 200.23 177.334 211.83 166.934C223.43 156.534 250.996 152.434 264.33 151.434" stroke="black" stroke-width="5" stroke-linecap="round"/>
<path d="M509.16 119.096C480.669 144.719 415.268 189.237 381.598 162.325C339.51 128.685 383.064 51.8016 430.176 14.13" stroke="black" stroke-width="5" stroke-linecap="round"/>
</svg>
