<svg width="415" height="529" viewBox="0 0 415 529" fill="none" xmlns="http://www.w3.org/2000/svg">
<path d="M8.56246 336.177L32.03 331.91C33.0111 331.732 33.8394 331.078 34.2402 330.165L41.785 312.979C42.277 311.859 42.039 310.552 41.1836 309.677L23.407 291.487C22.1698 290.221 22.292 288.164 23.6706 287.054L54.7198 262.042C56.0268 260.989 57.9432 261.213 58.972 262.539L77.762 286.757C78.7769 288.065 80.6597 288.304 81.9688 287.29L93.7189 278.194C94.5721 277.533 95.0049 276.465 94.8523 275.397L91.0883 249.049C90.8301 247.242 92.2325 245.625 94.0582 245.625H126.099C127.756 245.625 129.099 246.968 129.099 248.625V270.037C129.099 271.292 129.88 272.414 131.057 272.85L154.441 281.511C155.464 281.89 156.612 281.683 157.44 280.972L175.248 265.648C176.534 264.542 178.48 264.721 179.543 266.043L196.299 286.886C197.306 288.138 197.148 289.96 195.941 291.02L179.175 305.741C178.229 306.572 177.902 307.906 178.357 309.08L186.088 329.018C186.658 330.486 188.266 331.264 189.771 330.799L211.203 324.175C212.978 323.626 214.82 324.807 215.063 326.65L219.272 358.642C219.462 360.08 218.595 361.447 217.214 361.89L194.649 369.128C193.682 369.438 192.938 370.216 192.671 371.195L187.451 390.335C187.227 391.156 187.362 392.034 187.824 392.749L200.065 411.744C200.926 413.08 200.595 414.857 199.31 415.793L173.884 434.324C172.822 435.098 171.381 435.091 170.327 434.307L154.225 422.334C153.243 421.603 151.915 421.543 150.87 422.181L136.403 431.023C135.321 431.684 134.772 432.953 135.03 434.194L138.908 452.808C139.275 454.571 138.018 456.258 136.223 456.41L101.016 459.379C99.3936 459.516 97.9582 458.334 97.7817 456.715L95.3386 434.32C95.1961 433.014 94.2211 431.953 92.9323 431.701L73.9703 427.991C72.8284 427.768 71.6603 428.225 70.9732 429.164L59.0277 445.489C57.9901 446.907 55.9613 447.134 54.6363 445.98L28.0605 422.833C26.935 421.853 26.7013 420.194 27.5121 418.941L41.6682 397.064C42.2451 396.172 42.3077 395.042 41.8328 394.092L30.4283 371.283C29.9201 370.267 28.8813 369.625 27.745 369.625H9.09912C7.44227 369.625 6.09912 368.282 6.09912 366.625V339.129C6.09912 337.679 7.13599 336.436 8.56246 336.177Z" stroke="black" stroke-width="5"/>
<path d="M200.099 414.625L170.889 436.297C169.826 437.086 168.373 437.085 167.311 436.295L151.225 424.334C150.243 423.603 148.915 423.543 147.87 424.181L133.403 433.023C132.321 433.684 131.772 434.953 132.03 436.194L135.908 454.808C136.275 456.571 135.018 458.258 133.223 458.41L98.0161 461.379C96.3936 461.516 94.9582 460.334 94.7817 458.715L92.3386 436.32C92.1961 435.014 91.2211 433.953 89.9323 433.701L70.9703 429.991C69.8284 429.768 68.6603 430.225 67.9732 431.164L56.0277 447.489C54.9901 448.907 52.9613 449.134 51.6363 447.98L25.0605 424.833C23.935 423.853 23.7013 422.194 24.5121 420.941L38.6682 399.064C39.2451 398.172 39.3077 397.042 38.8328 396.092L27.4283 373.283C26.9201 372.267 25.8813 371.625 24.745 371.625H6.09912C4.44227 371.625 3.09912 370.282 3.09912 368.625V341.129C3.09912 339.679 4.13599 338.436 5.56246 338.177L29.03 333.91C30.0111 333.732 30.8394 333.078 31.2402 332.165L38.785 314.979C39.2769 313.859 39.039 312.552 38.1836 311.677L20.407 293.487C19.1698 292.221 19.292 290.164 20.6706 289.054L51.7198 264.042C53.0268 262.989 54.9432 263.213 55.972 264.539L74.762 288.757C75.7769 290.065 77.6597 290.304 78.9688 289.29L90.9356 280.026C91.6695 279.458 92.0991 278.582 92.0991 277.654V248.125" stroke="black" stroke-width="5" stroke-linecap="round"/>
<circle cx="113.099" cy="352.625" r="34.5" stroke="black" stroke-width="5"/>
<path d="M117.599 386.625C133.599 382.625 143.099 369.746 143.099 352.625C143.099 335.504 132.099 318.125 111.099 318.125" stroke="black" stroke-width="5" stroke-linecap="round"/>
<circle cx="296.218" cy="247.625" r="22.5" stroke="black" stroke-width="5"/>
<path d="M298.218 270.125C309.718 265.125 316.218 259.125 316.218 247.625C315.218 236.125 309.218 229.125 298.218 225.125" stroke="black" stroke-width="5" stroke-linecap="round"/>
<circle cx="282.718" cy="418.625" r="19" stroke="black" stroke-width="5"/>
<path d="M283.22 437.625C294.218 434.625 299.343 427.625 300.218 419.625C301.51 407.821 292.718 402.125 286.718 400.125" stroke="black" stroke-width="5" stroke-linecap="round"/>
<path d="M230.388 261.619L235.401 272.803C235.896 273.907 235.68 275.199 234.853 276.082L223.1 288.617C222.036 289.753 222.016 291.514 223.056 292.673L236.995 308.204C237.986 309.309 239.635 309.523 240.875 308.708L254.774 299.574C255.668 298.986 256.807 298.919 257.764 299.398L267.56 304.296C268.576 304.804 269.218 305.843 269.218 306.979V320.625C269.218 322.282 270.561 323.625 272.218 323.625H299.218C300.875 323.625 302.218 322.282 302.218 320.625V310.717C302.218 309.46 303.002 308.336 304.181 307.902L319.027 302.432C320.316 301.957 321.762 302.418 322.539 303.551L331.225 316.218C332.27 317.742 334.432 317.968 335.769 316.693L352.769 300.484C353.878 299.426 354.012 297.703 353.079 296.487L344.431 285.207C343.696 284.249 343.608 282.943 344.208 281.894L350.482 270.914C350.946 270.102 351.762 269.552 352.69 269.429L370.983 266.99C372.529 266.784 373.659 265.427 373.583 263.869L372.367 239.145C372.285 237.481 370.863 236.202 369.199 236.298L356.645 237.015C355.472 237.082 354.367 236.457 353.819 235.417L345.81 220.199C345.168 218.98 345.439 217.481 346.467 216.564L356.655 207.467C357.82 206.427 357.992 204.665 357.049 203.419L346.658 189.688C345.609 188.302 343.605 188.094 342.295 189.236L330.972 199.098C329.94 199.997 328.43 200.083 327.302 199.308L314.308 190.374C313.614 189.897 313.152 189.15 313.036 188.315L311.126 174.563C310.9 172.935 309.406 171.792 307.776 171.999L285.84 174.791C284.341 174.982 283.218 176.257 283.218 177.767V190.362C283.218 191.702 282.33 192.879 281.042 193.247L270.583 196.235C269.719 196.482 268.79 196.329 268.051 195.817L251.748 184.53C250.569 183.714 248.977 183.846 247.949 184.845L233.86 198.542C232.676 199.694 232.645 201.586 233.792 202.776L243.554 212.899C244.527 213.908 244.671 215.457 243.901 216.629L234.607 230.773C234.052 231.617 233.11 232.125 232.1 232.125H219.784C218.307 232.125 217.05 233.201 216.821 234.66L213.686 254.646C213.428 256.289 214.556 257.828 216.2 258.077L228.1 259.88C229.109 260.033 229.971 260.688 230.388 261.619Z" stroke="black" stroke-width="5"/>
<path d="M355.718 207.625L343.657 191.688C342.609 190.302 340.605 190.094 339.295 191.236L327.972 201.098C326.94 201.997 325.43 202.083 324.302 201.308L311.308 192.374C310.614 191.897 310.152 191.15 310.036 190.315L308.126 176.563C307.9 174.935 306.406 173.792 304.776 173.999L282.839 176.791C281.341 176.982 280.218 178.257 280.218 179.767V192.362C280.218 193.702 279.33 194.879 278.042 195.247L267.583 198.235C266.719 198.482 265.79 198.329 265.051 197.817L248.748 186.53C247.569 185.714 245.977 185.846 244.949 186.845L230.86 200.542C229.676 201.694 229.645 203.586 230.792 204.776L240.554 214.899C241.527 215.908 241.671 217.457 240.901 218.629L231.607 232.773C231.052 233.617 230.11 234.125 229.1 234.125H216.784C215.307 234.125 214.05 235.201 213.821 236.66L210.686 256.646C210.428 258.289 211.556 259.828 213.2 260.077L225.1 261.88C226.109 262.033 226.971 262.688 227.388 263.619L232.476 274.97C232.933 275.988 232.787 277.174 232.098 278.051L222.218 290.625" stroke="black" stroke-width="5" stroke-linecap="round"/>
<path d="M344.847 399.097L334.136 405.745C333.255 406.292 332.718 407.256 332.718 408.294V420.594C332.718 421.821 333.465 422.924 334.604 423.379L342.914 426.703C344.251 427.238 345.019 428.648 344.745 430.061L342.19 443.198C341.916 444.607 340.681 445.625 339.245 445.625H324.218C323.274 445.625 322.385 446.07 321.818 446.825L316.452 453.979C315.709 454.971 315.651 456.318 316.308 457.369L323.504 468.882C324.429 470.363 323.9 472.317 322.355 473.128L307.799 480.77C306.362 481.525 304.585 480.999 303.789 479.585L297.078 467.654C296.547 466.71 295.548 466.125 294.464 466.125H280.27C279.033 466.125 277.923 466.885 277.474 468.038L272.227 481.532C271.658 482.995 270.058 483.772 268.557 483.315L251.343 478.076C249.662 477.564 248.779 475.724 249.431 474.092L254.269 461.997C254.816 460.63 254.29 459.068 253.027 458.311L241.808 451.579C240.834 450.994 239.613 451.01 238.654 451.62L232.025 455.839C230.524 456.794 228.526 456.241 227.731 454.65L220.51 440.208C219.789 438.766 220.337 437.012 221.751 436.236L233.161 429.979C234.121 429.452 234.718 428.444 234.718 427.349V414.301C234.718 413.26 234.178 412.292 233.291 411.746L223.972 406.012C222.684 405.22 222.188 403.592 222.813 402.216L228.101 390.584C228.736 389.186 230.324 388.494 231.78 388.979L241.961 392.373C243.283 392.813 244.735 392.286 245.465 391.099L251.251 381.697C251.844 380.733 251.844 379.517 251.251 378.553L245.744 369.604C244.894 368.223 245.295 366.417 246.65 365.525L260.433 356.458C261.921 355.478 263.93 356.005 264.747 357.588L270.38 368.501C270.895 369.498 271.923 370.125 273.046 370.125H289.034C290.336 370.125 291.489 369.285 291.889 368.046L295.236 357.67C295.768 356.021 297.582 355.164 299.194 355.801L315.1 362.09C316.572 362.672 317.339 364.297 316.852 365.803L312.872 378.103C312.48 379.314 312.896 380.641 313.909 381.413L320.914 386.751C321.982 387.564 323.459 387.569 324.533 386.764L333.9 379.739C335.378 378.63 337.497 379.108 338.356 380.744L345.921 395.154C346.652 396.546 346.183 398.267 344.847 399.097Z" stroke="black" stroke-width="5"/>
<path d="M297.516 357.125L313.02 363.853C314.436 364.467 315.154 366.056 314.681 367.526L310.814 379.518C310.425 380.727 310.838 382.05 311.848 382.821L318.573 387.963C319.641 388.78 321.124 388.786 322.199 387.977L331.178 381.219C332.657 380.105 334.782 380.585 335.64 382.225L342.928 396.155C343.656 397.546 343.188 399.263 341.856 400.092L331.524 406.528C330.645 407.076 330.11 408.038 330.11 409.074V421.002C330.11 422.227 330.855 423.33 331.993 423.786L339.973 426.99C341.308 427.525 342.075 428.933 341.801 430.344L339.338 443.058C339.064 444.468 337.829 445.487 336.392 445.487H321.884C320.938 445.487 320.047 445.933 319.481 446.691L314.31 453.609C313.57 454.599 313.513 455.942 314.167 456.991L321.108 468.136C322.029 469.615 321.501 471.564 319.96 472.376L305.939 479.763C304.5 480.521 302.719 479.994 301.924 478.575L295.456 467.036C294.925 466.089 293.925 465.503 292.839 465.503H279.2C277.931 465.503 276.799 466.301 276.373 467.497L272.218 479.172" stroke="black" stroke-width="5" stroke-linecap="round"/>
<path d="M170.965 221.947C172.916 213.917 182.283 198.168 185.576 187.961C185.918 186.903 188.106 186.763 188.474 187.812C193.483 202.107 199.516 215.861 201.252 221.947C203.197 228.768 203.836 245.942 186.714 245.621C169.593 245.3 169.081 229.704 170.965 221.947Z" fill="black"/>
<path d="M202.732 156.464C203.974 151.388 209.589 141.794 212.21 134.87C212.603 133.832 214.963 133.72 215.341 134.764C218.658 143.935 222.426 152.537 223.554 156.464C224.891 161.12 225.331 172.841 213.559 172.622C201.788 172.403 201.436 161.759 202.732 156.464Z" fill="black"/>
<path d="M213.218 109.078L229.4 81.3472C229.913 80.4681 230.682 79.7665 231.604 79.3361L287.96 53.0407C289.795 52.1841 291.993 52.5068 293.204 54.1313C295.5 57.2126 298.006 62.1422 298.206 68.0913C298.274 70.1417 296.762 71.8318 294.779 72.359L241.264 86.5889C240.052 86.9112 239.005 87.6773 238.331 88.7352L223.117 112.625" stroke="black" stroke-width="5" stroke-linecap="round"/>
<path d="M225.155 113.799C226.139 109.033 215.327 105.22 211.395 107.126C208.446 109.033 211.395 112.846 216.31 114.752C220.241 116.277 225.155 115.705 225.155 113.799Z" fill="black"/>
<path d="M290.218 52.3316C290.909 39.1557 301.848 11.3515 339.762 3.17847C341.471 2.81017 343.252 3.40933 344.347 4.77108C354.151 16.9566 369.406 44.8742 365.63 76.6567C365.388 78.6946 363.852 80.3217 361.838 80.7128C341.856 84.5917 308.144 86.7228 298.218 71.125" stroke="black" stroke-width="5" stroke-linecap="round"/>
</svg>
