<svg width="361" height="477" viewBox="0 0 361 477" fill="none" xmlns="http://www.w3.org/2000/svg">
<path d="M321.1 139.551C294.128 167.022 196.802 211.957 160.711 170.68C160.637 170.595 160.571 170.506 160.515 170.409C157.747 165.612 156.982 152.135 185.1 150.551C220.6 148.551 262.599 107.551 239.099 85.0508" stroke="black" stroke-width="5" stroke-linecap="round"/>
<path d="M357.598 101.051C342.931 60.2179 279.298 -15.6488 142.098 7.55118C118.098 13.0512 74.5983 42.0513 115.098 56.5513" stroke="black" stroke-width="5" stroke-linecap="round"/>
<path d="M141.599 30.5508C118.265 50.0508 78.5987 91.5508 106.599 101.551C111.599 103.337 118.599 103.551 127.599 101.551" stroke="black" stroke-width="5" stroke-linecap="round"/>
<path d="M202.101 40.5506C191.768 36.5506 166.101 33.8506 146.101 55.0506C126.101 76.2506 132.266 121.884 136.599 142.051C140.099 158.338 170.393 158.551 170.6 135.551C170.767 117.051 171.1 91.0508 188.1 89.5508C205.596 88.007 203.1 99.0508 239.6 95.5508" stroke="black" stroke-width="5" stroke-linecap="round"/>
<path d="M178.099 140.051C162.599 153.051 132.799 173.551 129.599 207.551" stroke="black" stroke-width="5" stroke-linecap="round"/>
<path d="M112.599 171.051L122.099 153.551" stroke="black" stroke-width="5" stroke-linecap="round"/>
<path d="M92.5991 169.551L89.0991 144.051" stroke="black" stroke-width="5" stroke-linecap="round"/>
<path d="M77.5991 182.551L58.5991 170.051" stroke="black" stroke-width="5" stroke-linecap="round"/>
<path d="M72.0991 205.551H49.5991" stroke="black" stroke-width="5" stroke-linecap="round"/>
<path fill-rule="evenodd" clip-rule="evenodd" d="M133.051 198.901C149.282 196.448 178.697 198.274 173.599 224.552C167.099 258.052 132.099 265.552 121.599 265.552C111.099 265.552 79.5986 247.552 84.0986 215.052C88.5366 182.999 113.887 183.044 131.371 198.4C131.833 198.806 132.443 198.992 133.051 198.901ZM116.517 203.188C116.868 201.852 116.07 200.485 114.735 200.134C113.399 199.783 112.032 200.581 111.681 201.916C110.867 205.011 111.474 208.352 112.893 211.252C114.32 214.169 116.656 216.837 119.618 218.628C122.602 220.434 126.25 221.362 130.195 220.697C134.134 220.032 138.136 217.819 141.926 213.758C142.868 212.748 142.814 211.166 141.805 210.224C140.795 209.282 139.213 209.337 138.271 210.346C135.062 213.784 132.001 215.321 129.363 215.766C126.73 216.21 124.284 215.607 122.206 214.35C120.105 213.079 118.41 211.153 117.384 209.055C116.349 206.939 116.081 204.842 116.517 203.188Z" fill="black"/>
<path d="M103.599 282.051C83.9704 281.053 46.6446 271.289 54.0547 240.233C54.0829 240.115 54.1213 239.999 54.1718 239.889C57.0975 233.503 66.8377 220.947 83.0991 220.551" stroke="black" stroke-width="5" stroke-linecap="round"/>
<path d="M175.099 225.051C186.932 228.884 207.999 243.051 197.599 269.051C187.199 295.051 145.599 306.217 126.099 308.551" stroke="black" stroke-width="5" stroke-linecap="round"/>
<path d="M199.099 267.552C213.099 276.052 236.299 300.052 217.099 328.052C197.899 356.052 141.599 373.552 100.599 367.552C68.4416 362.846 20.8991 342.752 20.0991 301.552C20.0991 287.052 29.3991 265.552 60.5991 267.552" stroke="black" stroke-width="5" stroke-linecap="round"/>
<path d="M10.0999 286.551C-1.56676 307.884 -5.90009 355.951 70.0999 377.551C146.1 399.151 205.099 368.217 225.099 350.051C232.766 341.717 245.799 319.651 236.599 298.051" stroke="black" stroke-width="5" stroke-linecap="round"/>
<path d="M232.146 421.208L240.2 362.597C240.469 360.637 237.915 359.337 236.418 360.631C197.574 394.187 60.9931 426.697 5.81895 347.677C4.54993 345.859 1.3216 347.006 1.63879 349.2L12.0261 421.045C12.074 421.377 12.2038 421.691 12.4058 421.958C31.9152 447.765 61.9706 468.076 84.5991 473.051C154.778 488.48 220.498 443.134 231.945 421.842C232.054 421.64 232.115 421.435 232.146 421.208Z" fill="black"/>
</svg>
