<svg width="295" height="399" viewBox="0 0 295 399" fill="none" xmlns="http://www.w3.org/2000/svg">
<ellipse cx="148.099" cy="390.309" rx="101" ry="8" fill="black"/>
<path d="M232.011 279.074C208.657 303.591 179.957 322.754 147.599 334.309C64.3128 304.719 4.09912 224.966 4.09912 131.687V51.9346L147.599 4.30859L291.099 51.9346V131.405C291.099 160.15 285.19 187.767 274.78 213.13C275.061 213.13 256.772 256.811 232.011 279.074Z" stroke="black" stroke-width="7" stroke-miterlimit="10" stroke-linecap="round" stroke-linejoin="round"/>
<path d="M118.099 118.309V103.121C118.099 86.8086 131.179 73.3086 147.599 73.3086C163.741 73.3086 177.099 86.5273 177.099 103.121V118.309" stroke="black" stroke-width="7" stroke-miterlimit="10" stroke-linecap="round" stroke-linejoin="round"/>
<path fill-rule="evenodd" clip-rule="evenodd" d="M89.0991 207.426C89.0991 213.933 94.4173 219.309 100.855 219.309H194.343C200.781 219.309 205.819 213.933 206.099 207.426V130.191C206.099 123.684 200.781 118.309 194.343 118.309H100.855C94.4173 118.309 89.0991 123.684 89.0991 130.191V207.426ZM168.099 169.309C168.099 180.354 158.921 189.309 147.599 189.309C136.277 189.309 127.099 180.354 127.099 169.309C127.099 158.263 136.277 149.309 147.599 149.309C158.921 149.309 168.099 158.263 168.099 169.309Z" fill="black"/>
</svg>
