<svg width="299" height="184" viewBox="0 0 299 184" fill="none" xmlns="http://www.w3.org/2000/svg">
<path d="M0.0991211 151.602C0.0989402 136.602 25.5991 123.903 37.0991 124.57C28.5991 165.6 44.9325 167.07 54.5991 168.57H181.099C181.099 169.57 182.599 183.07 171.099 183.602H63.0993C41.766 184.936 0.0994141 175.894 0.0991211 151.602Z" fill="black"/>
<path d="M277.099 61.5703V23.5703C277.099 12.5246 268.145 3.57031 257.099 3.57031H58.0991C47.0534 3.57031 38.0991 12.5246 38.0991 23.5703V148.57C38.0991 159.616 47.0534 168.57 58.0991 168.57H177.599" stroke="black" stroke-width="7" stroke-linecap="round"/>
<path d="M66.0991 126.57H114.099" stroke="black" stroke-width="7" stroke-linecap="round"/>
<path d="M130.099 126.57H137.099" stroke="black" stroke-width="7" stroke-linecap="round"/>
<rect x="41.0991" y="25.5703" width="233" height="28" fill="black"/>
<circle cx="238.099" cy="131.57" r="29" fill="black"/>
<path d="M259.163 105.559C262.011 104.594 265.067 104.07 268.247 104.07C283.665 104.07 296.163 116.382 296.163 131.57C296.163 146.758 283.665 159.07 268.247 159.07C265.067 159.07 262.011 158.547 259.163 157.582" stroke="black" stroke-width="5" stroke-linecap="round"/>
</svg>
