<svg width="722" height="397" viewBox="0 0 722 397" fill="none" xmlns="http://www.w3.org/2000/svg">
<path d="M414.374 217.009C420.61 223.261 434.579 231.714 440.566 215.508C446.553 199.302 400.655 180.745 376.958 173.492C338.725 162.611 250.978 153.441 202.717 202.569C201.859 203.442 202.01 204.871 203.081 205.462C208.394 208.395 219.68 212.735 234.774 213.257" stroke="black" stroke-width="5" stroke-linecap="round"/>
<path d="M113.479 202.666C99.8485 208.473 85.0908 211.32 71.685 211.32C51.7456 211.32 32.4817 205.854 16.8229 196.631C15.4712 195.834 14.4572 197.314 15.5838 198.339C30.0034 211.434 49.1544 219.404 70.4459 219.404C85.5414 219.404 103.115 214.508 115.282 205.513C117.197 204.032 115.394 201.755 113.479 202.666Z" fill="black"/>
<path d="M105.755 197.79C104.728 198.593 104.956 199.625 106.097 199.511C109.975 199.052 118.873 198.019 120.469 200.084C122.066 202.15 118.758 210.411 117.276 214.197C116.819 215.344 117.846 215.803 118.758 215C125.374 209.493 127.085 197.79 125.602 196.183C124.234 194.233 112.713 192.856 105.755 197.79Z" fill="black"/>
<path d="M103.142 176.551C100.585 172.71 97.7719 169.893 97.7719 162.978V140.185C97.7719 130.453 98.5386 121.49 91.3791 114.831C85.753 109.453 76.2918 107.404 69.1318 107.404C55.0676 107.404 39.7248 112.526 36.4005 129.685C36.1448 131.478 37.4234 132.502 38.4462 132.758L52.7662 134.295C54.3004 134.295 55.0676 132.758 55.3233 131.734C56.6018 125.843 61.4604 123.026 67.3418 123.026C70.4104 123.026 73.7346 124.307 75.7804 126.868C77.8261 129.941 77.5704 134.039 77.5704 137.624V139.417C68.8761 140.441 57.8805 141.209 49.6976 144.539C40.4919 148.636 34.0991 156.575 34.0991 168.612C34.0991 183.978 43.5605 191.404 56.0904 191.404C66.5747 191.404 72.2003 189.1 80.3832 180.648C82.9403 184.49 83.9633 186.282 88.8219 190.38C90.1005 190.892 91.1228 190.892 92.4014 190.124C95.2147 187.563 100.84 182.953 103.653 180.393C104.42 179.368 104.165 177.832 103.142 176.551ZM74.5018 169.893C72.2003 173.99 68.6204 176.551 64.2733 176.551C58.6476 176.551 55.579 172.197 55.579 165.795C55.579 153.246 66.8304 150.941 77.5704 150.941V154.014C77.0589 160.161 77.3146 165.027 74.5018 169.893Z" fill="black"/>
<path d="M659.743 85.0351L642.478 40.074C638.518 29.7625 626.949 24.6133 616.637 28.5731L392.087 114.803C381.653 118.81 376.528 130.59 380.709 140.955L395.599 177.87M595.661 244.344L461.437 295.887C451.067 299.87 439.438 294.638 435.539 284.236L413.101 224.37" stroke="black" stroke-width="7" stroke-linecap="round"/>
<path d="M455.638 245.24L508.299 225.018" stroke="black" stroke-width="7" stroke-linecap="round"/>
<path d="M525.853 218.277L533.533 215.328" stroke="black" stroke-width="7" stroke-linecap="round"/>
<rect x="385.662" y="144.967" width="273.824" height="32.9059" transform="rotate(-21.0074 385.662 144.967)" fill="black"/>
<circle cx="646.445" cy="178.262" r="34.0811" transform="rotate(-21.0074 646.445 178.262)" fill="black"/>
<path d="M658.597 140.852C661.315 138.594 664.447 136.732 667.935 135.392C684.85 128.896 703.75 137.138 710.149 153.801C716.547 170.463 708.022 189.237 691.107 195.732C687.618 197.072 684.045 197.785 680.515 197.926" stroke="black" stroke-width="5" stroke-linecap="round"/>
<path d="M296.599 364.404C300.999 362.404 363.432 337.238 394.099 324.904" stroke="black" stroke-width="5" stroke-linecap="round"/>
<path d="M281.099 140.904L325.599 125.904" stroke="black" stroke-width="5" stroke-linecap="round"/>
<path d="M243.099 348.871V355.871" stroke="black" stroke-width="7" stroke-linecap="round"/>
<path d="M243.099 300.871V293.871" stroke="black" stroke-width="7" stroke-linecap="round"/>
<path d="M257.099 304.133C253.679 302.438 248.486 300.853 243.631 300.871C237.779 300.893 232.417 303.245 231.239 310.541C229.685 320.164 241.463 323.618 248.479 327.095C258.177 331.902 258.089 340.912 252.25 345.252C249.624 347.204 246.643 348.275 243.631 348.68C239.227 349.272 234.758 348.44 231.239 346.854" stroke="black" stroke-width="7" stroke-linecap="round"/>
<path d="M176.599 302.404L256.599 270.404" stroke="black" stroke-width="5" stroke-linecap="round"/>
<path d="M14.1401 300.491L3.36608 378.831C3.21776 379.909 3.95916 380.908 5.0343 381.079L86.7781 394.036C87.9951 394.229 89.0954 393.286 89.0912 392.054L88.7145 280.065C88.71 278.734 87.4298 277.778 86.1519 278.153L15.5589 298.844C14.8029 299.066 14.2475 299.711 14.1401 300.491Z" stroke="black" stroke-width="5"/>
<path d="M97.4417 284.747L89.8062 277.111C89.1763 276.481 88.0991 276.928 88.0991 277.819V395.184C88.0991 395.816 88.6764 396.289 89.2952 396.165L106.221 392.78C106.721 392.68 107.066 392.22 107.021 391.712L97.7308 285.367C97.7103 285.133 97.608 284.913 97.4417 284.747Z" fill="black"/>
<path d="M98.0991 286.404H108.465C109.452 286.404 110.292 287.125 110.442 288.101L125.752 387.752C125.936 388.948 125.024 390.031 123.814 390.055L105.962 390.404" stroke="black" stroke-width="5" stroke-linecap="round"/>
<path d="M50.0991 288.404C51.8325 280.446 58.3791 264.926 70.6991 266.518C77.2991 267.37 81.0991 275.074 81.0991 278.854" stroke="black" stroke-width="5" stroke-linecap="round"/>
<path d="M34.0991 293.404C35.9735 284.256 43.3676 264.363 57.1733 263.429C66.8684 262.774 70.1647 275.081 68.8074 283.256" stroke="black" stroke-width="5" stroke-linecap="round"/>
<path d="M285.099 198.871C282.861 198.871 240.972 200.319 217.238 235.285C216.606 236.217 216.889 237.492 217.897 237.992C227.034 242.52 248.475 247.226 274.484 235.515" stroke="black" stroke-width="5" stroke-linecap="round"/>
<path d="M321.099 203.871C305.155 210.007 271.768 229.223 261.969 258.063C261.515 259.399 262.609 260.697 263.998 260.448C273.084 258.823 292.089 253.121 314.264 239.591" stroke="black" stroke-width="5" stroke-linecap="round"/>
<path d="M345.286 213.871C335.349 222.727 314.137 245.502 305.306 268.491C304.743 269.954 306.064 271.387 307.576 270.977C320.001 267.604 341.342 260.082 349.099 250.78" stroke="black" stroke-width="5" stroke-linecap="round"/>
<path d="M362.757 230.43C355.126 240.533 340.132 260.973 334.094 271.178C333.237 272.627 334.524 274.228 336.138 273.751C358.917 267.021 401.025 248.061 415.099 216.871" stroke="black" stroke-width="5" stroke-linecap="round"/>
<path d="M414.099 203.871C395.72 193.509 347.189 173.94 300.099 178.567" stroke="black" stroke-width="5" stroke-linecap="round"/>
<path d="M473.047 82.2912C454.932 52.3694 405.749 1.81962 352.265 35.3723C351.123 36.0884 351.021 37.7285 352.07 38.5745L369.841 52.9087" stroke="black" stroke-width="5" stroke-linecap="round"/>
<path d="M400.578 65.1225C394.576 60.8253 379.016 54.1934 362.675 60.0389C361.327 60.5211 361.032 62.2458 362.078 63.2229L371.994 72.4817" stroke="black" stroke-width="5" stroke-linecap="round"/>
<path d="M407.944 82.1823C400.58 77.2179 382.189 69.9035 365.337 78.4291C364.153 79.0281 363.98 80.6128 364.947 81.5208L377.195 93.0157" stroke="black" stroke-width="5" stroke-linecap="round"/>
<path d="M412.618 95.4485C402.934 92.1005 379.965 88.677 363.169 100.625C362.194 101.319 362.123 102.718 362.974 103.559L380.088 120.465" stroke="black" stroke-width="5" stroke-linecap="round"/>
</svg>
