<svg width="375" height="429" viewBox="0 0 375 429" fill="none" xmlns="http://www.w3.org/2000/svg">
<path d="M255 254.48L227 227.48" stroke="black" stroke-width="7" stroke-linecap="round"/>
<path d="M237.71 54.9805C254.877 77.075 265.099 104.834 265.099 134.98C265.099 207.054 206.672 265.48 134.599 265.48C62.526 265.48 4.09912 207.054 4.09912 134.98C4.09912 62.9073 62.526 4.48047 134.599 4.48047C160.954 4.48047 185.484 12.2928 206 25.728" stroke="black" stroke-width="7" stroke-linecap="round"/>
<rect x="271.015" y="222.48" width="137.404" height="73.2425" rx="36.6212" transform="rotate(40.8596 271.015 222.48)" fill="black"/>
<ellipse cx="133.599" cy="404.98" rx="121.5" ry="23.5" fill="black"/>
<path d="M112.099 189.48C121.45 177.652 141.671 172.225 157.099 189.48" stroke="black" stroke-width="7" stroke-linecap="round"/>
<ellipse cx="97.0991" cy="117.48" rx="9" ry="12" fill="black"/>
<ellipse cx="173.099" cy="118.48" rx="9" ry="12" fill="black"/>
<path d="M194.829 148.195C190.037 149.473 189.604 143.606 190.218 138.645C190.408 137.108 192.228 136.565 193.239 137.739C196.61 141.654 199.655 146.908 194.829 148.195Z" fill="black"/>
</svg>
