<svg width="436" height="399" viewBox="0 0 436 399" fill="none" xmlns="http://www.w3.org/2000/svg">
<path d="M72.2529 317.84C67.4798 331.155 65.7154 360.74 96.8417 372.571" stroke="black" stroke-width="5" stroke-linecap="round"/>
<path d="M376.005 181.371C389.129 186.644 412.42 204.973 400.594 236.101" stroke="black" stroke-width="5" stroke-linecap="round"/>
<path d="M49.5941 313.767C44.1283 331.063 43.5249 370.967 84.8381 392.214" stroke="black" stroke-width="5" stroke-linecap="round"/>
<path d="M385.272 162.955C401.833 170.355 432.068 196.405 420.516 241.402" stroke="black" stroke-width="5" stroke-linecap="round"/>
<path d="M266.024 345.057C285.437 336.335 294.894 314.563 288.694 294.745C287.869 292.11 284.877 290.988 282.358 292.12L215.599 322.113C213.08 323.245 211.931 326.227 213.354 328.593C224.053 346.39 246.611 353.779 266.024 345.057Z" fill="black"/>
<path d="M126.864 36.7719C117.139 41.141 111.744 51.1857 112.832 61.2408C113.217 64.8017 117.561 65.6224 120.393 63.4292C129.768 56.1683 142.076 51.628 150.939 49.7804C154.489 49.0403 156.816 45.0709 154.36 42.4028C147.555 35.01 136.533 32.4277 126.864 36.7719Z" fill="black"/>
<path d="M295.13 135.535C299.013 144.179 300.349 148.488 307.735 164.926C316.364 184.134 323.224 192.988 357.776 204.803C378.318 211.827 383.095 231.348 369.673 240.12C369.65 240.135 369.625 240.149 369.6 240.16L117.994 353.2C117.949 353.22 117.902 353.234 117.854 353.241C104.101 355.304 88.7759 341.897 99.3826 320.893C110.008 299.851 112.43 278.429 103.916 256.497C97.4615 239.872 81.785 202.273 75.8375 185.062C56.8544 116.59 109.215 75.6236 137.768 63.6991C168.954 49.6881 195.25 49.623 204.499 51.3418C228.372 53.8179 245.518 63.2549 258.767 76.5352" stroke="black" stroke-width="5" stroke-linecap="round"/>
<path d="M203.582 97.1094L342.005 73.5963C342.992 73.4286 343.586 74.6546 342.842 75.3249L278.332 133.475C278.258 133.542 278.181 133.595 278.089 133.633C272.478 135.945 250.372 127.194 238.959 122.065C238.398 121.812 237.743 122.119 237.576 122.711C234.847 132.355 231.501 141.307 229.865 145.33C229.688 145.765 229.206 146.019 228.849 145.713C225.534 142.869 225.111 124.692 225.35 114.634C225.362 114.121 224.986 113.685 224.48 113.594C216.005 112.084 204.337 104.523 199.412 100.807" stroke="black" stroke-width="5" stroke-linecap="round"/>
<path d="M238.422 122.068C252.935 115.181 289.649 97.9315 320.405 84.0311" stroke="black" stroke-width="5" stroke-linecap="round"/>
<path d="M229.433 146.072L256.425 130.06" stroke="black" stroke-width="5" stroke-linecap="round"/>
<path d="M235.415 108.07L272.41 96.0535" stroke="black" stroke-width="5" stroke-linecap="round"/>
</svg>
