<svg width="310" height="340" viewBox="0 0 310 340" fill="none" xmlns="http://www.w3.org/2000/svg">
<path d="M154.692 339.933C175.975 339.933 193.524 323.949 195.989 303.331C196.317 300.589 194.047 298.34 191.286 298.34H118.099C115.338 298.34 113.068 300.589 113.395 303.331C115.861 323.949 133.41 339.933 154.692 339.933Z" fill="black"/>
<path d="M155.099 0.339844C144.438 0.339844 135.4 7.29135 132.272 16.909C131.164 20.315 134.79 22.8439 138.272 22.0038C149.799 19.2225 162.887 20.1252 171.728 22.0718C175.269 22.8516 179.019 20.1847 177.872 16.7444C174.695 7.21212 165.699 0.339844 155.099 0.339844Z" fill="black"/>
<path d="M47.7831 114.693C58.528 44.4559 123.079 28.5454 154.011 29.3698C188.199 29.3698 212.212 40.0867 219.945 45.4452C263.899 70.9398 267.564 112.54 267.564 154.263V191.36C267.564 212.418 270.193 223.305 296.869 248.243C312.728 263.068 309.085 282.832 293.248 285.333C293.22 285.338 293.192 285.34 293.164 285.34H17.3311C17.2825 285.34 17.2341 285.333 17.1873 285.32C3.79695 281.565 -4.68813 263.056 13.5949 248.243C31.91 233.404 42.8988 214.855 44.1201 191.36C45.0459 173.551 46.1551 132.829 47.7831 114.693Z" stroke="black" stroke-width="5" stroke-linecap="round"/>
</svg>
