<svg width="517" height="279" viewBox="0 0 517 279" fill="none" xmlns="http://www.w3.org/2000/svg">
<path d="M184.599 243.488C184.599 261.404 169.858 275.988 151.599 275.988C133.34 275.988 118.599 261.404 118.599 243.488C118.599 225.572 133.34 210.988 151.599 210.988C169.858 210.988 184.599 225.572 184.599 243.488Z" stroke="black" stroke-width="5"/>
<path d="M151.934 259.398L151.935 263.398" stroke="black" stroke-width="5" stroke-linecap="round"/>
<path d="M151.931 227.398L151.93 222.398" stroke="black" stroke-width="5" stroke-linecap="round"/>
<path d="M159.931 229.571C157.827 228.441 154.631 227.385 151.643 227.398C148.042 227.413 144.742 228.981 144.018 233.845C143.063 240.26 150.311 242.562 154.628 244.88C160.597 248.084 160.544 254.09 156.951 256.984C155.335 258.286 153.5 259 151.647 259.27C148.937 259.665 146.187 259.11 144.021 258.054" stroke="black" stroke-width="5" stroke-linecap="round"/>
<path d="M229.102 259.398L229.103 263.398" stroke="black" stroke-width="5" stroke-linecap="round"/>
<path d="M229.099 227.398L229.098 222.398" stroke="black" stroke-width="5" stroke-linecap="round"/>
<path d="M237.099 229.571C234.994 228.441 231.799 227.385 228.811 227.398C225.21 227.413 221.91 228.981 221.186 233.845C220.231 240.26 227.479 242.562 231.796 244.88C237.765 248.084 237.712 254.09 234.119 256.984C232.503 258.286 230.668 259 228.815 259.27C226.105 259.665 223.355 259.11 221.189 258.054" stroke="black" stroke-width="5" stroke-linecap="round"/>
<path d="M306.27 259.398L306.271 263.398" stroke="black" stroke-width="5" stroke-linecap="round"/>
<path d="M306.267 227.398L306.266 222.398" stroke="black" stroke-width="5" stroke-linecap="round"/>
<path d="M314.267 229.571C312.162 228.441 308.967 227.385 305.979 227.398C302.378 227.413 299.078 228.981 298.354 233.845C297.399 240.26 304.646 242.562 308.964 244.88C314.933 248.084 314.88 254.09 311.287 256.984C309.671 258.286 307.836 259 305.983 259.27C303.273 259.665 300.523 259.11 298.357 258.054" stroke="black" stroke-width="5" stroke-linecap="round"/>
<path d="M383.438 259.398L383.438 263.398" stroke="black" stroke-width="5" stroke-linecap="round"/>
<path d="M383.435 227.398L383.434 222.398" stroke="black" stroke-width="5" stroke-linecap="round"/>
<path d="M391.435 229.571C389.33 228.441 386.135 227.385 383.147 227.398C379.546 227.413 376.246 228.981 375.522 233.845C374.566 240.26 381.814 242.562 386.132 244.88C392.101 248.084 392.048 254.09 388.455 256.984C386.839 258.286 385.004 259 383.151 259.27C380.441 259.665 377.69 259.11 375.525 258.054" stroke="black" stroke-width="5" stroke-linecap="round"/>
<path d="M261.599 242.988C261.599 260.904 246.858 275.488 228.599 275.488C210.34 275.488 195.599 260.904 195.599 242.988C195.599 225.072 210.34 210.488 228.599 210.488C246.858 210.488 261.599 225.072 261.599 242.988Z" stroke="black" stroke-width="5"/>
<path d="M338.599 242.988C338.599 260.904 323.858 275.488 305.599 275.488C287.34 275.488 272.599 260.904 272.599 242.988C272.599 225.072 287.34 210.488 305.599 210.488C323.858 210.488 338.599 225.072 338.599 242.988Z" stroke="black" stroke-width="5"/>
<path d="M415.599 242.988C415.599 260.904 400.858 275.488 382.599 275.488C364.34 275.488 349.599 260.904 349.599 242.988C349.599 225.072 364.34 210.488 382.599 210.488C400.858 210.488 415.599 225.072 415.599 242.988Z" stroke="black" stroke-width="5"/>
<path d="M75.0991 190.488C73.0991 190.155 66.1991 186.288 54.5991 173.488" stroke="black" stroke-width="5" stroke-linecap="round"/>
<path d="M63.0991 214.988C48.7658 208.655 16.6991 188.788 3.09912 159.988" stroke="black" stroke-width="5" stroke-linecap="round"/>
<path d="M67.5991 254.988C57.7658 252.322 33.8991 241.688 17.0991 220.488" stroke="black" stroke-width="5" stroke-linecap="round"/>
<path d="M442.099 178.988C444.099 178.655 450.999 174.788 462.599 161.988" stroke="black" stroke-width="5" stroke-linecap="round"/>
<path d="M454.099 203.488C468.432 197.155 500.499 177.288 514.099 148.488" stroke="black" stroke-width="5" stroke-linecap="round"/>
<path d="M449.599 243.488C459.432 240.822 483.299 230.188 500.099 208.988" stroke="black" stroke-width="5" stroke-linecap="round"/>
<path d="M228.599 30.4883V207.988" stroke="black" stroke-width="5" stroke-linecap="round"/>
<path d="M152.099 30.9883V208.488" stroke="black" stroke-width="5" stroke-linecap="round"/>
<path d="M304.099 30.4883V207.988" stroke="black" stroke-width="5" stroke-linecap="round"/>
<path d="M382.099 30.4883V207.988" stroke="black" stroke-width="5" stroke-linecap="round"/>
<path d="M95.0991 0.488281H402.099C418.668 0.488281 432.099 13.9197 432.099 30.4883V31.4883H125.099C108.531 31.4883 95.0991 18.0568 95.0991 1.48828V0.488281Z" fill="black"/>
</svg>
