<svg width="927" height="583" viewBox="0 0 927 583" fill="none" xmlns="http://www.w3.org/2000/svg">
<path d="M472.598 15.9973L562.124 124.159C562.762 124.931 561.996 126.057 561.044 125.748L478.442 98.9184C478.347 98.8877 478.262 98.8477 478.184 98.787C473.377 95.0812 469.914 71.56 468.655 59.1109C468.593 58.4988 468.001 58.0843 467.404 58.235C457.686 60.6895 448.26 62.2633 443.958 62.8566C443.493 62.9207 443.032 62.6295 443.119 62.1681C443.927 57.8754 459.461 48.4274 468.293 43.6093C468.743 43.3633 468.933 42.8199 468.759 42.3368C465.833 34.2402 466.553 20.3552 467.311 14.2328" stroke="black" stroke-width="5" stroke-linecap="round"/>
<path d="M468.384 58.6475C481.6 67.7784 514.886 90.9644 542.293 110.662" stroke="black" stroke-width="5" stroke-linecap="round"/>
<path d="M443.099 62.8525L470.455 78.2352" stroke="black" stroke-width="5" stroke-linecap="round"/>
<path d="M479.008 49.0488L507.9 75.0918" stroke="black" stroke-width="5" stroke-linecap="round"/>
<path d="M588.099 545.872H837.599C838.704 545.872 839.599 544.977 839.599 543.872V289.372" stroke="black" stroke-width="5" stroke-linecap="round"/>
<path d="M154.162 353.117L145.867 413.33C145.718 414.409 146.46 415.408 147.535 415.578L210.279 425.508C211.495 425.7 212.595 424.758 212.591 423.526L212.301 337.535C212.297 336.203 211.017 335.248 209.74 335.622L155.581 351.47C154.825 351.691 154.269 352.336 154.162 353.117Z" stroke="black" stroke-width="5"/>
<path d="M219 339.875L213 333.875V427.375L226.5 424.375L219 339.875Z" fill="black"/>
<path d="M218.599 341.875H226.825C227.805 341.875 228.64 342.585 228.799 343.551L241.225 419.291C241.422 420.494 240.507 421.592 239.288 421.614L225.058 421.875" stroke="black" stroke-width="5" stroke-linecap="round"/>
<path d="M181.599 343.875C182.997 337.725 188.277 325.733 198.212 326.963C203.535 327.622 206.599 333.574 206.599 336.495" stroke="black" stroke-width="5" stroke-linecap="round"/>
<path d="M169.599 346.875C171.045 339.861 176.749 324.61 187.399 323.894C194.878 323.392 197.421 332.827 196.374 339.095" stroke="black" stroke-width="5" stroke-linecap="round"/>
<path d="M254.599 363.371C367.099 376.372 254.599 63.3716 416.599 56.873" stroke="black" stroke-width="5" stroke-linecap="round" stroke-dasharray="10 17"/>
<path d="M522.099 429.231V477.324C522.099 477.683 522.196 478.035 522.379 478.344L543.879 514.599C544.916 516.348 547.599 515.612 547.599 513.579V457.055C547.599 456.612 547.452 456.182 547.182 455.832L525.682 428.008C524.515 426.499 522.099 427.324 522.099 429.231Z" fill="black"/>
<path d="M566.099 288.872V545.405C566.099 547.452 563.39 548.177 562.367 546.405L508.367 452.836C508.191 452.532 508.099 452.187 508.099 451.836V259.372" stroke="black" stroke-width="5" stroke-linecap="round"/>
<path d="M624.086 246.726L566.731 286.328C565.131 287.434 565.89 289.942 567.835 289.974L836.331 294.36C836.825 294.368 837.305 294.192 837.678 293.867L888.081 249.879C889.473 248.664 888.614 246.372 886.766 246.372H625.223C624.817 246.372 624.42 246.496 624.086 246.726Z" fill="black"/>
<path d="M482.158 246.662L565.571 289.982C567.38 290.921 569.271 288.869 568.186 287.143L509.825 194.231C509.676 193.994 509.479 193.791 509.247 193.635L430.638 140.77C428.917 139.612 426.789 141.517 427.75 143.356L481.307 245.814C481.497 246.177 481.794 246.473 482.158 246.662Z" fill="black"/>
<path d="M563.599 93.8721H722.702C723.541 93.8721 724.291 94.3957 724.58 95.1833L759.613 190.683C760.092 191.989 759.125 193.372 757.735 193.372H511.003C510.16 193.372 509.408 192.844 509.122 192.052L486.099 128.372" stroke="black" stroke-width="5" stroke-linecap="round"/>
<path d="M800.099 241.372L760.767 194.27C760.105 193.478 760.155 192.312 760.883 191.579L827.203 124.778C827.976 123.999 829.232 123.989 830.018 124.754L923.017 215.332C923.865 216.157 923.815 217.533 922.91 218.294L905.599 232.872" stroke="black" stroke-width="5" stroke-linecap="round"/>
<path d="M291.599 302.372H67.0991C65.9945 302.372 65.0991 303.268 65.0991 304.372V444.872C65.0991 445.977 65.9946 446.872 67.0991 446.872H323.099C324.204 446.872 325.099 445.977 325.099 444.872V314.372" stroke="black" stroke-width="5" stroke-linecap="round"/>
<path d="M286.099 276.872H94.0991L41.5991 276.872C40.4946 276.872 39.5991 277.767 39.5991 278.872V467.872C39.5991 468.977 40.4946 469.872 41.5991 469.872H348.599C349.704 469.872 350.599 468.977 350.599 467.872V278.872C350.599 277.768 349.704 276.872 348.599 276.872H337.599" stroke="black" stroke-width="5" stroke-linecap="round"/>
<path d="M40.0991 468.372L3.22543 558.616C2.68785 559.931 3.65559 561.372 5.07684 561.372H381.253C382.638 561.372 383.604 559.998 383.135 558.694L350.599 468.372" stroke="black" stroke-width="5" stroke-linecap="round"/>
<path d="M106.099 493.372L284.599 492.372" stroke="black" stroke-width="5" stroke-linecap="round"/>
<path d="M77.5991 513.372L314.099 514.372" stroke="black" stroke-width="5" stroke-linecap="round"/>
<path d="M3.09912 560.872V577.872C3.09912 578.977 3.99455 579.872 5.09912 579.872H359.599" stroke="black" stroke-width="5" stroke-linecap="round"/>
<path d="M151.091 528.615C151.398 527.863 152.13 527.372 152.942 527.372H235.838C236.608 527.372 237.311 527.815 237.643 528.511L246.233 546.511C246.867 547.838 245.899 549.372 244.428 549.372H145.578C144.157 549.372 143.189 547.931 143.727 546.615L151.091 528.615Z" fill="black"/>
<path fill-rule="evenodd" clip-rule="evenodd" d="M193.099 254.372C229.274 254.372 258.599 225.047 258.599 188.872C258.599 152.697 229.274 123.372 193.099 123.372C156.924 123.372 127.599 152.697 127.599 188.872C127.599 225.047 156.924 254.372 193.099 254.372ZM225.542 171.446C227.24 169.269 226.851 166.127 224.673 164.429C222.496 162.731 219.354 163.12 217.656 165.298L187.982 203.359L167.669 187.556C165.49 185.86 162.348 186.253 160.653 188.432C158.957 190.612 159.349 193.753 161.529 195.449L184.207 213.092C187.256 215.464 191.651 214.917 194.026 211.871L225.542 171.446Z" fill="black"/>
</svg>
