<svg width="449" height="438" viewBox="0 0 449 438" fill="none" xmlns="http://www.w3.org/2000/svg">
<path d="M54.5991 191.934V349.499C54.5991 350.025 55.0069 350.461 55.5319 350.496L188.027 359.429C188.075 359.432 188.123 359.432 188.171 359.428L240.599 355.434" stroke="black" stroke-width="7" stroke-linecap="round"/>
<path d="M54.5991 191.434L186.976 175.072C187.573 174.999 188.099 175.464 188.099 176.065V357.434" stroke="black" stroke-width="7" stroke-linecap="round"/>
<path d="M214.5 176.434L384.663 187.373C385.19 187.407 385.599 187.844 385.599 188.371V254.434" stroke="black" stroke-width="7" stroke-linecap="round"/>
<path d="M55.0991 350.434H5.09912C4.54684 350.434 4.09912 350.881 4.09912 351.434V410.573C4.09912 411.068 4.461 411.488 4.9503 411.562L152.45 433.761C153.055 433.852 153.599 433.383 153.599 432.772V375.434" stroke="black" stroke-width="7" stroke-linecap="round"/>
<path d="M153.099 433.934L271.599 422.934" stroke="black" stroke-width="7" stroke-linecap="round"/>
<path d="M223.099 430.934V305.934L277.099 430.934H223.099Z" fill="black" fill-opacity="0.3"/>
<path d="M373.025 370.738L295.035 208.423C294.383 207.065 295.408 205.501 296.913 205.558L332.402 206.889C333.139 206.916 333.801 207.348 334.124 208.011L412.474 368.651C412.848 369.419 412.694 370.339 412.09 370.942L396.152 386.881C395.796 387.236 395.32 387.445 394.818 387.465L363.278 388.744C361.519 388.815 360.532 386.743 361.697 385.422L372.722 372.928C373.254 372.325 373.373 371.463 373.025 370.738Z" fill="black"/>
<path d="M328.509 418.05L321.042 425.842C319.795 427.143 320.769 429.3 322.57 429.224L352.372 427.964C352.842 427.944 353.289 427.76 353.636 427.443L360.791 420.911C362.139 419.679 361.268 417.434 359.442 417.434H329.953C329.407 417.434 328.886 417.656 328.509 418.05Z" fill="black"/>
<path d="M103.599 202.687V187.185C103.599 186.182 104.341 185.335 105.335 185.202L131.335 181.736C132.534 181.576 133.599 182.508 133.599 183.718V199.653C133.599 200.668 132.839 201.522 131.831 201.64L105.831 204.673C104.643 204.812 103.599 203.883 103.599 202.687Z" fill="black"/>
<path d="M58.5991 404.189V417.22C58.5991 418.206 59.3179 419.045 60.2924 419.196L85.2924 423.076C86.5048 423.264 87.5991 422.326 87.5991 421.099V407.207C87.5991 406.195 86.8434 405.342 85.8388 405.221L60.8388 402.204C59.6478 402.06 58.5991 402.99 58.5991 404.189Z" fill="black"/>
<path d="M105.599 335.934V351.588C105.599 352.631 106.399 353.498 107.438 353.582L134.438 355.759C135.603 355.853 136.599 354.934 136.599 353.766V335.934C136.599 334.829 135.704 333.934 134.599 333.934H107.599C106.495 333.934 105.599 334.829 105.599 335.934Z" fill="black"/>
<path d="M58.5991 374.66V353.076C58.5991 351.918 59.5807 351.001 60.7367 351.081L85.7367 352.805C86.7854 352.877 87.5991 353.749 87.5991 354.8V377.678C87.5991 378.877 86.5504 379.807 85.3595 379.663L60.3595 376.646C59.3549 376.525 58.5991 375.672 58.5991 374.66Z" fill="black"/>
<path d="M277.028 430.124L204.853 264.515C204.698 264.16 204.762 263.748 205.017 263.457L256.598 204.577C257.071 204.036 257.944 204.157 258.253 204.805L338.287 372.779C338.473 373.169 338.387 373.635 338.073 373.934L278.634 430.449C278.131 430.928 277.306 430.761 277.028 430.124Z" stroke="black" stroke-width="7" stroke-linecap="round"/>
<path d="M278.599 430.934L385.729 425.951C385.968 425.94 386.195 425.843 386.369 425.68L445.157 370.264C445.83 369.63 445.356 368.501 444.432 368.537L357 371.934" stroke="black" stroke-width="7" stroke-linecap="round"/>
<path d="M257.599 203.934L361.019 207.911C361.378 207.925 361.701 208.13 361.867 208.449L445.099 368.434" stroke="black" stroke-width="7" stroke-linecap="round"/>
<path fill-rule="evenodd" clip-rule="evenodd" d="M347.099 66.4336C347.099 102.608 317.774 131.934 281.599 131.934C245.424 131.934 216.099 102.608 216.099 66.4336C216.099 30.2589 245.424 0.933594 281.599 0.933594C317.774 0.933594 347.099 30.2589 347.099 66.4336ZM309.558 36.7622C311.585 38.6368 311.71 41.8002 309.835 43.8279L288.473 66.9336L309.835 90.0393C311.71 92.067 311.585 95.2303 309.558 97.1049C307.53 98.9796 304.367 98.8555 302.492 96.8279L281.664 74.2989L260.835 96.8279C258.96 98.8555 255.797 98.9796 253.769 97.1049C251.742 95.2303 251.618 92.067 253.492 90.0393L274.854 66.9336L253.492 43.8279C251.618 41.8002 251.742 38.6368 253.769 36.7622C255.797 34.8876 258.96 35.0117 260.835 37.0393L281.664 59.5683L302.492 37.0393C304.367 35.0117 307.53 34.8876 309.558 36.7622Z" fill="black"/>
</svg>
