<svg width="259" height="288" viewBox="0 0 259 288" fill="none" xmlns="http://www.w3.org/2000/svg">
<path d="M41.0991 45.6172L25.0991 33.6172" stroke="black" stroke-width="5" stroke-linecap="round"/>
<path d="M57.0991 33.6172L37.0991 5.61719" stroke="black" stroke-width="5" stroke-linecap="round"/>
<path d="M76.0991 28.6172L68.0991 2.61719" stroke="black" stroke-width="5" stroke-linecap="round"/>
<path d="M20.8097 115.581L94.3743 189.118C95.0108 189.755 95.994 189.887 96.7765 189.443L133.672 168.471C134.471 168.017 135.476 168.165 136.109 168.831L164.182 198.331C164.833 199.016 165.874 199.151 166.678 198.656L252.689 145.746C254.094 144.882 255.881 145.993 255.729 147.635L243.099 283.54C242.994 284.672 241.966 285.489 240.838 285.336L5.02153 253.295C3.95048 253.15 3.18885 252.18 3.30174 251.105L17.4067 116.787C17.5824 115.114 19.6198 114.392 20.8097 115.581Z" stroke="black" stroke-width="5" stroke-linecap="round"/>
<path d="M26.0991 235.617L77.0991 202.617" stroke="black" stroke-width="5" stroke-linecap="round"/>
<path d="M181.099 215.617L222.099 260.617" stroke="black" stroke-width="5" stroke-linecap="round"/>
<path d="M52.0991 89.6172L18.0991 113.531L50.5537 143.617L52.0991 89.6172Z" fill="black"/>
<path d="M225.936 112.617L222.099 164.617L255.099 143.662L225.936 112.617Z" fill="black"/>
<path d="M181.099 58.6172L110.099 50.0318L149.89 26.6172L181.099 58.6172Z" fill="black"/>
<path d="M50.0991 143.969L54.6334 49.7155C54.6883 48.5737 55.6874 47.7101 56.8251 47.821L228.175 64.5243C229.248 64.6288 230.045 65.565 229.977 66.6408L223.919 162.617" stroke="black" stroke-width="5" stroke-linecap="round"/>
<path d="M70.0991 162.284L75.3528 96.718C75.4443 95.576 76.4745 94.7441 77.6102 94.8952L202.194 111.475C203.258 111.616 204.021 112.573 203.922 113.642L197.903 178.617" stroke="black" stroke-width="5" stroke-linecap="round"/>
<path d="M106.099 139.617L164.099 146.617" stroke="black" stroke-width="5" stroke-linecap="round"/>
<path d="M92.0991 161.617L171.099 170.617" stroke="black" stroke-width="5" stroke-linecap="round"/>
</svg>
