<svg width="494" height="336" viewBox="0 0 494 336" fill="none" xmlns="http://www.w3.org/2000/svg">
<path d="M72.7563 46.7263L329.704 3.20004C330.692 3.03283 331.285 4.25908 330.541 4.92907L209.845 113.626C209.772 113.692 209.695 113.745 209.604 113.785C199.338 118.253 157.499 101.547 136.767 92.1542C136.207 91.9003 135.566 92.2134 135.4 92.8059C130.191 111.382 123.658 128.715 120.707 135.885C120.529 136.319 120.06 136.58 119.649 136.353C112.971 132.671 112.219 96.9692 112.719 78.1488C112.732 77.6353 112.361 77.2097 111.854 77.1299C96.243 74.6747 74.282 60.4458 65.0991 53.5111" stroke="black" stroke-width="5" stroke-linecap="round"/>
<path d="M137.099 92.625C163.653 79.9501 230.828 48.2052 287.099 22.625" stroke="black" stroke-width="5" stroke-linecap="round"/>
<path d="M120.099 136.625L169.099 107.625" stroke="black" stroke-width="5" stroke-linecap="round"/>
<path d="M130.099 66.625L199.099 44.625" stroke="black" stroke-width="5" stroke-linecap="round"/>
<path d="M354.385 199.271L197.455 172.204C196.471 172.034 195.873 173.252 196.609 173.926L269.94 241.169C270.014 241.236 270.091 241.291 270.183 241.33C276.52 244.021 301.683 233.848 314.55 227.944C315.113 227.685 315.771 227.994 315.937 228.592C319.058 239.833 322.905 250.28 324.748 254.877C324.924 255.316 325.404 255.574 325.774 255.279C329.608 252.222 330.074 230.931 329.79 219.306C329.777 218.793 330.152 218.361 330.657 218.272C340.244 216.58 353.513 207.819 359.099 203.524" stroke="black" stroke-width="5" stroke-linecap="round"/>
<path d="M314.099 226.625C297.813 218.839 256.612 199.339 222.099 183.625" stroke="black" stroke-width="5" stroke-linecap="round"/>
<path d="M326.099 255.625L296.099 236.625" stroke="black" stroke-width="5" stroke-linecap="round"/>
<path d="M319.099 211.625L277.099 196.625" stroke="black" stroke-width="5" stroke-linecap="round"/>
<path d="M3.09912 179.625C17.8213 168.002 55.4325 142.931 88.0991 135.625" stroke="black" stroke-width="5" stroke-linecap="round"/>
<path d="M79.0991 212.625C83.8213 203.05 101.432 179.846 134.099 163.625" stroke="black" stroke-width="5" stroke-linecap="round"/>
<path d="M105.966 153.625C80.2128 164.251 24.339 197.918 6.87142 247.58C-14.963 309.658 172.304 170.403 164.748 231.642C164.748 244.225 133.044 269.827 131.997 294.558C130.986 318.454 158.871 344.891 210.099 326.436" stroke="black" stroke-width="5" stroke-linecap="round"/>
<path d="M342.89 282.139C358.319 290.476 400.44 299.384 445.489 268.324" stroke="black" stroke-width="5" stroke-linecap="round"/>
<path d="M365.741 263.023C391.461 259.183 452.576 236.217 491.269 175.075" stroke="black" stroke-width="5" stroke-linecap="round"/>
</svg>
