<svg width="472" height="613" viewBox="0 0 472 613" fill="none" xmlns="http://www.w3.org/2000/svg">
<path d="M370.359 520.953L351.359 501.953" stroke="black" stroke-width="15" stroke-linecap="round"/>
<rect x="382.144" y="498.574" width="96.8261" height="51.6126" rx="25.8063" transform="rotate(42.7654 382.144 498.574)" fill="black"/>
<path d="M23.5991 420.074C23.5991 424.378 22.8542 428.156 21.7474 430.765C21.192 432.074 20.5946 432.973 20.0587 433.507C19.533 434.031 19.2111 434.074 19.0991 434.074C18.9871 434.074 18.6653 434.031 18.1395 433.507C17.6037 432.973 17.0063 432.074 16.4508 430.765C15.344 428.156 14.5991 424.378 14.5991 420.074C14.5991 415.77 15.344 411.992 16.4508 409.383C17.0063 408.074 17.6037 407.176 18.1395 406.641C18.6653 406.117 18.9871 406.074 19.0991 406.074C19.2111 406.074 19.533 406.117 20.0587 406.641C20.5946 407.176 21.192 408.074 21.7474 409.383C22.8542 411.992 23.5991 415.77 23.5991 420.074Z" stroke="black" stroke-width="5"/>
<path d="M324.099 268.074C310.499 260.874 261.932 257.908 248.599 257.574C248.598 260.074 251.099 264.574 253.599 267.074C268.599 266.574 313.099 273.074 323.099 273.074L324.099 268.074Z" fill="black"/>
<path d="M321.491 263.503C303.815 254.841 268.23 251.469 249.169 250.7C246.918 250.609 244.877 252.135 245.278 254.352C246.034 258.529 249.033 263.457 251.303 266.722C252.229 268.054 253.768 268.783 255.391 268.775C271.385 268.697 299.771 271.616 319.164 274.09C323.429 274.635 326.426 269.916 324.085 266.31L323.351 265.18C322.886 264.464 322.258 263.878 321.491 263.503Z" stroke="black" stroke-width="5"/>
<path d="M411.099 321.075C419.932 321.575 438.499 318.475 442.099 302.075C445.699 285.675 440.932 285.242 438.099 287.075C436.02 288.421 435.099 292.075 441.099 300.075" stroke="black" stroke-width="5" stroke-linecap="round"/>
<path d="M451.599 308.574C454.599 308.241 459.099 305.249 459.099 295.574C459.099 281.574 467.599 294.575 467.599 303.075C467.599 310.074 460.099 318.074 449.599 315.574" stroke="black" stroke-width="5" stroke-linecap="round"/>
<path d="M417.599 332.08C428.932 334.08 454.299 325.575 453.099 289.575C452.749 279.073 443.099 274.575 434.599 278.576C424.599 284.075 428.699 302.078 437.099 308.078" stroke="black" stroke-width="5" stroke-linecap="round"/>
<path d="M57.5991 420.574C57.5991 434.859 54.3164 447.669 49.1367 456.819C43.9144 466.045 37.087 471.074 30.0991 471.074C23.1112 471.074 16.2838 466.045 11.0616 456.819C5.88188 447.669 2.59912 434.859 2.59912 420.574C2.59912 406.289 5.88188 393.48 11.0616 384.329C16.2838 375.103 23.1112 370.074 30.0991 370.074C37.087 370.074 43.9144 375.103 49.1367 384.329C54.3164 393.48 57.5991 406.289 57.5991 420.574Z" stroke="black" stroke-width="5"/>
<path d="M41.5991 426.074C41.5991 430.378 40.8542 434.156 39.7474 436.765C39.192 438.074 38.5946 438.973 38.0587 439.507C37.533 440.031 37.2111 440.074 37.0991 440.074C36.9871 440.074 36.6653 440.031 36.1395 439.507C35.6037 438.973 35.0063 438.074 34.4508 436.765C33.344 434.156 32.5991 430.378 32.5991 426.074C32.5991 421.77 33.344 417.992 34.4508 415.383C35.0063 414.074 35.6037 413.176 36.1395 412.641C36.6653 412.117 36.9871 412.074 37.0991 412.074C37.2111 412.074 37.533 412.117 38.0587 412.641C38.5946 413.176 39.192 414.074 39.7474 415.383C40.8542 417.992 41.5991 421.77 41.5991 426.074Z" stroke="black" stroke-width="5"/>
<path d="M91.0991 389.574C96.5991 402.408 103.999 435.174 89.5991 463.574" stroke="black" stroke-width="5" stroke-linecap="round"/>
<path d="M79.5991 367.574L33.0991 370.074" stroke="black" stroke-width="5" stroke-linecap="round"/>
<path d="M26.0991 470.574C31.0991 473.408 44.5991 480.074 60.5991 480.074C76.5991 480.074 83.2658 480.741 84.5991 481.074" stroke="black" stroke-width="5" stroke-linecap="round"/>
<path d="M58.0991 480.574C64.5991 493.574 84.7991 523.774 113.599 540.574" stroke="black" stroke-width="5" stroke-linecap="round"/>
<path d="M102.099 533.574C101.599 551.741 103.399 590.474 114.599 600.074C125.799 609.674 154.266 604.074 167.099 600.074" stroke="black" stroke-width="5" stroke-linecap="round"/>
<path d="M160.599 544.074C159.433 563.408 160.899 603.174 176.099 607.574C191.299 611.974 217.099 609.408 228.099 607.574C229.766 607.574 233.799 605.374 236.599 596.574C239.399 587.774 242.099 558.908 243.099 545.574" stroke="black" stroke-width="5" stroke-linecap="round"/>
<path d="M133.099 550.074C138.099 553.074 149.199 558.574 159.599 556.574" stroke="black" stroke-width="5" stroke-linecap="round"/>
<path d="M241.099 568.574C258.932 570.074 298.399 570.874 317.599 560.074" stroke="black" stroke-width="5" stroke-linecap="round"/>
<path d="M284.099 569.074C285.266 576.408 289.099 590.574 295.099 592.574C302.599 595.074 321.599 597.074 326.599 592.074" stroke="black" stroke-width="5" stroke-linecap="round"/>
<path d="M317.599 549.574C318.432 565.408 322.999 597.474 334.599 599.074C349.099 601.074 371.599 601.574 386.599 588.074C398.599 577.274 396.599 538.241 394.099 520.074" stroke="black" stroke-width="5" stroke-linecap="round"/>
<path d="M395.599 532.575C420.266 503.075 459.299 422.175 418.099 334.575C376.899 246.975 271.932 236.409 224.599 242.075" stroke="black" stroke-width="5" stroke-linecap="round"/>
<path d="M200.099 245.074C165.766 252.074 92.0991 284.774 60.0991 367.574" stroke="black" stroke-width="5" stroke-linecap="round"/>
<circle cx="132.099" cy="341.574" r="15" fill="black"/>
<ellipse cx="85.5991" cy="322.574" rx="12.5" ry="13" fill="black"/>
<path d="M132.598 268.075C129.931 261.742 126.398 249.941 127.598 243.941" stroke="black" stroke-width="5" stroke-linecap="round"/>
<path d="M126.099 233.941C126.599 231.774 128.999 229.141 134.599 235.941C140.199 242.741 147.599 253.441 150.599 257.94" stroke="black" stroke-width="5" stroke-linecap="round"/>
<path d="M124.098 282.073C118.931 264.073 111.698 226.873 124.098 222.073C136.498 217.273 158.265 242.073 167.598 255.073" stroke="black" stroke-width="5" stroke-linecap="round"/>
<path d="M173.599 285.075C185.099 264.075 210.699 225.575 221.099 239.575C231.499 253.575 230.766 302.742 229.099 325.575" stroke="black" stroke-width="5" stroke-linecap="round"/>
<path d="M212.599 309.574C217.266 295.741 223.799 265.974 212.599 257.574C209.266 255.241 199.699 258.174 188.099 288.574" stroke="black" stroke-width="5" stroke-linecap="round"/>
<rect x="217.599" y="424.074" width="57" height="15" rx="7.5" stroke="black" stroke-width="5"/>
<rect x="226.599" y="444.074" width="56" height="15" rx="7.5" stroke="black" stroke-width="5"/>
<rect x="217.599" y="464.074" width="57" height="15" rx="7.5" stroke="black" stroke-width="5"/>
<rect x="277.599" y="464.074" width="57" height="15" rx="7.5" stroke="black" stroke-width="5"/>
<rect x="287.599" y="447.074" width="56" height="14" rx="7" stroke="black" stroke-width="5"/>
<rect x="278.599" y="428.074" width="57" height="15" rx="7.5" stroke="black" stroke-width="5"/>
<rect x="268.599" y="408.074" width="56" height="15" rx="7.5" stroke="black" stroke-width="5"/>
<rect x="274.599" y="388.074" width="56" height="15" rx="7.5" stroke="black" stroke-width="5"/>
<path d="M357.195 480.697H204.695C212.361 496.531 238.595 527.597 282.195 525.197C325.795 522.797 350.361 494.531 357.195 480.697Z" fill="black"/>
<circle cx="281.099" cy="433.574" r="92.5" fill="black" fill-opacity="0.1" stroke="black" stroke-width="15"/>
<path d="M289.599 188.574L291.576 192.097" stroke="black" stroke-width="5" stroke-linecap="round"/>
<path d="M275.709 164.097L273.732 160.574" stroke="black" stroke-width="5" stroke-linecap="round"/>
<path d="M280.736 163.426C279.178 163.183 277.09 163.309 275.561 164.179C273.717 165.229 272.684 167.359 274.364 171.227C276.581 176.328 281.276 175.971 284.473 176.47C288.891 177.16 291.399 181.693 290.774 184.906C290.494 186.351 289.853 187.417 289.014 188.154C287.789 189.232 286.142 189.607 284.583 189.436" stroke="black" stroke-width="5" stroke-linecap="round"/>
<path d="M468.598 83.0742C440.265 88.5742 376.898 105.574 350.098 129.574C316.598 159.574 301.099 170.074 294.099 160.574C287.099 151.074 302.448 131.763 311.098 122.574C319.099 114.074 310.599 86.5742 286.099 91.5742C261.599 96.5742 247.599 103.074 252.099 119.074C256.599 135.074 271.599 166.074 257.099 178.074C242.599 190.074 213.599 118.574 214.599 113.074C215.599 107.574 228.099 79.0742 257.099 62.5742" stroke="black" stroke-width="5" stroke-linecap="round"/>
<path d="M226.599 90.0742C205.432 104.241 167.4 127.074 160.6 121.074C152.1 113.574 163.6 95.5742 189.6 76.5742C210.4 61.3742 226.933 55.9076 232.6 55.0742" stroke="black" stroke-width="5" stroke-linecap="round"/>
<path d="M194.099 72.5742C179.432 71.5742 150.099 66.7742 150.099 55.5742C150.099 41.5742 205.099 50.5742 238.099 45.0742" stroke="black" stroke-width="5" stroke-linecap="round"/>
<path d="M180.099 46.5745C174.932 41.4078 170.599 31.9745 194.599 35.5745C224.599 40.0745 239.599 52.0747 307.599 46.5745C361.999 42.1743 403.932 15.4076 418.099 2.57422" stroke="black" stroke-width="5" stroke-linecap="round"/>
<path d="M296.413 169.64C300.886 178.954 303.201 188.086 303.41 195.26C303.516 198.85 303.09 201.829 302.242 204.064C301.4 206.281 300.205 207.624 298.813 208.293C297.421 208.961 295.625 209.055 293.368 208.326C291.094 207.591 288.503 206.061 285.766 203.734C280.298 199.086 274.617 191.571 270.144 182.257C265.67 172.944 263.356 163.811 263.146 156.638C263.041 153.048 263.466 150.068 264.315 147.834C265.156 145.617 266.352 144.273 267.744 143.605C269.136 142.936 270.931 142.843 273.188 143.572C275.462 144.307 278.054 145.837 280.79 148.163C286.258 152.811 291.94 160.326 296.413 169.64Z" stroke="black" stroke-width="5"/>
</svg>
