<svg width="386" height="363" viewBox="0 0 386 363" fill="none" xmlns="http://www.w3.org/2000/svg">
<path d="M154.162 133.056L145.867 193.27C145.718 194.348 146.46 195.348 147.535 195.518L210.279 205.447C211.495 205.64 212.595 204.697 212.591 203.465L212.301 117.474C212.297 116.143 211.017 115.188 209.74 115.561L155.581 131.41C154.825 131.631 154.269 132.276 154.162 133.056Z" stroke="black" stroke-width="5"/>
<path d="M219 119.814L213 113.814V207.314L226.5 204.314L219 119.814Z" fill="black"/>
<path d="M218.599 121.814H226.825C227.805 121.814 228.64 122.524 228.799 123.491L241.225 199.23C241.422 200.433 240.507 201.531 239.288 201.554L225.058 201.814" stroke="black" stroke-width="5" stroke-linecap="round"/>
<path d="M181.599 123.814C182.997 117.665 188.277 105.672 198.212 106.902C203.535 107.561 206.599 113.513 206.599 116.435" stroke="black" stroke-width="5" stroke-linecap="round"/>
<path d="M169.599 126.814C171.045 119.801 176.749 104.55 187.399 103.834C194.878 103.331 197.421 112.767 196.374 119.034" stroke="black" stroke-width="5" stroke-linecap="round"/>
<path d="M65.5986 95.9184L65.5986 225.94C65.5986 227.045 66.4941 227.94 67.5986 227.94H323.599C324.703 227.94 325.599 227.045 325.599 225.94V94.9404" stroke="black" stroke-width="5" stroke-linecap="round"/>
<path d="M350.599 90.4404V247.94C350.599 249.045 349.703 249.94 348.599 249.94H41.5986C40.4941 249.94 39.5986 249.045 39.5986 247.94L39.5986 93.4404" stroke="black" stroke-width="5" stroke-linecap="round"/>
<path d="M40.0991 248.312L3.22543 338.556C2.68785 339.872 3.65559 341.312 5.07684 341.312H381.253C382.638 341.312 383.604 339.938 383.135 338.635L350.599 248.312" stroke="black" stroke-width="5" stroke-linecap="round"/>
<path d="M106.099 273.312L284.599 272.312" stroke="black" stroke-width="5" stroke-linecap="round"/>
<path d="M77.5991 293.312L314.099 294.313" stroke="black" stroke-width="5" stroke-linecap="round"/>
<path d="M3.09912 340.812V357.812C3.09912 358.917 3.99455 359.812 5.09912 359.812H359.599" stroke="black" stroke-width="5" stroke-linecap="round"/>
<path d="M151.091 308.555C151.398 307.804 152.13 307.312 152.942 307.312H235.838C236.608 307.312 237.311 307.755 237.643 308.451L246.233 326.451C246.867 327.778 245.899 329.312 244.428 329.312H145.578C144.157 329.312 143.189 327.871 143.727 326.555L151.091 308.555Z" fill="black"/>
<path d="M194.568 25.4548L193.098 74.0684V90.3792C193.098 90.7941 192.844 91.1657 192.455 91.3098C161.587 102.745 118.562 95.6515 113.356 91.3149C113.168 91.1587 113.098 90.9336 113.098 90.6895L113.099 72.1106C113.099 71.998 113.118 71.8861 113.155 71.7798L129.86 24.1207C130.003 23.7145 130.389 23.4449 130.819 23.4516L193.584 24.4247C194.142 24.4333 194.585 24.897 194.568 25.4548Z" fill="black"/>
<path d="M128.636 27.269L113.154 71.7809C113.117 71.8865 113.098 71.9975 113.098 72.1094V88.2361C113.098 88.6585 112.836 89.0349 112.437 89.1738C80.5846 100.258 36.1113 93.509 30.8567 89.1856C30.6682 89.0305 30.5986 88.8057 30.5986 88.5616V72.2459C30.5986 72.0468 30.6581 71.8522 30.7694 71.6871L61.3013 26.3816C61.4872 26.1058 61.798 25.9404 62.1306 25.9404H127.692C128.38 25.9404 128.862 26.6191 128.636 27.269Z" stroke="black" stroke-width="5" stroke-linecap="round"/>
<path d="M337.866 25.0238L359.507 72.242C359.567 72.3728 359.598 72.5149 359.598 72.6587V86.6541C359.598 86.9194 359.5 87.1686 359.308 87.3508C344.593 101.265 288.543 97.1847 280.953 92.3254C280.703 92.1653 280.598 91.8968 280.598 91.6V72.5384C280.598 72.4733 280.592 72.4082 280.579 72.3443L271.335 25.6346C271.213 25.0163 271.686 24.4404 272.316 24.4404H336.957C337.348 24.4404 337.703 24.6683 337.866 25.0238Z" fill="black"/>
<path d="M270.273 26.7229L279.574 68.4609C279.59 68.5323 279.598 68.6053 279.598 68.6784V89.3999C279.598 89.8045 279.361 90.1675 278.985 90.3177C250.412 101.747 200.773 94.6441 195.356 90.3091C195.166 90.1566 195.099 89.9336 195.099 89.6895V71.9404L196.077 26.9187C196.089 26.375 196.533 25.9404 197.077 25.9404H269.296C269.765 25.9404 270.171 26.2657 270.273 26.7229Z" stroke="black" stroke-width="5" stroke-linecap="round"/>
<path d="M58.5986 10.9404C58.5986 5.41758 63.0758 0.94043 68.5986 0.94043H327.599C333.121 0.94043 337.599 5.41758 337.599 10.9404V24.9404H58.5986V10.9404Z" fill="black"/>
</svg>
