<svg width="384" height="337" viewBox="0 0 384 337" fill="none" xmlns="http://www.w3.org/2000/svg">
<path d="M331.099 269.797L318.099 257.797" stroke="black" stroke-width="7" stroke-linecap="round"/>
<path d="M323.031 182.048C330.595 191.783 335.099 204.014 335.099 217.297C335.099 249.053 309.355 274.797 277.599 274.797C245.843 274.797 220.099 249.053 220.099 217.297C220.099 185.541 245.843 159.797 277.599 159.797C289.211 159.797 300.019 163.239 309.059 169.159" stroke="black" stroke-width="7" stroke-linecap="round"/>
<rect x="337.656" y="255.809" width="60.5163" height="32.2578" rx="16.1289" transform="rotate(40.8596 337.656 255.809)" fill="black"/>
<path d="M105.533 320.765C88.0977 247.777 61.6346 101.708 91.8829 88.4226C93.2575 87.8206 94.7557 87.4275 96.1443 86.8492L211.122 38.8703" stroke="black" stroke-width="5" stroke-linecap="round"/>
<path d="M103.452 102.142C90.4519 126.624 110.655 229.845 126.964 297.7C130.511 312.492 146.613 320.245 160.602 314.164L237.599 283.798" stroke="black" stroke-width="5" stroke-linecap="round"/>
<path d="M126.359 103.617C131.632 97.1989 137.082 74.5404 124.84 62.9563C122.731 60.9374 120.073 59.2593 116.785 58.0595C94.5847 49.9418 80.4229 77.5207 93.7755 87.0111" stroke="black" stroke-width="5" stroke-linecap="round"/>
<path d="M124.497 61.9476C126.389 49.5118 142.53 36.5238 161.989 47.3078C182.898 62.0878 172.393 83.8224 162.86 91.4053" stroke="black" stroke-width="5" stroke-linecap="round"/>
<path d="M162.871 46.2395C166.837 36.436 181.795 17.5319 201.529 25.3026C228.032 39.7617 212.775 68.2461 201.683 71.892" stroke="black" stroke-width="5" stroke-linecap="round"/>
<path d="M201.305 23.9493C207.33 13.0602 222.365 2.53546 237.047 12.9454C251.73 23.3576 247.072 50.9492 232.151 59.7818" stroke="black" stroke-width="5" stroke-linecap="round"/>
<path d="M164.786 140.297C187.123 133.797 202.994 130.397 219.786 114.797" stroke="black" stroke-width="5" stroke-linecap="round"/>
<path d="M173.286 175.797C194.133 172.554 211.543 164.932 230.786 157.797" stroke="black" stroke-width="5" stroke-linecap="round"/>
<path d="M180.099 212.297L202.599 206.297" stroke="black" stroke-width="5" stroke-linecap="round"/>
<path d="M240.286 52.2969L261.599 145.297" stroke="black" stroke-width="5" stroke-linecap="round"/>
<path d="M131.786 153.297L137.707 156.627C138.791 157.237 140.164 156.719 140.575 155.544L146.786 137.797" stroke="black" stroke-width="5" stroke-linecap="round"/>
<path d="M139.786 187.297L145.707 190.627C146.791 191.237 148.164 190.719 148.575 189.544L154.786 171.797" stroke="black" stroke-width="5" stroke-linecap="round"/>
<path d="M147.786 221.297L153.707 224.627C154.791 225.237 156.164 224.719 156.575 223.544L162.786 205.797" stroke="black" stroke-width="5" stroke-linecap="round"/>
<path d="M155.786 255.297L161.707 258.627C162.791 259.237 164.164 258.719 164.575 257.544L170.786 239.797" stroke="black" stroke-width="5" stroke-linecap="round"/>
<path d="M187.099 245.297C191.099 244.964 200.099 243.497 204.099 240.297" stroke="black" stroke-width="5" stroke-linecap="round"/>
</svg>
