<svg width="408" height="612" viewBox="0 0 408 612" fill="none" xmlns="http://www.w3.org/2000/svg">
<path d="M37.5991 371.73C55.9325 360.564 108.899 339.53 174.099 344.73" stroke="black" stroke-width="5" stroke-linecap="round"/>
<path d="M167.599 364.73C153.099 374.064 148.1 401.23 200.099 401.23L244.35 395.264C244.513 395.242 244.677 395.259 244.831 395.318C259.424 400.896 278.92 418.31 251.88 455.842C251.707 456.082 251.641 456.395 251.709 456.683C254.951 470.547 249.027 488.616 236.317 497.087C236.175 497.182 236.061 497.303 235.982 497.454C232.134 504.751 221.468 521.904 207.6 522.702C207.049 522.733 206.603 523.177 206.546 523.727C205.611 532.728 192.405 545.803 176.599 547.73C156.099 550.23 60.5991 514.23 3.09912 478.23" stroke="black" stroke-width="5" stroke-linecap="round"/>
<path d="M247.599 379.23C261.932 380.897 287.599 391.23 275.599 419.23" stroke="black" stroke-width="5" stroke-linecap="round"/>
<path d="M17.5991 594.73C36.4325 586.73 78.8991 563.23 98.0991 533.23" stroke="black" stroke-width="5" stroke-linecap="round"/>
<path d="M58.0991 609.23L98.5991 533.23" stroke="black" stroke-width="5" stroke-linecap="round"/>
<path d="M84.4602 608.73C83.1269 598.064 84.7602 568.83 101.96 537.23" stroke="black" stroke-width="5" stroke-linecap="round"/>
<path d="M177.599 389.23C185.266 375.397 185.899 337.03 191.099 298.23" stroke="black" stroke-width="5" stroke-linecap="round"/>
<path d="M180.599 392.23C186.766 380.064 203.599 352.83 221.599 341.23" stroke="black" stroke-width="5" stroke-linecap="round"/>
<path d="M181.099 390.23C188.266 382.897 217.499 368.83 243.099 355.23" stroke="black" stroke-width="5" stroke-linecap="round"/>
<path d="M159.599 272.23V279.23" stroke="black" stroke-width="5" stroke-linecap="round"/>
<path d="M159.599 223.23V216.23" stroke="black" stroke-width="5" stroke-linecap="round"/>
<path d="M172.599 226.56C169.31 224.83 164.317 223.212 159.649 223.231C154.022 223.253 148.866 225.654 147.733 233.102C146.239 242.925 157.564 246.451 164.31 250.001C173.636 254.908 173.551 264.105 167.937 268.536C165.412 270.529 162.545 271.622 159.649 272.036C155.414 272.64 151.117 271.79 147.733 270.171" stroke="black" stroke-width="5" stroke-linecap="round"/>
<path d="M194.599 197.73C176.266 203.064 133.999 208.43 111.599 187.23" stroke="black" stroke-width="5" stroke-linecap="round"/>
<path d="M192.599 286.23C175.599 289.397 135.799 291.03 124.599 272.23" stroke="black" stroke-width="5" stroke-linecap="round"/>
<path d="M209.599 187.23V290.628C209.599 290.998 209.406 291.333 209.077 291.504C190.854 300.937 149.811 312.811 126.795 286.952C126.668 286.81 126.584 286.63 126.555 286.441L104.599 143.23" stroke="black" stroke-width="5" stroke-linecap="round"/>
<path d="M198.096 180.732C171.263 188.065 115.196 191.832 105.596 148.232C95.9965 104.632 145.099 77.8961 184.096 76.7319C206.43 76.0653 248.596 85.3319 238.596 127.732C232.532 145.167 202.792 164.442 173.596 157.414M173.596 157.414C164.299 155.175 155.056 150.27 146.652 141.788C146.615 141.751 146.581 141.71 146.551 141.668C137.691 129.122 165.344 96.941 198.096 108.732C222.797 117.624 196.282 130.421 174.392 135.066C173.927 135.165 173.596 135.573 173.596 136.048V157.414Z" stroke="black" stroke-width="5" stroke-linecap="round"/>
<path d="M145.599 139.73L147.099 182.23" stroke="black" stroke-width="5" stroke-linecap="round"/>
<path d="M207.599 119.23V152.23" stroke="black" stroke-width="5" stroke-linecap="round"/>
<path d="M255.273 329.41L251.6 333.51" stroke="black" stroke-width="5" stroke-linecap="round"/>
<path d="M280.985 300.713L284.658 296.613" stroke="black" stroke-width="5" stroke-linecap="round"/>
<path d="M286.853 309.482C285.835 306.743 283.76 303.176 281.015 300.737C277.708 297.798 273.429 296.498 268.857 300.266C262.828 305.235 267.61 313.243 269.698 318.861C272.585 326.628 267.71 331.971 262.096 331.62C259.572 331.462 257.319 330.598 255.406 329.32C252.609 327.452 250.538 324.7 249.406 321.976" stroke="black" stroke-width="5" stroke-linecap="round"/>
<path d="M227.099 315.73C231.266 328.73 246.999 354.63 276.599 354.23" stroke="black" stroke-width="5" stroke-linecap="round"/>
<path d="M254.099 248.23C261.599 268.23 291.299 307.53 350.099 304.73" stroke="black" stroke-width="5" stroke-linecap="round"/>
<path d="M215.188 316.054C226.433 356.756 263.078 365.798 280.319 365.24C280.507 365.234 280.682 365.174 280.837 365.068L392.182 288.909C393.075 288.299 392.422 286.894 391.356 287.074C287.654 304.586 259.707 247.591 258.123 211.622C258.074 210.497 256.358 210.185 255.948 211.234L215.219 315.423C215.141 315.623 215.131 315.847 215.188 316.054Z" stroke="black" stroke-width="5" stroke-linecap="round"/>
<path d="M257.099 211.231C261.099 189.231 285.099 150.631 349.099 172.231C413.099 193.831 409.432 236.898 399.599 255.731C393.334 267.731 341.774 279.641 309.099 246.231C264.599 200.731 321.663 183.231 350.599 201.731C374.999 217.331 375.766 231.065 371.099 238.731C365.763 245.523 347.718 246.196 336.145 235.726C335.627 235.258 334.791 235.409 334.502 236.045L327.599 251.231" stroke="black" stroke-width="5" stroke-linecap="round"/>
<path d="M397.599 258.73L379.599 288.23" stroke="black" stroke-width="5" stroke-linecap="round"/>
<path d="M359.099 268.23L371.099 239.23" stroke="black" stroke-width="5" stroke-linecap="round"/>
<path d="M269.599 248.23L292.099 215.23" stroke="black" stroke-width="5" stroke-linecap="round"/>
<path d="M310.689 127.871L312.425 121.09" stroke="black" stroke-width="5" stroke-linecap="round"/>
<path d="M322.457 134.323C319.701 131.832 315.265 129.026 310.737 127.887C305.28 126.513 299.69 127.56 296.746 134.495C292.863 143.641 302.959 149.865 308.615 154.977C312.068 158.097 313.534 161.574 313.533 164.733" stroke="black" stroke-width="5" stroke-linecap="round"/>
<path d="M270.099 184.231C265.932 182.231 257.299 175.431 256.099 164.231V61.6131C256.099 60.5498 257.609 60.1723 258.136 61.0955C271.167 83.9008 308.129 118.018 368.599 97.2311C386.099 89.5644 414.999 65.8311 390.599 32.2311C366.199 -1.36892 318.099 0.564416 297.099 5.73108C281.432 11.4374 258.699 30.9262 293.099 63.231C300.099 68.9656 312.074 76.0401 325.099 78.4692M325.099 78.4692C337.816 80.8409 351.533 78.7847 362.599 66.731C384.999 42.331 346.099 24.156 324.599 25.231C304.712 26.2253 278.398 38.7878 327.259 53.4802C327.726 53.6208 328.056 54.0857 327.997 54.5703L325.099 78.4692Z" stroke="black" stroke-width="5" stroke-linecap="round"/>
<path d="M299.599 38.7305L295.599 64.7305" stroke="black" stroke-width="5" stroke-linecap="round"/>
<path d="M270.099 98.2305C285.099 110.23 324.999 130.13 364.599 113.73" stroke="black" stroke-width="5" stroke-linecap="round"/>
<path d="M394.099 77.2305L346.599 170.23" stroke="black" stroke-width="5" stroke-linecap="round"/>
<path d="M367.599 58.7305L359.599 99.7305" stroke="black" stroke-width="5" stroke-linecap="round"/>
<path d="M238.599 127.73L236.599 245.23" stroke="black" stroke-width="5" stroke-linecap="round"/>
<path d="M275.099 31.7305L273.599 79.7305" stroke="black" stroke-width="5" stroke-linecap="round"/>
</svg>
