<svg width="539" height="402" viewBox="0 0 539 402" fill="none" xmlns="http://www.w3.org/2000/svg">
<path d="M216.099 300.93L192.099 276.93" stroke="black" stroke-width="7" stroke-linecap="round"/>
<circle cx="114.599" cy="197.43" r="111" stroke="black" stroke-width="7"/>
<rect x="234.023" y="273.887" width="120.42" height="64.1894" rx="32.0947" transform="rotate(40.8596 234.023 273.887)" fill="black"/>
<path d="M144.099 20.9297V90.4297M330.099 184.43L277.671 188.424C277.623 188.428 277.575 188.428 277.527 188.425L225.599 184.924" stroke="black" stroke-width="7" stroke-linecap="round"/>
<path d="M144.099 20.4297L276.476 4.06844C277.073 3.99473 277.599 4.45995 277.599 5.06089V186.43" stroke="black" stroke-width="7" stroke-linecap="round"/>
<path d="M299.096 4.42969L474.167 16.3661C474.692 16.4019 475.099 16.8379 475.099 17.3638V83.4297" stroke="black" stroke-width="7" stroke-linecap="round"/>
<path d="M243.099 206.43V261.768C243.099 262.379 242.555 262.848 241.95 262.757L208.599 257.737" stroke="black" stroke-width="7" stroke-linecap="round"/>
<path d="M242.599 262.93L361.099 251.93" stroke="black" stroke-width="7" stroke-linecap="round"/>
<path d="M312.599 259.93V134.93L366.599 259.93H312.599Z" fill="black" fill-opacity="0.3"/>
<path d="M462.525 199.735L384.535 37.4187C383.883 36.0614 384.908 34.4975 386.413 34.554L421.902 35.8848C422.639 35.9124 423.301 36.3436 423.624 37.0066L501.974 197.647C502.348 198.415 502.194 199.335 501.59 199.938L485.652 215.877C485.296 216.232 484.82 216.441 484.318 216.461L452.778 217.74C451.019 217.811 450.032 215.739 451.197 214.418L462.222 201.924C462.754 201.321 462.873 200.459 462.525 199.735Z" fill="black"/>
<path d="M418.009 247.046L410.542 254.838C409.295 256.139 410.269 258.296 412.07 258.22L441.872 256.96C442.342 256.941 442.789 256.756 443.136 256.439L450.291 249.907C451.639 248.675 450.768 246.43 448.942 246.43H419.453C418.907 246.43 418.386 246.652 418.009 247.046Z" fill="black"/>
<path d="M193.099 31.6828V16.1807C193.099 15.1783 193.841 14.3307 194.835 14.1983L220.835 10.7316C222.034 10.5717 223.099 11.5045 223.099 12.7141V28.6495C223.099 29.6644 222.339 30.5184 221.331 30.636L195.331 33.6693C194.143 33.808 193.099 32.8792 193.099 31.6828Z" fill="black"/>
<path d="M366.528 259.12L294.353 93.5111C294.198 93.1562 294.262 92.7439 294.517 92.4526L346.098 33.5727C346.571 33.0321 347.444 33.1527 347.753 33.8015L427.787 201.775C427.973 202.165 427.887 202.631 427.573 202.93L368.134 259.445C367.631 259.924 366.806 259.757 366.528 259.12Z" stroke="black" stroke-width="7" stroke-linecap="round"/>
<path d="M368.099 259.93L475.229 254.947C475.468 254.936 475.695 254.84 475.869 254.676L534.632 199.284C535.307 198.647 534.826 197.514 533.899 197.558L441.596 201.93" stroke="black" stroke-width="7" stroke-linecap="round"/>
<path d="M347.099 32.9297L450.519 36.9074C450.878 36.9212 451.201 37.1264 451.367 37.4451L534.599 197.43" stroke="black" stroke-width="7" stroke-linecap="round"/>
</svg>
