<svg width="765" height="882" viewBox="0 0 765 882" fill="none" xmlns="http://www.w3.org/2000/svg">
<path d="M465.099 120.621C473.403 119.865 492.945 124.804 506.043 150.181C506.422 150.916 507.486 150.933 507.862 150.197C521.256 124 537.747 97.5518 589.517 129.315C590.401 129.857 591.556 128.857 591.125 127.914C582.787 109.677 578.513 75.4154 617.416 58.2776C618.285 57.8946 618.242 56.6004 617.33 56.3338L607.799 53.548C606.77 53.247 606.88 51.8415 607.949 51.7505C618.419 50.8584 632.778 51.5394 627.745 57.6528C621.79 64.8861 620.326 69.4594 621.778 77.0111" stroke="black" stroke-width="5" stroke-linecap="round"/>
<path fill-rule="evenodd" clip-rule="evenodd" d="M55.2548 389.618C53.7113 389.18 52.0967 390.034 51.5901 391.557L47.9462 402.506C47.5976 403.554 46.7022 404.325 45.6148 404.514L34.2461 406.496C32.6656 406.771 31.5815 408.242 31.7856 409.833L33.2534 421.279C33.3938 422.374 32.9216 423.458 32.0242 424.1L22.6411 430.818C21.3366 431.752 20.9978 433.547 21.8721 434.892L28.161 444.568C28.7625 445.494 28.8072 446.675 28.2774 447.643L22.7384 457.767C21.9683 459.174 22.4419 460.939 23.8132 461.771L33.6775 467.76C34.621 468.333 35.1738 469.378 35.1166 470.48L34.5186 482.005C34.4355 483.607 35.6277 484.991 37.2245 485.146L48.7105 486.262C49.8091 486.369 50.7603 487.07 51.1871 488.088L55.6487 498.731C56.269 500.211 57.9436 500.94 59.4496 500.387L70.2823 496.409C71.3185 496.029 72.4798 496.248 73.306 496.98L81.9435 504.633C83.1443 505.697 84.9697 505.628 86.0866 504.476L94.1205 496.192C94.889 495.399 96.0304 495.093 97.0923 495.394L108.195 498.541C109.738 498.979 111.353 498.125 111.86 496.602L115.504 485.653C115.852 484.605 116.748 483.834 117.835 483.644L129.204 481.663C130.784 481.387 131.868 479.917 131.664 478.326L130.196 466.88C130.056 465.785 130.528 464.701 131.426 464.059L140.809 457.341C142.113 456.407 142.452 454.612 141.578 453.267L135.289 443.591C134.687 442.665 134.643 441.484 135.172 440.516L140.711 430.392C141.481 428.984 141.008 427.22 139.637 426.388L129.772 420.399C128.829 419.826 128.276 418.781 128.333 417.679L128.931 406.154C129.014 404.552 127.822 403.168 126.225 403.013L114.739 401.897C113.641 401.79 112.689 401.089 112.263 400.071L107.801 389.428C107.181 387.948 105.506 387.219 104 387.772L93.1675 391.75C92.1313 392.13 90.97 391.911 90.1438 391.179L81.5063 383.526C80.3055 382.462 78.4801 382.531 77.3632 383.683L69.3293 391.967C68.5608 392.76 67.4194 393.066 66.3575 392.765L55.2548 389.618ZM66.3128 435.264C67.4751 437.46 66.6365 440.183 64.4397 441.346C62.243 442.508 59.5199 441.669 58.3577 439.473C57.1954 437.276 58.034 434.553 60.2307 433.391C62.4275 432.228 65.1505 433.067 66.3128 435.264ZM70.7323 432.925C73.186 437.563 71.4156 443.312 66.7781 445.765C62.1405 448.219 56.3918 446.449 53.9381 441.811C51.4844 437.173 53.2548 431.425 57.8924 428.971C62.53 426.517 68.2786 428.288 70.7323 432.925ZM104.103 454.301C106.3 453.138 107.138 450.415 105.976 448.218C104.814 446.022 102.091 445.183 99.894 446.345C97.6972 447.508 96.8586 450.231 98.0209 452.428C99.1832 454.624 101.906 455.463 104.103 454.301ZM106.441 458.72C111.079 456.266 112.849 450.518 110.396 445.88C107.942 441.243 102.193 439.472 97.5556 441.926C92.918 444.38 91.1477 450.128 93.6014 454.766C96.0551 459.403 101.804 461.174 106.441 458.72ZM83.2459 419.929C83.1638 418.551 81.9799 417.5 80.6016 417.582C79.2233 417.664 78.1726 418.848 78.2548 420.227L81.0876 467.761C81.1697 469.14 82.3536 470.19 83.7319 470.108C85.1102 470.026 86.1609 468.842 86.0787 467.464L83.2459 419.929Z" fill="black"/>
<path d="M761.599 275.844C761.599 305.37 737.443 329.344 707.599 329.344C677.755 329.344 653.599 305.37 653.599 275.844C653.599 246.317 677.755 222.344 707.599 222.344C737.443 222.344 761.599 246.317 761.599 275.844Z" stroke="black" stroke-width="5"/>
<path d="M708.099 300.844V308.844" stroke="black" stroke-width="5" stroke-linecap="round"/>
<path d="M708.099 250.844V242.844" stroke="black" stroke-width="5" stroke-linecap="round"/>
<path d="M722.099 254.241C718.547 252.476 713.155 250.825 708.112 250.844C702.035 250.867 696.467 253.316 695.244 260.917C693.631 270.94 705.861 274.539 713.147 278.161C723.219 283.167 723.127 292.553 717.064 297.074C714.337 299.107 711.24 300.223 708.112 300.645C703.539 301.261 698.899 300.394 695.244 298.742" stroke="black" stroke-width="5" stroke-linecap="round"/>
<path d="M407.599 155.846C398.932 127.013 400.515 68.3854 476.099 63.3463C551.099 58.3462 562.599 59.3452 575.099 61.3451" stroke="black" stroke-width="5" stroke-linecap="round"/>
<path d="M265.099 695.844C288.064 679.165 338.613 648.741 356.992 660.466C379.957 675.122 365.295 677.143 353.565 674.111" stroke="black" stroke-width="5" stroke-linecap="round"/>
<path d="M332.556 674.598C344.387 672.825 368.255 673.05 369.047 688.138C369.494 696.936 367.069 695.473 362.632 692.726C359.451 690.76 355.238 688.138 350.302 688.138H329.099" stroke="black" stroke-width="5" stroke-linecap="round"/>
<path d="M329.099 688.844H350.43C355.396 688.844 359.634 691.521 362.835 693.527C365.966 699.207 368.284 709.68 352.42 706.123C336.556 702.569 330.258 703.656 329.099 704.643" stroke="black" stroke-width="5" stroke-linecap="round"/>
<path d="M352.694 705.844C357.94 711.839 363.992 723.127 346.298 720.33C328.605 717.534 314.682 726.158 309.933 730.82C301.909 736.147 282.895 742.807 271.099 726.824" stroke="black" stroke-width="5" stroke-linecap="round"/>
<path d="M182.796 721.215C265.942 675.118 266.028 718.532 259.003 745.007C248.612 771.774 197.067 801.257 173.926 804.784C141.283 812.285 83.4829 803.397 113.46 707.832C150.94 588.377 167.893 501.14 293.099 477.844" stroke="black" stroke-width="5" stroke-linecap="round"/>
<path d="M228.099 617.844C228.099 662.955 225.459 661.892 206.099 702.844" stroke="black" stroke-width="5" stroke-linecap="round"/>
<path d="M398.099 641.844V628.844" stroke="black" stroke-width="5" stroke-linecap="round"/>
<path d="M413.099 640.844L418.099 624.844" stroke="black" stroke-width="5" stroke-linecap="round"/>
<path d="M428.099 644.844L440.099 616.844" stroke="black" stroke-width="5" stroke-linecap="round"/>
<path d="M197.099 801.844C200.581 840.861 202.066 838.391 208.039 860.615C268.353 878.396 401.797 898.842 453.099 838.392" stroke="black" stroke-width="5" stroke-linecap="round"/>
<path d="M259.099 567.844L260.986 564.983C272.359 547.823 294.289 540.971 313.482 548.588C330.703 555.421 350.389 550.66 362.527 536.727L378.099 518.844" stroke="black" stroke-width="5" stroke-linecap="round"/>
<path d="M367.192 476.955C371.567 464.679 367.567 456.417 363.686 454.844C340.298 475.619 304.826 467.907 291.686 455.315C287.005 459.471 289.728 471.762 291.686 475.539C317.013 502.736 353.065 487.501 367.192 476.955Z" fill="black"/>
<path d="M436.114 275.08C425.215 314.316 419.748 317.792 403.894 335.175C403.894 317.997 400.939 289.162 400.939 277.154C348.988 277.154 305.152 255.912 289.708 245.289C290.272 281.31 256.549 304.863 256.549 304.863C256.549 304.863 261.384 319.41 264.151 351.966C266.372 378.013 260 372.98 256.549 367.207C246.606 335.064 230.309 343.654 223.39 351.966C138.621 213.993 268.986 187.333 293.859 189.873C312.651 173.802 338.857 161.208 357.273 159.361C423.728 152.699 453.795 211.462 436.114 275.08Z" fill="black"/>
<path d="M257.099 391.759C266.09 446.635 326.413 486.096 369.95 441.641C413.487 397.187 404.77 315.815 400.12 277.844" stroke="black" stroke-width="5" stroke-linecap="round"/>
<path d="M222.894 347.844C217.613 361.215 222.568 390.844 257.099 390.844" stroke="black" stroke-width="5" stroke-linecap="round"/>
<path d="M240.292 355.844C239.68 358.319 240.17 364.187 247.099 367.844" stroke="black" stroke-width="5" stroke-linecap="round"/>
<path d="M400.099 383.844C411.486 379.048 419.525 361.286 416.432 332.844" stroke="black" stroke-width="5" stroke-linecap="round"/>
<path d="M334.099 417.17C344.719 420.367 344.048 411.566 352.099 403.844" stroke="black" stroke-width="5" stroke-linecap="round"/>
<path d="M368.599 354.844C372.741 354.844 376.099 351.262 376.099 346.844C376.099 342.425 372.741 338.844 368.599 338.844C364.457 338.844 361.099 342.425 361.099 346.844C361.099 351.262 364.457 354.844 368.599 354.844Z" fill="black"/>
<path d="M302.599 354.844C307.294 354.844 311.099 351.71 311.099 347.844C311.099 343.978 307.294 340.844 302.599 340.844C297.905 340.844 294.099 343.978 294.099 347.844C294.099 351.71 297.905 354.844 302.599 354.844Z" fill="black"/>
<path d="M286.099 330.844C287.745 326.619 294.859 318.804 310.099 321.339" stroke="black" stroke-width="5" stroke-linecap="round"/>
<path d="M356.099 321.844C359.733 319.58 369.625 316.41 380.099 321.844" stroke="black" stroke-width="5" stroke-linecap="round"/>
<path d="M330.898 344.844C329.747 354.399 328.947 373.777 335.099 374.844" stroke="black" stroke-width="5" stroke-linecap="round"/>
<path d="M316.887 663.844L291.094 620.51C289.079 617.123 290.223 612.735 293.637 610.776C296.966 608.869 301.199 609.979 303.162 613.269L330.099 658.344" stroke="black" stroke-width="5" stroke-linecap="round"/>
<path d="M323.099 814.844C336.814 770.508 368.749 684.436 389.032 686.895C389.953 687.008 390.874 687.271 391.795 687.4L468.099 698.089" stroke="black" stroke-width="5" stroke-linecap="round"/>
<path d="M479.099 715.844L472.099 736.844" stroke="black" stroke-width="5" stroke-linecap="round"/>
<path d="M390.866 697.844C376.235 706.777 354.467 768.074 341.77 809.323C338.998 818.313 345.124 827.512 354.485 828.683L426.802 837.724C434.194 838.646 441.176 834.178 443.418 827.108L449.099 809.143" stroke="black" stroke-width="5" stroke-linecap="round"/>
<path d="M402.592 705.844C407.421 704.09 417.459 693.748 414.594 683.727C414.107 681.988 413.222 680.258 411.85 678.583C402.592 667.269 386.649 678.585 390.765 687.842" stroke="black" stroke-width="5" stroke-linecap="round"/>
<path d="M414.099 684.006C419.024 677.984 432.335 675.232 439.294 687.102C445.764 701.554 433.327 709.812 425.864 710.844" stroke="black" stroke-width="5" stroke-linecap="round"/>
<path d="M440.099 686.811C445.298 682.843 459.214 677.495 467.268 687.847C476.817 703.892 459.724 714.244 452.673 712.69" stroke="black" stroke-width="5" stroke-linecap="round"/>
<path d="M467.099 687.887C473.736 683.99 485.528 682.295 490.062 692.46C494.596 702.628 483.425 715.844 472.702 715.844" stroke="black" stroke-width="5" stroke-linecap="round"/>
<path d="M429.216 771.844C426.487 775.574 427.053 785.197 451.099 793.844" stroke="black" stroke-width="5" stroke-linecap="round"/>
<path d="M492.099 752.011C466.107 747.006 439.431 745.151 429.325 744.848C423.904 744.687 417.885 749.315 420.911 754.555C421.749 755.896 424.383 758.878 428.196 760.079C444.39 765.355 451.298 765.823 458.429 765.844" stroke="black" stroke-width="5" stroke-linecap="round"/>
<path d="M458.099 765.624C450.966 765.604 444.055 765.134 427.855 759.844C424.16 761.18 423.681 767.541 429.531 771.512C433.226 774.029 439.915 777.116 450.966 780.844" stroke="black" stroke-width="5" stroke-linecap="round"/>
<path d="M368.099 477.844C448.924 509.939 513.376 604.248 505.437 733.617C504.278 751.885 494.822 789.709 466.268 794.844" stroke="black" stroke-width="5" stroke-linecap="round"/>
<path d="M437.599 292.843C453.266 288.509 488.299 284.043 503.099 300.843C521.599 321.843 512.599 328.343 533.599 300.843C550.399 278.843 618.266 275.343 650.099 276.343" stroke="black" stroke-width="5" stroke-linecap="round"/>
<path d="M730.099 220.341C728.099 215.508 726.331 197.843 730.099 184.341C736.099 162.841 755.599 83.8426 734.599 66.3412C707.439 43.7062 688.599 54.3419 646.099 58.8415" stroke="black" stroke-width="5" stroke-linecap="round"/>
<path d="M477.627 181.246L479.567 244.293C479.584 244.865 480.077 245.305 480.647 245.259L509.637 242.921C510.174 242.878 510.58 242.417 510.556 241.88L507.648 177.434C507.622 176.848 507.099 176.41 506.517 176.488L478.494 180.224C477.986 180.292 477.611 180.734 477.627 181.246Z" stroke="black" stroke-width="5" stroke-linecap="round"/>
<path d="M530.599 165.426V243.371C530.599 244.078 531.311 244.561 531.968 244.301L558.993 233.584C559.361 233.438 559.609 233.088 559.624 232.692L562.063 167.802C562.083 167.267 561.677 166.81 561.143 166.768L531.678 164.429C531.097 164.383 530.599 164.843 530.599 165.426Z" stroke="black" stroke-width="5" stroke-linecap="round"/>
<path d="M587.099 147.344V233.844C587.099 234.396 587.547 234.844 588.099 234.844H617.099C617.651 234.844 618.099 234.396 618.099 233.844V147.344C618.099 146.791 617.651 146.344 617.099 146.344H588.099C587.547 146.344 587.099 146.791 587.099 147.344Z" stroke="black" stroke-width="5" stroke-linecap="round"/>
<path d="M647.077 129.784L644.631 231.991C644.615 232.663 645.254 233.159 645.902 232.977L675.948 224.527C676.342 224.416 676.628 224.078 676.672 223.672L686.975 128.494C687.04 127.888 686.552 127.364 685.943 127.387L648.039 128.809C647.511 128.828 647.089 129.256 647.077 129.784Z" stroke="black" stroke-width="5" stroke-linecap="round"/>
<path d="M214.583 117.844C213.885 129.287 213.409 152.708 217.099 154.844" stroke="black" stroke-width="5" stroke-linecap="round"/>
<path d="M195.099 140.844L233.099 135.844" stroke="black" stroke-width="5" stroke-linecap="round"/>
<path d="M511.583 453.844C510.885 465.287 510.409 488.708 514.099 490.844" stroke="black" stroke-width="5" stroke-linecap="round"/>
<path d="M492.099 476.844L530.099 471.844" stroke="black" stroke-width="5" stroke-linecap="round"/>
<path d="M667.599 561.844C667.599 564.206 665.534 567.07 660.518 569.492C655.678 571.829 648.815 573.344 641.099 573.344C633.383 573.344 626.52 571.829 621.68 569.492C616.664 567.07 614.599 564.206 614.599 561.844C614.599 559.481 616.664 556.617 621.68 554.196C626.52 551.859 633.383 550.344 641.099 550.344C648.815 550.344 655.678 551.859 660.518 554.196C665.534 556.617 667.599 559.481 667.599 561.844Z" stroke="black" stroke-width="5"/>
<path d="M614.099 562.344V580.393C614.099 580.68 614.215 580.948 614.433 581.134C621.867 587.471 641.432 596.874 663.099 585.844" stroke="black" stroke-width="5" stroke-linecap="round"/>
<path d="M116.599 221.844C116.599 224.206 114.534 227.07 109.518 229.492C104.678 231.829 97.8152 233.344 90.0991 233.344C82.3831 233.344 75.5204 231.829 70.6799 229.492C65.6638 227.07 63.5991 224.206 63.5991 221.844C63.5991 219.481 65.6638 216.617 70.6799 214.196C75.5204 211.859 82.3831 210.344 90.0991 210.344C97.8152 210.344 104.678 211.859 109.518 214.196C114.534 216.617 116.599 219.481 116.599 221.844Z" stroke="black" stroke-width="5"/>
<path d="M63.0991 222.344V240.393C63.0991 240.68 63.2151 240.948 63.4332 241.134C70.8667 247.471 90.4321 256.874 112.099 245.844" stroke="black" stroke-width="5" stroke-linecap="round"/>
<path d="M627.347 396.474C625.698 398.167 622.221 398.777 616.938 397.012C611.84 395.308 605.867 391.605 600.34 386.22C594.813 380.836 590.954 374.962 589.118 369.911C587.214 364.676 587.734 361.184 589.383 359.491C591.031 357.799 594.508 357.188 599.791 358.954C604.889 360.658 610.862 364.361 616.389 369.745C621.916 375.13 625.775 381.004 627.611 386.055C629.515 391.29 628.995 394.782 627.347 396.474Z" stroke="black" stroke-width="5"/>
<path d="M588.675 359.504L576.081 372.433C575.881 372.638 575.777 372.911 575.803 373.196C576.706 382.923 584.159 403.311 607.376 410.529" stroke="black" stroke-width="5" stroke-linecap="round"/>
</svg>
