<svg width="1036" height="469" viewBox="0 0 1036 469" fill="none" xmlns="http://www.w3.org/2000/svg">
<path d="M414.306 443.67C409.732 396.404 431.13 373.233 443.971 366.542C445.167 365.919 446.502 365.67 447.851 365.67H474.105C475.555 365.67 477 365.97 478.279 366.652C503.46 380.09 510.244 419.295 507.806 443.67C506.806 462.67 493.306 466.17 481.306 466.17H440.806C416.306 465.17 414.64 449.837 414.306 443.67Z" fill="black"/>
<path d="M469.099 405.837C466.994 404.779 463.799 403.789 460.811 403.801C457.21 403.815 453.91 405.283 453.185 409.837C452.229 415.843 459.477 418 463.794 420.17C469.763 423.17 469.708 428.794 466.115 431.504C464.499 432.722 462.664 433.391 460.811 433.643C458.101 434.013 455.351 433.493 453.185 432.503" stroke="white" stroke-width="7" stroke-linecap="round"/>
<path d="M460.811 433.644V438.171" stroke="white" stroke-width="7" stroke-linecap="round"/>
<path d="M460.811 403.801V399.17" stroke="white" stroke-width="7" stroke-linecap="round"/>
<rect x="442.806" y="354.67" width="35" height="8" rx="4" stroke="black" stroke-width="5"/>
<rect x="505.099" y="286.17" width="60" height="12" rx="6" fill="black"/>
<path d="M445.806 348.67L434.806 328.67" stroke="black" stroke-width="5" stroke-linecap="round"/>
<path d="M475.806 348.67L486.306 328.17" stroke="black" stroke-width="5" stroke-linecap="round"/>
<path d="M434.306 328.17C437.639 328.837 445.006 329.07 447.806 324.67C450.606 320.27 454.306 321.504 455.806 322.67L460.306 326.67" stroke="black" stroke-width="5" stroke-linecap="round"/>
<path d="M486.306 327.768C482.973 328.435 475.606 328.668 472.806 324.268C470.006 319.868 466.306 321.101 464.806 322.268L460.306 326.67" stroke="black" stroke-width="5" stroke-linecap="round"/>
<path d="M508.806 283.17L490.306 247.67" stroke="black" stroke-width="5" stroke-linecap="round"/>
<path d="M562.306 283.17L580.306 247.17" stroke="black" stroke-width="5" stroke-linecap="round"/>
<path d="M490.306 247.533C496.075 248.681 508.825 249.083 513.672 241.505C518.518 233.927 524.922 236.052 527.518 238.061L535.306 244.95" stroke="black" stroke-width="5" stroke-linecap="round"/>
<path d="M580.306 246.533C574.537 247.681 561.787 248.083 556.941 240.505C552.095 232.927 545.691 235.052 543.095 237.061L535.306 244.643" stroke="black" stroke-width="5" stroke-linecap="round"/>
<rect x="380.489" y="459.075" width="47.2945" height="11.8004" rx="5.90019" transform="rotate(-61.5197 380.489 459.075)" stroke="black" stroke-width="5"/>
<rect x="584.806" y="420.67" width="47.2945" height="11.8004" rx="5.90019" stroke="black" stroke-width="5"/>
<rect x="591.806" y="437.67" width="47.2945" height="11.8004" rx="5.90019" stroke="black" stroke-width="5"/>
<rect x="584.806" y="454.67" width="47.2945" height="11.8004" rx="5.90019" stroke="black" stroke-width="5"/>
<rect x="635.806" y="454.67" width="47.2945" height="11.8004" rx="5.90019" stroke="black" stroke-width="5"/>
<rect x="643.806" y="439.67" width="47.2945" height="11.8004" rx="5.90019" stroke="black" stroke-width="5"/>
<rect x="636.806" y="423.67" width="47.2945" height="11.8004" rx="5.90019" stroke="black" stroke-width="5"/>
<rect x="627.806" y="406.67" width="47.2945" height="11.8004" rx="5.90019" stroke="black" stroke-width="5"/>
<rect x="632.806" y="389.67" width="47.2945" height="11.8004" rx="5.90019" stroke="black" stroke-width="5"/>
<path d="M491.599 320.17C497.599 312.337 502.806 305.67 513.306 302.17H558.306C577.639 312.337 609.099 343.17 607.099 408.67" stroke="black" stroke-width="5" stroke-linecap="round"/>
<path d="M507.099 463.17H576.599" stroke="black" stroke-width="5" stroke-linecap="round"/>
<path d="M535.806 407.88V414.67" stroke="black" stroke-width="7" stroke-linecap="round"/>
<path d="M535.806 363.116V356.17" stroke="black" stroke-width="7" stroke-linecap="round"/>
<path d="M548.306 366.17C545.132 364.583 540.312 363.099 535.806 363.116C530.375 363.137 525.399 365.338 524.306 372.17C522.864 381.18 533.794 384.414 540.306 387.67C549.306 392.17 549.225 400.606 543.806 404.67C541.369 406.498 538.602 407.501 535.806 407.88C531.719 408.434 527.572 407.654 524.306 406.17" stroke="black" stroke-width="7" stroke-linecap="round"/>
<path d="M992.099 329.329C1002.27 328.496 1024.2 330.529 1030.6 345.329C1038.6 363.829 1025.1 432.67 1001.6 399.329C998.929 395.829 992.099 378.17 999.099 366.17" stroke="black" stroke-width="5" stroke-linecap="round"/>
<path d="M928.739 179.063C933.329 169.957 946.519 152.312 962.479 154.58C982.439 157.415 1034.1 204.87 993.399 207.506C989.019 207.953 970.389 204.562 963.809 192.327" stroke="black" stroke-width="5" stroke-linecap="round"/>
<path d="M419.249 97.1796C398.539 69.3766 401.739 46.0696 405.929 37.8926C391.799 63.4146 365.589 68.6206 354.249 68.0326L359.859 82.6026C345.949 93.2286 330.049 75.3036 323.829 65.0126C314.239 49.1356 319.699 18.8756 359.279 5.29463C398.849 -8.28637 435.629 8.71862 449.069 18.9186C469.739 -3.24538 507.939 -1.08638 524.459 2.76362C541.559 6.78562 583.519 24.9376 589.779 70.2066C598.209 131.283 534.599 153.994 522.509 154.922C480.719 158.129 445.149 131.935 419.249 97.1796Z" fill="black"/>
<path d="M368.859 120.619C372.619 125.082 376.999 128.135 380.939 129.538C384.959 130.964 388.019 130.557 389.849 129.026C391.669 127.495 392.599 124.542 391.879 120.345C391.179 116.216 388.919 111.374 385.169 106.911C381.419 102.448 377.039 99.3951 373.089 97.9921C369.079 96.5661 366.009 96.9731 364.189 98.5041C362.369 100.035 361.439 102.988 362.149 107.185C362.859 111.314 365.109 116.156 368.859 120.619Z" stroke="black" stroke-width="5"/>
<path d="M383.729 120.221C382.819 121.651 379.999 121.484 377.429 119.849C374.849 118.214 373.499 115.73 374.409 114.301C375.319 112.871 378.139 113.038 380.709 114.673C383.289 116.308 384.639 118.792 383.729 120.221Z" fill="black"/>
<path d="M417.649 94.771L387.799 109.757" stroke="black" stroke-width="5" stroke-linecap="round"/>
<path d="M357.189 84.9575C357.749 91.1295 357.179 105.724 353.509 115.959C349.749 126.427 353.769 134.348 361.829 136.87L374.459 140.88C389.519 174.448 409.669 193.768 454.349 181.031" stroke="black" stroke-width="5" stroke-linecap="round"/>
<path d="M423.639 130.157C422.829 130.845 421.609 130.739 420.919 129.921C420.229 129.104 420.339 127.884 421.159 127.196C421.969 126.509 423.189 126.615 423.879 127.432C424.569 128.25 424.459 129.47 423.639 130.157Z" fill="black"/>
<path d="M438.839 141.633C437.859 142.458 436.509 142.464 435.819 141.646C435.139 140.829 435.369 139.497 436.359 138.672C437.339 137.847 438.689 137.842 439.379 138.659C440.059 139.477 439.829 140.809 438.839 141.633Z" fill="black"/>
<path d="M422.929 147.943C421.949 148.768 420.599 148.774 419.909 147.956C419.229 147.139 419.459 145.807 420.449 144.982C421.429 144.158 422.779 144.152 423.469 144.969C424.149 145.787 423.919 147.119 422.929 147.943Z" fill="black"/>
<path d="M408.079 155.225C409.989 157.425 412.059 163.135 405.019 168.371" stroke="black" stroke-width="5" stroke-linecap="round"/>
<path d="M470.099 207.17C459.509 215.679 440.949 248.695 447.459 314.684" stroke="black" stroke-width="5" stroke-linecap="round"/>
<path d="M349.469 335.764C346.749 333.116 341.729 325.362 343.399 315.524C345.079 305.687 351.179 306.038 354.019 307.443L369.519 314.684C381.599 320.554 412.979 327.997 447.459 314.684C450.159 313.643 452.869 312.475 455.599 311.17" stroke="black" stroke-width="5" stroke-linecap="round"/>
<path d="M285.869 354.27C281.159 353.869 272.899 352.441 269.029 349.578C266.319 349.175 261.109 349.576 261.939 354.403C262.189 355.859 263.599 357.031 265.629 357.965C270.339 360.127 278.359 361.013 283.029 361.188" stroke="black" stroke-width="5" stroke-linecap="round"/>
<path d="M283.029 361.187C278.359 361.012 270.339 360.126 265.629 357.964C263.619 359.935 262.379 364.439 273.479 366.688L276.799 367.28L282.559 368.31" stroke="black" stroke-width="5" stroke-linecap="round"/>
<path d="M277.599 368.67C281.582 373.815 296.571 381.307 324.739 370.312C324.973 370.22 325.228 370.17 325.479 370.17H423.099" stroke="black" stroke-width="5" stroke-linecap="round"/>
<path d="M285.869 354.27C281.159 353.869 272.899 352.441 269.029 349.578C267.759 348.636 266.959 347.538 266.929 346.271C266.779 341.152 271.819 341.186 274.359 341.843C281.629 343.417 297.079 345.726 300.669 342.376C305.169 338.187 299.289 338.664 296.579 331.562C293.869 324.459 301.229 323.032 301.809 326.368C302.269 329.037 306.269 330.987 308.199 331.628C315.789 334.347 322.219 344.633 325.259 349.699C369.099 329.171 381.099 354.403 424.099 334.671" stroke="black" stroke-width="5" stroke-linecap="round"/>
<path d="M509.869 181.95C509.219 174.933 505.589 162.48 496.269 168.805C484.609 176.712 466.289 205.657 470.929 211.927" stroke="black" stroke-width="5" stroke-linecap="round"/>
<path d="M326.099 306.67C324.169 306.2 321.949 305.503 320.229 304.67C313.679 303.503 300.599 303.07 300.599 310.67C300.599 320.17 318.099 312.17 324.099 321.17C330.099 330.17 339.599 328.67 345.099 329.67" stroke="black" stroke-width="5" stroke-linecap="round"/>
<path d="M348.099 306.671C345.599 302.504 337.299 294.971 324.099 298.171C315.039 300.368 316.449 302.847 320.229 304.671C321.949 305.504 324.169 306.201 326.099 306.671" stroke="black" stroke-width="5" stroke-linecap="round"/>
<path d="M319.099 304.17L363.599 261.17" stroke="black" stroke-width="5" stroke-linecap="round"/>
<path d="M507.599 172.67C517.769 169.17 544.299 175.27 569.099 227.67C585.429 262.17 607.099 276.17 619.599 277.67" stroke="black" stroke-width="5" stroke-linecap="round"/>
<path d="M914.099 185.671C894.899 190.871 866.429 236.671 837.099 281.671L905.099 293.671C923.929 260.504 932.569 238.911 938.099 224.171C945.599 204.171 938.099 179.171 914.099 185.671Z" fill="black"/>
<path d="M756.599 260.17C681.729 238.193 636.889 258.736 620.719 274.318C618.639 276.319 618.059 279.31 618.639 282.137C623.629 306.766 618.919 338.64 614.169 358.986C612.799 364.858 617.169 370.67 623.199 370.67H969.599C971.549 370.67 973.489 370.059 974.639 368.491C978.099 363.797 982.599 352.727 982.599 332.67C984.099 316.67 965.099 306.67 948.599 302.17C909.089 291.395 836.999 283.77 756.599 260.17Z" fill="black"/>
<path d="M0.100714 374.431C0.444859 364.348 38.9892 367.589 41.3982 367.949V374.431L53.0991 383.073C35.3183 383.553 -0.174603 382.497 0.100714 374.431Z" fill="black"/>
<path d="M96.0991 373.17V338.17" stroke="black" stroke-width="5" stroke-linecap="round"/>
<path d="M66.0991 382.17V343.17" stroke="black" stroke-width="5" stroke-linecap="round"/>
<path d="M41.0991 373.17V334.17" stroke="black" stroke-width="5" stroke-linecap="round"/>
<path d="M41.0991 334.17L68.0991 327.17" stroke="black" stroke-width="5" stroke-linecap="round"/>
<path d="M96.0991 337.17L66.0991 343.17" stroke="black" stroke-width="5" stroke-linecap="round"/>
<path d="M66.0991 382.17L96.0991 373.17" stroke="black" stroke-width="5" stroke-linecap="round"/>
<path d="M96.0991 337.17L68.0991 327.17" stroke="black" stroke-width="5" stroke-linecap="round"/>
<path d="M41.0991 335.17L66.0991 343.17" stroke="black" stroke-width="5" stroke-linecap="round"/>
<path d="M27.1007 288.977C27.4449 279.525 65.9892 282.563 68.3982 282.901V288.977L80.0991 297.079C62.3183 297.529 26.8254 296.539 27.1007 288.977Z" fill="black"/>
<path d="M123.099 288.17V252.17" stroke="black" stroke-width="5" stroke-linecap="round"/>
<path d="M93.0991 297.17V258.17" stroke="black" stroke-width="5" stroke-linecap="round"/>
<path d="M68.0991 288.17V249.17" stroke="black" stroke-width="5" stroke-linecap="round"/>
<path d="M93.0991 297.17L123.099 288.17" stroke="black" stroke-width="5" stroke-linecap="round"/>
<path d="M123.099 252.17L93.0991 258.17" stroke="black" stroke-width="5" stroke-linecap="round"/>
<path d="M68.0991 249.17L95.0991 242.17" stroke="black" stroke-width="5" stroke-linecap="round"/>
<path d="M123.099 252.17L95.0991 242.17" stroke="black" stroke-width="5" stroke-linecap="round"/>
<path d="M68.0991 249.17L93.0991 258.17" stroke="black" stroke-width="5" stroke-linecap="round"/>
<path d="M111.546 217.498L97.4604 239.129C96.7619 240.202 97.2368 241.645 98.4356 242.093L121.138 250.586C122.042 250.925 123.059 250.569 123.555 249.74L136.852 227.519C137.498 226.439 136.998 225.038 135.814 224.611L113.9 216.708C113.027 216.393 112.052 216.72 111.546 217.498Z" stroke="black" stroke-width="5"/>
<path d="M72.0991 212.17L78.0991 225.17" stroke="black" stroke-width="5" stroke-linecap="round"/>
<path d="M53.0991 219.17L71.0991 234.17" stroke="black" stroke-width="5" stroke-linecap="round"/>
<path d="M52.0991 239.17L63.0991 245.17" stroke="black" stroke-width="5" stroke-linecap="round"/>
<path d="M269.305 341.477C272.105 341.477 269.992 341.477 239.138 341.477C200.57 341.477 204.006 321.23 197.897 314.736C192.223 308.706 188.188 312.731 173.281 326.325C171.536 327.916 168.733 327.251 167.894 325.044L160.073 304.469C159.617 303.271 159.884 301.923 160.74 300.969C170.454 290.133 181.739 273.715 202.479 280.354C221.572 286.467 215.462 309.77 233.028 309.77C258.689 309.77 273.124 316.646 273.124 304.421C270.832 273.478 308.637 278.826 305.964 302.893" stroke="black" stroke-width="5" stroke-linecap="round"/>
<path d="M178.599 295.67C179.266 299.504 180.199 307.77 178.599 310.17" stroke="black" stroke-width="5" stroke-linecap="round"/>
<path d="M192.599 290.17V303.17" stroke="black" stroke-width="5" stroke-linecap="round"/>
<path d="M204.599 296.17C203.099 297.67 200.699 302.17 203.099 308.17" stroke="black" stroke-width="5" stroke-linecap="round"/>
<path d="M212.599 305.17C211.099 307.67 208.299 313.27 209.099 315.67" stroke="black" stroke-width="5" stroke-linecap="round"/>
<path d="M220.599 315.17L215.099 324.17" stroke="black" stroke-width="5" stroke-linecap="round"/>
<path d="M234.099 318.67L227.599 328.67" stroke="black" stroke-width="5" stroke-linecap="round"/>
<path d="M244.099 318.17L240.599 331.67" stroke="black" stroke-width="5" stroke-linecap="round"/>
<path d="M254.099 320.67V331.67" stroke="black" stroke-width="5" stroke-linecap="round"/>
<path d="M265.599 319.67V331.17" stroke="black" stroke-width="5" stroke-linecap="round"/>
<path d="M276.599 316.67L278.099 329.17" stroke="black" stroke-width="5" stroke-linecap="round"/>
<path d="M285.099 297.17L287.099 314.67" stroke="black" stroke-width="5" stroke-linecap="round"/>
<path d="M295.599 299.17L294.099 307.67" stroke="black" stroke-width="5" stroke-linecap="round"/>
</svg>
