<svg width="1209" height="1572" viewBox="0 0 1209 1572" fill="none" xmlns="http://www.w3.org/2000/svg">
<path d="M142 407.758H544V1290.76H162C150.954 1290.76 142 1281.8 142 1270.76V407.758Z" fill="#4D4C4C"/>
<path d="M140.099 419.758V1249.75C140.099 1272.1 147.712 1290.26 157.227 1290.26H731.971C741.487 1290.26 749.099 1272.1 749.099 1249.75V940.258M749.099 419.258V832.258" stroke="black" stroke-width="5" stroke-miterlimit="10" stroke-linecap="round"/>
<path d="M688.752 0.822019L832.999 298.723C833.065 298.859 833.099 299.008 833.099 299.159V393.466C833.099 393.692 833.051 393.877 832.908 394.051C785.772 451.461 161.158 445.581 133.222 417.964C133.047 417.79 133.024 417.62 133.024 417.373V298.93L97.2338 1.37723C97.1622 0.781891 97.627 0.257812 98.2266 0.257812H687.851C688.235 0.257812 688.584 0.476985 688.752 0.822019Z" fill="black"/>
<path d="M151.746 1105.4C122.688 1113.42 91.207 1159.98 79.0991 1182.26C97.261 1180.03 138.428 1168.22 157.8 1138.81C177.173 1109.41 161.836 1104.28 151.746 1105.4Z" fill="black"/>
<path d="M137.982 1029.46C109.14 1032.37 88.3965 1103.47 79.0991 1136.26C99.7599 1119.4 140.462 1085.67 150.379 1074.43C168.973 1053.35 165.874 1026.65 137.982 1029.46Z" fill="black"/>
<path d="M45.0903 998.61C25.7039 1029.06 67.7111 1074.81 87.0986 1105.26C87.0986 1086.09 87.0994 1045.98 87.099 1029.06C87.0985 1001.99 59.0888 976.624 45.0903 998.61Z" fill="black"/>
<path d="M82.0991 1150.26C60.2685 1119.78 13.6302 1066.96 1.72262 1099.47C-13.1619 1140.1 79.1222 1150.26 82.0991 1150.26Z" fill="black"/>
<path d="M82.0991 1195.26L79.0991 1082.26" stroke="black" stroke-width="5" stroke-linecap="round"/>
<path d="M52.3339 1281.15C59.6516 1263.26 70.5433 1217.33 72.8194 1195.26H103.548C104.914 1222.46 118.911 1261.47 125.741 1281.15C146.225 1327.68 128.586 1357.5 115.498 1365.26H65.9909C33.5555 1354.52 42.0905 1306.21 52.3339 1281.15Z" stroke="black" stroke-width="5"/>
<path d="M306.099 1470.26V1452.26" stroke="black" stroke-width="5" stroke-linecap="round"/>
<path d="M326.099 1462.26L316.099 1470.26" stroke="black" stroke-width="5" stroke-linecap="round"/>
<path d="M294.099 1471.26L286.099 1459.26" stroke="black" stroke-width="5" stroke-linecap="round"/>
<path d="M1184.1 1521.32C1175.95 1540.12 1140.09 1575.89 1129.08 1558.72C1124.04 1550.86 1129.08 1545.24 1139.06 1533.58C1149.47 1521.45 1149.66 1514.17 1144.57 1510.29C1141.71 1507.84 1134.78 1501.71 1132.34 1499.26" stroke="black" stroke-width="5" stroke-linecap="round"/>
<path d="M1042.91 1507.44C1049.25 1531.06 1029.07 1545.81 1009.1 1547C984.146 1548.48 969.137 1543.41 974.016 1534.96C977.927 1528.2 989.771 1528.65 995.855 1529.12C1007.14 1529.99 1012.59 1518.8 1005.17 1503.26" stroke="black" stroke-width="5" stroke-linecap="round"/>
<path d="M1076.09 1541.99C1076.62 1530.22 1047.73 1534.62 1032.87 1537.54C1029.3 1544.66 1017.4 1546.24 1016.1 1548.01C1033.3 1550.16 1075.56 1553.75 1076.09 1541.99Z" fill="black"/>
<path d="M1206.64 1567.28C1216.13 1558.63 1176.89 1555.65 1156.08 1555.26C1153.08 1559.59 1141.51 1562.67 1136.1 1563.67C1155.66 1568.48 1197.16 1575.93 1206.64 1567.28Z" fill="black"/>
<path d="M879.099 1083.26C830.266 1057.46 784.664 1014.36 773.095 980.667C767.717 962.765 754.589 939.072 775.666 915.905C796.741 892.738 816.148 909.411 823.211 920.644L853.599 954.258" stroke="black" stroke-width="5" stroke-linecap="round"/>
<path d="M910.644 1189.12C899.784 1284.86 923.572 1481.11 984.067 1492.55C1044.57 1503.98 1067.95 1473.28 1072.09 1456.51C1076.84 1478.05 1096.26 1513.67 1135.93 1483.85C1175.6 1454.02 1172.71 1405.97 1166.31 1385.67L1091.66 1178.26C1021.2 1227.36 944.178 1205.47 910.644 1189.12Z" fill="black"/>
<path d="M1089.98 1103.48C1085.02 1114.07 1078.07 1141.93 1089.98 1168.63" stroke="black" stroke-width="5" stroke-linecap="round"/>
<path d="M949.217 991.678C975.599 999.399 998.014 985.243 1005.92 977.2C1045.1 954.757 1066.6 978.257 1079.6 988.257C1102.43 1008.26 1150.6 1054.76 1164.6 1078.76C1170.6 1086.42 1194.1 1122.26 1127.6 1170.76" stroke="black" stroke-width="5" stroke-linecap="round"/>
<path d="M899.045 1038.26C844.815 982.241 861.831 909.216 877.985 892.258C885.369 946.674 929.138 968.281 950.099 972.282V991.717C943.638 987.144 908.275 1022.25 899.045 1038.26Z" fill="black"/>
<path d="M912.018 1191.26C912.018 1181.2 916.519 1151.85 904.011 1128.42C902.732 1124.97 900.813 1121.7 899.313 1118.13C869.734 1047.83 918.432 1011.78 946.099 991.258" stroke="black" stroke-width="5" stroke-linecap="round"/>
<path d="M879.557 853.258C872.567 875.387 871.723 926.573 921.139 961.826C970.556 997.08 1008.6 949.046 1021.45 920.621L1029.95 897.157C1035.8 900.782 1047.63 902.88 1048.08 882.278C1048.53 861.675 1040.34 860.341 1036.18 862.247C1033.91 863.202 1029.15 866.482 1028.25 871.976" stroke="black" stroke-width="5" stroke-linecap="round"/>
<path d="M1120.35 944.279C1099.17 972.95 1077.99 976.391 1068.25 979.258C1038.39 956.689 1015.87 969.989 1005.45 976.558L1003.16 950.754C1019.19 934.24 1028.16 908.321 1030.64 897.426C1036.14 900.638 1042.09 898 1044.38 896.28C1047.24 893.604 1052.05 884.582 1048.39 869.902C1044.72 855.223 1034.65 861.111 1030.07 865.888L1004.31 873.343C1001.1 848.571 984.541 843.032 976.661 843.358C980.324 828.678 968.456 824.626 962.349 823.288C955.938 834.756 945.939 840.682 941.741 843.358C897.776 863.542 866.749 851.96 850.148 833.609C832.401 815.26 826.104 765.947 863.887 747.023C876.042 739.704 906.227 730.146 929.719 750.464C982.958 719.499 1020.41 774.718 1031.62 795.19L1043.64 813.54C1120.58 816.292 1134.47 884.644 1131.8 918.475C1130.91 929.688 1127.27 934.905 1120.35 944.279Z" fill="black"/>
<path d="M1004.1 874.258C1004.1 891.126 991.724 904.258 977.099 904.258C962.474 904.258 950.099 891.126 950.099 874.258C950.099 857.391 962.474 844.258 977.099 844.258C991.724 844.258 1004.1 857.391 1004.1 874.258Z" stroke="black" stroke-width="5"/>
<path d="M932.099 884.758C932.099 901.907 919.724 915.258 905.099 915.258C890.474 915.258 878.099 901.907 878.099 884.758C878.099 867.61 890.474 854.258 905.099 854.258C919.724 854.258 932.099 867.61 932.099 884.758Z" stroke="black" stroke-width="5"/>
<path d="M932.099 878.258L950.099 876.258" stroke="black" stroke-width="5" stroke-linecap="round"/>
<path d="M944.662 894.258C942.266 908.241 934.982 920.993 946.099 927.258" stroke="black" stroke-width="5" stroke-linecap="round"/>
<path d="M896.099 899.258C901.071 899.258 905.099 895.228 905.099 890.258C905.099 885.287 901.071 881.258 896.099 881.258C891.129 881.258 887.099 885.287 887.099 890.258C887.099 895.228 891.129 899.258 896.099 899.258Z" fill="black"/>
<path d="M968.599 886.258C973.295 886.258 977.099 882.452 977.099 877.758C977.099 873.064 973.295 869.258 968.599 869.258C963.905 869.258 960.099 873.064 960.099 877.758C960.099 882.452 963.905 886.258 968.599 886.258Z" fill="black"/>
<path d="M1039.1 875.258C1039.85 877.458 1040.91 882.738 1039.1 886.258" stroke="black" stroke-width="5" stroke-linecap="round"/>
<path d="M1004.1 873.258L1033.1 866.258" stroke="black" stroke-width="5" stroke-linecap="round"/>
<path d="M973.316 859.916C977.973 860.611 987.205 864.523 986.88 874.608" stroke="black" stroke-width="5" stroke-linecap="round"/>
<path d="M904.098 872.913C907.543 873.72 915.599 876.258 915.599 885.258" stroke="black" stroke-width="5" stroke-linecap="round"/>
<path d="M936.099 945.535C941.186 949.422 953.508 953.607 962.099 939.258" stroke="black" stroke-width="5" stroke-linecap="round"/>
<path d="M544.003 957.286V751.758C548.342 789.227 569.242 809.682 579.571 815.519C579.86 815.682 580.177 815.758 580.51 815.758H608.003C609.108 815.758 610.003 816.653 610.003 817.758V987.479C610.003 989.32 607.726 990.183 606.505 988.804L603.695 985.627C602.722 984.527 600.934 984.816 600.358 986.167L592.795 1003.89C592.047 1005.64 589.505 1005.45 589.021 1003.61L577.812 960.931C577.622 960.21 577.043 959.644 576.308 959.522C568.563 958.239 567.186 963.058 567.503 965.758V983.258C567.17 986.091 565.403 991.958 561.003 992.758C556.603 993.558 555.837 988.758 556.003 986.258C556.003 979.424 555.503 964.358 553.503 958.758C552.456 955.826 550.541 956.604 548.619 958.68C547.185 960.229 544.003 959.396 544.003 957.286Z" fill="black" fill-opacity="0.7"/>
<path d="M544.988 724.684C538.304 758.102 550.803 784.547 559.934 795.881C560.856 797.024 562.614 796.678 563.143 795.309L570.01 777.537C570.308 776.766 571.049 776.258 571.876 776.258H630.611C632.833 776.258 633.629 772.636 631.708 771.52C623.697 766.871 614.925 759.762 613.004 751.258C610.491 740.128 604.568 733 601.091 730.089C600.457 729.559 599.555 729.567 598.874 730.035L593.52 733.716C592.663 734.305 591.498 734.139 590.839 733.334L584.821 725.979C583.94 724.901 582.255 725.031 581.55 726.231L579.315 730.03C578.652 731.158 577.102 731.355 576.177 730.43L569.385 723.638C568.617 722.87 567.377 722.855 566.591 723.604L559.097 730.741C558.243 731.554 556.876 731.452 556.092 730.571C553.141 727.253 549.947 724.862 547.668 723.451C546.586 722.781 545.238 723.436 544.988 724.684Z" fill="black"/>
<path d="M562.003 795.758L576.723 813.941C577.714 815.165 579.664 814.818 580.171 813.327L586.616 794.397C586.854 793.696 586.686 792.921 586.179 792.382L571.003 776.258" stroke="black" stroke-width="5" stroke-linecap="round"/>
<path d="M586.503 792.758H655.071C656.867 792.758 657.753 790.574 656.464 789.323L643.585 776.823C643.212 776.46 642.713 776.258 642.192 776.258H572.503" stroke="black" stroke-width="5" stroke-linecap="round"/>
<path d="M579.003 815.258H618.003" stroke="black" stroke-width="5" stroke-linecap="round"/>
<path d="M657.003 791.758L650.003 812.258" stroke="black" stroke-width="5" stroke-linecap="round"/>
<path d="M702.503 850.257L628.903 803.014C628.64 802.845 628.332 802.738 628.02 802.713C617.393 801.851 616.728 809.885 617.836 814.616C617.935 815.036 618.188 815.398 618.531 815.66L649.503 839.257" stroke="black" stroke-width="5" stroke-linecap="round"/>
<path d="M663.503 849.258L692.503 870.758" stroke="black" stroke-width="5" stroke-linecap="round"/>
<path d="M739.503 904.258L756.957 915.409C757.312 915.636 757.729 915.749 758.148 915.702C763.829 915.063 773.434 910.137 771.624 894.686C771.556 894.102 771.217 893.577 770.719 893.265L736.503 871.758" stroke="black" stroke-width="5" stroke-linecap="round"/>
<path d="M771.504 894.258C765.338 893.925 753.904 897.658 757.504 915.258" stroke="black" stroke-width="5" stroke-linecap="round"/>
<path d="M733.598 864.257C723.598 867.424 705.099 864.257 704.225 853.758C702.964 838.611 739.226 852.424 756.726 858.757C763.392 861.59 776.999 869.957 780.599 882.757" stroke="black" stroke-width="5" stroke-linecap="round"/>
<path d="M710.504 874.257C712.417 870.048 709.908 867.639 708.227 866.854C708.08 866.785 707.921 866.745 707.76 866.725C696.29 865.29 685.589 874.309 687.484 890.098C687.497 890.203 687.517 890.304 687.547 890.404C689.985 898.623 699.718 915.167 719.599 916.757" stroke="black" stroke-width="5" stroke-linecap="round"/>
<path d="M723.503 880.258C720.503 874.258 714.003 868.258 705.003 880.258C703.67 881.925 701.403 887.058 703.003 894.258" stroke="black" stroke-width="5" stroke-linecap="round"/>
<path d="M722.1 900.758C720.266 890.258 717.807 878.157 729.007 881.757C740.207 885.357 738.34 898.924 736.007 905.257" stroke="black" stroke-width="5" stroke-linecap="round"/>
<path d="M664.41 1529.58C695.41 1531.08 693.91 1509.58 687.41 1508.08C683.01 1504.48 692.243 1503.58 697.41 1503.58C730.41 1505.74 798.61 1505.98 807.41 1489.58C816.21 1473.18 782.076 1463.74 763.91 1461.08V1470.58C718.91 1500.58 650.41 1485.24 626.41 1470.58V1441.08C606.076 1441.24 560.61 1441.88 549.41 1443.08C538.21 1444.28 537 1451.9 538.5 1454.26C542 1459.76 530.41 1481.58 510.41 1484.58C495.41 1487.74 468.31 1496.88 479.91 1508.08C494.41 1522.08 632.804 1528.05 664.41 1529.58Z" fill="black"/>
<path d="M634.91 1343.08C632.075 1343.89 629.633 1346.4 627.674 1349.22C626.456 1350.98 623.239 1350.26 623.186 1348.13L622.503 1320.82C622.463 1319.22 624.231 1318.2 625.646 1318.94C654.573 1334.14 716.625 1331.37 748.459 1327.57C750.096 1327.38 751.256 1329.13 750.448 1330.57L748.548 1333.94C748.16 1334.63 747.398 1335.02 746.606 1335C735.551 1334.77 732.235 1345.89 731.928 1352.11C731.912 1352.42 731.829 1352.73 731.68 1353C722.144 1370.48 711.878 1364.37 707.91 1359.08C702.243 1351.41 691.31 1340.38 692.91 1357.58C694.489 1374.56 695.387 1387.25 691.079 1390.46C690.968 1390.54 690.84 1390.61 690.711 1390.66C678.843 1395.2 672.901 1378.86 671.41 1370.08C670.051 1362.08 669.41 1352.08 662.91 1353.58C655.984 1355.18 658.339 1359.94 658.887 1363.91C658.903 1364.02 658.925 1364.13 658.959 1364.24C662.935 1377.38 666.056 1413.8 652.91 1418.58C639.71 1423.38 640.076 1379.91 641.91 1357.58C641.91 1352.08 640.51 1341.48 634.91 1343.08Z" fill="black"/>
<path d="M763.91 1471.08L769.41 1319.58" stroke="black" stroke-width="5" stroke-linecap="round"/>
<path d="M627.41 1470.58L621.91 1316.58" stroke="black" stroke-width="5" stroke-linecap="round"/>
<path d="M728.41 1304.08C766.41 1306.48 771.577 1315.41 769.41 1319.58C746.41 1338.58 622.91 1325.58 621.91 1316.08C620.91 1306.58 680.91 1301.08 728.41 1304.08Z" fill="black" fill-opacity="0.7"/>
<path d="M728.41 1304.08C766.41 1306.48 771.577 1315.41 769.41 1319.58C746.41 1338.58 622.91 1325.58 621.91 1316.08C620.91 1306.58 680.91 1301.08 728.41 1304.08Z" stroke="black" stroke-width="5" stroke-linecap="round"/>
<path d="M758.41 1351.58C758.41 1356.35 756.982 1360.56 754.797 1363.53C752.61 1366.5 749.793 1368.08 746.91 1368.08C744.026 1368.08 741.209 1366.5 739.023 1363.53C736.837 1360.56 735.41 1356.35 735.41 1351.58C735.41 1346.81 736.837 1342.59 739.023 1339.63C741.209 1336.66 744.026 1335.08 746.91 1335.08C749.793 1335.08 752.61 1336.66 754.797 1339.63C756.982 1342.59 758.41 1346.81 758.41 1351.58Z" stroke="black" stroke-width="5"/>
<path d="M747.41 1348.58C757.41 1362.58 773.647 1394.67 778.41 1406.58C782.41 1416.58 779.91 1427.58 776.91 1431.58C774.66 1434.58 767.91 1436.18 765.91 1428.58" stroke="black" stroke-width="5" stroke-linecap="round"/>
<path d="M1143.29 1178.34C1152.62 1187.51 1164.59 1207.54 1137.79 1214.34" stroke="black" stroke-width="5" stroke-linecap="round"/>
<path d="M1143.29 1197.84C1141.71 1189.68 1135.25 1174.29 1121.29 1169.35C1118.99 1168.54 1116.5 1168.01 1113.79 1167.84" stroke="black" stroke-width="5" stroke-linecap="round"/>
<path d="M1115.6 1108.26C1097.43 1120.45 1079.28 1165.54 1105.28 1196.34C1131.28 1227.14 1141.45 1229.84 1143.28 1227.34" stroke="black" stroke-width="5" stroke-linecap="round"/>
<path d="M1042.1 1049.26C1050.1 1064.42 1074.4 1095.16 1107.6 1096.76" stroke="black" stroke-width="5" stroke-linecap="round"/>
</svg>
