<svg width="1730" height="1125" viewBox="0 0 1730 1125" fill="none" xmlns="http://www.w3.org/2000/svg">
<path d="M385.716 590.141C382.987 593.871 383.553 603.494 407.599 612.141" stroke="black" stroke-width="5" stroke-linecap="round"/>
<path d="M414.931 584.141C407.8 584.121 400.892 583.652 384.698 578.377C380.884 577.176 378.251 574.194 377.413 572.853C374.386 567.613 380.406 562.985 385.826 563.145C417.601 550.141 444.099 568.141 450.101 584.141C461.934 605.975 470.299 645.341 409.099 628.141" stroke="black" stroke-width="5" stroke-linecap="round"/>
<path d="M414.599 583.921C407.466 583.901 400.555 583.431 384.355 578.141C380.66 579.477 380.181 585.838 386.031 589.808C389.726 592.325 396.415 595.412 407.466 599.141" stroke="black" stroke-width="5" stroke-linecap="round"/>
<path d="M196.6 767.141C160.172 728.436 154.162 697.771 155.774 685.475C155.912 684.429 156.916 683.778 157.961 683.918C184.765 687.505 205.889 672.688 213.456 664.457C214.136 663.718 215.23 663.539 216.125 663.994C235.269 673.709 278.812 661.708 298.76 652.934C300.308 652.253 302.073 653.671 301.959 655.358C299.794 687.334 366.423 680.84 398.394 675.264C398.861 675.183 399.261 675.227 399.657 675.488C426.891 693.365 519.416 888.737 493.099 902.641C474.548 912.441 442.138 908.663 422.937 904.439C420.933 903.998 418.078 907.513 418.556 909.509C419.851 914.915 420.424 921.941 420.576 926.367C420.593 926.866 420.442 927.337 420.081 927.683C407.805 939.442 336.868 942.543 300.813 942.638C299.815 942.641 298.999 941.91 298.85 940.923C289.736 880.45 244.149 817.662 196.6 767.141Z" fill="black"/>
<path d="M663.982 652.48C564.792 652.48 567.554 825.907 592.099 933.141C601.599 974.641 635.084 1015.38 682.1 986.141C709.105 969.345 721.259 918.933 726.393 868.55C726.626 866.262 730.033 866.027 730.548 868.269C740.461 911.424 757.934 977.427 778.6 999.141C820.815 1043.5 858.79 1007.13 871.1 986.141C895.674 951.525 905.255 803.226 873.979 731.761C834.884 642.43 787.969 652.48 663.982 652.48Z" fill="black"/>
<path d="M618.619 994.141V1019.13C618.619 1019.46 618.545 1019.77 618.393 1020.05C602.597 1050.1 578.433 1108.7 606.501 1106.05C634.703 1103.39 662.317 1042.16 672.599 1011.87" stroke="black" stroke-width="5" stroke-linecap="round"/>
<path d="M796.599 1021.14C803.364 1055.54 822.305 1123.9 843.952 1122.11C865.599 1120.31 856.73 1054.05 849.589 1021.14" stroke="black" stroke-width="5" stroke-linecap="round"/>
<path d="M569.092 705.401C542.694 694.242 516.747 667.926 544.553 603.85C569.092 547.302 599.088 447.616 698.26 400.141M821.045 414.317C898.628 458.195 973.765 682.859 892.563 722.141" stroke="black" stroke-width="5" stroke-linecap="round"/>
<path d="M652.599 495.141L825.599 512.141" stroke="black" stroke-width="5" stroke-linecap="round"/>
<path d="M685.599 452.141L812.599 462.641" stroke="black" stroke-width="5" stroke-linecap="round"/>
<path d="M613.599 543.141L857.599 561.141" stroke="black" stroke-width="5" stroke-linecap="round"/>
<path d="M579.599 596.141H609.599" stroke="black" stroke-width="5" stroke-linecap="round"/>
<path d="M850.599 614.141H893.599" stroke="black" stroke-width="5" stroke-linecap="round"/>
<path d="M566.599 647.141H594.599" stroke="black" stroke-width="5" stroke-linecap="round"/>
<path d="M869.599 662.141H893.599" stroke="black" stroke-width="5" stroke-linecap="round"/>
<path d="M642.599 603.147C673.311 591.464 742.163 579.412 777.159 622.006C778.201 623.274 777.28 625.141 775.64 625.141H748.156" stroke="black" stroke-width="5" stroke-linecap="round"/>
<path d="M710.599 614.141C724.744 616.72 757.946 628.73 777.599 656.141" stroke="black" stroke-width="5" stroke-linecap="round"/>
<path d="M709.599 630.141C722.876 635.052 751.863 648.727 761.599 664.141" stroke="black" stroke-width="5" stroke-linecap="round"/>
<path d="M718.156 649.141C720.405 650.24 765.376 670.027 741.766 676.623C718.156 683.219 682.18 623.857 613.599 663.432" stroke="black" stroke-width="5" stroke-linecap="round"/>
<path d="M678.599 654.141C671.108 663.737 659.947 684.771 675.228 692.141" stroke="black" stroke-width="5" stroke-linecap="round"/>
<path d="M692.599 662.141C685.844 671.353 673.955 697.377 692.598 700.141" stroke="black" stroke-width="5" stroke-linecap="round"/>
<path d="M709.599 676.141C700.402 685.371 687 704.294 706.971 706.141" stroke="black" stroke-width="5" stroke-linecap="round"/>
<path d="M719.853 687.848C715.383 692.303 699.74 715.691 723.206 705.667C740.509 698.277 758.817 682.75 762.746 676.875C763.23 676.15 764.008 675.61 764.88 675.607C788.189 675.534 827.142 664.895 807.006 622.141" stroke="black" stroke-width="5" stroke-linecap="round"/>
<path d="M794.692 387.252C799.067 374.976 795.067 366.714 791.186 365.141C767.798 385.916 732.326 378.204 719.186 365.612C714.505 369.767 717.228 382.059 719.186 385.836C744.513 413.033 780.565 397.798 794.692 387.252Z" fill="black"/>
<path d="M831.395 245.472C844.598 232.141 848.219 218.041 852.599 196.141C856.598 176.141 853.6 150.141 841.6 142.641C828.403 151.441 813.432 147.641 807.596 144.641C780.392 129.841 749.927 135.474 738.096 140.141C705.296 150.541 663.096 140.474 646.096 134.141C638.596 146.141 634.599 209.141 650.891 262.264C657.81 253.951 674.107 245.362 684.05 277.504C687.501 283.277 693.873 288.311 691.652 262.264C688.885 229.707 684.05 215.16 684.05 215.16C684.05 215.16 717.773 191.607 717.209 155.587C732.653 166.209 776.489 187.451 828.44 187.451C828.44 199.459 831.395 228.294 831.395 245.472Z" fill="black"/>
<path d="M684.599 302.056C693.59 356.932 753.913 396.393 797.45 351.938C840.987 307.484 832.27 226.112 827.62 188.141" stroke="black" stroke-width="5" stroke-linecap="round"/>
<path d="M650.394 258.141C645.113 271.512 650.068 301.141 684.599 301.141" stroke="black" stroke-width="5" stroke-linecap="round"/>
<path d="M667.792 266.141C667.18 268.616 667.67 274.484 674.599 278.141" stroke="black" stroke-width="5" stroke-linecap="round"/>
<path d="M827.599 294.141C838.986 289.345 847.025 271.583 843.932 243.141" stroke="black" stroke-width="5" stroke-linecap="round"/>
<path d="M761.599 327.467C772.219 330.664 771.548 321.863 779.599 314.141" stroke="black" stroke-width="5" stroke-linecap="round"/>
<path d="M796.099 265.141C800.241 265.141 803.599 261.559 803.599 257.141C803.599 252.722 800.241 249.141 796.099 249.141C791.957 249.141 788.599 252.722 788.599 257.141C788.599 261.559 791.957 265.141 796.099 265.141Z" fill="black"/>
<path d="M730.099 265.141C734.794 265.141 738.599 262.007 738.599 258.141C738.599 254.275 734.794 251.141 730.099 251.141C725.405 251.141 721.599 254.275 721.599 258.141C721.599 262.007 725.405 265.141 730.099 265.141Z" fill="black"/>
<path d="M713.599 241.141C715.245 236.916 722.359 229.101 737.599 231.636" stroke="black" stroke-width="5" stroke-linecap="round"/>
<path d="M783.599 232.141C787.233 229.877 797.125 226.707 807.599 232.141" stroke="black" stroke-width="5" stroke-linecap="round"/>
<path d="M758.398 255.141C757.247 264.696 756.447 284.074 762.599 285.141" stroke="black" stroke-width="5" stroke-linecap="round"/>
<path d="M783.13 15.1823C653.598 -14.3937 641.808 98.4557 644.897 132.866C644.964 133.612 645.436 134.196 646.139 134.456C662.489 140.5 702.616 149.572 741.629 140.488C781.573 131.187 796.098 140.488 812.958 146.301C819.443 148.239 834.097 150.305 840.841 143.071C849.271 134.029 859.592 32.6408 783.13 15.1823Z" stroke="black" stroke-width="5" stroke-linecap="round"/>
<path d="M698.099 110.14C721.432 107.64 776.099 105.34 808.099 116.14" stroke="black" stroke-width="5" stroke-linecap="round"/>
<path d="M1246.21 363.024C1246.21 346.738 1253.92 338.596 1259.6 329.654C1275.07 305.321 1274.38 292.08 1268.25 252.116" stroke="black" stroke-width="5" stroke-linecap="round"/>
<path d="M1225.15 273.088C1232.02 270.787 1242.78 260.825 1230.82 239.391" stroke="black" stroke-width="5" stroke-linecap="round"/>
<path d="M1129.03 245.611C1122.09 232.391 1114.2 235.133 1111.12 238.157C1088.46 258.979 1117.61 277.83 1135.02 284.652C1137.19 292.939 1143.76 311.141 1152.76 317.655" stroke="black" stroke-width="5" stroke-linecap="round"/>
<path d="M1118.02 251.129C1118.92 255.241 1122.91 263.301 1131.64 262.641" stroke="black" stroke-width="5" stroke-linecap="round"/>
<path d="M1163.68 218.059C1166.66 216.298 1174.54 213.263 1182.25 215.21" stroke="black" stroke-width="5" stroke-linecap="round"/>
<path d="M1239.44 210.751C1243 208.901 1252.37 205.638 1261.39 207.383" stroke="black" stroke-width="5" stroke-linecap="round"/>
<path d="M1273.64 195.748C1279.6 64.1238 1199.1 98.6238 1129.6 133.124C1096.6 149.505 1087.1 153.624 1062.6 166.124C1054.69 191.075 1083.93 231.045 1103.26 249.79C1106.8 237.09 1117.29 235.046 1122.1 235.611C1116.2 168.09 1159.16 170.731 1181.39 180.491C1223.35 172.314 1236.49 187.521 1237.81 196.146C1254.34 181.776 1271.93 192.971 1273.64 195.748Z" fill="black"/>
<circle cx="1178.8" cy="232.151" r="29.9477" transform="rotate(-8.72379 1178.8 232.151)" stroke="black" stroke-width="5"/>
<ellipse cx="1189.79" cy="237.109" rx="7.25804" ry="8.96581" transform="rotate(-28.616 1189.79 237.109)" fill="black"/>
<path d="M1285.21 215.823C1287.71 232.141 1276.34 247.482 1259.72 250.031C1243.11 252.58 1227.66 241.355 1225.16 225.037C1222.66 208.719 1234.03 193.378 1250.64 190.829C1267.25 188.28 1282.7 199.505 1285.21 215.823Z" stroke="black" stroke-width="5"/>
<ellipse cx="1265.63" cy="226.134" rx="7.59913" ry="8.96581" transform="rotate(-23.092 1265.63 226.134)" fill="black"/>
<path d="M1224.1 224.987L1209.18 227.49" stroke="black" stroke-width="5" stroke-linecap="round"/>
<path d="M1147.77 232.594L1126.6 241.025" stroke="black" stroke-width="5" stroke-linecap="round"/>
<path d="M1242.08 295.501C1238.02 301.883 1225.16 311.919 1206.21 301.005" stroke="black" stroke-width="5" stroke-linecap="round"/>
<path d="M1168.66 721.877C1158.6 716.044 1152.18 697.972 1150.15 689.338C1150.11 689.191 1150.1 689.047 1150.1 688.896C1150.49 655.946 1235.2 617.57 1277.6 594.622C1310.8 576.654 1312.69 543.874 1309.35 528.687C1309.2 528.016 1309.37 527.333 1309.85 526.84C1321.52 514.8 1353.3 485.291 1393.6 457.122C1434.8 428.322 1471.77 459.455 1485.1 478.622C1513.43 513.789 1573.1 588.522 1585.1 606.122C1600.1 628.122 1596.6 665.622 1557.1 678.122C1525.97 687.974 1465.58 635.705 1433.52 588.733C1432.79 587.658 1431.22 587.584 1430.34 588.543C1393.63 628.529 1383.06 627.278 1361.84 642.264C1360.5 643.214 1360.59 645.207 1361.88 646.228C1368.62 651.549 1385.6 668.571 1411.6 700.622C1446 743.022 1455.1 846.122 1448.1 911.622C1444.23 947.814 1435.6 998.122 1397.6 984.622C1345.02 965.944 1327.84 815.559 1322.7 747.533C1322.64 746.667 1322.03 745.988 1321.19 745.753C1307.9 742.013 1284.76 728.953 1274.07 722.412C1273.76 722.219 1273.4 722.122 1273.03 722.122H1169.6C1169.27 722.122 1168.95 722.043 1168.66 721.877Z" fill="black"/>
<path d="M1383.6 998.121C1384.1 1007.79 1389.8 1029.62 1408.6 1039.62C1427.4 1049.62 1468.77 1059.45 1487.1 1063.12C1497.6 1067.12 1511.76 1049.21 1474.1 1026.62C1454.1 1014.62 1443.6 1007.12 1449.1 986.621" stroke="black" stroke-width="5" stroke-linecap="round"/>
<path d="M1566.86 682.752C1568.83 693.728 1574.72 716.749 1582.43 721.022L1660.1 721.022C1667.6 716.192 1674.6 694.642 1651.1 694.642C1636.93 695.475 1607.6 691.042 1603.6 666.642" stroke="black" stroke-width="5" stroke-linecap="round"/>
<path d="M1150.1 689.621C1130.1 665.121 1114.7 656.421 1125.1 573.621" stroke="black" stroke-width="5" stroke-linecap="round"/>
<path d="M1074.1 702.994C1065.43 708.328 1050.7 720.894 1063.1 722.494H1097.6C1105.6 716.161 1119.5 699.594 1111.1 683.994C1100.6 664.494 1029.1 672.494 969.599 720.994" stroke="black" stroke-width="5" stroke-linecap="round"/>
<path d="M1062.1 709.496C1056.43 710.329 1043.6 713.896 1037.6 721.496" stroke="black" stroke-width="5" stroke-linecap="round"/>
<path d="M1108.6 660.139C1082.32 653.326 1039.93 677.303 1016.48 671.209C1015.42 670.934 1014.86 669.849 1015.2 668.81C1045.67 575.053 1064.08 379.132 1165.48 367.293C1166.41 367.185 1167.29 367.716 1167.58 368.605C1185.4 423.101 1219.58 539.71 1217.6 582.121" stroke="black" stroke-width="5" stroke-linecap="round"/>
<path d="M1217.1 401.121C1234.6 451.288 1268.4 561.121 1263.6 599.121" stroke="black" stroke-width="5" stroke-linecap="round"/>
<path d="M1298.6 578.121L1245.7 397.378C1245.24 395.812 1246.72 394.395 1248.23 395.016C1274.65 405.875 1322.96 440.606 1330.6 505.121" stroke="black" stroke-width="5" stroke-linecap="round"/>
<path d="M1128.1 415.621L1142.42 432.183C1143.27 433.167 1144.82 433.09 1145.57 432.025L1157.1 415.621" stroke="black" stroke-width="5" stroke-linecap="round"/>
<path d="M1076.6 498.621L1090.92 515.183C1091.77 516.167 1093.32 516.09 1094.07 515.025L1105.6 498.621" stroke="black" stroke-width="5" stroke-linecap="round"/>
<path d="M1056.6 612.621L1070.92 629.183C1071.77 630.167 1073.32 630.09 1074.07 629.025L1085.6 612.621" stroke="black" stroke-width="5" stroke-linecap="round"/>
<path d="M1150.6 573.621L1164.92 590.183C1165.77 591.167 1167.32 591.09 1168.07 590.025L1179.6 573.621" stroke="black" stroke-width="5" stroke-linecap="round"/>
<path d="M1179.6 487.621L1194.06 498.917C1194.91 499.586 1196.15 499.449 1196.84 498.608L1200.1 494.621" stroke="black" stroke-width="5" stroke-linecap="round"/>
<path d="M1274.1 461.621L1289.2 472.279C1290.2 472.985 1291.59 472.635 1292.14 471.539L1297.1 461.621" stroke="black" stroke-width="5" stroke-linecap="round"/>
<path d="M1261.83 123.491C1291.03 112.691 1302.66 99.6574 1304.83 94.4907C1326.03 39.2907 1145.99 121.824 1053.33 169.991C1046.58 173.202 1039.1 182.424 1063.1 193.624" stroke="black" stroke-width="5" stroke-linecap="round"/>
<path d="M1126.1 3.62254C1146.93 0.789204 1219.53 8.48902 1252.33 80.489" stroke="black" stroke-width="5" stroke-linecap="round"/>
<path d="M1227.33 88.9883C1215.16 61.3216 1174.63 8.48825 1109.83 18.4883C1045.03 28.4883 1046.16 109.322 1054.83 148.488" stroke="black" stroke-width="5" stroke-linecap="round"/>
<path d="M742.098 21.1406C739.432 34.8073 734.898 66.7406 738.098 85.1406" stroke="black" stroke-width="5" stroke-linecap="round"/>
<path d="M763.599 22.6406C767.266 35.474 773.499 65.9406 769.099 85.1406" stroke="black" stroke-width="5" stroke-linecap="round"/>
<path d="M271.599 454.141C281.599 456.807 305.099 460.541 319.099 454.141" stroke="black" stroke-width="5" stroke-linecap="round"/>
<path d="M128.572 559.521C-5.40962 504.388 126.166 362.356 209.55 297.567C209.913 297.285 210.35 297.147 210.809 297.157L272.097 298.605C272.987 298.626 273.76 299.215 273.922 300.09C277.976 322.04 253.309 377.424 239.776 400.497C239.362 401.203 239.422 402.071 239.938 402.707C251.191 416.58 269.353 422.542 278.106 423.99C278.732 424.093 279.289 424.465 279.543 425.047C283.238 433.515 277.628 447.446 273.739 454.512C273.357 455.206 272.59 455.588 271.808 455.466C259.15 453.491 246.322 443.923 240.314 438.312C239.6 437.646 238.536 437.539 237.748 438.115C202.316 464.039 152.568 528.369 130.992 558.874C130.456 559.632 129.43 559.874 128.572 559.521Z" fill="black"/>
<path d="M315.599 457.141V423.641C331.599 423.641 360.932 395.641 373.599 381.641C391.099 408.141 403.099 454.141 367.099 475.141C331.099 496.141 321.599 471.141 322.099 463.641C322.499 457.641 317.932 456.807 315.599 457.141Z" fill="black"/>
<path d="M392.599 327.141C362.199 334.341 344.432 312.641 339.099 301.641H398.599C403.399 313.641 398.599 325.141 392.599 327.141Z" fill="black"/>
<ellipse cx="306.076" cy="347.321" rx="5.96153" ry="7.13629" transform="rotate(30.7362 306.076 347.321)" fill="black"/>
<ellipse cx="347.371" cy="350.321" rx="5.96153" ry="7.13629" transform="rotate(30.7362 347.371 350.321)" fill="black"/>
<path d="M332.045 344.659C332.331 343.309 331.469 341.982 330.118 341.695C328.767 341.409 327.44 342.271 327.154 343.622L332.045 344.659ZM316.656 374.375C315.405 373.791 313.918 374.332 313.334 375.583C312.75 376.835 313.291 378.322 314.542 378.906L316.656 374.375ZM327.154 343.622C326.203 348.105 326.321 353.15 326.604 357.807C326.895 362.621 327.345 366.901 327.226 370.431C327.167 372.168 326.97 373.518 326.629 374.51C326.298 375.473 325.892 375.932 325.493 376.173C325.085 376.42 324.321 376.657 322.853 376.458C321.368 376.257 319.351 375.633 316.656 374.375L314.542 378.906C317.472 380.273 320.002 381.118 322.182 381.413C324.378 381.71 326.395 381.47 328.08 380.452C329.775 379.427 330.775 377.832 331.358 376.135C331.931 374.466 332.157 372.551 332.223 370.6C332.353 366.756 331.865 361.973 331.595 357.505C331.314 352.881 331.246 348.426 332.045 344.659L327.154 343.622Z" fill="black"/>
<path d="M294.099 392.141C296.766 395.974 304.399 403.341 313.599 402.141" stroke="black" stroke-width="5" stroke-linecap="round"/>
<path d="M208.599 297.141C214.599 297.141 342.766 299.807 406.099 301.141C427.266 302.141 465.599 298.841 449.599 277.641C443.099 272.141 423.599 262.141 397.599 266.141C399.599 232.307 383.099 161.241 301.099 147.641" stroke="black" stroke-width="5" stroke-linecap="round"/>
<path d="M379.099 269.641C384.932 245.474 377.499 187.241 301.099 147.641" stroke="black" stroke-width="5" stroke-linecap="round"/>
<path d="M342.101 273.642C345.934 241.808 323.599 174.642 265.602 174.642C234.099 172.245 191.801 197.642 196.601 273.642" stroke="black" stroke-width="5" stroke-linecap="round"/>
<path d="M136.597 558.141C133.597 560.641 60.5878 656.307 144.099 680.641C219.601 702.641 244.265 617.641 250.598 581.141" stroke="black" stroke-width="5" stroke-linecap="round"/>
<path d="M136.599 649.641L170.099 624.641" stroke="black" stroke-width="5" stroke-linecap="round"/>
<path d="M205.599 580.641L216.599 612.141" stroke="black" stroke-width="5" stroke-linecap="round"/>
<path d="M167.099 533.641L209.599 530.641" stroke="black" stroke-width="5" stroke-linecap="round"/>
<path d="M252.099 501.641V537.641" stroke="black" stroke-width="5" stroke-linecap="round"/>
<path d="M250.099 462.141L259.099 451.141" stroke="black" stroke-width="5" stroke-linecap="round"/>
<path d="M302.599 481.641C305.399 484.441 311.766 496.141 314.599 501.641" stroke="black" stroke-width="5" stroke-linecap="round"/>
<path d="M283.1 518.641C279.1 522.474 272.3 532.541 277.1 542.141C283.1 554.141 290.599 561.641 288.099 584.141" stroke="black" stroke-width="5" stroke-linecap="round"/>
<path d="M302.1 579.141L304.518 555.43C304.57 554.923 304.43 554.423 304.125 554.015C296.407 543.707 284.074 521.37 302.1 513.141C318.37 505.713 330.627 502.951 336.242 502.295C337.288 502.173 338.183 502.949 338.32 503.993C340.181 518.199 347.036 538.907 368.1 533.641C387.491 528.793 388.314 515.131 386.343 508.555C386.019 507.475 386.443 506.244 387.479 505.799C397.26 501.595 414.233 497.285 423.6 521.641C426.083 528.095 424.917 539.677 414.325 544.539C414.178 544.607 414.034 544.691 413.908 544.794C409.618 548.311 410.206 554.093 410.6 557.641" stroke="black" stroke-width="5" stroke-linecap="round"/>
<path d="M420.099 633.641C422.933 646.307 422.199 672.141 396.599 674.141C364.599 676.641 302.599 687.641 303.599 653.641" stroke="black" stroke-width="5" stroke-linecap="round"/>
<circle cx="381.099" cy="647.641" r="5.5" fill="black"/>
<circle cx="345.099" cy="616.641" r="5.5" fill="black"/>
<circle cx="353.099" cy="572.641" r="5.5" fill="black"/>
<path d="M351.099 479.641C355.766 481.807 376.599 494.141 386.599 517.641" stroke="black" stroke-width="5" stroke-linecap="round"/>
<path d="M238.099 403.141C275.932 431.474 360.299 452.741 395.099 323.141" stroke="black" stroke-width="5" stroke-linecap="round"/>
<path d="M381.6 942.641C379.266 948.474 380.6 960.141 404.6 960.141C434.6 960.141 475.599 971.141 458.099 992.641C443.599 1005.64 352.399 1003.84 339.599 962.641" stroke="black" stroke-width="5" stroke-linecap="round"/>
<path d="M466.099 973.641C493.099 975.974 539.499 973.141 509.099 943.141C492.599 931.641 446.299 931.041 445.099 914.641" stroke="black" stroke-width="5" stroke-linecap="round"/>
<path d="M257.099 599.139C259.099 597.139 292.599 575.639 310.599 581.639C328.599 587.639 299.099 590.139 277.099 605.139" stroke="black" stroke-width="5" stroke-linecap="round"/>
<path d="M276.599 623.641C280.599 622.141 307.099 606.641 317.599 604.141" stroke="black" stroke-width="5" stroke-linecap="round"/>
<path d="M284.099 643.642C292.266 637.142 310.499 624.242 318.099 624.642" stroke="black" stroke-width="5" stroke-linecap="round"/>
<path d="M313.099 639.141C300.432 652.474 263.299 676.241 216.099 664.641" stroke="black" stroke-width="5" stroke-linecap="round"/>
<path d="M5.09912 754.141V723.641H165.599" stroke="black" stroke-width="5" stroke-linecap="round"/>
<path d="M441.099 723.641H578.099" stroke="black" stroke-width="5" stroke-linecap="round"/>
<path d="M881.599 724.141H1273.6" stroke="black" stroke-width="5" stroke-linecap="round"/>
<path d="M22.0991 830.141V757.141H182.599" stroke="black" stroke-width="5" stroke-linecap="round"/>
<path d="M460.599 757.141H568.099" stroke="black" stroke-width="5" stroke-linecap="round"/>
<path d="M893.599 757.141H1314.6" stroke="black" stroke-width="5" stroke-linecap="round"/>
<path d="M3.09912 845.141V875.141L269.599 872.141" stroke="black" stroke-width="5" stroke-linecap="round"/>
<path d="M504.099 872.141H570.099" stroke="black" stroke-width="5" stroke-linecap="round"/>
<path d="M904.099 872.141L1328.6 874.641" stroke="black" stroke-width="5" stroke-linecap="round"/>
<path d="M24.0991 844.641H253.099" stroke="black" stroke-width="5" stroke-linecap="round"/>
<path d="M1725.1 754.641V724.141H1435.6" stroke="black" stroke-width="5" stroke-linecap="round"/>
<path d="M1708.1 830.641V757.641H1447.6" stroke="black" stroke-width="5" stroke-linecap="round"/>
<path d="M1727.1 845.641V875.641L1460.6 872.641" stroke="black" stroke-width="5" stroke-linecap="round"/>
<path d="M1706.1 845.141H1460.1" stroke="black" stroke-width="5" stroke-linecap="round"/>
<path d="M499.599 844.641H570.599" stroke="black" stroke-width="5" stroke-linecap="round"/>
<path d="M904.598 845.155L1323.1 845.155" stroke="black" stroke-width="5" stroke-linecap="round"/>
</svg>
