<svg width="1138" height="1230" viewBox="0 0 1138 1230" fill="none" xmlns="http://www.w3.org/2000/svg">
<path d="M743.599 783.652V941.217C743.599 941.744 744.007 942.18 744.532 942.215L877.027 951.148C877.075 951.151 877.123 951.151 877.171 951.147L929.599 947.152" stroke="black" stroke-width="7" stroke-linecap="round"/>
<path d="M743.599 783.152L875.976 766.791C876.573 766.717 877.099 767.183 877.099 767.784V949.152" stroke="black" stroke-width="7" stroke-linecap="round"/>
<path d="M903.5 768.152L1073.66 779.092C1074.19 779.126 1074.6 779.563 1074.6 780.09V846.152" stroke="black" stroke-width="7" stroke-linecap="round"/>
<path d="M744.099 942.152H694.099C693.547 942.152 693.099 942.6 693.099 943.152V1002.29C693.099 1002.79 693.461 1003.21 693.95 1003.28L841.45 1025.48C842.055 1025.57 842.599 1025.1 842.599 1024.49V967.152" stroke="black" stroke-width="7" stroke-linecap="round"/>
<path d="M842.099 1025.65L960.599 1014.65" stroke="black" stroke-width="7" stroke-linecap="round"/>
<path d="M912.099 1022.65V897.652L966.099 1022.65H912.099Z" fill="black" fill-opacity="0.3"/>
<path d="M1062.02 962.457L984.035 800.141C983.383 798.784 984.408 797.22 985.913 797.277L1021.4 798.607C1022.14 798.635 1022.8 799.066 1023.12 799.729L1101.47 960.37C1101.85 961.137 1101.69 962.057 1101.09 962.661L1085.15 978.6C1084.8 978.955 1084.32 979.164 1083.82 979.184L1052.28 980.463C1050.52 980.534 1049.53 978.461 1050.7 977.141L1061.72 964.647C1062.25 964.044 1062.37 963.182 1062.02 962.457Z" fill="black"/>
<path d="M1017.51 1009.77L1010.04 1017.56C1008.79 1018.86 1009.77 1021.02 1011.57 1020.94L1041.37 1019.68C1041.84 1019.66 1042.29 1019.48 1042.64 1019.16L1049.79 1012.63C1051.14 1011.4 1050.27 1009.15 1048.44 1009.15H1018.95C1018.41 1009.15 1017.89 1009.37 1017.51 1009.77Z" fill="black"/>
<path d="M792.599 794.405V778.903C792.599 777.901 793.341 777.053 794.335 776.921L820.335 773.454C821.534 773.294 822.599 774.227 822.599 775.437V791.372C822.599 792.387 821.839 793.241 820.831 793.359L794.831 796.392C793.643 796.531 792.599 795.602 792.599 794.405Z" fill="black"/>
<path d="M747.599 995.908V1008.94C747.599 1009.92 748.318 1010.76 749.292 1010.92L774.292 1014.79C775.505 1014.98 776.599 1014.04 776.599 1012.82V998.925C776.599 997.914 775.843 997.061 774.839 996.94L749.839 993.923C748.648 993.779 747.599 994.709 747.599 995.908Z" fill="black"/>
<path d="M794.599 927.652V943.307C794.599 944.349 795.399 945.217 796.438 945.301L823.438 947.478C824.603 947.572 825.599 946.653 825.599 945.485V927.652C825.599 926.548 824.704 925.652 823.599 925.652H796.599C795.495 925.652 794.599 926.548 794.599 927.652Z" fill="black"/>
<path d="M747.599 966.379V944.795C747.599 943.636 748.581 942.72 749.737 942.8L774.737 944.524C775.785 944.596 776.599 945.468 776.599 946.519V969.396C776.599 970.596 775.55 971.526 774.359 971.382L749.359 968.365C748.355 968.244 747.599 967.391 747.599 966.379Z" fill="black"/>
<path d="M966.028 1021.84L893.853 856.234C893.698 855.879 893.762 855.467 894.017 855.175L945.598 796.295C946.071 795.755 946.944 795.875 947.253 796.524L1027.29 964.497C1027.47 964.888 1027.39 965.354 1027.07 965.652L967.634 1022.17C967.131 1022.65 966.306 1022.48 966.028 1021.84Z" stroke="black" stroke-width="7" stroke-linecap="round"/>
<path d="M967.599 1022.65L1074.73 1017.67C1074.97 1017.66 1075.19 1017.56 1075.37 1017.4L1134.16 961.983C1134.83 961.349 1134.36 960.22 1133.43 960.256L1046 963.652" stroke="black" stroke-width="7" stroke-linecap="round"/>
<path d="M946.599 795.652L1050.02 799.63C1050.38 799.644 1050.7 799.849 1050.87 800.168L1134.1 960.152" stroke="black" stroke-width="7" stroke-linecap="round"/>
<path d="M216.232 1214.46C240.486 1203.06 299.524 1181 341.646 1183.91C347.618 1184.15 356.637 1186.68 344.937 1194.82C333.236 1202.97 327.386 1207.19 325.924 1208.28C319.83 1213.37 313.857 1224.13 338.721 1226.46C369.8 1229.37 457.554 1197.73 631.232 1221" stroke="black" stroke-width="5" stroke-linecap="round"/>
<path d="M21.8691 996.65V975.652" stroke="black" stroke-width="5" stroke-linecap="round"/>
<path d="M3.09912 987.316L14.5491 996.648" stroke="black" stroke-width="5" stroke-linecap="round"/>
<path d="M29.5093 996.649L38.0992 982.984" stroke="black" stroke-width="5" stroke-linecap="round"/>
<path d="M459.986 1122.65V1091.65" stroke="black" stroke-width="5" stroke-linecap="round"/>
<path d="M432.099 1108.88L449.11 1122.65" stroke="black" stroke-width="5" stroke-linecap="round"/>
<path d="M471.337 1122.65L484.099 1102.48" stroke="black" stroke-width="5" stroke-linecap="round"/>
<path d="M649.599 357.152L650.593 514.182C650.596 514.723 650.17 515.168 649.63 515.188L528.599 519.652L453.099 515.152" stroke="black" stroke-width="5" stroke-linecap="round"/>
<path d="M649.599 356.652H527.599C527.047 356.652 526.599 357.1 526.599 357.652V423.652" stroke="black" stroke-width="5" stroke-linecap="round"/>
<path d="M507.599 356.652H405.099C404.547 356.652 404.099 357.1 404.099 357.652V447.652" stroke="black" stroke-width="5" stroke-linecap="round"/>
<path d="M606.599 378.528V366.019C606.599 364.981 605.806 364.116 604.773 364.026L579.773 361.842C578.604 361.74 577.599 362.661 577.599 363.835V377.018C577.599 378.075 578.423 378.95 579.479 379.014L604.479 380.524C605.628 380.594 606.599 379.68 606.599 378.528Z" fill="black"/>
<path d="M603.099 500.652V515.424C603.099 516.465 602.301 517.332 601.263 517.417L576.263 519.474C575.098 519.57 574.099 518.65 574.099 517.481V500.652C574.099 499.548 574.995 498.652 576.099 498.652H601.099C602.204 498.652 603.099 499.548 603.099 500.652Z" fill="black"/>
<path d="M528.099 519.652V488.152" stroke="black" stroke-width="5" stroke-linecap="round"/>
<path d="M381.099 631.652C381.099 620.652 381.099 570.552 381.099 554.152" stroke="black" stroke-width="5" stroke-linecap="round"/>
<path d="M383.099 446.115C383.099 401.486 371.392 379.73 355.225 357.973" stroke="black" stroke-width="5" stroke-linecap="round"/>
<path d="M195.099 622.152C185.599 506.152 192.43 427.652 233.047 364.67C245.311 345.652 272.706 328.472 291.117 335.103" stroke="black" stroke-width="5" stroke-linecap="round"/>
<path d="M360.772 329.027C369.751 321.948 437.338 320.858 440.828 227.685C465.08 225.149 469.464 210.392 456.471 197.44C438.426 179.451 440.738 169.11 443.027 157.705C447.024 142.634 445.605 127.464 444.014 124.441" stroke="black" stroke-width="5" stroke-linecap="round"/>
<path d="M465.637 209.713C436.427 214.813 403.647 225.591 338.742 175.805C336.697 183.306 330.912 202.627 324.138 219.907C315.67 241.506 373.045 324.814 412.422 306.747C444.601 291.982 465.939 269.879 465.637 209.713Z" fill="black"/>
<path d="M415.598 199.603C418.244 200.323 421.306 197.546 422.435 193.398C423.564 189.25 422.333 185.303 419.687 184.583C417.04 183.862 413.979 186.64 412.85 190.789C411.721 194.936 412.951 198.883 415.598 199.603Z" fill="black"/>
<path d="M397.341 184.95C396.78 179.021 398.987 166.929 412.301 165.982" stroke="black" stroke-width="5" stroke-linecap="round"/>
<path d="M316.67 181.118C315.39 185.097 314.947 193.841 323.42 196.993" stroke="black" stroke-width="5" stroke-linecap="round"/>
<path d="M226.912 152.243C223.492 204.894 257.492 240.268 282.339 267.613C303.731 252.621 337.73 218.938 323.013 217.444C307.544 215.873 286.846 176.585 300.028 162.296C315.493 145.531 333.583 166.067 338.507 182.662L349.56 157.116C343.698 140.831 338.744 111.643 365.831 125.176C392.918 138.708 429.337 130.097 444.16 124.1C471.84 98.9706 512.883 43.0947 455.625 20.6219C408 1.9311 353.171 38.9555 320.716 70.2665C295.858 66.7078 231.574 80.4567 226.912 152.243Z" fill="black"/>
<path d="M283.613 263.965C296.041 275.819 302.725 286.085 304.678 308.737" stroke="black" stroke-width="5" stroke-linecap="round"/>
<path d="M325.897 391.652C336.163 470.267 361.791 477.336 373.322 471.044C396.384 460.496 447.194 443.174 465.941 458.275C484.688 473.376 462.221 493.807 448.644 502.135C403.637 534.151 305.922 586.635 275.124 540.443C244.325 494.251 242.205 436.067 244.995 412.749" stroke="black" stroke-width="5" stroke-linecap="round"/>
<path d="M292.124 335.935C289.211 325.775 287.504 306.396 303.978 310.162C324.57 314.87 365.926 345.355 362.851 356.643" stroke="black" stroke-width="5" stroke-linecap="round"/>
<path d="M528.246 468.992C530.102 474.696 527.125 487.897 499.851 491.096C489.532 492.307 487.982 492.137 478.296 491.32" stroke="black" stroke-width="5" stroke-linecap="round"/>
<path d="M532.032 452.41C536.578 453.69 540.666 458.645 528.246 468.992C525.53 471.254 522.024 473.774 517.561 476.571" stroke="black" stroke-width="5" stroke-linecap="round"/>
<path d="M530.008 440.395C534.772 440.34 539.384 443.025 532.032 452.409C528.849 456.472 523.423 461.79 514.795 468.686" stroke="black" stroke-width="5" stroke-linecap="round"/>
<path d="M471.744 447.738C493.411 425.476 502.665 424.353 498.314 442.591C493.964 460.829 510.106 445.157 518.493 436.14C521.863 432.392 529.366 426.364 532.416 432.236C533.466 434.257 532.309 437.182 530.008 440.395C525.621 446.518 517.074 453.688 511.714 457.637" stroke="black" stroke-width="5" stroke-linecap="round"/>
<path d="M353.939 910.536C388.1 782.626 389.098 734.034 383.577 627.433C321.93 669.248 223.73 635.721 192.708 620.652C174.869 727.364 186.386 930.69 212.27 1055.19C222.228 1071.47 243.686 1063.1 253.17 1056.89L265.025 970.434L278.659 1046.15C286.246 1058.81 308.692 1056.32 318.966 1053.5L353.939 910.536Z" fill="black"/>
<path d="M191.599 1085.87C188.799 1077.47 208.266 1082.37 217.099 1085.87C217.099 1093.47 235.766 1099.37 245.099 1101.37C209.099 1098.87 193.099 1090.37 191.599 1085.87Z" fill="black"/>
<path d="M271.886 1078.16C265.886 1072.56 276.386 1071.83 282.886 1072.66C284.886 1088.66 286.386 1084.16 295.886 1089.66C294.386 1092.16 277.886 1083.76 271.886 1078.16Z" fill="black"/>
<path d="M318.951 1063.18C322.101 1067.41 331.946 1075.86 341.398 1075.86C349.487 1075.86 352.622 1085.52 343.761 1090.34C328.993 1096.38 294.968 1093.6 284.099 1080.08V1061.37" stroke="black" stroke-width="5" stroke-linecap="round"/>
<path d="M249.712 1068.37C252.495 1070.8 259.613 1075.89 265.816 1076.86C273.57 1078.07 284.37 1087.18 278.342 1098.08C272.974 1107.77 261.045 1105.75 253.887 1103.53L225.853 1093.23C222.871 1092.01 218.099 1090.19 218.099 1082.92C218.099 1075.65 218.099 1072.62 218.099 1072.01" stroke="black" stroke-width="5" stroke-linecap="round"/>
</svg>
