<svg width="898" height="848" viewBox="0 0 898 848" fill="none" xmlns="http://www.w3.org/2000/svg">
<path d="M404.724 103.213C406.989 128.758 418.58 173.812 446.724 175.558C476.371 177.397 488.724 117.927 488.724 102.6" stroke="black" stroke-width="5" stroke-linecap="round"/>
<path d="M410.224 102.1L401.724 100.6" stroke="black" stroke-width="5" stroke-linecap="round"/>
<path d="M492.152 100.6C500.998 102.873 507.955 112.752 486.724 131.6" stroke="black" stroke-width="5" stroke-linecap="round"/>
<path d="M400.686 100.6C392.853 101.633 384.608 113.62 408.724 131.6" stroke="black" stroke-width="5" stroke-linecap="round"/>
<circle cx="425.724" cy="105.6" r="5" fill="black"/>
<circle cx="466.724" cy="105.6" r="5" fill="black"/>
<circle cx="426.224" cy="105.1" r="16" stroke="black" stroke-width="5"/>
<circle cx="466.224" cy="105.1" r="16" stroke="black" stroke-width="5"/>
<path d="M442.724 103.6H449.724" stroke="black" stroke-width="5" stroke-linecap="round"/>
<path d="M439.224 114.6C437.574 123.599 437.391 138.541 453.724 130.313" stroke="black" stroke-width="5" stroke-linecap="round"/>
<path d="M435.724 145.6C439.057 147.863 447.724 151.033 455.724 145.6" stroke="black" stroke-width="5" stroke-linecap="round"/>
<path d="M481.724 100.6H491.724" stroke="black" stroke-width="5" stroke-linecap="round"/>
<path d="M399.701 50.7149C368.218 65.5391 382.894 91.4815 394.167 102.6C396.134 101.117 402.365 100.747 405.234 100.747C399.823 61.2154 420.196 50.7146 429.215 48.2439C454.425 43.9201 483.325 50.7149 488.244 70.4805C494.12 94.0924 494.305 101.982 498.873 102.6C516.23 88.7637 513.671 62.2448 510.221 50.7149C514.722 37.836 504.67 26.2138 498.873 19.2134C493.075 12.2131 477.176 -0.5525 448.891 0.683187C392.937 6.24226 396.626 40.8321 399.701 50.7149Z" fill="black"/>
<path d="M415.724 80.5996C418.224 79.845 425.724 78.7885 435.724 80.5996" stroke="black" stroke-width="5" stroke-linecap="round"/>
<path d="M457.724 81.5996C460.099 80.845 467.224 79.7885 476.724 81.5996" stroke="black" stroke-width="5" stroke-linecap="round"/>
<path d="M362.37 778.6C315.279 755.054 334.281 524.674 362.175 405.431C362.289 404.943 362.742 404.636 363.24 404.685L519.609 420.025C520.058 420.069 520.418 420.385 520.494 420.83C534.704 504.637 563.326 682.402 556.37 731.6C549.724 778.6 539.87 775.526 508.37 778.6C440.791 785.193 437.347 623.751 438.74 531.313C438.758 530.141 437.302 529.944 437.069 531.093C427.17 579.723 438.87 672.011 438.87 716.6C438.87 763.6 421.37 808.1 362.37 778.6Z" fill="black"/>
<path d="M384.07 797.1V808.6C365.57 816.6 333.17 834.7 351.57 843.1C369.97 851.5 401.903 833.6 415.57 823.6V792.6" stroke="black" stroke-width="5" stroke-linecap="round"/>
<path d="M501.099 787.6V817.1C510.099 824.933 536.599 839.9 570.599 837.1C613.099 833.6 544.099 825.6 525.099 790.1" stroke="black" stroke-width="5" stroke-linecap="round"/>
<path d="M518.099 415.468V255.512C518.099 253.702 519.692 252.307 521.492 252.497C589.963 259.723 660.988 218.308 673.599 206.6C680.599 200.101 736.599 137.101 659.599 164.598C582.979 191.958 505.689 195.114 473.092 190.482C471.64 190.275 470.599 189.023 470.599 187.556V161.968" stroke="black" stroke-width="5" stroke-linecap="round"/>
<path d="M424.6 163.968V186.134C424.6 187.567 423.62 188.797 422.21 189.05C382.841 196.105 292.755 195.635 228.1 139.6C217.933 131.934 190.108 135.94 219.1 188.6C242.976 231.967 326.211 251.907 372.083 249.346C373.934 249.243 375.464 250.782 375.315 252.631L363.604 397.968" stroke="black" stroke-width="5" stroke-linecap="round"/>
<path d="M728.099 163.1C723.099 172.1 734.762 173.423 740.599 174.813C743.266 175.659 746.899 179.526 740.099 188.225" stroke="black" stroke-width="5" stroke-linecap="round"/>
<path d="M737.099 165.6C733.599 165.1 729.694 163.832 728.099 163.1C726.051 162.161 724.756 159.063 725.599 156.814C727.823 150.884 737.599 155.696 745.099 158.314" stroke="black" stroke-width="5" stroke-linecap="round"/>
<path d="M751.099 151.814C743.099 148.48 724.099 141.313 728.099 154.079" stroke="black" stroke-width="5" stroke-linecap="round"/>
<path d="M732.599 146.1C731.599 143.1 730.899 135.713 752.099 141.313C763.599 144.351 763.099 153.687 763.099 158.313C763.099 174.884 747.766 185.159 740.099 188.225C726.99 193.388 708.217 198.859 700.099 194.313" stroke="black" stroke-width="5" stroke-linecap="round"/>
<path d="M703.599 156.814C707.266 151.98 716.499 141.514 724.099 138.314C736.766 131.313 760.099 122.113 752.099 141.313" stroke="black" stroke-width="5" stroke-linecap="round"/>
<path d="M175.102 139.843C180.102 148.843 168.439 150.166 162.602 151.556C159.935 152.402 156.302 156.269 163.102 164.968" stroke="black" stroke-width="5" stroke-linecap="round"/>
<path d="M166.102 142.342C169.602 141.842 173.507 140.574 175.102 139.842C177.15 138.903 178.445 135.805 177.602 133.556C175.378 127.626 165.602 132.438 158.102 135.056" stroke="black" stroke-width="5" stroke-linecap="round"/>
<path d="M152.102 128.557C160.102 125.224 179.102 118.057 175.102 130.822" stroke="black" stroke-width="5" stroke-linecap="round"/>
<path d="M170.602 122.843C171.602 119.843 172.302 112.456 151.102 118.056C139.602 121.094 140.102 130.43 140.102 135.056C140.102 151.627 155.435 161.902 163.102 164.968C176.211 170.131 194.984 175.603 203.102 171.056" stroke="black" stroke-width="5" stroke-linecap="round"/>
<path d="M199.602 133.557C195.935 128.723 186.702 118.257 179.102 115.057C166.435 108.057 143.102 98.8562 151.102 118.056" stroke="black" stroke-width="5" stroke-linecap="round"/>
<ellipse cx="169.099" cy="777.1" rx="93" ry="10.5" fill="black"/>
<ellipse cx="733.099" cy="802.1" rx="93" ry="10.5" fill="black"/>
<path d="M417.099 202.6C417.099 212.062 420.68 227.791 429.594 236.233C430.42 237.015 431.725 236.834 432.395 235.915L446.895 216.03C447.737 214.875 449.483 214.951 450.223 216.174L461.959 235.601C462.594 236.651 464.013 236.889 464.904 236.045C470.385 230.854 478.949 220.232 479.667 209.1" stroke="black" stroke-width="5" stroke-linecap="round"/>
<circle cx="447.599" cy="278.1" r="3.5" fill="black"/>
<circle cx="447.599" cy="307.1" r="3.5" fill="black"/>
<circle cx="447.599" cy="336.1" r="3.5" fill="black"/>
<circle cx="447.599" cy="365.1" r="3.5" fill="black"/>
<path d="M30.0991 275.099C26.2037 263.024 11.2438 244.594 3.69115 236.249C3.35221 235.875 3.33138 235.326 3.66286 234.945C20.6162 215.455 65.6576 179.793 115.099 188.099" stroke="black" stroke-width="5" stroke-linecap="round"/>
<path d="M116.599 202.1C117.933 221.266 132.099 255.2 178.099 237.6C186.874 233.212 197.551 223.311 198.079 210.584C198.101 210.038 198.517 209.591 199.063 209.594C218.894 209.697 264.202 223.023 294.892 276.24C295.023 276.467 295.065 276.733 294.995 276.986C292.136 287.238 279.786 307.912 252.077 312.03C251.779 312.075 251.477 311.985 251.255 311.781C241.312 302.638 220.661 288.976 214.656 304.946C214.619 305.044 214.597 305.148 214.593 305.252C212.906 348.636 201.461 434.899 169.099 434.1C136.74 433.301 81.0718 420.465 57.1887 414.123C57.1269 414.107 57.0691 414.098 57.0054 414.093C49.6568 413.529 36.9298 405.175 44.0992 376.1C53.0992 339.6 74.0991 271.6 52.5991 267.1" stroke="black" stroke-width="5" stroke-linecap="round"/>
<path d="M129.099 196.1C141.599 195.1 170.899 197 188.099 212.6" stroke="black" stroke-width="5" stroke-linecap="round"/>
<path d="M159.599 197.1L163.099 154.6" stroke="black" stroke-width="5" stroke-linecap="round"/>
<path d="M742.907 209.6C717.574 239.433 663.707 306.1 650.907 334.1C638.107 362.1 634.907 434.433 634.907 467.1C637.574 496.433 638.407 554.1 632.907 583.6C630.24 600.1 628.507 633.2 642.907 633.6C657.307 634 664.574 633.766 666.407 633.6C669.241 633.266 674.607 630.5 673.407 622.1" stroke="black" stroke-width="5" stroke-linecap="round"/>
<path d="M686.907 351.6C688.074 357.933 688.607 371.1 681.407 373.1C672.407 375.6 685.907 413.6 681.407 430.6C676.907 447.6 679.407 515.1 674.407 524.6C669.407 534.1 653.907 621.6 699.907 626.1C745.907 630.6 753.548 624.117 789.407 628.6C817.407 632.1 842.407 630.6 845.407 626.1" stroke="black" stroke-width="5" stroke-linecap="round"/>
<ellipse cx="768.099" cy="327.1" rx="3" ry="5.5" fill="black"/>
<ellipse cx="767.099" cy="380.1" rx="3" ry="5.5" fill="black"/>
<ellipse cx="773.099" cy="439.1" rx="3" ry="5.5" fill="black"/>
<ellipse cx="779.099" cy="507.1" rx="3" ry="5.5" fill="black"/>
<ellipse cx="776.099" cy="563.1" rx="3" ry="5.5" fill="black"/>
<path d="M827.907 369.6C826.907 394.433 826.907 450.2 834.907 474.6C844.907 505.1 839.907 528.6 840.907 560.1C841.907 591.6 837.907 636.1 860.907 640.1C883.907 644.1 892.907 638.1 892.407 609.1C891.907 580.1 908.407 372.6 860.907 324.1C813.407 275.6 789.907 231.1 742.907 209.1" stroke="black" stroke-width="5" stroke-linecap="round"/>
<path d="M709.907 252.1L724.096 281.897C724.441 282.621 725.456 282.665 725.862 281.973L746.174 247.35C746.528 246.746 747.377 246.684 747.816 247.229L765.407 269.1" stroke="black" stroke-width="5" stroke-linecap="round"/>
<path d="M781.001 269.6L788.907 242.6" stroke="black" stroke-width="5" stroke-linecap="round"/>
<path d="M739.599 178.6L742.907 227.1" stroke="black" stroke-width="5" stroke-linecap="round"/>
<path d="M751.599 287.1C749.433 324.766 747.499 409.4 757.099 446.6C766.699 483.8 761.099 558.433 757.099 591.1" stroke="black" stroke-width="5" stroke-linecap="round"/>
<path d="M720.501 236.6C728.501 229.6 752.501 222.6 774.501 229.6" stroke="black" stroke-width="5" stroke-linecap="round"/>
</svg>
