<svg width="1690" height="1418" viewBox="0 0 1690 1418" fill="none" xmlns="http://www.w3.org/2000/svg">
<path d="M904.36 960.705C899.92 988.897 884.967 1043.95 860.667 1038.65C836.721 992.988 878.311 763.669 905.099 663.716C976.299 698.516 911.681 902.772 904.36 960.705Z" fill="black"/>
<path d="M1049.1 988.217C1015.9 943.817 1062.93 837.383 1090.6 789.717L1106.1 834.717C1118.5 877.517 1109.6 902.717 1093.6 921.717L1049.1 988.217Z" fill="black"/>
<path d="M713.599 805.217C566.639 847.882 464.646 788.227 466.963 634.534C467.009 631.497 469.765 629.178 472.775 629.586C531.785 637.584 671.168 627.578 712.675 609.137C713.316 608.852 713.988 608.711 714.688 608.701C908.232 605.981 943.541 676.397 912.599 772.717C887.799 849.917 877.933 931.217 876.099 962.217C875.433 1001.38 862.099 1070.52 814.099 1033.72C768.008 998.38 782.465 856.33 796.821 781.636C797.567 777.756 793.756 774.568 790.066 775.979L713.599 805.217Z" fill="black"/>
<path d="M788.099 221.361L764.099 240.361" stroke="black" stroke-width="5" stroke-linecap="round"/>
<path d="M748.599 246.361C770.599 234.592 784.099 239.695 795.599 246.361C807.933 253.695 835.399 275.061 846.599 301.861" stroke="black" stroke-width="5" stroke-linecap="round"/>
<path d="M785.296 412.126C732.122 447.015 641.209 470.353 600.987 477.926C600.406 478.035 599.931 478.389 599.64 478.903L586.733 501.705C585.991 503.016 586.887 504.641 588.393 504.652C655.568 505.165 752.294 462.676 794.228 440.326C795.052 439.887 795.423 438.954 795.175 438.054L788.34 413.278C787.976 411.959 786.44 411.376 785.296 412.126Z" fill="black"/>
<path d="M804.098 300.861C780.599 303.86 764.05 329.751 776.098 374.865C799.599 462.86 805.598 468.865 831.598 505.365C852.398 534.565 932.932 575.865 970.598 592.865" stroke="black" stroke-width="5" stroke-linecap="round"/>
<path d="M971.599 592.861C975.766 590.194 984.099 581.361 984.099 567.361" stroke="black" stroke-width="5" stroke-linecap="round"/>
<path d="M846.599 300.861C853.266 352.361 870.399 459.561 885.599 476.361C900.799 493.161 957.932 543.694 984.599 566.861" stroke="black" stroke-width="5" stroke-linecap="round"/>
<path d="M788.099 221.361C802.766 228.694 834.599 248.761 842.599 272.361" stroke="black" stroke-width="5" stroke-linecap="round"/>
<path d="M842.599 272.361L843.599 294.361" stroke="black" stroke-width="5" stroke-linecap="round"/>
<path d="M1119.1 1398.58C1152.27 1382.91 1233 1352.58 1290.6 1356.58C1298.77 1356.91 1311.1 1360.38 1295.1 1371.58C1279.1 1382.78 1271.1 1388.58 1269.1 1390.08C1260.77 1397.08 1252.6 1411.88 1286.6 1415.08C1329.1 1419.08 1449.1 1375.58 1686.6 1407.58" stroke="black" stroke-width="5" stroke-linecap="round"/>
<path d="M3.09912 1375.56C18.4113 1368.41 55.6841 1354.56 82.2761 1356.38C86.0461 1356.54 91.7401 1358.12 84.3541 1363.23C76.9671 1368.35 73.2731 1371 72.3501 1371.68C68.5031 1374.88 64.7321 1381.64 80.4291 1383.1C100.051 1384.93 155.451 1365.06 265.099 1379.67" stroke="black" stroke-width="5" stroke-linecap="round"/>
<path d="M836.538 258.217C838.538 252.217 839.293 247.717 840.863 242.597C842.787 236.32 909.67 239.861 920.046 167.095C939.268 167.095 949.534 151.229 934.79 144.664C919.063 136.785 920.062 121.971 922.793 113.217C927.162 101.728 927.293 89.7168 926.293 87.2168" stroke="black" stroke-width="5" stroke-linecap="round"/>
<path d="M906.099 142.445C908.584 142.445 910.599 139.535 910.599 135.945C910.599 132.355 908.584 129.445 906.099 129.445C903.614 129.445 901.599 132.355 901.599 135.945C901.599 139.535 903.614 142.445 906.099 142.445Z" fill="black"/>
<path d="M891.793 117.216C894.96 113.751 903.193 108.64 910.793 115.917" stroke="black" stroke-width="5" stroke-linecap="round"/>
<path d="M870.793 184.217C876.793 193.217 883.293 195.717 895.793 189.717" stroke="black" stroke-width="5" stroke-linecap="round"/>
<path d="M821.802 121.217C820.472 124.231 819.407 131.052 825.793 134.217" stroke="black" stroke-width="5" stroke-linecap="round"/>
<path d="M753.794 91.2168C746.795 132.217 770.553 162.741 787.793 186.217C805.794 176.217 835.213 152.595 823.796 150.217C811.796 147.717 798.789 115.217 810.296 105.094C823.796 93.2168 836.296 110.802 838.796 124.217L849.557 105.094C846.296 91.8446 844.805 68.5541 864.933 81.3848C885.061 94.2155 914.321 90.45 926.435 86.9634C950.198 69.5304 986.959 29.0858 943.908 6.77147C908.1 -11.7879 862.076 12.7456 834.062 34.6342C814.864 29.8058 763.336 35.315 753.794 91.2168Z" fill="black"/>
<path d="M789.293 183.717C794.793 193.384 798.993 207.117 797.793 224.717" stroke="black" stroke-width="5" stroke-linecap="round"/>
<path d="M581.869 1411.59V1390.59" stroke="black" stroke-width="5" stroke-linecap="round"/>
<path d="M563.099 1402.26L574.549 1411.59" stroke="black" stroke-width="5" stroke-linecap="round"/>
<path d="M589.509 1411.59L598.099 1397.93" stroke="black" stroke-width="5" stroke-linecap="round"/>
<path d="M117.869 1249.21V1228.22" stroke="black" stroke-width="5" stroke-linecap="round"/>
<path d="M99.0991 1239.88L110.549 1249.21" stroke="black" stroke-width="5" stroke-linecap="round"/>
<path d="M125.509 1249.22L134.099 1235.55" stroke="black" stroke-width="5" stroke-linecap="round"/>
<path d="M1455.1 1240.22V1210.22" stroke="black" stroke-width="5" stroke-linecap="round"/>
<path d="M1428.1 1227.22L1444.1 1240.22" stroke="black" stroke-width="5" stroke-linecap="round"/>
<path d="M1466.1 1240.22L1478.1 1220.22" stroke="black" stroke-width="5" stroke-linecap="round"/>
<rect x="572.792" y="133.605" width="28" height="58.3059" transform="rotate(34.0391 572.792 133.605)" fill="black"/>
<rect x="687.736" y="207.592" width="28" height="58.3059" transform="rotate(34.0391 687.736 207.592)" fill="black"/>
<rect x="533.527" y="109.202" width="255.877" height="332.799" rx="7.5" transform="rotate(32.6694 533.527 109.202)" stroke="black" stroke-width="5"/>
<path d="M501.599 158.092L717.599 296.592" stroke="black" stroke-width="5"/>
<path d="M581.099 328.717C545.099 329.517 523.432 304.883 517.599 292.217L527.099 275.717L589.599 312.717L581.099 328.717Z" fill="black"/>
<rect x="527.014" y="275.632" width="73" height="73" rx="2.5" transform="rotate(30 527.014 275.632)" stroke="black" stroke-width="5"/>
<path d="M984.099 567.218C986.932 569.384 993.899 572.418 999.099 567.218C1005.6 560.718 1022.1 535.218 1060.6 551.218C1067.93 557.384 1080.8 573.318 1073.6 587.718C1072.6 589.218 1070.3 591.318 1069.1 587.718" stroke="black" stroke-width="5" stroke-linecap="round"/>
<path d="M974.099 591.717C978.099 592.383 989.599 595.217 1003.6 601.217C1017.6 607.217 1026.1 607.383 1028.6 606.717" stroke="black" stroke-width="5" stroke-linecap="round"/>
<path d="M1264.1 907.218C1276.5 872.818 1241.43 864.217 1223.1 865.217C1227.1 892.416 1237.6 922.05 1242.1 932.217C1243.93 938.383 1251.7 941.618 1264.1 907.218Z" fill="black"/>
<path d="M1220.6 581.717C1220.6 616.217 1197.93 631.383 1180.1 637.217C1164.27 617.717 1142.1 569.117 1180.1 530.717C1193.6 534.717 1220.6 545.63 1220.6 581.717Z" fill="black"/>
<path d="M1180.1 637.217H1116.1H1092.1L1072.1 589.217C1075.3 584.817 1075.77 577.717 1075.6 574.717H1083.6C1086 540.717 1106.27 531.217 1116.1 530.717H1180.1C1193.6 534.717 1220.6 545.63 1220.6 581.717C1220.6 616.217 1197.93 631.383 1180.1 637.217Z" stroke="black" stroke-width="5"/>
<path d="M140.099 936.218C147.299 924.618 164.766 924.385 172.599 925.718C150.199 956.918 132.599 999.385 126.599 1016.72H98.5991C88.5991 994.318 102.766 988.051 111.099 987.718C117.766 975.384 132.899 947.818 140.099 936.218Z" fill="black"/>
<path d="M239.099 1162.22C251.844 1216.61 302.075 1257.22 362.099 1257.22C422.123 1257.22 472.354 1216.61 485.099 1162.22" stroke="black" stroke-width="5" stroke-linecap="square"/>
<path d="M516.099 1173.22C503.496 1237.95 439.344 1287.22 362.099 1287.22C284.855 1287.22 220.702 1237.95 208.099 1173.22" stroke="black" stroke-width="25" stroke-linecap="square"/>
<path d="M1106.1 834.717L1032.49 610.948C1031.7 608.536 1032.84 605.913 1035.14 604.847L1066.46 590.364C1069 589.186 1072.02 590.333 1073.14 592.908C1095.12 643.65 1139.43 748.714 1156.1 798.717C1171.88 846.049 1203.72 863.342 1221.23 867.037C1223.71 867.559 1225.64 869.62 1225.81 872.144C1227.31 894.306 1235.39 916.386 1241.97 930.35C1243.81 934.252 1240.37 939.064 1236.07 938.817C1149.89 933.881 1048.83 1063.49 1007.6 1131.72C991.999 1153.32 964.099 1160.38 952.099 1161.22H100.076C98.5151 1161.22 97.0256 1160.49 96.1296 1159.21C81.3646 1138.16 94.7026 1127.81 106.282 1124.26C108.706 1123.51 110.484 1121.29 110.384 1118.76C105.333 990.113 199.782 880.717 251.024 839.17C252.837 837.7 253.357 835.21 252.511 833.035C243.584 810.074 258.6 800.07 270.573 797.058C273.099 796.423 274.998 794.201 275.091 791.598C275.709 774.233 283.732 767.077 288.477 765.41C288.887 765.265 289.301 765.217 289.736 765.217H437.599C455.184 765.217 463.286 776.653 466.076 785.022C466.861 787.378 468.94 789.217 471.423 789.217H659.599C715.403 792.361 743.923 826.006 751.702 843.306C751.976 843.915 752.099 844.56 752.099 845.228V853.574C752.099 855.745 750.71 857.65 748.675 858.407C717.945 869.835 658.43 911.1 641.099 996.217C623.164 1084.3 688.79 1117.81 724.216 1123.65C724.477 1123.7 724.732 1123.72 724.997 1123.72H943.099C953.099 1123.72 959.266 1118.38 961.099 1115.72L1093.6 924.217C1118.6 887.717 1111.1 854.217 1106.1 834.717Z" stroke="black" stroke-width="5" stroke-linecap="round"/>
<circle cx="1044.1" cy="586.217" r="28" fill="black"/>
<path d="M110.099 1121.22L724.599 1123.72" stroke="black" stroke-width="5" stroke-linecap="round"/>
<path d="M693.099 896.217C551.432 873.217 257.799 886.117 216.599 1121.72" stroke="black" stroke-width="5" stroke-linecap="round"/>
<path d="M650.099 962.717C556.447 947.45 405.335 965.831 378.099 1122.22" stroke="black" stroke-width="5" stroke-linecap="round"/>
<path d="M253.099 835.717H746.599" stroke="black" stroke-width="5" stroke-linecap="round"/>
<circle cx="1245.1" cy="1131.22" r="51" fill="black"/>
<circle cx="1245.1" cy="1131.22" r="123.5" stroke="black" stroke-width="5"/>
<circle cx="1245.1" cy="1131.22" r="143.5" stroke="black" stroke-width="25"/>
<path d="M1186.6 1101.22C1227.8 1041.22 1317.1 1039.55 1356.6 1046.22C1393.1 1050.72 1384.1 1014.22 1372.1 1003.22C1237.18 879.531 1121.1 1005.22 1094.6 1050.22C1068.1 1095.22 1030.6 1134.22 1008.6 1157.72C990.999 1176.52 1004.6 1185.22 1013.6 1187.22H1091.6C1147.1 1185.22 1151.1 1159.22 1159.1 1143.72C1165.5 1131.32 1180.1 1110.22 1186.6 1101.22Z" fill="black"/>
<path d="M515.1 493.717C509.099 513.217 474.599 556.717 469.599 633.217" stroke="black" stroke-width="5" stroke-linecap="round"/>
<path d="M800.599 1044.72C792.682 1064.67 784.08 1107.22 812.202 1119.35C812.782 1119.6 813.424 1119.72 814.056 1119.72H887.978C888.716 1119.72 889.444 1119.56 890.107 1119.23C902.095 1113.33 919.103 1100.72 898.099 1093.72C871.099 1084.72 850.099 1090.22 841.599 1063.22" stroke="black" stroke-width="5" stroke-linecap="round"/>
<path d="M909.336 1117.22C921.336 1111.55 939.936 1098.42 918.336 1091.22C891.336 1082.22 870.336 1087.72 861.836 1060.72" stroke="black" stroke-width="5" stroke-linecap="round"/>
<path d="M713.099 631.717C715.432 596.883 732.099 509.817 792.099 436.217" stroke="black" stroke-width="5" stroke-linecap="round"/>
<path d="M1264.1 520.21L1357.39 463.226" stroke="black" stroke-width="5" stroke-linecap="round"/>
<path d="M1266.6 568.217H1387.1" stroke="black" stroke-width="5" stroke-linecap="round"/>
<path d="M1266.1 612.217L1357.1 652.217" stroke="black" stroke-width="5" stroke-linecap="round"/>
</svg>
