<svg width="1049" height="879" viewBox="0 0 1049 879" fill="none" xmlns="http://www.w3.org/2000/svg">
<path d="M313.366 599.645C322.023 578.792 340.636 541.886 360.259 566.91C379.882 591.934 381.18 645.474 392.723 621.469L414.366 564.001" stroke="black" stroke-width="5" stroke-linecap="round"/>
<path d="M83.8283 509.45C128.29 551.347 183.331 558.344 200.625 560.292C184.867 533.073 140.887 465.312 159.797 420.616C152.634 408.917 140.457 377.639 159.797 353.285C167.76 343.257 197.76 330.364 219.249 348.271L258.89 355.336C256.966 312.595 283.312 298.332 296.725 296.544C286.184 272.867 305.039 262.508 314.961 258.438C329.194 275.882 347.847 282.91 355.734 286.178C436.008 307.178 485.005 278.427 507.621 242.544C532.171 206.32 528.197 121.259 458.745 100.552C436.035 91.8131 382.196 84.6478 348.519 125.898C249.379 89.4652 202.458 193.736 189.585 231.6L174.709 266.124C45.5124 293.606 32.0261 416.749 56.8345 469.318C65.9638 488.663 72.4103 498.691 83.8283 509.45Z" fill="black"/>
<path d="M496.486 547.975C564.766 423.496 511.377 373.476 479.25 349.536C483.045 443.803 419.544 489.382 394.474 505.14L415.962 525.196C443.374 545.968 472.742 578.917 496.486 547.975Z" fill="black"/>
<path d="M257.889 356.222C263.139 386.108 288.977 406.06 315.152 401.462C341.327 396.864 358.819 369.3 353.568 339.414C348.318 309.527 322.48 289.576 296.305 294.174C270.13 298.772 252.638 326.335 257.889 356.222Z" stroke="black" stroke-width="5"/>
<path d="M382.834 352.222C388.084 382.108 413.922 402.06 440.097 397.462C466.273 392.864 483.764 365.3 478.514 335.414C473.264 305.527 447.426 285.576 421.25 290.174C395.075 294.772 377.584 322.335 382.834 352.222Z" stroke="black" stroke-width="5"/>
<path d="M383.022 340.983L353.233 343.067" stroke="black" stroke-width="5" stroke-linecap="round"/>
<path d="M365.679 371.188C374.764 394.522 393.343 413.995 372.803 428.772" stroke="black" stroke-width="5" stroke-linecap="round"/>
<path d="M394.339 459.579C388.118 466.454 365.599 456.016 351.123 459.579" stroke="black" stroke-width="5" stroke-linecap="round"/>
<circle r="12.8931" transform="matrix(-0.984918 0.173019 0.173019 0.984918 439.187 364.633)" fill="black"/>
<circle r="12.8931" transform="matrix(-0.984918 0.173019 0.173019 0.984918 318.851 361.765)" fill="black"/>
<path d="M464.907 283.248C483.409 318.556 500.05 404.824 426.165 479.231C352.28 553.638 270.817 486.517 242.708 439.66L222.826 407.01" stroke="black" stroke-width="5" stroke-linecap="round"/>
<path d="M304.595 329.661C296.583 330.803 280.629 337.22 280.905 353.754" stroke="black" stroke-width="5" stroke-linecap="round"/>
<path d="M457.243 336.125C451.13 333.438 436.183 330.235 425.297 338.916" stroke="black" stroke-width="5" stroke-linecap="round"/>
<path d="M414.366 517.516C461.61 545.418 557.25 617.964 573.366 693.516" stroke="black" stroke-width="5" stroke-linecap="round"/>
<path d="M198.789 417.631C211.908 416.671 244.415 401.781 229.558 366.472C212.385 325.661 166.322 347.024 159.435 357.825C152.996 367.923 144.409 391.694 160.866 420.516" stroke="black" stroke-width="5" stroke-linecap="round"/>
<path d="M241.755 488.951C252.456 479.96 280.851 466.584 295.26 493.21C310.241 520.894 280.992 553.546 259.59 551.417C238.188 549.287 216.787 534.382 210.366 501.729" stroke="black" stroke-width="5" stroke-linecap="round"/>
<path d="M210.366 500.516C215.013 489.537 226.118 470.872 233.366 484.047" stroke="black" stroke-width="5" stroke-linecap="round"/>
<path d="M242.366 483.516C241.786 478.329 240.017 472.429 236.581 468.389C230.021 460.674 217.387 459.742 195.366 483.516" stroke="black" stroke-width="5" stroke-linecap="round"/>
<path d="M236.128 468.516C236.871 461.982 236.024 453.988 231.449 449.661C225.706 444.23 214.088 444.578 192.366 460.846" stroke="black" stroke-width="5" stroke-linecap="round"/>
<path d="M231.366 450.365C230.535 440.817 222.136 424.873 195.184 437.476C168.232 450.078 182.043 419.336 192.317 402.39C196.379 396.184 204.072 382.77 202.352 378.76C200.632 374.75 190.166 381.385 185.149 385.204C170.335 397.139 145.151 432.751 162.928 479.724C180.705 526.697 199.007 555.148 205.936 563.502C208.803 566.605 211.957 576.391 201.635 590.712C188.733 608.613 79.0612 780.466 195.184 800.516" stroke="black" stroke-width="5" stroke-linecap="round"/>
<path d="M285.035 558.516C295.567 587.916 314.477 652.452 259.901 678.267C234.768 691.891 208.523 661.44 241.231 638.111C266.364 620.184 290.205 659.48 285.035 710.535C282.348 737.067 245.764 775.965 225.433 765.033C197.426 749.974 223.996 713.404 246.257 730.613C268.519 747.823 268.519 790.848 262.056 831.004C260.62 841.282 252.721 859.687 232.614 851.082C207.48 840.326 220.405 780.091 300.833 787.979M508.366 809.491C439.428 814.654 436.077 849.887 443.018 866.857C447.711 878.331 470.593 881.486 474.615 856.818C478.636 832.151 452.354 808.888 424.348 809.491C416.747 809.655 409.823 810.124 403.522 810.852M321.658 792.999L333.148 798.018C353.255 805.189 392.593 814.985 385.57 843.911C379.825 867.574 359.452 872.365 350.383 859.687C346.792 854.667 339.072 830.158 371.926 818.465" stroke="black" stroke-width="5" stroke-linecap="round"/>
<path d="M393.187 792.516C393.187 793.93 359.092 825.056 376.139 826.471C389.778 827.602 405.973 807.135 412.366 796.76" stroke="black" stroke-width="5" stroke-linecap="round"/>
<path d="M332.366 822.781C333.791 824.221 348.037 837.998 384.366 786.516" stroke="black" stroke-width="5" stroke-linecap="round"/>
<path d="M352.79 769.516C339.691 783.463 315.923 813.344 325.64 821.288C327.362 822.695 329.559 822.832 332.07 822.007C343.726 818.179 362.157 793.643 371.366 779.444" stroke="black" stroke-width="5" stroke-linecap="round"/>
<path d="M459.366 797.018C437.4 770.231 369.115 721.678 329.003 756.837C313.006 772.383 288.891 802.04 300.352 813.52C306.082 817.825 314.677 815.673 318.259 802.04C323.281 782.923 341.111 777.884 349.468 774.057" stroke="black" stroke-width="5" stroke-linecap="round"/>
<path d="M563.848 738.201L566.264 745.485C566.4 745.894 566.782 746.17 567.213 746.17H602.42C602.825 746.17 603.189 745.927 603.344 745.553L606.42 738.133C606.575 737.759 606.94 737.516 607.344 737.516H615.879C616.366 737.516 616.783 737.874 616.869 738.354C623.888 777.673 650.041 800.395 662.837 807.197C663.168 807.373 663.366 807.709 663.366 808.085V849.025C663.366 849.577 662.918 850.025 662.366 850.025H655.755C655.203 850.025 654.755 850.472 654.755 851.025V855.516C654.755 856.068 654.307 856.516 653.755 856.516H625.616C625.064 856.516 624.616 856.068 624.616 855.516V851.025C624.616 850.472 624.168 850.025 623.616 850.025H545.963C545.411 850.025 544.963 850.472 544.963 851.025V855.516C544.963 856.068 544.516 856.516 543.963 856.516H516.542C515.99 856.516 515.542 856.068 515.542 855.516V851.025C515.542 850.472 515.094 850.025 514.542 850.025H509.366C508.814 850.025 508.366 849.577 508.366 849.025V808.149C508.366 807.741 508.614 807.375 508.99 807.216C534.116 796.575 549.381 757.399 554.109 738.266C554.22 737.817 554.618 737.516 555.081 737.516H562.899C563.33 737.516 563.712 737.792 563.848 738.201Z" stroke="black" stroke-width="5" stroke-linecap="round"/>
<path d="M622.866 784.516C622.866 802.312 606.686 817.016 586.366 817.016C566.046 817.016 549.866 802.312 549.866 784.516C549.866 766.719 566.046 752.016 586.366 752.016C606.686 752.016 622.866 766.719 622.866 784.516Z" stroke="black" stroke-width="3"/>
<ellipse cx="586.366" cy="784.516" rx="15" ry="12" fill="black"/>
<circle cx="605.366" cy="772.516" r="4" fill="black"/>
<circle cx="593.866" cy="765.016" r="4.5" fill="black"/>
<circle cx="580.866" cy="764.016" r="4.5" fill="black"/>
<circle cx="569.366" cy="769.516" r="4" fill="black"/>
<ellipse cx="562.366" cy="778.016" rx="4" ry="4.5" fill="black"/>
<circle cx="562.366" cy="789.516" r="4" fill="black"/>
<circle cx="569.366" cy="799.516" r="4" fill="black"/>
<circle cx="580.866" cy="805.016" r="4.5" fill="black"/>
<circle cx="593.866" cy="804.016" r="4.5" fill="black"/>
<circle cx="605.366" cy="796.516" r="4" fill="black"/>
<path d="M508.366 808.516C531.807 822.853 595.625 842.926 663.366 808.516" stroke="black" stroke-width="5" stroke-linecap="round"/>
<path d="M317.366 668.516C351.568 667.569 419.11 661.277 444.366 646.516" stroke="black" stroke-width="7" stroke-linecap="round"/>
<path d="M310.366 714.804C353.189 719.509 441.118 721.438 487.366 691.516" stroke="black" stroke-width="7" stroke-linecap="round"/>
<path d="M855.082 364.516C855.357 353.008 852.352 325.944 838.124 309.754C820.339 289.516 819.099 277.214 819.099 239.516" stroke="black" stroke-width="5" stroke-linecap="round"/>
<path d="M862.099 250.516C855.825 249.376 845.159 241.781 852.688 220.516" stroke="black" stroke-width="5" stroke-linecap="round"/>
<path d="M947.099 250.516C961.897 241.907 985.647 220.757 962.266 205.029C959.06 202.716 951.538 201.328 947.099 214.281" stroke="black" stroke-width="5" stroke-linecap="round"/>
<path d="M958.099 217.516C957.846 221.578 955.292 229.866 947.099 230.516" stroke="black" stroke-width="5" stroke-linecap="round"/>
<path d="M911.099 193.516C908.022 192.006 900.114 189.893 893.099 193.516" stroke="black" stroke-width="5" stroke-linecap="round"/>
<path d="M840.099 197.516C836.509 196.006 827.283 193.893 819.099 197.516" stroke="black" stroke-width="5" stroke-linecap="round"/>
<path d="M933.738 104.858C1022.87 114.143 995.635 181.832 970.877 214.516C965.82 203.31 955.863 202.91 951.517 204.11C947.408 141.037 908.189 149.548 889.094 161.688C849.269 160.087 839.313 175.962 839.313 184.1C822.05 173.192 807.432 185.998 806.247 188.8C761.997 58.1711 873.158 78.8443 933.738 104.858Z" fill="black"/>
<circle r="27.5" transform="matrix(-1 0 0 1 899.099 208.516)" stroke="black" stroke-width="5"/>
<ellipse rx="7" ry="8.5" transform="matrix(-1 0 0 1 900.099 214.016)" fill="black"/>
<path d="M798.599 208.516C798.599 223.627 811.28 236.016 827.099 236.016C842.917 236.016 855.599 223.627 855.599 208.516C855.599 193.404 842.917 181.016 827.099 181.016C811.28 181.016 798.599 193.404 798.599 208.516Z" stroke="black" stroke-width="5"/>
<ellipse rx="8" ry="8.5" transform="matrix(-1 0 0 1 826.099 214.016)" fill="black"/>
<path d="M855.099 208.516H870.099" stroke="black" stroke-width="5" stroke-linecap="round"/>
<path d="M928.099 204.516L948.099 209.516" stroke="black" stroke-width="5" stroke-linecap="round"/>
<path d="M812.099 313.516C806.01 310.248 794.332 299.873 796.324 284.516" stroke="black" stroke-width="5" stroke-linecap="round"/>
<path d="M751.178 246.224L755.964 270.516L739.213 253.392C723.26 269.002 669.947 268.442 645.489 260.958C620.762 253.392 612.386 232.286 621.958 212.375C631.53 192.464 687.366 177.331 731.636 188.083C767.052 196.685 759.421 230.428 751.178 246.224Z" stroke="black" stroke-width="5" stroke-linecap="round"/>
<path d="M723.099 236.516L705.099 240.516" stroke="black" stroke-width="5" stroke-linecap="round"/>
<path d="M724.099 219.516L649.099 229.516" stroke="black" stroke-width="5" stroke-linecap="round"/>
<path d="M723.464 204.345L676.146 209.92" stroke="black" stroke-width="5" stroke-linecap="round"/>
<path d="M634.099 158.171C657.728 68.5837 739.461 2.51562 836.657 2.51562C952.328 2.51562 1046.1 96.0881 1046.1 211.516C1046.1 326.943 952.328 420.516 836.657 420.516C766.184 420.516 703.841 385.783 665.879 332.537" stroke="black" stroke-width="5"/>
<path d="M885.093 289.516C882.76 293.516 876.801 302.216 869.601 299.016C867.273 297.981 865.684 296.251 865.099 293.516C863.924 288.03 865.562 278.674 868.678 274.528C868.919 274.207 869.349 274.1 869.728 274.232C884.15 279.248 886.079 287.216 885.093 289.516Z" fill="black"/>
<path d="M851.599 268.516C865.599 271.349 891.699 280.016 884.099 292.016C876.499 304.016 863.932 302.016 858.099 297.016" stroke="black" stroke-width="5" stroke-linecap="round"/>
</svg>
