<svg width="660" height="816" viewBox="0 0 660 816" fill="none" xmlns="http://www.w3.org/2000/svg">
<g clip-path="url(#clip0_2_2)">
<path d="M438.197 634.643C396.597 517.443 400.031 415.81 413.198 384.143C465.198 421.143 548.031 391.477 574.198 378.143C613.398 421.343 579.531 652.477 557.698 762.643C549.298 777.043 531.198 769.643 523.198 764.143L513.198 687.643L501.698 754.643C495.298 765.843 476.364 763.643 467.698 761.143L438.197 634.643Z" fill="black"/>
<path d="M415.698 383.643C417.692 376.095 423.698 361.143 412.794 340.643C411.679 337.627 410.006 334.765 408.698 331.643C382.912 270.143 431.698 236.143 439.698 226.643" stroke="black" stroke-width="5" stroke-linecap="round"/>
<path d="M412.794 340.643C396.39 349.643 367.198 358.643 330.198 347.143C293.198 335.643 280.198 229.143 288.698 215.143C295.498 203.943 300.698 200.289 306.698 204.643C337.198 229.289 343.698 247.289 356.198 276.643C360.588 286.955 364.698 292.143 369.198 287.143C379.665 270.429 409.599 234 445.599 222" stroke="black" stroke-width="5" stroke-linecap="round"/>
<path d="M439.698 226.643C441.521 224.478 443.388 223.046 445.187 222.143C449.702 219.879 453.791 220.952 455.698 222.143C463.698 226.143 483.898 229.043 500.698 208.643C512.665 197.095 544.199 186.7 574.599 237.5" stroke="black" stroke-width="5" stroke-linecap="round"/>
<path d="M573.698 276.143C577.031 255.81 588.598 212.543 608.198 202.143C627.798 191.743 639.031 207.143 642.198 216.143C649.364 235.977 657.298 285.243 631.698 323.643C599.698 371.643 549.198 354.643 529.698 302.643" stroke="black" stroke-width="5" stroke-linecap="round"/>
<path d="M648.198 148.643C651.364 147.643 657.198 149.043 655.198 162.643C652.698 179.643 643.198 193.643 634.698 203.643" stroke="black" stroke-width="5" stroke-linecap="round"/>
<path d="M637.698 143.143C640.531 141.31 646.598 139.843 648.198 148.643C648.531 151.31 648.498 157.243 645.698 159.643" stroke="black" stroke-width="5" stroke-linecap="round"/>
<path d="M628.698 163.643L627.698 140.643C627.698 139.143 628.698 135.943 632.698 135.143C637.698 134.143 637.198 141.143 637.698 143.143C638.098 144.743 637.864 151.81 637.698 155.143" stroke="black" stroke-width="5" stroke-linecap="round"/>
<path d="M618.049 171.525L619.198 152.643C619.198 149.977 620.898 144.743 627.698 145.143" stroke="black" stroke-width="5" stroke-linecap="round"/>
<path d="M608.198 201.643C605.198 194.143 600.698 177.643 601.698 167.643C602.265 161.971 601.698 156.643 606.198 155.643C612.698 154.199 612.375 163.134 615.698 167.643C616.523 168.469 617.475 169.828 618.049 171.525C618.98 174.281 618.916 177.93 615.698 181.643" stroke="black" stroke-width="5" stroke-linecap="round"/>
<path d="M306.198 203.643V189.643L310.198 178.643C311.531 173.977 311.698 161.643 304.198 161.643C297.596 161.643 296.97 168.143 296.97 174.143L298.198 180.143" stroke="black" stroke-width="5" stroke-linecap="round"/>
<path d="M296.97 174.143C294.046 170.31 294.793 161.726 296.97 154.143C299.698 144.643 291.698 141.143 286.698 144.143C282.698 146.543 284.865 157.31 285.698 162.643" stroke="black" stroke-width="5" stroke-linecap="round"/>
<path d="M285.698 162.643C284.865 157.31 282.698 146.543 286.698 144.143C284.773 140.801 280.147 137.065 276.198 138.143C273.649 138.839 271.09 140.799 270.698 148.643C272.698 154.143 271.698 156.143 276.698 162.643" stroke="black" stroke-width="5" stroke-linecap="round"/>
<path d="M276.698 162.643C271.698 156.143 272.698 154.143 270.698 148.643C266.031 148.143 258.098 150.343 263.698 163.143L270.698 177.143" stroke="black" stroke-width="5" stroke-linecap="round"/>
<path d="M263.698 163.143C259.198 164.477 252.498 171.643 261.698 189.643C270.898 207.643 283.531 213.477 288.698 214.143" stroke="black" stroke-width="5" stroke-linecap="round"/>
<path d="M403.847 249.289C358.647 192.889 375.347 149.123 389.347 134.289C395.747 181.889 433.68 200.789 451.847 204.289V221.289C446.247 217.289 417.513 238.289 403.847 249.289Z" fill="black"/>
<path d="M601.697 179.643C583.197 204.643 564.697 207.643 556.197 210.143C523.278 192.027 505.914 201.025 501.346 207.789L499.346 185.289C513.346 170.889 521.18 148.289 523.346 138.789C528.146 141.589 533.346 139.289 535.346 137.789C537.846 135.456 542.046 127.589 538.846 114.789C535.646 101.989 526.846 107.123 522.846 111.289L500.346 117.789C497.546 96.1894 483.08 91.3588 476.197 91.6434C479.397 78.8434 469.031 75.3101 463.697 74.1434C458.097 84.1434 449.364 89.3101 445.697 91.6434C407.297 109.243 380.197 99.1435 365.697 83.1434C350.197 67.1434 344.697 24.1435 377.697 7.64342C388.314 1.26141 414.678 -7.07339 435.197 10.6434C481.697 -16.3566 514.408 31.7922 524.197 49.6434L534.697 65.6434C601.897 68.0434 614.031 127.643 611.697 157.143C600.778 149.027 600.481 168.761 601.697 179.643Z" fill="black"/>
<path d="M499.698 118.143C499.698 133.043 488.927 144.643 476.198 144.643C463.469 144.643 452.698 133.043 452.698 118.143C452.698 103.244 463.469 91.6434 476.198 91.6434C488.927 91.6434 499.698 103.244 499.698 118.143Z" stroke="black" stroke-width="5"/>
<path d="M436.698 127.143C436.698 142.043 425.927 153.643 413.198 153.643C400.469 153.643 389.698 142.043 389.698 127.143C389.698 112.244 400.469 100.643 413.198 100.643C425.927 100.643 436.698 112.244 436.698 127.143Z" stroke="black" stroke-width="5"/>
<path d="M436.842 121.528L452.554 119.759" stroke="black" stroke-width="5" stroke-linecap="round"/>
<path d="M450.697 185.643C450.697 181.477 453.097 174.243 462.697 178.643" stroke="black" stroke-width="5" stroke-linecap="round"/>
<path d="M448.197 135.143C445.697 147.643 438.097 159.043 449.697 164.643" stroke="black" stroke-width="5" stroke-linecap="round"/>
<path d="M407.698 152.789C411.84 152.789 415.198 149.431 415.198 145.289C415.198 141.147 411.84 137.789 407.698 137.789C403.556 137.789 400.198 141.147 400.198 145.289C400.198 149.431 403.556 152.789 407.698 152.789Z" fill="black"/>
<path d="M469.698 143.789C473.84 143.789 477.198 140.431 477.198 136.289C477.198 132.147 473.84 128.789 469.698 128.789C465.556 128.789 462.198 132.147 462.198 136.289C462.198 140.431 465.556 143.789 469.698 143.789Z" fill="black"/>
<path d="M530.198 119.143C531.364 121.143 532.998 125.943 530.198 129.143" stroke="black" stroke-width="5" stroke-linecap="round"/>
<path d="M390.698 99.7894C384.531 119.123 383.786 163.843 427.386 194.643C470.986 225.443 504.552 183.477 515.886 158.643L523.386 138.143C528.552 141.31 538.986 143.143 539.386 125.143C539.786 107.143 532.552 105.977 528.886 107.643C526.886 108.477 522.686 111.343 521.886 116.143" stroke="black" stroke-width="5" stroke-linecap="round"/>
<path d="M500.198 117.143L525.198 110.143" stroke="black" stroke-width="5" stroke-linecap="round"/>
<path d="M472.198 117.796C476.315 117.663 484.88 119.475 486.198 127.789" stroke="black" stroke-width="5" stroke-linecap="round"/>
<path d="M399.198 125.628C402.026 123.743 409.239 120.82 415.461 124.214" stroke="black" stroke-width="5" stroke-linecap="round"/>
<path d="M292.198 412.789L319.198 361.789" stroke="black" stroke-width="5" stroke-linecap="round"/>
<path d="M337.198 442.289L375.698 411.289" stroke="black" stroke-width="5" stroke-linecap="round"/>
<path d="M240.698 407.789L216.698 295.789" stroke="black" stroke-width="5" stroke-linecap="round"/>
<path d="M200.698 412.289L171.198 368.789" stroke="black" stroke-width="5" stroke-linecap="round"/>
<path d="M0.197754 677.789L62.1977 631.289L70.1977 680.289L247.099 795.5L0.197754 677.789Z" fill="black"/>
<path d="M174.698 613.96L230.698 583.5L321.198 639.272" stroke="black" stroke-width="5" stroke-linecap="round"/>
<path d="M174.698 613.96L261.329 671.123C261.95 671.532 262.747 671.564 263.398 671.204L321.198 639.272L437.197 575.646C438.539 574.91 438.591 573.001 437.291 572.194L224.655 440.095C224.061 439.726 223.317 439.694 222.694 440.011L49.7627 527.942C48.3954 528.637 48.2874 530.549 49.5677 531.394L174.698 613.96Z" stroke="black" stroke-width="5" stroke-linecap="round"/>
<path d="M223.698 439.5L230.698 583.5" stroke="black" stroke-width="5" stroke-linecap="round"/>
<path d="M262.339 671.789L248.06 792.12C247.867 793.739 249.59 794.895 251.016 794.104L395.079 714.175C395.525 713.927 395.86 713.518 396.014 713.031L440.198 574" stroke="black" stroke-width="5" stroke-linecap="round"/>
<path d="M249.599 794.5L71.1978 679L48.5991 530" stroke="black" stroke-width="5" stroke-linecap="round"/>
<path d="M111.891 595.747L158.198 685.789L176.198 670.289C170.864 659.789 155.891 631.547 135.891 592.747C115.891 553.947 131.198 527.789 157.698 515.289L240.198 472.789C273.698 453.698 306.531 475.956 312.698 492.289L347.198 513.789L339.198 500.289L327.698 481.381C306.698 442.881 262.391 442.914 244.391 449.747C220.558 461.247 161.59 486.461 127.391 511.747C94.1973 536.289 101.891 576.914 111.891 595.747Z" fill="black"/>
<path d="M165.698 697.289C177.572 697.289 187.198 686.096 187.198 672.289C187.198 658.482 177.572 647.289 165.698 647.289C153.824 647.289 144.198 658.482 144.198 672.289C144.198 686.096 153.824 697.289 165.698 697.289Z" fill="black"/>
<path d="M581.817 793.29C584.617 784.89 565.15 789.79 556.317 793.29C556.317 800.89 537.65 806.79 528.317 808.79C564.317 806.29 580.317 797.789 581.817 793.29Z" fill="black"/>
<path d="M511.817 783.289C519.817 778.789 508.817 775.956 502.317 776.789L501.317 785.289L511.817 783.289Z" fill="black"/>
<path d="M465.465 769.6C462.315 773.825 452.469 782.276 443.018 782.276C434.929 782.276 431.794 791.933 440.655 796.762C455.422 802.798 489.448 800.022 500.317 786.501V767.789" stroke="black" stroke-width="5" stroke-linecap="round"/>
<path d="M523.704 775.789C520.921 778.214 513.803 783.306 507.6 784.276C499.846 785.489 489.045 794.601 495.074 805.493C500.442 815.192 512.371 813.172 519.529 810.949L547.563 800.644C550.545 799.431 555.317 797.613 555.317 790.338C555.317 783.064 555.317 780.033 555.317 779.427" stroke="black" stroke-width="5" stroke-linecap="round"/>
<path d="M573.599 376C574.766 372.333 577.399 362.3 578.599 351.5" stroke="black" stroke-width="5" stroke-linecap="round"/>
</g>
<defs>
<clipPath id="clip0_2_2">
<rect width="659" height="816" fill="white" transform="translate(0.0991211)"/>
</clipPath>
</defs>
</svg>
