<svg width="671" height="829" viewBox="0 0 671 829" fill="none" xmlns="http://www.w3.org/2000/svg">
<path d="M528.528 48.7174L515.279 144.481C515.13 145.561 515.872 146.561 516.949 146.731L617.691 162.605C618.907 162.797 620.006 161.854 620.002 160.623L619.539 23.6272C619.534 22.2969 618.256 21.3417 616.979 21.7138L529.95 47.0714C529.193 47.2919 528.636 47.9365 528.528 48.7174Z" stroke="black" stroke-width="5"/>
<path d="M630.01 28.4707L619.01 19.4707L618.01 164.971L641.01 160.471L630.01 28.4707Z" fill="black"/>
<path d="M630.01 30.9707H643.403C644.388 30.9707 645.226 31.6873 645.379 32.66L664.654 155.223C664.842 156.421 663.929 157.51 662.716 157.533L639.839 157.971" stroke="black" stroke-width="5" stroke-linecap="round"/>
<path d="M572.01 33.9707C574.079 24.565 581.893 6.22418 596.597 8.10499C604.475 9.11256 609.01 18.2161 609.01 22.6838" stroke="black" stroke-width="5" stroke-linecap="round"/>
<path d="M552.01 39.9707C554.313 28.6881 563.397 4.1535 580.359 3.00174C592.27 2.19292 596.319 17.3724 594.652 27.4545" stroke="black" stroke-width="5" stroke-linecap="round"/>
<path d="M193.01 595.971L211.01 598.507V640.714C211.01 641.357 210.412 641.833 209.785 641.688L193.785 637.997C193.332 637.892 193.01 637.488 193.01 637.023V595.971Z" fill="black"/>
<path d="M238.648 585.971L176.51 591.971L249.385 603.971L313.648 597.971L238.648 585.971Z" fill="black"/>
<path d="M159.01 591.139L250.623 605.017M159.01 591.139V721.421C159.01 721.64 159.153 721.834 159.363 721.899L250.623 749.971M159.01 591.139L235.51 586.471M250.623 605.017L340.523 597.511C340.794 597.489 341.033 597.687 341.062 597.957L354.464 725.033C354.49 725.283 354.327 725.514 354.082 725.572L250.623 749.971M250.623 605.017V749.971" stroke="black" stroke-width="5" stroke-linecap="round"/>
<path d="M348.98 798.48C338.58 812.08 374.98 828.48 394.98 823.98C372.98 811.98 375.147 802.48 375.98 798.48C371.313 792.813 359.38 784.88 348.98 798.48Z" fill="black"/>
<path d="M383.022 775.144C378.485 785.343 372.134 807.491 383.022 814.485C396.631 823.228 401.168 827.599 417.045 825.414C432.923 823.228 437.459 821.042 428.386 814.485C419.313 807.929 410.52 797.198 412.788 770.971" stroke="black" stroke-width="5" stroke-linecap="round"/>
<path d="M369.716 752.492C348.51 711.971 347.51 648.471 341.033 596.356C282.164 599.855 245.63 596.665 227.329 578.669C202.146 553.908 208.808 526.778 208.808 502.666C231.759 518.758 224.227 497.971 317.01 497.971C403.572 502.771 428.601 628.971 430.296 691.471C432.057 718.587 429.438 743.045 417.157 752.492C392.487 771.47 375.199 762.971 369.716 752.492Z" fill="black"/>
<path d="M312.95 346.971C337.626 300.624 318.654 280.884 307.044 271.971C308.416 307.068 285.281 325.922 273.01 330.743V341.971C275.18 339.125 302.044 340.777 312.95 346.971Z" fill="black"/>
<path d="M156.501 329.887C172.952 345.47 187.057 345.249 193.481 345.971C217.285 345.971 227.781 343.565 236.662 340.357L231.01 323.518C219.132 314.963 211.968 301.183 209.212 294.65C206.116 297.26 201.763 297.75 199.524 294.65C197.726 292.939 193.996 286.582 194.68 277.008C195.364 267.435 201.137 268.509 204.538 270.99L221.528 272.816C220.813 256.988 230.599 251.706 235.581 251.043C231.666 242.276 238.669 238.439 242.355 236.933C247.641 243.392 254.57 245.994 257.5 247.205C287.317 254.981 305.517 244.335 313.917 231.047C323.037 217.632 321.56 186.132 295.763 178.464C287.327 175.228 267.329 172.575 254.819 187.85C217.995 174.359 200.566 212.972 195.784 226.994L190.259 239.778C142.269 249.956 138.045 295.207 146.475 315.025C150.296 324.011 150.799 324.486 156.249 329.647L156.501 329.887Z" fill="black"/>
<path d="M220.368 273.631C222.379 284.988 232.241 292.442 242.098 290.725C251.955 289.008 258.665 278.667 256.653 267.31C254.641 255.953 244.779 248.499 234.922 250.216C225.065 251.934 218.355 262.274 220.368 273.631Z" stroke="black" stroke-width="5"/>
<path d="M273.309 273.631C274.995 284.988 283.258 292.442 291.516 290.725C299.775 289.008 305.397 278.667 303.711 267.31C302.026 255.953 293.763 248.499 285.504 250.216C277.245 251.934 271.624 262.274 273.309 273.631Z" stroke="black" stroke-width="5"/>
<path d="M271.01 269.971L257.01 271.971" stroke="black" stroke-width="5" stroke-linecap="round"/>
<path d="M271.01 314.971C267.919 319.764 260.192 323.282 254.01 314.971" stroke="black" stroke-width="5" stroke-linecap="round"/>
<path d="M265.01 286.971C269.281 296.243 270.644 300.88 266.554 303.971" stroke="black" stroke-width="5" stroke-linecap="round"/>
<path d="M294.658 286.459C291.641 286.989 288.765 284.972 288.234 281.955C287.704 278.937 289.721 276.061 292.739 275.531C295.756 275.001 298.632 277.017 299.162 280.035C299.693 283.053 297.676 285.929 294.658 286.459Z" fill="black"/>
<path d="M248.337 287.837C245.319 288.367 242.443 286.35 241.913 283.332C241.383 280.315 243.4 277.439 246.417 276.909C249.435 276.378 252.311 278.395 252.841 281.413C253.371 284.43 251.355 287.306 248.337 287.837Z" fill="black"/>
<path d="M202.743 281.825C203.277 282.548 204.511 284.215 205.167 285.103" stroke="black" stroke-width="5" stroke-linecap="round"/>
<path d="M298.039 243.971C311.002 271.386 312.411 293.717 285.379 321.681C258.346 349.645 229.367 323.418 218.256 306.809L211.01 296.043" stroke="black" stroke-width="5" stroke-linecap="round"/>
<path d="M218.907 270.511L206.941 270.915" stroke="black" stroke-width="5" stroke-linecap="round"/>
<path d="M349.022 410.971C358.195 421.565 369.1 460.826 341.01 487.971" stroke="black" stroke-width="5" stroke-linecap="round"/>
<path d="M333.51 378.471C333.51 350.471 296.879 339.628 273.44 343.734C266.633 348.817 249.26 355.933 234.229 343.734C222.52 345.073 197.142 351.285 189.3 365.415C169.422 398.331 159.075 485.037 221.976 508.319" stroke="black" stroke-width="5" stroke-linecap="round"/>
<path d="M223.01 410.971C231.034 423.503 233.774 442.372 233.081 454.288C233.058 454.687 233.519 454.936 233.839 454.698C252.002 441.158 293.449 443.697 303.121 450.719C310.978 456.423 305.253 464.186 300.613 469.14C287.826 482.786 268.238 496.015 255.51 501.971" stroke="black" stroke-width="5" stroke-linecap="round"/>
<path d="M352.714 390.327C359.432 394.392 354.254 413.257 351.454 420.814L349.019 419.958L349.7 416.999L349.473 414.04C348.214 410.914 340.944 408.568 336.746 414.04C332.641 419.39 327.428 423.973 324.583 425.113C313.499 431.054 315.487 421.335 317.866 415.733C319.266 413.127 323.24 404.242 324.583 395.799C325.927 387.357 331.721 386.419 335.08 386.028C338.159 385.768 345.996 386.262 352.714 390.327Z" fill="black"/>
<path d="M333.01 380.057C335.512 379.687 338.537 380.438 340.311 383.54C340.693 384.209 340.943 385.012 341.01 385.971" stroke="black" stroke-width="5" stroke-linecap="round"/>
<path d="M320.744 413.971C318.267 412.277 317.136 409.737 315.013 405.412C312.891 399.575 311.662 396.188 310.343 391.303C310.06 389.735 309.047 385.476 312.891 385.033C316.287 384.641 316.711 387.384 317.136 389.344C318.409 396.188 324.046 394.964 324.046 390.261C324.046 385.557 324.046 381.793 322.608 376.152C321.85 373.181 319.915 366.971 326.877 366.971C331.878 366.971 332.274 371.552 333.01 379.39" stroke="black" stroke-width="5" stroke-linecap="round"/>
<path d="M349.01 439.971C337.323 459.434 328.036 454.239 313.01 463.971" stroke="black" stroke-width="5" stroke-linecap="round"/>
<path d="M298.01 441.971C299.395 434.538 306.317 429.936 309.433 416.486C310.504 411.866 311.856 407.638 316.01 407.991" stroke="black" stroke-width="5" stroke-linecap="round"/>
<path d="M452.01 719.515C456.001 733.059 467.812 759.244 483.135 755.632C498.458 752.021 521.442 739.078 531.019 733.059C540.596 725.534 547.779 712.291 499.895 719.515C496.702 719.515 490.318 716.806 490.318 705.971" stroke="black" stroke-width="5" stroke-linecap="round"/>
<path d="M169.845 555.07C148.711 560.798 125.816 594.057 117.01 609.971C130.219 608.379 160.158 599.945 174.248 578.94C188.337 557.934 177.183 554.274 169.845 555.07Z" fill="black"/>
<path d="M160.286 499.124C139.089 501.297 123.843 554.456 117.01 578.971C132.195 566.363 162.108 541.148 169.397 532.744C183.062 516.984 180.785 497.022 160.286 499.124Z" fill="black"/>
<path d="M94.9837 482.127C83.4344 500.926 108.46 529.172 120.01 547.971C120.01 536.134 120.01 511.37 120.01 500.926C120.01 484.216 103.323 468.553 94.9837 482.127Z" fill="black"/>
<path d="M120.01 588.971C104.303 566.99 70.7461 528.89 62.1784 552.336C51.4688 581.644 117.868 588.971 120.01 588.971Z" fill="black"/>
<path d="M120.01 618.971L117.01 538.971" stroke="black" stroke-width="5" stroke-linecap="round"/>
<path d="M95.836 685.118C101.245 672.169 109.295 638.939 110.977 622.971H133.69C134.699 642.651 145.045 670.876 150.093 685.118C165.234 718.781 152.196 740.36 142.523 745.971H105.93C81.9563 738.202 88.2648 703.244 95.836 685.118Z" stroke="black" stroke-width="5"/>
<path d="M230.01 426.971C231.579 420.444 234.245 405.108 232.363 395.971" stroke="black" stroke-width="5" stroke-linecap="round"/>
<path d="M338.01 426.971C341.847 424.6 352.397 419.86 349.519 410.971" stroke="black" stroke-width="5" stroke-linecap="round"/>
<path d="M341.01 435.971C343.344 435.082 348.01 431.971 350.01 429.971" stroke="black" stroke-width="5" stroke-linecap="round"/>
<path d="M328.01 492.471C332.344 482.637 335.01 474.471 337.51 453.471" stroke="black" stroke-width="5" stroke-linecap="round"/>
<path d="M454.589 532.973C424.244 475.178 339.684 486.628 316.01 499.074C376.061 505.238 391.342 547 393.763 566.481C402.802 643.758 426.583 689.052 437.344 702.04C446.222 708.534 484.586 708.07 486.574 692.299C493.838 634.666 472.063 566.254 454.589 532.973Z" fill="black"/>
<path d="M515.097 789.042C516.556 779.552 486.556 783.194 469.332 786.565C467.843 786.857 466.484 787.812 466.245 789.311C465.739 792.469 467.316 795.465 468.847 797.367C469.562 798.256 470.657 798.701 471.796 798.76C486.663 799.53 513.63 798.59 515.097 789.042Z" fill="black"/>
<path d="M11.6274 114.322C5.34752 118.784 -3.10886 131.179 16.1967 137.523C30.9209 142.361 43.4079 139.915 47.7218 139.814" stroke="black" stroke-width="5" stroke-linecap="round"/>
<path d="M68.8859 144.064C47.0309 146.217 20.9157 121.203 8.80485 106.325C7.99602 105.332 8.35743 103.862 9.48697 103.257C24.5993 95.1676 36.1393 79.211 41.047 70.375C41.6543 69.2817 43.1051 68.9636 44.0947 69.7283C79.522 97.1004 85.1295 119.927 83.9243 128.531C83.9099 128.633 83.8884 128.725 83.8562 128.823C82.4985 132.974 77.7664 141.557 69.2087 144.003C69.1033 144.033 68.9949 144.054 68.8859 144.064Z" stroke="black" stroke-width="5" stroke-linecap="round"/>
<ellipse cx="24.5277" cy="86.1082" rx="26.5" ry="5" transform="rotate(-45.978 24.5277 86.1082)" fill="black"/>
<path d="M610.079 335.971C601.912 363.971 586.879 422.571 592.079 432.971" stroke="black" stroke-width="5" stroke-linecap="round"/>
<path d="M595.359 343.628L608.547 335.385C609.388 334.86 610.486 335.03 611.129 335.784L620.382 346.646C621.029 347.406 622.137 347.572 622.978 347.037L654.51 326.971C659.51 322.971 659.427 319.342 657.51 316.971C654.193 312.868 644.707 311.364 638.415 311.428C637.571 311.437 636.848 312.011 636.606 312.819L634.291 320.535C634.114 321.126 633.668 321.606 633.09 321.821C616.345 328.045 605.678 324.063 601.509 318.669C601.173 318.235 601.082 317.668 601.207 317.133L602.489 311.687C602.765 310.512 601.949 309.361 600.744 309.291C592.162 308.79 578.51 309.926 578.51 317.971C578.51 326.179 587.501 337.636 592.903 343.332C593.544 344.008 594.57 344.121 595.359 343.628Z" fill="black"/>
<path d="M555.51 406.971C559.51 364.171 572.344 328.804 578.51 316.971C580.51 312.471 585.31 309.371 590.51 308.971C597.01 308.471 646.694 308.545 659.01 314.971C670.51 320.971 668.51 320.971 665.51 354.471C663.11 381.271 653.51 416.971 649.01 431.471C646.01 439.471 627.91 446.271 609.51 439.471C586.51 430.971 593.51 435.471 572.51 431.471C555.71 428.271 554.809 414.471 555.51 406.971Z" stroke="black" stroke-width="5"/>
<path d="M667.512 334.471C664.178 330.971 656.612 327.471 653.012 341.471C648.512 358.971 638.432 398.057 637.51 402.971C636.01 410.971 635.511 431.971 643.511 419.471C649.911 409.471 657.345 367.471 659.512 347.471" stroke="black" stroke-width="5" stroke-linecap="round"/>
<ellipse cx="613.579" cy="348.471" rx="2.50085" ry="4" transform="rotate(13.2587 613.579 348.471)" fill="black"/>
<ellipse cx="607.931" cy="368.938" rx="2.50085" ry="4" transform="rotate(13.2587 607.931 368.938)" fill="black"/>
<ellipse cx="602.931" cy="392.938" rx="2.50085" ry="4" transform="rotate(13.2587 602.931 392.938)" fill="black"/>
<ellipse cx="598.931" cy="417.938" rx="2.50085" ry="4" transform="rotate(13.2587 598.931 417.938)" fill="black"/>
<path d="M356.51 380.971L362.51 354.471" stroke="black" stroke-width="5" stroke-linecap="round"/>
<path d="M364.51 389.971L403.51 368.471" stroke="black" stroke-width="5" stroke-linecap="round"/>
<path d="M368.01 401.971H393.51" stroke="black" stroke-width="5" stroke-linecap="round"/>
<path d="M360.01 233.471C372.844 230.138 401.91 228.971 415.51 250.971C432.51 278.471 433.51 286.471 455.01 281.471" stroke="black" stroke-width="5" stroke-linecap="round"/>
<path d="M470.237 219.664C485.404 221.497 519.937 219.164 536.737 195.164C553.537 171.164 567.071 169.497 571.737 171.664" stroke="black" stroke-width="5" stroke-linecap="round"/>
<path d="M214.01 144.971C215.344 134.971 212.81 112.571 192.01 102.971" stroke="black" stroke-width="5" stroke-linecap="round"/>
<path d="M21.5103 290.471C23.6769 278.471 36.3103 255.271 69.5103 258.471C102.71 261.671 121.344 248.471 126.51 241.471" stroke="black" stroke-width="5" stroke-linecap="round"/>
<path d="M148.917 146.971C143.571 148.87 134.609 155.343 141.531 166.039C148.402 176.655 154.594 167.707 156.886 161.786C156.921 161.698 156.942 161.609 156.95 161.514C157.268 157.976 156.481 151.596 150.817 153.327C145.076 155.08 147.158 159.61 148.917 161.655" stroke="black" stroke-width="5" stroke-linecap="round"/>
<path d="M390.917 119.971C385.571 121.87 376.609 128.343 383.531 139.039C390.402 149.655 396.594 140.707 398.886 134.786C398.921 134.698 398.942 134.609 398.95 134.514C399.268 130.976 398.481 124.596 392.817 126.327C387.076 128.08 389.158 132.61 390.917 134.655" stroke="black" stroke-width="5" stroke-linecap="round"/>
</svg>
