<svg width="1037" height="1189" viewBox="0 0 1037 1189" fill="none" xmlns="http://www.w3.org/2000/svg">
<path d="M968.546 675.971C979.741 629.105 996.733 535.314 977.311 526.783C976.428 526.397 975.466 526.144 974.575 525.773L900.747 494.965" stroke="black" stroke-width="5" stroke-linecap="round"/>
<path d="M881.529 505.012L870.599 549.021" stroke="black" stroke-width="5" stroke-linecap="round"/>
<path d="M969.884 535.591C978.232 551.311 965.259 617.59 954.787 661.16C952.509 670.658 942.17 675.637 933.188 671.732L863.794 641.561C856.701 638.475 852.826 630.791 854.563 623.288L865.099 576.018" stroke="black" stroke-width="5" stroke-linecap="round"/>
<path d="M955.173 536.539C951.787 532.418 948.288 517.869 956.148 510.431C957.503 509.135 959.209 508.057 961.321 507.287C975.575 502.074 984.669 519.783 976.095 525.877" stroke="black" stroke-width="5" stroke-linecap="round"/>
<path d="M956.37 509.786C955.155 501.801 944.791 493.461 932.296 500.385C918.871 509.876 925.616 523.832 931.737 528.701" stroke="black" stroke-width="5" stroke-linecap="round"/>
<path d="M931.729 499.699C929.182 493.405 919.577 481.266 906.906 486.256C889.889 495.54 899.685 513.83 906.807 516.171" stroke="black" stroke-width="5" stroke-linecap="round"/>
<path d="M907.051 485.386C903.182 478.394 893.528 471.636 884.101 478.32C874.672 485.006 877.663 502.723 887.244 508.394" stroke="black" stroke-width="5" stroke-linecap="round"/>
<path d="M951.511 568.52C937.297 564.353 906.197 553.52 895.511 543.52" stroke="black" stroke-width="5" stroke-linecap="round"/>
<path d="M945.511 590.52C932.16 588.465 900.836 576.038 888.511 571.52" stroke="black" stroke-width="5" stroke-linecap="round"/>
<path d="M941.511 614.52C926.464 612.245 894.398 604.86 886.511 593.52" stroke="black" stroke-width="5" stroke-linecap="round"/>
<path d="M934.511 638.52C926.833 637.52 914.368 634.12 904.511 626.52" stroke="black" stroke-width="5" stroke-linecap="round"/>
<rect x="-3.22489" y="1.44916" width="21.3568" height="16.4996" rx="2.5" transform="matrix(-0.93481 -0.355148 -0.355148 0.93481 891.554 611.566)" stroke="black" stroke-width="5"/>
<path d="M216.599 268.63L130.913 305.885C116.923 311.966 100.822 304.212 97.2743 289.42C80.9653 221.566 60.7623 118.344 73.7623 93.8624L190.099 48.019" stroke="black" stroke-width="5" stroke-linecap="round"/>
<path d="M209.099 56.0195L245.339 196.019" stroke="black" stroke-width="5" stroke-linecap="round"/>
<path d="M102.099 145.52C124.436 139.02 173.306 122.12 190.099 106.52" stroke="black" stroke-width="5" stroke-linecap="round"/>
<path d="M112.099 179.52C132.946 176.276 181.856 156.655 201.099 149.52" stroke="black" stroke-width="5" stroke-linecap="round"/>
<path d="M118.099 216.52C141.627 212.945 191.767 201.34 204.099 183.52" stroke="black" stroke-width="5" stroke-linecap="round"/>
<path d="M129.099 254.52C140.873 252.936 159.985 247.553 175.099 235.52" stroke="black" stroke-width="5" stroke-linecap="round"/>
<rect x="190.059" y="215.266" width="36.0475" height="28.483" rx="2.5" transform="rotate(-20.8025 190.059 215.266)" stroke="black" stroke-width="5"/>
<path d="M737.099 1126.1C726.945 1149.6 682.275 1194.31 668.562 1172.85C662.289 1163.03 668.562 1155.99 681.001 1141.43C693.966 1126.26 694.199 1117.16 687.858 1112.31C684.298 1109.24 675.672 1101.58 672.627 1098.52" stroke="black" stroke-width="5" stroke-linecap="round"/>
<path d="M560.629 1109.65C568.484 1138.64 543.471 1156.75 518.723 1158.21C487.791 1160.02 469.189 1153.8 475.235 1143.43C480.083 1135.13 494.762 1135.68 502.304 1136.26C516.295 1137.33 523.05 1123.59 513.847 1104.52" stroke="black" stroke-width="5" stroke-linecap="round"/>
<path d="M602.09 1152.18C602.74 1137.47 567.112 1142.98 548.779 1146.62C544.376 1155.52 529.7 1157.49 528.099 1159.71C549.313 1162.4 601.431 1166.89 602.09 1152.18Z" fill="black"/>
<path d="M764.301 1183.54C776.028 1172.73 727.517 1169.01 701.795 1168.52C698.088 1173.93 683.789 1177.79 677.099 1179.04C701.276 1185.05 752.575 1194.36 764.301 1183.54Z" fill="black"/>
<path d="M234.099 345.52C227.234 335.267 213.663 311.92 214.296 300.563C213.768 296.882 213.98 289.52 219.049 289.52C224.119 289.52 225.914 296.882 226.178 300.563" stroke="black" stroke-width="5" stroke-linecap="round"/>
<path d="M362.099 612.02C301.809 573.147 263.489 486.418 249.205 435.646C242.566 408.673 226.358 372.974 252.379 338.068C278.399 303.162 302.359 328.284 311.079 345.208L328.366 374.02" stroke="black" stroke-width="5" stroke-linecap="round"/>
<path d="M396.598 713.02C383.099 832.02 412.668 1075.94 487.862 1090.15C563.065 1104.36 592.133 1066.21 597.271 1045.36C603.178 1072.13 627.321 1116.4 676.63 1079.34C725.938 1042.27 722.347 982.539 714.387 957.31L621.599 699.52C534.017 760.554 438.28 733.347 396.598 713.02Z" fill="black"/>
<path d="M224.58 290.519C226.375 282.082 228.887 262.2 224.58 250.176C220.274 238.153 226.375 234.092 229.964 233.565C233.81 233.037 241.193 236.887 239.962 256.505" stroke="black" stroke-width="5" stroke-linecap="round"/>
<path d="M236.599 236.742C234.757 226.986 233.609 208.153 245.61 207.52C259.505 210.684 260.874 244.172 259.821 260.52" stroke="black" stroke-width="5" stroke-linecap="round"/>
<path d="M257.099 221.88C263.289 220.384 272.259 222.95 274.129 240.971C274.589 245.321 274.529 250.57 273.789 256.881" stroke="black" stroke-width="5" stroke-linecap="round"/>
<path d="M274.129 240.97C279.049 236.728 288.419 233.97 286.509 256.88C284.129 285.517 281.739 282.335 288.099 320.518" stroke="black" stroke-width="5" stroke-linecap="round"/>
<path d="M444.599 468.018C477.399 477.618 505.266 460.018 515.099 450.018C569.099 416.418 607.266 464.018 619.599 492.018C684.599 542.018 783.886 554.697 799.923 582.035C815.96 609.374 794.807 626.411 782.226 631.513C754.513 643.023 670.599 648.518 619.599 607.018C613.433 620.185 604.799 654.818 619.599 688.018" stroke="black" stroke-width="5" stroke-linecap="round"/>
<path d="M816.714 615.761C827.055 621.153 839.665 626.591 853.599 629.479" stroke="black" stroke-width="5" stroke-linecap="round"/>
<path d="M812.195 578.19C821.543 571.703 842.771 560.319 856.812 558.544C864.776 557.537 871.911 555.079 874.703 560.951C878.736 569.434 866.37 571.804 861.23 577.793C860.356 579.188 858.791 580.925 856.643 582.249C853.154 584.397 848.125 585.458 842.013 582.203" stroke="black" stroke-width="5" stroke-linecap="round"/>
<path d="M812.196 578.19C821.543 571.702 846.599 557.019 870.1 557.018" stroke="black" stroke-width="5" stroke-linecap="round"/>
<path d="M381.861 526.52C314.691 456.69 335.768 365.659 355.776 344.52C364.923 412.354 419.135 439.288 445.099 444.276V468.503C437.096 462.802 393.295 506.568 381.861 526.52Z" fill="black"/>
<path d="M398.601 716.52C398.601 704.02 404.214 667.561 388.617 638.443C387.022 634.159 384.629 630.094 382.758 625.66C345.873 538.306 406.599 493.52 441.1 468.02" stroke="black" stroke-width="5" stroke-linecap="round"/>
<path d="M357.421 296.52C348.684 323.953 347.629 387.406 409.4 431.109C471.17 474.811 518.725 415.265 534.783 380.028L545.408 350.94C552.727 355.434 567.51 358.035 568.077 332.495C568.643 306.954 558.394 305.3 553.201 307.664C550.367 308.847 544.417 312.914 543.283 319.724" stroke="black" stroke-width="5" stroke-linecap="round"/>
<path d="M657.489 409.123C631.156 444.694 604.823 448.962 592.724 452.52C555.599 424.52 527.599 441.02 514.649 449.17L511.802 417.156C531.73 396.667 542.881 364.511 545.964 350.994C552.796 354.978 560.198 351.706 563.045 349.571C566.603 346.252 572.581 335.058 568.026 316.846C563.472 298.634 550.946 305.939 545.252 311.866L513.225 321.115C509.24 290.381 488.649 283.509 478.851 283.913C483.406 265.701 468.651 260.674 461.059 259.013C453.088 273.242 440.657 280.594 435.437 283.913C380.779 308.955 342.204 294.586 321.565 271.819C299.502 249.053 291.673 187.873 338.646 164.394C353.758 155.314 391.285 143.456 420.492 168.663C486.68 130.246 533.241 198.755 547.175 224.154L562.121 246.919C657.774 250.334 675.045 335.135 671.723 377.109C670.622 391.02 666.099 397.492 657.489 409.123Z" fill="black"/>
<path d="M513.099 322.02C513.099 343.104 497.745 359.52 479.599 359.52C461.454 359.52 446.099 343.104 446.099 322.02C446.099 300.936 461.454 284.52 479.599 284.52C497.745 284.52 513.099 300.936 513.099 322.02Z" stroke="black" stroke-width="5"/>
<path d="M423.099 335.02C423.099 356.104 407.745 372.52 389.599 372.52C371.454 372.52 356.099 356.104 356.099 335.02C356.099 313.936 371.454 297.52 389.599 297.52C407.745 297.52 423.099 313.936 423.099 335.02Z" stroke="black" stroke-width="5"/>
<path d="M423.099 326.52L445.099 324.52" stroke="black" stroke-width="5" stroke-linecap="round"/>
<path d="M439.182 346.52C435.988 364.316 426.276 380.547 441.099 388.52" stroke="black" stroke-width="5" stroke-linecap="round"/>
<path d="M382.099 361.52C388.176 361.52 393.099 356.594 393.099 350.52C393.099 344.445 388.176 339.52 382.099 339.52C376.024 339.52 371.099 344.445 371.099 350.52C371.099 356.594 376.024 361.52 382.099 361.52Z" fill="black"/>
<path d="M472.599 345.52C478.399 345.52 483.099 340.818 483.099 335.02C483.099 329.221 478.399 324.52 472.599 324.52C466.8 324.52 462.099 329.221 462.099 335.02C462.099 340.818 466.8 345.52 472.599 345.52Z" fill="black"/>
<path d="M556.099 323.52C556.853 326.32 557.91 333.04 556.099 337.52" stroke="black" stroke-width="5" stroke-linecap="round"/>
<path d="M513.099 320.52L549.099 311.52" stroke="black" stroke-width="5" stroke-linecap="round"/>
<path d="M472.099 314.53C477.981 314.33 490.216 317.048 492.099 329.52" stroke="black" stroke-width="5" stroke-linecap="round"/>
<path d="M370.099 332.52C374.099 330.619 384.3 327.671 393.099 331.094" stroke="black" stroke-width="5" stroke-linecap="round"/>
<path d="M436.099 414.053C442.36 418.716 457.525 423.738 468.099 406.52" stroke="black" stroke-width="5" stroke-linecap="round"/>
<path d="M73.0991 61.5195C69.6616 49.9091 62.6491 21.8545 62.0991 2.51953" stroke="black" stroke-width="5" stroke-linecap="round"/>
<path d="M60.0991 68.5195C54.988 60.1805 44.0688 40.028 37.0991 27.5195" stroke="black" stroke-width="5" stroke-linecap="round"/>
<path d="M44.0991 77.5195C36.0876 75.2118 16.6715 70.1811 3.09912 68.5195" stroke="black" stroke-width="5" stroke-linecap="round"/>
<path d="M44.0991 377.52C53.4633 367.81 73.9732 345.616 81.0991 334.52" stroke="black" stroke-width="5" stroke-linecap="round"/>
<path d="M93.0991 343.52C87.6113 358.408 74.5284 389.253 66.0991 393.52" stroke="black" stroke-width="5" stroke-linecap="round"/>
<path d="M114.099 346.52L122.099 379.52" stroke="black" stroke-width="5" stroke-linecap="round"/>
</svg>
