<svg width="1605" height="926" viewBox="0 0 1605 926" fill="none" xmlns="http://www.w3.org/2000/svg">
<path d="M511.089 61.9653C456.957 81.1424 406.733 148.425 386.678 182.399C385.932 183.663 386.785 185.246 388.248 185.361L453.882 190.518C454.629 190.576 455.335 190.226 455.74 189.595C475.773 158.384 534.333 121.298 563.89 105.085C565.161 104.388 565.302 102.614 564.154 101.729L512.951 62.2699C512.419 61.8599 511.722 61.7411 511.089 61.9653Z" stroke="black" stroke-width="5" stroke-linecap="round"/>
<path d="M1070.6 277.113C1070.6 290.878 1059.23 302.113 1045.1 302.113C1030.97 302.113 1019.6 290.878 1019.6 277.113C1019.6 263.348 1030.97 252.113 1045.1 252.113C1059.23 252.113 1070.6 263.348 1070.6 277.113Z" stroke="black" stroke-width="5"/>
<path d="M1045.1 289.613V293.613" stroke="black" stroke-width="5" stroke-linecap="round"/>
<path d="M1045.1 264.613V260.613" stroke="black" stroke-width="5" stroke-linecap="round"/>
<path d="M1052.1 266.312C1050.39 265.429 1047.79 264.604 1045.36 264.613C1042.44 264.625 1039.76 265.85 1039.17 269.65C1038.39 274.662 1044.28 276.461 1047.79 278.272C1052.64 280.775 1052.59 285.468 1049.67 287.728C1048.36 288.745 1046.87 289.303 1045.36 289.514C1043.16 289.822 1040.93 289.389 1039.17 288.563" stroke="black" stroke-width="5" stroke-linecap="round"/>
<path d="M580.599 284.113C580.599 300.093 567.429 313.113 551.099 313.113C534.769 313.113 521.599 300.093 521.599 284.113C521.599 268.134 534.769 255.113 551.099 255.113C567.429 255.113 580.599 268.134 580.599 284.113Z" stroke="black" stroke-width="5"/>
<path d="M551.099 298.613V302.613" stroke="black" stroke-width="5" stroke-linecap="round"/>
<path d="M551.099 269.613V265.613" stroke="black" stroke-width="5" stroke-linecap="round"/>
<path d="M559.099 271.584C557.126 270.56 554.13 269.602 551.329 269.613C547.953 269.627 544.859 271.047 544.18 275.455C543.283 281.269 550.078 283.356 554.126 285.457C559.721 288.361 559.67 293.804 556.302 296.427C554.787 297.606 553.067 298.253 551.329 298.498C548.788 298.855 546.21 298.353 544.18 297.394" stroke="black" stroke-width="5" stroke-linecap="round"/>
<path d="M481.395 139.895L484.378 142.558" stroke="black" stroke-width="5" stroke-linecap="round"/>
<path d="M459.761 120.582L456.777 117.918" stroke="black" stroke-width="5" stroke-linecap="round"/>
<path d="M466.559 115.927C464.481 116.717 461.771 118.314 459.914 120.411C457.675 122.939 456.675 126.193 459.511 129.635C463.251 134.176 469.333 130.497 473.596 128.876C479.488 126.636 483.515 130.299 483.228 134.558C483.099 136.474 482.436 138.188 481.461 139.647C480.036 141.781 477.944 143.369 475.877 144.246" stroke="black" stroke-width="5" stroke-linecap="round"/>
<path d="M759.937 82.0195L759.082 84.6142" stroke="black" stroke-width="5" stroke-linecap="round"/>
<path d="M766.135 63.2079L766.989 60.6133" stroke="black" stroke-width="5" stroke-linecap="round"/>
<path d="M773.528 65.6214C771.82 64.6773 769.097 63.631 766.359 63.2407C763.058 62.7704 759.732 63.253 758.126 66.0159C756.008 69.6599 762.2 71.9778 765.705 73.9148C770.551 76.5924 769.338 80.1161 765.487 81.3392C763.755 81.8893 761.936 82.065 760.186 81.9771C757.628 81.8485 755.217 81.1565 753.438 80.2469" stroke="black" stroke-width="5" stroke-linecap="round"/>
<path d="M1033.05 87.6094L1030.57 88.7574" stroke="black" stroke-width="5" stroke-linecap="round"/>
<path d="M1051.02 79.2848L1053.5 78.1367" stroke="black" stroke-width="5" stroke-linecap="round"/>
<path d="M1054.3 86.3349C1053.83 84.4419 1052.73 81.7392 1051.15 79.4722C1049.23 76.7401 1046.61 74.6409 1043.5 75.3554C1039.39 76.2976 1041.92 82.4031 1042.9 86.2863C1044.26 91.6543 1040.86 93.1754 1037.33 91.1982C1035.75 90.3089 1034.38 89.1007 1033.25 87.7626C1031.59 85.8063 1030.45 83.5725 1029.9 81.6522" stroke="black" stroke-width="5" stroke-linecap="round"/>
<path d="M1244.9 349.75L1240.63 351.73" stroke="black" stroke-width="5" stroke-linecap="round"/>
<path d="M1275.89 335.394L1280.17 333.414" stroke="black" stroke-width="5" stroke-linecap="round"/>
<path d="M1281.57 347.552C1280.74 344.287 1278.85 339.626 1276.12 335.717C1272.82 331.005 1268.3 327.385 1262.93 328.618C1255.84 330.242 1260.22 340.771 1261.91 347.468C1264.24 356.725 1258.37 359.348 1252.3 355.939C1249.56 354.405 1247.2 352.321 1245.25 350.014C1242.4 346.64 1240.43 342.788 1239.48 339.477" stroke="black" stroke-width="5" stroke-linecap="round"/>
<path d="M1173.9 313.75L1169.63 315.73" stroke="black" stroke-width="5" stroke-linecap="round"/>
<path d="M1168.48 303.473C1169.43 306.784 1171.4 310.637 1174.25 314.01C1176.2 316.318 1178.57 318.401 1181.3 319.935C1187.38 323.345 1193.24 320.721 1190.91 311.464C1189.22 304.768 1184.96 294.515 1191.93 292.614C1195.6 291.612 1197.6 292.112 1200.1 294.613" stroke="black" stroke-width="5" stroke-linecap="round"/>
<path d="M1129.87 362.195L1125.6 364.175" stroke="black" stroke-width="5" stroke-linecap="round"/>
<path d="M1124.45 351.922C1125.4 355.234 1127.37 359.086 1130.22 362.459C1132.17 364.767 1134.54 366.851 1137.27 368.384C1143.35 371.794 1149.22 369.171 1146.88 359.914C1145.19 353.217 1140.93 342.964 1147.9 341.063C1151.57 340.062 1153.57 340.561 1156.07 343.063" stroke="black" stroke-width="5" stroke-linecap="round"/>
<path d="M955.099 145.113C955.099 155.285 946.638 163.613 936.099 163.613C925.56 163.613 917.099 155.285 917.099 145.113C917.099 134.941 925.56 126.613 936.099 126.613C946.638 126.613 955.099 134.941 955.099 145.113Z" stroke="black" stroke-width="4"/>
<path d="M936.099 154.613V157.613" stroke="black" stroke-width="4" stroke-linecap="round"/>
<path d="M936.099 135.613V132.613" stroke="black" stroke-width="4" stroke-linecap="round"/>
<path d="M941.099 136.904C939.915 136.234 938.118 135.606 936.437 135.613C934.411 135.622 932.555 136.553 932.147 139.441C931.61 143.25 935.686 144.617 938.115 145.994C941.472 147.896 941.442 151.463 939.421 153.181C938.512 153.953 937.48 154.377 936.437 154.538C934.913 154.772 933.366 154.442 932.147 153.815" stroke="black" stroke-width="4" stroke-linecap="round"/>
<path d="M367.599 183.113C367.599 200.753 353.082 215.113 335.099 215.113C317.116 215.113 302.599 200.753 302.599 183.113C302.599 165.474 317.116 151.113 335.099 151.113C353.082 151.113 367.599 165.474 367.599 183.113Z" stroke="black" stroke-width="5"/>
<path d="M335.099 198.613V203.613" stroke="black" stroke-width="5" stroke-linecap="round"/>
<path d="M335.099 167.613V162.613" stroke="black" stroke-width="5" stroke-linecap="round"/>
<path d="M344.099 169.72C341.863 168.625 338.467 167.601 335.293 167.613C331.466 167.628 327.961 169.146 327.19 173.858C326.175 180.073 333.875 182.304 338.463 184.55C344.804 187.654 344.746 193.473 340.929 196.276C339.212 197.537 337.262 198.229 335.293 198.49C332.413 198.872 329.491 198.335 327.19 197.31" stroke="black" stroke-width="5" stroke-linecap="round"/>
<path d="M750.599 138.113C750.599 157.965 734.288 174.113 714.099 174.113C693.91 174.113 677.599 157.965 677.599 138.113C677.599 118.261 693.91 102.113 714.099 102.113C734.288 102.113 750.599 118.261 750.599 138.113Z" stroke="black" stroke-width="5"/>
<path d="M714.099 155.613V160.613" stroke="black" stroke-width="5" stroke-linecap="round"/>
<path d="M714.099 120.613V115.613" stroke="black" stroke-width="5" stroke-linecap="round"/>
<path d="M724.099 122.992C721.6 121.756 717.805 120.6 714.257 120.613C709.98 120.63 706.062 122.344 705.201 127.664C704.066 134.681 712.672 137.2 717.8 139.735C724.887 143.24 724.823 149.809 720.556 152.974C718.637 154.398 716.458 155.179 714.257 155.474C711.039 155.906 707.773 155.299 705.201 154.142" stroke="black" stroke-width="5" stroke-linecap="round"/>
<path d="M177.737 682.613L115.599 688.613L188.474 700.613L252.737 694.613L177.737 682.613Z" fill="black"/>
<path d="M98.0991 687.781L189.712 701.66M98.0991 687.781V818.063C98.0991 818.283 98.2423 818.477 98.4521 818.541L189.712 846.613M98.0991 687.781L174.599 683.113M189.712 701.66L279.612 694.154C279.883 694.131 280.122 694.329 280.15 694.6L293.553 821.675C293.579 821.926 293.415 822.157 293.17 822.214L189.712 846.613M189.712 701.66V846.613" stroke="black" stroke-width="5" stroke-linecap="round"/>
<path d="M288.069 895.123C277.669 908.723 314.069 925.123 334.069 920.623C312.069 908.623 314.236 899.123 315.069 895.123C310.402 889.456 298.469 881.523 288.069 895.123Z" fill="black"/>
<path d="M322.111 871.786C317.574 881.986 311.223 904.134 322.111 911.128C335.72 919.871 340.256 924.242 356.134 922.056C372.011 919.871 376.548 917.685 367.475 911.128C358.402 904.571 349.609 893.841 351.877 867.613" stroke="black" stroke-width="5" stroke-linecap="round"/>
<path d="M308.804 849.135C287.599 808.613 286.599 745.113 280.122 692.998C221.253 696.497 184.718 693.307 166.417 675.312C141.235 650.55 147.897 623.421 147.896 599.309C170.848 615.4 163.315 594.613 256.099 594.613C342.661 599.413 367.69 725.613 369.384 788.113C371.146 815.23 368.527 839.687 356.246 849.135C331.576 868.112 314.288 859.613 308.804 849.135Z" fill="black"/>
<path d="M252.039 443.613C276.715 397.267 257.743 377.527 246.133 368.613C247.505 403.711 224.37 422.565 212.099 427.385V438.613C214.269 435.768 241.133 437.419 252.039 443.613Z" fill="black"/>
<path d="M95.5903 426.529C112.041 442.113 126.146 441.892 132.57 442.613C156.374 442.613 166.87 440.208 175.75 437L170.099 420.16C158.22 411.605 151.057 397.826 148.301 391.293C145.205 393.903 140.852 394.393 138.613 391.293C136.815 389.581 133.085 383.225 133.769 373.651C134.453 364.078 140.226 365.151 143.626 367.633L160.616 369.458C159.901 353.63 169.688 348.348 174.67 347.686C170.755 338.918 177.758 335.082 181.444 333.575C186.73 340.035 193.659 342.637 196.589 343.847C226.406 351.624 244.606 340.977 253.006 327.689C262.126 314.275 260.649 282.775 234.852 275.107C226.416 271.871 206.418 269.217 193.908 284.493C157.083 271.001 139.655 309.615 134.873 323.636L129.347 336.421C81.3576 346.598 77.134 391.85 85.5636 411.668C89.3852 420.653 89.888 421.129 95.3374 426.29L95.5903 426.529Z" fill="black"/>
<path d="M159.456 370.274C161.468 381.631 171.33 389.085 181.187 387.368C191.044 385.651 197.754 375.31 195.742 363.953C193.73 352.596 183.868 345.142 174.011 346.859C164.154 348.576 157.444 358.917 159.456 370.274Z" stroke="black" stroke-width="5"/>
<path d="M212.398 370.274C214.084 381.631 222.347 389.085 230.605 387.368C238.864 385.651 244.485 375.31 242.8 363.953C241.115 352.596 232.852 345.142 224.593 346.859C216.334 348.576 210.713 358.917 212.398 370.274Z" stroke="black" stroke-width="5"/>
<path d="M210.099 366.613L196.099 368.613" stroke="black" stroke-width="5" stroke-linecap="round"/>
<path d="M210.099 411.613C207.008 416.407 199.281 419.925 193.099 411.613" stroke="black" stroke-width="5" stroke-linecap="round"/>
<path d="M204.099 383.613C208.37 392.886 209.733 397.522 205.643 400.613" stroke="black" stroke-width="5" stroke-linecap="round"/>
<path d="M233.747 383.099C230.73 383.629 227.853 381.612 227.323 378.595C226.793 375.577 228.81 372.701 231.828 372.171C234.845 371.641 237.721 373.657 238.251 376.675C238.781 379.693 236.765 382.569 233.747 383.099Z" fill="black"/>
<path d="M187.426 384.482C184.408 385.012 181.532 382.995 181.002 379.977C180.472 376.96 182.489 374.084 185.506 373.554C188.524 373.023 191.4 375.04 191.93 378.058C192.46 381.075 190.444 383.951 187.426 384.482Z" fill="black"/>
<path d="M141.832 378.469C142.366 379.192 143.6 380.859 144.256 381.746" stroke="black" stroke-width="5" stroke-linecap="round"/>
<path d="M237.128 340.613C250.091 368.029 251.5 390.359 224.468 418.323C197.435 446.288 168.456 420.061 157.345 403.451L150.099 392.685" stroke="black" stroke-width="5" stroke-linecap="round"/>
<path d="M157.996 367.152L146.03 367.557" stroke="black" stroke-width="5" stroke-linecap="round"/>
<path d="M288.111 507.613C297.284 518.208 308.188 557.469 280.099 584.613" stroke="black" stroke-width="5" stroke-linecap="round"/>
<path d="M272.599 475.113C272.599 447.113 235.967 436.269 212.529 440.375C205.721 445.459 188.349 452.575 173.318 440.375C161.609 441.715 136.231 447.927 128.389 462.056C108.511 494.973 98.164 581.679 161.065 604.961" stroke="black" stroke-width="5" stroke-linecap="round"/>
<path d="M162.099 507.613C170.123 520.145 172.863 539.014 172.17 550.931C172.147 551.329 172.608 551.579 172.928 551.34C191.09 537.801 232.538 540.339 242.209 547.361C250.067 553.066 244.342 560.829 239.702 565.783C226.915 579.429 207.327 592.658 194.599 598.613" stroke="black" stroke-width="5" stroke-linecap="round"/>
<path d="M291.803 486.97C298.521 491.035 293.343 509.9 290.543 517.456L288.108 516.6L288.789 513.642L288.562 510.683C287.303 507.556 280.033 505.211 275.835 510.683C271.73 516.032 266.517 520.616 263.672 521.755C252.588 527.697 254.575 517.978 256.955 512.375C258.354 509.77 262.329 500.884 263.672 492.442C265.016 483.999 270.81 483.062 274.169 482.671C277.248 482.41 285.085 482.905 291.803 486.97Z" fill="black"/>
<path d="M272.099 476.7C274.601 476.33 277.626 477.08 279.399 480.182C279.782 480.852 280.032 481.655 280.099 482.613" stroke="black" stroke-width="5" stroke-linecap="round"/>
<path d="M259.833 510.613C257.356 508.92 256.225 506.379 254.102 502.055C251.979 496.218 250.75 492.831 249.432 487.946C249.149 486.378 248.136 482.119 251.979 481.675C255.376 481.284 255.8 484.027 256.225 485.987C257.498 492.831 263.135 491.607 263.135 486.903C263.135 482.2 263.135 478.435 261.697 472.795C260.939 469.823 259.004 463.613 265.966 463.613C270.967 463.613 271.363 468.195 272.099 476.033" stroke="black" stroke-width="5" stroke-linecap="round"/>
<path d="M288.099 536.613C276.412 556.076 267.125 550.882 252.099 560.613" stroke="black" stroke-width="5" stroke-linecap="round"/>
<path d="M237.099 538.613C238.484 531.18 245.406 526.579 248.522 513.129C249.593 508.508 250.945 504.28 255.099 504.634" stroke="black" stroke-width="5" stroke-linecap="round"/>
<path d="M391.099 816.157C395.089 829.701 406.901 855.887 422.224 852.275C437.547 848.663 460.531 835.721 470.108 829.701C479.685 822.177 486.868 808.934 438.983 816.157C435.791 816.157 429.407 813.449 429.407 802.613" stroke="black" stroke-width="5" stroke-linecap="round"/>
<path d="M108.934 651.712C87.7998 657.441 64.9049 690.7 56.0991 706.613C69.3077 705.022 99.2472 696.588 113.336 675.582C127.426 654.577 116.272 650.916 108.934 651.712Z" fill="black"/>
<path d="M99.3747 595.766C78.1777 597.939 62.9321 651.099 56.0991 675.613C71.2835 663.006 101.197 637.791 108.485 629.386C122.151 613.627 119.874 593.665 99.3747 595.766Z" fill="black"/>
<path d="M34.0726 578.77C22.5232 597.569 47.5488 625.814 59.0988 644.613C59.0988 632.777 59.0993 608.013 59.0991 597.569C59.0987 580.859 42.4121 565.196 34.0726 578.77Z" fill="black"/>
<path d="M59.0991 685.613C43.3917 663.632 9.83493 625.532 1.26725 648.979C-9.44236 678.286 56.9572 685.613 59.0991 685.613Z" fill="black"/>
<path d="M59.0991 715.613L56.0991 635.613" stroke="black" stroke-width="5" stroke-linecap="round"/>
<path d="M34.9248 781.761C40.3335 768.812 48.3839 735.582 50.0663 719.613H72.7789C73.7883 739.293 84.1343 767.519 89.1821 781.761C104.323 815.424 91.2851 837.003 81.6114 842.613H45.0191C21.0452 834.845 27.3536 799.887 34.9248 781.761Z" stroke="black" stroke-width="5"/>
<path d="M169.099 523.613C170.668 517.087 173.334 501.75 171.452 492.613" stroke="black" stroke-width="5" stroke-linecap="round"/>
<path d="M277.099 523.613C280.936 521.243 291.486 516.502 288.608 507.613" stroke="black" stroke-width="5" stroke-linecap="round"/>
<path d="M280.099 532.613C282.432 531.724 287.099 528.613 289.099 526.613" stroke="black" stroke-width="5" stroke-linecap="round"/>
<path d="M267.099 589.113C271.432 579.28 274.099 571.113 276.599 550.113" stroke="black" stroke-width="5" stroke-linecap="round"/>
<path d="M393.678 629.615C363.333 571.82 278.773 583.27 255.099 595.717C315.15 601.88 330.431 643.642 332.852 663.124C341.891 740.4 365.672 785.695 376.433 798.682C385.31 805.176 423.675 804.713 425.663 788.942C432.926 731.309 411.152 662.896 393.678 629.615Z" fill="black"/>
<path d="M454.186 885.684C455.645 876.194 425.645 879.836 408.421 883.208C406.932 883.499 405.573 884.455 405.333 885.953C404.828 889.112 406.405 892.108 407.936 894.01C408.651 894.898 409.746 895.344 410.885 895.403C425.751 896.173 452.719 895.232 454.186 885.684Z" fill="black"/>
<path d="M1153.78 727.613C1139.98 746.638 1119.55 765.202 1112.23 768.271L1109.1 783.613C1145.94 772.106 1156.13 748.326 1153.78 727.613Z" fill="black"/>
<path d="M1094.71 664.797C1100.58 709.202 1093.74 758.872 1088.65 782.159C1088.38 783.416 1089.33 784.613 1090.62 784.613H1108.6C1109.49 784.613 1110.27 784.03 1110.51 783.176C1121.95 742.174 1109.75 693.08 1098.43 663.679C1097.58 661.475 1094.4 662.455 1094.71 664.797Z" fill="black"/>
<path d="M1114.96 732.3C1135.83 736.108 1163.64 725.314 1179.1 702.805" stroke="black" stroke-width="5" stroke-linecap="round"/>
<path d="M1018.75 684.191C1005.39 707.262 1050.36 758.409 1096.19 736.105" stroke="black" stroke-width="5" stroke-linecap="round"/>
<path d="M1040.2 610.168C1013.02 614.012 998.122 651.274 1018.75 684.194C1022.51 690.186 1038.81 696.689 1046.44 696.689" stroke="black" stroke-width="5" stroke-linecap="round"/>
<path d="M1179.1 655.846C1179.1 627.257 1171.47 596.839 1125.79 583.249C1077.68 568.936 1051.54 590.56 1040.2 610.167C1034.81 619.485 1036.9 628.431 1040.2 636.122" stroke="black" stroke-width="5" stroke-linecap="round"/>
<path d="M1111.1 691.613C1119.13 683.388 1135.98 668.833 1129.74 635.613" stroke="black" stroke-width="5" stroke-linecap="round"/>
<path d="M1095.1 707.613C1088.8 705.669 1073.19 695.947 1061.1 672.613" stroke="black" stroke-width="5" stroke-linecap="round"/>
<path d="M1218.6 604.132C1218.6 602.346 1220.42 601.136 1222.07 601.827L1249.07 613.15C1249.99 613.54 1250.6 614.448 1250.6 615.456V678.8C1250.6 680.625 1248.71 681.835 1247.05 681.07L1220.05 668.615L1219 670.885L1220.05 668.615C1219.17 668.206 1218.6 667.32 1218.6 666.345V604.132Z" stroke="black" stroke-width="5"/>
<path d="M1288.6 642.132C1288.6 640.346 1290.42 639.136 1292.07 639.827L1319.07 651.15C1319.99 651.54 1320.6 652.448 1320.6 653.456V716.8C1320.6 718.625 1318.71 719.835 1317.05 719.07L1290.05 706.615L1289 708.885L1290.05 706.615C1289.17 706.206 1288.6 705.32 1288.6 704.345V642.132Z" stroke="black" stroke-width="5"/>
<path d="M1218.6 490.132C1218.6 488.346 1220.42 487.136 1222.07 487.827L1249.07 499.15C1249.99 499.54 1250.6 500.448 1250.6 501.456V564.8C1250.6 566.625 1248.71 567.835 1247.05 567.07L1220.05 554.615L1219 556.885L1220.05 554.615C1219.17 554.206 1218.6 553.32 1218.6 552.345V490.132Z" stroke="black" stroke-width="5"/>
<path d="M1288.6 527.132C1288.6 525.346 1290.42 524.136 1292.07 524.827L1319.07 536.15C1319.99 536.54 1320.6 537.448 1320.6 538.456V601.8C1320.6 603.625 1318.71 604.835 1317.05 604.07L1290.05 591.615L1289 593.885L1290.05 591.615C1289.17 591.206 1288.6 590.32 1288.6 589.345V527.132Z" stroke="black" stroke-width="5"/>
<path d="M1250.1 747.19V807.992C1250.1 809.164 1250.78 810.229 1251.85 810.718L1277.85 822.66C1279.83 823.573 1282.1 822.121 1282.1 819.934V758.504C1282.1 757.31 1281.39 756.23 1280.3 755.753L1254.3 744.44C1252.31 743.577 1250.1 745.03 1250.1 747.19Z" fill="black"/>
<path d="M1357.1 860.613L1180.77 773.853C1179.75 773.348 1179.1 772.304 1179.1 771.161V412.613" stroke="black" stroke-width="5" stroke-linecap="round"/>
<path d="M1352.75 862.73V498.621L1171.75 415.32C1169.19 414.141 1169.52 410.397 1172.25 409.691L1334.1 367.837C1334.66 367.691 1335.26 367.712 1335.81 367.899L1498.1 422.652V792.127C1498.1 793.257 1497.46 794.292 1496.45 794.803L1357.1 865.406C1355.11 866.417 1352.75 864.967 1352.75 862.73Z" fill="black"/>
<path d="M1604.1 770.546L1496.88 741.613V792.44L1395.1 845.613L1604.1 770.546Z" fill="black"/>
<path d="M1108.6 474.113C1108.6 490.646 1094.98 504.113 1078.1 504.113C1061.22 504.113 1047.6 490.646 1047.6 474.113C1047.6 457.581 1061.22 444.113 1078.1 444.113C1094.98 444.113 1108.6 457.581 1108.6 474.113Z" stroke="black" stroke-width="5"/>
<path d="M1078.1 488.613V493.613" stroke="black" stroke-width="5" stroke-linecap="round"/>
<path d="M1078.1 459.613V454.613" stroke="black" stroke-width="5" stroke-linecap="round"/>
<path d="M1086.1 461.584C1083.99 460.56 1080.8 459.602 1077.81 459.613C1074.21 459.627 1070.91 461.047 1070.19 465.455C1069.23 471.269 1076.48 473.356 1080.79 475.457C1086.76 478.361 1086.71 483.804 1083.12 486.427C1081.5 487.606 1079.66 488.253 1077.81 488.498C1075.1 488.855 1072.35 488.353 1070.19 487.394" stroke="black" stroke-width="5" stroke-linecap="round"/>
<path d="M1307.1 375.113C1306.28 342.224 1307.94 265.673 1320.87 218.228C1321.22 216.922 1320.23 215.651 1318.87 215.695C1287.33 216.726 1225.02 221.689 1205.68 234.229C1205.29 234.48 1205.04 234.83 1204.91 235.274C1199.64 254.319 1194.33 312.331 1214.1 398.113" stroke="black" stroke-width="5" stroke-linecap="round"/>
<path d="M676.208 59.8946L651.09 110.131C650.319 111.674 651.755 113.404 653.425 112.972C739.205 90.8158 804.985 101.263 828.558 109.73C829.223 109.969 829.937 109.842 830.489 109.399L890.464 61.2296C891.65 60.2774 891.387 58.4091 889.97 57.8568C819.001 30.1914 719.608 46.7422 677.412 58.878C676.877 59.0319 676.458 59.3964 676.208 59.8946Z" stroke="black" stroke-width="5" stroke-linecap="round"/>
<path d="M1045.6 147.118C1025.11 106.997 975.15 58.7302 950.405 37.5684C949.315 36.6367 949.518 34.8932 950.796 34.2444L1012.87 2.7362C1013.61 2.36104 1014.51 2.48673 1015.12 3.04489C1079.69 61.8551 1111.08 124.543 1119.75 151.352C1120.18 152.685 1119.1 153.993 1117.71 153.88L1047.22 148.204C1046.53 148.148 1045.91 147.741 1045.6 147.118Z" stroke="black" stroke-width="5" stroke-linecap="round"/>
<path d="M1210.6 229.613L1198.31 183.292C1197.96 181.974 1196.42 181.384 1195.29 182.139C1170.6 198.537 1123.05 233.484 1111.48 254.879C1111.23 255.357 1111.19 255.877 1111.37 256.39C1120.55 282.41 1151.02 346.569 1202.1 401.613" stroke="black" stroke-width="5" stroke-linecap="round"/>
<path d="M1127.6 292.613C1110.75 299.674 1070.26 314.832 1038.71 320.947C1037.15 321.249 1036.52 323.142 1037.61 324.289C1064.32 352.312 1125.93 405.368 1178.6 413.113" stroke="black" stroke-width="5" stroke-linecap="round"/>
</svg>
