<svg width="1338" height="1036" viewBox="0 0 1338 1036" fill="none" xmlns="http://www.w3.org/2000/svg">
<path d="M177.737 792.613L115.599 798.613L188.474 810.613L252.737 804.613L177.737 792.613Z" fill="black"/>
<path d="M98.0991 797.781L189.712 811.66M98.0991 797.781V928.063C98.0991 928.283 98.2423 928.477 98.4521 928.541L189.712 956.613M98.0991 797.781L174.599 793.113M189.712 811.66L279.612 804.154C279.883 804.131 280.122 804.329 280.15 804.6L293.553 931.675C293.579 931.926 293.415 932.157 293.17 932.214L189.712 956.613M189.712 811.66V956.613" stroke="black" stroke-width="5" stroke-linecap="round"/>
<path d="M288.069 1005.12C277.669 1018.72 314.069 1035.12 334.069 1030.62C312.069 1018.62 314.236 1009.12 315.069 1005.12C310.403 999.456 298.469 991.523 288.069 1005.12Z" fill="black"/>
<path d="M322.111 981.786C317.574 991.986 311.223 1014.13 322.111 1021.13C335.72 1029.87 340.256 1034.24 356.134 1032.06C372.011 1029.87 376.548 1027.68 367.475 1021.13C358.402 1014.57 349.609 1003.84 351.877 977.613" stroke="black" stroke-width="5" stroke-linecap="round"/>
<path d="M308.804 959.135C287.599 918.613 286.599 855.113 280.122 802.998C221.253 806.497 184.718 803.307 166.417 785.312C141.235 760.55 147.897 733.421 147.896 709.309C170.848 725.4 163.315 704.613 256.099 704.613C342.661 709.413 367.69 835.613 369.384 898.113C371.146 925.23 368.527 949.687 356.246 959.135C331.576 978.112 314.288 969.613 308.804 959.135Z" fill="black"/>
<path d="M252.039 553.613C276.715 507.267 257.743 487.527 246.133 478.613C247.505 513.711 224.37 532.565 212.099 537.385V548.613C214.269 545.768 241.133 547.419 252.039 553.613Z" fill="black"/>
<path d="M95.5903 536.529C112.041 552.113 126.146 551.892 132.57 552.613C156.374 552.613 166.87 550.208 175.75 547L170.099 530.16C158.22 521.605 151.057 507.826 148.301 501.293C145.205 503.903 140.852 504.393 138.613 501.293C136.815 499.581 133.085 493.225 133.769 483.651C134.453 474.078 140.226 475.151 143.626 477.633L160.616 479.458C159.901 463.63 169.688 458.348 174.67 457.686C170.755 448.918 177.758 445.082 181.444 443.575C186.73 450.035 193.659 452.637 196.589 453.847C226.406 461.624 244.606 450.977 253.006 437.689C262.126 424.275 260.649 392.775 234.852 385.107C226.416 381.871 206.418 379.217 193.908 394.493C157.083 381.001 139.655 419.615 134.873 433.636L129.347 446.421C81.3576 456.598 77.134 501.85 85.5636 521.668C89.3852 530.653 89.888 531.129 95.3374 536.29L95.5903 536.529Z" fill="black"/>
<path d="M159.456 480.274C161.468 491.631 171.33 499.085 181.187 497.368C191.044 495.651 197.754 485.31 195.742 473.953C193.73 462.596 183.868 455.142 174.011 456.859C164.154 458.576 157.444 468.917 159.456 480.274Z" stroke="black" stroke-width="5"/>
<path d="M212.398 480.274C214.084 491.631 222.347 499.085 230.605 497.368C238.864 495.651 244.485 485.31 242.8 473.953C241.115 462.596 232.852 455.142 224.593 456.859C216.334 458.576 210.713 468.917 212.398 480.274Z" stroke="black" stroke-width="5"/>
<path d="M210.099 476.613L196.099 478.613" stroke="black" stroke-width="5" stroke-linecap="round"/>
<path d="M210.099 521.613C207.008 526.407 199.281 529.925 193.099 521.613" stroke="black" stroke-width="5" stroke-linecap="round"/>
<path d="M204.099 493.613C208.37 502.886 209.733 507.522 205.643 510.613" stroke="black" stroke-width="5" stroke-linecap="round"/>
<path d="M233.747 493.099C230.73 493.629 227.853 491.612 227.323 488.595C226.793 485.577 228.81 482.701 231.828 482.171C234.845 481.641 237.721 483.657 238.251 486.675C238.781 489.693 236.765 492.569 233.747 493.099Z" fill="black"/>
<path d="M187.426 494.482C184.408 495.012 181.532 492.995 181.002 489.977C180.472 486.96 182.489 484.084 185.506 483.554C188.524 483.023 191.4 485.04 191.93 488.058C192.46 491.075 190.444 493.951 187.426 494.482Z" fill="black"/>
<path d="M141.832 488.469C142.366 489.192 143.6 490.859 144.256 491.746" stroke="black" stroke-width="5" stroke-linecap="round"/>
<path d="M237.128 450.613C250.091 478.029 251.5 500.359 224.468 528.323C197.435 556.288 168.456 530.061 157.345 513.451L150.099 502.685" stroke="black" stroke-width="5" stroke-linecap="round"/>
<path d="M157.996 477.152L146.03 477.557" stroke="black" stroke-width="5" stroke-linecap="round"/>
<path d="M288.111 617.613C297.284 628.208 308.188 667.469 280.099 694.613" stroke="black" stroke-width="5" stroke-linecap="round"/>
<path d="M272.599 585.113C272.599 557.113 235.967 546.269 212.529 550.375C205.721 555.459 188.349 562.575 173.318 550.375C161.609 551.715 136.231 557.927 128.389 572.056C108.511 604.973 98.164 691.679 161.065 714.961" stroke="black" stroke-width="5" stroke-linecap="round"/>
<path d="M162.099 617.613C170.123 630.145 172.863 649.014 172.17 660.931C172.147 661.329 172.608 661.579 172.928 661.34C191.09 647.801 232.538 650.339 242.209 657.361C250.067 663.066 244.342 670.829 239.702 675.783C226.915 689.429 207.327 702.658 194.599 708.613" stroke="black" stroke-width="5" stroke-linecap="round"/>
<path d="M291.803 596.97C298.521 601.035 293.343 619.9 290.543 627.456L288.108 626.6L288.789 623.642L288.562 620.683C287.303 617.556 280.033 615.211 275.835 620.683C271.73 626.032 266.517 630.616 263.672 631.755C252.588 637.697 254.575 627.978 256.955 622.375C258.354 619.77 262.329 610.884 263.672 602.442C265.016 593.999 270.81 593.062 274.169 592.671C277.248 592.41 285.085 592.905 291.803 596.97Z" fill="black"/>
<path d="M272.099 586.7C274.601 586.33 277.626 587.08 279.399 590.182C279.782 590.852 280.032 591.655 280.099 592.613" stroke="black" stroke-width="5" stroke-linecap="round"/>
<path d="M259.833 620.613C257.356 618.92 256.225 616.379 254.102 612.055C251.979 606.218 250.75 602.831 249.432 597.946C249.149 596.378 248.136 592.119 251.979 591.675C255.376 591.284 255.8 594.027 256.225 595.987C257.498 602.831 263.135 601.607 263.135 596.903C263.135 592.2 263.135 588.435 261.697 582.795C260.939 579.823 259.004 573.613 265.966 573.613C270.967 573.613 271.363 578.195 272.099 586.033" stroke="black" stroke-width="5" stroke-linecap="round"/>
<path d="M288.099 646.613C276.412 666.076 267.125 660.882 252.099 670.613" stroke="black" stroke-width="5" stroke-linecap="round"/>
<path d="M237.099 648.613C238.484 641.18 245.406 636.579 248.522 623.129C249.593 618.508 250.945 614.28 255.099 614.634" stroke="black" stroke-width="5" stroke-linecap="round"/>
<path d="M391.099 926.157C395.089 939.701 406.901 965.887 422.224 962.275C437.547 958.663 460.531 945.721 470.108 939.701C479.685 932.177 486.868 918.934 438.983 926.157C435.791 926.157 429.407 923.449 429.407 912.613" stroke="black" stroke-width="5" stroke-linecap="round"/>
<path d="M108.934 761.712C87.7998 767.441 64.9049 800.7 56.0991 816.613C69.3077 815.022 99.2472 806.588 113.336 785.582C127.426 764.577 116.272 760.916 108.934 761.712Z" fill="black"/>
<path d="M99.3747 705.766C78.1777 707.939 62.9321 761.099 56.0991 785.613C71.2835 773.006 101.197 747.791 108.485 739.386C122.151 723.627 119.874 703.665 99.3747 705.766Z" fill="black"/>
<path d="M34.0726 688.77C22.5232 707.569 47.5488 735.814 59.0988 754.613C59.0988 742.777 59.0993 718.013 59.0991 707.569C59.0987 690.859 42.4121 675.196 34.0726 688.77Z" fill="black"/>
<path d="M59.0991 795.613C43.3917 773.632 9.83493 735.532 1.26725 758.979C-9.44236 788.286 56.9572 795.613 59.0991 795.613Z" fill="black"/>
<path d="M59.0991 825.613L56.0991 745.613" stroke="black" stroke-width="5" stroke-linecap="round"/>
<path d="M34.9248 891.761C40.3335 878.812 48.3839 845.582 50.0663 829.613H72.7789C73.7883 849.293 84.1343 877.519 89.1821 891.761C104.323 925.424 91.2851 947.003 81.6114 952.613H45.0191C21.0452 944.845 27.3536 909.887 34.9248 891.761Z" stroke="black" stroke-width="5"/>
<path d="M169.099 633.613C170.668 627.087 173.334 611.75 171.452 602.613" stroke="black" stroke-width="5" stroke-linecap="round"/>
<path d="M277.099 633.613C280.936 631.243 291.486 626.502 288.608 617.613" stroke="black" stroke-width="5" stroke-linecap="round"/>
<path d="M280.099 642.613C282.432 641.724 287.099 638.613 289.099 636.613" stroke="black" stroke-width="5" stroke-linecap="round"/>
<path d="M267.099 699.113C271.432 689.28 274.099 681.113 276.599 660.113" stroke="black" stroke-width="5" stroke-linecap="round"/>
<path d="M393.678 739.615C363.333 681.82 278.773 693.27 255.099 705.717C315.15 711.88 330.431 753.642 332.852 773.124C341.891 850.4 365.672 895.695 376.433 908.682C385.31 915.176 423.675 914.713 425.663 898.942C432.926 841.309 411.152 772.896 393.678 739.615Z" fill="black"/>
<path d="M454.187 995.684C455.645 986.194 425.646 989.836 408.422 993.208C406.932 993.499 405.574 994.455 405.334 995.953C404.829 999.112 406.405 1002.11 407.936 1004.01C408.652 1004.9 409.746 1005.34 410.885 1005.4C425.752 1006.17 452.719 1005.23 454.187 995.684Z" fill="black"/>
<path d="M982.099 659.613C985.317 668.56 997.643 686.92 1021.2 688.787C1050.65 691.121 1054.51 698.589 1053.38 730.796C1052.26 763.004 1069.87 780.329 1095.1 760.613C1154.6 714.113 1126.6 825.613 1104.1 890.613" stroke="black" stroke-width="5" stroke-linecap="round"/>
<path d="M762.1 298.297C641.519 360.646 559.1 486.504 559.1 631.613C559.1 838.72 726.993 1006.61 934.099 1006.61C1118.28 1006.61 1271.44 873.84 1303.1 698.789C1311.45 652.613 1307.7 584.213 1288.1 526.613" stroke="black" stroke-width="5" stroke-linecap="round"/>
<path d="M1035.1 272.1C1001.19 262.024 965.278 256.613 928.1 256.613C876.752 256.613 827.814 266.934 783.248 285.613" stroke="black" stroke-width="5" stroke-linecap="round"/>
<path d="M1080.14 157.555L1060.18 131.613" stroke="black" stroke-width="5" stroke-linecap="round"/>
<path d="M1065.14 203.677C1061.11 205.731 1043.96 219.224 1035.89 225.713" stroke="black" stroke-width="5" stroke-linecap="round"/>
<path d="M1062.43 179.665C1056.73 177.81 1038.5 171.884 1030.1 169.152" stroke="black" stroke-width="5" stroke-linecap="round"/>
<path d="M903.099 980.613C895.087 1004.61 868.099 996.947 860.099 989.613C836.599 967.113 804.647 915.147 809.147 891.647C813.647 868.147 802.647 843.147 780.147 828.647C762.147 817.047 760.981 801.147 762.647 794.647C764.314 784.147 769.547 756.947 777.147 732.147C784.747 707.347 821.647 719.814 839.147 729.147C846.981 753.314 871.247 800.247 905.647 794.647C940.047 789.047 961.647 808.314 968.147 818.647C972.147 832.48 970.347 866.447 931.147 891.647C882.147 923.147 913.937 948.151 903.099 980.613Z" fill="black"/>
<path d="M1228.1 804.613C1212.1 818.613 1211.43 793.446 1213.1 779.113C1216.6 759.113 1234.6 755.113 1240.1 736.613C1242.24 729.425 1252.6 726.613 1256.1 736.613C1260.77 749.961 1248.1 787.113 1228.1 804.613Z" fill="black"/>
<path d="M697.099 626.614C689.099 639.614 649.599 612.114 647.099 609.114C635.599 598.614 612.783 574.544 610.099 553.614C607.599 534.115 596.099 500.115 584.599 482.115C610.099 438.115 617.099 416.448 640.099 393.115C680.099 358.315 715.432 377.281 727.099 390.114C735.932 404.114 762.999 426.714 800.599 405.114C838.199 383.514 849.932 414.114 851.099 432.114C850.099 451.447 837.499 490.614 795.099 492.614C742.099 495.114 741.599 523.114 738.599 547.614C736.199 567.214 721.266 564.114 714.099 560.114C706.932 553.78 688.699 544.914 673.099 560.114C657.499 575.314 674.599 595.447 685.099 603.614C692.432 609.947 703.571 616.097 697.099 626.614Z" fill="black"/>
<path d="M875.099 360.616C910.299 365.816 899.876 389.615 895.599 402.116C885.199 432.516 929.362 428.115 936.599 415.615C945.766 399.782 967.699 368.515 982.099 370.115C996.499 371.715 1005.43 360.782 1008.1 355.115C1013.7 311.115 967.432 313.782 943.599 320.615C933.099 326.782 906.399 337.216 883.599 329.616C860.799 322.016 843.766 323.782 838.099 325.616C794.599 352.616 831.099 354.116 875.099 360.616Z" fill="black"/>
<path d="M1261.57 281.574L1267.25 282.056" stroke="black" stroke-width="5" stroke-linecap="round"/>
<path d="M1220.41 278.083L1214.73 277.602" stroke="black" stroke-width="5" stroke-linecap="round"/>
<path d="M1224.17 266.964C1222.47 269.642 1220.75 273.779 1220.43 277.757C1220.05 282.551 1221.69 287.113 1227.87 288.608C1236.01 290.58 1239.79 281.187 1243.26 275.694C1248.06 268.101 1255.78 268.828 1259.09 273.925C1260.59 276.218 1261.3 278.737 1261.43 281.234C1261.64 284.883 1260.61 288.482 1259.01 291.249" stroke="black" stroke-width="5" stroke-linecap="round"/>
<path d="M1168 247.153L1162.36 247.969" stroke="black" stroke-width="5" stroke-linecap="round"/>
<path d="M1169.14 235.474C1168.1 238.465 1167.36 242.884 1167.95 246.831C1168.66 251.589 1171.29 255.66 1177.65 255.719C1186.03 255.796 1186.24 247.222 1188.37 241.086" stroke="black" stroke-width="5" stroke-linecap="round"/>
<path d="M1318.93 356.613C1319.64 338.184 1318.5 300.608 1308.22 297.736C1295.36 294.146 1229.67 294.146 1184.68 297.736C1139.7 301.327 1098.28 299.172 1096.14 289.12C1094.89 283.247 1122.76 280.081 1148.27 278.613" stroke="black" stroke-width="5" stroke-linecap="round"/>
<path d="M1081.1 294.613C1082.77 303.443 1092.39 320.529 1117.56 318.238C1142.72 315.947 1230.51 312.511 1271.26 311.079C1280.07 310.602 1298.57 313.227 1302 327.545C1305.43 341.863 1305.33 353.556 1304.86 357.613" stroke="black" stroke-width="5" stroke-linecap="round" stroke-dasharray="21.89 21.89"/>
<path d="M1296.28 424.613C1298.65 434.125 1297.28 454.123 1272.79 458.02C1242.17 462.892 1208.72 458.02 1153.19 462.196C1108.76 465.537 1095.29 462.196 1094.1 460.108" stroke="black" stroke-width="5" stroke-linecap="round" stroke-dasharray="21.89 21.89"/>
<path d="M1319.05 417.79C1319.76 441.942 1313.34 468.936 1301.93 478.171C1290.52 487.405 1106.5 483.143 1095.09 478.171C1085.96 474.193 1081.78 461.359 1080.82 455.439C1072.37 403.205 1077.14 325.389 1080.7 287.005C1080.78 286.114 1081.13 285.29 1081.74 284.641C1093.13 272.676 1119.68 268.863 1142.88 268.613" stroke="black" stroke-width="5" stroke-linecap="round"/>
<path d="M1319.37 340.664C1322.69 340.187 1331.31 342.954 1333.58 354.971C1335.83 366.849 1335.72 394.385 1332.28 406.76C1332.2 407.05 1332.1 407.313 1331.95 407.573C1326.44 417.114 1303.94 429.483 1254.79 422.633C1253.02 422.388 1251.58 421.086 1251.2 419.346C1247.51 402.143 1244.57 370.925 1258.04 361.972C1258.63 361.579 1259.32 361.399 1260.03 361.379C1279.13 360.857 1317.24 358.901 1325.06 354.97" stroke="black" stroke-width="5" stroke-linecap="round"/>
<circle cx="1283.6" cy="393.113" r="16.5" fill="black"/>
<path d="M1327.1 364.613C1318.16 367.188 1293 372.187 1263.67 371.674C1263.41 371.67 1263.14 371.619 1262.89 371.662C1260.6 372.053 1257.42 379.996 1260.16 409.676C1260.32 411.432 1261.53 412.924 1263.24 413.343C1273.72 415.908 1294.07 417.973 1310.08 409.756" stroke="black" stroke-width="5" stroke-linecap="round" stroke-dasharray="21.89 21.89"/>
<path d="M1158.25 295.613L1098.32 191.379C1097.1 189.256 1097.86 186.546 1100 185.363L1204.36 127.811C1206.53 126.611 1209.27 127.46 1210.38 129.68L1237.1 182.896" stroke="black" stroke-width="5" stroke-linecap="round"/>
<path d="M1182.1 295.613C1185.05 275.508 1191.02 227.079 1192.07 189.562C1192.13 187.387 1193.75 185.572 1195.91 185.338C1229.07 181.758 1294.07 181.588 1319.74 206.721C1320.63 207.591 1321.04 208.821 1320.91 210.058C1318.83 231.088 1311.91 274.685 1299.15 295.613" stroke="black" stroke-width="5" stroke-linecap="round"/>
<path d="M900.281 527.703L1038.7 504.19C1039.69 504.022 1040.29 505.248 1039.54 505.919L975.032 564.069C974.958 564.135 974.881 564.189 974.789 564.227C969.177 566.539 947.072 557.788 935.659 552.658C935.098 552.406 934.443 552.712 934.275 553.304C931.546 562.949 928.2 571.9 926.565 575.924C926.388 576.359 925.905 576.613 925.549 576.307C922.234 573.462 921.811 555.285 922.049 545.228C922.062 544.714 921.686 544.278 921.18 544.188C912.705 542.678 901.036 535.117 896.112 531.401" stroke="black" stroke-width="5" stroke-linecap="round"/>
<path d="M935.121 552.66C949.634 545.773 986.349 528.523 1017.1 514.623" stroke="black" stroke-width="5" stroke-linecap="round"/>
<path d="M926.132 576.664L953.125 560.652" stroke="black" stroke-width="5" stroke-linecap="round"/>
<path d="M932.115 538.664L969.11 526.647" stroke="black" stroke-width="5" stroke-linecap="round"/>
<path d="M741.363 665.346C767.707 659.105 771.81 697.453 793.532 698.073C819.459 698.814 799.196 636.238 784.782 612.378C778.878 601.723 763.768 602.784 769.433 619.509C775.451 637.275 826.906 693.102 839.202 656.623L846.63 630.583C848.539 623.012 853.787 611.287 867.324 620.969C880.86 630.65 890.689 620.806 893.911 614.674L904.301 595.972" stroke="black" stroke-width="5" stroke-linecap="round"/>
<path d="M354.099 463.113C354.099 208.786 560.272 2.61328 814.599 2.61328C929.669 2.61328 1034.88 44.8185 1115.6 114.593" stroke="black" stroke-width="5" stroke-linecap="round"/>
</svg>
