<svg width="668" height="1314" viewBox="0 0 668 1314" fill="none" xmlns="http://www.w3.org/2000/svg">
<path d="M500.599 525.02L380.599 506.52" stroke="black" stroke-width="5" stroke-linecap="round"/>
<path d="M385.099 495.52C414.499 490.861 478.001 487.286 504.755 508.53C506.013 509.53 507.982 508.89 508.327 507.32C513.33 484.538 531.986 440.326 573.599 419.52" stroke="black" stroke-width="5" stroke-linecap="round"/>
<path d="M508.099 508.02C524.099 485.853 562.199 440.52 596.599 434.52" stroke="black" stroke-width="5" stroke-linecap="round"/>
<path d="M518.099 521.02L604.683 453.784C605.937 452.81 607.772 453.617 607.903 455.199L619.513 595.973C619.567 596.628 619.295 597.268 618.786 597.685L597.599 615.02" stroke="black" stroke-width="5" stroke-linecap="round"/>
<path d="M377.099 515.02L402.337 645.661C402.495 646.479 403.142 647.113 403.963 647.253L506.76 664.876C507.296 664.968 507.764 665.275 508.099 665.704C511.734 670.351 521.505 676.638 535.599 669.02" stroke="black" stroke-width="5" stroke-linecap="round"/>
<path d="M502.599 642.02C504.099 646.02 510.099 652.82 522.099 648.02" stroke="black" stroke-width="5" stroke-linecap="round"/>
<path d="M497.599 619.02C505.099 630.52 527.599 629.02 533.099 615.02" stroke="black" stroke-width="5" stroke-linecap="round"/>
<path d="M495.099 590.52C501.599 598.02 517.599 606.02 530.599 588.02" stroke="black" stroke-width="5" stroke-linecap="round"/>
<path d="M493.599 566.02C499.099 573.52 519.599 575.52 525.599 562.52" stroke="black" stroke-width="5" stroke-linecap="round"/>
<path d="M491.599 535.52C493.099 543.186 504.881 553.879 518.599 547.02C524.599 544.02 526.699 536.92 523.099 528.52" stroke="black" stroke-width="5" stroke-linecap="round"/>
<path d="M612.895 609.418C615.895 626.418 614.495 663.818 584.895 677.418C555.295 691.018 536.895 665.085 531.395 650.418C530.561 647.085 530.995 641.718 539.395 646.918C545.158 650.486 552.507 655.985 558.114 660.377C559.756 661.663 562.11 659.904 561.312 657.977L543.894 615.918" stroke="black" stroke-width="5" stroke-linecap="round"/>
<path d="M574.394 652.919L553.394 613.419C551.394 609.086 549.194 600.319 556.394 599.919C563.594 599.519 576.727 622.419 582.394 633.919" stroke="black" stroke-width="5" stroke-linecap="round"/>
<path d="M582.394 633.919L572.894 595.919C571.894 591.919 571.694 585.219 578.894 590.419C586.094 595.619 594.894 625.586 598.394 639.919" stroke="black" stroke-width="5" stroke-linecap="round"/>
<path d="M253.529 1031.52H11.991C9.73541 1031.52 9.20529 1028.37 11.3368 1027.63L51.7813 1013.63C51.9917 1013.56 52.2128 1013.52 52.4355 1013.52H276.084C278.097 1013.52 278.849 1016.16 277.139 1017.22L254.584 1031.22C254.267 1031.42 253.902 1031.52 253.529 1031.52Z" fill="black"/>
<path d="M29.0991 1051.52C71.9325 1102.85 164.799 1218.32 193.599 1269.52" stroke="black" stroke-width="5" stroke-linecap="round"/>
<path d="M49.5991 1273.02C83.2658 1220.52 167.299 1102.52 234.099 1050.52" stroke="black" stroke-width="5" stroke-linecap="round"/>
<path d="M91.5991 1050.52C103.432 1062.02 130.399 1089.22 143.599 1106.02" stroke="black" stroke-width="5" stroke-linecap="round"/>
<path d="M177.599 1143.52C189.932 1159.19 215.899 1194.02 221.099 1208.02" stroke="black" stroke-width="5" stroke-linecap="round"/>
<path d="M598.099 400.891L605.435 384.52" stroke="black" stroke-width="5" stroke-linecap="round"/>
<path d="M617.552 408.097L632.878 390.77" stroke="black" stroke-width="5" stroke-linecap="round"/>
<path d="M634.186 421.599L665.099 393.109" stroke="black" stroke-width="5" stroke-linecap="round"/>
<path d="M361.084 1199.52C362.755 1213.42 359.414 1235.05 343.813 1242.2C324.309 1251.13 274.321 1281.4 322.314 1287.86C360.709 1293.02 391.637 1266.85 402.31 1253.12C405.975 1237.23 408.584 1218.87 402.31 1199.52" stroke="black" stroke-width="5" stroke-linecap="round"/>
<path d="M436.863 1173.13C265.643 1280.5 292.232 891.104 303.956 701.894C428.279 740.666 528.949 715.813 551.254 680.52C557.585 703.045 577.194 864.309 578.849 910.172L578.918 912.001C581.614 986.56 587.74 1156.5 491.132 1191.02C467.103 1199.61 449.577 1191.9 436.863 1173.13Z" fill="black"/>
<path d="M452.55 1200.01C451.641 1209.92 451.864 1233.03 455.515 1245.95C464.737 1278.64 492.626 1313.22 560.06 1310.35C569.145 1308.19 581.864 1299.07 560.06 1279.9C552.089 1272.9 543.45 1266.49 535.325 1259.88C515.647 1243.84 499.088 1226.56 503.031 1196.52" stroke="black" stroke-width="5" stroke-linecap="round"/>
<path d="M293.599 517.02C278.599 585.52 300.066 680.067 306.039 702.291C366.353 720.071 499.797 740.518 551.099 680.067" stroke="black" stroke-width="5" stroke-linecap="round"/>
<path d="M357.099 409.52L358.986 406.659C370.359 389.499 392.289 382.647 411.482 390.264C428.703 397.097 448.389 392.336 460.527 378.403L476.099 360.52" stroke="black" stroke-width="5" stroke-linecap="round"/>
<path d="M465.192 318.63C469.567 306.354 465.567 298.093 461.686 296.52C438.298 317.295 402.826 309.582 389.686 296.991C385.005 301.146 387.728 313.438 389.686 317.214C415.013 344.412 451.065 329.177 465.192 318.63Z" fill="black"/>
<path d="M534.114 116.756C523.215 155.992 517.748 159.468 501.894 176.851C501.894 159.673 498.939 130.838 498.939 118.83C446.988 118.83 403.152 97.5877 387.708 86.965C388.272 122.986 354.549 146.538 354.549 146.538C354.549 146.538 359.384 161.085 362.151 193.642C364.372 219.689 358 214.656 354.549 208.882C344.606 176.74 328.309 185.33 321.39 193.642C236.621 55.6684 366.986 29.0089 391.859 31.5487C410.651 15.478 436.857 2.88389 455.273 1.03659C521.728 -5.62535 551.795 53.1376 534.114 116.756Z" fill="black"/>
<path d="M355.099 233.435C364.09 288.311 424.413 327.772 467.95 283.317C511.487 238.863 502.77 157.491 498.12 119.52" stroke="black" stroke-width="5" stroke-linecap="round"/>
<path d="M320.894 189.52C315.613 202.891 320.568 232.52 355.099 232.52" stroke="black" stroke-width="5" stroke-linecap="round"/>
<path d="M338.292 197.52C337.68 199.995 338.17 205.863 345.099 209.52" stroke="black" stroke-width="5" stroke-linecap="round"/>
<path d="M498.099 225.52C509.486 220.724 517.525 202.962 514.432 174.52" stroke="black" stroke-width="5" stroke-linecap="round"/>
<path d="M432.099 258.846C442.719 262.043 442.048 253.242 450.099 245.52" stroke="black" stroke-width="5" stroke-linecap="round"/>
<path d="M466.599 196.52C470.741 196.52 474.099 192.938 474.099 188.52C474.099 184.101 470.741 180.52 466.599 180.52C462.457 180.52 459.099 184.101 459.099 188.52C459.099 192.938 462.457 196.52 466.599 196.52Z" fill="black"/>
<path d="M400.599 196.52C405.294 196.52 409.099 193.386 409.099 189.52C409.099 185.654 405.294 182.52 400.599 182.52C395.905 182.52 392.099 185.654 392.099 189.52C392.099 193.386 395.905 196.52 400.599 196.52Z" fill="black"/>
<path d="M384.099 172.52C385.745 168.295 392.859 160.48 408.099 163.015" stroke="black" stroke-width="5" stroke-linecap="round"/>
<path d="M454.099 163.52C457.733 161.256 467.625 158.086 478.099 163.52" stroke="black" stroke-width="5" stroke-linecap="round"/>
<path d="M428.898 186.52C427.747 196.075 426.947 215.453 433.099 216.52" stroke="black" stroke-width="5" stroke-linecap="round"/>
<path d="M474.099 322.52C513.141 338.023 540.363 365.043 565.451 406.52" stroke="black" stroke-width="5" stroke-linecap="round"/>
<path d="M51.5844 1012.83C60.7099 994.55 55.5384 965.542 50.8357 952.276C50.3621 950.941 51.3164 949.491 52.7335 949.465L267.302 945.546C268.176 945.53 268.963 946.086 269.224 946.921C277.82 974.352 270.851 1002.76 265.785 1014.83C265.481 1015.56 264.764 1016.02 263.977 1016.02H53.4435C51.8593 1016.02 50.8768 1014.25 51.5844 1012.83Z" stroke="black" stroke-width="5" stroke-linecap="round"/>
<path d="M90.771 949.02C94.4377 961.52 96.5991 995.52 84.5991 1015.52" stroke="black" stroke-width="5" stroke-linecap="round"/>
<path d="M105.771 938.52C99.6043 927.02 90.971 901.42 105.771 887.02" stroke="black" stroke-width="5" stroke-linecap="round"/>
<path d="M69.7715 947.52C60.0571 936.159 44.7471 908.597 60.1906 888.263C60.5487 887.791 61.1135 887.513 61.7055 887.501L263.771 883.52" stroke="black" stroke-width="5" stroke-linecap="round"/>
<path d="M261.271 891.52C259.104 898.353 256.071 917.02 261.271 937.02" stroke="black" stroke-width="5" stroke-linecap="round"/>
<path d="M272.271 888.02C275.196 878.756 279.263 856.655 272.787 840.726C272.487 839.987 271.755 839.527 270.958 839.538L59.1212 842.487C57.889 842.504 56.9643 843.615 57.1521 844.833C58.5795 854.088 60.0731 870.681 56.771 878.02" stroke="black" stroke-width="5" stroke-linecap="round"/>
<path d="M111.599 842.52C115.266 848.853 120.671 865.62 114.271 886.02" stroke="black" stroke-width="5" stroke-linecap="round"/>
<path d="M106.271 835.52C108.104 830.52 110.671 817.42 106.271 805.02" stroke="black" stroke-width="5" stroke-linecap="round"/>
<path d="M60.271 836.02C61.0301 830.858 61.0701 818.671 55.932 808.076C55.2587 806.687 56.2069 804.984 57.7496 804.956L271.403 801.045C272.228 801.029 272.981 801.52 273.265 802.294C275.853 809.326 278.783 823.129 272.771 831.02" stroke="black" stroke-width="5" stroke-linecap="round"/>
<path d="M268.272 797.52C266.827 792.222 256.106 755.849 270.953 727.712C271.692 726.311 270.684 724.567 269.1 724.603L54.3855 729.494C53.6926 729.51 53.0553 729.879 52.7248 730.488C46.6199 741.741 38.9034 770.401 53.271 803.02" stroke="black" stroke-width="5" stroke-linecap="round"/>
<path d="M96.271 728.52C92.1044 742.186 86.971 774.22 99.771 793.02" stroke="black" stroke-width="5" stroke-linecap="round"/>
<path d="M60.271 729.52C62.8305 726.48 67.1096 716.102 64.62 698.296C64.4519 697.093 65.3538 695.99 66.5674 695.957L266.289 690.56C267.169 690.536 267.966 691.085 268.187 691.938C269.787 698.136 270.522 710.685 262.771 721.02" stroke="black" stroke-width="5" stroke-linecap="round"/>
<path d="M231.598 668.393C222.932 673.726 208.199 686.293 220.599 687.893H255.099C263.099 681.559 276.999 664.993 268.599 649.393C258.099 629.893 186.599 637.893 127.099 686.393" stroke="black" stroke-width="5" stroke-linecap="round"/>
<path d="M219.599 674.891C213.932 675.724 201.099 679.291 195.099 686.891" stroke="black" stroke-width="5" stroke-linecap="round"/>
<path d="M266.099 625.538C239.819 618.724 197.432 642.702 173.982 636.607C172.924 636.332 172.362 635.245 172.705 634.207C203.789 540.182 256.861 360.231 373.599 316.02" stroke="black" stroke-width="5" stroke-linecap="round"/>
<path d="M85.271 696.52C87.771 700.52 91.271 712.32 85.271 727.52" stroke="black" stroke-width="5" stroke-linecap="round"/>
</svg>
