<svg width="1240" height="843" viewBox="0 0 1240 843" fill="none" xmlns="http://www.w3.org/2000/svg">
<path d="M253.099 121.422C239.823 166.453 215.383 260.696 223.837 277.422" stroke="black" stroke-width="5" stroke-linecap="round"/>
<path d="M228.37 133.991L251.3 119.745C252.139 119.224 253.232 119.392 253.874 120.142L270.126 139.108C270.773 139.862 271.875 140.028 272.714 139.497L324.323 106.849C332.364 100.454 332.231 94.6518 329.148 90.8614C323.66 84.1132 307.672 81.762 297.58 82.0147C296.737 82.0359 296.017 82.6068 295.773 83.4144L291.637 97.1203C291.459 97.7105 291.009 98.1907 290.432 98.4076C262.756 108.813 245.297 102.055 238.777 93.1679C238.451 92.7228 238.356 92.1553 238.483 91.6182L240.975 81.091C241.253 79.9149 240.439 78.762 239.233 78.6736C225.571 77.6714 202.099 79.1609 202.099 92.46C202.099 105.929 217.331 124.869 225.921 133.707C226.567 134.372 227.583 134.481 228.37 133.991Z" fill="black"/>
<path d="M164.36 235.581C170.832 166.638 191.596 109.669 201.573 90.6073C204.809 83.3586 212.576 78.3651 220.989 77.7208C231.506 76.9154 311.892 77.0343 331.821 87.3857C350.427 97.0505 347.191 97.0506 342.337 151.013C338.454 194.183 322.922 251.689 315.641 275.046C310.787 287.932 281.502 298.886 251.731 287.932C214.517 274.24 225.843 281.489 191.865 275.046C164.683 269.891 163.226 247.662 164.36 235.581Z" stroke="black" stroke-width="5"/>
<path d="M345.099 118.491C339.812 112.824 327.809 107.156 322.098 129.827C314.96 158.166 298.971 221.46 297.509 229.418C295.129 242.373 294.338 276.379 307.028 256.137C317.18 239.944 328.972 171.93 332.409 139.543" stroke="black" stroke-width="5" stroke-linecap="round"/>
<ellipse cx="258.549" cy="141.509" rx="4.0355" ry="6.4546" transform="rotate(13.2587 258.549 141.509)" fill="black"/>
<ellipse cx="249.433" cy="174.536" rx="4.0355" ry="6.4546" transform="rotate(13.2587 249.433 174.536)" fill="black"/>
<ellipse cx="241.365" cy="213.263" rx="4.0355" ry="6.4546" transform="rotate(13.2587 241.365 213.263)" fill="black"/>
<ellipse cx="234.91" cy="253.607" rx="4.0355" ry="6.4546" transform="rotate(13.2587 234.91 253.607)" fill="black"/>
<path fill-rule="evenodd" clip-rule="evenodd" d="M55.2548 111.196C53.7113 110.758 52.0967 111.612 51.5901 113.135L47.9462 124.084C47.5976 125.132 46.7022 125.903 45.6148 126.093L34.2461 128.074C32.6656 128.35 31.5815 129.82 31.7856 131.411L33.2534 142.857C33.3938 143.952 32.9216 145.036 32.0242 145.678L22.6411 152.396C21.3366 153.33 20.9978 155.125 21.8721 156.47L28.161 166.146C28.7625 167.072 28.8072 168.253 28.2774 169.221L22.7384 179.345C21.9683 180.753 22.4419 182.517 23.8132 183.349L33.6775 189.338C34.621 189.911 35.1738 190.956 35.1166 192.058L34.5186 203.583C34.4355 205.185 35.6277 206.569 37.2245 206.724L48.7105 207.84C49.8091 207.947 50.7603 208.648 51.1871 209.666L55.6487 220.309C56.269 221.789 57.9436 222.518 59.4496 221.965L70.2823 217.987C71.3185 217.607 72.4798 217.826 73.306 218.558L81.9435 226.211C83.1443 227.275 84.9697 227.206 86.0866 226.054L94.1205 217.77C94.889 216.977 96.0304 216.671 97.0923 216.972L108.195 220.119C109.738 220.557 111.353 219.703 111.86 218.18L115.504 207.231C115.852 206.183 116.748 205.412 117.835 205.223L129.204 203.241C130.784 202.966 131.868 201.495 131.664 199.904L130.196 188.458C130.056 187.363 130.528 186.279 131.426 185.637L140.809 178.919C142.113 177.985 142.452 176.19 141.578 174.845L135.289 165.169C134.687 164.243 134.643 163.062 135.172 162.094L140.711 151.97C141.481 150.563 141.008 148.798 139.637 147.966L129.772 141.977C128.829 141.404 128.276 140.359 128.333 139.257L128.931 127.732C129.014 126.13 127.822 124.746 126.225 124.591L114.739 123.475C113.641 123.368 112.689 122.667 112.263 121.649L107.801 111.006C107.181 109.526 105.506 108.797 104 109.35L93.1675 113.328C92.1313 113.708 90.97 113.489 90.1438 112.757L81.5063 105.104C80.3055 104.04 78.4801 104.109 77.3632 105.261L69.3293 113.545C68.5608 114.338 67.4194 114.644 66.3575 114.343L55.2548 111.196ZM66.3128 156.842C67.4751 159.039 66.6365 161.762 64.4397 162.924C62.243 164.086 59.5199 163.248 58.3577 161.051C57.1954 158.854 58.034 156.131 60.2307 154.969C62.4275 153.806 65.1505 154.645 66.3128 156.842ZM70.7323 154.503C73.186 159.141 71.4156 164.89 66.7781 167.343C62.1405 169.797 56.3918 168.027 53.9381 163.389C51.4844 158.752 53.2548 153.003 57.8924 150.549C62.53 148.096 68.2786 149.866 70.7323 154.503ZM104.103 175.879C106.3 174.716 107.138 171.993 105.976 169.797C104.814 167.6 102.091 166.761 99.894 167.924C97.6972 169.086 96.8586 171.809 98.0209 174.006C99.1832 176.202 101.906 177.041 104.103 175.879ZM106.441 180.298C111.079 177.845 112.849 172.096 110.396 167.458C107.942 162.821 102.193 161.05 97.5556 163.504C92.918 165.958 91.1477 171.706 93.6014 176.344C96.0551 180.982 101.804 182.752 106.441 180.298ZM83.2459 141.507C83.1638 140.129 81.9799 139.078 80.6016 139.16C79.2233 139.243 78.1726 140.426 78.2548 141.805L81.0876 189.339C81.1697 190.718 82.3536 191.768 83.7319 191.686C85.1102 191.604 86.1609 190.42 86.0787 189.042L83.2459 141.507Z" fill="black"/>
<path d="M468.599 95.9219C468.599 118.539 450.046 136.922 427.099 136.922C404.152 136.922 385.599 118.539 385.599 95.9219C385.599 73.3051 404.152 54.9219 427.099 54.9219C450.046 54.9219 468.599 73.3051 468.599 95.9219Z" stroke="black" stroke-width="5"/>
<path d="M427.099 115.422V121.422" stroke="black" stroke-width="5" stroke-linecap="round"/>
<path d="M427.099 76.4219V70.4219" stroke="black" stroke-width="5" stroke-linecap="round"/>
<path d="M438.099 79.072C435.337 77.695 431.142 76.407 427.221 76.422C422.494 76.44 418.163 78.3506 417.212 84.2786C415.957 92.0971 425.47 94.9039 431.136 97.729C438.97 101.634 438.899 108.955 434.183 112.481C432.062 114.068 429.653 114.938 427.221 115.267C423.664 115.748 420.054 115.071 417.212 113.783" stroke="black" stroke-width="5" stroke-linecap="round"/>
<path d="M142.861 403.794C119.647 413.298 120.794 445.537 124.444 461.49C124.598 462.16 125.105 462.691 125.759 462.901C177.356 479.442 217.592 454.123 232.087 438.606C232.534 438.128 232.695 437.473 232.527 436.839C230.41 428.892 224.186 414.828 220.318 408.763C207.469 390.961 172.539 391.643 142.861 403.794Z" stroke="black" stroke-width="5" stroke-linecap="round"/>
<path d="M233.138 438.131C255.31 441.932 278.611 451.869 271.641 468.132C264.14 485.632 192.894 518.712 139.15 509.651C114.312 505.919 76.14 488.961 124.14 462.631" stroke="black" stroke-width="5" stroke-linecap="round"/>
<path d="M1201.76 724.477C1214.28 737.209 1230.33 765.032 1194.39 774.477" stroke="black" stroke-width="5" stroke-linecap="round"/>
<path d="M1202.39 751.477C1200.25 740.326 1191.48 719.296 1172.56 712.543C1169.45 711.433 1166.06 710.709 1162.39 710.477" stroke="black" stroke-width="5" stroke-linecap="round"/>
<path d="M1180.47 647.477C1155.59 664.033 1114.73 707.601 1150.34 749.42C1185.95 791.238 1199.88 794.904 1202.39 791.51" stroke="black" stroke-width="5" stroke-linecap="round"/>
<path d="M1208.39 680.477L1172.39 712.477" stroke="black" stroke-width="5" stroke-linecap="round"/>
<path d="M1172.39 644.477C1174.6 644.726 1177.41 645.532 1180.58 647.08C1189.28 651.331 1200.59 661.182 1209 680.464C1211.41 685.995 1213.59 692.303 1215.39 699.477" stroke="black" stroke-width="5" stroke-linecap="round"/>
<path d="M1176.39 634.477C1192.13 636.477 1224.56 645.677 1228.39 666.477" stroke="black" stroke-width="5" stroke-linecap="round"/>
<path d="M1182.39 623.73C1190.23 621.532 1209.41 619.005 1223.39 626.477" stroke="black" stroke-width="5" stroke-linecap="round"/>
<path d="M568.382 140.391L631.661 228.78" stroke="black" stroke-width="5" stroke-linecap="round"/>
<path d="M573.791 222.594L605.355 249.686" stroke="black" stroke-width="5" stroke-linecap="round"/>
<path d="M595.599 285.891L504.599 252.391" stroke="black" stroke-width="5" stroke-linecap="round"/>
<path d="M543.365 322.626L586.203 321.164" stroke="black" stroke-width="5" stroke-linecap="round"/>
<path d="M481.099 383.07L598.016 354.352" stroke="black" stroke-width="5" stroke-linecap="round"/>
<path d="M721.859 321.739C715.872 344.082 705.472 362.847 693.621 375.144C681.701 387.514 668.778 392.926 657.523 389.91C646.267 386.894 637.782 375.746 633.644 359.074C629.53 342.498 629.905 321.047 635.892 298.704C641.878 276.361 652.279 257.596 664.13 245.299C676.05 232.929 688.972 227.517 700.228 230.533C711.483 233.548 719.968 244.697 724.107 261.369C728.221 277.945 727.846 299.396 721.859 321.739Z" stroke="black" stroke-width="5"/>
<path d="M671.128 323.673C675.396 324.817 680.594 319.257 682.738 311.255C684.882 303.253 683.161 295.839 678.893 294.696C674.625 293.552 669.427 299.112 667.283 307.114C665.139 315.116 666.861 322.53 671.128 323.673Z" fill="black"/>
<path d="M851.757 372.073C857.333 363.628 859.171 349.558 859.392 343.578L872.941 352.903C877.156 361.9 871.591 368.243 868.282 370.289L851.757 372.073Z" fill="black"/>
<path d="M671.597 389.54L868.281 370.289M872.94 352.903L706.729 233.309L872.94 352.903Z" stroke="black" stroke-width="5" stroke-linecap="round"/>
<path d="M671.423 320.646L711.585 348.489M677.635 297.464L725.82 295.363L677.635 297.464Z" stroke="black" stroke-width="5" stroke-linecap="round"/>
<path d="M882.57 643.922L841.836 684.993C808.547 714.863 786.57 691.891 773.069 679.6C759.07 659.891 737.07 635.27 737.07 552.891C737.07 501.391 749.57 476.299 800.07 495.299" stroke="black" stroke-width="5" stroke-linecap="round"/>
<path d="M872.941 352.902C874.623 356.286 876.045 364.501 868.283 370.289" stroke="black" stroke-width="5" stroke-linecap="round"/>
<path d="M858.556 342.836C858.817 348.945 857.019 362.094 850.791 371.813" stroke="black" stroke-width="5" stroke-linecap="round"/>
<path d="M966.57 433.891C932.07 433.891 854.07 451.891 822.07 525.391" stroke="black" stroke-width="5" stroke-linecap="round"/>
<path d="M733.293 436.613C731.012 439.536 728.538 446.685 735.396 453.259C735.904 453.746 736.463 454.23 737.078 454.709C745.984 461.651 750.368 455.337 751.446 451.312" stroke="black" stroke-width="5" stroke-linecap="round"/>
<path d="M760.498 438.775C763.185 445.747 757.969 447.571 755.025 447.611C754.327 447.53 753.487 447.399 752.544 447.21C747.385 446.175 739.157 443.42 734.327 437.924C733.93 437.472 733.587 437.035 733.292 436.611C729.344 430.934 734.165 427.741 737.303 426.816" stroke="black" stroke-width="5" stroke-linecap="round"/>
<path d="M742.47 415.262C739.561 415.173 734.179 416.457 735.924 422.308C737.669 428.159 752.398 435.522 759.545 438.472C759.856 438.59 760.175 438.693 760.498 438.778C763.424 439.55 766.681 438.886 767.73 434.971C769.212 429.439 762.631 425.668 761.107 424.915" stroke="black" stroke-width="5" stroke-linecap="round"/>
<path d="M763.774 403.367C760.735 403.76 757.257 407.211 762.893 412.448C768.53 417.686 765.684 421.996 763.557 423.496C760.377 425.06 751.58 424.532 741.833 409.911C732.085 395.29 754.917 393.919 767.552 395.062" stroke="black" stroke-width="5" stroke-linecap="round"/>
<path d="M788.196 422.336C783.887 416.523 774.86 407.582 773.224 418.325C771.588 429.067 777.745 435.583 781.028 437.498" stroke="black" stroke-width="5" stroke-linecap="round"/>
<path d="M777.06 471.633C774.895 468.12 772.368 457.849 779.572 444.871" stroke="black" stroke-width="5" stroke-linecap="round"/>
<path d="M776.17 380.289L763.765 411.13" stroke="black" stroke-width="5" stroke-linecap="round"/>
<path d="M787.033 426.684L810.798 376.629" stroke="black" stroke-width="5" stroke-linecap="round"/>
<path d="M743.441 465.731C740.982 474.907 733.4 485.817 742.283 491.303C753.129 498.001 757.264 487.552 762.655 477.091L777.863 445.449" stroke="black" stroke-width="5" stroke-linecap="round"/>
<path d="M796.07 414.891C801.403 433.724 801.57 472.299 801.57 548.799" stroke="black" stroke-width="5" stroke-linecap="round"/>
<path d="M1127.62 613.891C1152.07 672.391 1118.57 723.891 1127.62 821.391C1066.96 839.391 932.725 860.091 881.125 798.891C878.791 788.224 881.125 727.891 881.125 688.891" stroke="black" stroke-width="5" stroke-linecap="round"/>
<path d="M1076.12 526.391L1068.09 514.065C1060.27 502.053 1045.03 497.257 1031.74 502.619L1012.6 510.335C1000.66 515.149 986.982 511.81 978.604 502.036L956.623 476.391" stroke="black" stroke-width="5" stroke-linecap="round"/>
<path d="M965.623 435.806C961.123 422.806 965.222 414.057 969.222 412.391C993.222 434.391 1029.62 426.224 1043.12 412.891C1047.92 417.291 1045.12 430.306 1043.12 434.306C1017.12 463.106 980.123 446.972 965.623 435.806Z" fill="black"/>
<path d="M896.681 231.411C907.681 270.911 913.181 274.411 929.181 291.911C929.181 274.616 932.152 245.587 932.152 233.499C984.541 233.499 1028.75 212.112 1044.31 201.419C1043.75 237.683 1077.75 261.394 1077.75 261.394C1077.75 261.394 1072.88 276.039 1070.09 308.816C1067.86 335.037 1074.27 329.97 1077.75 324.158C1087.78 291.8 1104.23 300.447 1111.19 308.816C1196.68 169.911 1065.21 143.072 1040.13 145.629C1021.18 129.45 994.758 116.771 976.181 114.911C909.181 108.204 878.844 167.363 896.681 231.411Z" fill="black"/>
<path d="M1076.58 348.879C1067.58 403.824 1007.17 443.334 963.58 398.824C919.988 354.315 928.711 272.843 933.368 234.824" stroke="black" stroke-width="5" stroke-linecap="round"/>
<path d="M1112.18 305.41C1117.68 318.91 1112.52 348.825 1076.58 348.825" stroke="black" stroke-width="5" stroke-linecap="round"/>
<path d="M1096.33 312.824C1097.12 315.713 1096.49 322.558 1087.58 326.824" stroke="black" stroke-width="5" stroke-linecap="round"/>
<path d="M934.581 341.824C922.851 336.934 914.581 318.824 917.762 289.824" stroke="black" stroke-width="5" stroke-linecap="round"/>
<path d="M960.898 306.649C957.567 305.311 956.265 300.743 957.991 296.447C959.717 292.152 963.817 289.754 967.148 291.092C970.479 292.431 971.78 296.998 970.054 301.294C968.328 305.59 964.229 307.987 960.898 306.649Z" fill="black"/>
<path d="M1022.06 308.373C1018.68 307.163 1017.11 302.927 1018.54 298.912C1019.98 294.897 1023.89 292.623 1027.27 293.833C1030.65 295.043 1032.22 299.278 1030.78 303.294C1029.35 307.309 1025.44 309.583 1022.06 308.373Z" fill="black"/>
<path d="M1048.58 288.828C1047 284.181 1040.19 275.585 1025.58 278.373" stroke="black" stroke-width="5" stroke-linecap="round"/>
<path d="M978.58 279.828C975.095 276.81 965.616 272.584 955.58 279.828" stroke="black" stroke-width="5" stroke-linecap="round"/>
<path d="M987.376 301.477C986.211 311.351 978.569 332.477 991.569 332.477" stroke="black" stroke-width="5" stroke-linecap="round"/>
<path d="M1044.57 430.391C1144.07 430.391 1268.57 534.891 1229.76 665.391" stroke="black" stroke-width="5" stroke-linecap="round"/>
<path d="M1118.89 574.977C1123.39 579.81 1133.39 593.177 1137.39 607.977C1141.39 622.777 1152.72 633.143 1157.89 636.477" stroke="black" stroke-width="5" stroke-linecap="round"/>
<path d="M339.32 436.631C340.471 470.4 373.62 486.928 392.059 491.601C392.911 491.817 393.103 492.959 392.375 493.453C359.295 515.913 345.924 523.59 351.32 573.131C355.72 613.531 297.153 616.964 267.32 613.631C234.82 611.631 158.82 607.431 114.82 606.631C70.8198 605.831 50.4865 556.298 45.8198 531.631C43.8198 513.298 38.5198 457.331 33.3198 380.131C26.8198 283.631 165.32 295.131 262.32 311.131C359.32 327.131 337.82 392.631 339.32 436.631Z" stroke="black" stroke-width="5" stroke-linecap="round"/>
<path d="M81.0997 91.9233C80.2664 60.09 102.898 1.8229 176.098 3.42291C267.598 5.42291 372.598 8.4229 400.598 60.4229" stroke="black" stroke-width="5" stroke-linecap="round"/>
<path d="M78.099 231.422C75.099 252.922 76.8984 300.622 84.0984 309.422" stroke="black" stroke-width="5" stroke-linecap="round"/>
<path d="M346.099 401.922C366.266 408.422 407.399 409.522 410.599 361.922C413.511 318.604 430.723 298.502 441.208 292.347C442.055 291.85 441.949 290.269 441.054 289.861C433.665 286.487 423.508 276.227 425.599 253.922C428.599 221.922 432.599 162.422 425.599 136.422" stroke="black" stroke-width="5" stroke-linecap="round"/>
<path d="M1003.81 368.21C1003.1 372.186 1001.44 375.485 999.458 377.623C997.458 379.785 995.407 380.516 993.734 380.216C992.06 379.917 990.391 378.52 989.265 375.798C988.152 373.107 987.74 369.437 988.452 365.461C989.163 361.485 990.823 358.186 992.801 356.048C994.801 353.886 996.852 353.155 998.525 353.455C1000.2 353.754 1001.87 355.151 1002.99 357.873C1004.11 360.564 1004.52 364.234 1003.81 368.21Z" stroke="black" stroke-width="5"/>
</svg>
