<svg width="824" height="909" viewBox="0 0 824 909" fill="none" xmlns="http://www.w3.org/2000/svg">
<path d="M328.624 303.605C374.144 220.621 338.554 187.276 317.134 171.316C319.664 234.159 275.024 267.131 252.384 275.761L256.234 297.687C257.914 285.927 308.504 292.515 328.624 303.605Z" fill="black"/>
<path d="M53.5244 277.925C83.0544 305.978 108.364 305.58 119.894 306.879C159.044 297.712 171.104 298.892 186.814 303.475L183.664 258.975C162.344 243.574 150.274 219.242 145.324 207.48C139.764 212.179 132.545 210.391 129.625 208.91C125.865 206.466 118.664 197.272 119.894 180.038C121.124 162.804 133.635 167.431 139.745 171.898L170.235 175.184C168.955 146.691 186.514 137.183 195.454 135.99C188.424 120.206 200.995 113.3 207.615 110.587C217.105 122.216 229.534 126.901 234.794 129.08C288.304 143.079 320.974 123.913 336.044 99.9914C352.414 75.8434 349.764 19.1374 303.464 5.33263C288.324 -0.493173 252.435 -5.26988 229.985 22.2294C163.895 -2.05838 132.614 67.4534 124.034 92.6954L114.115 115.711C27.9845 134.032 20.4044 215.494 35.5344 251.171C42.3944 267.346 43.2945 268.203 53.0745 277.494L53.5244 277.925Z" fill="black"/>
<path d="M170.385 175.63C173.825 195.187 190.685 208.084 207.595 205.112C224.515 202.141 235.965 184.27 232.535 164.713C229.095 145.156 212.235 132.259 195.325 135.23C178.405 138.202 166.955 156.073 170.385 175.63Z" stroke="black" stroke-width="5"/>
<path d="M253.685 172.961C257.115 192.519 273.975 205.416 290.895 202.444C307.805 199.473 319.265 181.602 315.825 162.045C312.395 142.488 295.535 129.591 278.615 132.562C261.705 135.533 250.245 153.404 253.685 172.961Z" stroke="black" stroke-width="5"/>
<path d="M252.986 165.617L232.326 166.896" stroke="black" stroke-width="5" stroke-linecap="round"/>
<path d="M241.423 185.754C247.483 201.309 259.863 214.291 246.173 224.142" stroke="black" stroke-width="5" stroke-linecap="round"/>
<path d="M297.653 199.335C292.31 200.273 287.218 196.703 286.28 191.361C285.341 186.019 288.912 180.927 294.254 179.988C299.596 179.05 304.688 182.62 305.627 187.962C306.565 193.305 302.995 198.396 297.653 199.335Z" fill="black"/>
<path d="M215.653 201.776C210.31 202.715 205.218 199.145 204.28 193.802C203.341 188.46 206.912 183.368 212.254 182.43C217.596 181.491 222.688 185.061 223.627 190.404C224.565 195.746 220.995 200.838 215.653 201.776Z" fill="black"/>
<path d="M132.033 183.695C130.983 186.539 129.963 193.1 134.303 196.593" stroke="black" stroke-width="5" stroke-linecap="round"/>
<path d="M307.575 127.125C319.915 150.663 331.006 208.174 281.746 257.777C232.496 307.381 179.695 260.859 159.445 231.397L145.126 206.656C139.186 211.911 126.145 216.64 121.545 193.514C116.955 170.389 126.016 167.245 131.126 168.564C133.896 169.186 139.965 171.932 142.075 177.941" stroke="black" stroke-width="5" stroke-linecap="round"/>
<path d="M170.275 174.317L136.445 170.953" stroke="black" stroke-width="5" stroke-linecap="round"/>
<path d="M206.546 168.816C201.196 169.577 190.566 173.855 190.746 184.877" stroke="black" stroke-width="5" stroke-linecap="round"/>
<path d="M302.463 162.377C298.393 160.586 288.423 158.45 281.173 164.238" stroke="black" stroke-width="5" stroke-linecap="round"/>
<path d="M250.535 250.977C247.005 247.153 236.065 241.243 220.535 248.196" stroke="black" stroke-width="5" stroke-linecap="round"/>
<path d="M184.664 303.975C137.164 293.975 47.3642 309.475 10.1642 447.475C-36.3358 619.975 159.164 650.975 232.664 598.975C246.334 585.975 252.664 556.975 202.664 544.975C140.164 529.975 117.954 540.475 93.6642 447.475" stroke="black" stroke-width="5" stroke-linecap="round"/>
<path d="M368.453 877.977C349.185 867.572 354.668 844.885 360.311 833.7C360.618 833.091 361.444 833.003 361.921 833.491C382.746 854.729 408.122 844.057 418.653 835.717C418.851 835.56 419.084 835.485 419.336 835.505C433.839 836.612 464.852 844.274 475.954 866.477C489.954 894.477 393.453 891.477 368.453 877.977Z" fill="black"/>
<path d="M299.955 907.977C224.355 904.377 218.121 865.143 224.455 845.977C254.055 879.177 285.788 864.143 297.955 852.477C311.955 857.677 327.018 866.655 331.955 871.477C353.455 892.477 334.455 911.477 299.955 907.977Z" fill="black"/>
<path d="M104.666 482.976C117.666 446.976 150.166 404.476 199.166 407.976C238.366 410.776 252.966 423.476 259.166 438.976C265.966 455.976 266.666 465.476 274.666 533.976" stroke="black" stroke-width="5" stroke-linecap="round"/>
<path d="M316.166 718.477C325.666 752.31 334.066 827.377 291.666 856.977C238.666 893.977 177.666 811.977 152.166 675.477" stroke="black" stroke-width="5" stroke-linecap="round"/>
<path d="M262.166 444.476C270.996 428.643 303.766 397.978 346.166 419.977C364.326 429.403 394.166 469.477 404.166 543.477" stroke="black" stroke-width="5" stroke-linecap="round"/>
<path d="M329.166 300.977C379.666 323.977 407.166 352.477 435.166 439.977C455.836 492.81 481.566 605.477 419.166 633.477C400.666 640.644 367.966 638.877 391.166 582.477C396.516 569.477 407.166 559.977 403.666 540.477" stroke="black" stroke-width="5" stroke-linecap="round"/>
<path d="M329.936 639.383C322.336 638.299 309.746 635.759 301.986 632.181C297.906 630.304 295.166 628.142 295.166 625.755C295.166 618.817 306.076 620.799 311.526 622.657C324.936 626.993 349.846 633.774 335.666 618.907C321.486 604.04 331.576 600.613 365.666 610.854L377.306 615.377" stroke="black" stroke-width="5" stroke-linecap="round"/>
<path d="M301.984 632.18C297.064 634.432 293.764 639.16 306.304 644.337C311.734 646.579 320.134 648.905 332.664 651.151" stroke="black" stroke-width="5" stroke-linecap="round"/>
<path d="M319.025 657.937C320.165 664.141 330.255 674.987 359.935 664.781C371.165 660.92 372.665 660.012 382.165 654.57C386.725 651.488 394.995 644.971 396.035 639.062" stroke="black" stroke-width="5" stroke-linecap="round"/>
<path d="M306.304 644.336C302.324 647.725 300.774 654.311 319.024 657.935C323.014 658.727 327.954 659.378 334.024 659.823" stroke="black" stroke-width="5" stroke-linecap="round"/>
<path d="M313.856 601.852C311.946 608.554 304.956 621.374 292.296 619.034C276.476 616.109 243.206 608.643 233.166 607.1" stroke="black" stroke-width="5" stroke-linecap="round"/>
<path d="M333.495 575.219C338.585 583.649 335.945 589.061 322.675 597.025C319.675 598.824 316.705 600.431 313.855 601.853C304.095 606.727 295.715 609.434 292.115 610.288" stroke="black" stroke-width="5" stroke-linecap="round"/>
<path d="M328.044 561.006C333.684 559.014 342.295 559.247 333.495 575.218C333.155 575.835 332.044 577.06 327.524 580.734L304.125 596.372" stroke="black" stroke-width="5" stroke-linecap="round"/>
<path d="M245.666 564.602C249.616 553.302 260.526 540.467 273.836 535.344C286.166 530.602 292.116 537.602 287.666 542.161C275.666 552.102 276.526 565.995 284.696 566.141C292.876 566.287 308.946 552.148 315.966 545.06C319.456 541.031 327.346 536.08 330.926 548.513C332.126 552.66 330.766 556.944 328.046 561.008C322.616 569.129 311.756 576.372 304.996 579.89" stroke="black" stroke-width="5" stroke-linecap="round"/>
<path d="M193.824 302.035C205.754 308.691 232.384 318.01 243.394 302.035C257.164 282.066 269.564 305.75 264.054 321.075C258.544 336.4 211.794 361.908 180.394 305.958" stroke="black" stroke-width="5" stroke-linecap="round"/>
<path d="M214.664 338.215C204.994 343.049 186.564 358.415 190.164 381.215" stroke="black" stroke-width="5" stroke-linecap="round"/>
<path d="M224.906 368.715C210.296 388.149 193.656 392.146 187.166 391.715" stroke="black" stroke-width="5" stroke-linecap="round"/>
<path d="M238.666 339.715C247.166 346.882 261.166 366.115 255.166 391.715" stroke="black" stroke-width="5" stroke-linecap="round"/>
<path d="M221.164 342.215C220.084 348.267 220.314 358.538 224.904 368.715C228.774 377.317 235.754 385.852 247.664 391.715" stroke="black" stroke-width="5" stroke-linecap="round"/>
<path d="M428.166 632.977C445.166 748.977 453.666 827.977 401.666 843.977C349.666 859.977 329.666 771.977 316.166 718.477L305.166 668.977" stroke="black" stroke-width="5" stroke-linecap="round"/>
<path d="M26.6649 569.477C15.4949 668.31 39.0649 862.077 222.665 846.477" stroke="black" stroke-width="5" stroke-linecap="round"/>
<path d="M745.455 371.447C733.846 365.729 720.371 360.961 705.238 357.124C634.238 339.124 496.738 415.624 515.738 504.124C530.691 573.774 601.712 578.164 637.019 571.465C638.015 571.276 638.98 571.848 639.3 572.81L651.301 608.812C651.912 610.647 654.514 610.631 655.103 608.788L668.424 567.105C668.621 566.489 669.079 566.015 669.693 565.814C701.752 555.309 768.625 522.939 787.238 474.624C800.829 439.344 795.02 411.591 773.969 390.977" stroke="black" stroke-width="5" stroke-linecap="round"/>
<path fill-rule="evenodd" clip-rule="evenodd" d="M823.955 393.977C823.955 430.151 794.629 459.477 758.455 459.477C722.28 459.477 692.955 430.151 692.955 393.977C692.955 357.802 722.28 328.477 758.455 328.477C794.629 328.477 823.955 357.802 823.955 393.977ZM765.955 426.475C765.955 430.893 762.597 434.475 758.455 434.475C754.312 434.475 750.955 430.893 750.955 426.475C750.955 422.056 754.312 418.475 758.455 418.475C762.597 418.475 765.955 422.056 765.955 426.475ZM749.095 383.154C748.506 373.475 749.448 354.475 758.287 354.475C767.059 354.475 768.433 373.721 767.832 383.154C767.125 394.267 763.944 411.475 758.287 411.475C752.623 411.475 749.684 392.833 749.095 383.154Z" fill="black"/>
<circle cx="654.455" cy="527.977" r="15" stroke="black" stroke-width="5"/>
<path d="M610.085 494.542L620.923 512.883C621.651 514.114 623.405 514.201 624.313 513.096C644.972 487.953 671.682 497.592 684.479 506.945C685.516 507.703 687.002 507.38 687.576 506.232L697.958 485.469C698.267 484.85 698.24 484.11 697.844 483.545C683 462.373 624.331 473.359 610.154 492.469C609.702 493.079 609.699 493.888 610.085 494.542Z" stroke="black" stroke-width="5" stroke-linecap="round"/>
<path d="M703.333 471.126C663.513 450.757 620.899 467.954 602.689 480.267C601.737 480.91 600.434 480.662 599.815 479.694L590.379 464.924C589.847 464.092 590.016 462.982 590.767 462.34C638.431 421.639 693.603 436.455 717.174 449.926C718.16 450.489 718.43 451.764 717.8 452.709L705.964 470.462C705.392 471.321 704.251 471.595 703.333 471.126Z" stroke="black" stroke-width="5" stroke-linecap="round"/>
<path d="M560.721 438.545L575.665 451.828C576.406 452.487 577.529 452.492 578.297 451.865C630.959 408.942 696.244 422.967 724.229 436.14C725.207 436.6 726.36 436.216 726.87 435.263L736.62 417.035C737.096 416.144 736.819 415.025 735.984 414.456C672.619 371.3 594.155 409.544 560.782 435.527C559.807 436.287 559.797 437.723 560.721 438.545Z" stroke="black" stroke-width="5" stroke-linecap="round"/>
<path d="M643.733 719.893L617.824 770.769C617.338 771.723 617.683 772.892 618.641 773.371C638.927 783.497 687.749 787.459 714.394 792.194C715.316 792.357 716.215 791.863 716.589 791.005C724.875 772.023 736.389 754.431 742.627 745.912C743.477 744.751 742.908 743.084 741.512 742.73C715.989 736.266 668.626 724.477 645.98 718.855C645.077 718.631 644.156 719.064 643.733 719.893Z" stroke="black" stroke-width="5" stroke-linecap="round"/>
<path d="M617.955 771.977C617.246 772.685 617.008 778.151 616.963 781.708C616.953 782.483 617.382 783.178 618.086 783.504C640.07 793.676 688.631 811.879 719.86 809.249C721.173 809.138 721.961 807.777 721.459 806.559L715.455 791.977" stroke="black" stroke-width="5" stroke-linecap="round"/>
<path d="M722.955 809.477C731.455 799.31 747.555 772.277 743.955 745.477" stroke="black" stroke-width="5" stroke-linecap="round"/>
<ellipse cx="708.955" cy="765.477" rx="3.5" ry="4.5" fill="black"/>
<path d="M701.216 756.231C698.356 759.515 696.8 764.654 696.176 768.055C696.021 768.902 695.385 769.59 694.541 769.759L690.778 770.512C689.563 770.755 688.418 769.843 688.454 768.604C688.783 757.335 693.886 752.259 697.145 750.783C697.65 750.555 698.226 750.635 698.705 750.914L700.873 752.179C702.223 752.966 702.242 755.053 701.216 756.231Z" stroke="black" stroke-width="5" stroke-linecap="round"/>
<path d="M687.385 750.837C682.954 754.889 680.841 763.539 680.143 769.14C680.014 770.176 679.15 770.977 678.106 770.977H670.455C669.35 770.977 668.45 770.077 668.491 768.973C669.066 753.285 676.334 745.221 680.863 742.545C681.515 742.159 682.324 742.281 682.909 742.762L687.664 746.678C688.878 747.678 688.546 749.776 687.385 750.837Z" stroke="black" stroke-width="5" stroke-linecap="round"/>
<path d="M670.966 742.925C664.958 747.979 660.92 760.477 659.261 768.008C659.069 768.878 658.343 769.53 657.455 769.607L649.231 770.322C648.218 770.41 647.295 769.725 647.137 768.721C644.36 751.097 654.688 738.066 661.297 732.84C661.975 732.304 662.922 732.327 663.614 732.846L671.232 738.56C672.555 739.552 672.231 741.861 670.966 742.925Z" stroke="black" stroke-width="5" stroke-linecap="round"/>
</svg>
