<svg width="768" height="533" viewBox="0 0 768 533" fill="none" xmlns="http://www.w3.org/2000/svg">
<path d="M656.327 140.247C655.101 136.334 650.557 130.461 647.972 127.461C647.65 127.087 647.639 126.535 647.965 126.163C653.83 119.457 668.422 107.902 684.408 110.666" stroke="black" stroke-width="5" stroke-linecap="round"/>
<path d="M685.465 115.247C685.913 121.69 690.671 133.099 706.118 127.182C708.914 125.782 712.284 122.714 712.774 118.749C712.841 118.208 713.265 117.758 713.81 117.783C720.737 118.094 735.223 122.8 745.201 139.935C745.333 140.162 745.373 140.434 745.296 140.685C744.217 144.169 740.132 150.701 731.275 152.156C730.977 152.205 730.673 152.108 730.448 151.907C727.051 148.861 720.45 144.632 718.433 149.724C718.394 149.821 718.373 149.924 718.369 150.028C717.788 164.646 713.938 193.513 703.096 193.245C692.256 192.977 673.628 188.682 665.575 186.545C665.513 186.528 665.454 186.519 665.39 186.513C662.914 186.281 658.732 183.438 661.119 173.745C664.142 161.474 671.194 138.612 663.974 137.1" stroke="black" stroke-width="5" stroke-linecap="round"/>
<path d="M561.408 116.247C554.984 138.473 543.158 184.991 547.248 193.247" stroke="black" stroke-width="5" stroke-linecap="round"/>
<path d="M550.095 121.739L560.108 115.672C560.937 115.169 562.007 115.334 562.647 116.062L569.601 123.978C570.245 124.71 571.324 124.872 572.154 124.36L597.046 109.001C601.035 105.907 600.969 103.1 599.44 101.266C596.841 98.1491 589.496 96.9708 584.479 96.9763C583.64 96.9772 582.918 97.5442 582.67 98.346L580.979 103.812C580.796 104.402 580.348 104.878 579.766 105.085C566.69 109.74 558.294 106.812 554.892 102.744C554.531 102.312 554.436 101.727 554.569 101.179L555.413 97.6993C555.7 96.5184 554.878 95.3562 553.664 95.2998C546.8 94.9807 536.408 95.9601 536.408 102.039C536.408 108.29 543.359 116.976 547.687 121.449C548.32 122.102 549.317 122.21 550.095 121.739Z" fill="black"/>
<path d="M517.537 172.958C520.737 138.647 531.005 110.295 535.939 100.809C537.539 97.2011 541.38 94.716 545.54 94.3953C550.741 93.9945 590.492 94.0537 600.347 99.2053C609.548 104.015 607.948 104.015 605.548 130.871C603.627 152.355 595.946 180.975 592.346 192.599C589.946 199.012 575.464 204.463 560.742 199.012C542.34 192.198 547.94 195.805 531.138 192.599C517.697 190.034 516.976 178.971 517.537 172.958Z" stroke="black" stroke-width="5"/>
<path d="M607.408 114.764C604.71 111.949 598.586 109.135 595.673 120.394C592.031 134.468 583.873 165.903 583.127 169.855C581.913 176.289 581.509 193.178 587.984 183.125C593.163 175.083 599.18 141.304 600.933 125.219" stroke="black" stroke-width="5" stroke-linecap="round"/>
<ellipse cx="565.114" cy="127.278" rx="1.99558" ry="3.19184" transform="rotate(13.2587 565.114 127.278)" fill="black"/>
<ellipse cx="560.606" cy="143.61" rx="1.99558" ry="3.19184" transform="rotate(13.2587 560.606 143.61)" fill="black"/>
<ellipse cx="556.616" cy="162.761" rx="1.99558" ry="3.19184" transform="rotate(13.2587 556.616 162.761)" fill="black"/>
<ellipse cx="553.425" cy="182.71" rx="1.99558" ry="3.19184" transform="rotate(13.2587 553.425 182.71)" fill="black"/>
<path d="M417.899 109.91C407.988 113.968 408.187 127.46 409.678 134.647C409.818 135.32 410.324 135.856 410.981 136.058C432.893 142.8 450.052 132.406 456.682 125.628C457.14 125.159 457.309 124.487 457.124 123.858C456.071 120.3 453.531 114.618 451.921 112.093C446.277 104.273 430.935 104.573 417.899 109.91Z" stroke="black" stroke-width="5" stroke-linecap="round"/>
<path d="M457.552 124.993C467.29 126.662 477.525 131.027 474.463 138.17C471.169 145.857 439.875 160.386 416.269 156.407C405.359 154.768 388.593 147.319 409.676 135.754" stroke="black" stroke-width="5" stroke-linecap="round"/>
<path d="M379.384 336.246L384.644 318.553C384.798 318.037 385.153 317.605 385.629 317.354L463.157 276.475C464.727 275.647 466.517 277.122 466.005 278.821L415.691 445.729C415.499 446.365 415.004 446.864 414.37 447.062L337.177 471.067C335.608 471.555 334.153 470.048 334.695 468.497L354.884 410.746" stroke="black" stroke-width="5" stroke-linecap="round"/>
<path d="M224.756 152.177C228.907 105.352 208.641 80.7234 197.989 74.2614C232.447 93.6814 266.405 81.0604 279.076 72.3224L282.959 93.1294C306.568 95.5104 312.191 63.5084 312.052 47.2084C311.837 22.0614 284.018 -8.98862 228.678 3.46238C173.339 15.9144 142.967 61.6914 134.698 83.0234C95.0762 72.1304 52.5132 101.776 36.1844 117.961C19.3 134.761 -16.2473 185.55 8.71391 242.258C42.3906 318.766 131.971 299.767 146.593 292.242C197.114 266.24 219.567 210.709 224.756 152.177Z" fill="black"/>
<path d="M300.471 143.548C299.294 151.496 296.352 158.291 292.677 162.86C288.96 167.482 284.846 169.457 281.213 168.919C277.581 168.381 274.216 165.298 271.999 159.796C269.807 154.358 268.961 147.003 270.139 139.055C271.316 131.107 274.258 124.312 277.933 119.743C281.65 115.121 285.764 113.146 289.397 113.684C293.029 114.222 296.394 117.305 298.611 122.807C300.803 128.245 301.649 135.6 300.471 143.548Z" stroke="black" stroke-width="5"/>
<path d="M285.328 151.879C288.343 152.326 291.439 148.288 292.243 142.861C293.047 137.434 291.255 132.673 288.24 132.226C285.225 131.779 282.129 135.817 281.325 141.244C280.521 146.671 282.313 151.432 285.328 151.879Z" fill="black"/>
<path d="M224.894 148.257L269.145 143.331" stroke="black" stroke-width="5" stroke-linecap="round"/>
<path d="M287.721 93.9463C291.459 101.472 302.488 117.917 314.004 127.122C325.782 136.536 326.777 148.536 319.257 157.182L307.535 170.784C314.004 220.249 304.473 256.877 243.847 273.928" stroke="black" stroke-width="5" stroke-linecap="round"/>
<path d="M243.128 193.373C244.56 193.585 245.894 192.596 246.106 191.163C246.318 189.731 245.329 188.397 243.896 188.185C242.464 187.973 241.13 188.962 240.918 190.395C240.706 191.827 241.695 193.161 243.128 193.373Z" fill="black"/>
<path d="M233.732 217.429C235.451 217.684 237.017 216.729 237.229 215.297C237.442 213.864 236.22 212.496 234.501 212.241C232.782 211.987 231.216 212.942 231.004 214.374C230.792 215.807 232.013 217.175 233.732 217.429Z" fill="black"/>
<path d="M256.598 213.395C258.317 213.65 259.882 212.695 260.095 211.262C260.307 209.83 259.085 208.462 257.366 208.207C255.647 207.953 254.081 208.907 253.869 210.34C253.657 211.773 254.878 213.141 256.598 213.395Z" fill="black"/>
<path d="M146.8 302.246C73.338 355.833 82.128 422.659 82.128 505.246" stroke="black" stroke-width="5" stroke-linecap="round"/>
<path d="M148.8 303.155L184.068 334.017C185.213 335.019 187.013 334.426 187.339 332.939L196.533 290.891C196.874 289.332 198.814 288.781 199.924 289.928L223.8 314.61" stroke="black" stroke-width="5" stroke-linecap="round"/>
<path d="M223.8 278.246C225.757 281.912 228.561 287.869 231.188 294.792C234.795 304.294 238.068 315.618 238.361 325.337" stroke="black" stroke-width="5" stroke-linecap="round"/>
<path d="M179.8 363.756C191.845 380.071 259.675 425.252 308.488 375.679L321.8 361.246" stroke="black" stroke-width="5" stroke-linecap="round"/>
<path d="M212.8 523.246C228.471 519.194 302.8 478.491 324.449 440.67" stroke="black" stroke-width="5" stroke-linecap="round"/>
<path d="M318.644 391.503C324.013 410.776 325.524 427.045 324.448 440.67C336.391 432.476 347.799 426.172 347.799 400.328C347.799 382.048 334.489 366.289 322.447 361.246" stroke="black" stroke-width="5" stroke-linecap="round"/>
<path d="M218.8 348.246C221.562 348.246 223.8 345.56 223.8 342.246C223.8 338.932 221.562 336.246 218.8 336.246C216.039 336.246 213.8 338.932 213.8 342.246C213.8 345.56 216.039 348.246 218.8 348.246Z" fill="black"/>
<path d="M225.8 377.246C228.562 377.246 230.8 374.56 230.8 371.246C230.8 367.932 228.562 365.246 225.8 365.246C223.039 365.246 220.8 367.932 220.8 371.246C220.8 374.56 223.039 377.246 225.8 377.246Z" fill="black"/>
<path d="M278.919 211.246C278.275 215.146 279.95 223.206 291.801 224.246" stroke="black" stroke-width="5" stroke-linecap="round"/>
<path d="M286.884 480.746C290.884 489.413 297.684 511.446 292.884 530.246" stroke="black" stroke-width="5" stroke-linecap="round"/>
<path d="M235.884 307.246C245.217 315.58 265.484 340.846 271.884 375.246" stroke="black" stroke-width="5" stroke-linecap="round"/>
<path d="M268.884 363.746C275.217 368.413 294.084 374.946 318.884 363.746" stroke="black" stroke-width="5" stroke-linecap="round"/>
<path d="M404.208 349.581C406.51 346.368 407.666 343.443 406.617 341.423C403.566 335.551 396.063 341.578 392.693 345.326C384.306 354.343 368.164 370.016 372.515 351.778C376.865 333.539 367.612 334.662 345.945 356.925" stroke="black" stroke-width="5" stroke-linecap="round"/>
<path d="M402.448 378.177C404.303 383.881 401.327 397.083 374.053 400.282C363.734 401.492 362.183 401.322 352.498 400.505" stroke="black" stroke-width="5" stroke-linecap="round"/>
<path d="M385.908 366.765C391.267 362.816 399.814 355.647 404.201 349.523C408.965 349.468 413.578 352.153 406.226 361.537C403.043 365.6 397.617 370.918 388.989 377.814" stroke="black" stroke-width="5" stroke-linecap="round"/>
<path d="M388.998 377.872C397.626 370.976 403.052 365.658 406.235 361.595C410.78 362.876 414.869 367.831 402.449 378.177C399.733 380.439 396.227 382.96 391.764 385.756" stroke="black" stroke-width="5" stroke-linecap="round"/>
<path d="M492.408 66.2466C489.938 115.642 486.493 215.787 492.195 225.915C492.334 226.163 492.557 226.26 492.84 226.285C531.982 229.734 612.308 236.212 629.078 235.302C629.58 235.275 629.925 234.894 629.949 234.392C631.946 192.607 636.133 104.699 637.372 77.5292C637.394 77.0518 637.097 76.6704 636.632 76.5581C606.833 69.3509 536.266 56.3849 485.908 60.7466" stroke="black" stroke-width="5" stroke-linecap="round"/>
<path d="M637.908 81.7466C674.558 82.0753 750.362 84.1867 764.353 89.9985C764.717 90.1499 764.9 90.5006 764.888 90.895L760.94 219.201C760.922 219.771 760.457 220.212 759.888 220.169C724.48 217.494 651.131 213.077 632.908 216.247" stroke="black" stroke-width="5" stroke-linecap="round"/>
<path d="M489.908 214.746C470.741 213.08 429.108 209.946 415.908 210.746C403.056 211.525 382.211 208.26 372.659 206.395C372.214 206.308 371.89 205.95 371.863 205.497C369.399 164.433 366.034 81.3914 371.678 67.7537C371.82 67.4117 372.125 67.2412 372.495 67.2324C407.192 66.4058 476.191 65.7804 490.908 71.7466" stroke="black" stroke-width="5" stroke-linecap="round"/>
<path d="M398.408 210.247L400.842 271.591C400.872 272.343 401.69 272.794 402.342 272.418L432.656 254.892C432.82 254.797 432.998 254.75 433.188 254.758C472.85 256.438 566.549 261.664 626.408 269.247C686.408 276.847 709.074 238.08 712.908 217.747" stroke="black" stroke-width="5" stroke-linecap="round"/>
<path d="M721.408 83.7466C723.908 64.7466 728.007 39.2467 674.407 35.2467C620.838 31.249 503.543 27.9172 451.498 26.7487C451.435 26.7473 451.378 26.7405 451.317 26.7274C431.794 22.5858 395.221 24.5095 404.407 65.2467" stroke="black" stroke-width="5" stroke-linecap="round"/>
</svg>
