<svg width="568" height="706" viewBox="0 0 568 706" fill="none" xmlns="http://www.w3.org/2000/svg">
<path d="M177.737 462.516L115.599 468.516L188.474 480.516L252.737 474.516L177.737 462.516Z" fill="black"/>
<path d="M98.099 467.684L189.712 481.562M98.099 467.684V597.966C98.099 598.185 98.2421 598.379 98.452 598.444L189.712 626.516M98.099 467.684L174.599 463.016M189.712 481.562L279.611 474.056C279.882 474.034 280.122 474.232 280.15 474.502L293.553 601.578C293.579 601.828 293.415 602.059 293.17 602.117L189.712 626.516M189.712 481.562V626.516" stroke="black" stroke-width="5" stroke-linecap="round"/>
<path d="M288.069 675.025C277.669 688.625 314.069 705.025 334.069 700.525C312.069 688.525 314.235 679.025 315.069 675.025C310.402 669.358 298.469 661.425 288.069 675.025Z" fill="black"/>
<path d="M322.111 651.689C317.574 661.888 311.223 684.036 322.111 691.03C335.72 699.773 340.256 704.144 356.134 701.959C372.011 699.773 376.548 697.587 367.475 691.03C358.402 684.473 349.609 673.743 351.877 647.516" stroke="black" stroke-width="5" stroke-linecap="round"/>
<path d="M308.804 629.037C287.599 588.516 286.599 525.016 280.122 472.901C221.253 476.4 184.718 473.209 166.417 455.214C141.235 430.452 147.896 403.323 147.896 379.211C170.847 395.303 163.315 374.515 256.099 374.516C342.661 379.316 367.69 505.516 369.384 568.016C371.146 595.132 368.527 619.59 356.246 629.037C331.576 648.015 314.288 639.516 308.804 629.037Z" fill="black"/>
<path d="M252.039 223.516C276.715 177.169 257.743 157.429 246.133 148.516C247.505 183.613 224.37 202.467 212.099 207.287V218.516C214.269 215.67 241.133 217.322 252.039 223.516Z" fill="black"/>
<path d="M95.5902 206.432C112.04 222.015 126.146 221.794 132.57 222.516C156.374 222.516 166.87 220.11 175.75 216.902L170.099 200.063C158.22 191.508 151.057 177.728 148.301 171.195C145.205 173.805 140.852 174.295 138.613 171.195C136.815 169.484 133.085 163.127 133.769 153.553C134.452 143.98 140.225 145.054 143.626 147.535L160.616 149.36C159.901 133.532 169.688 128.251 174.67 127.588C170.754 118.821 177.758 114.984 181.444 113.478C186.73 119.937 193.658 122.539 196.588 123.75C226.406 131.526 244.606 120.88 253.006 107.592C262.125 94.1773 260.649 62.6774 234.851 55.0093C226.416 51.7729 206.418 49.1195 193.908 64.3951C157.083 50.9034 139.654 89.5171 134.873 103.539L129.347 116.323C81.3575 126.5 77.1339 171.752 85.5635 191.57C89.3851 200.556 89.8878 201.031 95.3373 206.192L95.5902 206.432Z" fill="black"/>
<path d="M159.456 150.176C161.468 161.533 171.33 168.987 181.187 167.27C191.044 165.553 197.754 155.212 195.742 143.855C193.73 132.498 183.868 125.044 174.011 126.761C164.154 128.479 157.444 138.819 159.456 150.176Z" stroke="black" stroke-width="5"/>
<path d="M212.398 150.176C214.084 161.533 222.346 168.987 230.605 167.27C238.864 165.553 244.485 155.212 242.8 143.855C241.114 132.498 232.852 125.044 224.593 126.761C216.334 128.479 210.713 138.819 212.398 150.176Z" stroke="black" stroke-width="5"/>
<path d="M210.099 146.516L196.099 148.516" stroke="black" stroke-width="5" stroke-linecap="round"/>
<path d="M210.099 191.516C207.008 196.309 199.281 199.827 193.099 191.516" stroke="black" stroke-width="5" stroke-linecap="round"/>
<path d="M204.099 163.516C208.369 172.788 209.732 177.425 205.643 180.516" stroke="black" stroke-width="5" stroke-linecap="round"/>
<path d="M233.747 163.004C230.729 163.534 227.853 161.517 227.323 158.499C226.793 155.482 228.81 152.606 231.827 152.076C234.845 151.545 237.721 153.562 238.251 156.58C238.781 159.597 236.765 162.473 233.747 163.004Z" fill="black"/>
<path d="M187.426 164.382C184.408 164.912 181.532 162.895 181.002 159.877C180.472 156.86 182.488 153.984 185.506 153.454C188.524 152.923 191.4 154.94 191.93 157.958C192.46 160.975 190.443 163.851 187.426 164.382Z" fill="black"/>
<path d="M141.831 158.37C142.366 159.093 143.6 160.76 144.256 161.648" stroke="black" stroke-width="5" stroke-linecap="round"/>
<path d="M237.128 120.516C250.091 147.931 251.5 170.262 224.467 198.226C197.435 226.19 168.456 199.963 157.345 183.354L150.099 172.588" stroke="black" stroke-width="5" stroke-linecap="round"/>
<path d="M157.995 147.056L146.03 147.46" stroke="black" stroke-width="5" stroke-linecap="round"/>
<path d="M288.111 287.516C297.284 298.11 308.188 337.371 280.099 364.516" stroke="black" stroke-width="5" stroke-linecap="round"/>
<path d="M272.599 255.016C272.599 227.016 235.967 216.173 212.529 220.279C205.721 225.362 188.349 232.478 173.318 220.279C161.609 221.618 136.231 227.83 128.389 241.96C108.511 274.876 98.1639 361.582 161.065 384.864" stroke="black" stroke-width="5" stroke-linecap="round"/>
<path d="M162.099 287.516C170.123 300.048 172.862 318.917 172.17 330.833C172.147 331.232 172.608 331.481 172.928 331.242C191.09 317.703 232.537 320.242 242.209 327.264C250.067 332.968 244.341 340.731 239.701 345.685C226.915 359.331 207.327 372.56 194.599 378.516" stroke="black" stroke-width="5" stroke-linecap="round"/>
<path d="M291.803 266.872C298.521 270.937 293.343 289.802 290.543 297.359L288.107 296.503L288.789 293.544L288.561 290.585C287.302 287.459 280.033 285.113 275.834 290.585C271.73 295.935 266.516 300.518 263.672 301.658C252.588 307.599 254.575 297.88 256.955 292.278C258.354 289.672 262.329 280.787 263.672 272.344C265.016 263.902 270.81 262.964 274.169 262.573C277.248 262.313 285.085 262.807 291.803 266.872Z" fill="black"/>
<path d="M272.099 256.602C274.601 256.232 277.626 256.983 279.399 260.085C279.782 260.754 280.032 261.557 280.099 262.516" stroke="black" stroke-width="5" stroke-linecap="round"/>
<path d="M259.833 290.516C257.356 288.822 256.225 286.282 254.102 281.957C251.979 276.12 250.75 272.733 249.432 267.848C249.149 266.28 248.135 262.021 251.979 261.578C255.375 261.186 255.8 263.929 256.225 265.889C257.498 272.733 263.135 271.509 263.135 266.805C263.135 262.102 263.135 258.337 261.696 252.697C260.938 249.725 259.004 243.516 265.966 243.516C270.967 243.516 271.363 248.097 272.099 255.935" stroke="black" stroke-width="5" stroke-linecap="round"/>
<path d="M288.099 316.516C276.412 335.979 267.125 330.784 252.099 340.516" stroke="black" stroke-width="5" stroke-linecap="round"/>
<path d="M237.099 318.516C238.484 311.083 245.406 306.481 248.522 293.031C249.592 288.411 250.945 284.183 255.099 284.536" stroke="black" stroke-width="5" stroke-linecap="round"/>
<path d="M391.099 596.06C395.089 609.604 406.901 635.789 422.224 632.177C437.547 628.565 460.531 615.623 470.108 609.604C479.685 602.079 486.868 588.836 438.983 596.06C435.791 596.06 429.406 593.351 429.406 582.516" stroke="black" stroke-width="5" stroke-linecap="round"/>
<path d="M108.933 431.614C87.7996 437.343 64.9047 470.602 56.099 486.516C69.3076 484.924 99.2471 476.49 113.336 455.485C127.425 434.479 116.271 430.819 108.933 431.614Z" fill="black"/>
<path d="M99.3746 375.669C78.1775 377.842 62.932 431.001 56.099 455.516C71.2834 442.908 101.197 417.693 108.485 409.288C122.151 393.529 119.874 373.567 99.3746 375.669Z" fill="black"/>
<path d="M34.0725 358.672C22.5231 377.471 47.5487 405.716 59.0987 424.516C59.0987 412.679 59.0992 387.915 59.099 377.471C59.0986 360.761 42.412 345.098 34.0725 358.672Z" fill="black"/>
<path d="M59.099 465.516C43.3916 443.535 9.83481 405.435 1.26713 428.881C-9.44248 458.189 56.9571 465.516 59.099 465.516Z" fill="black"/>
<path d="M59.099 495.516L56.099 415.516" stroke="black" stroke-width="5" stroke-linecap="round"/>
<path d="M34.9247 561.663C40.3334 548.714 48.3838 515.484 50.0662 499.516H72.7788C73.7882 519.196 84.1341 547.421 89.182 561.663C104.323 595.326 91.285 616.905 81.6113 622.516H45.019C21.045 614.747 27.3535 579.789 34.9247 561.663Z" stroke="black" stroke-width="5"/>
<path d="M169.099 303.516C170.667 296.989 173.334 281.652 171.452 272.516" stroke="black" stroke-width="5" stroke-linecap="round"/>
<path d="M277.099 303.516C280.935 301.145 291.486 296.405 288.608 287.516" stroke="black" stroke-width="5" stroke-linecap="round"/>
<path d="M280.099 312.516C282.432 311.627 287.099 308.516 289.099 306.516" stroke="black" stroke-width="5" stroke-linecap="round"/>
<path d="M267.099 369.016C271.432 359.182 274.099 351.016 276.599 330.016" stroke="black" stroke-width="5" stroke-linecap="round"/>
<path d="M393.678 409.518C363.333 351.723 278.773 363.173 255.099 375.619C315.15 381.783 330.431 423.545 332.852 443.026C341.891 520.303 365.672 565.597 376.433 578.585C385.31 585.079 423.675 584.615 425.663 568.844C432.926 511.211 411.152 442.799 393.678 409.518Z" fill="black"/>
<path d="M454.186 665.587C455.644 656.097 425.645 659.739 408.421 663.11C406.932 663.402 405.573 664.357 405.333 665.856C404.828 669.014 406.405 672.01 407.936 673.912C408.651 674.801 409.746 675.246 410.885 675.305C425.751 676.075 452.718 675.135 454.186 665.587Z" fill="black"/>
<path d="M519.099 16.6C536.925 24.3333 557.463 40.411 562.599 69.5157C569.799 110.316 561.266 162.182 556.099 183.016C553.766 191.349 544.199 209.216 524.599 214.016C504.999 218.816 438.766 213.349 408.099 210.016C399.028 208.324 376.566 216.307 364.033 230.743C363.323 231.562 361.637 230.859 361.732 229.78C362.498 221.017 361.866 205.778 351.099 202.516C334.599 197.516 272.599 188.016 268.099 127.016C263.599 66.0157 246.599 1.01572 316.099 3.01572C358.764 4.24349 421.822 7.12001 466.099 9.29567" stroke="black" stroke-width="5" stroke-linecap="round"/>
<path d="M305.099 5.01562V57.5156C305.099 58.0679 304.651 58.5156 304.099 58.5156H264.099" stroke="black" stroke-width="5" stroke-linecap="round"/>
<path d="M346.599 4.51562V59.048C346.599 59.5875 347.027 60.0297 347.566 60.0474L375.599 60.9687" stroke="black" stroke-width="5" stroke-linecap="round"/>
<path d="M559.599 67.016L517.599 65.6357" stroke="black" stroke-width="5" stroke-linecap="round"/>
<path d="M266.099 99.5156H327.633C328.451 99.5156 328.923 100.444 328.441 101.105L282.599 164.016" stroke="black" stroke-width="5" stroke-linecap="round"/>
<path d="M321.099 191.516L379.785 112.439C379.982 112.174 380.296 112.023 380.625 112.035L459.511 114.975C460.097 114.997 460.538 115.515 460.467 116.096L448.599 213.016" stroke="black" stroke-width="5" stroke-linecap="round"/>
<path d="M477.099 215.516L486.502 119.996C486.556 119.452 487.036 119.052 487.581 119.097L564.599 125.516" stroke="black" stroke-width="5" stroke-linecap="round"/>
<path d="M451.099 60.5156H503.099" stroke="black" stroke-width="5" stroke-miterlimit="10" stroke-linecap="round" stroke-linejoin="round"/>
<path d="M468.099 72.5156H485.099" stroke="black" stroke-width="5" stroke-miterlimit="10" stroke-linecap="round" stroke-linejoin="round"/>
<path d="M494.099 72.5156H498.099" stroke="black" stroke-width="5" stroke-miterlimit="10" stroke-linecap="round" stroke-linejoin="round"/>
<path d="M492.099 87.5156V96.5156H482.099" stroke="black" stroke-width="5" stroke-miterlimit="10" stroke-linecap="round" stroke-linejoin="round"/>
<path d="M476.099 32.5156H416.099V96.5156H454.599" stroke="black" stroke-width="5" stroke-miterlimit="10" stroke-linecap="round" stroke-linejoin="round"/>
<path fill-rule="evenodd" clip-rule="evenodd" d="M494.673 44.1271C498.335 40.9221 510.099 29.9584 510.099 21.4029C510.099 11.2705 503.499 4.51562 493.599 4.51562C483.699 4.51562 477.099 12.9592 477.099 21.4029C477.099 28.5669 488.977 40.5938 492.577 44.0743C493.164 44.6421 494.06 44.6645 494.673 44.1271ZM488.099 19.1512C488.099 22.2601 490.561 24.7803 493.599 24.7803C496.637 24.7803 499.099 22.2601 499.099 19.1512C499.099 16.0424 496.637 13.5222 493.599 13.5222C490.561 13.5222 488.099 16.0424 488.099 19.1512Z" fill="black"/>
<path d="M383.099 72.5156V96.5156H388.599" stroke="black" stroke-width="5" stroke-linecap="round"/>
<path d="M416.099 72.5156V96.5156H414.099" stroke="black" stroke-width="5" stroke-linecap="round"/>
<path d="M415.099 54.0156H402.599C392.676 54.0156 384.485 61.4268 383.258 71.0156H415.099V54.0156Z" stroke="black" stroke-width="5"/>
<circle r="5.5" transform="matrix(-1 0 0 1 468.099 96.5156)" stroke="black" stroke-width="5"/>
<circle r="5.5" transform="matrix(-1 0 0 1 401.099 96.5156)" stroke="black" stroke-width="5"/>
</svg>
