<svg width="2103" height="1338" viewBox="0 0 2103 1338" fill="none" xmlns="http://www.w3.org/2000/svg">
<path d="M1469.77 827.571C1431.13 787.815 1464.07 676.212 1485.37 625.38L1506.54 668.009C1524.34 708.856 1518.76 734.993 1505.34 755.895L1469.77 827.571Z" fill="black"/>
<path d="M1532.1 1277.7C1565.27 1262.03 1646 1231.7 1703.6 1235.7C1711.77 1236.03 1724.1 1239.5 1708.1 1250.7C1692.1 1261.9 1684.1 1267.7 1682.1 1269.2C1673.77 1276.2 1665.6 1291 1699.6 1294.2C1742.1 1298.2 1862.1 1254.7 2099.6 1286.7" stroke="black" stroke-width="5" stroke-linecap="round"/>
<path d="M1319.87 1200.34V1179.34" stroke="black" stroke-width="5" stroke-linecap="round"/>
<path d="M1301.1 1191.01L1312.55 1200.34" stroke="black" stroke-width="5" stroke-linecap="round"/>
<path d="M1327.51 1200.34L1336.1 1186.67" stroke="black" stroke-width="5" stroke-linecap="round"/>
<path d="M1868.1 1119.34V1089.34" stroke="black" stroke-width="5" stroke-linecap="round"/>
<path d="M1841.1 1106.34L1857.1 1119.34" stroke="black" stroke-width="5" stroke-linecap="round"/>
<path d="M1879.1 1119.34L1891.1 1099.34" stroke="black" stroke-width="5" stroke-linecap="round"/>
<path d="M1672.56 719.563C1680.42 683.853 1644.54 679.838 1626.49 683.191C1633.96 709.649 1648.19 737.684 1653.96 747.187C1656.57 753.066 1664.69 755.274 1672.56 719.563Z" fill="black"/>
<path d="M1587.51 402.372C1591.95 436.585 1571.42 454.544 1554.49 462.625C1536.28 445.326 1508.04 399.984 1540.78 357.011C1554.68 359.24 1582.86 366.586 1587.51 402.372Z" fill="black"/>
<path d="M1554.49 462.626L1491.02 470.866L1467.22 473.956L1441.21 428.931C1443.82 424.156 1443.36 417.055 1442.81 414.101L1450.75 413.071C1448.75 379.045 1467.62 367.015 1477.31 365.253L1540.78 357.012C1554.68 359.241 1582.86 366.587 1587.51 402.373C1591.95 436.586 1571.42 454.545 1554.49 462.626Z" stroke="black" stroke-width="5"/>
<path d="M1506.54 668.009L1404.73 455.58C1403.63 453.291 1404.42 450.542 1406.57 449.189L1435.76 430.795C1438.13 429.299 1441.27 430.047 1442.71 432.457C1471.05 479.945 1528.52 578.43 1551.48 625.871C1573.22 670.777 1607.03 683.826 1624.87 685.235C1627.4 685.435 1629.57 687.23 1630.07 689.711C1634.41 711.495 1645.27 732.351 1653.59 745.351C1655.92 748.984 1653.13 754.199 1648.83 754.508C1562.73 760.708 1479.2 902.247 1447.1 975.219C1434.41 998.648 1407.65 1009.25 1395.86 1011.62L550.926 1121.32C549.378 1121.53 547.807 1120.99 546.754 1119.84C529.402 1100.87 541.296 1088.89 552.322 1083.87C554.63 1082.82 556.107 1080.39 555.682 1077.89C534.109 950.967 613.686 830.321 659.152 782.522C660.76 780.831 660.956 778.295 659.837 776.247C648.028 754.627 661.63 742.772 673.116 738.244C675.539 737.289 677.136 734.841 676.893 732.247C675.271 714.948 682.305 706.818 686.796 704.554C687.184 704.358 687.589 704.256 688.02 704.2L834.652 685.162C852.09 682.898 861.598 693.195 865.442 701.136C866.524 703.37 868.822 704.927 871.284 704.607L1057.89 680.378C1113.64 676.31 1146.25 706.003 1156.2 722.158C1156.54 722.726 1156.75 723.351 1156.84 724.012L1157.91 732.289C1158.19 734.442 1157.06 736.51 1155.14 737.523C1126.13 752.813 1072.43 801.397 1066.2 888.037C1059.76 977.694 1129.15 1002.48 1165.03 1003.71C1165.3 1003.72 1165.55 1003.71 1165.82 1003.67L1382.1 975.591C1392.02 974.303 1397.45 968.22 1398.92 965.34L1505.66 758.373C1525.76 718.958 1514.01 686.703 1506.54 668.009Z" stroke="black" stroke-width="5" stroke-linecap="round"/>
<circle cx="1413.06" cy="429.56" r="28" transform="rotate(-7.3978 1413.06 429.56)" fill="black"/>
<path d="M555.716 1080.37L1165.42 1003.72" stroke="black" stroke-width="5" stroke-linecap="round"/>
<path d="M1104.89 782.174C961.443 777.606 671.915 828.206 661.394 1067.15" stroke="black" stroke-width="5" stroke-linecap="round"/>
<path d="M1070.81 853.657C975.975 850.575 828.487 888.26 821.614 1046.85" stroke="black" stroke-width="5" stroke-linecap="round"/>
<path d="M660.765 778.832L1150.16 715.29" stroke="black" stroke-width="5" stroke-linecap="round"/>
<circle cx="1682.56" cy="944.144" r="51" transform="rotate(-7.3978 1682.56 944.144)" fill="black"/>
<circle cx="1682.56" cy="944.144" r="123.5" transform="rotate(-7.3978 1682.56 944.144)" stroke="black" stroke-width="5"/>
<circle cx="1682.56" cy="944.145" r="143.5" transform="rotate(-7.3978 1682.56 944.145)" stroke="black" stroke-width="25"/>
<path d="M1620.68 921.925C1653.81 857.12 1742.15 843.969 1782.18 845.494C1818.96 845.257 1805.33 810.22 1792.02 800.856C1642.29 695.574 1543.36 835.158 1522.88 883.195C1502.39 931.233 1470.23 974.737 1451.44 1000.87C1436.4 1021.78 1451.01 1028.66 1460.19 1029.48L1537.54 1019.44C1592.32 1010.31 1592.94 984.013 1598.88 967.612C1603.63 954.491 1615.39 931.687 1620.68 921.925Z" fill="black"/>
<path d="M64.0991 1044.34V1233.61C64.0991 1234.13 64.5068 1234.57 65.0318 1234.6L224.084 1245.34C224.132 1245.34 224.18 1245.34 224.227 1245.33L287.099 1240.54" stroke="black" stroke-width="7" stroke-linecap="round"/>
<path d="M64.0991 1044.05L222.977 1024.48C223.573 1024.4 224.099 1024.87 224.099 1025.47V1242.34" stroke="black" stroke-width="7" stroke-linecap="round"/>
<path d="M256.099 1026.34L459.163 1039.4C459.69 1039.43 460.099 1039.87 460.099 1040.39V1119.34" stroke="black" stroke-width="7" stroke-linecap="round"/>
<path d="M65.1627 1234.34H5.09912C4.54684 1234.34 4.09912 1234.79 4.09912 1235.34V1306.53C4.09912 1307.03 4.46098 1307.45 4.95026 1307.52L181.95 1334.17C182.555 1334.26 183.099 1333.79 183.099 1333.18V1264.28" stroke="black" stroke-width="7" stroke-linecap="round"/>
<path d="M182.099 1334.34L324.099 1321.34" stroke="black" stroke-width="7" stroke-linecap="round"/>
<path d="M266.099 1330.34V1181.34L331.099 1330.34H266.099Z" fill="black" fill-opacity="0.3"/>
<path d="M445.254 1258.85L351.54 1064.33C350.886 1062.97 351.911 1061.41 353.416 1061.46L396.769 1063.09C397.506 1063.11 398.167 1063.54 398.491 1064.21L492.471 1256.38C492.847 1257.15 492.692 1258.07 492.086 1258.67L472.71 1278C472.355 1278.35 471.88 1278.56 471.378 1278.58L432.568 1280.15C430.808 1280.22 429.822 1278.15 430.99 1276.83L444.95 1261.05C445.484 1260.44 445.604 1259.58 445.254 1258.85Z" fill="black"/>
<path d="M392.206 1314.99L382.352 1325.78C381.15 1327.09 382.138 1329.21 383.917 1329.13L420.645 1327.5C421.13 1327.48 421.59 1327.28 421.94 1326.94L431.503 1317.78C432.805 1316.54 431.923 1314.34 430.12 1314.34H393.683C393.121 1314.34 392.585 1314.58 392.206 1314.99Z" fill="black"/>
<path d="M123.099 1058.09V1038.86C123.099 1037.86 123.842 1037.01 124.837 1036.88L156.837 1032.64C158.035 1032.48 159.099 1033.41 159.099 1034.62V1054.39C159.099 1055.4 158.338 1056.26 157.329 1056.37L125.329 1060.08C124.141 1060.22 123.099 1059.29 123.099 1058.09Z" fill="black"/>
<path d="M69.0991 1298.59V1314.38C69.0991 1315.37 69.8239 1316.22 70.8034 1316.36L101.803 1321C103.012 1321.18 104.099 1320.24 104.099 1319.02V1302.19C104.099 1301.18 103.339 1300.32 102.33 1300.2L71.3301 1296.6C70.142 1296.46 69.0991 1297.39 69.0991 1298.59Z" fill="black"/>
<path d="M125.099 1216.34V1236.43C125.099 1237.47 125.897 1238.34 126.934 1238.42L159.934 1241.16C161.1 1241.26 162.099 1240.34 162.099 1239.17V1216.34C162.099 1215.24 161.204 1214.34 160.099 1214.34H127.099C125.995 1214.34 125.099 1215.24 125.099 1216.34Z" fill="black"/>
<path d="M69.0991 1263.46V1237.48C69.0991 1236.32 70.0782 1235.41 71.2328 1235.48L102.233 1237.56C103.283 1237.63 104.099 1238.5 104.099 1239.56V1267.09C104.099 1268.29 103.055 1269.22 101.866 1269.08L70.8662 1265.44C69.8587 1265.33 69.0991 1264.47 69.0991 1263.46Z" fill="black"/>
<path d="M330.693 1330.03L244.351 1131.36C244.197 1131.01 244.261 1130.6 244.515 1130.3L306.38 1059.49C306.854 1058.95 307.728 1059.07 308.037 1059.72L403.789 1261.24C403.974 1261.63 403.888 1262.09 403.575 1262.39L332.3 1330.35C331.797 1330.83 330.97 1330.66 330.693 1330.03Z" stroke="black" stroke-width="7" stroke-linecap="round"/>
<path d="M332.099 1330.34L460.605 1324.44C460.842 1324.43 461.067 1324.33 461.24 1324.17L532.129 1258.17C532.807 1257.54 532.335 1256.41 531.409 1256.44L426.087 1260.48" stroke="black" stroke-width="7" stroke-linecap="round"/>
<path d="M307.099 1059.34L431.319 1064.11C431.678 1064.12 432.002 1064.33 432.167 1064.64L532.099 1256.34" stroke="black" stroke-width="7" stroke-linecap="round"/>
<path d="M561.646 893.045C567.292 880.614 584.584 878.134 592.523 878.447C574.327 912.272 562.341 956.651 558.623 974.613L530.856 978.218C518.055 957.292 531.297 949.253 539.518 947.85C544.541 934.761 555.999 905.475 561.646 893.045Z" fill="black"/>
<path d="M315.099 266.34C319.388 262.065 330.367 222.727 410.099 214.34" stroke="black" stroke-width="5" stroke-linecap="round"/>
<path d="M464.099 214.34C475.845 217.709 511.997 224.641 527.865 242.641C574.891 295.974 588.248 394.824 526.523 496.34" stroke="black" stroke-width="5" stroke-linecap="round"/>
<path d="M296.099 343.687C310.282 349.006 333.669 346.704 349.099 333.34" stroke="black" stroke-width="5" stroke-linecap="round"/>
<path d="M392.373 814.34C393.513 823.864 391.226 838.694 380.577 843.592C367.265 849.714 333.133 870.463 365.9 874.884C392.114 878.422 413.228 860.49 420.512 851.075C423.01 840.19 424.799 827.605 420.512 814.34" stroke="black" stroke-width="5" stroke-linecap="round"/>
<path d="M443.595 796.815C327.048 869.719 345.15 605.326 353.125 476.853C437.752 503.179 506.281 486.303 521.462 462.34C525.773 477.635 539.132 587.132 540.252 618.272C542.054 668.225 546.844 785.333 480.542 808.966C464.187 814.798 452.258 809.56 443.595 796.815Z" fill="black"/>
<path d="M454.4 814.7C453.794 821.391 453.942 836.998 456.371 845.725C462.516 867.807 481.117 891.163 526.073 889.227C532.13 887.77 540.609 881.606 526.073 868.656C520.763 863.929 514.995 859.605 509.585 855.134C496.468 844.309 485.431 832.634 488.049 812.34" stroke="black" stroke-width="5" stroke-linecap="round"/>
<path d="M351.448 353.784C346.063 403.364 351.078 461.714 355.117 476.892C395.952 489.034 486.32 502.997 521.056 461.714C522.625 454.518 528.158 381.778 518.734 344.34" stroke="black" stroke-width="5" stroke-linecap="round"/>
<path d="M389.099 278.34L394.542 269.958C399.843 261.79 410.173 258.529 419.181 262.175L432.155 267.422C440.248 270.695 449.52 268.425 455.201 261.778L470.099 244.34" stroke="black" stroke-width="5" stroke-linecap="round"/>
<path d="M463.783 217.309C466.797 208.443 464.051 202.476 461.372 201.34C445.297 216.344 420.916 210.774 411.874 201.681C408.659 204.682 410.535 213.558 411.874 216.286C429.289 235.929 454.071 224.925 463.783 217.309Z" fill="black"/>
<path d="M245.158 287.581C240.133 261.376 245.134 202.386 275.278 166.214C284.292 159.133 304.679 154.523 314.108 192.725C311.17 209.87 312.073 235.555 314.001 257.392C317.05 291.928 301.867 336.478 280.444 339.398C259.021 342.318 247.993 306.07 245.158 287.581Z" stroke="black" stroke-width="5" stroke-linecap="round"/>
<path d="M275.384 166.276C289.423 149.251 318.303 119.739 358.675 111.813C362.52 110.582 370.435 109.559 371.33 115.315C372.45 122.509 359.401 119.091 343.342 132.416" stroke="black" stroke-width="5" stroke-linecap="round"/>
<path d="M331.905 144.264C339.176 146.197 352.887 151.846 349.561 158.976C348.933 160.448 346.904 163.557 343.815 164.214" stroke="black" stroke-width="5" stroke-linecap="round"/>
<path d="M330.856 155.103C336.928 156.825 348.02 162.383 343.806 170.84C339.592 179.298 332.978 180.129 330.196 179.488C327.364 178.974 322.863 177.139 323.388 173.54C323.506 172.724 323.882 171.819 324.595 170.818C328.452 165.395 331.064 169.168 331.887 171.732" stroke="black" stroke-width="5" stroke-linecap="round"/>
<path d="M319.213 134.507C329.283 131.95 350.2 130.496 353.314 145.139C353.785 146.702 353.409 149.86 348.142 149.982" stroke="black" stroke-width="5" stroke-linecap="round"/>
<path d="M314.041 192.404C315.782 182.375 318.834 175.248 323.754 173.476" stroke="black" stroke-width="5" stroke-linecap="round"/>
<path d="M510.713 79.4682C503.308 106.178 499.605 108.545 488.834 120.378C488.834 108.683 486.835 89.0539 486.835 80.8801C451.566 80.8801 421.805 66.4188 411.33 59.1881C411.707 83.7093 388.818 99.7425 388.818 99.7425C388.818 99.7425 392.103 109.645 393.975 131.809C395.476 149.54 391.161 146.113 388.818 142.183C382.066 120.303 370.999 126.15 366.307 131.809C308.756 37.8825 397.26 19.734 414.144 21.463C426.901 10.5227 444.686 1.94934 457.194 0.691839C502.298 -3.84334 522.723 36.1597 510.713 79.4682Z" fill="black"/>
<path d="M389.099 158.905C395.152 195.79 435.783 222.313 465.1 192.433C494.418 162.554 488.553 107.862 485.419 82.3398" stroke="black" stroke-width="5" stroke-linecap="round"/>
<path d="M365.346 129.34C361.677 138.357 365.119 158.34 389.099 158.34" stroke="black" stroke-width="5" stroke-linecap="round"/>
<path d="M376.265 134.34C375.739 136.403 376.159 141.293 382.099 144.34" stroke="black" stroke-width="5" stroke-linecap="round"/>
<path d="M485.099 154.34C493.14 151.048 498.809 138.859 496.629 119.34" stroke="black" stroke-width="5" stroke-linecap="round"/>
<path d="M440.099 176.34C444.773 166.307 447.831 172.556 454.099 167.34" stroke="black" stroke-width="5" stroke-linecap="round"/>
<path d="M463.099 139.34C465.861 139.34 468.099 137.101 468.099 134.34C468.099 131.578 465.861 129.34 463.099 129.34C460.338 129.34 458.099 131.578 458.099 134.34C458.099 137.101 460.338 139.34 463.099 139.34Z" fill="black"/>
<path d="M418.599 140.34C421.637 140.34 424.099 138.101 424.099 135.34C424.099 132.578 421.637 130.34 418.599 130.34C415.562 130.34 413.099 132.578 413.099 135.34C413.099 138.101 415.562 140.34 418.599 140.34Z" fill="black"/>
<path d="M408.099 118.34C409.198 115.383 413.936 109.912 424.099 111.686" stroke="black" stroke-width="5" stroke-linecap="round"/>
<path d="M455.099 112.34C457.527 110.076 464.115 106.906 471.099 112.34" stroke="black" stroke-width="5" stroke-linecap="round"/>
<path d="M438.747 126.34C437.811 133.029 437.179 146.593 442.099 147.34" stroke="black" stroke-width="5" stroke-linecap="round"/>
</svg>
