<svg width="1472" height="1423" viewBox="0 0 1472 1423" fill="none" xmlns="http://www.w3.org/2000/svg">
<path d="M1237.6 1288.68C1359.65 1288.68 1458.6 1189.73 1458.6 1067.68C1458.6 945.625 1359.65 846.68 1237.6 846.68C1115.55 846.68 1016.6 945.625 1016.6 1067.68C1016.6 1189.73 1115.55 1288.68 1237.6 1288.68Z" stroke="black" stroke-width="25"/>
<path d="M1430.99 874.286C1392.74 836.036 1344.01 809.988 1290.96 799.435C1237.9 788.882 1182.91 794.298 1132.94 814.999C1082.96 835.699 1040.25 870.754 1010.19 915.731C980.139 960.708 964.099 1013.59 964.099 1067.68" stroke="black" stroke-width="25" stroke-linecap="round"/>
<path d="M1237.6 1141.68C1278.47 1141.68 1311.6 1108.55 1311.6 1067.68C1311.6 1026.81 1278.47 993.68 1237.6 993.68C1196.73 993.68 1163.6 1026.81 1163.6 1067.68C1163.6 1108.55 1196.73 1141.68 1237.6 1141.68Z" stroke="black" stroke-width="15"/>
<path d="M1237.6 1266.68C1347.5 1266.68 1436.6 1177.58 1436.6 1067.68C1436.6 957.775 1347.5 868.68 1237.6 868.68C1127.7 868.68 1038.6 957.775 1038.6 1067.68C1038.6 1177.58 1127.7 1266.68 1237.6 1266.68Z" stroke="black" stroke-width="5"/>
<path d="M1237.6 1033.18C1256.65 1033.18 1272.1 1048.63 1272.1 1067.68C1272.1 1086.73 1256.65 1102.18 1237.6 1102.18C1218.55 1102.18 1203.1 1086.73 1203.1 1067.68C1203.1 1048.63 1218.55 1033.18 1237.6 1033.18Z" fill="black"/>
<path d="M929.099 599.862C945.099 594.028 972.819 604.143 983.099 630.862C998.099 669.862 1046.6 686.362 1065.6 686.362" stroke="black" stroke-width="25" stroke-linecap="square"/>
<path d="M438.599 1289.36C560.654 1289.36 659.599 1190.41 659.599 1068.36C659.599 946.308 560.654 847.363 438.599 847.363C316.544 847.363 217.599 946.308 217.599 1068.36C217.599 1190.41 316.544 1289.36 438.599 1289.36Z" stroke="black" stroke-width="25"/>
<path d="M630.099 873.076C591.849 834.827 545.01 810.672 491.956 800.119C438.902 789.566 383.911 794.982 333.935 815.683C283.959 836.383 241.245 871.438 211.192 916.415C181.139 961.392 165.099 1014.27 165.099 1068.36" stroke="black" stroke-width="25" stroke-linecap="round"/>
<path d="M438.599 1142.36C479.468 1142.36 512.599 1109.23 512.599 1068.36C512.599 1027.49 479.468 994.363 438.599 994.363C397.73 994.363 364.599 1027.49 364.599 1068.36C364.599 1109.23 397.73 1142.36 438.599 1142.36Z" stroke="black" stroke-width="15"/>
<path d="M438.599 1267.36C548.504 1267.36 637.599 1178.26 637.599 1068.36C637.599 958.458 548.504 869.363 438.599 869.363C328.694 869.363 239.599 958.458 239.599 1068.36C239.599 1178.26 328.694 1267.36 438.599 1267.36Z" stroke="black" stroke-width="5"/>
<path d="M438.599 1033.86C457.653 1033.86 473.099 1049.31 473.099 1068.36C473.099 1087.41 457.653 1102.86 438.599 1102.86C419.545 1102.86 404.099 1087.41 404.099 1068.36C404.099 1049.31 419.545 1033.86 438.599 1033.86Z" fill="black"/>
<path d="M454.599 1045.36L660.599 845.363" stroke="black" stroke-width="25" stroke-linecap="square"/>
<path d="M753.599 1071.86L599.099 701.363" stroke="black" stroke-width="25" stroke-linecap="square"/>
<path d="M454.599 1071.86H753.599H774.099H1202.1" stroke="black" stroke-width="25" stroke-linecap="square"/>
<path d="M675.099 221.863L651.099 240.863" stroke="black" stroke-width="5" stroke-linecap="round"/>
<path d="M526.099 611.863C508.136 553.891 504.996 494.291 513.126 439.595M635.599 246.863C657.599 235.094 671.099 240.197 682.599 246.863C694.933 254.197 722.399 275.563 733.599 302.363" stroke="black" stroke-width="5" stroke-linecap="round"/>
<path d="M526.099 611.863C523.765 596.196 553.397 562.463 690.597 548.863" stroke="black" stroke-width="5" stroke-linecap="round"/>
<path d="M691.6 548.863C678.766 530.029 653.599 487.263 681.599 438.863" stroke="black" stroke-width="5" stroke-linecap="round"/>
<path d="M672.296 412.628C619.122 447.517 528.209 470.855 487.987 478.428C487.406 478.537 486.931 478.891 486.64 479.405L473.733 502.207C472.991 503.518 473.887 505.143 475.393 505.154C542.568 505.667 639.294 463.178 681.228 440.828C682.052 440.389 682.423 439.456 682.175 438.556L675.34 413.78C674.976 412.461 673.44 411.878 672.296 412.628Z" fill="black"/>
<path d="M691.098 301.363C667.599 304.362 651.05 330.253 663.098 375.367C686.599 463.362 692.598 469.367 718.598 505.867C739.398 535.067 819.932 576.367 857.598 593.367" stroke="black" stroke-width="5" stroke-linecap="round"/>
<path d="M858.599 593.363C862.766 590.696 871.099 581.863 871.099 567.863" stroke="black" stroke-width="5" stroke-linecap="round"/>
<path d="M733.599 301.363C740.266 352.863 757.399 460.063 772.599 476.863C787.799 493.663 844.932 544.196 871.599 567.363" stroke="black" stroke-width="5" stroke-linecap="round"/>
<path d="M675.099 221.863C689.766 229.196 721.599 249.263 729.599 272.863" stroke="black" stroke-width="5" stroke-linecap="round"/>
<path d="M729.599 272.863L730.599 294.863" stroke="black" stroke-width="5" stroke-linecap="round"/>
<path d="M831.599 936.363L889.599 785.363L851.599 795.363L815.099 805.863C837.499 857.063 817.099 911.363 812.099 936.363C816.899 939.163 827.099 937.529 831.599 936.363Z" fill="black"/>
<path d="M537.599 693.863C519.199 670.663 540.432 654.196 553.099 648.863C566.599 662.363 580.099 666.863 587.099 668.863L609.099 698.363C564.299 705.963 542.358 699.863 537.599 693.863Z" fill="black"/>
<path d="M586.599 668.863C543.799 656.463 532.766 617.363 532.599 599.363C560.999 565.763 651.099 552.363 692.599 549.863L868.099 625.363L891.099 636.363C928.699 661.163 910.432 728.029 896.599 758.363L813.599 780.363C815.099 765.696 821.174 731.941 823.599 718.363C826.099 704.363 818.099 702.863 814.099 701.363L745.894 681.363C772.609 730.341 801.956 783.693 814.099 804.363C832.899 836.363 828.266 876.363 823.599 892.363L759.099 1129.36C725.899 1142.56 704.932 1125.19 698.599 1114.86L729.099 859.363L586.599 668.863Z" fill="black"/>
<path d="M908.599 624.075C913.432 623.671 922.699 619.563 921.099 606.363C920.599 601.863 912.099 592.363 898.599 588.863L873.599 569.363" stroke="black" stroke-width="5" stroke-linecap="round"/>
<path d="M900.099 627.07C902.45 627.881 906.268 627.813 908.599 624.075C909.903 621.983 910.743 618.742 910.599 613.863" stroke="black" stroke-width="5" stroke-linecap="round"/>
<path d="M890.599 632.875C893.335 632.763 897.737 631.327 900.099 627.07C901.334 624.844 902.011 621.846 901.599 617.863" stroke="black" stroke-width="5" stroke-linecap="round"/>
<path d="M860.099 593.363C865.266 600.196 872.499 613.863 880.099 617.863C878.766 622.863 882.199 634.163 886.599 635.363C888.476 635.874 889.752 634.706 890.599 632.875C891.737 630.413 892.099 626.752 892.099 624.363" stroke="black" stroke-width="5" stroke-linecap="round"/>
<path d="M701.099 1115.36C700.099 1120.69 691.472 1134.74 686.038 1148.71C680.538 1162.86 680.038 1179.36 690.099 1180.36L803.599 1179.36C814.099 1179.36 814.599 1164.86 804.599 1162.86C783.099 1159.36 748.799 1156.26 741.599 1133.86" stroke="black" stroke-width="5" stroke-linecap="round"/>
<path d="M787.599 1180.86H701.599C695.8 1180.86 691.099 1185.56 691.099 1191.36C691.099 1197.16 695.8 1201.86 701.599 1201.86H787.599C793.398 1201.86 798.099 1197.16 798.099 1191.36C798.099 1185.56 793.398 1180.86 787.599 1180.86Z" fill="black"/>
<path d="M798.442 984.744L854.738 1000.01C860.335 1001.52 863.642 1007.29 862.124 1012.89C860.607 1018.49 854.839 1021.79 849.242 1020.27L792.946 1005.01L798.442 984.744Z" fill="black"/>
<path d="M825.599 936.863C824.099 947.094 824.599 971.941 852.599 977.863C861.266 979.696 876.552 982.954 877.595 988.863C879.272 998.364 867.766 1000.53 860.599 999.864L812.099 987.363L799.599 983.363" stroke="black" stroke-width="5" stroke-linecap="round"/>
<path d="M1087.93 741.363C938.198 747.363 739.654 813.529 659.099 845.863" stroke="black" stroke-width="25" stroke-linecap="round"/>
<path d="M1049.1 624.719L1230.6 1062.68" stroke="black" stroke-width="25" stroke-linecap="round"/>
<path d="M756.099 1147.86C787.027 1147.86 812.099 1122.79 812.099 1091.86C812.099 1060.93 787.027 1035.86 756.099 1035.86C725.171 1035.86 700.099 1060.93 700.099 1091.86C700.099 1122.79 725.171 1147.86 756.099 1147.86Z" fill="black"/>
<path d="M526.599 612.363C527.599 612.863 531.099 612.363 534.599 608.863" stroke="black" stroke-width="5" stroke-linecap="round"/>
<path d="M857.099 1403.45C890.269 1387.78 970.999 1357.45 1028.6 1361.45C1036.77 1361.78 1049.1 1365.25 1033.1 1376.45C1017.1 1387.65 1009.1 1393.45 1007.1 1394.95C998.769 1401.95 990.599 1416.75 1024.6 1419.95C1067.1 1423.95 1187.1 1380.45 1424.6 1412.45" stroke="black" stroke-width="5" stroke-linecap="round"/>
<path d="M3.09912 1373.2C18.4113 1366.05 55.6841 1352.2 82.2761 1354.02C86.0461 1354.18 91.7401 1355.76 84.3541 1360.87C76.9671 1365.99 73.2731 1368.64 72.3501 1369.32C68.5031 1372.52 64.7321 1379.28 80.4291 1380.74C100.051 1382.57 155.451 1362.7 265.099 1377.31" stroke="black" stroke-width="5" stroke-linecap="round"/>
<path d="M723.538 258.719C725.538 252.719 726.293 248.219 727.863 243.099C729.787 236.822 796.67 240.363 807.046 167.597C826.268 167.597 836.534 151.731 821.79 145.166C806.063 137.287 807.062 122.473 809.793 113.719C814.162 102.23 814.293 90.2188 813.293 87.7188" stroke="black" stroke-width="5" stroke-linecap="round"/>
<path d="M793.099 142.947C795.584 142.947 797.599 140.037 797.599 136.447C797.599 132.857 795.584 129.947 793.099 129.947C790.614 129.947 788.599 132.857 788.599 136.447C788.599 140.037 790.614 142.947 793.099 142.947Z" fill="black"/>
<path d="M778.793 117.718C781.96 114.253 790.193 109.142 797.793 116.419" stroke="black" stroke-width="5" stroke-linecap="round"/>
<path d="M757.793 184.719C763.793 193.719 770.293 196.219 782.793 190.219" stroke="black" stroke-width="5" stroke-linecap="round"/>
<path d="M708.802 121.719C707.472 124.733 706.407 131.554 712.793 134.719" stroke="black" stroke-width="5" stroke-linecap="round"/>
<path d="M640.794 91.7188C633.795 132.719 657.553 163.243 674.793 186.719C692.794 176.719 722.213 153.097 710.796 150.719C698.796 148.219 685.789 115.719 697.296 105.596C710.796 93.7188 723.296 111.304 725.796 124.719L736.557 105.596C733.296 92.3465 731.805 69.056 751.933 81.8867C772.061 94.7175 801.321 90.952 813.435 87.4653C837.198 70.0323 873.959 29.5877 830.908 7.27342C795.1 -11.286 749.076 13.2476 721.062 35.1362C701.864 30.3078 650.336 35.817 640.794 91.7188Z" fill="black"/>
<path d="M676.293 184.219C681.793 193.886 685.993 207.619 684.793 225.219" stroke="black" stroke-width="5" stroke-linecap="round"/>
<path d="M468.869 1412.09V1391.09" stroke="black" stroke-width="5" stroke-linecap="round"/>
<path d="M450.099 1402.76L461.549 1412.09" stroke="black" stroke-width="5" stroke-linecap="round"/>
<path d="M476.509 1412.09L485.099 1398.43" stroke="black" stroke-width="5" stroke-linecap="round"/>
<path d="M117.869 1212.72V1191.72" stroke="black" stroke-width="5" stroke-linecap="round"/>
<path d="M99.0991 1203.38L110.549 1212.72" stroke="black" stroke-width="5" stroke-linecap="round"/>
<path d="M125.509 1212.72L134.099 1199.05" stroke="black" stroke-width="5" stroke-linecap="round"/>
<path d="M989.099 1180.72V1150.72" stroke="black" stroke-width="5" stroke-linecap="round"/>
<path d="M962.099 1167.72L978.099 1180.72" stroke="black" stroke-width="5" stroke-linecap="round"/>
<path d="M1000.1 1180.72L1012.1 1160.72" stroke="black" stroke-width="5" stroke-linecap="round"/>
<rect x="459.792" y="134.105" width="28" height="58.3059" transform="rotate(34.0391 459.792 134.105)" fill="black"/>
<rect x="574.736" y="208.094" width="28" height="58.3059" transform="rotate(34.0391 574.736 208.094)" fill="black"/>
<rect x="420.527" y="109.704" width="255.877" height="332.799" rx="7.5" transform="rotate(32.6694 420.527 109.704)" stroke="black" stroke-width="5"/>
<path d="M388.599 158.594L604.599 297.094" stroke="black" stroke-width="5"/>
<path d="M468.099 329.219C432.099 330.019 410.432 305.385 404.599 292.719L414.099 276.219L476.599 313.219L468.099 329.219Z" fill="black"/>
<rect x="414.014" y="276.134" width="73" height="73" rx="2.5" transform="rotate(30 414.014 276.134)" stroke="black" stroke-width="5"/>
</svg>
