<svg width="1229" height="753" viewBox="0 0 1229 753" fill="none" xmlns="http://www.w3.org/2000/svg">
<path fill-rule="evenodd" clip-rule="evenodd" d="M972.132 257C948.388 236.247 872.099 165.258 872.099 109.861C872.099 44.2536 914.899 0.515625 979.099 0.515625C1043.3 0.515625 1086.1 55.1881 1086.1 109.861C1086.1 156.248 1009.07 234.122 985.726 256.658C981.918 260.334 976.112 260.48 972.132 257ZM1014.77 95.2812C1014.77 115.411 998.797 131.73 979.099 131.73C959.401 131.73 943.432 115.411 943.432 95.2812C943.432 75.1516 959.401 58.8329 979.099 58.8329C998.797 58.8329 1014.77 75.1516 1014.77 95.2812Z" fill="black"/>
<path d="M834.599 390.516V548.081C834.599 548.607 835.007 549.043 835.532 549.079L968.027 558.011C968.075 558.014 968.123 558.014 968.171 558.01L1020.6 554.016" stroke="black" stroke-width="7" stroke-linecap="round"/>
<path d="M834.599 390.016L966.976 373.654C967.573 373.581 968.099 374.046 968.099 374.647V556.016" stroke="black" stroke-width="7" stroke-linecap="round"/>
<path d="M991.737 373.016L1164.67 385.946C1165.2 385.985 1165.6 386.42 1165.6 386.944V453.016" stroke="black" stroke-width="7" stroke-linecap="round"/>
<path d="M835.099 549.016H785.099C784.547 549.016 784.099 549.463 784.099 550.016V609.155C784.099 609.65 784.461 610.07 784.95 610.144L932.45 632.343C933.055 632.434 933.599 631.965 933.599 631.354V576.016" stroke="black" stroke-width="7" stroke-linecap="round"/>
<path d="M933.099 632.516L1051.6 621.516" stroke="black" stroke-width="7" stroke-linecap="round"/>
<path d="M1003.1 629.516V504.516L1057.1 629.516H1003.1Z" fill="black" fill-opacity="0.3"/>
<path d="M1153.02 569.32L1075.04 407.005C1074.38 405.647 1075.41 404.083 1076.91 404.14L1112.4 405.471C1113.14 405.498 1113.8 405.93 1114.12 406.593L1192.47 567.233C1192.85 568.001 1192.69 568.921 1192.09 569.524L1176.15 585.463C1175.8 585.818 1175.32 586.027 1174.82 586.047L1143.28 587.326C1141.52 587.397 1140.53 585.325 1141.7 584.004L1152.72 571.51C1153.25 570.907 1153.37 570.045 1153.02 569.32Z" fill="black"/>
<path d="M1108.51 616.632L1101.04 624.424C1099.79 625.725 1100.77 627.882 1102.57 627.806L1132.37 626.546C1132.84 626.526 1133.29 626.342 1133.64 626.025L1140.79 619.493C1142.14 618.261 1141.27 616.016 1139.44 616.016H1109.95C1109.41 616.016 1108.89 616.238 1108.51 616.632Z" fill="black"/>
<path d="M883.599 401.269V385.767C883.599 384.764 884.341 383.917 885.335 383.784L911.335 380.318C912.534 380.158 913.599 381.09 913.599 382.3V398.235C913.599 399.25 912.839 400.104 911.831 400.222L885.831 403.255C884.643 403.394 883.599 402.465 883.599 401.269Z" fill="black"/>
<path d="M838.599 602.772V615.802C838.599 616.788 839.318 617.627 840.292 617.778L865.292 621.658C866.505 621.846 867.599 620.908 867.599 619.681V605.789C867.599 604.777 866.843 603.924 865.839 603.803L840.839 600.786C839.648 600.642 838.599 601.572 838.599 602.772Z" fill="black"/>
<path d="M885.599 534.516V550.17C885.599 551.213 886.399 552.08 887.438 552.164L914.438 554.341C915.603 554.435 916.599 553.516 916.599 552.348V534.516C916.599 533.411 915.704 532.516 914.599 532.516H887.599C886.495 532.516 885.599 533.411 885.599 534.516Z" fill="black"/>
<path d="M838.599 573.242V551.658C838.599 550.5 839.581 549.583 840.737 549.663L865.737 551.387C866.785 551.46 867.599 552.331 867.599 553.382V576.26C867.599 577.459 866.55 578.389 865.359 578.245L840.359 575.228C839.355 575.107 838.599 574.254 838.599 573.242Z" fill="black"/>
<path d="M1057.03 628.706L984.853 463.097C984.698 462.742 984.762 462.33 985.017 462.039L1036.6 403.159C1037.07 402.618 1037.94 402.739 1038.25 403.387L1118.29 571.361C1118.47 571.751 1118.39 572.217 1118.07 572.516L1058.63 629.031C1058.13 629.51 1057.31 629.343 1057.03 628.706Z" stroke="black" stroke-width="7" stroke-linecap="round"/>
<path d="M1058.6 629.516L1165.73 624.533C1165.97 624.522 1166.19 624.426 1166.37 624.262L1225.14 568.863C1225.81 568.227 1225.33 567.095 1224.41 567.137L1138.24 571.016" stroke="black" stroke-width="7" stroke-linecap="round"/>
<path d="M1037.6 402.516L1141.02 406.493C1141.38 406.507 1141.7 406.712 1141.87 407.031L1225.1 567.016" stroke="black" stroke-width="7" stroke-linecap="round"/>
<path d="M812.793 698.034L815.871 694.093L812.793 698.034ZM655.099 722.515L652.792 726.952L655.099 722.515ZM401.296 726.638C399.173 724.873 396.021 725.162 394.255 727.286C392.489 729.409 392.779 732.561 394.902 734.327L401.296 726.638ZM982.88 684.787C984.687 682.699 984.459 679.542 982.371 677.735C980.283 675.928 977.125 676.155 975.318 678.244L982.88 684.787ZM394.902 734.327C398.749 737.527 403.657 740.122 409.23 742.253L412.8 732.912C407.855 731.021 404.025 728.908 401.296 726.638L394.902 734.327ZM424.2 746.653C433.154 748.673 443.348 750.107 454.306 751.06L455.173 741.098C444.514 740.171 434.79 738.791 426.4 736.898L424.2 746.653ZM469.387 752.058C479.045 752.514 489.142 752.668 499.424 752.572L499.33 742.572C489.206 742.667 479.299 742.515 469.859 742.069L469.387 752.058ZM514.425 752.262C524.409 751.948 534.461 751.424 544.358 750.734L543.663 740.758C533.882 741.44 523.958 741.957 514.111 742.267L514.425 752.262ZM559.295 749.559C569.612 748.655 579.632 747.587 589.086 746.405L587.845 736.482C578.516 737.649 568.619 738.704 558.423 739.597L559.295 749.559ZM603.958 744.384C615.146 742.735 625.211 740.94 633.579 739.1L631.432 729.334C623.351 731.11 613.525 732.866 602.5 734.491L603.958 744.384ZM648.521 735.191C650.871 734.43 652.969 733.642 654.729 732.826C656.418 732.042 658.105 731.093 659.395 729.902C660.585 728.804 662.508 726.448 661.782 723.199C661.137 720.312 658.785 718.797 657.406 718.079L652.792 726.952C653.564 727.353 652.39 727.024 652.022 725.379C651.574 723.372 652.873 722.313 652.613 722.553C652.453 722.701 651.863 723.131 650.52 723.754C649.248 724.345 647.558 724.991 645.439 725.678L648.521 735.191ZM657.406 718.079C652.194 715.369 647.994 712.776 644.687 710.323L638.73 718.355C642.561 721.197 647.235 724.062 652.792 726.952L657.406 718.079ZM635.72 700.796C634.976 699.228 634.814 697.961 634.934 696.913C635.056 695.852 635.506 694.684 636.489 693.388C638.553 690.666 642.672 687.786 649.074 685.153L645.27 675.905C638.209 678.809 632.165 682.542 628.522 687.345C626.651 689.811 625.36 692.634 625 695.771C624.638 698.919 625.251 702.058 626.684 705.081L635.72 700.796ZM663.196 680.746C671.987 678.661 682.248 677.196 693.317 676.472L692.663 666.493C681.148 667.247 670.322 668.779 660.889 671.015L663.196 680.746ZM708.622 675.954C718.647 675.923 728.994 676.48 739.224 677.685L740.394 667.754C729.749 666.5 719.001 665.922 708.59 665.954L708.622 675.954ZM754.349 679.973C764.675 681.898 774.594 684.537 783.643 687.938L787.161 678.577C777.471 674.936 766.975 672.155 756.182 670.142L754.349 679.973ZM797.313 694.037C801.861 696.442 806.019 699.088 809.716 701.975L815.871 694.093C811.648 690.796 806.983 687.839 801.989 685.197L797.313 694.037ZM809.716 701.975C813.818 705.178 818.453 707.832 823.461 710.007L827.443 700.834C823.087 698.943 819.207 696.699 815.871 694.093L809.716 701.975ZM838.206 714.867C847.618 717.144 857.875 718.282 868.405 718.51L868.622 708.513C858.643 708.296 849.124 707.219 840.557 705.147L838.206 714.867ZM883.484 718.248C893.478 717.703 903.558 716.45 913.291 714.642L911.464 704.81C902.126 706.545 892.475 707.743 882.94 708.262L883.484 718.248ZM927.951 711.439C938.348 708.816 948.097 705.577 956.574 701.913L952.607 692.734C944.697 696.152 935.468 699.23 925.505 701.743L927.951 711.439ZM970.284 694.927C975.362 691.836 979.714 688.446 982.88 684.787L975.318 678.244C973.06 680.853 969.634 683.615 965.084 686.386L970.284 694.927Z" fill="black"/>
<path d="M131.037 398.516C123.557 404.477 114.316 405.754 119.716 413.298C126.853 421.522 131.612 431.537 133.099 435.516" stroke="black" stroke-width="5" stroke-linecap="round"/>
<path d="M123.099 416.516C117.719 419.487 105.172 425.164 98.0283 424.107C90.8848 423.052 86.1224 425.868 84.6342 427.409C83.8328 428.619 83.3292 431.106 87.7251 431.37C92.1211 431.634 97.3414 431.48 99.402 431.37" stroke="black" stroke-width="5" stroke-linecap="round"/>
<path d="M105.099 428.516C102.763 430.87 94.8222 436.22 81.7424 438.788C79.1843 439.216 75.7364 441.676 80.4078 444.566C84.4117 446.813 95.4895 444.759 101.095 441.676" stroke="black" stroke-width="5" stroke-linecap="round"/>
<path d="M100.684 442.516C96.326 444.496 88.4815 449.769 91.968 455.021C93.0854 456.064 97.801 456.147 107.724 448.143L115.099 442.516" stroke="black" stroke-width="5" stroke-linecap="round"/>
<path d="M115.922 441.396L108.502 447.587C106.366 453.206 103.106 466.852 111.875 459.283C118.283 452.747 116.934 447.175 119.632 445.523C122.33 443.872 128.401 437.498 131.099 434.516" stroke="black" stroke-width="5" stroke-linecap="round"/>
<path d="M115.705 430.516C114.906 433.332 114.268 439.876 118.099 443.516" stroke="black" stroke-width="5" stroke-linecap="round"/>
<path d="M246.834 184.523C261.465 157.208 255.551 137.032 250.764 130.359C266.631 151.048 290.484 152.181 300.428 150.162L297.399 163.781C311.095 171.333 322.785 153.385 326.918 143.468C333.293 128.166 324.46 102.143 287.687 95.3745C250.914 88.6061 220.657 108.503 210.125 119.297C188.921 102.441 155.446 109.403 141.359 114.991C126.776 120.808 92.084 142.404 92.5461 183.243C93.1694 238.342 152.396 249.999 163.208 249.219C200.565 246.526 228.544 218.667 246.834 184.523Z" fill="black"/>
<path d="M294.971 198.88C292.201 203.394 288.66 206.753 285.25 208.572C281.801 210.412 278.795 210.545 276.732 209.279C274.669 208.013 273.427 205.274 273.506 201.364C273.584 197.5 274.974 192.822 277.744 188.308C280.514 183.794 284.056 180.436 287.466 178.617C290.915 176.776 293.921 176.643 295.984 177.909C298.047 179.175 299.289 181.914 299.21 185.824C299.132 189.688 297.742 194.366 294.971 198.88Z" stroke="black" stroke-width="5"/>
<path d="M281.686 202.099C283.138 202.99 285.616 201.594 287.22 198.979C288.825 196.365 288.948 193.523 287.496 192.632C286.044 191.74 283.565 193.137 281.961 195.752C280.357 198.366 280.233 201.208 281.686 202.099Z" fill="black"/>
<path d="M247.931 182.181L275.186 190.999" stroke="black" stroke-width="5" stroke-linecap="round"/>
<path d="M300.075 165.508C300.394 171.038 302.826 183.862 307.427 192.422C312.132 201.176 309.63 208.709 302.834 212.005L292.208 217.219C283.333 248.883 268.078 268.624 226.91 263.277" stroke="black" stroke-width="5" stroke-linecap="round"/>
<path d="M247.314 214.254C248.128 214.753 249.192 214.498 249.692 213.684C250.191 212.871 249.936 211.806 249.122 211.307C248.309 210.808 247.244 211.062 246.745 211.876C246.246 212.69 246.5 213.754 247.314 214.254Z" fill="black"/>
<path d="M235.394 226.406C236.37 227.005 237.567 226.832 238.066 226.018C238.566 225.204 238.178 224.059 237.202 223.459C236.226 222.86 235.029 223.034 234.53 223.848C234.031 224.661 234.418 225.807 235.394 226.406Z" fill="black"/>
<path d="M250.301 229.876C251.277 230.475 252.473 230.301 252.973 229.487C253.472 228.674 253.085 227.528 252.108 226.929C251.132 226.33 249.936 226.504 249.436 227.318C248.937 228.131 249.324 229.276 250.301 229.876Z" fill="black"/>
<path d="M362.235 302.351C363.768 300.281 364.538 298.398 363.839 297.097C361.808 293.315 356.812 297.196 354.568 299.61C348.983 305.418 338.235 315.512 341.132 303.766C344.029 292.019 337.868 292.742 323.44 307.081L309.099 315.516" stroke="black" stroke-width="5" stroke-linecap="round"/>
<path d="M360.808 321.516C362.027 325.239 360.072 333.858 342.156 335.947C335.378 336.736 334.359 336.625 327.997 336.092H317.099" stroke="black" stroke-width="5" stroke-linecap="round"/>
<path d="M349.099 314.095C352.869 311.443 358.882 306.629 361.968 302.516C365.32 302.479 368.565 304.282 363.393 310.584C361.154 313.313 357.337 316.884 351.267 321.516" stroke="black" stroke-width="5" stroke-linecap="round"/>
<path d="M352.099 321.295C358.061 316.728 361.811 313.206 364.011 310.516C367.151 311.364 369.977 314.645 361.394 321.497C359.517 322.995 357.095 324.664 354.011 326.516" stroke="black" stroke-width="5" stroke-linecap="round"/>
<path d="M179.099 275.516C130.501 310.888 136.316 355 136.316 409.516" stroke="black" stroke-width="5" stroke-linecap="round"/>
<path d="M179.099 276.087L204.469 297.186C205.237 297.852 206.444 297.457 206.661 296.47L212.823 268.561C213.052 267.526 214.352 267.159 215.096 267.921L231.099 284.304" stroke="black" stroke-width="5" stroke-linecap="round"/>
<path d="M201.099 316.211C209.072 327.235 253.974 357.763 286.286 324.268L295.099 314.516" stroke="black" stroke-width="5" stroke-linecap="round"/>
<path d="M223.099 421.516C233.345 418.817 281.945 391.706 296.099 366.516" stroke="black" stroke-width="5" stroke-linecap="round"/>
<path d="M293.099 334.325C296.597 346.944 297.582 357.595 296.881 366.516C304.664 361.15 312.099 357.024 312.099 340.103C312.099 328.134 303.425 317.817 295.577 314.516" stroke="black" stroke-width="5" stroke-linecap="round"/>
<path d="M227.599 305.516C229.532 305.516 231.099 303.725 231.099 301.516C231.099 299.306 229.532 297.516 227.599 297.516C225.666 297.516 224.099 299.306 224.099 301.516C224.099 303.725 225.666 305.516 227.599 305.516Z" fill="black"/>
<path d="M231.599 325.516C233.532 325.516 235.099 323.501 235.099 321.016C235.099 318.53 233.532 316.516 231.599 316.516C229.666 316.516 228.099 318.53 228.099 321.016C228.099 323.501 229.666 325.516 231.599 325.516Z" fill="black"/>
<path d="M264.389 234.347C262.99 236.545 261.919 241.865 268.836 245.561" stroke="black" stroke-width="5" stroke-linecap="round"/>
<path d="M273.47 693.671C340.404 670.506 295.109 527.175 264.094 458.404C212.163 472.303 157.822 448.27 137.151 434.516C135.218 444.892 124.6 475.923 97.4807 517.04C70.361 558.157 35.1775 579.541 28.9601 597.393C13.8135 640.827 46.9919 663.267 63.5811 668.335C121.86 681.654 171.05 615.974 188.361 581.467C213.172 683.392 255.439 698.738 273.47 693.671Z" fill="black"/>
<path d="M369.166 259.547C378.777 265.799 362.369 288.363 354.36 300.385L344.677 309.244C335.054 311.168 330.24 302.419 329.099 297.409L348.562 261.35C351.42 258.144 359.544 253.295 369.166 259.547Z" fill="black"/>
<path d="M398.099 271.516H384.099" stroke="black" stroke-width="5" stroke-linecap="round"/>
<path d="M384.099 238.516L379.099 250.516" stroke="black" stroke-width="5" stroke-linecap="round"/>
<path d="M398.099 249.516C397.399 249.882 388.474 257.002 384.099 260.516" stroke="black" stroke-width="5" stroke-linecap="round"/>
<path d="M285.335 682.516C284.84 690.09 288.245 715.501 307.895 701.574C312.741 696.687 324.196 688.673 331.182 695.71C338.169 702.746 324.385 715.745 316.627 721.365C308.622 727.718 288.973 738.517 274.418 730.894C259.864 723.27 260.096 703.284 262.047 694.244" stroke="black" stroke-width="5" stroke-linecap="round"/>
<path d="M47.0991 656.895C42.0848 659.302 32.0561 665.991 32.0561 673.499C37.7868 681.681 46.9559 701.797 37.7868 716.813C28.6177 731.829 11.9987 697.563 4.83541 678.552C1.25373 667.723 0.823935 643.756 27.7581 634.516" stroke="black" stroke-width="5" stroke-linecap="round"/>
<path d="M271.622 402.516C272.683 411.676 272.663 434.299 264.099 451.516" stroke="black" stroke-width="5" stroke-linecap="round"/>
<path d="M237.099 278.516C241.766 280.96 268.099 293.516 268.099 326.516" stroke="black" stroke-width="5" stroke-linecap="round"/>
</svg>
