<svg width="2101" height="849" viewBox="0 0 2101 849" fill="none" xmlns="http://www.w3.org/2000/svg">
<path d="M54.5991 565.777V723.342C54.5991 723.869 55.0069 724.305 55.5319 724.34L188.027 733.273C188.075 733.276 188.123 733.276 188.171 733.272L240.599 729.277" stroke="black" stroke-width="7" stroke-linecap="round"/>
<path d="M54.5991 565.277L186.976 548.916C187.573 548.842 188.099 549.308 188.099 549.909V731.277" stroke="black" stroke-width="7" stroke-linecap="round"/>
<path d="M214.5 550.277L384.663 561.217C385.19 561.251 385.599 561.688 385.599 562.215V628.277" stroke="black" stroke-width="7" stroke-linecap="round"/>
<path d="M55.0991 724.277H5.09912C4.54684 724.277 4.09912 724.725 4.09912 725.277V784.417C4.09912 784.911 4.461 785.332 4.9503 785.405L152.45 807.604C153.055 807.695 153.599 807.227 153.599 806.616V749.277" stroke="black" stroke-width="7" stroke-linecap="round"/>
<path d="M153.099 807.777L271.599 796.777" stroke="black" stroke-width="7" stroke-linecap="round"/>
<path d="M223.099 804.777V679.777L277.099 804.777H223.099Z" fill="black" fill-opacity="0.3"/>
<path d="M373.025 744.582L295.035 582.266C294.383 580.909 295.408 579.345 296.913 579.402L332.402 580.732C333.139 580.76 333.801 581.191 334.124 581.854L412.474 742.495C412.848 743.262 412.694 744.182 412.09 744.786L396.152 760.725C395.796 761.08 395.32 761.289 394.818 761.309L363.278 762.588C361.519 762.659 360.532 760.586 361.697 759.266L372.722 746.772C373.254 746.169 373.373 745.307 373.025 744.582Z" fill="black"/>
<path d="M328.509 791.894L321.042 799.685C319.795 800.986 320.769 803.143 322.57 803.067L352.372 801.808C352.842 801.788 353.289 801.604 353.636 801.287L360.791 794.754C362.139 793.523 361.268 791.277 359.442 791.277H329.953C329.407 791.277 328.886 791.5 328.509 791.894Z" fill="black"/>
<path d="M103.599 576.53V561.028C103.599 560.026 104.341 559.178 105.335 559.046L131.335 555.579C132.534 555.419 133.599 556.352 133.599 557.562V573.497C133.599 574.512 132.839 575.366 131.831 575.484L105.831 578.517C104.643 578.656 103.599 577.727 103.599 576.53Z" fill="black"/>
<path d="M58.5991 778.033V791.064C58.5991 792.05 59.3179 792.889 60.2924 793.04L85.2924 796.919C86.5048 797.108 87.5991 796.17 87.5991 794.943V781.05C87.5991 780.039 86.8434 779.186 85.8388 779.065L60.8388 776.048C59.6478 775.904 58.5991 776.834 58.5991 778.033Z" fill="black"/>
<path d="M105.599 709.777V725.432C105.599 726.474 106.399 727.342 107.438 727.426L134.438 729.603C135.603 729.697 136.599 728.778 136.599 727.61V709.777C136.599 708.673 135.704 707.777 134.599 707.777H107.599C106.495 707.777 105.599 708.673 105.599 709.777Z" fill="black"/>
<path d="M58.5991 748.504V726.92C58.5991 725.761 59.5807 724.845 60.7367 724.925L85.7367 726.649C86.7854 726.721 87.5991 727.593 87.5991 728.644V751.521C87.5991 752.721 86.5504 753.651 85.3595 753.507L60.3595 750.49C59.3549 750.369 58.5991 749.516 58.5991 748.504Z" fill="black"/>
<path d="M277.028 803.968L204.853 638.359C204.698 638.004 204.762 637.592 205.017 637.3L256.598 578.42C257.071 577.88 257.944 578 258.253 578.649L338.287 746.622C338.473 747.013 338.387 747.479 338.073 747.777L278.634 804.293C278.131 804.771 277.306 804.604 277.028 803.968Z" stroke="black" stroke-width="7" stroke-linecap="round"/>
<path d="M278.599 804.777L385.729 799.795C385.968 799.783 386.195 799.687 386.369 799.523L445.157 744.108C445.83 743.474 445.356 742.345 444.432 742.381L357 745.777" stroke="black" stroke-width="7" stroke-linecap="round"/>
<path d="M257.599 577.777L361.019 581.755C361.378 581.769 361.701 581.974 361.867 582.293L445.099 742.277" stroke="black" stroke-width="7" stroke-linecap="round"/>
<path d="M757.099 675.777C699.664 675.777 653.099 629.213 653.099 571.777C653.099 514.34 699.664 467.777 757.099 467.777C814.534 467.777 861.099 514.34 861.099 571.777C861.099 629.213 814.534 675.777 757.099 675.777Z" stroke="black" stroke-width="10"/>
<path d="M666.099 479.853C684.205 461.672 707.271 449.291 732.382 444.275C757.497 439.259 783.527 441.834 807.18 451.673C830.837 461.512 851.054 478.174 865.283 499.553C879.507 520.931 887.099 546.067 887.099 571.777" stroke="black" stroke-width="15" stroke-linecap="round"/>
<path d="M757.099 605.777C737.769 605.777 722.099 590.332 722.099 571.277C722.099 552.223 737.769 536.777 757.099 536.777C776.43 536.777 792.099 552.223 792.099 571.277C792.099 590.332 776.43 605.777 757.099 605.777Z" stroke="black" stroke-width="10"/>
<path d="M757.099 660.777C707.948 660.777 668.099 620.929 668.099 571.777C668.099 522.624 707.948 482.777 757.099 482.777C806.25 482.777 846.099 522.624 846.099 571.777C846.099 620.929 806.25 660.777 757.099 660.777Z" stroke="black" stroke-width="5"/>
<path d="M757.599 554.777C748.488 554.777 741.099 562.166 741.099 571.277C741.099 580.388 748.488 587.777 757.599 587.777C766.71 587.777 774.099 580.388 774.099 571.277C774.099 562.166 766.71 554.777 757.599 554.777Z" fill="black"/>
<path d="M900.099 350.52C892.597 347.805 879.6 352.513 874.78 364.948C867.747 383.098 845.008 390.777 836.099 390.777" stroke="black" stroke-width="10" stroke-linecap="round"/>
<path d="M825.099 416.777C865.931 418.482 892.02 422.567 914.099 428.777" stroke="black" stroke-width="10" stroke-linecap="round"/>
<path d="M843.099 361.777L758.099 568.777" stroke="black" stroke-width="10" stroke-linecap="round"/>
<path d="M920.099 231.777V678.82C920.099 690.935 933.149 700.777 949.462 700.777H1934.74C1951.05 700.777 1964.1 690.935 1964.1 678.82V230.277" stroke="black" stroke-width="5" stroke-miterlimit="10" stroke-linecap="round"/>
<path d="M1290.27 2.03327L1248.13 161.187C1248.11 161.271 1248.1 161.357 1248.1 161.443V219.91C1248.1 220.346 1247.83 220.727 1247.41 220.858C1132.24 257.033 915.42 235.935 865.747 220.841C865.329 220.714 865.099 220.344 865.099 219.906V161.619C865.099 161.42 865.158 161.225 865.27 161.06L972.875 1.2189C973.061 0.942862 973.372 0.777344 973.705 0.777344H1289.3C1289.96 0.777344 1290.43 1.39884 1290.27 2.03327Z" fill="black"/>
<path d="M1931.37 1.34216L2009.5 162.977C2009.57 163.113 2009.6 163.261 2009.6 163.412V214.43C2009.6 214.655 2009.55 214.842 2009.41 215.014C1983.18 246.051 1646.27 242.922 1629.81 228.003C1629.62 227.838 1629.6 227.66 1629.6 227.413V163.183L1610.23 1.89656C1610.16 1.30128 1610.63 0.777344 1611.23 0.777344H1930.47C1930.86 0.777344 1931.21 0.996785 1931.37 1.34216Z" fill="black"/>
<path d="M1612.2 4.16687L1629.6 160.708V225.642C1629.6 226.03 1629.41 226.366 1629.06 226.528C1561.28 257.755 1290.62 265.127 1248.35 220.081C1248.18 219.899 1248.1 219.674 1248.1 219.424V160.834C1248.1 160.75 1248.11 160.667 1248.13 160.585L1288.41 4.0282C1288.52 3.58626 1288.92 3.27734 1289.37 3.27734H1611.2C1611.71 3.27734 1612.14 3.66046 1612.2 4.16687Z" stroke="black" stroke-width="5" stroke-linecap="round"/>
<rect x="1338.6" y="338.277" width="483" height="269" rx="7.5" stroke="black" stroke-width="5"/>
<path d="M857.099 717.973C843.48 711.612 810.335 699.3 786.686 700.923C783.332 701.057 778.269 702.466 784.838 707.012C791.407 711.559 794.692 713.913 795.513 714.522C798.933 717.364 802.288 723.372 788.328 724.671C770.879 726.294 721.61 708.636 624.099 721.626" stroke="black" stroke-width="5" stroke-linecap="round"/>
<path d="M2089.98 528.869C2070.83 534.181 2050.08 565.021 2042.1 579.777C2054.07 578.302 2081.2 570.481 2093.97 551.003C2106.74 531.525 2096.63 528.131 2089.98 528.869Z" fill="black"/>
<path d="M2081.12 478.913C2062.01 480.842 2048.26 528.021 2042.1 549.777C2055.79 538.588 2082.76 516.21 2089.33 508.751C2101.65 494.765 2099.6 477.048 2081.12 478.913Z" fill="black"/>
<path d="M2019.39 458.297C2006.6 478.42 2034.31 508.654 2047.1 528.777C2047.1 516.107 2047.1 489.6 2047.1 478.42C2047.1 460.533 2028.62 443.767 2019.39 458.297Z" fill="black"/>
<path d="M2044.1 558.777C2029.72 538.795 1999.01 504.158 1991.17 525.473C1981.37 552.116 2042.14 558.777 2044.1 558.777Z" fill="black"/>
<path d="M2044.1 588.777L2042.1 513.777" stroke="black" stroke-width="5" stroke-linecap="round"/>
<path d="M2024.22 645.367C2029.07 633.576 2036.3 603.318 2037.8 588.777H2058.18C2059.09 606.697 2068.37 632.398 2072.89 645.367C2086.48 676.019 2074.78 695.669 2066.1 700.777H2033.28C2011.77 693.704 2017.43 661.872 2024.22 645.367Z" stroke="black" stroke-width="5"/>
<path d="M1990.1 754.777V742.777" stroke="black" stroke-width="5" stroke-linecap="round"/>
<path d="M2003.1 749.777L1997.1 754.777" stroke="black" stroke-width="5" stroke-linecap="round"/>
<path d="M1982.1 755.777L1977.1 747.777" stroke="black" stroke-width="5" stroke-linecap="round"/>
<path d="M1661.1 819.777V807.777" stroke="black" stroke-width="5" stroke-linecap="round"/>
<path d="M1674.1 814.777L1668.1 819.777" stroke="black" stroke-width="5" stroke-linecap="round"/>
<path d="M1653.1 820.777L1648.1 812.777" stroke="black" stroke-width="5" stroke-linecap="round"/>
<path d="M1550.1 831.601C1521.87 818.349 1453.16 792.699 1404.14 796.082C1397.18 796.361 1386.69 799.295 1400.31 808.767C1413.92 818.239 1420.73 823.144 1422.43 824.413C1429.52 830.333 1436.48 842.849 1407.54 845.555C1371.37 848.938 1269.24 812.15 1067.1 839.212" stroke="black" stroke-width="5" stroke-linecap="round"/>
<path d="M1023.1 435.777C1023.1 380.549 1068.87 335.777 1124.1 335.777C1179.33 335.777 1225.1 380.549 1225.1 435.777V700.777H1023.1V435.777Z" fill="black"/>
<path d="M555.442 208.219C563.244 208.981 575.831 220.019 582.097 226.4C582.626 226.939 582.79 227.727 582.538 228.438L579.339 237.476C578.725 239.211 576.009 239.392 574.872 237.945C568.932 230.384 556.834 223.36 549.25 219.734C548.113 219.19 547.719 217.757 548.443 216.725L553.857 209.006C554.222 208.486 554.81 208.157 555.442 208.219Z" fill="black"/>
<path d="M536.092 233.964C550.359 237.743 565.703 251.565 571.592 258.004L564.025 275.29C559.355 266.619 535.857 254.231 524.691 249.121L536.092 233.964Z" fill="black"/>
<path d="M356.754 329.054C349.807 335.911 345.417 369.041 344.09 384.749L326.665 377.264C324.366 362.253 332.523 335.942 336.889 324.662L356.754 329.054Z" fill="black"/>
<path d="M317.835 321.831C312.274 333.166 308.816 358.219 307.783 369.328L291.56 363.579C290.312 354.112 296.126 330.732 299.189 320.225L317.835 321.831Z" fill="black"/>
<path d="M561.125 198.439C575.567 181.266 593.377 203.321 582.99 230.252L546.523 319.306C501.809 430.46 435.095 421.594 397.883 404.979C364.105 391.871 292.674 364.293 277.174 358.842C257.798 352.028 253.212 328.045 269.954 322.343C286.695 316.642 346.72 323.233 398.643 339.441C440.181 352.407 462.233 338.097 478.441 318.517L561.125 198.439Z" stroke="black" stroke-width="5" stroke-linecap="round"/>
<path d="M550.408 360.041C560.836 361.076 586.109 356.269 603.774 328.755" stroke="black" stroke-width="5" stroke-linecap="round"/>
<path d="M334.236 297.151C329.52 287.689 311.823 268.701 278.76 268.447" stroke="black" stroke-width="5" stroke-linecap="round"/>
<path d="M558.592 344.232C571.883 336.181 600.271 309.422 607.492 266.794" stroke="black" stroke-width="5" stroke-linecap="round"/>
<path d="M316.561 298.215C302.719 291.361 265.05 281.822 225.099 298.498" stroke="black" stroke-width="5" stroke-linecap="round"/>
<path d="M355.072 387.877C355.78 376.86 358.479 352.055 363.616 340.973" stroke="black" stroke-width="5" stroke-linecap="round"/>
<path d="M279.849 359.003C279.222 350.244 278.559 332.041 286.842 321.082" stroke="black" stroke-width="5" stroke-linecap="round"/>
<path d="M556.194 292.2C550.31 286.738 535.12 274.811 521.44 270.796" stroke="black" stroke-width="5" stroke-linecap="round"/>
</svg>
