<svg width="1286" height="1315" viewBox="0 0 1286 1315" fill="none" xmlns="http://www.w3.org/2000/svg">
<path d="M687.099 673.257C691.766 673.091 704.399 671.557 717.599 666.757C734.099 660.757 746.599 663.757 734.099 677.257" stroke="black" stroke-width="5" stroke-linecap="round"/>
<path d="M817.324 703.879C817.034 708.492 822.183 714.426 847.099 708.758" stroke="black" stroke-width="5" stroke-linecap="round"/>
<path d="M810.129 694.517C806.269 695.56 802.444 694.466 801.015 693.787C795.643 691.003 798.221 683.861 802.875 681.077C809.783 677.137 826.099 668.659 836.099 666.259" stroke="black" stroke-width="5" stroke-linecap="round"/>
<path d="M831.599 686.757C826.599 689.757 819.599 693.257 809.712 694.502C807.319 697.618 810.341 703.235 817.409 703.429C821.878 703.559 829.176 702.557 840.495 699.746" stroke="black" stroke-width="5" stroke-linecap="round"/>
<circle cx="1015.54" cy="186.917" r="14.5" transform="rotate(-72.883 1015.54 186.917)" stroke="black" stroke-width="5"/>
<path d="M972.64 155.344L998.806 141.499" stroke="black" stroke-width="5" stroke-linecap="round"/>
<path d="M1140.5 119.721L1274.73 161.056C1279.97 162.671 1282.93 168.211 1281.37 173.469L1230.15 345.349C1228.57 350.668 1222.95 353.679 1217.65 352.057L1021.76 292.215C1019.21 291.437 1017.08 289.673 1015.83 287.316L964.775 190.499" stroke="black" stroke-width="5" stroke-linecap="round"/>
<path fill-rule="evenodd" clip-rule="evenodd" d="M1038.69 53.0297C1037.14 52.5921 1035.53 53.4464 1035.02 54.9687L1031.38 65.9183C1031.03 66.9656 1030.14 67.737 1029.05 67.9265L1017.68 69.908C1016.1 70.1835 1015.02 71.6537 1015.22 73.245L1016.69 84.6914C1016.83 85.7862 1016.36 86.8697 1015.46 87.5122L1006.07 94.2302C1004.77 95.1642 1004.43 96.9592 1005.31 98.3044L1011.59 107.98C1012.2 108.906 1012.24 110.087 1011.71 111.055L1006.17 121.179C1005.4 122.586 1005.88 124.351 1007.25 125.183L1017.11 131.172C1018.05 131.745 1018.61 132.79 1018.55 133.892L1017.95 145.417C1017.87 147.019 1019.06 148.403 1020.66 148.558L1032.14 149.674C1033.24 149.781 1034.19 150.482 1034.62 151.5L1039.08 162.143C1039.7 163.623 1041.38 164.352 1042.88 163.799L1053.72 159.821C1054.75 159.441 1055.91 159.66 1056.74 160.392L1065.38 168.045C1066.58 169.109 1068.4 169.04 1069.52 167.888L1077.55 159.604C1078.32 158.811 1079.46 158.505 1080.53 158.806L1091.63 161.953C1093.17 162.391 1094.79 161.537 1095.29 160.014L1098.94 149.065C1099.29 148.017 1100.18 147.246 1101.27 147.057L1112.64 145.075C1114.22 144.8 1115.3 143.329 1115.1 141.738L1113.63 130.292C1113.49 129.197 1113.96 128.113 1114.86 127.471L1124.24 120.753C1125.55 119.819 1125.89 118.024 1125.01 116.679L1118.72 107.003C1118.12 106.077 1118.08 104.896 1118.61 103.928L1124.15 93.8041C1124.92 92.3966 1124.44 90.6324 1123.07 89.7998L1113.21 83.8106C1112.26 83.2378 1111.71 82.1931 1111.77 81.0908L1112.36 69.5662C1112.45 67.9641 1111.26 66.58 1109.66 66.4249L1098.17 65.3088C1097.07 65.2021 1096.12 64.5007 1095.7 63.4827L1091.23 52.84C1090.61 51.3604 1088.94 50.6307 1087.43 51.1837L1076.6 55.1618C1075.56 55.5423 1074.4 55.3231 1073.58 54.5911L1064.94 46.9382C1063.74 45.8742 1061.91 45.9434 1060.8 47.0951L1052.76 55.3793C1051.99 56.1717 1050.85 56.4781 1049.79 56.1771L1038.69 53.0297ZM1049.75 98.6758C1050.91 100.873 1050.07 103.596 1047.87 104.758C1045.68 105.92 1042.95 105.082 1041.79 102.885C1040.63 100.688 1041.47 97.965 1043.66 96.8027C1045.86 95.6405 1048.58 96.4791 1049.75 98.6758ZM1054.17 96.3375C1056.62 100.975 1054.85 106.724 1050.21 109.177C1045.57 111.631 1039.83 109.861 1037.37 105.223C1034.92 100.586 1036.69 94.8369 1041.33 92.3832C1045.96 89.9295 1051.71 91.6999 1054.17 96.3375ZM1087.54 117.713C1089.73 116.55 1090.57 113.827 1089.41 111.631C1088.25 109.434 1085.52 108.595 1083.33 109.758C1081.13 110.92 1080.29 113.643 1081.45 115.84C1082.62 118.036 1085.34 118.875 1087.54 117.713ZM1089.87 122.132C1094.51 119.678 1096.28 113.93 1093.83 109.292C1091.38 104.655 1085.63 102.884 1080.99 105.338C1076.35 107.792 1074.58 113.54 1077.03 118.178C1079.49 122.816 1085.24 124.586 1089.87 122.132ZM1066.68 83.3413C1066.6 81.963 1065.41 80.9123 1064.04 80.9944C1062.66 81.0766 1061.61 82.2605 1061.69 83.6387L1064.52 131.173C1064.6 132.552 1065.79 133.602 1067.17 133.52C1068.54 133.438 1069.59 132.254 1069.51 130.876L1066.68 83.3413Z" fill="black"/>
<path fill-rule="evenodd" clip-rule="evenodd" d="M180.224 615.08C177.652 614.351 174.961 615.774 174.116 618.311L168.77 634.376C168.189 636.122 166.697 637.407 164.884 637.723L148.205 640.631C145.571 641.09 143.764 643.54 144.104 646.192L146.257 662.986C146.491 664.811 145.705 666.616 144.209 667.687L130.442 677.544C128.268 679.1 127.704 682.092 129.161 684.334L138.387 698.53C139.39 700.072 139.464 702.041 138.581 703.655L130.455 718.508C129.171 720.854 129.961 723.794 132.246 725.182L146.719 733.969C148.291 734.924 149.212 736.665 149.117 738.502L148.24 755.41C148.101 758.081 150.088 760.387 152.75 760.646L169.601 762.283C171.432 762.461 173.018 763.63 173.729 765.327L180.275 780.941C181.309 783.407 184.1 784.623 186.61 783.702L202.503 777.865C204.23 777.231 206.166 777.596 207.543 778.816L220.215 790.045C222.216 791.818 225.259 791.703 227.12 789.783L238.907 777.629C240.188 776.308 242.09 775.797 243.86 776.299L260.15 780.917C262.722 781.646 265.413 780.222 266.258 777.685L271.604 761.62C272.185 759.875 273.677 758.589 275.489 758.273L292.169 755.366C294.803 754.907 296.61 752.457 296.27 749.804L294.116 733.011C293.882 731.186 294.669 729.38 296.165 728.309L309.932 718.453C312.106 716.896 312.67 713.905 311.213 711.663L301.986 697.467C300.984 695.924 300.909 693.956 301.792 692.342L309.919 677.489C311.202 675.143 310.413 672.203 308.128 670.815L293.655 662.028C292.083 661.073 291.161 659.332 291.257 657.495L292.134 640.586C292.272 637.916 290.286 635.609 287.624 635.351L270.772 633.713C268.941 633.536 267.356 632.367 266.645 630.67L260.099 615.055C259.065 612.589 256.274 611.373 253.764 612.295L237.871 618.131C236.144 618.766 234.208 618.4 232.831 617.18L220.159 605.952C218.157 604.179 215.115 604.294 213.254 606.214L201.467 618.368C200.186 619.689 198.283 620.199 196.514 619.698L180.224 615.08ZM199.009 683.332C201.459 687.961 199.692 693.7 195.062 696.149C190.433 698.598 184.694 696.831 182.245 692.202C179.796 687.572 181.563 681.834 186.192 679.385C190.822 676.935 196.56 678.702 199.009 683.332ZM203.429 680.993C207.17 688.064 204.471 696.828 197.401 700.569C190.33 704.309 181.566 701.61 177.825 694.54C174.085 687.47 176.784 678.706 183.854 674.965C190.924 671.224 199.688 673.923 203.429 680.993ZM255.529 715.899C260.158 713.45 261.926 707.711 259.476 703.082C257.027 698.452 251.288 696.685 246.659 699.134C242.03 701.584 240.262 707.322 242.712 711.952C245.161 716.581 250.9 718.348 255.529 715.899ZM257.867 720.318C264.938 716.578 267.637 707.814 263.896 700.743C260.155 693.673 251.391 690.974 244.321 694.715C237.25 698.456 234.551 707.22 238.292 714.29C242.033 721.36 250.797 724.059 257.867 720.318ZM221.196 661.258C221.113 659.88 219.929 658.829 218.551 658.911C217.173 658.993 216.122 660.177 216.204 661.556L220.523 734.024C220.605 735.403 221.789 736.453 223.167 736.371C224.546 736.289 225.596 735.105 225.514 733.727L221.196 661.258Z" fill="black"/>
<path d="M1007.01 194.65C1012.26 191.157 1019.68 182.371 1007.35 175.171C991.944 166.172 934.219 167.556 934.35 193.965C934.439 212.142 957.061 214.646 971.981 213.185" stroke="black" stroke-width="5" stroke-linecap="round"/>
<path d="M274.099 247.758C259.599 199.758 215.799 91.8578 156.599 44.2578" stroke="black" stroke-width="5" stroke-linecap="round"/>
<path d="M302.099 135.258C304.766 101.591 319.799 28.0578 358.599 3.25781" stroke="black" stroke-width="5" stroke-linecap="round"/>
<path d="M310.099 247.758C315.099 216.591 337.399 147.958 386.599 122.758" stroke="black" stroke-width="5" stroke-linecap="round"/>
<path d="M325.099 276.757C349.599 269.424 406.199 256.957 436.599 265.757" stroke="black" stroke-width="5" stroke-linecap="round"/>
<path d="M336.599 313.258C358.766 318.424 405.099 338.658 413.099 378.258" stroke="black" stroke-width="5" stroke-linecap="round"/>
<path d="M277.599 343.258C273.933 376.424 270.199 448.158 284.599 469.758" stroke="black" stroke-width="5" stroke-linecap="round"/>
<path d="M188.099 469.758C187.932 437.758 199.699 363.958 248.099 324.758" stroke="black" stroke-width="5" stroke-linecap="round"/>
<path d="M143.6 425.258C131.933 436.924 108.8 474.158 109.6 529.758" stroke="black" stroke-width="5" stroke-linecap="round"/>
<path d="M87.0991 354.257C103.099 327.757 156.399 277.257 241.599 287.257" stroke="black" stroke-width="5" stroke-linecap="round"/>
<path d="M3.09912 288.758C12.0991 274.758 38.9991 245.958 74.5991 242.758" stroke="black" stroke-width="5" stroke-linecap="round"/>
<path d="M103.599 198.757C135.932 197.757 208.799 206.057 241.599 247.257" stroke="black" stroke-width="5" stroke-linecap="round"/>
<ellipse cx="284.099" cy="296.258" rx="10" ry="7" fill="black"/>
<path d="M510.099 671.258L415.624 853.283C415.076 854.338 415.564 855.635 416.671 856.067L583.866 921.385C585.029 921.84 586.319 921.13 586.557 919.904L621.33 741.141C621.491 740.311 621.114 739.47 620.388 739.039L530.599 685.758" stroke="black" stroke-width="5" stroke-linecap="round"/>
<path d="M415.099 854.258L396.833 825.417C396.391 824.718 396.424 823.82 396.916 823.156L467.599 727.758" stroke="black" stroke-width="5" stroke-linecap="round"/>
<path d="M1058.1 841.258L1077.59 876.433C1078.14 877.428 1077.75 878.682 1076.73 879.191L911.828 961.643C910.684 962.215 909.304 961.581 908.993 960.341L858.422 758.547C858.226 757.766 858.518 756.944 859.162 756.461L912.099 716.758" stroke="black" stroke-width="5" stroke-linecap="round"/>
<path d="M1078.1 877.758L1094.14 841.294C1094.43 840.651 1094.35 839.907 1093.95 839.334L1080.1 819.758" stroke="black" stroke-width="5" stroke-linecap="round"/>
<path d="M987.599 638.758L916.867 729.275C916.397 729.876 916.311 730.693 916.644 731.38L991.01 884.515C991.569 885.666 993.05 886.003 994.052 885.208L1113.98 790.041C1114.87 789.339 1115 788.044 1114.27 787.182L1003.1 655.758" stroke="black" stroke-width="5" stroke-linecap="round"/>
<path d="M1115.1 788.758L1123.32 753.93C1123.49 753.209 1123.25 752.453 1122.69 751.965L1032.1 672.758" stroke="black" stroke-width="5" stroke-linecap="round"/>
<path d="M968.099 663.259C963.099 647.425 943.199 616.959 891.599 619.759" stroke="black" stroke-width="5" stroke-linecap="round"/>
<path d="M881.599 692.758C883.599 701.258 889.199 720.058 895.599 727.258" stroke="black" stroke-width="5" stroke-linecap="round"/>
<path d="M914.099 685.258C916.432 690.758 922.399 702.958 927.599 707.758" stroke="black" stroke-width="5" stroke-linecap="round"/>
<path d="M687.1 490.758C619.315 527.731 499.472 619.726 561.965 692.102C562.052 692.203 562.147 692.294 562.252 692.375C580.475 706.395 628.529 732.288 677.751 726.009C678.791 725.876 679.541 724.949 679.472 723.903C678.421 707.879 678.437 688.102 687.1 671.258C690.994 663.686 631.099 653.258 616.599 645.758" stroke="black" stroke-width="5" stroke-linecap="round"/>
<path d="M557.099 700.258C569.266 679.258 585.599 642.158 619.599 647.758" stroke="black" stroke-width="5" stroke-linecap="round"/>
<path d="M614.599 718.758C613.766 722.091 611.499 729.058 609.099 730.258" stroke="black" stroke-width="5" stroke-linecap="round"/>
<path d="M766.777 480.581C758.493 485.212 740.013 491.694 732.366 480.581C722.808 466.69 714.205 483.166 718.028 493.827C721.852 504.487 754.303 522.232 776.099 483.311" stroke="black" stroke-width="5" stroke-linecap="round"/>
<path d="M771.099 543.237C766.627 543.536 755.165 540.759 745.099 527.258" stroke="black" stroke-width="5" stroke-linecap="round"/>
<path d="M747.722 509.258C748.483 513.415 748.316 520.469 745.095 527.46C742.373 533.368 737.468 539.231 729.099 543.258" stroke="black" stroke-width="5" stroke-linecap="round"/>
<path d="M735.099 507.258C729.417 512.219 720.059 525.535 724.069 543.258" stroke="black" stroke-width="5" stroke-linecap="round"/>
<path d="M752.099 506.258C758.683 509.63 771.238 520.351 768.786 536.258" stroke="black" stroke-width="5" stroke-linecap="round"/>
<path d="M757.343 306.703C789.939 311.399 801.709 351.098 803.52 370.361C812.829 400.926 812.004 426.306 805.443 445.306C804.349 450.121 806.961 458.579 826.156 453.884C845.352 449.188 837.173 416.411 830.684 400.61C827.062 392.303 826.156 376.983 826.156 370.361C833.038 281.15 778.319 271.488 750.099 277.809C758.791 283.588 758.55 299.48 757.343 306.703Z" fill="black"/>
<path d="M642.848 327.363C656.895 254.843 741.182 258.015 766.558 280.224C795.107 316.485 722.149 406.229 702.211 397.618C688.072 386.739 677.463 392.632 674.569 397.618C661.518 420.099 680.006 432.669 690.882 436.144C687.982 451.736 725.321 468.779 719.884 480.563C690.882 517.277 602.065 457.447 623.363 439.317C640.401 424.813 639.479 406.23 639.223 397.618C637.863 351.84 639.223 348.213 642.848 327.363Z" fill="black"/>
<path d="M768.099 426.258C785.078 422.686 776.117 415.544 772.344 401.258" stroke="black" stroke-width="5" stroke-linecap="round"/>
<ellipse cx="792.657" cy="386.544" rx="4.14903" ry="6.22354" transform="rotate(11.0109 792.657 386.544)" fill="black"/>
<ellipse cx="746.375" cy="398.234" rx="4.09398" ry="6.14097" transform="rotate(8.55426 746.375 398.234)" fill="black"/>
<path d="M684.099 405.258C682.59 408.058 680.477 414.778 684.099 419.258" stroke="black" stroke-width="5" stroke-linecap="round"/>
<path d="M716.099 475.695C753.49 475.695 774.213 500.226 807.099 446.258" stroke="black" stroke-width="5" stroke-linecap="round"/>
<path d="M756.099 451.192C770.599 458.258 778.928 451.192 782.099 445.258" stroke="black" stroke-width="5" stroke-linecap="round"/>
<path d="M762.599 398.758C762.599 409.551 754.93 417.758 746.099 417.758C737.268 417.758 729.599 409.551 729.599 398.758C729.599 387.965 737.268 379.758 746.099 379.758C754.93 379.758 762.599 387.965 762.599 398.758Z" stroke="black" stroke-width="5"/>
<path d="M808.599 386.758C808.599 397.551 800.93 405.758 792.099 405.758C783.268 405.758 775.599 397.551 775.599 386.758C775.599 375.965 783.268 367.758 792.099 367.758C800.93 367.758 808.599 375.965 808.599 386.758Z" stroke="black" stroke-width="5"/>
<path d="M775.099 389.545C772.159 389.028 765.442 388.847 762.099 392.258" stroke="black" stroke-width="5" stroke-linecap="round"/>
<path d="M729.13 391.979L715.083 392.432" stroke="black" stroke-width="5" stroke-linecap="round"/>
<path d="M778.099 480.258C845.099 508.758 966.999 549.158 976.599 632.758C976.928 643.129 960.997 669.697 895.073 693.861C893.841 694.312 892.487 693.481 892.297 692.183C890.526 680.082 882.772 658.26 862.769 648.723C861.65 648.189 861.206 646.801 861.933 645.795C869.437 635.421 890.888 614.744 927.599 601.258" stroke="black" stroke-width="5" stroke-linecap="round"/>
<path d="M633.599 650.758V594.462C633.599 593.48 634.312 592.643 635.281 592.487L810.079 564.342C810.42 564.287 810.769 564.321 811.093 564.441L871.295 586.774C872.079 587.065 872.599 587.813 872.599 588.649V631.758" stroke="black" stroke-width="5" stroke-linecap="round"/>
<path d="M632.599 725.258V743.481C632.599 744.259 633.051 744.967 633.758 745.295L684.758 768.941C686.083 769.555 687.599 768.587 687.599 767.126V725.258" stroke="black" stroke-width="5" stroke-linecap="round"/>
<path d="M687.599 770.258L874.998 732.084C875.93 731.894 876.599 731.075 876.599 730.124V700.258" stroke="black" stroke-width="5" stroke-linecap="round"/>
<path d="M687.599 667.758V623.008C687.599 622.243 687.163 621.545 686.476 621.21L647.599 602.258" stroke="black" stroke-width="5" stroke-linecap="round"/>
<path d="M687.599 621.758L856.099 592.758" stroke="black" stroke-width="5" stroke-linecap="round"/>
<path d="M638.599 749.758C638.266 764.258 638.799 801.458 631.599 834.258" stroke="black" stroke-width="5" stroke-linecap="round"/>
<path d="M868.099 749.758L866.099 734.758" stroke="black" stroke-width="5" stroke-linecap="round"/>
<path d="M871.099 814.759C887.592 926.519 900.883 1154.24 826.627 1180.1C752.362 1205.97 717.022 1171.71 708.631 1151.35C706.698 1179.4 688.893 1227.97 633.148 1197.9C577.402 1167.82 571.972 1106.72 576.227 1079.92L629.317 832.694C673.092 854.643 729.099 855.061 749.599 847.259C803.199 826.859 852.932 817.592 871.099 814.759Z" fill="black"/>
<path d="M603.084 1210.26C604.755 1224.15 601.414 1245.79 585.813 1252.94C566.309 1261.87 516.321 1292.14 564.314 1298.59C602.709 1303.75 633.637 1277.58 644.31 1263.85C647.975 1247.97 650.584 1229.61 644.31 1210.26" stroke="black" stroke-width="5" stroke-linecap="round"/>
<path d="M756.55 1201.75C755.641 1211.65 755.864 1234.77 759.515 1247.69C768.737 1280.37 796.626 1314.95 864.06 1312.09C873.145 1309.93 885.864 1300.81 864.06 1281.64C856.089 1274.64 847.45 1268.23 839.325 1261.61C819.647 1245.58 803.088 1228.3 807.031 1198.26" stroke="black" stroke-width="5" stroke-linecap="round"/>
<path d="M831.099 711.258C833.932 716.591 845.499 723.058 869.099 706.258" stroke="black" stroke-width="5" stroke-linecap="round"/>
<path d="M755.633 698.28C758.383 701.996 757.286 709.774 733.288 718.555" stroke="black" stroke-width="5" stroke-linecap="round"/>
<path d="M753.185 687.298C756.436 686.334 758.672 683.976 759.381 682.916C761.943 678.779 756.782 675.167 752.154 675.319C749.657 675.044 740.649 675.438 724.593 679.222" stroke="black" stroke-width="5" stroke-linecap="round"/>
<path d="M738.599 691.229C746.099 690.229 750.599 688.229 756.925 686.273C760.627 687.589 761.142 693.946 755.314 697.95C751.633 700.488 744.961 703.612 733.932 707.402" stroke="black" stroke-width="5" stroke-linecap="round"/>
<path d="M748.08 711.958C748.6 717.975 743.599 737.229 692.1 724.728" stroke="black" stroke-width="5" stroke-linecap="round"/>
<path d="M828.594 666.757C824.094 666.757 809.093 667.756 811.097 658.256C813.101 648.755 831.096 655.257 845.103 658.256" stroke="black" stroke-width="5" stroke-linecap="round"/>
</svg>
