<svg width="994" height="1069" viewBox="0 0 994 1069" fill="none" xmlns="http://www.w3.org/2000/svg">
<path d="M7.28145 320.703L145.705 297.19C146.692 297.022 147.285 298.248 146.542 298.919L82.0316 357.069C81.9578 357.135 81.8808 357.189 81.7888 357.227C76.1775 359.539 54.0717 350.788 42.6589 345.658C42.0977 345.406 41.4427 345.712 41.2751 346.304C38.5461 355.949 35.2002 364.9 33.5648 368.924C33.388 369.359 32.9052 369.613 32.5489 369.307C29.234 366.462 28.8108 348.285 29.0494 338.228C29.0616 337.714 28.6858 337.278 28.18 337.188C19.7046 335.678 8.03644 328.117 3.1117 324.401" stroke="black" stroke-width="5" stroke-linecap="round"/>
<path d="M42.1213 345.66C56.6342 338.773 93.3488 321.523 124.104 307.623" stroke="black" stroke-width="5" stroke-linecap="round"/>
<path d="M33.1323 369.668L60.125 353.656" stroke="black" stroke-width="5" stroke-linecap="round"/>
<path d="M39.115 331.664L76.1096 319.647" stroke="black" stroke-width="5" stroke-linecap="round"/>
<path d="M520.01 568.031L500.365 711.205C500.217 712.283 500.958 713.281 502.033 713.452L651.777 737.244C652.995 737.438 654.095 736.495 654.091 735.262L653.403 530.276C653.399 528.944 652.118 527.988 650.84 528.364L521.428 566.384C520.672 566.606 520.117 567.251 520.01 568.031Z" stroke="black" stroke-width="5"/>
<path d="M668.266 541.999L655.523 529.083C654.267 527.81 652.099 528.7 652.099 530.488V736.167C652.099 737.431 653.257 738.378 654.496 738.127L683.351 732.278C684.347 732.077 685.033 731.159 684.946 730.147L668.835 543.232C668.795 542.767 668.593 542.331 668.266 541.999Z" fill="black"/>
<path d="M669.099 544.613H689.395C690.38 544.613 691.218 545.331 691.371 546.304L719.745 727.644C719.932 728.842 719.019 729.929 717.807 729.953L683.421 730.613" stroke="black" stroke-width="5" stroke-linecap="round"/>
<path d="M554.099 556.613C557.527 534.353 571.047 485.947 596.292 483.675C614.02 482.079 620.048 512.027 617.566 531.919" stroke="black" stroke-width="5" stroke-linecap="round"/>
<path d="M334.099 506.613C337.317 515.56 349.643 533.92 373.201 535.787C402.649 538.121 406.511 545.589 405.384 577.796C404.258 610.004 421.872 627.329 447.099 607.613C506.599 561.113 478.599 672.613 456.099 737.613" stroke="black" stroke-width="5" stroke-linecap="round"/>
<path d="M313.1 288.297C192.519 350.646 110.1 476.504 110.1 621.613C110.1 828.72 277.993 996.613 485.099 996.613C669.275 996.613 822.44 863.84 854.099 688.789C862.451 642.613 858.699 574.213 839.099 516.613" stroke="black" stroke-width="5" stroke-linecap="round"/>
<path d="M586.099 262.1C552.193 252.024 516.278 246.613 479.099 246.613C427.751 246.613 378.813 256.934 334.247 275.613" stroke="black" stroke-width="5" stroke-linecap="round"/>
<path d="M327.221 1011.83L298.652 1027.8" stroke="black" stroke-width="5" stroke-linecap="round"/>
<path d="M370.672 1033.38C372.117 1037.67 382.972 1056.59 388.219 1065.52" stroke="black" stroke-width="5" stroke-linecap="round"/>
<path d="M346.519 1032.56C343.854 1037.94 335.339 1055.11 331.415 1063.02" stroke="black" stroke-width="5" stroke-linecap="round"/>
<path d="M454.099 970.613C446.087 994.613 419.099 986.947 411.099 979.613C387.599 957.113 355.647 905.147 360.147 881.647C364.647 858.147 353.647 833.147 331.147 818.647C313.147 807.047 311.981 791.147 313.647 784.647C315.314 774.147 320.547 746.947 328.147 722.147C335.747 697.347 372.647 709.814 390.147 719.147C397.981 743.314 422.247 790.247 456.647 784.647C491.047 779.047 512.647 798.314 519.147 808.647C523.147 822.48 521.347 856.447 482.147 881.647C433.147 913.147 464.937 938.151 454.099 970.613Z" fill="black"/>
<path d="M779.099 794.613C763.099 808.613 762.433 783.446 764.099 769.113C767.599 749.113 785.599 745.113 791.099 726.613C793.236 719.425 803.599 716.613 807.099 726.613C811.771 739.961 799.099 777.113 779.099 794.613Z" fill="black"/>
<path d="M248.099 616.614C240.099 629.614 200.599 602.114 198.099 599.114C186.599 588.614 163.783 564.544 161.099 543.614C158.599 524.115 147.099 490.115 135.599 472.115C161.099 428.115 168.099 406.448 191.099 383.115C231.099 348.315 266.432 367.281 278.099 380.114C286.932 394.114 313.999 416.714 351.599 395.114C389.199 373.514 400.932 404.114 402.099 422.114C401.099 441.447 388.499 480.614 346.099 482.614C293.099 485.114 292.599 513.114 289.599 537.614C287.199 557.214 272.266 554.114 265.099 550.114C257.932 543.78 239.699 534.914 224.099 550.114C208.499 565.314 225.599 585.447 236.099 593.614C243.432 599.947 254.571 606.097 248.099 616.614Z" fill="black"/>
<path d="M426.099 350.616C461.299 355.816 450.876 379.615 446.599 392.116C436.199 422.516 480.362 418.115 487.599 405.615C496.766 389.782 518.699 358.515 533.099 360.115C547.499 361.715 556.432 350.782 559.099 345.115C564.699 301.115 518.432 303.782 494.599 310.615C484.099 316.782 457.399 327.216 434.599 319.616C411.799 312.016 394.766 313.782 389.099 315.616C345.599 342.616 382.099 344.116 426.099 350.616Z" fill="black"/>
<path d="M232.1 420.615C226.6 356.282 219.099 185.613 422.6 241.115" stroke="black" stroke-width="5" stroke-linecap="round"/>
<path d="M498.099 887.613C577.766 939.447 731.699 1021.91 710.099 937.113" stroke="black" stroke-width="5" stroke-linecap="round"/>
<path d="M697.099 388.359C705.328 368.714 723.019 333.948 741.671 357.521C760.322 381.095 761.556 431.531 772.528 408.917L793.099 354.78" stroke="black" stroke-width="5" stroke-linecap="round"/>
<path d="M935.579 302.124C904.663 331.498 873.306 335.754 861.234 337.113C836.599 339.888 795.734 314.613 795.734 287.113C818.057 270.987 834.277 240.678 839.457 228.362C845.275 233.282 852.844 231.41 855.9 229.858C859.83 227.3 867.369 217.673 866.084 199.627C864.799 181.581 851.696 186.426 845.306 191.104L813.377 194.545C814.72 164.709 796.33 154.754 786.967 153.505C794.325 136.978 781.163 129.746 774.237 126.906C764.302 139.082 751.281 143.988 745.776 146.269C689.741 160.928 655.538 140.859 639.752 115.81C622.615 90.525 625.388 31.1483 673.87 16.6937C689.722 10.5936 727.304 5.5919 750.812 34.3867C820.017 8.95464 852.77 81.7404 861.755 108.171L872.14 132.27C962.325 151.454 970.263 236.753 954.421 274.11C947.239 291.047 946.294 291.945 936.054 301.672L935.579 302.124Z" fill="black"/>
<path d="M768.782 320.111C837.282 320.111 859.412 365.863 867.093 391.611C881.133 436.038 867.093 531.611 672.324 502.941C661.095 501.288 655.595 486.196 677.593 471.736C700.599 456.612 725.095 447.112 754.599 441.112" stroke="black" stroke-width="5" stroke-linecap="round"/>
<path d="M734.282 320.113C691.282 330.521 659.597 374.934 672.284 471.737" stroke="black" stroke-width="5" stroke-linecap="round"/>
<path d="M602.66 520.147C605.4 523.616 615.853 528.989 635.739 522.728C655.626 516.467 663.599 506.683 665.099 502.574" stroke="black" stroke-width="5" stroke-linecap="round"/>
<path d="M584.848 512.117C582.956 515.394 582.969 521.674 598.158 520.578L602.66 520.149L610.49 519.404" stroke="black" stroke-width="5" stroke-linecap="round"/>
<path d="M586.221 500.031C582.566 500.488 575.962 502.888 578.78 508.836C579.631 510.631 581.881 511.64 584.848 512.116C591.716 513.218 602.427 511.468 608.532 510.01" stroke="black" stroke-width="5" stroke-linecap="round"/>
<path d="M659.049 479.901C653.288 474.438 641.259 463.441 630.454 462.659C627.714 462.528 621.842 461.446 620.276 458.158C618.319 454.049 609.315 458.55 615.383 466.768C621.45 474.986 628.888 472.246 624.582 479.29C621.137 484.926 600.311 487.508 590.329 488.095C586.806 488.161 580.268 489.935 582.304 496.509C582.808 498.137 584.234 499.271 586.221 500.031C592.259 502.342 603.472 501.209 609.706 500.031" stroke="black" stroke-width="5" stroke-linecap="round"/>
<path d="M647.524 329.015C599.862 242.122 637.13 207.206 659.556 190.495C656.907 256.298 701.234 288.114 718.734 299.114L703.734 313.114C684.599 327.614 664.099 350.614 647.524 329.015Z" fill="black"/>
<path d="M813.331 195.03C809.725 215.56 792.019 229.121 774.233 225.997C756.446 222.872 744.423 204.088 748.029 183.558C751.636 163.028 769.341 149.467 787.128 152.592C804.914 155.716 816.938 174.5 813.331 195.03Z" stroke="black" stroke-width="5"/>
<path d="M726.112 192.237C722.506 212.767 704.8 226.328 687.014 223.204C669.227 220.079 657.204 201.295 660.81 180.765C664.417 160.235 682.122 146.674 699.909 149.799C717.695 152.923 729.719 171.707 726.112 192.237Z" stroke="black" stroke-width="5"/>
<path d="M726.727 184.526L748.366 185.865" stroke="black" stroke-width="5" stroke-linecap="round"/>
<path d="M738.832 205.61C732.49 221.898 719.522 235.491 733.859 245.806" stroke="black" stroke-width="5" stroke-linecap="round"/>
<path d="M718.826 267.312C723.168 272.112 735.28 278.83 748.992 267.312" stroke="black" stroke-width="5" stroke-linecap="round"/>
<ellipse cx="689.814" cy="202.381" rx="7.41908" ry="9" transform="rotate(-16.8961 689.814 202.381)" fill="black"/>
<ellipse cx="774.774" cy="204.429" rx="7.19079" ry="9" transform="rotate(-18.5025 774.774 204.429)" fill="black"/>
<path d="M853.369 203.453C854.47 206.431 855.537 213.301 850.996 216.958" stroke="black" stroke-width="5" stroke-linecap="round"/>
<path d="M669.565 144.224C656.65 168.871 645.034 229.09 696.609 281.029C748.184 332.969 803.473 284.256 824.67 253.407L839.662 227.5C845.889 233.003 859.544 237.954 864.355 213.74C869.165 189.525 859.673 186.234 854.326 187.615C851.427 188.266 845.075 191.141 842.856 197.433" stroke="black" stroke-width="5" stroke-linecap="round"/>
<path d="M813.329 193.637L848.753 190.115" stroke="black" stroke-width="5" stroke-linecap="round"/>
<path d="M781.471 176.622C787.063 177.419 798.2 181.898 798.007 193.44" stroke="black" stroke-width="5" stroke-linecap="round"/>
<path d="M674.916 181.133C679.183 179.257 689.617 177.021 697.215 183.081" stroke="black" stroke-width="5" stroke-linecap="round"/>
<path d="M777.099 320.416V296.613" stroke="black" stroke-width="5" stroke-linecap="round"/>
<path d="M725.104 301.48L725.099 322.612" stroke="black" stroke-width="5" stroke-linecap="round"/>
</svg>
