<svg width="925" height="810" viewBox="0 0 925 810" fill="none" xmlns="http://www.w3.org/2000/svg">
<path d="M839.37 99.4323C831.775 101.62 823.547 114.319 820.382 120.395C825.129 119.787 835.889 116.567 840.952 108.546C846.015 100.526 842.007 99.1285 839.37 99.4323Z" fill="black"/>
<path d="M835.99 79.45C828.345 80.2377 822.847 99.5081 820.382 108.395C825.859 103.824 836.647 94.684 839.276 91.6372C844.204 85.9245 843.383 78.6883 835.99 79.45Z" fill="black"/>
<path d="M810.763 70.646C805.401 78.854 817.02 91.1864 822.382 99.3945C822.382 94.2265 822.382 83.4141 822.382 78.8541C822.382 71.5581 814.635 64.7192 810.763 70.646Z" fill="black"/>
<path d="M821.382 111.395C815.525 103.401 803.013 89.5469 799.818 98.0728C795.824 108.73 820.584 111.395 821.382 111.395Z" fill="black"/>
<path d="M821.382 123.395L820.382 93.3945" stroke="black" stroke-width="3" stroke-linecap="round"/>
<path d="M812.892 146.637C814.88 141.794 817.84 129.366 818.458 123.395H826.809C827.18 130.755 830.983 141.31 832.839 146.637C838.406 159.226 833.612 167.296 830.056 169.395H816.603C807.789 166.489 810.108 153.416 812.892 146.637Z" stroke="black" stroke-width="3"/>
<path d="M756.382 199.573C768.669 202.12 762.908 219.208 771.913 223.755C782.662 229.183 786.363 198.623 784.964 185.651C784.563 179.964 778.008 177.434 777.123 185.651C776.184 194.38 786.905 228.227 799.192 215.166L807.396 205.577C809.676 202.74 814.169 198.798 817.967 205.577C821.764 212.357 827.815 210.116 830.366 208.149L838.382 202.258" stroke="black" stroke-width="5" stroke-linecap="round"/>
<path d="M522.382 103.359H673.882" stroke="black" stroke-width="5" stroke-linecap="round"/>
<path d="M522.387 155.856L642.382 155.856" stroke="black" stroke-width="5" stroke-linecap="round"/>
<path d="M522.386 179.442L623.882 179.442" stroke="black" stroke-width="5" stroke-linecap="round"/>
<path d="M428.376 202.734L674.883 202.734" stroke="black" stroke-width="5" stroke-linecap="round"/>
<path d="M427.385 221.807L540.382 221.807" stroke="black" stroke-width="5" stroke-linecap="round"/>
<path d="M522.868 130.847L591.485 129.642" stroke="black" stroke-width="5" stroke-linecap="round"/>
<rect x="425.939" y="95.4851" width="66.9465" height="85.4889" rx="2.5" transform="rotate(-1.31232 425.939 95.4851)" stroke="black" stroke-width="5"/>
<path d="M788.382 40.8945V13.3945C788.382 7.87168 783.905 3.39453 778.382 3.39453H399.382C393.859 3.39453 389.382 7.87169 389.382 13.3945V298.395C389.382 303.917 393.859 308.395 399.382 308.395H778.382C783.905 308.395 788.382 303.917 788.382 298.395V292.895" stroke="black" stroke-width="5" stroke-linecap="round"/>
<rect x="409.882" y="23.8945" width="358" height="24" rx="12" stroke="black" stroke-width="5"/>
<circle cx="429.382" cy="35.3945" r="4.5" stroke="black" stroke-width="3"/>
<circle cx="447.382" cy="35.3945" r="4.5" stroke="black" stroke-width="3"/>
<circle cx="464.382" cy="35.3945" r="4.5" stroke="black" stroke-width="3"/>
<path d="M290.162 408.136C292.952 399.952 290.412 394.444 287.922 393.395C273.022 407.245 250.413 402.104 242.028 393.71C239.047 396.48 240.786 404.673 242.028 407.192C258.176 425.323 281.152 415.166 290.162 408.136Z" fill="black"/>
<path d="M333.262 281.52C326.432 306.204 323.022 308.391 313.082 319.327C313.082 308.519 311.242 290.379 311.242 282.825C278.722 282.825 251.27 269.461 241.612 262.778C241.958 285.44 220.853 300.256 220.853 300.256C220.853 300.256 223.88 309.408 225.61 329.891C226.994 346.276 223.016 343.11 220.853 339.478C214.625 319.257 204.419 324.661 200.094 329.891C147.024 243.089 228.637 226.317 244.206 227.915C255.97 217.805 272.372 209.882 283.912 208.72C325.502 204.529 344.332 241.497 333.262 281.52Z" fill="black"/>
<path d="M221.382 354.358C227.007 388.544 264.763 413.126 292.012 385.433C319.252 357.74 313.802 307.049 310.892 283.395" stroke="black" stroke-width="5" stroke-linecap="round"/>
<path d="M198.883 326.895C195.507 335.291 199.322 354.395 221.383 354.395" stroke="black" stroke-width="5" stroke-linecap="round"/>
<path d="M209.522 333.395C209.08 335.046 209.433 338.957 214.382 341.395" stroke="black" stroke-width="5" stroke-linecap="round"/>
<path d="M310.882 349.895C318.252 346.791 321.952 335.799 319.952 317.395" stroke="black" stroke-width="5" stroke-linecap="round"/>
<path d="M272.382 369.962C279.462 372.018 279.012 366.36 284.382 361.395" stroke="black" stroke-width="5" stroke-linecap="round"/>
<path d="M292.522 337.59C294.832 337.812 296.992 334.935 297.352 331.165C297.712 327.395 296.142 324.159 293.842 323.938C291.532 323.716 289.372 326.593 289.012 330.363C288.652 334.133 290.222 337.369 292.522 337.59Z" fill="black"/>
<path d="M250.509 337.618C252.827 337.9 255.071 335.122 255.522 331.413C255.973 327.704 254.459 324.47 252.141 324.188C249.824 323.906 247.579 326.684 247.128 330.393C246.677 334.101 248.191 337.336 250.509 337.618Z" fill="black"/>
<path d="M239.382 317.395C240.343 314.438 244.488 308.967 253.382 310.741" stroke="black" stroke-width="5" stroke-linecap="round"/>
<path d="M282.382 311.395C284.502 309.886 290.272 307.772 296.382 311.395" stroke="black" stroke-width="5" stroke-linecap="round"/>
<path d="M274.902 323.395C275.592 329.447 276.072 341.719 272.382 342.395" stroke="black" stroke-width="5" stroke-linecap="round"/>
<path d="M440.283 495.984C418.783 472.484 361.383 417.984 303.783 387.984" stroke="black" stroke-width="5" stroke-linecap="round"/>
<path d="M525.783 685.484C396.983 879.084 171.782 801.984 90.7818 724.484C38.7818 670.651 -31.2182 551.484 22.2818 434.484C60.8938 350.044 135.754 339.679 192.883 349.703" stroke="black" stroke-width="5" stroke-linecap="round"/>
<path d="M461.783 560.485C392.983 546.485 325.783 584.985 300.783 605.985C350.783 617.985 389.953 642.318 403.283 652.985C410.483 648.585 426.453 645.151 433.543 643.985C475.743 665.625 564.233 704.298 609.283 723.485C624.383 727.893 646.383 683.393 634.283 669.985L461.783 560.485Z" fill="black"/>
<path d="M121.282 427.988C119.115 447.488 119.882 497.788 140.282 542.988" stroke="black" stroke-width="5" stroke-linecap="round"/>
<path d="M105.781 556.984C115.115 571.65 149.081 607.284 210.281 632.484" stroke="black" stroke-width="5" stroke-linecap="round"/>
<path d="M267.281 653.484C279.452 656.817 309.682 661.484 333.282 653.484" stroke="black" stroke-width="5" stroke-linecap="round"/>
<path d="M210.281 596.485C245.948 593.652 335.782 601.785 409.782 656.985" stroke="black" stroke-width="5" stroke-linecap="round"/>
<path d="M230.781 455.484C232.948 462.818 231.891 483.882 235.781 495.984C240.281 509.984 262.948 515.818 274.782 517.984C295.282 521.738 317.882 520.484 340.282 528.484" stroke="black" stroke-width="5" stroke-linecap="round"/>
<path d="M235.781 405.394C212.382 402.894 180.025 410.894 173.281 446.486C166.081 484.486 183.114 530.153 192.281 551.486C199.586 568.486 247.281 582.686 327.282 563.486" stroke="black" stroke-width="5" stroke-linecap="round"/>
<path d="M327.283 563.484C331.453 556.817 340.283 540.484 340.283 528.484" stroke="black" stroke-width="5" stroke-linecap="round"/>
<path d="M294.882 407.395C327.882 407.395 353.682 421.387 373.282 452.987C392.882 484.587 418.782 509.487 429.282 517.987" stroke="black" stroke-width="5" stroke-linecap="round"/>
<path d="M363.783 466.984C367.113 473.984 371.033 484.17 373.283 495.984C375.283 506.484 380.783 519.984 382.783 523.984" stroke="black" stroke-width="5" stroke-linecap="round"/>
<path d="M214.281 570.984C215.781 576.15 219.781 586.984 225.781 594.984" stroke="black" stroke-width="5" stroke-linecap="round"/>
<path d="M514.283 556.484L450.783 558.484L461.783 560.484L561.783 623.984C554.183 581.984 526.953 561.317 514.283 556.484Z" fill="black"/>
<path d="M567.783 762.984L525.283 688.984L526.783 686.984L609.283 722.984V731.484C605.883 751.892 578.383 774.392 567.783 762.984Z" fill="black"/>
<path d="M340.283 528.485C345.113 530.485 357.083 533.194 366.283 529.594C375.483 525.994 389.113 525.761 394.783 526.094C399.453 527.094 408.983 531.894 409.783 543.094C410.283 547.594 402.913 548.594 401.293 544.094" stroke="black" stroke-width="5" stroke-linecap="round"/>
<path d="M383.283 535.594C388.813 535.594 398.893 537.403 401.293 544.094C401.713 545.271 401.903 546.599 401.783 548.094C400.283 552.985 391.953 549.61 388.783 546.985C387.243 544.818 382.323 542.538 379.783 541.985" stroke="black" stroke-width="5" stroke-linecap="round"/>
<path d="M379.783 541.984C382.323 542.537 387.243 544.817 388.783 546.984C389.563 548.083 388.723 549.503 387.783 550.984C384.783 554.484 379.793 552.194 372.783 549.984C366.783 548.093 361.113 553.817 360.283 556.984" stroke="black" stroke-width="5" stroke-linecap="round"/>
<path d="M329.283 559.984C330.113 560.15 332.983 560.684 337.783 561.484" stroke="black" stroke-width="5" stroke-linecap="round"/>
<path d="M336.783 560.984C339.183 560.984 396.453 551.484 424.783 546.484H532.783C538.613 546.817 552.283 545.284 560.283 536.484" stroke="black" stroke-width="5" stroke-linecap="round"/>
<path d="M560.282 536.989C569.782 512.656 591.282 457.888 599.282 435.488C607.282 413.088 594.282 408.155 586.782 408.488C570.282 408.155 530.482 407.688 503.282 408.488C476.082 409.288 468.282 422.488 464.782 430.488L426.782 536.489C425.952 539.156 425.482 544.489 430.282 546.489" stroke="black" stroke-width="5" stroke-linecap="round"/>
<path d="M560.283 536.484C556.453 545.984 544.283 560.484 514.783 558.984" stroke="black" stroke-width="5" stroke-linecap="round"/>
<path d="M336.783 560.984C336.453 566.15 341.783 574.484 367.283 571.484" stroke="black" stroke-width="5" stroke-linecap="round"/>
<path d="M383.283 676.984C400.453 676.984 439.683 672.884 459.283 656.484" stroke="black" stroke-width="5" stroke-linecap="round"/>
<path d="M630.203 718.359C637.793 726.017 655.933 740.429 678.383 724.395C723.883 691.895 700.883 678.394 674.883 694.893C669.383 698.384 661.483 704.093 653.883 700.893" stroke="black" stroke-width="5" stroke-linecap="round"/>
<path d="M591.382 766.571C597.312 780.43 608.912 799.197 627.912 793.891C664.882 783.568 681.392 746.428 647.912 761.576C638.302 765.923 631.882 770.07 619.382 757.781" stroke="black" stroke-width="5" stroke-linecap="round"/>
<rect x="727.882" y="58.8945" width="194" height="230" rx="7.5" stroke="black" stroke-width="5"/>
<path d="M748.882 237.395H904.382" stroke="black" stroke-width="5" stroke-linecap="round"/>
<rect x="793.382" y="254.395" width="65" height="16" rx="8" fill="black"/>
</svg>
